<?xml version="1.0" encoding="utf-8" standalone="no"?>
<!DOCTYPE svg PUBLIC "-//W3C//DTD SVG 1.1//EN"
  "http://www.w3.org/Graphics/SVG/1.1/DTD/svg11.dtd">
<svg xmlns:xlink="http://www.w3.org/1999/xlink" width="720pt" height="432pt" viewBox="0 0 720 432" xmlns="http://www.w3.org/2000/svg" version="1.1">
 <metadata>
  <rdf:RDF xmlns:dc="http://purl.org/dc/elements/1.1/" xmlns:cc="http://creativecommons.org/ns#" xmlns:rdf="http://www.w3.org/1999/02/22-rdf-syntax-ns#">
   <cc:Work>
    <dc:type rdf:resource="http://purl.org/dc/dcmitype/StillImage"/>
    <dc:date>2025-01-14T22:25:25.034917</dc:date>
    <dc:format>image/svg+xml</dc:format>
    <dc:creator>
     <cc:Agent>
      <dc:title>Matplotlib v3.10.0, https://matplotlib.org/</dc:title>
     </cc:Agent>
    </dc:creator>
   </cc:Work>
  </rdf:RDF>
 </metadata>
 <defs>
  <style type="text/css">*{stroke-linejoin: round; stroke-linecap: butt}</style>
 </defs>
 <g id="figure_1">
  <g id="patch_1">
   <path d="M 0 432 
L 720 432 
L 720 0 
L 0 0 
z
" style="fill: #ffffff"/>
  </g>
  <g id="axes_1">
   <g id="patch_2">
    <path d="M 90 384.48 
L 648 384.48 
L 648 51.84 
L 90 51.84 
z
" style="fill: #ffffff"/>
   </g>
   <g id="matplotlib.axis_1">
    <g id="xtick_1">
     <g id="line2d_1">
      <path d="M 141.157165 384.48 
L 141.157165 51.84 
" clip-path="url(#p9252f04510)" style="fill: none; stroke: #b0b0b0; stroke-width: 0.8; stroke-linecap: square"/>
     </g>
     <g id="line2d_2">
      <defs>
       <path id="m153aaf0538" d="M 0 0 
L 0 3.5 
" style="stroke: #000000; stroke-width: 0.8"/>
      </defs>
      <g>
       <use xlink:href="#m153aaf0538" x="141.157165" y="384.48" style="stroke: #000000; stroke-width: 0.8"/>
      </g>
     </g>
     <g id="text_1">
      <!-- 01-14 14 -->
      <g transform="translate(118.676696 399.078438) scale(0.1 -0.1)">
       <defs>
        <path id="DejaVuSans-30" d="M 2034 4250 
Q 1547 4250 1301 3770 
Q 1056 3291 1056 2328 
Q 1056 1369 1301 889 
Q 1547 409 2034 409 
Q 2525 409 2770 889 
Q 3016 1369 3016 2328 
Q 3016 3291 2770 3770 
Q 2525 4250 2034 4250 
z
M 2034 4750 
Q 2819 4750 3233 4129 
Q 3647 3509 3647 2328 
Q 3647 1150 3233 529 
Q 2819 -91 2034 -91 
Q 1250 -91 836 529 
Q 422 1150 422 2328 
Q 422 3509 836 4129 
Q 1250 4750 2034 4750 
z
" transform="scale(0.015625)"/>
        <path id="DejaVuSans-31" d="M 794 531 
L 1825 531 
L 1825 4091 
L 703 3866 
L 703 4441 
L 1819 4666 
L 2450 4666 
L 2450 531 
L 3481 531 
L 3481 0 
L 794 0 
L 794 531 
z
" transform="scale(0.015625)"/>
        <path id="DejaVuSans-2d" d="M 313 2009 
L 1997 2009 
L 1997 1497 
L 313 1497 
L 313 2009 
z
" transform="scale(0.015625)"/>
        <path id="DejaVuSans-34" d="M 2419 4116 
L 825 1625 
L 2419 1625 
L 2419 4116 
z
M 2253 4666 
L 3047 4666 
L 3047 1625 
L 3713 1625 
L 3713 1100 
L 3047 1100 
L 3047 0 
L 2419 0 
L 2419 1100 
L 313 1100 
L 313 1709 
L 2253 4666 
z
" transform="scale(0.015625)"/>
        <path id="DejaVuSans-20" transform="scale(0.015625)"/>
       </defs>
       <use xlink:href="#DejaVuSans-30"/>
       <use xlink:href="#DejaVuSans-31" transform="translate(63.623047 0)"/>
       <use xlink:href="#DejaVuSans-2d" transform="translate(127.246094 0)"/>
       <use xlink:href="#DejaVuSans-31" transform="translate(163.330078 0)"/>
       <use xlink:href="#DejaVuSans-34" transform="translate(226.953125 0)"/>
       <use xlink:href="#DejaVuSans-20" transform="translate(290.576172 0)"/>
       <use xlink:href="#DejaVuSans-31" transform="translate(322.363281 0)"/>
       <use xlink:href="#DejaVuSans-34" transform="translate(385.986328 0)"/>
      </g>
     </g>
    </g>
    <g id="xtick_2">
     <g id="line2d_3">
      <path d="M 198.476117 384.48 
L 198.476117 51.84 
" clip-path="url(#p9252f04510)" style="fill: none; stroke: #b0b0b0; stroke-width: 0.8; stroke-linecap: square"/>
     </g>
     <g id="line2d_4">
      <g>
       <use xlink:href="#m153aaf0538" x="198.476117" y="384.48" style="stroke: #000000; stroke-width: 0.8"/>
      </g>
     </g>
     <g id="text_2">
      <!-- 01-14 15 -->
      <g transform="translate(175.995648 399.078438) scale(0.1 -0.1)">
       <defs>
        <path id="DejaVuSans-35" d="M 691 4666 
L 3169 4666 
L 3169 4134 
L 1269 4134 
L 1269 2991 
Q 1406 3038 1543 3061 
Q 1681 3084 1819 3084 
Q 2600 3084 3056 2656 
Q 3513 2228 3513 1497 
Q 3513 744 3044 326 
Q 2575 -91 1722 -91 
Q 1428 -91 1123 -41 
Q 819 9 494 109 
L 494 744 
Q 775 591 1075 516 
Q 1375 441 1709 441 
Q 2250 441 2565 725 
Q 2881 1009 2881 1497 
Q 2881 1984 2565 2268 
Q 2250 2553 1709 2553 
Q 1456 2553 1204 2497 
Q 953 2441 691 2322 
L 691 4666 
z
" transform="scale(0.015625)"/>
       </defs>
       <use xlink:href="#DejaVuSans-30"/>
       <use xlink:href="#DejaVuSans-31" transform="translate(63.623047 0)"/>
       <use xlink:href="#DejaVuSans-2d" transform="translate(127.246094 0)"/>
       <use xlink:href="#DejaVuSans-31" transform="translate(163.330078 0)"/>
       <use xlink:href="#DejaVuSans-34" transform="translate(226.953125 0)"/>
       <use xlink:href="#DejaVuSans-20" transform="translate(290.576172 0)"/>
       <use xlink:href="#DejaVuSans-31" transform="translate(322.363281 0)"/>
       <use xlink:href="#DejaVuSans-35" transform="translate(385.986328 0)"/>
      </g>
     </g>
    </g>
    <g id="xtick_3">
     <g id="line2d_5">
      <path d="M 255.795069 384.48 
L 255.795069 51.84 
" clip-path="url(#p9252f04510)" style="fill: none; stroke: #b0b0b0; stroke-width: 0.8; stroke-linecap: square"/>
     </g>
     <g id="line2d_6">
      <g>
       <use xlink:href="#m153aaf0538" x="255.795069" y="384.48" style="stroke: #000000; stroke-width: 0.8"/>
      </g>
     </g>
     <g id="text_3">
      <!-- 01-14 16 -->
      <g transform="translate(233.314601 399.078438) scale(0.1 -0.1)">
       <defs>
        <path id="DejaVuSans-36" d="M 2113 2584 
Q 1688 2584 1439 2293 
Q 1191 2003 1191 1497 
Q 1191 994 1439 701 
Q 1688 409 2113 409 
Q 2538 409 2786 701 
Q 3034 994 3034 1497 
Q 3034 2003 2786 2293 
Q 2538 2584 2113 2584 
z
M 3366 4563 
L 3366 3988 
Q 3128 4100 2886 4159 
Q 2644 4219 2406 4219 
Q 1781 4219 1451 3797 
Q 1122 3375 1075 2522 
Q 1259 2794 1537 2939 
Q 1816 3084 2150 3084 
Q 2853 3084 3261 2657 
Q 3669 2231 3669 1497 
Q 3669 778 3244 343 
Q 2819 -91 2113 -91 
Q 1303 -91 875 529 
Q 447 1150 447 2328 
Q 447 3434 972 4092 
Q 1497 4750 2381 4750 
Q 2619 4750 2861 4703 
Q 3103 4656 3366 4563 
z
" transform="scale(0.015625)"/>
       </defs>
       <use xlink:href="#DejaVuSans-30"/>
       <use xlink:href="#DejaVuSans-31" transform="translate(63.623047 0)"/>
       <use xlink:href="#DejaVuSans-2d" transform="translate(127.246094 0)"/>
       <use xlink:href="#DejaVuSans-31" transform="translate(163.330078 0)"/>
       <use xlink:href="#DejaVuSans-34" transform="translate(226.953125 0)"/>
       <use xlink:href="#DejaVuSans-20" transform="translate(290.576172 0)"/>
       <use xlink:href="#DejaVuSans-31" transform="translate(322.363281 0)"/>
       <use xlink:href="#DejaVuSans-36" transform="translate(385.986328 0)"/>
      </g>
     </g>
    </g>
    <g id="xtick_4">
     <g id="line2d_7">
      <path d="M 313.114022 384.48 
L 313.114022 51.84 
" clip-path="url(#p9252f04510)" style="fill: none; stroke: #b0b0b0; stroke-width: 0.8; stroke-linecap: square"/>
     </g>
     <g id="line2d_8">
      <g>
       <use xlink:href="#m153aaf0538" x="313.114022" y="384.48" style="stroke: #000000; stroke-width: 0.8"/>
      </g>
     </g>
     <g id="text_4">
      <!-- 01-14 17 -->
      <g transform="translate(290.633553 399.078438) scale(0.1 -0.1)">
       <defs>
        <path id="DejaVuSans-37" d="M 525 4666 
L 3525 4666 
L 3525 4397 
L 1831 0 
L 1172 0 
L 2766 4134 
L 525 4134 
L 525 4666 
z
" transform="scale(0.015625)"/>
       </defs>
       <use xlink:href="#DejaVuSans-30"/>
       <use xlink:href="#DejaVuSans-31" transform="translate(63.623047 0)"/>
       <use xlink:href="#DejaVuSans-2d" transform="translate(127.246094 0)"/>
       <use xlink:href="#DejaVuSans-31" transform="translate(163.330078 0)"/>
       <use xlink:href="#DejaVuSans-34" transform="translate(226.953125 0)"/>
       <use xlink:href="#DejaVuSans-20" transform="translate(290.576172 0)"/>
       <use xlink:href="#DejaVuSans-31" transform="translate(322.363281 0)"/>
       <use xlink:href="#DejaVuSans-37" transform="translate(385.986328 0)"/>
      </g>
     </g>
    </g>
    <g id="xtick_5">
     <g id="line2d_9">
      <path d="M 370.432974 384.48 
L 370.432974 51.84 
" clip-path="url(#p9252f04510)" style="fill: none; stroke: #b0b0b0; stroke-width: 0.8; stroke-linecap: square"/>
     </g>
     <g id="line2d_10">
      <g>
       <use xlink:href="#m153aaf0538" x="370.432974" y="384.48" style="stroke: #000000; stroke-width: 0.8"/>
      </g>
     </g>
     <g id="text_5">
      <!-- 01-14 18 -->
      <g transform="translate(347.952505 399.078438) scale(0.1 -0.1)">
       <defs>
        <path id="DejaVuSans-38" d="M 2034 2216 
Q 1584 2216 1326 1975 
Q 1069 1734 1069 1313 
Q 1069 891 1326 650 
Q 1584 409 2034 409 
Q 2484 409 2743 651 
Q 3003 894 3003 1313 
Q 3003 1734 2745 1975 
Q 2488 2216 2034 2216 
z
M 1403 2484 
Q 997 2584 770 2862 
Q 544 3141 544 3541 
Q 544 4100 942 4425 
Q 1341 4750 2034 4750 
Q 2731 4750 3128 4425 
Q 3525 4100 3525 3541 
Q 3525 3141 3298 2862 
Q 3072 2584 2669 2484 
Q 3125 2378 3379 2068 
Q 3634 1759 3634 1313 
Q 3634 634 3220 271 
Q 2806 -91 2034 -91 
Q 1263 -91 848 271 
Q 434 634 434 1313 
Q 434 1759 690 2068 
Q 947 2378 1403 2484 
z
M 1172 3481 
Q 1172 3119 1398 2916 
Q 1625 2713 2034 2713 
Q 2441 2713 2670 2916 
Q 2900 3119 2900 3481 
Q 2900 3844 2670 4047 
Q 2441 4250 2034 4250 
Q 1625 4250 1398 4047 
Q 1172 3844 1172 3481 
z
" transform="scale(0.015625)"/>
       </defs>
       <use xlink:href="#DejaVuSans-30"/>
       <use xlink:href="#DejaVuSans-31" transform="translate(63.623047 0)"/>
       <use xlink:href="#DejaVuSans-2d" transform="translate(127.246094 0)"/>
       <use xlink:href="#DejaVuSans-31" transform="translate(163.330078 0)"/>
       <use xlink:href="#DejaVuSans-34" transform="translate(226.953125 0)"/>
       <use xlink:href="#DejaVuSans-20" transform="translate(290.576172 0)"/>
       <use xlink:href="#DejaVuSans-31" transform="translate(322.363281 0)"/>
       <use xlink:href="#DejaVuSans-38" transform="translate(385.986328 0)"/>
      </g>
     </g>
    </g>
    <g id="xtick_6">
     <g id="line2d_11">
      <path d="M 427.751926 384.48 
L 427.751926 51.84 
" clip-path="url(#p9252f04510)" style="fill: none; stroke: #b0b0b0; stroke-width: 0.8; stroke-linecap: square"/>
     </g>
     <g id="line2d_12">
      <g>
       <use xlink:href="#m153aaf0538" x="427.751926" y="384.48" style="stroke: #000000; stroke-width: 0.8"/>
      </g>
     </g>
     <g id="text_6">
      <!-- 01-14 19 -->
      <g transform="translate(405.271457 399.078438) scale(0.1 -0.1)">
       <defs>
        <path id="DejaVuSans-39" d="M 703 97 
L 703 672 
Q 941 559 1184 500 
Q 1428 441 1663 441 
Q 2288 441 2617 861 
Q 2947 1281 2994 2138 
Q 2813 1869 2534 1725 
Q 2256 1581 1919 1581 
Q 1219 1581 811 2004 
Q 403 2428 403 3163 
Q 403 3881 828 4315 
Q 1253 4750 1959 4750 
Q 2769 4750 3195 4129 
Q 3622 3509 3622 2328 
Q 3622 1225 3098 567 
Q 2575 -91 1691 -91 
Q 1453 -91 1209 -44 
Q 966 3 703 97 
z
M 1959 2075 
Q 2384 2075 2632 2365 
Q 2881 2656 2881 3163 
Q 2881 3666 2632 3958 
Q 2384 4250 1959 4250 
Q 1534 4250 1286 3958 
Q 1038 3666 1038 3163 
Q 1038 2656 1286 2365 
Q 1534 2075 1959 2075 
z
" transform="scale(0.015625)"/>
       </defs>
       <use xlink:href="#DejaVuSans-30"/>
       <use xlink:href="#DejaVuSans-31" transform="translate(63.623047 0)"/>
       <use xlink:href="#DejaVuSans-2d" transform="translate(127.246094 0)"/>
       <use xlink:href="#DejaVuSans-31" transform="translate(163.330078 0)"/>
       <use xlink:href="#DejaVuSans-34" transform="translate(226.953125 0)"/>
       <use xlink:href="#DejaVuSans-20" transform="translate(290.576172 0)"/>
       <use xlink:href="#DejaVuSans-31" transform="translate(322.363281 0)"/>
       <use xlink:href="#DejaVuSans-39" transform="translate(385.986328 0)"/>
      </g>
     </g>
    </g>
    <g id="xtick_7">
     <g id="line2d_13">
      <path d="M 485.070878 384.48 
L 485.070878 51.84 
" clip-path="url(#p9252f04510)" style="fill: none; stroke: #b0b0b0; stroke-width: 0.8; stroke-linecap: square"/>
     </g>
     <g id="line2d_14">
      <g>
       <use xlink:href="#m153aaf0538" x="485.070878" y="384.48" style="stroke: #000000; stroke-width: 0.8"/>
      </g>
     </g>
     <g id="text_7">
      <!-- 01-14 20 -->
      <g transform="translate(462.59041 399.078438) scale(0.1 -0.1)">
       <defs>
        <path id="DejaVuSans-32" d="M 1228 531 
L 3431 531 
L 3431 0 
L 469 0 
L 469 531 
Q 828 903 1448 1529 
Q 2069 2156 2228 2338 
Q 2531 2678 2651 2914 
Q 2772 3150 2772 3378 
Q 2772 3750 2511 3984 
Q 2250 4219 1831 4219 
Q 1534 4219 1204 4116 
Q 875 4013 500 3803 
L 500 4441 
Q 881 4594 1212 4672 
Q 1544 4750 1819 4750 
Q 2544 4750 2975 4387 
Q 3406 4025 3406 3419 
Q 3406 3131 3298 2873 
Q 3191 2616 2906 2266 
Q 2828 2175 2409 1742 
Q 1991 1309 1228 531 
z
" transform="scale(0.015625)"/>
       </defs>
       <use xlink:href="#DejaVuSans-30"/>
       <use xlink:href="#DejaVuSans-31" transform="translate(63.623047 0)"/>
       <use xlink:href="#DejaVuSans-2d" transform="translate(127.246094 0)"/>
       <use xlink:href="#DejaVuSans-31" transform="translate(163.330078 0)"/>
       <use xlink:href="#DejaVuSans-34" transform="translate(226.953125 0)"/>
       <use xlink:href="#DejaVuSans-20" transform="translate(290.576172 0)"/>
       <use xlink:href="#DejaVuSans-32" transform="translate(322.363281 0)"/>
       <use xlink:href="#DejaVuSans-30" transform="translate(385.986328 0)"/>
      </g>
     </g>
    </g>
    <g id="xtick_8">
     <g id="line2d_15">
      <path d="M 542.389831 384.48 
L 542.389831 51.84 
" clip-path="url(#p9252f04510)" style="fill: none; stroke: #b0b0b0; stroke-width: 0.8; stroke-linecap: square"/>
     </g>
     <g id="line2d_16">
      <g>
       <use xlink:href="#m153aaf0538" x="542.389831" y="384.48" style="stroke: #000000; stroke-width: 0.8"/>
      </g>
     </g>
     <g id="text_8">
      <!-- 01-14 21 -->
      <g transform="translate(519.909362 399.078438) scale(0.1 -0.1)">
       <use xlink:href="#DejaVuSans-30"/>
       <use xlink:href="#DejaVuSans-31" transform="translate(63.623047 0)"/>
       <use xlink:href="#DejaVuSans-2d" transform="translate(127.246094 0)"/>
       <use xlink:href="#DejaVuSans-31" transform="translate(163.330078 0)"/>
       <use xlink:href="#DejaVuSans-34" transform="translate(226.953125 0)"/>
       <use xlink:href="#DejaVuSans-20" transform="translate(290.576172 0)"/>
       <use xlink:href="#DejaVuSans-32" transform="translate(322.363281 0)"/>
       <use xlink:href="#DejaVuSans-31" transform="translate(385.986328 0)"/>
      </g>
     </g>
    </g>
    <g id="xtick_9">
     <g id="line2d_17">
      <path d="M 599.708783 384.48 
L 599.708783 51.84 
" clip-path="url(#p9252f04510)" style="fill: none; stroke: #b0b0b0; stroke-width: 0.8; stroke-linecap: square"/>
     </g>
     <g id="line2d_18">
      <g>
       <use xlink:href="#m153aaf0538" x="599.708783" y="384.48" style="stroke: #000000; stroke-width: 0.8"/>
      </g>
     </g>
     <g id="text_9">
      <!-- 01-14 22 -->
      <g transform="translate(577.228314 399.078438) scale(0.1 -0.1)">
       <use xlink:href="#DejaVuSans-30"/>
       <use xlink:href="#DejaVuSans-31" transform="translate(63.623047 0)"/>
       <use xlink:href="#DejaVuSans-2d" transform="translate(127.246094 0)"/>
       <use xlink:href="#DejaVuSans-31" transform="translate(163.330078 0)"/>
       <use xlink:href="#DejaVuSans-34" transform="translate(226.953125 0)"/>
       <use xlink:href="#DejaVuSans-20" transform="translate(290.576172 0)"/>
       <use xlink:href="#DejaVuSans-32" transform="translate(322.363281 0)"/>
       <use xlink:href="#DejaVuSans-32" transform="translate(385.986328 0)"/>
      </g>
     </g>
    </g>
    <g id="text_10">
     <!-- Date and Time -->
     <g transform="translate(332.230469 412.756563) scale(0.1 -0.1)">
      <defs>
       <path id="DejaVuSans-44" d="M 1259 4147 
L 1259 519 
L 2022 519 
Q 2988 519 3436 956 
Q 3884 1394 3884 2338 
Q 3884 3275 3436 3711 
Q 2988 4147 2022 4147 
L 1259 4147 
z
M 628 4666 
L 1925 4666 
Q 3281 4666 3915 4102 
Q 4550 3538 4550 2338 
Q 4550 1131 3912 565 
Q 3275 0 1925 0 
L 628 0 
L 628 4666 
z
" transform="scale(0.015625)"/>
       <path id="DejaVuSans-61" d="M 2194 1759 
Q 1497 1759 1228 1600 
Q 959 1441 959 1056 
Q 959 750 1161 570 
Q 1363 391 1709 391 
Q 2188 391 2477 730 
Q 2766 1069 2766 1631 
L 2766 1759 
L 2194 1759 
z
M 3341 1997 
L 3341 0 
L 2766 0 
L 2766 531 
Q 2569 213 2275 61 
Q 1981 -91 1556 -91 
Q 1019 -91 701 211 
Q 384 513 384 1019 
Q 384 1609 779 1909 
Q 1175 2209 1959 2209 
L 2766 2209 
L 2766 2266 
Q 2766 2663 2505 2880 
Q 2244 3097 1772 3097 
Q 1472 3097 1187 3025 
Q 903 2953 641 2809 
L 641 3341 
Q 956 3463 1253 3523 
Q 1550 3584 1831 3584 
Q 2591 3584 2966 3190 
Q 3341 2797 3341 1997 
z
" transform="scale(0.015625)"/>
       <path id="DejaVuSans-74" d="M 1172 4494 
L 1172 3500 
L 2356 3500 
L 2356 3053 
L 1172 3053 
L 1172 1153 
Q 1172 725 1289 603 
Q 1406 481 1766 481 
L 2356 481 
L 2356 0 
L 1766 0 
Q 1100 0 847 248 
Q 594 497 594 1153 
L 594 3053 
L 172 3053 
L 172 3500 
L 594 3500 
L 594 4494 
L 1172 4494 
z
" transform="scale(0.015625)"/>
       <path id="DejaVuSans-65" d="M 3597 1894 
L 3597 1613 
L 953 1613 
Q 991 1019 1311 708 
Q 1631 397 2203 397 
Q 2534 397 2845 478 
Q 3156 559 3463 722 
L 3463 178 
Q 3153 47 2828 -22 
Q 2503 -91 2169 -91 
Q 1331 -91 842 396 
Q 353 884 353 1716 
Q 353 2575 817 3079 
Q 1281 3584 2069 3584 
Q 2775 3584 3186 3129 
Q 3597 2675 3597 1894 
z
M 3022 2063 
Q 3016 2534 2758 2815 
Q 2500 3097 2075 3097 
Q 1594 3097 1305 2825 
Q 1016 2553 972 2059 
L 3022 2063 
z
" transform="scale(0.015625)"/>
       <path id="DejaVuSans-6e" d="M 3513 2113 
L 3513 0 
L 2938 0 
L 2938 2094 
Q 2938 2591 2744 2837 
Q 2550 3084 2163 3084 
Q 1697 3084 1428 2787 
Q 1159 2491 1159 1978 
L 1159 0 
L 581 0 
L 581 3500 
L 1159 3500 
L 1159 2956 
Q 1366 3272 1645 3428 
Q 1925 3584 2291 3584 
Q 2894 3584 3203 3211 
Q 3513 2838 3513 2113 
z
" transform="scale(0.015625)"/>
       <path id="DejaVuSans-64" d="M 2906 2969 
L 2906 4863 
L 3481 4863 
L 3481 0 
L 2906 0 
L 2906 525 
Q 2725 213 2448 61 
Q 2172 -91 1784 -91 
Q 1150 -91 751 415 
Q 353 922 353 1747 
Q 353 2572 751 3078 
Q 1150 3584 1784 3584 
Q 2172 3584 2448 3432 
Q 2725 3281 2906 2969 
z
M 947 1747 
Q 947 1113 1208 752 
Q 1469 391 1925 391 
Q 2381 391 2643 752 
Q 2906 1113 2906 1747 
Q 2906 2381 2643 2742 
Q 2381 3103 1925 3103 
Q 1469 3103 1208 2742 
Q 947 2381 947 1747 
z
" transform="scale(0.015625)"/>
       <path id="DejaVuSans-54" d="M -19 4666 
L 3928 4666 
L 3928 4134 
L 2272 4134 
L 2272 0 
L 1638 0 
L 1638 4134 
L -19 4134 
L -19 4666 
z
" transform="scale(0.015625)"/>
       <path id="DejaVuSans-69" d="M 603 3500 
L 1178 3500 
L 1178 0 
L 603 0 
L 603 3500 
z
M 603 4863 
L 1178 4863 
L 1178 4134 
L 603 4134 
L 603 4863 
z
" transform="scale(0.015625)"/>
       <path id="DejaVuSans-6d" d="M 3328 2828 
Q 3544 3216 3844 3400 
Q 4144 3584 4550 3584 
Q 5097 3584 5394 3201 
Q 5691 2819 5691 2113 
L 5691 0 
L 5113 0 
L 5113 2094 
Q 5113 2597 4934 2840 
Q 4756 3084 4391 3084 
Q 3944 3084 3684 2787 
Q 3425 2491 3425 1978 
L 3425 0 
L 2847 0 
L 2847 2094 
Q 2847 2600 2669 2842 
Q 2491 3084 2119 3084 
Q 1678 3084 1418 2786 
Q 1159 2488 1159 1978 
L 1159 0 
L 581 0 
L 581 3500 
L 1159 3500 
L 1159 2956 
Q 1356 3278 1631 3431 
Q 1906 3584 2284 3584 
Q 2666 3584 2933 3390 
Q 3200 3197 3328 2828 
z
" transform="scale(0.015625)"/>
      </defs>
      <use xlink:href="#DejaVuSans-44"/>
      <use xlink:href="#DejaVuSans-61" transform="translate(77.001953 0)"/>
      <use xlink:href="#DejaVuSans-74" transform="translate(138.28125 0)"/>
      <use xlink:href="#DejaVuSans-65" transform="translate(177.490234 0)"/>
      <use xlink:href="#DejaVuSans-20" transform="translate(239.013672 0)"/>
      <use xlink:href="#DejaVuSans-61" transform="translate(270.800781 0)"/>
      <use xlink:href="#DejaVuSans-6e" transform="translate(332.080078 0)"/>
      <use xlink:href="#DejaVuSans-64" transform="translate(395.458984 0)"/>
      <use xlink:href="#DejaVuSans-20" transform="translate(458.935547 0)"/>
      <use xlink:href="#DejaVuSans-54" transform="translate(490.722656 0)"/>
      <use xlink:href="#DejaVuSans-69" transform="translate(548.681641 0)"/>
      <use xlink:href="#DejaVuSans-6d" transform="translate(576.464844 0)"/>
      <use xlink:href="#DejaVuSans-65" transform="translate(673.876953 0)"/>
     </g>
    </g>
   </g>
   <g id="matplotlib.axis_2">
    <g id="ytick_1">
     <g id="line2d_19">
      <path d="M 90 370.345016 
L 648 370.345016 
" clip-path="url(#p9252f04510)" style="fill: none; stroke: #b0b0b0; stroke-width: 0.8; stroke-linecap: square"/>
     </g>
     <g id="line2d_20">
      <defs>
       <path id="m788c59c1ff" d="M 0 0 
L -3.5 0 
" style="stroke: #000000; stroke-width: 0.8"/>
      </defs>
      <g>
       <use xlink:href="#m788c59c1ff" x="90" y="370.345016" style="stroke: #000000; stroke-width: 0.8"/>
      </g>
     </g>
     <g id="text_11">
      <!-- 0 -->
      <g transform="translate(76.6375 374.144235) scale(0.1 -0.1)">
       <use xlink:href="#DejaVuSans-30"/>
      </g>
     </g>
    </g>
    <g id="ytick_2">
     <g id="line2d_21">
      <path d="M 90 321.094202 
L 648 321.094202 
" clip-path="url(#p9252f04510)" style="fill: none; stroke: #b0b0b0; stroke-width: 0.8; stroke-linecap: square"/>
     </g>
     <g id="line2d_22">
      <g>
       <use xlink:href="#m788c59c1ff" x="90" y="321.094202" style="stroke: #000000; stroke-width: 0.8"/>
      </g>
     </g>
     <g id="text_12">
      <!-- 50 -->
      <g transform="translate(70.275 324.893421) scale(0.1 -0.1)">
       <use xlink:href="#DejaVuSans-35"/>
       <use xlink:href="#DejaVuSans-30" transform="translate(63.623047 0)"/>
      </g>
     </g>
    </g>
    <g id="ytick_3">
     <g id="line2d_23">
      <path d="M 90 271.843388 
L 648 271.843388 
" clip-path="url(#p9252f04510)" style="fill: none; stroke: #b0b0b0; stroke-width: 0.8; stroke-linecap: square"/>
     </g>
     <g id="line2d_24">
      <g>
       <use xlink:href="#m788c59c1ff" x="90" y="271.843388" style="stroke: #000000; stroke-width: 0.8"/>
      </g>
     </g>
     <g id="text_13">
      <!-- 100 -->
      <g transform="translate(63.9125 275.642606) scale(0.1 -0.1)">
       <use xlink:href="#DejaVuSans-31"/>
       <use xlink:href="#DejaVuSans-30" transform="translate(63.623047 0)"/>
       <use xlink:href="#DejaVuSans-30" transform="translate(127.246094 0)"/>
      </g>
     </g>
    </g>
    <g id="ytick_4">
     <g id="line2d_25">
      <path d="M 90 222.592573 
L 648 222.592573 
" clip-path="url(#p9252f04510)" style="fill: none; stroke: #b0b0b0; stroke-width: 0.8; stroke-linecap: square"/>
     </g>
     <g id="line2d_26">
      <g>
       <use xlink:href="#m788c59c1ff" x="90" y="222.592573" style="stroke: #000000; stroke-width: 0.8"/>
      </g>
     </g>
     <g id="text_14">
      <!-- 150 -->
      <g transform="translate(63.9125 226.391792) scale(0.1 -0.1)">
       <use xlink:href="#DejaVuSans-31"/>
       <use xlink:href="#DejaVuSans-35" transform="translate(63.623047 0)"/>
       <use xlink:href="#DejaVuSans-30" transform="translate(127.246094 0)"/>
      </g>
     </g>
    </g>
    <g id="ytick_5">
     <g id="line2d_27">
      <path d="M 90 173.341759 
L 648 173.341759 
" clip-path="url(#p9252f04510)" style="fill: none; stroke: #b0b0b0; stroke-width: 0.8; stroke-linecap: square"/>
     </g>
     <g id="line2d_28">
      <g>
       <use xlink:href="#m788c59c1ff" x="90" y="173.341759" style="stroke: #000000; stroke-width: 0.8"/>
      </g>
     </g>
     <g id="text_15">
      <!-- 200 -->
      <g transform="translate(63.9125 177.140978) scale(0.1 -0.1)">
       <use xlink:href="#DejaVuSans-32"/>
       <use xlink:href="#DejaVuSans-30" transform="translate(63.623047 0)"/>
       <use xlink:href="#DejaVuSans-30" transform="translate(127.246094 0)"/>
      </g>
     </g>
    </g>
    <g id="ytick_6">
     <g id="line2d_29">
      <path d="M 90 124.090945 
L 648 124.090945 
" clip-path="url(#p9252f04510)" style="fill: none; stroke: #b0b0b0; stroke-width: 0.8; stroke-linecap: square"/>
     </g>
     <g id="line2d_30">
      <g>
       <use xlink:href="#m788c59c1ff" x="90" y="124.090945" style="stroke: #000000; stroke-width: 0.8"/>
      </g>
     </g>
     <g id="text_16">
      <!-- 250 -->
      <g transform="translate(63.9125 127.890163) scale(0.1 -0.1)">
       <use xlink:href="#DejaVuSans-32"/>
       <use xlink:href="#DejaVuSans-35" transform="translate(63.623047 0)"/>
       <use xlink:href="#DejaVuSans-30" transform="translate(127.246094 0)"/>
      </g>
     </g>
    </g>
    <g id="ytick_7">
     <g id="line2d_31">
      <path d="M 90 74.84013 
L 648 74.84013 
" clip-path="url(#p9252f04510)" style="fill: none; stroke: #b0b0b0; stroke-width: 0.8; stroke-linecap: square"/>
     </g>
     <g id="line2d_32">
      <g>
       <use xlink:href="#m788c59c1ff" x="90" y="74.84013" style="stroke: #000000; stroke-width: 0.8"/>
      </g>
     </g>
     <g id="text_17">
      <!-- 300 -->
      <g transform="translate(63.9125 78.639349) scale(0.1 -0.1)">
       <defs>
        <path id="DejaVuSans-33" d="M 2597 2516 
Q 3050 2419 3304 2112 
Q 3559 1806 3559 1356 
Q 3559 666 3084 287 
Q 2609 -91 1734 -91 
Q 1441 -91 1130 -33 
Q 819 25 488 141 
L 488 750 
Q 750 597 1062 519 
Q 1375 441 1716 441 
Q 2309 441 2620 675 
Q 2931 909 2931 1356 
Q 2931 1769 2642 2001 
Q 2353 2234 1838 2234 
L 1294 2234 
L 1294 2753 
L 1863 2753 
Q 2328 2753 2575 2939 
Q 2822 3125 2822 3475 
Q 2822 3834 2567 4026 
Q 2313 4219 1838 4219 
Q 1578 4219 1281 4162 
Q 984 4106 628 3988 
L 628 4550 
Q 988 4650 1302 4700 
Q 1616 4750 1894 4750 
Q 2613 4750 3031 4423 
Q 3450 4097 3450 3541 
Q 3450 3153 3228 2886 
Q 3006 2619 2597 2516 
z
" transform="scale(0.015625)"/>
       </defs>
       <use xlink:href="#DejaVuSans-33"/>
       <use xlink:href="#DejaVuSans-30" transform="translate(63.623047 0)"/>
       <use xlink:href="#DejaVuSans-30" transform="translate(127.246094 0)"/>
      </g>
     </g>
    </g>
    <g id="text_18">
     <!-- Votes -->
     <g transform="translate(57.832812 231.893594) rotate(-90) scale(0.1 -0.1)">
      <defs>
       <path id="DejaVuSans-56" d="M 1831 0 
L 50 4666 
L 709 4666 
L 2188 738 
L 3669 4666 
L 4325 4666 
L 2547 0 
L 1831 0 
z
" transform="scale(0.015625)"/>
       <path id="DejaVuSans-6f" d="M 1959 3097 
Q 1497 3097 1228 2736 
Q 959 2375 959 1747 
Q 959 1119 1226 758 
Q 1494 397 1959 397 
Q 2419 397 2687 759 
Q 2956 1122 2956 1747 
Q 2956 2369 2687 2733 
Q 2419 3097 1959 3097 
z
M 1959 3584 
Q 2709 3584 3137 3096 
Q 3566 2609 3566 1747 
Q 3566 888 3137 398 
Q 2709 -91 1959 -91 
Q 1206 -91 779 398 
Q 353 888 353 1747 
Q 353 2609 779 3096 
Q 1206 3584 1959 3584 
z
" transform="scale(0.015625)"/>
       <path id="DejaVuSans-73" d="M 2834 3397 
L 2834 2853 
Q 2591 2978 2328 3040 
Q 2066 3103 1784 3103 
Q 1356 3103 1142 2972 
Q 928 2841 928 2578 
Q 928 2378 1081 2264 
Q 1234 2150 1697 2047 
L 1894 2003 
Q 2506 1872 2764 1633 
Q 3022 1394 3022 966 
Q 3022 478 2636 193 
Q 2250 -91 1575 -91 
Q 1294 -91 989 -36 
Q 684 19 347 128 
L 347 722 
Q 666 556 975 473 
Q 1284 391 1588 391 
Q 1994 391 2212 530 
Q 2431 669 2431 922 
Q 2431 1156 2273 1281 
Q 2116 1406 1581 1522 
L 1381 1569 
Q 847 1681 609 1914 
Q 372 2147 372 2553 
Q 372 3047 722 3315 
Q 1072 3584 1716 3584 
Q 2034 3584 2315 3537 
Q 2597 3491 2834 3397 
z
" transform="scale(0.015625)"/>
      </defs>
      <use xlink:href="#DejaVuSans-56"/>
      <use xlink:href="#DejaVuSans-6f" transform="translate(60.658203 0)"/>
      <use xlink:href="#DejaVuSans-74" transform="translate(121.839844 0)"/>
      <use xlink:href="#DejaVuSans-65" transform="translate(161.048828 0)"/>
      <use xlink:href="#DejaVuSans-73" transform="translate(222.572266 0)"/>
     </g>
    </g>
   </g>
   <g id="line2d_33">
    <path d="M 115.363636 352.614723 
L 124.916795 352.614723 
L 125.872111 351.629707 
L 135.42527 351.629707 
L 136.380586 349.659674 
L 144.978428 349.659674 
L 145.933744 348.674658 
L 150.710324 348.674658 
L 151.665639 347.689642 
L 155.486903 347.689642 
L 156.442219 346.704625 
L 159.308166 346.704625 
L 160.263482 345.719609 
L 173.637904 345.719609 
L 174.59322 344.734593 
L 185.101695 344.734593 
L 187.012327 342.76456 
L 188.922958 342.76456 
L 189.878274 341.779544 
L 198.476117 341.779544 
L 200.386749 339.809511 
L 211.850539 339.809511 
L 212.805855 338.824495 
L 215.671803 338.824495 
L 216.627119 337.839479 
L 217.582435 337.839479 
L 218.53775 336.854463 
L 244.331279 336.854463 
L 245.286595 335.869446 
L 256.750385 335.869446 
L 257.705701 334.88443 
L 264.392912 334.88443 
L 265.348228 333.899414 
L 266.303544 331.929381 
L 267.25886 331.929381 
L 269.169492 329.959349 
L 284.454545 329.959349 
L 285.409861 328.974332 
L 291.141757 328.974332 
L 292.097072 327.989316 
L 295.918336 327.989316 
L 296.873652 327.0043 
L 306.42681 327.0043 
L 307.382126 326.019283 
L 309.292758 326.019283 
L 310.248074 325.034267 
L 313.114022 325.034267 
L 314.069337 324.049251 
L 321.711864 324.049251 
L 322.66718 323.064235 
L 323.622496 323.064235 
L 324.577812 322.079218 
L 334.130971 322.079218 
L 335.086287 321.094202 
L 341.773498 321.094202 
L 342.728814 320.109186 
L 343.684129 320.109186 
L 345.594761 318.139153 
L 366.61171 318.139153 
L 367.567026 317.154137 
L 382.85208 317.154137 
L 383.807396 316.169121 
L 384.762712 316.169121 
L 385.718028 315.184104 
L 394.315871 315.184104 
L 395.271186 314.199088 
L 396.226502 314.199088 
L 397.181818 313.214072 
L 401.958398 313.214072 
L 402.913713 312.229055 
L 405.779661 312.229055 
L 407.690293 310.259023 
L 408.645609 310.259023 
L 409.600924 309.274007 
L 411.511556 309.274007 
L 412.466872 308.28899 
L 414.377504 308.28899 
L 415.33282 307.303974 
L 417.243451 307.303974 
L 418.198767 306.318958 
L 441.126348 306.318958 
L 442.081664 305.333941 
L 451.634823 305.333941 
L 452.590139 304.348925 
L 458.322034 304.348925 
L 459.27735 303.363909 
L 460.232666 303.363909 
L 461.187982 302.378893 
L 462.143297 302.378893 
L 465.964561 298.438827 
L 467.875193 298.438827 
L 468.830508 296.468795 
L 476.473035 296.468795 
L 478.383667 294.498762 
L 480.294299 294.498762 
L 481.249615 293.513746 
L 485.070878 293.513746 
L 486.026194 292.52873 
L 492.713405 292.52873 
L 493.668721 291.543713 
L 495.579353 291.543713 
L 496.534669 290.558697 
L 502.266564 290.558697 
L 504.177196 288.588664 
L 510.864407 288.588664 
L 511.819723 287.603648 
L 514.68567 287.603648 
L 515.640986 286.618632 
L 517.551618 286.618632 
L 518.506934 284.648599 
L 522.328197 284.648599 
L 523.283513 282.678567 
L 524.238829 281.69355 
L 528.060092 281.69355 
L 529.015408 279.723518 
L 535.702619 279.723518 
L 536.657935 278.738502 
L 540.479199 278.738502 
L 541.434515 277.753485 
L 544.300462 277.753485 
L 545.255778 276.768469 
L 546.211094 274.798436 
L 548.121726 274.798436 
L 549.077042 273.81342 
L 564.362096 273.81342 
L 566.272727 271.843388 
L 579.647149 271.843388 
L 580.602465 270.858371 
L 586.334361 270.858371 
L 587.289676 269.873355 
L 599.708783 269.873355 
L 600.664099 268.888339 
L 609.261941 268.888339 
L 610.217257 267.903322 
L 622.636364 267.903322 
L 622.636364 267.903322 
" clip-path="url(#p9252f04510)" style="fill: none; stroke: #1f77b4; stroke-width: 1.5; stroke-linecap: square"/>
   </g>
   <g id="line2d_34">
    <path d="M 115.363636 289.573681 
L 116.318952 288.588664 
L 119.1849 288.588664 
L 120.140216 287.603648 
L 121.095532 287.603648 
L 122.050847 286.618632 
L 123.006163 286.618632 
L 124.916795 284.648599 
L 125.872111 282.678567 
L 126.827427 282.678567 
L 128.738059 280.708534 
L 129.693374 280.708534 
L 130.64869 276.768469 
L 131.604006 274.798436 
L 132.559322 270.858371 
L 133.514638 267.903322 
L 136.380586 267.903322 
L 137.335901 264.948274 
L 138.291217 262.978241 
L 140.201849 261.008208 
L 141.157165 259.038176 
L 143.067797 257.068143 
L 144.023112 255.098111 
L 146.88906 255.098111 
L 147.844376 250.173029 
L 148.799692 248.202997 
L 149.755008 247.21798 
L 150.710324 245.247948 
L 151.665639 244.262932 
L 152.620955 244.262932 
L 153.576271 241.307883 
L 154.531587 241.307883 
L 155.486903 239.33785 
L 156.442219 238.352834 
L 157.397535 238.352834 
L 158.352851 237.367818 
L 160.263482 237.367818 
L 161.218798 236.382801 
L 163.12943 236.382801 
L 164.084746 234.412769 
L 165.040062 234.412769 
L 165.995378 233.427752 
L 169.816641 233.427752 
L 170.771957 232.442736 
L 173.637904 232.442736 
L 174.59322 231.45772 
L 175.548536 231.45772 
L 176.503852 229.487687 
L 177.459168 229.487687 
L 178.414484 227.517655 
L 179.3698 226.532638 
L 182.235747 226.532638 
L 183.191063 224.562606 
L 184.146379 223.57759 
L 185.101695 220.622541 
L 187.012327 218.652508 
L 194.654854 218.652508 
L 195.610169 215.697459 
L 196.565485 215.697459 
L 198.476117 213.727427 
L 199.431433 213.727427 
L 202.297381 210.772378 
L 204.208012 210.772378 
L 205.163328 209.787362 
L 207.07396 209.787362 
L 209.939908 206.832313 
L 211.850539 206.832313 
L 212.805855 205.847296 
L 217.582435 205.847296 
L 218.53775 204.86228 
L 220.448382 204.86228 
L 221.403698 203.877264 
L 232.867488 203.877264 
L 233.822804 201.907231 
L 235.733436 201.907231 
L 237.644068 199.937199 
L 238.599384 199.937199 
L 239.5547 198.952182 
L 245.286595 198.952182 
L 248.152542 195.997134 
L 249.107858 195.997134 
L 250.063174 195.012117 
L 251.01849 193.042085 
L 251.973806 193.042085 
L 252.929122 192.057068 
L 253.884438 192.057068 
L 257.705701 188.117003 
L 259.616333 188.117003 
L 260.571649 186.146971 
L 263.437596 186.146971 
L 264.392912 185.161954 
L 267.25886 185.161954 
L 268.214176 184.176938 
L 269.169492 184.176938 
L 270.124807 181.221889 
L 272.990755 181.221889 
L 273.946071 180.236873 
L 274.901387 178.26684 
L 276.812018 178.26684 
L 277.767334 177.281824 
L 279.677966 177.281824 
L 280.633282 176.296808 
L 281.588598 176.296808 
L 286.365177 171.371726 
L 288.275809 171.371726 
L 291.141757 168.416678 
L 294.007704 168.416678 
L 294.96302 166.446645 
L 295.918336 166.446645 
L 296.873652 165.461629 
L 299.739599 165.461629 
L 300.694915 164.476612 
L 309.292758 164.476612 
L 310.248074 163.491596 
L 316.935285 163.491596 
L 317.890601 162.50658 
L 319.801233 162.50658 
L 321.711864 160.536547 
L 326.488444 160.536547 
L 327.44376 159.551531 
L 332.220339 159.551531 
L 335.086287 156.596482 
L 347.505393 156.596482 
L 348.460709 154.62645 
L 349.416025 153.641433 
L 372.343606 153.641433 
L 373.298921 152.656417 
L 379.030817 152.656417 
L 380.941448 150.686384 
L 382.85208 150.686384 
L 383.807396 149.701368 
L 384.762712 149.701368 
L 386.673344 147.731336 
L 387.628659 147.731336 
L 388.583975 146.746319 
L 389.539291 146.746319 
L 391.449923 142.806254 
L 392.405239 141.821238 
L 397.181818 141.821238 
L 398.137134 138.866189 
L 399.09245 136.896156 
L 401.003082 136.896156 
L 402.913713 134.926124 
L 407.690293 134.926124 
L 409.600924 132.956091 
L 411.511556 132.956091 
L 412.466872 131.971075 
L 414.377504 131.971075 
L 415.33282 130.986059 
L 416.288136 130.986059 
L 417.243451 130.001042 
L 418.198767 130.001042 
L 419.154083 129.016026 
L 420.109399 129.016026 
L 421.064715 128.03101 
L 422.975347 128.03101 
L 423.930663 126.060977 
L 428.707242 126.060977 
L 430.617874 124.090945 
L 440.171032 124.090945 
L 441.126348 123.105928 
L 442.081664 123.105928 
L 443.03698 122.120912 
L 443.992296 122.120912 
L 446.858243 119.165863 
L 448.768875 119.165863 
L 449.724191 118.180847 
L 468.830508 118.180847 
L 470.74114 116.210814 
L 474.562404 116.210814 
L 475.51772 115.225798 
L 476.473035 115.225798 
L 477.428351 114.240782 
L 478.383667 114.240782 
L 479.338983 113.255765 
L 500.355932 113.255765 
L 501.311248 112.270749 
L 520.417565 112.270749 
L 521.372881 110.300717 
L 528.060092 110.300717 
L 529.970724 108.330684 
L 531.881356 108.330684 
L 532.836672 107.345668 
L 534.747304 107.345668 
L 536.657935 105.375635 
L 538.568567 105.375635 
L 539.523883 103.405603 
L 547.16641 103.405603 
L 548.121726 102.420586 
L 552.898305 102.420586 
L 553.853621 101.43557 
L 559.585516 101.43557 
L 560.540832 100.450554 
L 567.228043 100.450554 
L 569.138675 98.480521 
L 570.093991 98.480521 
L 571.049307 97.495505 
L 576.781202 97.495505 
L 577.736518 96.510489 
L 581.557781 96.510489 
L 582.513097 95.525472 
L 583.468413 95.525472 
L 584.423729 94.540456 
L 598.753467 94.540456 
L 601.619414 91.585407 
L 612.127889 91.585407 
L 613.083205 90.600391 
L 616.904468 90.600391 
L 617.859784 88.630358 
L 622.636364 88.630358 
L 622.636364 88.630358 
" clip-path="url(#p9252f04510)" style="fill: none; stroke: #ff7f0e; stroke-width: 1.5; stroke-linecap: square"/>
   </g>
   <g id="line2d_35">
    <path d="M 115.363636 339.809511 
L 119.1849 339.809511 
L 120.140216 337.839479 
L 122.050847 337.839479 
L 123.006163 336.854463 
L 123.961479 334.88443 
L 124.916795 333.899414 
L 125.872111 330.944365 
L 126.827427 328.974332 
L 127.782743 327.989316 
L 128.738059 327.989316 
L 129.693374 326.019283 
L 130.64869 323.064235 
L 134.469954 323.064235 
L 135.42527 322.079218 
L 136.380586 322.079218 
L 137.335901 320.109186 
L 140.201849 320.109186 
L 142.112481 318.139153 
L 145.933744 318.139153 
L 146.88906 317.154137 
L 150.710324 317.154137 
L 153.576271 314.199088 
L 158.352851 314.199088 
L 159.308166 313.214072 
L 162.174114 313.214072 
L 163.12943 312.229055 
L 165.040062 312.229055 
L 165.995378 310.259023 
L 173.637904 310.259023 
L 174.59322 309.274007 
L 175.548536 307.303974 
L 176.503852 306.318958 
L 177.459168 306.318958 
L 178.414484 305.333941 
L 180.325116 305.333941 
L 181.280431 304.348925 
L 183.191063 304.348925 
L 184.146379 303.363909 
L 189.878274 303.363909 
L 190.83359 302.378893 
L 191.788906 302.378893 
L 192.744222 301.393876 
L 193.699538 301.393876 
L 194.654854 300.40886 
L 197.520801 300.40886 
L 198.476117 299.423844 
L 199.431433 297.453811 
L 204.208012 297.453811 
L 207.07396 294.498762 
L 209.939908 294.498762 
L 210.895223 293.513746 
L 214.716487 293.513746 
L 215.671803 292.52873 
L 216.627119 292.52873 
L 217.582435 291.543713 
L 219.493066 291.543713 
L 220.448382 290.558697 
L 223.31433 290.558697 
L 225.224961 288.588664 
L 226.180277 288.588664 
L 227.135593 287.603648 
L 234.77812 287.603648 
L 235.733436 285.633616 
L 236.688752 284.648599 
L 244.331279 284.648599 
L 245.286595 283.663583 
L 248.152542 283.663583 
L 249.107858 282.678567 
L 251.973806 282.678567 
L 252.929122 281.69355 
L 262.48228 281.69355 
L 263.437596 280.708534 
L 267.25886 280.708534 
L 268.214176 279.723518 
L 273.946071 279.723518 
L 274.901387 278.738502 
L 276.812018 278.738502 
L 277.767334 277.753485 
L 281.588598 277.753485 
L 283.49923 275.783453 
L 301.650231 275.783453 
L 302.605547 274.798436 
L 303.560863 274.798436 
L 304.516179 273.81342 
L 307.382126 273.81342 
L 308.337442 272.828404 
L 313.114022 272.828404 
L 314.069337 271.843388 
L 315.979969 271.843388 
L 316.935285 270.858371 
L 322.66718 270.858371 
L 323.622496 271.843388 
L 324.577812 270.858371 
L 331.265023 270.858371 
L 332.220339 269.873355 
L 339.862866 269.873355 
L 340.818182 268.888339 
L 342.728814 268.888339 
L 343.684129 267.903322 
L 344.639445 267.903322 
L 345.594761 266.918306 
L 352.281972 266.918306 
L 353.237288 265.93329 
L 358.969183 265.93329 
L 359.924499 264.948274 
L 374.254237 264.948274 
L 375.209553 263.963257 
L 396.226502 263.963257 
L 397.181818 262.978241 
L 406.734977 262.978241 
L 407.690293 261.993225 
L 422.975347 261.993225 
L 424.885978 260.023192 
L 442.081664 260.023192 
L 443.03698 259.038176 
L 443.992296 257.068143 
L 463.098613 257.068143 
L 464.053929 256.083127 
L 465.964561 256.083127 
L 466.919877 255.098111 
L 472.651772 255.098111 
L 473.607088 254.113094 
L 476.473035 254.113094 
L 478.383667 252.143062 
L 480.294299 252.143062 
L 481.249615 251.158046 
L 485.070878 251.158046 
L 486.026194 249.188013 
L 488.892142 249.188013 
L 489.847458 248.202997 
L 490.802774 248.202997 
L 492.713405 246.232964 
L 505.132512 246.232964 
L 506.087827 245.247948 
L 517.551618 245.247948 
L 518.506934 243.277915 
L 526.149461 243.277915 
L 528.060092 241.307883 
L 537.613251 241.307883 
L 540.479199 238.352834 
L 543.345146 238.352834 
L 544.300462 237.367818 
L 546.211094 237.367818 
L 547.16641 236.382801 
L 555.764253 236.382801 
L 556.719569 235.397785 
L 565.317411 235.397785 
L 566.272727 234.412769 
L 572.959938 234.412769 
L 574.87057 232.442736 
L 581.557781 232.442736 
L 582.513097 231.45772 
L 592.066256 231.45772 
L 593.021572 230.472704 
L 593.976888 230.472704 
L 594.932203 229.487687 
L 606.395994 229.487687 
L 607.35131 228.502671 
L 610.217257 228.502671 
L 611.172573 227.517655 
L 622.636364 227.517655 
L 622.636364 227.517655 
" clip-path="url(#p9252f04510)" style="fill: none; stroke: #2ca02c; stroke-width: 1.5; stroke-linecap: square"/>
   </g>
   <g id="line2d_36">
    <path d="M 115.363636 369.36 
L 351.326656 369.36 
L 352.281972 368.374984 
L 554.808937 368.374984 
L 555.764253 367.389967 
L 622.636364 367.389967 
L 622.636364 367.389967 
" clip-path="url(#p9252f04510)" style="fill: none; stroke: #d62728; stroke-width: 1.5; stroke-linecap: square"/>
   </g>
   <g id="line2d_37">
    <path d="M 115.363636 347.689642 
L 118.229584 347.689642 
L 119.1849 346.704625 
L 124.916795 346.704625 
L 125.872111 345.719609 
L 131.604006 345.719609 
L 132.559322 344.734593 
L 153.576271 344.734593 
L 154.531587 343.749577 
L 188.922958 343.749577 
L 190.83359 341.779544 
L 198.476117 341.779544 
L 199.431433 340.794528 
L 203.252696 340.794528 
L 204.208012 339.809511 
L 206.118644 339.809511 
L 207.07396 338.824495 
L 231.912173 338.824495 
L 232.867488 337.839479 
L 272.035439 337.839479 
L 272.990755 336.854463 
L 397.181818 336.854463 
L 398.137134 335.869446 
L 399.09245 335.869446 
L 400.047766 334.88443 
L 460.232666 334.88443 
L 461.187982 333.899414 
L 614.038521 333.899414 
L 614.993837 332.914397 
L 622.636364 332.914397 
L 622.636364 332.914397 
" clip-path="url(#p9252f04510)" style="fill: none; stroke: #9467bd; stroke-width: 1.5; stroke-linecap: square"/>
   </g>
   <g id="line2d_38">
    <path d="M 115.363636 355.569772 
L 116.318952 355.569772 
L 117.274268 354.584756 
L 130.64869 354.584756 
L 131.604006 353.599739 
L 143.067797 353.599739 
L 144.023112 352.614723 
L 158.352851 352.614723 
L 160.263482 350.644691 
L 170.771957 350.644691 
L 171.727273 349.659674 
L 200.386749 349.659674 
L 201.342065 348.674658 
L 209.939908 348.674658 
L 210.895223 347.689642 
L 227.135593 347.689642 
L 228.090909 346.704625 
L 243.375963 346.704625 
L 244.331279 345.719609 
L 248.152542 345.719609 
L 249.107858 344.734593 
L 257.705701 344.734593 
L 258.661017 343.749577 
L 281.588598 343.749577 
L 282.543914 342.76456 
L 288.275809 342.76456 
L 289.231125 341.779544 
L 294.96302 341.779544 
L 295.918336 340.794528 
L 299.739599 340.794528 
L 300.694915 339.809511 
L 336.041602 339.809511 
L 336.996918 338.824495 
L 364.701079 338.824495 
L 365.656394 337.839479 
L 421.064715 337.839479 
L 422.020031 336.854463 
L 448.768875 336.854463 
L 449.724191 335.869446 
L 462.143297 335.869446 
L 463.098613 334.88443 
L 622.636364 334.88443 
L 622.636364 334.88443 
" clip-path="url(#p9252f04510)" style="fill: none; stroke: #8c564b; stroke-width: 1.5; stroke-linecap: square"/>
   </g>
   <g id="line2d_39">
    <path d="M 115.363636 282.678567 
L 119.1849 282.678567 
L 120.140216 281.69355 
L 123.961479 281.69355 
L 125.872111 279.723518 
L 126.827427 279.723518 
L 127.782743 278.738502 
L 128.738059 278.738502 
L 129.693374 277.753485 
L 131.604006 277.753485 
L 132.559322 276.768469 
L 135.42527 276.768469 
L 136.380586 275.783453 
L 138.291217 275.783453 
L 139.246533 274.798436 
L 140.201849 274.798436 
L 141.157165 273.81342 
L 143.067797 273.81342 
L 144.978428 271.843388 
L 148.799692 271.843388 
L 149.755008 270.858371 
L 152.620955 270.858371 
L 154.531587 268.888339 
L 156.442219 268.888339 
L 157.397535 267.903322 
L 159.308166 267.903322 
L 160.263482 266.918306 
L 161.218798 264.948274 
L 162.174114 261.993225 
L 164.084746 261.993225 
L 165.040062 261.008208 
L 169.816641 261.008208 
L 171.727273 259.038176 
L 172.682589 257.068143 
L 173.637904 256.083127 
L 174.59322 256.083127 
L 175.548536 254.113094 
L 179.3698 254.113094 
L 180.325116 253.128078 
L 181.280431 253.128078 
L 183.191063 251.158046 
L 184.146379 251.158046 
L 185.101695 250.173029 
L 186.057011 250.173029 
L 187.967643 248.202997 
L 189.878274 248.202997 
L 190.83359 246.232964 
L 194.654854 246.232964 
L 196.565485 244.262932 
L 198.476117 244.262932 
L 199.431433 243.277915 
L 200.386749 241.307883 
L 203.252696 241.307883 
L 204.208012 240.322866 
L 205.163328 240.322866 
L 206.118644 238.352834 
L 207.07396 238.352834 
L 208.029276 237.367818 
L 208.984592 237.367818 
L 209.939908 236.382801 
L 213.761171 236.382801 
L 215.671803 234.412769 
L 216.627119 234.412769 
L 217.582435 232.442736 
L 218.53775 232.442736 
L 219.493066 231.45772 
L 220.448382 231.45772 
L 221.403698 230.472704 
L 224.269646 230.472704 
L 225.224961 229.487687 
L 226.180277 229.487687 
L 230.001541 225.547622 
L 230.956857 223.57759 
L 232.867488 223.57759 
L 234.77812 219.637524 
L 236.688752 219.637524 
L 238.599384 217.667492 
L 239.5547 217.667492 
L 240.510015 215.697459 
L 241.465331 215.697459 
L 242.420647 214.712443 
L 243.375963 214.712443 
L 244.331279 213.727427 
L 246.241911 213.727427 
L 247.197227 212.74241 
L 248.152542 212.74241 
L 249.107858 211.757394 
L 252.929122 211.757394 
L 253.884438 206.832313 
L 254.839753 206.832313 
L 255.795069 205.847296 
L 258.661017 205.847296 
L 259.616333 204.86228 
L 268.214176 204.86228 
L 269.169492 202.892248 
L 272.990755 202.892248 
L 273.946071 201.907231 
L 283.49923 201.907231 
L 284.454545 199.937199 
L 285.409861 198.952182 
L 290.186441 198.952182 
L 291.141757 197.967166 
L 297.828968 197.967166 
L 298.784284 196.98215 
L 299.739599 196.98215 
L 300.694915 195.997134 
L 306.42681 195.997134 
L 308.337442 194.027101 
L 315.024653 194.027101 
L 316.935285 192.057068 
L 317.890601 192.057068 
L 318.845917 191.072052 
L 324.577812 191.072052 
L 325.533128 190.087036 
L 328.399076 190.087036 
L 329.354391 189.10202 
L 330.309707 187.131987 
L 333.175655 187.131987 
L 334.130971 186.146971 
L 335.086287 186.146971 
L 336.996918 184.176938 
L 340.818182 184.176938 
L 341.773498 183.191922 
L 345.594761 183.191922 
L 346.550077 182.206906 
L 349.416025 182.206906 
L 350.371341 181.221889 
L 358.013867 181.221889 
L 359.924499 179.251857 
L 364.701079 179.251857 
L 365.656394 178.26684 
L 369.477658 178.26684 
L 374.254237 173.341759 
L 376.164869 173.341759 
L 377.120185 172.356743 
L 378.075501 172.356743 
L 379.030817 170.38671 
L 380.941448 168.416678 
L 382.85208 164.476612 
L 384.762712 164.476612 
L 386.673344 160.536547 
L 388.583975 160.536547 
L 389.539291 158.566515 
L 391.449923 156.596482 
L 394.315871 156.596482 
L 395.271186 155.611466 
L 396.226502 155.611466 
L 398.137134 153.641433 
L 401.958398 153.641433 
L 402.913713 152.656417 
L 404.824345 152.656417 
L 405.779661 151.671401 
L 410.55624 151.671401 
L 411.511556 149.701368 
L 412.466872 148.716352 
L 413.422188 148.716352 
L 414.377504 147.731336 
L 416.288136 147.731336 
L 417.243451 146.746319 
L 419.154083 146.746319 
L 420.109399 144.776287 
L 422.020031 144.776287 
L 422.975347 143.79127 
L 423.930663 143.79127 
L 424.885978 142.806254 
L 429.662558 142.806254 
L 430.617874 141.821238 
L 435.394453 141.821238 
L 436.349769 140.836221 
L 437.305085 140.836221 
L 438.260401 138.866189 
L 440.171032 136.896156 
L 441.126348 133.941107 
L 442.081664 132.956091 
L 443.03698 132.956091 
L 443.992296 131.971075 
L 444.947612 131.971075 
L 445.902928 130.986059 
L 449.724191 130.986059 
L 450.679507 130.001042 
L 452.590139 130.001042 
L 453.545455 129.016026 
L 455.456086 129.016026 
L 457.366718 127.045993 
L 460.232666 127.045993 
L 461.187982 126.060977 
L 465.964561 126.060977 
L 466.919877 124.090945 
L 471.696456 124.090945 
L 472.651772 123.105928 
L 475.51772 123.105928 
L 476.473035 121.135896 
L 480.294299 121.135896 
L 481.249615 120.150879 
L 489.847458 120.150879 
L 490.802774 119.165863 
L 492.713405 119.165863 
L 493.668721 118.180847 
L 500.355932 118.180847 
L 501.311248 117.195831 
L 502.266564 117.195831 
L 503.22188 116.210814 
L 504.177196 116.210814 
L 505.132512 115.225798 
L 510.864407 115.225798 
L 512.775039 113.255765 
L 526.149461 113.255765 
L 527.104777 112.270749 
L 528.060092 112.270749 
L 529.970724 110.300717 
L 530.92604 110.300717 
L 531.881356 109.3157 
L 543.345146 109.3157 
L 544.300462 108.330684 
L 545.255778 106.360651 
L 547.16641 106.360651 
L 548.121726 105.375635 
L 552.898305 105.375635 
L 553.853621 104.390619 
L 554.808937 104.390619 
L 556.719569 102.420586 
L 561.496148 102.420586 
L 562.451464 101.43557 
L 565.317411 101.43557 
L 566.272727 100.450554 
L 568.183359 100.450554 
L 569.138675 99.465537 
L 571.049307 99.465537 
L 572.004622 98.480521 
L 572.959938 98.480521 
L 573.915254 96.510489 
L 580.602465 96.510489 
L 581.557781 93.55544 
L 582.513097 91.585407 
L 583.468413 91.585407 
L 587.289676 87.645342 
L 588.244992 85.675309 
L 590.155624 85.675309 
L 591.11094 83.705277 
L 598.753467 83.705277 
L 600.664099 81.735244 
L 601.619414 79.765212 
L 602.57473 78.780195 
L 605.440678 78.780195 
L 606.395994 76.810163 
L 607.35131 75.825147 
L 608.306626 75.825147 
L 609.261941 72.870098 
L 610.217257 71.885081 
L 614.993837 71.885081 
L 615.949153 69.915049 
L 616.904468 69.915049 
L 617.859784 68.930033 
L 620.725732 68.930033 
L 621.681048 66.96 
L 622.636364 66.96 
L 622.636364 66.96 
" clip-path="url(#p9252f04510)" style="fill: none; stroke: #e377c2; stroke-width: 1.5; stroke-linecap: square"/>
   </g>
   <g id="line2d_40">
    <path d="M 115.363636 343.749577 
L 116.318952 343.749577 
L 118.229584 341.779544 
L 123.006163 341.779544 
L 123.961479 340.794528 
L 124.916795 340.794528 
L 126.827427 338.824495 
L 128.738059 338.824495 
L 129.693374 337.839479 
L 132.559322 337.839479 
L 133.514638 336.854463 
L 134.469954 336.854463 
L 135.42527 335.869446 
L 136.380586 335.869446 
L 138.291217 333.899414 
L 141.157165 333.899414 
L 142.112481 332.914397 
L 144.023112 332.914397 
L 145.933744 330.944365 
L 147.844376 330.944365 
L 149.755008 328.974332 
L 150.710324 328.974332 
L 151.665639 327.989316 
L 152.620955 325.034267 
L 156.442219 325.034267 
L 160.263482 321.094202 
L 161.218798 321.094202 
L 163.12943 319.124169 
L 164.084746 319.124169 
L 165.040062 318.139153 
L 165.995378 318.139153 
L 166.950693 317.154137 
L 175.548536 317.154137 
L 176.503852 316.169121 
L 186.057011 316.169121 
L 187.967643 314.199088 
L 190.83359 314.199088 
L 191.788906 313.214072 
L 193.699538 313.214072 
L 195.610169 311.244039 
L 197.520801 311.244039 
L 198.476117 309.274007 
L 201.342065 309.274007 
L 202.297381 307.303974 
L 203.252696 306.318958 
L 208.029276 306.318958 
L 208.984592 305.333941 
L 209.939908 305.333941 
L 211.850539 303.363909 
L 216.627119 303.363909 
L 217.582435 302.378893 
L 218.53775 302.378893 
L 219.493066 301.393876 
L 225.224961 301.393876 
L 226.180277 300.40886 
L 229.046225 300.40886 
L 230.001541 299.423844 
L 230.956857 299.423844 
L 231.912173 296.468795 
L 232.867488 296.468795 
L 233.822804 294.498762 
L 234.77812 293.513746 
L 235.733436 293.513746 
L 237.644068 291.543713 
L 239.5547 291.543713 
L 240.510015 290.558697 
L 242.420647 290.558697 
L 243.375963 289.573681 
L 244.331279 289.573681 
L 245.286595 287.603648 
L 246.241911 287.603648 
L 247.197227 286.618632 
L 249.107858 286.618632 
L 251.01849 284.648599 
L 251.973806 284.648599 
L 252.929122 282.678567 
L 253.884438 281.69355 
L 260.571649 281.69355 
L 261.526965 279.723518 
L 264.392912 279.723518 
L 265.348228 278.738502 
L 266.303544 278.738502 
L 267.25886 277.753485 
L 270.124807 277.753485 
L 271.080123 276.768469 
L 275.856703 276.768469 
L 276.812018 275.783453 
L 278.72265 275.783453 
L 279.677966 274.798436 
L 284.454545 274.798436 
L 285.409861 273.81342 
L 294.007704 273.81342 
L 295.918336 271.843388 
L 296.873652 271.843388 
L 297.828968 270.858371 
L 298.784284 270.858371 
L 299.739599 269.873355 
L 300.694915 269.873355 
L 301.650231 268.888339 
L 303.560863 268.888339 
L 304.516179 267.903322 
L 305.471495 267.903322 
L 307.382126 265.93329 
L 310.248074 265.93329 
L 311.20339 264.948274 
L 314.069337 264.948274 
L 315.024653 263.963257 
L 321.711864 263.963257 
L 322.66718 262.978241 
L 323.622496 262.978241 
L 324.577812 261.993225 
L 328.399076 261.993225 
L 329.354391 260.023192 
L 335.086287 260.023192 
L 336.041602 259.038176 
L 336.996918 259.038176 
L 337.952234 257.068143 
L 342.728814 257.068143 
L 343.684129 256.083127 
L 349.416025 256.083127 
L 350.371341 255.098111 
L 362.790447 255.098111 
L 363.745763 254.113094 
L 378.075501 254.113094 
L 379.030817 253.128078 
L 383.807396 253.128078 
L 384.762712 252.143062 
L 385.718028 252.143062 
L 386.673344 251.158046 
L 387.628659 251.158046 
L 388.583975 249.188013 
L 389.539291 249.188013 
L 391.449923 247.21798 
L 398.137134 247.21798 
L 399.09245 246.232964 
L 400.047766 246.232964 
L 401.003082 245.247948 
L 401.958398 245.247948 
L 402.913713 244.262932 
L 407.690293 244.262932 
L 408.645609 243.277915 
L 417.243451 243.277915 
L 418.198767 242.292899 
L 422.975347 242.292899 
L 423.930663 241.307883 
L 428.707242 241.307883 
L 429.662558 240.322866 
L 431.57319 240.322866 
L 434.439137 237.367818 
L 436.349769 237.367818 
L 437.305085 235.397785 
L 442.081664 235.397785 
L 443.992296 233.427752 
L 445.902928 233.427752 
L 446.858243 232.442736 
L 447.813559 232.442736 
L 449.724191 230.472704 
L 456.411402 230.472704 
L 457.366718 229.487687 
L 459.27735 229.487687 
L 460.232666 228.502671 
L 467.875193 228.502671 
L 469.785824 226.532638 
L 472.651772 226.532638 
L 473.607088 225.547622 
L 474.562404 225.547622 
L 475.51772 222.592573 
L 476.473035 221.607557 
L 480.294299 221.607557 
L 481.249615 219.637524 
L 484.115562 219.637524 
L 485.070878 218.652508 
L 494.624037 218.652508 
L 495.579353 217.667492 
L 505.132512 217.667492 
L 507.043143 215.697459 
L 513.730354 215.697459 
L 514.68567 214.712443 
L 530.92604 214.712443 
L 534.747304 210.772378 
L 538.568567 210.772378 
L 539.523883 209.787362 
L 547.16641 209.787362 
L 548.121726 208.802345 
L 550.987673 208.802345 
L 551.942989 207.817329 
L 552.898305 207.817329 
L 553.853621 206.832313 
L 559.585516 206.832313 
L 561.496148 204.86228 
L 563.40678 204.86228 
L 564.362096 203.877264 
L 569.138675 203.877264 
L 570.093991 202.892248 
L 571.049307 202.892248 
L 572.004622 200.922215 
L 582.513097 200.922215 
L 584.423729 198.952182 
L 587.289676 198.952182 
L 588.244992 197.967166 
L 593.021572 197.967166 
L 593.976888 196.98215 
L 600.664099 196.98215 
L 601.619414 195.997134 
L 616.904468 195.997134 
L 617.859784 195.012117 
L 618.8151 195.012117 
L 619.770416 193.042085 
L 622.636364 193.042085 
L 622.636364 193.042085 
" clip-path="url(#p9252f04510)" style="fill: none; stroke: #7f7f7f; stroke-width: 1.5; stroke-linecap: square"/>
   </g>
   <g id="line2d_41">
    <path d="M 115.363636 349.659674 
L 119.1849 349.659674 
L 120.140216 348.674658 
L 129.693374 348.674658 
L 130.64869 347.689642 
L 135.42527 347.689642 
L 136.380586 346.704625 
L 145.933744 346.704625 
L 146.88906 345.719609 
L 156.442219 345.719609 
L 157.397535 344.734593 
L 208.984592 344.734593 
L 209.939908 343.749577 
L 214.716487 343.749577 
L 215.671803 342.76456 
L 222.359014 342.76456 
L 223.31433 341.779544 
L 224.269646 341.779544 
L 225.224961 338.824495 
L 226.180277 337.839479 
L 228.090909 337.839479 
L 229.046225 336.854463 
L 238.599384 336.854463 
L 239.5547 335.869446 
L 248.152542 335.869446 
L 249.107858 334.88443 
L 259.616333 334.88443 
L 260.571649 333.899414 
L 272.035439 333.899414 
L 272.990755 332.914397 
L 277.767334 332.914397 
L 278.72265 331.929381 
L 309.292758 331.929381 
L 310.248074 330.944365 
L 312.158706 330.944365 
L 313.114022 329.959349 
L 320.756549 329.959349 
L 321.711864 328.974332 
L 348.460709 328.974332 
L 351.326656 326.019283 
L 379.030817 326.019283 
L 379.986133 325.034267 
L 380.941448 325.034267 
L 382.85208 323.064235 
L 384.762712 323.064235 
L 385.718028 322.079218 
L 434.439137 322.079218 
L 435.394453 321.094202 
L 490.802774 321.094202 
L 491.758089 320.109186 
L 531.881356 320.109186 
L 532.836672 319.124169 
L 537.613251 319.124169 
L 538.568567 318.139153 
L 551.942989 318.139153 
L 552.898305 317.154137 
L 572.004622 317.154137 
L 572.959938 316.169121 
L 622.636364 316.169121 
L 622.636364 316.169121 
" clip-path="url(#p9252f04510)" style="fill: none; stroke: #bcbd22; stroke-width: 1.5; stroke-linecap: square"/>
   </g>
   <g id="line2d_42">
    <path d="M 115.363636 367.389967 
L 163.12943 367.389967 
L 164.084746 366.404951 
L 224.269646 366.404951 
L 225.224961 365.419935 
L 322.66718 365.419935 
L 323.622496 364.434919 
L 324.577812 365.419935 
L 440.171032 365.419935 
L 441.126348 364.434919 
L 447.813559 364.434919 
L 448.768875 363.449902 
L 472.651772 363.449902 
L 473.607088 362.464886 
L 622.636364 362.464886 
L 622.636364 362.464886 
" clip-path="url(#p9252f04510)" style="fill: none; stroke: #17becf; stroke-width: 1.5; stroke-linecap: square"/>
   </g>
   <g id="line2d_43">
    <path d="M 115.363636 369.36 
L 116.318952 368.374984 
L 118.229584 368.374984 
L 119.1849 367.389967 
L 125.872111 367.389967 
L 126.827427 366.404951 
L 129.693374 366.404951 
L 130.64869 365.419935 
L 131.604006 365.419935 
L 133.514638 363.449902 
L 138.291217 363.449902 
L 140.201849 361.47987 
L 141.157165 361.47987 
L 142.112481 360.494853 
L 148.799692 360.494853 
L 149.755008 359.509837 
L 150.710324 357.539805 
L 152.620955 357.539805 
L 153.576271 356.554788 
L 154.531587 356.554788 
L 155.486903 355.569772 
L 156.442219 355.569772 
L 157.397535 354.584756 
L 158.352851 354.584756 
L 160.263482 352.614723 
L 165.995378 352.614723 
L 167.906009 350.644691 
L 170.771957 350.644691 
L 171.727273 349.659674 
L 172.682589 349.659674 
L 173.637904 347.689642 
L 176.503852 347.689642 
L 178.414484 343.749577 
L 184.146379 343.749577 
L 185.101695 341.779544 
L 186.057011 340.794528 
L 188.922958 340.794528 
L 189.878274 339.809511 
L 190.83359 337.839479 
L 192.744222 337.839479 
L 193.699538 336.854463 
L 207.07396 336.854463 
L 208.029276 334.88443 
L 214.716487 327.989316 
L 224.269646 327.989316 
L 227.135593 325.034267 
L 229.046225 325.034267 
L 230.001541 323.064235 
L 231.912173 323.064235 
L 232.867488 322.079218 
L 235.733436 322.079218 
L 236.688752 321.094202 
L 237.644068 321.094202 
L 238.599384 320.109186 
L 239.5547 320.109186 
L 241.465331 318.139153 
L 253.884438 318.139153 
L 255.795069 316.169121 
L 263.437596 316.169121 
L 264.392912 315.184104 
L 267.25886 315.184104 
L 269.169492 313.214072 
L 272.035439 313.214072 
L 272.990755 312.229055 
L 274.901387 312.229055 
L 275.856703 311.244039 
L 280.633282 311.244039 
L 281.588598 310.259023 
L 282.543914 310.259023 
L 283.49923 308.28899 
L 284.454545 308.28899 
L 285.409861 307.303974 
L 290.186441 307.303974 
L 291.141757 306.318958 
L 293.052388 306.318958 
L 294.007704 305.333941 
L 294.96302 305.333941 
L 296.873652 303.363909 
L 303.560863 303.363909 
L 304.516179 302.378893 
L 305.471495 302.378893 
L 306.42681 301.393876 
L 311.20339 301.393876 
L 312.158706 299.423844 
L 313.114022 298.438827 
L 317.890601 298.438827 
L 318.845917 297.453811 
L 322.66718 297.453811 
L 323.622496 295.483779 
L 327.44376 295.483779 
L 329.354391 293.513746 
L 332.220339 293.513746 
L 333.175655 292.52873 
L 344.639445 292.52873 
L 345.594761 290.558697 
L 346.550077 289.573681 
L 354.192604 289.573681 
L 355.14792 288.588664 
L 372.343606 288.588664 
L 373.298921 287.603648 
L 375.209553 287.603648 
L 376.164869 286.618632 
L 379.030817 286.618632 
L 379.986133 285.633616 
L 392.405239 285.633616 
L 393.360555 283.663583 
L 395.271186 283.663583 
L 396.226502 282.678567 
L 397.181818 282.678567 
L 398.137134 281.69355 
L 401.958398 281.69355 
L 402.913713 280.708534 
L 409.600924 280.708534 
L 410.55624 278.738502 
L 411.511556 278.738502 
L 412.466872 277.753485 
L 417.243451 277.753485 
L 418.198767 276.768469 
L 422.975347 276.768469 
L 424.885978 274.798436 
L 426.79661 274.798436 
L 427.751926 273.81342 
L 429.662558 273.81342 
L 430.617874 272.828404 
L 431.57319 272.828404 
L 432.528505 271.843388 
L 439.215716 271.843388 
L 440.171032 270.858371 
L 462.143297 270.858371 
L 463.098613 269.873355 
L 467.875193 269.873355 
L 468.830508 268.888339 
L 479.338983 268.888339 
L 480.294299 267.903322 
L 522.328197 267.903322 
L 523.283513 266.918306 
L 529.015408 266.918306 
L 529.970724 265.93329 
L 530.92604 265.93329 
L 531.881356 264.948274 
L 544.300462 264.948274 
L 545.255778 263.963257 
L 563.40678 263.963257 
L 564.362096 262.978241 
L 568.183359 262.978241 
L 569.138675 261.993225 
L 573.915254 261.993225 
L 574.87057 261.008208 
L 580.602465 261.008208 
L 581.557781 260.023192 
L 587.289676 260.023192 
L 588.244992 259.038176 
L 593.976888 259.038176 
L 594.932203 256.083127 
L 595.887519 255.098111 
L 602.57473 255.098111 
L 603.530046 254.113094 
L 608.306626 254.113094 
L 609.261941 253.128078 
L 614.038521 253.128078 
L 614.993837 252.143062 
L 620.725732 252.143062 
L 621.681048 251.158046 
L 622.636364 251.158046 
L 622.636364 251.158046 
" clip-path="url(#p9252f04510)" style="fill: none; stroke: #1f77b4; stroke-width: 1.5; stroke-linecap: square"/>
   </g>
   <g id="line2d_44">
    <path d="M 115.363636 332.914397 
L 122.050847 332.914397 
L 123.006163 331.929381 
L 125.872111 331.929381 
L 126.827427 330.944365 
L 130.64869 330.944365 
L 131.604006 329.959349 
L 134.469954 329.959349 
L 135.42527 328.974332 
L 136.380586 328.974332 
L 137.335901 327.989316 
L 140.201849 327.989316 
L 141.157165 327.0043 
L 143.067797 327.0043 
L 144.023112 326.019283 
L 144.978428 326.019283 
L 146.88906 324.049251 
L 152.620955 324.049251 
L 153.576271 323.064235 
L 154.531587 323.064235 
L 155.486903 322.079218 
L 156.442219 322.079218 
L 157.397535 320.109186 
L 158.352851 317.154137 
L 159.308166 316.169121 
L 163.12943 316.169121 
L 165.995378 313.214072 
L 168.861325 313.214072 
L 170.771957 311.244039 
L 181.280431 311.244039 
L 182.235747 308.28899 
L 183.191063 308.28899 
L 185.101695 304.348925 
L 187.012327 302.378893 
L 187.967643 302.378893 
L 188.922958 300.40886 
L 196.565485 300.40886 
L 197.520801 298.438827 
L 200.386749 298.438827 
L 201.342065 297.453811 
L 208.029276 297.453811 
L 208.984592 296.468795 
L 220.448382 296.468795 
L 221.403698 295.483779 
L 222.359014 295.483779 
L 223.31433 294.498762 
L 226.180277 294.498762 
L 227.135593 293.513746 
L 238.599384 293.513746 
L 239.5547 292.52873 
L 241.465331 292.52873 
L 243.375963 288.588664 
L 245.286595 288.588664 
L 247.197227 286.618632 
L 249.107858 286.618632 
L 250.063174 285.633616 
L 252.929122 285.633616 
L 253.884438 284.648599 
L 265.348228 284.648599 
L 266.303544 283.663583 
L 280.633282 283.663583 
L 281.588598 282.678567 
L 290.186441 282.678567 
L 291.141757 281.69355 
L 293.052388 281.69355 
L 294.007704 280.708534 
L 296.873652 280.708534 
L 298.784284 278.738502 
L 299.739599 278.738502 
L 300.694915 277.753485 
L 304.516179 277.753485 
L 306.42681 275.783453 
L 311.20339 275.783453 
L 312.158706 274.798436 
L 315.024653 274.798436 
L 315.979969 273.81342 
L 320.756549 273.81342 
L 321.711864 272.828404 
L 326.488444 272.828404 
L 327.44376 271.843388 
L 344.639445 271.843388 
L 345.594761 270.858371 
L 346.550077 270.858371 
L 347.505393 269.873355 
L 357.058552 269.873355 
L 358.013867 267.903322 
L 358.969183 267.903322 
L 359.924499 266.918306 
L 369.477658 266.918306 
L 370.432974 265.93329 
L 374.254237 265.93329 
L 375.209553 264.948274 
L 376.164869 264.948274 
L 377.120185 263.963257 
L 385.718028 263.963257 
L 386.673344 262.978241 
L 405.779661 262.978241 
L 406.734977 260.023192 
L 413.422188 260.023192 
L 414.377504 259.038176 
L 416.288136 259.038176 
L 417.243451 258.05316 
L 428.707242 258.05316 
L 429.662558 257.068143 
L 443.03698 257.068143 
L 443.992296 256.083127 
L 446.858243 256.083127 
L 447.813559 255.098111 
L 455.456086 255.098111 
L 456.411402 253.128078 
L 471.696456 253.128078 
L 472.651772 252.143062 
L 477.428351 252.143062 
L 478.383667 251.158046 
L 492.713405 251.158046 
L 493.668721 250.173029 
L 495.579353 250.173029 
L 496.534669 249.188013 
L 506.087827 249.188013 
L 507.043143 248.202997 
L 517.551618 248.202997 
L 518.506934 247.21798 
L 530.92604 247.21798 
L 531.881356 246.232964 
L 543.345146 246.232964 
L 544.300462 245.247948 
L 550.987673 245.247948 
L 551.942989 244.262932 
L 561.496148 244.262932 
L 564.362096 241.307883 
L 566.272727 241.307883 
L 567.228043 240.322866 
L 568.183359 240.322866 
L 570.093991 238.352834 
L 573.915254 238.352834 
L 574.87057 237.367818 
L 576.781202 237.367818 
L 577.736518 235.397785 
L 578.691834 234.412769 
L 590.155624 234.412769 
L 591.11094 233.427752 
L 599.708783 233.427752 
L 600.664099 232.442736 
L 610.217257 232.442736 
L 611.172573 231.45772 
L 615.949153 231.45772 
L 616.904468 229.487687 
L 622.636364 229.487687 
L 622.636364 229.487687 
" clip-path="url(#p9252f04510)" style="fill: none; stroke: #ff7f0e; stroke-width: 1.5; stroke-linecap: square"/>
   </g>
   <g id="patch_3">
    <path d="M 90 384.48 
L 90 51.84 
" style="fill: none; stroke: #000000; stroke-width: 0.8; stroke-linejoin: miter; stroke-linecap: square"/>
   </g>
   <g id="patch_4">
    <path d="M 648 384.48 
L 648 51.84 
" style="fill: none; stroke: #000000; stroke-width: 0.8; stroke-linejoin: miter; stroke-linecap: square"/>
   </g>
   <g id="patch_5">
    <path d="M 90 384.48 
L 648 384.48 
" style="fill: none; stroke: #000000; stroke-width: 0.8; stroke-linejoin: miter; stroke-linecap: square"/>
   </g>
   <g id="patch_6">
    <path d="M 90 51.84 
L 648 51.84 
" style="fill: none; stroke: #000000; stroke-width: 0.8; stroke-linejoin: miter; stroke-linecap: square"/>
   </g>
   <g id="text_19">
    <!-- Time Series of Votes for Each Keyword -->
    <g transform="translate(253.716563 45.84) scale(0.12 -0.12)">
     <defs>
      <path id="DejaVuSans-53" d="M 3425 4513 
L 3425 3897 
Q 3066 4069 2747 4153 
Q 2428 4238 2131 4238 
Q 1616 4238 1336 4038 
Q 1056 3838 1056 3469 
Q 1056 3159 1242 3001 
Q 1428 2844 1947 2747 
L 2328 2669 
Q 3034 2534 3370 2195 
Q 3706 1856 3706 1288 
Q 3706 609 3251 259 
Q 2797 -91 1919 -91 
Q 1588 -91 1214 -16 
Q 841 59 441 206 
L 441 856 
Q 825 641 1194 531 
Q 1563 422 1919 422 
Q 2459 422 2753 634 
Q 3047 847 3047 1241 
Q 3047 1584 2836 1778 
Q 2625 1972 2144 2069 
L 1759 2144 
Q 1053 2284 737 2584 
Q 422 2884 422 3419 
Q 422 4038 858 4394 
Q 1294 4750 2059 4750 
Q 2388 4750 2728 4690 
Q 3069 4631 3425 4513 
z
" transform="scale(0.015625)"/>
      <path id="DejaVuSans-72" d="M 2631 2963 
Q 2534 3019 2420 3045 
Q 2306 3072 2169 3072 
Q 1681 3072 1420 2755 
Q 1159 2438 1159 1844 
L 1159 0 
L 581 0 
L 581 3500 
L 1159 3500 
L 1159 2956 
Q 1341 3275 1631 3429 
Q 1922 3584 2338 3584 
Q 2397 3584 2469 3576 
Q 2541 3569 2628 3553 
L 2631 2963 
z
" transform="scale(0.015625)"/>
      <path id="DejaVuSans-66" d="M 2375 4863 
L 2375 4384 
L 1825 4384 
Q 1516 4384 1395 4259 
Q 1275 4134 1275 3809 
L 1275 3500 
L 2222 3500 
L 2222 3053 
L 1275 3053 
L 1275 0 
L 697 0 
L 697 3053 
L 147 3053 
L 147 3500 
L 697 3500 
L 697 3744 
Q 697 4328 969 4595 
Q 1241 4863 1831 4863 
L 2375 4863 
z
" transform="scale(0.015625)"/>
      <path id="DejaVuSans-45" d="M 628 4666 
L 3578 4666 
L 3578 4134 
L 1259 4134 
L 1259 2753 
L 3481 2753 
L 3481 2222 
L 1259 2222 
L 1259 531 
L 3634 531 
L 3634 0 
L 628 0 
L 628 4666 
z
" transform="scale(0.015625)"/>
      <path id="DejaVuSans-63" d="M 3122 3366 
L 3122 2828 
Q 2878 2963 2633 3030 
Q 2388 3097 2138 3097 
Q 1578 3097 1268 2742 
Q 959 2388 959 1747 
Q 959 1106 1268 751 
Q 1578 397 2138 397 
Q 2388 397 2633 464 
Q 2878 531 3122 666 
L 3122 134 
Q 2881 22 2623 -34 
Q 2366 -91 2075 -91 
Q 1284 -91 818 406 
Q 353 903 353 1747 
Q 353 2603 823 3093 
Q 1294 3584 2113 3584 
Q 2378 3584 2631 3529 
Q 2884 3475 3122 3366 
z
" transform="scale(0.015625)"/>
      <path id="DejaVuSans-68" d="M 3513 2113 
L 3513 0 
L 2938 0 
L 2938 2094 
Q 2938 2591 2744 2837 
Q 2550 3084 2163 3084 
Q 1697 3084 1428 2787 
Q 1159 2491 1159 1978 
L 1159 0 
L 581 0 
L 581 4863 
L 1159 4863 
L 1159 2956 
Q 1366 3272 1645 3428 
Q 1925 3584 2291 3584 
Q 2894 3584 3203 3211 
Q 3513 2838 3513 2113 
z
" transform="scale(0.015625)"/>
      <path id="DejaVuSans-4b" d="M 628 4666 
L 1259 4666 
L 1259 2694 
L 3353 4666 
L 4166 4666 
L 1850 2491 
L 4331 0 
L 3500 0 
L 1259 2247 
L 1259 0 
L 628 0 
L 628 4666 
z
" transform="scale(0.015625)"/>
      <path id="DejaVuSans-79" d="M 2059 -325 
Q 1816 -950 1584 -1140 
Q 1353 -1331 966 -1331 
L 506 -1331 
L 506 -850 
L 844 -850 
Q 1081 -850 1212 -737 
Q 1344 -625 1503 -206 
L 1606 56 
L 191 3500 
L 800 3500 
L 1894 763 
L 2988 3500 
L 3597 3500 
L 2059 -325 
z
" transform="scale(0.015625)"/>
      <path id="DejaVuSans-77" d="M 269 3500 
L 844 3500 
L 1563 769 
L 2278 3500 
L 2956 3500 
L 3675 769 
L 4391 3500 
L 4966 3500 
L 4050 0 
L 3372 0 
L 2619 2869 
L 1863 0 
L 1184 0 
L 269 3500 
z
" transform="scale(0.015625)"/>
     </defs>
     <use xlink:href="#DejaVuSans-54"/>
     <use xlink:href="#DejaVuSans-69" transform="translate(57.958984 0)"/>
     <use xlink:href="#DejaVuSans-6d" transform="translate(85.742188 0)"/>
     <use xlink:href="#DejaVuSans-65" transform="translate(183.154297 0)"/>
     <use xlink:href="#DejaVuSans-20" transform="translate(244.677734 0)"/>
     <use xlink:href="#DejaVuSans-53" transform="translate(276.464844 0)"/>
     <use xlink:href="#DejaVuSans-65" transform="translate(339.941406 0)"/>
     <use xlink:href="#DejaVuSans-72" transform="translate(401.464844 0)"/>
     <use xlink:href="#DejaVuSans-69" transform="translate(442.578125 0)"/>
     <use xlink:href="#DejaVuSans-65" transform="translate(470.361328 0)"/>
     <use xlink:href="#DejaVuSans-73" transform="translate(531.884766 0)"/>
     <use xlink:href="#DejaVuSans-20" transform="translate(583.984375 0)"/>
     <use xlink:href="#DejaVuSans-6f" transform="translate(615.771484 0)"/>
     <use xlink:href="#DejaVuSans-66" transform="translate(676.953125 0)"/>
     <use xlink:href="#DejaVuSans-20" transform="translate(712.158203 0)"/>
     <use xlink:href="#DejaVuSans-56" transform="translate(743.945312 0)"/>
     <use xlink:href="#DejaVuSans-6f" transform="translate(804.603516 0)"/>
     <use xlink:href="#DejaVuSans-74" transform="translate(865.785156 0)"/>
     <use xlink:href="#DejaVuSans-65" transform="translate(904.994141 0)"/>
     <use xlink:href="#DejaVuSans-73" transform="translate(966.517578 0)"/>
     <use xlink:href="#DejaVuSans-20" transform="translate(1018.617188 0)"/>
     <use xlink:href="#DejaVuSans-66" transform="translate(1050.404297 0)"/>
     <use xlink:href="#DejaVuSans-6f" transform="translate(1085.609375 0)"/>
     <use xlink:href="#DejaVuSans-72" transform="translate(1146.791016 0)"/>
     <use xlink:href="#DejaVuSans-20" transform="translate(1187.904297 0)"/>
     <use xlink:href="#DejaVuSans-45" transform="translate(1219.691406 0)"/>
     <use xlink:href="#DejaVuSans-61" transform="translate(1282.875 0)"/>
     <use xlink:href="#DejaVuSans-63" transform="translate(1344.154297 0)"/>
     <use xlink:href="#DejaVuSans-68" transform="translate(1399.134766 0)"/>
     <use xlink:href="#DejaVuSans-20" transform="translate(1462.513672 0)"/>
     <use xlink:href="#DejaVuSans-4b" transform="translate(1494.300781 0)"/>
     <use xlink:href="#DejaVuSans-65" transform="translate(1554.876953 0)"/>
     <use xlink:href="#DejaVuSans-79" transform="translate(1616.400391 0)"/>
     <use xlink:href="#DejaVuSans-77" transform="translate(1675.580078 0)"/>
     <use xlink:href="#DejaVuSans-6f" transform="translate(1757.367188 0)"/>
     <use xlink:href="#DejaVuSans-72" transform="translate(1818.548828 0)"/>
     <use xlink:href="#DejaVuSans-64" transform="translate(1857.912109 0)"/>
    </g>
   </g>
   <g id="legend_1">
    <g id="patch_7">
     <path d="M 97 235.9775 
L 149.245313 235.9775 
Q 151.245313 235.9775 151.245313 233.9775 
L 151.245313 58.84 
Q 151.245313 56.84 149.245313 56.84 
L 97 56.84 
Q 95 56.84 95 58.84 
L 95 233.9775 
Q 95 235.9775 97 235.9775 
z
" style="fill: #ffffff; opacity: 0.8; stroke: #cccccc; stroke-linejoin: miter"/>
    </g>
    <g id="line2d_45">
     <path d="M 99 64.938437 
L 109 64.938437 
L 119 64.938437 
" style="fill: none; stroke: #1f77b4; stroke-width: 1.5; stroke-linecap: square"/>
    </g>
    <g id="text_20">
     <!-- H01 -->
     <g transform="translate(127 68.438437) scale(0.1 -0.1)">
      <defs>
       <path id="DejaVuSans-48" d="M 628 4666 
L 1259 4666 
L 1259 2753 
L 3553 2753 
L 3553 4666 
L 4184 4666 
L 4184 0 
L 3553 0 
L 3553 2222 
L 1259 2222 
L 1259 0 
L 628 0 
L 628 4666 
z
" transform="scale(0.015625)"/>
      </defs>
      <use xlink:href="#DejaVuSans-48"/>
      <use xlink:href="#DejaVuSans-30" transform="translate(75.195312 0)"/>
      <use xlink:href="#DejaVuSans-31" transform="translate(138.818359 0)"/>
     </g>
    </g>
    <g id="line2d_46">
     <path d="M 99 79.616562 
L 109 79.616562 
L 119 79.616562 
" style="fill: none; stroke: #ff7f0e; stroke-width: 1.5; stroke-linecap: square"/>
    </g>
    <g id="text_21">
     <!-- H02 -->
     <g transform="translate(127 83.116562) scale(0.1 -0.1)">
      <use xlink:href="#DejaVuSans-48"/>
      <use xlink:href="#DejaVuSans-30" transform="translate(75.195312 0)"/>
      <use xlink:href="#DejaVuSans-32" transform="translate(138.818359 0)"/>
     </g>
    </g>
    <g id="line2d_47">
     <path d="M 99 94.294688 
L 109 94.294688 
L 119 94.294688 
" style="fill: none; stroke: #2ca02c; stroke-width: 1.5; stroke-linecap: square"/>
    </g>
    <g id="text_22">
     <!-- H03 -->
     <g transform="translate(127 97.794688) scale(0.1 -0.1)">
      <use xlink:href="#DejaVuSans-48"/>
      <use xlink:href="#DejaVuSans-30" transform="translate(75.195312 0)"/>
      <use xlink:href="#DejaVuSans-33" transform="translate(138.818359 0)"/>
     </g>
    </g>
    <g id="line2d_48">
     <path d="M 99 108.972812 
L 109 108.972812 
L 119 108.972812 
" style="fill: none; stroke: #d62728; stroke-width: 1.5; stroke-linecap: square"/>
    </g>
    <g id="text_23">
     <!-- H04 -->
     <g transform="translate(127 112.472812) scale(0.1 -0.1)">
      <use xlink:href="#DejaVuSans-48"/>
      <use xlink:href="#DejaVuSans-30" transform="translate(75.195312 0)"/>
      <use xlink:href="#DejaVuSans-34" transform="translate(138.818359 0)"/>
     </g>
    </g>
    <g id="line2d_49">
     <path d="M 99 123.650937 
L 109 123.650937 
L 119 123.650937 
" style="fill: none; stroke: #9467bd; stroke-width: 1.5; stroke-linecap: square"/>
    </g>
    <g id="text_24">
     <!-- H05 -->
     <g transform="translate(127 127.150937) scale(0.1 -0.1)">
      <use xlink:href="#DejaVuSans-48"/>
      <use xlink:href="#DejaVuSans-30" transform="translate(75.195312 0)"/>
      <use xlink:href="#DejaVuSans-35" transform="translate(138.818359 0)"/>
     </g>
    </g>
    <g id="line2d_50">
     <path d="M 99 138.329062 
L 109 138.329062 
L 119 138.329062 
" style="fill: none; stroke: #8c564b; stroke-width: 1.5; stroke-linecap: square"/>
    </g>
    <g id="text_25">
     <!-- H06 -->
     <g transform="translate(127 141.829062) scale(0.1 -0.1)">
      <use xlink:href="#DejaVuSans-48"/>
      <use xlink:href="#DejaVuSans-30" transform="translate(75.195312 0)"/>
      <use xlink:href="#DejaVuSans-36" transform="translate(138.818359 0)"/>
     </g>
    </g>
    <g id="line2d_51">
     <path d="M 99 153.007187 
L 109 153.007187 
L 119 153.007187 
" style="fill: none; stroke: #e377c2; stroke-width: 1.5; stroke-linecap: square"/>
    </g>
    <g id="text_26">
     <!-- H07 -->
     <g transform="translate(127 156.507187) scale(0.1 -0.1)">
      <use xlink:href="#DejaVuSans-48"/>
      <use xlink:href="#DejaVuSans-30" transform="translate(75.195312 0)"/>
      <use xlink:href="#DejaVuSans-37" transform="translate(138.818359 0)"/>
     </g>
    </g>
    <g id="line2d_52">
     <path d="M 99 167.685312 
L 109 167.685312 
L 119 167.685312 
" style="fill: none; stroke: #7f7f7f; stroke-width: 1.5; stroke-linecap: square"/>
    </g>
    <g id="text_27">
     <!-- H08 -->
     <g transform="translate(127 171.185312) scale(0.1 -0.1)">
      <use xlink:href="#DejaVuSans-48"/>
      <use xlink:href="#DejaVuSans-30" transform="translate(75.195312 0)"/>
      <use xlink:href="#DejaVuSans-38" transform="translate(138.818359 0)"/>
     </g>
    </g>
    <g id="line2d_53">
     <path d="M 99 182.363437 
L 109 182.363437 
L 119 182.363437 
" style="fill: none; stroke: #bcbd22; stroke-width: 1.5; stroke-linecap: square"/>
    </g>
    <g id="text_28">
     <!-- H09 -->
     <g transform="translate(127 185.863437) scale(0.1 -0.1)">
      <use xlink:href="#DejaVuSans-48"/>
      <use xlink:href="#DejaVuSans-30" transform="translate(75.195312 0)"/>
      <use xlink:href="#DejaVuSans-39" transform="translate(138.818359 0)"/>
     </g>
    </g>
    <g id="line2d_54">
     <path d="M 99 197.041562 
L 109 197.041562 
L 119 197.041562 
" style="fill: none; stroke: #17becf; stroke-width: 1.5; stroke-linecap: square"/>
    </g>
    <g id="text_29">
     <!-- H10 -->
     <g transform="translate(127 200.541562) scale(0.1 -0.1)">
      <use xlink:href="#DejaVuSans-48"/>
      <use xlink:href="#DejaVuSans-31" transform="translate(75.195312 0)"/>
      <use xlink:href="#DejaVuSans-30" transform="translate(138.818359 0)"/>
     </g>
    </g>
    <g id="line2d_55">
     <path d="M 99 211.719687 
L 109 211.719687 
L 119 211.719687 
" style="fill: none; stroke: #1f77b4; stroke-width: 1.5; stroke-linecap: square"/>
    </g>
    <g id="text_30">
     <!-- H11 -->
     <g transform="translate(127 215.219687) scale(0.1 -0.1)">
      <use xlink:href="#DejaVuSans-48"/>
      <use xlink:href="#DejaVuSans-31" transform="translate(75.195312 0)"/>
      <use xlink:href="#DejaVuSans-31" transform="translate(138.818359 0)"/>
     </g>
    </g>
    <g id="line2d_56">
     <path d="M 99 226.397812 
L 109 226.397812 
L 119 226.397812 
" style="fill: none; stroke: #ff7f0e; stroke-width: 1.5; stroke-linecap: square"/>
    </g>
    <g id="text_31">
     <!-- H12 -->
     <g transform="translate(127 229.897812) scale(0.1 -0.1)">
      <use xlink:href="#DejaVuSans-48"/>
      <use xlink:href="#DejaVuSans-31" transform="translate(75.195312 0)"/>
      <use xlink:href="#DejaVuSans-32" transform="translate(138.818359 0)"/>
     </g>
    </g>
   </g>
  </g>
 </g>
 <defs>
  <clipPath id="p9252f04510">
   <rect x="90" y="51.84" width="558" height="332.64"/>
  </clipPath>
 </defs>
</svg>
