<?xml version="1.0" encoding="utf-8" standalone="no"?>
<!DOCTYPE svg PUBLIC "-//W3C//DTD SVG 1.1//EN"
  "http://www.w3.org/Graphics/SVG/1.1/DTD/svg11.dtd">
<svg xmlns:xlink="http://www.w3.org/1999/xlink" width="720pt" height="432pt" viewBox="0 0 720 432" xmlns="http://www.w3.org/2000/svg" version="1.1">
 <metadata>
  <rdf:RDF xmlns:dc="http://purl.org/dc/elements/1.1/" xmlns:cc="http://creativecommons.org/ns#" xmlns:rdf="http://www.w3.org/1999/02/22-rdf-syntax-ns#">
   <cc:Work>
    <dc:type rdf:resource="http://purl.org/dc/dcmitype/StillImage"/>
    <dc:date>2025-01-14T19:52:03.391829</dc:date>
    <dc:format>image/svg+xml</dc:format>
    <dc:creator>
     <cc:Agent>
      <dc:title>Matplotlib v3.10.0, https://matplotlib.org/</dc:title>
     </cc:Agent>
    </dc:creator>
   </cc:Work>
  </rdf:RDF>
 </metadata>
 <defs>
  <style type="text/css">*{stroke-linejoin: round; stroke-linecap: butt}</style>
 </defs>
 <g id="figure_1">
  <g id="patch_1">
   <path d="M 0 432 
L 720 432 
L 720 0 
L 0 0 
z
" style="fill: #ffffff"/>
  </g>
  <g id="axes_1">
   <g id="patch_2">
    <path d="M 90 384.48 
L 648 384.48 
L 648 51.84 
L 90 51.84 
z
" style="fill: #ffffff"/>
   </g>
   <g id="matplotlib.axis_1">
    <g id="xtick_1">
     <g id="line2d_1">
      <path d="M 151.597403 384.48 
L 151.597403 51.84 
" clip-path="url(#pb25e5e73ac)" style="fill: none; stroke: #b0b0b0; stroke-width: 0.8; stroke-linecap: square"/>
     </g>
     <g id="line2d_2">
      <defs>
       <path id="m4952bd7857" d="M 0 0 
L 0 3.5 
" style="stroke: #000000; stroke-width: 0.8"/>
      </defs>
      <g>
       <use xlink:href="#m4952bd7857" x="151.597403" y="384.48" style="stroke: #000000; stroke-width: 0.8"/>
      </g>
     </g>
     <g id="text_1">
      <!-- 01-14 14 -->
      <g transform="translate(129.116934 399.078438) scale(0.1 -0.1)">
       <defs>
        <path id="DejaVuSans-30" d="M 2034 4250 
Q 1547 4250 1301 3770 
Q 1056 3291 1056 2328 
Q 1056 1369 1301 889 
Q 1547 409 2034 409 
Q 2525 409 2770 889 
Q 3016 1369 3016 2328 
Q 3016 3291 2770 3770 
Q 2525 4250 2034 4250 
z
M 2034 4750 
Q 2819 4750 3233 4129 
Q 3647 3509 3647 2328 
Q 3647 1150 3233 529 
Q 2819 -91 2034 -91 
Q 1250 -91 836 529 
Q 422 1150 422 2328 
Q 422 3509 836 4129 
Q 1250 4750 2034 4750 
z
" transform="scale(0.015625)"/>
        <path id="DejaVuSans-31" d="M 794 531 
L 1825 531 
L 1825 4091 
L 703 3866 
L 703 4441 
L 1819 4666 
L 2450 4666 
L 2450 531 
L 3481 531 
L 3481 0 
L 794 0 
L 794 531 
z
" transform="scale(0.015625)"/>
        <path id="DejaVuSans-2d" d="M 313 2009 
L 1997 2009 
L 1997 1497 
L 313 1497 
L 313 2009 
z
" transform="scale(0.015625)"/>
        <path id="DejaVuSans-34" d="M 2419 4116 
L 825 1625 
L 2419 1625 
L 2419 4116 
z
M 2253 4666 
L 3047 4666 
L 3047 1625 
L 3713 1625 
L 3713 1100 
L 3047 1100 
L 3047 0 
L 2419 0 
L 2419 1100 
L 313 1100 
L 313 1709 
L 2253 4666 
z
" transform="scale(0.015625)"/>
        <path id="DejaVuSans-20" transform="scale(0.015625)"/>
       </defs>
       <use xlink:href="#DejaVuSans-30"/>
       <use xlink:href="#DejaVuSans-31" transform="translate(63.623047 0)"/>
       <use xlink:href="#DejaVuSans-2d" transform="translate(127.246094 0)"/>
       <use xlink:href="#DejaVuSans-31" transform="translate(163.330078 0)"/>
       <use xlink:href="#DejaVuSans-34" transform="translate(226.953125 0)"/>
       <use xlink:href="#DejaVuSans-20" transform="translate(290.576172 0)"/>
       <use xlink:href="#DejaVuSans-31" transform="translate(322.363281 0)"/>
       <use xlink:href="#DejaVuSans-34" transform="translate(385.986328 0)"/>
      </g>
     </g>
    </g>
    <g id="xtick_2">
     <g id="line2d_3">
      <path d="M 232.116883 384.48 
L 232.116883 51.84 
" clip-path="url(#pb25e5e73ac)" style="fill: none; stroke: #b0b0b0; stroke-width: 0.8; stroke-linecap: square"/>
     </g>
     <g id="line2d_4">
      <g>
       <use xlink:href="#m4952bd7857" x="232.116883" y="384.48" style="stroke: #000000; stroke-width: 0.8"/>
      </g>
     </g>
     <g id="text_2">
      <!-- 01-14 15 -->
      <g transform="translate(209.636414 399.078438) scale(0.1 -0.1)">
       <defs>
        <path id="DejaVuSans-35" d="M 691 4666 
L 3169 4666 
L 3169 4134 
L 1269 4134 
L 1269 2991 
Q 1406 3038 1543 3061 
Q 1681 3084 1819 3084 
Q 2600 3084 3056 2656 
Q 3513 2228 3513 1497 
Q 3513 744 3044 326 
Q 2575 -91 1722 -91 
Q 1428 -91 1123 -41 
Q 819 9 494 109 
L 494 744 
Q 775 591 1075 516 
Q 1375 441 1709 441 
Q 2250 441 2565 725 
Q 2881 1009 2881 1497 
Q 2881 1984 2565 2268 
Q 2250 2553 1709 2553 
Q 1456 2553 1204 2497 
Q 953 2441 691 2322 
L 691 4666 
z
" transform="scale(0.015625)"/>
       </defs>
       <use xlink:href="#DejaVuSans-30"/>
       <use xlink:href="#DejaVuSans-31" transform="translate(63.623047 0)"/>
       <use xlink:href="#DejaVuSans-2d" transform="translate(127.246094 0)"/>
       <use xlink:href="#DejaVuSans-31" transform="translate(163.330078 0)"/>
       <use xlink:href="#DejaVuSans-34" transform="translate(226.953125 0)"/>
       <use xlink:href="#DejaVuSans-20" transform="translate(290.576172 0)"/>
       <use xlink:href="#DejaVuSans-31" transform="translate(322.363281 0)"/>
       <use xlink:href="#DejaVuSans-35" transform="translate(385.986328 0)"/>
      </g>
     </g>
    </g>
    <g id="xtick_3">
     <g id="line2d_5">
      <path d="M 312.636364 384.48 
L 312.636364 51.84 
" clip-path="url(#pb25e5e73ac)" style="fill: none; stroke: #b0b0b0; stroke-width: 0.8; stroke-linecap: square"/>
     </g>
     <g id="line2d_6">
      <g>
       <use xlink:href="#m4952bd7857" x="312.636364" y="384.48" style="stroke: #000000; stroke-width: 0.8"/>
      </g>
     </g>
     <g id="text_3">
      <!-- 01-14 16 -->
      <g transform="translate(290.155895 399.078438) scale(0.1 -0.1)">
       <defs>
        <path id="DejaVuSans-36" d="M 2113 2584 
Q 1688 2584 1439 2293 
Q 1191 2003 1191 1497 
Q 1191 994 1439 701 
Q 1688 409 2113 409 
Q 2538 409 2786 701 
Q 3034 994 3034 1497 
Q 3034 2003 2786 2293 
Q 2538 2584 2113 2584 
z
M 3366 4563 
L 3366 3988 
Q 3128 4100 2886 4159 
Q 2644 4219 2406 4219 
Q 1781 4219 1451 3797 
Q 1122 3375 1075 2522 
Q 1259 2794 1537 2939 
Q 1816 3084 2150 3084 
Q 2853 3084 3261 2657 
Q 3669 2231 3669 1497 
Q 3669 778 3244 343 
Q 2819 -91 2113 -91 
Q 1303 -91 875 529 
Q 447 1150 447 2328 
Q 447 3434 972 4092 
Q 1497 4750 2381 4750 
Q 2619 4750 2861 4703 
Q 3103 4656 3366 4563 
z
" transform="scale(0.015625)"/>
       </defs>
       <use xlink:href="#DejaVuSans-30"/>
       <use xlink:href="#DejaVuSans-31" transform="translate(63.623047 0)"/>
       <use xlink:href="#DejaVuSans-2d" transform="translate(127.246094 0)"/>
       <use xlink:href="#DejaVuSans-31" transform="translate(163.330078 0)"/>
       <use xlink:href="#DejaVuSans-34" transform="translate(226.953125 0)"/>
       <use xlink:href="#DejaVuSans-20" transform="translate(290.576172 0)"/>
       <use xlink:href="#DejaVuSans-31" transform="translate(322.363281 0)"/>
       <use xlink:href="#DejaVuSans-36" transform="translate(385.986328 0)"/>
      </g>
     </g>
    </g>
    <g id="xtick_4">
     <g id="line2d_7">
      <path d="M 393.155844 384.48 
L 393.155844 51.84 
" clip-path="url(#pb25e5e73ac)" style="fill: none; stroke: #b0b0b0; stroke-width: 0.8; stroke-linecap: square"/>
     </g>
     <g id="line2d_8">
      <g>
       <use xlink:href="#m4952bd7857" x="393.155844" y="384.48" style="stroke: #000000; stroke-width: 0.8"/>
      </g>
     </g>
     <g id="text_4">
      <!-- 01-14 17 -->
      <g transform="translate(370.675375 399.078438) scale(0.1 -0.1)">
       <defs>
        <path id="DejaVuSans-37" d="M 525 4666 
L 3525 4666 
L 3525 4397 
L 1831 0 
L 1172 0 
L 2766 4134 
L 525 4134 
L 525 4666 
z
" transform="scale(0.015625)"/>
       </defs>
       <use xlink:href="#DejaVuSans-30"/>
       <use xlink:href="#DejaVuSans-31" transform="translate(63.623047 0)"/>
       <use xlink:href="#DejaVuSans-2d" transform="translate(127.246094 0)"/>
       <use xlink:href="#DejaVuSans-31" transform="translate(163.330078 0)"/>
       <use xlink:href="#DejaVuSans-34" transform="translate(226.953125 0)"/>
       <use xlink:href="#DejaVuSans-20" transform="translate(290.576172 0)"/>
       <use xlink:href="#DejaVuSans-31" transform="translate(322.363281 0)"/>
       <use xlink:href="#DejaVuSans-37" transform="translate(385.986328 0)"/>
      </g>
     </g>
    </g>
    <g id="xtick_5">
     <g id="line2d_9">
      <path d="M 473.675325 384.48 
L 473.675325 51.84 
" clip-path="url(#pb25e5e73ac)" style="fill: none; stroke: #b0b0b0; stroke-width: 0.8; stroke-linecap: square"/>
     </g>
     <g id="line2d_10">
      <g>
       <use xlink:href="#m4952bd7857" x="473.675325" y="384.48" style="stroke: #000000; stroke-width: 0.8"/>
      </g>
     </g>
     <g id="text_5">
      <!-- 01-14 18 -->
      <g transform="translate(451.194856 399.078438) scale(0.1 -0.1)">
       <defs>
        <path id="DejaVuSans-38" d="M 2034 2216 
Q 1584 2216 1326 1975 
Q 1069 1734 1069 1313 
Q 1069 891 1326 650 
Q 1584 409 2034 409 
Q 2484 409 2743 651 
Q 3003 894 3003 1313 
Q 3003 1734 2745 1975 
Q 2488 2216 2034 2216 
z
M 1403 2484 
Q 997 2584 770 2862 
Q 544 3141 544 3541 
Q 544 4100 942 4425 
Q 1341 4750 2034 4750 
Q 2731 4750 3128 4425 
Q 3525 4100 3525 3541 
Q 3525 3141 3298 2862 
Q 3072 2584 2669 2484 
Q 3125 2378 3379 2068 
Q 3634 1759 3634 1313 
Q 3634 634 3220 271 
Q 2806 -91 2034 -91 
Q 1263 -91 848 271 
Q 434 634 434 1313 
Q 434 1759 690 2068 
Q 947 2378 1403 2484 
z
M 1172 3481 
Q 1172 3119 1398 2916 
Q 1625 2713 2034 2713 
Q 2441 2713 2670 2916 
Q 2900 3119 2900 3481 
Q 2900 3844 2670 4047 
Q 2441 4250 2034 4250 
Q 1625 4250 1398 4047 
Q 1172 3844 1172 3481 
z
" transform="scale(0.015625)"/>
       </defs>
       <use xlink:href="#DejaVuSans-30"/>
       <use xlink:href="#DejaVuSans-31" transform="translate(63.623047 0)"/>
       <use xlink:href="#DejaVuSans-2d" transform="translate(127.246094 0)"/>
       <use xlink:href="#DejaVuSans-31" transform="translate(163.330078 0)"/>
       <use xlink:href="#DejaVuSans-34" transform="translate(226.953125 0)"/>
       <use xlink:href="#DejaVuSans-20" transform="translate(290.576172 0)"/>
       <use xlink:href="#DejaVuSans-31" transform="translate(322.363281 0)"/>
       <use xlink:href="#DejaVuSans-38" transform="translate(385.986328 0)"/>
      </g>
     </g>
    </g>
    <g id="xtick_6">
     <g id="line2d_11">
      <path d="M 554.194805 384.48 
L 554.194805 51.84 
" clip-path="url(#pb25e5e73ac)" style="fill: none; stroke: #b0b0b0; stroke-width: 0.8; stroke-linecap: square"/>
     </g>
     <g id="line2d_12">
      <g>
       <use xlink:href="#m4952bd7857" x="554.194805" y="384.48" style="stroke: #000000; stroke-width: 0.8"/>
      </g>
     </g>
     <g id="text_6">
      <!-- 01-14 19 -->
      <g transform="translate(531.714336 399.078438) scale(0.1 -0.1)">
       <defs>
        <path id="DejaVuSans-39" d="M 703 97 
L 703 672 
Q 941 559 1184 500 
Q 1428 441 1663 441 
Q 2288 441 2617 861 
Q 2947 1281 2994 2138 
Q 2813 1869 2534 1725 
Q 2256 1581 1919 1581 
Q 1219 1581 811 2004 
Q 403 2428 403 3163 
Q 403 3881 828 4315 
Q 1253 4750 1959 4750 
Q 2769 4750 3195 4129 
Q 3622 3509 3622 2328 
Q 3622 1225 3098 567 
Q 2575 -91 1691 -91 
Q 1453 -91 1209 -44 
Q 966 3 703 97 
z
M 1959 2075 
Q 2384 2075 2632 2365 
Q 2881 2656 2881 3163 
Q 2881 3666 2632 3958 
Q 2384 4250 1959 4250 
Q 1534 4250 1286 3958 
Q 1038 3666 1038 3163 
Q 1038 2656 1286 2365 
Q 1534 2075 1959 2075 
z
" transform="scale(0.015625)"/>
       </defs>
       <use xlink:href="#DejaVuSans-30"/>
       <use xlink:href="#DejaVuSans-31" transform="translate(63.623047 0)"/>
       <use xlink:href="#DejaVuSans-2d" transform="translate(127.246094 0)"/>
       <use xlink:href="#DejaVuSans-31" transform="translate(163.330078 0)"/>
       <use xlink:href="#DejaVuSans-34" transform="translate(226.953125 0)"/>
       <use xlink:href="#DejaVuSans-20" transform="translate(290.576172 0)"/>
       <use xlink:href="#DejaVuSans-31" transform="translate(322.363281 0)"/>
       <use xlink:href="#DejaVuSans-39" transform="translate(385.986328 0)"/>
      </g>
     </g>
    </g>
    <g id="xtick_7">
     <g id="line2d_13">
      <path d="M 634.714286 384.48 
L 634.714286 51.84 
" clip-path="url(#pb25e5e73ac)" style="fill: none; stroke: #b0b0b0; stroke-width: 0.8; stroke-linecap: square"/>
     </g>
     <g id="line2d_14">
      <g>
       <use xlink:href="#m4952bd7857" x="634.714286" y="384.48" style="stroke: #000000; stroke-width: 0.8"/>
      </g>
     </g>
     <g id="text_7">
      <!-- 01-14 20 -->
      <g transform="translate(612.233817 399.078438) scale(0.1 -0.1)">
       <defs>
        <path id="DejaVuSans-32" d="M 1228 531 
L 3431 531 
L 3431 0 
L 469 0 
L 469 531 
Q 828 903 1448 1529 
Q 2069 2156 2228 2338 
Q 2531 2678 2651 2914 
Q 2772 3150 2772 3378 
Q 2772 3750 2511 3984 
Q 2250 4219 1831 4219 
Q 1534 4219 1204 4116 
Q 875 4013 500 3803 
L 500 4441 
Q 881 4594 1212 4672 
Q 1544 4750 1819 4750 
Q 2544 4750 2975 4387 
Q 3406 4025 3406 3419 
Q 3406 3131 3298 2873 
Q 3191 2616 2906 2266 
Q 2828 2175 2409 1742 
Q 1991 1309 1228 531 
z
" transform="scale(0.015625)"/>
       </defs>
       <use xlink:href="#DejaVuSans-30"/>
       <use xlink:href="#DejaVuSans-31" transform="translate(63.623047 0)"/>
       <use xlink:href="#DejaVuSans-2d" transform="translate(127.246094 0)"/>
       <use xlink:href="#DejaVuSans-31" transform="translate(163.330078 0)"/>
       <use xlink:href="#DejaVuSans-34" transform="translate(226.953125 0)"/>
       <use xlink:href="#DejaVuSans-20" transform="translate(290.576172 0)"/>
       <use xlink:href="#DejaVuSans-32" transform="translate(322.363281 0)"/>
       <use xlink:href="#DejaVuSans-30" transform="translate(385.986328 0)"/>
      </g>
     </g>
    </g>
    <g id="text_8">
     <!-- Date and Time -->
     <g transform="translate(332.230469 412.756563) scale(0.1 -0.1)">
      <defs>
       <path id="DejaVuSans-44" d="M 1259 4147 
L 1259 519 
L 2022 519 
Q 2988 519 3436 956 
Q 3884 1394 3884 2338 
Q 3884 3275 3436 3711 
Q 2988 4147 2022 4147 
L 1259 4147 
z
M 628 4666 
L 1925 4666 
Q 3281 4666 3915 4102 
Q 4550 3538 4550 2338 
Q 4550 1131 3912 565 
Q 3275 0 1925 0 
L 628 0 
L 628 4666 
z
" transform="scale(0.015625)"/>
       <path id="DejaVuSans-61" d="M 2194 1759 
Q 1497 1759 1228 1600 
Q 959 1441 959 1056 
Q 959 750 1161 570 
Q 1363 391 1709 391 
Q 2188 391 2477 730 
Q 2766 1069 2766 1631 
L 2766 1759 
L 2194 1759 
z
M 3341 1997 
L 3341 0 
L 2766 0 
L 2766 531 
Q 2569 213 2275 61 
Q 1981 -91 1556 -91 
Q 1019 -91 701 211 
Q 384 513 384 1019 
Q 384 1609 779 1909 
Q 1175 2209 1959 2209 
L 2766 2209 
L 2766 2266 
Q 2766 2663 2505 2880 
Q 2244 3097 1772 3097 
Q 1472 3097 1187 3025 
Q 903 2953 641 2809 
L 641 3341 
Q 956 3463 1253 3523 
Q 1550 3584 1831 3584 
Q 2591 3584 2966 3190 
Q 3341 2797 3341 1997 
z
" transform="scale(0.015625)"/>
       <path id="DejaVuSans-74" d="M 1172 4494 
L 1172 3500 
L 2356 3500 
L 2356 3053 
L 1172 3053 
L 1172 1153 
Q 1172 725 1289 603 
Q 1406 481 1766 481 
L 2356 481 
L 2356 0 
L 1766 0 
Q 1100 0 847 248 
Q 594 497 594 1153 
L 594 3053 
L 172 3053 
L 172 3500 
L 594 3500 
L 594 4494 
L 1172 4494 
z
" transform="scale(0.015625)"/>
       <path id="DejaVuSans-65" d="M 3597 1894 
L 3597 1613 
L 953 1613 
Q 991 1019 1311 708 
Q 1631 397 2203 397 
Q 2534 397 2845 478 
Q 3156 559 3463 722 
L 3463 178 
Q 3153 47 2828 -22 
Q 2503 -91 2169 -91 
Q 1331 -91 842 396 
Q 353 884 353 1716 
Q 353 2575 817 3079 
Q 1281 3584 2069 3584 
Q 2775 3584 3186 3129 
Q 3597 2675 3597 1894 
z
M 3022 2063 
Q 3016 2534 2758 2815 
Q 2500 3097 2075 3097 
Q 1594 3097 1305 2825 
Q 1016 2553 972 2059 
L 3022 2063 
z
" transform="scale(0.015625)"/>
       <path id="DejaVuSans-6e" d="M 3513 2113 
L 3513 0 
L 2938 0 
L 2938 2094 
Q 2938 2591 2744 2837 
Q 2550 3084 2163 3084 
Q 1697 3084 1428 2787 
Q 1159 2491 1159 1978 
L 1159 0 
L 581 0 
L 581 3500 
L 1159 3500 
L 1159 2956 
Q 1366 3272 1645 3428 
Q 1925 3584 2291 3584 
Q 2894 3584 3203 3211 
Q 3513 2838 3513 2113 
z
" transform="scale(0.015625)"/>
       <path id="DejaVuSans-64" d="M 2906 2969 
L 2906 4863 
L 3481 4863 
L 3481 0 
L 2906 0 
L 2906 525 
Q 2725 213 2448 61 
Q 2172 -91 1784 -91 
Q 1150 -91 751 415 
Q 353 922 353 1747 
Q 353 2572 751 3078 
Q 1150 3584 1784 3584 
Q 2172 3584 2448 3432 
Q 2725 3281 2906 2969 
z
M 947 1747 
Q 947 1113 1208 752 
Q 1469 391 1925 391 
Q 2381 391 2643 752 
Q 2906 1113 2906 1747 
Q 2906 2381 2643 2742 
Q 2381 3103 1925 3103 
Q 1469 3103 1208 2742 
Q 947 2381 947 1747 
z
" transform="scale(0.015625)"/>
       <path id="DejaVuSans-54" d="M -19 4666 
L 3928 4666 
L 3928 4134 
L 2272 4134 
L 2272 0 
L 1638 0 
L 1638 4134 
L -19 4134 
L -19 4666 
z
" transform="scale(0.015625)"/>
       <path id="DejaVuSans-69" d="M 603 3500 
L 1178 3500 
L 1178 0 
L 603 0 
L 603 3500 
z
M 603 4863 
L 1178 4863 
L 1178 4134 
L 603 4134 
L 603 4863 
z
" transform="scale(0.015625)"/>
       <path id="DejaVuSans-6d" d="M 3328 2828 
Q 3544 3216 3844 3400 
Q 4144 3584 4550 3584 
Q 5097 3584 5394 3201 
Q 5691 2819 5691 2113 
L 5691 0 
L 5113 0 
L 5113 2094 
Q 5113 2597 4934 2840 
Q 4756 3084 4391 3084 
Q 3944 3084 3684 2787 
Q 3425 2491 3425 1978 
L 3425 0 
L 2847 0 
L 2847 2094 
Q 2847 2600 2669 2842 
Q 2491 3084 2119 3084 
Q 1678 3084 1418 2786 
Q 1159 2488 1159 1978 
L 1159 0 
L 581 0 
L 581 3500 
L 1159 3500 
L 1159 2956 
Q 1356 3278 1631 3431 
Q 1906 3584 2284 3584 
Q 2666 3584 2933 3390 
Q 3200 3197 3328 2828 
z
" transform="scale(0.015625)"/>
      </defs>
      <use xlink:href="#DejaVuSans-44"/>
      <use xlink:href="#DejaVuSans-61" transform="translate(77.001953 0)"/>
      <use xlink:href="#DejaVuSans-74" transform="translate(138.28125 0)"/>
      <use xlink:href="#DejaVuSans-65" transform="translate(177.490234 0)"/>
      <use xlink:href="#DejaVuSans-20" transform="translate(239.013672 0)"/>
      <use xlink:href="#DejaVuSans-61" transform="translate(270.800781 0)"/>
      <use xlink:href="#DejaVuSans-6e" transform="translate(332.080078 0)"/>
      <use xlink:href="#DejaVuSans-64" transform="translate(395.458984 0)"/>
      <use xlink:href="#DejaVuSans-20" transform="translate(458.935547 0)"/>
      <use xlink:href="#DejaVuSans-54" transform="translate(490.722656 0)"/>
      <use xlink:href="#DejaVuSans-69" transform="translate(548.681641 0)"/>
      <use xlink:href="#DejaVuSans-6d" transform="translate(576.464844 0)"/>
      <use xlink:href="#DejaVuSans-65" transform="translate(673.876953 0)"/>
     </g>
    </g>
   </g>
   <g id="matplotlib.axis_2">
    <g id="ytick_1">
     <g id="line2d_15">
      <path d="M 90 370.532093 
L 648 370.532093 
" clip-path="url(#pb25e5e73ac)" style="fill: none; stroke: #b0b0b0; stroke-width: 0.8; stroke-linecap: square"/>
     </g>
     <g id="line2d_16">
      <defs>
       <path id="md556003774" d="M 0 0 
L -3.5 0 
" style="stroke: #000000; stroke-width: 0.8"/>
      </defs>
      <g>
       <use xlink:href="#md556003774" x="90" y="370.532093" style="stroke: #000000; stroke-width: 0.8"/>
      </g>
     </g>
     <g id="text_9">
      <!-- 0 -->
      <g transform="translate(76.6375 374.331312) scale(0.1 -0.1)">
       <use xlink:href="#DejaVuSans-30"/>
      </g>
     </g>
    </g>
    <g id="ytick_2">
     <g id="line2d_17">
      <path d="M 90 311.927442 
L 648 311.927442 
" clip-path="url(#pb25e5e73ac)" style="fill: none; stroke: #b0b0b0; stroke-width: 0.8; stroke-linecap: square"/>
     </g>
     <g id="line2d_18">
      <g>
       <use xlink:href="#md556003774" x="90" y="311.927442" style="stroke: #000000; stroke-width: 0.8"/>
      </g>
     </g>
     <g id="text_10">
      <!-- 50 -->
      <g transform="translate(70.275 315.726661) scale(0.1 -0.1)">
       <use xlink:href="#DejaVuSans-35"/>
       <use xlink:href="#DejaVuSans-30" transform="translate(63.623047 0)"/>
      </g>
     </g>
    </g>
    <g id="ytick_3">
     <g id="line2d_19">
      <path d="M 90 253.322791 
L 648 253.322791 
" clip-path="url(#pb25e5e73ac)" style="fill: none; stroke: #b0b0b0; stroke-width: 0.8; stroke-linecap: square"/>
     </g>
     <g id="line2d_20">
      <g>
       <use xlink:href="#md556003774" x="90" y="253.322791" style="stroke: #000000; stroke-width: 0.8"/>
      </g>
     </g>
     <g id="text_11">
      <!-- 100 -->
      <g transform="translate(63.9125 257.122009) scale(0.1 -0.1)">
       <use xlink:href="#DejaVuSans-31"/>
       <use xlink:href="#DejaVuSans-30" transform="translate(63.623047 0)"/>
       <use xlink:href="#DejaVuSans-30" transform="translate(127.246094 0)"/>
      </g>
     </g>
    </g>
    <g id="ytick_4">
     <g id="line2d_21">
      <path d="M 90 194.71814 
L 648 194.71814 
" clip-path="url(#pb25e5e73ac)" style="fill: none; stroke: #b0b0b0; stroke-width: 0.8; stroke-linecap: square"/>
     </g>
     <g id="line2d_22">
      <g>
       <use xlink:href="#md556003774" x="90" y="194.71814" style="stroke: #000000; stroke-width: 0.8"/>
      </g>
     </g>
     <g id="text_12">
      <!-- 150 -->
      <g transform="translate(63.9125 198.517358) scale(0.1 -0.1)">
       <use xlink:href="#DejaVuSans-31"/>
       <use xlink:href="#DejaVuSans-35" transform="translate(63.623047 0)"/>
       <use xlink:href="#DejaVuSans-30" transform="translate(127.246094 0)"/>
      </g>
     </g>
    </g>
    <g id="ytick_5">
     <g id="line2d_23">
      <path d="M 90 136.113488 
L 648 136.113488 
" clip-path="url(#pb25e5e73ac)" style="fill: none; stroke: #b0b0b0; stroke-width: 0.8; stroke-linecap: square"/>
     </g>
     <g id="line2d_24">
      <g>
       <use xlink:href="#md556003774" x="90" y="136.113488" style="stroke: #000000; stroke-width: 0.8"/>
      </g>
     </g>
     <g id="text_13">
      <!-- 200 -->
      <g transform="translate(63.9125 139.912707) scale(0.1 -0.1)">
       <use xlink:href="#DejaVuSans-32"/>
       <use xlink:href="#DejaVuSans-30" transform="translate(63.623047 0)"/>
       <use xlink:href="#DejaVuSans-30" transform="translate(127.246094 0)"/>
      </g>
     </g>
    </g>
    <g id="ytick_6">
     <g id="line2d_25">
      <path d="M 90 77.508837 
L 648 77.508837 
" clip-path="url(#pb25e5e73ac)" style="fill: none; stroke: #b0b0b0; stroke-width: 0.8; stroke-linecap: square"/>
     </g>
     <g id="line2d_26">
      <g>
       <use xlink:href="#md556003774" x="90" y="77.508837" style="stroke: #000000; stroke-width: 0.8"/>
      </g>
     </g>
     <g id="text_14">
      <!-- 250 -->
      <g transform="translate(63.9125 81.308056) scale(0.1 -0.1)">
       <use xlink:href="#DejaVuSans-32"/>
       <use xlink:href="#DejaVuSans-35" transform="translate(63.623047 0)"/>
       <use xlink:href="#DejaVuSans-30" transform="translate(127.246094 0)"/>
      </g>
     </g>
    </g>
    <g id="text_15">
     <!-- Votes -->
     <g transform="translate(57.832812 231.893594) rotate(-90) scale(0.1 -0.1)">
      <defs>
       <path id="DejaVuSans-56" d="M 1831 0 
L 50 4666 
L 709 4666 
L 2188 738 
L 3669 4666 
L 4325 4666 
L 2547 0 
L 1831 0 
z
" transform="scale(0.015625)"/>
       <path id="DejaVuSans-6f" d="M 1959 3097 
Q 1497 3097 1228 2736 
Q 959 2375 959 1747 
Q 959 1119 1226 758 
Q 1494 397 1959 397 
Q 2419 397 2687 759 
Q 2956 1122 2956 1747 
Q 2956 2369 2687 2733 
Q 2419 3097 1959 3097 
z
M 1959 3584 
Q 2709 3584 3137 3096 
Q 3566 2609 3566 1747 
Q 3566 888 3137 398 
Q 2709 -91 1959 -91 
Q 1206 -91 779 398 
Q 353 888 353 1747 
Q 353 2609 779 3096 
Q 1206 3584 1959 3584 
z
" transform="scale(0.015625)"/>
       <path id="DejaVuSans-73" d="M 2834 3397 
L 2834 2853 
Q 2591 2978 2328 3040 
Q 2066 3103 1784 3103 
Q 1356 3103 1142 2972 
Q 928 2841 928 2578 
Q 928 2378 1081 2264 
Q 1234 2150 1697 2047 
L 1894 2003 
Q 2506 1872 2764 1633 
Q 3022 1394 3022 966 
Q 3022 478 2636 193 
Q 2250 -91 1575 -91 
Q 1294 -91 989 -36 
Q 684 19 347 128 
L 347 722 
Q 666 556 975 473 
Q 1284 391 1588 391 
Q 1994 391 2212 530 
Q 2431 669 2431 922 
Q 2431 1156 2273 1281 
Q 2116 1406 1581 1522 
L 1381 1569 
Q 847 1681 609 1914 
Q 372 2147 372 2553 
Q 372 3047 722 3315 
Q 1072 3584 1716 3584 
Q 2034 3584 2315 3537 
Q 2597 3491 2834 3397 
z
" transform="scale(0.015625)"/>
      </defs>
      <use xlink:href="#DejaVuSans-56"/>
      <use xlink:href="#DejaVuSans-6f" transform="translate(60.658203 0)"/>
      <use xlink:href="#DejaVuSans-74" transform="translate(121.839844 0)"/>
      <use xlink:href="#DejaVuSans-65" transform="translate(161.048828 0)"/>
      <use xlink:href="#DejaVuSans-73" transform="translate(222.572266 0)"/>
     </g>
    </g>
   </g>
   <g id="line2d_27">
    <path d="M 115.363636 349.434419 
L 128.78355 349.434419 
L 130.125541 348.262326 
L 143.545455 348.262326 
L 144.887446 345.91814 
L 156.965368 345.91814 
L 158.307359 344.746047 
L 165.017316 344.746047 
L 166.359307 343.573953 
L 171.727273 343.573953 
L 173.069264 342.40186 
L 177.095238 342.40186 
L 178.437229 341.229767 
L 197.225108 341.229767 
L 198.5671 340.057674 
L 213.329004 340.057674 
L 216.012987 337.713488 
L 218.69697 337.713488 
L 220.038961 336.541395 
L 232.116883 336.541395 
L 234.800866 334.197209 
L 250.904762 334.197209 
L 252.246753 333.025116 
L 256.272727 333.025116 
L 257.614719 331.853023 
L 258.95671 331.853023 
L 260.298701 330.68093 
L 296.532468 330.68093 
L 297.874459 329.508837 
L 313.978355 329.508837 
L 315.320346 328.336744 
L 324.714286 328.336744 
L 326.056277 327.164651 
L 327.398268 324.820465 
L 328.74026 324.820465 
L 331.424242 322.476279 
L 352.896104 322.476279 
L 354.238095 321.304186 
L 362.290043 321.304186 
L 363.632035 320.132093 
L 369 320.132093 
L 370.341991 318.96 
L 383.761905 318.96 
L 385.103896 317.787907 
L 387.787879 317.787907 
L 389.12987 316.615814 
L 393.155844 316.615814 
L 394.497835 315.443721 
L 405.233766 315.443721 
L 406.575758 314.271628 
L 407.917749 314.271628 
L 409.25974 313.099535 
L 422.679654 313.099535 
L 424.021645 311.927442 
L 433.415584 311.927442 
L 434.757576 310.755349 
L 436.099567 310.755349 
L 438.78355 308.411163 
L 468.307359 308.411163 
L 469.649351 307.23907 
L 491.121212 307.23907 
L 492.463203 306.066977 
L 493.805195 306.066977 
L 495.147186 304.894884 
L 507.225108 304.894884 
L 508.5671 303.722791 
L 509.909091 303.722791 
L 511.251082 302.550698 
L 517.961039 302.550698 
L 519.30303 301.378605 
L 523.329004 301.378605 
L 526.012987 299.034419 
L 527.354978 299.034419 
L 528.69697 297.862326 
L 531.380952 297.862326 
L 532.722944 296.690233 
L 535.406926 296.690233 
L 536.748918 295.51814 
L 539.4329 295.51814 
L 540.774892 294.346047 
L 572.982684 294.346047 
L 574.324675 293.173953 
L 587.744589 293.173953 
L 589.08658 292.00186 
L 597.138528 292.00186 
L 598.480519 290.829767 
L 599.822511 290.829767 
L 601.164502 289.657674 
L 602.506494 289.657674 
L 607.874459 284.969302 
L 610.558442 284.969302 
L 611.900433 282.625116 
L 622.636364 282.625116 
L 622.636364 282.625116 
" clip-path="url(#pb25e5e73ac)" style="fill: none; stroke: #1f77b4; stroke-width: 1.5; stroke-linecap: square"/>
   </g>
   <g id="line2d_28">
    <path d="M 115.363636 274.420465 
L 116.705628 273.248372 
L 120.731602 273.248372 
L 122.073593 272.076279 
L 123.415584 272.076279 
L 124.757576 270.904186 
L 126.099567 270.904186 
L 128.78355 268.56 
L 130.125541 266.215814 
L 131.467532 266.215814 
L 134.151515 263.871628 
L 135.493506 263.871628 
L 136.835498 259.183256 
L 138.177489 256.83907 
L 139.519481 252.150698 
L 140.861472 248.634419 
L 144.887446 248.634419 
L 146.229437 245.11814 
L 147.571429 242.773953 
L 150.255411 240.429767 
L 151.597403 238.085581 
L 154.281385 235.741395 
L 155.623377 233.397209 
L 159.649351 233.397209 
L 160.991342 227.536744 
L 162.333333 225.192558 
L 163.675325 224.020465 
L 165.017316 221.676279 
L 166.359307 220.504186 
L 167.701299 220.504186 
L 169.04329 216.987907 
L 170.385281 216.987907 
L 171.727273 214.643721 
L 173.069264 213.471628 
L 174.411255 213.471628 
L 175.753247 212.299535 
L 178.437229 212.299535 
L 179.779221 211.127442 
L 182.463203 211.127442 
L 183.805195 208.783256 
L 185.147186 208.783256 
L 186.489177 207.611163 
L 191.857143 207.611163 
L 193.199134 206.43907 
L 197.225108 206.43907 
L 198.5671 205.266977 
L 199.909091 205.266977 
L 201.251082 202.922791 
L 202.593074 202.922791 
L 203.935065 200.578605 
L 205.277056 199.406512 
L 209.30303 199.406512 
L 210.645022 197.062326 
L 211.987013 195.890233 
L 213.329004 192.373953 
L 216.012987 190.029767 
L 226.748918 190.029767 
L 228.090909 186.513488 
L 229.4329 186.513488 
L 232.116883 184.169302 
L 233.458874 184.169302 
L 237.484848 180.653023 
L 240.168831 180.653023 
L 241.510823 179.48093 
L 244.194805 179.48093 
L 248.220779 175.964651 
L 250.904762 175.964651 
L 252.246753 174.792558 
L 258.95671 174.792558 
L 260.298701 173.620465 
L 262.982684 173.620465 
L 264.324675 172.448372 
L 280.428571 172.448372 
L 281.770563 170.104186 
L 284.454545 170.104186 
L 287.138528 167.76 
L 288.480519 167.76 
L 289.822511 166.587907 
L 297.874459 166.587907 
L 301.900433 163.071628 
L 303.242424 163.071628 
L 304.584416 161.899535 
L 305.926407 159.555349 
L 307.268398 159.555349 
L 308.61039 158.383256 
L 309.952381 158.383256 
L 315.320346 153.694884 
L 318.004329 153.694884 
L 319.34632 151.350698 
L 323.372294 151.350698 
L 324.714286 150.178605 
L 328.74026 150.178605 
L 330.082251 149.006512 
L 331.424242 149.006512 
L 332.766234 145.490233 
L 336.792208 145.490233 
L 338.134199 144.31814 
L 339.47619 141.973953 
L 342.160173 141.973953 
L 343.502164 140.80186 
L 346.186147 140.80186 
L 347.528139 139.629767 
L 348.87013 139.629767 
L 355.580087 133.769302 
L 358.264069 133.769302 
L 362.290043 130.253023 
L 366.316017 130.253023 
L 367.658009 127.908837 
L 369 127.908837 
L 370.341991 126.736744 
L 374.367965 126.736744 
L 375.709957 125.564651 
L 387.787879 125.564651 
L 389.12987 124.392558 
L 398.52381 124.392558 
L 399.865801 123.220465 
L 402.549784 123.220465 
L 405.233766 120.876279 
L 411.943723 120.876279 
L 413.285714 119.704186 
L 419.995671 119.704186 
L 424.021645 116.187907 
L 441.467532 116.187907 
L 442.809524 113.843721 
L 444.151515 112.671628 
L 476.359307 112.671628 
L 477.701299 111.499535 
L 485.753247 111.499535 
L 488.437229 109.155349 
L 491.121212 109.155349 
L 492.463203 107.983256 
L 493.805195 107.983256 
L 496.489177 105.63907 
L 497.831169 105.63907 
L 499.17316 104.466977 
L 500.515152 104.466977 
L 503.199134 99.778605 
L 504.541126 98.606512 
L 511.251082 98.606512 
L 512.593074 95.090233 
L 513.935065 92.746047 
L 516.619048 92.746047 
L 519.30303 90.40186 
L 526.012987 90.40186 
L 528.69697 88.057674 
L 531.380952 88.057674 
L 532.722944 86.885581 
L 535.406926 86.885581 
L 536.748918 85.713488 
L 538.090909 85.713488 
L 539.4329 84.541395 
L 540.774892 84.541395 
L 542.116883 83.369302 
L 543.458874 83.369302 
L 544.800866 82.197209 
L 547.484848 82.197209 
L 548.82684 79.853023 
L 555.536797 79.853023 
L 558.220779 77.508837 
L 571.640693 77.508837 
L 572.982684 76.336744 
L 574.324675 76.336744 
L 575.666667 75.164651 
L 577.008658 75.164651 
L 581.034632 71.648372 
L 583.718615 71.648372 
L 585.060606 70.476279 
L 611.900433 70.476279 
L 614.584416 68.132093 
L 619.952381 68.132093 
L 621.294372 66.96 
L 622.636364 66.96 
L 622.636364 66.96 
" clip-path="url(#pb25e5e73ac)" style="fill: none; stroke: #ff7f0e; stroke-width: 1.5; stroke-linecap: square"/>
   </g>
   <g id="line2d_29">
    <path d="M 115.363636 334.197209 
L 120.731602 334.197209 
L 122.073593 331.853023 
L 124.757576 331.853023 
L 126.099567 330.68093 
L 127.441558 328.336744 
L 128.78355 327.164651 
L 130.125541 323.648372 
L 131.467532 321.304186 
L 132.809524 320.132093 
L 134.151515 320.132093 
L 135.493506 317.787907 
L 136.835498 314.271628 
L 142.203463 314.271628 
L 143.545455 313.099535 
L 144.887446 313.099535 
L 146.229437 310.755349 
L 150.255411 310.755349 
L 152.939394 308.411163 
L 158.307359 308.411163 
L 159.649351 307.23907 
L 165.017316 307.23907 
L 169.04329 303.722791 
L 175.753247 303.722791 
L 177.095238 302.550698 
L 181.121212 302.550698 
L 182.463203 301.378605 
L 185.147186 301.378605 
L 186.489177 299.034419 
L 197.225108 299.034419 
L 198.5671 297.862326 
L 199.909091 295.51814 
L 201.251082 294.346047 
L 202.593074 294.346047 
L 203.935065 293.173953 
L 206.619048 293.173953 
L 207.961039 292.00186 
L 210.645022 292.00186 
L 211.987013 290.829767 
L 220.038961 290.829767 
L 221.380952 289.657674 
L 222.722944 289.657674 
L 224.064935 288.485581 
L 225.406926 288.485581 
L 226.748918 287.313488 
L 230.774892 287.313488 
L 232.116883 286.141395 
L 233.458874 283.797209 
L 240.168831 283.797209 
L 244.194805 280.28093 
L 248.220779 280.28093 
L 249.562771 279.108837 
L 254.930736 279.108837 
L 256.272727 277.936744 
L 257.614719 277.936744 
L 258.95671 276.764651 
L 261.640693 276.764651 
L 262.982684 275.592558 
L 267.008658 275.592558 
L 269.692641 273.248372 
L 271.034632 273.248372 
L 272.376623 272.076279 
L 283.112554 272.076279 
L 284.454545 269.732093 
L 285.796537 268.56 
L 296.532468 268.56 
L 297.874459 267.387907 
L 301.900433 267.387907 
L 303.242424 266.215814 
L 307.268398 266.215814 
L 308.61039 265.043721 
L 322.030303 265.043721 
L 323.372294 263.871628 
L 328.74026 263.871628 
L 330.082251 262.699535 
L 338.134199 262.699535 
L 339.47619 261.527442 
L 342.160173 261.527442 
L 343.502164 260.355349 
L 348.87013 260.355349 
L 351.554113 258.011163 
L 377.051948 258.011163 
L 378.393939 256.83907 
L 379.735931 256.83907 
L 381.077922 255.666977 
L 385.103896 255.666977 
L 386.445887 254.494884 
L 393.155844 254.494884 
L 394.497835 253.322791 
L 397.181818 253.322791 
L 398.52381 252.150698 
L 406.575758 252.150698 
L 407.917749 253.322791 
L 409.25974 252.150698 
L 418.65368 252.150698 
L 419.995671 250.978605 
L 430.731602 250.978605 
L 432.073593 249.806512 
L 434.757576 249.806512 
L 436.099567 248.634419 
L 437.441558 248.634419 
L 438.78355 247.462326 
L 448.177489 247.462326 
L 449.519481 246.290233 
L 457.571429 246.290233 
L 458.91342 245.11814 
L 479.04329 245.11814 
L 480.385281 243.946047 
L 509.909091 243.946047 
L 511.251082 242.773953 
L 524.670996 242.773953 
L 526.012987 241.60186 
L 547.484848 241.60186 
L 550.168831 239.257674 
L 574.324675 239.257674 
L 575.666667 238.085581 
L 577.008658 235.741395 
L 603.848485 235.741395 
L 605.190476 234.569302 
L 607.874459 234.569302 
L 609.21645 233.397209 
L 617.268398 233.397209 
L 618.61039 232.225116 
L 622.636364 232.225116 
L 622.636364 232.225116 
" clip-path="url(#pb25e5e73ac)" style="fill: none; stroke: #2ca02c; stroke-width: 1.5; stroke-linecap: square"/>
   </g>
   <g id="line2d_30">
    <path d="M 115.363636 369.36 
L 446.835498 369.36 
L 448.177489 368.187907 
L 622.636364 368.187907 
L 622.636364 368.187907 
" clip-path="url(#pb25e5e73ac)" style="fill: none; stroke: #d62728; stroke-width: 1.5; stroke-linecap: square"/>
   </g>
   <g id="line2d_31">
    <path d="M 115.363636 343.573953 
L 119.38961 343.573953 
L 120.731602 342.40186 
L 128.78355 342.40186 
L 130.125541 341.229767 
L 138.177489 341.229767 
L 139.519481 340.057674 
L 169.04329 340.057674 
L 170.385281 338.885581 
L 218.69697 338.885581 
L 221.380952 336.541395 
L 232.116883 336.541395 
L 233.458874 335.369302 
L 238.82684 335.369302 
L 240.168831 334.197209 
L 242.852814 334.197209 
L 244.194805 333.025116 
L 279.08658 333.025116 
L 280.428571 331.853023 
L 335.450216 331.853023 
L 336.792208 330.68093 
L 511.251082 330.68093 
L 512.593074 329.508837 
L 513.935065 329.508837 
L 515.277056 328.336744 
L 599.822511 328.336744 
L 601.164502 327.164651 
L 622.636364 327.164651 
L 622.636364 327.164651 
" clip-path="url(#pb25e5e73ac)" style="fill: none; stroke: #9467bd; stroke-width: 1.5; stroke-linecap: square"/>
   </g>
   <g id="line2d_32">
    <path d="M 115.363636 352.950698 
L 116.705628 352.950698 
L 118.047619 351.778605 
L 136.835498 351.778605 
L 138.177489 350.606512 
L 154.281385 350.606512 
L 155.623377 349.434419 
L 175.753247 349.434419 
L 178.437229 347.090233 
L 193.199134 347.090233 
L 194.541126 345.91814 
L 234.800866 345.91814 
L 236.142857 344.746047 
L 248.220779 344.746047 
L 249.562771 343.573953 
L 272.376623 343.573953 
L 273.718615 342.40186 
L 295.190476 342.40186 
L 296.532468 341.229767 
L 301.900433 341.229767 
L 303.242424 340.057674 
L 315.320346 340.057674 
L 316.662338 338.885581 
L 348.87013 338.885581 
L 350.212121 337.713488 
L 358.264069 337.713488 
L 359.606061 336.541395 
L 367.658009 336.541395 
L 369 335.369302 
L 374.367965 335.369302 
L 375.709957 334.197209 
L 425.363636 334.197209 
L 426.705628 333.025116 
L 465.623377 333.025116 
L 466.965368 331.853023 
L 544.800866 331.853023 
L 546.142857 330.68093 
L 583.718615 330.68093 
L 585.060606 329.508837 
L 602.506494 329.508837 
L 603.848485 328.336744 
L 622.636364 328.336744 
L 622.636364 328.336744 
" clip-path="url(#pb25e5e73ac)" style="fill: none; stroke: #8c564b; stroke-width: 1.5; stroke-linecap: square"/>
   </g>
   <g id="line2d_33">
    <path d="M 115.363636 266.215814 
L 120.731602 266.215814 
L 122.073593 265.043721 
L 127.441558 265.043721 
L 130.125541 262.699535 
L 131.467532 262.699535 
L 132.809524 261.527442 
L 134.151515 261.527442 
L 135.493506 260.355349 
L 138.177489 260.355349 
L 139.519481 259.183256 
L 143.545455 259.183256 
L 144.887446 258.011163 
L 147.571429 258.011163 
L 148.91342 256.83907 
L 150.255411 256.83907 
L 151.597403 255.666977 
L 154.281385 255.666977 
L 156.965368 253.322791 
L 162.333333 253.322791 
L 163.675325 252.150698 
L 167.701299 252.150698 
L 170.385281 249.806512 
L 173.069264 249.806512 
L 174.411255 248.634419 
L 177.095238 248.634419 
L 178.437229 247.462326 
L 179.779221 245.11814 
L 181.121212 241.60186 
L 183.805195 241.60186 
L 185.147186 240.429767 
L 191.857143 240.429767 
L 194.541126 238.085581 
L 195.883117 235.741395 
L 197.225108 234.569302 
L 198.5671 234.569302 
L 199.909091 232.225116 
L 205.277056 232.225116 
L 206.619048 231.053023 
L 207.961039 231.053023 
L 210.645022 228.708837 
L 211.987013 228.708837 
L 213.329004 227.536744 
L 214.670996 227.536744 
L 217.354978 225.192558 
L 220.038961 225.192558 
L 221.380952 222.848372 
L 226.748918 222.848372 
L 229.4329 220.504186 
L 232.116883 220.504186 
L 233.458874 219.332093 
L 234.800866 216.987907 
L 238.82684 216.987907 
L 240.168831 215.815814 
L 241.510823 215.815814 
L 242.852814 213.471628 
L 244.194805 213.471628 
L 245.536797 212.299535 
L 246.878788 212.299535 
L 248.220779 211.127442 
L 253.588745 211.127442 
L 256.272727 208.783256 
L 257.614719 208.783256 
L 258.95671 206.43907 
L 260.298701 206.43907 
L 261.640693 205.266977 
L 262.982684 205.266977 
L 264.324675 204.094884 
L 268.350649 204.094884 
L 269.692641 202.922791 
L 271.034632 202.922791 
L 276.402597 198.234419 
L 277.744589 195.890233 
L 280.428571 195.890233 
L 283.112554 191.20186 
L 285.796537 191.20186 
L 288.480519 188.857674 
L 289.822511 188.857674 
L 291.164502 186.513488 
L 292.506494 186.513488 
L 293.848485 185.341395 
L 295.190476 185.341395 
L 296.532468 184.169302 
L 299.21645 184.169302 
L 300.558442 182.997209 
L 301.900433 182.997209 
L 303.242424 181.825116 
L 308.61039 181.825116 
L 309.952381 175.964651 
L 311.294372 175.964651 
L 312.636364 174.792558 
L 316.662338 174.792558 
L 318.004329 173.620465 
L 330.082251 173.620465 
L 331.424242 171.276279 
L 336.792208 171.276279 
L 338.134199 170.104186 
L 351.554113 170.104186 
L 352.896104 167.76 
L 354.238095 166.587907 
L 360.948052 166.587907 
L 362.290043 165.415814 
L 371.683983 165.415814 
L 373.025974 164.243721 
L 374.367965 164.243721 
L 375.709957 163.071628 
L 383.761905 163.071628 
L 386.445887 160.727442 
L 395.839827 160.727442 
L 398.52381 158.383256 
L 399.865801 158.383256 
L 401.207792 157.211163 
L 409.25974 157.211163 
L 410.601732 156.03907 
L 414.627706 156.03907 
L 415.969697 154.866977 
L 417.311688 152.522791 
L 421.337662 152.522791 
L 422.679654 151.350698 
L 424.021645 151.350698 
L 426.705628 149.006512 
L 432.073593 149.006512 
L 433.415584 147.834419 
L 438.78355 147.834419 
L 440.125541 146.662326 
L 444.151515 146.662326 
L 445.493506 145.490233 
L 456.229437 145.490233 
L 458.91342 143.146047 
L 465.623377 143.146047 
L 466.965368 141.973953 
L 472.333333 141.973953 
L 479.04329 136.113488 
L 481.727273 136.113488 
L 483.069264 134.941395 
L 484.411255 134.941395 
L 485.753247 132.597209 
L 488.437229 130.253023 
L 491.121212 125.564651 
L 493.805195 125.564651 
L 496.489177 120.876279 
L 499.17316 120.876279 
L 500.515152 118.532093 
L 503.199134 116.187907 
L 507.225108 116.187907 
L 508.5671 115.015814 
L 509.909091 115.015814 
L 512.593074 112.671628 
L 517.961039 112.671628 
L 519.30303 111.499535 
L 521.987013 111.499535 
L 523.329004 110.327442 
L 530.038961 110.327442 
L 531.380952 107.983256 
L 532.722944 106.811163 
L 534.064935 106.811163 
L 535.406926 105.63907 
L 538.090909 105.63907 
L 539.4329 104.466977 
L 542.116883 104.466977 
L 543.458874 102.122791 
L 546.142857 102.122791 
L 547.484848 100.950698 
L 548.82684 100.950698 
L 550.168831 99.778605 
L 556.878788 99.778605 
L 558.220779 98.606512 
L 564.930736 98.606512 
L 566.272727 97.434419 
L 567.614719 97.434419 
L 568.95671 95.090233 
L 571.640693 92.746047 
L 572.982684 89.229767 
L 574.324675 88.057674 
L 575.666667 88.057674 
L 577.008658 86.885581 
L 578.350649 86.885581 
L 579.692641 85.713488 
L 585.060606 85.713488 
L 586.402597 84.541395 
L 589.08658 84.541395 
L 590.428571 83.369302 
L 593.112554 83.369302 
L 595.796537 81.025116 
L 599.822511 81.025116 
L 601.164502 79.853023 
L 607.874459 79.853023 
L 609.21645 77.508837 
L 615.926407 77.508837 
L 617.268398 76.336744 
L 621.294372 76.336744 
L 622.636364 73.992558 
L 622.636364 73.992558 
" clip-path="url(#pb25e5e73ac)" style="fill: none; stroke: #e377c2; stroke-width: 1.5; stroke-linecap: square"/>
   </g>
   <g id="line2d_34">
    <path d="M 115.363636 338.885581 
L 116.705628 338.885581 
L 119.38961 336.541395 
L 126.099567 336.541395 
L 127.441558 335.369302 
L 128.78355 335.369302 
L 131.467532 333.025116 
L 134.151515 333.025116 
L 135.493506 331.853023 
L 139.519481 331.853023 
L 140.861472 330.68093 
L 142.203463 330.68093 
L 143.545455 329.508837 
L 144.887446 329.508837 
L 147.571429 327.164651 
L 151.597403 327.164651 
L 152.939394 325.992558 
L 155.623377 325.992558 
L 158.307359 323.648372 
L 160.991342 323.648372 
L 163.675325 321.304186 
L 165.017316 321.304186 
L 166.359307 320.132093 
L 167.701299 316.615814 
L 173.069264 316.615814 
L 178.437229 311.927442 
L 179.779221 311.927442 
L 182.463203 309.583256 
L 183.805195 309.583256 
L 185.147186 308.411163 
L 186.489177 308.411163 
L 187.831169 307.23907 
L 199.909091 307.23907 
L 201.251082 306.066977 
L 214.670996 306.066977 
L 217.354978 303.722791 
L 221.380952 303.722791 
L 222.722944 302.550698 
L 225.406926 302.550698 
L 228.090909 300.206512 
L 230.774892 300.206512 
L 232.116883 297.862326 
L 236.142857 297.862326 
L 237.484848 295.51814 
L 238.82684 294.346047 
L 245.536797 294.346047 
L 246.878788 293.173953 
L 248.220779 293.173953 
L 250.904762 290.829767 
L 257.614719 290.829767 
L 258.95671 289.657674 
L 260.298701 289.657674 
L 261.640693 288.485581 
L 269.692641 288.485581 
L 271.034632 287.313488 
L 275.060606 287.313488 
L 276.402597 286.141395 
L 277.744589 286.141395 
L 279.08658 282.625116 
L 280.428571 282.625116 
L 281.770563 280.28093 
L 283.112554 279.108837 
L 284.454545 279.108837 
L 287.138528 276.764651 
L 289.822511 276.764651 
L 291.164502 275.592558 
L 293.848485 275.592558 
L 295.190476 274.420465 
L 296.532468 274.420465 
L 297.874459 272.076279 
L 299.21645 272.076279 
L 300.558442 270.904186 
L 303.242424 270.904186 
L 305.926407 268.56 
L 307.268398 268.56 
L 308.61039 266.215814 
L 309.952381 265.043721 
L 319.34632 265.043721 
L 320.688312 262.699535 
L 324.714286 262.699535 
L 326.056277 261.527442 
L 327.398268 261.527442 
L 328.74026 260.355349 
L 332.766234 260.355349 
L 334.108225 259.183256 
L 340.818182 259.183256 
L 342.160173 258.011163 
L 344.844156 258.011163 
L 346.186147 256.83907 
L 352.896104 256.83907 
L 354.238095 255.666977 
L 366.316017 255.666977 
L 369 253.322791 
L 370.341991 253.322791 
L 371.683983 252.150698 
L 373.025974 252.150698 
L 374.367965 250.978605 
L 375.709957 250.978605 
L 377.051948 249.806512 
L 379.735931 249.806512 
L 381.077922 248.634419 
L 382.419913 248.634419 
L 385.103896 246.290233 
L 389.12987 246.290233 
L 390.471861 245.11814 
L 394.497835 245.11814 
L 395.839827 243.946047 
L 405.233766 243.946047 
L 406.575758 242.773953 
L 407.917749 242.773953 
L 409.25974 241.60186 
L 414.627706 241.60186 
L 415.969697 239.257674 
L 424.021645 239.257674 
L 425.363636 238.085581 
L 426.705628 238.085581 
L 428.047619 235.741395 
L 434.757576 235.741395 
L 436.099567 234.569302 
L 444.151515 234.569302 
L 445.493506 233.397209 
L 462.939394 233.397209 
L 464.281385 232.225116 
L 484.411255 232.225116 
L 485.753247 231.053023 
L 492.463203 231.053023 
L 493.805195 229.88093 
L 495.147186 229.88093 
L 496.489177 228.708837 
L 497.831169 228.708837 
L 499.17316 226.364651 
L 500.515152 226.364651 
L 503.199134 224.020465 
L 512.593074 224.020465 
L 513.935065 222.848372 
L 515.277056 222.848372 
L 516.619048 221.676279 
L 517.961039 221.676279 
L 519.30303 220.504186 
L 526.012987 220.504186 
L 527.354978 219.332093 
L 539.4329 219.332093 
L 540.774892 218.16 
L 547.484848 218.16 
L 548.82684 216.987907 
L 555.536797 216.987907 
L 556.878788 215.815814 
L 559.562771 215.815814 
L 563.588745 212.299535 
L 566.272727 212.299535 
L 567.614719 209.955349 
L 574.324675 209.955349 
L 577.008658 207.611163 
L 579.692641 207.611163 
L 581.034632 206.43907 
L 582.376623 206.43907 
L 585.060606 204.094884 
L 594.454545 204.094884 
L 595.796537 202.922791 
L 598.480519 202.922791 
L 599.822511 201.750698 
L 610.558442 201.750698 
L 613.242424 199.406512 
L 617.268398 199.406512 
L 618.61039 198.234419 
L 619.952381 198.234419 
L 621.294372 194.71814 
L 622.636364 193.546047 
L 622.636364 193.546047 
" clip-path="url(#pb25e5e73ac)" style="fill: none; stroke: #7f7f7f; stroke-width: 1.5; stroke-linecap: square"/>
   </g>
   <g id="line2d_35">
    <path d="M 115.363636 345.91814 
L 120.731602 345.91814 
L 122.073593 344.746047 
L 135.493506 344.746047 
L 136.835498 343.573953 
L 143.545455 343.573953 
L 144.887446 342.40186 
L 158.307359 342.40186 
L 159.649351 341.229767 
L 173.069264 341.229767 
L 174.411255 340.057674 
L 246.878788 340.057674 
L 248.220779 338.885581 
L 254.930736 338.885581 
L 256.272727 337.713488 
L 265.666667 337.713488 
L 267.008658 336.541395 
L 268.350649 336.541395 
L 269.692641 333.025116 
L 271.034632 331.853023 
L 273.718615 331.853023 
L 275.060606 330.68093 
L 288.480519 330.68093 
L 289.822511 329.508837 
L 301.900433 329.508837 
L 303.242424 328.336744 
L 318.004329 328.336744 
L 319.34632 327.164651 
L 335.450216 327.164651 
L 336.792208 325.992558 
L 343.502164 325.992558 
L 344.844156 324.820465 
L 387.787879 324.820465 
L 389.12987 323.648372 
L 391.813853 323.648372 
L 393.155844 322.476279 
L 403.891775 322.476279 
L 405.233766 321.304186 
L 442.809524 321.304186 
L 446.835498 317.787907 
L 485.753247 317.787907 
L 487.095238 316.615814 
L 488.437229 316.615814 
L 491.121212 314.271628 
L 493.805195 314.271628 
L 495.147186 313.099535 
L 563.588745 313.099535 
L 564.930736 311.927442 
L 622.636364 311.927442 
L 622.636364 311.927442 
" clip-path="url(#pb25e5e73ac)" style="fill: none; stroke: #bcbd22; stroke-width: 1.5; stroke-linecap: square"/>
   </g>
   <g id="line2d_36">
    <path d="M 115.363636 367.015814 
L 182.463203 367.015814 
L 183.805195 365.843721 
L 268.350649 365.843721 
L 269.692641 364.671628 
L 406.575758 364.671628 
L 407.917749 363.499535 
L 409.25974 364.671628 
L 571.640693 364.671628 
L 572.982684 363.499535 
L 582.376623 363.499535 
L 583.718615 362.327442 
L 617.268398 362.327442 
L 618.61039 361.155349 
L 622.636364 361.155349 
L 622.636364 361.155349 
" clip-path="url(#pb25e5e73ac)" style="fill: none; stroke: #17becf; stroke-width: 1.5; stroke-linecap: square"/>
   </g>
   <g id="line2d_37">
    <path d="M 115.363636 369.36 
L 116.705628 368.187907 
L 119.38961 368.187907 
L 120.731602 367.015814 
L 130.125541 367.015814 
L 131.467532 365.843721 
L 135.493506 365.843721 
L 136.835498 364.671628 
L 138.177489 364.671628 
L 140.861472 362.327442 
L 147.571429 362.327442 
L 150.255411 359.983256 
L 151.597403 359.983256 
L 152.939394 358.811163 
L 162.333333 358.811163 
L 163.675325 357.63907 
L 165.017316 355.294884 
L 167.701299 355.294884 
L 169.04329 354.122791 
L 170.385281 354.122791 
L 171.727273 352.950698 
L 173.069264 352.950698 
L 174.411255 351.778605 
L 175.753247 351.778605 
L 178.437229 349.434419 
L 186.489177 349.434419 
L 189.17316 347.090233 
L 193.199134 347.090233 
L 194.541126 345.91814 
L 195.883117 345.91814 
L 197.225108 343.573953 
L 201.251082 343.573953 
L 203.935065 338.885581 
L 211.987013 338.885581 
L 213.329004 336.541395 
L 214.670996 335.369302 
L 218.69697 335.369302 
L 220.038961 334.197209 
L 221.380952 331.853023 
L 224.064935 331.853023 
L 225.406926 330.68093 
L 244.194805 330.68093 
L 245.536797 328.336744 
L 254.930736 320.132093 
L 268.350649 320.132093 
L 272.376623 316.615814 
L 275.060606 316.615814 
L 276.402597 314.271628 
L 279.08658 314.271628 
L 280.428571 313.099535 
L 284.454545 313.099535 
L 285.796537 311.927442 
L 287.138528 311.927442 
L 288.480519 310.755349 
L 289.822511 310.755349 
L 292.506494 308.411163 
L 309.952381 308.411163 
L 312.636364 306.066977 
L 323.372294 306.066977 
L 324.714286 304.894884 
L 328.74026 304.894884 
L 331.424242 302.550698 
L 335.450216 302.550698 
L 336.792208 301.378605 
L 339.47619 301.378605 
L 340.818182 300.206512 
L 347.528139 300.206512 
L 348.87013 299.034419 
L 350.212121 299.034419 
L 351.554113 296.690233 
L 352.896104 296.690233 
L 354.238095 295.51814 
L 360.948052 295.51814 
L 362.290043 294.346047 
L 364.974026 294.346047 
L 366.316017 293.173953 
L 367.658009 293.173953 
L 370.341991 290.829767 
L 379.735931 290.829767 
L 381.077922 289.657674 
L 382.419913 289.657674 
L 383.761905 288.485581 
L 390.471861 288.485581 
L 391.813853 286.141395 
L 393.155844 284.969302 
L 399.865801 284.969302 
L 401.207792 283.797209 
L 406.575758 283.797209 
L 407.917749 281.453023 
L 413.285714 281.453023 
L 415.969697 279.108837 
L 419.995671 279.108837 
L 421.337662 277.936744 
L 437.441558 277.936744 
L 438.78355 275.592558 
L 440.125541 274.420465 
L 450.861472 274.420465 
L 452.203463 273.248372 
L 476.359307 273.248372 
L 477.701299 272.076279 
L 480.385281 272.076279 
L 481.727273 270.904186 
L 485.753247 270.904186 
L 487.095238 269.732093 
L 504.541126 269.732093 
L 505.883117 267.387907 
L 508.5671 267.387907 
L 509.909091 266.215814 
L 511.251082 266.215814 
L 512.593074 265.043721 
L 517.961039 265.043721 
L 519.30303 263.871628 
L 528.69697 263.871628 
L 530.038961 261.527442 
L 531.380952 261.527442 
L 532.722944 260.355349 
L 539.4329 260.355349 
L 540.774892 259.183256 
L 547.484848 259.183256 
L 550.168831 256.83907 
L 552.852814 256.83907 
L 554.194805 255.666977 
L 556.878788 255.666977 
L 558.220779 254.494884 
L 559.562771 254.494884 
L 560.904762 253.322791 
L 570.298701 253.322791 
L 571.640693 252.150698 
L 602.506494 252.150698 
L 603.848485 250.978605 
L 610.558442 250.978605 
L 611.900433 249.806512 
L 622.636364 249.806512 
L 622.636364 249.806512 
" clip-path="url(#pb25e5e73ac)" style="fill: none; stroke: #1f77b4; stroke-width: 1.5; stroke-linecap: square"/>
   </g>
   <g id="line2d_38">
    <path d="M 115.363636 325.992558 
L 124.757576 325.992558 
L 126.099567 324.820465 
L 130.125541 324.820465 
L 131.467532 323.648372 
L 136.835498 323.648372 
L 138.177489 322.476279 
L 142.203463 322.476279 
L 143.545455 321.304186 
L 144.887446 321.304186 
L 146.229437 320.132093 
L 150.255411 320.132093 
L 151.597403 318.96 
L 154.281385 318.96 
L 155.623377 317.787907 
L 156.965368 317.787907 
L 159.649351 315.443721 
L 167.701299 315.443721 
L 169.04329 314.271628 
L 170.385281 314.271628 
L 171.727273 313.099535 
L 173.069264 313.099535 
L 174.411255 310.755349 
L 175.753247 307.23907 
L 177.095238 306.066977 
L 182.463203 306.066977 
L 186.489177 302.550698 
L 190.515152 302.550698 
L 193.199134 300.206512 
L 207.961039 300.206512 
L 209.30303 296.690233 
L 210.645022 296.690233 
L 213.329004 292.00186 
L 216.012987 289.657674 
L 217.354978 289.657674 
L 218.69697 287.313488 
L 229.4329 287.313488 
L 230.774892 284.969302 
L 234.800866 284.969302 
L 236.142857 283.797209 
L 245.536797 283.797209 
L 246.878788 282.625116 
L 262.982684 282.625116 
L 264.324675 281.453023 
L 265.666667 281.453023 
L 267.008658 280.28093 
L 271.034632 280.28093 
L 272.376623 279.108837 
L 288.480519 279.108837 
L 289.822511 277.936744 
L 292.506494 277.936744 
L 295.190476 273.248372 
L 297.874459 273.248372 
L 300.558442 270.904186 
L 303.242424 270.904186 
L 304.584416 269.732093 
L 308.61039 269.732093 
L 309.952381 268.56 
L 326.056277 268.56 
L 327.398268 267.387907 
L 347.528139 267.387907 
L 348.87013 266.215814 
L 360.948052 266.215814 
L 362.290043 265.043721 
L 364.974026 265.043721 
L 366.316017 263.871628 
L 370.341991 263.871628 
L 373.025974 261.527442 
L 374.367965 261.527442 
L 375.709957 260.355349 
L 381.077922 260.355349 
L 383.761905 258.011163 
L 390.471861 258.011163 
L 391.813853 256.83907 
L 395.839827 256.83907 
L 397.181818 255.666977 
L 403.891775 255.666977 
L 405.233766 254.494884 
L 411.943723 254.494884 
L 413.285714 253.322791 
L 437.441558 253.322791 
L 438.78355 252.150698 
L 440.125541 252.150698 
L 441.467532 250.978605 
L 454.887446 250.978605 
L 456.229437 248.634419 
L 457.571429 248.634419 
L 458.91342 247.462326 
L 472.333333 247.462326 
L 473.675325 246.290233 
L 479.04329 246.290233 
L 480.385281 245.11814 
L 481.727273 245.11814 
L 483.069264 243.946047 
L 495.147186 243.946047 
L 496.489177 242.773953 
L 523.329004 242.773953 
L 524.670996 239.257674 
L 534.064935 239.257674 
L 535.406926 238.085581 
L 538.090909 238.085581 
L 539.4329 236.913488 
L 555.536797 236.913488 
L 556.878788 235.741395 
L 575.666667 235.741395 
L 577.008658 234.569302 
L 581.034632 234.569302 
L 582.376623 233.397209 
L 593.112554 233.397209 
L 594.454545 231.053023 
L 615.926407 231.053023 
L 617.268398 229.88093 
L 622.636364 229.88093 
L 622.636364 229.88093 
" clip-path="url(#pb25e5e73ac)" style="fill: none; stroke: #ff7f0e; stroke-width: 1.5; stroke-linecap: square"/>
   </g>
   <g id="patch_3">
    <path d="M 90 384.48 
L 90 51.84 
" style="fill: none; stroke: #000000; stroke-width: 0.8; stroke-linejoin: miter; stroke-linecap: square"/>
   </g>
   <g id="patch_4">
    <path d="M 648 384.48 
L 648 51.84 
" style="fill: none; stroke: #000000; stroke-width: 0.8; stroke-linejoin: miter; stroke-linecap: square"/>
   </g>
   <g id="patch_5">
    <path d="M 90 384.48 
L 648 384.48 
" style="fill: none; stroke: #000000; stroke-width: 0.8; stroke-linejoin: miter; stroke-linecap: square"/>
   </g>
   <g id="patch_6">
    <path d="M 90 51.84 
L 648 51.84 
" style="fill: none; stroke: #000000; stroke-width: 0.8; stroke-linejoin: miter; stroke-linecap: square"/>
   </g>
   <g id="text_16">
    <!-- Time Series of Votes for Each Keyword -->
    <g transform="translate(253.716563 45.84) scale(0.12 -0.12)">
     <defs>
      <path id="DejaVuSans-53" d="M 3425 4513 
L 3425 3897 
Q 3066 4069 2747 4153 
Q 2428 4238 2131 4238 
Q 1616 4238 1336 4038 
Q 1056 3838 1056 3469 
Q 1056 3159 1242 3001 
Q 1428 2844 1947 2747 
L 2328 2669 
Q 3034 2534 3370 2195 
Q 3706 1856 3706 1288 
Q 3706 609 3251 259 
Q 2797 -91 1919 -91 
Q 1588 -91 1214 -16 
Q 841 59 441 206 
L 441 856 
Q 825 641 1194 531 
Q 1563 422 1919 422 
Q 2459 422 2753 634 
Q 3047 847 3047 1241 
Q 3047 1584 2836 1778 
Q 2625 1972 2144 2069 
L 1759 2144 
Q 1053 2284 737 2584 
Q 422 2884 422 3419 
Q 422 4038 858 4394 
Q 1294 4750 2059 4750 
Q 2388 4750 2728 4690 
Q 3069 4631 3425 4513 
z
" transform="scale(0.015625)"/>
      <path id="DejaVuSans-72" d="M 2631 2963 
Q 2534 3019 2420 3045 
Q 2306 3072 2169 3072 
Q 1681 3072 1420 2755 
Q 1159 2438 1159 1844 
L 1159 0 
L 581 0 
L 581 3500 
L 1159 3500 
L 1159 2956 
Q 1341 3275 1631 3429 
Q 1922 3584 2338 3584 
Q 2397 3584 2469 3576 
Q 2541 3569 2628 3553 
L 2631 2963 
z
" transform="scale(0.015625)"/>
      <path id="DejaVuSans-66" d="M 2375 4863 
L 2375 4384 
L 1825 4384 
Q 1516 4384 1395 4259 
Q 1275 4134 1275 3809 
L 1275 3500 
L 2222 3500 
L 2222 3053 
L 1275 3053 
L 1275 0 
L 697 0 
L 697 3053 
L 147 3053 
L 147 3500 
L 697 3500 
L 697 3744 
Q 697 4328 969 4595 
Q 1241 4863 1831 4863 
L 2375 4863 
z
" transform="scale(0.015625)"/>
      <path id="DejaVuSans-45" d="M 628 4666 
L 3578 4666 
L 3578 4134 
L 1259 4134 
L 1259 2753 
L 3481 2753 
L 3481 2222 
L 1259 2222 
L 1259 531 
L 3634 531 
L 3634 0 
L 628 0 
L 628 4666 
z
" transform="scale(0.015625)"/>
      <path id="DejaVuSans-63" d="M 3122 3366 
L 3122 2828 
Q 2878 2963 2633 3030 
Q 2388 3097 2138 3097 
Q 1578 3097 1268 2742 
Q 959 2388 959 1747 
Q 959 1106 1268 751 
Q 1578 397 2138 397 
Q 2388 397 2633 464 
Q 2878 531 3122 666 
L 3122 134 
Q 2881 22 2623 -34 
Q 2366 -91 2075 -91 
Q 1284 -91 818 406 
Q 353 903 353 1747 
Q 353 2603 823 3093 
Q 1294 3584 2113 3584 
Q 2378 3584 2631 3529 
Q 2884 3475 3122 3366 
z
" transform="scale(0.015625)"/>
      <path id="DejaVuSans-68" d="M 3513 2113 
L 3513 0 
L 2938 0 
L 2938 2094 
Q 2938 2591 2744 2837 
Q 2550 3084 2163 3084 
Q 1697 3084 1428 2787 
Q 1159 2491 1159 1978 
L 1159 0 
L 581 0 
L 581 4863 
L 1159 4863 
L 1159 2956 
Q 1366 3272 1645 3428 
Q 1925 3584 2291 3584 
Q 2894 3584 3203 3211 
Q 3513 2838 3513 2113 
z
" transform="scale(0.015625)"/>
      <path id="DejaVuSans-4b" d="M 628 4666 
L 1259 4666 
L 1259 2694 
L 3353 4666 
L 4166 4666 
L 1850 2491 
L 4331 0 
L 3500 0 
L 1259 2247 
L 1259 0 
L 628 0 
L 628 4666 
z
" transform="scale(0.015625)"/>
      <path id="DejaVuSans-79" d="M 2059 -325 
Q 1816 -950 1584 -1140 
Q 1353 -1331 966 -1331 
L 506 -1331 
L 506 -850 
L 844 -850 
Q 1081 -850 1212 -737 
Q 1344 -625 1503 -206 
L 1606 56 
L 191 3500 
L 800 3500 
L 1894 763 
L 2988 3500 
L 3597 3500 
L 2059 -325 
z
" transform="scale(0.015625)"/>
      <path id="DejaVuSans-77" d="M 269 3500 
L 844 3500 
L 1563 769 
L 2278 3500 
L 2956 3500 
L 3675 769 
L 4391 3500 
L 4966 3500 
L 4050 0 
L 3372 0 
L 2619 2869 
L 1863 0 
L 1184 0 
L 269 3500 
z
" transform="scale(0.015625)"/>
     </defs>
     <use xlink:href="#DejaVuSans-54"/>
     <use xlink:href="#DejaVuSans-69" transform="translate(57.958984 0)"/>
     <use xlink:href="#DejaVuSans-6d" transform="translate(85.742188 0)"/>
     <use xlink:href="#DejaVuSans-65" transform="translate(183.154297 0)"/>
     <use xlink:href="#DejaVuSans-20" transform="translate(244.677734 0)"/>
     <use xlink:href="#DejaVuSans-53" transform="translate(276.464844 0)"/>
     <use xlink:href="#DejaVuSans-65" transform="translate(339.941406 0)"/>
     <use xlink:href="#DejaVuSans-72" transform="translate(401.464844 0)"/>
     <use xlink:href="#DejaVuSans-69" transform="translate(442.578125 0)"/>
     <use xlink:href="#DejaVuSans-65" transform="translate(470.361328 0)"/>
     <use xlink:href="#DejaVuSans-73" transform="translate(531.884766 0)"/>
     <use xlink:href="#DejaVuSans-20" transform="translate(583.984375 0)"/>
     <use xlink:href="#DejaVuSans-6f" transform="translate(615.771484 0)"/>
     <use xlink:href="#DejaVuSans-66" transform="translate(676.953125 0)"/>
     <use xlink:href="#DejaVuSans-20" transform="translate(712.158203 0)"/>
     <use xlink:href="#DejaVuSans-56" transform="translate(743.945312 0)"/>
     <use xlink:href="#DejaVuSans-6f" transform="translate(804.603516 0)"/>
     <use xlink:href="#DejaVuSans-74" transform="translate(865.785156 0)"/>
     <use xlink:href="#DejaVuSans-65" transform="translate(904.994141 0)"/>
     <use xlink:href="#DejaVuSans-73" transform="translate(966.517578 0)"/>
     <use xlink:href="#DejaVuSans-20" transform="translate(1018.617188 0)"/>
     <use xlink:href="#DejaVuSans-66" transform="translate(1050.404297 0)"/>
     <use xlink:href="#DejaVuSans-6f" transform="translate(1085.609375 0)"/>
     <use xlink:href="#DejaVuSans-72" transform="translate(1146.791016 0)"/>
     <use xlink:href="#DejaVuSans-20" transform="translate(1187.904297 0)"/>
     <use xlink:href="#DejaVuSans-45" transform="translate(1219.691406 0)"/>
     <use xlink:href="#DejaVuSans-61" transform="translate(1282.875 0)"/>
     <use xlink:href="#DejaVuSans-63" transform="translate(1344.154297 0)"/>
     <use xlink:href="#DejaVuSans-68" transform="translate(1399.134766 0)"/>
     <use xlink:href="#DejaVuSans-20" transform="translate(1462.513672 0)"/>
     <use xlink:href="#DejaVuSans-4b" transform="translate(1494.300781 0)"/>
     <use xlink:href="#DejaVuSans-65" transform="translate(1554.876953 0)"/>
     <use xlink:href="#DejaVuSans-79" transform="translate(1616.400391 0)"/>
     <use xlink:href="#DejaVuSans-77" transform="translate(1675.580078 0)"/>
     <use xlink:href="#DejaVuSans-6f" transform="translate(1757.367188 0)"/>
     <use xlink:href="#DejaVuSans-72" transform="translate(1818.548828 0)"/>
     <use xlink:href="#DejaVuSans-64" transform="translate(1857.912109 0)"/>
    </g>
   </g>
   <g id="legend_1">
    <g id="patch_7">
     <path d="M 97 235.9775 
L 149.245313 235.9775 
Q 151.245313 235.9775 151.245313 233.9775 
L 151.245313 58.84 
Q 151.245313 56.84 149.245313 56.84 
L 97 56.84 
Q 95 56.84 95 58.84 
L 95 233.9775 
Q 95 235.9775 97 235.9775 
z
" style="fill: #ffffff; opacity: 0.8; stroke: #cccccc; stroke-linejoin: miter"/>
    </g>
    <g id="line2d_39">
     <path d="M 99 64.938437 
L 109 64.938437 
L 119 64.938437 
" style="fill: none; stroke: #1f77b4; stroke-width: 1.5; stroke-linecap: square"/>
    </g>
    <g id="text_17">
     <!-- H01 -->
     <g transform="translate(127 68.438437) scale(0.1 -0.1)">
      <defs>
       <path id="DejaVuSans-48" d="M 628 4666 
L 1259 4666 
L 1259 2753 
L 3553 2753 
L 3553 4666 
L 4184 4666 
L 4184 0 
L 3553 0 
L 3553 2222 
L 1259 2222 
L 1259 0 
L 628 0 
L 628 4666 
z
" transform="scale(0.015625)"/>
      </defs>
      <use xlink:href="#DejaVuSans-48"/>
      <use xlink:href="#DejaVuSans-30" transform="translate(75.195312 0)"/>
      <use xlink:href="#DejaVuSans-31" transform="translate(138.818359 0)"/>
     </g>
    </g>
    <g id="line2d_40">
     <path d="M 99 79.616562 
L 109 79.616562 
L 119 79.616562 
" style="fill: none; stroke: #ff7f0e; stroke-width: 1.5; stroke-linecap: square"/>
    </g>
    <g id="text_18">
     <!-- H02 -->
     <g transform="translate(127 83.116562) scale(0.1 -0.1)">
      <use xlink:href="#DejaVuSans-48"/>
      <use xlink:href="#DejaVuSans-30" transform="translate(75.195312 0)"/>
      <use xlink:href="#DejaVuSans-32" transform="translate(138.818359 0)"/>
     </g>
    </g>
    <g id="line2d_41">
     <path d="M 99 94.294688 
L 109 94.294688 
L 119 94.294688 
" style="fill: none; stroke: #2ca02c; stroke-width: 1.5; stroke-linecap: square"/>
    </g>
    <g id="text_19">
     <!-- H03 -->
     <g transform="translate(127 97.794688) scale(0.1 -0.1)">
      <defs>
       <path id="DejaVuSans-33" d="M 2597 2516 
Q 3050 2419 3304 2112 
Q 3559 1806 3559 1356 
Q 3559 666 3084 287 
Q 2609 -91 1734 -91 
Q 1441 -91 1130 -33 
Q 819 25 488 141 
L 488 750 
Q 750 597 1062 519 
Q 1375 441 1716 441 
Q 2309 441 2620 675 
Q 2931 909 2931 1356 
Q 2931 1769 2642 2001 
Q 2353 2234 1838 2234 
L 1294 2234 
L 1294 2753 
L 1863 2753 
Q 2328 2753 2575 2939 
Q 2822 3125 2822 3475 
Q 2822 3834 2567 4026 
Q 2313 4219 1838 4219 
Q 1578 4219 1281 4162 
Q 984 4106 628 3988 
L 628 4550 
Q 988 4650 1302 4700 
Q 1616 4750 1894 4750 
Q 2613 4750 3031 4423 
Q 3450 4097 3450 3541 
Q 3450 3153 3228 2886 
Q 3006 2619 2597 2516 
z
" transform="scale(0.015625)"/>
      </defs>
      <use xlink:href="#DejaVuSans-48"/>
      <use xlink:href="#DejaVuSans-30" transform="translate(75.195312 0)"/>
      <use xlink:href="#DejaVuSans-33" transform="translate(138.818359 0)"/>
     </g>
    </g>
    <g id="line2d_42">
     <path d="M 99 108.972812 
L 109 108.972812 
L 119 108.972812 
" style="fill: none; stroke: #d62728; stroke-width: 1.5; stroke-linecap: square"/>
    </g>
    <g id="text_20">
     <!-- H04 -->
     <g transform="translate(127 112.472812) scale(0.1 -0.1)">
      <use xlink:href="#DejaVuSans-48"/>
      <use xlink:href="#DejaVuSans-30" transform="translate(75.195312 0)"/>
      <use xlink:href="#DejaVuSans-34" transform="translate(138.818359 0)"/>
     </g>
    </g>
    <g id="line2d_43">
     <path d="M 99 123.650937 
L 109 123.650937 
L 119 123.650937 
" style="fill: none; stroke: #9467bd; stroke-width: 1.5; stroke-linecap: square"/>
    </g>
    <g id="text_21">
     <!-- H05 -->
     <g transform="translate(127 127.150937) scale(0.1 -0.1)">
      <use xlink:href="#DejaVuSans-48"/>
      <use xlink:href="#DejaVuSans-30" transform="translate(75.195312 0)"/>
      <use xlink:href="#DejaVuSans-35" transform="translate(138.818359 0)"/>
     </g>
    </g>
    <g id="line2d_44">
     <path d="M 99 138.329062 
L 109 138.329062 
L 119 138.329062 
" style="fill: none; stroke: #8c564b; stroke-width: 1.5; stroke-linecap: square"/>
    </g>
    <g id="text_22">
     <!-- H06 -->
     <g transform="translate(127 141.829062) scale(0.1 -0.1)">
      <use xlink:href="#DejaVuSans-48"/>
      <use xlink:href="#DejaVuSans-30" transform="translate(75.195312 0)"/>
      <use xlink:href="#DejaVuSans-36" transform="translate(138.818359 0)"/>
     </g>
    </g>
    <g id="line2d_45">
     <path d="M 99 153.007187 
L 109 153.007187 
L 119 153.007187 
" style="fill: none; stroke: #e377c2; stroke-width: 1.5; stroke-linecap: square"/>
    </g>
    <g id="text_23">
     <!-- H07 -->
     <g transform="translate(127 156.507187) scale(0.1 -0.1)">
      <use xlink:href="#DejaVuSans-48"/>
      <use xlink:href="#DejaVuSans-30" transform="translate(75.195312 0)"/>
      <use xlink:href="#DejaVuSans-37" transform="translate(138.818359 0)"/>
     </g>
    </g>
    <g id="line2d_46">
     <path d="M 99 167.685312 
L 109 167.685312 
L 119 167.685312 
" style="fill: none; stroke: #7f7f7f; stroke-width: 1.5; stroke-linecap: square"/>
    </g>
    <g id="text_24">
     <!-- H08 -->
     <g transform="translate(127 171.185312) scale(0.1 -0.1)">
      <use xlink:href="#DejaVuSans-48"/>
      <use xlink:href="#DejaVuSans-30" transform="translate(75.195312 0)"/>
      <use xlink:href="#DejaVuSans-38" transform="translate(138.818359 0)"/>
     </g>
    </g>
    <g id="line2d_47">
     <path d="M 99 182.363437 
L 109 182.363437 
L 119 182.363437 
" style="fill: none; stroke: #bcbd22; stroke-width: 1.5; stroke-linecap: square"/>
    </g>
    <g id="text_25">
     <!-- H09 -->
     <g transform="translate(127 185.863437) scale(0.1 -0.1)">
      <use xlink:href="#DejaVuSans-48"/>
      <use xlink:href="#DejaVuSans-30" transform="translate(75.195312 0)"/>
      <use xlink:href="#DejaVuSans-39" transform="translate(138.818359 0)"/>
     </g>
    </g>
    <g id="line2d_48">
     <path d="M 99 197.041562 
L 109 197.041562 
L 119 197.041562 
" style="fill: none; stroke: #17becf; stroke-width: 1.5; stroke-linecap: square"/>
    </g>
    <g id="text_26">
     <!-- H10 -->
     <g transform="translate(127 200.541562) scale(0.1 -0.1)">
      <use xlink:href="#DejaVuSans-48"/>
      <use xlink:href="#DejaVuSans-31" transform="translate(75.195312 0)"/>
      <use xlink:href="#DejaVuSans-30" transform="translate(138.818359 0)"/>
     </g>
    </g>
    <g id="line2d_49">
     <path d="M 99 211.719687 
L 109 211.719687 
L 119 211.719687 
" style="fill: none; stroke: #1f77b4; stroke-width: 1.5; stroke-linecap: square"/>
    </g>
    <g id="text_27">
     <!-- H11 -->
     <g transform="translate(127 215.219687) scale(0.1 -0.1)">
      <use xlink:href="#DejaVuSans-48"/>
      <use xlink:href="#DejaVuSans-31" transform="translate(75.195312 0)"/>
      <use xlink:href="#DejaVuSans-31" transform="translate(138.818359 0)"/>
     </g>
    </g>
    <g id="line2d_50">
     <path d="M 99 226.397812 
L 109 226.397812 
L 119 226.397812 
" style="fill: none; stroke: #ff7f0e; stroke-width: 1.5; stroke-linecap: square"/>
    </g>
    <g id="text_28">
     <!-- H12 -->
     <g transform="translate(127 229.897812) scale(0.1 -0.1)">
      <use xlink:href="#DejaVuSans-48"/>
      <use xlink:href="#DejaVuSans-31" transform="translate(75.195312 0)"/>
      <use xlink:href="#DejaVuSans-32" transform="translate(138.818359 0)"/>
     </g>
    </g>
   </g>
  </g>
 </g>
 <defs>
  <clipPath id="pb25e5e73ac">
   <rect x="90" y="51.84" width="558" height="332.64"/>
  </clipPath>
 </defs>
</svg>
