<?xml version="1.0" encoding="utf-8" standalone="no"?>
<!DOCTYPE svg PUBLIC "-//W3C//DTD SVG 1.1//EN"
  "http://www.w3.org/Graphics/SVG/1.1/DTD/svg11.dtd">
<svg xmlns:xlink="http://www.w3.org/1999/xlink" width="720pt" height="432pt" viewBox="0 0 720 432" xmlns="http://www.w3.org/2000/svg" version="1.1">
 <metadata>
  <rdf:RDF xmlns:dc="http://purl.org/dc/elements/1.1/" xmlns:cc="http://creativecommons.org/ns#" xmlns:rdf="http://www.w3.org/1999/02/22-rdf-syntax-ns#">
   <cc:Work>
    <dc:type rdf:resource="http://purl.org/dc/dcmitype/StillImage"/>
    <dc:date>2025-01-14T22:10:15.228646</dc:date>
    <dc:format>image/svg+xml</dc:format>
    <dc:creator>
     <cc:Agent>
      <dc:title>Matplotlib v3.10.0, https://matplotlib.org/</dc:title>
     </cc:Agent>
    </dc:creator>
   </cc:Work>
  </rdf:RDF>
 </metadata>
 <defs>
  <style type="text/css">*{stroke-linejoin: round; stroke-linecap: butt}</style>
 </defs>
 <g id="figure_1">
  <g id="patch_1">
   <path d="M 0 432 
L 720 432 
L 720 0 
L 0 0 
z
" style="fill: #ffffff"/>
  </g>
  <g id="axes_1">
   <g id="patch_2">
    <path d="M 90 384.48 
L 648 384.48 
L 648 51.84 
L 90 51.84 
z
" style="fill: #ffffff"/>
   </g>
   <g id="matplotlib.axis_1">
    <g id="xtick_1">
     <g id="line2d_1">
      <path d="M 141.906977 384.48 
L 141.906977 51.84 
" clip-path="url(#pf5d5ebc00a)" style="fill: none; stroke: #b0b0b0; stroke-width: 0.8; stroke-linecap: square"/>
     </g>
     <g id="line2d_2">
      <defs>
       <path id="m9ded584fe2" d="M 0 0 
L 0 3.5 
" style="stroke: #000000; stroke-width: 0.8"/>
      </defs>
      <g>
       <use xlink:href="#m9ded584fe2" x="141.906977" y="384.48" style="stroke: #000000; stroke-width: 0.8"/>
      </g>
     </g>
     <g id="text_1">
      <!-- 01-14 14 -->
      <g transform="translate(119.426508 399.078438) scale(0.1 -0.1)">
       <defs>
        <path id="DejaVuSans-30" d="M 2034 4250 
Q 1547 4250 1301 3770 
Q 1056 3291 1056 2328 
Q 1056 1369 1301 889 
Q 1547 409 2034 409 
Q 2525 409 2770 889 
Q 3016 1369 3016 2328 
Q 3016 3291 2770 3770 
Q 2525 4250 2034 4250 
z
M 2034 4750 
Q 2819 4750 3233 4129 
Q 3647 3509 3647 2328 
Q 3647 1150 3233 529 
Q 2819 -91 2034 -91 
Q 1250 -91 836 529 
Q 422 1150 422 2328 
Q 422 3509 836 4129 
Q 1250 4750 2034 4750 
z
" transform="scale(0.015625)"/>
        <path id="DejaVuSans-31" d="M 794 531 
L 1825 531 
L 1825 4091 
L 703 3866 
L 703 4441 
L 1819 4666 
L 2450 4666 
L 2450 531 
L 3481 531 
L 3481 0 
L 794 0 
L 794 531 
z
" transform="scale(0.015625)"/>
        <path id="DejaVuSans-2d" d="M 313 2009 
L 1997 2009 
L 1997 1497 
L 313 1497 
L 313 2009 
z
" transform="scale(0.015625)"/>
        <path id="DejaVuSans-34" d="M 2419 4116 
L 825 1625 
L 2419 1625 
L 2419 4116 
z
M 2253 4666 
L 3047 4666 
L 3047 1625 
L 3713 1625 
L 3713 1100 
L 3047 1100 
L 3047 0 
L 2419 0 
L 2419 1100 
L 313 1100 
L 313 1709 
L 2253 4666 
z
" transform="scale(0.015625)"/>
        <path id="DejaVuSans-20" transform="scale(0.015625)"/>
       </defs>
       <use xlink:href="#DejaVuSans-30"/>
       <use xlink:href="#DejaVuSans-31" transform="translate(63.623047 0)"/>
       <use xlink:href="#DejaVuSans-2d" transform="translate(127.246094 0)"/>
       <use xlink:href="#DejaVuSans-31" transform="translate(163.330078 0)"/>
       <use xlink:href="#DejaVuSans-34" transform="translate(226.953125 0)"/>
       <use xlink:href="#DejaVuSans-20" transform="translate(290.576172 0)"/>
       <use xlink:href="#DejaVuSans-31" transform="translate(322.363281 0)"/>
       <use xlink:href="#DejaVuSans-34" transform="translate(385.986328 0)"/>
      </g>
     </g>
    </g>
    <g id="xtick_2">
     <g id="line2d_3">
      <path d="M 200.892178 384.48 
L 200.892178 51.84 
" clip-path="url(#pf5d5ebc00a)" style="fill: none; stroke: #b0b0b0; stroke-width: 0.8; stroke-linecap: square"/>
     </g>
     <g id="line2d_4">
      <g>
       <use xlink:href="#m9ded584fe2" x="200.892178" y="384.48" style="stroke: #000000; stroke-width: 0.8"/>
      </g>
     </g>
     <g id="text_2">
      <!-- 01-14 15 -->
      <g transform="translate(178.411709 399.078438) scale(0.1 -0.1)">
       <defs>
        <path id="DejaVuSans-35" d="M 691 4666 
L 3169 4666 
L 3169 4134 
L 1269 4134 
L 1269 2991 
Q 1406 3038 1543 3061 
Q 1681 3084 1819 3084 
Q 2600 3084 3056 2656 
Q 3513 2228 3513 1497 
Q 3513 744 3044 326 
Q 2575 -91 1722 -91 
Q 1428 -91 1123 -41 
Q 819 9 494 109 
L 494 744 
Q 775 591 1075 516 
Q 1375 441 1709 441 
Q 2250 441 2565 725 
Q 2881 1009 2881 1497 
Q 2881 1984 2565 2268 
Q 2250 2553 1709 2553 
Q 1456 2553 1204 2497 
Q 953 2441 691 2322 
L 691 4666 
z
" transform="scale(0.015625)"/>
       </defs>
       <use xlink:href="#DejaVuSans-30"/>
       <use xlink:href="#DejaVuSans-31" transform="translate(63.623047 0)"/>
       <use xlink:href="#DejaVuSans-2d" transform="translate(127.246094 0)"/>
       <use xlink:href="#DejaVuSans-31" transform="translate(163.330078 0)"/>
       <use xlink:href="#DejaVuSans-34" transform="translate(226.953125 0)"/>
       <use xlink:href="#DejaVuSans-20" transform="translate(290.576172 0)"/>
       <use xlink:href="#DejaVuSans-31" transform="translate(322.363281 0)"/>
       <use xlink:href="#DejaVuSans-35" transform="translate(385.986328 0)"/>
      </g>
     </g>
    </g>
    <g id="xtick_3">
     <g id="line2d_5">
      <path d="M 259.877378 384.48 
L 259.877378 51.84 
" clip-path="url(#pf5d5ebc00a)" style="fill: none; stroke: #b0b0b0; stroke-width: 0.8; stroke-linecap: square"/>
     </g>
     <g id="line2d_6">
      <g>
       <use xlink:href="#m9ded584fe2" x="259.877378" y="384.48" style="stroke: #000000; stroke-width: 0.8"/>
      </g>
     </g>
     <g id="text_3">
      <!-- 01-14 16 -->
      <g transform="translate(237.39691 399.078438) scale(0.1 -0.1)">
       <defs>
        <path id="DejaVuSans-36" d="M 2113 2584 
Q 1688 2584 1439 2293 
Q 1191 2003 1191 1497 
Q 1191 994 1439 701 
Q 1688 409 2113 409 
Q 2538 409 2786 701 
Q 3034 994 3034 1497 
Q 3034 2003 2786 2293 
Q 2538 2584 2113 2584 
z
M 3366 4563 
L 3366 3988 
Q 3128 4100 2886 4159 
Q 2644 4219 2406 4219 
Q 1781 4219 1451 3797 
Q 1122 3375 1075 2522 
Q 1259 2794 1537 2939 
Q 1816 3084 2150 3084 
Q 2853 3084 3261 2657 
Q 3669 2231 3669 1497 
Q 3669 778 3244 343 
Q 2819 -91 2113 -91 
Q 1303 -91 875 529 
Q 447 1150 447 2328 
Q 447 3434 972 4092 
Q 1497 4750 2381 4750 
Q 2619 4750 2861 4703 
Q 3103 4656 3366 4563 
z
" transform="scale(0.015625)"/>
       </defs>
       <use xlink:href="#DejaVuSans-30"/>
       <use xlink:href="#DejaVuSans-31" transform="translate(63.623047 0)"/>
       <use xlink:href="#DejaVuSans-2d" transform="translate(127.246094 0)"/>
       <use xlink:href="#DejaVuSans-31" transform="translate(163.330078 0)"/>
       <use xlink:href="#DejaVuSans-34" transform="translate(226.953125 0)"/>
       <use xlink:href="#DejaVuSans-20" transform="translate(290.576172 0)"/>
       <use xlink:href="#DejaVuSans-31" transform="translate(322.363281 0)"/>
       <use xlink:href="#DejaVuSans-36" transform="translate(385.986328 0)"/>
      </g>
     </g>
    </g>
    <g id="xtick_4">
     <g id="line2d_7">
      <path d="M 318.862579 384.48 
L 318.862579 51.84 
" clip-path="url(#pf5d5ebc00a)" style="fill: none; stroke: #b0b0b0; stroke-width: 0.8; stroke-linecap: square"/>
     </g>
     <g id="line2d_8">
      <g>
       <use xlink:href="#m9ded584fe2" x="318.862579" y="384.48" style="stroke: #000000; stroke-width: 0.8"/>
      </g>
     </g>
     <g id="text_4">
      <!-- 01-14 17 -->
      <g transform="translate(296.382111 399.078438) scale(0.1 -0.1)">
       <defs>
        <path id="DejaVuSans-37" d="M 525 4666 
L 3525 4666 
L 3525 4397 
L 1831 0 
L 1172 0 
L 2766 4134 
L 525 4134 
L 525 4666 
z
" transform="scale(0.015625)"/>
       </defs>
       <use xlink:href="#DejaVuSans-30"/>
       <use xlink:href="#DejaVuSans-31" transform="translate(63.623047 0)"/>
       <use xlink:href="#DejaVuSans-2d" transform="translate(127.246094 0)"/>
       <use xlink:href="#DejaVuSans-31" transform="translate(163.330078 0)"/>
       <use xlink:href="#DejaVuSans-34" transform="translate(226.953125 0)"/>
       <use xlink:href="#DejaVuSans-20" transform="translate(290.576172 0)"/>
       <use xlink:href="#DejaVuSans-31" transform="translate(322.363281 0)"/>
       <use xlink:href="#DejaVuSans-37" transform="translate(385.986328 0)"/>
      </g>
     </g>
    </g>
    <g id="xtick_5">
     <g id="line2d_9">
      <path d="M 377.84778 384.48 
L 377.84778 51.84 
" clip-path="url(#pf5d5ebc00a)" style="fill: none; stroke: #b0b0b0; stroke-width: 0.8; stroke-linecap: square"/>
     </g>
     <g id="line2d_10">
      <g>
       <use xlink:href="#m9ded584fe2" x="377.84778" y="384.48" style="stroke: #000000; stroke-width: 0.8"/>
      </g>
     </g>
     <g id="text_5">
      <!-- 01-14 18 -->
      <g transform="translate(355.367311 399.078438) scale(0.1 -0.1)">
       <defs>
        <path id="DejaVuSans-38" d="M 2034 2216 
Q 1584 2216 1326 1975 
Q 1069 1734 1069 1313 
Q 1069 891 1326 650 
Q 1584 409 2034 409 
Q 2484 409 2743 651 
Q 3003 894 3003 1313 
Q 3003 1734 2745 1975 
Q 2488 2216 2034 2216 
z
M 1403 2484 
Q 997 2584 770 2862 
Q 544 3141 544 3541 
Q 544 4100 942 4425 
Q 1341 4750 2034 4750 
Q 2731 4750 3128 4425 
Q 3525 4100 3525 3541 
Q 3525 3141 3298 2862 
Q 3072 2584 2669 2484 
Q 3125 2378 3379 2068 
Q 3634 1759 3634 1313 
Q 3634 634 3220 271 
Q 2806 -91 2034 -91 
Q 1263 -91 848 271 
Q 434 634 434 1313 
Q 434 1759 690 2068 
Q 947 2378 1403 2484 
z
M 1172 3481 
Q 1172 3119 1398 2916 
Q 1625 2713 2034 2713 
Q 2441 2713 2670 2916 
Q 2900 3119 2900 3481 
Q 2900 3844 2670 4047 
Q 2441 4250 2034 4250 
Q 1625 4250 1398 4047 
Q 1172 3844 1172 3481 
z
" transform="scale(0.015625)"/>
       </defs>
       <use xlink:href="#DejaVuSans-30"/>
       <use xlink:href="#DejaVuSans-31" transform="translate(63.623047 0)"/>
       <use xlink:href="#DejaVuSans-2d" transform="translate(127.246094 0)"/>
       <use xlink:href="#DejaVuSans-31" transform="translate(163.330078 0)"/>
       <use xlink:href="#DejaVuSans-34" transform="translate(226.953125 0)"/>
       <use xlink:href="#DejaVuSans-20" transform="translate(290.576172 0)"/>
       <use xlink:href="#DejaVuSans-31" transform="translate(322.363281 0)"/>
       <use xlink:href="#DejaVuSans-38" transform="translate(385.986328 0)"/>
      </g>
     </g>
    </g>
    <g id="xtick_6">
     <g id="line2d_11">
      <path d="M 436.832981 384.48 
L 436.832981 51.84 
" clip-path="url(#pf5d5ebc00a)" style="fill: none; stroke: #b0b0b0; stroke-width: 0.8; stroke-linecap: square"/>
     </g>
     <g id="line2d_12">
      <g>
       <use xlink:href="#m9ded584fe2" x="436.832981" y="384.48" style="stroke: #000000; stroke-width: 0.8"/>
      </g>
     </g>
     <g id="text_6">
      <!-- 01-14 19 -->
      <g transform="translate(414.352512 399.078438) scale(0.1 -0.1)">
       <defs>
        <path id="DejaVuSans-39" d="M 703 97 
L 703 672 
Q 941 559 1184 500 
Q 1428 441 1663 441 
Q 2288 441 2617 861 
Q 2947 1281 2994 2138 
Q 2813 1869 2534 1725 
Q 2256 1581 1919 1581 
Q 1219 1581 811 2004 
Q 403 2428 403 3163 
Q 403 3881 828 4315 
Q 1253 4750 1959 4750 
Q 2769 4750 3195 4129 
Q 3622 3509 3622 2328 
Q 3622 1225 3098 567 
Q 2575 -91 1691 -91 
Q 1453 -91 1209 -44 
Q 966 3 703 97 
z
M 1959 2075 
Q 2384 2075 2632 2365 
Q 2881 2656 2881 3163 
Q 2881 3666 2632 3958 
Q 2384 4250 1959 4250 
Q 1534 4250 1286 3958 
Q 1038 3666 1038 3163 
Q 1038 2656 1286 2365 
Q 1534 2075 1959 2075 
z
" transform="scale(0.015625)"/>
       </defs>
       <use xlink:href="#DejaVuSans-30"/>
       <use xlink:href="#DejaVuSans-31" transform="translate(63.623047 0)"/>
       <use xlink:href="#DejaVuSans-2d" transform="translate(127.246094 0)"/>
       <use xlink:href="#DejaVuSans-31" transform="translate(163.330078 0)"/>
       <use xlink:href="#DejaVuSans-34" transform="translate(226.953125 0)"/>
       <use xlink:href="#DejaVuSans-20" transform="translate(290.576172 0)"/>
       <use xlink:href="#DejaVuSans-31" transform="translate(322.363281 0)"/>
       <use xlink:href="#DejaVuSans-39" transform="translate(385.986328 0)"/>
      </g>
     </g>
    </g>
    <g id="xtick_7">
     <g id="line2d_13">
      <path d="M 495.818182 384.48 
L 495.818182 51.84 
" clip-path="url(#pf5d5ebc00a)" style="fill: none; stroke: #b0b0b0; stroke-width: 0.8; stroke-linecap: square"/>
     </g>
     <g id="line2d_14">
      <g>
       <use xlink:href="#m9ded584fe2" x="495.818182" y="384.48" style="stroke: #000000; stroke-width: 0.8"/>
      </g>
     </g>
     <g id="text_7">
      <!-- 01-14 20 -->
      <g transform="translate(473.337713 399.078438) scale(0.1 -0.1)">
       <defs>
        <path id="DejaVuSans-32" d="M 1228 531 
L 3431 531 
L 3431 0 
L 469 0 
L 469 531 
Q 828 903 1448 1529 
Q 2069 2156 2228 2338 
Q 2531 2678 2651 2914 
Q 2772 3150 2772 3378 
Q 2772 3750 2511 3984 
Q 2250 4219 1831 4219 
Q 1534 4219 1204 4116 
Q 875 4013 500 3803 
L 500 4441 
Q 881 4594 1212 4672 
Q 1544 4750 1819 4750 
Q 2544 4750 2975 4387 
Q 3406 4025 3406 3419 
Q 3406 3131 3298 2873 
Q 3191 2616 2906 2266 
Q 2828 2175 2409 1742 
Q 1991 1309 1228 531 
z
" transform="scale(0.015625)"/>
       </defs>
       <use xlink:href="#DejaVuSans-30"/>
       <use xlink:href="#DejaVuSans-31" transform="translate(63.623047 0)"/>
       <use xlink:href="#DejaVuSans-2d" transform="translate(127.246094 0)"/>
       <use xlink:href="#DejaVuSans-31" transform="translate(163.330078 0)"/>
       <use xlink:href="#DejaVuSans-34" transform="translate(226.953125 0)"/>
       <use xlink:href="#DejaVuSans-20" transform="translate(290.576172 0)"/>
       <use xlink:href="#DejaVuSans-32" transform="translate(322.363281 0)"/>
       <use xlink:href="#DejaVuSans-30" transform="translate(385.986328 0)"/>
      </g>
     </g>
    </g>
    <g id="xtick_8">
     <g id="line2d_15">
      <path d="M 554.803383 384.48 
L 554.803383 51.84 
" clip-path="url(#pf5d5ebc00a)" style="fill: none; stroke: #b0b0b0; stroke-width: 0.8; stroke-linecap: square"/>
     </g>
     <g id="line2d_16">
      <g>
       <use xlink:href="#m9ded584fe2" x="554.803383" y="384.48" style="stroke: #000000; stroke-width: 0.8"/>
      </g>
     </g>
     <g id="text_8">
      <!-- 01-14 21 -->
      <g transform="translate(532.322914 399.078438) scale(0.1 -0.1)">
       <use xlink:href="#DejaVuSans-30"/>
       <use xlink:href="#DejaVuSans-31" transform="translate(63.623047 0)"/>
       <use xlink:href="#DejaVuSans-2d" transform="translate(127.246094 0)"/>
       <use xlink:href="#DejaVuSans-31" transform="translate(163.330078 0)"/>
       <use xlink:href="#DejaVuSans-34" transform="translate(226.953125 0)"/>
       <use xlink:href="#DejaVuSans-20" transform="translate(290.576172 0)"/>
       <use xlink:href="#DejaVuSans-32" transform="translate(322.363281 0)"/>
       <use xlink:href="#DejaVuSans-31" transform="translate(385.986328 0)"/>
      </g>
     </g>
    </g>
    <g id="xtick_9">
     <g id="line2d_17">
      <path d="M 613.788584 384.48 
L 613.788584 51.84 
" clip-path="url(#pf5d5ebc00a)" style="fill: none; stroke: #b0b0b0; stroke-width: 0.8; stroke-linecap: square"/>
     </g>
     <g id="line2d_18">
      <g>
       <use xlink:href="#m9ded584fe2" x="613.788584" y="384.48" style="stroke: #000000; stroke-width: 0.8"/>
      </g>
     </g>
     <g id="text_9">
      <!-- 01-14 22 -->
      <g transform="translate(591.308115 399.078438) scale(0.1 -0.1)">
       <use xlink:href="#DejaVuSans-30"/>
       <use xlink:href="#DejaVuSans-31" transform="translate(63.623047 0)"/>
       <use xlink:href="#DejaVuSans-2d" transform="translate(127.246094 0)"/>
       <use xlink:href="#DejaVuSans-31" transform="translate(163.330078 0)"/>
       <use xlink:href="#DejaVuSans-34" transform="translate(226.953125 0)"/>
       <use xlink:href="#DejaVuSans-20" transform="translate(290.576172 0)"/>
       <use xlink:href="#DejaVuSans-32" transform="translate(322.363281 0)"/>
       <use xlink:href="#DejaVuSans-32" transform="translate(385.986328 0)"/>
      </g>
     </g>
    </g>
    <g id="text_10">
     <!-- Date and Time -->
     <g transform="translate(332.230469 412.756563) scale(0.1 -0.1)">
      <defs>
       <path id="DejaVuSans-44" d="M 1259 4147 
L 1259 519 
L 2022 519 
Q 2988 519 3436 956 
Q 3884 1394 3884 2338 
Q 3884 3275 3436 3711 
Q 2988 4147 2022 4147 
L 1259 4147 
z
M 628 4666 
L 1925 4666 
Q 3281 4666 3915 4102 
Q 4550 3538 4550 2338 
Q 4550 1131 3912 565 
Q 3275 0 1925 0 
L 628 0 
L 628 4666 
z
" transform="scale(0.015625)"/>
       <path id="DejaVuSans-61" d="M 2194 1759 
Q 1497 1759 1228 1600 
Q 959 1441 959 1056 
Q 959 750 1161 570 
Q 1363 391 1709 391 
Q 2188 391 2477 730 
Q 2766 1069 2766 1631 
L 2766 1759 
L 2194 1759 
z
M 3341 1997 
L 3341 0 
L 2766 0 
L 2766 531 
Q 2569 213 2275 61 
Q 1981 -91 1556 -91 
Q 1019 -91 701 211 
Q 384 513 384 1019 
Q 384 1609 779 1909 
Q 1175 2209 1959 2209 
L 2766 2209 
L 2766 2266 
Q 2766 2663 2505 2880 
Q 2244 3097 1772 3097 
Q 1472 3097 1187 3025 
Q 903 2953 641 2809 
L 641 3341 
Q 956 3463 1253 3523 
Q 1550 3584 1831 3584 
Q 2591 3584 2966 3190 
Q 3341 2797 3341 1997 
z
" transform="scale(0.015625)"/>
       <path id="DejaVuSans-74" d="M 1172 4494 
L 1172 3500 
L 2356 3500 
L 2356 3053 
L 1172 3053 
L 1172 1153 
Q 1172 725 1289 603 
Q 1406 481 1766 481 
L 2356 481 
L 2356 0 
L 1766 0 
Q 1100 0 847 248 
Q 594 497 594 1153 
L 594 3053 
L 172 3053 
L 172 3500 
L 594 3500 
L 594 4494 
L 1172 4494 
z
" transform="scale(0.015625)"/>
       <path id="DejaVuSans-65" d="M 3597 1894 
L 3597 1613 
L 953 1613 
Q 991 1019 1311 708 
Q 1631 397 2203 397 
Q 2534 397 2845 478 
Q 3156 559 3463 722 
L 3463 178 
Q 3153 47 2828 -22 
Q 2503 -91 2169 -91 
Q 1331 -91 842 396 
Q 353 884 353 1716 
Q 353 2575 817 3079 
Q 1281 3584 2069 3584 
Q 2775 3584 3186 3129 
Q 3597 2675 3597 1894 
z
M 3022 2063 
Q 3016 2534 2758 2815 
Q 2500 3097 2075 3097 
Q 1594 3097 1305 2825 
Q 1016 2553 972 2059 
L 3022 2063 
z
" transform="scale(0.015625)"/>
       <path id="DejaVuSans-6e" d="M 3513 2113 
L 3513 0 
L 2938 0 
L 2938 2094 
Q 2938 2591 2744 2837 
Q 2550 3084 2163 3084 
Q 1697 3084 1428 2787 
Q 1159 2491 1159 1978 
L 1159 0 
L 581 0 
L 581 3500 
L 1159 3500 
L 1159 2956 
Q 1366 3272 1645 3428 
Q 1925 3584 2291 3584 
Q 2894 3584 3203 3211 
Q 3513 2838 3513 2113 
z
" transform="scale(0.015625)"/>
       <path id="DejaVuSans-64" d="M 2906 2969 
L 2906 4863 
L 3481 4863 
L 3481 0 
L 2906 0 
L 2906 525 
Q 2725 213 2448 61 
Q 2172 -91 1784 -91 
Q 1150 -91 751 415 
Q 353 922 353 1747 
Q 353 2572 751 3078 
Q 1150 3584 1784 3584 
Q 2172 3584 2448 3432 
Q 2725 3281 2906 2969 
z
M 947 1747 
Q 947 1113 1208 752 
Q 1469 391 1925 391 
Q 2381 391 2643 752 
Q 2906 1113 2906 1747 
Q 2906 2381 2643 2742 
Q 2381 3103 1925 3103 
Q 1469 3103 1208 2742 
Q 947 2381 947 1747 
z
" transform="scale(0.015625)"/>
       <path id="DejaVuSans-54" d="M -19 4666 
L 3928 4666 
L 3928 4134 
L 2272 4134 
L 2272 0 
L 1638 0 
L 1638 4134 
L -19 4134 
L -19 4666 
z
" transform="scale(0.015625)"/>
       <path id="DejaVuSans-69" d="M 603 3500 
L 1178 3500 
L 1178 0 
L 603 0 
L 603 3500 
z
M 603 4863 
L 1178 4863 
L 1178 4134 
L 603 4134 
L 603 4863 
z
" transform="scale(0.015625)"/>
       <path id="DejaVuSans-6d" d="M 3328 2828 
Q 3544 3216 3844 3400 
Q 4144 3584 4550 3584 
Q 5097 3584 5394 3201 
Q 5691 2819 5691 2113 
L 5691 0 
L 5113 0 
L 5113 2094 
Q 5113 2597 4934 2840 
Q 4756 3084 4391 3084 
Q 3944 3084 3684 2787 
Q 3425 2491 3425 1978 
L 3425 0 
L 2847 0 
L 2847 2094 
Q 2847 2600 2669 2842 
Q 2491 3084 2119 3084 
Q 1678 3084 1418 2786 
Q 1159 2488 1159 1978 
L 1159 0 
L 581 0 
L 581 3500 
L 1159 3500 
L 1159 2956 
Q 1356 3278 1631 3431 
Q 1906 3584 2284 3584 
Q 2666 3584 2933 3390 
Q 3200 3197 3328 2828 
z
" transform="scale(0.015625)"/>
      </defs>
      <use xlink:href="#DejaVuSans-44"/>
      <use xlink:href="#DejaVuSans-61" transform="translate(77.001953 0)"/>
      <use xlink:href="#DejaVuSans-74" transform="translate(138.28125 0)"/>
      <use xlink:href="#DejaVuSans-65" transform="translate(177.490234 0)"/>
      <use xlink:href="#DejaVuSans-20" transform="translate(239.013672 0)"/>
      <use xlink:href="#DejaVuSans-61" transform="translate(270.800781 0)"/>
      <use xlink:href="#DejaVuSans-6e" transform="translate(332.080078 0)"/>
      <use xlink:href="#DejaVuSans-64" transform="translate(395.458984 0)"/>
      <use xlink:href="#DejaVuSans-20" transform="translate(458.935547 0)"/>
      <use xlink:href="#DejaVuSans-54" transform="translate(490.722656 0)"/>
      <use xlink:href="#DejaVuSans-69" transform="translate(548.681641 0)"/>
      <use xlink:href="#DejaVuSans-6d" transform="translate(576.464844 0)"/>
      <use xlink:href="#DejaVuSans-65" transform="translate(673.876953 0)"/>
     </g>
    </g>
   </g>
   <g id="matplotlib.axis_2">
    <g id="ytick_1">
     <g id="line2d_19">
      <path d="M 90 370.374765 
L 648 370.374765 
" clip-path="url(#pf5d5ebc00a)" style="fill: none; stroke: #b0b0b0; stroke-width: 0.8; stroke-linecap: square"/>
     </g>
     <g id="line2d_20">
      <defs>
       <path id="m7fa2503a47" d="M 0 0 
L -3.5 0 
" style="stroke: #000000; stroke-width: 0.8"/>
      </defs>
      <g>
       <use xlink:href="#m7fa2503a47" x="90" y="370.374765" style="stroke: #000000; stroke-width: 0.8"/>
      </g>
     </g>
     <g id="text_11">
      <!-- 0 -->
      <g transform="translate(76.6375 374.173984) scale(0.1 -0.1)">
       <use xlink:href="#DejaVuSans-30"/>
      </g>
     </g>
    </g>
    <g id="ytick_2">
     <g id="line2d_21">
      <path d="M 90 319.63651 
L 648 319.63651 
" clip-path="url(#pf5d5ebc00a)" style="fill: none; stroke: #b0b0b0; stroke-width: 0.8; stroke-linecap: square"/>
     </g>
     <g id="line2d_22">
      <g>
       <use xlink:href="#m7fa2503a47" x="90" y="319.63651" style="stroke: #000000; stroke-width: 0.8"/>
      </g>
     </g>
     <g id="text_12">
      <!-- 50 -->
      <g transform="translate(70.275 323.435729) scale(0.1 -0.1)">
       <use xlink:href="#DejaVuSans-35"/>
       <use xlink:href="#DejaVuSans-30" transform="translate(63.623047 0)"/>
      </g>
     </g>
    </g>
    <g id="ytick_3">
     <g id="line2d_23">
      <path d="M 90 268.898255 
L 648 268.898255 
" clip-path="url(#pf5d5ebc00a)" style="fill: none; stroke: #b0b0b0; stroke-width: 0.8; stroke-linecap: square"/>
     </g>
     <g id="line2d_24">
      <g>
       <use xlink:href="#m7fa2503a47" x="90" y="268.898255" style="stroke: #000000; stroke-width: 0.8"/>
      </g>
     </g>
     <g id="text_13">
      <!-- 100 -->
      <g transform="translate(63.9125 272.697474) scale(0.1 -0.1)">
       <use xlink:href="#DejaVuSans-31"/>
       <use xlink:href="#DejaVuSans-30" transform="translate(63.623047 0)"/>
       <use xlink:href="#DejaVuSans-30" transform="translate(127.246094 0)"/>
      </g>
     </g>
    </g>
    <g id="ytick_4">
     <g id="line2d_25">
      <path d="M 90 218.16 
L 648 218.16 
" clip-path="url(#pf5d5ebc00a)" style="fill: none; stroke: #b0b0b0; stroke-width: 0.8; stroke-linecap: square"/>
     </g>
     <g id="line2d_26">
      <g>
       <use xlink:href="#m7fa2503a47" x="90" y="218.16" style="stroke: #000000; stroke-width: 0.8"/>
      </g>
     </g>
     <g id="text_14">
      <!-- 150 -->
      <g transform="translate(63.9125 221.959219) scale(0.1 -0.1)">
       <use xlink:href="#DejaVuSans-31"/>
       <use xlink:href="#DejaVuSans-35" transform="translate(63.623047 0)"/>
       <use xlink:href="#DejaVuSans-30" transform="translate(127.246094 0)"/>
      </g>
     </g>
    </g>
    <g id="ytick_5">
     <g id="line2d_27">
      <path d="M 90 167.421745 
L 648 167.421745 
" clip-path="url(#pf5d5ebc00a)" style="fill: none; stroke: #b0b0b0; stroke-width: 0.8; stroke-linecap: square"/>
     </g>
     <g id="line2d_28">
      <g>
       <use xlink:href="#m7fa2503a47" x="90" y="167.421745" style="stroke: #000000; stroke-width: 0.8"/>
      </g>
     </g>
     <g id="text_15">
      <!-- 200 -->
      <g transform="translate(63.9125 171.220964) scale(0.1 -0.1)">
       <use xlink:href="#DejaVuSans-32"/>
       <use xlink:href="#DejaVuSans-30" transform="translate(63.623047 0)"/>
       <use xlink:href="#DejaVuSans-30" transform="translate(127.246094 0)"/>
      </g>
     </g>
    </g>
    <g id="ytick_6">
     <g id="line2d_29">
      <path d="M 90 116.68349 
L 648 116.68349 
" clip-path="url(#pf5d5ebc00a)" style="fill: none; stroke: #b0b0b0; stroke-width: 0.8; stroke-linecap: square"/>
     </g>
     <g id="line2d_30">
      <g>
       <use xlink:href="#m7fa2503a47" x="90" y="116.68349" style="stroke: #000000; stroke-width: 0.8"/>
      </g>
     </g>
     <g id="text_16">
      <!-- 250 -->
      <g transform="translate(63.9125 120.482709) scale(0.1 -0.1)">
       <use xlink:href="#DejaVuSans-32"/>
       <use xlink:href="#DejaVuSans-35" transform="translate(63.623047 0)"/>
       <use xlink:href="#DejaVuSans-30" transform="translate(127.246094 0)"/>
      </g>
     </g>
    </g>
    <g id="ytick_7">
     <g id="line2d_31">
      <path d="M 90 65.945235 
L 648 65.945235 
" clip-path="url(#pf5d5ebc00a)" style="fill: none; stroke: #b0b0b0; stroke-width: 0.8; stroke-linecap: square"/>
     </g>
     <g id="line2d_32">
      <g>
       <use xlink:href="#m7fa2503a47" x="90" y="65.945235" style="stroke: #000000; stroke-width: 0.8"/>
      </g>
     </g>
     <g id="text_17">
      <!-- 300 -->
      <g transform="translate(63.9125 69.744454) scale(0.1 -0.1)">
       <defs>
        <path id="DejaVuSans-33" d="M 2597 2516 
Q 3050 2419 3304 2112 
Q 3559 1806 3559 1356 
Q 3559 666 3084 287 
Q 2609 -91 1734 -91 
Q 1441 -91 1130 -33 
Q 819 25 488 141 
L 488 750 
Q 750 597 1062 519 
Q 1375 441 1716 441 
Q 2309 441 2620 675 
Q 2931 909 2931 1356 
Q 2931 1769 2642 2001 
Q 2353 2234 1838 2234 
L 1294 2234 
L 1294 2753 
L 1863 2753 
Q 2328 2753 2575 2939 
Q 2822 3125 2822 3475 
Q 2822 3834 2567 4026 
Q 2313 4219 1838 4219 
Q 1578 4219 1281 4162 
Q 984 4106 628 3988 
L 628 4550 
Q 988 4650 1302 4700 
Q 1616 4750 1894 4750 
Q 2613 4750 3031 4423 
Q 3450 4097 3450 3541 
Q 3450 3153 3228 2886 
Q 3006 2619 2597 2516 
z
" transform="scale(0.015625)"/>
       </defs>
       <use xlink:href="#DejaVuSans-33"/>
       <use xlink:href="#DejaVuSans-30" transform="translate(63.623047 0)"/>
       <use xlink:href="#DejaVuSans-30" transform="translate(127.246094 0)"/>
      </g>
     </g>
    </g>
    <g id="text_18">
     <!-- Votes -->
     <g transform="translate(57.832812 231.893594) rotate(-90) scale(0.1 -0.1)">
      <defs>
       <path id="DejaVuSans-56" d="M 1831 0 
L 50 4666 
L 709 4666 
L 2188 738 
L 3669 4666 
L 4325 4666 
L 2547 0 
L 1831 0 
z
" transform="scale(0.015625)"/>
       <path id="DejaVuSans-6f" d="M 1959 3097 
Q 1497 3097 1228 2736 
Q 959 2375 959 1747 
Q 959 1119 1226 758 
Q 1494 397 1959 397 
Q 2419 397 2687 759 
Q 2956 1122 2956 1747 
Q 2956 2369 2687 2733 
Q 2419 3097 1959 3097 
z
M 1959 3584 
Q 2709 3584 3137 3096 
Q 3566 2609 3566 1747 
Q 3566 888 3137 398 
Q 2709 -91 1959 -91 
Q 1206 -91 779 398 
Q 353 888 353 1747 
Q 353 2609 779 3096 
Q 1206 3584 1959 3584 
z
" transform="scale(0.015625)"/>
       <path id="DejaVuSans-73" d="M 2834 3397 
L 2834 2853 
Q 2591 2978 2328 3040 
Q 2066 3103 1784 3103 
Q 1356 3103 1142 2972 
Q 928 2841 928 2578 
Q 928 2378 1081 2264 
Q 1234 2150 1697 2047 
L 1894 2003 
Q 2506 1872 2764 1633 
Q 3022 1394 3022 966 
Q 3022 478 2636 193 
Q 2250 -91 1575 -91 
Q 1294 -91 989 -36 
Q 684 19 347 128 
L 347 722 
Q 666 556 975 473 
Q 1284 391 1588 391 
Q 1994 391 2212 530 
Q 2431 669 2431 922 
Q 2431 1156 2273 1281 
Q 2116 1406 1581 1522 
L 1381 1569 
Q 847 1681 609 1914 
Q 372 2147 372 2553 
Q 372 3047 722 3315 
Q 1072 3584 1716 3584 
Q 2034 3584 2315 3537 
Q 2597 3491 2834 3397 
z
" transform="scale(0.015625)"/>
      </defs>
      <use xlink:href="#DejaVuSans-56"/>
      <use xlink:href="#DejaVuSans-6f" transform="translate(60.658203 0)"/>
      <use xlink:href="#DejaVuSans-74" transform="translate(121.839844 0)"/>
      <use xlink:href="#DejaVuSans-65" transform="translate(161.048828 0)"/>
      <use xlink:href="#DejaVuSans-73" transform="translate(222.572266 0)"/>
     </g>
    </g>
   </g>
   <g id="line2d_33">
    <path d="M 115.363636 352.108993 
L 125.194503 352.108993 
L 126.17759 351.094228 
L 136.008457 351.094228 
L 136.991543 349.064698 
L 145.839323 349.064698 
L 146.82241 348.049933 
L 151.737844 348.049933 
L 152.72093 347.035168 
L 156.653277 347.035168 
L 157.636364 346.020403 
L 160.585624 346.020403 
L 161.56871 345.005638 
L 175.331924 345.005638 
L 176.315011 343.990872 
L 187.128964 343.990872 
L 189.095137 341.961342 
L 191.061311 341.961342 
L 192.044397 340.946577 
L 200.892178 340.946577 
L 202.858351 338.917047 
L 214.655391 338.917047 
L 215.638478 337.902282 
L 218.587738 337.902282 
L 219.570825 336.887517 
L 220.553911 336.887517 
L 221.536998 335.872752 
L 248.080338 335.872752 
L 249.063425 334.857987 
L 260.860465 334.857987 
L 261.843552 333.843221 
L 268.725159 333.843221 
L 269.708245 332.828456 
L 270.691332 330.798926 
L 271.674419 330.798926 
L 273.640592 328.769396 
L 289.369979 328.769396 
L 290.353066 327.754631 
L 296.251586 327.754631 
L 297.234672 326.739866 
L 301.167019 326.739866 
L 302.150106 325.725101 
L 311.980973 325.725101 
L 312.964059 324.710336 
L 314.930233 324.710336 
L 315.913319 323.69557 
L 318.862579 323.69557 
L 319.845666 322.680805 
L 327.710359 322.680805 
L 328.693446 321.66604 
L 329.676533 321.66604 
L 330.659619 320.651275 
L 340.490486 320.651275 
L 341.473573 319.63651 
L 348.35518 319.63651 
L 349.338266 318.621745 
L 350.321353 318.621745 
L 352.287526 316.592215 
L 373.915433 316.592215 
L 374.89852 315.57745 
L 390.627907 315.57745 
L 391.610994 314.562685 
L 392.59408 314.562685 
L 393.577167 313.547919 
L 402.424947 313.547919 
L 403.408034 312.533154 
L 404.391121 312.533154 
L 405.374207 311.518389 
L 410.289641 311.518389 
L 411.272727 310.503624 
L 414.221987 310.503624 
L 416.188161 308.474094 
L 417.171247 308.474094 
L 418.154334 307.459329 
L 420.120507 307.459329 
L 421.103594 306.444564 
L 423.069767 306.444564 
L 424.052854 305.429799 
L 426.019027 305.429799 
L 427.002114 304.415034 
L 450.596194 304.415034 
L 451.579281 303.400268 
L 461.410148 303.400268 
L 462.393235 302.385503 
L 468.291755 302.385503 
L 469.274841 301.370738 
L 470.257928 301.370738 
L 471.241015 300.355973 
L 472.224101 300.355973 
L 476.156448 296.296913 
L 478.122622 296.296913 
L 479.105708 294.267383 
L 486.970402 294.267383 
L 488.936575 292.237852 
L 490.902748 292.237852 
L 491.885835 291.223087 
L 495.818182 291.223087 
L 496.801268 290.208322 
L 503.682875 290.208322 
L 504.665962 289.193557 
L 506.632135 289.193557 
L 507.615222 288.178792 
L 513.513742 288.178792 
L 515.479915 286.149262 
L 522.361522 286.149262 
L 523.344609 285.134497 
L 526.293869 285.134497 
L 527.276956 284.119732 
L 529.243129 284.119732 
L 530.226216 282.090201 
L 534.158562 282.090201 
L 535.141649 280.060671 
L 536.124736 279.045906 
L 540.057082 279.045906 
L 541.040169 277.016376 
L 547.921776 277.016376 
L 548.904863 276.001611 
L 552.837209 276.001611 
L 553.820296 274.986846 
L 556.769556 274.986846 
L 557.752643 273.972081 
L 558.735729 271.94255 
L 560.701903 271.94255 
L 561.684989 270.927785 
L 577.414376 270.927785 
L 579.38055 268.898255 
L 593.143763 268.898255 
L 594.12685 267.88349 
L 600.02537 267.88349 
L 601.008457 266.868725 
L 613.788584 266.868725 
L 614.77167 265.85396 
L 622.636364 265.85396 
L 622.636364 265.85396 
" clip-path="url(#pf5d5ebc00a)" style="fill: none; stroke: #1f77b4; stroke-width: 1.5; stroke-linecap: square"/>
   </g>
   <g id="line2d_34">
    <path d="M 115.363636 287.164027 
L 116.346723 286.149262 
L 119.295983 286.149262 
L 120.27907 285.134497 
L 121.262156 285.134497 
L 122.245243 284.119732 
L 123.22833 284.119732 
L 125.194503 282.090201 
L 126.17759 280.060671 
L 127.160677 280.060671 
L 129.12685 278.031141 
L 130.109937 278.031141 
L 131.093023 273.972081 
L 132.07611 271.94255 
L 133.059197 267.88349 
L 134.042283 264.839195 
L 136.991543 264.839195 
L 137.97463 261.794899 
L 138.957717 259.765369 
L 140.92389 257.735839 
L 141.906977 255.706309 
L 143.87315 253.676779 
L 144.856237 251.647248 
L 147.805497 251.647248 
L 148.788584 246.573423 
L 149.77167 244.543893 
L 150.754757 243.529128 
L 151.737844 241.499597 
L 152.72093 240.484832 
L 153.704017 240.484832 
L 154.687104 237.440537 
L 155.67019 237.440537 
L 156.653277 235.411007 
L 157.636364 234.396242 
L 158.61945 234.396242 
L 159.602537 233.381477 
L 161.56871 233.381477 
L 162.551797 232.366711 
L 164.51797 232.366711 
L 165.501057 230.337181 
L 166.484144 230.337181 
L 167.46723 229.322416 
L 171.399577 229.322416 
L 172.382664 228.307651 
L 175.331924 228.307651 
L 176.315011 227.292886 
L 177.298097 227.292886 
L 178.281184 225.263356 
L 179.264271 225.263356 
L 180.247357 223.233826 
L 181.230444 222.21906 
L 184.179704 222.21906 
L 185.162791 220.18953 
L 186.145877 219.174765 
L 187.128964 216.13047 
L 189.095137 214.10094 
L 196.959831 214.10094 
L 197.942918 211.056644 
L 198.926004 211.056644 
L 200.892178 209.027114 
L 201.875264 209.027114 
L 204.824524 205.982819 
L 206.790698 205.982819 
L 207.773784 204.968054 
L 209.739958 204.968054 
L 212.689218 201.923758 
L 214.655391 201.923758 
L 215.638478 200.908993 
L 220.553911 200.908993 
L 221.536998 199.894228 
L 223.503171 199.894228 
L 224.486258 198.879463 
L 236.283298 198.879463 
L 237.266385 196.849933 
L 239.232558 196.849933 
L 241.198731 194.820403 
L 242.181818 194.820403 
L 243.164905 193.805638 
L 249.063425 193.805638 
L 252.012685 190.761342 
L 252.995772 190.761342 
L 253.978858 189.746577 
L 254.961945 187.717047 
L 255.945032 187.717047 
L 256.928118 186.702282 
L 257.911205 186.702282 
L 261.843552 182.643221 
L 263.809725 182.643221 
L 264.792812 180.613691 
L 267.742072 180.613691 
L 268.725159 179.598926 
L 271.674419 179.598926 
L 272.657505 178.584161 
L 273.640592 178.584161 
L 274.623679 175.539866 
L 277.572939 175.539866 
L 278.556025 174.525101 
L 279.539112 172.49557 
L 281.505285 172.49557 
L 282.488372 171.480805 
L 284.454545 171.480805 
L 285.437632 170.46604 
L 286.420719 170.46604 
L 291.336152 165.392215 
L 293.302326 165.392215 
L 296.251586 162.347919 
L 299.200846 162.347919 
L 300.183932 160.318389 
L 301.167019 160.318389 
L 302.150106 159.303624 
L 305.099366 159.303624 
L 306.082452 158.288859 
L 314.930233 158.288859 
L 315.913319 157.274094 
L 322.794926 157.274094 
L 323.778013 156.259329 
L 325.744186 156.259329 
L 327.710359 154.229799 
L 332.625793 154.229799 
L 333.608879 153.215034 
L 338.524313 153.215034 
L 341.473573 150.170738 
L 354.2537 150.170738 
L 355.236786 148.141208 
L 356.219873 147.126443 
L 379.813953 147.126443 
L 380.79704 146.111678 
L 386.69556 146.111678 
L 388.661734 144.082148 
L 390.627907 144.082148 
L 391.610994 143.067383 
L 392.59408 143.067383 
L 394.560254 141.037852 
L 395.54334 141.037852 
L 396.526427 140.023087 
L 397.509514 140.023087 
L 399.475687 135.964027 
L 400.458774 134.949262 
L 405.374207 134.949262 
L 406.357294 131.904966 
L 407.340381 129.875436 
L 409.306554 129.875436 
L 411.272727 127.845906 
L 416.188161 127.845906 
L 418.154334 125.816376 
L 420.120507 125.816376 
L 421.103594 124.801611 
L 423.069767 124.801611 
L 424.052854 123.786846 
L 425.035941 123.786846 
L 426.019027 122.772081 
L 427.002114 122.772081 
L 427.985201 121.757315 
L 428.968288 121.757315 
L 429.951374 120.74255 
L 431.917548 120.74255 
L 432.900634 118.71302 
L 437.816068 118.71302 
L 439.782241 116.68349 
L 449.613108 116.68349 
L 450.596194 115.668725 
L 451.579281 115.668725 
L 452.562368 114.65396 
L 453.545455 114.65396 
L 456.494715 111.609664 
L 458.460888 111.609664 
L 459.443975 110.594899 
L 479.105708 110.594899 
L 481.071882 108.565369 
L 485.004228 108.565369 
L 485.987315 107.550604 
L 486.970402 107.550604 
L 487.953488 106.535839 
L 488.936575 106.535839 
L 489.919662 105.521074 
L 511.547569 105.521074 
L 512.530655 104.506309 
L 532.192389 104.506309 
L 533.175476 102.476779 
L 540.057082 102.476779 
L 542.023256 100.447248 
L 543.989429 100.447248 
L 544.972516 99.432483 
L 546.938689 99.432483 
L 548.904863 97.402953 
L 550.871036 97.402953 
L 551.854123 95.373423 
L 559.718816 95.373423 
L 560.701903 94.358658 
L 565.617336 94.358658 
L 566.600423 93.343893 
L 572.498943 93.343893 
L 573.48203 92.329128 
L 580.363636 92.329128 
L 582.32981 90.299597 
L 583.312896 90.299597 
L 584.295983 89.284832 
L 590.194503 89.284832 
L 591.17759 88.270067 
L 595.109937 88.270067 
L 596.093023 87.255302 
L 597.07611 87.255302 
L 598.059197 86.240537 
L 612.805497 86.240537 
L 615.754757 83.196242 
L 622.636364 83.196242 
L 622.636364 83.196242 
" clip-path="url(#pf5d5ebc00a)" style="fill: none; stroke: #ff7f0e; stroke-width: 1.5; stroke-linecap: square"/>
   </g>
   <g id="line2d_35">
    <path d="M 115.363636 338.917047 
L 119.295983 338.917047 
L 120.27907 336.887517 
L 122.245243 336.887517 
L 123.22833 335.872752 
L 124.211416 333.843221 
L 125.194503 332.828456 
L 126.17759 329.784161 
L 127.160677 327.754631 
L 128.143763 326.739866 
L 129.12685 326.739866 
L 130.109937 324.710336 
L 131.093023 321.66604 
L 135.02537 321.66604 
L 136.008457 320.651275 
L 136.991543 320.651275 
L 137.97463 318.621745 
L 140.92389 318.621745 
L 142.890063 316.592215 
L 146.82241 316.592215 
L 147.805497 315.57745 
L 151.737844 315.57745 
L 154.687104 312.533154 
L 159.602537 312.533154 
L 160.585624 311.518389 
L 163.534884 311.518389 
L 164.51797 310.503624 
L 166.484144 310.503624 
L 167.46723 308.474094 
L 175.331924 308.474094 
L 176.315011 307.459329 
L 177.298097 305.429799 
L 178.281184 304.415034 
L 179.264271 304.415034 
L 180.247357 303.400268 
L 182.213531 303.400268 
L 183.196617 302.385503 
L 185.162791 302.385503 
L 186.145877 301.370738 
L 192.044397 301.370738 
L 193.027484 300.355973 
L 194.010571 300.355973 
L 194.993658 299.341208 
L 195.976744 299.341208 
L 196.959831 298.326443 
L 199.909091 298.326443 
L 200.892178 297.311678 
L 201.875264 295.282148 
L 206.790698 295.282148 
L 209.739958 292.237852 
L 212.689218 292.237852 
L 213.672304 291.223087 
L 217.604651 291.223087 
L 218.587738 290.208322 
L 219.570825 290.208322 
L 220.553911 289.193557 
L 222.520085 289.193557 
L 223.503171 288.178792 
L 226.452431 288.178792 
L 228.418605 286.149262 
L 229.401691 286.149262 
L 230.384778 285.134497 
L 238.249471 285.134497 
L 239.232558 283.104966 
L 240.215645 282.090201 
L 248.080338 282.090201 
L 249.063425 281.075436 
L 252.012685 281.075436 
L 252.995772 280.060671 
L 255.945032 280.060671 
L 256.928118 279.045906 
L 266.758985 279.045906 
L 267.742072 278.031141 
L 271.674419 278.031141 
L 272.657505 277.016376 
L 278.556025 277.016376 
L 279.539112 276.001611 
L 281.505285 276.001611 
L 282.488372 274.986846 
L 286.420719 274.986846 
L 288.386892 272.957315 
L 307.065539 272.957315 
L 308.048626 271.94255 
L 309.031712 271.94255 
L 310.014799 270.927785 
L 312.964059 270.927785 
L 313.947146 269.91302 
L 318.862579 269.91302 
L 319.845666 268.898255 
L 321.811839 268.898255 
L 322.794926 267.88349 
L 328.693446 267.88349 
L 329.676533 268.898255 
L 330.659619 267.88349 
L 337.541226 267.88349 
L 338.524313 266.868725 
L 346.389006 266.868725 
L 347.372093 265.85396 
L 349.338266 265.85396 
L 350.321353 264.839195 
L 351.30444 264.839195 
L 352.287526 263.82443 
L 359.169133 263.82443 
L 360.15222 262.809664 
L 366.05074 262.809664 
L 367.033827 261.794899 
L 381.780127 261.794899 
L 382.763214 260.780134 
L 404.391121 260.780134 
L 405.374207 259.765369 
L 415.205074 259.765369 
L 416.188161 258.750604 
L 431.917548 258.750604 
L 433.883721 256.721074 
L 451.579281 256.721074 
L 452.562368 255.706309 
L 453.545455 253.676779 
L 473.207188 253.676779 
L 474.190275 252.662013 
L 476.156448 252.662013 
L 477.139535 251.647248 
L 483.038055 251.647248 
L 484.021142 250.632483 
L 486.970402 250.632483 
L 488.936575 248.602953 
L 490.902748 248.602953 
L 491.885835 247.588188 
L 495.818182 247.588188 
L 496.801268 245.558658 
L 499.750529 245.558658 
L 500.733615 244.543893 
L 501.716702 244.543893 
L 503.682875 242.514362 
L 516.463002 242.514362 
L 517.446089 241.499597 
L 529.243129 241.499597 
L 530.226216 239.470067 
L 538.090909 239.470067 
L 540.057082 237.440537 
L 549.887949 237.440537 
L 552.837209 234.396242 
L 555.786469 234.396242 
L 556.769556 233.381477 
L 558.735729 233.381477 
L 559.718816 232.366711 
L 568.566596 232.366711 
L 569.549683 231.351946 
L 578.397463 231.351946 
L 579.38055 230.337181 
L 586.262156 230.337181 
L 588.22833 228.307651 
L 595.109937 228.307651 
L 596.093023 227.292886 
L 605.92389 227.292886 
L 606.906977 226.278121 
L 607.890063 226.278121 
L 608.87315 225.263356 
L 620.67019 225.263356 
L 621.653277 224.248591 
L 622.636364 224.248591 
L 622.636364 224.248591 
" clip-path="url(#pf5d5ebc00a)" style="fill: none; stroke: #2ca02c; stroke-width: 1.5; stroke-linecap: square"/>
   </g>
   <g id="line2d_36">
    <path d="M 115.363636 369.36 
L 358.186047 369.36 
L 359.169133 368.345235 
L 567.58351 368.345235 
L 568.566596 367.33047 
L 622.636364 367.33047 
L 622.636364 367.33047 
" clip-path="url(#pf5d5ebc00a)" style="fill: none; stroke: #d62728; stroke-width: 1.5; stroke-linecap: square"/>
   </g>
   <g id="line2d_37">
    <path d="M 115.363636 347.035168 
L 118.312896 347.035168 
L 119.295983 346.020403 
L 125.194503 346.020403 
L 126.17759 345.005638 
L 132.07611 345.005638 
L 133.059197 343.990872 
L 154.687104 343.990872 
L 155.67019 342.976107 
L 191.061311 342.976107 
L 193.027484 340.946577 
L 200.892178 340.946577 
L 201.875264 339.931812 
L 205.807611 339.931812 
L 206.790698 338.917047 
L 208.756871 338.917047 
L 209.739958 337.902282 
L 235.300211 337.902282 
L 236.283298 336.887517 
L 276.589852 336.887517 
L 277.572939 335.872752 
L 405.374207 335.872752 
L 406.357294 334.857987 
L 407.340381 334.857987 
L 408.323467 333.843221 
L 470.257928 333.843221 
L 471.241015 332.828456 
L 622.636364 332.828456 
L 622.636364 332.828456 
" clip-path="url(#pf5d5ebc00a)" style="fill: none; stroke: #9467bd; stroke-width: 1.5; stroke-linecap: square"/>
   </g>
   <g id="line2d_38">
    <path d="M 115.363636 355.153289 
L 116.346723 355.153289 
L 117.32981 354.138523 
L 131.093023 354.138523 
L 132.07611 353.123758 
L 143.87315 353.123758 
L 144.856237 352.108993 
L 159.602537 352.108993 
L 161.56871 350.079463 
L 172.382664 350.079463 
L 173.365751 349.064698 
L 202.858351 349.064698 
L 203.841438 348.049933 
L 212.689218 348.049933 
L 213.672304 347.035168 
L 230.384778 347.035168 
L 231.367865 346.020403 
L 247.097252 346.020403 
L 248.080338 345.005638 
L 252.012685 345.005638 
L 252.995772 343.990872 
L 261.843552 343.990872 
L 262.826638 342.976107 
L 286.420719 342.976107 
L 287.403805 341.961342 
L 293.302326 341.961342 
L 294.285412 340.946577 
L 300.183932 340.946577 
L 301.167019 339.931812 
L 305.099366 339.931812 
L 306.082452 338.917047 
L 342.45666 338.917047 
L 343.439746 337.902282 
L 371.94926 337.902282 
L 372.932347 336.887517 
L 429.951374 336.887517 
L 430.934461 335.872752 
L 458.460888 335.872752 
L 459.443975 334.857987 
L 472.224101 334.857987 
L 473.207188 333.843221 
L 622.636364 333.843221 
L 622.636364 333.843221 
" clip-path="url(#pf5d5ebc00a)" style="fill: none; stroke: #8c564b; stroke-width: 1.5; stroke-linecap: square"/>
   </g>
   <g id="line2d_39">
    <path d="M 115.363636 280.060671 
L 119.295983 280.060671 
L 120.27907 279.045906 
L 124.211416 279.045906 
L 126.17759 277.016376 
L 127.160677 277.016376 
L 128.143763 276.001611 
L 129.12685 276.001611 
L 130.109937 274.986846 
L 132.07611 274.986846 
L 133.059197 273.972081 
L 136.008457 273.972081 
L 136.991543 272.957315 
L 138.957717 272.957315 
L 139.940803 271.94255 
L 140.92389 271.94255 
L 141.906977 270.927785 
L 143.87315 270.927785 
L 145.839323 268.898255 
L 149.77167 268.898255 
L 150.754757 267.88349 
L 153.704017 267.88349 
L 155.67019 265.85396 
L 157.636364 265.85396 
L 158.61945 264.839195 
L 160.585624 264.839195 
L 161.56871 263.82443 
L 162.551797 261.794899 
L 163.534884 258.750604 
L 165.501057 258.750604 
L 166.484144 257.735839 
L 171.399577 257.735839 
L 173.365751 255.706309 
L 174.348837 253.676779 
L 175.331924 252.662013 
L 176.315011 252.662013 
L 177.298097 250.632483 
L 181.230444 250.632483 
L 182.213531 249.617718 
L 183.196617 249.617718 
L 185.162791 247.588188 
L 186.145877 247.588188 
L 187.128964 246.573423 
L 188.112051 246.573423 
L 190.078224 244.543893 
L 192.044397 244.543893 
L 193.027484 242.514362 
L 196.959831 242.514362 
L 198.926004 240.484832 
L 200.892178 240.484832 
L 201.875264 239.470067 
L 202.858351 237.440537 
L 205.807611 237.440537 
L 206.790698 236.425772 
L 207.773784 236.425772 
L 208.756871 234.396242 
L 209.739958 234.396242 
L 210.723044 233.381477 
L 211.706131 233.381477 
L 212.689218 232.366711 
L 216.621564 232.366711 
L 218.587738 230.337181 
L 219.570825 230.337181 
L 220.553911 228.307651 
L 221.536998 228.307651 
L 222.520085 227.292886 
L 223.503171 227.292886 
L 224.486258 226.278121 
L 227.435518 226.278121 
L 228.418605 225.263356 
L 229.401691 225.263356 
L 233.334038 221.204295 
L 234.317125 219.174765 
L 236.283298 219.174765 
L 238.249471 215.115705 
L 240.215645 215.115705 
L 242.181818 213.086174 
L 243.164905 213.086174 
L 244.147992 211.056644 
L 245.131078 211.056644 
L 246.114165 210.041879 
L 247.097252 210.041879 
L 248.080338 209.027114 
L 250.046512 209.027114 
L 251.029598 208.012349 
L 252.012685 208.012349 
L 252.995772 206.997584 
L 256.928118 206.997584 
L 257.911205 201.923758 
L 258.894292 201.923758 
L 259.877378 200.908993 
L 262.826638 200.908993 
L 263.809725 199.894228 
L 272.657505 199.894228 
L 273.640592 197.864698 
L 277.572939 197.864698 
L 278.556025 196.849933 
L 288.386892 196.849933 
L 289.369979 194.820403 
L 290.353066 193.805638 
L 295.268499 193.805638 
L 296.251586 192.790872 
L 303.133192 192.790872 
L 304.116279 191.776107 
L 305.099366 191.776107 
L 306.082452 190.761342 
L 311.980973 190.761342 
L 313.947146 188.731812 
L 320.828753 188.731812 
L 322.794926 186.702282 
L 323.778013 186.702282 
L 324.761099 185.687517 
L 330.659619 185.687517 
L 331.642706 184.672752 
L 334.591966 184.672752 
L 335.575053 183.657987 
L 336.55814 181.628456 
L 339.5074 181.628456 
L 340.490486 180.613691 
L 341.473573 180.613691 
L 343.439746 178.584161 
L 347.372093 178.584161 
L 348.35518 177.569396 
L 352.287526 177.569396 
L 353.270613 176.554631 
L 356.219873 176.554631 
L 357.20296 175.539866 
L 365.067653 175.539866 
L 367.033827 173.510336 
L 371.94926 173.510336 
L 372.932347 172.49557 
L 376.864693 172.49557 
L 381.780127 167.421745 
L 383.7463 167.421745 
L 384.729387 166.40698 
L 385.712474 166.40698 
L 386.69556 164.37745 
L 388.661734 162.347919 
L 390.627907 158.288859 
L 392.59408 158.288859 
L 394.560254 154.229799 
L 396.526427 154.229799 
L 397.509514 152.200268 
L 399.475687 150.170738 
L 402.424947 150.170738 
L 403.408034 149.155973 
L 404.391121 149.155973 
L 406.357294 147.126443 
L 410.289641 147.126443 
L 411.272727 146.111678 
L 413.238901 146.111678 
L 414.221987 145.096913 
L 419.137421 145.096913 
L 420.120507 143.067383 
L 421.103594 142.052617 
L 422.086681 142.052617 
L 423.069767 141.037852 
L 425.035941 141.037852 
L 426.019027 140.023087 
L 427.985201 140.023087 
L 428.968288 137.993557 
L 430.934461 137.993557 
L 431.917548 136.978792 
L 432.900634 136.978792 
L 433.883721 135.964027 
L 438.799154 135.964027 
L 439.782241 134.949262 
L 444.697674 134.949262 
L 445.680761 133.934497 
L 446.663848 133.934497 
L 447.646934 131.904966 
L 449.613108 129.875436 
L 450.596194 126.831141 
L 451.579281 125.816376 
L 452.562368 125.816376 
L 453.545455 124.801611 
L 454.528541 124.801611 
L 455.511628 123.786846 
L 459.443975 123.786846 
L 460.427061 122.772081 
L 462.393235 122.772081 
L 463.376321 121.757315 
L 465.342495 121.757315 
L 467.308668 119.727785 
L 470.257928 119.727785 
L 471.241015 118.71302 
L 476.156448 118.71302 
L 477.139535 116.68349 
L 482.054968 116.68349 
L 483.038055 115.668725 
L 485.987315 115.668725 
L 486.970402 113.639195 
L 490.902748 113.639195 
L 491.885835 112.62443 
L 500.733615 112.62443 
L 501.716702 111.609664 
L 503.682875 111.609664 
L 504.665962 110.594899 
L 511.547569 110.594899 
L 512.530655 109.580134 
L 513.513742 109.580134 
L 514.496829 108.565369 
L 515.479915 108.565369 
L 516.463002 107.550604 
L 522.361522 107.550604 
L 524.327696 105.521074 
L 538.090909 105.521074 
L 539.073996 104.506309 
L 540.057082 104.506309 
L 542.023256 102.476779 
L 543.006342 102.476779 
L 543.989429 101.462013 
L 555.786469 101.462013 
L 556.769556 100.447248 
L 557.752643 98.417718 
L 559.718816 98.417718 
L 560.701903 97.402953 
L 565.617336 97.402953 
L 566.600423 96.388188 
L 567.58351 96.388188 
L 569.549683 94.358658 
L 574.465116 94.358658 
L 575.448203 93.343893 
L 578.397463 93.343893 
L 579.38055 92.329128 
L 581.346723 92.329128 
L 582.32981 91.314362 
L 584.295983 91.314362 
L 585.27907 90.299597 
L 586.262156 90.299597 
L 587.245243 88.270067 
L 594.12685 88.270067 
L 595.109937 85.225772 
L 596.093023 83.196242 
L 597.07611 83.196242 
L 601.008457 79.137181 
L 601.991543 77.107651 
L 603.957717 77.107651 
L 604.940803 75.078121 
L 612.805497 75.078121 
L 614.77167 73.048591 
L 615.754757 71.01906 
L 616.737844 70.004295 
L 619.687104 70.004295 
L 620.67019 67.974765 
L 621.653277 66.96 
L 622.636364 66.96 
L 622.636364 66.96 
" clip-path="url(#pf5d5ebc00a)" style="fill: none; stroke: #e377c2; stroke-width: 1.5; stroke-linecap: square"/>
   </g>
   <g id="line2d_40">
    <path d="M 115.363636 342.976107 
L 116.346723 342.976107 
L 118.312896 340.946577 
L 123.22833 340.946577 
L 124.211416 339.931812 
L 125.194503 339.931812 
L 127.160677 337.902282 
L 129.12685 337.902282 
L 130.109937 336.887517 
L 133.059197 336.887517 
L 134.042283 335.872752 
L 135.02537 335.872752 
L 136.008457 334.857987 
L 136.991543 334.857987 
L 138.957717 332.828456 
L 141.906977 332.828456 
L 142.890063 331.813691 
L 144.856237 331.813691 
L 146.82241 329.784161 
L 148.788584 329.784161 
L 150.754757 327.754631 
L 151.737844 327.754631 
L 152.72093 326.739866 
L 153.704017 323.69557 
L 157.636364 323.69557 
L 161.56871 319.63651 
L 162.551797 319.63651 
L 164.51797 317.60698 
L 165.501057 317.60698 
L 166.484144 316.592215 
L 167.46723 316.592215 
L 168.450317 315.57745 
L 177.298097 315.57745 
L 178.281184 314.562685 
L 188.112051 314.562685 
L 190.078224 312.533154 
L 193.027484 312.533154 
L 194.010571 311.518389 
L 195.976744 311.518389 
L 197.942918 309.488859 
L 199.909091 309.488859 
L 200.892178 307.459329 
L 203.841438 307.459329 
L 204.824524 305.429799 
L 205.807611 304.415034 
L 210.723044 304.415034 
L 211.706131 303.400268 
L 212.689218 303.400268 
L 214.655391 301.370738 
L 219.570825 301.370738 
L 220.553911 300.355973 
L 221.536998 300.355973 
L 222.520085 299.341208 
L 228.418605 299.341208 
L 229.401691 298.326443 
L 232.350951 298.326443 
L 233.334038 297.311678 
L 234.317125 297.311678 
L 235.300211 294.267383 
L 236.283298 294.267383 
L 237.266385 292.237852 
L 238.249471 291.223087 
L 239.232558 291.223087 
L 241.198731 289.193557 
L 243.164905 289.193557 
L 244.147992 288.178792 
L 246.114165 288.178792 
L 247.097252 287.164027 
L 248.080338 287.164027 
L 249.063425 285.134497 
L 250.046512 285.134497 
L 251.029598 284.119732 
L 252.995772 284.119732 
L 254.961945 282.090201 
L 255.945032 282.090201 
L 256.928118 280.060671 
L 257.911205 279.045906 
L 264.792812 279.045906 
L 265.775899 277.016376 
L 268.725159 277.016376 
L 269.708245 276.001611 
L 270.691332 276.001611 
L 271.674419 274.986846 
L 274.623679 274.986846 
L 275.606765 273.972081 
L 280.522199 273.972081 
L 281.505285 272.957315 
L 283.471459 272.957315 
L 284.454545 271.94255 
L 289.369979 271.94255 
L 290.353066 270.927785 
L 299.200846 270.927785 
L 301.167019 268.898255 
L 302.150106 268.898255 
L 303.133192 267.88349 
L 304.116279 267.88349 
L 305.099366 266.868725 
L 306.082452 266.868725 
L 307.065539 265.85396 
L 309.031712 265.85396 
L 310.014799 264.839195 
L 310.997886 264.839195 
L 312.964059 262.809664 
L 315.913319 262.809664 
L 316.896406 261.794899 
L 319.845666 261.794899 
L 320.828753 260.780134 
L 327.710359 260.780134 
L 328.693446 259.765369 
L 329.676533 259.765369 
L 330.659619 258.750604 
L 334.591966 258.750604 
L 335.575053 256.721074 
L 341.473573 256.721074 
L 342.45666 255.706309 
L 343.439746 255.706309 
L 344.422833 253.676779 
L 349.338266 253.676779 
L 350.321353 252.662013 
L 356.219873 252.662013 
L 357.20296 251.647248 
L 369.983087 251.647248 
L 370.966173 250.632483 
L 385.712474 250.632483 
L 386.69556 249.617718 
L 391.610994 249.617718 
L 392.59408 248.602953 
L 393.577167 248.602953 
L 394.560254 247.588188 
L 395.54334 247.588188 
L 396.526427 245.558658 
L 397.509514 245.558658 
L 399.475687 243.529128 
L 406.357294 243.529128 
L 407.340381 242.514362 
L 408.323467 242.514362 
L 409.306554 241.499597 
L 410.289641 241.499597 
L 411.272727 240.484832 
L 416.188161 240.484832 
L 417.171247 239.470067 
L 426.019027 239.470067 
L 427.002114 238.455302 
L 431.917548 238.455302 
L 432.900634 237.440537 
L 437.816068 237.440537 
L 438.799154 236.425772 
L 440.765328 236.425772 
L 443.714588 233.381477 
L 445.680761 233.381477 
L 446.663848 231.351946 
L 451.579281 231.351946 
L 453.545455 229.322416 
L 455.511628 229.322416 
L 456.494715 228.307651 
L 457.477801 228.307651 
L 459.443975 226.278121 
L 466.325581 226.278121 
L 467.308668 225.263356 
L 469.274841 225.263356 
L 470.257928 224.248591 
L 478.122622 224.248591 
L 480.088795 222.21906 
L 483.038055 222.21906 
L 484.021142 221.204295 
L 485.004228 221.204295 
L 485.987315 218.16 
L 486.970402 217.145235 
L 490.902748 217.145235 
L 491.885835 215.115705 
L 494.835095 215.115705 
L 495.818182 214.10094 
L 505.649049 214.10094 
L 506.632135 213.086174 
L 516.463002 213.086174 
L 518.429175 211.056644 
L 525.310782 211.056644 
L 526.293869 210.041879 
L 543.006342 210.041879 
L 546.938689 205.982819 
L 550.871036 205.982819 
L 551.854123 204.968054 
L 559.718816 204.968054 
L 560.701903 203.953289 
L 563.651163 203.953289 
L 564.634249 202.938523 
L 565.617336 202.938523 
L 566.600423 201.923758 
L 572.498943 201.923758 
L 574.465116 199.894228 
L 576.43129 199.894228 
L 577.414376 198.879463 
L 582.32981 198.879463 
L 583.312896 197.864698 
L 584.295983 197.864698 
L 585.27907 195.835168 
L 596.093023 195.835168 
L 598.059197 193.805638 
L 601.008457 193.805638 
L 601.991543 192.790872 
L 606.906977 192.790872 
L 607.890063 191.776107 
L 614.77167 191.776107 
L 615.754757 190.761342 
L 622.636364 190.761342 
L 622.636364 190.761342 
" clip-path="url(#pf5d5ebc00a)" style="fill: none; stroke: #7f7f7f; stroke-width: 1.5; stroke-linecap: square"/>
   </g>
   <g id="line2d_41">
    <path d="M 115.363636 349.064698 
L 119.295983 349.064698 
L 120.27907 348.049933 
L 130.109937 348.049933 
L 131.093023 347.035168 
L 136.008457 347.035168 
L 136.991543 346.020403 
L 146.82241 346.020403 
L 147.805497 345.005638 
L 157.636364 345.005638 
L 158.61945 343.990872 
L 211.706131 343.990872 
L 212.689218 342.976107 
L 217.604651 342.976107 
L 218.587738 341.961342 
L 225.469345 341.961342 
L 226.452431 340.946577 
L 227.435518 340.946577 
L 228.418605 337.902282 
L 229.401691 336.887517 
L 231.367865 336.887517 
L 232.350951 335.872752 
L 242.181818 335.872752 
L 243.164905 334.857987 
L 252.012685 334.857987 
L 252.995772 333.843221 
L 263.809725 333.843221 
L 264.792812 332.828456 
L 276.589852 332.828456 
L 277.572939 331.813691 
L 282.488372 331.813691 
L 283.471459 330.798926 
L 314.930233 330.798926 
L 315.913319 329.784161 
L 317.879493 329.784161 
L 318.862579 328.769396 
L 326.727273 328.769396 
L 327.710359 327.754631 
L 355.236786 327.754631 
L 358.186047 324.710336 
L 386.69556 324.710336 
L 387.678647 323.69557 
L 388.661734 323.69557 
L 390.627907 321.66604 
L 392.59408 321.66604 
L 393.577167 320.651275 
L 443.714588 320.651275 
L 444.697674 319.63651 
L 501.716702 319.63651 
L 502.699789 318.621745 
L 543.989429 318.621745 
L 544.972516 317.60698 
L 549.887949 317.60698 
L 550.871036 316.592215 
L 564.634249 316.592215 
L 565.617336 315.57745 
L 585.27907 315.57745 
L 586.262156 314.562685 
L 622.636364 314.562685 
L 622.636364 314.562685 
" clip-path="url(#pf5d5ebc00a)" style="fill: none; stroke: #bcbd22; stroke-width: 1.5; stroke-linecap: square"/>
   </g>
   <g id="line2d_42">
    <path d="M 115.363636 367.33047 
L 164.51797 367.33047 
L 165.501057 366.315705 
L 227.435518 366.315705 
L 228.418605 365.30094 
L 328.693446 365.30094 
L 329.676533 364.286174 
L 330.659619 365.30094 
L 449.613108 365.30094 
L 450.596194 364.286174 
L 457.477801 364.286174 
L 458.460888 363.271409 
L 483.038055 363.271409 
L 484.021142 362.256644 
L 622.636364 362.256644 
L 622.636364 362.256644 
" clip-path="url(#pf5d5ebc00a)" style="fill: none; stroke: #17becf; stroke-width: 1.5; stroke-linecap: square"/>
   </g>
   <g id="line2d_43">
    <path d="M 115.363636 369.36 
L 116.346723 368.345235 
L 118.312896 368.345235 
L 119.295983 367.33047 
L 126.17759 367.33047 
L 127.160677 366.315705 
L 130.109937 366.315705 
L 131.093023 365.30094 
L 132.07611 365.30094 
L 134.042283 363.271409 
L 138.957717 363.271409 
L 140.92389 361.241879 
L 141.906977 361.241879 
L 142.890063 360.227114 
L 149.77167 360.227114 
L 150.754757 359.212349 
L 151.737844 357.182819 
L 153.704017 357.182819 
L 154.687104 356.168054 
L 155.67019 356.168054 
L 156.653277 355.153289 
L 157.636364 355.153289 
L 158.61945 354.138523 
L 159.602537 354.138523 
L 161.56871 352.108993 
L 167.46723 352.108993 
L 169.433404 350.079463 
L 172.382664 350.079463 
L 173.365751 349.064698 
L 174.348837 349.064698 
L 175.331924 347.035168 
L 178.281184 347.035168 
L 180.247357 342.976107 
L 186.145877 342.976107 
L 187.128964 340.946577 
L 188.112051 339.931812 
L 191.061311 339.931812 
L 192.044397 338.917047 
L 193.027484 336.887517 
L 194.993658 336.887517 
L 195.976744 335.872752 
L 209.739958 335.872752 
L 210.723044 333.843221 
L 217.604651 326.739866 
L 227.435518 326.739866 
L 230.384778 323.69557 
L 232.350951 323.69557 
L 233.334038 321.66604 
L 235.300211 321.66604 
L 236.283298 320.651275 
L 239.232558 320.651275 
L 240.215645 319.63651 
L 241.198731 319.63651 
L 242.181818 318.621745 
L 243.164905 318.621745 
L 245.131078 316.592215 
L 257.911205 316.592215 
L 259.877378 314.562685 
L 267.742072 314.562685 
L 268.725159 313.547919 
L 271.674419 313.547919 
L 273.640592 311.518389 
L 276.589852 311.518389 
L 277.572939 310.503624 
L 279.539112 310.503624 
L 280.522199 309.488859 
L 285.437632 309.488859 
L 286.420719 308.474094 
L 287.403805 308.474094 
L 288.386892 306.444564 
L 289.369979 306.444564 
L 290.353066 305.429799 
L 295.268499 305.429799 
L 296.251586 304.415034 
L 298.217759 304.415034 
L 299.200846 303.400268 
L 300.183932 303.400268 
L 302.150106 301.370738 
L 309.031712 301.370738 
L 310.014799 300.355973 
L 310.997886 300.355973 
L 311.980973 299.341208 
L 316.896406 299.341208 
L 317.879493 297.311678 
L 318.862579 296.296913 
L 323.778013 296.296913 
L 324.761099 295.282148 
L 328.693446 295.282148 
L 329.676533 293.252617 
L 333.608879 293.252617 
L 335.575053 291.223087 
L 338.524313 291.223087 
L 339.5074 290.208322 
L 351.30444 290.208322 
L 352.287526 288.178792 
L 353.270613 287.164027 
L 361.135307 287.164027 
L 362.118393 286.149262 
L 379.813953 286.149262 
L 380.79704 285.134497 
L 382.763214 285.134497 
L 383.7463 284.119732 
L 386.69556 284.119732 
L 387.678647 283.104966 
L 400.458774 283.104966 
L 401.44186 281.075436 
L 403.408034 281.075436 
L 404.391121 280.060671 
L 405.374207 280.060671 
L 406.357294 279.045906 
L 410.289641 279.045906 
L 411.272727 278.031141 
L 418.154334 278.031141 
L 419.137421 276.001611 
L 420.120507 276.001611 
L 421.103594 274.986846 
L 426.019027 274.986846 
L 427.002114 273.972081 
L 431.917548 273.972081 
L 433.883721 271.94255 
L 435.849894 271.94255 
L 436.832981 270.927785 
L 438.799154 270.927785 
L 439.782241 269.91302 
L 440.765328 269.91302 
L 441.748414 268.898255 
L 448.630021 268.898255 
L 449.613108 267.88349 
L 472.224101 267.88349 
L 473.207188 266.868725 
L 478.122622 266.868725 
L 479.105708 265.85396 
L 489.919662 265.85396 
L 490.902748 264.839195 
L 534.158562 264.839195 
L 535.141649 263.82443 
L 541.040169 263.82443 
L 542.023256 262.809664 
L 543.006342 262.809664 
L 543.989429 261.794899 
L 556.769556 261.794899 
L 557.752643 260.780134 
L 576.43129 260.780134 
L 577.414376 259.765369 
L 581.346723 259.765369 
L 582.32981 258.750604 
L 587.245243 258.750604 
L 588.22833 257.735839 
L 594.12685 257.735839 
L 595.109937 256.721074 
L 601.008457 256.721074 
L 601.991543 255.706309 
L 607.890063 255.706309 
L 608.87315 252.662013 
L 609.856237 251.647248 
L 616.737844 251.647248 
L 617.72093 250.632483 
L 622.636364 250.632483 
L 622.636364 250.632483 
" clip-path="url(#pf5d5ebc00a)" style="fill: none; stroke: #1f77b4; stroke-width: 1.5; stroke-linecap: square"/>
   </g>
   <g id="line2d_44">
    <path d="M 115.363636 331.813691 
L 122.245243 331.813691 
L 123.22833 330.798926 
L 126.17759 330.798926 
L 127.160677 329.784161 
L 131.093023 329.784161 
L 132.07611 328.769396 
L 135.02537 328.769396 
L 136.008457 327.754631 
L 136.991543 327.754631 
L 137.97463 326.739866 
L 140.92389 326.739866 
L 141.906977 325.725101 
L 143.87315 325.725101 
L 144.856237 324.710336 
L 145.839323 324.710336 
L 147.805497 322.680805 
L 153.704017 322.680805 
L 154.687104 321.66604 
L 155.67019 321.66604 
L 156.653277 320.651275 
L 157.636364 320.651275 
L 158.61945 318.621745 
L 159.602537 315.57745 
L 160.585624 314.562685 
L 164.51797 314.562685 
L 167.46723 311.518389 
L 170.41649 311.518389 
L 172.382664 309.488859 
L 183.196617 309.488859 
L 184.179704 306.444564 
L 185.162791 306.444564 
L 187.128964 302.385503 
L 189.095137 300.355973 
L 190.078224 300.355973 
L 191.061311 298.326443 
L 198.926004 298.326443 
L 199.909091 296.296913 
L 202.858351 296.296913 
L 203.841438 295.282148 
L 210.723044 295.282148 
L 211.706131 294.267383 
L 223.503171 294.267383 
L 224.486258 293.252617 
L 225.469345 293.252617 
L 226.452431 292.237852 
L 229.401691 292.237852 
L 230.384778 291.223087 
L 242.181818 291.223087 
L 243.164905 290.208322 
L 245.131078 290.208322 
L 247.097252 286.149262 
L 249.063425 286.149262 
L 251.029598 284.119732 
L 252.995772 284.119732 
L 253.978858 283.104966 
L 256.928118 283.104966 
L 257.911205 282.090201 
L 269.708245 282.090201 
L 270.691332 281.075436 
L 285.437632 281.075436 
L 286.420719 280.060671 
L 295.268499 280.060671 
L 296.251586 279.045906 
L 298.217759 279.045906 
L 299.200846 278.031141 
L 302.150106 278.031141 
L 304.116279 276.001611 
L 305.099366 276.001611 
L 306.082452 274.986846 
L 310.014799 274.986846 
L 311.980973 272.957315 
L 316.896406 272.957315 
L 317.879493 271.94255 
L 320.828753 271.94255 
L 321.811839 270.927785 
L 326.727273 270.927785 
L 327.710359 269.91302 
L 332.625793 269.91302 
L 333.608879 268.898255 
L 351.30444 268.898255 
L 352.287526 267.88349 
L 353.270613 267.88349 
L 354.2537 266.868725 
L 364.084567 266.868725 
L 365.067653 264.839195 
L 366.05074 264.839195 
L 367.033827 263.82443 
L 376.864693 263.82443 
L 377.84778 262.809664 
L 381.780127 262.809664 
L 382.763214 261.794899 
L 383.7463 261.794899 
L 384.729387 260.780134 
L 393.577167 260.780134 
L 394.560254 259.765369 
L 414.221987 259.765369 
L 415.205074 256.721074 
L 422.086681 256.721074 
L 423.069767 255.706309 
L 425.035941 255.706309 
L 426.019027 254.691544 
L 437.816068 254.691544 
L 438.799154 253.676779 
L 452.562368 253.676779 
L 453.545455 252.662013 
L 456.494715 252.662013 
L 457.477801 251.647248 
L 465.342495 251.647248 
L 466.325581 249.617718 
L 482.054968 249.617718 
L 483.038055 248.602953 
L 487.953488 248.602953 
L 488.936575 247.588188 
L 503.682875 247.588188 
L 504.665962 246.573423 
L 506.632135 246.573423 
L 507.615222 245.558658 
L 517.446089 245.558658 
L 518.429175 244.543893 
L 529.243129 244.543893 
L 530.226216 243.529128 
L 543.006342 243.529128 
L 543.989429 242.514362 
L 555.786469 242.514362 
L 556.769556 241.499597 
L 563.651163 241.499597 
L 564.634249 240.484832 
L 574.465116 240.484832 
L 577.414376 237.440537 
L 579.38055 237.440537 
L 580.363636 236.425772 
L 581.346723 236.425772 
L 583.312896 234.396242 
L 587.245243 234.396242 
L 588.22833 233.381477 
L 590.194503 233.381477 
L 591.17759 231.351946 
L 592.160677 230.337181 
L 603.957717 230.337181 
L 604.940803 229.322416 
L 613.788584 229.322416 
L 614.77167 228.307651 
L 622.636364 228.307651 
L 622.636364 228.307651 
" clip-path="url(#pf5d5ebc00a)" style="fill: none; stroke: #ff7f0e; stroke-width: 1.5; stroke-linecap: square"/>
   </g>
   <g id="patch_3">
    <path d="M 90 384.48 
L 90 51.84 
" style="fill: none; stroke: #000000; stroke-width: 0.8; stroke-linejoin: miter; stroke-linecap: square"/>
   </g>
   <g id="patch_4">
    <path d="M 648 384.48 
L 648 51.84 
" style="fill: none; stroke: #000000; stroke-width: 0.8; stroke-linejoin: miter; stroke-linecap: square"/>
   </g>
   <g id="patch_5">
    <path d="M 90 384.48 
L 648 384.48 
" style="fill: none; stroke: #000000; stroke-width: 0.8; stroke-linejoin: miter; stroke-linecap: square"/>
   </g>
   <g id="patch_6">
    <path d="M 90 51.84 
L 648 51.84 
" style="fill: none; stroke: #000000; stroke-width: 0.8; stroke-linejoin: miter; stroke-linecap: square"/>
   </g>
   <g id="text_19">
    <!-- Time Series of Votes for Each Keyword -->
    <g transform="translate(253.716563 45.84) scale(0.12 -0.12)">
     <defs>
      <path id="DejaVuSans-53" d="M 3425 4513 
L 3425 3897 
Q 3066 4069 2747 4153 
Q 2428 4238 2131 4238 
Q 1616 4238 1336 4038 
Q 1056 3838 1056 3469 
Q 1056 3159 1242 3001 
Q 1428 2844 1947 2747 
L 2328 2669 
Q 3034 2534 3370 2195 
Q 3706 1856 3706 1288 
Q 3706 609 3251 259 
Q 2797 -91 1919 -91 
Q 1588 -91 1214 -16 
Q 841 59 441 206 
L 441 856 
Q 825 641 1194 531 
Q 1563 422 1919 422 
Q 2459 422 2753 634 
Q 3047 847 3047 1241 
Q 3047 1584 2836 1778 
Q 2625 1972 2144 2069 
L 1759 2144 
Q 1053 2284 737 2584 
Q 422 2884 422 3419 
Q 422 4038 858 4394 
Q 1294 4750 2059 4750 
Q 2388 4750 2728 4690 
Q 3069 4631 3425 4513 
z
" transform="scale(0.015625)"/>
      <path id="DejaVuSans-72" d="M 2631 2963 
Q 2534 3019 2420 3045 
Q 2306 3072 2169 3072 
Q 1681 3072 1420 2755 
Q 1159 2438 1159 1844 
L 1159 0 
L 581 0 
L 581 3500 
L 1159 3500 
L 1159 2956 
Q 1341 3275 1631 3429 
Q 1922 3584 2338 3584 
Q 2397 3584 2469 3576 
Q 2541 3569 2628 3553 
L 2631 2963 
z
" transform="scale(0.015625)"/>
      <path id="DejaVuSans-66" d="M 2375 4863 
L 2375 4384 
L 1825 4384 
Q 1516 4384 1395 4259 
Q 1275 4134 1275 3809 
L 1275 3500 
L 2222 3500 
L 2222 3053 
L 1275 3053 
L 1275 0 
L 697 0 
L 697 3053 
L 147 3053 
L 147 3500 
L 697 3500 
L 697 3744 
Q 697 4328 969 4595 
Q 1241 4863 1831 4863 
L 2375 4863 
z
" transform="scale(0.015625)"/>
      <path id="DejaVuSans-45" d="M 628 4666 
L 3578 4666 
L 3578 4134 
L 1259 4134 
L 1259 2753 
L 3481 2753 
L 3481 2222 
L 1259 2222 
L 1259 531 
L 3634 531 
L 3634 0 
L 628 0 
L 628 4666 
z
" transform="scale(0.015625)"/>
      <path id="DejaVuSans-63" d="M 3122 3366 
L 3122 2828 
Q 2878 2963 2633 3030 
Q 2388 3097 2138 3097 
Q 1578 3097 1268 2742 
Q 959 2388 959 1747 
Q 959 1106 1268 751 
Q 1578 397 2138 397 
Q 2388 397 2633 464 
Q 2878 531 3122 666 
L 3122 134 
Q 2881 22 2623 -34 
Q 2366 -91 2075 -91 
Q 1284 -91 818 406 
Q 353 903 353 1747 
Q 353 2603 823 3093 
Q 1294 3584 2113 3584 
Q 2378 3584 2631 3529 
Q 2884 3475 3122 3366 
z
" transform="scale(0.015625)"/>
      <path id="DejaVuSans-68" d="M 3513 2113 
L 3513 0 
L 2938 0 
L 2938 2094 
Q 2938 2591 2744 2837 
Q 2550 3084 2163 3084 
Q 1697 3084 1428 2787 
Q 1159 2491 1159 1978 
L 1159 0 
L 581 0 
L 581 4863 
L 1159 4863 
L 1159 2956 
Q 1366 3272 1645 3428 
Q 1925 3584 2291 3584 
Q 2894 3584 3203 3211 
Q 3513 2838 3513 2113 
z
" transform="scale(0.015625)"/>
      <path id="DejaVuSans-4b" d="M 628 4666 
L 1259 4666 
L 1259 2694 
L 3353 4666 
L 4166 4666 
L 1850 2491 
L 4331 0 
L 3500 0 
L 1259 2247 
L 1259 0 
L 628 0 
L 628 4666 
z
" transform="scale(0.015625)"/>
      <path id="DejaVuSans-79" d="M 2059 -325 
Q 1816 -950 1584 -1140 
Q 1353 -1331 966 -1331 
L 506 -1331 
L 506 -850 
L 844 -850 
Q 1081 -850 1212 -737 
Q 1344 -625 1503 -206 
L 1606 56 
L 191 3500 
L 800 3500 
L 1894 763 
L 2988 3500 
L 3597 3500 
L 2059 -325 
z
" transform="scale(0.015625)"/>
      <path id="DejaVuSans-77" d="M 269 3500 
L 844 3500 
L 1563 769 
L 2278 3500 
L 2956 3500 
L 3675 769 
L 4391 3500 
L 4966 3500 
L 4050 0 
L 3372 0 
L 2619 2869 
L 1863 0 
L 1184 0 
L 269 3500 
z
" transform="scale(0.015625)"/>
     </defs>
     <use xlink:href="#DejaVuSans-54"/>
     <use xlink:href="#DejaVuSans-69" transform="translate(57.958984 0)"/>
     <use xlink:href="#DejaVuSans-6d" transform="translate(85.742188 0)"/>
     <use xlink:href="#DejaVuSans-65" transform="translate(183.154297 0)"/>
     <use xlink:href="#DejaVuSans-20" transform="translate(244.677734 0)"/>
     <use xlink:href="#DejaVuSans-53" transform="translate(276.464844 0)"/>
     <use xlink:href="#DejaVuSans-65" transform="translate(339.941406 0)"/>
     <use xlink:href="#DejaVuSans-72" transform="translate(401.464844 0)"/>
     <use xlink:href="#DejaVuSans-69" transform="translate(442.578125 0)"/>
     <use xlink:href="#DejaVuSans-65" transform="translate(470.361328 0)"/>
     <use xlink:href="#DejaVuSans-73" transform="translate(531.884766 0)"/>
     <use xlink:href="#DejaVuSans-20" transform="translate(583.984375 0)"/>
     <use xlink:href="#DejaVuSans-6f" transform="translate(615.771484 0)"/>
     <use xlink:href="#DejaVuSans-66" transform="translate(676.953125 0)"/>
     <use xlink:href="#DejaVuSans-20" transform="translate(712.158203 0)"/>
     <use xlink:href="#DejaVuSans-56" transform="translate(743.945312 0)"/>
     <use xlink:href="#DejaVuSans-6f" transform="translate(804.603516 0)"/>
     <use xlink:href="#DejaVuSans-74" transform="translate(865.785156 0)"/>
     <use xlink:href="#DejaVuSans-65" transform="translate(904.994141 0)"/>
     <use xlink:href="#DejaVuSans-73" transform="translate(966.517578 0)"/>
     <use xlink:href="#DejaVuSans-20" transform="translate(1018.617188 0)"/>
     <use xlink:href="#DejaVuSans-66" transform="translate(1050.404297 0)"/>
     <use xlink:href="#DejaVuSans-6f" transform="translate(1085.609375 0)"/>
     <use xlink:href="#DejaVuSans-72" transform="translate(1146.791016 0)"/>
     <use xlink:href="#DejaVuSans-20" transform="translate(1187.904297 0)"/>
     <use xlink:href="#DejaVuSans-45" transform="translate(1219.691406 0)"/>
     <use xlink:href="#DejaVuSans-61" transform="translate(1282.875 0)"/>
     <use xlink:href="#DejaVuSans-63" transform="translate(1344.154297 0)"/>
     <use xlink:href="#DejaVuSans-68" transform="translate(1399.134766 0)"/>
     <use xlink:href="#DejaVuSans-20" transform="translate(1462.513672 0)"/>
     <use xlink:href="#DejaVuSans-4b" transform="translate(1494.300781 0)"/>
     <use xlink:href="#DejaVuSans-65" transform="translate(1554.876953 0)"/>
     <use xlink:href="#DejaVuSans-79" transform="translate(1616.400391 0)"/>
     <use xlink:href="#DejaVuSans-77" transform="translate(1675.580078 0)"/>
     <use xlink:href="#DejaVuSans-6f" transform="translate(1757.367188 0)"/>
     <use xlink:href="#DejaVuSans-72" transform="translate(1818.548828 0)"/>
     <use xlink:href="#DejaVuSans-64" transform="translate(1857.912109 0)"/>
    </g>
   </g>
   <g id="legend_1">
    <g id="patch_7">
     <path d="M 97 235.9775 
L 149.245313 235.9775 
Q 151.245313 235.9775 151.245313 233.9775 
L 151.245313 58.84 
Q 151.245313 56.84 149.245313 56.84 
L 97 56.84 
Q 95 56.84 95 58.84 
L 95 233.9775 
Q 95 235.9775 97 235.9775 
z
" style="fill: #ffffff; opacity: 0.8; stroke: #cccccc; stroke-linejoin: miter"/>
    </g>
    <g id="line2d_45">
     <path d="M 99 64.938437 
L 109 64.938437 
L 119 64.938437 
" style="fill: none; stroke: #1f77b4; stroke-width: 1.5; stroke-linecap: square"/>
    </g>
    <g id="text_20">
     <!-- H01 -->
     <g transform="translate(127 68.438437) scale(0.1 -0.1)">
      <defs>
       <path id="DejaVuSans-48" d="M 628 4666 
L 1259 4666 
L 1259 2753 
L 3553 2753 
L 3553 4666 
L 4184 4666 
L 4184 0 
L 3553 0 
L 3553 2222 
L 1259 2222 
L 1259 0 
L 628 0 
L 628 4666 
z
" transform="scale(0.015625)"/>
      </defs>
      <use xlink:href="#DejaVuSans-48"/>
      <use xlink:href="#DejaVuSans-30" transform="translate(75.195312 0)"/>
      <use xlink:href="#DejaVuSans-31" transform="translate(138.818359 0)"/>
     </g>
    </g>
    <g id="line2d_46">
     <path d="M 99 79.616562 
L 109 79.616562 
L 119 79.616562 
" style="fill: none; stroke: #ff7f0e; stroke-width: 1.5; stroke-linecap: square"/>
    </g>
    <g id="text_21">
     <!-- H02 -->
     <g transform="translate(127 83.116562) scale(0.1 -0.1)">
      <use xlink:href="#DejaVuSans-48"/>
      <use xlink:href="#DejaVuSans-30" transform="translate(75.195312 0)"/>
      <use xlink:href="#DejaVuSans-32" transform="translate(138.818359 0)"/>
     </g>
    </g>
    <g id="line2d_47">
     <path d="M 99 94.294688 
L 109 94.294688 
L 119 94.294688 
" style="fill: none; stroke: #2ca02c; stroke-width: 1.5; stroke-linecap: square"/>
    </g>
    <g id="text_22">
     <!-- H03 -->
     <g transform="translate(127 97.794688) scale(0.1 -0.1)">
      <use xlink:href="#DejaVuSans-48"/>
      <use xlink:href="#DejaVuSans-30" transform="translate(75.195312 0)"/>
      <use xlink:href="#DejaVuSans-33" transform="translate(138.818359 0)"/>
     </g>
    </g>
    <g id="line2d_48">
     <path d="M 99 108.972812 
L 109 108.972812 
L 119 108.972812 
" style="fill: none; stroke: #d62728; stroke-width: 1.5; stroke-linecap: square"/>
    </g>
    <g id="text_23">
     <!-- H04 -->
     <g transform="translate(127 112.472812) scale(0.1 -0.1)">
      <use xlink:href="#DejaVuSans-48"/>
      <use xlink:href="#DejaVuSans-30" transform="translate(75.195312 0)"/>
      <use xlink:href="#DejaVuSans-34" transform="translate(138.818359 0)"/>
     </g>
    </g>
    <g id="line2d_49">
     <path d="M 99 123.650937 
L 109 123.650937 
L 119 123.650937 
" style="fill: none; stroke: #9467bd; stroke-width: 1.5; stroke-linecap: square"/>
    </g>
    <g id="text_24">
     <!-- H05 -->
     <g transform="translate(127 127.150937) scale(0.1 -0.1)">
      <use xlink:href="#DejaVuSans-48"/>
      <use xlink:href="#DejaVuSans-30" transform="translate(75.195312 0)"/>
      <use xlink:href="#DejaVuSans-35" transform="translate(138.818359 0)"/>
     </g>
    </g>
    <g id="line2d_50">
     <path d="M 99 138.329062 
L 109 138.329062 
L 119 138.329062 
" style="fill: none; stroke: #8c564b; stroke-width: 1.5; stroke-linecap: square"/>
    </g>
    <g id="text_25">
     <!-- H06 -->
     <g transform="translate(127 141.829062) scale(0.1 -0.1)">
      <use xlink:href="#DejaVuSans-48"/>
      <use xlink:href="#DejaVuSans-30" transform="translate(75.195312 0)"/>
      <use xlink:href="#DejaVuSans-36" transform="translate(138.818359 0)"/>
     </g>
    </g>
    <g id="line2d_51">
     <path d="M 99 153.007187 
L 109 153.007187 
L 119 153.007187 
" style="fill: none; stroke: #e377c2; stroke-width: 1.5; stroke-linecap: square"/>
    </g>
    <g id="text_26">
     <!-- H07 -->
     <g transform="translate(127 156.507187) scale(0.1 -0.1)">
      <use xlink:href="#DejaVuSans-48"/>
      <use xlink:href="#DejaVuSans-30" transform="translate(75.195312 0)"/>
      <use xlink:href="#DejaVuSans-37" transform="translate(138.818359 0)"/>
     </g>
    </g>
    <g id="line2d_52">
     <path d="M 99 167.685312 
L 109 167.685312 
L 119 167.685312 
" style="fill: none; stroke: #7f7f7f; stroke-width: 1.5; stroke-linecap: square"/>
    </g>
    <g id="text_27">
     <!-- H08 -->
     <g transform="translate(127 171.185312) scale(0.1 -0.1)">
      <use xlink:href="#DejaVuSans-48"/>
      <use xlink:href="#DejaVuSans-30" transform="translate(75.195312 0)"/>
      <use xlink:href="#DejaVuSans-38" transform="translate(138.818359 0)"/>
     </g>
    </g>
    <g id="line2d_53">
     <path d="M 99 182.363437 
L 109 182.363437 
L 119 182.363437 
" style="fill: none; stroke: #bcbd22; stroke-width: 1.5; stroke-linecap: square"/>
    </g>
    <g id="text_28">
     <!-- H09 -->
     <g transform="translate(127 185.863437) scale(0.1 -0.1)">
      <use xlink:href="#DejaVuSans-48"/>
      <use xlink:href="#DejaVuSans-30" transform="translate(75.195312 0)"/>
      <use xlink:href="#DejaVuSans-39" transform="translate(138.818359 0)"/>
     </g>
    </g>
    <g id="line2d_54">
     <path d="M 99 197.041562 
L 109 197.041562 
L 119 197.041562 
" style="fill: none; stroke: #17becf; stroke-width: 1.5; stroke-linecap: square"/>
    </g>
    <g id="text_29">
     <!-- H10 -->
     <g transform="translate(127 200.541562) scale(0.1 -0.1)">
      <use xlink:href="#DejaVuSans-48"/>
      <use xlink:href="#DejaVuSans-31" transform="translate(75.195312 0)"/>
      <use xlink:href="#DejaVuSans-30" transform="translate(138.818359 0)"/>
     </g>
    </g>
    <g id="line2d_55">
     <path d="M 99 211.719687 
L 109 211.719687 
L 119 211.719687 
" style="fill: none; stroke: #1f77b4; stroke-width: 1.5; stroke-linecap: square"/>
    </g>
    <g id="text_30">
     <!-- H11 -->
     <g transform="translate(127 215.219687) scale(0.1 -0.1)">
      <use xlink:href="#DejaVuSans-48"/>
      <use xlink:href="#DejaVuSans-31" transform="translate(75.195312 0)"/>
      <use xlink:href="#DejaVuSans-31" transform="translate(138.818359 0)"/>
     </g>
    </g>
    <g id="line2d_56">
     <path d="M 99 226.397812 
L 109 226.397812 
L 119 226.397812 
" style="fill: none; stroke: #ff7f0e; stroke-width: 1.5; stroke-linecap: square"/>
    </g>
    <g id="text_31">
     <!-- H12 -->
     <g transform="translate(127 229.897812) scale(0.1 -0.1)">
      <use xlink:href="#DejaVuSans-48"/>
      <use xlink:href="#DejaVuSans-31" transform="translate(75.195312 0)"/>
      <use xlink:href="#DejaVuSans-32" transform="translate(138.818359 0)"/>
     </g>
    </g>
   </g>
  </g>
 </g>
 <defs>
  <clipPath id="pf5d5ebc00a">
   <rect x="90" y="51.84" width="558" height="332.64"/>
  </clipPath>
 </defs>
</svg>
