<?xml version="1.0" encoding="utf-8" standalone="no"?>
<!DOCTYPE svg PUBLIC "-//W3C//DTD SVG 1.1//EN"
  "http://www.w3.org/Graphics/SVG/1.1/DTD/svg11.dtd">
<svg xmlns:xlink="http://www.w3.org/1999/xlink" width="720pt" height="432pt" viewBox="0 0 720 432" xmlns="http://www.w3.org/2000/svg" version="1.1">
 <metadata>
  <rdf:RDF xmlns:dc="http://purl.org/dc/elements/1.1/" xmlns:cc="http://creativecommons.org/ns#" xmlns:rdf="http://www.w3.org/1999/02/22-rdf-syntax-ns#">
   <cc:Work>
    <dc:type rdf:resource="http://purl.org/dc/dcmitype/StillImage"/>
    <dc:date>2025-01-14T21:28:45.995775</dc:date>
    <dc:format>image/svg+xml</dc:format>
    <dc:creator>
     <cc:Agent>
      <dc:title>Matplotlib v3.10.0, https://matplotlib.org/</dc:title>
     </cc:Agent>
    </dc:creator>
   </cc:Work>
  </rdf:RDF>
 </metadata>
 <defs>
  <style type="text/css">*{stroke-linejoin: round; stroke-linecap: butt}</style>
 </defs>
 <g id="figure_1">
  <g id="patch_1">
   <path d="M 0 432 
L 720 432 
L 720 0 
L 0 0 
z
" style="fill: #ffffff"/>
  </g>
  <g id="axes_1">
   <g id="patch_2">
    <path d="M 90 384.48 
L 648 384.48 
L 648 51.84 
L 90 51.84 
z
" style="fill: #ffffff"/>
   </g>
   <g id="matplotlib.axis_1">
    <g id="xtick_1">
     <g id="line2d_1">
      <path d="M 144.258918 384.48 
L 144.258918 51.84 
" clip-path="url(#p0069f372ab)" style="fill: none; stroke: #b0b0b0; stroke-width: 0.8; stroke-linecap: square"/>
     </g>
     <g id="line2d_2">
      <defs>
       <path id="mbf11f63cc8" d="M 0 0 
L 0 3.5 
" style="stroke: #000000; stroke-width: 0.8"/>
      </defs>
      <g>
       <use xlink:href="#mbf11f63cc8" x="144.258918" y="384.48" style="stroke: #000000; stroke-width: 0.8"/>
      </g>
     </g>
     <g id="text_1">
      <!-- 01-14 14 -->
      <g transform="translate(121.77845 399.078438) scale(0.1 -0.1)">
       <defs>
        <path id="DejaVuSans-30" d="M 2034 4250 
Q 1547 4250 1301 3770 
Q 1056 3291 1056 2328 
Q 1056 1369 1301 889 
Q 1547 409 2034 409 
Q 2525 409 2770 889 
Q 3016 1369 3016 2328 
Q 3016 3291 2770 3770 
Q 2525 4250 2034 4250 
z
M 2034 4750 
Q 2819 4750 3233 4129 
Q 3647 3509 3647 2328 
Q 3647 1150 3233 529 
Q 2819 -91 2034 -91 
Q 1250 -91 836 529 
Q 422 1150 422 2328 
Q 422 3509 836 4129 
Q 1250 4750 2034 4750 
z
" transform="scale(0.015625)"/>
        <path id="DejaVuSans-31" d="M 794 531 
L 1825 531 
L 1825 4091 
L 703 3866 
L 703 4441 
L 1819 4666 
L 2450 4666 
L 2450 531 
L 3481 531 
L 3481 0 
L 794 0 
L 794 531 
z
" transform="scale(0.015625)"/>
        <path id="DejaVuSans-2d" d="M 313 2009 
L 1997 2009 
L 1997 1497 
L 313 1497 
L 313 2009 
z
" transform="scale(0.015625)"/>
        <path id="DejaVuSans-34" d="M 2419 4116 
L 825 1625 
L 2419 1625 
L 2419 4116 
z
M 2253 4666 
L 3047 4666 
L 3047 1625 
L 3713 1625 
L 3713 1100 
L 3047 1100 
L 3047 0 
L 2419 0 
L 2419 1100 
L 313 1100 
L 313 1709 
L 2253 4666 
z
" transform="scale(0.015625)"/>
        <path id="DejaVuSans-20" transform="scale(0.015625)"/>
       </defs>
       <use xlink:href="#DejaVuSans-30"/>
       <use xlink:href="#DejaVuSans-31" transform="translate(63.623047 0)"/>
       <use xlink:href="#DejaVuSans-2d" transform="translate(127.246094 0)"/>
       <use xlink:href="#DejaVuSans-31" transform="translate(163.330078 0)"/>
       <use xlink:href="#DejaVuSans-34" transform="translate(226.953125 0)"/>
       <use xlink:href="#DejaVuSans-20" transform="translate(290.576172 0)"/>
       <use xlink:href="#DejaVuSans-31" transform="translate(322.363281 0)"/>
       <use xlink:href="#DejaVuSans-34" transform="translate(385.986328 0)"/>
      </g>
     </g>
    </g>
    <g id="xtick_2">
     <g id="line2d_3">
      <path d="M 208.470656 384.48 
L 208.470656 51.84 
" clip-path="url(#p0069f372ab)" style="fill: none; stroke: #b0b0b0; stroke-width: 0.8; stroke-linecap: square"/>
     </g>
     <g id="line2d_4">
      <g>
       <use xlink:href="#mbf11f63cc8" x="208.470656" y="384.48" style="stroke: #000000; stroke-width: 0.8"/>
      </g>
     </g>
     <g id="text_2">
      <!-- 01-14 15 -->
      <g transform="translate(185.990187 399.078438) scale(0.1 -0.1)">
       <defs>
        <path id="DejaVuSans-35" d="M 691 4666 
L 3169 4666 
L 3169 4134 
L 1269 4134 
L 1269 2991 
Q 1406 3038 1543 3061 
Q 1681 3084 1819 3084 
Q 2600 3084 3056 2656 
Q 3513 2228 3513 1497 
Q 3513 744 3044 326 
Q 2575 -91 1722 -91 
Q 1428 -91 1123 -41 
Q 819 9 494 109 
L 494 744 
Q 775 591 1075 516 
Q 1375 441 1709 441 
Q 2250 441 2565 725 
Q 2881 1009 2881 1497 
Q 2881 1984 2565 2268 
Q 2250 2553 1709 2553 
Q 1456 2553 1204 2497 
Q 953 2441 691 2322 
L 691 4666 
z
" transform="scale(0.015625)"/>
       </defs>
       <use xlink:href="#DejaVuSans-30"/>
       <use xlink:href="#DejaVuSans-31" transform="translate(63.623047 0)"/>
       <use xlink:href="#DejaVuSans-2d" transform="translate(127.246094 0)"/>
       <use xlink:href="#DejaVuSans-31" transform="translate(163.330078 0)"/>
       <use xlink:href="#DejaVuSans-34" transform="translate(226.953125 0)"/>
       <use xlink:href="#DejaVuSans-20" transform="translate(290.576172 0)"/>
       <use xlink:href="#DejaVuSans-31" transform="translate(322.363281 0)"/>
       <use xlink:href="#DejaVuSans-35" transform="translate(385.986328 0)"/>
      </g>
     </g>
    </g>
    <g id="xtick_3">
     <g id="line2d_5">
      <path d="M 272.682394 384.48 
L 272.682394 51.84 
" clip-path="url(#p0069f372ab)" style="fill: none; stroke: #b0b0b0; stroke-width: 0.8; stroke-linecap: square"/>
     </g>
     <g id="line2d_6">
      <g>
       <use xlink:href="#mbf11f63cc8" x="272.682394" y="384.48" style="stroke: #000000; stroke-width: 0.8"/>
      </g>
     </g>
     <g id="text_3">
      <!-- 01-14 16 -->
      <g transform="translate(250.201925 399.078438) scale(0.1 -0.1)">
       <defs>
        <path id="DejaVuSans-36" d="M 2113 2584 
Q 1688 2584 1439 2293 
Q 1191 2003 1191 1497 
Q 1191 994 1439 701 
Q 1688 409 2113 409 
Q 2538 409 2786 701 
Q 3034 994 3034 1497 
Q 3034 2003 2786 2293 
Q 2538 2584 2113 2584 
z
M 3366 4563 
L 3366 3988 
Q 3128 4100 2886 4159 
Q 2644 4219 2406 4219 
Q 1781 4219 1451 3797 
Q 1122 3375 1075 2522 
Q 1259 2794 1537 2939 
Q 1816 3084 2150 3084 
Q 2853 3084 3261 2657 
Q 3669 2231 3669 1497 
Q 3669 778 3244 343 
Q 2819 -91 2113 -91 
Q 1303 -91 875 529 
Q 447 1150 447 2328 
Q 447 3434 972 4092 
Q 1497 4750 2381 4750 
Q 2619 4750 2861 4703 
Q 3103 4656 3366 4563 
z
" transform="scale(0.015625)"/>
       </defs>
       <use xlink:href="#DejaVuSans-30"/>
       <use xlink:href="#DejaVuSans-31" transform="translate(63.623047 0)"/>
       <use xlink:href="#DejaVuSans-2d" transform="translate(127.246094 0)"/>
       <use xlink:href="#DejaVuSans-31" transform="translate(163.330078 0)"/>
       <use xlink:href="#DejaVuSans-34" transform="translate(226.953125 0)"/>
       <use xlink:href="#DejaVuSans-20" transform="translate(290.576172 0)"/>
       <use xlink:href="#DejaVuSans-31" transform="translate(322.363281 0)"/>
       <use xlink:href="#DejaVuSans-36" transform="translate(385.986328 0)"/>
      </g>
     </g>
    </g>
    <g id="xtick_4">
     <g id="line2d_7">
      <path d="M 336.894131 384.48 
L 336.894131 51.84 
" clip-path="url(#p0069f372ab)" style="fill: none; stroke: #b0b0b0; stroke-width: 0.8; stroke-linecap: square"/>
     </g>
     <g id="line2d_8">
      <g>
       <use xlink:href="#mbf11f63cc8" x="336.894131" y="384.48" style="stroke: #000000; stroke-width: 0.8"/>
      </g>
     </g>
     <g id="text_4">
      <!-- 01-14 17 -->
      <g transform="translate(314.413662 399.078438) scale(0.1 -0.1)">
       <defs>
        <path id="DejaVuSans-37" d="M 525 4666 
L 3525 4666 
L 3525 4397 
L 1831 0 
L 1172 0 
L 2766 4134 
L 525 4134 
L 525 4666 
z
" transform="scale(0.015625)"/>
       </defs>
       <use xlink:href="#DejaVuSans-30"/>
       <use xlink:href="#DejaVuSans-31" transform="translate(63.623047 0)"/>
       <use xlink:href="#DejaVuSans-2d" transform="translate(127.246094 0)"/>
       <use xlink:href="#DejaVuSans-31" transform="translate(163.330078 0)"/>
       <use xlink:href="#DejaVuSans-34" transform="translate(226.953125 0)"/>
       <use xlink:href="#DejaVuSans-20" transform="translate(290.576172 0)"/>
       <use xlink:href="#DejaVuSans-31" transform="translate(322.363281 0)"/>
       <use xlink:href="#DejaVuSans-37" transform="translate(385.986328 0)"/>
      </g>
     </g>
    </g>
    <g id="xtick_5">
     <g id="line2d_9">
      <path d="M 401.105869 384.48 
L 401.105869 51.84 
" clip-path="url(#p0069f372ab)" style="fill: none; stroke: #b0b0b0; stroke-width: 0.8; stroke-linecap: square"/>
     </g>
     <g id="line2d_10">
      <g>
       <use xlink:href="#mbf11f63cc8" x="401.105869" y="384.48" style="stroke: #000000; stroke-width: 0.8"/>
      </g>
     </g>
     <g id="text_5">
      <!-- 01-14 18 -->
      <g transform="translate(378.6254 399.078438) scale(0.1 -0.1)">
       <defs>
        <path id="DejaVuSans-38" d="M 2034 2216 
Q 1584 2216 1326 1975 
Q 1069 1734 1069 1313 
Q 1069 891 1326 650 
Q 1584 409 2034 409 
Q 2484 409 2743 651 
Q 3003 894 3003 1313 
Q 3003 1734 2745 1975 
Q 2488 2216 2034 2216 
z
M 1403 2484 
Q 997 2584 770 2862 
Q 544 3141 544 3541 
Q 544 4100 942 4425 
Q 1341 4750 2034 4750 
Q 2731 4750 3128 4425 
Q 3525 4100 3525 3541 
Q 3525 3141 3298 2862 
Q 3072 2584 2669 2484 
Q 3125 2378 3379 2068 
Q 3634 1759 3634 1313 
Q 3634 634 3220 271 
Q 2806 -91 2034 -91 
Q 1263 -91 848 271 
Q 434 634 434 1313 
Q 434 1759 690 2068 
Q 947 2378 1403 2484 
z
M 1172 3481 
Q 1172 3119 1398 2916 
Q 1625 2713 2034 2713 
Q 2441 2713 2670 2916 
Q 2900 3119 2900 3481 
Q 2900 3844 2670 4047 
Q 2441 4250 2034 4250 
Q 1625 4250 1398 4047 
Q 1172 3844 1172 3481 
z
" transform="scale(0.015625)"/>
       </defs>
       <use xlink:href="#DejaVuSans-30"/>
       <use xlink:href="#DejaVuSans-31" transform="translate(63.623047 0)"/>
       <use xlink:href="#DejaVuSans-2d" transform="translate(127.246094 0)"/>
       <use xlink:href="#DejaVuSans-31" transform="translate(163.330078 0)"/>
       <use xlink:href="#DejaVuSans-34" transform="translate(226.953125 0)"/>
       <use xlink:href="#DejaVuSans-20" transform="translate(290.576172 0)"/>
       <use xlink:href="#DejaVuSans-31" transform="translate(322.363281 0)"/>
       <use xlink:href="#DejaVuSans-38" transform="translate(385.986328 0)"/>
      </g>
     </g>
    </g>
    <g id="xtick_6">
     <g id="line2d_11">
      <path d="M 465.317606 384.48 
L 465.317606 51.84 
" clip-path="url(#p0069f372ab)" style="fill: none; stroke: #b0b0b0; stroke-width: 0.8; stroke-linecap: square"/>
     </g>
     <g id="line2d_12">
      <g>
       <use xlink:href="#mbf11f63cc8" x="465.317606" y="384.48" style="stroke: #000000; stroke-width: 0.8"/>
      </g>
     </g>
     <g id="text_6">
      <!-- 01-14 19 -->
      <g transform="translate(442.837138 399.078438) scale(0.1 -0.1)">
       <defs>
        <path id="DejaVuSans-39" d="M 703 97 
L 703 672 
Q 941 559 1184 500 
Q 1428 441 1663 441 
Q 2288 441 2617 861 
Q 2947 1281 2994 2138 
Q 2813 1869 2534 1725 
Q 2256 1581 1919 1581 
Q 1219 1581 811 2004 
Q 403 2428 403 3163 
Q 403 3881 828 4315 
Q 1253 4750 1959 4750 
Q 2769 4750 3195 4129 
Q 3622 3509 3622 2328 
Q 3622 1225 3098 567 
Q 2575 -91 1691 -91 
Q 1453 -91 1209 -44 
Q 966 3 703 97 
z
M 1959 2075 
Q 2384 2075 2632 2365 
Q 2881 2656 2881 3163 
Q 2881 3666 2632 3958 
Q 2384 4250 1959 4250 
Q 1534 4250 1286 3958 
Q 1038 3666 1038 3163 
Q 1038 2656 1286 2365 
Q 1534 2075 1959 2075 
z
" transform="scale(0.015625)"/>
       </defs>
       <use xlink:href="#DejaVuSans-30"/>
       <use xlink:href="#DejaVuSans-31" transform="translate(63.623047 0)"/>
       <use xlink:href="#DejaVuSans-2d" transform="translate(127.246094 0)"/>
       <use xlink:href="#DejaVuSans-31" transform="translate(163.330078 0)"/>
       <use xlink:href="#DejaVuSans-34" transform="translate(226.953125 0)"/>
       <use xlink:href="#DejaVuSans-20" transform="translate(290.576172 0)"/>
       <use xlink:href="#DejaVuSans-31" transform="translate(322.363281 0)"/>
       <use xlink:href="#DejaVuSans-39" transform="translate(385.986328 0)"/>
      </g>
     </g>
    </g>
    <g id="xtick_7">
     <g id="line2d_13">
      <path d="M 529.529344 384.48 
L 529.529344 51.84 
" clip-path="url(#p0069f372ab)" style="fill: none; stroke: #b0b0b0; stroke-width: 0.8; stroke-linecap: square"/>
     </g>
     <g id="line2d_14">
      <g>
       <use xlink:href="#mbf11f63cc8" x="529.529344" y="384.48" style="stroke: #000000; stroke-width: 0.8"/>
      </g>
     </g>
     <g id="text_7">
      <!-- 01-14 20 -->
      <g transform="translate(507.048875 399.078438) scale(0.1 -0.1)">
       <defs>
        <path id="DejaVuSans-32" d="M 1228 531 
L 3431 531 
L 3431 0 
L 469 0 
L 469 531 
Q 828 903 1448 1529 
Q 2069 2156 2228 2338 
Q 2531 2678 2651 2914 
Q 2772 3150 2772 3378 
Q 2772 3750 2511 3984 
Q 2250 4219 1831 4219 
Q 1534 4219 1204 4116 
Q 875 4013 500 3803 
L 500 4441 
Q 881 4594 1212 4672 
Q 1544 4750 1819 4750 
Q 2544 4750 2975 4387 
Q 3406 4025 3406 3419 
Q 3406 3131 3298 2873 
Q 3191 2616 2906 2266 
Q 2828 2175 2409 1742 
Q 1991 1309 1228 531 
z
" transform="scale(0.015625)"/>
       </defs>
       <use xlink:href="#DejaVuSans-30"/>
       <use xlink:href="#DejaVuSans-31" transform="translate(63.623047 0)"/>
       <use xlink:href="#DejaVuSans-2d" transform="translate(127.246094 0)"/>
       <use xlink:href="#DejaVuSans-31" transform="translate(163.330078 0)"/>
       <use xlink:href="#DejaVuSans-34" transform="translate(226.953125 0)"/>
       <use xlink:href="#DejaVuSans-20" transform="translate(290.576172 0)"/>
       <use xlink:href="#DejaVuSans-32" transform="translate(322.363281 0)"/>
       <use xlink:href="#DejaVuSans-30" transform="translate(385.986328 0)"/>
      </g>
     </g>
    </g>
    <g id="xtick_8">
     <g id="line2d_15">
      <path d="M 593.741082 384.48 
L 593.741082 51.84 
" clip-path="url(#p0069f372ab)" style="fill: none; stroke: #b0b0b0; stroke-width: 0.8; stroke-linecap: square"/>
     </g>
     <g id="line2d_16">
      <g>
       <use xlink:href="#mbf11f63cc8" x="593.741082" y="384.48" style="stroke: #000000; stroke-width: 0.8"/>
      </g>
     </g>
     <g id="text_8">
      <!-- 01-14 21 -->
      <g transform="translate(571.260613 399.078438) scale(0.1 -0.1)">
       <use xlink:href="#DejaVuSans-30"/>
       <use xlink:href="#DejaVuSans-31" transform="translate(63.623047 0)"/>
       <use xlink:href="#DejaVuSans-2d" transform="translate(127.246094 0)"/>
       <use xlink:href="#DejaVuSans-31" transform="translate(163.330078 0)"/>
       <use xlink:href="#DejaVuSans-34" transform="translate(226.953125 0)"/>
       <use xlink:href="#DejaVuSans-20" transform="translate(290.576172 0)"/>
       <use xlink:href="#DejaVuSans-32" transform="translate(322.363281 0)"/>
       <use xlink:href="#DejaVuSans-31" transform="translate(385.986328 0)"/>
      </g>
     </g>
    </g>
    <g id="text_9">
     <!-- Date and Time -->
     <g transform="translate(332.230469 412.756563) scale(0.1 -0.1)">
      <defs>
       <path id="DejaVuSans-44" d="M 1259 4147 
L 1259 519 
L 2022 519 
Q 2988 519 3436 956 
Q 3884 1394 3884 2338 
Q 3884 3275 3436 3711 
Q 2988 4147 2022 4147 
L 1259 4147 
z
M 628 4666 
L 1925 4666 
Q 3281 4666 3915 4102 
Q 4550 3538 4550 2338 
Q 4550 1131 3912 565 
Q 3275 0 1925 0 
L 628 0 
L 628 4666 
z
" transform="scale(0.015625)"/>
       <path id="DejaVuSans-61" d="M 2194 1759 
Q 1497 1759 1228 1600 
Q 959 1441 959 1056 
Q 959 750 1161 570 
Q 1363 391 1709 391 
Q 2188 391 2477 730 
Q 2766 1069 2766 1631 
L 2766 1759 
L 2194 1759 
z
M 3341 1997 
L 3341 0 
L 2766 0 
L 2766 531 
Q 2569 213 2275 61 
Q 1981 -91 1556 -91 
Q 1019 -91 701 211 
Q 384 513 384 1019 
Q 384 1609 779 1909 
Q 1175 2209 1959 2209 
L 2766 2209 
L 2766 2266 
Q 2766 2663 2505 2880 
Q 2244 3097 1772 3097 
Q 1472 3097 1187 3025 
Q 903 2953 641 2809 
L 641 3341 
Q 956 3463 1253 3523 
Q 1550 3584 1831 3584 
Q 2591 3584 2966 3190 
Q 3341 2797 3341 1997 
z
" transform="scale(0.015625)"/>
       <path id="DejaVuSans-74" d="M 1172 4494 
L 1172 3500 
L 2356 3500 
L 2356 3053 
L 1172 3053 
L 1172 1153 
Q 1172 725 1289 603 
Q 1406 481 1766 481 
L 2356 481 
L 2356 0 
L 1766 0 
Q 1100 0 847 248 
Q 594 497 594 1153 
L 594 3053 
L 172 3053 
L 172 3500 
L 594 3500 
L 594 4494 
L 1172 4494 
z
" transform="scale(0.015625)"/>
       <path id="DejaVuSans-65" d="M 3597 1894 
L 3597 1613 
L 953 1613 
Q 991 1019 1311 708 
Q 1631 397 2203 397 
Q 2534 397 2845 478 
Q 3156 559 3463 722 
L 3463 178 
Q 3153 47 2828 -22 
Q 2503 -91 2169 -91 
Q 1331 -91 842 396 
Q 353 884 353 1716 
Q 353 2575 817 3079 
Q 1281 3584 2069 3584 
Q 2775 3584 3186 3129 
Q 3597 2675 3597 1894 
z
M 3022 2063 
Q 3016 2534 2758 2815 
Q 2500 3097 2075 3097 
Q 1594 3097 1305 2825 
Q 1016 2553 972 2059 
L 3022 2063 
z
" transform="scale(0.015625)"/>
       <path id="DejaVuSans-6e" d="M 3513 2113 
L 3513 0 
L 2938 0 
L 2938 2094 
Q 2938 2591 2744 2837 
Q 2550 3084 2163 3084 
Q 1697 3084 1428 2787 
Q 1159 2491 1159 1978 
L 1159 0 
L 581 0 
L 581 3500 
L 1159 3500 
L 1159 2956 
Q 1366 3272 1645 3428 
Q 1925 3584 2291 3584 
Q 2894 3584 3203 3211 
Q 3513 2838 3513 2113 
z
" transform="scale(0.015625)"/>
       <path id="DejaVuSans-64" d="M 2906 2969 
L 2906 4863 
L 3481 4863 
L 3481 0 
L 2906 0 
L 2906 525 
Q 2725 213 2448 61 
Q 2172 -91 1784 -91 
Q 1150 -91 751 415 
Q 353 922 353 1747 
Q 353 2572 751 3078 
Q 1150 3584 1784 3584 
Q 2172 3584 2448 3432 
Q 2725 3281 2906 2969 
z
M 947 1747 
Q 947 1113 1208 752 
Q 1469 391 1925 391 
Q 2381 391 2643 752 
Q 2906 1113 2906 1747 
Q 2906 2381 2643 2742 
Q 2381 3103 1925 3103 
Q 1469 3103 1208 2742 
Q 947 2381 947 1747 
z
" transform="scale(0.015625)"/>
       <path id="DejaVuSans-54" d="M -19 4666 
L 3928 4666 
L 3928 4134 
L 2272 4134 
L 2272 0 
L 1638 0 
L 1638 4134 
L -19 4134 
L -19 4666 
z
" transform="scale(0.015625)"/>
       <path id="DejaVuSans-69" d="M 603 3500 
L 1178 3500 
L 1178 0 
L 603 0 
L 603 3500 
z
M 603 4863 
L 1178 4863 
L 1178 4134 
L 603 4134 
L 603 4863 
z
" transform="scale(0.015625)"/>
       <path id="DejaVuSans-6d" d="M 3328 2828 
Q 3544 3216 3844 3400 
Q 4144 3584 4550 3584 
Q 5097 3584 5394 3201 
Q 5691 2819 5691 2113 
L 5691 0 
L 5113 0 
L 5113 2094 
Q 5113 2597 4934 2840 
Q 4756 3084 4391 3084 
Q 3944 3084 3684 2787 
Q 3425 2491 3425 1978 
L 3425 0 
L 2847 0 
L 2847 2094 
Q 2847 2600 2669 2842 
Q 2491 3084 2119 3084 
Q 1678 3084 1418 2786 
Q 1159 2488 1159 1978 
L 1159 0 
L 581 0 
L 581 3500 
L 1159 3500 
L 1159 2956 
Q 1356 3278 1631 3431 
Q 1906 3584 2284 3584 
Q 2666 3584 2933 3390 
Q 3200 3197 3328 2828 
z
" transform="scale(0.015625)"/>
      </defs>
      <use xlink:href="#DejaVuSans-44"/>
      <use xlink:href="#DejaVuSans-61" transform="translate(77.001953 0)"/>
      <use xlink:href="#DejaVuSans-74" transform="translate(138.28125 0)"/>
      <use xlink:href="#DejaVuSans-65" transform="translate(177.490234 0)"/>
      <use xlink:href="#DejaVuSans-20" transform="translate(239.013672 0)"/>
      <use xlink:href="#DejaVuSans-61" transform="translate(270.800781 0)"/>
      <use xlink:href="#DejaVuSans-6e" transform="translate(332.080078 0)"/>
      <use xlink:href="#DejaVuSans-64" transform="translate(395.458984 0)"/>
      <use xlink:href="#DejaVuSans-20" transform="translate(458.935547 0)"/>
      <use xlink:href="#DejaVuSans-54" transform="translate(490.722656 0)"/>
      <use xlink:href="#DejaVuSans-69" transform="translate(548.681641 0)"/>
      <use xlink:href="#DejaVuSans-6d" transform="translate(576.464844 0)"/>
      <use xlink:href="#DejaVuSans-65" transform="translate(673.876953 0)"/>
     </g>
    </g>
   </g>
   <g id="matplotlib.axis_2">
    <g id="ytick_1">
     <g id="line2d_17">
      <path d="M 90 370.46365 
L 648 370.46365 
" clip-path="url(#p0069f372ab)" style="fill: none; stroke: #b0b0b0; stroke-width: 0.8; stroke-linecap: square"/>
     </g>
     <g id="line2d_18">
      <defs>
       <path id="mcf6a8082ed" d="M 0 0 
L -3.5 0 
" style="stroke: #000000; stroke-width: 0.8"/>
      </defs>
      <g>
       <use xlink:href="#mcf6a8082ed" x="90" y="370.46365" style="stroke: #000000; stroke-width: 0.8"/>
      </g>
     </g>
     <g id="text_10">
      <!-- 0 -->
      <g transform="translate(76.6375 374.262868) scale(0.1 -0.1)">
       <use xlink:href="#DejaVuSans-30"/>
      </g>
     </g>
    </g>
    <g id="ytick_2">
     <g id="line2d_19">
      <path d="M 90 315.281168 
L 648 315.281168 
" clip-path="url(#p0069f372ab)" style="fill: none; stroke: #b0b0b0; stroke-width: 0.8; stroke-linecap: square"/>
     </g>
     <g id="line2d_20">
      <g>
       <use xlink:href="#mcf6a8082ed" x="90" y="315.281168" style="stroke: #000000; stroke-width: 0.8"/>
      </g>
     </g>
     <g id="text_11">
      <!-- 50 -->
      <g transform="translate(70.275 319.080387) scale(0.1 -0.1)">
       <use xlink:href="#DejaVuSans-35"/>
       <use xlink:href="#DejaVuSans-30" transform="translate(63.623047 0)"/>
      </g>
     </g>
    </g>
    <g id="ytick_3">
     <g id="line2d_21">
      <path d="M 90 260.098686 
L 648 260.098686 
" clip-path="url(#p0069f372ab)" style="fill: none; stroke: #b0b0b0; stroke-width: 0.8; stroke-linecap: square"/>
     </g>
     <g id="line2d_22">
      <g>
       <use xlink:href="#mcf6a8082ed" x="90" y="260.098686" style="stroke: #000000; stroke-width: 0.8"/>
      </g>
     </g>
     <g id="text_12">
      <!-- 100 -->
      <g transform="translate(63.9125 263.897905) scale(0.1 -0.1)">
       <use xlink:href="#DejaVuSans-31"/>
       <use xlink:href="#DejaVuSans-30" transform="translate(63.623047 0)"/>
       <use xlink:href="#DejaVuSans-30" transform="translate(127.246094 0)"/>
      </g>
     </g>
    </g>
    <g id="ytick_4">
     <g id="line2d_23">
      <path d="M 90 204.916204 
L 648 204.916204 
" clip-path="url(#p0069f372ab)" style="fill: none; stroke: #b0b0b0; stroke-width: 0.8; stroke-linecap: square"/>
     </g>
     <g id="line2d_24">
      <g>
       <use xlink:href="#mcf6a8082ed" x="90" y="204.916204" style="stroke: #000000; stroke-width: 0.8"/>
      </g>
     </g>
     <g id="text_13">
      <!-- 150 -->
      <g transform="translate(63.9125 208.715423) scale(0.1 -0.1)">
       <use xlink:href="#DejaVuSans-31"/>
       <use xlink:href="#DejaVuSans-35" transform="translate(63.623047 0)"/>
       <use xlink:href="#DejaVuSans-30" transform="translate(127.246094 0)"/>
      </g>
     </g>
    </g>
    <g id="ytick_5">
     <g id="line2d_25">
      <path d="M 90 149.733723 
L 648 149.733723 
" clip-path="url(#p0069f372ab)" style="fill: none; stroke: #b0b0b0; stroke-width: 0.8; stroke-linecap: square"/>
     </g>
     <g id="line2d_26">
      <g>
       <use xlink:href="#mcf6a8082ed" x="90" y="149.733723" style="stroke: #000000; stroke-width: 0.8"/>
      </g>
     </g>
     <g id="text_14">
      <!-- 200 -->
      <g transform="translate(63.9125 153.532941) scale(0.1 -0.1)">
       <use xlink:href="#DejaVuSans-32"/>
       <use xlink:href="#DejaVuSans-30" transform="translate(63.623047 0)"/>
       <use xlink:href="#DejaVuSans-30" transform="translate(127.246094 0)"/>
      </g>
     </g>
    </g>
    <g id="ytick_6">
     <g id="line2d_27">
      <path d="M 90 94.551241 
L 648 94.551241 
" clip-path="url(#p0069f372ab)" style="fill: none; stroke: #b0b0b0; stroke-width: 0.8; stroke-linecap: square"/>
     </g>
     <g id="line2d_28">
      <g>
       <use xlink:href="#mcf6a8082ed" x="90" y="94.551241" style="stroke: #000000; stroke-width: 0.8"/>
      </g>
     </g>
     <g id="text_15">
      <!-- 250 -->
      <g transform="translate(63.9125 98.35046) scale(0.1 -0.1)">
       <use xlink:href="#DejaVuSans-32"/>
       <use xlink:href="#DejaVuSans-35" transform="translate(63.623047 0)"/>
       <use xlink:href="#DejaVuSans-30" transform="translate(127.246094 0)"/>
      </g>
     </g>
    </g>
    <g id="text_16">
     <!-- Votes -->
     <g transform="translate(57.832812 231.893594) rotate(-90) scale(0.1 -0.1)">
      <defs>
       <path id="DejaVuSans-56" d="M 1831 0 
L 50 4666 
L 709 4666 
L 2188 738 
L 3669 4666 
L 4325 4666 
L 2547 0 
L 1831 0 
z
" transform="scale(0.015625)"/>
       <path id="DejaVuSans-6f" d="M 1959 3097 
Q 1497 3097 1228 2736 
Q 959 2375 959 1747 
Q 959 1119 1226 758 
Q 1494 397 1959 397 
Q 2419 397 2687 759 
Q 2956 1122 2956 1747 
Q 2956 2369 2687 2733 
Q 2419 3097 1959 3097 
z
M 1959 3584 
Q 2709 3584 3137 3096 
Q 3566 2609 3566 1747 
Q 3566 888 3137 398 
Q 2709 -91 1959 -91 
Q 1206 -91 779 398 
Q 353 888 353 1747 
Q 353 2609 779 3096 
Q 1206 3584 1959 3584 
z
" transform="scale(0.015625)"/>
       <path id="DejaVuSans-73" d="M 2834 3397 
L 2834 2853 
Q 2591 2978 2328 3040 
Q 2066 3103 1784 3103 
Q 1356 3103 1142 2972 
Q 928 2841 928 2578 
Q 928 2378 1081 2264 
Q 1234 2150 1697 2047 
L 1894 2003 
Q 2506 1872 2764 1633 
Q 3022 1394 3022 966 
Q 3022 478 2636 193 
Q 2250 -91 1575 -91 
Q 1294 -91 989 -36 
Q 684 19 347 128 
L 347 722 
Q 666 556 975 473 
Q 1284 391 1588 391 
Q 1994 391 2212 530 
Q 2431 669 2431 922 
Q 2431 1156 2273 1281 
Q 2116 1406 1581 1522 
L 1381 1569 
Q 847 1681 609 1914 
Q 372 2147 372 2553 
Q 372 3047 722 3315 
Q 1072 3584 1716 3584 
Q 2034 3584 2315 3537 
Q 2597 3491 2834 3397 
z
" transform="scale(0.015625)"/>
      </defs>
      <use xlink:href="#DejaVuSans-56"/>
      <use xlink:href="#DejaVuSans-6f" transform="translate(60.658203 0)"/>
      <use xlink:href="#DejaVuSans-74" transform="translate(121.839844 0)"/>
      <use xlink:href="#DejaVuSans-65" transform="translate(161.048828 0)"/>
      <use xlink:href="#DejaVuSans-73" transform="translate(222.572266 0)"/>
     </g>
    </g>
   </g>
   <g id="line2d_29">
    <path d="M 115.363636 350.597956 
L 126.065593 350.597956 
L 127.135788 349.494307 
L 137.837745 349.494307 
L 138.90794 347.287007 
L 148.539701 347.287007 
L 149.609896 346.183358 
L 154.960875 346.183358 
L 156.03107 345.079708 
L 160.311853 345.079708 
L 161.382048 343.976058 
L 164.592635 343.976058 
L 165.662831 342.872409 
L 180.64557 342.872409 
L 181.715765 341.768759 
L 193.487917 341.768759 
L 195.628308 339.56146 
L 197.7687 339.56146 
L 198.838895 338.45781 
L 208.470656 338.45781 
L 210.611047 336.250511 
L 223.453395 336.250511 
L 224.52359 335.146861 
L 227.734177 335.146861 
L 228.804373 334.043212 
L 229.874568 334.043212 
L 230.944764 332.939562 
L 259.840046 332.939562 
L 260.910242 331.835912 
L 273.752589 331.835912 
L 274.822785 330.732263 
L 282.314154 330.732263 
L 283.38435 329.628613 
L 284.454545 327.421314 
L 285.524741 327.421314 
L 287.665132 325.214015 
L 304.788262 325.214015 
L 305.858458 324.110365 
L 312.279632 324.110365 
L 313.349827 323.006715 
L 317.63061 323.006715 
L 318.700806 321.903066 
L 329.402762 321.903066 
L 330.472957 320.799416 
L 332.613349 320.799416 
L 333.683544 319.695766 
L 336.894131 319.695766 
L 337.964327 318.592117 
L 346.525892 318.592117 
L 347.596087 317.488467 
L 348.666283 317.488467 
L 349.736479 316.384818 
L 360.438435 316.384818 
L 361.508631 315.281168 
L 369 315.281168 
L 370.070196 314.177518 
L 371.140391 314.177518 
L 373.280783 311.970219 
L 396.825086 311.970219 
L 397.895282 310.866569 
L 415.018412 310.866569 
L 416.088608 309.76292 
L 417.158803 309.76292 
L 418.228999 308.65927 
L 427.860759 308.65927 
L 428.930955 307.55562 
L 430.001151 307.55562 
L 431.071346 306.451971 
L 436.422325 306.451971 
L 437.49252 305.348321 
L 440.703107 305.348321 
L 442.843498 303.141022 
L 443.913694 303.141022 
L 444.98389 302.037372 
L 447.124281 302.037372 
L 448.194476 300.933723 
L 450.334868 300.933723 
L 451.405063 299.830073 
L 453.545455 299.830073 
L 454.61565 298.726423 
L 480.300345 298.726423 
L 481.370541 297.622774 
L 492.072497 297.622774 
L 493.142693 296.519124 
L 499.563867 296.519124 
L 500.634062 295.415474 
L 501.704258 295.415474 
L 502.774453 294.311825 
L 503.844649 294.311825 
L 508.125432 289.897226 
L 510.265823 289.897226 
L 511.336018 287.689927 
L 519.897583 287.689927 
L 522.037975 285.482628 
L 524.178366 285.482628 
L 525.248562 284.378978 
L 529.529344 284.378978 
L 530.59954 283.275328 
L 538.090909 283.275328 
L 539.161105 282.171679 
L 541.301496 282.171679 
L 542.371692 281.068029 
L 548.792865 281.068029 
L 550.933257 278.86073 
L 558.424626 278.86073 
L 559.494822 277.75708 
L 562.705409 277.75708 
L 563.775604 276.653431 
L 565.915995 276.653431 
L 566.986191 274.446131 
L 571.266974 274.446131 
L 572.337169 272.238832 
L 573.407365 271.135182 
L 577.688147 271.135182 
L 578.758343 268.927883 
L 586.249712 268.927883 
L 587.319908 267.824234 
L 591.60069 267.824234 
L 592.670886 266.720584 
L 595.881473 266.720584 
L 596.951669 265.616934 
L 598.021864 263.409635 
L 600.162255 263.409635 
L 601.232451 262.305985 
L 618.355581 262.305985 
L 620.495972 260.098686 
L 622.636364 260.098686 
L 622.636364 260.098686 
" clip-path="url(#p0069f372ab)" style="fill: none; stroke: #1f77b4; stroke-width: 1.5; stroke-linecap: square"/>
   </g>
   <g id="line2d_30">
    <path d="M 115.363636 279.96438 
L 116.433832 278.86073 
L 119.644419 278.86073 
L 120.714614 277.75708 
L 121.78481 277.75708 
L 122.855006 276.653431 
L 123.925201 276.653431 
L 126.065593 274.446131 
L 127.135788 272.238832 
L 128.205984 272.238832 
L 130.346375 270.031533 
L 131.416571 270.031533 
L 132.486766 265.616934 
L 133.556962 263.409635 
L 134.627158 258.995036 
L 135.697353 255.684088 
L 138.90794 255.684088 
L 139.978136 252.373139 
L 141.048331 250.165839 
L 143.188723 247.95854 
L 144.258918 245.751241 
L 146.39931 243.543942 
L 147.469505 241.336642 
L 150.680092 241.336642 
L 151.750288 235.818394 
L 152.820483 233.611095 
L 153.890679 232.507445 
L 154.960875 230.300146 
L 156.03107 229.196496 
L 157.101266 229.196496 
L 158.171461 225.885547 
L 159.241657 225.885547 
L 160.311853 223.678248 
L 161.382048 222.574599 
L 162.452244 222.574599 
L 163.52244 221.470949 
L 165.662831 221.470949 
L 166.733026 220.367299 
L 168.873418 220.367299 
L 169.943613 218.16 
L 171.013809 218.16 
L 172.084005 217.05635 
L 176.364787 217.05635 
L 177.434983 215.952701 
L 180.64557 215.952701 
L 181.715765 214.849051 
L 182.785961 214.849051 
L 183.856157 212.641752 
L 184.926352 212.641752 
L 185.996548 210.434453 
L 187.066743 209.330803 
L 190.27733 209.330803 
L 191.347526 207.123504 
L 192.417722 206.019854 
L 193.487917 202.708905 
L 195.628308 200.501606 
L 204.189873 200.501606 
L 205.260069 197.190657 
L 206.330265 197.190657 
L 208.470656 194.983358 
L 209.540852 194.983358 
L 212.751438 191.672409 
L 214.89183 191.672409 
L 215.962025 190.568759 
L 218.102417 190.568759 
L 221.313003 187.25781 
L 223.453395 187.25781 
L 224.52359 186.154161 
L 229.874568 186.154161 
L 230.944764 185.050511 
L 233.085155 185.050511 
L 234.155351 183.946861 
L 246.997699 183.946861 
L 248.067894 181.739562 
L 250.208285 181.739562 
L 252.348677 179.532263 
L 253.418872 179.532263 
L 254.489068 178.428613 
L 260.910242 178.428613 
L 264.120829 175.117664 
L 265.191024 175.117664 
L 266.26122 174.014015 
L 267.331415 171.806715 
L 268.401611 171.806715 
L 269.471807 170.703066 
L 270.542002 170.703066 
L 274.822785 166.288467 
L 276.963176 166.288467 
L 278.033372 164.081168 
L 281.243959 164.081168 
L 282.314154 162.977518 
L 285.524741 162.977518 
L 286.594937 161.873869 
L 287.665132 161.873869 
L 288.735328 158.56292 
L 291.945915 158.56292 
L 293.01611 157.45927 
L 294.086306 155.251971 
L 296.226697 155.251971 
L 297.296893 154.148321 
L 299.437284 154.148321 
L 300.50748 153.044672 
L 301.577675 153.044672 
L 306.928654 147.526423 
L 309.069045 147.526423 
L 312.279632 144.215474 
L 315.490219 144.215474 
L 316.560414 142.008175 
L 317.63061 142.008175 
L 318.700806 140.904526 
L 321.911392 140.904526 
L 322.981588 139.800876 
L 332.613349 139.800876 
L 333.683544 138.697226 
L 341.174914 138.697226 
L 342.245109 137.593577 
L 344.385501 137.593577 
L 346.525892 135.386277 
L 351.87687 135.386277 
L 352.947066 134.282628 
L 358.298044 134.282628 
L 361.508631 130.971679 
L 375.421174 130.971679 
L 376.491369 128.76438 
L 377.561565 127.66073 
L 403.24626 127.66073 
L 404.316456 126.55708 
L 410.737629 126.55708 
L 412.878021 124.349781 
L 415.018412 124.349781 
L 416.088608 123.246131 
L 417.158803 123.246131 
L 419.299194 121.038832 
L 420.36939 121.038832 
L 421.439586 119.935182 
L 422.509781 119.935182 
L 424.650173 115.520584 
L 425.720368 114.416934 
L 431.071346 114.416934 
L 432.141542 111.105985 
L 433.211738 108.898686 
L 435.352129 108.898686 
L 437.49252 106.691387 
L 442.843498 106.691387 
L 444.98389 104.484088 
L 447.124281 104.484088 
L 448.194476 103.380438 
L 450.334868 103.380438 
L 451.405063 102.276788 
L 452.475259 102.276788 
L 453.545455 101.173139 
L 454.61565 101.173139 
L 455.685846 100.069489 
L 456.756041 100.069489 
L 457.826237 98.965839 
L 459.966628 98.965839 
L 461.036824 96.75854 
L 466.387802 96.75854 
L 468.528193 94.551241 
L 479.23015 94.551241 
L 480.300345 93.447591 
L 481.370541 93.447591 
L 482.440736 92.343942 
L 483.510932 92.343942 
L 486.721519 89.032993 
L 488.86191 89.032993 
L 489.932106 87.929343 
L 511.336018 87.929343 
L 513.47641 85.722044 
L 517.757192 85.722044 
L 518.827388 84.618394 
L 519.897583 84.618394 
L 520.967779 83.514745 
L 522.037975 83.514745 
L 523.10817 82.411095 
L 546.652474 82.411095 
L 547.72267 81.307445 
L 569.126582 81.307445 
L 570.196778 79.100146 
L 577.688147 79.100146 
L 579.828539 76.892847 
L 581.96893 76.892847 
L 583.039125 75.789197 
L 585.179517 75.789197 
L 587.319908 73.581898 
L 589.460299 73.581898 
L 590.530495 71.374599 
L 599.09206 71.374599 
L 600.162255 70.270949 
L 605.513234 70.270949 
L 606.583429 69.167299 
L 613.004603 69.167299 
L 614.074799 68.06365 
L 621.566168 68.06365 
L 622.636364 66.96 
L 622.636364 66.96 
" clip-path="url(#p0069f372ab)" style="fill: none; stroke: #ff7f0e; stroke-width: 1.5; stroke-linecap: square"/>
   </g>
   <g id="line2d_31">
    <path d="M 115.363636 336.250511 
L 119.644419 336.250511 
L 120.714614 334.043212 
L 122.855006 334.043212 
L 123.925201 332.939562 
L 124.995397 330.732263 
L 126.065593 329.628613 
L 127.135788 326.317664 
L 128.205984 324.110365 
L 129.27618 323.006715 
L 130.346375 323.006715 
L 131.416571 320.799416 
L 132.486766 317.488467 
L 136.767549 317.488467 
L 137.837745 316.384818 
L 138.90794 316.384818 
L 139.978136 314.177518 
L 143.188723 314.177518 
L 145.329114 311.970219 
L 149.609896 311.970219 
L 150.680092 310.866569 
L 154.960875 310.866569 
L 158.171461 307.55562 
L 163.52244 307.55562 
L 164.592635 306.451971 
L 167.803222 306.451971 
L 168.873418 305.348321 
L 171.013809 305.348321 
L 172.084005 303.141022 
L 180.64557 303.141022 
L 181.715765 302.037372 
L 182.785961 299.830073 
L 183.856157 298.726423 
L 184.926352 298.726423 
L 185.996548 297.622774 
L 188.136939 297.622774 
L 189.207135 296.519124 
L 191.347526 296.519124 
L 192.417722 295.415474 
L 198.838895 295.415474 
L 199.909091 294.311825 
L 200.979287 294.311825 
L 202.049482 293.208175 
L 203.119678 293.208175 
L 204.189873 292.104526 
L 207.40046 292.104526 
L 208.470656 291.000876 
L 209.540852 288.793577 
L 214.89183 288.793577 
L 218.102417 285.482628 
L 221.313003 285.482628 
L 222.383199 284.378978 
L 226.663982 284.378978 
L 227.734177 283.275328 
L 228.804373 283.275328 
L 229.874568 282.171679 
L 232.01496 282.171679 
L 233.085155 281.068029 
L 236.295742 281.068029 
L 238.436133 278.86073 
L 239.506329 278.86073 
L 240.576525 277.75708 
L 249.13809 277.75708 
L 250.208285 275.549781 
L 251.278481 274.446131 
L 259.840046 274.446131 
L 260.910242 273.342482 
L 264.120829 273.342482 
L 265.191024 272.238832 
L 268.401611 272.238832 
L 269.471807 271.135182 
L 280.173763 271.135182 
L 281.243959 270.031533 
L 285.524741 270.031533 
L 286.594937 268.927883 
L 293.01611 268.927883 
L 294.086306 267.824234 
L 296.226697 267.824234 
L 297.296893 266.720584 
L 301.577675 266.720584 
L 303.718067 264.513285 
L 324.051784 264.513285 
L 325.121979 263.409635 
L 326.192175 263.409635 
L 327.262371 262.305985 
L 330.472957 262.305985 
L 331.543153 261.202336 
L 336.894131 261.202336 
L 337.964327 260.098686 
L 340.104718 260.098686 
L 341.174914 258.995036 
L 347.596087 258.995036 
L 348.666283 260.098686 
L 349.736479 258.995036 
L 357.227848 258.995036 
L 358.298044 257.891387 
L 366.859609 257.891387 
L 367.929804 256.787737 
L 370.070196 256.787737 
L 371.140391 255.684088 
L 372.210587 255.684088 
L 373.280783 254.580438 
L 380.772152 254.580438 
L 381.842348 253.476788 
L 388.263521 253.476788 
L 389.333717 252.373139 
L 405.386651 252.373139 
L 406.456847 251.269489 
L 430.001151 251.269489 
L 431.071346 250.165839 
L 441.773303 250.165839 
L 442.843498 249.06219 
L 459.966628 249.06219 
L 462.10702 246.854891 
L 481.370541 246.854891 
L 482.440736 245.751241 
L 483.510932 243.543942 
L 504.914845 243.543942 
L 505.98504 242.440292 
L 508.125432 242.440292 
L 509.195627 241.336642 
L 515.616801 241.336642 
L 516.686997 240.232993 
L 519.897583 240.232993 
L 522.037975 238.025693 
L 524.178366 238.025693 
L 525.248562 236.922044 
L 529.529344 236.922044 
L 530.59954 234.714745 
L 533.810127 234.714745 
L 534.880322 233.611095 
L 535.950518 233.611095 
L 538.090909 231.403796 
L 552.003452 231.403796 
L 553.073648 230.300146 
L 565.915995 230.300146 
L 566.986191 228.092847 
L 575.547756 228.092847 
L 577.688147 225.885547 
L 588.390104 225.885547 
L 591.60069 222.574599 
L 594.811277 222.574599 
L 595.881473 221.470949 
L 598.021864 221.470949 
L 599.09206 220.367299 
L 608.72382 220.367299 
L 609.794016 219.26365 
L 619.425777 219.26365 
L 620.495972 218.16 
L 622.636364 218.16 
L 622.636364 218.16 
" clip-path="url(#p0069f372ab)" style="fill: none; stroke: #2ca02c; stroke-width: 1.5; stroke-linecap: square"/>
   </g>
   <g id="line2d_32">
    <path d="M 115.363636 369.36 
L 379.701956 369.36 
L 380.772152 368.25635 
L 607.653625 368.25635 
L 608.72382 367.152701 
L 622.636364 367.152701 
L 622.636364 367.152701 
" clip-path="url(#p0069f372ab)" style="fill: none; stroke: #d62728; stroke-width: 1.5; stroke-linecap: square"/>
   </g>
   <g id="line2d_33">
    <path d="M 115.363636 345.079708 
L 118.574223 345.079708 
L 119.644419 343.976058 
L 126.065593 343.976058 
L 127.135788 342.872409 
L 133.556962 342.872409 
L 134.627158 341.768759 
L 158.171461 341.768759 
L 159.241657 340.665109 
L 197.7687 340.665109 
L 199.909091 338.45781 
L 208.470656 338.45781 
L 209.540852 337.354161 
L 213.821634 337.354161 
L 214.89183 336.250511 
L 217.032221 336.250511 
L 218.102417 335.146861 
L 245.927503 335.146861 
L 246.997699 334.043212 
L 290.875719 334.043212 
L 291.945915 332.939562 
L 431.071346 332.939562 
L 432.141542 331.835912 
L 433.211738 331.835912 
L 434.281933 330.732263 
L 501.704258 330.732263 
L 502.774453 329.628613 
L 622.636364 329.628613 
L 622.636364 329.628613 
" clip-path="url(#p0069f372ab)" style="fill: none; stroke: #9467bd; stroke-width: 1.5; stroke-linecap: square"/>
   </g>
   <g id="line2d_34">
    <path d="M 115.363636 353.908905 
L 116.433832 353.908905 
L 117.504028 352.805255 
L 132.486766 352.805255 
L 133.556962 351.701606 
L 146.39931 351.701606 
L 147.469505 350.597956 
L 163.52244 350.597956 
L 165.662831 348.390657 
L 177.434983 348.390657 
L 178.505178 347.287007 
L 210.611047 347.287007 
L 211.681243 346.183358 
L 221.313003 346.183358 
L 222.383199 345.079708 
L 240.576525 345.079708 
L 241.64672 343.976058 
L 258.76985 343.976058 
L 259.840046 342.872409 
L 264.120829 342.872409 
L 265.191024 341.768759 
L 274.822785 341.768759 
L 275.89298 340.665109 
L 301.577675 340.665109 
L 302.647871 339.56146 
L 309.069045 339.56146 
L 310.139241 338.45781 
L 316.560414 338.45781 
L 317.63061 337.354161 
L 321.911392 337.354161 
L 322.981588 336.250511 
L 362.578826 336.250511 
L 363.649022 335.146861 
L 394.684695 335.146861 
L 395.754891 334.043212 
L 457.826237 334.043212 
L 458.896433 332.939562 
L 488.86191 332.939562 
L 489.932106 331.835912 
L 503.844649 331.835912 
L 504.914845 330.732263 
L 622.636364 330.732263 
L 622.636364 330.732263 
" clip-path="url(#p0069f372ab)" style="fill: none; stroke: #8c564b; stroke-width: 1.5; stroke-linecap: square"/>
   </g>
   <g id="line2d_35">
    <path d="M 115.363636 272.238832 
L 119.644419 272.238832 
L 120.714614 271.135182 
L 124.995397 271.135182 
L 127.135788 268.927883 
L 128.205984 268.927883 
L 129.27618 267.824234 
L 130.346375 267.824234 
L 131.416571 266.720584 
L 133.556962 266.720584 
L 134.627158 265.616934 
L 137.837745 265.616934 
L 138.90794 264.513285 
L 141.048331 264.513285 
L 142.118527 263.409635 
L 143.188723 263.409635 
L 144.258918 262.305985 
L 146.39931 262.305985 
L 148.539701 260.098686 
L 152.820483 260.098686 
L 153.890679 258.995036 
L 157.101266 258.995036 
L 159.241657 256.787737 
L 161.382048 256.787737 
L 162.452244 255.684088 
L 164.592635 255.684088 
L 165.662831 254.580438 
L 166.733026 252.373139 
L 167.803222 249.06219 
L 169.943613 249.06219 
L 171.013809 247.95854 
L 176.364787 247.95854 
L 178.505178 245.751241 
L 179.575374 243.543942 
L 180.64557 242.440292 
L 181.715765 242.440292 
L 182.785961 240.232993 
L 187.066743 240.232993 
L 188.136939 239.129343 
L 189.207135 239.129343 
L 191.347526 236.922044 
L 192.417722 236.922044 
L 193.487917 235.818394 
L 194.558113 235.818394 
L 196.698504 233.611095 
L 198.838895 233.611095 
L 199.909091 231.403796 
L 204.189873 231.403796 
L 206.330265 229.196496 
L 208.470656 229.196496 
L 209.540852 228.092847 
L 210.611047 225.885547 
L 213.821634 225.885547 
L 214.89183 224.781898 
L 215.962025 224.781898 
L 217.032221 222.574599 
L 218.102417 222.574599 
L 219.172612 221.470949 
L 220.242808 221.470949 
L 221.313003 220.367299 
L 225.593786 220.367299 
L 227.734177 218.16 
L 228.804373 218.16 
L 229.874568 215.952701 
L 230.944764 215.952701 
L 232.01496 214.849051 
L 233.085155 214.849051 
L 234.155351 213.745401 
L 237.365938 213.745401 
L 238.436133 212.641752 
L 239.506329 212.641752 
L 243.787112 208.227153 
L 244.857307 206.019854 
L 246.997699 206.019854 
L 249.13809 201.605255 
L 251.278481 201.605255 
L 253.418872 199.397956 
L 254.489068 199.397956 
L 255.559264 197.190657 
L 256.629459 197.190657 
L 257.699655 196.087007 
L 258.76985 196.087007 
L 259.840046 194.983358 
L 261.980437 194.983358 
L 263.050633 193.879708 
L 264.120829 193.879708 
L 265.191024 192.776058 
L 269.471807 192.776058 
L 270.542002 187.25781 
L 271.612198 187.25781 
L 272.682394 186.154161 
L 275.89298 186.154161 
L 276.963176 185.050511 
L 286.594937 185.050511 
L 287.665132 182.843212 
L 291.945915 182.843212 
L 293.01611 181.739562 
L 303.718067 181.739562 
L 304.788262 179.532263 
L 305.858458 178.428613 
L 311.209436 178.428613 
L 312.279632 177.324964 
L 319.771001 177.324964 
L 320.841197 176.221314 
L 321.911392 176.221314 
L 322.981588 175.117664 
L 329.402762 175.117664 
L 331.543153 172.910365 
L 339.034522 172.910365 
L 341.174914 170.703066 
L 342.245109 170.703066 
L 343.315305 169.599416 
L 349.736479 169.599416 
L 350.806674 168.495766 
L 354.017261 168.495766 
L 355.087457 167.392117 
L 356.157652 165.184818 
L 359.368239 165.184818 
L 360.438435 164.081168 
L 361.508631 164.081168 
L 363.649022 161.873869 
L 367.929804 161.873869 
L 369 160.770219 
L 373.280783 160.770219 
L 374.350978 159.666569 
L 377.561565 159.666569 
L 378.631761 158.56292 
L 387.193326 158.56292 
L 389.333717 156.35562 
L 394.684695 156.35562 
L 395.754891 155.251971 
L 400.035673 155.251971 
L 405.386651 149.733723 
L 407.527043 149.733723 
L 408.597238 148.630073 
L 409.667434 148.630073 
L 410.737629 146.422774 
L 412.878021 144.215474 
L 415.018412 139.800876 
L 417.158803 139.800876 
L 419.299194 135.386277 
L 421.439586 135.386277 
L 422.509781 133.178978 
L 424.650173 130.971679 
L 427.860759 130.971679 
L 428.930955 129.868029 
L 430.001151 129.868029 
L 432.141542 127.66073 
L 436.422325 127.66073 
L 437.49252 126.55708 
L 439.632911 126.55708 
L 440.703107 125.453431 
L 446.054085 125.453431 
L 447.124281 123.246131 
L 448.194476 122.142482 
L 449.264672 122.142482 
L 450.334868 121.038832 
L 452.475259 121.038832 
L 453.545455 119.935182 
L 455.685846 119.935182 
L 456.756041 117.727883 
L 458.896433 117.727883 
L 459.966628 116.624234 
L 461.036824 116.624234 
L 462.10702 115.520584 
L 467.457998 115.520584 
L 468.528193 114.416934 
L 473.879171 114.416934 
L 474.949367 113.313285 
L 476.019563 113.313285 
L 477.089758 111.105985 
L 479.23015 108.898686 
L 480.300345 105.587737 
L 481.370541 104.484088 
L 482.440736 104.484088 
L 483.510932 103.380438 
L 484.581128 103.380438 
L 485.651323 102.276788 
L 489.932106 102.276788 
L 491.002302 101.173139 
L 493.142693 101.173139 
L 494.212888 100.069489 
L 496.35328 100.069489 
L 498.493671 97.86219 
L 501.704258 97.86219 
L 502.774453 96.75854 
L 508.125432 96.75854 
L 509.195627 94.551241 
L 514.546605 94.551241 
L 515.616801 93.447591 
L 518.827388 93.447591 
L 519.897583 91.240292 
L 524.178366 91.240292 
L 525.248562 90.136642 
L 534.880322 90.136642 
L 535.950518 89.032993 
L 538.090909 89.032993 
L 539.161105 87.929343 
L 546.652474 87.929343 
L 547.72267 86.825693 
L 548.792865 86.825693 
L 549.863061 85.722044 
L 550.933257 85.722044 
L 552.003452 84.618394 
L 558.424626 84.618394 
L 560.565017 82.411095 
L 575.547756 82.411095 
L 576.617952 81.307445 
L 577.688147 81.307445 
L 579.828539 79.100146 
L 580.898734 79.100146 
L 581.96893 77.996496 
L 594.811277 77.996496 
L 595.881473 76.892847 
L 596.951669 74.685547 
L 599.09206 74.685547 
L 600.162255 73.581898 
L 605.513234 73.581898 
L 606.583429 72.478248 
L 607.653625 72.478248 
L 609.794016 70.270949 
L 615.144994 70.270949 
L 616.21519 69.167299 
L 619.425777 69.167299 
L 620.495972 68.06365 
L 622.636364 68.06365 
L 622.636364 68.06365 
" clip-path="url(#p0069f372ab)" style="fill: none; stroke: #e377c2; stroke-width: 1.5; stroke-linecap: square"/>
   </g>
   <g id="line2d_36">
    <path d="M 115.363636 340.665109 
L 116.433832 340.665109 
L 118.574223 338.45781 
L 123.925201 338.45781 
L 124.995397 337.354161 
L 126.065593 337.354161 
L 128.205984 335.146861 
L 130.346375 335.146861 
L 131.416571 334.043212 
L 134.627158 334.043212 
L 135.697353 332.939562 
L 136.767549 332.939562 
L 137.837745 331.835912 
L 138.90794 331.835912 
L 141.048331 329.628613 
L 144.258918 329.628613 
L 145.329114 328.524964 
L 147.469505 328.524964 
L 149.609896 326.317664 
L 151.750288 326.317664 
L 153.890679 324.110365 
L 154.960875 324.110365 
L 156.03107 323.006715 
L 157.101266 319.695766 
L 161.382048 319.695766 
L 165.662831 315.281168 
L 166.733026 315.281168 
L 168.873418 313.073869 
L 169.943613 313.073869 
L 171.013809 311.970219 
L 172.084005 311.970219 
L 173.1542 310.866569 
L 182.785961 310.866569 
L 183.856157 309.76292 
L 194.558113 309.76292 
L 196.698504 307.55562 
L 199.909091 307.55562 
L 200.979287 306.451971 
L 203.119678 306.451971 
L 205.260069 304.244672 
L 207.40046 304.244672 
L 208.470656 302.037372 
L 211.681243 302.037372 
L 212.751438 299.830073 
L 213.821634 298.726423 
L 219.172612 298.726423 
L 220.242808 297.622774 
L 221.313003 297.622774 
L 223.453395 295.415474 
L 228.804373 295.415474 
L 229.874568 294.311825 
L 230.944764 294.311825 
L 232.01496 293.208175 
L 238.436133 293.208175 
L 239.506329 292.104526 
L 242.716916 292.104526 
L 243.787112 291.000876 
L 244.857307 291.000876 
L 245.927503 287.689927 
L 246.997699 287.689927 
L 248.067894 285.482628 
L 249.13809 284.378978 
L 250.208285 284.378978 
L 252.348677 282.171679 
L 254.489068 282.171679 
L 255.559264 281.068029 
L 257.699655 281.068029 
L 258.76985 279.96438 
L 259.840046 279.96438 
L 260.910242 277.75708 
L 261.980437 277.75708 
L 263.050633 276.653431 
L 265.191024 276.653431 
L 267.331415 274.446131 
L 268.401611 274.446131 
L 269.471807 272.238832 
L 270.542002 271.135182 
L 278.033372 271.135182 
L 279.103567 268.927883 
L 282.314154 268.927883 
L 283.38435 267.824234 
L 284.454545 267.824234 
L 285.524741 266.720584 
L 288.735328 266.720584 
L 289.805524 265.616934 
L 295.156502 265.616934 
L 296.226697 264.513285 
L 298.367089 264.513285 
L 299.437284 263.409635 
L 304.788262 263.409635 
L 305.858458 262.305985 
L 315.490219 262.305985 
L 317.63061 260.098686 
L 318.700806 260.098686 
L 319.771001 258.995036 
L 320.841197 258.995036 
L 321.911392 257.891387 
L 322.981588 257.891387 
L 324.051784 256.787737 
L 326.192175 256.787737 
L 327.262371 255.684088 
L 328.332566 255.684088 
L 330.472957 253.476788 
L 333.683544 253.476788 
L 334.75374 252.373139 
L 337.964327 252.373139 
L 339.034522 251.269489 
L 346.525892 251.269489 
L 347.596087 250.165839 
L 348.666283 250.165839 
L 349.736479 249.06219 
L 354.017261 249.06219 
L 355.087457 246.854891 
L 361.508631 246.854891 
L 362.578826 245.751241 
L 363.649022 245.751241 
L 364.719217 243.543942 
L 370.070196 243.543942 
L 371.140391 242.440292 
L 377.561565 242.440292 
L 378.631761 241.336642 
L 392.544304 241.336642 
L 393.614499 240.232993 
L 409.667434 240.232993 
L 410.737629 239.129343 
L 416.088608 239.129343 
L 417.158803 238.025693 
L 418.228999 238.025693 
L 419.299194 236.922044 
L 420.36939 236.922044 
L 421.439586 234.714745 
L 422.509781 234.714745 
L 424.650173 232.507445 
L 432.141542 232.507445 
L 433.211738 231.403796 
L 434.281933 231.403796 
L 435.352129 230.300146 
L 436.422325 230.300146 
L 437.49252 229.196496 
L 442.843498 229.196496 
L 443.913694 228.092847 
L 453.545455 228.092847 
L 454.61565 226.989197 
L 459.966628 226.989197 
L 461.036824 225.885547 
L 466.387802 225.885547 
L 467.457998 224.781898 
L 469.598389 224.781898 
L 472.808976 221.470949 
L 474.949367 221.470949 
L 476.019563 219.26365 
L 481.370541 219.26365 
L 483.510932 217.05635 
L 485.651323 217.05635 
L 486.721519 215.952701 
L 487.791715 215.952701 
L 489.932106 213.745401 
L 497.423475 213.745401 
L 498.493671 212.641752 
L 500.634062 212.641752 
L 501.704258 211.538102 
L 510.265823 211.538102 
L 512.406214 209.330803 
L 515.616801 209.330803 
L 516.686997 208.227153 
L 517.757192 208.227153 
L 518.827388 204.916204 
L 519.897583 203.812555 
L 524.178366 203.812555 
L 525.248562 201.605255 
L 528.459148 201.605255 
L 529.529344 200.501606 
L 540.2313 200.501606 
L 541.301496 199.397956 
L 552.003452 199.397956 
L 554.143844 197.190657 
L 561.635213 197.190657 
L 562.705409 196.087007 
L 580.898734 196.087007 
L 585.179517 191.672409 
L 589.460299 191.672409 
L 590.530495 190.568759 
L 599.09206 190.568759 
L 600.162255 189.465109 
L 603.372842 189.465109 
L 604.443038 188.36146 
L 605.513234 188.36146 
L 606.583429 187.25781 
L 613.004603 187.25781 
L 615.144994 185.050511 
L 617.285386 185.050511 
L 618.355581 183.946861 
L 622.636364 183.946861 
L 622.636364 183.946861 
" clip-path="url(#p0069f372ab)" style="fill: none; stroke: #7f7f7f; stroke-width: 1.5; stroke-linecap: square"/>
   </g>
   <g id="line2d_37">
    <path d="M 115.363636 347.287007 
L 119.644419 347.287007 
L 120.714614 346.183358 
L 131.416571 346.183358 
L 132.486766 345.079708 
L 137.837745 345.079708 
L 138.90794 343.976058 
L 149.609896 343.976058 
L 150.680092 342.872409 
L 161.382048 342.872409 
L 162.452244 341.768759 
L 220.242808 341.768759 
L 221.313003 340.665109 
L 226.663982 340.665109 
L 227.734177 339.56146 
L 235.225547 339.56146 
L 236.295742 338.45781 
L 237.365938 338.45781 
L 238.436133 335.146861 
L 239.506329 334.043212 
L 241.64672 334.043212 
L 242.716916 332.939562 
L 253.418872 332.939562 
L 254.489068 331.835912 
L 264.120829 331.835912 
L 265.191024 330.732263 
L 276.963176 330.732263 
L 278.033372 329.628613 
L 290.875719 329.628613 
L 291.945915 328.524964 
L 297.296893 328.524964 
L 298.367089 327.421314 
L 332.613349 327.421314 
L 333.683544 326.317664 
L 335.823936 326.317664 
L 336.894131 325.214015 
L 345.455696 325.214015 
L 346.525892 324.110365 
L 376.491369 324.110365 
L 379.701956 320.799416 
L 410.737629 320.799416 
L 411.807825 319.695766 
L 412.878021 319.695766 
L 415.018412 317.488467 
L 417.158803 317.488467 
L 418.228999 316.384818 
L 472.808976 316.384818 
L 473.879171 315.281168 
L 535.950518 315.281168 
L 537.020713 314.177518 
L 581.96893 314.177518 
L 583.039125 313.073869 
L 588.390104 313.073869 
L 589.460299 311.970219 
L 604.443038 311.970219 
L 605.513234 310.866569 
L 622.636364 310.866569 
L 622.636364 310.866569 
" clip-path="url(#p0069f372ab)" style="fill: none; stroke: #bcbd22; stroke-width: 1.5; stroke-linecap: square"/>
   </g>
   <g id="line2d_38">
    <path d="M 115.363636 367.152701 
L 168.873418 367.152701 
L 169.943613 366.049051 
L 237.365938 366.049051 
L 238.436133 364.945401 
L 347.596087 364.945401 
L 348.666283 363.841752 
L 349.736479 364.945401 
L 479.23015 364.945401 
L 480.300345 363.841752 
L 487.791715 363.841752 
L 488.86191 362.738102 
L 515.616801 362.738102 
L 516.686997 361.634453 
L 622.636364 361.634453 
L 622.636364 361.634453 
" clip-path="url(#p0069f372ab)" style="fill: none; stroke: #17becf; stroke-width: 1.5; stroke-linecap: square"/>
   </g>
   <g id="line2d_39">
    <path d="M 115.363636 369.36 
L 116.433832 368.25635 
L 118.574223 368.25635 
L 119.644419 367.152701 
L 127.135788 367.152701 
L 128.205984 366.049051 
L 131.416571 366.049051 
L 132.486766 364.945401 
L 133.556962 364.945401 
L 135.697353 362.738102 
L 141.048331 362.738102 
L 143.188723 360.530803 
L 144.258918 360.530803 
L 145.329114 359.427153 
L 152.820483 359.427153 
L 153.890679 358.323504 
L 154.960875 356.116204 
L 157.101266 356.116204 
L 158.171461 355.012555 
L 159.241657 355.012555 
L 160.311853 353.908905 
L 161.382048 353.908905 
L 162.452244 352.805255 
L 163.52244 352.805255 
L 165.662831 350.597956 
L 172.084005 350.597956 
L 174.224396 348.390657 
L 177.434983 348.390657 
L 178.505178 347.287007 
L 179.575374 347.287007 
L 180.64557 345.079708 
L 183.856157 345.079708 
L 185.996548 340.665109 
L 192.417722 340.665109 
L 193.487917 338.45781 
L 194.558113 337.354161 
L 197.7687 337.354161 
L 198.838895 336.250511 
L 199.909091 334.043212 
L 202.049482 334.043212 
L 203.119678 332.939562 
L 218.102417 332.939562 
L 219.172612 330.732263 
L 226.663982 323.006715 
L 237.365938 323.006715 
L 240.576525 319.695766 
L 242.716916 319.695766 
L 243.787112 317.488467 
L 245.927503 317.488467 
L 246.997699 316.384818 
L 250.208285 316.384818 
L 251.278481 315.281168 
L 252.348677 315.281168 
L 253.418872 314.177518 
L 254.489068 314.177518 
L 256.629459 311.970219 
L 270.542002 311.970219 
L 272.682394 309.76292 
L 281.243959 309.76292 
L 282.314154 308.65927 
L 285.524741 308.65927 
L 287.665132 306.451971 
L 290.875719 306.451971 
L 291.945915 305.348321 
L 294.086306 305.348321 
L 295.156502 304.244672 
L 300.50748 304.244672 
L 301.577675 303.141022 
L 302.647871 303.141022 
L 303.718067 300.933723 
L 304.788262 300.933723 
L 305.858458 299.830073 
L 311.209436 299.830073 
L 312.279632 298.726423 
L 314.420023 298.726423 
L 315.490219 297.622774 
L 316.560414 297.622774 
L 318.700806 295.415474 
L 326.192175 295.415474 
L 327.262371 294.311825 
L 328.332566 294.311825 
L 329.402762 293.208175 
L 334.75374 293.208175 
L 335.823936 291.000876 
L 336.894131 289.897226 
L 342.245109 289.897226 
L 343.315305 288.793577 
L 347.596087 288.793577 
L 348.666283 286.586277 
L 352.947066 286.586277 
L 355.087457 284.378978 
L 358.298044 284.378978 
L 359.368239 283.275328 
L 372.210587 283.275328 
L 373.280783 281.068029 
L 374.350978 279.96438 
L 382.912543 279.96438 
L 383.982739 278.86073 
L 403.24626 278.86073 
L 404.316456 277.75708 
L 406.456847 277.75708 
L 407.527043 276.653431 
L 410.737629 276.653431 
L 411.807825 275.549781 
L 425.720368 275.549781 
L 426.790564 273.342482 
L 428.930955 273.342482 
L 430.001151 272.238832 
L 431.071346 272.238832 
L 432.141542 271.135182 
L 436.422325 271.135182 
L 437.49252 270.031533 
L 444.98389 270.031533 
L 446.054085 267.824234 
L 447.124281 267.824234 
L 448.194476 266.720584 
L 453.545455 266.720584 
L 454.61565 265.616934 
L 459.966628 265.616934 
L 462.10702 263.409635 
L 464.247411 263.409635 
L 465.317606 262.305985 
L 467.457998 262.305985 
L 468.528193 261.202336 
L 469.598389 261.202336 
L 470.668585 260.098686 
L 478.159954 260.098686 
L 479.23015 258.995036 
L 503.844649 258.995036 
L 504.914845 257.891387 
L 510.265823 257.891387 
L 511.336018 256.787737 
L 523.10817 256.787737 
L 524.178366 255.684088 
L 571.266974 255.684088 
L 572.337169 254.580438 
L 578.758343 254.580438 
L 579.828539 253.476788 
L 580.898734 253.476788 
L 581.96893 252.373139 
L 595.881473 252.373139 
L 596.951669 251.269489 
L 617.285386 251.269489 
L 618.355581 250.165839 
L 622.636364 250.165839 
L 622.636364 250.165839 
" clip-path="url(#p0069f372ab)" style="fill: none; stroke: #1f77b4; stroke-width: 1.5; stroke-linecap: square"/>
   </g>
   <g id="line2d_40">
    <path d="M 115.363636 328.524964 
L 122.855006 328.524964 
L 123.925201 327.421314 
L 127.135788 327.421314 
L 128.205984 326.317664 
L 132.486766 326.317664 
L 133.556962 325.214015 
L 136.767549 325.214015 
L 137.837745 324.110365 
L 138.90794 324.110365 
L 139.978136 323.006715 
L 143.188723 323.006715 
L 144.258918 321.903066 
L 146.39931 321.903066 
L 147.469505 320.799416 
L 148.539701 320.799416 
L 150.680092 318.592117 
L 157.101266 318.592117 
L 158.171461 317.488467 
L 159.241657 317.488467 
L 160.311853 316.384818 
L 161.382048 316.384818 
L 162.452244 314.177518 
L 163.52244 310.866569 
L 164.592635 309.76292 
L 168.873418 309.76292 
L 172.084005 306.451971 
L 175.294591 306.451971 
L 177.434983 304.244672 
L 189.207135 304.244672 
L 190.27733 300.933723 
L 191.347526 300.933723 
L 193.487917 296.519124 
L 195.628308 294.311825 
L 196.698504 294.311825 
L 197.7687 292.104526 
L 206.330265 292.104526 
L 207.40046 289.897226 
L 210.611047 289.897226 
L 211.681243 288.793577 
L 219.172612 288.793577 
L 220.242808 287.689927 
L 233.085155 287.689927 
L 234.155351 286.586277 
L 235.225547 286.586277 
L 236.295742 285.482628 
L 239.506329 285.482628 
L 240.576525 284.378978 
L 253.418872 284.378978 
L 254.489068 283.275328 
L 256.629459 283.275328 
L 258.76985 278.86073 
L 260.910242 278.86073 
L 263.050633 276.653431 
L 265.191024 276.653431 
L 266.26122 275.549781 
L 269.471807 275.549781 
L 270.542002 274.446131 
L 283.38435 274.446131 
L 284.454545 273.342482 
L 300.50748 273.342482 
L 301.577675 272.238832 
L 311.209436 272.238832 
L 312.279632 271.135182 
L 314.420023 271.135182 
L 315.490219 270.031533 
L 318.700806 270.031533 
L 320.841197 267.824234 
L 321.911392 267.824234 
L 322.981588 266.720584 
L 327.262371 266.720584 
L 329.402762 264.513285 
L 334.75374 264.513285 
L 335.823936 263.409635 
L 339.034522 263.409635 
L 340.104718 262.305985 
L 345.455696 262.305985 
L 346.525892 261.202336 
L 351.87687 261.202336 
L 352.947066 260.098686 
L 372.210587 260.098686 
L 373.280783 258.995036 
L 374.350978 258.995036 
L 375.421174 257.891387 
L 386.12313 257.891387 
L 387.193326 255.684088 
L 388.263521 255.684088 
L 389.333717 254.580438 
L 400.035673 254.580438 
L 401.105869 253.476788 
L 405.386651 253.476788 
L 406.456847 252.373139 
L 407.527043 252.373139 
L 408.597238 251.269489 
L 418.228999 251.269489 
L 419.299194 250.165839 
L 440.703107 250.165839 
L 441.773303 246.854891 
L 449.264672 246.854891 
L 450.334868 245.751241 
L 452.475259 245.751241 
L 453.545455 244.647591 
L 466.387802 244.647591 
L 467.457998 243.543942 
L 482.440736 243.543942 
L 483.510932 242.440292 
L 486.721519 242.440292 
L 487.791715 241.336642 
L 496.35328 241.336642 
L 497.423475 239.129343 
L 514.546605 239.129343 
L 515.616801 238.025693 
L 520.967779 238.025693 
L 522.037975 236.922044 
L 538.090909 236.922044 
L 539.161105 235.818394 
L 541.301496 235.818394 
L 542.371692 234.714745 
L 553.073648 234.714745 
L 554.143844 233.611095 
L 565.915995 233.611095 
L 566.986191 232.507445 
L 580.898734 232.507445 
L 581.96893 231.403796 
L 594.811277 231.403796 
L 595.881473 230.300146 
L 603.372842 230.300146 
L 604.443038 229.196496 
L 615.144994 229.196496 
L 618.355581 225.885547 
L 620.495972 225.885547 
L 621.566168 224.781898 
L 622.636364 224.781898 
L 622.636364 224.781898 
" clip-path="url(#p0069f372ab)" style="fill: none; stroke: #ff7f0e; stroke-width: 1.5; stroke-linecap: square"/>
   </g>
   <g id="patch_3">
    <path d="M 90 384.48 
L 90 51.84 
" style="fill: none; stroke: #000000; stroke-width: 0.8; stroke-linejoin: miter; stroke-linecap: square"/>
   </g>
   <g id="patch_4">
    <path d="M 648 384.48 
L 648 51.84 
" style="fill: none; stroke: #000000; stroke-width: 0.8; stroke-linejoin: miter; stroke-linecap: square"/>
   </g>
   <g id="patch_5">
    <path d="M 90 384.48 
L 648 384.48 
" style="fill: none; stroke: #000000; stroke-width: 0.8; stroke-linejoin: miter; stroke-linecap: square"/>
   </g>
   <g id="patch_6">
    <path d="M 90 51.84 
L 648 51.84 
" style="fill: none; stroke: #000000; stroke-width: 0.8; stroke-linejoin: miter; stroke-linecap: square"/>
   </g>
   <g id="text_17">
    <!-- Time Series of Votes for Each Keyword -->
    <g transform="translate(253.716563 45.84) scale(0.12 -0.12)">
     <defs>
      <path id="DejaVuSans-53" d="M 3425 4513 
L 3425 3897 
Q 3066 4069 2747 4153 
Q 2428 4238 2131 4238 
Q 1616 4238 1336 4038 
Q 1056 3838 1056 3469 
Q 1056 3159 1242 3001 
Q 1428 2844 1947 2747 
L 2328 2669 
Q 3034 2534 3370 2195 
Q 3706 1856 3706 1288 
Q 3706 609 3251 259 
Q 2797 -91 1919 -91 
Q 1588 -91 1214 -16 
Q 841 59 441 206 
L 441 856 
Q 825 641 1194 531 
Q 1563 422 1919 422 
Q 2459 422 2753 634 
Q 3047 847 3047 1241 
Q 3047 1584 2836 1778 
Q 2625 1972 2144 2069 
L 1759 2144 
Q 1053 2284 737 2584 
Q 422 2884 422 3419 
Q 422 4038 858 4394 
Q 1294 4750 2059 4750 
Q 2388 4750 2728 4690 
Q 3069 4631 3425 4513 
z
" transform="scale(0.015625)"/>
      <path id="DejaVuSans-72" d="M 2631 2963 
Q 2534 3019 2420 3045 
Q 2306 3072 2169 3072 
Q 1681 3072 1420 2755 
Q 1159 2438 1159 1844 
L 1159 0 
L 581 0 
L 581 3500 
L 1159 3500 
L 1159 2956 
Q 1341 3275 1631 3429 
Q 1922 3584 2338 3584 
Q 2397 3584 2469 3576 
Q 2541 3569 2628 3553 
L 2631 2963 
z
" transform="scale(0.015625)"/>
      <path id="DejaVuSans-66" d="M 2375 4863 
L 2375 4384 
L 1825 4384 
Q 1516 4384 1395 4259 
Q 1275 4134 1275 3809 
L 1275 3500 
L 2222 3500 
L 2222 3053 
L 1275 3053 
L 1275 0 
L 697 0 
L 697 3053 
L 147 3053 
L 147 3500 
L 697 3500 
L 697 3744 
Q 697 4328 969 4595 
Q 1241 4863 1831 4863 
L 2375 4863 
z
" transform="scale(0.015625)"/>
      <path id="DejaVuSans-45" d="M 628 4666 
L 3578 4666 
L 3578 4134 
L 1259 4134 
L 1259 2753 
L 3481 2753 
L 3481 2222 
L 1259 2222 
L 1259 531 
L 3634 531 
L 3634 0 
L 628 0 
L 628 4666 
z
" transform="scale(0.015625)"/>
      <path id="DejaVuSans-63" d="M 3122 3366 
L 3122 2828 
Q 2878 2963 2633 3030 
Q 2388 3097 2138 3097 
Q 1578 3097 1268 2742 
Q 959 2388 959 1747 
Q 959 1106 1268 751 
Q 1578 397 2138 397 
Q 2388 397 2633 464 
Q 2878 531 3122 666 
L 3122 134 
Q 2881 22 2623 -34 
Q 2366 -91 2075 -91 
Q 1284 -91 818 406 
Q 353 903 353 1747 
Q 353 2603 823 3093 
Q 1294 3584 2113 3584 
Q 2378 3584 2631 3529 
Q 2884 3475 3122 3366 
z
" transform="scale(0.015625)"/>
      <path id="DejaVuSans-68" d="M 3513 2113 
L 3513 0 
L 2938 0 
L 2938 2094 
Q 2938 2591 2744 2837 
Q 2550 3084 2163 3084 
Q 1697 3084 1428 2787 
Q 1159 2491 1159 1978 
L 1159 0 
L 581 0 
L 581 4863 
L 1159 4863 
L 1159 2956 
Q 1366 3272 1645 3428 
Q 1925 3584 2291 3584 
Q 2894 3584 3203 3211 
Q 3513 2838 3513 2113 
z
" transform="scale(0.015625)"/>
      <path id="DejaVuSans-4b" d="M 628 4666 
L 1259 4666 
L 1259 2694 
L 3353 4666 
L 4166 4666 
L 1850 2491 
L 4331 0 
L 3500 0 
L 1259 2247 
L 1259 0 
L 628 0 
L 628 4666 
z
" transform="scale(0.015625)"/>
      <path id="DejaVuSans-79" d="M 2059 -325 
Q 1816 -950 1584 -1140 
Q 1353 -1331 966 -1331 
L 506 -1331 
L 506 -850 
L 844 -850 
Q 1081 -850 1212 -737 
Q 1344 -625 1503 -206 
L 1606 56 
L 191 3500 
L 800 3500 
L 1894 763 
L 2988 3500 
L 3597 3500 
L 2059 -325 
z
" transform="scale(0.015625)"/>
      <path id="DejaVuSans-77" d="M 269 3500 
L 844 3500 
L 1563 769 
L 2278 3500 
L 2956 3500 
L 3675 769 
L 4391 3500 
L 4966 3500 
L 4050 0 
L 3372 0 
L 2619 2869 
L 1863 0 
L 1184 0 
L 269 3500 
z
" transform="scale(0.015625)"/>
     </defs>
     <use xlink:href="#DejaVuSans-54"/>
     <use xlink:href="#DejaVuSans-69" transform="translate(57.958984 0)"/>
     <use xlink:href="#DejaVuSans-6d" transform="translate(85.742188 0)"/>
     <use xlink:href="#DejaVuSans-65" transform="translate(183.154297 0)"/>
     <use xlink:href="#DejaVuSans-20" transform="translate(244.677734 0)"/>
     <use xlink:href="#DejaVuSans-53" transform="translate(276.464844 0)"/>
     <use xlink:href="#DejaVuSans-65" transform="translate(339.941406 0)"/>
     <use xlink:href="#DejaVuSans-72" transform="translate(401.464844 0)"/>
     <use xlink:href="#DejaVuSans-69" transform="translate(442.578125 0)"/>
     <use xlink:href="#DejaVuSans-65" transform="translate(470.361328 0)"/>
     <use xlink:href="#DejaVuSans-73" transform="translate(531.884766 0)"/>
     <use xlink:href="#DejaVuSans-20" transform="translate(583.984375 0)"/>
     <use xlink:href="#DejaVuSans-6f" transform="translate(615.771484 0)"/>
     <use xlink:href="#DejaVuSans-66" transform="translate(676.953125 0)"/>
     <use xlink:href="#DejaVuSans-20" transform="translate(712.158203 0)"/>
     <use xlink:href="#DejaVuSans-56" transform="translate(743.945312 0)"/>
     <use xlink:href="#DejaVuSans-6f" transform="translate(804.603516 0)"/>
     <use xlink:href="#DejaVuSans-74" transform="translate(865.785156 0)"/>
     <use xlink:href="#DejaVuSans-65" transform="translate(904.994141 0)"/>
     <use xlink:href="#DejaVuSans-73" transform="translate(966.517578 0)"/>
     <use xlink:href="#DejaVuSans-20" transform="translate(1018.617188 0)"/>
     <use xlink:href="#DejaVuSans-66" transform="translate(1050.404297 0)"/>
     <use xlink:href="#DejaVuSans-6f" transform="translate(1085.609375 0)"/>
     <use xlink:href="#DejaVuSans-72" transform="translate(1146.791016 0)"/>
     <use xlink:href="#DejaVuSans-20" transform="translate(1187.904297 0)"/>
     <use xlink:href="#DejaVuSans-45" transform="translate(1219.691406 0)"/>
     <use xlink:href="#DejaVuSans-61" transform="translate(1282.875 0)"/>
     <use xlink:href="#DejaVuSans-63" transform="translate(1344.154297 0)"/>
     <use xlink:href="#DejaVuSans-68" transform="translate(1399.134766 0)"/>
     <use xlink:href="#DejaVuSans-20" transform="translate(1462.513672 0)"/>
     <use xlink:href="#DejaVuSans-4b" transform="translate(1494.300781 0)"/>
     <use xlink:href="#DejaVuSans-65" transform="translate(1554.876953 0)"/>
     <use xlink:href="#DejaVuSans-79" transform="translate(1616.400391 0)"/>
     <use xlink:href="#DejaVuSans-77" transform="translate(1675.580078 0)"/>
     <use xlink:href="#DejaVuSans-6f" transform="translate(1757.367188 0)"/>
     <use xlink:href="#DejaVuSans-72" transform="translate(1818.548828 0)"/>
     <use xlink:href="#DejaVuSans-64" transform="translate(1857.912109 0)"/>
    </g>
   </g>
   <g id="legend_1">
    <g id="patch_7">
     <path d="M 97 235.9775 
L 149.245313 235.9775 
Q 151.245313 235.9775 151.245313 233.9775 
L 151.245313 58.84 
Q 151.245313 56.84 149.245313 56.84 
L 97 56.84 
Q 95 56.84 95 58.84 
L 95 233.9775 
Q 95 235.9775 97 235.9775 
z
" style="fill: #ffffff; opacity: 0.8; stroke: #cccccc; stroke-linejoin: miter"/>
    </g>
    <g id="line2d_41">
     <path d="M 99 64.938437 
L 109 64.938437 
L 119 64.938437 
" style="fill: none; stroke: #1f77b4; stroke-width: 1.5; stroke-linecap: square"/>
    </g>
    <g id="text_18">
     <!-- H01 -->
     <g transform="translate(127 68.438437) scale(0.1 -0.1)">
      <defs>
       <path id="DejaVuSans-48" d="M 628 4666 
L 1259 4666 
L 1259 2753 
L 3553 2753 
L 3553 4666 
L 4184 4666 
L 4184 0 
L 3553 0 
L 3553 2222 
L 1259 2222 
L 1259 0 
L 628 0 
L 628 4666 
z
" transform="scale(0.015625)"/>
      </defs>
      <use xlink:href="#DejaVuSans-48"/>
      <use xlink:href="#DejaVuSans-30" transform="translate(75.195312 0)"/>
      <use xlink:href="#DejaVuSans-31" transform="translate(138.818359 0)"/>
     </g>
    </g>
    <g id="line2d_42">
     <path d="M 99 79.616562 
L 109 79.616562 
L 119 79.616562 
" style="fill: none; stroke: #ff7f0e; stroke-width: 1.5; stroke-linecap: square"/>
    </g>
    <g id="text_19">
     <!-- H02 -->
     <g transform="translate(127 83.116562) scale(0.1 -0.1)">
      <use xlink:href="#DejaVuSans-48"/>
      <use xlink:href="#DejaVuSans-30" transform="translate(75.195312 0)"/>
      <use xlink:href="#DejaVuSans-32" transform="translate(138.818359 0)"/>
     </g>
    </g>
    <g id="line2d_43">
     <path d="M 99 94.294688 
L 109 94.294688 
L 119 94.294688 
" style="fill: none; stroke: #2ca02c; stroke-width: 1.5; stroke-linecap: square"/>
    </g>
    <g id="text_20">
     <!-- H03 -->
     <g transform="translate(127 97.794688) scale(0.1 -0.1)">
      <defs>
       <path id="DejaVuSans-33" d="M 2597 2516 
Q 3050 2419 3304 2112 
Q 3559 1806 3559 1356 
Q 3559 666 3084 287 
Q 2609 -91 1734 -91 
Q 1441 -91 1130 -33 
Q 819 25 488 141 
L 488 750 
Q 750 597 1062 519 
Q 1375 441 1716 441 
Q 2309 441 2620 675 
Q 2931 909 2931 1356 
Q 2931 1769 2642 2001 
Q 2353 2234 1838 2234 
L 1294 2234 
L 1294 2753 
L 1863 2753 
Q 2328 2753 2575 2939 
Q 2822 3125 2822 3475 
Q 2822 3834 2567 4026 
Q 2313 4219 1838 4219 
Q 1578 4219 1281 4162 
Q 984 4106 628 3988 
L 628 4550 
Q 988 4650 1302 4700 
Q 1616 4750 1894 4750 
Q 2613 4750 3031 4423 
Q 3450 4097 3450 3541 
Q 3450 3153 3228 2886 
Q 3006 2619 2597 2516 
z
" transform="scale(0.015625)"/>
      </defs>
      <use xlink:href="#DejaVuSans-48"/>
      <use xlink:href="#DejaVuSans-30" transform="translate(75.195312 0)"/>
      <use xlink:href="#DejaVuSans-33" transform="translate(138.818359 0)"/>
     </g>
    </g>
    <g id="line2d_44">
     <path d="M 99 108.972812 
L 109 108.972812 
L 119 108.972812 
" style="fill: none; stroke: #d62728; stroke-width: 1.5; stroke-linecap: square"/>
    </g>
    <g id="text_21">
     <!-- H04 -->
     <g transform="translate(127 112.472812) scale(0.1 -0.1)">
      <use xlink:href="#DejaVuSans-48"/>
      <use xlink:href="#DejaVuSans-30" transform="translate(75.195312 0)"/>
      <use xlink:href="#DejaVuSans-34" transform="translate(138.818359 0)"/>
     </g>
    </g>
    <g id="line2d_45">
     <path d="M 99 123.650937 
L 109 123.650937 
L 119 123.650937 
" style="fill: none; stroke: #9467bd; stroke-width: 1.5; stroke-linecap: square"/>
    </g>
    <g id="text_22">
     <!-- H05 -->
     <g transform="translate(127 127.150937) scale(0.1 -0.1)">
      <use xlink:href="#DejaVuSans-48"/>
      <use xlink:href="#DejaVuSans-30" transform="translate(75.195312 0)"/>
      <use xlink:href="#DejaVuSans-35" transform="translate(138.818359 0)"/>
     </g>
    </g>
    <g id="line2d_46">
     <path d="M 99 138.329062 
L 109 138.329062 
L 119 138.329062 
" style="fill: none; stroke: #8c564b; stroke-width: 1.5; stroke-linecap: square"/>
    </g>
    <g id="text_23">
     <!-- H06 -->
     <g transform="translate(127 141.829062) scale(0.1 -0.1)">
      <use xlink:href="#DejaVuSans-48"/>
      <use xlink:href="#DejaVuSans-30" transform="translate(75.195312 0)"/>
      <use xlink:href="#DejaVuSans-36" transform="translate(138.818359 0)"/>
     </g>
    </g>
    <g id="line2d_47">
     <path d="M 99 153.007187 
L 109 153.007187 
L 119 153.007187 
" style="fill: none; stroke: #e377c2; stroke-width: 1.5; stroke-linecap: square"/>
    </g>
    <g id="text_24">
     <!-- H07 -->
     <g transform="translate(127 156.507187) scale(0.1 -0.1)">
      <use xlink:href="#DejaVuSans-48"/>
      <use xlink:href="#DejaVuSans-30" transform="translate(75.195312 0)"/>
      <use xlink:href="#DejaVuSans-37" transform="translate(138.818359 0)"/>
     </g>
    </g>
    <g id="line2d_48">
     <path d="M 99 167.685312 
L 109 167.685312 
L 119 167.685312 
" style="fill: none; stroke: #7f7f7f; stroke-width: 1.5; stroke-linecap: square"/>
    </g>
    <g id="text_25">
     <!-- H08 -->
     <g transform="translate(127 171.185312) scale(0.1 -0.1)">
      <use xlink:href="#DejaVuSans-48"/>
      <use xlink:href="#DejaVuSans-30" transform="translate(75.195312 0)"/>
      <use xlink:href="#DejaVuSans-38" transform="translate(138.818359 0)"/>
     </g>
    </g>
    <g id="line2d_49">
     <path d="M 99 182.363437 
L 109 182.363437 
L 119 182.363437 
" style="fill: none; stroke: #bcbd22; stroke-width: 1.5; stroke-linecap: square"/>
    </g>
    <g id="text_26">
     <!-- H09 -->
     <g transform="translate(127 185.863437) scale(0.1 -0.1)">
      <use xlink:href="#DejaVuSans-48"/>
      <use xlink:href="#DejaVuSans-30" transform="translate(75.195312 0)"/>
      <use xlink:href="#DejaVuSans-39" transform="translate(138.818359 0)"/>
     </g>
    </g>
    <g id="line2d_50">
     <path d="M 99 197.041562 
L 109 197.041562 
L 119 197.041562 
" style="fill: none; stroke: #17becf; stroke-width: 1.5; stroke-linecap: square"/>
    </g>
    <g id="text_27">
     <!-- H10 -->
     <g transform="translate(127 200.541562) scale(0.1 -0.1)">
      <use xlink:href="#DejaVuSans-48"/>
      <use xlink:href="#DejaVuSans-31" transform="translate(75.195312 0)"/>
      <use xlink:href="#DejaVuSans-30" transform="translate(138.818359 0)"/>
     </g>
    </g>
    <g id="line2d_51">
     <path d="M 99 211.719687 
L 109 211.719687 
L 119 211.719687 
" style="fill: none; stroke: #1f77b4; stroke-width: 1.5; stroke-linecap: square"/>
    </g>
    <g id="text_28">
     <!-- H11 -->
     <g transform="translate(127 215.219687) scale(0.1 -0.1)">
      <use xlink:href="#DejaVuSans-48"/>
      <use xlink:href="#DejaVuSans-31" transform="translate(75.195312 0)"/>
      <use xlink:href="#DejaVuSans-31" transform="translate(138.818359 0)"/>
     </g>
    </g>
    <g id="line2d_52">
     <path d="M 99 226.397812 
L 109 226.397812 
L 119 226.397812 
" style="fill: none; stroke: #ff7f0e; stroke-width: 1.5; stroke-linecap: square"/>
    </g>
    <g id="text_29">
     <!-- H12 -->
     <g transform="translate(127 229.897812) scale(0.1 -0.1)">
      <use xlink:href="#DejaVuSans-48"/>
      <use xlink:href="#DejaVuSans-31" transform="translate(75.195312 0)"/>
      <use xlink:href="#DejaVuSans-32" transform="translate(138.818359 0)"/>
     </g>
    </g>
   </g>
  </g>
 </g>
 <defs>
  <clipPath id="p0069f372ab">
   <rect x="90" y="51.84" width="558" height="332.64"/>
  </clipPath>
 </defs>
</svg>
