<?xml version="1.0" encoding="utf-8" standalone="no"?>
<!DOCTYPE svg PUBLIC "-//W3C//DTD SVG 1.1//EN"
  "http://www.w3.org/Graphics/SVG/1.1/DTD/svg11.dtd">
<svg xmlns:xlink="http://www.w3.org/1999/xlink" width="720pt" height="432pt" viewBox="0 0 720 432" xmlns="http://www.w3.org/2000/svg" version="1.1">
 <metadata>
  <rdf:RDF xmlns:dc="http://purl.org/dc/elements/1.1/" xmlns:cc="http://creativecommons.org/ns#" xmlns:rdf="http://www.w3.org/1999/02/22-rdf-syntax-ns#">
   <cc:Work>
    <dc:type rdf:resource="http://purl.org/dc/dcmitype/StillImage"/>
    <dc:date>2025-01-14T19:56:04.540991</dc:date>
    <dc:format>image/svg+xml</dc:format>
    <dc:creator>
     <cc:Agent>
      <dc:title>Matplotlib v3.10.0, https://matplotlib.org/</dc:title>
     </cc:Agent>
    </dc:creator>
   </cc:Work>
  </rdf:RDF>
 </metadata>
 <defs>
  <style type="text/css">*{stroke-linejoin: round; stroke-linecap: butt}</style>
 </defs>
 <g id="figure_1">
  <g id="patch_1">
   <path d="M 0 432 
L 720 432 
L 720 0 
L 0 0 
z
" style="fill: #ffffff"/>
  </g>
  <g id="axes_1">
   <g id="patch_2">
    <path d="M 90 384.48 
L 648 384.48 
L 648 51.84 
L 90 51.84 
z
" style="fill: #ffffff"/>
   </g>
   <g id="matplotlib.axis_1">
    <g id="xtick_1">
     <g id="line2d_1">
      <path d="M 151.217991 384.48 
L 151.217991 51.84 
" clip-path="url(#pff40bc96fc)" style="fill: none; stroke: #b0b0b0; stroke-width: 0.8; stroke-linecap: square"/>
     </g>
     <g id="line2d_2">
      <defs>
       <path id="me1543e3e25" d="M 0 0 
L 0 3.5 
" style="stroke: #000000; stroke-width: 0.8"/>
      </defs>
      <g>
       <use xlink:href="#me1543e3e25" x="151.217991" y="384.48" style="stroke: #000000; stroke-width: 0.8"/>
      </g>
     </g>
     <g id="text_1">
      <!-- 01-14 14 -->
      <g transform="translate(128.737523 399.078438) scale(0.1 -0.1)">
       <defs>
        <path id="DejaVuSans-30" d="M 2034 4250 
Q 1547 4250 1301 3770 
Q 1056 3291 1056 2328 
Q 1056 1369 1301 889 
Q 1547 409 2034 409 
Q 2525 409 2770 889 
Q 3016 1369 3016 2328 
Q 3016 3291 2770 3770 
Q 2525 4250 2034 4250 
z
M 2034 4750 
Q 2819 4750 3233 4129 
Q 3647 3509 3647 2328 
Q 3647 1150 3233 529 
Q 2819 -91 2034 -91 
Q 1250 -91 836 529 
Q 422 1150 422 2328 
Q 422 3509 836 4129 
Q 1250 4750 2034 4750 
z
" transform="scale(0.015625)"/>
        <path id="DejaVuSans-31" d="M 794 531 
L 1825 531 
L 1825 4091 
L 703 3866 
L 703 4441 
L 1819 4666 
L 2450 4666 
L 2450 531 
L 3481 531 
L 3481 0 
L 794 0 
L 794 531 
z
" transform="scale(0.015625)"/>
        <path id="DejaVuSans-2d" d="M 313 2009 
L 1997 2009 
L 1997 1497 
L 313 1497 
L 313 2009 
z
" transform="scale(0.015625)"/>
        <path id="DejaVuSans-34" d="M 2419 4116 
L 825 1625 
L 2419 1625 
L 2419 4116 
z
M 2253 4666 
L 3047 4666 
L 3047 1625 
L 3713 1625 
L 3713 1100 
L 3047 1100 
L 3047 0 
L 2419 0 
L 2419 1100 
L 313 1100 
L 313 1709 
L 2253 4666 
z
" transform="scale(0.015625)"/>
        <path id="DejaVuSans-20" transform="scale(0.015625)"/>
       </defs>
       <use xlink:href="#DejaVuSans-30"/>
       <use xlink:href="#DejaVuSans-31" transform="translate(63.623047 0)"/>
       <use xlink:href="#DejaVuSans-2d" transform="translate(127.246094 0)"/>
       <use xlink:href="#DejaVuSans-31" transform="translate(163.330078 0)"/>
       <use xlink:href="#DejaVuSans-34" transform="translate(226.953125 0)"/>
       <use xlink:href="#DejaVuSans-20" transform="translate(290.576172 0)"/>
       <use xlink:href="#DejaVuSans-31" transform="translate(322.363281 0)"/>
       <use xlink:href="#DejaVuSans-34" transform="translate(385.986328 0)"/>
      </g>
     </g>
    </g>
    <g id="xtick_2">
     <g id="line2d_3">
      <path d="M 230.894336 384.48 
L 230.894336 51.84 
" clip-path="url(#pff40bc96fc)" style="fill: none; stroke: #b0b0b0; stroke-width: 0.8; stroke-linecap: square"/>
     </g>
     <g id="line2d_4">
      <g>
       <use xlink:href="#me1543e3e25" x="230.894336" y="384.48" style="stroke: #000000; stroke-width: 0.8"/>
      </g>
     </g>
     <g id="text_2">
      <!-- 01-14 15 -->
      <g transform="translate(208.413867 399.078438) scale(0.1 -0.1)">
       <defs>
        <path id="DejaVuSans-35" d="M 691 4666 
L 3169 4666 
L 3169 4134 
L 1269 4134 
L 1269 2991 
Q 1406 3038 1543 3061 
Q 1681 3084 1819 3084 
Q 2600 3084 3056 2656 
Q 3513 2228 3513 1497 
Q 3513 744 3044 326 
Q 2575 -91 1722 -91 
Q 1428 -91 1123 -41 
Q 819 9 494 109 
L 494 744 
Q 775 591 1075 516 
Q 1375 441 1709 441 
Q 2250 441 2565 725 
Q 2881 1009 2881 1497 
Q 2881 1984 2565 2268 
Q 2250 2553 1709 2553 
Q 1456 2553 1204 2497 
Q 953 2441 691 2322 
L 691 4666 
z
" transform="scale(0.015625)"/>
       </defs>
       <use xlink:href="#DejaVuSans-30"/>
       <use xlink:href="#DejaVuSans-31" transform="translate(63.623047 0)"/>
       <use xlink:href="#DejaVuSans-2d" transform="translate(127.246094 0)"/>
       <use xlink:href="#DejaVuSans-31" transform="translate(163.330078 0)"/>
       <use xlink:href="#DejaVuSans-34" transform="translate(226.953125 0)"/>
       <use xlink:href="#DejaVuSans-20" transform="translate(290.576172 0)"/>
       <use xlink:href="#DejaVuSans-31" transform="translate(322.363281 0)"/>
       <use xlink:href="#DejaVuSans-35" transform="translate(385.986328 0)"/>
      </g>
     </g>
    </g>
    <g id="xtick_3">
     <g id="line2d_5">
      <path d="M 310.570681 384.48 
L 310.570681 51.84 
" clip-path="url(#pff40bc96fc)" style="fill: none; stroke: #b0b0b0; stroke-width: 0.8; stroke-linecap: square"/>
     </g>
     <g id="line2d_6">
      <g>
       <use xlink:href="#me1543e3e25" x="310.570681" y="384.48" style="stroke: #000000; stroke-width: 0.8"/>
      </g>
     </g>
     <g id="text_3">
      <!-- 01-14 16 -->
      <g transform="translate(288.090212 399.078438) scale(0.1 -0.1)">
       <defs>
        <path id="DejaVuSans-36" d="M 2113 2584 
Q 1688 2584 1439 2293 
Q 1191 2003 1191 1497 
Q 1191 994 1439 701 
Q 1688 409 2113 409 
Q 2538 409 2786 701 
Q 3034 994 3034 1497 
Q 3034 2003 2786 2293 
Q 2538 2584 2113 2584 
z
M 3366 4563 
L 3366 3988 
Q 3128 4100 2886 4159 
Q 2644 4219 2406 4219 
Q 1781 4219 1451 3797 
Q 1122 3375 1075 2522 
Q 1259 2794 1537 2939 
Q 1816 3084 2150 3084 
Q 2853 3084 3261 2657 
Q 3669 2231 3669 1497 
Q 3669 778 3244 343 
Q 2819 -91 2113 -91 
Q 1303 -91 875 529 
Q 447 1150 447 2328 
Q 447 3434 972 4092 
Q 1497 4750 2381 4750 
Q 2619 4750 2861 4703 
Q 3103 4656 3366 4563 
z
" transform="scale(0.015625)"/>
       </defs>
       <use xlink:href="#DejaVuSans-30"/>
       <use xlink:href="#DejaVuSans-31" transform="translate(63.623047 0)"/>
       <use xlink:href="#DejaVuSans-2d" transform="translate(127.246094 0)"/>
       <use xlink:href="#DejaVuSans-31" transform="translate(163.330078 0)"/>
       <use xlink:href="#DejaVuSans-34" transform="translate(226.953125 0)"/>
       <use xlink:href="#DejaVuSans-20" transform="translate(290.576172 0)"/>
       <use xlink:href="#DejaVuSans-31" transform="translate(322.363281 0)"/>
       <use xlink:href="#DejaVuSans-36" transform="translate(385.986328 0)"/>
      </g>
     </g>
    </g>
    <g id="xtick_4">
     <g id="line2d_7">
      <path d="M 390.247025 384.48 
L 390.247025 51.84 
" clip-path="url(#pff40bc96fc)" style="fill: none; stroke: #b0b0b0; stroke-width: 0.8; stroke-linecap: square"/>
     </g>
     <g id="line2d_8">
      <g>
       <use xlink:href="#me1543e3e25" x="390.247025" y="384.48" style="stroke: #000000; stroke-width: 0.8"/>
      </g>
     </g>
     <g id="text_4">
      <!-- 01-14 17 -->
      <g transform="translate(367.766556 399.078438) scale(0.1 -0.1)">
       <defs>
        <path id="DejaVuSans-37" d="M 525 4666 
L 3525 4666 
L 3525 4397 
L 1831 0 
L 1172 0 
L 2766 4134 
L 525 4134 
L 525 4666 
z
" transform="scale(0.015625)"/>
       </defs>
       <use xlink:href="#DejaVuSans-30"/>
       <use xlink:href="#DejaVuSans-31" transform="translate(63.623047 0)"/>
       <use xlink:href="#DejaVuSans-2d" transform="translate(127.246094 0)"/>
       <use xlink:href="#DejaVuSans-31" transform="translate(163.330078 0)"/>
       <use xlink:href="#DejaVuSans-34" transform="translate(226.953125 0)"/>
       <use xlink:href="#DejaVuSans-20" transform="translate(290.576172 0)"/>
       <use xlink:href="#DejaVuSans-31" transform="translate(322.363281 0)"/>
       <use xlink:href="#DejaVuSans-37" transform="translate(385.986328 0)"/>
      </g>
     </g>
    </g>
    <g id="xtick_5">
     <g id="line2d_9">
      <path d="M 469.92337 384.48 
L 469.92337 51.84 
" clip-path="url(#pff40bc96fc)" style="fill: none; stroke: #b0b0b0; stroke-width: 0.8; stroke-linecap: square"/>
     </g>
     <g id="line2d_10">
      <g>
       <use xlink:href="#me1543e3e25" x="469.92337" y="384.48" style="stroke: #000000; stroke-width: 0.8"/>
      </g>
     </g>
     <g id="text_5">
      <!-- 01-14 18 -->
      <g transform="translate(447.442901 399.078438) scale(0.1 -0.1)">
       <defs>
        <path id="DejaVuSans-38" d="M 2034 2216 
Q 1584 2216 1326 1975 
Q 1069 1734 1069 1313 
Q 1069 891 1326 650 
Q 1584 409 2034 409 
Q 2484 409 2743 651 
Q 3003 894 3003 1313 
Q 3003 1734 2745 1975 
Q 2488 2216 2034 2216 
z
M 1403 2484 
Q 997 2584 770 2862 
Q 544 3141 544 3541 
Q 544 4100 942 4425 
Q 1341 4750 2034 4750 
Q 2731 4750 3128 4425 
Q 3525 4100 3525 3541 
Q 3525 3141 3298 2862 
Q 3072 2584 2669 2484 
Q 3125 2378 3379 2068 
Q 3634 1759 3634 1313 
Q 3634 634 3220 271 
Q 2806 -91 2034 -91 
Q 1263 -91 848 271 
Q 434 634 434 1313 
Q 434 1759 690 2068 
Q 947 2378 1403 2484 
z
M 1172 3481 
Q 1172 3119 1398 2916 
Q 1625 2713 2034 2713 
Q 2441 2713 2670 2916 
Q 2900 3119 2900 3481 
Q 2900 3844 2670 4047 
Q 2441 4250 2034 4250 
Q 1625 4250 1398 4047 
Q 1172 3844 1172 3481 
z
" transform="scale(0.015625)"/>
       </defs>
       <use xlink:href="#DejaVuSans-30"/>
       <use xlink:href="#DejaVuSans-31" transform="translate(63.623047 0)"/>
       <use xlink:href="#DejaVuSans-2d" transform="translate(127.246094 0)"/>
       <use xlink:href="#DejaVuSans-31" transform="translate(163.330078 0)"/>
       <use xlink:href="#DejaVuSans-34" transform="translate(226.953125 0)"/>
       <use xlink:href="#DejaVuSans-20" transform="translate(290.576172 0)"/>
       <use xlink:href="#DejaVuSans-31" transform="translate(322.363281 0)"/>
       <use xlink:href="#DejaVuSans-38" transform="translate(385.986328 0)"/>
      </g>
     </g>
    </g>
    <g id="xtick_6">
     <g id="line2d_11">
      <path d="M 549.599714 384.48 
L 549.599714 51.84 
" clip-path="url(#pff40bc96fc)" style="fill: none; stroke: #b0b0b0; stroke-width: 0.8; stroke-linecap: square"/>
     </g>
     <g id="line2d_12">
      <g>
       <use xlink:href="#me1543e3e25" x="549.599714" y="384.48" style="stroke: #000000; stroke-width: 0.8"/>
      </g>
     </g>
     <g id="text_6">
      <!-- 01-14 19 -->
      <g transform="translate(527.119246 399.078438) scale(0.1 -0.1)">
       <defs>
        <path id="DejaVuSans-39" d="M 703 97 
L 703 672 
Q 941 559 1184 500 
Q 1428 441 1663 441 
Q 2288 441 2617 861 
Q 2947 1281 2994 2138 
Q 2813 1869 2534 1725 
Q 2256 1581 1919 1581 
Q 1219 1581 811 2004 
Q 403 2428 403 3163 
Q 403 3881 828 4315 
Q 1253 4750 1959 4750 
Q 2769 4750 3195 4129 
Q 3622 3509 3622 2328 
Q 3622 1225 3098 567 
Q 2575 -91 1691 -91 
Q 1453 -91 1209 -44 
Q 966 3 703 97 
z
M 1959 2075 
Q 2384 2075 2632 2365 
Q 2881 2656 2881 3163 
Q 2881 3666 2632 3958 
Q 2384 4250 1959 4250 
Q 1534 4250 1286 3958 
Q 1038 3666 1038 3163 
Q 1038 2656 1286 2365 
Q 1534 2075 1959 2075 
z
" transform="scale(0.015625)"/>
       </defs>
       <use xlink:href="#DejaVuSans-30"/>
       <use xlink:href="#DejaVuSans-31" transform="translate(63.623047 0)"/>
       <use xlink:href="#DejaVuSans-2d" transform="translate(127.246094 0)"/>
       <use xlink:href="#DejaVuSans-31" transform="translate(163.330078 0)"/>
       <use xlink:href="#DejaVuSans-34" transform="translate(226.953125 0)"/>
       <use xlink:href="#DejaVuSans-20" transform="translate(290.576172 0)"/>
       <use xlink:href="#DejaVuSans-31" transform="translate(322.363281 0)"/>
       <use xlink:href="#DejaVuSans-39" transform="translate(385.986328 0)"/>
      </g>
     </g>
    </g>
    <g id="xtick_7">
     <g id="line2d_13">
      <path d="M 629.276059 384.48 
L 629.276059 51.84 
" clip-path="url(#pff40bc96fc)" style="fill: none; stroke: #b0b0b0; stroke-width: 0.8; stroke-linecap: square"/>
     </g>
     <g id="line2d_14">
      <g>
       <use xlink:href="#me1543e3e25" x="629.276059" y="384.48" style="stroke: #000000; stroke-width: 0.8"/>
      </g>
     </g>
     <g id="text_7">
      <!-- 01-14 20 -->
      <g transform="translate(606.79559 399.078438) scale(0.1 -0.1)">
       <defs>
        <path id="DejaVuSans-32" d="M 1228 531 
L 3431 531 
L 3431 0 
L 469 0 
L 469 531 
Q 828 903 1448 1529 
Q 2069 2156 2228 2338 
Q 2531 2678 2651 2914 
Q 2772 3150 2772 3378 
Q 2772 3750 2511 3984 
Q 2250 4219 1831 4219 
Q 1534 4219 1204 4116 
Q 875 4013 500 3803 
L 500 4441 
Q 881 4594 1212 4672 
Q 1544 4750 1819 4750 
Q 2544 4750 2975 4387 
Q 3406 4025 3406 3419 
Q 3406 3131 3298 2873 
Q 3191 2616 2906 2266 
Q 2828 2175 2409 1742 
Q 1991 1309 1228 531 
z
" transform="scale(0.015625)"/>
       </defs>
       <use xlink:href="#DejaVuSans-30"/>
       <use xlink:href="#DejaVuSans-31" transform="translate(63.623047 0)"/>
       <use xlink:href="#DejaVuSans-2d" transform="translate(127.246094 0)"/>
       <use xlink:href="#DejaVuSans-31" transform="translate(163.330078 0)"/>
       <use xlink:href="#DejaVuSans-34" transform="translate(226.953125 0)"/>
       <use xlink:href="#DejaVuSans-20" transform="translate(290.576172 0)"/>
       <use xlink:href="#DejaVuSans-32" transform="translate(322.363281 0)"/>
       <use xlink:href="#DejaVuSans-30" transform="translate(385.986328 0)"/>
      </g>
     </g>
    </g>
    <g id="text_8">
     <!-- Date and Time -->
     <g transform="translate(332.230469 412.756563) scale(0.1 -0.1)">
      <defs>
       <path id="DejaVuSans-44" d="M 1259 4147 
L 1259 519 
L 2022 519 
Q 2988 519 3436 956 
Q 3884 1394 3884 2338 
Q 3884 3275 3436 3711 
Q 2988 4147 2022 4147 
L 1259 4147 
z
M 628 4666 
L 1925 4666 
Q 3281 4666 3915 4102 
Q 4550 3538 4550 2338 
Q 4550 1131 3912 565 
Q 3275 0 1925 0 
L 628 0 
L 628 4666 
z
" transform="scale(0.015625)"/>
       <path id="DejaVuSans-61" d="M 2194 1759 
Q 1497 1759 1228 1600 
Q 959 1441 959 1056 
Q 959 750 1161 570 
Q 1363 391 1709 391 
Q 2188 391 2477 730 
Q 2766 1069 2766 1631 
L 2766 1759 
L 2194 1759 
z
M 3341 1997 
L 3341 0 
L 2766 0 
L 2766 531 
Q 2569 213 2275 61 
Q 1981 -91 1556 -91 
Q 1019 -91 701 211 
Q 384 513 384 1019 
Q 384 1609 779 1909 
Q 1175 2209 1959 2209 
L 2766 2209 
L 2766 2266 
Q 2766 2663 2505 2880 
Q 2244 3097 1772 3097 
Q 1472 3097 1187 3025 
Q 903 2953 641 2809 
L 641 3341 
Q 956 3463 1253 3523 
Q 1550 3584 1831 3584 
Q 2591 3584 2966 3190 
Q 3341 2797 3341 1997 
z
" transform="scale(0.015625)"/>
       <path id="DejaVuSans-74" d="M 1172 4494 
L 1172 3500 
L 2356 3500 
L 2356 3053 
L 1172 3053 
L 1172 1153 
Q 1172 725 1289 603 
Q 1406 481 1766 481 
L 2356 481 
L 2356 0 
L 1766 0 
Q 1100 0 847 248 
Q 594 497 594 1153 
L 594 3053 
L 172 3053 
L 172 3500 
L 594 3500 
L 594 4494 
L 1172 4494 
z
" transform="scale(0.015625)"/>
       <path id="DejaVuSans-65" d="M 3597 1894 
L 3597 1613 
L 953 1613 
Q 991 1019 1311 708 
Q 1631 397 2203 397 
Q 2534 397 2845 478 
Q 3156 559 3463 722 
L 3463 178 
Q 3153 47 2828 -22 
Q 2503 -91 2169 -91 
Q 1331 -91 842 396 
Q 353 884 353 1716 
Q 353 2575 817 3079 
Q 1281 3584 2069 3584 
Q 2775 3584 3186 3129 
Q 3597 2675 3597 1894 
z
M 3022 2063 
Q 3016 2534 2758 2815 
Q 2500 3097 2075 3097 
Q 1594 3097 1305 2825 
Q 1016 2553 972 2059 
L 3022 2063 
z
" transform="scale(0.015625)"/>
       <path id="DejaVuSans-6e" d="M 3513 2113 
L 3513 0 
L 2938 0 
L 2938 2094 
Q 2938 2591 2744 2837 
Q 2550 3084 2163 3084 
Q 1697 3084 1428 2787 
Q 1159 2491 1159 1978 
L 1159 0 
L 581 0 
L 581 3500 
L 1159 3500 
L 1159 2956 
Q 1366 3272 1645 3428 
Q 1925 3584 2291 3584 
Q 2894 3584 3203 3211 
Q 3513 2838 3513 2113 
z
" transform="scale(0.015625)"/>
       <path id="DejaVuSans-64" d="M 2906 2969 
L 2906 4863 
L 3481 4863 
L 3481 0 
L 2906 0 
L 2906 525 
Q 2725 213 2448 61 
Q 2172 -91 1784 -91 
Q 1150 -91 751 415 
Q 353 922 353 1747 
Q 353 2572 751 3078 
Q 1150 3584 1784 3584 
Q 2172 3584 2448 3432 
Q 2725 3281 2906 2969 
z
M 947 1747 
Q 947 1113 1208 752 
Q 1469 391 1925 391 
Q 2381 391 2643 752 
Q 2906 1113 2906 1747 
Q 2906 2381 2643 2742 
Q 2381 3103 1925 3103 
Q 1469 3103 1208 2742 
Q 947 2381 947 1747 
z
" transform="scale(0.015625)"/>
       <path id="DejaVuSans-54" d="M -19 4666 
L 3928 4666 
L 3928 4134 
L 2272 4134 
L 2272 0 
L 1638 0 
L 1638 4134 
L -19 4134 
L -19 4666 
z
" transform="scale(0.015625)"/>
       <path id="DejaVuSans-69" d="M 603 3500 
L 1178 3500 
L 1178 0 
L 603 0 
L 603 3500 
z
M 603 4863 
L 1178 4863 
L 1178 4134 
L 603 4134 
L 603 4863 
z
" transform="scale(0.015625)"/>
       <path id="DejaVuSans-6d" d="M 3328 2828 
Q 3544 3216 3844 3400 
Q 4144 3584 4550 3584 
Q 5097 3584 5394 3201 
Q 5691 2819 5691 2113 
L 5691 0 
L 5113 0 
L 5113 2094 
Q 5113 2597 4934 2840 
Q 4756 3084 4391 3084 
Q 3944 3084 3684 2787 
Q 3425 2491 3425 1978 
L 3425 0 
L 2847 0 
L 2847 2094 
Q 2847 2600 2669 2842 
Q 2491 3084 2119 3084 
Q 1678 3084 1418 2786 
Q 1159 2488 1159 1978 
L 1159 0 
L 581 0 
L 581 3500 
L 1159 3500 
L 1159 2956 
Q 1356 3278 1631 3431 
Q 1906 3584 2284 3584 
Q 2666 3584 2933 3390 
Q 3200 3197 3328 2828 
z
" transform="scale(0.015625)"/>
      </defs>
      <use xlink:href="#DejaVuSans-44"/>
      <use xlink:href="#DejaVuSans-61" transform="translate(77.001953 0)"/>
      <use xlink:href="#DejaVuSans-74" transform="translate(138.28125 0)"/>
      <use xlink:href="#DejaVuSans-65" transform="translate(177.490234 0)"/>
      <use xlink:href="#DejaVuSans-20" transform="translate(239.013672 0)"/>
      <use xlink:href="#DejaVuSans-61" transform="translate(270.800781 0)"/>
      <use xlink:href="#DejaVuSans-6e" transform="translate(332.080078 0)"/>
      <use xlink:href="#DejaVuSans-64" transform="translate(395.458984 0)"/>
      <use xlink:href="#DejaVuSans-20" transform="translate(458.935547 0)"/>
      <use xlink:href="#DejaVuSans-54" transform="translate(490.722656 0)"/>
      <use xlink:href="#DejaVuSans-69" transform="translate(548.681641 0)"/>
      <use xlink:href="#DejaVuSans-6d" transform="translate(576.464844 0)"/>
      <use xlink:href="#DejaVuSans-65" transform="translate(673.876953 0)"/>
     </g>
    </g>
   </g>
   <g id="matplotlib.axis_2">
    <g id="ytick_1">
     <g id="line2d_15">
      <path d="M 90 370.523077 
L 648 370.523077 
" clip-path="url(#pff40bc96fc)" style="fill: none; stroke: #b0b0b0; stroke-width: 0.8; stroke-linecap: square"/>
     </g>
     <g id="line2d_16">
      <defs>
       <path id="m4081ccf3cd" d="M 0 0 
L -3.5 0 
" style="stroke: #000000; stroke-width: 0.8"/>
      </defs>
      <g>
       <use xlink:href="#m4081ccf3cd" x="90" y="370.523077" style="stroke: #000000; stroke-width: 0.8"/>
      </g>
     </g>
     <g id="text_9">
      <!-- 0 -->
      <g transform="translate(76.6375 374.322296) scale(0.1 -0.1)">
       <use xlink:href="#DejaVuSans-30"/>
      </g>
     </g>
    </g>
    <g id="ytick_2">
     <g id="line2d_17">
      <path d="M 90 312.369231 
L 648 312.369231 
" clip-path="url(#pff40bc96fc)" style="fill: none; stroke: #b0b0b0; stroke-width: 0.8; stroke-linecap: square"/>
     </g>
     <g id="line2d_18">
      <g>
       <use xlink:href="#m4081ccf3cd" x="90" y="312.369231" style="stroke: #000000; stroke-width: 0.8"/>
      </g>
     </g>
     <g id="text_10">
      <!-- 50 -->
      <g transform="translate(70.275 316.16845) scale(0.1 -0.1)">
       <use xlink:href="#DejaVuSans-35"/>
       <use xlink:href="#DejaVuSans-30" transform="translate(63.623047 0)"/>
      </g>
     </g>
    </g>
    <g id="ytick_3">
     <g id="line2d_19">
      <path d="M 90 254.215385 
L 648 254.215385 
" clip-path="url(#pff40bc96fc)" style="fill: none; stroke: #b0b0b0; stroke-width: 0.8; stroke-linecap: square"/>
     </g>
     <g id="line2d_20">
      <g>
       <use xlink:href="#m4081ccf3cd" x="90" y="254.215385" style="stroke: #000000; stroke-width: 0.8"/>
      </g>
     </g>
     <g id="text_11">
      <!-- 100 -->
      <g transform="translate(63.9125 258.014603) scale(0.1 -0.1)">
       <use xlink:href="#DejaVuSans-31"/>
       <use xlink:href="#DejaVuSans-30" transform="translate(63.623047 0)"/>
       <use xlink:href="#DejaVuSans-30" transform="translate(127.246094 0)"/>
      </g>
     </g>
    </g>
    <g id="ytick_4">
     <g id="line2d_21">
      <path d="M 90 196.061538 
L 648 196.061538 
" clip-path="url(#pff40bc96fc)" style="fill: none; stroke: #b0b0b0; stroke-width: 0.8; stroke-linecap: square"/>
     </g>
     <g id="line2d_22">
      <g>
       <use xlink:href="#m4081ccf3cd" x="90" y="196.061538" style="stroke: #000000; stroke-width: 0.8"/>
      </g>
     </g>
     <g id="text_12">
      <!-- 150 -->
      <g transform="translate(63.9125 199.860757) scale(0.1 -0.1)">
       <use xlink:href="#DejaVuSans-31"/>
       <use xlink:href="#DejaVuSans-35" transform="translate(63.623047 0)"/>
       <use xlink:href="#DejaVuSans-30" transform="translate(127.246094 0)"/>
      </g>
     </g>
    </g>
    <g id="ytick_5">
     <g id="line2d_23">
      <path d="M 90 137.907692 
L 648 137.907692 
" clip-path="url(#pff40bc96fc)" style="fill: none; stroke: #b0b0b0; stroke-width: 0.8; stroke-linecap: square"/>
     </g>
     <g id="line2d_24">
      <g>
       <use xlink:href="#m4081ccf3cd" x="90" y="137.907692" style="stroke: #000000; stroke-width: 0.8"/>
      </g>
     </g>
     <g id="text_13">
      <!-- 200 -->
      <g transform="translate(63.9125 141.706911) scale(0.1 -0.1)">
       <use xlink:href="#DejaVuSans-32"/>
       <use xlink:href="#DejaVuSans-30" transform="translate(63.623047 0)"/>
       <use xlink:href="#DejaVuSans-30" transform="translate(127.246094 0)"/>
      </g>
     </g>
    </g>
    <g id="ytick_6">
     <g id="line2d_25">
      <path d="M 90 79.753846 
L 648 79.753846 
" clip-path="url(#pff40bc96fc)" style="fill: none; stroke: #b0b0b0; stroke-width: 0.8; stroke-linecap: square"/>
     </g>
     <g id="line2d_26">
      <g>
       <use xlink:href="#m4081ccf3cd" x="90" y="79.753846" style="stroke: #000000; stroke-width: 0.8"/>
      </g>
     </g>
     <g id="text_14">
      <!-- 250 -->
      <g transform="translate(63.9125 83.553065) scale(0.1 -0.1)">
       <use xlink:href="#DejaVuSans-32"/>
       <use xlink:href="#DejaVuSans-35" transform="translate(63.623047 0)"/>
       <use xlink:href="#DejaVuSans-30" transform="translate(127.246094 0)"/>
      </g>
     </g>
    </g>
    <g id="text_15">
     <!-- Votes -->
     <g transform="translate(57.832812 231.893594) rotate(-90) scale(0.1 -0.1)">
      <defs>
       <path id="DejaVuSans-56" d="M 1831 0 
L 50 4666 
L 709 4666 
L 2188 738 
L 3669 4666 
L 4325 4666 
L 2547 0 
L 1831 0 
z
" transform="scale(0.015625)"/>
       <path id="DejaVuSans-6f" d="M 1959 3097 
Q 1497 3097 1228 2736 
Q 959 2375 959 1747 
Q 959 1119 1226 758 
Q 1494 397 1959 397 
Q 2419 397 2687 759 
Q 2956 1122 2956 1747 
Q 2956 2369 2687 2733 
Q 2419 3097 1959 3097 
z
M 1959 3584 
Q 2709 3584 3137 3096 
Q 3566 2609 3566 1747 
Q 3566 888 3137 398 
Q 2709 -91 1959 -91 
Q 1206 -91 779 398 
Q 353 888 353 1747 
Q 353 2609 779 3096 
Q 1206 3584 1959 3584 
z
" transform="scale(0.015625)"/>
       <path id="DejaVuSans-73" d="M 2834 3397 
L 2834 2853 
Q 2591 2978 2328 3040 
Q 2066 3103 1784 3103 
Q 1356 3103 1142 2972 
Q 928 2841 928 2578 
Q 928 2378 1081 2264 
Q 1234 2150 1697 2047 
L 1894 2003 
Q 2506 1872 2764 1633 
Q 3022 1394 3022 966 
Q 3022 478 2636 193 
Q 2250 -91 1575 -91 
Q 1294 -91 989 -36 
Q 684 19 347 128 
L 347 722 
Q 666 556 975 473 
Q 1284 391 1588 391 
Q 1994 391 2212 530 
Q 2431 669 2431 922 
Q 2431 1156 2273 1281 
Q 2116 1406 1581 1522 
L 1381 1569 
Q 847 1681 609 1914 
Q 372 2147 372 2553 
Q 372 3047 722 3315 
Q 1072 3584 1716 3584 
Q 2034 3584 2315 3537 
Q 2597 3491 2834 3397 
z
" transform="scale(0.015625)"/>
      </defs>
      <use xlink:href="#DejaVuSans-56"/>
      <use xlink:href="#DejaVuSans-6f" transform="translate(60.658203 0)"/>
      <use xlink:href="#DejaVuSans-74" transform="translate(121.839844 0)"/>
      <use xlink:href="#DejaVuSans-65" transform="translate(161.048828 0)"/>
      <use xlink:href="#DejaVuSans-73" transform="translate(222.572266 0)"/>
     </g>
    </g>
   </g>
   <g id="line2d_27">
    <path d="M 115.363636 349.587692 
L 128.643027 349.587692 
L 129.970966 348.424615 
L 143.250357 348.424615 
L 144.578296 346.098462 
L 156.529748 346.098462 
L 157.857687 344.935385 
L 164.497382 344.935385 
L 165.825321 343.772308 
L 171.137078 343.772308 
L 172.465017 342.609231 
L 176.448834 342.609231 
L 177.776773 341.446154 
L 196.36792 341.446154 
L 197.695859 340.283077 
L 212.303189 340.283077 
L 214.959067 337.956923 
L 217.614945 337.956923 
L 218.942884 336.793846 
L 230.894336 336.793846 
L 233.550214 334.467692 
L 249.485483 334.467692 
L 250.813422 333.304615 
L 254.797239 333.304615 
L 256.125178 332.141538 
L 257.453118 332.141538 
L 258.781057 330.978462 
L 294.635412 330.978462 
L 295.963351 329.815385 
L 311.89862 329.815385 
L 313.226559 328.652308 
L 322.522132 328.652308 
L 323.850071 327.489231 
L 325.17801 325.163077 
L 326.50595 325.163077 
L 329.161828 322.836923 
L 350.408853 322.836923 
L 351.736792 321.673846 
L 359.704426 321.673846 
L 361.032366 320.510769 
L 366.344122 320.510769 
L 367.672061 319.347692 
L 380.951452 319.347692 
L 382.279391 318.184615 
L 384.935269 318.184615 
L 386.263208 317.021538 
L 390.247025 317.021538 
L 391.574964 315.858462 
L 402.198477 315.858462 
L 403.526416 314.695385 
L 404.854355 314.695385 
L 406.182294 313.532308 
L 419.461685 313.532308 
L 420.789624 312.369231 
L 430.085198 312.369231 
L 431.413137 311.206154 
L 432.741076 311.206154 
L 435.396954 308.88 
L 464.611614 308.88 
L 465.939553 307.716923 
L 487.186578 307.716923 
L 488.514517 306.553846 
L 489.842456 306.553846 
L 491.170395 305.390769 
L 503.121847 305.390769 
L 504.449786 304.227692 
L 505.777725 304.227692 
L 507.105664 303.064615 
L 513.745359 303.064615 
L 515.073298 301.901538 
L 519.057116 301.901538 
L 521.712994 299.575385 
L 523.040933 299.575385 
L 524.368872 298.412308 
L 527.02475 298.412308 
L 528.352689 297.249231 
L 531.008567 297.249231 
L 532.336506 296.086154 
L 534.992385 296.086154 
L 536.320324 294.923077 
L 568.190862 294.923077 
L 569.518801 293.76 
L 582.798191 293.76 
L 584.12613 292.596923 
L 592.093765 292.596923 
L 593.421704 291.433846 
L 594.749643 291.433846 
L 596.077582 290.270769 
L 597.405521 290.270769 
L 602.717277 285.618462 
L 605.373156 285.618462 
L 606.701095 283.292308 
L 617.324607 283.292308 
L 619.980485 280.966154 
L 622.636364 280.966154 
L 622.636364 280.966154 
" clip-path="url(#pff40bc96fc)" style="fill: none; stroke: #1f77b4; stroke-width: 1.5; stroke-linecap: square"/>
   </g>
   <g id="line2d_28">
    <path d="M 115.363636 275.150769 
L 116.691575 273.987692 
L 120.675393 273.987692 
L 122.003332 272.824615 
L 123.331271 272.824615 
L 124.65921 271.661538 
L 125.987149 271.661538 
L 128.643027 269.335385 
L 129.970966 267.009231 
L 131.298905 267.009231 
L 133.954783 264.683077 
L 135.282723 264.683077 
L 136.610662 260.030769 
L 137.938601 257.704615 
L 139.26654 253.052308 
L 140.594479 249.563077 
L 144.578296 249.563077 
L 145.906235 246.073846 
L 147.234174 243.747692 
L 149.890052 241.421538 
L 151.217991 239.095385 
L 153.87387 236.769231 
L 155.201809 234.443077 
L 159.185626 234.443077 
L 160.513565 228.627692 
L 161.841504 226.301538 
L 163.169443 225.138462 
L 164.497382 222.812308 
L 165.825321 221.649231 
L 167.15326 221.649231 
L 168.481199 218.16 
L 169.809139 218.16 
L 171.137078 215.833846 
L 172.465017 214.670769 
L 173.792956 214.670769 
L 175.120895 213.507692 
L 177.776773 213.507692 
L 179.104712 212.344615 
L 181.76059 212.344615 
L 183.088529 210.018462 
L 184.416468 210.018462 
L 185.744407 208.855385 
L 191.056164 208.855385 
L 192.384103 207.692308 
L 196.36792 207.692308 
L 197.695859 206.529231 
L 199.023798 206.529231 
L 200.351737 204.203077 
L 201.679676 204.203077 
L 203.007615 201.876923 
L 204.335555 200.713846 
L 208.319372 200.713846 
L 209.647311 198.387692 
L 210.97525 197.224615 
L 212.303189 193.735385 
L 214.959067 191.409231 
L 225.58258 191.409231 
L 226.910519 187.92 
L 228.238458 187.92 
L 230.894336 185.593846 
L 232.222275 185.593846 
L 236.206092 182.104615 
L 238.86197 182.104615 
L 240.18991 180.941538 
L 242.845788 180.941538 
L 246.829605 177.452308 
L 249.485483 177.452308 
L 250.813422 176.289231 
L 257.453118 176.289231 
L 258.781057 175.126154 
L 261.436935 175.126154 
L 262.764874 173.963077 
L 278.700143 173.963077 
L 280.028082 171.636923 
L 282.68396 171.636923 
L 285.339838 169.310769 
L 286.667777 169.310769 
L 287.995716 168.147692 
L 295.963351 168.147692 
L 299.947168 164.658462 
L 301.275107 164.658462 
L 302.603046 163.495385 
L 303.930985 161.169231 
L 305.258924 161.169231 
L 306.586863 160.006154 
L 307.914802 160.006154 
L 313.226559 155.353846 
L 315.882437 155.353846 
L 317.210376 153.027692 
L 321.194193 153.027692 
L 322.522132 151.864615 
L 326.50595 151.864615 
L 327.833889 150.701538 
L 329.161828 150.701538 
L 330.489767 147.212308 
L 334.473584 147.212308 
L 335.801523 146.049231 
L 337.129462 143.723077 
L 339.78534 143.723077 
L 341.113279 142.56 
L 343.769158 142.56 
L 345.097097 141.396923 
L 346.425036 141.396923 
L 353.064731 135.581538 
L 355.720609 135.581538 
L 359.704426 132.092308 
L 363.688244 132.092308 
L 365.016183 129.766154 
L 366.344122 129.766154 
L 367.672061 128.603077 
L 371.655878 128.603077 
L 372.983817 127.44 
L 384.935269 127.44 
L 386.263208 126.276923 
L 395.558782 126.276923 
L 396.886721 125.113846 
L 399.542599 125.113846 
L 402.198477 122.787692 
L 408.838172 122.787692 
L 410.166111 121.624615 
L 416.805807 121.624615 
L 420.789624 118.135385 
L 438.052832 118.135385 
L 439.380771 115.809231 
L 440.70871 114.646154 
L 472.579248 114.646154 
L 473.907187 113.483077 
L 481.874822 113.483077 
L 484.5307 111.156923 
L 487.186578 111.156923 
L 488.514517 109.993846 
L 489.842456 109.993846 
L 492.498334 107.667692 
L 493.826273 107.667692 
L 495.154212 106.504615 
L 496.482151 106.504615 
L 499.13803 101.852308 
L 500.465969 100.689231 
L 507.105664 100.689231 
L 508.433603 97.2 
L 509.761542 94.873846 
L 512.41742 94.873846 
L 515.073298 92.547692 
L 521.712994 92.547692 
L 524.368872 90.221538 
L 527.02475 90.221538 
L 528.352689 89.058462 
L 531.008567 89.058462 
L 532.336506 87.895385 
L 533.664446 87.895385 
L 534.992385 86.732308 
L 536.320324 86.732308 
L 537.648263 85.569231 
L 538.976202 85.569231 
L 540.304141 84.406154 
L 542.960019 84.406154 
L 544.287958 82.08 
L 550.927653 82.08 
L 553.583532 79.753846 
L 566.862922 79.753846 
L 568.190862 78.590769 
L 569.518801 78.590769 
L 570.84674 77.427692 
L 572.174679 77.427692 
L 576.158496 73.938462 
L 578.814374 73.938462 
L 580.142313 72.775385 
L 606.701095 72.775385 
L 609.356973 70.449231 
L 614.668729 70.449231 
L 615.996668 69.286154 
L 617.324607 69.286154 
L 618.652546 68.123077 
L 619.980485 68.123077 
L 621.308425 66.96 
L 622.636364 66.96 
L 622.636364 66.96 
" clip-path="url(#pff40bc96fc)" style="fill: none; stroke: #ff7f0e; stroke-width: 1.5; stroke-linecap: square"/>
   </g>
   <g id="line2d_29">
    <path d="M 115.363636 334.467692 
L 120.675393 334.467692 
L 122.003332 332.141538 
L 124.65921 332.141538 
L 125.987149 330.978462 
L 127.315088 328.652308 
L 128.643027 327.489231 
L 129.970966 324 
L 131.298905 321.673846 
L 132.626844 320.510769 
L 133.954783 320.510769 
L 135.282723 318.184615 
L 136.610662 314.695385 
L 141.922418 314.695385 
L 143.250357 313.532308 
L 144.578296 313.532308 
L 145.906235 311.206154 
L 149.890052 311.206154 
L 152.545931 308.88 
L 157.857687 308.88 
L 159.185626 307.716923 
L 164.497382 307.716923 
L 168.481199 304.227692 
L 175.120895 304.227692 
L 176.448834 303.064615 
L 180.432651 303.064615 
L 181.76059 301.901538 
L 184.416468 301.901538 
L 185.744407 299.575385 
L 196.36792 299.575385 
L 197.695859 298.412308 
L 199.023798 296.086154 
L 200.351737 294.923077 
L 201.679676 294.923077 
L 203.007615 293.76 
L 205.663494 293.76 
L 206.991433 292.596923 
L 209.647311 292.596923 
L 210.97525 291.433846 
L 218.942884 291.433846 
L 220.270823 290.270769 
L 221.598762 290.270769 
L 222.926702 289.107692 
L 224.254641 289.107692 
L 225.58258 287.944615 
L 229.566397 287.944615 
L 230.894336 286.781538 
L 232.222275 284.455385 
L 238.86197 284.455385 
L 242.845788 280.966154 
L 246.829605 280.966154 
L 248.157544 279.803077 
L 253.4693 279.803077 
L 254.797239 278.64 
L 256.125178 278.64 
L 257.453118 277.476923 
L 260.108996 277.476923 
L 261.436935 276.313846 
L 265.420752 276.313846 
L 268.07663 273.987692 
L 269.404569 273.987692 
L 270.732508 272.824615 
L 281.356021 272.824615 
L 282.68396 270.498462 
L 284.011899 269.335385 
L 294.635412 269.335385 
L 295.963351 268.172308 
L 299.947168 268.172308 
L 301.275107 267.009231 
L 305.258924 267.009231 
L 306.586863 265.846154 
L 319.866254 265.846154 
L 321.194193 264.683077 
L 326.50595 264.683077 
L 327.833889 263.52 
L 335.801523 263.52 
L 337.129462 262.356923 
L 339.78534 262.356923 
L 341.113279 261.193846 
L 346.425036 261.193846 
L 349.080914 258.867692 
L 374.311756 258.867692 
L 375.639695 257.704615 
L 376.967634 257.704615 
L 378.295574 256.541538 
L 382.279391 256.541538 
L 383.60733 255.378462 
L 390.247025 255.378462 
L 391.574964 254.215385 
L 394.230842 254.215385 
L 395.558782 253.052308 
L 403.526416 253.052308 
L 404.854355 254.215385 
L 406.182294 253.052308 
L 415.477868 253.052308 
L 416.805807 251.889231 
L 427.429319 251.889231 
L 428.757258 250.726154 
L 431.413137 250.726154 
L 432.741076 249.563077 
L 434.069015 249.563077 
L 435.396954 248.4 
L 444.692527 248.4 
L 446.020466 247.236923 
L 453.988101 247.236923 
L 455.31604 246.073846 
L 475.235126 246.073846 
L 476.563065 244.910769 
L 505.777725 244.910769 
L 507.105664 243.747692 
L 520.385055 243.747692 
L 521.712994 242.584615 
L 542.960019 242.584615 
L 545.615897 240.258462 
L 569.518801 240.258462 
L 570.84674 239.095385 
L 572.174679 236.769231 
L 598.73346 236.769231 
L 600.061399 235.606154 
L 602.717277 235.606154 
L 604.045217 234.443077 
L 612.012851 234.443077 
L 613.34079 233.28 
L 617.324607 233.28 
L 619.980485 230.953846 
L 622.636364 230.953846 
L 622.636364 230.953846 
" clip-path="url(#pff40bc96fc)" style="fill: none; stroke: #2ca02c; stroke-width: 1.5; stroke-linecap: square"/>
   </g>
   <g id="line2d_30">
    <path d="M 115.363636 369.36 
L 443.364588 369.36 
L 444.692527 368.196923 
L 622.636364 368.196923 
L 622.636364 368.196923 
" clip-path="url(#pff40bc96fc)" style="fill: none; stroke: #d62728; stroke-width: 1.5; stroke-linecap: square"/>
   </g>
   <g id="line2d_31">
    <path d="M 115.363636 343.772308 
L 119.347454 343.772308 
L 120.675393 342.609231 
L 128.643027 342.609231 
L 129.970966 341.446154 
L 137.938601 341.446154 
L 139.26654 340.283077 
L 168.481199 340.283077 
L 169.809139 339.12 
L 217.614945 339.12 
L 220.270823 336.793846 
L 230.894336 336.793846 
L 232.222275 335.630769 
L 237.534031 335.630769 
L 238.86197 334.467692 
L 241.517849 334.467692 
L 242.845788 333.304615 
L 277.372204 333.304615 
L 278.700143 332.141538 
L 333.145645 332.141538 
L 334.473584 330.978462 
L 507.105664 330.978462 
L 508.433603 329.815385 
L 509.761542 329.815385 
L 511.089481 328.652308 
L 594.749643 328.652308 
L 596.077582 327.489231 
L 622.636364 327.489231 
L 622.636364 327.489231 
" clip-path="url(#pff40bc96fc)" style="fill: none; stroke: #9467bd; stroke-width: 1.5; stroke-linecap: square"/>
   </g>
   <g id="line2d_32">
    <path d="M 115.363636 353.076923 
L 116.691575 353.076923 
L 118.019515 351.913846 
L 136.610662 351.913846 
L 137.938601 350.750769 
L 153.87387 350.750769 
L 155.201809 349.587692 
L 175.120895 349.587692 
L 177.776773 347.261538 
L 192.384103 347.261538 
L 193.712042 346.098462 
L 233.550214 346.098462 
L 234.878153 344.935385 
L 246.829605 344.935385 
L 248.157544 343.772308 
L 270.732508 343.772308 
L 272.060447 342.609231 
L 293.307473 342.609231 
L 294.635412 341.446154 
L 299.947168 341.446154 
L 301.275107 340.283077 
L 313.226559 340.283077 
L 314.554498 339.12 
L 346.425036 339.12 
L 347.752975 337.956923 
L 355.720609 337.956923 
L 357.048548 336.793846 
L 365.016183 336.793846 
L 366.344122 335.630769 
L 371.655878 335.630769 
L 372.983817 334.467692 
L 422.117563 334.467692 
L 423.445502 333.304615 
L 461.955735 333.304615 
L 463.283674 332.141538 
L 540.304141 332.141538 
L 541.63208 330.978462 
L 578.814374 330.978462 
L 580.142313 329.815385 
L 597.405521 329.815385 
L 598.73346 328.652308 
L 622.636364 328.652308 
L 622.636364 328.652308 
" clip-path="url(#pff40bc96fc)" style="fill: none; stroke: #8c564b; stroke-width: 1.5; stroke-linecap: square"/>
   </g>
   <g id="line2d_33">
    <path d="M 115.363636 267.009231 
L 120.675393 267.009231 
L 122.003332 265.846154 
L 127.315088 265.846154 
L 129.970966 263.52 
L 131.298905 263.52 
L 132.626844 262.356923 
L 133.954783 262.356923 
L 135.282723 261.193846 
L 137.938601 261.193846 
L 139.26654 260.030769 
L 143.250357 260.030769 
L 144.578296 258.867692 
L 147.234174 258.867692 
L 148.562113 257.704615 
L 149.890052 257.704615 
L 151.217991 256.541538 
L 153.87387 256.541538 
L 156.529748 254.215385 
L 161.841504 254.215385 
L 163.169443 253.052308 
L 167.15326 253.052308 
L 169.809139 250.726154 
L 172.465017 250.726154 
L 173.792956 249.563077 
L 176.448834 249.563077 
L 177.776773 248.4 
L 179.104712 246.073846 
L 180.432651 242.584615 
L 183.088529 242.584615 
L 184.416468 241.421538 
L 191.056164 241.421538 
L 193.712042 239.095385 
L 195.039981 236.769231 
L 196.36792 235.606154 
L 197.695859 235.606154 
L 199.023798 233.28 
L 204.335555 233.28 
L 205.663494 232.116923 
L 206.991433 232.116923 
L 209.647311 229.790769 
L 210.97525 229.790769 
L 212.303189 228.627692 
L 213.631128 228.627692 
L 216.287006 226.301538 
L 218.942884 226.301538 
L 220.270823 223.975385 
L 225.58258 223.975385 
L 228.238458 221.649231 
L 230.894336 221.649231 
L 232.222275 220.486154 
L 233.550214 218.16 
L 237.534031 218.16 
L 238.86197 216.996923 
L 240.18991 216.996923 
L 241.517849 214.670769 
L 242.845788 214.670769 
L 244.173727 213.507692 
L 245.501666 213.507692 
L 246.829605 212.344615 
L 252.141361 212.344615 
L 254.797239 210.018462 
L 256.125178 210.018462 
L 257.453118 207.692308 
L 258.781057 207.692308 
L 260.108996 206.529231 
L 261.436935 206.529231 
L 262.764874 205.366154 
L 266.748691 205.366154 
L 268.07663 204.203077 
L 269.404569 204.203077 
L 274.716326 199.550769 
L 276.044265 197.224615 
L 278.700143 197.224615 
L 281.356021 192.572308 
L 284.011899 192.572308 
L 286.667777 190.246154 
L 287.995716 190.246154 
L 289.323655 187.92 
L 290.651594 187.92 
L 291.979534 186.756923 
L 293.307473 186.756923 
L 294.635412 185.593846 
L 297.29129 185.593846 
L 298.619229 184.430769 
L 299.947168 184.430769 
L 301.275107 183.267692 
L 306.586863 183.267692 
L 307.914802 177.452308 
L 309.242742 177.452308 
L 310.570681 176.289231 
L 314.554498 176.289231 
L 315.882437 175.126154 
L 327.833889 175.126154 
L 329.161828 172.8 
L 334.473584 172.8 
L 335.801523 171.636923 
L 349.080914 171.636923 
L 350.408853 169.310769 
L 351.736792 168.147692 
L 358.376487 168.147692 
L 359.704426 166.984615 
L 369 166.984615 
L 370.327939 165.821538 
L 371.655878 165.821538 
L 372.983817 164.658462 
L 380.951452 164.658462 
L 383.60733 162.332308 
L 392.902903 162.332308 
L 395.558782 160.006154 
L 396.886721 160.006154 
L 398.21466 158.843077 
L 406.182294 158.843077 
L 407.510233 157.68 
L 411.49405 157.68 
L 412.82199 156.516923 
L 414.149929 154.190769 
L 418.133746 154.190769 
L 419.461685 153.027692 
L 420.789624 153.027692 
L 423.445502 150.701538 
L 428.757258 150.701538 
L 430.085198 149.538462 
L 435.396954 149.538462 
L 436.724893 148.375385 
L 440.70871 148.375385 
L 442.036649 147.212308 
L 452.660162 147.212308 
L 455.31604 144.886154 
L 461.955735 144.886154 
L 463.283674 143.723077 
L 468.595431 143.723077 
L 475.235126 137.907692 
L 477.891004 137.907692 
L 479.218943 136.744615 
L 480.546882 136.744615 
L 481.874822 134.418462 
L 484.5307 132.092308 
L 487.186578 127.44 
L 489.842456 127.44 
L 492.498334 122.787692 
L 495.154212 122.787692 
L 496.482151 120.461538 
L 499.13803 118.135385 
L 503.121847 118.135385 
L 504.449786 116.972308 
L 505.777725 116.972308 
L 508.433603 114.646154 
L 513.745359 114.646154 
L 515.073298 113.483077 
L 517.729177 113.483077 
L 519.057116 112.32 
L 525.696811 112.32 
L 527.02475 109.993846 
L 528.352689 108.830769 
L 529.680628 108.830769 
L 531.008567 107.667692 
L 533.664446 107.667692 
L 534.992385 106.504615 
L 537.648263 106.504615 
L 538.976202 104.178462 
L 541.63208 104.178462 
L 542.960019 103.015385 
L 544.287958 103.015385 
L 545.615897 101.852308 
L 552.255593 101.852308 
L 553.583532 100.689231 
L 560.223227 100.689231 
L 561.551166 99.526154 
L 562.879105 99.526154 
L 564.207044 97.2 
L 566.862922 94.873846 
L 568.190862 91.384615 
L 569.518801 90.221538 
L 570.84674 90.221538 
L 572.174679 89.058462 
L 573.502618 89.058462 
L 574.830557 87.895385 
L 580.142313 87.895385 
L 581.470252 86.732308 
L 584.12613 86.732308 
L 585.454069 85.569231 
L 588.109948 85.569231 
L 590.765826 83.243077 
L 594.749643 83.243077 
L 596.077582 82.08 
L 602.717277 82.08 
L 604.045217 79.753846 
L 610.684912 79.753846 
L 612.012851 78.590769 
L 615.996668 78.590769 
L 617.324607 76.264615 
L 622.636364 76.264615 
L 622.636364 76.264615 
" clip-path="url(#pff40bc96fc)" style="fill: none; stroke: #e377c2; stroke-width: 1.5; stroke-linecap: square"/>
   </g>
   <g id="line2d_34">
    <path d="M 115.363636 339.12 
L 116.691575 339.12 
L 119.347454 336.793846 
L 125.987149 336.793846 
L 127.315088 335.630769 
L 128.643027 335.630769 
L 131.298905 333.304615 
L 133.954783 333.304615 
L 135.282723 332.141538 
L 139.26654 332.141538 
L 140.594479 330.978462 
L 141.922418 330.978462 
L 143.250357 329.815385 
L 144.578296 329.815385 
L 147.234174 327.489231 
L 151.217991 327.489231 
L 152.545931 326.326154 
L 155.201809 326.326154 
L 157.857687 324 
L 160.513565 324 
L 163.169443 321.673846 
L 164.497382 321.673846 
L 165.825321 320.510769 
L 167.15326 317.021538 
L 172.465017 317.021538 
L 177.776773 312.369231 
L 179.104712 312.369231 
L 181.76059 310.043077 
L 183.088529 310.043077 
L 184.416468 308.88 
L 185.744407 308.88 
L 187.072347 307.716923 
L 199.023798 307.716923 
L 200.351737 306.553846 
L 213.631128 306.553846 
L 216.287006 304.227692 
L 220.270823 304.227692 
L 221.598762 303.064615 
L 224.254641 303.064615 
L 226.910519 300.738462 
L 229.566397 300.738462 
L 230.894336 298.412308 
L 234.878153 298.412308 
L 236.206092 296.086154 
L 237.534031 294.923077 
L 244.173727 294.923077 
L 245.501666 293.76 
L 246.829605 293.76 
L 249.485483 291.433846 
L 256.125178 291.433846 
L 257.453118 290.270769 
L 258.781057 290.270769 
L 260.108996 289.107692 
L 268.07663 289.107692 
L 269.404569 287.944615 
L 273.388386 287.944615 
L 274.716326 286.781538 
L 276.044265 286.781538 
L 277.372204 283.292308 
L 278.700143 283.292308 
L 280.028082 280.966154 
L 281.356021 279.803077 
L 282.68396 279.803077 
L 285.339838 277.476923 
L 287.995716 277.476923 
L 289.323655 276.313846 
L 291.979534 276.313846 
L 293.307473 275.150769 
L 294.635412 275.150769 
L 295.963351 272.824615 
L 297.29129 272.824615 
L 298.619229 271.661538 
L 301.275107 271.661538 
L 303.930985 269.335385 
L 305.258924 269.335385 
L 306.586863 267.009231 
L 307.914802 265.846154 
L 317.210376 265.846154 
L 318.538315 263.52 
L 322.522132 263.52 
L 323.850071 262.356923 
L 325.17801 262.356923 
L 326.50595 261.193846 
L 330.489767 261.193846 
L 331.817706 260.030769 
L 338.457401 260.030769 
L 339.78534 258.867692 
L 342.441218 258.867692 
L 343.769158 257.704615 
L 350.408853 257.704615 
L 351.736792 256.541538 
L 363.688244 256.541538 
L 366.344122 254.215385 
L 367.672061 254.215385 
L 369 253.052308 
L 370.327939 253.052308 
L 371.655878 251.889231 
L 372.983817 251.889231 
L 374.311756 250.726154 
L 376.967634 250.726154 
L 378.295574 249.563077 
L 379.623513 249.563077 
L 382.279391 247.236923 
L 386.263208 247.236923 
L 387.591147 246.073846 
L 391.574964 246.073846 
L 392.902903 244.910769 
L 402.198477 244.910769 
L 403.526416 243.747692 
L 404.854355 243.747692 
L 406.182294 242.584615 
L 411.49405 242.584615 
L 412.82199 240.258462 
L 420.789624 240.258462 
L 422.117563 239.095385 
L 423.445502 239.095385 
L 424.773441 236.769231 
L 431.413137 236.769231 
L 432.741076 235.606154 
L 440.70871 235.606154 
L 442.036649 234.443077 
L 459.299857 234.443077 
L 460.627796 233.28 
L 480.546882 233.28 
L 481.874822 232.116923 
L 488.514517 232.116923 
L 489.842456 230.953846 
L 491.170395 230.953846 
L 492.498334 229.790769 
L 493.826273 229.790769 
L 495.154212 227.464615 
L 496.482151 227.464615 
L 499.13803 225.138462 
L 508.433603 225.138462 
L 509.761542 223.975385 
L 511.089481 223.975385 
L 512.41742 222.812308 
L 513.745359 222.812308 
L 515.073298 221.649231 
L 521.712994 221.649231 
L 523.040933 220.486154 
L 534.992385 220.486154 
L 536.320324 219.323077 
L 542.960019 219.323077 
L 544.287958 218.16 
L 550.927653 218.16 
L 552.255593 216.996923 
L 554.911471 216.996923 
L 558.895288 213.507692 
L 561.551166 213.507692 
L 562.879105 211.181538 
L 569.518801 211.181538 
L 572.174679 208.855385 
L 574.830557 208.855385 
L 576.158496 207.692308 
L 577.486435 207.692308 
L 580.142313 205.366154 
L 589.437887 205.366154 
L 590.765826 204.203077 
L 593.421704 204.203077 
L 594.749643 203.04 
L 605.373156 203.04 
L 608.029034 200.713846 
L 612.012851 200.713846 
L 613.34079 199.550769 
L 614.668729 199.550769 
L 615.996668 196.061538 
L 617.324607 194.898462 
L 622.636364 194.898462 
L 622.636364 194.898462 
" clip-path="url(#pff40bc96fc)" style="fill: none; stroke: #7f7f7f; stroke-width: 1.5; stroke-linecap: square"/>
   </g>
   <g id="line2d_35">
    <path d="M 115.363636 346.098462 
L 120.675393 346.098462 
L 122.003332 344.935385 
L 135.282723 344.935385 
L 136.610662 343.772308 
L 143.250357 343.772308 
L 144.578296 342.609231 
L 157.857687 342.609231 
L 159.185626 341.446154 
L 172.465017 341.446154 
L 173.792956 340.283077 
L 245.501666 340.283077 
L 246.829605 339.12 
L 253.4693 339.12 
L 254.797239 337.956923 
L 264.092813 337.956923 
L 265.420752 336.793846 
L 266.748691 336.793846 
L 268.07663 333.304615 
L 269.404569 332.141538 
L 272.060447 332.141538 
L 273.388386 330.978462 
L 286.667777 330.978462 
L 287.995716 329.815385 
L 299.947168 329.815385 
L 301.275107 328.652308 
L 315.882437 328.652308 
L 317.210376 327.489231 
L 333.145645 327.489231 
L 334.473584 326.326154 
L 341.113279 326.326154 
L 342.441218 325.163077 
L 384.935269 325.163077 
L 386.263208 324 
L 388.919086 324 
L 390.247025 322.836923 
L 400.870538 322.836923 
L 402.198477 321.673846 
L 439.380771 321.673846 
L 443.364588 318.184615 
L 481.874822 318.184615 
L 483.202761 317.021538 
L 484.5307 317.021538 
L 487.186578 314.695385 
L 489.842456 314.695385 
L 491.170395 313.532308 
L 558.895288 313.532308 
L 560.223227 312.369231 
L 622.636364 312.369231 
L 622.636364 312.369231 
" clip-path="url(#pff40bc96fc)" style="fill: none; stroke: #bcbd22; stroke-width: 1.5; stroke-linecap: square"/>
   </g>
   <g id="line2d_36">
    <path d="M 115.363636 367.033846 
L 181.76059 367.033846 
L 183.088529 365.870769 
L 266.748691 365.870769 
L 268.07663 364.707692 
L 403.526416 364.707692 
L 404.854355 363.544615 
L 406.182294 364.707692 
L 566.862922 364.707692 
L 568.190862 363.544615 
L 577.486435 363.544615 
L 578.814374 362.381538 
L 612.012851 362.381538 
L 613.34079 361.218462 
L 622.636364 361.218462 
L 622.636364 361.218462 
" clip-path="url(#pff40bc96fc)" style="fill: none; stroke: #17becf; stroke-width: 1.5; stroke-linecap: square"/>
   </g>
   <g id="line2d_37">
    <path d="M 115.363636 369.36 
L 116.691575 368.196923 
L 119.347454 368.196923 
L 120.675393 367.033846 
L 129.970966 367.033846 
L 131.298905 365.870769 
L 135.282723 365.870769 
L 136.610662 364.707692 
L 137.938601 364.707692 
L 140.594479 362.381538 
L 147.234174 362.381538 
L 149.890052 360.055385 
L 151.217991 360.055385 
L 152.545931 358.892308 
L 161.841504 358.892308 
L 163.169443 357.729231 
L 164.497382 355.403077 
L 167.15326 355.403077 
L 168.481199 354.24 
L 169.809139 354.24 
L 171.137078 353.076923 
L 172.465017 353.076923 
L 173.792956 351.913846 
L 175.120895 351.913846 
L 177.776773 349.587692 
L 185.744407 349.587692 
L 188.400286 347.261538 
L 192.384103 347.261538 
L 193.712042 346.098462 
L 195.039981 346.098462 
L 196.36792 343.772308 
L 200.351737 343.772308 
L 203.007615 339.12 
L 210.97525 339.12 
L 212.303189 336.793846 
L 213.631128 335.630769 
L 217.614945 335.630769 
L 218.942884 334.467692 
L 220.270823 332.141538 
L 222.926702 332.141538 
L 224.254641 330.978462 
L 242.845788 330.978462 
L 244.173727 328.652308 
L 253.4693 320.510769 
L 266.748691 320.510769 
L 270.732508 317.021538 
L 273.388386 317.021538 
L 274.716326 314.695385 
L 277.372204 314.695385 
L 278.700143 313.532308 
L 282.68396 313.532308 
L 284.011899 312.369231 
L 285.339838 312.369231 
L 286.667777 311.206154 
L 287.995716 311.206154 
L 290.651594 308.88 
L 307.914802 308.88 
L 310.570681 306.553846 
L 321.194193 306.553846 
L 322.522132 305.390769 
L 326.50595 305.390769 
L 329.161828 303.064615 
L 333.145645 303.064615 
L 334.473584 301.901538 
L 337.129462 301.901538 
L 338.457401 300.738462 
L 345.097097 300.738462 
L 346.425036 299.575385 
L 347.752975 299.575385 
L 349.080914 297.249231 
L 350.408853 297.249231 
L 351.736792 296.086154 
L 358.376487 296.086154 
L 359.704426 294.923077 
L 362.360305 294.923077 
L 363.688244 293.76 
L 365.016183 293.76 
L 367.672061 291.433846 
L 376.967634 291.433846 
L 378.295574 290.270769 
L 379.623513 290.270769 
L 380.951452 289.107692 
L 387.591147 289.107692 
L 388.919086 286.781538 
L 390.247025 285.618462 
L 396.886721 285.618462 
L 398.21466 284.455385 
L 403.526416 284.455385 
L 404.854355 282.129231 
L 410.166111 282.129231 
L 412.82199 279.803077 
L 416.805807 279.803077 
L 418.133746 278.64 
L 434.069015 278.64 
L 435.396954 276.313846 
L 436.724893 275.150769 
L 447.348406 275.150769 
L 448.676345 273.987692 
L 472.579248 273.987692 
L 473.907187 272.824615 
L 476.563065 272.824615 
L 477.891004 271.661538 
L 481.874822 271.661538 
L 483.202761 270.498462 
L 500.465969 270.498462 
L 501.793908 268.172308 
L 504.449786 268.172308 
L 505.777725 267.009231 
L 507.105664 267.009231 
L 508.433603 265.846154 
L 513.745359 265.846154 
L 515.073298 264.683077 
L 524.368872 264.683077 
L 525.696811 262.356923 
L 527.02475 262.356923 
L 528.352689 261.193846 
L 534.992385 261.193846 
L 536.320324 260.030769 
L 542.960019 260.030769 
L 545.615897 257.704615 
L 548.271775 257.704615 
L 549.599714 256.541538 
L 552.255593 256.541538 
L 553.583532 255.378462 
L 554.911471 255.378462 
L 556.23941 254.215385 
L 565.534983 254.215385 
L 566.862922 253.052308 
L 597.405521 253.052308 
L 598.73346 251.889231 
L 605.373156 251.889231 
L 606.701095 250.726154 
L 621.308425 250.726154 
L 622.636364 249.563077 
L 622.636364 249.563077 
" clip-path="url(#pff40bc96fc)" style="fill: none; stroke: #1f77b4; stroke-width: 1.5; stroke-linecap: square"/>
   </g>
   <g id="line2d_38">
    <path d="M 115.363636 326.326154 
L 124.65921 326.326154 
L 125.987149 325.163077 
L 129.970966 325.163077 
L 131.298905 324 
L 136.610662 324 
L 137.938601 322.836923 
L 141.922418 322.836923 
L 143.250357 321.673846 
L 144.578296 321.673846 
L 145.906235 320.510769 
L 149.890052 320.510769 
L 151.217991 319.347692 
L 153.87387 319.347692 
L 155.201809 318.184615 
L 156.529748 318.184615 
L 159.185626 315.858462 
L 167.15326 315.858462 
L 168.481199 314.695385 
L 169.809139 314.695385 
L 171.137078 313.532308 
L 172.465017 313.532308 
L 173.792956 311.206154 
L 175.120895 307.716923 
L 176.448834 306.553846 
L 181.76059 306.553846 
L 185.744407 303.064615 
L 189.728225 303.064615 
L 192.384103 300.738462 
L 206.991433 300.738462 
L 208.319372 297.249231 
L 209.647311 297.249231 
L 212.303189 292.596923 
L 214.959067 290.270769 
L 216.287006 290.270769 
L 217.614945 287.944615 
L 228.238458 287.944615 
L 229.566397 285.618462 
L 233.550214 285.618462 
L 234.878153 284.455385 
L 244.173727 284.455385 
L 245.501666 283.292308 
L 261.436935 283.292308 
L 262.764874 282.129231 
L 264.092813 282.129231 
L 265.420752 280.966154 
L 269.404569 280.966154 
L 270.732508 279.803077 
L 286.667777 279.803077 
L 287.995716 278.64 
L 290.651594 278.64 
L 293.307473 273.987692 
L 295.963351 273.987692 
L 298.619229 271.661538 
L 301.275107 271.661538 
L 302.603046 270.498462 
L 306.586863 270.498462 
L 307.914802 269.335385 
L 323.850071 269.335385 
L 325.17801 268.172308 
L 345.097097 268.172308 
L 346.425036 267.009231 
L 358.376487 267.009231 
L 359.704426 265.846154 
L 362.360305 265.846154 
L 363.688244 264.683077 
L 367.672061 264.683077 
L 370.327939 262.356923 
L 371.655878 262.356923 
L 372.983817 261.193846 
L 378.295574 261.193846 
L 380.951452 258.867692 
L 387.591147 258.867692 
L 388.919086 257.704615 
L 392.902903 257.704615 
L 394.230842 256.541538 
L 400.870538 256.541538 
L 402.198477 255.378462 
L 408.838172 255.378462 
L 410.166111 254.215385 
L 434.069015 254.215385 
L 435.396954 253.052308 
L 436.724893 253.052308 
L 438.052832 251.889231 
L 451.332223 251.889231 
L 452.660162 249.563077 
L 453.988101 249.563077 
L 455.31604 248.4 
L 468.595431 248.4 
L 469.92337 247.236923 
L 475.235126 247.236923 
L 476.563065 246.073846 
L 477.891004 246.073846 
L 479.218943 244.910769 
L 491.170395 244.910769 
L 492.498334 243.747692 
L 519.057116 243.747692 
L 520.385055 240.258462 
L 529.680628 240.258462 
L 531.008567 239.095385 
L 533.664446 239.095385 
L 534.992385 237.932308 
L 550.927653 237.932308 
L 552.255593 236.769231 
L 570.84674 236.769231 
L 572.174679 235.606154 
L 576.158496 235.606154 
L 577.486435 234.443077 
L 588.109948 234.443077 
L 589.437887 232.116923 
L 610.684912 232.116923 
L 612.012851 230.953846 
L 618.652546 230.953846 
L 619.980485 229.790769 
L 622.636364 229.790769 
L 622.636364 229.790769 
" clip-path="url(#pff40bc96fc)" style="fill: none; stroke: #ff7f0e; stroke-width: 1.5; stroke-linecap: square"/>
   </g>
   <g id="patch_3">
    <path d="M 90 384.48 
L 90 51.84 
" style="fill: none; stroke: #000000; stroke-width: 0.8; stroke-linejoin: miter; stroke-linecap: square"/>
   </g>
   <g id="patch_4">
    <path d="M 648 384.48 
L 648 51.84 
" style="fill: none; stroke: #000000; stroke-width: 0.8; stroke-linejoin: miter; stroke-linecap: square"/>
   </g>
   <g id="patch_5">
    <path d="M 90 384.48 
L 648 384.48 
" style="fill: none; stroke: #000000; stroke-width: 0.8; stroke-linejoin: miter; stroke-linecap: square"/>
   </g>
   <g id="patch_6">
    <path d="M 90 51.84 
L 648 51.84 
" style="fill: none; stroke: #000000; stroke-width: 0.8; stroke-linejoin: miter; stroke-linecap: square"/>
   </g>
   <g id="text_16">
    <!-- Time Series of Votes for Each Keyword -->
    <g transform="translate(253.716563 45.84) scale(0.12 -0.12)">
     <defs>
      <path id="DejaVuSans-53" d="M 3425 4513 
L 3425 3897 
Q 3066 4069 2747 4153 
Q 2428 4238 2131 4238 
Q 1616 4238 1336 4038 
Q 1056 3838 1056 3469 
Q 1056 3159 1242 3001 
Q 1428 2844 1947 2747 
L 2328 2669 
Q 3034 2534 3370 2195 
Q 3706 1856 3706 1288 
Q 3706 609 3251 259 
Q 2797 -91 1919 -91 
Q 1588 -91 1214 -16 
Q 841 59 441 206 
L 441 856 
Q 825 641 1194 531 
Q 1563 422 1919 422 
Q 2459 422 2753 634 
Q 3047 847 3047 1241 
Q 3047 1584 2836 1778 
Q 2625 1972 2144 2069 
L 1759 2144 
Q 1053 2284 737 2584 
Q 422 2884 422 3419 
Q 422 4038 858 4394 
Q 1294 4750 2059 4750 
Q 2388 4750 2728 4690 
Q 3069 4631 3425 4513 
z
" transform="scale(0.015625)"/>
      <path id="DejaVuSans-72" d="M 2631 2963 
Q 2534 3019 2420 3045 
Q 2306 3072 2169 3072 
Q 1681 3072 1420 2755 
Q 1159 2438 1159 1844 
L 1159 0 
L 581 0 
L 581 3500 
L 1159 3500 
L 1159 2956 
Q 1341 3275 1631 3429 
Q 1922 3584 2338 3584 
Q 2397 3584 2469 3576 
Q 2541 3569 2628 3553 
L 2631 2963 
z
" transform="scale(0.015625)"/>
      <path id="DejaVuSans-66" d="M 2375 4863 
L 2375 4384 
L 1825 4384 
Q 1516 4384 1395 4259 
Q 1275 4134 1275 3809 
L 1275 3500 
L 2222 3500 
L 2222 3053 
L 1275 3053 
L 1275 0 
L 697 0 
L 697 3053 
L 147 3053 
L 147 3500 
L 697 3500 
L 697 3744 
Q 697 4328 969 4595 
Q 1241 4863 1831 4863 
L 2375 4863 
z
" transform="scale(0.015625)"/>
      <path id="DejaVuSans-45" d="M 628 4666 
L 3578 4666 
L 3578 4134 
L 1259 4134 
L 1259 2753 
L 3481 2753 
L 3481 2222 
L 1259 2222 
L 1259 531 
L 3634 531 
L 3634 0 
L 628 0 
L 628 4666 
z
" transform="scale(0.015625)"/>
      <path id="DejaVuSans-63" d="M 3122 3366 
L 3122 2828 
Q 2878 2963 2633 3030 
Q 2388 3097 2138 3097 
Q 1578 3097 1268 2742 
Q 959 2388 959 1747 
Q 959 1106 1268 751 
Q 1578 397 2138 397 
Q 2388 397 2633 464 
Q 2878 531 3122 666 
L 3122 134 
Q 2881 22 2623 -34 
Q 2366 -91 2075 -91 
Q 1284 -91 818 406 
Q 353 903 353 1747 
Q 353 2603 823 3093 
Q 1294 3584 2113 3584 
Q 2378 3584 2631 3529 
Q 2884 3475 3122 3366 
z
" transform="scale(0.015625)"/>
      <path id="DejaVuSans-68" d="M 3513 2113 
L 3513 0 
L 2938 0 
L 2938 2094 
Q 2938 2591 2744 2837 
Q 2550 3084 2163 3084 
Q 1697 3084 1428 2787 
Q 1159 2491 1159 1978 
L 1159 0 
L 581 0 
L 581 4863 
L 1159 4863 
L 1159 2956 
Q 1366 3272 1645 3428 
Q 1925 3584 2291 3584 
Q 2894 3584 3203 3211 
Q 3513 2838 3513 2113 
z
" transform="scale(0.015625)"/>
      <path id="DejaVuSans-4b" d="M 628 4666 
L 1259 4666 
L 1259 2694 
L 3353 4666 
L 4166 4666 
L 1850 2491 
L 4331 0 
L 3500 0 
L 1259 2247 
L 1259 0 
L 628 0 
L 628 4666 
z
" transform="scale(0.015625)"/>
      <path id="DejaVuSans-79" d="M 2059 -325 
Q 1816 -950 1584 -1140 
Q 1353 -1331 966 -1331 
L 506 -1331 
L 506 -850 
L 844 -850 
Q 1081 -850 1212 -737 
Q 1344 -625 1503 -206 
L 1606 56 
L 191 3500 
L 800 3500 
L 1894 763 
L 2988 3500 
L 3597 3500 
L 2059 -325 
z
" transform="scale(0.015625)"/>
      <path id="DejaVuSans-77" d="M 269 3500 
L 844 3500 
L 1563 769 
L 2278 3500 
L 2956 3500 
L 3675 769 
L 4391 3500 
L 4966 3500 
L 4050 0 
L 3372 0 
L 2619 2869 
L 1863 0 
L 1184 0 
L 269 3500 
z
" transform="scale(0.015625)"/>
     </defs>
     <use xlink:href="#DejaVuSans-54"/>
     <use xlink:href="#DejaVuSans-69" transform="translate(57.958984 0)"/>
     <use xlink:href="#DejaVuSans-6d" transform="translate(85.742188 0)"/>
     <use xlink:href="#DejaVuSans-65" transform="translate(183.154297 0)"/>
     <use xlink:href="#DejaVuSans-20" transform="translate(244.677734 0)"/>
     <use xlink:href="#DejaVuSans-53" transform="translate(276.464844 0)"/>
     <use xlink:href="#DejaVuSans-65" transform="translate(339.941406 0)"/>
     <use xlink:href="#DejaVuSans-72" transform="translate(401.464844 0)"/>
     <use xlink:href="#DejaVuSans-69" transform="translate(442.578125 0)"/>
     <use xlink:href="#DejaVuSans-65" transform="translate(470.361328 0)"/>
     <use xlink:href="#DejaVuSans-73" transform="translate(531.884766 0)"/>
     <use xlink:href="#DejaVuSans-20" transform="translate(583.984375 0)"/>
     <use xlink:href="#DejaVuSans-6f" transform="translate(615.771484 0)"/>
     <use xlink:href="#DejaVuSans-66" transform="translate(676.953125 0)"/>
     <use xlink:href="#DejaVuSans-20" transform="translate(712.158203 0)"/>
     <use xlink:href="#DejaVuSans-56" transform="translate(743.945312 0)"/>
     <use xlink:href="#DejaVuSans-6f" transform="translate(804.603516 0)"/>
     <use xlink:href="#DejaVuSans-74" transform="translate(865.785156 0)"/>
     <use xlink:href="#DejaVuSans-65" transform="translate(904.994141 0)"/>
     <use xlink:href="#DejaVuSans-73" transform="translate(966.517578 0)"/>
     <use xlink:href="#DejaVuSans-20" transform="translate(1018.617188 0)"/>
     <use xlink:href="#DejaVuSans-66" transform="translate(1050.404297 0)"/>
     <use xlink:href="#DejaVuSans-6f" transform="translate(1085.609375 0)"/>
     <use xlink:href="#DejaVuSans-72" transform="translate(1146.791016 0)"/>
     <use xlink:href="#DejaVuSans-20" transform="translate(1187.904297 0)"/>
     <use xlink:href="#DejaVuSans-45" transform="translate(1219.691406 0)"/>
     <use xlink:href="#DejaVuSans-61" transform="translate(1282.875 0)"/>
     <use xlink:href="#DejaVuSans-63" transform="translate(1344.154297 0)"/>
     <use xlink:href="#DejaVuSans-68" transform="translate(1399.134766 0)"/>
     <use xlink:href="#DejaVuSans-20" transform="translate(1462.513672 0)"/>
     <use xlink:href="#DejaVuSans-4b" transform="translate(1494.300781 0)"/>
     <use xlink:href="#DejaVuSans-65" transform="translate(1554.876953 0)"/>
     <use xlink:href="#DejaVuSans-79" transform="translate(1616.400391 0)"/>
     <use xlink:href="#DejaVuSans-77" transform="translate(1675.580078 0)"/>
     <use xlink:href="#DejaVuSans-6f" transform="translate(1757.367188 0)"/>
     <use xlink:href="#DejaVuSans-72" transform="translate(1818.548828 0)"/>
     <use xlink:href="#DejaVuSans-64" transform="translate(1857.912109 0)"/>
    </g>
   </g>
   <g id="legend_1">
    <g id="patch_7">
     <path d="M 97 235.9775 
L 149.245313 235.9775 
Q 151.245313 235.9775 151.245313 233.9775 
L 151.245313 58.84 
Q 151.245313 56.84 149.245313 56.84 
L 97 56.84 
Q 95 56.84 95 58.84 
L 95 233.9775 
Q 95 235.9775 97 235.9775 
z
" style="fill: #ffffff; opacity: 0.8; stroke: #cccccc; stroke-linejoin: miter"/>
    </g>
    <g id="line2d_39">
     <path d="M 99 64.938437 
L 109 64.938437 
L 119 64.938437 
" style="fill: none; stroke: #1f77b4; stroke-width: 1.5; stroke-linecap: square"/>
    </g>
    <g id="text_17">
     <!-- H01 -->
     <g transform="translate(127 68.438437) scale(0.1 -0.1)">
      <defs>
       <path id="DejaVuSans-48" d="M 628 4666 
L 1259 4666 
L 1259 2753 
L 3553 2753 
L 3553 4666 
L 4184 4666 
L 4184 0 
L 3553 0 
L 3553 2222 
L 1259 2222 
L 1259 0 
L 628 0 
L 628 4666 
z
" transform="scale(0.015625)"/>
      </defs>
      <use xlink:href="#DejaVuSans-48"/>
      <use xlink:href="#DejaVuSans-30" transform="translate(75.195312 0)"/>
      <use xlink:href="#DejaVuSans-31" transform="translate(138.818359 0)"/>
     </g>
    </g>
    <g id="line2d_40">
     <path d="M 99 79.616562 
L 109 79.616562 
L 119 79.616562 
" style="fill: none; stroke: #ff7f0e; stroke-width: 1.5; stroke-linecap: square"/>
    </g>
    <g id="text_18">
     <!-- H02 -->
     <g transform="translate(127 83.116562) scale(0.1 -0.1)">
      <use xlink:href="#DejaVuSans-48"/>
      <use xlink:href="#DejaVuSans-30" transform="translate(75.195312 0)"/>
      <use xlink:href="#DejaVuSans-32" transform="translate(138.818359 0)"/>
     </g>
    </g>
    <g id="line2d_41">
     <path d="M 99 94.294688 
L 109 94.294688 
L 119 94.294688 
" style="fill: none; stroke: #2ca02c; stroke-width: 1.5; stroke-linecap: square"/>
    </g>
    <g id="text_19">
     <!-- H03 -->
     <g transform="translate(127 97.794688) scale(0.1 -0.1)">
      <defs>
       <path id="DejaVuSans-33" d="M 2597 2516 
Q 3050 2419 3304 2112 
Q 3559 1806 3559 1356 
Q 3559 666 3084 287 
Q 2609 -91 1734 -91 
Q 1441 -91 1130 -33 
Q 819 25 488 141 
L 488 750 
Q 750 597 1062 519 
Q 1375 441 1716 441 
Q 2309 441 2620 675 
Q 2931 909 2931 1356 
Q 2931 1769 2642 2001 
Q 2353 2234 1838 2234 
L 1294 2234 
L 1294 2753 
L 1863 2753 
Q 2328 2753 2575 2939 
Q 2822 3125 2822 3475 
Q 2822 3834 2567 4026 
Q 2313 4219 1838 4219 
Q 1578 4219 1281 4162 
Q 984 4106 628 3988 
L 628 4550 
Q 988 4650 1302 4700 
Q 1616 4750 1894 4750 
Q 2613 4750 3031 4423 
Q 3450 4097 3450 3541 
Q 3450 3153 3228 2886 
Q 3006 2619 2597 2516 
z
" transform="scale(0.015625)"/>
      </defs>
      <use xlink:href="#DejaVuSans-48"/>
      <use xlink:href="#DejaVuSans-30" transform="translate(75.195312 0)"/>
      <use xlink:href="#DejaVuSans-33" transform="translate(138.818359 0)"/>
     </g>
    </g>
    <g id="line2d_42">
     <path d="M 99 108.972812 
L 109 108.972812 
L 119 108.972812 
" style="fill: none; stroke: #d62728; stroke-width: 1.5; stroke-linecap: square"/>
    </g>
    <g id="text_20">
     <!-- H04 -->
     <g transform="translate(127 112.472812) scale(0.1 -0.1)">
      <use xlink:href="#DejaVuSans-48"/>
      <use xlink:href="#DejaVuSans-30" transform="translate(75.195312 0)"/>
      <use xlink:href="#DejaVuSans-34" transform="translate(138.818359 0)"/>
     </g>
    </g>
    <g id="line2d_43">
     <path d="M 99 123.650937 
L 109 123.650937 
L 119 123.650937 
" style="fill: none; stroke: #9467bd; stroke-width: 1.5; stroke-linecap: square"/>
    </g>
    <g id="text_21">
     <!-- H05 -->
     <g transform="translate(127 127.150937) scale(0.1 -0.1)">
      <use xlink:href="#DejaVuSans-48"/>
      <use xlink:href="#DejaVuSans-30" transform="translate(75.195312 0)"/>
      <use xlink:href="#DejaVuSans-35" transform="translate(138.818359 0)"/>
     </g>
    </g>
    <g id="line2d_44">
     <path d="M 99 138.329062 
L 109 138.329062 
L 119 138.329062 
" style="fill: none; stroke: #8c564b; stroke-width: 1.5; stroke-linecap: square"/>
    </g>
    <g id="text_22">
     <!-- H06 -->
     <g transform="translate(127 141.829062) scale(0.1 -0.1)">
      <use xlink:href="#DejaVuSans-48"/>
      <use xlink:href="#DejaVuSans-30" transform="translate(75.195312 0)"/>
      <use xlink:href="#DejaVuSans-36" transform="translate(138.818359 0)"/>
     </g>
    </g>
    <g id="line2d_45">
     <path d="M 99 153.007187 
L 109 153.007187 
L 119 153.007187 
" style="fill: none; stroke: #e377c2; stroke-width: 1.5; stroke-linecap: square"/>
    </g>
    <g id="text_23">
     <!-- H07 -->
     <g transform="translate(127 156.507187) scale(0.1 -0.1)">
      <use xlink:href="#DejaVuSans-48"/>
      <use xlink:href="#DejaVuSans-30" transform="translate(75.195312 0)"/>
      <use xlink:href="#DejaVuSans-37" transform="translate(138.818359 0)"/>
     </g>
    </g>
    <g id="line2d_46">
     <path d="M 99 167.685312 
L 109 167.685312 
L 119 167.685312 
" style="fill: none; stroke: #7f7f7f; stroke-width: 1.5; stroke-linecap: square"/>
    </g>
    <g id="text_24">
     <!-- H08 -->
     <g transform="translate(127 171.185312) scale(0.1 -0.1)">
      <use xlink:href="#DejaVuSans-48"/>
      <use xlink:href="#DejaVuSans-30" transform="translate(75.195312 0)"/>
      <use xlink:href="#DejaVuSans-38" transform="translate(138.818359 0)"/>
     </g>
    </g>
    <g id="line2d_47">
     <path d="M 99 182.363437 
L 109 182.363437 
L 119 182.363437 
" style="fill: none; stroke: #bcbd22; stroke-width: 1.5; stroke-linecap: square"/>
    </g>
    <g id="text_25">
     <!-- H09 -->
     <g transform="translate(127 185.863437) scale(0.1 -0.1)">
      <use xlink:href="#DejaVuSans-48"/>
      <use xlink:href="#DejaVuSans-30" transform="translate(75.195312 0)"/>
      <use xlink:href="#DejaVuSans-39" transform="translate(138.818359 0)"/>
     </g>
    </g>
    <g id="line2d_48">
     <path d="M 99 197.041562 
L 109 197.041562 
L 119 197.041562 
" style="fill: none; stroke: #17becf; stroke-width: 1.5; stroke-linecap: square"/>
    </g>
    <g id="text_26">
     <!-- H10 -->
     <g transform="translate(127 200.541562) scale(0.1 -0.1)">
      <use xlink:href="#DejaVuSans-48"/>
      <use xlink:href="#DejaVuSans-31" transform="translate(75.195312 0)"/>
      <use xlink:href="#DejaVuSans-30" transform="translate(138.818359 0)"/>
     </g>
    </g>
    <g id="line2d_49">
     <path d="M 99 211.719687 
L 109 211.719687 
L 119 211.719687 
" style="fill: none; stroke: #1f77b4; stroke-width: 1.5; stroke-linecap: square"/>
    </g>
    <g id="text_27">
     <!-- H11 -->
     <g transform="translate(127 215.219687) scale(0.1 -0.1)">
      <use xlink:href="#DejaVuSans-48"/>
      <use xlink:href="#DejaVuSans-31" transform="translate(75.195312 0)"/>
      <use xlink:href="#DejaVuSans-31" transform="translate(138.818359 0)"/>
     </g>
    </g>
    <g id="line2d_50">
     <path d="M 99 226.397812 
L 109 226.397812 
L 119 226.397812 
" style="fill: none; stroke: #ff7f0e; stroke-width: 1.5; stroke-linecap: square"/>
    </g>
    <g id="text_28">
     <!-- H12 -->
     <g transform="translate(127 229.897812) scale(0.1 -0.1)">
      <use xlink:href="#DejaVuSans-48"/>
      <use xlink:href="#DejaVuSans-31" transform="translate(75.195312 0)"/>
      <use xlink:href="#DejaVuSans-32" transform="translate(138.818359 0)"/>
     </g>
    </g>
   </g>
  </g>
 </g>
 <defs>
  <clipPath id="pff40bc96fc">
   <rect x="90" y="51.84" width="558" height="332.64"/>
  </clipPath>
 </defs>
</svg>
