<?xml version="1.0" encoding="utf-8" standalone="no"?>
<!DOCTYPE svg PUBLIC "-//W3C//DTD SVG 1.1//EN"
  "http://www.w3.org/Graphics/SVG/1.1/DTD/svg11.dtd">
<svg xmlns:xlink="http://www.w3.org/1999/xlink" width="720pt" height="432pt" viewBox="0 0 720 432" xmlns="http://www.w3.org/2000/svg" version="1.1">
 <metadata>
  <rdf:RDF xmlns:dc="http://purl.org/dc/elements/1.1/" xmlns:cc="http://creativecommons.org/ns#" xmlns:rdf="http://www.w3.org/1999/02/22-rdf-syntax-ns#">
   <cc:Work>
    <dc:type rdf:resource="http://purl.org/dc/dcmitype/StillImage"/>
    <dc:date>2025-01-14T22:09:14.579822</dc:date>
    <dc:format>image/svg+xml</dc:format>
    <dc:creator>
     <cc:Agent>
      <dc:title>Matplotlib v3.10.0, https://matplotlib.org/</dc:title>
     </cc:Agent>
    </dc:creator>
   </cc:Work>
  </rdf:RDF>
 </metadata>
 <defs>
  <style type="text/css">*{stroke-linejoin: round; stroke-linecap: butt}</style>
 </defs>
 <g id="figure_1">
  <g id="patch_1">
   <path d="M 0 432 
L 720 432 
L 720 0 
L 0 0 
z
" style="fill: #ffffff"/>
  </g>
  <g id="axes_1">
   <g id="patch_2">
    <path d="M 90 384.48 
L 648 384.48 
L 648 51.84 
L 90 51.84 
z
" style="fill: #ffffff"/>
   </g>
   <g id="matplotlib.axis_1">
    <g id="xtick_1">
     <g id="line2d_1">
      <path d="M 141.958517 384.48 
L 141.958517 51.84 
" clip-path="url(#p32f32f77ee)" style="fill: none; stroke: #b0b0b0; stroke-width: 0.8; stroke-linecap: square"/>
     </g>
     <g id="line2d_2">
      <defs>
       <path id="m6651d42419" d="M 0 0 
L 0 3.5 
" style="stroke: #000000; stroke-width: 0.8"/>
      </defs>
      <g>
       <use xlink:href="#m6651d42419" x="141.958517" y="384.48" style="stroke: #000000; stroke-width: 0.8"/>
      </g>
     </g>
     <g id="text_1">
      <!-- 01-14 14 -->
      <g transform="translate(119.478048 399.078438) scale(0.1 -0.1)">
       <defs>
        <path id="DejaVuSans-30" d="M 2034 4250 
Q 1547 4250 1301 3770 
Q 1056 3291 1056 2328 
Q 1056 1369 1301 889 
Q 1547 409 2034 409 
Q 2525 409 2770 889 
Q 3016 1369 3016 2328 
Q 3016 3291 2770 3770 
Q 2525 4250 2034 4250 
z
M 2034 4750 
Q 2819 4750 3233 4129 
Q 3647 3509 3647 2328 
Q 3647 1150 3233 529 
Q 2819 -91 2034 -91 
Q 1250 -91 836 529 
Q 422 1150 422 2328 
Q 422 3509 836 4129 
Q 1250 4750 2034 4750 
z
" transform="scale(0.015625)"/>
        <path id="DejaVuSans-31" d="M 794 531 
L 1825 531 
L 1825 4091 
L 703 3866 
L 703 4441 
L 1819 4666 
L 2450 4666 
L 2450 531 
L 3481 531 
L 3481 0 
L 794 0 
L 794 531 
z
" transform="scale(0.015625)"/>
        <path id="DejaVuSans-2d" d="M 313 2009 
L 1997 2009 
L 1997 1497 
L 313 1497 
L 313 2009 
z
" transform="scale(0.015625)"/>
        <path id="DejaVuSans-34" d="M 2419 4116 
L 825 1625 
L 2419 1625 
L 2419 4116 
z
M 2253 4666 
L 3047 4666 
L 3047 1625 
L 3713 1625 
L 3713 1100 
L 3047 1100 
L 3047 0 
L 2419 0 
L 2419 1100 
L 313 1100 
L 313 1709 
L 2253 4666 
z
" transform="scale(0.015625)"/>
        <path id="DejaVuSans-20" transform="scale(0.015625)"/>
       </defs>
       <use xlink:href="#DejaVuSans-30"/>
       <use xlink:href="#DejaVuSans-31" transform="translate(63.623047 0)"/>
       <use xlink:href="#DejaVuSans-2d" transform="translate(127.246094 0)"/>
       <use xlink:href="#DejaVuSans-31" transform="translate(163.330078 0)"/>
       <use xlink:href="#DejaVuSans-34" transform="translate(226.953125 0)"/>
       <use xlink:href="#DejaVuSans-20" transform="translate(290.576172 0)"/>
       <use xlink:href="#DejaVuSans-31" transform="translate(322.363281 0)"/>
       <use xlink:href="#DejaVuSans-34" transform="translate(385.986328 0)"/>
      </g>
     </g>
    </g>
    <g id="xtick_2">
     <g id="line2d_3">
      <path d="M 201.058252 384.48 
L 201.058252 51.84 
" clip-path="url(#p32f32f77ee)" style="fill: none; stroke: #b0b0b0; stroke-width: 0.8; stroke-linecap: square"/>
     </g>
     <g id="line2d_4">
      <g>
       <use xlink:href="#m6651d42419" x="201.058252" y="384.48" style="stroke: #000000; stroke-width: 0.8"/>
      </g>
     </g>
     <g id="text_2">
      <!-- 01-14 15 -->
      <g transform="translate(178.577784 399.078438) scale(0.1 -0.1)">
       <defs>
        <path id="DejaVuSans-35" d="M 691 4666 
L 3169 4666 
L 3169 4134 
L 1269 4134 
L 1269 2991 
Q 1406 3038 1543 3061 
Q 1681 3084 1819 3084 
Q 2600 3084 3056 2656 
Q 3513 2228 3513 1497 
Q 3513 744 3044 326 
Q 2575 -91 1722 -91 
Q 1428 -91 1123 -41 
Q 819 9 494 109 
L 494 744 
Q 775 591 1075 516 
Q 1375 441 1709 441 
Q 2250 441 2565 725 
Q 2881 1009 2881 1497 
Q 2881 1984 2565 2268 
Q 2250 2553 1709 2553 
Q 1456 2553 1204 2497 
Q 953 2441 691 2322 
L 691 4666 
z
" transform="scale(0.015625)"/>
       </defs>
       <use xlink:href="#DejaVuSans-30"/>
       <use xlink:href="#DejaVuSans-31" transform="translate(63.623047 0)"/>
       <use xlink:href="#DejaVuSans-2d" transform="translate(127.246094 0)"/>
       <use xlink:href="#DejaVuSans-31" transform="translate(163.330078 0)"/>
       <use xlink:href="#DejaVuSans-34" transform="translate(226.953125 0)"/>
       <use xlink:href="#DejaVuSans-20" transform="translate(290.576172 0)"/>
       <use xlink:href="#DejaVuSans-31" transform="translate(322.363281 0)"/>
       <use xlink:href="#DejaVuSans-35" transform="translate(385.986328 0)"/>
      </g>
     </g>
    </g>
    <g id="xtick_3">
     <g id="line2d_5">
      <path d="M 260.157988 384.48 
L 260.157988 51.84 
" clip-path="url(#p32f32f77ee)" style="fill: none; stroke: #b0b0b0; stroke-width: 0.8; stroke-linecap: square"/>
     </g>
     <g id="line2d_6">
      <g>
       <use xlink:href="#m6651d42419" x="260.157988" y="384.48" style="stroke: #000000; stroke-width: 0.8"/>
      </g>
     </g>
     <g id="text_3">
      <!-- 01-14 16 -->
      <g transform="translate(237.677519 399.078438) scale(0.1 -0.1)">
       <defs>
        <path id="DejaVuSans-36" d="M 2113 2584 
Q 1688 2584 1439 2293 
Q 1191 2003 1191 1497 
Q 1191 994 1439 701 
Q 1688 409 2113 409 
Q 2538 409 2786 701 
Q 3034 994 3034 1497 
Q 3034 2003 2786 2293 
Q 2538 2584 2113 2584 
z
M 3366 4563 
L 3366 3988 
Q 3128 4100 2886 4159 
Q 2644 4219 2406 4219 
Q 1781 4219 1451 3797 
Q 1122 3375 1075 2522 
Q 1259 2794 1537 2939 
Q 1816 3084 2150 3084 
Q 2853 3084 3261 2657 
Q 3669 2231 3669 1497 
Q 3669 778 3244 343 
Q 2819 -91 2113 -91 
Q 1303 -91 875 529 
Q 447 1150 447 2328 
Q 447 3434 972 4092 
Q 1497 4750 2381 4750 
Q 2619 4750 2861 4703 
Q 3103 4656 3366 4563 
z
" transform="scale(0.015625)"/>
       </defs>
       <use xlink:href="#DejaVuSans-30"/>
       <use xlink:href="#DejaVuSans-31" transform="translate(63.623047 0)"/>
       <use xlink:href="#DejaVuSans-2d" transform="translate(127.246094 0)"/>
       <use xlink:href="#DejaVuSans-31" transform="translate(163.330078 0)"/>
       <use xlink:href="#DejaVuSans-34" transform="translate(226.953125 0)"/>
       <use xlink:href="#DejaVuSans-20" transform="translate(290.576172 0)"/>
       <use xlink:href="#DejaVuSans-31" transform="translate(322.363281 0)"/>
       <use xlink:href="#DejaVuSans-36" transform="translate(385.986328 0)"/>
      </g>
     </g>
    </g>
    <g id="xtick_4">
     <g id="line2d_7">
      <path d="M 319.257723 384.48 
L 319.257723 51.84 
" clip-path="url(#p32f32f77ee)" style="fill: none; stroke: #b0b0b0; stroke-width: 0.8; stroke-linecap: square"/>
     </g>
     <g id="line2d_8">
      <g>
       <use xlink:href="#m6651d42419" x="319.257723" y="384.48" style="stroke: #000000; stroke-width: 0.8"/>
      </g>
     </g>
     <g id="text_4">
      <!-- 01-14 17 -->
      <g transform="translate(296.777254 399.078438) scale(0.1 -0.1)">
       <defs>
        <path id="DejaVuSans-37" d="M 525 4666 
L 3525 4666 
L 3525 4397 
L 1831 0 
L 1172 0 
L 2766 4134 
L 525 4134 
L 525 4666 
z
" transform="scale(0.015625)"/>
       </defs>
       <use xlink:href="#DejaVuSans-30"/>
       <use xlink:href="#DejaVuSans-31" transform="translate(63.623047 0)"/>
       <use xlink:href="#DejaVuSans-2d" transform="translate(127.246094 0)"/>
       <use xlink:href="#DejaVuSans-31" transform="translate(163.330078 0)"/>
       <use xlink:href="#DejaVuSans-34" transform="translate(226.953125 0)"/>
       <use xlink:href="#DejaVuSans-20" transform="translate(290.576172 0)"/>
       <use xlink:href="#DejaVuSans-31" transform="translate(322.363281 0)"/>
       <use xlink:href="#DejaVuSans-37" transform="translate(385.986328 0)"/>
      </g>
     </g>
    </g>
    <g id="xtick_5">
     <g id="line2d_9">
      <path d="M 378.357458 384.48 
L 378.357458 51.84 
" clip-path="url(#p32f32f77ee)" style="fill: none; stroke: #b0b0b0; stroke-width: 0.8; stroke-linecap: square"/>
     </g>
     <g id="line2d_10">
      <g>
       <use xlink:href="#m6651d42419" x="378.357458" y="384.48" style="stroke: #000000; stroke-width: 0.8"/>
      </g>
     </g>
     <g id="text_5">
      <!-- 01-14 18 -->
      <g transform="translate(355.876989 399.078438) scale(0.1 -0.1)">
       <defs>
        <path id="DejaVuSans-38" d="M 2034 2216 
Q 1584 2216 1326 1975 
Q 1069 1734 1069 1313 
Q 1069 891 1326 650 
Q 1584 409 2034 409 
Q 2484 409 2743 651 
Q 3003 894 3003 1313 
Q 3003 1734 2745 1975 
Q 2488 2216 2034 2216 
z
M 1403 2484 
Q 997 2584 770 2862 
Q 544 3141 544 3541 
Q 544 4100 942 4425 
Q 1341 4750 2034 4750 
Q 2731 4750 3128 4425 
Q 3525 4100 3525 3541 
Q 3525 3141 3298 2862 
Q 3072 2584 2669 2484 
Q 3125 2378 3379 2068 
Q 3634 1759 3634 1313 
Q 3634 634 3220 271 
Q 2806 -91 2034 -91 
Q 1263 -91 848 271 
Q 434 634 434 1313 
Q 434 1759 690 2068 
Q 947 2378 1403 2484 
z
M 1172 3481 
Q 1172 3119 1398 2916 
Q 1625 2713 2034 2713 
Q 2441 2713 2670 2916 
Q 2900 3119 2900 3481 
Q 2900 3844 2670 4047 
Q 2441 4250 2034 4250 
Q 1625 4250 1398 4047 
Q 1172 3844 1172 3481 
z
" transform="scale(0.015625)"/>
       </defs>
       <use xlink:href="#DejaVuSans-30"/>
       <use xlink:href="#DejaVuSans-31" transform="translate(63.623047 0)"/>
       <use xlink:href="#DejaVuSans-2d" transform="translate(127.246094 0)"/>
       <use xlink:href="#DejaVuSans-31" transform="translate(163.330078 0)"/>
       <use xlink:href="#DejaVuSans-34" transform="translate(226.953125 0)"/>
       <use xlink:href="#DejaVuSans-20" transform="translate(290.576172 0)"/>
       <use xlink:href="#DejaVuSans-31" transform="translate(322.363281 0)"/>
       <use xlink:href="#DejaVuSans-38" transform="translate(385.986328 0)"/>
      </g>
     </g>
    </g>
    <g id="xtick_6">
     <g id="line2d_11">
      <path d="M 437.457193 384.48 
L 437.457193 51.84 
" clip-path="url(#p32f32f77ee)" style="fill: none; stroke: #b0b0b0; stroke-width: 0.8; stroke-linecap: square"/>
     </g>
     <g id="line2d_12">
      <g>
       <use xlink:href="#m6651d42419" x="437.457193" y="384.48" style="stroke: #000000; stroke-width: 0.8"/>
      </g>
     </g>
     <g id="text_6">
      <!-- 01-14 19 -->
      <g transform="translate(414.976725 399.078438) scale(0.1 -0.1)">
       <defs>
        <path id="DejaVuSans-39" d="M 703 97 
L 703 672 
Q 941 559 1184 500 
Q 1428 441 1663 441 
Q 2288 441 2617 861 
Q 2947 1281 2994 2138 
Q 2813 1869 2534 1725 
Q 2256 1581 1919 1581 
Q 1219 1581 811 2004 
Q 403 2428 403 3163 
Q 403 3881 828 4315 
Q 1253 4750 1959 4750 
Q 2769 4750 3195 4129 
Q 3622 3509 3622 2328 
Q 3622 1225 3098 567 
Q 2575 -91 1691 -91 
Q 1453 -91 1209 -44 
Q 966 3 703 97 
z
M 1959 2075 
Q 2384 2075 2632 2365 
Q 2881 2656 2881 3163 
Q 2881 3666 2632 3958 
Q 2384 4250 1959 4250 
Q 1534 4250 1286 3958 
Q 1038 3666 1038 3163 
Q 1038 2656 1286 2365 
Q 1534 2075 1959 2075 
z
" transform="scale(0.015625)"/>
       </defs>
       <use xlink:href="#DejaVuSans-30"/>
       <use xlink:href="#DejaVuSans-31" transform="translate(63.623047 0)"/>
       <use xlink:href="#DejaVuSans-2d" transform="translate(127.246094 0)"/>
       <use xlink:href="#DejaVuSans-31" transform="translate(163.330078 0)"/>
       <use xlink:href="#DejaVuSans-34" transform="translate(226.953125 0)"/>
       <use xlink:href="#DejaVuSans-20" transform="translate(290.576172 0)"/>
       <use xlink:href="#DejaVuSans-31" transform="translate(322.363281 0)"/>
       <use xlink:href="#DejaVuSans-39" transform="translate(385.986328 0)"/>
      </g>
     </g>
    </g>
    <g id="xtick_7">
     <g id="line2d_13">
      <path d="M 496.556929 384.48 
L 496.556929 51.84 
" clip-path="url(#p32f32f77ee)" style="fill: none; stroke: #b0b0b0; stroke-width: 0.8; stroke-linecap: square"/>
     </g>
     <g id="line2d_14">
      <g>
       <use xlink:href="#m6651d42419" x="496.556929" y="384.48" style="stroke: #000000; stroke-width: 0.8"/>
      </g>
     </g>
     <g id="text_7">
      <!-- 01-14 20 -->
      <g transform="translate(474.07646 399.078438) scale(0.1 -0.1)">
       <defs>
        <path id="DejaVuSans-32" d="M 1228 531 
L 3431 531 
L 3431 0 
L 469 0 
L 469 531 
Q 828 903 1448 1529 
Q 2069 2156 2228 2338 
Q 2531 2678 2651 2914 
Q 2772 3150 2772 3378 
Q 2772 3750 2511 3984 
Q 2250 4219 1831 4219 
Q 1534 4219 1204 4116 
Q 875 4013 500 3803 
L 500 4441 
Q 881 4594 1212 4672 
Q 1544 4750 1819 4750 
Q 2544 4750 2975 4387 
Q 3406 4025 3406 3419 
Q 3406 3131 3298 2873 
Q 3191 2616 2906 2266 
Q 2828 2175 2409 1742 
Q 1991 1309 1228 531 
z
" transform="scale(0.015625)"/>
       </defs>
       <use xlink:href="#DejaVuSans-30"/>
       <use xlink:href="#DejaVuSans-31" transform="translate(63.623047 0)"/>
       <use xlink:href="#DejaVuSans-2d" transform="translate(127.246094 0)"/>
       <use xlink:href="#DejaVuSans-31" transform="translate(163.330078 0)"/>
       <use xlink:href="#DejaVuSans-34" transform="translate(226.953125 0)"/>
       <use xlink:href="#DejaVuSans-20" transform="translate(290.576172 0)"/>
       <use xlink:href="#DejaVuSans-32" transform="translate(322.363281 0)"/>
       <use xlink:href="#DejaVuSans-30" transform="translate(385.986328 0)"/>
      </g>
     </g>
    </g>
    <g id="xtick_8">
     <g id="line2d_15">
      <path d="M 555.656664 384.48 
L 555.656664 51.84 
" clip-path="url(#p32f32f77ee)" style="fill: none; stroke: #b0b0b0; stroke-width: 0.8; stroke-linecap: square"/>
     </g>
     <g id="line2d_16">
      <g>
       <use xlink:href="#m6651d42419" x="555.656664" y="384.48" style="stroke: #000000; stroke-width: 0.8"/>
      </g>
     </g>
     <g id="text_8">
      <!-- 01-14 21 -->
      <g transform="translate(533.176195 399.078438) scale(0.1 -0.1)">
       <use xlink:href="#DejaVuSans-30"/>
       <use xlink:href="#DejaVuSans-31" transform="translate(63.623047 0)"/>
       <use xlink:href="#DejaVuSans-2d" transform="translate(127.246094 0)"/>
       <use xlink:href="#DejaVuSans-31" transform="translate(163.330078 0)"/>
       <use xlink:href="#DejaVuSans-34" transform="translate(226.953125 0)"/>
       <use xlink:href="#DejaVuSans-20" transform="translate(290.576172 0)"/>
       <use xlink:href="#DejaVuSans-32" transform="translate(322.363281 0)"/>
       <use xlink:href="#DejaVuSans-31" transform="translate(385.986328 0)"/>
      </g>
     </g>
    </g>
    <g id="xtick_9">
     <g id="line2d_17">
      <path d="M 614.756399 384.48 
L 614.756399 51.84 
" clip-path="url(#p32f32f77ee)" style="fill: none; stroke: #b0b0b0; stroke-width: 0.8; stroke-linecap: square"/>
     </g>
     <g id="line2d_18">
      <g>
       <use xlink:href="#m6651d42419" x="614.756399" y="384.48" style="stroke: #000000; stroke-width: 0.8"/>
      </g>
     </g>
     <g id="text_9">
      <!-- 01-14 22 -->
      <g transform="translate(592.27593 399.078438) scale(0.1 -0.1)">
       <use xlink:href="#DejaVuSans-30"/>
       <use xlink:href="#DejaVuSans-31" transform="translate(63.623047 0)"/>
       <use xlink:href="#DejaVuSans-2d" transform="translate(127.246094 0)"/>
       <use xlink:href="#DejaVuSans-31" transform="translate(163.330078 0)"/>
       <use xlink:href="#DejaVuSans-34" transform="translate(226.953125 0)"/>
       <use xlink:href="#DejaVuSans-20" transform="translate(290.576172 0)"/>
       <use xlink:href="#DejaVuSans-32" transform="translate(322.363281 0)"/>
       <use xlink:href="#DejaVuSans-32" transform="translate(385.986328 0)"/>
      </g>
     </g>
    </g>
    <g id="text_10">
     <!-- Date and Time -->
     <g transform="translate(332.230469 412.756563) scale(0.1 -0.1)">
      <defs>
       <path id="DejaVuSans-44" d="M 1259 4147 
L 1259 519 
L 2022 519 
Q 2988 519 3436 956 
Q 3884 1394 3884 2338 
Q 3884 3275 3436 3711 
Q 2988 4147 2022 4147 
L 1259 4147 
z
M 628 4666 
L 1925 4666 
Q 3281 4666 3915 4102 
Q 4550 3538 4550 2338 
Q 4550 1131 3912 565 
Q 3275 0 1925 0 
L 628 0 
L 628 4666 
z
" transform="scale(0.015625)"/>
       <path id="DejaVuSans-61" d="M 2194 1759 
Q 1497 1759 1228 1600 
Q 959 1441 959 1056 
Q 959 750 1161 570 
Q 1363 391 1709 391 
Q 2188 391 2477 730 
Q 2766 1069 2766 1631 
L 2766 1759 
L 2194 1759 
z
M 3341 1997 
L 3341 0 
L 2766 0 
L 2766 531 
Q 2569 213 2275 61 
Q 1981 -91 1556 -91 
Q 1019 -91 701 211 
Q 384 513 384 1019 
Q 384 1609 779 1909 
Q 1175 2209 1959 2209 
L 2766 2209 
L 2766 2266 
Q 2766 2663 2505 2880 
Q 2244 3097 1772 3097 
Q 1472 3097 1187 3025 
Q 903 2953 641 2809 
L 641 3341 
Q 956 3463 1253 3523 
Q 1550 3584 1831 3584 
Q 2591 3584 2966 3190 
Q 3341 2797 3341 1997 
z
" transform="scale(0.015625)"/>
       <path id="DejaVuSans-74" d="M 1172 4494 
L 1172 3500 
L 2356 3500 
L 2356 3053 
L 1172 3053 
L 1172 1153 
Q 1172 725 1289 603 
Q 1406 481 1766 481 
L 2356 481 
L 2356 0 
L 1766 0 
Q 1100 0 847 248 
Q 594 497 594 1153 
L 594 3053 
L 172 3053 
L 172 3500 
L 594 3500 
L 594 4494 
L 1172 4494 
z
" transform="scale(0.015625)"/>
       <path id="DejaVuSans-65" d="M 3597 1894 
L 3597 1613 
L 953 1613 
Q 991 1019 1311 708 
Q 1631 397 2203 397 
Q 2534 397 2845 478 
Q 3156 559 3463 722 
L 3463 178 
Q 3153 47 2828 -22 
Q 2503 -91 2169 -91 
Q 1331 -91 842 396 
Q 353 884 353 1716 
Q 353 2575 817 3079 
Q 1281 3584 2069 3584 
Q 2775 3584 3186 3129 
Q 3597 2675 3597 1894 
z
M 3022 2063 
Q 3016 2534 2758 2815 
Q 2500 3097 2075 3097 
Q 1594 3097 1305 2825 
Q 1016 2553 972 2059 
L 3022 2063 
z
" transform="scale(0.015625)"/>
       <path id="DejaVuSans-6e" d="M 3513 2113 
L 3513 0 
L 2938 0 
L 2938 2094 
Q 2938 2591 2744 2837 
Q 2550 3084 2163 3084 
Q 1697 3084 1428 2787 
Q 1159 2491 1159 1978 
L 1159 0 
L 581 0 
L 581 3500 
L 1159 3500 
L 1159 2956 
Q 1366 3272 1645 3428 
Q 1925 3584 2291 3584 
Q 2894 3584 3203 3211 
Q 3513 2838 3513 2113 
z
" transform="scale(0.015625)"/>
       <path id="DejaVuSans-64" d="M 2906 2969 
L 2906 4863 
L 3481 4863 
L 3481 0 
L 2906 0 
L 2906 525 
Q 2725 213 2448 61 
Q 2172 -91 1784 -91 
Q 1150 -91 751 415 
Q 353 922 353 1747 
Q 353 2572 751 3078 
Q 1150 3584 1784 3584 
Q 2172 3584 2448 3432 
Q 2725 3281 2906 2969 
z
M 947 1747 
Q 947 1113 1208 752 
Q 1469 391 1925 391 
Q 2381 391 2643 752 
Q 2906 1113 2906 1747 
Q 2906 2381 2643 2742 
Q 2381 3103 1925 3103 
Q 1469 3103 1208 2742 
Q 947 2381 947 1747 
z
" transform="scale(0.015625)"/>
       <path id="DejaVuSans-54" d="M -19 4666 
L 3928 4666 
L 3928 4134 
L 2272 4134 
L 2272 0 
L 1638 0 
L 1638 4134 
L -19 4134 
L -19 4666 
z
" transform="scale(0.015625)"/>
       <path id="DejaVuSans-69" d="M 603 3500 
L 1178 3500 
L 1178 0 
L 603 0 
L 603 3500 
z
M 603 4863 
L 1178 4863 
L 1178 4134 
L 603 4134 
L 603 4863 
z
" transform="scale(0.015625)"/>
       <path id="DejaVuSans-6d" d="M 3328 2828 
Q 3544 3216 3844 3400 
Q 4144 3584 4550 3584 
Q 5097 3584 5394 3201 
Q 5691 2819 5691 2113 
L 5691 0 
L 5113 0 
L 5113 2094 
Q 5113 2597 4934 2840 
Q 4756 3084 4391 3084 
Q 3944 3084 3684 2787 
Q 3425 2491 3425 1978 
L 3425 0 
L 2847 0 
L 2847 2094 
Q 2847 2600 2669 2842 
Q 2491 3084 2119 3084 
Q 1678 3084 1418 2786 
Q 1159 2488 1159 1978 
L 1159 0 
L 581 0 
L 581 3500 
L 1159 3500 
L 1159 2956 
Q 1356 3278 1631 3431 
Q 1906 3584 2284 3584 
Q 2666 3584 2933 3390 
Q 3200 3197 3328 2828 
z
" transform="scale(0.015625)"/>
      </defs>
      <use xlink:href="#DejaVuSans-44"/>
      <use xlink:href="#DejaVuSans-61" transform="translate(77.001953 0)"/>
      <use xlink:href="#DejaVuSans-74" transform="translate(138.28125 0)"/>
      <use xlink:href="#DejaVuSans-65" transform="translate(177.490234 0)"/>
      <use xlink:href="#DejaVuSans-20" transform="translate(239.013672 0)"/>
      <use xlink:href="#DejaVuSans-61" transform="translate(270.800781 0)"/>
      <use xlink:href="#DejaVuSans-6e" transform="translate(332.080078 0)"/>
      <use xlink:href="#DejaVuSans-64" transform="translate(395.458984 0)"/>
      <use xlink:href="#DejaVuSans-20" transform="translate(458.935547 0)"/>
      <use xlink:href="#DejaVuSans-54" transform="translate(490.722656 0)"/>
      <use xlink:href="#DejaVuSans-69" transform="translate(548.681641 0)"/>
      <use xlink:href="#DejaVuSans-6d" transform="translate(576.464844 0)"/>
      <use xlink:href="#DejaVuSans-65" transform="translate(673.876953 0)"/>
     </g>
    </g>
   </g>
   <g id="matplotlib.axis_2">
    <g id="ytick_1">
     <g id="line2d_19">
      <path d="M 90 370.374765 
L 648 370.374765 
" clip-path="url(#p32f32f77ee)" style="fill: none; stroke: #b0b0b0; stroke-width: 0.8; stroke-linecap: square"/>
     </g>
     <g id="line2d_20">
      <defs>
       <path id="m1fc10c04b0" d="M 0 0 
L -3.5 0 
" style="stroke: #000000; stroke-width: 0.8"/>
      </defs>
      <g>
       <use xlink:href="#m1fc10c04b0" x="90" y="370.374765" style="stroke: #000000; stroke-width: 0.8"/>
      </g>
     </g>
     <g id="text_11">
      <!-- 0 -->
      <g transform="translate(76.6375 374.173984) scale(0.1 -0.1)">
       <use xlink:href="#DejaVuSans-30"/>
      </g>
     </g>
    </g>
    <g id="ytick_2">
     <g id="line2d_21">
      <path d="M 90 319.63651 
L 648 319.63651 
" clip-path="url(#p32f32f77ee)" style="fill: none; stroke: #b0b0b0; stroke-width: 0.8; stroke-linecap: square"/>
     </g>
     <g id="line2d_22">
      <g>
       <use xlink:href="#m1fc10c04b0" x="90" y="319.63651" style="stroke: #000000; stroke-width: 0.8"/>
      </g>
     </g>
     <g id="text_12">
      <!-- 50 -->
      <g transform="translate(70.275 323.435729) scale(0.1 -0.1)">
       <use xlink:href="#DejaVuSans-35"/>
       <use xlink:href="#DejaVuSans-30" transform="translate(63.623047 0)"/>
      </g>
     </g>
    </g>
    <g id="ytick_3">
     <g id="line2d_23">
      <path d="M 90 268.898255 
L 648 268.898255 
" clip-path="url(#p32f32f77ee)" style="fill: none; stroke: #b0b0b0; stroke-width: 0.8; stroke-linecap: square"/>
     </g>
     <g id="line2d_24">
      <g>
       <use xlink:href="#m1fc10c04b0" x="90" y="268.898255" style="stroke: #000000; stroke-width: 0.8"/>
      </g>
     </g>
     <g id="text_13">
      <!-- 100 -->
      <g transform="translate(63.9125 272.697474) scale(0.1 -0.1)">
       <use xlink:href="#DejaVuSans-31"/>
       <use xlink:href="#DejaVuSans-30" transform="translate(63.623047 0)"/>
       <use xlink:href="#DejaVuSans-30" transform="translate(127.246094 0)"/>
      </g>
     </g>
    </g>
    <g id="ytick_4">
     <g id="line2d_25">
      <path d="M 90 218.16 
L 648 218.16 
" clip-path="url(#p32f32f77ee)" style="fill: none; stroke: #b0b0b0; stroke-width: 0.8; stroke-linecap: square"/>
     </g>
     <g id="line2d_26">
      <g>
       <use xlink:href="#m1fc10c04b0" x="90" y="218.16" style="stroke: #000000; stroke-width: 0.8"/>
      </g>
     </g>
     <g id="text_14">
      <!-- 150 -->
      <g transform="translate(63.9125 221.959219) scale(0.1 -0.1)">
       <use xlink:href="#DejaVuSans-31"/>
       <use xlink:href="#DejaVuSans-35" transform="translate(63.623047 0)"/>
       <use xlink:href="#DejaVuSans-30" transform="translate(127.246094 0)"/>
      </g>
     </g>
    </g>
    <g id="ytick_5">
     <g id="line2d_27">
      <path d="M 90 167.421745 
L 648 167.421745 
" clip-path="url(#p32f32f77ee)" style="fill: none; stroke: #b0b0b0; stroke-width: 0.8; stroke-linecap: square"/>
     </g>
     <g id="line2d_28">
      <g>
       <use xlink:href="#m1fc10c04b0" x="90" y="167.421745" style="stroke: #000000; stroke-width: 0.8"/>
      </g>
     </g>
     <g id="text_15">
      <!-- 200 -->
      <g transform="translate(63.9125 171.220964) scale(0.1 -0.1)">
       <use xlink:href="#DejaVuSans-32"/>
       <use xlink:href="#DejaVuSans-30" transform="translate(63.623047 0)"/>
       <use xlink:href="#DejaVuSans-30" transform="translate(127.246094 0)"/>
      </g>
     </g>
    </g>
    <g id="ytick_6">
     <g id="line2d_29">
      <path d="M 90 116.68349 
L 648 116.68349 
" clip-path="url(#p32f32f77ee)" style="fill: none; stroke: #b0b0b0; stroke-width: 0.8; stroke-linecap: square"/>
     </g>
     <g id="line2d_30">
      <g>
       <use xlink:href="#m1fc10c04b0" x="90" y="116.68349" style="stroke: #000000; stroke-width: 0.8"/>
      </g>
     </g>
     <g id="text_16">
      <!-- 250 -->
      <g transform="translate(63.9125 120.482709) scale(0.1 -0.1)">
       <use xlink:href="#DejaVuSans-32"/>
       <use xlink:href="#DejaVuSans-35" transform="translate(63.623047 0)"/>
       <use xlink:href="#DejaVuSans-30" transform="translate(127.246094 0)"/>
      </g>
     </g>
    </g>
    <g id="ytick_7">
     <g id="line2d_31">
      <path d="M 90 65.945235 
L 648 65.945235 
" clip-path="url(#p32f32f77ee)" style="fill: none; stroke: #b0b0b0; stroke-width: 0.8; stroke-linecap: square"/>
     </g>
     <g id="line2d_32">
      <g>
       <use xlink:href="#m1fc10c04b0" x="90" y="65.945235" style="stroke: #000000; stroke-width: 0.8"/>
      </g>
     </g>
     <g id="text_17">
      <!-- 300 -->
      <g transform="translate(63.9125 69.744454) scale(0.1 -0.1)">
       <defs>
        <path id="DejaVuSans-33" d="M 2597 2516 
Q 3050 2419 3304 2112 
Q 3559 1806 3559 1356 
Q 3559 666 3084 287 
Q 2609 -91 1734 -91 
Q 1441 -91 1130 -33 
Q 819 25 488 141 
L 488 750 
Q 750 597 1062 519 
Q 1375 441 1716 441 
Q 2309 441 2620 675 
Q 2931 909 2931 1356 
Q 2931 1769 2642 2001 
Q 2353 2234 1838 2234 
L 1294 2234 
L 1294 2753 
L 1863 2753 
Q 2328 2753 2575 2939 
Q 2822 3125 2822 3475 
Q 2822 3834 2567 4026 
Q 2313 4219 1838 4219 
Q 1578 4219 1281 4162 
Q 984 4106 628 3988 
L 628 4550 
Q 988 4650 1302 4700 
Q 1616 4750 1894 4750 
Q 2613 4750 3031 4423 
Q 3450 4097 3450 3541 
Q 3450 3153 3228 2886 
Q 3006 2619 2597 2516 
z
" transform="scale(0.015625)"/>
       </defs>
       <use xlink:href="#DejaVuSans-33"/>
       <use xlink:href="#DejaVuSans-30" transform="translate(63.623047 0)"/>
       <use xlink:href="#DejaVuSans-30" transform="translate(127.246094 0)"/>
      </g>
     </g>
    </g>
    <g id="text_18">
     <!-- Votes -->
     <g transform="translate(57.832812 231.893594) rotate(-90) scale(0.1 -0.1)">
      <defs>
       <path id="DejaVuSans-56" d="M 1831 0 
L 50 4666 
L 709 4666 
L 2188 738 
L 3669 4666 
L 4325 4666 
L 2547 0 
L 1831 0 
z
" transform="scale(0.015625)"/>
       <path id="DejaVuSans-6f" d="M 1959 3097 
Q 1497 3097 1228 2736 
Q 959 2375 959 1747 
Q 959 1119 1226 758 
Q 1494 397 1959 397 
Q 2419 397 2687 759 
Q 2956 1122 2956 1747 
Q 2956 2369 2687 2733 
Q 2419 3097 1959 3097 
z
M 1959 3584 
Q 2709 3584 3137 3096 
Q 3566 2609 3566 1747 
Q 3566 888 3137 398 
Q 2709 -91 1959 -91 
Q 1206 -91 779 398 
Q 353 888 353 1747 
Q 353 2609 779 3096 
Q 1206 3584 1959 3584 
z
" transform="scale(0.015625)"/>
       <path id="DejaVuSans-73" d="M 2834 3397 
L 2834 2853 
Q 2591 2978 2328 3040 
Q 2066 3103 1784 3103 
Q 1356 3103 1142 2972 
Q 928 2841 928 2578 
Q 928 2378 1081 2264 
Q 1234 2150 1697 2047 
L 1894 2003 
Q 2506 1872 2764 1633 
Q 3022 1394 3022 966 
Q 3022 478 2636 193 
Q 2250 -91 1575 -91 
Q 1294 -91 989 -36 
Q 684 19 347 128 
L 347 722 
Q 666 556 975 473 
Q 1284 391 1588 391 
Q 1994 391 2212 530 
Q 2431 669 2431 922 
Q 2431 1156 2273 1281 
Q 2116 1406 1581 1522 
L 1381 1569 
Q 847 1681 609 1914 
Q 372 2147 372 2553 
Q 372 3047 722 3315 
Q 1072 3584 1716 3584 
Q 2034 3584 2315 3537 
Q 2597 3491 2834 3397 
z
" transform="scale(0.015625)"/>
      </defs>
      <use xlink:href="#DejaVuSans-56"/>
      <use xlink:href="#DejaVuSans-6f" transform="translate(60.658203 0)"/>
      <use xlink:href="#DejaVuSans-74" transform="translate(121.839844 0)"/>
      <use xlink:href="#DejaVuSans-65" transform="translate(161.048828 0)"/>
      <use xlink:href="#DejaVuSans-73" transform="translate(222.572266 0)"/>
     </g>
    </g>
   </g>
   <g id="line2d_33">
    <path d="M 115.363636 352.108993 
L 125.213592 352.108993 
L 126.198588 351.094228 
L 136.048544 351.094228 
L 137.033539 349.064698 
L 145.8985 349.064698 
L 146.883495 348.049933 
L 151.808473 348.049933 
L 152.793469 347.035168 
L 156.733451 347.035168 
L 157.718447 346.020403 
L 160.673433 346.020403 
L 161.658429 345.005638 
L 175.448367 345.005638 
L 176.433363 343.990872 
L 187.268314 343.990872 
L 189.238305 341.961342 
L 191.208297 341.961342 
L 192.193292 340.946577 
L 201.058252 340.946577 
L 203.028244 338.917047 
L 214.848191 338.917047 
L 215.833186 337.902282 
L 218.788173 337.902282 
L 219.773169 336.887517 
L 220.758164 336.887517 
L 221.74316 335.872752 
L 248.338041 335.872752 
L 249.323036 334.857987 
L 261.142983 334.857987 
L 262.127979 333.843221 
L 269.022948 333.843221 
L 270.007944 332.828456 
L 270.992939 330.798926 
L 271.977935 330.798926 
L 273.947926 328.769396 
L 289.707855 328.769396 
L 290.692851 327.754631 
L 296.602824 327.754631 
L 297.58782 326.739866 
L 301.527802 326.739866 
L 302.512798 325.725101 
L 312.362754 325.725101 
L 313.347749 324.710336 
L 315.317741 324.710336 
L 316.302736 323.69557 
L 319.257723 323.69557 
L 320.242718 322.680805 
L 328.122683 322.680805 
L 329.107679 321.66604 
L 330.092674 321.66604 
L 331.07767 320.651275 
L 340.927626 320.651275 
L 341.912621 319.63651 
L 348.80759 319.63651 
L 349.792586 318.621745 
L 350.777582 318.621745 
L 352.747573 316.592215 
L 374.417476 316.592215 
L 375.402471 315.57745 
L 391.162401 315.57745 
L 392.147396 314.562685 
L 393.132392 314.562685 
L 394.117387 313.547919 
L 402.982348 313.547919 
L 403.967343 312.533154 
L 404.952339 312.533154 
L 405.937335 311.518389 
L 410.862312 311.518389 
L 411.847308 310.503624 
L 414.802295 310.503624 
L 416.772286 308.474094 
L 417.757282 308.474094 
L 418.742277 307.459329 
L 420.712268 307.459329 
L 421.697264 306.444564 
L 423.667255 306.444564 
L 424.652251 305.429799 
L 426.622242 305.429799 
L 427.607237 304.415034 
L 451.247132 304.415034 
L 452.232127 303.400268 
L 462.082083 303.400268 
L 463.067079 302.385503 
L 468.977052 302.385503 
L 469.962048 301.370738 
L 470.947043 301.370738 
L 471.932039 300.355973 
L 472.917034 300.355973 
L 476.857017 296.296913 
L 478.827008 296.296913 
L 479.812004 294.267383 
L 487.691968 294.267383 
L 489.661959 292.237852 
L 491.631951 292.237852 
L 492.616946 291.223087 
L 496.556929 291.223087 
L 497.541924 290.208322 
L 504.436893 290.208322 
L 505.421889 289.193557 
L 507.39188 289.193557 
L 508.376876 288.178792 
L 514.286849 288.178792 
L 516.25684 286.149262 
L 523.151809 286.149262 
L 524.136805 285.134497 
L 527.091792 285.134497 
L 528.076787 284.119732 
L 530.046778 284.119732 
L 531.031774 282.090201 
L 534.971756 282.090201 
L 535.956752 280.060671 
L 536.941748 279.045906 
L 540.88173 279.045906 
L 541.866726 277.016376 
L 548.761695 277.016376 
L 549.74669 276.001611 
L 553.686673 276.001611 
L 554.671668 274.986846 
L 557.626655 274.986846 
L 558.61165 273.972081 
L 559.596646 271.94255 
L 561.566637 271.94255 
L 562.551633 270.927785 
L 578.311562 270.927785 
L 580.281553 268.898255 
L 594.071492 268.898255 
L 595.056487 267.88349 
L 600.966461 267.88349 
L 601.951456 266.868725 
L 614.756399 266.868725 
L 615.741395 265.85396 
L 622.636364 265.85396 
L 622.636364 265.85396 
" clip-path="url(#p32f32f77ee)" style="fill: none; stroke: #1f77b4; stroke-width: 1.5; stroke-linecap: square"/>
   </g>
   <g id="line2d_34">
    <path d="M 115.363636 287.164027 
L 116.348632 286.149262 
L 119.303619 286.149262 
L 120.288614 285.134497 
L 121.27361 285.134497 
L 122.258605 284.119732 
L 123.243601 284.119732 
L 125.213592 282.090201 
L 126.198588 280.060671 
L 127.183583 280.060671 
L 129.153575 278.031141 
L 130.13857 278.031141 
L 131.123566 273.972081 
L 132.108561 271.94255 
L 133.093557 267.88349 
L 134.078553 264.839195 
L 137.033539 264.839195 
L 138.018535 261.794899 
L 139.00353 259.765369 
L 140.973522 257.735839 
L 141.958517 255.706309 
L 143.928508 253.676779 
L 144.913504 251.647248 
L 147.868491 251.647248 
L 148.853486 246.573423 
L 149.838482 244.543893 
L 150.823477 243.529128 
L 151.808473 241.499597 
L 152.793469 240.484832 
L 153.778464 240.484832 
L 154.76346 237.440537 
L 155.748455 237.440537 
L 156.733451 235.411007 
L 157.718447 234.396242 
L 158.703442 234.396242 
L 159.688438 233.381477 
L 161.658429 233.381477 
L 162.643425 232.366711 
L 164.613416 232.366711 
L 165.598411 230.337181 
L 166.583407 230.337181 
L 167.568402 229.322416 
L 171.508385 229.322416 
L 172.49338 228.307651 
L 175.448367 228.307651 
L 176.433363 227.292886 
L 177.418358 227.292886 
L 178.403354 225.263356 
L 179.38835 225.263356 
L 180.373345 223.233826 
L 181.358341 222.21906 
L 184.313327 222.21906 
L 185.298323 220.18953 
L 186.283319 219.174765 
L 187.268314 216.13047 
L 189.238305 214.10094 
L 197.11827 214.10094 
L 198.103266 211.056644 
L 199.088261 211.056644 
L 201.058252 209.027114 
L 202.043248 209.027114 
L 204.998235 205.982819 
L 206.968226 205.982819 
L 207.953222 204.968054 
L 209.923213 204.968054 
L 212.878199 201.923758 
L 214.848191 201.923758 
L 215.833186 200.908993 
L 220.758164 200.908993 
L 221.74316 199.894228 
L 223.713151 199.894228 
L 224.698147 198.879463 
L 236.518094 198.879463 
L 237.503089 196.849933 
L 239.47308 196.849933 
L 241.443071 194.820403 
L 242.428067 194.820403 
L 243.413063 193.805638 
L 249.323036 193.805638 
L 252.278023 190.761342 
L 253.263019 190.761342 
L 254.248014 189.746577 
L 255.23301 187.717047 
L 256.218005 187.717047 
L 257.203001 186.702282 
L 258.187996 186.702282 
L 262.127979 182.643221 
L 264.09797 182.643221 
L 265.082966 180.613691 
L 268.037952 180.613691 
L 269.022948 179.598926 
L 271.977935 179.598926 
L 272.96293 178.584161 
L 273.947926 178.584161 
L 274.932921 175.539866 
L 277.887908 175.539866 
L 278.872904 174.525101 
L 279.857899 172.49557 
L 281.827891 172.49557 
L 282.812886 171.480805 
L 284.782877 171.480805 
L 285.767873 170.46604 
L 286.752868 170.46604 
L 291.677846 165.392215 
L 293.647838 165.392215 
L 296.602824 162.347919 
L 299.557811 162.347919 
L 300.542807 160.318389 
L 301.527802 160.318389 
L 302.512798 159.303624 
L 305.467785 159.303624 
L 306.45278 158.288859 
L 315.317741 158.288859 
L 316.302736 157.274094 
L 323.197705 157.274094 
L 324.182701 156.259329 
L 326.152692 156.259329 
L 328.122683 154.229799 
L 333.047661 154.229799 
L 334.032657 153.215034 
L 338.957635 153.215034 
L 341.912621 150.170738 
L 354.717564 150.170738 
L 355.70256 148.141208 
L 356.687555 147.126443 
L 380.327449 147.126443 
L 381.312445 146.111678 
L 387.222418 146.111678 
L 389.19241 144.082148 
L 391.162401 144.082148 
L 392.147396 143.067383 
L 393.132392 143.067383 
L 395.102383 141.037852 
L 396.087379 141.037852 
L 397.072374 140.023087 
L 398.05737 140.023087 
L 400.027361 135.964027 
L 401.012357 134.949262 
L 405.937335 134.949262 
L 406.92233 131.904966 
L 407.907326 129.875436 
L 409.877317 129.875436 
L 411.847308 127.845906 
L 416.772286 127.845906 
L 418.742277 125.816376 
L 420.712268 125.816376 
L 421.697264 124.801611 
L 423.667255 124.801611 
L 424.652251 123.786846 
L 425.637246 123.786846 
L 426.622242 122.772081 
L 427.607237 122.772081 
L 428.592233 121.757315 
L 429.577229 121.757315 
L 430.562224 120.74255 
L 432.532215 120.74255 
L 433.517211 118.71302 
L 438.442189 118.71302 
L 440.41218 116.68349 
L 450.262136 116.68349 
L 451.247132 115.668725 
L 452.232127 115.668725 
L 453.217123 114.65396 
L 454.202118 114.65396 
L 457.157105 111.609664 
L 459.127096 111.609664 
L 460.112092 110.594899 
L 479.812004 110.594899 
L 481.781995 108.565369 
L 485.721977 108.565369 
L 486.706973 107.550604 
L 487.691968 107.550604 
L 488.676964 106.535839 
L 489.661959 106.535839 
L 490.646955 105.521074 
L 512.316858 105.521074 
L 513.301853 104.506309 
L 533.001765 104.506309 
L 533.986761 102.476779 
L 540.88173 102.476779 
L 542.851721 100.447248 
L 544.821712 100.447248 
L 545.806708 99.432483 
L 547.776699 99.432483 
L 549.74669 97.402953 
L 551.716681 97.402953 
L 552.701677 95.373423 
L 560.581642 95.373423 
L 561.566637 94.358658 
L 566.491615 94.358658 
L 567.476611 93.343893 
L 573.386584 93.343893 
L 574.37158 92.329128 
L 581.266549 92.329128 
L 583.23654 90.299597 
L 584.221536 90.299597 
L 585.206531 89.284832 
L 591.116505 89.284832 
L 592.1015 88.270067 
L 596.041483 88.270067 
L 597.026478 87.255302 
L 598.011474 87.255302 
L 598.99647 86.240537 
L 613.771403 86.240537 
L 616.72639 83.196242 
L 622.636364 83.196242 
L 622.636364 83.196242 
" clip-path="url(#p32f32f77ee)" style="fill: none; stroke: #ff7f0e; stroke-width: 1.5; stroke-linecap: square"/>
   </g>
   <g id="line2d_35">
    <path d="M 115.363636 338.917047 
L 119.303619 338.917047 
L 120.288614 336.887517 
L 122.258605 336.887517 
L 123.243601 335.872752 
L 124.228597 333.843221 
L 125.213592 332.828456 
L 126.198588 329.784161 
L 127.183583 327.754631 
L 128.168579 326.739866 
L 129.153575 326.739866 
L 130.13857 324.710336 
L 131.123566 321.66604 
L 135.063548 321.66604 
L 136.048544 320.651275 
L 137.033539 320.651275 
L 138.018535 318.621745 
L 140.973522 318.621745 
L 142.943513 316.592215 
L 146.883495 316.592215 
L 147.868491 315.57745 
L 151.808473 315.57745 
L 154.76346 312.533154 
L 159.688438 312.533154 
L 160.673433 311.518389 
L 163.62842 311.518389 
L 164.613416 310.503624 
L 166.583407 310.503624 
L 167.568402 308.474094 
L 175.448367 308.474094 
L 176.433363 307.459329 
L 177.418358 305.429799 
L 178.403354 304.415034 
L 179.38835 304.415034 
L 180.373345 303.400268 
L 182.343336 303.400268 
L 183.328332 302.385503 
L 185.298323 302.385503 
L 186.283319 301.370738 
L 192.193292 301.370738 
L 193.178288 300.355973 
L 194.163283 300.355973 
L 195.148279 299.341208 
L 196.133274 299.341208 
L 197.11827 298.326443 
L 200.073257 298.326443 
L 201.058252 297.311678 
L 202.043248 295.282148 
L 206.968226 295.282148 
L 209.923213 292.237852 
L 212.878199 292.237852 
L 213.863195 291.223087 
L 217.803177 291.223087 
L 218.788173 290.208322 
L 219.773169 290.208322 
L 220.758164 289.193557 
L 222.728155 289.193557 
L 223.713151 288.178792 
L 226.668138 288.178792 
L 228.638129 286.149262 
L 229.623124 286.149262 
L 230.60812 285.134497 
L 238.488085 285.134497 
L 239.47308 283.104966 
L 240.458076 282.090201 
L 248.338041 282.090201 
L 249.323036 281.075436 
L 252.278023 281.075436 
L 253.263019 280.060671 
L 256.218005 280.060671 
L 257.203001 279.045906 
L 267.052957 279.045906 
L 268.037952 278.031141 
L 271.977935 278.031141 
L 272.96293 277.016376 
L 278.872904 277.016376 
L 279.857899 276.001611 
L 281.827891 276.001611 
L 282.812886 274.986846 
L 286.752868 274.986846 
L 288.72286 272.957315 
L 307.437776 272.957315 
L 308.422771 271.94255 
L 309.407767 271.94255 
L 310.392763 270.927785 
L 313.347749 270.927785 
L 314.332745 269.91302 
L 319.257723 269.91302 
L 320.242718 268.898255 
L 322.21271 268.898255 
L 323.197705 267.88349 
L 329.107679 267.88349 
L 330.092674 268.898255 
L 331.07767 267.88349 
L 337.972639 267.88349 
L 338.957635 266.868725 
L 346.837599 266.868725 
L 347.822595 265.85396 
L 349.792586 265.85396 
L 350.777582 264.839195 
L 351.762577 264.839195 
L 352.747573 263.82443 
L 359.642542 263.82443 
L 360.627538 262.809664 
L 366.537511 262.809664 
L 367.522507 261.794899 
L 382.29744 261.794899 
L 383.282436 260.780134 
L 404.952339 260.780134 
L 405.937335 259.765369 
L 415.78729 259.765369 
L 416.772286 258.750604 
L 432.532215 258.750604 
L 434.502207 256.721074 
L 452.232127 256.721074 
L 453.217123 255.706309 
L 454.202118 253.676779 
L 473.90203 253.676779 
L 474.887026 252.662013 
L 476.857017 252.662013 
L 477.842012 251.647248 
L 483.751986 251.647248 
L 484.736981 250.632483 
L 487.691968 250.632483 
L 489.661959 248.602953 
L 491.631951 248.602953 
L 492.616946 247.588188 
L 496.556929 247.588188 
L 497.541924 245.558658 
L 500.496911 245.558658 
L 501.481906 244.543893 
L 502.466902 244.543893 
L 504.436893 242.514362 
L 517.241836 242.514362 
L 518.226831 241.499597 
L 530.046778 241.499597 
L 531.031774 239.470067 
L 538.911739 239.470067 
L 540.88173 237.440537 
L 550.731686 237.440537 
L 553.686673 234.396242 
L 556.641659 234.396242 
L 557.626655 233.381477 
L 559.596646 233.381477 
L 560.581642 232.366711 
L 569.446602 232.366711 
L 570.431598 231.351946 
L 579.296558 231.351946 
L 580.281553 230.337181 
L 587.176523 230.337181 
L 589.146514 228.307651 
L 596.041483 228.307651 
L 597.026478 227.292886 
L 606.876434 227.292886 
L 607.86143 226.278121 
L 608.846425 226.278121 
L 609.831421 225.263356 
L 621.651368 225.263356 
L 622.636364 224.248591 
L 622.636364 224.248591 
" clip-path="url(#p32f32f77ee)" style="fill: none; stroke: #2ca02c; stroke-width: 1.5; stroke-linecap: square"/>
   </g>
   <g id="line2d_36">
    <path d="M 115.363636 369.36 
L 358.657546 369.36 
L 359.642542 368.345235 
L 568.461606 368.345235 
L 569.446602 367.33047 
L 622.636364 367.33047 
L 622.636364 367.33047 
" clip-path="url(#p32f32f77ee)" style="fill: none; stroke: #d62728; stroke-width: 1.5; stroke-linecap: square"/>
   </g>
   <g id="line2d_37">
    <path d="M 115.363636 347.035168 
L 118.318623 347.035168 
L 119.303619 346.020403 
L 125.213592 346.020403 
L 126.198588 345.005638 
L 132.108561 345.005638 
L 133.093557 343.990872 
L 154.76346 343.990872 
L 155.748455 342.976107 
L 191.208297 342.976107 
L 193.178288 340.946577 
L 201.058252 340.946577 
L 202.043248 339.931812 
L 205.98323 339.931812 
L 206.968226 338.917047 
L 208.938217 338.917047 
L 209.923213 337.902282 
L 235.533098 337.902282 
L 236.518094 336.887517 
L 276.902913 336.887517 
L 277.887908 335.872752 
L 405.937335 335.872752 
L 406.92233 334.857987 
L 407.907326 334.857987 
L 408.892321 333.843221 
L 470.947043 333.843221 
L 471.932039 332.828456 
L 622.636364 332.828456 
L 622.636364 332.828456 
" clip-path="url(#p32f32f77ee)" style="fill: none; stroke: #9467bd; stroke-width: 1.5; stroke-linecap: square"/>
   </g>
   <g id="line2d_38">
    <path d="M 115.363636 355.153289 
L 116.348632 355.153289 
L 117.333628 354.138523 
L 131.123566 354.138523 
L 132.108561 353.123758 
L 143.928508 353.123758 
L 144.913504 352.108993 
L 159.688438 352.108993 
L 161.658429 350.079463 
L 172.49338 350.079463 
L 173.478376 349.064698 
L 203.028244 349.064698 
L 204.013239 348.049933 
L 212.878199 348.049933 
L 213.863195 347.035168 
L 230.60812 347.035168 
L 231.593116 346.020403 
L 247.353045 346.020403 
L 248.338041 345.005638 
L 252.278023 345.005638 
L 253.263019 343.990872 
L 262.127979 343.990872 
L 263.112974 342.976107 
L 286.752868 342.976107 
L 287.737864 341.961342 
L 293.647838 341.961342 
L 294.632833 340.946577 
L 300.542807 340.946577 
L 301.527802 339.931812 
L 305.467785 339.931812 
L 306.45278 338.917047 
L 342.897617 338.917047 
L 343.882613 337.902282 
L 372.447485 337.902282 
L 373.43248 336.887517 
L 430.562224 336.887517 
L 431.54722 335.872752 
L 459.127096 335.872752 
L 460.112092 334.857987 
L 472.917034 334.857987 
L 473.90203 333.843221 
L 622.636364 333.843221 
L 622.636364 333.843221 
" clip-path="url(#p32f32f77ee)" style="fill: none; stroke: #8c564b; stroke-width: 1.5; stroke-linecap: square"/>
   </g>
   <g id="line2d_39">
    <path d="M 115.363636 280.060671 
L 119.303619 280.060671 
L 120.288614 279.045906 
L 124.228597 279.045906 
L 126.198588 277.016376 
L 127.183583 277.016376 
L 128.168579 276.001611 
L 129.153575 276.001611 
L 130.13857 274.986846 
L 132.108561 274.986846 
L 133.093557 273.972081 
L 136.048544 273.972081 
L 137.033539 272.957315 
L 139.00353 272.957315 
L 139.988526 271.94255 
L 140.973522 271.94255 
L 141.958517 270.927785 
L 143.928508 270.927785 
L 145.8985 268.898255 
L 149.838482 268.898255 
L 150.823477 267.88349 
L 153.778464 267.88349 
L 155.748455 265.85396 
L 157.718447 265.85396 
L 158.703442 264.839195 
L 160.673433 264.839195 
L 161.658429 263.82443 
L 162.643425 261.794899 
L 163.62842 258.750604 
L 165.598411 258.750604 
L 166.583407 257.735839 
L 171.508385 257.735839 
L 173.478376 255.706309 
L 174.463372 253.676779 
L 175.448367 252.662013 
L 176.433363 252.662013 
L 177.418358 250.632483 
L 181.358341 250.632483 
L 182.343336 249.617718 
L 183.328332 249.617718 
L 185.298323 247.588188 
L 186.283319 247.588188 
L 187.268314 246.573423 
L 188.25331 246.573423 
L 190.223301 244.543893 
L 192.193292 244.543893 
L 193.178288 242.514362 
L 197.11827 242.514362 
L 199.088261 240.484832 
L 201.058252 240.484832 
L 202.043248 239.470067 
L 203.028244 237.440537 
L 205.98323 237.440537 
L 206.968226 236.425772 
L 207.953222 236.425772 
L 208.938217 234.396242 
L 209.923213 234.396242 
L 210.908208 233.381477 
L 211.893204 233.381477 
L 212.878199 232.366711 
L 216.818182 232.366711 
L 218.788173 230.337181 
L 219.773169 230.337181 
L 220.758164 228.307651 
L 221.74316 228.307651 
L 222.728155 227.292886 
L 223.713151 227.292886 
L 224.698147 226.278121 
L 227.653133 226.278121 
L 228.638129 225.263356 
L 229.623124 225.263356 
L 233.563107 221.204295 
L 234.548102 219.174765 
L 236.518094 219.174765 
L 238.488085 215.115705 
L 240.458076 215.115705 
L 242.428067 213.086174 
L 243.413063 213.086174 
L 244.398058 211.056644 
L 245.383054 211.056644 
L 246.368049 210.041879 
L 247.353045 210.041879 
L 248.338041 209.027114 
L 250.308032 209.027114 
L 251.293027 208.012349 
L 252.278023 208.012349 
L 253.263019 206.997584 
L 257.203001 206.997584 
L 258.187996 201.923758 
L 259.172992 201.923758 
L 260.157988 200.908993 
L 263.112974 200.908993 
L 264.09797 199.894228 
L 272.96293 199.894228 
L 273.947926 197.864698 
L 277.887908 197.864698 
L 278.872904 196.849933 
L 288.72286 196.849933 
L 289.707855 194.820403 
L 290.692851 193.805638 
L 295.617829 193.805638 
L 296.602824 192.790872 
L 303.497793 192.790872 
L 304.482789 191.776107 
L 305.467785 191.776107 
L 306.45278 190.761342 
L 312.362754 190.761342 
L 314.332745 188.731812 
L 321.227714 188.731812 
L 323.197705 186.702282 
L 324.182701 186.702282 
L 325.167696 185.687517 
L 331.07767 185.687517 
L 332.062665 184.672752 
L 335.017652 184.672752 
L 336.002648 183.657987 
L 336.987643 181.628456 
L 339.94263 181.628456 
L 340.927626 180.613691 
L 341.912621 180.613691 
L 343.882613 178.584161 
L 347.822595 178.584161 
L 348.80759 177.569396 
L 352.747573 177.569396 
L 353.732568 176.554631 
L 356.687555 176.554631 
L 357.672551 175.539866 
L 365.552515 175.539866 
L 367.522507 173.510336 
L 372.447485 173.510336 
L 373.43248 172.49557 
L 377.372462 172.49557 
L 382.29744 167.421745 
L 384.267432 167.421745 
L 385.252427 166.40698 
L 386.237423 166.40698 
L 387.222418 164.37745 
L 389.19241 162.347919 
L 391.162401 158.288859 
L 393.132392 158.288859 
L 395.102383 154.229799 
L 397.072374 154.229799 
L 398.05737 152.200268 
L 400.027361 150.170738 
L 402.982348 150.170738 
L 403.967343 149.155973 
L 404.952339 149.155973 
L 406.92233 147.126443 
L 410.862312 147.126443 
L 411.847308 146.111678 
L 413.817299 146.111678 
L 414.802295 145.096913 
L 419.727273 145.096913 
L 420.712268 143.067383 
L 421.697264 142.052617 
L 422.682259 142.052617 
L 423.667255 141.037852 
L 425.637246 141.037852 
L 426.622242 140.023087 
L 428.592233 140.023087 
L 429.577229 137.993557 
L 431.54722 137.993557 
L 432.532215 136.978792 
L 433.517211 136.978792 
L 434.502207 135.964027 
L 439.427184 135.964027 
L 440.41218 134.949262 
L 445.337158 134.949262 
L 446.322154 133.934497 
L 447.307149 133.934497 
L 448.292145 131.904966 
L 450.262136 129.875436 
L 451.247132 126.831141 
L 452.232127 125.816376 
L 453.217123 125.816376 
L 454.202118 124.801611 
L 455.187114 124.801611 
L 456.172109 123.786846 
L 460.112092 123.786846 
L 461.097087 122.772081 
L 463.067079 122.772081 
L 464.052074 121.757315 
L 466.022065 121.757315 
L 467.992056 119.727785 
L 470.947043 119.727785 
L 471.932039 118.71302 
L 476.857017 118.71302 
L 477.842012 116.68349 
L 482.76699 116.68349 
L 483.751986 115.668725 
L 486.706973 115.668725 
L 487.691968 113.639195 
L 491.631951 113.639195 
L 492.616946 112.62443 
L 501.481906 112.62443 
L 502.466902 111.609664 
L 504.436893 111.609664 
L 505.421889 110.594899 
L 512.316858 110.594899 
L 513.301853 109.580134 
L 514.286849 109.580134 
L 515.271845 108.565369 
L 516.25684 108.565369 
L 517.241836 107.550604 
L 523.151809 107.550604 
L 525.121801 105.521074 
L 538.911739 105.521074 
L 539.896734 104.506309 
L 540.88173 104.506309 
L 542.851721 102.476779 
L 543.836717 102.476779 
L 544.821712 101.462013 
L 556.641659 101.462013 
L 557.626655 100.447248 
L 558.61165 98.417718 
L 560.581642 98.417718 
L 561.566637 97.402953 
L 566.491615 97.402953 
L 567.476611 96.388188 
L 568.461606 96.388188 
L 570.431598 94.358658 
L 575.356575 94.358658 
L 576.341571 93.343893 
L 579.296558 93.343893 
L 580.281553 92.329128 
L 582.251545 92.329128 
L 583.23654 91.314362 
L 585.206531 91.314362 
L 586.191527 90.299597 
L 587.176523 90.299597 
L 588.161518 88.270067 
L 595.056487 88.270067 
L 596.041483 85.225772 
L 597.026478 83.196242 
L 598.011474 83.196242 
L 601.951456 79.137181 
L 602.936452 77.107651 
L 604.906443 77.107651 
L 605.891439 75.078121 
L 613.771403 75.078121 
L 615.741395 73.048591 
L 616.72639 71.01906 
L 617.711386 70.004295 
L 620.666372 70.004295 
L 621.651368 67.974765 
L 622.636364 66.96 
L 622.636364 66.96 
" clip-path="url(#p32f32f77ee)" style="fill: none; stroke: #e377c2; stroke-width: 1.5; stroke-linecap: square"/>
   </g>
   <g id="line2d_40">
    <path d="M 115.363636 342.976107 
L 116.348632 342.976107 
L 118.318623 340.946577 
L 123.243601 340.946577 
L 124.228597 339.931812 
L 125.213592 339.931812 
L 127.183583 337.902282 
L 129.153575 337.902282 
L 130.13857 336.887517 
L 133.093557 336.887517 
L 134.078553 335.872752 
L 135.063548 335.872752 
L 136.048544 334.857987 
L 137.033539 334.857987 
L 139.00353 332.828456 
L 141.958517 332.828456 
L 142.943513 331.813691 
L 144.913504 331.813691 
L 146.883495 329.784161 
L 148.853486 329.784161 
L 150.823477 327.754631 
L 151.808473 327.754631 
L 152.793469 326.739866 
L 153.778464 323.69557 
L 157.718447 323.69557 
L 161.658429 319.63651 
L 162.643425 319.63651 
L 164.613416 317.60698 
L 165.598411 317.60698 
L 166.583407 316.592215 
L 167.568402 316.592215 
L 168.553398 315.57745 
L 177.418358 315.57745 
L 178.403354 314.562685 
L 188.25331 314.562685 
L 190.223301 312.533154 
L 193.178288 312.533154 
L 194.163283 311.518389 
L 196.133274 311.518389 
L 198.103266 309.488859 
L 200.073257 309.488859 
L 201.058252 307.459329 
L 204.013239 307.459329 
L 204.998235 305.429799 
L 205.98323 304.415034 
L 210.908208 304.415034 
L 211.893204 303.400268 
L 212.878199 303.400268 
L 214.848191 301.370738 
L 219.773169 301.370738 
L 220.758164 300.355973 
L 221.74316 300.355973 
L 222.728155 299.341208 
L 228.638129 299.341208 
L 229.623124 298.326443 
L 232.578111 298.326443 
L 233.563107 297.311678 
L 234.548102 297.311678 
L 235.533098 294.267383 
L 236.518094 294.267383 
L 237.503089 292.237852 
L 238.488085 291.223087 
L 239.47308 291.223087 
L 241.443071 289.193557 
L 243.413063 289.193557 
L 244.398058 288.178792 
L 246.368049 288.178792 
L 247.353045 287.164027 
L 248.338041 287.164027 
L 249.323036 285.134497 
L 250.308032 285.134497 
L 251.293027 284.119732 
L 253.263019 284.119732 
L 255.23301 282.090201 
L 256.218005 282.090201 
L 257.203001 280.060671 
L 258.187996 279.045906 
L 265.082966 279.045906 
L 266.067961 277.016376 
L 269.022948 277.016376 
L 270.007944 276.001611 
L 270.992939 276.001611 
L 271.977935 274.986846 
L 274.932921 274.986846 
L 275.917917 273.972081 
L 280.842895 273.972081 
L 281.827891 272.957315 
L 283.797882 272.957315 
L 284.782877 271.94255 
L 289.707855 271.94255 
L 290.692851 270.927785 
L 299.557811 270.927785 
L 301.527802 268.898255 
L 302.512798 268.898255 
L 303.497793 267.88349 
L 304.482789 267.88349 
L 305.467785 266.868725 
L 306.45278 266.868725 
L 307.437776 265.85396 
L 309.407767 265.85396 
L 310.392763 264.839195 
L 311.377758 264.839195 
L 313.347749 262.809664 
L 316.302736 262.809664 
L 317.287732 261.794899 
L 320.242718 261.794899 
L 321.227714 260.780134 
L 328.122683 260.780134 
L 329.107679 259.765369 
L 330.092674 259.765369 
L 331.07767 258.750604 
L 335.017652 258.750604 
L 336.002648 256.721074 
L 341.912621 256.721074 
L 342.897617 255.706309 
L 343.882613 255.706309 
L 344.867608 253.676779 
L 349.792586 253.676779 
L 350.777582 252.662013 
L 356.687555 252.662013 
L 357.672551 251.647248 
L 370.477493 251.647248 
L 371.462489 250.632483 
L 386.237423 250.632483 
L 387.222418 249.617718 
L 392.147396 249.617718 
L 393.132392 248.602953 
L 394.117387 248.602953 
L 395.102383 247.588188 
L 396.087379 247.588188 
L 397.072374 245.558658 
L 398.05737 245.558658 
L 400.027361 243.529128 
L 406.92233 243.529128 
L 407.907326 242.514362 
L 408.892321 242.514362 
L 409.877317 241.499597 
L 410.862312 241.499597 
L 411.847308 240.484832 
L 416.772286 240.484832 
L 417.757282 239.470067 
L 426.622242 239.470067 
L 427.607237 238.455302 
L 432.532215 238.455302 
L 433.517211 237.440537 
L 438.442189 237.440537 
L 439.427184 236.425772 
L 441.397176 236.425772 
L 444.352162 233.381477 
L 446.322154 233.381477 
L 447.307149 231.351946 
L 452.232127 231.351946 
L 454.202118 229.322416 
L 456.172109 229.322416 
L 457.157105 228.307651 
L 458.142101 228.307651 
L 460.112092 226.278121 
L 467.007061 226.278121 
L 467.992056 225.263356 
L 469.962048 225.263356 
L 470.947043 224.248591 
L 478.827008 224.248591 
L 480.796999 222.21906 
L 483.751986 222.21906 
L 484.736981 221.204295 
L 485.721977 221.204295 
L 486.706973 218.16 
L 487.691968 217.145235 
L 491.631951 217.145235 
L 492.616946 215.115705 
L 495.571933 215.115705 
L 496.556929 214.10094 
L 506.406884 214.10094 
L 507.39188 213.086174 
L 517.241836 213.086174 
L 519.211827 211.056644 
L 526.106796 211.056644 
L 527.091792 210.041879 
L 543.836717 210.041879 
L 547.776699 205.982819 
L 551.716681 205.982819 
L 552.701677 204.968054 
L 560.581642 204.968054 
L 561.566637 203.953289 
L 564.521624 203.953289 
L 565.50662 202.938523 
L 566.491615 202.938523 
L 567.476611 201.923758 
L 573.386584 201.923758 
L 575.356575 199.894228 
L 577.326567 199.894228 
L 578.311562 198.879463 
L 583.23654 198.879463 
L 584.221536 197.864698 
L 585.206531 197.864698 
L 586.191527 195.835168 
L 597.026478 195.835168 
L 598.99647 193.805638 
L 601.951456 193.805638 
L 602.936452 192.790872 
L 607.86143 192.790872 
L 608.846425 191.776107 
L 615.741395 191.776107 
L 616.72639 190.761342 
L 622.636364 190.761342 
L 622.636364 190.761342 
" clip-path="url(#p32f32f77ee)" style="fill: none; stroke: #7f7f7f; stroke-width: 1.5; stroke-linecap: square"/>
   </g>
   <g id="line2d_41">
    <path d="M 115.363636 349.064698 
L 119.303619 349.064698 
L 120.288614 348.049933 
L 130.13857 348.049933 
L 131.123566 347.035168 
L 136.048544 347.035168 
L 137.033539 346.020403 
L 146.883495 346.020403 
L 147.868491 345.005638 
L 157.718447 345.005638 
L 158.703442 343.990872 
L 211.893204 343.990872 
L 212.878199 342.976107 
L 217.803177 342.976107 
L 218.788173 341.961342 
L 225.683142 341.961342 
L 226.668138 340.946577 
L 227.653133 340.946577 
L 228.638129 337.902282 
L 229.623124 336.887517 
L 231.593116 336.887517 
L 232.578111 335.872752 
L 242.428067 335.872752 
L 243.413063 334.857987 
L 252.278023 334.857987 
L 253.263019 333.843221 
L 264.09797 333.843221 
L 265.082966 332.828456 
L 276.902913 332.828456 
L 277.887908 331.813691 
L 282.812886 331.813691 
L 283.797882 330.798926 
L 315.317741 330.798926 
L 316.302736 329.784161 
L 318.272727 329.784161 
L 319.257723 328.769396 
L 327.137688 328.769396 
L 328.122683 327.754631 
L 355.70256 327.754631 
L 358.657546 324.710336 
L 387.222418 324.710336 
L 388.207414 323.69557 
L 389.19241 323.69557 
L 391.162401 321.66604 
L 393.132392 321.66604 
L 394.117387 320.651275 
L 444.352162 320.651275 
L 445.337158 319.63651 
L 502.466902 319.63651 
L 503.451898 318.621745 
L 544.821712 318.621745 
L 545.806708 317.60698 
L 550.731686 317.60698 
L 551.716681 316.592215 
L 565.50662 316.592215 
L 566.491615 315.57745 
L 586.191527 315.57745 
L 587.176523 314.562685 
L 622.636364 314.562685 
L 622.636364 314.562685 
" clip-path="url(#p32f32f77ee)" style="fill: none; stroke: #bcbd22; stroke-width: 1.5; stroke-linecap: square"/>
   </g>
   <g id="line2d_42">
    <path d="M 115.363636 367.33047 
L 164.613416 367.33047 
L 165.598411 366.315705 
L 227.653133 366.315705 
L 228.638129 365.30094 
L 329.107679 365.30094 
L 330.092674 364.286174 
L 331.07767 365.30094 
L 450.262136 365.30094 
L 451.247132 364.286174 
L 458.142101 364.286174 
L 459.127096 363.271409 
L 483.751986 363.271409 
L 484.736981 362.256644 
L 622.636364 362.256644 
L 622.636364 362.256644 
" clip-path="url(#p32f32f77ee)" style="fill: none; stroke: #17becf; stroke-width: 1.5; stroke-linecap: square"/>
   </g>
   <g id="line2d_43">
    <path d="M 115.363636 369.36 
L 116.348632 368.345235 
L 118.318623 368.345235 
L 119.303619 367.33047 
L 126.198588 367.33047 
L 127.183583 366.315705 
L 130.13857 366.315705 
L 131.123566 365.30094 
L 132.108561 365.30094 
L 134.078553 363.271409 
L 139.00353 363.271409 
L 140.973522 361.241879 
L 141.958517 361.241879 
L 142.943513 360.227114 
L 149.838482 360.227114 
L 150.823477 359.212349 
L 151.808473 357.182819 
L 153.778464 357.182819 
L 154.76346 356.168054 
L 155.748455 356.168054 
L 156.733451 355.153289 
L 157.718447 355.153289 
L 158.703442 354.138523 
L 159.688438 354.138523 
L 161.658429 352.108993 
L 167.568402 352.108993 
L 169.538394 350.079463 
L 172.49338 350.079463 
L 173.478376 349.064698 
L 174.463372 349.064698 
L 175.448367 347.035168 
L 178.403354 347.035168 
L 180.373345 342.976107 
L 186.283319 342.976107 
L 187.268314 340.946577 
L 188.25331 339.931812 
L 191.208297 339.931812 
L 192.193292 338.917047 
L 193.178288 336.887517 
L 195.148279 336.887517 
L 196.133274 335.872752 
L 209.923213 335.872752 
L 210.908208 333.843221 
L 217.803177 326.739866 
L 227.653133 326.739866 
L 230.60812 323.69557 
L 232.578111 323.69557 
L 233.563107 321.66604 
L 235.533098 321.66604 
L 236.518094 320.651275 
L 239.47308 320.651275 
L 240.458076 319.63651 
L 241.443071 319.63651 
L 242.428067 318.621745 
L 243.413063 318.621745 
L 245.383054 316.592215 
L 258.187996 316.592215 
L 260.157988 314.562685 
L 268.037952 314.562685 
L 269.022948 313.547919 
L 271.977935 313.547919 
L 273.947926 311.518389 
L 276.902913 311.518389 
L 277.887908 310.503624 
L 279.857899 310.503624 
L 280.842895 309.488859 
L 285.767873 309.488859 
L 286.752868 308.474094 
L 287.737864 308.474094 
L 288.72286 306.444564 
L 289.707855 306.444564 
L 290.692851 305.429799 
L 295.617829 305.429799 
L 296.602824 304.415034 
L 298.572816 304.415034 
L 299.557811 303.400268 
L 300.542807 303.400268 
L 302.512798 301.370738 
L 309.407767 301.370738 
L 310.392763 300.355973 
L 311.377758 300.355973 
L 312.362754 299.341208 
L 317.287732 299.341208 
L 318.272727 297.311678 
L 319.257723 296.296913 
L 324.182701 296.296913 
L 325.167696 295.282148 
L 329.107679 295.282148 
L 330.092674 293.252617 
L 334.032657 293.252617 
L 336.002648 291.223087 
L 338.957635 291.223087 
L 339.94263 290.208322 
L 351.762577 290.208322 
L 352.747573 288.178792 
L 353.732568 287.164027 
L 361.612533 287.164027 
L 362.597529 286.149262 
L 380.327449 286.149262 
L 381.312445 285.134497 
L 383.282436 285.134497 
L 384.267432 284.119732 
L 387.222418 284.119732 
L 388.207414 283.104966 
L 401.012357 283.104966 
L 401.997352 281.075436 
L 403.967343 281.075436 
L 404.952339 280.060671 
L 405.937335 280.060671 
L 406.92233 279.045906 
L 410.862312 279.045906 
L 411.847308 278.031141 
L 418.742277 278.031141 
L 419.727273 276.001611 
L 420.712268 276.001611 
L 421.697264 274.986846 
L 426.622242 274.986846 
L 427.607237 273.972081 
L 432.532215 273.972081 
L 434.502207 271.94255 
L 436.472198 271.94255 
L 437.457193 270.927785 
L 439.427184 270.927785 
L 440.41218 269.91302 
L 441.397176 269.91302 
L 442.382171 268.898255 
L 449.27714 268.898255 
L 450.262136 267.88349 
L 472.917034 267.88349 
L 473.90203 266.868725 
L 478.827008 266.868725 
L 479.812004 265.85396 
L 490.646955 265.85396 
L 491.631951 264.839195 
L 534.971756 264.839195 
L 535.956752 263.82443 
L 541.866726 263.82443 
L 542.851721 262.809664 
L 543.836717 262.809664 
L 544.821712 261.794899 
L 557.626655 261.794899 
L 558.61165 260.780134 
L 577.326567 260.780134 
L 578.311562 259.765369 
L 582.251545 259.765369 
L 583.23654 258.750604 
L 588.161518 258.750604 
L 589.146514 257.735839 
L 595.056487 257.735839 
L 596.041483 256.721074 
L 601.951456 256.721074 
L 602.936452 255.706309 
L 608.846425 255.706309 
L 609.831421 252.662013 
L 610.816417 251.647248 
L 617.711386 251.647248 
L 618.696381 250.632483 
L 622.636364 250.632483 
L 622.636364 250.632483 
" clip-path="url(#p32f32f77ee)" style="fill: none; stroke: #1f77b4; stroke-width: 1.5; stroke-linecap: square"/>
   </g>
   <g id="line2d_44">
    <path d="M 115.363636 331.813691 
L 122.258605 331.813691 
L 123.243601 330.798926 
L 126.198588 330.798926 
L 127.183583 329.784161 
L 131.123566 329.784161 
L 132.108561 328.769396 
L 135.063548 328.769396 
L 136.048544 327.754631 
L 137.033539 327.754631 
L 138.018535 326.739866 
L 140.973522 326.739866 
L 141.958517 325.725101 
L 143.928508 325.725101 
L 144.913504 324.710336 
L 145.8985 324.710336 
L 147.868491 322.680805 
L 153.778464 322.680805 
L 154.76346 321.66604 
L 155.748455 321.66604 
L 156.733451 320.651275 
L 157.718447 320.651275 
L 158.703442 318.621745 
L 159.688438 315.57745 
L 160.673433 314.562685 
L 164.613416 314.562685 
L 167.568402 311.518389 
L 170.523389 311.518389 
L 172.49338 309.488859 
L 183.328332 309.488859 
L 184.313327 306.444564 
L 185.298323 306.444564 
L 187.268314 302.385503 
L 189.238305 300.355973 
L 190.223301 300.355973 
L 191.208297 298.326443 
L 199.088261 298.326443 
L 200.073257 296.296913 
L 203.028244 296.296913 
L 204.013239 295.282148 
L 210.908208 295.282148 
L 211.893204 294.267383 
L 223.713151 294.267383 
L 224.698147 293.252617 
L 225.683142 293.252617 
L 226.668138 292.237852 
L 229.623124 292.237852 
L 230.60812 291.223087 
L 242.428067 291.223087 
L 243.413063 290.208322 
L 245.383054 290.208322 
L 247.353045 286.149262 
L 249.323036 286.149262 
L 251.293027 284.119732 
L 253.263019 284.119732 
L 254.248014 283.104966 
L 257.203001 283.104966 
L 258.187996 282.090201 
L 270.007944 282.090201 
L 270.992939 281.075436 
L 285.767873 281.075436 
L 286.752868 280.060671 
L 295.617829 280.060671 
L 296.602824 279.045906 
L 298.572816 279.045906 
L 299.557811 278.031141 
L 302.512798 278.031141 
L 304.482789 276.001611 
L 305.467785 276.001611 
L 306.45278 274.986846 
L 310.392763 274.986846 
L 312.362754 272.957315 
L 317.287732 272.957315 
L 318.272727 271.94255 
L 321.227714 271.94255 
L 322.21271 270.927785 
L 327.137688 270.927785 
L 328.122683 269.91302 
L 333.047661 269.91302 
L 334.032657 268.898255 
L 351.762577 268.898255 
L 352.747573 267.88349 
L 353.732568 267.88349 
L 354.717564 266.868725 
L 364.56752 266.868725 
L 365.552515 264.839195 
L 366.537511 264.839195 
L 367.522507 263.82443 
L 377.372462 263.82443 
L 378.357458 262.809664 
L 382.29744 262.809664 
L 383.282436 261.794899 
L 384.267432 261.794899 
L 385.252427 260.780134 
L 394.117387 260.780134 
L 395.102383 259.765369 
L 414.802295 259.765369 
L 415.78729 256.721074 
L 422.682259 256.721074 
L 423.667255 255.706309 
L 425.637246 255.706309 
L 426.622242 254.691544 
L 438.442189 254.691544 
L 439.427184 253.676779 
L 453.217123 253.676779 
L 454.202118 252.662013 
L 457.157105 252.662013 
L 458.142101 251.647248 
L 466.022065 251.647248 
L 467.007061 249.617718 
L 482.76699 249.617718 
L 483.751986 248.602953 
L 488.676964 248.602953 
L 489.661959 247.588188 
L 504.436893 247.588188 
L 505.421889 246.573423 
L 507.39188 246.573423 
L 508.376876 245.558658 
L 518.226831 245.558658 
L 519.211827 244.543893 
L 530.046778 244.543893 
L 531.031774 243.529128 
L 543.836717 243.529128 
L 544.821712 242.514362 
L 556.641659 242.514362 
L 557.626655 241.499597 
L 564.521624 241.499597 
L 565.50662 240.484832 
L 575.356575 240.484832 
L 578.311562 237.440537 
L 580.281553 237.440537 
L 581.266549 236.425772 
L 582.251545 236.425772 
L 584.221536 234.396242 
L 588.161518 234.396242 
L 589.146514 233.381477 
L 591.116505 233.381477 
L 592.1015 231.351946 
L 593.086496 230.337181 
L 604.906443 230.337181 
L 605.891439 229.322416 
L 614.756399 229.322416 
L 615.741395 228.307651 
L 622.636364 228.307651 
L 622.636364 228.307651 
" clip-path="url(#p32f32f77ee)" style="fill: none; stroke: #ff7f0e; stroke-width: 1.5; stroke-linecap: square"/>
   </g>
   <g id="patch_3">
    <path d="M 90 384.48 
L 90 51.84 
" style="fill: none; stroke: #000000; stroke-width: 0.8; stroke-linejoin: miter; stroke-linecap: square"/>
   </g>
   <g id="patch_4">
    <path d="M 648 384.48 
L 648 51.84 
" style="fill: none; stroke: #000000; stroke-width: 0.8; stroke-linejoin: miter; stroke-linecap: square"/>
   </g>
   <g id="patch_5">
    <path d="M 90 384.48 
L 648 384.48 
" style="fill: none; stroke: #000000; stroke-width: 0.8; stroke-linejoin: miter; stroke-linecap: square"/>
   </g>
   <g id="patch_6">
    <path d="M 90 51.84 
L 648 51.84 
" style="fill: none; stroke: #000000; stroke-width: 0.8; stroke-linejoin: miter; stroke-linecap: square"/>
   </g>
   <g id="text_19">
    <!-- Time Series of Votes for Each Keyword -->
    <g transform="translate(253.716563 45.84) scale(0.12 -0.12)">
     <defs>
      <path id="DejaVuSans-53" d="M 3425 4513 
L 3425 3897 
Q 3066 4069 2747 4153 
Q 2428 4238 2131 4238 
Q 1616 4238 1336 4038 
Q 1056 3838 1056 3469 
Q 1056 3159 1242 3001 
Q 1428 2844 1947 2747 
L 2328 2669 
Q 3034 2534 3370 2195 
Q 3706 1856 3706 1288 
Q 3706 609 3251 259 
Q 2797 -91 1919 -91 
Q 1588 -91 1214 -16 
Q 841 59 441 206 
L 441 856 
Q 825 641 1194 531 
Q 1563 422 1919 422 
Q 2459 422 2753 634 
Q 3047 847 3047 1241 
Q 3047 1584 2836 1778 
Q 2625 1972 2144 2069 
L 1759 2144 
Q 1053 2284 737 2584 
Q 422 2884 422 3419 
Q 422 4038 858 4394 
Q 1294 4750 2059 4750 
Q 2388 4750 2728 4690 
Q 3069 4631 3425 4513 
z
" transform="scale(0.015625)"/>
      <path id="DejaVuSans-72" d="M 2631 2963 
Q 2534 3019 2420 3045 
Q 2306 3072 2169 3072 
Q 1681 3072 1420 2755 
Q 1159 2438 1159 1844 
L 1159 0 
L 581 0 
L 581 3500 
L 1159 3500 
L 1159 2956 
Q 1341 3275 1631 3429 
Q 1922 3584 2338 3584 
Q 2397 3584 2469 3576 
Q 2541 3569 2628 3553 
L 2631 2963 
z
" transform="scale(0.015625)"/>
      <path id="DejaVuSans-66" d="M 2375 4863 
L 2375 4384 
L 1825 4384 
Q 1516 4384 1395 4259 
Q 1275 4134 1275 3809 
L 1275 3500 
L 2222 3500 
L 2222 3053 
L 1275 3053 
L 1275 0 
L 697 0 
L 697 3053 
L 147 3053 
L 147 3500 
L 697 3500 
L 697 3744 
Q 697 4328 969 4595 
Q 1241 4863 1831 4863 
L 2375 4863 
z
" transform="scale(0.015625)"/>
      <path id="DejaVuSans-45" d="M 628 4666 
L 3578 4666 
L 3578 4134 
L 1259 4134 
L 1259 2753 
L 3481 2753 
L 3481 2222 
L 1259 2222 
L 1259 531 
L 3634 531 
L 3634 0 
L 628 0 
L 628 4666 
z
" transform="scale(0.015625)"/>
      <path id="DejaVuSans-63" d="M 3122 3366 
L 3122 2828 
Q 2878 2963 2633 3030 
Q 2388 3097 2138 3097 
Q 1578 3097 1268 2742 
Q 959 2388 959 1747 
Q 959 1106 1268 751 
Q 1578 397 2138 397 
Q 2388 397 2633 464 
Q 2878 531 3122 666 
L 3122 134 
Q 2881 22 2623 -34 
Q 2366 -91 2075 -91 
Q 1284 -91 818 406 
Q 353 903 353 1747 
Q 353 2603 823 3093 
Q 1294 3584 2113 3584 
Q 2378 3584 2631 3529 
Q 2884 3475 3122 3366 
z
" transform="scale(0.015625)"/>
      <path id="DejaVuSans-68" d="M 3513 2113 
L 3513 0 
L 2938 0 
L 2938 2094 
Q 2938 2591 2744 2837 
Q 2550 3084 2163 3084 
Q 1697 3084 1428 2787 
Q 1159 2491 1159 1978 
L 1159 0 
L 581 0 
L 581 4863 
L 1159 4863 
L 1159 2956 
Q 1366 3272 1645 3428 
Q 1925 3584 2291 3584 
Q 2894 3584 3203 3211 
Q 3513 2838 3513 2113 
z
" transform="scale(0.015625)"/>
      <path id="DejaVuSans-4b" d="M 628 4666 
L 1259 4666 
L 1259 2694 
L 3353 4666 
L 4166 4666 
L 1850 2491 
L 4331 0 
L 3500 0 
L 1259 2247 
L 1259 0 
L 628 0 
L 628 4666 
z
" transform="scale(0.015625)"/>
      <path id="DejaVuSans-79" d="M 2059 -325 
Q 1816 -950 1584 -1140 
Q 1353 -1331 966 -1331 
L 506 -1331 
L 506 -850 
L 844 -850 
Q 1081 -850 1212 -737 
Q 1344 -625 1503 -206 
L 1606 56 
L 191 3500 
L 800 3500 
L 1894 763 
L 2988 3500 
L 3597 3500 
L 2059 -325 
z
" transform="scale(0.015625)"/>
      <path id="DejaVuSans-77" d="M 269 3500 
L 844 3500 
L 1563 769 
L 2278 3500 
L 2956 3500 
L 3675 769 
L 4391 3500 
L 4966 3500 
L 4050 0 
L 3372 0 
L 2619 2869 
L 1863 0 
L 1184 0 
L 269 3500 
z
" transform="scale(0.015625)"/>
     </defs>
     <use xlink:href="#DejaVuSans-54"/>
     <use xlink:href="#DejaVuSans-69" transform="translate(57.958984 0)"/>
     <use xlink:href="#DejaVuSans-6d" transform="translate(85.742188 0)"/>
     <use xlink:href="#DejaVuSans-65" transform="translate(183.154297 0)"/>
     <use xlink:href="#DejaVuSans-20" transform="translate(244.677734 0)"/>
     <use xlink:href="#DejaVuSans-53" transform="translate(276.464844 0)"/>
     <use xlink:href="#DejaVuSans-65" transform="translate(339.941406 0)"/>
     <use xlink:href="#DejaVuSans-72" transform="translate(401.464844 0)"/>
     <use xlink:href="#DejaVuSans-69" transform="translate(442.578125 0)"/>
     <use xlink:href="#DejaVuSans-65" transform="translate(470.361328 0)"/>
     <use xlink:href="#DejaVuSans-73" transform="translate(531.884766 0)"/>
     <use xlink:href="#DejaVuSans-20" transform="translate(583.984375 0)"/>
     <use xlink:href="#DejaVuSans-6f" transform="translate(615.771484 0)"/>
     <use xlink:href="#DejaVuSans-66" transform="translate(676.953125 0)"/>
     <use xlink:href="#DejaVuSans-20" transform="translate(712.158203 0)"/>
     <use xlink:href="#DejaVuSans-56" transform="translate(743.945312 0)"/>
     <use xlink:href="#DejaVuSans-6f" transform="translate(804.603516 0)"/>
     <use xlink:href="#DejaVuSans-74" transform="translate(865.785156 0)"/>
     <use xlink:href="#DejaVuSans-65" transform="translate(904.994141 0)"/>
     <use xlink:href="#DejaVuSans-73" transform="translate(966.517578 0)"/>
     <use xlink:href="#DejaVuSans-20" transform="translate(1018.617188 0)"/>
     <use xlink:href="#DejaVuSans-66" transform="translate(1050.404297 0)"/>
     <use xlink:href="#DejaVuSans-6f" transform="translate(1085.609375 0)"/>
     <use xlink:href="#DejaVuSans-72" transform="translate(1146.791016 0)"/>
     <use xlink:href="#DejaVuSans-20" transform="translate(1187.904297 0)"/>
     <use xlink:href="#DejaVuSans-45" transform="translate(1219.691406 0)"/>
     <use xlink:href="#DejaVuSans-61" transform="translate(1282.875 0)"/>
     <use xlink:href="#DejaVuSans-63" transform="translate(1344.154297 0)"/>
     <use xlink:href="#DejaVuSans-68" transform="translate(1399.134766 0)"/>
     <use xlink:href="#DejaVuSans-20" transform="translate(1462.513672 0)"/>
     <use xlink:href="#DejaVuSans-4b" transform="translate(1494.300781 0)"/>
     <use xlink:href="#DejaVuSans-65" transform="translate(1554.876953 0)"/>
     <use xlink:href="#DejaVuSans-79" transform="translate(1616.400391 0)"/>
     <use xlink:href="#DejaVuSans-77" transform="translate(1675.580078 0)"/>
     <use xlink:href="#DejaVuSans-6f" transform="translate(1757.367188 0)"/>
     <use xlink:href="#DejaVuSans-72" transform="translate(1818.548828 0)"/>
     <use xlink:href="#DejaVuSans-64" transform="translate(1857.912109 0)"/>
    </g>
   </g>
   <g id="legend_1">
    <g id="patch_7">
     <path d="M 97 235.9775 
L 149.245313 235.9775 
Q 151.245313 235.9775 151.245313 233.9775 
L 151.245313 58.84 
Q 151.245313 56.84 149.245313 56.84 
L 97 56.84 
Q 95 56.84 95 58.84 
L 95 233.9775 
Q 95 235.9775 97 235.9775 
z
" style="fill: #ffffff; opacity: 0.8; stroke: #cccccc; stroke-linejoin: miter"/>
    </g>
    <g id="line2d_45">
     <path d="M 99 64.938437 
L 109 64.938437 
L 119 64.938437 
" style="fill: none; stroke: #1f77b4; stroke-width: 1.5; stroke-linecap: square"/>
    </g>
    <g id="text_20">
     <!-- H01 -->
     <g transform="translate(127 68.438437) scale(0.1 -0.1)">
      <defs>
       <path id="DejaVuSans-48" d="M 628 4666 
L 1259 4666 
L 1259 2753 
L 3553 2753 
L 3553 4666 
L 4184 4666 
L 4184 0 
L 3553 0 
L 3553 2222 
L 1259 2222 
L 1259 0 
L 628 0 
L 628 4666 
z
" transform="scale(0.015625)"/>
      </defs>
      <use xlink:href="#DejaVuSans-48"/>
      <use xlink:href="#DejaVuSans-30" transform="translate(75.195312 0)"/>
      <use xlink:href="#DejaVuSans-31" transform="translate(138.818359 0)"/>
     </g>
    </g>
    <g id="line2d_46">
     <path d="M 99 79.616562 
L 109 79.616562 
L 119 79.616562 
" style="fill: none; stroke: #ff7f0e; stroke-width: 1.5; stroke-linecap: square"/>
    </g>
    <g id="text_21">
     <!-- H02 -->
     <g transform="translate(127 83.116562) scale(0.1 -0.1)">
      <use xlink:href="#DejaVuSans-48"/>
      <use xlink:href="#DejaVuSans-30" transform="translate(75.195312 0)"/>
      <use xlink:href="#DejaVuSans-32" transform="translate(138.818359 0)"/>
     </g>
    </g>
    <g id="line2d_47">
     <path d="M 99 94.294688 
L 109 94.294688 
L 119 94.294688 
" style="fill: none; stroke: #2ca02c; stroke-width: 1.5; stroke-linecap: square"/>
    </g>
    <g id="text_22">
     <!-- H03 -->
     <g transform="translate(127 97.794688) scale(0.1 -0.1)">
      <use xlink:href="#DejaVuSans-48"/>
      <use xlink:href="#DejaVuSans-30" transform="translate(75.195312 0)"/>
      <use xlink:href="#DejaVuSans-33" transform="translate(138.818359 0)"/>
     </g>
    </g>
    <g id="line2d_48">
     <path d="M 99 108.972812 
L 109 108.972812 
L 119 108.972812 
" style="fill: none; stroke: #d62728; stroke-width: 1.5; stroke-linecap: square"/>
    </g>
    <g id="text_23">
     <!-- H04 -->
     <g transform="translate(127 112.472812) scale(0.1 -0.1)">
      <use xlink:href="#DejaVuSans-48"/>
      <use xlink:href="#DejaVuSans-30" transform="translate(75.195312 0)"/>
      <use xlink:href="#DejaVuSans-34" transform="translate(138.818359 0)"/>
     </g>
    </g>
    <g id="line2d_49">
     <path d="M 99 123.650937 
L 109 123.650937 
L 119 123.650937 
" style="fill: none; stroke: #9467bd; stroke-width: 1.5; stroke-linecap: square"/>
    </g>
    <g id="text_24">
     <!-- H05 -->
     <g transform="translate(127 127.150937) scale(0.1 -0.1)">
      <use xlink:href="#DejaVuSans-48"/>
      <use xlink:href="#DejaVuSans-30" transform="translate(75.195312 0)"/>
      <use xlink:href="#DejaVuSans-35" transform="translate(138.818359 0)"/>
     </g>
    </g>
    <g id="line2d_50">
     <path d="M 99 138.329062 
L 109 138.329062 
L 119 138.329062 
" style="fill: none; stroke: #8c564b; stroke-width: 1.5; stroke-linecap: square"/>
    </g>
    <g id="text_25">
     <!-- H06 -->
     <g transform="translate(127 141.829062) scale(0.1 -0.1)">
      <use xlink:href="#DejaVuSans-48"/>
      <use xlink:href="#DejaVuSans-30" transform="translate(75.195312 0)"/>
      <use xlink:href="#DejaVuSans-36" transform="translate(138.818359 0)"/>
     </g>
    </g>
    <g id="line2d_51">
     <path d="M 99 153.007187 
L 109 153.007187 
L 119 153.007187 
" style="fill: none; stroke: #e377c2; stroke-width: 1.5; stroke-linecap: square"/>
    </g>
    <g id="text_26">
     <!-- H07 -->
     <g transform="translate(127 156.507187) scale(0.1 -0.1)">
      <use xlink:href="#DejaVuSans-48"/>
      <use xlink:href="#DejaVuSans-30" transform="translate(75.195312 0)"/>
      <use xlink:href="#DejaVuSans-37" transform="translate(138.818359 0)"/>
     </g>
    </g>
    <g id="line2d_52">
     <path d="M 99 167.685312 
L 109 167.685312 
L 119 167.685312 
" style="fill: none; stroke: #7f7f7f; stroke-width: 1.5; stroke-linecap: square"/>
    </g>
    <g id="text_27">
     <!-- H08 -->
     <g transform="translate(127 171.185312) scale(0.1 -0.1)">
      <use xlink:href="#DejaVuSans-48"/>
      <use xlink:href="#DejaVuSans-30" transform="translate(75.195312 0)"/>
      <use xlink:href="#DejaVuSans-38" transform="translate(138.818359 0)"/>
     </g>
    </g>
    <g id="line2d_53">
     <path d="M 99 182.363437 
L 109 182.363437 
L 119 182.363437 
" style="fill: none; stroke: #bcbd22; stroke-width: 1.5; stroke-linecap: square"/>
    </g>
    <g id="text_28">
     <!-- H09 -->
     <g transform="translate(127 185.863437) scale(0.1 -0.1)">
      <use xlink:href="#DejaVuSans-48"/>
      <use xlink:href="#DejaVuSans-30" transform="translate(75.195312 0)"/>
      <use xlink:href="#DejaVuSans-39" transform="translate(138.818359 0)"/>
     </g>
    </g>
    <g id="line2d_54">
     <path d="M 99 197.041562 
L 109 197.041562 
L 119 197.041562 
" style="fill: none; stroke: #17becf; stroke-width: 1.5; stroke-linecap: square"/>
    </g>
    <g id="text_29">
     <!-- H10 -->
     <g transform="translate(127 200.541562) scale(0.1 -0.1)">
      <use xlink:href="#DejaVuSans-48"/>
      <use xlink:href="#DejaVuSans-31" transform="translate(75.195312 0)"/>
      <use xlink:href="#DejaVuSans-30" transform="translate(138.818359 0)"/>
     </g>
    </g>
    <g id="line2d_55">
     <path d="M 99 211.719687 
L 109 211.719687 
L 119 211.719687 
" style="fill: none; stroke: #1f77b4; stroke-width: 1.5; stroke-linecap: square"/>
    </g>
    <g id="text_30">
     <!-- H11 -->
     <g transform="translate(127 215.219687) scale(0.1 -0.1)">
      <use xlink:href="#DejaVuSans-48"/>
      <use xlink:href="#DejaVuSans-31" transform="translate(75.195312 0)"/>
      <use xlink:href="#DejaVuSans-31" transform="translate(138.818359 0)"/>
     </g>
    </g>
    <g id="line2d_56">
     <path d="M 99 226.397812 
L 109 226.397812 
L 119 226.397812 
" style="fill: none; stroke: #ff7f0e; stroke-width: 1.5; stroke-linecap: square"/>
    </g>
    <g id="text_31">
     <!-- H12 -->
     <g transform="translate(127 229.897812) scale(0.1 -0.1)">
      <use xlink:href="#DejaVuSans-48"/>
      <use xlink:href="#DejaVuSans-31" transform="translate(75.195312 0)"/>
      <use xlink:href="#DejaVuSans-32" transform="translate(138.818359 0)"/>
     </g>
    </g>
   </g>
  </g>
 </g>
 <defs>
  <clipPath id="p32f32f77ee">
   <rect x="90" y="51.84" width="558" height="332.64"/>
  </clipPath>
 </defs>
</svg>
