<?xml version="1.0" encoding="utf-8" standalone="no"?>
<!DOCTYPE svg PUBLIC "-//W3C//DTD SVG 1.1//EN"
  "http://www.w3.org/Graphics/SVG/1.1/DTD/svg11.dtd">
<svg xmlns:xlink="http://www.w3.org/1999/xlink" width="720pt" height="432pt" viewBox="0 0 720 432" xmlns="http://www.w3.org/2000/svg" version="1.1">
 <metadata>
  <rdf:RDF xmlns:dc="http://purl.org/dc/elements/1.1/" xmlns:cc="http://creativecommons.org/ns#" xmlns:rdf="http://www.w3.org/1999/02/22-rdf-syntax-ns#">
   <cc:Work>
    <dc:type rdf:resource="http://purl.org/dc/dcmitype/StillImage"/>
    <dc:date>2025-01-14T21:49:01.677668</dc:date>
    <dc:format>image/svg+xml</dc:format>
    <dc:creator>
     <cc:Agent>
      <dc:title>Matplotlib v3.10.0, https://matplotlib.org/</dc:title>
     </cc:Agent>
    </dc:creator>
   </cc:Work>
  </rdf:RDF>
 </metadata>
 <defs>
  <style type="text/css">*{stroke-linejoin: round; stroke-linecap: butt}</style>
 </defs>
 <g id="figure_1">
  <g id="patch_1">
   <path d="M 0 432 
L 720 432 
L 720 0 
L 0 0 
z
" style="fill: #ffffff"/>
  </g>
  <g id="axes_1">
   <g id="patch_2">
    <path d="M 90 384.48 
L 648 384.48 
L 648 51.84 
L 90 51.84 
z
" style="fill: #ffffff"/>
   </g>
   <g id="matplotlib.axis_1">
    <g id="xtick_1">
     <g id="line2d_1">
      <path d="M 143.033058 384.48 
L 143.033058 51.84 
" clip-path="url(#p3fd3110f75)" style="fill: none; stroke: #b0b0b0; stroke-width: 0.8; stroke-linecap: square"/>
     </g>
     <g id="line2d_2">
      <defs>
       <path id="m1fdd80dca3" d="M 0 0 
L 0 3.5 
" style="stroke: #000000; stroke-width: 0.8"/>
      </defs>
      <g>
       <use xlink:href="#m1fdd80dca3" x="143.033058" y="384.48" style="stroke: #000000; stroke-width: 0.8"/>
      </g>
     </g>
     <g id="text_1">
      <!-- 01-14 14 -->
      <g transform="translate(120.552589 399.078438) scale(0.1 -0.1)">
       <defs>
        <path id="DejaVuSans-30" d="M 2034 4250 
Q 1547 4250 1301 3770 
Q 1056 3291 1056 2328 
Q 1056 1369 1301 889 
Q 1547 409 2034 409 
Q 2525 409 2770 889 
Q 3016 1369 3016 2328 
Q 3016 3291 2770 3770 
Q 2525 4250 2034 4250 
z
M 2034 4750 
Q 2819 4750 3233 4129 
Q 3647 3509 3647 2328 
Q 3647 1150 3233 529 
Q 2819 -91 2034 -91 
Q 1250 -91 836 529 
Q 422 1150 422 2328 
Q 422 3509 836 4129 
Q 1250 4750 2034 4750 
z
" transform="scale(0.015625)"/>
        <path id="DejaVuSans-31" d="M 794 531 
L 1825 531 
L 1825 4091 
L 703 3866 
L 703 4441 
L 1819 4666 
L 2450 4666 
L 2450 531 
L 3481 531 
L 3481 0 
L 794 0 
L 794 531 
z
" transform="scale(0.015625)"/>
        <path id="DejaVuSans-2d" d="M 313 2009 
L 1997 2009 
L 1997 1497 
L 313 1497 
L 313 2009 
z
" transform="scale(0.015625)"/>
        <path id="DejaVuSans-34" d="M 2419 4116 
L 825 1625 
L 2419 1625 
L 2419 4116 
z
M 2253 4666 
L 3047 4666 
L 3047 1625 
L 3713 1625 
L 3713 1100 
L 3047 1100 
L 3047 0 
L 2419 0 
L 2419 1100 
L 313 1100 
L 313 1709 
L 2253 4666 
z
" transform="scale(0.015625)"/>
        <path id="DejaVuSans-20" transform="scale(0.015625)"/>
       </defs>
       <use xlink:href="#DejaVuSans-30"/>
       <use xlink:href="#DejaVuSans-31" transform="translate(63.623047 0)"/>
       <use xlink:href="#DejaVuSans-2d" transform="translate(127.246094 0)"/>
       <use xlink:href="#DejaVuSans-31" transform="translate(163.330078 0)"/>
       <use xlink:href="#DejaVuSans-34" transform="translate(226.953125 0)"/>
       <use xlink:href="#DejaVuSans-20" transform="translate(290.576172 0)"/>
       <use xlink:href="#DejaVuSans-31" transform="translate(322.363281 0)"/>
       <use xlink:href="#DejaVuSans-34" transform="translate(385.986328 0)"/>
      </g>
     </g>
    </g>
    <g id="xtick_2">
     <g id="line2d_3">
      <path d="M 204.520661 384.48 
L 204.520661 51.84 
" clip-path="url(#p3fd3110f75)" style="fill: none; stroke: #b0b0b0; stroke-width: 0.8; stroke-linecap: square"/>
     </g>
     <g id="line2d_4">
      <g>
       <use xlink:href="#m1fdd80dca3" x="204.520661" y="384.48" style="stroke: #000000; stroke-width: 0.8"/>
      </g>
     </g>
     <g id="text_2">
      <!-- 01-14 15 -->
      <g transform="translate(182.040192 399.078438) scale(0.1 -0.1)">
       <defs>
        <path id="DejaVuSans-35" d="M 691 4666 
L 3169 4666 
L 3169 4134 
L 1269 4134 
L 1269 2991 
Q 1406 3038 1543 3061 
Q 1681 3084 1819 3084 
Q 2600 3084 3056 2656 
Q 3513 2228 3513 1497 
Q 3513 744 3044 326 
Q 2575 -91 1722 -91 
Q 1428 -91 1123 -41 
Q 819 9 494 109 
L 494 744 
Q 775 591 1075 516 
Q 1375 441 1709 441 
Q 2250 441 2565 725 
Q 2881 1009 2881 1497 
Q 2881 1984 2565 2268 
Q 2250 2553 1709 2553 
Q 1456 2553 1204 2497 
Q 953 2441 691 2322 
L 691 4666 
z
" transform="scale(0.015625)"/>
       </defs>
       <use xlink:href="#DejaVuSans-30"/>
       <use xlink:href="#DejaVuSans-31" transform="translate(63.623047 0)"/>
       <use xlink:href="#DejaVuSans-2d" transform="translate(127.246094 0)"/>
       <use xlink:href="#DejaVuSans-31" transform="translate(163.330078 0)"/>
       <use xlink:href="#DejaVuSans-34" transform="translate(226.953125 0)"/>
       <use xlink:href="#DejaVuSans-20" transform="translate(290.576172 0)"/>
       <use xlink:href="#DejaVuSans-31" transform="translate(322.363281 0)"/>
       <use xlink:href="#DejaVuSans-35" transform="translate(385.986328 0)"/>
      </g>
     </g>
    </g>
    <g id="xtick_3">
     <g id="line2d_5">
      <path d="M 266.008264 384.48 
L 266.008264 51.84 
" clip-path="url(#p3fd3110f75)" style="fill: none; stroke: #b0b0b0; stroke-width: 0.8; stroke-linecap: square"/>
     </g>
     <g id="line2d_6">
      <g>
       <use xlink:href="#m1fdd80dca3" x="266.008264" y="384.48" style="stroke: #000000; stroke-width: 0.8"/>
      </g>
     </g>
     <g id="text_3">
      <!-- 01-14 16 -->
      <g transform="translate(243.527796 399.078438) scale(0.1 -0.1)">
       <defs>
        <path id="DejaVuSans-36" d="M 2113 2584 
Q 1688 2584 1439 2293 
Q 1191 2003 1191 1497 
Q 1191 994 1439 701 
Q 1688 409 2113 409 
Q 2538 409 2786 701 
Q 3034 994 3034 1497 
Q 3034 2003 2786 2293 
Q 2538 2584 2113 2584 
z
M 3366 4563 
L 3366 3988 
Q 3128 4100 2886 4159 
Q 2644 4219 2406 4219 
Q 1781 4219 1451 3797 
Q 1122 3375 1075 2522 
Q 1259 2794 1537 2939 
Q 1816 3084 2150 3084 
Q 2853 3084 3261 2657 
Q 3669 2231 3669 1497 
Q 3669 778 3244 343 
Q 2819 -91 2113 -91 
Q 1303 -91 875 529 
Q 447 1150 447 2328 
Q 447 3434 972 4092 
Q 1497 4750 2381 4750 
Q 2619 4750 2861 4703 
Q 3103 4656 3366 4563 
z
" transform="scale(0.015625)"/>
       </defs>
       <use xlink:href="#DejaVuSans-30"/>
       <use xlink:href="#DejaVuSans-31" transform="translate(63.623047 0)"/>
       <use xlink:href="#DejaVuSans-2d" transform="translate(127.246094 0)"/>
       <use xlink:href="#DejaVuSans-31" transform="translate(163.330078 0)"/>
       <use xlink:href="#DejaVuSans-34" transform="translate(226.953125 0)"/>
       <use xlink:href="#DejaVuSans-20" transform="translate(290.576172 0)"/>
       <use xlink:href="#DejaVuSans-31" transform="translate(322.363281 0)"/>
       <use xlink:href="#DejaVuSans-36" transform="translate(385.986328 0)"/>
      </g>
     </g>
    </g>
    <g id="xtick_4">
     <g id="line2d_7">
      <path d="M 327.495868 384.48 
L 327.495868 51.84 
" clip-path="url(#p3fd3110f75)" style="fill: none; stroke: #b0b0b0; stroke-width: 0.8; stroke-linecap: square"/>
     </g>
     <g id="line2d_8">
      <g>
       <use xlink:href="#m1fdd80dca3" x="327.495868" y="384.48" style="stroke: #000000; stroke-width: 0.8"/>
      </g>
     </g>
     <g id="text_4">
      <!-- 01-14 17 -->
      <g transform="translate(305.015399 399.078438) scale(0.1 -0.1)">
       <defs>
        <path id="DejaVuSans-37" d="M 525 4666 
L 3525 4666 
L 3525 4397 
L 1831 0 
L 1172 0 
L 2766 4134 
L 525 4134 
L 525 4666 
z
" transform="scale(0.015625)"/>
       </defs>
       <use xlink:href="#DejaVuSans-30"/>
       <use xlink:href="#DejaVuSans-31" transform="translate(63.623047 0)"/>
       <use xlink:href="#DejaVuSans-2d" transform="translate(127.246094 0)"/>
       <use xlink:href="#DejaVuSans-31" transform="translate(163.330078 0)"/>
       <use xlink:href="#DejaVuSans-34" transform="translate(226.953125 0)"/>
       <use xlink:href="#DejaVuSans-20" transform="translate(290.576172 0)"/>
       <use xlink:href="#DejaVuSans-31" transform="translate(322.363281 0)"/>
       <use xlink:href="#DejaVuSans-37" transform="translate(385.986328 0)"/>
      </g>
     </g>
    </g>
    <g id="xtick_5">
     <g id="line2d_9">
      <path d="M 388.983471 384.48 
L 388.983471 51.84 
" clip-path="url(#p3fd3110f75)" style="fill: none; stroke: #b0b0b0; stroke-width: 0.8; stroke-linecap: square"/>
     </g>
     <g id="line2d_10">
      <g>
       <use xlink:href="#m1fdd80dca3" x="388.983471" y="384.48" style="stroke: #000000; stroke-width: 0.8"/>
      </g>
     </g>
     <g id="text_5">
      <!-- 01-14 18 -->
      <g transform="translate(366.503002 399.078438) scale(0.1 -0.1)">
       <defs>
        <path id="DejaVuSans-38" d="M 2034 2216 
Q 1584 2216 1326 1975 
Q 1069 1734 1069 1313 
Q 1069 891 1326 650 
Q 1584 409 2034 409 
Q 2484 409 2743 651 
Q 3003 894 3003 1313 
Q 3003 1734 2745 1975 
Q 2488 2216 2034 2216 
z
M 1403 2484 
Q 997 2584 770 2862 
Q 544 3141 544 3541 
Q 544 4100 942 4425 
Q 1341 4750 2034 4750 
Q 2731 4750 3128 4425 
Q 3525 4100 3525 3541 
Q 3525 3141 3298 2862 
Q 3072 2584 2669 2484 
Q 3125 2378 3379 2068 
Q 3634 1759 3634 1313 
Q 3634 634 3220 271 
Q 2806 -91 2034 -91 
Q 1263 -91 848 271 
Q 434 634 434 1313 
Q 434 1759 690 2068 
Q 947 2378 1403 2484 
z
M 1172 3481 
Q 1172 3119 1398 2916 
Q 1625 2713 2034 2713 
Q 2441 2713 2670 2916 
Q 2900 3119 2900 3481 
Q 2900 3844 2670 4047 
Q 2441 4250 2034 4250 
Q 1625 4250 1398 4047 
Q 1172 3844 1172 3481 
z
" transform="scale(0.015625)"/>
       </defs>
       <use xlink:href="#DejaVuSans-30"/>
       <use xlink:href="#DejaVuSans-31" transform="translate(63.623047 0)"/>
       <use xlink:href="#DejaVuSans-2d" transform="translate(127.246094 0)"/>
       <use xlink:href="#DejaVuSans-31" transform="translate(163.330078 0)"/>
       <use xlink:href="#DejaVuSans-34" transform="translate(226.953125 0)"/>
       <use xlink:href="#DejaVuSans-20" transform="translate(290.576172 0)"/>
       <use xlink:href="#DejaVuSans-31" transform="translate(322.363281 0)"/>
       <use xlink:href="#DejaVuSans-38" transform="translate(385.986328 0)"/>
      </g>
     </g>
    </g>
    <g id="xtick_6">
     <g id="line2d_11">
      <path d="M 450.471074 384.48 
L 450.471074 51.84 
" clip-path="url(#p3fd3110f75)" style="fill: none; stroke: #b0b0b0; stroke-width: 0.8; stroke-linecap: square"/>
     </g>
     <g id="line2d_12">
      <g>
       <use xlink:href="#m1fdd80dca3" x="450.471074" y="384.48" style="stroke: #000000; stroke-width: 0.8"/>
      </g>
     </g>
     <g id="text_6">
      <!-- 01-14 19 -->
      <g transform="translate(427.990606 399.078438) scale(0.1 -0.1)">
       <defs>
        <path id="DejaVuSans-39" d="M 703 97 
L 703 672 
Q 941 559 1184 500 
Q 1428 441 1663 441 
Q 2288 441 2617 861 
Q 2947 1281 2994 2138 
Q 2813 1869 2534 1725 
Q 2256 1581 1919 1581 
Q 1219 1581 811 2004 
Q 403 2428 403 3163 
Q 403 3881 828 4315 
Q 1253 4750 1959 4750 
Q 2769 4750 3195 4129 
Q 3622 3509 3622 2328 
Q 3622 1225 3098 567 
Q 2575 -91 1691 -91 
Q 1453 -91 1209 -44 
Q 966 3 703 97 
z
M 1959 2075 
Q 2384 2075 2632 2365 
Q 2881 2656 2881 3163 
Q 2881 3666 2632 3958 
Q 2384 4250 1959 4250 
Q 1534 4250 1286 3958 
Q 1038 3666 1038 3163 
Q 1038 2656 1286 2365 
Q 1534 2075 1959 2075 
z
" transform="scale(0.015625)"/>
       </defs>
       <use xlink:href="#DejaVuSans-30"/>
       <use xlink:href="#DejaVuSans-31" transform="translate(63.623047 0)"/>
       <use xlink:href="#DejaVuSans-2d" transform="translate(127.246094 0)"/>
       <use xlink:href="#DejaVuSans-31" transform="translate(163.330078 0)"/>
       <use xlink:href="#DejaVuSans-34" transform="translate(226.953125 0)"/>
       <use xlink:href="#DejaVuSans-20" transform="translate(290.576172 0)"/>
       <use xlink:href="#DejaVuSans-31" transform="translate(322.363281 0)"/>
       <use xlink:href="#DejaVuSans-39" transform="translate(385.986328 0)"/>
      </g>
     </g>
    </g>
    <g id="xtick_7">
     <g id="line2d_13">
      <path d="M 511.958678 384.48 
L 511.958678 51.84 
" clip-path="url(#p3fd3110f75)" style="fill: none; stroke: #b0b0b0; stroke-width: 0.8; stroke-linecap: square"/>
     </g>
     <g id="line2d_14">
      <g>
       <use xlink:href="#m1fdd80dca3" x="511.958678" y="384.48" style="stroke: #000000; stroke-width: 0.8"/>
      </g>
     </g>
     <g id="text_7">
      <!-- 01-14 20 -->
      <g transform="translate(489.478209 399.078438) scale(0.1 -0.1)">
       <defs>
        <path id="DejaVuSans-32" d="M 1228 531 
L 3431 531 
L 3431 0 
L 469 0 
L 469 531 
Q 828 903 1448 1529 
Q 2069 2156 2228 2338 
Q 2531 2678 2651 2914 
Q 2772 3150 2772 3378 
Q 2772 3750 2511 3984 
Q 2250 4219 1831 4219 
Q 1534 4219 1204 4116 
Q 875 4013 500 3803 
L 500 4441 
Q 881 4594 1212 4672 
Q 1544 4750 1819 4750 
Q 2544 4750 2975 4387 
Q 3406 4025 3406 3419 
Q 3406 3131 3298 2873 
Q 3191 2616 2906 2266 
Q 2828 2175 2409 1742 
Q 1991 1309 1228 531 
z
" transform="scale(0.015625)"/>
       </defs>
       <use xlink:href="#DejaVuSans-30"/>
       <use xlink:href="#DejaVuSans-31" transform="translate(63.623047 0)"/>
       <use xlink:href="#DejaVuSans-2d" transform="translate(127.246094 0)"/>
       <use xlink:href="#DejaVuSans-31" transform="translate(163.330078 0)"/>
       <use xlink:href="#DejaVuSans-34" transform="translate(226.953125 0)"/>
       <use xlink:href="#DejaVuSans-20" transform="translate(290.576172 0)"/>
       <use xlink:href="#DejaVuSans-32" transform="translate(322.363281 0)"/>
       <use xlink:href="#DejaVuSans-30" transform="translate(385.986328 0)"/>
      </g>
     </g>
    </g>
    <g id="xtick_8">
     <g id="line2d_15">
      <path d="M 573.446281 384.48 
L 573.446281 51.84 
" clip-path="url(#p3fd3110f75)" style="fill: none; stroke: #b0b0b0; stroke-width: 0.8; stroke-linecap: square"/>
     </g>
     <g id="line2d_16">
      <g>
       <use xlink:href="#m1fdd80dca3" x="573.446281" y="384.48" style="stroke: #000000; stroke-width: 0.8"/>
      </g>
     </g>
     <g id="text_8">
      <!-- 01-14 21 -->
      <g transform="translate(550.965812 399.078438) scale(0.1 -0.1)">
       <use xlink:href="#DejaVuSans-30"/>
       <use xlink:href="#DejaVuSans-31" transform="translate(63.623047 0)"/>
       <use xlink:href="#DejaVuSans-2d" transform="translate(127.246094 0)"/>
       <use xlink:href="#DejaVuSans-31" transform="translate(163.330078 0)"/>
       <use xlink:href="#DejaVuSans-34" transform="translate(226.953125 0)"/>
       <use xlink:href="#DejaVuSans-20" transform="translate(290.576172 0)"/>
       <use xlink:href="#DejaVuSans-32" transform="translate(322.363281 0)"/>
       <use xlink:href="#DejaVuSans-31" transform="translate(385.986328 0)"/>
      </g>
     </g>
    </g>
    <g id="xtick_9">
     <g id="line2d_17">
      <path d="M 634.933884 384.48 
L 634.933884 51.84 
" clip-path="url(#p3fd3110f75)" style="fill: none; stroke: #b0b0b0; stroke-width: 0.8; stroke-linecap: square"/>
     </g>
     <g id="line2d_18">
      <g>
       <use xlink:href="#m1fdd80dca3" x="634.933884" y="384.48" style="stroke: #000000; stroke-width: 0.8"/>
      </g>
     </g>
     <g id="text_9">
      <!-- 01-14 22 -->
      <g transform="translate(612.453416 399.078438) scale(0.1 -0.1)">
       <use xlink:href="#DejaVuSans-30"/>
       <use xlink:href="#DejaVuSans-31" transform="translate(63.623047 0)"/>
       <use xlink:href="#DejaVuSans-2d" transform="translate(127.246094 0)"/>
       <use xlink:href="#DejaVuSans-31" transform="translate(163.330078 0)"/>
       <use xlink:href="#DejaVuSans-34" transform="translate(226.953125 0)"/>
       <use xlink:href="#DejaVuSans-20" transform="translate(290.576172 0)"/>
       <use xlink:href="#DejaVuSans-32" transform="translate(322.363281 0)"/>
       <use xlink:href="#DejaVuSans-32" transform="translate(385.986328 0)"/>
      </g>
     </g>
    </g>
    <g id="text_10">
     <!-- Date and Time -->
     <g transform="translate(332.230469 412.756563) scale(0.1 -0.1)">
      <defs>
       <path id="DejaVuSans-44" d="M 1259 4147 
L 1259 519 
L 2022 519 
Q 2988 519 3436 956 
Q 3884 1394 3884 2338 
Q 3884 3275 3436 3711 
Q 2988 4147 2022 4147 
L 1259 4147 
z
M 628 4666 
L 1925 4666 
Q 3281 4666 3915 4102 
Q 4550 3538 4550 2338 
Q 4550 1131 3912 565 
Q 3275 0 1925 0 
L 628 0 
L 628 4666 
z
" transform="scale(0.015625)"/>
       <path id="DejaVuSans-61" d="M 2194 1759 
Q 1497 1759 1228 1600 
Q 959 1441 959 1056 
Q 959 750 1161 570 
Q 1363 391 1709 391 
Q 2188 391 2477 730 
Q 2766 1069 2766 1631 
L 2766 1759 
L 2194 1759 
z
M 3341 1997 
L 3341 0 
L 2766 0 
L 2766 531 
Q 2569 213 2275 61 
Q 1981 -91 1556 -91 
Q 1019 -91 701 211 
Q 384 513 384 1019 
Q 384 1609 779 1909 
Q 1175 2209 1959 2209 
L 2766 2209 
L 2766 2266 
Q 2766 2663 2505 2880 
Q 2244 3097 1772 3097 
Q 1472 3097 1187 3025 
Q 903 2953 641 2809 
L 641 3341 
Q 956 3463 1253 3523 
Q 1550 3584 1831 3584 
Q 2591 3584 2966 3190 
Q 3341 2797 3341 1997 
z
" transform="scale(0.015625)"/>
       <path id="DejaVuSans-74" d="M 1172 4494 
L 1172 3500 
L 2356 3500 
L 2356 3053 
L 1172 3053 
L 1172 1153 
Q 1172 725 1289 603 
Q 1406 481 1766 481 
L 2356 481 
L 2356 0 
L 1766 0 
Q 1100 0 847 248 
Q 594 497 594 1153 
L 594 3053 
L 172 3053 
L 172 3500 
L 594 3500 
L 594 4494 
L 1172 4494 
z
" transform="scale(0.015625)"/>
       <path id="DejaVuSans-65" d="M 3597 1894 
L 3597 1613 
L 953 1613 
Q 991 1019 1311 708 
Q 1631 397 2203 397 
Q 2534 397 2845 478 
Q 3156 559 3463 722 
L 3463 178 
Q 3153 47 2828 -22 
Q 2503 -91 2169 -91 
Q 1331 -91 842 396 
Q 353 884 353 1716 
Q 353 2575 817 3079 
Q 1281 3584 2069 3584 
Q 2775 3584 3186 3129 
Q 3597 2675 3597 1894 
z
M 3022 2063 
Q 3016 2534 2758 2815 
Q 2500 3097 2075 3097 
Q 1594 3097 1305 2825 
Q 1016 2553 972 2059 
L 3022 2063 
z
" transform="scale(0.015625)"/>
       <path id="DejaVuSans-6e" d="M 3513 2113 
L 3513 0 
L 2938 0 
L 2938 2094 
Q 2938 2591 2744 2837 
Q 2550 3084 2163 3084 
Q 1697 3084 1428 2787 
Q 1159 2491 1159 1978 
L 1159 0 
L 581 0 
L 581 3500 
L 1159 3500 
L 1159 2956 
Q 1366 3272 1645 3428 
Q 1925 3584 2291 3584 
Q 2894 3584 3203 3211 
Q 3513 2838 3513 2113 
z
" transform="scale(0.015625)"/>
       <path id="DejaVuSans-64" d="M 2906 2969 
L 2906 4863 
L 3481 4863 
L 3481 0 
L 2906 0 
L 2906 525 
Q 2725 213 2448 61 
Q 2172 -91 1784 -91 
Q 1150 -91 751 415 
Q 353 922 353 1747 
Q 353 2572 751 3078 
Q 1150 3584 1784 3584 
Q 2172 3584 2448 3432 
Q 2725 3281 2906 2969 
z
M 947 1747 
Q 947 1113 1208 752 
Q 1469 391 1925 391 
Q 2381 391 2643 752 
Q 2906 1113 2906 1747 
Q 2906 2381 2643 2742 
Q 2381 3103 1925 3103 
Q 1469 3103 1208 2742 
Q 947 2381 947 1747 
z
" transform="scale(0.015625)"/>
       <path id="DejaVuSans-54" d="M -19 4666 
L 3928 4666 
L 3928 4134 
L 2272 4134 
L 2272 0 
L 1638 0 
L 1638 4134 
L -19 4134 
L -19 4666 
z
" transform="scale(0.015625)"/>
       <path id="DejaVuSans-69" d="M 603 3500 
L 1178 3500 
L 1178 0 
L 603 0 
L 603 3500 
z
M 603 4863 
L 1178 4863 
L 1178 4134 
L 603 4134 
L 603 4863 
z
" transform="scale(0.015625)"/>
       <path id="DejaVuSans-6d" d="M 3328 2828 
Q 3544 3216 3844 3400 
Q 4144 3584 4550 3584 
Q 5097 3584 5394 3201 
Q 5691 2819 5691 2113 
L 5691 0 
L 5113 0 
L 5113 2094 
Q 5113 2597 4934 2840 
Q 4756 3084 4391 3084 
Q 3944 3084 3684 2787 
Q 3425 2491 3425 1978 
L 3425 0 
L 2847 0 
L 2847 2094 
Q 2847 2600 2669 2842 
Q 2491 3084 2119 3084 
Q 1678 3084 1418 2786 
Q 1159 2488 1159 1978 
L 1159 0 
L 581 0 
L 581 3500 
L 1159 3500 
L 1159 2956 
Q 1356 3278 1631 3431 
Q 1906 3584 2284 3584 
Q 2666 3584 2933 3390 
Q 3200 3197 3328 2828 
z
" transform="scale(0.015625)"/>
      </defs>
      <use xlink:href="#DejaVuSans-44"/>
      <use xlink:href="#DejaVuSans-61" transform="translate(77.001953 0)"/>
      <use xlink:href="#DejaVuSans-74" transform="translate(138.28125 0)"/>
      <use xlink:href="#DejaVuSans-65" transform="translate(177.490234 0)"/>
      <use xlink:href="#DejaVuSans-20" transform="translate(239.013672 0)"/>
      <use xlink:href="#DejaVuSans-61" transform="translate(270.800781 0)"/>
      <use xlink:href="#DejaVuSans-6e" transform="translate(332.080078 0)"/>
      <use xlink:href="#DejaVuSans-64" transform="translate(395.458984 0)"/>
      <use xlink:href="#DejaVuSans-20" transform="translate(458.935547 0)"/>
      <use xlink:href="#DejaVuSans-54" transform="translate(490.722656 0)"/>
      <use xlink:href="#DejaVuSans-69" transform="translate(548.681641 0)"/>
      <use xlink:href="#DejaVuSans-6d" transform="translate(576.464844 0)"/>
      <use xlink:href="#DejaVuSans-65" transform="translate(673.876953 0)"/>
     </g>
    </g>
   </g>
   <g id="matplotlib.axis_2">
    <g id="ytick_1">
     <g id="line2d_19">
      <path d="M 90 370.41 
L 648 370.41 
" clip-path="url(#p3fd3110f75)" style="fill: none; stroke: #b0b0b0; stroke-width: 0.8; stroke-linecap: square"/>
     </g>
     <g id="line2d_20">
      <defs>
       <path id="me52e0bfa12" d="M 0 0 
L -3.5 0 
" style="stroke: #000000; stroke-width: 0.8"/>
      </defs>
      <g>
       <use xlink:href="#me52e0bfa12" x="90" y="370.41" style="stroke: #000000; stroke-width: 0.8"/>
      </g>
     </g>
     <g id="text_11">
      <!-- 0 -->
      <g transform="translate(76.6375 374.209219) scale(0.1 -0.1)">
       <use xlink:href="#DejaVuSans-30"/>
      </g>
     </g>
    </g>
    <g id="ytick_2">
     <g id="line2d_21">
      <path d="M 90 317.91 
L 648 317.91 
" clip-path="url(#p3fd3110f75)" style="fill: none; stroke: #b0b0b0; stroke-width: 0.8; stroke-linecap: square"/>
     </g>
     <g id="line2d_22">
      <g>
       <use xlink:href="#me52e0bfa12" x="90" y="317.91" style="stroke: #000000; stroke-width: 0.8"/>
      </g>
     </g>
     <g id="text_12">
      <!-- 50 -->
      <g transform="translate(70.275 321.709219) scale(0.1 -0.1)">
       <use xlink:href="#DejaVuSans-35"/>
       <use xlink:href="#DejaVuSans-30" transform="translate(63.623047 0)"/>
      </g>
     </g>
    </g>
    <g id="ytick_3">
     <g id="line2d_23">
      <path d="M 90 265.41 
L 648 265.41 
" clip-path="url(#p3fd3110f75)" style="fill: none; stroke: #b0b0b0; stroke-width: 0.8; stroke-linecap: square"/>
     </g>
     <g id="line2d_24">
      <g>
       <use xlink:href="#me52e0bfa12" x="90" y="265.41" style="stroke: #000000; stroke-width: 0.8"/>
      </g>
     </g>
     <g id="text_13">
      <!-- 100 -->
      <g transform="translate(63.9125 269.209219) scale(0.1 -0.1)">
       <use xlink:href="#DejaVuSans-31"/>
       <use xlink:href="#DejaVuSans-30" transform="translate(63.623047 0)"/>
       <use xlink:href="#DejaVuSans-30" transform="translate(127.246094 0)"/>
      </g>
     </g>
    </g>
    <g id="ytick_4">
     <g id="line2d_25">
      <path d="M 90 212.91 
L 648 212.91 
" clip-path="url(#p3fd3110f75)" style="fill: none; stroke: #b0b0b0; stroke-width: 0.8; stroke-linecap: square"/>
     </g>
     <g id="line2d_26">
      <g>
       <use xlink:href="#me52e0bfa12" x="90" y="212.91" style="stroke: #000000; stroke-width: 0.8"/>
      </g>
     </g>
     <g id="text_14">
      <!-- 150 -->
      <g transform="translate(63.9125 216.709219) scale(0.1 -0.1)">
       <use xlink:href="#DejaVuSans-31"/>
       <use xlink:href="#DejaVuSans-35" transform="translate(63.623047 0)"/>
       <use xlink:href="#DejaVuSans-30" transform="translate(127.246094 0)"/>
      </g>
     </g>
    </g>
    <g id="ytick_5">
     <g id="line2d_27">
      <path d="M 90 160.41 
L 648 160.41 
" clip-path="url(#p3fd3110f75)" style="fill: none; stroke: #b0b0b0; stroke-width: 0.8; stroke-linecap: square"/>
     </g>
     <g id="line2d_28">
      <g>
       <use xlink:href="#me52e0bfa12" x="90" y="160.41" style="stroke: #000000; stroke-width: 0.8"/>
      </g>
     </g>
     <g id="text_15">
      <!-- 200 -->
      <g transform="translate(63.9125 164.209219) scale(0.1 -0.1)">
       <use xlink:href="#DejaVuSans-32"/>
       <use xlink:href="#DejaVuSans-30" transform="translate(63.623047 0)"/>
       <use xlink:href="#DejaVuSans-30" transform="translate(127.246094 0)"/>
      </g>
     </g>
    </g>
    <g id="ytick_6">
     <g id="line2d_29">
      <path d="M 90 107.91 
L 648 107.91 
" clip-path="url(#p3fd3110f75)" style="fill: none; stroke: #b0b0b0; stroke-width: 0.8; stroke-linecap: square"/>
     </g>
     <g id="line2d_30">
      <g>
       <use xlink:href="#me52e0bfa12" x="90" y="107.91" style="stroke: #000000; stroke-width: 0.8"/>
      </g>
     </g>
     <g id="text_16">
      <!-- 250 -->
      <g transform="translate(63.9125 111.709219) scale(0.1 -0.1)">
       <use xlink:href="#DejaVuSans-32"/>
       <use xlink:href="#DejaVuSans-35" transform="translate(63.623047 0)"/>
       <use xlink:href="#DejaVuSans-30" transform="translate(127.246094 0)"/>
      </g>
     </g>
    </g>
    <g id="ytick_7">
     <g id="line2d_31">
      <path d="M 90 55.41 
L 648 55.41 
" clip-path="url(#p3fd3110f75)" style="fill: none; stroke: #b0b0b0; stroke-width: 0.8; stroke-linecap: square"/>
     </g>
     <g id="line2d_32">
      <g>
       <use xlink:href="#me52e0bfa12" x="90" y="55.41" style="stroke: #000000; stroke-width: 0.8"/>
      </g>
     </g>
     <g id="text_17">
      <!-- 300 -->
      <g transform="translate(63.9125 59.209219) scale(0.1 -0.1)">
       <defs>
        <path id="DejaVuSans-33" d="M 2597 2516 
Q 3050 2419 3304 2112 
Q 3559 1806 3559 1356 
Q 3559 666 3084 287 
Q 2609 -91 1734 -91 
Q 1441 -91 1130 -33 
Q 819 25 488 141 
L 488 750 
Q 750 597 1062 519 
Q 1375 441 1716 441 
Q 2309 441 2620 675 
Q 2931 909 2931 1356 
Q 2931 1769 2642 2001 
Q 2353 2234 1838 2234 
L 1294 2234 
L 1294 2753 
L 1863 2753 
Q 2328 2753 2575 2939 
Q 2822 3125 2822 3475 
Q 2822 3834 2567 4026 
Q 2313 4219 1838 4219 
Q 1578 4219 1281 4162 
Q 984 4106 628 3988 
L 628 4550 
Q 988 4650 1302 4700 
Q 1616 4750 1894 4750 
Q 2613 4750 3031 4423 
Q 3450 4097 3450 3541 
Q 3450 3153 3228 2886 
Q 3006 2619 2597 2516 
z
" transform="scale(0.015625)"/>
       </defs>
       <use xlink:href="#DejaVuSans-33"/>
       <use xlink:href="#DejaVuSans-30" transform="translate(63.623047 0)"/>
       <use xlink:href="#DejaVuSans-30" transform="translate(127.246094 0)"/>
      </g>
     </g>
    </g>
    <g id="text_18">
     <!-- Votes -->
     <g transform="translate(57.832812 231.893594) rotate(-90) scale(0.1 -0.1)">
      <defs>
       <path id="DejaVuSans-56" d="M 1831 0 
L 50 4666 
L 709 4666 
L 2188 738 
L 3669 4666 
L 4325 4666 
L 2547 0 
L 1831 0 
z
" transform="scale(0.015625)"/>
       <path id="DejaVuSans-6f" d="M 1959 3097 
Q 1497 3097 1228 2736 
Q 959 2375 959 1747 
Q 959 1119 1226 758 
Q 1494 397 1959 397 
Q 2419 397 2687 759 
Q 2956 1122 2956 1747 
Q 2956 2369 2687 2733 
Q 2419 3097 1959 3097 
z
M 1959 3584 
Q 2709 3584 3137 3096 
Q 3566 2609 3566 1747 
Q 3566 888 3137 398 
Q 2709 -91 1959 -91 
Q 1206 -91 779 398 
Q 353 888 353 1747 
Q 353 2609 779 3096 
Q 1206 3584 1959 3584 
z
" transform="scale(0.015625)"/>
       <path id="DejaVuSans-73" d="M 2834 3397 
L 2834 2853 
Q 2591 2978 2328 3040 
Q 2066 3103 1784 3103 
Q 1356 3103 1142 2972 
Q 928 2841 928 2578 
Q 928 2378 1081 2264 
Q 1234 2150 1697 2047 
L 1894 2003 
Q 2506 1872 2764 1633 
Q 3022 1394 3022 966 
Q 3022 478 2636 193 
Q 2250 -91 1575 -91 
Q 1294 -91 989 -36 
Q 684 19 347 128 
L 347 722 
Q 666 556 975 473 
Q 1284 391 1588 391 
Q 1994 391 2212 530 
Q 2431 669 2431 922 
Q 2431 1156 2273 1281 
Q 2116 1406 1581 1522 
L 1381 1569 
Q 847 1681 609 1914 
Q 372 2147 372 2553 
Q 372 3047 722 3315 
Q 1072 3584 1716 3584 
Q 2034 3584 2315 3537 
Q 2597 3491 2834 3397 
z
" transform="scale(0.015625)"/>
      </defs>
      <use xlink:href="#DejaVuSans-56"/>
      <use xlink:href="#DejaVuSans-6f" transform="translate(60.658203 0)"/>
      <use xlink:href="#DejaVuSans-74" transform="translate(121.839844 0)"/>
      <use xlink:href="#DejaVuSans-65" transform="translate(161.048828 0)"/>
      <use xlink:href="#DejaVuSans-73" transform="translate(222.572266 0)"/>
     </g>
    </g>
   </g>
   <g id="line2d_33">
    <path d="M 115.363636 351.51 
L 125.61157 351.51 
L 126.636364 350.46 
L 136.884298 350.46 
L 137.909091 348.36 
L 147.132231 348.36 
L 148.157025 347.31 
L 153.280992 347.31 
L 154.305785 346.26 
L 158.404959 346.26 
L 159.429752 345.21 
L 162.504132 345.21 
L 163.528926 344.16 
L 177.876033 344.16 
L 178.900826 343.11 
L 190.173554 343.11 
L 192.22314 341.01 
L 194.272727 341.01 
L 195.297521 339.96 
L 204.520661 339.96 
L 206.570248 337.86 
L 218.867769 337.86 
L 219.892562 336.81 
L 222.966942 336.81 
L 223.991736 335.76 
L 225.016529 335.76 
L 226.041322 334.71 
L 253.710744 334.71 
L 254.735537 333.66 
L 267.033058 333.66 
L 268.057851 332.61 
L 275.231405 332.61 
L 276.256198 331.56 
L 277.280992 329.46 
L 278.305785 329.46 
L 280.355372 327.36 
L 296.752066 327.36 
L 297.77686 326.31 
L 303.92562 326.31 
L 304.950413 325.26 
L 309.049587 325.26 
L 310.07438 324.21 
L 320.322314 324.21 
L 321.347107 323.16 
L 323.396694 323.16 
L 324.421488 322.11 
L 327.495868 322.11 
L 328.520661 321.06 
L 336.719008 321.06 
L 337.743802 320.01 
L 338.768595 320.01 
L 339.793388 318.96 
L 350.041322 318.96 
L 351.066116 317.91 
L 358.239669 317.91 
L 359.264463 316.86 
L 360.289256 316.86 
L 362.338843 314.76 
L 384.884298 314.76 
L 385.909091 313.71 
L 402.305785 313.71 
L 403.330579 312.66 
L 404.355372 312.66 
L 405.380165 311.61 
L 414.603306 311.61 
L 415.628099 310.56 
L 416.652893 310.56 
L 417.677686 309.51 
L 422.801653 309.51 
L 423.826446 308.46 
L 426.900826 308.46 
L 428.950413 306.36 
L 429.975207 306.36 
L 431 305.31 
L 433.049587 305.31 
L 434.07438 304.26 
L 436.123967 304.26 
L 437.14876 303.21 
L 439.198347 303.21 
L 440.22314 302.16 
L 464.818182 302.16 
L 465.842975 301.11 
L 476.090909 301.11 
L 477.115702 300.06 
L 483.264463 300.06 
L 484.289256 299.01 
L 485.31405 299.01 
L 486.338843 297.96 
L 487.363636 297.96 
L 491.46281 293.76 
L 493.512397 293.76 
L 494.53719 291.66 
L 502.735537 291.66 
L 504.785124 289.56 
L 506.834711 289.56 
L 507.859504 288.51 
L 511.958678 288.51 
L 512.983471 287.46 
L 520.157025 287.46 
L 521.181818 286.41 
L 523.231405 286.41 
L 524.256198 285.36 
L 530.404959 285.36 
L 532.454545 283.26 
L 539.628099 283.26 
L 540.652893 282.21 
L 543.727273 282.21 
L 544.752066 281.16 
L 546.801653 281.16 
L 547.826446 279.06 
L 551.92562 279.06 
L 552.950413 276.96 
L 553.975207 275.91 
L 558.07438 275.91 
L 559.099174 273.81 
L 566.272727 273.81 
L 567.297521 272.76 
L 571.396694 272.76 
L 572.421488 271.71 
L 575.495868 271.71 
L 576.520661 270.66 
L 577.545455 268.56 
L 579.595041 268.56 
L 580.619835 267.51 
L 597.016529 267.51 
L 599.066116 265.41 
L 613.413223 265.41 
L 614.438017 264.36 
L 620.586777 264.36 
L 621.61157 263.31 
L 622.636364 263.31 
L 622.636364 263.31 
" clip-path="url(#p3fd3110f75)" style="fill: none; stroke: #1f77b4; stroke-width: 1.5; stroke-linecap: square"/>
   </g>
   <g id="line2d_34">
    <path d="M 115.363636 284.31 
L 116.38843 283.26 
L 119.46281 283.26 
L 120.487603 282.21 
L 121.512397 282.21 
L 122.53719 281.16 
L 123.561983 281.16 
L 125.61157 279.06 
L 126.636364 276.96 
L 127.661157 276.96 
L 129.710744 274.86 
L 130.735537 274.86 
L 131.760331 270.66 
L 132.785124 268.56 
L 133.809917 264.36 
L 134.834711 261.21 
L 137.909091 261.21 
L 138.933884 258.06 
L 139.958678 255.96 
L 142.008264 253.86 
L 143.033058 251.76 
L 145.082645 249.66 
L 146.107438 247.56 
L 149.181818 247.56 
L 150.206612 242.31 
L 151.231405 240.21 
L 152.256198 239.16 
L 153.280992 237.06 
L 154.305785 236.01 
L 155.330579 236.01 
L 156.355372 232.86 
L 157.380165 232.86 
L 158.404959 230.76 
L 159.429752 229.71 
L 160.454545 229.71 
L 161.479339 228.66 
L 163.528926 228.66 
L 164.553719 227.61 
L 166.603306 227.61 
L 167.628099 225.51 
L 168.652893 225.51 
L 169.677686 224.46 
L 173.77686 224.46 
L 174.801653 223.41 
L 177.876033 223.41 
L 178.900826 222.36 
L 179.92562 222.36 
L 180.950413 220.26 
L 181.975207 220.26 
L 183 218.16 
L 184.024793 217.11 
L 187.099174 217.11 
L 188.123967 215.01 
L 189.14876 213.96 
L 190.173554 210.81 
L 192.22314 208.71 
L 200.421488 208.71 
L 201.446281 205.56 
L 202.471074 205.56 
L 204.520661 203.46 
L 205.545455 203.46 
L 208.619835 200.31 
L 210.669421 200.31 
L 211.694215 199.26 
L 213.743802 199.26 
L 216.818182 196.11 
L 218.867769 196.11 
L 219.892562 195.06 
L 225.016529 195.06 
L 226.041322 194.01 
L 228.090909 194.01 
L 229.115702 192.96 
L 241.413223 192.96 
L 242.438017 190.86 
L 244.487603 190.86 
L 246.53719 188.76 
L 247.561983 188.76 
L 248.586777 187.71 
L 254.735537 187.71 
L 257.809917 184.56 
L 258.834711 184.56 
L 259.859504 183.51 
L 260.884298 181.41 
L 261.909091 181.41 
L 262.933884 180.36 
L 263.958678 180.36 
L 268.057851 176.16 
L 270.107438 176.16 
L 271.132231 174.06 
L 274.206612 174.06 
L 275.231405 173.01 
L 278.305785 173.01 
L 279.330579 171.96 
L 280.355372 171.96 
L 281.380165 168.81 
L 284.454545 168.81 
L 285.479339 167.76 
L 286.504132 165.66 
L 288.553719 165.66 
L 289.578512 164.61 
L 291.628099 164.61 
L 292.652893 163.56 
L 293.677686 163.56 
L 298.801653 158.31 
L 300.85124 158.31 
L 303.92562 155.16 
L 307 155.16 
L 308.024793 153.06 
L 309.049587 153.06 
L 310.07438 152.01 
L 313.14876 152.01 
L 314.173554 150.96 
L 323.396694 150.96 
L 324.421488 149.91 
L 331.595041 149.91 
L 332.619835 148.86 
L 334.669421 148.86 
L 336.719008 146.76 
L 341.842975 146.76 
L 342.867769 145.71 
L 347.991736 145.71 
L 351.066116 142.56 
L 364.38843 142.56 
L 365.413223 140.46 
L 366.438017 139.41 
L 391.033058 139.41 
L 392.057851 138.36 
L 398.206612 138.36 
L 400.256198 136.26 
L 402.305785 136.26 
L 403.330579 135.21 
L 404.355372 135.21 
L 406.404959 133.11 
L 407.429752 133.11 
L 408.454545 132.06 
L 409.479339 132.06 
L 411.528926 127.86 
L 412.553719 126.81 
L 417.677686 126.81 
L 418.702479 123.66 
L 419.727273 121.56 
L 421.77686 121.56 
L 423.826446 119.46 
L 428.950413 119.46 
L 431 117.36 
L 433.049587 117.36 
L 434.07438 116.31 
L 436.123967 116.31 
L 437.14876 115.26 
L 438.173554 115.26 
L 439.198347 114.21 
L 440.22314 114.21 
L 441.247934 113.16 
L 442.272727 113.16 
L 443.297521 112.11 
L 445.347107 112.11 
L 446.371901 110.01 
L 451.495868 110.01 
L 453.545455 107.91 
L 463.793388 107.91 
L 464.818182 106.86 
L 465.842975 106.86 
L 466.867769 105.81 
L 467.892562 105.81 
L 470.966942 102.66 
L 473.016529 102.66 
L 474.041322 101.61 
L 494.53719 101.61 
L 496.586777 99.51 
L 500.68595 99.51 
L 501.710744 98.46 
L 502.735537 98.46 
L 503.760331 97.41 
L 504.785124 97.41 
L 505.809917 96.36 
L 528.355372 96.36 
L 529.380165 95.31 
L 549.876033 95.31 
L 550.900826 93.21 
L 558.07438 93.21 
L 560.123967 91.11 
L 562.173554 91.11 
L 563.198347 90.06 
L 565.247934 90.06 
L 567.297521 87.96 
L 569.347107 87.96 
L 570.371901 85.86 
L 578.570248 85.86 
L 579.595041 84.81 
L 584.719008 84.81 
L 585.743802 83.76 
L 591.892562 83.76 
L 592.917355 82.71 
L 600.090909 82.71 
L 602.140496 80.61 
L 603.165289 80.61 
L 604.190083 79.56 
L 610.338843 79.56 
L 611.363636 78.51 
L 615.46281 78.51 
L 616.487603 77.46 
L 617.512397 77.46 
L 618.53719 76.41 
L 622.636364 76.41 
L 622.636364 76.41 
" clip-path="url(#p3fd3110f75)" style="fill: none; stroke: #ff7f0e; stroke-width: 1.5; stroke-linecap: square"/>
   </g>
   <g id="line2d_35">
    <path d="M 115.363636 337.86 
L 119.46281 337.86 
L 120.487603 335.76 
L 122.53719 335.76 
L 123.561983 334.71 
L 124.586777 332.61 
L 125.61157 331.56 
L 126.636364 328.41 
L 127.661157 326.31 
L 128.68595 325.26 
L 129.710744 325.26 
L 130.735537 323.16 
L 131.760331 320.01 
L 135.859504 320.01 
L 136.884298 318.96 
L 137.909091 318.96 
L 138.933884 316.86 
L 142.008264 316.86 
L 144.057851 314.76 
L 148.157025 314.76 
L 149.181818 313.71 
L 153.280992 313.71 
L 156.355372 310.56 
L 161.479339 310.56 
L 162.504132 309.51 
L 165.578512 309.51 
L 166.603306 308.46 
L 168.652893 308.46 
L 169.677686 306.36 
L 177.876033 306.36 
L 178.900826 305.31 
L 179.92562 303.21 
L 180.950413 302.16 
L 181.975207 302.16 
L 183 301.11 
L 185.049587 301.11 
L 186.07438 300.06 
L 188.123967 300.06 
L 189.14876 299.01 
L 195.297521 299.01 
L 196.322314 297.96 
L 197.347107 297.96 
L 198.371901 296.91 
L 199.396694 296.91 
L 200.421488 295.86 
L 203.495868 295.86 
L 204.520661 294.81 
L 205.545455 292.71 
L 210.669421 292.71 
L 213.743802 289.56 
L 216.818182 289.56 
L 217.842975 288.51 
L 221.942149 288.51 
L 222.966942 287.46 
L 223.991736 287.46 
L 225.016529 286.41 
L 227.066116 286.41 
L 228.090909 285.36 
L 231.165289 285.36 
L 233.214876 283.26 
L 234.239669 283.26 
L 235.264463 282.21 
L 243.46281 282.21 
L 244.487603 280.11 
L 245.512397 279.06 
L 253.710744 279.06 
L 254.735537 278.01 
L 257.809917 278.01 
L 258.834711 276.96 
L 261.909091 276.96 
L 262.933884 275.91 
L 273.181818 275.91 
L 274.206612 274.86 
L 278.305785 274.86 
L 279.330579 273.81 
L 285.479339 273.81 
L 286.504132 272.76 
L 288.553719 272.76 
L 289.578512 271.71 
L 293.677686 271.71 
L 295.727273 269.61 
L 315.198347 269.61 
L 316.22314 268.56 
L 317.247934 268.56 
L 318.272727 267.51 
L 321.347107 267.51 
L 322.371901 266.46 
L 327.495868 266.46 
L 328.520661 265.41 
L 330.570248 265.41 
L 331.595041 264.36 
L 337.743802 264.36 
L 338.768595 265.41 
L 339.793388 264.36 
L 346.966942 264.36 
L 347.991736 263.31 
L 356.190083 263.31 
L 357.214876 262.26 
L 359.264463 262.26 
L 360.289256 261.21 
L 361.31405 261.21 
L 362.338843 260.16 
L 369.512397 260.16 
L 370.53719 259.11 
L 376.68595 259.11 
L 377.710744 258.06 
L 393.082645 258.06 
L 394.107438 257.01 
L 416.652893 257.01 
L 417.677686 255.96 
L 427.92562 255.96 
L 428.950413 254.91 
L 445.347107 254.91 
L 447.396694 252.81 
L 465.842975 252.81 
L 466.867769 251.76 
L 467.892562 249.66 
L 488.38843 249.66 
L 489.413223 248.61 
L 491.46281 248.61 
L 492.487603 247.56 
L 498.636364 247.56 
L 499.661157 246.51 
L 502.735537 246.51 
L 504.785124 244.41 
L 506.834711 244.41 
L 507.859504 243.36 
L 511.958678 243.36 
L 512.983471 241.26 
L 516.057851 241.26 
L 517.082645 240.21 
L 518.107438 240.21 
L 520.157025 238.11 
L 533.479339 238.11 
L 534.504132 237.06 
L 546.801653 237.06 
L 547.826446 234.96 
L 556.024793 234.96 
L 558.07438 232.86 
L 568.322314 232.86 
L 571.396694 229.71 
L 574.471074 229.71 
L 575.495868 228.66 
L 577.545455 228.66 
L 578.570248 227.61 
L 587.793388 227.61 
L 588.818182 226.56 
L 598.041322 226.56 
L 599.066116 225.51 
L 606.239669 225.51 
L 608.289256 223.41 
L 615.46281 223.41 
L 616.487603 222.36 
L 622.636364 222.36 
L 622.636364 222.36 
" clip-path="url(#p3fd3110f75)" style="fill: none; stroke: #2ca02c; stroke-width: 1.5; stroke-linecap: square"/>
   </g>
   <g id="line2d_36">
    <path d="M 115.363636 369.36 
L 368.487603 369.36 
L 369.512397 368.31 
L 586.768595 368.31 
L 587.793388 367.26 
L 622.636364 367.26 
L 622.636364 367.26 
" clip-path="url(#p3fd3110f75)" style="fill: none; stroke: #d62728; stroke-width: 1.5; stroke-linecap: square"/>
   </g>
   <g id="line2d_37">
    <path d="M 115.363636 346.26 
L 118.438017 346.26 
L 119.46281 345.21 
L 125.61157 345.21 
L 126.636364 344.16 
L 132.785124 344.16 
L 133.809917 343.11 
L 156.355372 343.11 
L 157.380165 342.06 
L 194.272727 342.06 
L 196.322314 339.96 
L 204.520661 339.96 
L 205.545455 338.91 
L 209.644628 338.91 
L 210.669421 337.86 
L 212.719008 337.86 
L 213.743802 336.81 
L 240.38843 336.81 
L 241.413223 335.76 
L 283.429752 335.76 
L 284.454545 334.71 
L 417.677686 334.71 
L 418.702479 333.66 
L 419.727273 333.66 
L 420.752066 332.61 
L 485.31405 332.61 
L 486.338843 331.56 
L 622.636364 331.56 
L 622.636364 331.56 
" clip-path="url(#p3fd3110f75)" style="fill: none; stroke: #9467bd; stroke-width: 1.5; stroke-linecap: square"/>
   </g>
   <g id="line2d_38">
    <path d="M 115.363636 354.66 
L 116.38843 354.66 
L 117.413223 353.61 
L 131.760331 353.61 
L 132.785124 352.56 
L 145.082645 352.56 
L 146.107438 351.51 
L 161.479339 351.51 
L 163.528926 349.41 
L 174.801653 349.41 
L 175.826446 348.36 
L 206.570248 348.36 
L 207.595041 347.31 
L 216.818182 347.31 
L 217.842975 346.26 
L 235.264463 346.26 
L 236.289256 345.21 
L 252.68595 345.21 
L 253.710744 344.16 
L 257.809917 344.16 
L 258.834711 343.11 
L 268.057851 343.11 
L 269.082645 342.06 
L 293.677686 342.06 
L 294.702479 341.01 
L 300.85124 341.01 
L 301.876033 339.96 
L 308.024793 339.96 
L 309.049587 338.91 
L 313.14876 338.91 
L 314.173554 337.86 
L 352.090909 337.86 
L 353.115702 336.81 
L 382.834711 336.81 
L 383.859504 335.76 
L 443.297521 335.76 
L 444.322314 334.71 
L 473.016529 334.71 
L 474.041322 333.66 
L 487.363636 333.66 
L 488.38843 332.61 
L 622.636364 332.61 
L 622.636364 332.61 
" clip-path="url(#p3fd3110f75)" style="fill: none; stroke: #8c564b; stroke-width: 1.5; stroke-linecap: square"/>
   </g>
   <g id="line2d_39">
    <path d="M 115.363636 276.96 
L 119.46281 276.96 
L 120.487603 275.91 
L 124.586777 275.91 
L 126.636364 273.81 
L 127.661157 273.81 
L 128.68595 272.76 
L 129.710744 272.76 
L 130.735537 271.71 
L 132.785124 271.71 
L 133.809917 270.66 
L 136.884298 270.66 
L 137.909091 269.61 
L 139.958678 269.61 
L 140.983471 268.56 
L 142.008264 268.56 
L 143.033058 267.51 
L 145.082645 267.51 
L 147.132231 265.41 
L 151.231405 265.41 
L 152.256198 264.36 
L 155.330579 264.36 
L 157.380165 262.26 
L 159.429752 262.26 
L 160.454545 261.21 
L 162.504132 261.21 
L 163.528926 260.16 
L 164.553719 258.06 
L 165.578512 254.91 
L 167.628099 254.91 
L 168.652893 253.86 
L 173.77686 253.86 
L 175.826446 251.76 
L 176.85124 249.66 
L 177.876033 248.61 
L 178.900826 248.61 
L 179.92562 246.51 
L 184.024793 246.51 
L 185.049587 245.46 
L 186.07438 245.46 
L 188.123967 243.36 
L 189.14876 243.36 
L 190.173554 242.31 
L 191.198347 242.31 
L 193.247934 240.21 
L 195.297521 240.21 
L 196.322314 238.11 
L 200.421488 238.11 
L 202.471074 236.01 
L 204.520661 236.01 
L 205.545455 234.96 
L 206.570248 232.86 
L 209.644628 232.86 
L 210.669421 231.81 
L 211.694215 231.81 
L 212.719008 229.71 
L 213.743802 229.71 
L 214.768595 228.66 
L 215.793388 228.66 
L 216.818182 227.61 
L 220.917355 227.61 
L 222.966942 225.51 
L 223.991736 225.51 
L 225.016529 223.41 
L 226.041322 223.41 
L 227.066116 222.36 
L 228.090909 222.36 
L 229.115702 221.31 
L 232.190083 221.31 
L 233.214876 220.26 
L 234.239669 220.26 
L 238.338843 216.06 
L 239.363636 213.96 
L 241.413223 213.96 
L 243.46281 209.76 
L 245.512397 209.76 
L 247.561983 207.66 
L 248.586777 207.66 
L 249.61157 205.56 
L 250.636364 205.56 
L 251.661157 204.51 
L 252.68595 204.51 
L 253.710744 203.46 
L 255.760331 203.46 
L 256.785124 202.41 
L 257.809917 202.41 
L 258.834711 201.36 
L 262.933884 201.36 
L 263.958678 196.11 
L 264.983471 196.11 
L 266.008264 195.06 
L 269.082645 195.06 
L 270.107438 194.01 
L 279.330579 194.01 
L 280.355372 191.91 
L 284.454545 191.91 
L 285.479339 190.86 
L 295.727273 190.86 
L 296.752066 188.76 
L 297.77686 187.71 
L 302.900826 187.71 
L 303.92562 186.66 
L 311.099174 186.66 
L 312.123967 185.61 
L 313.14876 185.61 
L 314.173554 184.56 
L 320.322314 184.56 
L 322.371901 182.46 
L 329.545455 182.46 
L 331.595041 180.36 
L 332.619835 180.36 
L 333.644628 179.31 
L 339.793388 179.31 
L 340.818182 178.26 
L 343.892562 178.26 
L 344.917355 177.21 
L 345.942149 175.11 
L 349.016529 175.11 
L 350.041322 174.06 
L 351.066116 174.06 
L 353.115702 171.96 
L 357.214876 171.96 
L 358.239669 170.91 
L 362.338843 170.91 
L 363.363636 169.86 
L 366.438017 169.86 
L 367.46281 168.81 
L 375.661157 168.81 
L 377.710744 166.71 
L 382.834711 166.71 
L 383.859504 165.66 
L 387.958678 165.66 
L 393.082645 160.41 
L 395.132231 160.41 
L 396.157025 159.36 
L 397.181818 159.36 
L 398.206612 157.26 
L 400.256198 155.16 
L 402.305785 150.96 
L 404.355372 150.96 
L 406.404959 146.76 
L 408.454545 146.76 
L 409.479339 144.66 
L 411.528926 142.56 
L 414.603306 142.56 
L 415.628099 141.51 
L 416.652893 141.51 
L 418.702479 139.41 
L 422.801653 139.41 
L 423.826446 138.36 
L 425.876033 138.36 
L 426.900826 137.31 
L 432.024793 137.31 
L 433.049587 135.21 
L 434.07438 134.16 
L 435.099174 134.16 
L 436.123967 133.11 
L 438.173554 133.11 
L 439.198347 132.06 
L 441.247934 132.06 
L 442.272727 129.96 
L 444.322314 129.96 
L 445.347107 128.91 
L 446.371901 128.91 
L 447.396694 127.86 
L 452.520661 127.86 
L 453.545455 126.81 
L 458.669421 126.81 
L 459.694215 125.76 
L 460.719008 125.76 
L 461.743802 123.66 
L 463.793388 121.56 
L 464.818182 118.41 
L 465.842975 117.36 
L 466.867769 117.36 
L 467.892562 116.31 
L 468.917355 116.31 
L 469.942149 115.26 
L 474.041322 115.26 
L 475.066116 114.21 
L 477.115702 114.21 
L 478.140496 113.16 
L 480.190083 113.16 
L 482.239669 111.06 
L 485.31405 111.06 
L 486.338843 110.01 
L 491.46281 110.01 
L 492.487603 107.91 
L 497.61157 107.91 
L 498.636364 106.86 
L 501.710744 106.86 
L 502.735537 104.76 
L 506.834711 104.76 
L 507.859504 103.71 
L 517.082645 103.71 
L 518.107438 102.66 
L 520.157025 102.66 
L 521.181818 101.61 
L 528.355372 101.61 
L 529.380165 100.56 
L 530.404959 100.56 
L 531.429752 99.51 
L 532.454545 99.51 
L 533.479339 98.46 
L 539.628099 98.46 
L 541.677686 96.36 
L 556.024793 96.36 
L 557.049587 95.31 
L 558.07438 95.31 
L 560.123967 93.21 
L 561.14876 93.21 
L 562.173554 92.16 
L 574.471074 92.16 
L 575.495868 91.11 
L 576.520661 89.01 
L 578.570248 89.01 
L 579.595041 87.96 
L 584.719008 87.96 
L 585.743802 86.91 
L 586.768595 86.91 
L 588.818182 84.81 
L 593.942149 84.81 
L 594.966942 83.76 
L 598.041322 83.76 
L 599.066116 82.71 
L 601.115702 82.71 
L 602.140496 81.66 
L 604.190083 81.66 
L 605.214876 80.61 
L 606.239669 80.61 
L 607.264463 78.51 
L 614.438017 78.51 
L 615.46281 75.36 
L 616.487603 73.26 
L 617.512397 73.26 
L 621.61157 69.06 
L 622.636364 66.96 
L 622.636364 66.96 
" clip-path="url(#p3fd3110f75)" style="fill: none; stroke: #e377c2; stroke-width: 1.5; stroke-linecap: square"/>
   </g>
   <g id="line2d_40">
    <path d="M 115.363636 342.06 
L 116.38843 342.06 
L 118.438017 339.96 
L 123.561983 339.96 
L 124.586777 338.91 
L 125.61157 338.91 
L 127.661157 336.81 
L 129.710744 336.81 
L 130.735537 335.76 
L 133.809917 335.76 
L 134.834711 334.71 
L 135.859504 334.71 
L 136.884298 333.66 
L 137.909091 333.66 
L 139.958678 331.56 
L 143.033058 331.56 
L 144.057851 330.51 
L 146.107438 330.51 
L 148.157025 328.41 
L 150.206612 328.41 
L 152.256198 326.31 
L 153.280992 326.31 
L 154.305785 325.26 
L 155.330579 322.11 
L 159.429752 322.11 
L 163.528926 317.91 
L 164.553719 317.91 
L 166.603306 315.81 
L 167.628099 315.81 
L 168.652893 314.76 
L 169.677686 314.76 
L 170.702479 313.71 
L 179.92562 313.71 
L 180.950413 312.66 
L 191.198347 312.66 
L 193.247934 310.56 
L 196.322314 310.56 
L 197.347107 309.51 
L 199.396694 309.51 
L 201.446281 307.41 
L 203.495868 307.41 
L 204.520661 305.31 
L 207.595041 305.31 
L 208.619835 303.21 
L 209.644628 302.16 
L 214.768595 302.16 
L 215.793388 301.11 
L 216.818182 301.11 
L 218.867769 299.01 
L 223.991736 299.01 
L 225.016529 297.96 
L 226.041322 297.96 
L 227.066116 296.91 
L 233.214876 296.91 
L 234.239669 295.86 
L 237.31405 295.86 
L 238.338843 294.81 
L 239.363636 294.81 
L 240.38843 291.66 
L 241.413223 291.66 
L 242.438017 289.56 
L 243.46281 288.51 
L 244.487603 288.51 
L 246.53719 286.41 
L 248.586777 286.41 
L 249.61157 285.36 
L 251.661157 285.36 
L 252.68595 284.31 
L 253.710744 284.31 
L 254.735537 282.21 
L 255.760331 282.21 
L 256.785124 281.16 
L 258.834711 281.16 
L 260.884298 279.06 
L 261.909091 279.06 
L 262.933884 276.96 
L 263.958678 275.91 
L 271.132231 275.91 
L 272.157025 273.81 
L 275.231405 273.81 
L 276.256198 272.76 
L 277.280992 272.76 
L 278.305785 271.71 
L 281.380165 271.71 
L 282.404959 270.66 
L 287.528926 270.66 
L 288.553719 269.61 
L 290.603306 269.61 
L 291.628099 268.56 
L 296.752066 268.56 
L 297.77686 267.51 
L 307 267.51 
L 309.049587 265.41 
L 310.07438 265.41 
L 311.099174 264.36 
L 312.123967 264.36 
L 313.14876 263.31 
L 314.173554 263.31 
L 315.198347 262.26 
L 317.247934 262.26 
L 318.272727 261.21 
L 319.297521 261.21 
L 321.347107 259.11 
L 324.421488 259.11 
L 325.446281 258.06 
L 328.520661 258.06 
L 329.545455 257.01 
L 336.719008 257.01 
L 337.743802 255.96 
L 338.768595 255.96 
L 339.793388 254.91 
L 343.892562 254.91 
L 344.917355 252.81 
L 351.066116 252.81 
L 352.090909 251.76 
L 353.115702 251.76 
L 354.140496 249.66 
L 359.264463 249.66 
L 360.289256 248.61 
L 366.438017 248.61 
L 367.46281 247.56 
L 380.785124 247.56 
L 381.809917 246.51 
L 397.181818 246.51 
L 398.206612 245.46 
L 403.330579 245.46 
L 404.355372 244.41 
L 405.380165 244.41 
L 406.404959 243.36 
L 407.429752 243.36 
L 408.454545 241.26 
L 409.479339 241.26 
L 411.528926 239.16 
L 418.702479 239.16 
L 419.727273 238.11 
L 420.752066 238.11 
L 421.77686 237.06 
L 422.801653 237.06 
L 423.826446 236.01 
L 428.950413 236.01 
L 429.975207 234.96 
L 439.198347 234.96 
L 440.22314 233.91 
L 445.347107 233.91 
L 446.371901 232.86 
L 451.495868 232.86 
L 452.520661 231.81 
L 454.570248 231.81 
L 457.644628 228.66 
L 459.694215 228.66 
L 460.719008 226.56 
L 465.842975 226.56 
L 467.892562 224.46 
L 469.942149 224.46 
L 470.966942 223.41 
L 471.991736 223.41 
L 474.041322 221.31 
L 481.214876 221.31 
L 482.239669 220.26 
L 484.289256 220.26 
L 485.31405 219.21 
L 493.512397 219.21 
L 495.561983 217.11 
L 498.636364 217.11 
L 499.661157 216.06 
L 500.68595 216.06 
L 501.710744 212.91 
L 502.735537 211.86 
L 506.834711 211.86 
L 507.859504 209.76 
L 510.933884 209.76 
L 511.958678 208.71 
L 522.206612 208.71 
L 523.231405 207.66 
L 533.479339 207.66 
L 535.528926 205.56 
L 542.702479 205.56 
L 543.727273 204.51 
L 561.14876 204.51 
L 565.247934 200.31 
L 569.347107 200.31 
L 570.371901 199.26 
L 578.570248 199.26 
L 579.595041 198.21 
L 582.669421 198.21 
L 583.694215 197.16 
L 584.719008 197.16 
L 585.743802 196.11 
L 591.892562 196.11 
L 593.942149 194.01 
L 595.991736 194.01 
L 597.016529 192.96 
L 602.140496 192.96 
L 603.165289 191.91 
L 604.190083 191.91 
L 605.214876 189.81 
L 616.487603 189.81 
L 618.53719 187.71 
L 621.61157 187.71 
L 622.636364 186.66 
L 622.636364 186.66 
" clip-path="url(#p3fd3110f75)" style="fill: none; stroke: #7f7f7f; stroke-width: 1.5; stroke-linecap: square"/>
   </g>
   <g id="line2d_41">
    <path d="M 115.363636 348.36 
L 119.46281 348.36 
L 120.487603 347.31 
L 130.735537 347.31 
L 131.760331 346.26 
L 136.884298 346.26 
L 137.909091 345.21 
L 148.157025 345.21 
L 149.181818 344.16 
L 159.429752 344.16 
L 160.454545 343.11 
L 215.793388 343.11 
L 216.818182 342.06 
L 221.942149 342.06 
L 222.966942 341.01 
L 230.140496 341.01 
L 231.165289 339.96 
L 232.190083 339.96 
L 233.214876 336.81 
L 234.239669 335.76 
L 236.289256 335.76 
L 237.31405 334.71 
L 247.561983 334.71 
L 248.586777 333.66 
L 257.809917 333.66 
L 258.834711 332.61 
L 270.107438 332.61 
L 271.132231 331.56 
L 283.429752 331.56 
L 284.454545 330.51 
L 289.578512 330.51 
L 290.603306 329.46 
L 323.396694 329.46 
L 324.421488 328.41 
L 326.471074 328.41 
L 327.495868 327.36 
L 335.694215 327.36 
L 336.719008 326.31 
L 365.413223 326.31 
L 368.487603 323.16 
L 398.206612 323.16 
L 399.231405 322.11 
L 400.256198 322.11 
L 402.305785 320.01 
L 404.355372 320.01 
L 405.380165 318.96 
L 457.644628 318.96 
L 458.669421 317.91 
L 518.107438 317.91 
L 519.132231 316.86 
L 562.173554 316.86 
L 563.198347 315.81 
L 568.322314 315.81 
L 569.347107 314.76 
L 583.694215 314.76 
L 584.719008 313.71 
L 605.214876 313.71 
L 606.239669 312.66 
L 622.636364 312.66 
L 622.636364 312.66 
" clip-path="url(#p3fd3110f75)" style="fill: none; stroke: #bcbd22; stroke-width: 1.5; stroke-linecap: square"/>
   </g>
   <g id="line2d_42">
    <path d="M 115.363636 367.26 
L 166.603306 367.26 
L 167.628099 366.21 
L 232.190083 366.21 
L 233.214876 365.16 
L 337.743802 365.16 
L 338.768595 364.11 
L 339.793388 365.16 
L 463.793388 365.16 
L 464.818182 364.11 
L 471.991736 364.11 
L 473.016529 363.06 
L 498.636364 363.06 
L 499.661157 362.01 
L 622.636364 362.01 
L 622.636364 362.01 
" clip-path="url(#p3fd3110f75)" style="fill: none; stroke: #17becf; stroke-width: 1.5; stroke-linecap: square"/>
   </g>
   <g id="line2d_43">
    <path d="M 115.363636 369.36 
L 116.38843 368.31 
L 118.438017 368.31 
L 119.46281 367.26 
L 126.636364 367.26 
L 127.661157 366.21 
L 130.735537 366.21 
L 131.760331 365.16 
L 132.785124 365.16 
L 134.834711 363.06 
L 139.958678 363.06 
L 142.008264 360.96 
L 143.033058 360.96 
L 144.057851 359.91 
L 151.231405 359.91 
L 152.256198 358.86 
L 153.280992 356.76 
L 155.330579 356.76 
L 156.355372 355.71 
L 157.380165 355.71 
L 158.404959 354.66 
L 159.429752 354.66 
L 160.454545 353.61 
L 161.479339 353.61 
L 163.528926 351.51 
L 169.677686 351.51 
L 171.727273 349.41 
L 174.801653 349.41 
L 175.826446 348.36 
L 176.85124 348.36 
L 177.876033 346.26 
L 180.950413 346.26 
L 183 342.06 
L 189.14876 342.06 
L 190.173554 339.96 
L 191.198347 338.91 
L 194.272727 338.91 
L 195.297521 337.86 
L 196.322314 335.76 
L 198.371901 335.76 
L 199.396694 334.71 
L 213.743802 334.71 
L 214.768595 332.61 
L 221.942149 325.26 
L 232.190083 325.26 
L 235.264463 322.11 
L 237.31405 322.11 
L 238.338843 320.01 
L 240.38843 320.01 
L 241.413223 318.96 
L 244.487603 318.96 
L 245.512397 317.91 
L 246.53719 317.91 
L 247.561983 316.86 
L 248.586777 316.86 
L 250.636364 314.76 
L 263.958678 314.76 
L 266.008264 312.66 
L 274.206612 312.66 
L 275.231405 311.61 
L 278.305785 311.61 
L 280.355372 309.51 
L 283.429752 309.51 
L 284.454545 308.46 
L 286.504132 308.46 
L 287.528926 307.41 
L 292.652893 307.41 
L 293.677686 306.36 
L 294.702479 306.36 
L 295.727273 304.26 
L 296.752066 304.26 
L 297.77686 303.21 
L 302.900826 303.21 
L 303.92562 302.16 
L 305.975207 302.16 
L 307 301.11 
L 308.024793 301.11 
L 310.07438 299.01 
L 317.247934 299.01 
L 318.272727 297.96 
L 319.297521 297.96 
L 320.322314 296.91 
L 325.446281 296.91 
L 326.471074 294.81 
L 327.495868 293.76 
L 332.619835 293.76 
L 333.644628 292.71 
L 337.743802 292.71 
L 338.768595 290.61 
L 342.867769 290.61 
L 344.917355 288.51 
L 347.991736 288.51 
L 349.016529 287.46 
L 361.31405 287.46 
L 362.338843 285.36 
L 363.363636 284.31 
L 371.561983 284.31 
L 372.586777 283.26 
L 391.033058 283.26 
L 392.057851 282.21 
L 394.107438 282.21 
L 395.132231 281.16 
L 398.206612 281.16 
L 399.231405 280.11 
L 412.553719 280.11 
L 413.578512 278.01 
L 415.628099 278.01 
L 416.652893 276.96 
L 417.677686 276.96 
L 418.702479 275.91 
L 422.801653 275.91 
L 423.826446 274.86 
L 431 274.86 
L 432.024793 272.76 
L 433.049587 272.76 
L 434.07438 271.71 
L 439.198347 271.71 
L 440.22314 270.66 
L 445.347107 270.66 
L 447.396694 268.56 
L 449.446281 268.56 
L 450.471074 267.51 
L 452.520661 267.51 
L 453.545455 266.46 
L 454.570248 266.46 
L 455.595041 265.41 
L 462.768595 265.41 
L 463.793388 264.36 
L 487.363636 264.36 
L 488.38843 263.31 
L 493.512397 263.31 
L 494.53719 262.26 
L 505.809917 262.26 
L 506.834711 261.21 
L 551.92562 261.21 
L 552.950413 260.16 
L 559.099174 260.16 
L 560.123967 259.11 
L 561.14876 259.11 
L 562.173554 258.06 
L 575.495868 258.06 
L 576.520661 257.01 
L 595.991736 257.01 
L 597.016529 255.96 
L 601.115702 255.96 
L 602.140496 254.91 
L 607.264463 254.91 
L 608.289256 253.86 
L 614.438017 253.86 
L 615.46281 252.81 
L 621.61157 252.81 
L 622.636364 251.76 
L 622.636364 251.76 
" clip-path="url(#p3fd3110f75)" style="fill: none; stroke: #1f77b4; stroke-width: 1.5; stroke-linecap: square"/>
   </g>
   <g id="line2d_44">
    <path d="M 115.363636 330.51 
L 122.53719 330.51 
L 123.561983 329.46 
L 126.636364 329.46 
L 127.661157 328.41 
L 131.760331 328.41 
L 132.785124 327.36 
L 135.859504 327.36 
L 136.884298 326.31 
L 137.909091 326.31 
L 138.933884 325.26 
L 142.008264 325.26 
L 143.033058 324.21 
L 145.082645 324.21 
L 146.107438 323.16 
L 147.132231 323.16 
L 149.181818 321.06 
L 155.330579 321.06 
L 156.355372 320.01 
L 157.380165 320.01 
L 158.404959 318.96 
L 159.429752 318.96 
L 160.454545 316.86 
L 161.479339 313.71 
L 162.504132 312.66 
L 166.603306 312.66 
L 169.677686 309.51 
L 172.752066 309.51 
L 174.801653 307.41 
L 186.07438 307.41 
L 187.099174 304.26 
L 188.123967 304.26 
L 190.173554 300.06 
L 192.22314 297.96 
L 193.247934 297.96 
L 194.272727 295.86 
L 202.471074 295.86 
L 203.495868 293.76 
L 206.570248 293.76 
L 207.595041 292.71 
L 214.768595 292.71 
L 215.793388 291.66 
L 228.090909 291.66 
L 229.115702 290.61 
L 230.140496 290.61 
L 231.165289 289.56 
L 234.239669 289.56 
L 235.264463 288.51 
L 247.561983 288.51 
L 248.586777 287.46 
L 250.636364 287.46 
L 252.68595 283.26 
L 254.735537 283.26 
L 256.785124 281.16 
L 258.834711 281.16 
L 259.859504 280.11 
L 262.933884 280.11 
L 263.958678 279.06 
L 276.256198 279.06 
L 277.280992 278.01 
L 292.652893 278.01 
L 293.677686 276.96 
L 302.900826 276.96 
L 303.92562 275.91 
L 305.975207 275.91 
L 307 274.86 
L 310.07438 274.86 
L 312.123967 272.76 
L 313.14876 272.76 
L 314.173554 271.71 
L 318.272727 271.71 
L 320.322314 269.61 
L 325.446281 269.61 
L 326.471074 268.56 
L 329.545455 268.56 
L 330.570248 267.51 
L 335.694215 267.51 
L 336.719008 266.46 
L 341.842975 266.46 
L 342.867769 265.41 
L 361.31405 265.41 
L 362.338843 264.36 
L 363.363636 264.36 
L 364.38843 263.31 
L 374.636364 263.31 
L 375.661157 261.21 
L 376.68595 261.21 
L 377.710744 260.16 
L 387.958678 260.16 
L 388.983471 259.11 
L 393.082645 259.11 
L 394.107438 258.06 
L 395.132231 258.06 
L 396.157025 257.01 
L 405.380165 257.01 
L 406.404959 255.96 
L 426.900826 255.96 
L 427.92562 252.81 
L 435.099174 252.81 
L 436.123967 251.76 
L 438.173554 251.76 
L 439.198347 250.71 
L 451.495868 250.71 
L 452.520661 249.66 
L 466.867769 249.66 
L 467.892562 248.61 
L 470.966942 248.61 
L 471.991736 247.56 
L 480.190083 247.56 
L 481.214876 245.46 
L 497.61157 245.46 
L 498.636364 244.41 
L 503.760331 244.41 
L 504.785124 243.36 
L 520.157025 243.36 
L 521.181818 242.31 
L 523.231405 242.31 
L 524.256198 241.26 
L 534.504132 241.26 
L 535.528926 240.21 
L 546.801653 240.21 
L 547.826446 239.16 
L 561.14876 239.16 
L 562.173554 238.11 
L 574.471074 238.11 
L 575.495868 237.06 
L 582.669421 237.06 
L 583.694215 236.01 
L 593.942149 236.01 
L 597.016529 232.86 
L 599.066116 232.86 
L 600.090909 231.81 
L 601.115702 231.81 
L 603.165289 229.71 
L 607.264463 229.71 
L 608.289256 228.66 
L 610.338843 228.66 
L 611.363636 226.56 
L 612.38843 225.51 
L 622.636364 225.51 
L 622.636364 225.51 
" clip-path="url(#p3fd3110f75)" style="fill: none; stroke: #ff7f0e; stroke-width: 1.5; stroke-linecap: square"/>
   </g>
   <g id="patch_3">
    <path d="M 90 384.48 
L 90 51.84 
" style="fill: none; stroke: #000000; stroke-width: 0.8; stroke-linejoin: miter; stroke-linecap: square"/>
   </g>
   <g id="patch_4">
    <path d="M 648 384.48 
L 648 51.84 
" style="fill: none; stroke: #000000; stroke-width: 0.8; stroke-linejoin: miter; stroke-linecap: square"/>
   </g>
   <g id="patch_5">
    <path d="M 90 384.48 
L 648 384.48 
" style="fill: none; stroke: #000000; stroke-width: 0.8; stroke-linejoin: miter; stroke-linecap: square"/>
   </g>
   <g id="patch_6">
    <path d="M 90 51.84 
L 648 51.84 
" style="fill: none; stroke: #000000; stroke-width: 0.8; stroke-linejoin: miter; stroke-linecap: square"/>
   </g>
   <g id="text_19">
    <!-- Time Series of Votes for Each Keyword -->
    <g transform="translate(253.716563 45.84) scale(0.12 -0.12)">
     <defs>
      <path id="DejaVuSans-53" d="M 3425 4513 
L 3425 3897 
Q 3066 4069 2747 4153 
Q 2428 4238 2131 4238 
Q 1616 4238 1336 4038 
Q 1056 3838 1056 3469 
Q 1056 3159 1242 3001 
Q 1428 2844 1947 2747 
L 2328 2669 
Q 3034 2534 3370 2195 
Q 3706 1856 3706 1288 
Q 3706 609 3251 259 
Q 2797 -91 1919 -91 
Q 1588 -91 1214 -16 
Q 841 59 441 206 
L 441 856 
Q 825 641 1194 531 
Q 1563 422 1919 422 
Q 2459 422 2753 634 
Q 3047 847 3047 1241 
Q 3047 1584 2836 1778 
Q 2625 1972 2144 2069 
L 1759 2144 
Q 1053 2284 737 2584 
Q 422 2884 422 3419 
Q 422 4038 858 4394 
Q 1294 4750 2059 4750 
Q 2388 4750 2728 4690 
Q 3069 4631 3425 4513 
z
" transform="scale(0.015625)"/>
      <path id="DejaVuSans-72" d="M 2631 2963 
Q 2534 3019 2420 3045 
Q 2306 3072 2169 3072 
Q 1681 3072 1420 2755 
Q 1159 2438 1159 1844 
L 1159 0 
L 581 0 
L 581 3500 
L 1159 3500 
L 1159 2956 
Q 1341 3275 1631 3429 
Q 1922 3584 2338 3584 
Q 2397 3584 2469 3576 
Q 2541 3569 2628 3553 
L 2631 2963 
z
" transform="scale(0.015625)"/>
      <path id="DejaVuSans-66" d="M 2375 4863 
L 2375 4384 
L 1825 4384 
Q 1516 4384 1395 4259 
Q 1275 4134 1275 3809 
L 1275 3500 
L 2222 3500 
L 2222 3053 
L 1275 3053 
L 1275 0 
L 697 0 
L 697 3053 
L 147 3053 
L 147 3500 
L 697 3500 
L 697 3744 
Q 697 4328 969 4595 
Q 1241 4863 1831 4863 
L 2375 4863 
z
" transform="scale(0.015625)"/>
      <path id="DejaVuSans-45" d="M 628 4666 
L 3578 4666 
L 3578 4134 
L 1259 4134 
L 1259 2753 
L 3481 2753 
L 3481 2222 
L 1259 2222 
L 1259 531 
L 3634 531 
L 3634 0 
L 628 0 
L 628 4666 
z
" transform="scale(0.015625)"/>
      <path id="DejaVuSans-63" d="M 3122 3366 
L 3122 2828 
Q 2878 2963 2633 3030 
Q 2388 3097 2138 3097 
Q 1578 3097 1268 2742 
Q 959 2388 959 1747 
Q 959 1106 1268 751 
Q 1578 397 2138 397 
Q 2388 397 2633 464 
Q 2878 531 3122 666 
L 3122 134 
Q 2881 22 2623 -34 
Q 2366 -91 2075 -91 
Q 1284 -91 818 406 
Q 353 903 353 1747 
Q 353 2603 823 3093 
Q 1294 3584 2113 3584 
Q 2378 3584 2631 3529 
Q 2884 3475 3122 3366 
z
" transform="scale(0.015625)"/>
      <path id="DejaVuSans-68" d="M 3513 2113 
L 3513 0 
L 2938 0 
L 2938 2094 
Q 2938 2591 2744 2837 
Q 2550 3084 2163 3084 
Q 1697 3084 1428 2787 
Q 1159 2491 1159 1978 
L 1159 0 
L 581 0 
L 581 4863 
L 1159 4863 
L 1159 2956 
Q 1366 3272 1645 3428 
Q 1925 3584 2291 3584 
Q 2894 3584 3203 3211 
Q 3513 2838 3513 2113 
z
" transform="scale(0.015625)"/>
      <path id="DejaVuSans-4b" d="M 628 4666 
L 1259 4666 
L 1259 2694 
L 3353 4666 
L 4166 4666 
L 1850 2491 
L 4331 0 
L 3500 0 
L 1259 2247 
L 1259 0 
L 628 0 
L 628 4666 
z
" transform="scale(0.015625)"/>
      <path id="DejaVuSans-79" d="M 2059 -325 
Q 1816 -950 1584 -1140 
Q 1353 -1331 966 -1331 
L 506 -1331 
L 506 -850 
L 844 -850 
Q 1081 -850 1212 -737 
Q 1344 -625 1503 -206 
L 1606 56 
L 191 3500 
L 800 3500 
L 1894 763 
L 2988 3500 
L 3597 3500 
L 2059 -325 
z
" transform="scale(0.015625)"/>
      <path id="DejaVuSans-77" d="M 269 3500 
L 844 3500 
L 1563 769 
L 2278 3500 
L 2956 3500 
L 3675 769 
L 4391 3500 
L 4966 3500 
L 4050 0 
L 3372 0 
L 2619 2869 
L 1863 0 
L 1184 0 
L 269 3500 
z
" transform="scale(0.015625)"/>
     </defs>
     <use xlink:href="#DejaVuSans-54"/>
     <use xlink:href="#DejaVuSans-69" transform="translate(57.958984 0)"/>
     <use xlink:href="#DejaVuSans-6d" transform="translate(85.742188 0)"/>
     <use xlink:href="#DejaVuSans-65" transform="translate(183.154297 0)"/>
     <use xlink:href="#DejaVuSans-20" transform="translate(244.677734 0)"/>
     <use xlink:href="#DejaVuSans-53" transform="translate(276.464844 0)"/>
     <use xlink:href="#DejaVuSans-65" transform="translate(339.941406 0)"/>
     <use xlink:href="#DejaVuSans-72" transform="translate(401.464844 0)"/>
     <use xlink:href="#DejaVuSans-69" transform="translate(442.578125 0)"/>
     <use xlink:href="#DejaVuSans-65" transform="translate(470.361328 0)"/>
     <use xlink:href="#DejaVuSans-73" transform="translate(531.884766 0)"/>
     <use xlink:href="#DejaVuSans-20" transform="translate(583.984375 0)"/>
     <use xlink:href="#DejaVuSans-6f" transform="translate(615.771484 0)"/>
     <use xlink:href="#DejaVuSans-66" transform="translate(676.953125 0)"/>
     <use xlink:href="#DejaVuSans-20" transform="translate(712.158203 0)"/>
     <use xlink:href="#DejaVuSans-56" transform="translate(743.945312 0)"/>
     <use xlink:href="#DejaVuSans-6f" transform="translate(804.603516 0)"/>
     <use xlink:href="#DejaVuSans-74" transform="translate(865.785156 0)"/>
     <use xlink:href="#DejaVuSans-65" transform="translate(904.994141 0)"/>
     <use xlink:href="#DejaVuSans-73" transform="translate(966.517578 0)"/>
     <use xlink:href="#DejaVuSans-20" transform="translate(1018.617188 0)"/>
     <use xlink:href="#DejaVuSans-66" transform="translate(1050.404297 0)"/>
     <use xlink:href="#DejaVuSans-6f" transform="translate(1085.609375 0)"/>
     <use xlink:href="#DejaVuSans-72" transform="translate(1146.791016 0)"/>
     <use xlink:href="#DejaVuSans-20" transform="translate(1187.904297 0)"/>
     <use xlink:href="#DejaVuSans-45" transform="translate(1219.691406 0)"/>
     <use xlink:href="#DejaVuSans-61" transform="translate(1282.875 0)"/>
     <use xlink:href="#DejaVuSans-63" transform="translate(1344.154297 0)"/>
     <use xlink:href="#DejaVuSans-68" transform="translate(1399.134766 0)"/>
     <use xlink:href="#DejaVuSans-20" transform="translate(1462.513672 0)"/>
     <use xlink:href="#DejaVuSans-4b" transform="translate(1494.300781 0)"/>
     <use xlink:href="#DejaVuSans-65" transform="translate(1554.876953 0)"/>
     <use xlink:href="#DejaVuSans-79" transform="translate(1616.400391 0)"/>
     <use xlink:href="#DejaVuSans-77" transform="translate(1675.580078 0)"/>
     <use xlink:href="#DejaVuSans-6f" transform="translate(1757.367188 0)"/>
     <use xlink:href="#DejaVuSans-72" transform="translate(1818.548828 0)"/>
     <use xlink:href="#DejaVuSans-64" transform="translate(1857.912109 0)"/>
    </g>
   </g>
   <g id="legend_1">
    <g id="patch_7">
     <path d="M 97 235.9775 
L 149.245313 235.9775 
Q 151.245313 235.9775 151.245313 233.9775 
L 151.245313 58.84 
Q 151.245313 56.84 149.245313 56.84 
L 97 56.84 
Q 95 56.84 95 58.84 
L 95 233.9775 
Q 95 235.9775 97 235.9775 
z
" style="fill: #ffffff; opacity: 0.8; stroke: #cccccc; stroke-linejoin: miter"/>
    </g>
    <g id="line2d_45">
     <path d="M 99 64.938437 
L 109 64.938437 
L 119 64.938437 
" style="fill: none; stroke: #1f77b4; stroke-width: 1.5; stroke-linecap: square"/>
    </g>
    <g id="text_20">
     <!-- H01 -->
     <g transform="translate(127 68.438437) scale(0.1 -0.1)">
      <defs>
       <path id="DejaVuSans-48" d="M 628 4666 
L 1259 4666 
L 1259 2753 
L 3553 2753 
L 3553 4666 
L 4184 4666 
L 4184 0 
L 3553 0 
L 3553 2222 
L 1259 2222 
L 1259 0 
L 628 0 
L 628 4666 
z
" transform="scale(0.015625)"/>
      </defs>
      <use xlink:href="#DejaVuSans-48"/>
      <use xlink:href="#DejaVuSans-30" transform="translate(75.195312 0)"/>
      <use xlink:href="#DejaVuSans-31" transform="translate(138.818359 0)"/>
     </g>
    </g>
    <g id="line2d_46">
     <path d="M 99 79.616562 
L 109 79.616562 
L 119 79.616562 
" style="fill: none; stroke: #ff7f0e; stroke-width: 1.5; stroke-linecap: square"/>
    </g>
    <g id="text_21">
     <!-- H02 -->
     <g transform="translate(127 83.116562) scale(0.1 -0.1)">
      <use xlink:href="#DejaVuSans-48"/>
      <use xlink:href="#DejaVuSans-30" transform="translate(75.195312 0)"/>
      <use xlink:href="#DejaVuSans-32" transform="translate(138.818359 0)"/>
     </g>
    </g>
    <g id="line2d_47">
     <path d="M 99 94.294688 
L 109 94.294688 
L 119 94.294688 
" style="fill: none; stroke: #2ca02c; stroke-width: 1.5; stroke-linecap: square"/>
    </g>
    <g id="text_22">
     <!-- H03 -->
     <g transform="translate(127 97.794688) scale(0.1 -0.1)">
      <use xlink:href="#DejaVuSans-48"/>
      <use xlink:href="#DejaVuSans-30" transform="translate(75.195312 0)"/>
      <use xlink:href="#DejaVuSans-33" transform="translate(138.818359 0)"/>
     </g>
    </g>
    <g id="line2d_48">
     <path d="M 99 108.972812 
L 109 108.972812 
L 119 108.972812 
" style="fill: none; stroke: #d62728; stroke-width: 1.5; stroke-linecap: square"/>
    </g>
    <g id="text_23">
     <!-- H04 -->
     <g transform="translate(127 112.472812) scale(0.1 -0.1)">
      <use xlink:href="#DejaVuSans-48"/>
      <use xlink:href="#DejaVuSans-30" transform="translate(75.195312 0)"/>
      <use xlink:href="#DejaVuSans-34" transform="translate(138.818359 0)"/>
     </g>
    </g>
    <g id="line2d_49">
     <path d="M 99 123.650937 
L 109 123.650937 
L 119 123.650937 
" style="fill: none; stroke: #9467bd; stroke-width: 1.5; stroke-linecap: square"/>
    </g>
    <g id="text_24">
     <!-- H05 -->
     <g transform="translate(127 127.150937) scale(0.1 -0.1)">
      <use xlink:href="#DejaVuSans-48"/>
      <use xlink:href="#DejaVuSans-30" transform="translate(75.195312 0)"/>
      <use xlink:href="#DejaVuSans-35" transform="translate(138.818359 0)"/>
     </g>
    </g>
    <g id="line2d_50">
     <path d="M 99 138.329062 
L 109 138.329062 
L 119 138.329062 
" style="fill: none; stroke: #8c564b; stroke-width: 1.5; stroke-linecap: square"/>
    </g>
    <g id="text_25">
     <!-- H06 -->
     <g transform="translate(127 141.829062) scale(0.1 -0.1)">
      <use xlink:href="#DejaVuSans-48"/>
      <use xlink:href="#DejaVuSans-30" transform="translate(75.195312 0)"/>
      <use xlink:href="#DejaVuSans-36" transform="translate(138.818359 0)"/>
     </g>
    </g>
    <g id="line2d_51">
     <path d="M 99 153.007187 
L 109 153.007187 
L 119 153.007187 
" style="fill: none; stroke: #e377c2; stroke-width: 1.5; stroke-linecap: square"/>
    </g>
    <g id="text_26">
     <!-- H07 -->
     <g transform="translate(127 156.507187) scale(0.1 -0.1)">
      <use xlink:href="#DejaVuSans-48"/>
      <use xlink:href="#DejaVuSans-30" transform="translate(75.195312 0)"/>
      <use xlink:href="#DejaVuSans-37" transform="translate(138.818359 0)"/>
     </g>
    </g>
    <g id="line2d_52">
     <path d="M 99 167.685312 
L 109 167.685312 
L 119 167.685312 
" style="fill: none; stroke: #7f7f7f; stroke-width: 1.5; stroke-linecap: square"/>
    </g>
    <g id="text_27">
     <!-- H08 -->
     <g transform="translate(127 171.185312) scale(0.1 -0.1)">
      <use xlink:href="#DejaVuSans-48"/>
      <use xlink:href="#DejaVuSans-30" transform="translate(75.195312 0)"/>
      <use xlink:href="#DejaVuSans-38" transform="translate(138.818359 0)"/>
     </g>
    </g>
    <g id="line2d_53">
     <path d="M 99 182.363437 
L 109 182.363437 
L 119 182.363437 
" style="fill: none; stroke: #bcbd22; stroke-width: 1.5; stroke-linecap: square"/>
    </g>
    <g id="text_28">
     <!-- H09 -->
     <g transform="translate(127 185.863437) scale(0.1 -0.1)">
      <use xlink:href="#DejaVuSans-48"/>
      <use xlink:href="#DejaVuSans-30" transform="translate(75.195312 0)"/>
      <use xlink:href="#DejaVuSans-39" transform="translate(138.818359 0)"/>
     </g>
    </g>
    <g id="line2d_54">
     <path d="M 99 197.041562 
L 109 197.041562 
L 119 197.041562 
" style="fill: none; stroke: #17becf; stroke-width: 1.5; stroke-linecap: square"/>
    </g>
    <g id="text_29">
     <!-- H10 -->
     <g transform="translate(127 200.541562) scale(0.1 -0.1)">
      <use xlink:href="#DejaVuSans-48"/>
      <use xlink:href="#DejaVuSans-31" transform="translate(75.195312 0)"/>
      <use xlink:href="#DejaVuSans-30" transform="translate(138.818359 0)"/>
     </g>
    </g>
    <g id="line2d_55">
     <path d="M 99 211.719687 
L 109 211.719687 
L 119 211.719687 
" style="fill: none; stroke: #1f77b4; stroke-width: 1.5; stroke-linecap: square"/>
    </g>
    <g id="text_30">
     <!-- H11 -->
     <g transform="translate(127 215.219687) scale(0.1 -0.1)">
      <use xlink:href="#DejaVuSans-48"/>
      <use xlink:href="#DejaVuSans-31" transform="translate(75.195312 0)"/>
      <use xlink:href="#DejaVuSans-31" transform="translate(138.818359 0)"/>
     </g>
    </g>
    <g id="line2d_56">
     <path d="M 99 226.397812 
L 109 226.397812 
L 119 226.397812 
" style="fill: none; stroke: #ff7f0e; stroke-width: 1.5; stroke-linecap: square"/>
    </g>
    <g id="text_31">
     <!-- H12 -->
     <g transform="translate(127 229.897812) scale(0.1 -0.1)">
      <use xlink:href="#DejaVuSans-48"/>
      <use xlink:href="#DejaVuSans-31" transform="translate(75.195312 0)"/>
      <use xlink:href="#DejaVuSans-32" transform="translate(138.818359 0)"/>
     </g>
    </g>
   </g>
  </g>
 </g>
 <defs>
  <clipPath id="p3fd3110f75">
   <rect x="90" y="51.84" width="558" height="332.64"/>
  </clipPath>
 </defs>
</svg>
