<?xml version="1.0" encoding="utf-8" standalone="no"?>
<!DOCTYPE svg PUBLIC "-//W3C//DTD SVG 1.1//EN"
  "http://www.w3.org/Graphics/SVG/1.1/DTD/svg11.dtd">
<svg xmlns:xlink="http://www.w3.org/1999/xlink" width="720pt" height="432pt" viewBox="0 0 720 432" xmlns="http://www.w3.org/2000/svg" version="1.1">
 <metadata>
  <rdf:RDF xmlns:dc="http://purl.org/dc/elements/1.1/" xmlns:cc="http://creativecommons.org/ns#" xmlns:rdf="http://www.w3.org/1999/02/22-rdf-syntax-ns#">
   <cc:Work>
    <dc:type rdf:resource="http://purl.org/dc/dcmitype/StillImage"/>
    <dc:date>2025-01-14T22:23:23.703762</dc:date>
    <dc:format>image/svg+xml</dc:format>
    <dc:creator>
     <cc:Agent>
      <dc:title>Matplotlib v3.10.0, https://matplotlib.org/</dc:title>
     </cc:Agent>
    </dc:creator>
   </cc:Work>
  </rdf:RDF>
 </metadata>
 <defs>
  <style type="text/css">*{stroke-linejoin: round; stroke-linecap: butt}</style>
 </defs>
 <g id="figure_1">
  <g id="patch_1">
   <path d="M 0 432 
L 720 432 
L 720 0 
L 0 0 
z
" style="fill: #ffffff"/>
  </g>
  <g id="axes_1">
   <g id="patch_2">
    <path d="M 90 384.48 
L 648 384.48 
L 648 51.84 
L 90 51.84 
z
" style="fill: #ffffff"/>
   </g>
   <g id="matplotlib.axis_1">
    <g id="xtick_1">
     <g id="line2d_1">
      <path d="M 141.254683 384.48 
L 141.254683 51.84 
" clip-path="url(#p6e0825720e)" style="fill: none; stroke: #b0b0b0; stroke-width: 0.8; stroke-linecap: square"/>
     </g>
     <g id="line2d_2">
      <defs>
       <path id="m0c45f2b708" d="M 0 0 
L 0 3.5 
" style="stroke: #000000; stroke-width: 0.8"/>
      </defs>
      <g>
       <use xlink:href="#m0c45f2b708" x="141.254683" y="384.48" style="stroke: #000000; stroke-width: 0.8"/>
      </g>
     </g>
     <g id="text_1">
      <!-- 01-14 14 -->
      <g transform="translate(118.774214 399.078438) scale(0.1 -0.1)">
       <defs>
        <path id="DejaVuSans-30" d="M 2034 4250 
Q 1547 4250 1301 3770 
Q 1056 3291 1056 2328 
Q 1056 1369 1301 889 
Q 1547 409 2034 409 
Q 2525 409 2770 889 
Q 3016 1369 3016 2328 
Q 3016 3291 2770 3770 
Q 2525 4250 2034 4250 
z
M 2034 4750 
Q 2819 4750 3233 4129 
Q 3647 3509 3647 2328 
Q 3647 1150 3233 529 
Q 2819 -91 2034 -91 
Q 1250 -91 836 529 
Q 422 1150 422 2328 
Q 422 3509 836 4129 
Q 1250 4750 2034 4750 
z
" transform="scale(0.015625)"/>
        <path id="DejaVuSans-31" d="M 794 531 
L 1825 531 
L 1825 4091 
L 703 3866 
L 703 4441 
L 1819 4666 
L 2450 4666 
L 2450 531 
L 3481 531 
L 3481 0 
L 794 0 
L 794 531 
z
" transform="scale(0.015625)"/>
        <path id="DejaVuSans-2d" d="M 313 2009 
L 1997 2009 
L 1997 1497 
L 313 1497 
L 313 2009 
z
" transform="scale(0.015625)"/>
        <path id="DejaVuSans-34" d="M 2419 4116 
L 825 1625 
L 2419 1625 
L 2419 4116 
z
M 2253 4666 
L 3047 4666 
L 3047 1625 
L 3713 1625 
L 3713 1100 
L 3047 1100 
L 3047 0 
L 2419 0 
L 2419 1100 
L 313 1100 
L 313 1709 
L 2253 4666 
z
" transform="scale(0.015625)"/>
        <path id="DejaVuSans-20" transform="scale(0.015625)"/>
       </defs>
       <use xlink:href="#DejaVuSans-30"/>
       <use xlink:href="#DejaVuSans-31" transform="translate(63.623047 0)"/>
       <use xlink:href="#DejaVuSans-2d" transform="translate(127.246094 0)"/>
       <use xlink:href="#DejaVuSans-31" transform="translate(163.330078 0)"/>
       <use xlink:href="#DejaVuSans-34" transform="translate(226.953125 0)"/>
       <use xlink:href="#DejaVuSans-20" transform="translate(290.576172 0)"/>
       <use xlink:href="#DejaVuSans-31" transform="translate(322.363281 0)"/>
       <use xlink:href="#DejaVuSans-34" transform="translate(385.986328 0)"/>
      </g>
     </g>
    </g>
    <g id="xtick_2">
     <g id="line2d_3">
      <path d="M 198.790342 384.48 
L 198.790342 51.84 
" clip-path="url(#p6e0825720e)" style="fill: none; stroke: #b0b0b0; stroke-width: 0.8; stroke-linecap: square"/>
     </g>
     <g id="line2d_4">
      <g>
       <use xlink:href="#m0c45f2b708" x="198.790342" y="384.48" style="stroke: #000000; stroke-width: 0.8"/>
      </g>
     </g>
     <g id="text_2">
      <!-- 01-14 15 -->
      <g transform="translate(176.309873 399.078438) scale(0.1 -0.1)">
       <defs>
        <path id="DejaVuSans-35" d="M 691 4666 
L 3169 4666 
L 3169 4134 
L 1269 4134 
L 1269 2991 
Q 1406 3038 1543 3061 
Q 1681 3084 1819 3084 
Q 2600 3084 3056 2656 
Q 3513 2228 3513 1497 
Q 3513 744 3044 326 
Q 2575 -91 1722 -91 
Q 1428 -91 1123 -41 
Q 819 9 494 109 
L 494 744 
Q 775 591 1075 516 
Q 1375 441 1709 441 
Q 2250 441 2565 725 
Q 2881 1009 2881 1497 
Q 2881 1984 2565 2268 
Q 2250 2553 1709 2553 
Q 1456 2553 1204 2497 
Q 953 2441 691 2322 
L 691 4666 
z
" transform="scale(0.015625)"/>
       </defs>
       <use xlink:href="#DejaVuSans-30"/>
       <use xlink:href="#DejaVuSans-31" transform="translate(63.623047 0)"/>
       <use xlink:href="#DejaVuSans-2d" transform="translate(127.246094 0)"/>
       <use xlink:href="#DejaVuSans-31" transform="translate(163.330078 0)"/>
       <use xlink:href="#DejaVuSans-34" transform="translate(226.953125 0)"/>
       <use xlink:href="#DejaVuSans-20" transform="translate(290.576172 0)"/>
       <use xlink:href="#DejaVuSans-31" transform="translate(322.363281 0)"/>
       <use xlink:href="#DejaVuSans-35" transform="translate(385.986328 0)"/>
      </g>
     </g>
    </g>
    <g id="xtick_3">
     <g id="line2d_5">
      <path d="M 256.326001 384.48 
L 256.326001 51.84 
" clip-path="url(#p6e0825720e)" style="fill: none; stroke: #b0b0b0; stroke-width: 0.8; stroke-linecap: square"/>
     </g>
     <g id="line2d_6">
      <g>
       <use xlink:href="#m0c45f2b708" x="256.326001" y="384.48" style="stroke: #000000; stroke-width: 0.8"/>
      </g>
     </g>
     <g id="text_3">
      <!-- 01-14 16 -->
      <g transform="translate(233.845532 399.078438) scale(0.1 -0.1)">
       <defs>
        <path id="DejaVuSans-36" d="M 2113 2584 
Q 1688 2584 1439 2293 
Q 1191 2003 1191 1497 
Q 1191 994 1439 701 
Q 1688 409 2113 409 
Q 2538 409 2786 701 
Q 3034 994 3034 1497 
Q 3034 2003 2786 2293 
Q 2538 2584 2113 2584 
z
M 3366 4563 
L 3366 3988 
Q 3128 4100 2886 4159 
Q 2644 4219 2406 4219 
Q 1781 4219 1451 3797 
Q 1122 3375 1075 2522 
Q 1259 2794 1537 2939 
Q 1816 3084 2150 3084 
Q 2853 3084 3261 2657 
Q 3669 2231 3669 1497 
Q 3669 778 3244 343 
Q 2819 -91 2113 -91 
Q 1303 -91 875 529 
Q 447 1150 447 2328 
Q 447 3434 972 4092 
Q 1497 4750 2381 4750 
Q 2619 4750 2861 4703 
Q 3103 4656 3366 4563 
z
" transform="scale(0.015625)"/>
       </defs>
       <use xlink:href="#DejaVuSans-30"/>
       <use xlink:href="#DejaVuSans-31" transform="translate(63.623047 0)"/>
       <use xlink:href="#DejaVuSans-2d" transform="translate(127.246094 0)"/>
       <use xlink:href="#DejaVuSans-31" transform="translate(163.330078 0)"/>
       <use xlink:href="#DejaVuSans-34" transform="translate(226.953125 0)"/>
       <use xlink:href="#DejaVuSans-20" transform="translate(290.576172 0)"/>
       <use xlink:href="#DejaVuSans-31" transform="translate(322.363281 0)"/>
       <use xlink:href="#DejaVuSans-36" transform="translate(385.986328 0)"/>
      </g>
     </g>
    </g>
    <g id="xtick_4">
     <g id="line2d_7">
      <path d="M 313.86166 384.48 
L 313.86166 51.84 
" clip-path="url(#p6e0825720e)" style="fill: none; stroke: #b0b0b0; stroke-width: 0.8; stroke-linecap: square"/>
     </g>
     <g id="line2d_8">
      <g>
       <use xlink:href="#m0c45f2b708" x="313.86166" y="384.48" style="stroke: #000000; stroke-width: 0.8"/>
      </g>
     </g>
     <g id="text_4">
      <!-- 01-14 17 -->
      <g transform="translate(291.381191 399.078438) scale(0.1 -0.1)">
       <defs>
        <path id="DejaVuSans-37" d="M 525 4666 
L 3525 4666 
L 3525 4397 
L 1831 0 
L 1172 0 
L 2766 4134 
L 525 4134 
L 525 4666 
z
" transform="scale(0.015625)"/>
       </defs>
       <use xlink:href="#DejaVuSans-30"/>
       <use xlink:href="#DejaVuSans-31" transform="translate(63.623047 0)"/>
       <use xlink:href="#DejaVuSans-2d" transform="translate(127.246094 0)"/>
       <use xlink:href="#DejaVuSans-31" transform="translate(163.330078 0)"/>
       <use xlink:href="#DejaVuSans-34" transform="translate(226.953125 0)"/>
       <use xlink:href="#DejaVuSans-20" transform="translate(290.576172 0)"/>
       <use xlink:href="#DejaVuSans-31" transform="translate(322.363281 0)"/>
       <use xlink:href="#DejaVuSans-37" transform="translate(385.986328 0)"/>
      </g>
     </g>
    </g>
    <g id="xtick_5">
     <g id="line2d_9">
      <path d="M 371.397319 384.48 
L 371.397319 51.84 
" clip-path="url(#p6e0825720e)" style="fill: none; stroke: #b0b0b0; stroke-width: 0.8; stroke-linecap: square"/>
     </g>
     <g id="line2d_10">
      <g>
       <use xlink:href="#m0c45f2b708" x="371.397319" y="384.48" style="stroke: #000000; stroke-width: 0.8"/>
      </g>
     </g>
     <g id="text_5">
      <!-- 01-14 18 -->
      <g transform="translate(348.91685 399.078438) scale(0.1 -0.1)">
       <defs>
        <path id="DejaVuSans-38" d="M 2034 2216 
Q 1584 2216 1326 1975 
Q 1069 1734 1069 1313 
Q 1069 891 1326 650 
Q 1584 409 2034 409 
Q 2484 409 2743 651 
Q 3003 894 3003 1313 
Q 3003 1734 2745 1975 
Q 2488 2216 2034 2216 
z
M 1403 2484 
Q 997 2584 770 2862 
Q 544 3141 544 3541 
Q 544 4100 942 4425 
Q 1341 4750 2034 4750 
Q 2731 4750 3128 4425 
Q 3525 4100 3525 3541 
Q 3525 3141 3298 2862 
Q 3072 2584 2669 2484 
Q 3125 2378 3379 2068 
Q 3634 1759 3634 1313 
Q 3634 634 3220 271 
Q 2806 -91 2034 -91 
Q 1263 -91 848 271 
Q 434 634 434 1313 
Q 434 1759 690 2068 
Q 947 2378 1403 2484 
z
M 1172 3481 
Q 1172 3119 1398 2916 
Q 1625 2713 2034 2713 
Q 2441 2713 2670 2916 
Q 2900 3119 2900 3481 
Q 2900 3844 2670 4047 
Q 2441 4250 2034 4250 
Q 1625 4250 1398 4047 
Q 1172 3844 1172 3481 
z
" transform="scale(0.015625)"/>
       </defs>
       <use xlink:href="#DejaVuSans-30"/>
       <use xlink:href="#DejaVuSans-31" transform="translate(63.623047 0)"/>
       <use xlink:href="#DejaVuSans-2d" transform="translate(127.246094 0)"/>
       <use xlink:href="#DejaVuSans-31" transform="translate(163.330078 0)"/>
       <use xlink:href="#DejaVuSans-34" transform="translate(226.953125 0)"/>
       <use xlink:href="#DejaVuSans-20" transform="translate(290.576172 0)"/>
       <use xlink:href="#DejaVuSans-31" transform="translate(322.363281 0)"/>
       <use xlink:href="#DejaVuSans-38" transform="translate(385.986328 0)"/>
      </g>
     </g>
    </g>
    <g id="xtick_6">
     <g id="line2d_11">
      <path d="M 428.932978 384.48 
L 428.932978 51.84 
" clip-path="url(#p6e0825720e)" style="fill: none; stroke: #b0b0b0; stroke-width: 0.8; stroke-linecap: square"/>
     </g>
     <g id="line2d_12">
      <g>
       <use xlink:href="#m0c45f2b708" x="428.932978" y="384.48" style="stroke: #000000; stroke-width: 0.8"/>
      </g>
     </g>
     <g id="text_6">
      <!-- 01-14 19 -->
      <g transform="translate(406.452509 399.078438) scale(0.1 -0.1)">
       <defs>
        <path id="DejaVuSans-39" d="M 703 97 
L 703 672 
Q 941 559 1184 500 
Q 1428 441 1663 441 
Q 2288 441 2617 861 
Q 2947 1281 2994 2138 
Q 2813 1869 2534 1725 
Q 2256 1581 1919 1581 
Q 1219 1581 811 2004 
Q 403 2428 403 3163 
Q 403 3881 828 4315 
Q 1253 4750 1959 4750 
Q 2769 4750 3195 4129 
Q 3622 3509 3622 2328 
Q 3622 1225 3098 567 
Q 2575 -91 1691 -91 
Q 1453 -91 1209 -44 
Q 966 3 703 97 
z
M 1959 2075 
Q 2384 2075 2632 2365 
Q 2881 2656 2881 3163 
Q 2881 3666 2632 3958 
Q 2384 4250 1959 4250 
Q 1534 4250 1286 3958 
Q 1038 3666 1038 3163 
Q 1038 2656 1286 2365 
Q 1534 2075 1959 2075 
z
" transform="scale(0.015625)"/>
       </defs>
       <use xlink:href="#DejaVuSans-30"/>
       <use xlink:href="#DejaVuSans-31" transform="translate(63.623047 0)"/>
       <use xlink:href="#DejaVuSans-2d" transform="translate(127.246094 0)"/>
       <use xlink:href="#DejaVuSans-31" transform="translate(163.330078 0)"/>
       <use xlink:href="#DejaVuSans-34" transform="translate(226.953125 0)"/>
       <use xlink:href="#DejaVuSans-20" transform="translate(290.576172 0)"/>
       <use xlink:href="#DejaVuSans-31" transform="translate(322.363281 0)"/>
       <use xlink:href="#DejaVuSans-39" transform="translate(385.986328 0)"/>
      </g>
     </g>
    </g>
    <g id="xtick_7">
     <g id="line2d_13">
      <path d="M 486.468637 384.48 
L 486.468637 51.84 
" clip-path="url(#p6e0825720e)" style="fill: none; stroke: #b0b0b0; stroke-width: 0.8; stroke-linecap: square"/>
     </g>
     <g id="line2d_14">
      <g>
       <use xlink:href="#m0c45f2b708" x="486.468637" y="384.48" style="stroke: #000000; stroke-width: 0.8"/>
      </g>
     </g>
     <g id="text_7">
      <!-- 01-14 20 -->
      <g transform="translate(463.988168 399.078438) scale(0.1 -0.1)">
       <defs>
        <path id="DejaVuSans-32" d="M 1228 531 
L 3431 531 
L 3431 0 
L 469 0 
L 469 531 
Q 828 903 1448 1529 
Q 2069 2156 2228 2338 
Q 2531 2678 2651 2914 
Q 2772 3150 2772 3378 
Q 2772 3750 2511 3984 
Q 2250 4219 1831 4219 
Q 1534 4219 1204 4116 
Q 875 4013 500 3803 
L 500 4441 
Q 881 4594 1212 4672 
Q 1544 4750 1819 4750 
Q 2544 4750 2975 4387 
Q 3406 4025 3406 3419 
Q 3406 3131 3298 2873 
Q 3191 2616 2906 2266 
Q 2828 2175 2409 1742 
Q 1991 1309 1228 531 
z
" transform="scale(0.015625)"/>
       </defs>
       <use xlink:href="#DejaVuSans-30"/>
       <use xlink:href="#DejaVuSans-31" transform="translate(63.623047 0)"/>
       <use xlink:href="#DejaVuSans-2d" transform="translate(127.246094 0)"/>
       <use xlink:href="#DejaVuSans-31" transform="translate(163.330078 0)"/>
       <use xlink:href="#DejaVuSans-34" transform="translate(226.953125 0)"/>
       <use xlink:href="#DejaVuSans-20" transform="translate(290.576172 0)"/>
       <use xlink:href="#DejaVuSans-32" transform="translate(322.363281 0)"/>
       <use xlink:href="#DejaVuSans-30" transform="translate(385.986328 0)"/>
      </g>
     </g>
    </g>
    <g id="xtick_8">
     <g id="line2d_15">
      <path d="M 544.004296 384.48 
L 544.004296 51.84 
" clip-path="url(#p6e0825720e)" style="fill: none; stroke: #b0b0b0; stroke-width: 0.8; stroke-linecap: square"/>
     </g>
     <g id="line2d_16">
      <g>
       <use xlink:href="#m0c45f2b708" x="544.004296" y="384.48" style="stroke: #000000; stroke-width: 0.8"/>
      </g>
     </g>
     <g id="text_8">
      <!-- 01-14 21 -->
      <g transform="translate(521.523828 399.078438) scale(0.1 -0.1)">
       <use xlink:href="#DejaVuSans-30"/>
       <use xlink:href="#DejaVuSans-31" transform="translate(63.623047 0)"/>
       <use xlink:href="#DejaVuSans-2d" transform="translate(127.246094 0)"/>
       <use xlink:href="#DejaVuSans-31" transform="translate(163.330078 0)"/>
       <use xlink:href="#DejaVuSans-34" transform="translate(226.953125 0)"/>
       <use xlink:href="#DejaVuSans-20" transform="translate(290.576172 0)"/>
       <use xlink:href="#DejaVuSans-32" transform="translate(322.363281 0)"/>
       <use xlink:href="#DejaVuSans-31" transform="translate(385.986328 0)"/>
      </g>
     </g>
    </g>
    <g id="xtick_9">
     <g id="line2d_17">
      <path d="M 601.539955 384.48 
L 601.539955 51.84 
" clip-path="url(#p6e0825720e)" style="fill: none; stroke: #b0b0b0; stroke-width: 0.8; stroke-linecap: square"/>
     </g>
     <g id="line2d_18">
      <g>
       <use xlink:href="#m0c45f2b708" x="601.539955" y="384.48" style="stroke: #000000; stroke-width: 0.8"/>
      </g>
     </g>
     <g id="text_9">
      <!-- 01-14 22 -->
      <g transform="translate(579.059487 399.078438) scale(0.1 -0.1)">
       <use xlink:href="#DejaVuSans-30"/>
       <use xlink:href="#DejaVuSans-31" transform="translate(63.623047 0)"/>
       <use xlink:href="#DejaVuSans-2d" transform="translate(127.246094 0)"/>
       <use xlink:href="#DejaVuSans-31" transform="translate(163.330078 0)"/>
       <use xlink:href="#DejaVuSans-34" transform="translate(226.953125 0)"/>
       <use xlink:href="#DejaVuSans-20" transform="translate(290.576172 0)"/>
       <use xlink:href="#DejaVuSans-32" transform="translate(322.363281 0)"/>
       <use xlink:href="#DejaVuSans-32" transform="translate(385.986328 0)"/>
      </g>
     </g>
    </g>
    <g id="text_10">
     <!-- Date and Time -->
     <g transform="translate(332.230469 412.756563) scale(0.1 -0.1)">
      <defs>
       <path id="DejaVuSans-44" d="M 1259 4147 
L 1259 519 
L 2022 519 
Q 2988 519 3436 956 
Q 3884 1394 3884 2338 
Q 3884 3275 3436 3711 
Q 2988 4147 2022 4147 
L 1259 4147 
z
M 628 4666 
L 1925 4666 
Q 3281 4666 3915 4102 
Q 4550 3538 4550 2338 
Q 4550 1131 3912 565 
Q 3275 0 1925 0 
L 628 0 
L 628 4666 
z
" transform="scale(0.015625)"/>
       <path id="DejaVuSans-61" d="M 2194 1759 
Q 1497 1759 1228 1600 
Q 959 1441 959 1056 
Q 959 750 1161 570 
Q 1363 391 1709 391 
Q 2188 391 2477 730 
Q 2766 1069 2766 1631 
L 2766 1759 
L 2194 1759 
z
M 3341 1997 
L 3341 0 
L 2766 0 
L 2766 531 
Q 2569 213 2275 61 
Q 1981 -91 1556 -91 
Q 1019 -91 701 211 
Q 384 513 384 1019 
Q 384 1609 779 1909 
Q 1175 2209 1959 2209 
L 2766 2209 
L 2766 2266 
Q 2766 2663 2505 2880 
Q 2244 3097 1772 3097 
Q 1472 3097 1187 3025 
Q 903 2953 641 2809 
L 641 3341 
Q 956 3463 1253 3523 
Q 1550 3584 1831 3584 
Q 2591 3584 2966 3190 
Q 3341 2797 3341 1997 
z
" transform="scale(0.015625)"/>
       <path id="DejaVuSans-74" d="M 1172 4494 
L 1172 3500 
L 2356 3500 
L 2356 3053 
L 1172 3053 
L 1172 1153 
Q 1172 725 1289 603 
Q 1406 481 1766 481 
L 2356 481 
L 2356 0 
L 1766 0 
Q 1100 0 847 248 
Q 594 497 594 1153 
L 594 3053 
L 172 3053 
L 172 3500 
L 594 3500 
L 594 4494 
L 1172 4494 
z
" transform="scale(0.015625)"/>
       <path id="DejaVuSans-65" d="M 3597 1894 
L 3597 1613 
L 953 1613 
Q 991 1019 1311 708 
Q 1631 397 2203 397 
Q 2534 397 2845 478 
Q 3156 559 3463 722 
L 3463 178 
Q 3153 47 2828 -22 
Q 2503 -91 2169 -91 
Q 1331 -91 842 396 
Q 353 884 353 1716 
Q 353 2575 817 3079 
Q 1281 3584 2069 3584 
Q 2775 3584 3186 3129 
Q 3597 2675 3597 1894 
z
M 3022 2063 
Q 3016 2534 2758 2815 
Q 2500 3097 2075 3097 
Q 1594 3097 1305 2825 
Q 1016 2553 972 2059 
L 3022 2063 
z
" transform="scale(0.015625)"/>
       <path id="DejaVuSans-6e" d="M 3513 2113 
L 3513 0 
L 2938 0 
L 2938 2094 
Q 2938 2591 2744 2837 
Q 2550 3084 2163 3084 
Q 1697 3084 1428 2787 
Q 1159 2491 1159 1978 
L 1159 0 
L 581 0 
L 581 3500 
L 1159 3500 
L 1159 2956 
Q 1366 3272 1645 3428 
Q 1925 3584 2291 3584 
Q 2894 3584 3203 3211 
Q 3513 2838 3513 2113 
z
" transform="scale(0.015625)"/>
       <path id="DejaVuSans-64" d="M 2906 2969 
L 2906 4863 
L 3481 4863 
L 3481 0 
L 2906 0 
L 2906 525 
Q 2725 213 2448 61 
Q 2172 -91 1784 -91 
Q 1150 -91 751 415 
Q 353 922 353 1747 
Q 353 2572 751 3078 
Q 1150 3584 1784 3584 
Q 2172 3584 2448 3432 
Q 2725 3281 2906 2969 
z
M 947 1747 
Q 947 1113 1208 752 
Q 1469 391 1925 391 
Q 2381 391 2643 752 
Q 2906 1113 2906 1747 
Q 2906 2381 2643 2742 
Q 2381 3103 1925 3103 
Q 1469 3103 1208 2742 
Q 947 2381 947 1747 
z
" transform="scale(0.015625)"/>
       <path id="DejaVuSans-54" d="M -19 4666 
L 3928 4666 
L 3928 4134 
L 2272 4134 
L 2272 0 
L 1638 0 
L 1638 4134 
L -19 4134 
L -19 4666 
z
" transform="scale(0.015625)"/>
       <path id="DejaVuSans-69" d="M 603 3500 
L 1178 3500 
L 1178 0 
L 603 0 
L 603 3500 
z
M 603 4863 
L 1178 4863 
L 1178 4134 
L 603 4134 
L 603 4863 
z
" transform="scale(0.015625)"/>
       <path id="DejaVuSans-6d" d="M 3328 2828 
Q 3544 3216 3844 3400 
Q 4144 3584 4550 3584 
Q 5097 3584 5394 3201 
Q 5691 2819 5691 2113 
L 5691 0 
L 5113 0 
L 5113 2094 
Q 5113 2597 4934 2840 
Q 4756 3084 4391 3084 
Q 3944 3084 3684 2787 
Q 3425 2491 3425 1978 
L 3425 0 
L 2847 0 
L 2847 2094 
Q 2847 2600 2669 2842 
Q 2491 3084 2119 3084 
Q 1678 3084 1418 2786 
Q 1159 2488 1159 1978 
L 1159 0 
L 581 0 
L 581 3500 
L 1159 3500 
L 1159 2956 
Q 1356 3278 1631 3431 
Q 1906 3584 2284 3584 
Q 2666 3584 2933 3390 
Q 3200 3197 3328 2828 
z
" transform="scale(0.015625)"/>
      </defs>
      <use xlink:href="#DejaVuSans-44"/>
      <use xlink:href="#DejaVuSans-61" transform="translate(77.001953 0)"/>
      <use xlink:href="#DejaVuSans-74" transform="translate(138.28125 0)"/>
      <use xlink:href="#DejaVuSans-65" transform="translate(177.490234 0)"/>
      <use xlink:href="#DejaVuSans-20" transform="translate(239.013672 0)"/>
      <use xlink:href="#DejaVuSans-61" transform="translate(270.800781 0)"/>
      <use xlink:href="#DejaVuSans-6e" transform="translate(332.080078 0)"/>
      <use xlink:href="#DejaVuSans-64" transform="translate(395.458984 0)"/>
      <use xlink:href="#DejaVuSans-20" transform="translate(458.935547 0)"/>
      <use xlink:href="#DejaVuSans-54" transform="translate(490.722656 0)"/>
      <use xlink:href="#DejaVuSans-69" transform="translate(548.681641 0)"/>
      <use xlink:href="#DejaVuSans-6d" transform="translate(576.464844 0)"/>
      <use xlink:href="#DejaVuSans-65" transform="translate(673.876953 0)"/>
     </g>
    </g>
   </g>
   <g id="matplotlib.axis_2">
    <g id="ytick_1">
     <g id="line2d_19">
      <path d="M 90 370.351475 
L 648 370.351475 
" clip-path="url(#p6e0825720e)" style="fill: none; stroke: #b0b0b0; stroke-width: 0.8; stroke-linecap: square"/>
     </g>
     <g id="line2d_20">
      <defs>
       <path id="m752e6665b9" d="M 0 0 
L -3.5 0 
" style="stroke: #000000; stroke-width: 0.8"/>
      </defs>
      <g>
       <use xlink:href="#m752e6665b9" x="90" y="370.351475" style="stroke: #000000; stroke-width: 0.8"/>
      </g>
     </g>
     <g id="text_11">
      <!-- 0 -->
      <g transform="translate(76.6375 374.150694) scale(0.1 -0.1)">
       <use xlink:href="#DejaVuSans-30"/>
      </g>
     </g>
    </g>
    <g id="ytick_2">
     <g id="line2d_21">
      <path d="M 90 320.777705 
L 648 320.777705 
" clip-path="url(#p6e0825720e)" style="fill: none; stroke: #b0b0b0; stroke-width: 0.8; stroke-linecap: square"/>
     </g>
     <g id="line2d_22">
      <g>
       <use xlink:href="#m752e6665b9" x="90" y="320.777705" style="stroke: #000000; stroke-width: 0.8"/>
      </g>
     </g>
     <g id="text_12">
      <!-- 50 -->
      <g transform="translate(70.275 324.576924) scale(0.1 -0.1)">
       <use xlink:href="#DejaVuSans-35"/>
       <use xlink:href="#DejaVuSans-30" transform="translate(63.623047 0)"/>
      </g>
     </g>
    </g>
    <g id="ytick_3">
     <g id="line2d_23">
      <path d="M 90 271.203934 
L 648 271.203934 
" clip-path="url(#p6e0825720e)" style="fill: none; stroke: #b0b0b0; stroke-width: 0.8; stroke-linecap: square"/>
     </g>
     <g id="line2d_24">
      <g>
       <use xlink:href="#m752e6665b9" x="90" y="271.203934" style="stroke: #000000; stroke-width: 0.8"/>
      </g>
     </g>
     <g id="text_13">
      <!-- 100 -->
      <g transform="translate(63.9125 275.003153) scale(0.1 -0.1)">
       <use xlink:href="#DejaVuSans-31"/>
       <use xlink:href="#DejaVuSans-30" transform="translate(63.623047 0)"/>
       <use xlink:href="#DejaVuSans-30" transform="translate(127.246094 0)"/>
      </g>
     </g>
    </g>
    <g id="ytick_4">
     <g id="line2d_25">
      <path d="M 90 221.630164 
L 648 221.630164 
" clip-path="url(#p6e0825720e)" style="fill: none; stroke: #b0b0b0; stroke-width: 0.8; stroke-linecap: square"/>
     </g>
     <g id="line2d_26">
      <g>
       <use xlink:href="#m752e6665b9" x="90" y="221.630164" style="stroke: #000000; stroke-width: 0.8"/>
      </g>
     </g>
     <g id="text_14">
      <!-- 150 -->
      <g transform="translate(63.9125 225.429383) scale(0.1 -0.1)">
       <use xlink:href="#DejaVuSans-31"/>
       <use xlink:href="#DejaVuSans-35" transform="translate(63.623047 0)"/>
       <use xlink:href="#DejaVuSans-30" transform="translate(127.246094 0)"/>
      </g>
     </g>
    </g>
    <g id="ytick_5">
     <g id="line2d_27">
      <path d="M 90 172.056393 
L 648 172.056393 
" clip-path="url(#p6e0825720e)" style="fill: none; stroke: #b0b0b0; stroke-width: 0.8; stroke-linecap: square"/>
     </g>
     <g id="line2d_28">
      <g>
       <use xlink:href="#m752e6665b9" x="90" y="172.056393" style="stroke: #000000; stroke-width: 0.8"/>
      </g>
     </g>
     <g id="text_15">
      <!-- 200 -->
      <g transform="translate(63.9125 175.855612) scale(0.1 -0.1)">
       <use xlink:href="#DejaVuSans-32"/>
       <use xlink:href="#DejaVuSans-30" transform="translate(63.623047 0)"/>
       <use xlink:href="#DejaVuSans-30" transform="translate(127.246094 0)"/>
      </g>
     </g>
    </g>
    <g id="ytick_6">
     <g id="line2d_29">
      <path d="M 90 122.482623 
L 648 122.482623 
" clip-path="url(#p6e0825720e)" style="fill: none; stroke: #b0b0b0; stroke-width: 0.8; stroke-linecap: square"/>
     </g>
     <g id="line2d_30">
      <g>
       <use xlink:href="#m752e6665b9" x="90" y="122.482623" style="stroke: #000000; stroke-width: 0.8"/>
      </g>
     </g>
     <g id="text_16">
      <!-- 250 -->
      <g transform="translate(63.9125 126.281842) scale(0.1 -0.1)">
       <use xlink:href="#DejaVuSans-32"/>
       <use xlink:href="#DejaVuSans-35" transform="translate(63.623047 0)"/>
       <use xlink:href="#DejaVuSans-30" transform="translate(127.246094 0)"/>
      </g>
     </g>
    </g>
    <g id="ytick_7">
     <g id="line2d_31">
      <path d="M 90 72.908852 
L 648 72.908852 
" clip-path="url(#p6e0825720e)" style="fill: none; stroke: #b0b0b0; stroke-width: 0.8; stroke-linecap: square"/>
     </g>
     <g id="line2d_32">
      <g>
       <use xlink:href="#m752e6665b9" x="90" y="72.908852" style="stroke: #000000; stroke-width: 0.8"/>
      </g>
     </g>
     <g id="text_17">
      <!-- 300 -->
      <g transform="translate(63.9125 76.708071) scale(0.1 -0.1)">
       <defs>
        <path id="DejaVuSans-33" d="M 2597 2516 
Q 3050 2419 3304 2112 
Q 3559 1806 3559 1356 
Q 3559 666 3084 287 
Q 2609 -91 1734 -91 
Q 1441 -91 1130 -33 
Q 819 25 488 141 
L 488 750 
Q 750 597 1062 519 
Q 1375 441 1716 441 
Q 2309 441 2620 675 
Q 2931 909 2931 1356 
Q 2931 1769 2642 2001 
Q 2353 2234 1838 2234 
L 1294 2234 
L 1294 2753 
L 1863 2753 
Q 2328 2753 2575 2939 
Q 2822 3125 2822 3475 
Q 2822 3834 2567 4026 
Q 2313 4219 1838 4219 
Q 1578 4219 1281 4162 
Q 984 4106 628 3988 
L 628 4550 
Q 988 4650 1302 4700 
Q 1616 4750 1894 4750 
Q 2613 4750 3031 4423 
Q 3450 4097 3450 3541 
Q 3450 3153 3228 2886 
Q 3006 2619 2597 2516 
z
" transform="scale(0.015625)"/>
       </defs>
       <use xlink:href="#DejaVuSans-33"/>
       <use xlink:href="#DejaVuSans-30" transform="translate(63.623047 0)"/>
       <use xlink:href="#DejaVuSans-30" transform="translate(127.246094 0)"/>
      </g>
     </g>
    </g>
    <g id="text_18">
     <!-- Votes -->
     <g transform="translate(57.832812 231.893594) rotate(-90) scale(0.1 -0.1)">
      <defs>
       <path id="DejaVuSans-56" d="M 1831 0 
L 50 4666 
L 709 4666 
L 2188 738 
L 3669 4666 
L 4325 4666 
L 2547 0 
L 1831 0 
z
" transform="scale(0.015625)"/>
       <path id="DejaVuSans-6f" d="M 1959 3097 
Q 1497 3097 1228 2736 
Q 959 2375 959 1747 
Q 959 1119 1226 758 
Q 1494 397 1959 397 
Q 2419 397 2687 759 
Q 2956 1122 2956 1747 
Q 2956 2369 2687 2733 
Q 2419 3097 1959 3097 
z
M 1959 3584 
Q 2709 3584 3137 3096 
Q 3566 2609 3566 1747 
Q 3566 888 3137 398 
Q 2709 -91 1959 -91 
Q 1206 -91 779 398 
Q 353 888 353 1747 
Q 353 2609 779 3096 
Q 1206 3584 1959 3584 
z
" transform="scale(0.015625)"/>
       <path id="DejaVuSans-73" d="M 2834 3397 
L 2834 2853 
Q 2591 2978 2328 3040 
Q 2066 3103 1784 3103 
Q 1356 3103 1142 2972 
Q 928 2841 928 2578 
Q 928 2378 1081 2264 
Q 1234 2150 1697 2047 
L 1894 2003 
Q 2506 1872 2764 1633 
Q 3022 1394 3022 966 
Q 3022 478 2636 193 
Q 2250 -91 1575 -91 
Q 1294 -91 989 -36 
Q 684 19 347 128 
L 347 722 
Q 666 556 975 473 
Q 1284 391 1588 391 
Q 1994 391 2212 530 
Q 2431 669 2431 922 
Q 2431 1156 2273 1281 
Q 2116 1406 1581 1522 
L 1381 1569 
Q 847 1681 609 1914 
Q 372 2147 372 2553 
Q 372 3047 722 3315 
Q 1072 3584 1716 3584 
Q 2034 3584 2315 3537 
Q 2597 3491 2834 3397 
z
" transform="scale(0.015625)"/>
      </defs>
      <use xlink:href="#DejaVuSans-56"/>
      <use xlink:href="#DejaVuSans-6f" transform="translate(60.658203 0)"/>
      <use xlink:href="#DejaVuSans-74" transform="translate(121.839844 0)"/>
      <use xlink:href="#DejaVuSans-65" transform="translate(161.048828 0)"/>
      <use xlink:href="#DejaVuSans-73" transform="translate(222.572266 0)"/>
     </g>
    </g>
   </g>
   <g id="line2d_33">
    <path d="M 115.363636 352.504918 
L 124.952913 352.504918 
L 125.911841 351.513443 
L 135.501117 351.513443 
L 136.460045 349.530492 
L 145.090394 349.530492 
L 146.049321 348.539016 
L 150.843959 348.539016 
L 151.802887 347.547541 
L 155.638598 347.547541 
L 156.597525 346.556066 
L 159.474308 346.556066 
L 160.433236 345.56459 
L 173.858223 345.56459 
L 174.817151 344.573115 
L 185.365355 344.573115 
L 187.28321 342.590164 
L 189.201065 342.590164 
L 190.159993 341.598689 
L 198.790342 341.598689 
L 200.708197 339.615738 
L 212.215329 339.615738 
L 213.174257 338.624262 
L 216.05104 338.624262 
L 217.009967 337.632787 
L 217.968895 337.632787 
L 218.927823 336.641311 
L 244.818869 336.641311 
L 245.777797 335.649836 
L 257.284929 335.649836 
L 258.243856 334.658361 
L 264.95635 334.658361 
L 265.915278 333.666885 
L 266.874205 331.683934 
L 267.833133 331.683934 
L 269.750988 329.700984 
L 285.093831 329.700984 
L 286.052758 328.709508 
L 291.806324 328.709508 
L 292.765252 327.718033 
L 296.600962 327.718033 
L 297.55989 326.726557 
L 307.149167 326.726557 
L 308.108094 325.735082 
L 310.025949 325.735082 
L 310.984877 324.743607 
L 313.86166 324.743607 
L 314.820588 323.752131 
L 322.492009 323.752131 
L 323.450937 322.760656 
L 324.409864 322.760656 
L 325.368792 321.76918 
L 334.958068 321.76918 
L 335.916996 320.777705 
L 342.62949 320.777705 
L 343.588417 319.78623 
L 344.547345 319.78623 
L 346.4652 317.803279 
L 367.561609 317.803279 
L 368.520536 316.811803 
L 383.863379 316.811803 
L 384.822306 315.820328 
L 385.781234 315.820328 
L 386.740162 314.828852 
L 395.37051 314.828852 
L 396.329438 313.837377 
L 397.288366 313.837377 
L 398.247293 312.845902 
L 403.041932 312.845902 
L 404.000859 311.854426 
L 406.877642 311.854426 
L 408.795498 309.871475 
L 409.754425 309.871475 
L 410.713353 308.88 
L 412.631208 308.88 
L 413.590136 307.888525 
L 415.507991 307.888525 
L 416.466919 306.897049 
L 418.384774 306.897049 
L 419.343702 305.905574 
L 442.357965 305.905574 
L 443.316893 304.914098 
L 452.906169 304.914098 
L 453.865097 303.922623 
L 459.618663 303.922623 
L 460.577591 302.931148 
L 461.536518 302.931148 
L 462.495446 301.939672 
L 463.454374 301.939672 
L 467.290084 297.97377 
L 469.20794 297.97377 
L 470.166867 295.99082 
L 477.838288 295.99082 
L 479.756144 294.007869 
L 481.673999 294.007869 
L 482.632927 293.016393 
L 486.468637 293.016393 
L 487.427565 292.024918 
L 494.140058 292.024918 
L 495.098986 291.033443 
L 497.016841 291.033443 
L 497.975769 290.041967 
L 503.729335 290.041967 
L 505.64719 288.059016 
L 512.359684 288.059016 
L 513.318611 287.067541 
L 516.195394 287.067541 
L 517.154322 286.076066 
L 519.072177 286.076066 
L 520.031105 284.093115 
L 523.866816 284.093115 
L 524.825743 282.110164 
L 525.784671 281.118689 
L 529.620382 281.118689 
L 530.579309 279.135738 
L 537.291803 279.135738 
L 538.25073 278.144262 
L 542.086441 278.144262 
L 543.045369 277.152787 
L 545.922152 277.152787 
L 546.881079 276.161311 
L 547.840007 274.178361 
L 549.757862 274.178361 
L 550.71679 273.186885 
L 566.059632 273.186885 
L 567.977488 271.203934 
L 581.402475 271.203934 
L 582.361402 270.212459 
L 588.114968 270.212459 
L 589.073896 269.220984 
L 601.539955 269.220984 
L 602.498883 268.229508 
L 611.129232 268.229508 
L 612.088159 267.238033 
L 622.636364 267.238033 
L 622.636364 267.238033 
" clip-path="url(#p6e0825720e)" style="fill: none; stroke: #1f77b4; stroke-width: 1.5; stroke-linecap: square"/>
   </g>
   <g id="line2d_34">
    <path d="M 115.363636 289.050492 
L 116.322564 288.059016 
L 119.199347 288.059016 
L 120.158275 287.067541 
L 121.117202 287.067541 
L 122.07613 286.076066 
L 123.035058 286.076066 
L 124.952913 284.093115 
L 125.911841 282.110164 
L 126.870768 282.110164 
L 128.788623 280.127213 
L 129.747551 280.127213 
L 130.706479 276.161311 
L 131.665406 274.178361 
L 132.624334 270.212459 
L 133.583262 267.238033 
L 136.460045 267.238033 
L 137.418972 264.263607 
L 138.3779 262.280656 
L 140.295755 260.297705 
L 141.254683 258.314754 
L 143.172538 256.331803 
L 144.131466 254.348852 
L 147.008249 254.348852 
L 147.967176 249.391475 
L 148.926104 247.408525 
L 149.885032 246.417049 
L 150.843959 244.434098 
L 151.802887 243.442623 
L 152.761815 243.442623 
L 153.720742 240.468197 
L 154.67967 240.468197 
L 155.638598 238.485246 
L 156.597525 237.49377 
L 157.556453 237.49377 
L 158.515381 236.502295 
L 160.433236 236.502295 
L 161.392164 235.51082 
L 163.310019 235.51082 
L 164.268947 233.527869 
L 165.227874 233.527869 
L 166.186802 232.536393 
L 170.022512 232.536393 
L 170.98144 231.544918 
L 173.858223 231.544918 
L 174.817151 230.553443 
L 175.776078 230.553443 
L 176.735006 228.570492 
L 177.693934 228.570492 
L 178.652861 226.587541 
L 179.611789 225.596066 
L 182.488572 225.596066 
L 183.4475 223.613115 
L 184.406427 222.621639 
L 185.365355 219.647213 
L 187.28321 217.664262 
L 194.954631 217.664262 
L 195.913559 214.689836 
L 196.872487 214.689836 
L 198.790342 212.706885 
L 199.74927 212.706885 
L 202.626053 209.732459 
L 204.543908 209.732459 
L 205.502836 208.740984 
L 207.420691 208.740984 
L 210.297474 205.766557 
L 212.215329 205.766557 
L 213.174257 204.775082 
L 217.968895 204.775082 
L 218.927823 203.783607 
L 220.845678 203.783607 
L 221.804606 202.792131 
L 233.311737 202.792131 
L 234.270665 200.80918 
L 236.18852 200.80918 
L 238.106376 198.82623 
L 239.065303 198.82623 
L 240.024231 197.834754 
L 245.777797 197.834754 
L 248.65458 194.860328 
L 249.613507 194.860328 
L 250.572435 193.868852 
L 251.531363 191.885902 
L 252.49029 191.885902 
L 253.449218 190.894426 
L 254.408146 190.894426 
L 258.243856 186.928525 
L 260.161712 186.928525 
L 261.120639 184.945574 
L 263.997422 184.945574 
L 264.95635 183.954098 
L 267.833133 183.954098 
L 268.79206 182.962623 
L 269.750988 182.962623 
L 270.709916 179.988197 
L 273.586699 179.988197 
L 274.545626 178.996721 
L 275.504554 177.01377 
L 277.422409 177.01377 
L 278.381337 176.022295 
L 280.299192 176.022295 
L 281.25812 175.03082 
L 282.217048 175.03082 
L 287.011686 170.073443 
L 288.929541 170.073443 
L 291.806324 167.099016 
L 294.683107 167.099016 
L 295.642035 165.116066 
L 296.600962 165.116066 
L 297.55989 164.12459 
L 300.436673 164.12459 
L 301.395601 163.133115 
L 310.025949 163.133115 
L 310.984877 162.141639 
L 317.697371 162.141639 
L 318.656298 161.150164 
L 320.574154 161.150164 
L 322.492009 159.167213 
L 327.286647 159.167213 
L 328.245575 158.175738 
L 333.040213 158.175738 
L 335.916996 155.201311 
L 348.383056 155.201311 
L 349.341983 153.218361 
L 350.300911 152.226885 
L 373.315174 152.226885 
L 374.274102 151.23541 
L 380.027668 151.23541 
L 381.945523 149.252459 
L 383.863379 149.252459 
L 384.822306 148.260984 
L 385.781234 148.260984 
L 387.699089 146.278033 
L 388.658017 146.278033 
L 389.616944 145.286557 
L 390.575872 145.286557 
L 392.493727 141.320656 
L 393.452655 140.32918 
L 398.247293 140.32918 
L 399.206221 137.354754 
L 400.165149 135.371803 
L 402.083004 135.371803 
L 404.000859 133.388852 
L 408.795498 133.388852 
L 410.713353 131.405902 
L 412.631208 131.405902 
L 413.590136 130.414426 
L 415.507991 130.414426 
L 416.466919 129.422951 
L 417.425846 129.422951 
L 418.384774 128.431475 
L 419.343702 128.431475 
L 420.302629 127.44 
L 421.261557 127.44 
L 422.220485 126.448525 
L 424.13834 126.448525 
L 425.097268 124.465574 
L 429.891906 124.465574 
L 431.809761 122.482623 
L 441.399038 122.482623 
L 442.357965 121.491148 
L 443.316893 121.491148 
L 444.275821 120.499672 
L 445.234748 120.499672 
L 448.111531 117.525246 
L 450.029386 117.525246 
L 450.988314 116.53377 
L 470.166867 116.53377 
L 472.084722 114.55082 
L 475.920433 114.55082 
L 476.879361 113.559344 
L 477.838288 113.559344 
L 478.797216 112.567869 
L 479.756144 112.567869 
L 480.715071 111.576393 
L 501.81148 111.576393 
L 502.770407 110.584918 
L 521.94896 110.584918 
L 522.907888 108.601967 
L 529.620382 108.601967 
L 531.538237 106.619016 
L 533.456092 106.619016 
L 534.41502 105.627541 
L 536.332875 105.627541 
L 538.25073 103.64459 
L 540.168586 103.64459 
L 541.127513 101.661639 
L 548.798935 101.661639 
L 549.757862 100.670164 
L 554.5525 100.670164 
L 555.511428 99.678689 
L 561.264994 99.678689 
L 562.223922 98.687213 
L 568.936415 98.687213 
L 570.85427 96.704262 
L 571.813198 96.704262 
L 572.772126 95.712787 
L 578.525692 95.712787 
L 579.484619 94.721311 
L 583.32033 94.721311 
L 584.279258 93.729836 
L 585.238185 93.729836 
L 586.197113 92.738361 
L 600.581028 92.738361 
L 603.457811 89.763934 
L 614.006015 89.763934 
L 614.964942 88.772459 
L 618.800653 88.772459 
L 619.759581 86.789508 
L 622.636364 86.789508 
L 622.636364 86.789508 
" clip-path="url(#p6e0825720e)" style="fill: none; stroke: #ff7f0e; stroke-width: 1.5; stroke-linecap: square"/>
   </g>
   <g id="line2d_35">
    <path d="M 115.363636 339.615738 
L 119.199347 339.615738 
L 120.158275 337.632787 
L 122.07613 337.632787 
L 123.035058 336.641311 
L 123.993985 334.658361 
L 124.952913 333.666885 
L 125.911841 330.692459 
L 126.870768 328.709508 
L 127.829696 327.718033 
L 128.788623 327.718033 
L 129.747551 325.735082 
L 130.706479 322.760656 
L 134.542189 322.760656 
L 135.501117 321.76918 
L 136.460045 321.76918 
L 137.418972 319.78623 
L 140.295755 319.78623 
L 142.213611 317.803279 
L 146.049321 317.803279 
L 147.008249 316.811803 
L 150.843959 316.811803 
L 153.720742 313.837377 
L 158.515381 313.837377 
L 159.474308 312.845902 
L 162.351091 312.845902 
L 163.310019 311.854426 
L 165.227874 311.854426 
L 166.186802 309.871475 
L 173.858223 309.871475 
L 174.817151 308.88 
L 175.776078 306.897049 
L 176.735006 305.905574 
L 177.693934 305.905574 
L 178.652861 304.914098 
L 180.570717 304.914098 
L 181.529644 303.922623 
L 183.4475 303.922623 
L 184.406427 302.931148 
L 190.159993 302.931148 
L 191.118921 301.939672 
L 192.077848 301.939672 
L 193.036776 300.948197 
L 193.995704 300.948197 
L 194.954631 299.956721 
L 197.831414 299.956721 
L 198.790342 298.965246 
L 199.74927 296.982295 
L 204.543908 296.982295 
L 207.420691 294.007869 
L 210.297474 294.007869 
L 211.256401 293.016393 
L 215.092112 293.016393 
L 216.05104 292.024918 
L 217.009967 292.024918 
L 217.968895 291.033443 
L 219.88675 291.033443 
L 220.845678 290.041967 
L 223.722461 290.041967 
L 225.640316 288.059016 
L 226.599244 288.059016 
L 227.558172 287.067541 
L 235.229593 287.067541 
L 236.18852 285.08459 
L 237.147448 284.093115 
L 244.818869 284.093115 
L 245.777797 283.101639 
L 248.65458 283.101639 
L 249.613507 282.110164 
L 252.49029 282.110164 
L 253.449218 281.118689 
L 263.038495 281.118689 
L 263.997422 280.127213 
L 267.833133 280.127213 
L 268.79206 279.135738 
L 274.545626 279.135738 
L 275.504554 278.144262 
L 277.422409 278.144262 
L 278.381337 277.152787 
L 282.217048 277.152787 
L 284.134903 275.169836 
L 302.354528 275.169836 
L 303.313456 274.178361 
L 304.272384 274.178361 
L 305.231311 273.186885 
L 308.108094 273.186885 
L 309.067022 272.19541 
L 313.86166 272.19541 
L 314.820588 271.203934 
L 316.738443 271.203934 
L 317.697371 270.212459 
L 323.450937 270.212459 
L 324.409864 271.203934 
L 325.368792 270.212459 
L 332.081285 270.212459 
L 333.040213 269.220984 
L 340.711634 269.220984 
L 341.670562 268.229508 
L 343.588417 268.229508 
L 344.547345 267.238033 
L 345.506273 267.238033 
L 346.4652 266.246557 
L 353.177694 266.246557 
L 354.136621 265.255082 
L 359.890187 265.255082 
L 360.849115 264.263607 
L 375.23303 264.263607 
L 376.191957 263.272131 
L 397.288366 263.272131 
L 398.247293 262.280656 
L 407.83657 262.280656 
L 408.795498 261.28918 
L 424.13834 261.28918 
L 426.056195 259.30623 
L 443.316893 259.30623 
L 444.275821 258.314754 
L 445.234748 256.331803 
L 464.413301 256.331803 
L 465.372229 255.340328 
L 467.290084 255.340328 
L 468.249012 254.348852 
L 474.002578 254.348852 
L 474.961505 253.357377 
L 477.838288 253.357377 
L 479.756144 251.374426 
L 481.673999 251.374426 
L 482.632927 250.382951 
L 486.468637 250.382951 
L 487.427565 248.4 
L 490.304348 248.4 
L 491.263275 247.408525 
L 492.222203 247.408525 
L 494.140058 245.425574 
L 506.606118 245.425574 
L 507.565046 244.434098 
L 519.072177 244.434098 
L 520.031105 242.451148 
L 527.702526 242.451148 
L 529.620382 240.468197 
L 539.209658 240.468197 
L 542.086441 237.49377 
L 544.963224 237.49377 
L 545.922152 236.502295 
L 547.840007 236.502295 
L 548.798935 235.51082 
L 557.429283 235.51082 
L 558.388211 234.519344 
L 567.01856 234.519344 
L 567.977488 233.527869 
L 574.689981 233.527869 
L 576.607836 231.544918 
L 583.32033 231.544918 
L 584.279258 230.553443 
L 593.868534 230.553443 
L 594.827462 229.561967 
L 595.786389 229.561967 
L 596.745317 228.570492 
L 608.252449 228.570492 
L 609.211377 227.579016 
L 612.088159 227.579016 
L 613.047087 226.587541 
L 622.636364 226.587541 
L 622.636364 226.587541 
" clip-path="url(#p6e0825720e)" style="fill: none; stroke: #2ca02c; stroke-width: 1.5; stroke-linecap: square"/>
   </g>
   <g id="line2d_36">
    <path d="M 115.363636 369.36 
L 352.218766 369.36 
L 353.177694 368.368525 
L 556.470356 368.368525 
L 557.429283 367.377049 
L 622.636364 367.377049 
L 622.636364 367.377049 
" clip-path="url(#p6e0825720e)" style="fill: none; stroke: #d62728; stroke-width: 1.5; stroke-linecap: square"/>
   </g>
   <g id="line2d_37">
    <path d="M 115.363636 347.547541 
L 118.240419 347.547541 
L 119.199347 346.556066 
L 124.952913 346.556066 
L 125.911841 345.56459 
L 131.665406 345.56459 
L 132.624334 344.573115 
L 153.720742 344.573115 
L 154.67967 343.581639 
L 189.201065 343.581639 
L 191.118921 341.598689 
L 198.790342 341.598689 
L 199.74927 340.607213 
L 203.58498 340.607213 
L 204.543908 339.615738 
L 206.461763 339.615738 
L 207.420691 338.624262 
L 232.35281 338.624262 
L 233.311737 337.632787 
L 272.627771 337.632787 
L 273.586699 336.641311 
L 398.247293 336.641311 
L 399.206221 335.649836 
L 400.165149 335.649836 
L 401.124076 334.658361 
L 461.536518 334.658361 
L 462.495446 333.666885 
L 615.92387 333.666885 
L 616.882798 332.67541 
L 622.636364 332.67541 
L 622.636364 332.67541 
" clip-path="url(#p6e0825720e)" style="fill: none; stroke: #9467bd; stroke-width: 1.5; stroke-linecap: square"/>
   </g>
   <g id="line2d_38">
    <path d="M 115.363636 355.479344 
L 116.322564 355.479344 
L 117.281492 354.487869 
L 130.706479 354.487869 
L 131.665406 353.496393 
L 143.172538 353.496393 
L 144.131466 352.504918 
L 158.515381 352.504918 
L 160.433236 350.521967 
L 170.98144 350.521967 
L 171.940368 349.530492 
L 200.708197 349.530492 
L 201.667125 348.539016 
L 210.297474 348.539016 
L 211.256401 347.547541 
L 227.558172 347.547541 
L 228.517099 346.556066 
L 243.859942 346.556066 
L 244.818869 345.56459 
L 248.65458 345.56459 
L 249.613507 344.573115 
L 258.243856 344.573115 
L 259.202784 343.581639 
L 282.217048 343.581639 
L 283.175975 342.590164 
L 288.929541 342.590164 
L 289.888469 341.598689 
L 295.642035 341.598689 
L 296.600962 340.607213 
L 300.436673 340.607213 
L 301.395601 339.615738 
L 336.875924 339.615738 
L 337.834851 338.624262 
L 365.643753 338.624262 
L 366.602681 337.632787 
L 422.220485 337.632787 
L 423.179412 336.641311 
L 450.029386 336.641311 
L 450.988314 335.649836 
L 463.454374 335.649836 
L 464.413301 334.658361 
L 622.636364 334.658361 
L 622.636364 334.658361 
" clip-path="url(#p6e0825720e)" style="fill: none; stroke: #8c564b; stroke-width: 1.5; stroke-linecap: square"/>
   </g>
   <g id="line2d_39">
    <path d="M 115.363636 282.110164 
L 119.199347 282.110164 
L 120.158275 281.118689 
L 123.993985 281.118689 
L 125.911841 279.135738 
L 126.870768 279.135738 
L 127.829696 278.144262 
L 128.788623 278.144262 
L 129.747551 277.152787 
L 131.665406 277.152787 
L 132.624334 276.161311 
L 135.501117 276.161311 
L 136.460045 275.169836 
L 138.3779 275.169836 
L 139.336828 274.178361 
L 140.295755 274.178361 
L 141.254683 273.186885 
L 143.172538 273.186885 
L 145.090394 271.203934 
L 148.926104 271.203934 
L 149.885032 270.212459 
L 152.761815 270.212459 
L 154.67967 268.229508 
L 156.597525 268.229508 
L 157.556453 267.238033 
L 159.474308 267.238033 
L 160.433236 266.246557 
L 161.392164 264.263607 
L 162.351091 261.28918 
L 164.268947 261.28918 
L 165.227874 260.297705 
L 170.022512 260.297705 
L 171.940368 258.314754 
L 172.899295 256.331803 
L 173.858223 255.340328 
L 174.817151 255.340328 
L 175.776078 253.357377 
L 179.611789 253.357377 
L 180.570717 252.365902 
L 181.529644 252.365902 
L 183.4475 250.382951 
L 184.406427 250.382951 
L 185.365355 249.391475 
L 186.324283 249.391475 
L 188.242138 247.408525 
L 190.159993 247.408525 
L 191.118921 245.425574 
L 194.954631 245.425574 
L 196.872487 243.442623 
L 198.790342 243.442623 
L 199.74927 242.451148 
L 200.708197 240.468197 
L 203.58498 240.468197 
L 204.543908 239.476721 
L 205.502836 239.476721 
L 206.461763 237.49377 
L 207.420691 237.49377 
L 208.379618 236.502295 
L 209.338546 236.502295 
L 210.297474 235.51082 
L 214.133184 235.51082 
L 216.05104 233.527869 
L 217.009967 233.527869 
L 217.968895 231.544918 
L 218.927823 231.544918 
L 219.88675 230.553443 
L 220.845678 230.553443 
L 221.804606 229.561967 
L 224.681389 229.561967 
L 225.640316 228.570492 
L 226.599244 228.570492 
L 230.434954 224.60459 
L 231.393882 222.621639 
L 233.311737 222.621639 
L 235.229593 218.655738 
L 237.147448 218.655738 
L 239.065303 216.672787 
L 240.024231 216.672787 
L 240.983159 214.689836 
L 241.942086 214.689836 
L 242.901014 213.698361 
L 243.859942 213.698361 
L 244.818869 212.706885 
L 246.736725 212.706885 
L 247.695652 211.71541 
L 248.65458 211.71541 
L 249.613507 210.723934 
L 253.449218 210.723934 
L 254.408146 205.766557 
L 255.367073 205.766557 
L 256.326001 204.775082 
L 259.202784 204.775082 
L 260.161712 203.783607 
L 268.79206 203.783607 
L 269.750988 201.800656 
L 273.586699 201.800656 
L 274.545626 200.80918 
L 284.134903 200.80918 
L 285.093831 198.82623 
L 286.052758 197.834754 
L 290.847396 197.834754 
L 291.806324 196.843279 
L 298.518818 196.843279 
L 299.477745 195.851803 
L 300.436673 195.851803 
L 301.395601 194.860328 
L 307.149167 194.860328 
L 309.067022 192.877377 
L 315.779515 192.877377 
L 317.697371 190.894426 
L 318.656298 190.894426 
L 319.615226 189.902951 
L 325.368792 189.902951 
L 326.32772 188.911475 
L 329.204502 188.911475 
L 330.16343 187.92 
L 331.122358 185.937049 
L 333.999141 185.937049 
L 334.958068 184.945574 
L 335.916996 184.945574 
L 337.834851 182.962623 
L 341.670562 182.962623 
L 342.62949 181.971148 
L 346.4652 181.971148 
L 347.424128 180.979672 
L 350.300911 180.979672 
L 351.259838 179.988197 
L 358.93126 179.988197 
L 360.849115 178.005246 
L 365.643753 178.005246 
L 366.602681 177.01377 
L 370.438391 177.01377 
L 375.23303 172.056393 
L 377.150885 172.056393 
L 378.109813 171.064918 
L 379.06874 171.064918 
L 380.027668 169.081967 
L 381.945523 167.099016 
L 383.863379 163.133115 
L 385.781234 163.133115 
L 387.699089 159.167213 
L 389.616944 159.167213 
L 390.575872 157.184262 
L 392.493727 155.201311 
L 395.37051 155.201311 
L 396.329438 154.209836 
L 397.288366 154.209836 
L 399.206221 152.226885 
L 403.041932 152.226885 
L 404.000859 151.23541 
L 405.918715 151.23541 
L 406.877642 150.243934 
L 411.67228 150.243934 
L 412.631208 148.260984 
L 413.590136 147.269508 
L 414.549063 147.269508 
L 415.507991 146.278033 
L 417.425846 146.278033 
L 418.384774 145.286557 
L 420.302629 145.286557 
L 421.261557 143.303607 
L 423.179412 143.303607 
L 424.13834 142.312131 
L 425.097268 142.312131 
L 426.056195 141.320656 
L 430.850833 141.320656 
L 431.809761 140.32918 
L 436.604399 140.32918 
L 437.563327 139.337705 
L 438.522255 139.337705 
L 439.481182 137.354754 
L 441.399038 135.371803 
L 442.357965 132.397377 
L 443.316893 131.405902 
L 444.275821 131.405902 
L 445.234748 130.414426 
L 446.193676 130.414426 
L 447.152604 129.422951 
L 450.988314 129.422951 
L 451.947242 128.431475 
L 453.865097 128.431475 
L 454.824025 127.44 
L 456.74188 127.44 
L 458.659735 125.457049 
L 461.536518 125.457049 
L 462.495446 124.465574 
L 467.290084 124.465574 
L 468.249012 122.482623 
L 473.04365 122.482623 
L 474.002578 121.491148 
L 476.879361 121.491148 
L 477.838288 119.508197 
L 481.673999 119.508197 
L 482.632927 118.516721 
L 491.263275 118.516721 
L 492.222203 117.525246 
L 494.140058 117.525246 
L 495.098986 116.53377 
L 501.81148 116.53377 
L 502.770407 115.542295 
L 503.729335 115.542295 
L 504.688263 114.55082 
L 505.64719 114.55082 
L 506.606118 113.559344 
L 512.359684 113.559344 
L 514.277539 111.576393 
L 527.702526 111.576393 
L 528.661454 110.584918 
L 529.620382 110.584918 
L 531.538237 108.601967 
L 532.497164 108.601967 
L 533.456092 107.610492 
L 544.963224 107.610492 
L 545.922152 106.619016 
L 546.881079 104.636066 
L 548.798935 104.636066 
L 549.757862 103.64459 
L 554.5525 103.64459 
L 555.511428 102.653115 
L 556.470356 102.653115 
L 558.388211 100.670164 
L 563.182849 100.670164 
L 564.141777 99.678689 
L 567.01856 99.678689 
L 567.977488 98.687213 
L 569.895343 98.687213 
L 570.85427 97.695738 
L 572.772126 97.695738 
L 573.731053 96.704262 
L 574.689981 96.704262 
L 575.648909 94.721311 
L 582.361402 94.721311 
L 583.32033 91.746885 
L 584.279258 89.763934 
L 585.238185 89.763934 
L 589.073896 85.798033 
L 590.032824 83.815082 
L 591.950679 83.815082 
L 592.909606 81.832131 
L 600.581028 81.832131 
L 602.498883 79.84918 
L 603.457811 77.86623 
L 604.416738 76.874754 
L 607.293521 76.874754 
L 608.252449 74.891803 
L 609.211377 73.900328 
L 610.170304 73.900328 
L 611.129232 70.925902 
L 612.088159 69.934426 
L 616.882798 69.934426 
L 617.841725 67.951475 
L 618.800653 67.951475 
L 619.759581 66.96 
L 622.636364 66.96 
L 622.636364 66.96 
" clip-path="url(#p6e0825720e)" style="fill: none; stroke: #e377c2; stroke-width: 1.5; stroke-linecap: square"/>
   </g>
   <g id="line2d_40">
    <path d="M 115.363636 343.581639 
L 116.322564 343.581639 
L 118.240419 341.598689 
L 123.035058 341.598689 
L 123.993985 340.607213 
L 124.952913 340.607213 
L 126.870768 338.624262 
L 128.788623 338.624262 
L 129.747551 337.632787 
L 132.624334 337.632787 
L 133.583262 336.641311 
L 134.542189 336.641311 
L 135.501117 335.649836 
L 136.460045 335.649836 
L 138.3779 333.666885 
L 141.254683 333.666885 
L 142.213611 332.67541 
L 144.131466 332.67541 
L 146.049321 330.692459 
L 147.967176 330.692459 
L 149.885032 328.709508 
L 150.843959 328.709508 
L 151.802887 327.718033 
L 152.761815 324.743607 
L 156.597525 324.743607 
L 160.433236 320.777705 
L 161.392164 320.777705 
L 163.310019 318.794754 
L 164.268947 318.794754 
L 165.227874 317.803279 
L 166.186802 317.803279 
L 167.14573 316.811803 
L 175.776078 316.811803 
L 176.735006 315.820328 
L 186.324283 315.820328 
L 188.242138 313.837377 
L 191.118921 313.837377 
L 192.077848 312.845902 
L 193.995704 312.845902 
L 195.913559 310.862951 
L 197.831414 310.862951 
L 198.790342 308.88 
L 201.667125 308.88 
L 202.626053 306.897049 
L 203.58498 305.905574 
L 208.379618 305.905574 
L 209.338546 304.914098 
L 210.297474 304.914098 
L 212.215329 302.931148 
L 217.009967 302.931148 
L 217.968895 301.939672 
L 218.927823 301.939672 
L 219.88675 300.948197 
L 225.640316 300.948197 
L 226.599244 299.956721 
L 229.476027 299.956721 
L 230.434954 298.965246 
L 231.393882 298.965246 
L 232.35281 295.99082 
L 233.311737 295.99082 
L 234.270665 294.007869 
L 235.229593 293.016393 
L 236.18852 293.016393 
L 238.106376 291.033443 
L 240.024231 291.033443 
L 240.983159 290.041967 
L 242.901014 290.041967 
L 243.859942 289.050492 
L 244.818869 289.050492 
L 245.777797 287.067541 
L 246.736725 287.067541 
L 247.695652 286.076066 
L 249.613507 286.076066 
L 251.531363 284.093115 
L 252.49029 284.093115 
L 253.449218 282.110164 
L 254.408146 281.118689 
L 261.120639 281.118689 
L 262.079567 279.135738 
L 264.95635 279.135738 
L 265.915278 278.144262 
L 266.874205 278.144262 
L 267.833133 277.152787 
L 270.709916 277.152787 
L 271.668843 276.161311 
L 276.463482 276.161311 
L 277.422409 275.169836 
L 279.340265 275.169836 
L 280.299192 274.178361 
L 285.093831 274.178361 
L 286.052758 273.186885 
L 294.683107 273.186885 
L 296.600962 271.203934 
L 297.55989 271.203934 
L 298.518818 270.212459 
L 299.477745 270.212459 
L 300.436673 269.220984 
L 301.395601 269.220984 
L 302.354528 268.229508 
L 304.272384 268.229508 
L 305.231311 267.238033 
L 306.190239 267.238033 
L 308.108094 265.255082 
L 310.984877 265.255082 
L 311.943805 264.263607 
L 314.820588 264.263607 
L 315.779515 263.272131 
L 322.492009 263.272131 
L 323.450937 262.280656 
L 324.409864 262.280656 
L 325.368792 261.28918 
L 329.204502 261.28918 
L 330.16343 259.30623 
L 335.916996 259.30623 
L 336.875924 258.314754 
L 337.834851 258.314754 
L 338.793779 256.331803 
L 343.588417 256.331803 
L 344.547345 255.340328 
L 350.300911 255.340328 
L 351.259838 254.348852 
L 363.725898 254.348852 
L 364.684826 253.357377 
L 379.06874 253.357377 
L 380.027668 252.365902 
L 384.822306 252.365902 
L 385.781234 251.374426 
L 386.740162 251.374426 
L 387.699089 250.382951 
L 388.658017 250.382951 
L 389.616944 248.4 
L 390.575872 248.4 
L 392.493727 246.417049 
L 399.206221 246.417049 
L 400.165149 245.425574 
L 401.124076 245.425574 
L 402.083004 244.434098 
L 403.041932 244.434098 
L 404.000859 243.442623 
L 408.795498 243.442623 
L 409.754425 242.451148 
L 418.384774 242.451148 
L 419.343702 241.459672 
L 424.13834 241.459672 
L 425.097268 240.468197 
L 429.891906 240.468197 
L 430.850833 239.476721 
L 432.768689 239.476721 
L 435.645472 236.502295 
L 437.563327 236.502295 
L 438.522255 234.519344 
L 443.316893 234.519344 
L 445.234748 232.536393 
L 447.152604 232.536393 
L 448.111531 231.544918 
L 449.070459 231.544918 
L 450.988314 229.561967 
L 457.700808 229.561967 
L 458.659735 228.570492 
L 460.577591 228.570492 
L 461.536518 227.579016 
L 469.20794 227.579016 
L 471.125795 225.596066 
L 474.002578 225.596066 
L 474.961505 224.60459 
L 475.920433 224.60459 
L 476.879361 221.630164 
L 477.838288 220.638689 
L 481.673999 220.638689 
L 482.632927 218.655738 
L 485.50971 218.655738 
L 486.468637 217.664262 
L 496.057914 217.664262 
L 497.016841 216.672787 
L 506.606118 216.672787 
L 508.523973 214.689836 
L 515.236467 214.689836 
L 516.195394 213.698361 
L 532.497164 213.698361 
L 536.332875 209.732459 
L 540.168586 209.732459 
L 541.127513 208.740984 
L 548.798935 208.740984 
L 549.757862 207.749508 
L 552.634645 207.749508 
L 553.593573 206.758033 
L 554.5525 206.758033 
L 555.511428 205.766557 
L 561.264994 205.766557 
L 563.182849 203.783607 
L 565.100705 203.783607 
L 566.059632 202.792131 
L 570.85427 202.792131 
L 571.813198 201.800656 
L 572.772126 201.800656 
L 573.731053 199.817705 
L 584.279258 199.817705 
L 586.197113 197.834754 
L 589.073896 197.834754 
L 590.032824 196.843279 
L 594.827462 196.843279 
L 595.786389 195.851803 
L 602.498883 195.851803 
L 603.457811 194.860328 
L 618.800653 194.860328 
L 619.759581 193.868852 
L 620.718508 193.868852 
L 621.677436 191.885902 
L 622.636364 191.885902 
L 622.636364 191.885902 
" clip-path="url(#p6e0825720e)" style="fill: none; stroke: #7f7f7f; stroke-width: 1.5; stroke-linecap: square"/>
   </g>
   <g id="line2d_41">
    <path d="M 115.363636 349.530492 
L 119.199347 349.530492 
L 120.158275 348.539016 
L 129.747551 348.539016 
L 130.706479 347.547541 
L 135.501117 347.547541 
L 136.460045 346.556066 
L 146.049321 346.556066 
L 147.008249 345.56459 
L 156.597525 345.56459 
L 157.556453 344.573115 
L 209.338546 344.573115 
L 210.297474 343.581639 
L 215.092112 343.581639 
L 216.05104 342.590164 
L 222.763533 342.590164 
L 223.722461 341.598689 
L 224.681389 341.598689 
L 225.640316 338.624262 
L 226.599244 337.632787 
L 228.517099 337.632787 
L 229.476027 336.641311 
L 239.065303 336.641311 
L 240.024231 335.649836 
L 248.65458 335.649836 
L 249.613507 334.658361 
L 260.161712 334.658361 
L 261.120639 333.666885 
L 272.627771 333.666885 
L 273.586699 332.67541 
L 278.381337 332.67541 
L 279.340265 331.683934 
L 310.025949 331.683934 
L 310.984877 330.692459 
L 312.902732 330.692459 
L 313.86166 329.700984 
L 321.533081 329.700984 
L 322.492009 328.709508 
L 349.341983 328.709508 
L 352.218766 325.735082 
L 380.027668 325.735082 
L 380.986596 324.743607 
L 381.945523 324.743607 
L 383.863379 322.760656 
L 385.781234 322.760656 
L 386.740162 321.76918 
L 435.645472 321.76918 
L 436.604399 320.777705 
L 492.222203 320.777705 
L 493.181131 319.78623 
L 533.456092 319.78623 
L 534.41502 318.794754 
L 539.209658 318.794754 
L 540.168586 317.803279 
L 553.593573 317.803279 
L 554.5525 316.811803 
L 573.731053 316.811803 
L 574.689981 315.820328 
L 622.636364 315.820328 
L 622.636364 315.820328 
" clip-path="url(#p6e0825720e)" style="fill: none; stroke: #bcbd22; stroke-width: 1.5; stroke-linecap: square"/>
   </g>
   <g id="line2d_42">
    <path d="M 115.363636 367.377049 
L 163.310019 367.377049 
L 164.268947 366.385574 
L 224.681389 366.385574 
L 225.640316 365.394098 
L 323.450937 365.394098 
L 324.409864 364.402623 
L 325.368792 365.394098 
L 441.399038 365.394098 
L 442.357965 364.402623 
L 449.070459 364.402623 
L 450.029386 363.411148 
L 474.002578 363.411148 
L 474.961505 362.419672 
L 622.636364 362.419672 
L 622.636364 362.419672 
" clip-path="url(#p6e0825720e)" style="fill: none; stroke: #17becf; stroke-width: 1.5; stroke-linecap: square"/>
   </g>
   <g id="line2d_43">
    <path d="M 115.363636 369.36 
L 116.322564 368.368525 
L 118.240419 368.368525 
L 119.199347 367.377049 
L 125.911841 367.377049 
L 126.870768 366.385574 
L 129.747551 366.385574 
L 130.706479 365.394098 
L 131.665406 365.394098 
L 133.583262 363.411148 
L 138.3779 363.411148 
L 140.295755 361.428197 
L 141.254683 361.428197 
L 142.213611 360.436721 
L 148.926104 360.436721 
L 149.885032 359.445246 
L 150.843959 357.462295 
L 152.761815 357.462295 
L 153.720742 356.47082 
L 154.67967 356.47082 
L 155.638598 355.479344 
L 156.597525 355.479344 
L 157.556453 354.487869 
L 158.515381 354.487869 
L 160.433236 352.504918 
L 166.186802 352.504918 
L 168.104657 350.521967 
L 170.98144 350.521967 
L 171.940368 349.530492 
L 172.899295 349.530492 
L 173.858223 347.547541 
L 176.735006 347.547541 
L 178.652861 343.581639 
L 184.406427 343.581639 
L 185.365355 341.598689 
L 186.324283 340.607213 
L 189.201065 340.607213 
L 190.159993 339.615738 
L 191.118921 337.632787 
L 193.036776 337.632787 
L 193.995704 336.641311 
L 207.420691 336.641311 
L 208.379618 334.658361 
L 215.092112 327.718033 
L 224.681389 327.718033 
L 227.558172 324.743607 
L 229.476027 324.743607 
L 230.434954 322.760656 
L 232.35281 322.760656 
L 233.311737 321.76918 
L 236.18852 321.76918 
L 237.147448 320.777705 
L 238.106376 320.777705 
L 239.065303 319.78623 
L 240.024231 319.78623 
L 241.942086 317.803279 
L 254.408146 317.803279 
L 256.326001 315.820328 
L 263.997422 315.820328 
L 264.95635 314.828852 
L 267.833133 314.828852 
L 269.750988 312.845902 
L 272.627771 312.845902 
L 273.586699 311.854426 
L 275.504554 311.854426 
L 276.463482 310.862951 
L 281.25812 310.862951 
L 282.217048 309.871475 
L 283.175975 309.871475 
L 284.134903 307.888525 
L 285.093831 307.888525 
L 286.052758 306.897049 
L 290.847396 306.897049 
L 291.806324 305.905574 
L 293.724179 305.905574 
L 294.683107 304.914098 
L 295.642035 304.914098 
L 297.55989 302.931148 
L 304.272384 302.931148 
L 305.231311 301.939672 
L 306.190239 301.939672 
L 307.149167 300.948197 
L 311.943805 300.948197 
L 312.902732 298.965246 
L 313.86166 297.97377 
L 318.656298 297.97377 
L 319.615226 296.982295 
L 323.450937 296.982295 
L 324.409864 294.999344 
L 328.245575 294.999344 
L 330.16343 293.016393 
L 333.040213 293.016393 
L 333.999141 292.024918 
L 345.506273 292.024918 
L 346.4652 290.041967 
L 347.424128 289.050492 
L 355.095549 289.050492 
L 356.054477 288.059016 
L 373.315174 288.059016 
L 374.274102 287.067541 
L 376.191957 287.067541 
L 377.150885 286.076066 
L 380.027668 286.076066 
L 380.986596 285.08459 
L 393.452655 285.08459 
L 394.411583 283.101639 
L 396.329438 283.101639 
L 397.288366 282.110164 
L 398.247293 282.110164 
L 399.206221 281.118689 
L 403.041932 281.118689 
L 404.000859 280.127213 
L 410.713353 280.127213 
L 411.67228 278.144262 
L 412.631208 278.144262 
L 413.590136 277.152787 
L 418.384774 277.152787 
L 419.343702 276.161311 
L 424.13834 276.161311 
L 426.056195 274.178361 
L 427.974051 274.178361 
L 428.932978 273.186885 
L 430.850833 273.186885 
L 431.809761 272.19541 
L 432.768689 272.19541 
L 433.727616 271.203934 
L 440.44011 271.203934 
L 441.399038 270.212459 
L 463.454374 270.212459 
L 464.413301 269.220984 
L 469.20794 269.220984 
L 470.166867 268.229508 
L 480.715071 268.229508 
L 481.673999 267.238033 
L 523.866816 267.238033 
L 524.825743 266.246557 
L 530.579309 266.246557 
L 531.538237 265.255082 
L 532.497164 265.255082 
L 533.456092 264.263607 
L 545.922152 264.263607 
L 546.881079 263.272131 
L 565.100705 263.272131 
L 566.059632 262.280656 
L 569.895343 262.280656 
L 570.85427 261.28918 
L 575.648909 261.28918 
L 576.607836 260.297705 
L 582.361402 260.297705 
L 583.32033 259.30623 
L 589.073896 259.30623 
L 590.032824 258.314754 
L 595.786389 258.314754 
L 596.745317 255.340328 
L 597.704245 254.348852 
L 604.416738 254.348852 
L 605.375666 253.357377 
L 610.170304 253.357377 
L 611.129232 252.365902 
L 615.92387 252.365902 
L 616.882798 251.374426 
L 622.636364 251.374426 
L 622.636364 251.374426 
" clip-path="url(#p6e0825720e)" style="fill: none; stroke: #1f77b4; stroke-width: 1.5; stroke-linecap: square"/>
   </g>
   <g id="line2d_44">
    <path d="M 115.363636 332.67541 
L 122.07613 332.67541 
L 123.035058 331.683934 
L 125.911841 331.683934 
L 126.870768 330.692459 
L 130.706479 330.692459 
L 131.665406 329.700984 
L 134.542189 329.700984 
L 135.501117 328.709508 
L 136.460045 328.709508 
L 137.418972 327.718033 
L 140.295755 327.718033 
L 141.254683 326.726557 
L 143.172538 326.726557 
L 144.131466 325.735082 
L 145.090394 325.735082 
L 147.008249 323.752131 
L 152.761815 323.752131 
L 153.720742 322.760656 
L 154.67967 322.760656 
L 155.638598 321.76918 
L 156.597525 321.76918 
L 157.556453 319.78623 
L 158.515381 316.811803 
L 159.474308 315.820328 
L 163.310019 315.820328 
L 166.186802 312.845902 
L 169.063585 312.845902 
L 170.98144 310.862951 
L 181.529644 310.862951 
L 182.488572 307.888525 
L 183.4475 307.888525 
L 185.365355 303.922623 
L 187.28321 301.939672 
L 188.242138 301.939672 
L 189.201065 299.956721 
L 196.872487 299.956721 
L 197.831414 297.97377 
L 200.708197 297.97377 
L 201.667125 296.982295 
L 208.379618 296.982295 
L 209.338546 295.99082 
L 220.845678 295.99082 
L 221.804606 294.999344 
L 222.763533 294.999344 
L 223.722461 294.007869 
L 226.599244 294.007869 
L 227.558172 293.016393 
L 239.065303 293.016393 
L 240.024231 292.024918 
L 241.942086 292.024918 
L 243.859942 288.059016 
L 245.777797 288.059016 
L 247.695652 286.076066 
L 249.613507 286.076066 
L 250.572435 285.08459 
L 253.449218 285.08459 
L 254.408146 284.093115 
L 265.915278 284.093115 
L 266.874205 283.101639 
L 281.25812 283.101639 
L 282.217048 282.110164 
L 290.847396 282.110164 
L 291.806324 281.118689 
L 293.724179 281.118689 
L 294.683107 280.127213 
L 297.55989 280.127213 
L 299.477745 278.144262 
L 300.436673 278.144262 
L 301.395601 277.152787 
L 305.231311 277.152787 
L 307.149167 275.169836 
L 311.943805 275.169836 
L 312.902732 274.178361 
L 315.779515 274.178361 
L 316.738443 273.186885 
L 321.533081 273.186885 
L 322.492009 272.19541 
L 327.286647 272.19541 
L 328.245575 271.203934 
L 345.506273 271.203934 
L 346.4652 270.212459 
L 347.424128 270.212459 
L 348.383056 269.220984 
L 357.972332 269.220984 
L 358.93126 267.238033 
L 359.890187 267.238033 
L 360.849115 266.246557 
L 370.438391 266.246557 
L 371.397319 265.255082 
L 375.23303 265.255082 
L 376.191957 264.263607 
L 377.150885 264.263607 
L 378.109813 263.272131 
L 386.740162 263.272131 
L 387.699089 262.280656 
L 406.877642 262.280656 
L 407.83657 259.30623 
L 414.549063 259.30623 
L 415.507991 258.314754 
L 417.425846 258.314754 
L 418.384774 257.323279 
L 429.891906 257.323279 
L 430.850833 256.331803 
L 444.275821 256.331803 
L 445.234748 255.340328 
L 448.111531 255.340328 
L 449.070459 254.348852 
L 456.74188 254.348852 
L 457.700808 252.365902 
L 473.04365 252.365902 
L 474.002578 251.374426 
L 478.797216 251.374426 
L 479.756144 250.382951 
L 494.140058 250.382951 
L 495.098986 249.391475 
L 497.016841 249.391475 
L 497.975769 248.4 
L 507.565046 248.4 
L 508.523973 247.408525 
L 519.072177 247.408525 
L 520.031105 246.417049 
L 532.497164 246.417049 
L 533.456092 245.425574 
L 544.963224 245.425574 
L 545.922152 244.434098 
L 552.634645 244.434098 
L 553.593573 243.442623 
L 563.182849 243.442623 
L 566.059632 240.468197 
L 567.977488 240.468197 
L 568.936415 239.476721 
L 569.895343 239.476721 
L 571.813198 237.49377 
L 575.648909 237.49377 
L 576.607836 236.502295 
L 578.525692 236.502295 
L 579.484619 234.519344 
L 580.443547 233.527869 
L 591.950679 233.527869 
L 592.909606 232.536393 
L 601.539955 232.536393 
L 602.498883 231.544918 
L 612.088159 231.544918 
L 613.047087 230.553443 
L 617.841725 230.553443 
L 618.800653 228.570492 
L 622.636364 228.570492 
L 622.636364 228.570492 
" clip-path="url(#p6e0825720e)" style="fill: none; stroke: #ff7f0e; stroke-width: 1.5; stroke-linecap: square"/>
   </g>
   <g id="patch_3">
    <path d="M 90 384.48 
L 90 51.84 
" style="fill: none; stroke: #000000; stroke-width: 0.8; stroke-linejoin: miter; stroke-linecap: square"/>
   </g>
   <g id="patch_4">
    <path d="M 648 384.48 
L 648 51.84 
" style="fill: none; stroke: #000000; stroke-width: 0.8; stroke-linejoin: miter; stroke-linecap: square"/>
   </g>
   <g id="patch_5">
    <path d="M 90 384.48 
L 648 384.48 
" style="fill: none; stroke: #000000; stroke-width: 0.8; stroke-linejoin: miter; stroke-linecap: square"/>
   </g>
   <g id="patch_6">
    <path d="M 90 51.84 
L 648 51.84 
" style="fill: none; stroke: #000000; stroke-width: 0.8; stroke-linejoin: miter; stroke-linecap: square"/>
   </g>
   <g id="text_19">
    <!-- Time Series of Votes for Each Keyword -->
    <g transform="translate(253.716563 45.84) scale(0.12 -0.12)">
     <defs>
      <path id="DejaVuSans-53" d="M 3425 4513 
L 3425 3897 
Q 3066 4069 2747 4153 
Q 2428 4238 2131 4238 
Q 1616 4238 1336 4038 
Q 1056 3838 1056 3469 
Q 1056 3159 1242 3001 
Q 1428 2844 1947 2747 
L 2328 2669 
Q 3034 2534 3370 2195 
Q 3706 1856 3706 1288 
Q 3706 609 3251 259 
Q 2797 -91 1919 -91 
Q 1588 -91 1214 -16 
Q 841 59 441 206 
L 441 856 
Q 825 641 1194 531 
Q 1563 422 1919 422 
Q 2459 422 2753 634 
Q 3047 847 3047 1241 
Q 3047 1584 2836 1778 
Q 2625 1972 2144 2069 
L 1759 2144 
Q 1053 2284 737 2584 
Q 422 2884 422 3419 
Q 422 4038 858 4394 
Q 1294 4750 2059 4750 
Q 2388 4750 2728 4690 
Q 3069 4631 3425 4513 
z
" transform="scale(0.015625)"/>
      <path id="DejaVuSans-72" d="M 2631 2963 
Q 2534 3019 2420 3045 
Q 2306 3072 2169 3072 
Q 1681 3072 1420 2755 
Q 1159 2438 1159 1844 
L 1159 0 
L 581 0 
L 581 3500 
L 1159 3500 
L 1159 2956 
Q 1341 3275 1631 3429 
Q 1922 3584 2338 3584 
Q 2397 3584 2469 3576 
Q 2541 3569 2628 3553 
L 2631 2963 
z
" transform="scale(0.015625)"/>
      <path id="DejaVuSans-66" d="M 2375 4863 
L 2375 4384 
L 1825 4384 
Q 1516 4384 1395 4259 
Q 1275 4134 1275 3809 
L 1275 3500 
L 2222 3500 
L 2222 3053 
L 1275 3053 
L 1275 0 
L 697 0 
L 697 3053 
L 147 3053 
L 147 3500 
L 697 3500 
L 697 3744 
Q 697 4328 969 4595 
Q 1241 4863 1831 4863 
L 2375 4863 
z
" transform="scale(0.015625)"/>
      <path id="DejaVuSans-45" d="M 628 4666 
L 3578 4666 
L 3578 4134 
L 1259 4134 
L 1259 2753 
L 3481 2753 
L 3481 2222 
L 1259 2222 
L 1259 531 
L 3634 531 
L 3634 0 
L 628 0 
L 628 4666 
z
" transform="scale(0.015625)"/>
      <path id="DejaVuSans-63" d="M 3122 3366 
L 3122 2828 
Q 2878 2963 2633 3030 
Q 2388 3097 2138 3097 
Q 1578 3097 1268 2742 
Q 959 2388 959 1747 
Q 959 1106 1268 751 
Q 1578 397 2138 397 
Q 2388 397 2633 464 
Q 2878 531 3122 666 
L 3122 134 
Q 2881 22 2623 -34 
Q 2366 -91 2075 -91 
Q 1284 -91 818 406 
Q 353 903 353 1747 
Q 353 2603 823 3093 
Q 1294 3584 2113 3584 
Q 2378 3584 2631 3529 
Q 2884 3475 3122 3366 
z
" transform="scale(0.015625)"/>
      <path id="DejaVuSans-68" d="M 3513 2113 
L 3513 0 
L 2938 0 
L 2938 2094 
Q 2938 2591 2744 2837 
Q 2550 3084 2163 3084 
Q 1697 3084 1428 2787 
Q 1159 2491 1159 1978 
L 1159 0 
L 581 0 
L 581 4863 
L 1159 4863 
L 1159 2956 
Q 1366 3272 1645 3428 
Q 1925 3584 2291 3584 
Q 2894 3584 3203 3211 
Q 3513 2838 3513 2113 
z
" transform="scale(0.015625)"/>
      <path id="DejaVuSans-4b" d="M 628 4666 
L 1259 4666 
L 1259 2694 
L 3353 4666 
L 4166 4666 
L 1850 2491 
L 4331 0 
L 3500 0 
L 1259 2247 
L 1259 0 
L 628 0 
L 628 4666 
z
" transform="scale(0.015625)"/>
      <path id="DejaVuSans-79" d="M 2059 -325 
Q 1816 -950 1584 -1140 
Q 1353 -1331 966 -1331 
L 506 -1331 
L 506 -850 
L 844 -850 
Q 1081 -850 1212 -737 
Q 1344 -625 1503 -206 
L 1606 56 
L 191 3500 
L 800 3500 
L 1894 763 
L 2988 3500 
L 3597 3500 
L 2059 -325 
z
" transform="scale(0.015625)"/>
      <path id="DejaVuSans-77" d="M 269 3500 
L 844 3500 
L 1563 769 
L 2278 3500 
L 2956 3500 
L 3675 769 
L 4391 3500 
L 4966 3500 
L 4050 0 
L 3372 0 
L 2619 2869 
L 1863 0 
L 1184 0 
L 269 3500 
z
" transform="scale(0.015625)"/>
     </defs>
     <use xlink:href="#DejaVuSans-54"/>
     <use xlink:href="#DejaVuSans-69" transform="translate(57.958984 0)"/>
     <use xlink:href="#DejaVuSans-6d" transform="translate(85.742188 0)"/>
     <use xlink:href="#DejaVuSans-65" transform="translate(183.154297 0)"/>
     <use xlink:href="#DejaVuSans-20" transform="translate(244.677734 0)"/>
     <use xlink:href="#DejaVuSans-53" transform="translate(276.464844 0)"/>
     <use xlink:href="#DejaVuSans-65" transform="translate(339.941406 0)"/>
     <use xlink:href="#DejaVuSans-72" transform="translate(401.464844 0)"/>
     <use xlink:href="#DejaVuSans-69" transform="translate(442.578125 0)"/>
     <use xlink:href="#DejaVuSans-65" transform="translate(470.361328 0)"/>
     <use xlink:href="#DejaVuSans-73" transform="translate(531.884766 0)"/>
     <use xlink:href="#DejaVuSans-20" transform="translate(583.984375 0)"/>
     <use xlink:href="#DejaVuSans-6f" transform="translate(615.771484 0)"/>
     <use xlink:href="#DejaVuSans-66" transform="translate(676.953125 0)"/>
     <use xlink:href="#DejaVuSans-20" transform="translate(712.158203 0)"/>
     <use xlink:href="#DejaVuSans-56" transform="translate(743.945312 0)"/>
     <use xlink:href="#DejaVuSans-6f" transform="translate(804.603516 0)"/>
     <use xlink:href="#DejaVuSans-74" transform="translate(865.785156 0)"/>
     <use xlink:href="#DejaVuSans-65" transform="translate(904.994141 0)"/>
     <use xlink:href="#DejaVuSans-73" transform="translate(966.517578 0)"/>
     <use xlink:href="#DejaVuSans-20" transform="translate(1018.617188 0)"/>
     <use xlink:href="#DejaVuSans-66" transform="translate(1050.404297 0)"/>
     <use xlink:href="#DejaVuSans-6f" transform="translate(1085.609375 0)"/>
     <use xlink:href="#DejaVuSans-72" transform="translate(1146.791016 0)"/>
     <use xlink:href="#DejaVuSans-20" transform="translate(1187.904297 0)"/>
     <use xlink:href="#DejaVuSans-45" transform="translate(1219.691406 0)"/>
     <use xlink:href="#DejaVuSans-61" transform="translate(1282.875 0)"/>
     <use xlink:href="#DejaVuSans-63" transform="translate(1344.154297 0)"/>
     <use xlink:href="#DejaVuSans-68" transform="translate(1399.134766 0)"/>
     <use xlink:href="#DejaVuSans-20" transform="translate(1462.513672 0)"/>
     <use xlink:href="#DejaVuSans-4b" transform="translate(1494.300781 0)"/>
     <use xlink:href="#DejaVuSans-65" transform="translate(1554.876953 0)"/>
     <use xlink:href="#DejaVuSans-79" transform="translate(1616.400391 0)"/>
     <use xlink:href="#DejaVuSans-77" transform="translate(1675.580078 0)"/>
     <use xlink:href="#DejaVuSans-6f" transform="translate(1757.367188 0)"/>
     <use xlink:href="#DejaVuSans-72" transform="translate(1818.548828 0)"/>
     <use xlink:href="#DejaVuSans-64" transform="translate(1857.912109 0)"/>
    </g>
   </g>
   <g id="legend_1">
    <g id="patch_7">
     <path d="M 97 235.9775 
L 149.245313 235.9775 
Q 151.245313 235.9775 151.245313 233.9775 
L 151.245313 58.84 
Q 151.245313 56.84 149.245313 56.84 
L 97 56.84 
Q 95 56.84 95 58.84 
L 95 233.9775 
Q 95 235.9775 97 235.9775 
z
" style="fill: #ffffff; opacity: 0.8; stroke: #cccccc; stroke-linejoin: miter"/>
    </g>
    <g id="line2d_45">
     <path d="M 99 64.938437 
L 109 64.938437 
L 119 64.938437 
" style="fill: none; stroke: #1f77b4; stroke-width: 1.5; stroke-linecap: square"/>
    </g>
    <g id="text_20">
     <!-- H01 -->
     <g transform="translate(127 68.438437) scale(0.1 -0.1)">
      <defs>
       <path id="DejaVuSans-48" d="M 628 4666 
L 1259 4666 
L 1259 2753 
L 3553 2753 
L 3553 4666 
L 4184 4666 
L 4184 0 
L 3553 0 
L 3553 2222 
L 1259 2222 
L 1259 0 
L 628 0 
L 628 4666 
z
" transform="scale(0.015625)"/>
      </defs>
      <use xlink:href="#DejaVuSans-48"/>
      <use xlink:href="#DejaVuSans-30" transform="translate(75.195312 0)"/>
      <use xlink:href="#DejaVuSans-31" transform="translate(138.818359 0)"/>
     </g>
    </g>
    <g id="line2d_46">
     <path d="M 99 79.616562 
L 109 79.616562 
L 119 79.616562 
" style="fill: none; stroke: #ff7f0e; stroke-width: 1.5; stroke-linecap: square"/>
    </g>
    <g id="text_21">
     <!-- H02 -->
     <g transform="translate(127 83.116562) scale(0.1 -0.1)">
      <use xlink:href="#DejaVuSans-48"/>
      <use xlink:href="#DejaVuSans-30" transform="translate(75.195312 0)"/>
      <use xlink:href="#DejaVuSans-32" transform="translate(138.818359 0)"/>
     </g>
    </g>
    <g id="line2d_47">
     <path d="M 99 94.294688 
L 109 94.294688 
L 119 94.294688 
" style="fill: none; stroke: #2ca02c; stroke-width: 1.5; stroke-linecap: square"/>
    </g>
    <g id="text_22">
     <!-- H03 -->
     <g transform="translate(127 97.794688) scale(0.1 -0.1)">
      <use xlink:href="#DejaVuSans-48"/>
      <use xlink:href="#DejaVuSans-30" transform="translate(75.195312 0)"/>
      <use xlink:href="#DejaVuSans-33" transform="translate(138.818359 0)"/>
     </g>
    </g>
    <g id="line2d_48">
     <path d="M 99 108.972812 
L 109 108.972812 
L 119 108.972812 
" style="fill: none; stroke: #d62728; stroke-width: 1.5; stroke-linecap: square"/>
    </g>
    <g id="text_23">
     <!-- H04 -->
     <g transform="translate(127 112.472812) scale(0.1 -0.1)">
      <use xlink:href="#DejaVuSans-48"/>
      <use xlink:href="#DejaVuSans-30" transform="translate(75.195312 0)"/>
      <use xlink:href="#DejaVuSans-34" transform="translate(138.818359 0)"/>
     </g>
    </g>
    <g id="line2d_49">
     <path d="M 99 123.650937 
L 109 123.650937 
L 119 123.650937 
" style="fill: none; stroke: #9467bd; stroke-width: 1.5; stroke-linecap: square"/>
    </g>
    <g id="text_24">
     <!-- H05 -->
     <g transform="translate(127 127.150937) scale(0.1 -0.1)">
      <use xlink:href="#DejaVuSans-48"/>
      <use xlink:href="#DejaVuSans-30" transform="translate(75.195312 0)"/>
      <use xlink:href="#DejaVuSans-35" transform="translate(138.818359 0)"/>
     </g>
    </g>
    <g id="line2d_50">
     <path d="M 99 138.329062 
L 109 138.329062 
L 119 138.329062 
" style="fill: none; stroke: #8c564b; stroke-width: 1.5; stroke-linecap: square"/>
    </g>
    <g id="text_25">
     <!-- H06 -->
     <g transform="translate(127 141.829062) scale(0.1 -0.1)">
      <use xlink:href="#DejaVuSans-48"/>
      <use xlink:href="#DejaVuSans-30" transform="translate(75.195312 0)"/>
      <use xlink:href="#DejaVuSans-36" transform="translate(138.818359 0)"/>
     </g>
    </g>
    <g id="line2d_51">
     <path d="M 99 153.007187 
L 109 153.007187 
L 119 153.007187 
" style="fill: none; stroke: #e377c2; stroke-width: 1.5; stroke-linecap: square"/>
    </g>
    <g id="text_26">
     <!-- H07 -->
     <g transform="translate(127 156.507187) scale(0.1 -0.1)">
      <use xlink:href="#DejaVuSans-48"/>
      <use xlink:href="#DejaVuSans-30" transform="translate(75.195312 0)"/>
      <use xlink:href="#DejaVuSans-37" transform="translate(138.818359 0)"/>
     </g>
    </g>
    <g id="line2d_52">
     <path d="M 99 167.685312 
L 109 167.685312 
L 119 167.685312 
" style="fill: none; stroke: #7f7f7f; stroke-width: 1.5; stroke-linecap: square"/>
    </g>
    <g id="text_27">
     <!-- H08 -->
     <g transform="translate(127 171.185312) scale(0.1 -0.1)">
      <use xlink:href="#DejaVuSans-48"/>
      <use xlink:href="#DejaVuSans-30" transform="translate(75.195312 0)"/>
      <use xlink:href="#DejaVuSans-38" transform="translate(138.818359 0)"/>
     </g>
    </g>
    <g id="line2d_53">
     <path d="M 99 182.363437 
L 109 182.363437 
L 119 182.363437 
" style="fill: none; stroke: #bcbd22; stroke-width: 1.5; stroke-linecap: square"/>
    </g>
    <g id="text_28">
     <!-- H09 -->
     <g transform="translate(127 185.863437) scale(0.1 -0.1)">
      <use xlink:href="#DejaVuSans-48"/>
      <use xlink:href="#DejaVuSans-30" transform="translate(75.195312 0)"/>
      <use xlink:href="#DejaVuSans-39" transform="translate(138.818359 0)"/>
     </g>
    </g>
    <g id="line2d_54">
     <path d="M 99 197.041562 
L 109 197.041562 
L 119 197.041562 
" style="fill: none; stroke: #17becf; stroke-width: 1.5; stroke-linecap: square"/>
    </g>
    <g id="text_29">
     <!-- H10 -->
     <g transform="translate(127 200.541562) scale(0.1 -0.1)">
      <use xlink:href="#DejaVuSans-48"/>
      <use xlink:href="#DejaVuSans-31" transform="translate(75.195312 0)"/>
      <use xlink:href="#DejaVuSans-30" transform="translate(138.818359 0)"/>
     </g>
    </g>
    <g id="line2d_55">
     <path d="M 99 211.719687 
L 109 211.719687 
L 119 211.719687 
" style="fill: none; stroke: #1f77b4; stroke-width: 1.5; stroke-linecap: square"/>
    </g>
    <g id="text_30">
     <!-- H11 -->
     <g transform="translate(127 215.219687) scale(0.1 -0.1)">
      <use xlink:href="#DejaVuSans-48"/>
      <use xlink:href="#DejaVuSans-31" transform="translate(75.195312 0)"/>
      <use xlink:href="#DejaVuSans-31" transform="translate(138.818359 0)"/>
     </g>
    </g>
    <g id="line2d_56">
     <path d="M 99 226.397812 
L 109 226.397812 
L 119 226.397812 
" style="fill: none; stroke: #ff7f0e; stroke-width: 1.5; stroke-linecap: square"/>
    </g>
    <g id="text_31">
     <!-- H12 -->
     <g transform="translate(127 229.897812) scale(0.1 -0.1)">
      <use xlink:href="#DejaVuSans-48"/>
      <use xlink:href="#DejaVuSans-31" transform="translate(75.195312 0)"/>
      <use xlink:href="#DejaVuSans-32" transform="translate(138.818359 0)"/>
     </g>
    </g>
   </g>
  </g>
 </g>
 <defs>
  <clipPath id="p6e0825720e">
   <rect x="90" y="51.84" width="558" height="332.64"/>
  </clipPath>
 </defs>
</svg>
