<?xml version="1.0" encoding="utf-8" standalone="no"?>
<!DOCTYPE svg PUBLIC "-//W3C//DTD SVG 1.1//EN"
  "http://www.w3.org/Graphics/SVG/1.1/DTD/svg11.dtd">
<svg xmlns:xlink="http://www.w3.org/1999/xlink" width="720pt" height="432pt" viewBox="0 0 720 432" xmlns="http://www.w3.org/2000/svg" version="1.1">
 <metadata>
  <rdf:RDF xmlns:dc="http://purl.org/dc/elements/1.1/" xmlns:cc="http://creativecommons.org/ns#" xmlns:rdf="http://www.w3.org/1999/02/22-rdf-syntax-ns#">
   <cc:Work>
    <dc:type rdf:resource="http://purl.org/dc/dcmitype/StillImage"/>
    <dc:date>2025-01-14T16:44:43.253050</dc:date>
    <dc:format>image/svg+xml</dc:format>
    <dc:creator>
     <cc:Agent>
      <dc:title>Matplotlib v3.10.0, https://matplotlib.org/</dc:title>
     </cc:Agent>
    </dc:creator>
   </cc:Work>
  </rdf:RDF>
 </metadata>
 <defs>
  <style type="text/css">*{stroke-linejoin: round; stroke-linecap: butt}</style>
 </defs>
 <g id="figure_1">
  <g id="patch_1">
   <path d="M 0 432 
L 720 432 
L 720 0 
L 0 0 
z
" style="fill: #ffffff"/>
  </g>
  <g id="axes_1">
   <g id="patch_2">
    <path d="M 90 384.48 
L 648 384.48 
L 648 51.84 
L 90 51.84 
z
" style="fill: #ffffff"/>
   </g>
   <g id="matplotlib.axis_1">
    <g id="xtick_1">
     <g id="line2d_1">
      <path d="M 107.396002 384.48 
L 107.396002 51.84 
" clip-path="url(#pc98ff54f33)" style="fill: none; stroke: #b0b0b0; stroke-width: 0.8; stroke-linecap: square"/>
     </g>
     <g id="line2d_2">
      <defs>
       <path id="mf43966d11f" d="M 0 0 
L 0 3.5 
" style="stroke: #000000; stroke-width: 0.8"/>
      </defs>
      <g>
       <use xlink:href="#mf43966d11f" x="107.396002" y="384.48" style="stroke: #000000; stroke-width: 0.8"/>
      </g>
     </g>
     <g id="text_1">
      <!-- 14 13:30 -->
      <g transform="translate(85.035064 399.078438) scale(0.1 -0.1)">
       <defs>
        <path id="DejaVuSans-31" d="M 794 531 
L 1825 531 
L 1825 4091 
L 703 3866 
L 703 4441 
L 1819 4666 
L 2450 4666 
L 2450 531 
L 3481 531 
L 3481 0 
L 794 0 
L 794 531 
z
" transform="scale(0.015625)"/>
        <path id="DejaVuSans-34" d="M 2419 4116 
L 825 1625 
L 2419 1625 
L 2419 4116 
z
M 2253 4666 
L 3047 4666 
L 3047 1625 
L 3713 1625 
L 3713 1100 
L 3047 1100 
L 3047 0 
L 2419 0 
L 2419 1100 
L 313 1100 
L 313 1709 
L 2253 4666 
z
" transform="scale(0.015625)"/>
        <path id="DejaVuSans-20" transform="scale(0.015625)"/>
        <path id="DejaVuSans-33" d="M 2597 2516 
Q 3050 2419 3304 2112 
Q 3559 1806 3559 1356 
Q 3559 666 3084 287 
Q 2609 -91 1734 -91 
Q 1441 -91 1130 -33 
Q 819 25 488 141 
L 488 750 
Q 750 597 1062 519 
Q 1375 441 1716 441 
Q 2309 441 2620 675 
Q 2931 909 2931 1356 
Q 2931 1769 2642 2001 
Q 2353 2234 1838 2234 
L 1294 2234 
L 1294 2753 
L 1863 2753 
Q 2328 2753 2575 2939 
Q 2822 3125 2822 3475 
Q 2822 3834 2567 4026 
Q 2313 4219 1838 4219 
Q 1578 4219 1281 4162 
Q 984 4106 628 3988 
L 628 4550 
Q 988 4650 1302 4700 
Q 1616 4750 1894 4750 
Q 2613 4750 3031 4423 
Q 3450 4097 3450 3541 
Q 3450 3153 3228 2886 
Q 3006 2619 2597 2516 
z
" transform="scale(0.015625)"/>
        <path id="DejaVuSans-3a" d="M 750 794 
L 1409 794 
L 1409 0 
L 750 0 
L 750 794 
z
M 750 3309 
L 1409 3309 
L 1409 2516 
L 750 2516 
L 750 3309 
z
" transform="scale(0.015625)"/>
        <path id="DejaVuSans-30" d="M 2034 4250 
Q 1547 4250 1301 3770 
Q 1056 3291 1056 2328 
Q 1056 1369 1301 889 
Q 1547 409 2034 409 
Q 2525 409 2770 889 
Q 3016 1369 3016 2328 
Q 3016 3291 2770 3770 
Q 2525 4250 2034 4250 
z
M 2034 4750 
Q 2819 4750 3233 4129 
Q 3647 3509 3647 2328 
Q 3647 1150 3233 529 
Q 2819 -91 2034 -91 
Q 1250 -91 836 529 
Q 422 1150 422 2328 
Q 422 3509 836 4129 
Q 1250 4750 2034 4750 
z
" transform="scale(0.015625)"/>
       </defs>
       <use xlink:href="#DejaVuSans-31"/>
       <use xlink:href="#DejaVuSans-34" transform="translate(63.623047 0)"/>
       <use xlink:href="#DejaVuSans-20" transform="translate(127.246094 0)"/>
       <use xlink:href="#DejaVuSans-31" transform="translate(159.033203 0)"/>
       <use xlink:href="#DejaVuSans-33" transform="translate(222.65625 0)"/>
       <use xlink:href="#DejaVuSans-3a" transform="translate(286.279297 0)"/>
       <use xlink:href="#DejaVuSans-33" transform="translate(319.970703 0)"/>
       <use xlink:href="#DejaVuSans-30" transform="translate(383.59375 0)"/>
      </g>
     </g>
    </g>
    <g id="xtick_2">
     <g id="line2d_3">
      <path d="M 187.072346 384.48 
L 187.072346 51.84 
" clip-path="url(#pc98ff54f33)" style="fill: none; stroke: #b0b0b0; stroke-width: 0.8; stroke-linecap: square"/>
     </g>
     <g id="line2d_4">
      <g>
       <use xlink:href="#mf43966d11f" x="187.072346" y="384.48" style="stroke: #000000; stroke-width: 0.8"/>
      </g>
     </g>
     <g id="text_2">
      <!-- 14 14:00 -->
      <g transform="translate(164.711409 399.078438) scale(0.1 -0.1)">
       <use xlink:href="#DejaVuSans-31"/>
       <use xlink:href="#DejaVuSans-34" transform="translate(63.623047 0)"/>
       <use xlink:href="#DejaVuSans-20" transform="translate(127.246094 0)"/>
       <use xlink:href="#DejaVuSans-31" transform="translate(159.033203 0)"/>
       <use xlink:href="#DejaVuSans-34" transform="translate(222.65625 0)"/>
       <use xlink:href="#DejaVuSans-3a" transform="translate(286.279297 0)"/>
       <use xlink:href="#DejaVuSans-30" transform="translate(319.970703 0)"/>
       <use xlink:href="#DejaVuSans-30" transform="translate(383.59375 0)"/>
      </g>
     </g>
    </g>
    <g id="xtick_3">
     <g id="line2d_5">
      <path d="M 266.748691 384.48 
L 266.748691 51.84 
" clip-path="url(#pc98ff54f33)" style="fill: none; stroke: #b0b0b0; stroke-width: 0.8; stroke-linecap: square"/>
     </g>
     <g id="line2d_6">
      <g>
       <use xlink:href="#mf43966d11f" x="266.748691" y="384.48" style="stroke: #000000; stroke-width: 0.8"/>
      </g>
     </g>
     <g id="text_3">
      <!-- 14 14:30 -->
      <g transform="translate(244.387754 399.078438) scale(0.1 -0.1)">
       <use xlink:href="#DejaVuSans-31"/>
       <use xlink:href="#DejaVuSans-34" transform="translate(63.623047 0)"/>
       <use xlink:href="#DejaVuSans-20" transform="translate(127.246094 0)"/>
       <use xlink:href="#DejaVuSans-31" transform="translate(159.033203 0)"/>
       <use xlink:href="#DejaVuSans-34" transform="translate(222.65625 0)"/>
       <use xlink:href="#DejaVuSans-3a" transform="translate(286.279297 0)"/>
       <use xlink:href="#DejaVuSans-33" transform="translate(319.970703 0)"/>
       <use xlink:href="#DejaVuSans-30" transform="translate(383.59375 0)"/>
      </g>
     </g>
    </g>
    <g id="xtick_4">
     <g id="line2d_7">
      <path d="M 346.425036 384.48 
L 346.425036 51.84 
" clip-path="url(#pc98ff54f33)" style="fill: none; stroke: #b0b0b0; stroke-width: 0.8; stroke-linecap: square"/>
     </g>
     <g id="line2d_8">
      <g>
       <use xlink:href="#mf43966d11f" x="346.425036" y="384.48" style="stroke: #000000; stroke-width: 0.8"/>
      </g>
     </g>
     <g id="text_4">
      <!-- 14 15:00 -->
      <g transform="translate(324.064098 399.078438) scale(0.1 -0.1)">
       <defs>
        <path id="DejaVuSans-35" d="M 691 4666 
L 3169 4666 
L 3169 4134 
L 1269 4134 
L 1269 2991 
Q 1406 3038 1543 3061 
Q 1681 3084 1819 3084 
Q 2600 3084 3056 2656 
Q 3513 2228 3513 1497 
Q 3513 744 3044 326 
Q 2575 -91 1722 -91 
Q 1428 -91 1123 -41 
Q 819 9 494 109 
L 494 744 
Q 775 591 1075 516 
Q 1375 441 1709 441 
Q 2250 441 2565 725 
Q 2881 1009 2881 1497 
Q 2881 1984 2565 2268 
Q 2250 2553 1709 2553 
Q 1456 2553 1204 2497 
Q 953 2441 691 2322 
L 691 4666 
z
" transform="scale(0.015625)"/>
       </defs>
       <use xlink:href="#DejaVuSans-31"/>
       <use xlink:href="#DejaVuSans-34" transform="translate(63.623047 0)"/>
       <use xlink:href="#DejaVuSans-20" transform="translate(127.246094 0)"/>
       <use xlink:href="#DejaVuSans-31" transform="translate(159.033203 0)"/>
       <use xlink:href="#DejaVuSans-35" transform="translate(222.65625 0)"/>
       <use xlink:href="#DejaVuSans-3a" transform="translate(286.279297 0)"/>
       <use xlink:href="#DejaVuSans-30" transform="translate(319.970703 0)"/>
       <use xlink:href="#DejaVuSans-30" transform="translate(383.59375 0)"/>
      </g>
     </g>
    </g>
    <g id="xtick_5">
     <g id="line2d_9">
      <path d="M 426.10138 384.48 
L 426.10138 51.84 
" clip-path="url(#pc98ff54f33)" style="fill: none; stroke: #b0b0b0; stroke-width: 0.8; stroke-linecap: square"/>
     </g>
     <g id="line2d_10">
      <g>
       <use xlink:href="#mf43966d11f" x="426.10138" y="384.48" style="stroke: #000000; stroke-width: 0.8"/>
      </g>
     </g>
     <g id="text_5">
      <!-- 14 15:30 -->
      <g transform="translate(403.740443 399.078438) scale(0.1 -0.1)">
       <use xlink:href="#DejaVuSans-31"/>
       <use xlink:href="#DejaVuSans-34" transform="translate(63.623047 0)"/>
       <use xlink:href="#DejaVuSans-20" transform="translate(127.246094 0)"/>
       <use xlink:href="#DejaVuSans-31" transform="translate(159.033203 0)"/>
       <use xlink:href="#DejaVuSans-35" transform="translate(222.65625 0)"/>
       <use xlink:href="#DejaVuSans-3a" transform="translate(286.279297 0)"/>
       <use xlink:href="#DejaVuSans-33" transform="translate(319.970703 0)"/>
       <use xlink:href="#DejaVuSans-30" transform="translate(383.59375 0)"/>
      </g>
     </g>
    </g>
    <g id="xtick_6">
     <g id="line2d_11">
      <path d="M 505.777725 384.48 
L 505.777725 51.84 
" clip-path="url(#pc98ff54f33)" style="fill: none; stroke: #b0b0b0; stroke-width: 0.8; stroke-linecap: square"/>
     </g>
     <g id="line2d_12">
      <g>
       <use xlink:href="#mf43966d11f" x="505.777725" y="384.48" style="stroke: #000000; stroke-width: 0.8"/>
      </g>
     </g>
     <g id="text_6">
      <!-- 14 16:00 -->
      <g transform="translate(483.416787 399.078438) scale(0.1 -0.1)">
       <defs>
        <path id="DejaVuSans-36" d="M 2113 2584 
Q 1688 2584 1439 2293 
Q 1191 2003 1191 1497 
Q 1191 994 1439 701 
Q 1688 409 2113 409 
Q 2538 409 2786 701 
Q 3034 994 3034 1497 
Q 3034 2003 2786 2293 
Q 2538 2584 2113 2584 
z
M 3366 4563 
L 3366 3988 
Q 3128 4100 2886 4159 
Q 2644 4219 2406 4219 
Q 1781 4219 1451 3797 
Q 1122 3375 1075 2522 
Q 1259 2794 1537 2939 
Q 1816 3084 2150 3084 
Q 2853 3084 3261 2657 
Q 3669 2231 3669 1497 
Q 3669 778 3244 343 
Q 2819 -91 2113 -91 
Q 1303 -91 875 529 
Q 447 1150 447 2328 
Q 447 3434 972 4092 
Q 1497 4750 2381 4750 
Q 2619 4750 2861 4703 
Q 3103 4656 3366 4563 
z
" transform="scale(0.015625)"/>
       </defs>
       <use xlink:href="#DejaVuSans-31"/>
       <use xlink:href="#DejaVuSans-34" transform="translate(63.623047 0)"/>
       <use xlink:href="#DejaVuSans-20" transform="translate(127.246094 0)"/>
       <use xlink:href="#DejaVuSans-31" transform="translate(159.033203 0)"/>
       <use xlink:href="#DejaVuSans-36" transform="translate(222.65625 0)"/>
       <use xlink:href="#DejaVuSans-3a" transform="translate(286.279297 0)"/>
       <use xlink:href="#DejaVuSans-30" transform="translate(319.970703 0)"/>
       <use xlink:href="#DejaVuSans-30" transform="translate(383.59375 0)"/>
      </g>
     </g>
    </g>
    <g id="xtick_7">
     <g id="line2d_13">
      <path d="M 585.454069 384.48 
L 585.454069 51.84 
" clip-path="url(#pc98ff54f33)" style="fill: none; stroke: #b0b0b0; stroke-width: 0.8; stroke-linecap: square"/>
     </g>
     <g id="line2d_14">
      <g>
       <use xlink:href="#mf43966d11f" x="585.454069" y="384.48" style="stroke: #000000; stroke-width: 0.8"/>
      </g>
     </g>
     <g id="text_7">
      <!-- 14 16:30 -->
      <g transform="translate(563.093132 399.078438) scale(0.1 -0.1)">
       <use xlink:href="#DejaVuSans-31"/>
       <use xlink:href="#DejaVuSans-34" transform="translate(63.623047 0)"/>
       <use xlink:href="#DejaVuSans-20" transform="translate(127.246094 0)"/>
       <use xlink:href="#DejaVuSans-31" transform="translate(159.033203 0)"/>
       <use xlink:href="#DejaVuSans-36" transform="translate(222.65625 0)"/>
       <use xlink:href="#DejaVuSans-3a" transform="translate(286.279297 0)"/>
       <use xlink:href="#DejaVuSans-33" transform="translate(319.970703 0)"/>
       <use xlink:href="#DejaVuSans-30" transform="translate(383.59375 0)"/>
      </g>
     </g>
    </g>
    <g id="text_8">
     <!-- Date and Time -->
     <g transform="translate(332.230469 412.756563) scale(0.1 -0.1)">
      <defs>
       <path id="DejaVuSans-44" d="M 1259 4147 
L 1259 519 
L 2022 519 
Q 2988 519 3436 956 
Q 3884 1394 3884 2338 
Q 3884 3275 3436 3711 
Q 2988 4147 2022 4147 
L 1259 4147 
z
M 628 4666 
L 1925 4666 
Q 3281 4666 3915 4102 
Q 4550 3538 4550 2338 
Q 4550 1131 3912 565 
Q 3275 0 1925 0 
L 628 0 
L 628 4666 
z
" transform="scale(0.015625)"/>
       <path id="DejaVuSans-61" d="M 2194 1759 
Q 1497 1759 1228 1600 
Q 959 1441 959 1056 
Q 959 750 1161 570 
Q 1363 391 1709 391 
Q 2188 391 2477 730 
Q 2766 1069 2766 1631 
L 2766 1759 
L 2194 1759 
z
M 3341 1997 
L 3341 0 
L 2766 0 
L 2766 531 
Q 2569 213 2275 61 
Q 1981 -91 1556 -91 
Q 1019 -91 701 211 
Q 384 513 384 1019 
Q 384 1609 779 1909 
Q 1175 2209 1959 2209 
L 2766 2209 
L 2766 2266 
Q 2766 2663 2505 2880 
Q 2244 3097 1772 3097 
Q 1472 3097 1187 3025 
Q 903 2953 641 2809 
L 641 3341 
Q 956 3463 1253 3523 
Q 1550 3584 1831 3584 
Q 2591 3584 2966 3190 
Q 3341 2797 3341 1997 
z
" transform="scale(0.015625)"/>
       <path id="DejaVuSans-74" d="M 1172 4494 
L 1172 3500 
L 2356 3500 
L 2356 3053 
L 1172 3053 
L 1172 1153 
Q 1172 725 1289 603 
Q 1406 481 1766 481 
L 2356 481 
L 2356 0 
L 1766 0 
Q 1100 0 847 248 
Q 594 497 594 1153 
L 594 3053 
L 172 3053 
L 172 3500 
L 594 3500 
L 594 4494 
L 1172 4494 
z
" transform="scale(0.015625)"/>
       <path id="DejaVuSans-65" d="M 3597 1894 
L 3597 1613 
L 953 1613 
Q 991 1019 1311 708 
Q 1631 397 2203 397 
Q 2534 397 2845 478 
Q 3156 559 3463 722 
L 3463 178 
Q 3153 47 2828 -22 
Q 2503 -91 2169 -91 
Q 1331 -91 842 396 
Q 353 884 353 1716 
Q 353 2575 817 3079 
Q 1281 3584 2069 3584 
Q 2775 3584 3186 3129 
Q 3597 2675 3597 1894 
z
M 3022 2063 
Q 3016 2534 2758 2815 
Q 2500 3097 2075 3097 
Q 1594 3097 1305 2825 
Q 1016 2553 972 2059 
L 3022 2063 
z
" transform="scale(0.015625)"/>
       <path id="DejaVuSans-6e" d="M 3513 2113 
L 3513 0 
L 2938 0 
L 2938 2094 
Q 2938 2591 2744 2837 
Q 2550 3084 2163 3084 
Q 1697 3084 1428 2787 
Q 1159 2491 1159 1978 
L 1159 0 
L 581 0 
L 581 3500 
L 1159 3500 
L 1159 2956 
Q 1366 3272 1645 3428 
Q 1925 3584 2291 3584 
Q 2894 3584 3203 3211 
Q 3513 2838 3513 2113 
z
" transform="scale(0.015625)"/>
       <path id="DejaVuSans-64" d="M 2906 2969 
L 2906 4863 
L 3481 4863 
L 3481 0 
L 2906 0 
L 2906 525 
Q 2725 213 2448 61 
Q 2172 -91 1784 -91 
Q 1150 -91 751 415 
Q 353 922 353 1747 
Q 353 2572 751 3078 
Q 1150 3584 1784 3584 
Q 2172 3584 2448 3432 
Q 2725 3281 2906 2969 
z
M 947 1747 
Q 947 1113 1208 752 
Q 1469 391 1925 391 
Q 2381 391 2643 752 
Q 2906 1113 2906 1747 
Q 2906 2381 2643 2742 
Q 2381 3103 1925 3103 
Q 1469 3103 1208 2742 
Q 947 2381 947 1747 
z
" transform="scale(0.015625)"/>
       <path id="DejaVuSans-54" d="M -19 4666 
L 3928 4666 
L 3928 4134 
L 2272 4134 
L 2272 0 
L 1638 0 
L 1638 4134 
L -19 4134 
L -19 4666 
z
" transform="scale(0.015625)"/>
       <path id="DejaVuSans-69" d="M 603 3500 
L 1178 3500 
L 1178 0 
L 603 0 
L 603 3500 
z
M 603 4863 
L 1178 4863 
L 1178 4134 
L 603 4134 
L 603 4863 
z
" transform="scale(0.015625)"/>
       <path id="DejaVuSans-6d" d="M 3328 2828 
Q 3544 3216 3844 3400 
Q 4144 3584 4550 3584 
Q 5097 3584 5394 3201 
Q 5691 2819 5691 2113 
L 5691 0 
L 5113 0 
L 5113 2094 
Q 5113 2597 4934 2840 
Q 4756 3084 4391 3084 
Q 3944 3084 3684 2787 
Q 3425 2491 3425 1978 
L 3425 0 
L 2847 0 
L 2847 2094 
Q 2847 2600 2669 2842 
Q 2491 3084 2119 3084 
Q 1678 3084 1418 2786 
Q 1159 2488 1159 1978 
L 1159 0 
L 581 0 
L 581 3500 
L 1159 3500 
L 1159 2956 
Q 1356 3278 1631 3431 
Q 1906 3584 2284 3584 
Q 2666 3584 2933 3390 
Q 3200 3197 3328 2828 
z
" transform="scale(0.015625)"/>
      </defs>
      <use xlink:href="#DejaVuSans-44"/>
      <use xlink:href="#DejaVuSans-61" transform="translate(77.001953 0)"/>
      <use xlink:href="#DejaVuSans-74" transform="translate(138.28125 0)"/>
      <use xlink:href="#DejaVuSans-65" transform="translate(177.490234 0)"/>
      <use xlink:href="#DejaVuSans-20" transform="translate(239.013672 0)"/>
      <use xlink:href="#DejaVuSans-61" transform="translate(270.800781 0)"/>
      <use xlink:href="#DejaVuSans-6e" transform="translate(332.080078 0)"/>
      <use xlink:href="#DejaVuSans-64" transform="translate(395.458984 0)"/>
      <use xlink:href="#DejaVuSans-20" transform="translate(458.935547 0)"/>
      <use xlink:href="#DejaVuSans-54" transform="translate(490.722656 0)"/>
      <use xlink:href="#DejaVuSans-69" transform="translate(548.681641 0)"/>
      <use xlink:href="#DejaVuSans-6d" transform="translate(576.464844 0)"/>
      <use xlink:href="#DejaVuSans-65" transform="translate(673.876953 0)"/>
     </g>
    </g>
   </g>
   <g id="matplotlib.axis_2">
    <g id="ytick_1">
     <g id="line2d_15">
      <path d="M 90 370.82087 
L 648 370.82087 
" clip-path="url(#pc98ff54f33)" style="fill: none; stroke: #b0b0b0; stroke-width: 0.8; stroke-linecap: square"/>
     </g>
     <g id="line2d_16">
      <defs>
       <path id="mabe6a7ed00" d="M 0 0 
L -3.5 0 
" style="stroke: #000000; stroke-width: 0.8"/>
      </defs>
      <g>
       <use xlink:href="#mabe6a7ed00" x="90" y="370.82087" style="stroke: #000000; stroke-width: 0.8"/>
      </g>
     </g>
     <g id="text_9">
      <!-- 0 -->
      <g transform="translate(76.6375 374.620088) scale(0.1 -0.1)">
       <use xlink:href="#DejaVuSans-30"/>
      </g>
     </g>
    </g>
    <g id="ytick_2">
     <g id="line2d_17">
      <path d="M 90 297.777391 
L 648 297.777391 
" clip-path="url(#pc98ff54f33)" style="fill: none; stroke: #b0b0b0; stroke-width: 0.8; stroke-linecap: square"/>
     </g>
     <g id="line2d_18">
      <g>
       <use xlink:href="#mabe6a7ed00" x="90" y="297.777391" style="stroke: #000000; stroke-width: 0.8"/>
      </g>
     </g>
     <g id="text_10">
      <!-- 50 -->
      <g transform="translate(70.275 301.57661) scale(0.1 -0.1)">
       <use xlink:href="#DejaVuSans-35"/>
       <use xlink:href="#DejaVuSans-30" transform="translate(63.623047 0)"/>
      </g>
     </g>
    </g>
    <g id="ytick_3">
     <g id="line2d_19">
      <path d="M 90 224.733913 
L 648 224.733913 
" clip-path="url(#pc98ff54f33)" style="fill: none; stroke: #b0b0b0; stroke-width: 0.8; stroke-linecap: square"/>
     </g>
     <g id="line2d_20">
      <g>
       <use xlink:href="#mabe6a7ed00" x="90" y="224.733913" style="stroke: #000000; stroke-width: 0.8"/>
      </g>
     </g>
     <g id="text_11">
      <!-- 100 -->
      <g transform="translate(63.9125 228.533132) scale(0.1 -0.1)">
       <use xlink:href="#DejaVuSans-31"/>
       <use xlink:href="#DejaVuSans-30" transform="translate(63.623047 0)"/>
       <use xlink:href="#DejaVuSans-30" transform="translate(127.246094 0)"/>
      </g>
     </g>
    </g>
    <g id="ytick_4">
     <g id="line2d_21">
      <path d="M 90 151.690435 
L 648 151.690435 
" clip-path="url(#pc98ff54f33)" style="fill: none; stroke: #b0b0b0; stroke-width: 0.8; stroke-linecap: square"/>
     </g>
     <g id="line2d_22">
      <g>
       <use xlink:href="#mabe6a7ed00" x="90" y="151.690435" style="stroke: #000000; stroke-width: 0.8"/>
      </g>
     </g>
     <g id="text_12">
      <!-- 150 -->
      <g transform="translate(63.9125 155.489654) scale(0.1 -0.1)">
       <use xlink:href="#DejaVuSans-31"/>
       <use xlink:href="#DejaVuSans-35" transform="translate(63.623047 0)"/>
       <use xlink:href="#DejaVuSans-30" transform="translate(127.246094 0)"/>
      </g>
     </g>
    </g>
    <g id="ytick_5">
     <g id="line2d_23">
      <path d="M 90 78.646957 
L 648 78.646957 
" clip-path="url(#pc98ff54f33)" style="fill: none; stroke: #b0b0b0; stroke-width: 0.8; stroke-linecap: square"/>
     </g>
     <g id="line2d_24">
      <g>
       <use xlink:href="#mabe6a7ed00" x="90" y="78.646957" style="stroke: #000000; stroke-width: 0.8"/>
      </g>
     </g>
     <g id="text_13">
      <!-- 200 -->
      <g transform="translate(63.9125 82.446175) scale(0.1 -0.1)">
       <defs>
        <path id="DejaVuSans-32" d="M 1228 531 
L 3431 531 
L 3431 0 
L 469 0 
L 469 531 
Q 828 903 1448 1529 
Q 2069 2156 2228 2338 
Q 2531 2678 2651 2914 
Q 2772 3150 2772 3378 
Q 2772 3750 2511 3984 
Q 2250 4219 1831 4219 
Q 1534 4219 1204 4116 
Q 875 4013 500 3803 
L 500 4441 
Q 881 4594 1212 4672 
Q 1544 4750 1819 4750 
Q 2544 4750 2975 4387 
Q 3406 4025 3406 3419 
Q 3406 3131 3298 2873 
Q 3191 2616 2906 2266 
Q 2828 2175 2409 1742 
Q 1991 1309 1228 531 
z
" transform="scale(0.015625)"/>
       </defs>
       <use xlink:href="#DejaVuSans-32"/>
       <use xlink:href="#DejaVuSans-30" transform="translate(63.623047 0)"/>
       <use xlink:href="#DejaVuSans-30" transform="translate(127.246094 0)"/>
      </g>
     </g>
    </g>
    <g id="text_14">
     <!-- Votes -->
     <g transform="translate(57.832812 231.893594) rotate(-90) scale(0.1 -0.1)">
      <defs>
       <path id="DejaVuSans-56" d="M 1831 0 
L 50 4666 
L 709 4666 
L 2188 738 
L 3669 4666 
L 4325 4666 
L 2547 0 
L 1831 0 
z
" transform="scale(0.015625)"/>
       <path id="DejaVuSans-6f" d="M 1959 3097 
Q 1497 3097 1228 2736 
Q 959 2375 959 1747 
Q 959 1119 1226 758 
Q 1494 397 1959 397 
Q 2419 397 2687 759 
Q 2956 1122 2956 1747 
Q 2956 2369 2687 2733 
Q 2419 3097 1959 3097 
z
M 1959 3584 
Q 2709 3584 3137 3096 
Q 3566 2609 3566 1747 
Q 3566 888 3137 398 
Q 2709 -91 1959 -91 
Q 1206 -91 779 398 
Q 353 888 353 1747 
Q 353 2609 779 3096 
Q 1206 3584 1959 3584 
z
" transform="scale(0.015625)"/>
       <path id="DejaVuSans-73" d="M 2834 3397 
L 2834 2853 
Q 2591 2978 2328 3040 
Q 2066 3103 1784 3103 
Q 1356 3103 1142 2972 
Q 928 2841 928 2578 
Q 928 2378 1081 2264 
Q 1234 2150 1697 2047 
L 1894 2003 
Q 2506 1872 2764 1633 
Q 3022 1394 3022 966 
Q 3022 478 2636 193 
Q 2250 -91 1575 -91 
Q 1294 -91 989 -36 
Q 684 19 347 128 
L 347 722 
Q 666 556 975 473 
Q 1284 391 1588 391 
Q 1994 391 2212 530 
Q 2431 669 2431 922 
Q 2431 1156 2273 1281 
Q 2116 1406 1581 1522 
L 1381 1569 
Q 847 1681 609 1914 
Q 372 2147 372 2553 
Q 372 3047 722 3315 
Q 1072 3584 1716 3584 
Q 2034 3584 2315 3537 
Q 2597 3491 2834 3397 
z
" transform="scale(0.015625)"/>
      </defs>
      <use xlink:href="#DejaVuSans-56"/>
      <use xlink:href="#DejaVuSans-6f" transform="translate(60.658203 0)"/>
      <use xlink:href="#DejaVuSans-74" transform="translate(121.839844 0)"/>
      <use xlink:href="#DejaVuSans-65" transform="translate(161.048828 0)"/>
      <use xlink:href="#DejaVuSans-73" transform="translate(222.572266 0)"/>
     </g>
    </g>
   </g>
   <g id="line2d_25">
    <path d="M 115.363636 344.525217 
L 141.922418 344.525217 
L 144.578296 343.064348 
L 171.137078 343.064348 
L 173.792956 340.142609 
L 197.695859 340.142609 
L 200.351737 338.681739 
L 213.631128 338.681739 
L 216.287006 337.22087 
L 226.910519 337.22087 
L 229.566397 335.76 
L 237.534031 335.76 
L 240.18991 334.29913 
L 277.372204 334.29913 
L 280.028082 332.838261 
L 309.242742 332.838261 
L 314.554498 329.916522 
L 319.866254 329.916522 
L 322.522132 328.455652 
L 346.425036 328.455652 
L 351.736792 325.533913 
L 383.60733 325.533913 
L 386.263208 324.073043 
L 394.230842 324.073043 
L 396.886721 322.612174 
L 399.542599 322.612174 
L 402.198477 321.151304 
L 473.907187 321.151304 
L 476.563065 319.690435 
L 508.433603 319.690435 
L 511.089481 318.229565 
L 529.680628 318.229565 
L 532.336506 316.768696 
L 534.992385 313.846957 
L 537.648263 313.846957 
L 542.960019 310.925217 
L 585.454069 310.925217 
L 588.109948 309.464348 
L 604.045217 309.464348 
L 606.701095 308.003478 
L 617.324607 308.003478 
L 619.980485 306.542609 
L 622.636364 306.542609 
L 622.636364 306.542609 
" clip-path="url(#pc98ff54f33)" style="fill: none; stroke: #1f77b4; stroke-width: 1.5; stroke-linecap: square"/>
   </g>
   <g id="line2d_26">
    <path d="M 115.363636 251.029565 
L 118.019515 249.568696 
L 125.987149 249.568696 
L 128.643027 248.107826 
L 131.298905 248.107826 
L 133.954783 246.646957 
L 136.610662 246.646957 
L 141.922418 243.725217 
L 144.578296 240.803478 
L 147.234174 240.803478 
L 152.545931 237.881739 
L 155.201809 237.881739 
L 157.857687 232.038261 
L 160.513565 229.116522 
L 163.169443 223.273043 
L 165.825321 218.890435 
L 173.792956 218.890435 
L 176.448834 214.507826 
L 179.104712 211.586087 
L 184.416468 208.664348 
L 187.072346 205.742609 
L 192.384103 202.82087 
L 195.039981 199.89913 
L 203.007615 199.89913 
L 205.663494 192.594783 
L 208.319372 189.673043 
L 210.97525 188.212174 
L 213.631128 185.290435 
L 216.287006 183.829565 
L 218.942884 183.829565 
L 221.598762 179.446957 
L 224.254641 179.446957 
L 226.910519 176.525217 
L 229.566397 175.064348 
L 232.222275 175.064348 
L 234.878153 173.603478 
L 240.18991 173.603478 
L 242.845788 172.142609 
L 248.157544 172.142609 
L 250.813422 169.22087 
L 253.4693 169.22087 
L 256.125178 167.76 
L 266.748691 167.76 
L 269.404569 166.29913 
L 277.372204 166.29913 
L 280.028082 164.838261 
L 282.68396 164.838261 
L 285.339838 161.916522 
L 287.995716 161.916522 
L 290.651594 158.994783 
L 293.307473 157.533913 
L 301.275107 157.533913 
L 303.930985 154.612174 
L 306.586863 153.151304 
L 309.242742 148.768696 
L 314.554498 145.846957 
L 335.801523 145.846957 
L 338.457401 141.464348 
L 341.113279 141.464348 
L 346.425036 138.542609 
L 349.080914 138.542609 
L 357.048548 134.16 
L 362.360305 134.16 
L 365.016183 132.69913 
L 370.327939 132.69913 
L 378.295574 128.316522 
L 383.60733 128.316522 
L 386.263208 126.855652 
L 399.542599 126.855652 
L 402.198477 125.394783 
L 407.510233 125.394783 
L 410.166111 123.933913 
L 442.036649 123.933913 
L 444.692527 121.012174 
L 450.004284 121.012174 
L 455.31604 118.090435 
L 457.971918 118.090435 
L 460.627796 116.629565 
L 476.563065 116.629565 
L 484.5307 112.246957 
L 487.186578 112.246957 
L 489.842456 110.786087 
L 492.498334 107.864348 
L 495.154212 107.864348 
L 497.81009 106.403478 
L 500.465969 106.403478 
L 511.089481 100.56 
L 516.401238 100.56 
L 519.057116 97.638261 
L 527.02475 97.638261 
L 529.680628 96.177391 
L 537.648263 96.177391 
L 540.304141 94.716522 
L 542.960019 94.716522 
L 545.615897 90.333913 
L 553.583532 90.333913 
L 556.23941 88.873043 
L 558.895288 85.951304 
L 564.207044 85.951304 
L 566.862922 84.490435 
L 572.174679 84.490435 
L 574.830557 83.029565 
L 577.486435 83.029565 
L 590.765826 75.725217 
L 596.077582 75.725217 
L 604.045217 71.342609 
L 612.012851 71.342609 
L 614.668729 68.42087 
L 617.324607 68.42087 
L 619.980485 66.96 
L 622.636364 66.96 
L 622.636364 66.96 
" clip-path="url(#pc98ff54f33)" style="fill: none; stroke: #ff7f0e; stroke-width: 1.5; stroke-linecap: square"/>
   </g>
   <g id="line2d_27">
    <path d="M 115.363636 325.533913 
L 125.987149 325.533913 
L 128.643027 322.612174 
L 133.954783 322.612174 
L 136.610662 321.151304 
L 139.26654 318.229565 
L 141.922418 316.768696 
L 144.578296 312.386087 
L 147.234174 309.464348 
L 149.890052 308.003478 
L 152.545931 308.003478 
L 155.201809 305.081739 
L 157.857687 300.69913 
L 168.481199 300.69913 
L 171.137078 299.238261 
L 173.792956 299.238261 
L 176.448834 296.316522 
L 184.416468 296.316522 
L 189.728225 293.394783 
L 200.351737 293.394783 
L 203.007615 291.933913 
L 213.631128 291.933913 
L 221.598762 287.551304 
L 234.878153 287.551304 
L 237.534031 286.090435 
L 245.501666 286.090435 
L 248.157544 284.629565 
L 253.4693 284.629565 
L 256.125178 281.707826 
L 277.372204 281.707826 
L 280.028082 280.246957 
L 282.68396 277.325217 
L 285.339838 275.864348 
L 287.995716 275.864348 
L 290.651594 274.403478 
L 295.963351 274.403478 
L 298.619229 272.942609 
L 303.930985 272.942609 
L 306.586863 271.481739 
L 322.522132 271.481739 
L 325.17801 270.02087 
L 327.833889 270.02087 
L 330.489767 268.56 
L 333.145645 268.56 
L 335.801523 267.09913 
L 343.769158 267.09913 
L 346.425036 265.638261 
L 349.080914 262.716522 
L 362.360305 262.716522 
L 370.327939 258.333913 
L 378.295574 258.333913 
L 380.951452 256.873043 
L 391.574964 256.873043 
L 394.230842 255.412174 
L 396.886721 255.412174 
L 399.542599 253.951304 
L 404.854355 253.951304 
L 407.510233 252.490435 
L 415.477868 252.490435 
L 420.789624 249.568696 
L 423.445502 249.568696 
L 426.10138 248.107826 
L 447.348406 248.107826 
L 450.004284 245.186087 
L 452.660162 243.725217 
L 473.907187 243.725217 
L 476.563065 242.264348 
L 484.5307 242.264348 
L 487.186578 240.803478 
L 495.154212 240.803478 
L 497.81009 239.342609 
L 524.368872 239.342609 
L 527.02475 237.881739 
L 537.648263 237.881739 
L 540.304141 236.42087 
L 556.23941 236.42087 
L 558.895288 234.96 
L 564.207044 234.96 
L 566.862922 233.49913 
L 577.486435 233.49913 
L 582.798191 230.577391 
L 622.636364 230.577391 
L 622.636364 230.577391 
" clip-path="url(#pc98ff54f33)" style="fill: none; stroke: #2ca02c; stroke-width: 1.5; stroke-linecap: square"/>
   </g>
   <g id="line2d_28">
    <path d="M 115.363636 369.36 
L 622.636364 369.36 
L 622.636364 369.36 
" clip-path="url(#pc98ff54f33)" style="fill: none; stroke: #d62728; stroke-width: 1.5; stroke-linecap: square"/>
   </g>
   <g id="line2d_29">
    <path d="M 115.363636 337.22087 
L 123.331271 337.22087 
L 125.987149 335.76 
L 141.922418 335.76 
L 144.578296 334.29913 
L 160.513565 334.29913 
L 163.169443 332.838261 
L 221.598762 332.838261 
L 224.254641 331.377391 
L 319.866254 331.377391 
L 325.17801 328.455652 
L 346.425036 328.455652 
L 349.080914 326.994783 
L 359.704426 326.994783 
L 362.360305 325.533913 
L 367.672061 325.533913 
L 370.327939 324.073043 
L 439.380771 324.073043 
L 442.036649 322.612174 
L 550.927653 322.612174 
L 553.583532 321.151304 
L 622.636364 321.151304 
L 622.636364 321.151304 
" clip-path="url(#pc98ff54f33)" style="fill: none; stroke: #9467bd; stroke-width: 1.5; stroke-linecap: square"/>
   </g>
   <g id="line2d_30">
    <path d="M 115.363636 348.907826 
L 118.019515 348.907826 
L 120.675393 347.446957 
L 157.857687 347.446957 
L 160.513565 345.986087 
L 192.384103 345.986087 
L 195.039981 344.525217 
L 234.878153 344.525217 
L 240.18991 341.603478 
L 269.404569 341.603478 
L 272.060447 340.142609 
L 351.736792 340.142609 
L 354.39267 338.681739 
L 378.295574 338.681739 
L 380.951452 337.22087 
L 426.10138 337.22087 
L 428.757258 335.76 
L 471.251309 335.76 
L 473.907187 334.29913 
L 484.5307 334.29913 
L 487.186578 332.838261 
L 511.089481 332.838261 
L 513.745359 331.377391 
L 577.486435 331.377391 
L 580.142313 329.916522 
L 596.077582 329.916522 
L 598.73346 328.455652 
L 614.668729 328.455652 
L 617.324607 326.994783 
L 622.636364 326.994783 
L 622.636364 326.994783 
" clip-path="url(#pc98ff54f33)" style="fill: none; stroke: #8c564b; stroke-width: 1.5; stroke-linecap: square"/>
   </g>
   <g id="line2d_31">
    <path d="M 115.363636 240.803478 
L 125.987149 240.803478 
L 128.643027 239.342609 
L 139.26654 239.342609 
L 144.578296 236.42087 
L 147.234174 236.42087 
L 149.890052 234.96 
L 152.545931 234.96 
L 155.201809 233.49913 
L 160.513565 233.49913 
L 163.169443 232.038261 
L 171.137078 232.038261 
L 173.792956 230.577391 
L 179.104712 230.577391 
L 181.76059 229.116522 
L 184.416468 229.116522 
L 187.072346 227.655652 
L 192.384103 227.655652 
L 197.695859 224.733913 
L 208.319372 224.733913 
L 210.97525 223.273043 
L 218.942884 223.273043 
L 224.254641 220.351304 
L 229.566397 220.351304 
L 232.222275 218.890435 
L 237.534031 218.890435 
L 240.18991 217.429565 
L 242.845788 214.507826 
L 245.501666 210.125217 
L 250.813422 210.125217 
L 253.4693 208.664348 
L 266.748691 208.664348 
L 272.060447 205.742609 
L 274.716326 202.82087 
L 277.372204 201.36 
L 280.028082 201.36 
L 282.68396 198.438261 
L 293.307473 198.438261 
L 295.963351 196.977391 
L 298.619229 196.977391 
L 303.930985 194.055652 
L 306.586863 194.055652 
L 309.242742 192.594783 
L 311.89862 192.594783 
L 317.210376 189.673043 
L 322.522132 189.673043 
L 325.17801 186.751304 
L 335.801523 186.751304 
L 341.113279 183.829565 
L 346.425036 183.829565 
L 349.080914 182.368696 
L 351.736792 179.446957 
L 359.704426 179.446957 
L 362.360305 177.986087 
L 365.016183 177.986087 
L 367.672061 175.064348 
L 370.327939 175.064348 
L 372.983817 173.603478 
L 375.639695 173.603478 
L 378.295574 172.142609 
L 388.919086 172.142609 
L 394.230842 169.22087 
L 396.886721 169.22087 
L 399.542599 166.29913 
L 402.198477 166.29913 
L 404.854355 164.838261 
L 407.510233 164.838261 
L 410.166111 163.377391 
L 418.133746 163.377391 
L 420.789624 161.916522 
L 423.445502 161.916522 
L 434.069015 156.073043 
L 436.724893 153.151304 
L 442.036649 153.151304 
L 447.348406 147.307826 
L 452.660162 147.307826 
L 457.971918 144.386087 
L 460.627796 144.386087 
L 463.283674 141.464348 
L 465.939553 141.464348 
L 468.595431 140.003478 
L 471.251309 140.003478 
L 473.907187 138.542609 
L 479.218943 138.542609 
L 481.874822 137.081739 
L 484.5307 137.081739 
L 487.186578 135.62087 
L 497.81009 135.62087 
L 500.465969 128.316522 
L 503.121847 128.316522 
L 505.777725 126.855652 
L 513.745359 126.855652 
L 516.401238 125.394783 
L 540.304141 125.394783 
L 542.960019 122.473043 
L 553.583532 122.473043 
L 556.23941 121.012174 
L 582.798191 121.012174 
L 585.454069 118.090435 
L 588.109948 116.629565 
L 601.389338 116.629565 
L 604.045217 115.168696 
L 622.636364 115.168696 
L 622.636364 115.168696 
" clip-path="url(#pc98ff54f33)" style="fill: none; stroke: #e377c2; stroke-width: 1.5; stroke-linecap: square"/>
   </g>
   <g id="line2d_32">
    <path d="M 115.363636 331.377391 
L 118.019515 331.377391 
L 123.331271 328.455652 
L 136.610662 328.455652 
L 139.26654 326.994783 
L 141.922418 326.994783 
L 147.234174 324.073043 
L 152.545931 324.073043 
L 155.201809 322.612174 
L 163.169443 322.612174 
L 165.825321 321.151304 
L 168.481199 321.151304 
L 171.137078 319.690435 
L 173.792956 319.690435 
L 179.104712 316.768696 
L 187.072346 316.768696 
L 189.728225 315.307826 
L 195.039981 315.307826 
L 200.351737 312.386087 
L 205.663494 312.386087 
L 210.97525 309.464348 
L 213.631128 309.464348 
L 216.287006 308.003478 
L 218.942884 303.62087 
L 229.566397 303.62087 
L 240.18991 297.777391 
L 242.845788 297.777391 
L 248.157544 294.855652 
L 250.813422 294.855652 
L 253.4693 293.394783 
L 256.125178 293.394783 
L 258.781057 291.933913 
L 282.68396 291.933913 
L 285.339838 290.473043 
L 311.89862 290.473043 
L 317.210376 287.551304 
L 325.17801 287.551304 
L 327.833889 286.090435 
L 333.145645 286.090435 
L 338.457401 283.168696 
L 343.769158 283.168696 
L 346.425036 280.246957 
L 354.39267 280.246957 
L 357.048548 277.325217 
L 359.704426 275.864348 
L 372.983817 275.864348 
L 375.639695 274.403478 
L 378.295574 274.403478 
L 383.60733 271.481739 
L 396.886721 271.481739 
L 399.542599 270.02087 
L 402.198477 270.02087 
L 404.854355 268.56 
L 420.789624 268.56 
L 423.445502 267.09913 
L 431.413137 267.09913 
L 434.069015 265.638261 
L 436.724893 265.638261 
L 439.380771 261.255652 
L 442.036649 261.255652 
L 444.692527 258.333913 
L 447.348406 256.873043 
L 450.004284 256.873043 
L 455.31604 253.951304 
L 460.627796 253.951304 
L 463.283674 252.490435 
L 468.595431 252.490435 
L 471.251309 251.029565 
L 473.907187 251.029565 
L 476.563065 248.107826 
L 479.218943 248.107826 
L 481.874822 246.646957 
L 487.186578 246.646957 
L 492.498334 243.725217 
L 495.154212 243.725217 
L 497.81009 240.803478 
L 500.465969 239.342609 
L 519.057116 239.342609 
L 521.712994 236.42087 
L 529.680628 236.42087 
L 532.336506 234.96 
L 534.992385 234.96 
L 537.648263 233.49913 
L 545.615897 233.49913 
L 548.271775 232.038261 
L 561.551166 232.038261 
L 564.207044 230.577391 
L 569.518801 230.577391 
L 572.174679 229.116522 
L 585.454069 229.116522 
L 588.109948 227.655652 
L 612.012851 227.655652 
L 617.324607 224.733913 
L 619.980485 224.733913 
L 622.636364 223.273043 
L 622.636364 223.273043 
" clip-path="url(#pc98ff54f33)" style="fill: none; stroke: #7f7f7f; stroke-width: 1.5; stroke-linecap: square"/>
   </g>
   <g id="line2d_33">
    <path d="M 115.363636 340.142609 
L 125.987149 340.142609 
L 128.643027 338.681739 
L 155.201809 338.681739 
L 157.857687 337.22087 
L 171.137078 337.22087 
L 173.792956 335.76 
L 200.351737 335.76 
L 203.007615 334.29913 
L 229.566397 334.29913 
L 232.222275 332.838261 
L 375.639695 332.838261 
L 378.295574 331.377391 
L 391.574964 331.377391 
L 394.230842 329.916522 
L 412.82199 329.916522 
L 415.477868 328.455652 
L 418.133746 328.455652 
L 420.789624 324.073043 
L 423.445502 322.612174 
L 428.757258 322.612174 
L 431.413137 321.151304 
L 457.971918 321.151304 
L 460.627796 319.690435 
L 484.5307 319.690435 
L 487.186578 318.229565 
L 516.401238 318.229565 
L 519.057116 316.768696 
L 550.927653 316.768696 
L 553.583532 315.307826 
L 566.862922 315.307826 
L 569.518801 313.846957 
L 622.636364 313.846957 
L 622.636364 313.846957 
" clip-path="url(#pc98ff54f33)" style="fill: none; stroke: #bcbd22; stroke-width: 1.5; stroke-linecap: square"/>
   </g>
   <g id="line2d_34">
    <path d="M 115.363636 366.438261 
L 248.157544 366.438261 
L 250.813422 364.977391 
L 418.133746 364.977391 
L 420.789624 363.516522 
L 622.636364 363.516522 
L 622.636364 363.516522 
" clip-path="url(#pc98ff54f33)" style="fill: none; stroke: #17becf; stroke-width: 1.5; stroke-linecap: square"/>
   </g>
   <g id="line2d_35">
    <path d="M 115.363636 369.36 
L 118.019515 367.89913 
L 123.331271 367.89913 
L 125.987149 366.438261 
L 144.578296 366.438261 
L 147.234174 364.977391 
L 155.201809 364.977391 
L 157.857687 363.516522 
L 160.513565 363.516522 
L 165.825321 360.594783 
L 179.104712 360.594783 
L 184.416468 357.673043 
L 187.072346 357.673043 
L 189.728225 356.212174 
L 208.319372 356.212174 
L 210.97525 354.751304 
L 213.631128 351.829565 
L 218.942884 351.829565 
L 221.598762 350.368696 
L 224.254641 350.368696 
L 226.910519 348.907826 
L 229.566397 348.907826 
L 232.222275 347.446957 
L 234.878153 347.446957 
L 240.18991 344.525217 
L 256.125178 344.525217 
L 261.436935 341.603478 
L 269.404569 341.603478 
L 272.060447 340.142609 
L 274.716326 340.142609 
L 277.372204 337.22087 
L 285.339838 337.22087 
L 290.651594 331.377391 
L 306.586863 331.377391 
L 309.242742 328.455652 
L 311.89862 326.994783 
L 319.866254 326.994783 
L 322.522132 325.533913 
L 325.17801 322.612174 
L 330.489767 322.612174 
L 333.145645 321.151304 
L 370.327939 321.151304 
L 372.983817 318.229565 
L 391.574964 308.003478 
L 418.133746 308.003478 
L 426.10138 303.62087 
L 431.413137 303.62087 
L 434.069015 300.69913 
L 439.380771 300.69913 
L 442.036649 299.238261 
L 450.004284 299.238261 
L 452.660162 297.777391 
L 455.31604 297.777391 
L 457.971918 296.316522 
L 460.627796 296.316522 
L 465.939553 293.394783 
L 500.465969 293.394783 
L 505.777725 290.473043 
L 527.02475 290.473043 
L 529.680628 289.012174 
L 537.648263 289.012174 
L 542.960019 286.090435 
L 550.927653 286.090435 
L 553.583532 284.629565 
L 558.895288 284.629565 
L 561.551166 283.168696 
L 574.830557 283.168696 
L 577.486435 281.707826 
L 580.142313 281.707826 
L 582.798191 278.786087 
L 585.454069 278.786087 
L 588.109948 277.325217 
L 601.389338 277.325217 
L 604.045217 275.864348 
L 609.356973 275.864348 
L 612.012851 274.403478 
L 614.668729 274.403478 
L 619.980485 271.481739 
L 622.636364 271.481739 
L 622.636364 271.481739 
" clip-path="url(#pc98ff54f33)" style="fill: none; stroke: #1f77b4; stroke-width: 1.5; stroke-linecap: square"/>
   </g>
   <g id="line2d_36">
    <path d="M 115.363636 315.307826 
L 133.954783 315.307826 
L 136.610662 313.846957 
L 144.578296 313.846957 
L 147.234174 312.386087 
L 157.857687 312.386087 
L 160.513565 310.925217 
L 168.481199 310.925217 
L 171.137078 309.464348 
L 173.792956 309.464348 
L 176.448834 308.003478 
L 184.416468 308.003478 
L 187.072346 306.542609 
L 192.384103 306.542609 
L 195.039981 305.081739 
L 197.695859 305.081739 
L 203.007615 302.16 
L 218.942884 302.16 
L 221.598762 300.69913 
L 224.254641 300.69913 
L 226.910519 299.238261 
L 229.566397 299.238261 
L 232.222275 296.316522 
L 234.878153 291.933913 
L 237.534031 290.473043 
L 248.157544 290.473043 
L 256.125178 286.090435 
L 264.092813 286.090435 
L 269.404569 283.168696 
L 298.619229 283.168696 
L 301.275107 278.786087 
L 303.930985 278.786087 
L 309.242742 272.942609 
L 314.554498 270.02087 
L 317.210376 270.02087 
L 319.866254 267.09913 
L 341.113279 267.09913 
L 343.769158 264.177391 
L 351.736792 264.177391 
L 354.39267 262.716522 
L 372.983817 262.716522 
L 375.639695 261.255652 
L 407.510233 261.255652 
L 410.166111 259.794783 
L 412.82199 259.794783 
L 415.477868 258.333913 
L 423.445502 258.333913 
L 426.10138 256.873043 
L 457.971918 256.873043 
L 460.627796 255.412174 
L 465.939553 255.412174 
L 471.251309 249.568696 
L 476.563065 249.568696 
L 481.874822 246.646957 
L 487.186578 246.646957 
L 489.842456 245.186087 
L 497.81009 245.186087 
L 500.465969 243.725217 
L 532.336506 243.725217 
L 534.992385 242.264348 
L 574.830557 242.264348 
L 577.486435 240.803478 
L 601.389338 240.803478 
L 604.045217 239.342609 
L 609.356973 239.342609 
L 612.012851 237.881739 
L 619.980485 237.881739 
L 622.636364 236.42087 
L 622.636364 236.42087 
" clip-path="url(#pc98ff54f33)" style="fill: none; stroke: #ff7f0e; stroke-width: 1.5; stroke-linecap: square"/>
   </g>
   <g id="patch_3">
    <path d="M 90 384.48 
L 90 51.84 
" style="fill: none; stroke: #000000; stroke-width: 0.8; stroke-linejoin: miter; stroke-linecap: square"/>
   </g>
   <g id="patch_4">
    <path d="M 648 384.48 
L 648 51.84 
" style="fill: none; stroke: #000000; stroke-width: 0.8; stroke-linejoin: miter; stroke-linecap: square"/>
   </g>
   <g id="patch_5">
    <path d="M 90 384.48 
L 648 384.48 
" style="fill: none; stroke: #000000; stroke-width: 0.8; stroke-linejoin: miter; stroke-linecap: square"/>
   </g>
   <g id="patch_6">
    <path d="M 90 51.84 
L 648 51.84 
" style="fill: none; stroke: #000000; stroke-width: 0.8; stroke-linejoin: miter; stroke-linecap: square"/>
   </g>
   <g id="text_15">
    <!-- Time Series of Votes for Each Keyword -->
    <g transform="translate(253.716563 45.84) scale(0.12 -0.12)">
     <defs>
      <path id="DejaVuSans-53" d="M 3425 4513 
L 3425 3897 
Q 3066 4069 2747 4153 
Q 2428 4238 2131 4238 
Q 1616 4238 1336 4038 
Q 1056 3838 1056 3469 
Q 1056 3159 1242 3001 
Q 1428 2844 1947 2747 
L 2328 2669 
Q 3034 2534 3370 2195 
Q 3706 1856 3706 1288 
Q 3706 609 3251 259 
Q 2797 -91 1919 -91 
Q 1588 -91 1214 -16 
Q 841 59 441 206 
L 441 856 
Q 825 641 1194 531 
Q 1563 422 1919 422 
Q 2459 422 2753 634 
Q 3047 847 3047 1241 
Q 3047 1584 2836 1778 
Q 2625 1972 2144 2069 
L 1759 2144 
Q 1053 2284 737 2584 
Q 422 2884 422 3419 
Q 422 4038 858 4394 
Q 1294 4750 2059 4750 
Q 2388 4750 2728 4690 
Q 3069 4631 3425 4513 
z
" transform="scale(0.015625)"/>
      <path id="DejaVuSans-72" d="M 2631 2963 
Q 2534 3019 2420 3045 
Q 2306 3072 2169 3072 
Q 1681 3072 1420 2755 
Q 1159 2438 1159 1844 
L 1159 0 
L 581 0 
L 581 3500 
L 1159 3500 
L 1159 2956 
Q 1341 3275 1631 3429 
Q 1922 3584 2338 3584 
Q 2397 3584 2469 3576 
Q 2541 3569 2628 3553 
L 2631 2963 
z
" transform="scale(0.015625)"/>
      <path id="DejaVuSans-66" d="M 2375 4863 
L 2375 4384 
L 1825 4384 
Q 1516 4384 1395 4259 
Q 1275 4134 1275 3809 
L 1275 3500 
L 2222 3500 
L 2222 3053 
L 1275 3053 
L 1275 0 
L 697 0 
L 697 3053 
L 147 3053 
L 147 3500 
L 697 3500 
L 697 3744 
Q 697 4328 969 4595 
Q 1241 4863 1831 4863 
L 2375 4863 
z
" transform="scale(0.015625)"/>
      <path id="DejaVuSans-45" d="M 628 4666 
L 3578 4666 
L 3578 4134 
L 1259 4134 
L 1259 2753 
L 3481 2753 
L 3481 2222 
L 1259 2222 
L 1259 531 
L 3634 531 
L 3634 0 
L 628 0 
L 628 4666 
z
" transform="scale(0.015625)"/>
      <path id="DejaVuSans-63" d="M 3122 3366 
L 3122 2828 
Q 2878 2963 2633 3030 
Q 2388 3097 2138 3097 
Q 1578 3097 1268 2742 
Q 959 2388 959 1747 
Q 959 1106 1268 751 
Q 1578 397 2138 397 
Q 2388 397 2633 464 
Q 2878 531 3122 666 
L 3122 134 
Q 2881 22 2623 -34 
Q 2366 -91 2075 -91 
Q 1284 -91 818 406 
Q 353 903 353 1747 
Q 353 2603 823 3093 
Q 1294 3584 2113 3584 
Q 2378 3584 2631 3529 
Q 2884 3475 3122 3366 
z
" transform="scale(0.015625)"/>
      <path id="DejaVuSans-68" d="M 3513 2113 
L 3513 0 
L 2938 0 
L 2938 2094 
Q 2938 2591 2744 2837 
Q 2550 3084 2163 3084 
Q 1697 3084 1428 2787 
Q 1159 2491 1159 1978 
L 1159 0 
L 581 0 
L 581 4863 
L 1159 4863 
L 1159 2956 
Q 1366 3272 1645 3428 
Q 1925 3584 2291 3584 
Q 2894 3584 3203 3211 
Q 3513 2838 3513 2113 
z
" transform="scale(0.015625)"/>
      <path id="DejaVuSans-4b" d="M 628 4666 
L 1259 4666 
L 1259 2694 
L 3353 4666 
L 4166 4666 
L 1850 2491 
L 4331 0 
L 3500 0 
L 1259 2247 
L 1259 0 
L 628 0 
L 628 4666 
z
" transform="scale(0.015625)"/>
      <path id="DejaVuSans-79" d="M 2059 -325 
Q 1816 -950 1584 -1140 
Q 1353 -1331 966 -1331 
L 506 -1331 
L 506 -850 
L 844 -850 
Q 1081 -850 1212 -737 
Q 1344 -625 1503 -206 
L 1606 56 
L 191 3500 
L 800 3500 
L 1894 763 
L 2988 3500 
L 3597 3500 
L 2059 -325 
z
" transform="scale(0.015625)"/>
      <path id="DejaVuSans-77" d="M 269 3500 
L 844 3500 
L 1563 769 
L 2278 3500 
L 2956 3500 
L 3675 769 
L 4391 3500 
L 4966 3500 
L 4050 0 
L 3372 0 
L 2619 2869 
L 1863 0 
L 1184 0 
L 269 3500 
z
" transform="scale(0.015625)"/>
     </defs>
     <use xlink:href="#DejaVuSans-54"/>
     <use xlink:href="#DejaVuSans-69" transform="translate(57.958984 0)"/>
     <use xlink:href="#DejaVuSans-6d" transform="translate(85.742188 0)"/>
     <use xlink:href="#DejaVuSans-65" transform="translate(183.154297 0)"/>
     <use xlink:href="#DejaVuSans-20" transform="translate(244.677734 0)"/>
     <use xlink:href="#DejaVuSans-53" transform="translate(276.464844 0)"/>
     <use xlink:href="#DejaVuSans-65" transform="translate(339.941406 0)"/>
     <use xlink:href="#DejaVuSans-72" transform="translate(401.464844 0)"/>
     <use xlink:href="#DejaVuSans-69" transform="translate(442.578125 0)"/>
     <use xlink:href="#DejaVuSans-65" transform="translate(470.361328 0)"/>
     <use xlink:href="#DejaVuSans-73" transform="translate(531.884766 0)"/>
     <use xlink:href="#DejaVuSans-20" transform="translate(583.984375 0)"/>
     <use xlink:href="#DejaVuSans-6f" transform="translate(615.771484 0)"/>
     <use xlink:href="#DejaVuSans-66" transform="translate(676.953125 0)"/>
     <use xlink:href="#DejaVuSans-20" transform="translate(712.158203 0)"/>
     <use xlink:href="#DejaVuSans-56" transform="translate(743.945312 0)"/>
     <use xlink:href="#DejaVuSans-6f" transform="translate(804.603516 0)"/>
     <use xlink:href="#DejaVuSans-74" transform="translate(865.785156 0)"/>
     <use xlink:href="#DejaVuSans-65" transform="translate(904.994141 0)"/>
     <use xlink:href="#DejaVuSans-73" transform="translate(966.517578 0)"/>
     <use xlink:href="#DejaVuSans-20" transform="translate(1018.617188 0)"/>
     <use xlink:href="#DejaVuSans-66" transform="translate(1050.404297 0)"/>
     <use xlink:href="#DejaVuSans-6f" transform="translate(1085.609375 0)"/>
     <use xlink:href="#DejaVuSans-72" transform="translate(1146.791016 0)"/>
     <use xlink:href="#DejaVuSans-20" transform="translate(1187.904297 0)"/>
     <use xlink:href="#DejaVuSans-45" transform="translate(1219.691406 0)"/>
     <use xlink:href="#DejaVuSans-61" transform="translate(1282.875 0)"/>
     <use xlink:href="#DejaVuSans-63" transform="translate(1344.154297 0)"/>
     <use xlink:href="#DejaVuSans-68" transform="translate(1399.134766 0)"/>
     <use xlink:href="#DejaVuSans-20" transform="translate(1462.513672 0)"/>
     <use xlink:href="#DejaVuSans-4b" transform="translate(1494.300781 0)"/>
     <use xlink:href="#DejaVuSans-65" transform="translate(1554.876953 0)"/>
     <use xlink:href="#DejaVuSans-79" transform="translate(1616.400391 0)"/>
     <use xlink:href="#DejaVuSans-77" transform="translate(1675.580078 0)"/>
     <use xlink:href="#DejaVuSans-6f" transform="translate(1757.367188 0)"/>
     <use xlink:href="#DejaVuSans-72" transform="translate(1818.548828 0)"/>
     <use xlink:href="#DejaVuSans-64" transform="translate(1857.912109 0)"/>
    </g>
   </g>
   <g id="legend_1">
    <g id="patch_7">
     <path d="M 97 235.9775 
L 149.245313 235.9775 
Q 151.245313 235.9775 151.245313 233.9775 
L 151.245313 58.84 
Q 151.245313 56.84 149.245313 56.84 
L 97 56.84 
Q 95 56.84 95 58.84 
L 95 233.9775 
Q 95 235.9775 97 235.9775 
z
" style="fill: #ffffff; opacity: 0.8; stroke: #cccccc; stroke-linejoin: miter"/>
    </g>
    <g id="line2d_37">
     <path d="M 99 64.938437 
L 109 64.938437 
L 119 64.938437 
" style="fill: none; stroke: #1f77b4; stroke-width: 1.5; stroke-linecap: square"/>
    </g>
    <g id="text_16">
     <!-- H01 -->
     <g transform="translate(127 68.438437) scale(0.1 -0.1)">
      <defs>
       <path id="DejaVuSans-48" d="M 628 4666 
L 1259 4666 
L 1259 2753 
L 3553 2753 
L 3553 4666 
L 4184 4666 
L 4184 0 
L 3553 0 
L 3553 2222 
L 1259 2222 
L 1259 0 
L 628 0 
L 628 4666 
z
" transform="scale(0.015625)"/>
      </defs>
      <use xlink:href="#DejaVuSans-48"/>
      <use xlink:href="#DejaVuSans-30" transform="translate(75.195312 0)"/>
      <use xlink:href="#DejaVuSans-31" transform="translate(138.818359 0)"/>
     </g>
    </g>
    <g id="line2d_38">
     <path d="M 99 79.616562 
L 109 79.616562 
L 119 79.616562 
" style="fill: none; stroke: #ff7f0e; stroke-width: 1.5; stroke-linecap: square"/>
    </g>
    <g id="text_17">
     <!-- H02 -->
     <g transform="translate(127 83.116562) scale(0.1 -0.1)">
      <use xlink:href="#DejaVuSans-48"/>
      <use xlink:href="#DejaVuSans-30" transform="translate(75.195312 0)"/>
      <use xlink:href="#DejaVuSans-32" transform="translate(138.818359 0)"/>
     </g>
    </g>
    <g id="line2d_39">
     <path d="M 99 94.294688 
L 109 94.294688 
L 119 94.294688 
" style="fill: none; stroke: #2ca02c; stroke-width: 1.5; stroke-linecap: square"/>
    </g>
    <g id="text_18">
     <!-- H03 -->
     <g transform="translate(127 97.794688) scale(0.1 -0.1)">
      <use xlink:href="#DejaVuSans-48"/>
      <use xlink:href="#DejaVuSans-30" transform="translate(75.195312 0)"/>
      <use xlink:href="#DejaVuSans-33" transform="translate(138.818359 0)"/>
     </g>
    </g>
    <g id="line2d_40">
     <path d="M 99 108.972812 
L 109 108.972812 
L 119 108.972812 
" style="fill: none; stroke: #d62728; stroke-width: 1.5; stroke-linecap: square"/>
    </g>
    <g id="text_19">
     <!-- H04 -->
     <g transform="translate(127 112.472812) scale(0.1 -0.1)">
      <use xlink:href="#DejaVuSans-48"/>
      <use xlink:href="#DejaVuSans-30" transform="translate(75.195312 0)"/>
      <use xlink:href="#DejaVuSans-34" transform="translate(138.818359 0)"/>
     </g>
    </g>
    <g id="line2d_41">
     <path d="M 99 123.650937 
L 109 123.650937 
L 119 123.650937 
" style="fill: none; stroke: #9467bd; stroke-width: 1.5; stroke-linecap: square"/>
    </g>
    <g id="text_20">
     <!-- H05 -->
     <g transform="translate(127 127.150937) scale(0.1 -0.1)">
      <use xlink:href="#DejaVuSans-48"/>
      <use xlink:href="#DejaVuSans-30" transform="translate(75.195312 0)"/>
      <use xlink:href="#DejaVuSans-35" transform="translate(138.818359 0)"/>
     </g>
    </g>
    <g id="line2d_42">
     <path d="M 99 138.329062 
L 109 138.329062 
L 119 138.329062 
" style="fill: none; stroke: #8c564b; stroke-width: 1.5; stroke-linecap: square"/>
    </g>
    <g id="text_21">
     <!-- H06 -->
     <g transform="translate(127 141.829062) scale(0.1 -0.1)">
      <use xlink:href="#DejaVuSans-48"/>
      <use xlink:href="#DejaVuSans-30" transform="translate(75.195312 0)"/>
      <use xlink:href="#DejaVuSans-36" transform="translate(138.818359 0)"/>
     </g>
    </g>
    <g id="line2d_43">
     <path d="M 99 153.007187 
L 109 153.007187 
L 119 153.007187 
" style="fill: none; stroke: #e377c2; stroke-width: 1.5; stroke-linecap: square"/>
    </g>
    <g id="text_22">
     <!-- H07 -->
     <g transform="translate(127 156.507187) scale(0.1 -0.1)">
      <defs>
       <path id="DejaVuSans-37" d="M 525 4666 
L 3525 4666 
L 3525 4397 
L 1831 0 
L 1172 0 
L 2766 4134 
L 525 4134 
L 525 4666 
z
" transform="scale(0.015625)"/>
      </defs>
      <use xlink:href="#DejaVuSans-48"/>
      <use xlink:href="#DejaVuSans-30" transform="translate(75.195312 0)"/>
      <use xlink:href="#DejaVuSans-37" transform="translate(138.818359 0)"/>
     </g>
    </g>
    <g id="line2d_44">
     <path d="M 99 167.685312 
L 109 167.685312 
L 119 167.685312 
" style="fill: none; stroke: #7f7f7f; stroke-width: 1.5; stroke-linecap: square"/>
    </g>
    <g id="text_23">
     <!-- H08 -->
     <g transform="translate(127 171.185312) scale(0.1 -0.1)">
      <defs>
       <path id="DejaVuSans-38" d="M 2034 2216 
Q 1584 2216 1326 1975 
Q 1069 1734 1069 1313 
Q 1069 891 1326 650 
Q 1584 409 2034 409 
Q 2484 409 2743 651 
Q 3003 894 3003 1313 
Q 3003 1734 2745 1975 
Q 2488 2216 2034 2216 
z
M 1403 2484 
Q 997 2584 770 2862 
Q 544 3141 544 3541 
Q 544 4100 942 4425 
Q 1341 4750 2034 4750 
Q 2731 4750 3128 4425 
Q 3525 4100 3525 3541 
Q 3525 3141 3298 2862 
Q 3072 2584 2669 2484 
Q 3125 2378 3379 2068 
Q 3634 1759 3634 1313 
Q 3634 634 3220 271 
Q 2806 -91 2034 -91 
Q 1263 -91 848 271 
Q 434 634 434 1313 
Q 434 1759 690 2068 
Q 947 2378 1403 2484 
z
M 1172 3481 
Q 1172 3119 1398 2916 
Q 1625 2713 2034 2713 
Q 2441 2713 2670 2916 
Q 2900 3119 2900 3481 
Q 2900 3844 2670 4047 
Q 2441 4250 2034 4250 
Q 1625 4250 1398 4047 
Q 1172 3844 1172 3481 
z
" transform="scale(0.015625)"/>
      </defs>
      <use xlink:href="#DejaVuSans-48"/>
      <use xlink:href="#DejaVuSans-30" transform="translate(75.195312 0)"/>
      <use xlink:href="#DejaVuSans-38" transform="translate(138.818359 0)"/>
     </g>
    </g>
    <g id="line2d_45">
     <path d="M 99 182.363437 
L 109 182.363437 
L 119 182.363437 
" style="fill: none; stroke: #bcbd22; stroke-width: 1.5; stroke-linecap: square"/>
    </g>
    <g id="text_24">
     <!-- H09 -->
     <g transform="translate(127 185.863437) scale(0.1 -0.1)">
      <defs>
       <path id="DejaVuSans-39" d="M 703 97 
L 703 672 
Q 941 559 1184 500 
Q 1428 441 1663 441 
Q 2288 441 2617 861 
Q 2947 1281 2994 2138 
Q 2813 1869 2534 1725 
Q 2256 1581 1919 1581 
Q 1219 1581 811 2004 
Q 403 2428 403 3163 
Q 403 3881 828 4315 
Q 1253 4750 1959 4750 
Q 2769 4750 3195 4129 
Q 3622 3509 3622 2328 
Q 3622 1225 3098 567 
Q 2575 -91 1691 -91 
Q 1453 -91 1209 -44 
Q 966 3 703 97 
z
M 1959 2075 
Q 2384 2075 2632 2365 
Q 2881 2656 2881 3163 
Q 2881 3666 2632 3958 
Q 2384 4250 1959 4250 
Q 1534 4250 1286 3958 
Q 1038 3666 1038 3163 
Q 1038 2656 1286 2365 
Q 1534 2075 1959 2075 
z
" transform="scale(0.015625)"/>
      </defs>
      <use xlink:href="#DejaVuSans-48"/>
      <use xlink:href="#DejaVuSans-30" transform="translate(75.195312 0)"/>
      <use xlink:href="#DejaVuSans-39" transform="translate(138.818359 0)"/>
     </g>
    </g>
    <g id="line2d_46">
     <path d="M 99 197.041562 
L 109 197.041562 
L 119 197.041562 
" style="fill: none; stroke: #17becf; stroke-width: 1.5; stroke-linecap: square"/>
    </g>
    <g id="text_25">
     <!-- H10 -->
     <g transform="translate(127 200.541562) scale(0.1 -0.1)">
      <use xlink:href="#DejaVuSans-48"/>
      <use xlink:href="#DejaVuSans-31" transform="translate(75.195312 0)"/>
      <use xlink:href="#DejaVuSans-30" transform="translate(138.818359 0)"/>
     </g>
    </g>
    <g id="line2d_47">
     <path d="M 99 211.719687 
L 109 211.719687 
L 119 211.719687 
" style="fill: none; stroke: #1f77b4; stroke-width: 1.5; stroke-linecap: square"/>
    </g>
    <g id="text_26">
     <!-- H11 -->
     <g transform="translate(127 215.219687) scale(0.1 -0.1)">
      <use xlink:href="#DejaVuSans-48"/>
      <use xlink:href="#DejaVuSans-31" transform="translate(75.195312 0)"/>
      <use xlink:href="#DejaVuSans-31" transform="translate(138.818359 0)"/>
     </g>
    </g>
    <g id="line2d_48">
     <path d="M 99 226.397812 
L 109 226.397812 
L 119 226.397812 
" style="fill: none; stroke: #ff7f0e; stroke-width: 1.5; stroke-linecap: square"/>
    </g>
    <g id="text_27">
     <!-- H12 -->
     <g transform="translate(127 229.897812) scale(0.1 -0.1)">
      <use xlink:href="#DejaVuSans-48"/>
      <use xlink:href="#DejaVuSans-31" transform="translate(75.195312 0)"/>
      <use xlink:href="#DejaVuSans-32" transform="translate(138.818359 0)"/>
     </g>
    </g>
   </g>
  </g>
 </g>
 <defs>
  <clipPath id="pc98ff54f33">
   <rect x="90" y="51.84" width="558" height="332.64"/>
  </clipPath>
 </defs>
</svg>
