<?xml version="1.0" encoding="utf-8" standalone="no"?>
<!DOCTYPE svg PUBLIC "-//W3C//DTD SVG 1.1//EN"
  "http://www.w3.org/Graphics/SVG/1.1/DTD/svg11.dtd">
<svg xmlns:xlink="http://www.w3.org/1999/xlink" width="720pt" height="432pt" viewBox="0 0 720 432" xmlns="http://www.w3.org/2000/svg" version="1.1">
 <metadata>
  <rdf:RDF xmlns:dc="http://purl.org/dc/elements/1.1/" xmlns:cc="http://creativecommons.org/ns#" xmlns:rdf="http://www.w3.org/1999/02/22-rdf-syntax-ns#">
   <cc:Work>
    <dc:type rdf:resource="http://purl.org/dc/dcmitype/StillImage"/>
    <dc:date>2025-01-14T17:58:10.979886</dc:date>
    <dc:format>image/svg+xml</dc:format>
    <dc:creator>
     <cc:Agent>
      <dc:title>Matplotlib v3.10.0, https://matplotlib.org/</dc:title>
     </cc:Agent>
    </dc:creator>
   </cc:Work>
  </rdf:RDF>
 </metadata>
 <defs>
  <style type="text/css">*{stroke-linejoin: round; stroke-linecap: butt}</style>
 </defs>
 <g id="figure_1">
  <g id="patch_1">
   <path d="M 0 432 
L 720 432 
L 720 0 
L 0 0 
z
" style="fill: #ffffff"/>
  </g>
  <g id="axes_1">
   <g id="patch_2">
    <path d="M 90 384.48 
L 648 384.48 
L 648 51.84 
L 90 51.84 
z
" style="fill: #ffffff"/>
   </g>
   <g id="matplotlib.axis_1">
    <g id="xtick_1">
     <g id="line2d_1">
      <path d="M 109.599174 384.48 
L 109.599174 51.84 
" clip-path="url(#p3265c8db27)" style="fill: none; stroke: #b0b0b0; stroke-width: 0.8; stroke-linecap: square"/>
     </g>
     <g id="line2d_2">
      <defs>
       <path id="m60ba88a1ad" d="M 0 0 
L 0 3.5 
" style="stroke: #000000; stroke-width: 0.8"/>
      </defs>
      <g>
       <use xlink:href="#m60ba88a1ad" x="109.599174" y="384.48" style="stroke: #000000; stroke-width: 0.8"/>
      </g>
     </g>
     <g id="text_1">
      <!-- 14 13:30 -->
      <g transform="translate(87.238236 399.078438) scale(0.1 -0.1)">
       <defs>
        <path id="DejaVuSans-31" d="M 794 531 
L 1825 531 
L 1825 4091 
L 703 3866 
L 703 4441 
L 1819 4666 
L 2450 4666 
L 2450 531 
L 3481 531 
L 3481 0 
L 794 0 
L 794 531 
z
" transform="scale(0.015625)"/>
        <path id="DejaVuSans-34" d="M 2419 4116 
L 825 1625 
L 2419 1625 
L 2419 4116 
z
M 2253 4666 
L 3047 4666 
L 3047 1625 
L 3713 1625 
L 3713 1100 
L 3047 1100 
L 3047 0 
L 2419 0 
L 2419 1100 
L 313 1100 
L 313 1709 
L 2253 4666 
z
" transform="scale(0.015625)"/>
        <path id="DejaVuSans-20" transform="scale(0.015625)"/>
        <path id="DejaVuSans-33" d="M 2597 2516 
Q 3050 2419 3304 2112 
Q 3559 1806 3559 1356 
Q 3559 666 3084 287 
Q 2609 -91 1734 -91 
Q 1441 -91 1130 -33 
Q 819 25 488 141 
L 488 750 
Q 750 597 1062 519 
Q 1375 441 1716 441 
Q 2309 441 2620 675 
Q 2931 909 2931 1356 
Q 2931 1769 2642 2001 
Q 2353 2234 1838 2234 
L 1294 2234 
L 1294 2753 
L 1863 2753 
Q 2328 2753 2575 2939 
Q 2822 3125 2822 3475 
Q 2822 3834 2567 4026 
Q 2313 4219 1838 4219 
Q 1578 4219 1281 4162 
Q 984 4106 628 3988 
L 628 4550 
Q 988 4650 1302 4700 
Q 1616 4750 1894 4750 
Q 2613 4750 3031 4423 
Q 3450 4097 3450 3541 
Q 3450 3153 3228 2886 
Q 3006 2619 2597 2516 
z
" transform="scale(0.015625)"/>
        <path id="DejaVuSans-3a" d="M 750 794 
L 1409 794 
L 1409 0 
L 750 0 
L 750 794 
z
M 750 3309 
L 1409 3309 
L 1409 2516 
L 750 2516 
L 750 3309 
z
" transform="scale(0.015625)"/>
        <path id="DejaVuSans-30" d="M 2034 4250 
Q 1547 4250 1301 3770 
Q 1056 3291 1056 2328 
Q 1056 1369 1301 889 
Q 1547 409 2034 409 
Q 2525 409 2770 889 
Q 3016 1369 3016 2328 
Q 3016 3291 2770 3770 
Q 2525 4250 2034 4250 
z
M 2034 4750 
Q 2819 4750 3233 4129 
Q 3647 3509 3647 2328 
Q 3647 1150 3233 529 
Q 2819 -91 2034 -91 
Q 1250 -91 836 529 
Q 422 1150 422 2328 
Q 422 3509 836 4129 
Q 1250 4750 2034 4750 
z
" transform="scale(0.015625)"/>
       </defs>
       <use xlink:href="#DejaVuSans-31"/>
       <use xlink:href="#DejaVuSans-34" transform="translate(63.623047 0)"/>
       <use xlink:href="#DejaVuSans-20" transform="translate(127.246094 0)"/>
       <use xlink:href="#DejaVuSans-31" transform="translate(159.033203 0)"/>
       <use xlink:href="#DejaVuSans-33" transform="translate(222.65625 0)"/>
       <use xlink:href="#DejaVuSans-3a" transform="translate(286.279297 0)"/>
       <use xlink:href="#DejaVuSans-33" transform="translate(319.970703 0)"/>
       <use xlink:href="#DejaVuSans-30" transform="translate(383.59375 0)"/>
      </g>
     </g>
    </g>
    <g id="xtick_2">
     <g id="line2d_3">
      <path d="M 167.243802 384.48 
L 167.243802 51.84 
" clip-path="url(#p3265c8db27)" style="fill: none; stroke: #b0b0b0; stroke-width: 0.8; stroke-linecap: square"/>
     </g>
     <g id="line2d_4">
      <g>
       <use xlink:href="#m60ba88a1ad" x="167.243802" y="384.48" style="stroke: #000000; stroke-width: 0.8"/>
      </g>
     </g>
     <g id="text_2">
      <!-- 14 14:00 -->
      <g transform="translate(144.882864 399.078438) scale(0.1 -0.1)">
       <use xlink:href="#DejaVuSans-31"/>
       <use xlink:href="#DejaVuSans-34" transform="translate(63.623047 0)"/>
       <use xlink:href="#DejaVuSans-20" transform="translate(127.246094 0)"/>
       <use xlink:href="#DejaVuSans-31" transform="translate(159.033203 0)"/>
       <use xlink:href="#DejaVuSans-34" transform="translate(222.65625 0)"/>
       <use xlink:href="#DejaVuSans-3a" transform="translate(286.279297 0)"/>
       <use xlink:href="#DejaVuSans-30" transform="translate(319.970703 0)"/>
       <use xlink:href="#DejaVuSans-30" transform="translate(383.59375 0)"/>
      </g>
     </g>
    </g>
    <g id="xtick_3">
     <g id="line2d_5">
      <path d="M 224.88843 384.48 
L 224.88843 51.84 
" clip-path="url(#p3265c8db27)" style="fill: none; stroke: #b0b0b0; stroke-width: 0.8; stroke-linecap: square"/>
     </g>
     <g id="line2d_6">
      <g>
       <use xlink:href="#m60ba88a1ad" x="224.88843" y="384.48" style="stroke: #000000; stroke-width: 0.8"/>
      </g>
     </g>
     <g id="text_3">
      <!-- 14 14:30 -->
      <g transform="translate(202.527492 399.078438) scale(0.1 -0.1)">
       <use xlink:href="#DejaVuSans-31"/>
       <use xlink:href="#DejaVuSans-34" transform="translate(63.623047 0)"/>
       <use xlink:href="#DejaVuSans-20" transform="translate(127.246094 0)"/>
       <use xlink:href="#DejaVuSans-31" transform="translate(159.033203 0)"/>
       <use xlink:href="#DejaVuSans-34" transform="translate(222.65625 0)"/>
       <use xlink:href="#DejaVuSans-3a" transform="translate(286.279297 0)"/>
       <use xlink:href="#DejaVuSans-33" transform="translate(319.970703 0)"/>
       <use xlink:href="#DejaVuSans-30" transform="translate(383.59375 0)"/>
      </g>
     </g>
    </g>
    <g id="xtick_4">
     <g id="line2d_7">
      <path d="M 282.533058 384.48 
L 282.533058 51.84 
" clip-path="url(#p3265c8db27)" style="fill: none; stroke: #b0b0b0; stroke-width: 0.8; stroke-linecap: square"/>
     </g>
     <g id="line2d_8">
      <g>
       <use xlink:href="#m60ba88a1ad" x="282.533058" y="384.48" style="stroke: #000000; stroke-width: 0.8"/>
      </g>
     </g>
     <g id="text_4">
      <!-- 14 15:00 -->
      <g transform="translate(260.17212 399.078438) scale(0.1 -0.1)">
       <defs>
        <path id="DejaVuSans-35" d="M 691 4666 
L 3169 4666 
L 3169 4134 
L 1269 4134 
L 1269 2991 
Q 1406 3038 1543 3061 
Q 1681 3084 1819 3084 
Q 2600 3084 3056 2656 
Q 3513 2228 3513 1497 
Q 3513 744 3044 326 
Q 2575 -91 1722 -91 
Q 1428 -91 1123 -41 
Q 819 9 494 109 
L 494 744 
Q 775 591 1075 516 
Q 1375 441 1709 441 
Q 2250 441 2565 725 
Q 2881 1009 2881 1497 
Q 2881 1984 2565 2268 
Q 2250 2553 1709 2553 
Q 1456 2553 1204 2497 
Q 953 2441 691 2322 
L 691 4666 
z
" transform="scale(0.015625)"/>
       </defs>
       <use xlink:href="#DejaVuSans-31"/>
       <use xlink:href="#DejaVuSans-34" transform="translate(63.623047 0)"/>
       <use xlink:href="#DejaVuSans-20" transform="translate(127.246094 0)"/>
       <use xlink:href="#DejaVuSans-31" transform="translate(159.033203 0)"/>
       <use xlink:href="#DejaVuSans-35" transform="translate(222.65625 0)"/>
       <use xlink:href="#DejaVuSans-3a" transform="translate(286.279297 0)"/>
       <use xlink:href="#DejaVuSans-30" transform="translate(319.970703 0)"/>
       <use xlink:href="#DejaVuSans-30" transform="translate(383.59375 0)"/>
      </g>
     </g>
    </g>
    <g id="xtick_5">
     <g id="line2d_9">
      <path d="M 340.177686 384.48 
L 340.177686 51.84 
" clip-path="url(#p3265c8db27)" style="fill: none; stroke: #b0b0b0; stroke-width: 0.8; stroke-linecap: square"/>
     </g>
     <g id="line2d_10">
      <g>
       <use xlink:href="#m60ba88a1ad" x="340.177686" y="384.48" style="stroke: #000000; stroke-width: 0.8"/>
      </g>
     </g>
     <g id="text_5">
      <!-- 14 15:30 -->
      <g transform="translate(317.816748 399.078438) scale(0.1 -0.1)">
       <use xlink:href="#DejaVuSans-31"/>
       <use xlink:href="#DejaVuSans-34" transform="translate(63.623047 0)"/>
       <use xlink:href="#DejaVuSans-20" transform="translate(127.246094 0)"/>
       <use xlink:href="#DejaVuSans-31" transform="translate(159.033203 0)"/>
       <use xlink:href="#DejaVuSans-35" transform="translate(222.65625 0)"/>
       <use xlink:href="#DejaVuSans-3a" transform="translate(286.279297 0)"/>
       <use xlink:href="#DejaVuSans-33" transform="translate(319.970703 0)"/>
       <use xlink:href="#DejaVuSans-30" transform="translate(383.59375 0)"/>
      </g>
     </g>
    </g>
    <g id="xtick_6">
     <g id="line2d_11">
      <path d="M 397.822314 384.48 
L 397.822314 51.84 
" clip-path="url(#p3265c8db27)" style="fill: none; stroke: #b0b0b0; stroke-width: 0.8; stroke-linecap: square"/>
     </g>
     <g id="line2d_12">
      <g>
       <use xlink:href="#m60ba88a1ad" x="397.822314" y="384.48" style="stroke: #000000; stroke-width: 0.8"/>
      </g>
     </g>
     <g id="text_6">
      <!-- 14 16:00 -->
      <g transform="translate(375.461377 399.078438) scale(0.1 -0.1)">
       <defs>
        <path id="DejaVuSans-36" d="M 2113 2584 
Q 1688 2584 1439 2293 
Q 1191 2003 1191 1497 
Q 1191 994 1439 701 
Q 1688 409 2113 409 
Q 2538 409 2786 701 
Q 3034 994 3034 1497 
Q 3034 2003 2786 2293 
Q 2538 2584 2113 2584 
z
M 3366 4563 
L 3366 3988 
Q 3128 4100 2886 4159 
Q 2644 4219 2406 4219 
Q 1781 4219 1451 3797 
Q 1122 3375 1075 2522 
Q 1259 2794 1537 2939 
Q 1816 3084 2150 3084 
Q 2853 3084 3261 2657 
Q 3669 2231 3669 1497 
Q 3669 778 3244 343 
Q 2819 -91 2113 -91 
Q 1303 -91 875 529 
Q 447 1150 447 2328 
Q 447 3434 972 4092 
Q 1497 4750 2381 4750 
Q 2619 4750 2861 4703 
Q 3103 4656 3366 4563 
z
" transform="scale(0.015625)"/>
       </defs>
       <use xlink:href="#DejaVuSans-31"/>
       <use xlink:href="#DejaVuSans-34" transform="translate(63.623047 0)"/>
       <use xlink:href="#DejaVuSans-20" transform="translate(127.246094 0)"/>
       <use xlink:href="#DejaVuSans-31" transform="translate(159.033203 0)"/>
       <use xlink:href="#DejaVuSans-36" transform="translate(222.65625 0)"/>
       <use xlink:href="#DejaVuSans-3a" transform="translate(286.279297 0)"/>
       <use xlink:href="#DejaVuSans-30" transform="translate(319.970703 0)"/>
       <use xlink:href="#DejaVuSans-30" transform="translate(383.59375 0)"/>
      </g>
     </g>
    </g>
    <g id="xtick_7">
     <g id="line2d_13">
      <path d="M 455.466942 384.48 
L 455.466942 51.84 
" clip-path="url(#p3265c8db27)" style="fill: none; stroke: #b0b0b0; stroke-width: 0.8; stroke-linecap: square"/>
     </g>
     <g id="line2d_14">
      <g>
       <use xlink:href="#m60ba88a1ad" x="455.466942" y="384.48" style="stroke: #000000; stroke-width: 0.8"/>
      </g>
     </g>
     <g id="text_7">
      <!-- 14 16:30 -->
      <g transform="translate(433.106005 399.078438) scale(0.1 -0.1)">
       <use xlink:href="#DejaVuSans-31"/>
       <use xlink:href="#DejaVuSans-34" transform="translate(63.623047 0)"/>
       <use xlink:href="#DejaVuSans-20" transform="translate(127.246094 0)"/>
       <use xlink:href="#DejaVuSans-31" transform="translate(159.033203 0)"/>
       <use xlink:href="#DejaVuSans-36" transform="translate(222.65625 0)"/>
       <use xlink:href="#DejaVuSans-3a" transform="translate(286.279297 0)"/>
       <use xlink:href="#DejaVuSans-33" transform="translate(319.970703 0)"/>
       <use xlink:href="#DejaVuSans-30" transform="translate(383.59375 0)"/>
      </g>
     </g>
    </g>
    <g id="xtick_8">
     <g id="line2d_15">
      <path d="M 513.11157 384.48 
L 513.11157 51.84 
" clip-path="url(#p3265c8db27)" style="fill: none; stroke: #b0b0b0; stroke-width: 0.8; stroke-linecap: square"/>
     </g>
     <g id="line2d_16">
      <g>
       <use xlink:href="#m60ba88a1ad" x="513.11157" y="384.48" style="stroke: #000000; stroke-width: 0.8"/>
      </g>
     </g>
     <g id="text_8">
      <!-- 14 17:00 -->
      <g transform="translate(490.750633 399.078438) scale(0.1 -0.1)">
       <defs>
        <path id="DejaVuSans-37" d="M 525 4666 
L 3525 4666 
L 3525 4397 
L 1831 0 
L 1172 0 
L 2766 4134 
L 525 4134 
L 525 4666 
z
" transform="scale(0.015625)"/>
       </defs>
       <use xlink:href="#DejaVuSans-31"/>
       <use xlink:href="#DejaVuSans-34" transform="translate(63.623047 0)"/>
       <use xlink:href="#DejaVuSans-20" transform="translate(127.246094 0)"/>
       <use xlink:href="#DejaVuSans-31" transform="translate(159.033203 0)"/>
       <use xlink:href="#DejaVuSans-37" transform="translate(222.65625 0)"/>
       <use xlink:href="#DejaVuSans-3a" transform="translate(286.279297 0)"/>
       <use xlink:href="#DejaVuSans-30" transform="translate(319.970703 0)"/>
       <use xlink:href="#DejaVuSans-30" transform="translate(383.59375 0)"/>
      </g>
     </g>
    </g>
    <g id="xtick_9">
     <g id="line2d_17">
      <path d="M 570.756198 384.48 
L 570.756198 51.84 
" clip-path="url(#p3265c8db27)" style="fill: none; stroke: #b0b0b0; stroke-width: 0.8; stroke-linecap: square"/>
     </g>
     <g id="line2d_18">
      <g>
       <use xlink:href="#m60ba88a1ad" x="570.756198" y="384.48" style="stroke: #000000; stroke-width: 0.8"/>
      </g>
     </g>
     <g id="text_9">
      <!-- 14 17:30 -->
      <g transform="translate(548.395261 399.078438) scale(0.1 -0.1)">
       <use xlink:href="#DejaVuSans-31"/>
       <use xlink:href="#DejaVuSans-34" transform="translate(63.623047 0)"/>
       <use xlink:href="#DejaVuSans-20" transform="translate(127.246094 0)"/>
       <use xlink:href="#DejaVuSans-31" transform="translate(159.033203 0)"/>
       <use xlink:href="#DejaVuSans-37" transform="translate(222.65625 0)"/>
       <use xlink:href="#DejaVuSans-3a" transform="translate(286.279297 0)"/>
       <use xlink:href="#DejaVuSans-33" transform="translate(319.970703 0)"/>
       <use xlink:href="#DejaVuSans-30" transform="translate(383.59375 0)"/>
      </g>
     </g>
    </g>
    <g id="xtick_10">
     <g id="line2d_19">
      <path d="M 628.400826 384.48 
L 628.400826 51.84 
" clip-path="url(#p3265c8db27)" style="fill: none; stroke: #b0b0b0; stroke-width: 0.8; stroke-linecap: square"/>
     </g>
     <g id="line2d_20">
      <g>
       <use xlink:href="#m60ba88a1ad" x="628.400826" y="384.48" style="stroke: #000000; stroke-width: 0.8"/>
      </g>
     </g>
     <g id="text_10">
      <!-- 14 18:00 -->
      <g transform="translate(606.039889 399.078438) scale(0.1 -0.1)">
       <defs>
        <path id="DejaVuSans-38" d="M 2034 2216 
Q 1584 2216 1326 1975 
Q 1069 1734 1069 1313 
Q 1069 891 1326 650 
Q 1584 409 2034 409 
Q 2484 409 2743 651 
Q 3003 894 3003 1313 
Q 3003 1734 2745 1975 
Q 2488 2216 2034 2216 
z
M 1403 2484 
Q 997 2584 770 2862 
Q 544 3141 544 3541 
Q 544 4100 942 4425 
Q 1341 4750 2034 4750 
Q 2731 4750 3128 4425 
Q 3525 4100 3525 3541 
Q 3525 3141 3298 2862 
Q 3072 2584 2669 2484 
Q 3125 2378 3379 2068 
Q 3634 1759 3634 1313 
Q 3634 634 3220 271 
Q 2806 -91 2034 -91 
Q 1263 -91 848 271 
Q 434 634 434 1313 
Q 434 1759 690 2068 
Q 947 2378 1403 2484 
z
M 1172 3481 
Q 1172 3119 1398 2916 
Q 1625 2713 2034 2713 
Q 2441 2713 2670 2916 
Q 2900 3119 2900 3481 
Q 2900 3844 2670 4047 
Q 2441 4250 2034 4250 
Q 1625 4250 1398 4047 
Q 1172 3844 1172 3481 
z
" transform="scale(0.015625)"/>
       </defs>
       <use xlink:href="#DejaVuSans-31"/>
       <use xlink:href="#DejaVuSans-34" transform="translate(63.623047 0)"/>
       <use xlink:href="#DejaVuSans-20" transform="translate(127.246094 0)"/>
       <use xlink:href="#DejaVuSans-31" transform="translate(159.033203 0)"/>
       <use xlink:href="#DejaVuSans-38" transform="translate(222.65625 0)"/>
       <use xlink:href="#DejaVuSans-3a" transform="translate(286.279297 0)"/>
       <use xlink:href="#DejaVuSans-30" transform="translate(319.970703 0)"/>
       <use xlink:href="#DejaVuSans-30" transform="translate(383.59375 0)"/>
      </g>
     </g>
    </g>
    <g id="text_11">
     <!-- Date and Time -->
     <g transform="translate(332.230469 412.756563) scale(0.1 -0.1)">
      <defs>
       <path id="DejaVuSans-44" d="M 1259 4147 
L 1259 519 
L 2022 519 
Q 2988 519 3436 956 
Q 3884 1394 3884 2338 
Q 3884 3275 3436 3711 
Q 2988 4147 2022 4147 
L 1259 4147 
z
M 628 4666 
L 1925 4666 
Q 3281 4666 3915 4102 
Q 4550 3538 4550 2338 
Q 4550 1131 3912 565 
Q 3275 0 1925 0 
L 628 0 
L 628 4666 
z
" transform="scale(0.015625)"/>
       <path id="DejaVuSans-61" d="M 2194 1759 
Q 1497 1759 1228 1600 
Q 959 1441 959 1056 
Q 959 750 1161 570 
Q 1363 391 1709 391 
Q 2188 391 2477 730 
Q 2766 1069 2766 1631 
L 2766 1759 
L 2194 1759 
z
M 3341 1997 
L 3341 0 
L 2766 0 
L 2766 531 
Q 2569 213 2275 61 
Q 1981 -91 1556 -91 
Q 1019 -91 701 211 
Q 384 513 384 1019 
Q 384 1609 779 1909 
Q 1175 2209 1959 2209 
L 2766 2209 
L 2766 2266 
Q 2766 2663 2505 2880 
Q 2244 3097 1772 3097 
Q 1472 3097 1187 3025 
Q 903 2953 641 2809 
L 641 3341 
Q 956 3463 1253 3523 
Q 1550 3584 1831 3584 
Q 2591 3584 2966 3190 
Q 3341 2797 3341 1997 
z
" transform="scale(0.015625)"/>
       <path id="DejaVuSans-74" d="M 1172 4494 
L 1172 3500 
L 2356 3500 
L 2356 3053 
L 1172 3053 
L 1172 1153 
Q 1172 725 1289 603 
Q 1406 481 1766 481 
L 2356 481 
L 2356 0 
L 1766 0 
Q 1100 0 847 248 
Q 594 497 594 1153 
L 594 3053 
L 172 3053 
L 172 3500 
L 594 3500 
L 594 4494 
L 1172 4494 
z
" transform="scale(0.015625)"/>
       <path id="DejaVuSans-65" d="M 3597 1894 
L 3597 1613 
L 953 1613 
Q 991 1019 1311 708 
Q 1631 397 2203 397 
Q 2534 397 2845 478 
Q 3156 559 3463 722 
L 3463 178 
Q 3153 47 2828 -22 
Q 2503 -91 2169 -91 
Q 1331 -91 842 396 
Q 353 884 353 1716 
Q 353 2575 817 3079 
Q 1281 3584 2069 3584 
Q 2775 3584 3186 3129 
Q 3597 2675 3597 1894 
z
M 3022 2063 
Q 3016 2534 2758 2815 
Q 2500 3097 2075 3097 
Q 1594 3097 1305 2825 
Q 1016 2553 972 2059 
L 3022 2063 
z
" transform="scale(0.015625)"/>
       <path id="DejaVuSans-6e" d="M 3513 2113 
L 3513 0 
L 2938 0 
L 2938 2094 
Q 2938 2591 2744 2837 
Q 2550 3084 2163 3084 
Q 1697 3084 1428 2787 
Q 1159 2491 1159 1978 
L 1159 0 
L 581 0 
L 581 3500 
L 1159 3500 
L 1159 2956 
Q 1366 3272 1645 3428 
Q 1925 3584 2291 3584 
Q 2894 3584 3203 3211 
Q 3513 2838 3513 2113 
z
" transform="scale(0.015625)"/>
       <path id="DejaVuSans-64" d="M 2906 2969 
L 2906 4863 
L 3481 4863 
L 3481 0 
L 2906 0 
L 2906 525 
Q 2725 213 2448 61 
Q 2172 -91 1784 -91 
Q 1150 -91 751 415 
Q 353 922 353 1747 
Q 353 2572 751 3078 
Q 1150 3584 1784 3584 
Q 2172 3584 2448 3432 
Q 2725 3281 2906 2969 
z
M 947 1747 
Q 947 1113 1208 752 
Q 1469 391 1925 391 
Q 2381 391 2643 752 
Q 2906 1113 2906 1747 
Q 2906 2381 2643 2742 
Q 2381 3103 1925 3103 
Q 1469 3103 1208 2742 
Q 947 2381 947 1747 
z
" transform="scale(0.015625)"/>
       <path id="DejaVuSans-54" d="M -19 4666 
L 3928 4666 
L 3928 4134 
L 2272 4134 
L 2272 0 
L 1638 0 
L 1638 4134 
L -19 4134 
L -19 4666 
z
" transform="scale(0.015625)"/>
       <path id="DejaVuSans-69" d="M 603 3500 
L 1178 3500 
L 1178 0 
L 603 0 
L 603 3500 
z
M 603 4863 
L 1178 4863 
L 1178 4134 
L 603 4134 
L 603 4863 
z
" transform="scale(0.015625)"/>
       <path id="DejaVuSans-6d" d="M 3328 2828 
Q 3544 3216 3844 3400 
Q 4144 3584 4550 3584 
Q 5097 3584 5394 3201 
Q 5691 2819 5691 2113 
L 5691 0 
L 5113 0 
L 5113 2094 
Q 5113 2597 4934 2840 
Q 4756 3084 4391 3084 
Q 3944 3084 3684 2787 
Q 3425 2491 3425 1978 
L 3425 0 
L 2847 0 
L 2847 2094 
Q 2847 2600 2669 2842 
Q 2491 3084 2119 3084 
Q 1678 3084 1418 2786 
Q 1159 2488 1159 1978 
L 1159 0 
L 581 0 
L 581 3500 
L 1159 3500 
L 1159 2956 
Q 1356 3278 1631 3431 
Q 1906 3584 2284 3584 
Q 2666 3584 2933 3390 
Q 3200 3197 3328 2828 
z
" transform="scale(0.015625)"/>
      </defs>
      <use xlink:href="#DejaVuSans-44"/>
      <use xlink:href="#DejaVuSans-61" transform="translate(77.001953 0)"/>
      <use xlink:href="#DejaVuSans-74" transform="translate(138.28125 0)"/>
      <use xlink:href="#DejaVuSans-65" transform="translate(177.490234 0)"/>
      <use xlink:href="#DejaVuSans-20" transform="translate(239.013672 0)"/>
      <use xlink:href="#DejaVuSans-61" transform="translate(270.800781 0)"/>
      <use xlink:href="#DejaVuSans-6e" transform="translate(332.080078 0)"/>
      <use xlink:href="#DejaVuSans-64" transform="translate(395.458984 0)"/>
      <use xlink:href="#DejaVuSans-20" transform="translate(458.935547 0)"/>
      <use xlink:href="#DejaVuSans-54" transform="translate(490.722656 0)"/>
      <use xlink:href="#DejaVuSans-69" transform="translate(548.681641 0)"/>
      <use xlink:href="#DejaVuSans-6d" transform="translate(576.464844 0)"/>
      <use xlink:href="#DejaVuSans-65" transform="translate(673.876953 0)"/>
     </g>
    </g>
   </g>
   <g id="matplotlib.axis_2">
    <g id="ytick_1">
     <g id="line2d_21">
      <path d="M 90 370.740822 
L 648 370.740822 
" clip-path="url(#p3265c8db27)" style="fill: none; stroke: #b0b0b0; stroke-width: 0.8; stroke-linecap: square"/>
     </g>
     <g id="line2d_22">
      <defs>
       <path id="m1a33621df3" d="M 0 0 
L -3.5 0 
" style="stroke: #000000; stroke-width: 0.8"/>
      </defs>
      <g>
       <use xlink:href="#m1a33621df3" x="90" y="370.740822" style="stroke: #000000; stroke-width: 0.8"/>
      </g>
     </g>
     <g id="text_12">
      <!-- 0 -->
      <g transform="translate(76.6375 374.540041) scale(0.1 -0.1)">
       <use xlink:href="#DejaVuSans-30"/>
      </g>
     </g>
    </g>
    <g id="ytick_2">
     <g id="line2d_23">
      <path d="M 90 301.699726 
L 648 301.699726 
" clip-path="url(#p3265c8db27)" style="fill: none; stroke: #b0b0b0; stroke-width: 0.8; stroke-linecap: square"/>
     </g>
     <g id="line2d_24">
      <g>
       <use xlink:href="#m1a33621df3" x="90" y="301.699726" style="stroke: #000000; stroke-width: 0.8"/>
      </g>
     </g>
     <g id="text_13">
      <!-- 50 -->
      <g transform="translate(70.275 305.498945) scale(0.1 -0.1)">
       <use xlink:href="#DejaVuSans-35"/>
       <use xlink:href="#DejaVuSans-30" transform="translate(63.623047 0)"/>
      </g>
     </g>
    </g>
    <g id="ytick_3">
     <g id="line2d_25">
      <path d="M 90 232.65863 
L 648 232.65863 
" clip-path="url(#p3265c8db27)" style="fill: none; stroke: #b0b0b0; stroke-width: 0.8; stroke-linecap: square"/>
     </g>
     <g id="line2d_26">
      <g>
       <use xlink:href="#m1a33621df3" x="90" y="232.65863" style="stroke: #000000; stroke-width: 0.8"/>
      </g>
     </g>
     <g id="text_14">
      <!-- 100 -->
      <g transform="translate(63.9125 236.457849) scale(0.1 -0.1)">
       <use xlink:href="#DejaVuSans-31"/>
       <use xlink:href="#DejaVuSans-30" transform="translate(63.623047 0)"/>
       <use xlink:href="#DejaVuSans-30" transform="translate(127.246094 0)"/>
      </g>
     </g>
    </g>
    <g id="ytick_4">
     <g id="line2d_27">
      <path d="M 90 163.617534 
L 648 163.617534 
" clip-path="url(#p3265c8db27)" style="fill: none; stroke: #b0b0b0; stroke-width: 0.8; stroke-linecap: square"/>
     </g>
     <g id="line2d_28">
      <g>
       <use xlink:href="#m1a33621df3" x="90" y="163.617534" style="stroke: #000000; stroke-width: 0.8"/>
      </g>
     </g>
     <g id="text_15">
      <!-- 150 -->
      <g transform="translate(63.9125 167.416753) scale(0.1 -0.1)">
       <use xlink:href="#DejaVuSans-31"/>
       <use xlink:href="#DejaVuSans-35" transform="translate(63.623047 0)"/>
       <use xlink:href="#DejaVuSans-30" transform="translate(127.246094 0)"/>
      </g>
     </g>
    </g>
    <g id="ytick_5">
     <g id="line2d_29">
      <path d="M 90 94.576438 
L 648 94.576438 
" clip-path="url(#p3265c8db27)" style="fill: none; stroke: #b0b0b0; stroke-width: 0.8; stroke-linecap: square"/>
     </g>
     <g id="line2d_30">
      <g>
       <use xlink:href="#m1a33621df3" x="90" y="94.576438" style="stroke: #000000; stroke-width: 0.8"/>
      </g>
     </g>
     <g id="text_16">
      <!-- 200 -->
      <g transform="translate(63.9125 98.375657) scale(0.1 -0.1)">
       <defs>
        <path id="DejaVuSans-32" d="M 1228 531 
L 3431 531 
L 3431 0 
L 469 0 
L 469 531 
Q 828 903 1448 1529 
Q 2069 2156 2228 2338 
Q 2531 2678 2651 2914 
Q 2772 3150 2772 3378 
Q 2772 3750 2511 3984 
Q 2250 4219 1831 4219 
Q 1534 4219 1204 4116 
Q 875 4013 500 3803 
L 500 4441 
Q 881 4594 1212 4672 
Q 1544 4750 1819 4750 
Q 2544 4750 2975 4387 
Q 3406 4025 3406 3419 
Q 3406 3131 3298 2873 
Q 3191 2616 2906 2266 
Q 2828 2175 2409 1742 
Q 1991 1309 1228 531 
z
" transform="scale(0.015625)"/>
       </defs>
       <use xlink:href="#DejaVuSans-32"/>
       <use xlink:href="#DejaVuSans-30" transform="translate(63.623047 0)"/>
       <use xlink:href="#DejaVuSans-30" transform="translate(127.246094 0)"/>
      </g>
     </g>
    </g>
    <g id="text_17">
     <!-- Votes -->
     <g transform="translate(57.832812 231.893594) rotate(-90) scale(0.1 -0.1)">
      <defs>
       <path id="DejaVuSans-56" d="M 1831 0 
L 50 4666 
L 709 4666 
L 2188 738 
L 3669 4666 
L 4325 4666 
L 2547 0 
L 1831 0 
z
" transform="scale(0.015625)"/>
       <path id="DejaVuSans-6f" d="M 1959 3097 
Q 1497 3097 1228 2736 
Q 959 2375 959 1747 
Q 959 1119 1226 758 
Q 1494 397 1959 397 
Q 2419 397 2687 759 
Q 2956 1122 2956 1747 
Q 2956 2369 2687 2733 
Q 2419 3097 1959 3097 
z
M 1959 3584 
Q 2709 3584 3137 3096 
Q 3566 2609 3566 1747 
Q 3566 888 3137 398 
Q 2709 -91 1959 -91 
Q 1206 -91 779 398 
Q 353 888 353 1747 
Q 353 2609 779 3096 
Q 1206 3584 1959 3584 
z
" transform="scale(0.015625)"/>
       <path id="DejaVuSans-73" d="M 2834 3397 
L 2834 2853 
Q 2591 2978 2328 3040 
Q 2066 3103 1784 3103 
Q 1356 3103 1142 2972 
Q 928 2841 928 2578 
Q 928 2378 1081 2264 
Q 1234 2150 1697 2047 
L 1894 2003 
Q 2506 1872 2764 1633 
Q 3022 1394 3022 966 
Q 3022 478 2636 193 
Q 2250 -91 1575 -91 
Q 1294 -91 989 -36 
Q 684 19 347 128 
L 347 722 
Q 666 556 975 473 
Q 1284 391 1588 391 
Q 1994 391 2212 530 
Q 2431 669 2431 922 
Q 2431 1156 2273 1281 
Q 2116 1406 1581 1522 
L 1381 1569 
Q 847 1681 609 1914 
Q 372 2147 372 2553 
Q 372 3047 722 3315 
Q 1072 3584 1716 3584 
Q 2034 3584 2315 3537 
Q 2597 3491 2834 3397 
z
" transform="scale(0.015625)"/>
      </defs>
      <use xlink:href="#DejaVuSans-56"/>
      <use xlink:href="#DejaVuSans-6f" transform="translate(60.658203 0)"/>
      <use xlink:href="#DejaVuSans-74" transform="translate(121.839844 0)"/>
      <use xlink:href="#DejaVuSans-65" transform="translate(161.048828 0)"/>
      <use xlink:href="#DejaVuSans-73" transform="translate(222.572266 0)"/>
     </g>
    </g>
   </g>
   <g id="line2d_31">
    <path d="M 115.363636 345.886027 
L 134.578512 345.886027 
L 136.5 344.505205 
L 155.714876 344.505205 
L 157.636364 341.743562 
L 174.929752 341.743562 
L 176.85124 340.36274 
L 186.458678 340.36274 
L 188.380165 338.981918 
L 196.066116 338.981918 
L 197.987603 337.601096 
L 203.752066 337.601096 
L 205.673554 336.220274 
L 232.57438 336.220274 
L 234.495868 334.839452 
L 255.632231 334.839452 
L 259.475207 332.077808 
L 263.318182 332.077808 
L 265.239669 330.696986 
L 282.533058 330.696986 
L 286.376033 327.935342 
L 309.433884 327.935342 
L 311.355372 326.554521 
L 317.119835 326.554521 
L 319.041322 325.173699 
L 320.96281 325.173699 
L 322.884298 323.792877 
L 374.764463 323.792877 
L 376.68595 322.412055 
L 399.743802 322.412055 
L 401.665289 321.031233 
L 415.115702 321.031233 
L 417.03719 319.650411 
L 418.958678 316.888767 
L 420.880165 316.888767 
L 424.723141 314.127123 
L 455.466942 314.127123 
L 457.38843 312.746301 
L 468.917355 312.746301 
L 470.838843 311.365479 
L 478.524793 311.365479 
L 480.446281 309.984658 
L 499.661157 309.984658 
L 501.582645 308.603836 
L 505.42562 308.603836 
L 507.347107 307.223014 
L 513.11157 307.223014 
L 515.033058 305.842192 
L 530.404959 305.842192 
L 532.326446 304.46137 
L 534.247934 304.46137 
L 536.169421 303.080548 
L 555.384298 303.080548 
L 557.305785 301.699726 
L 570.756198 301.699726 
L 572.677686 300.318904 
L 574.599174 300.318904 
L 578.442149 297.55726 
L 620.714876 297.55726 
L 622.636364 296.176438 
L 622.636364 296.176438 
" clip-path="url(#p3265c8db27)" style="fill: none; stroke: #1f77b4; stroke-width: 1.5; stroke-linecap: square"/>
   </g>
   <g id="line2d_32">
    <path d="M 115.363636 257.513425 
L 117.285124 256.132603 
L 123.049587 256.132603 
L 124.971074 254.751781 
L 126.892562 254.751781 
L 128.81405 253.370959 
L 130.735537 253.370959 
L 134.578512 250.609315 
L 136.5 247.847671 
L 138.421488 247.847671 
L 142.264463 245.086027 
L 144.18595 245.086027 
L 146.107438 239.56274 
L 148.028926 236.801096 
L 149.950413 231.277808 
L 151.871901 227.135342 
L 157.636364 227.135342 
L 159.557851 222.992877 
L 161.479339 220.231233 
L 165.322314 217.469589 
L 167.243802 214.707945 
L 171.086777 211.946301 
L 173.008264 209.184658 
L 178.772727 209.184658 
L 180.694215 202.280548 
L 182.615702 199.518904 
L 184.53719 198.138082 
L 186.458678 195.376438 
L 188.380165 193.995616 
L 190.301653 193.995616 
L 192.223141 189.853151 
L 194.144628 189.853151 
L 196.066116 187.091507 
L 197.987603 185.710685 
L 199.909091 185.710685 
L 201.830579 184.329863 
L 205.673554 184.329863 
L 207.595041 182.949041 
L 211.438017 182.949041 
L 213.359504 180.187397 
L 215.280992 180.187397 
L 217.202479 178.806575 
L 224.88843 178.806575 
L 226.809917 177.425753 
L 232.57438 177.425753 
L 234.495868 176.044932 
L 236.417355 176.044932 
L 238.338843 173.283288 
L 240.260331 173.283288 
L 242.181818 170.521644 
L 244.103306 169.140822 
L 249.867769 169.140822 
L 251.789256 166.379178 
L 253.710744 164.998356 
L 255.632231 160.85589 
L 259.475207 158.094247 
L 274.847107 158.094247 
L 276.768595 153.951781 
L 278.690083 153.951781 
L 282.533058 151.190137 
L 284.454545 151.190137 
L 290.219008 147.047671 
L 294.061983 147.047671 
L 295.983471 145.666849 
L 299.826446 145.666849 
L 305.590909 141.524384 
L 309.433884 141.524384 
L 311.355372 140.143562 
L 320.96281 140.143562 
L 322.884298 138.76274 
L 326.727273 138.76274 
L 328.64876 137.381918 
L 351.706612 137.381918 
L 353.628099 134.620274 
L 357.471074 134.620274 
L 361.31405 131.85863 
L 363.235537 131.85863 
L 365.157025 130.477808 
L 376.68595 130.477808 
L 382.450413 126.335342 
L 384.371901 126.335342 
L 386.293388 124.954521 
L 388.214876 122.192877 
L 390.136364 122.192877 
L 392.057851 120.812055 
L 393.979339 120.812055 
L 401.665289 115.288767 
L 405.508264 115.288767 
L 407.429752 112.527123 
L 413.194215 112.527123 
L 415.115702 111.146301 
L 420.880165 111.146301 
L 422.801653 109.765479 
L 424.723141 109.765479 
L 426.644628 105.623014 
L 432.409091 105.623014 
L 434.330579 104.242192 
L 436.252066 101.480548 
L 440.095041 101.480548 
L 442.016529 100.099726 
L 445.859504 100.099726 
L 447.780992 98.718904 
L 449.702479 98.718904 
L 459.309917 91.814795 
L 463.152893 91.814795 
L 468.917355 87.672329 
L 474.681818 87.672329 
L 476.603306 84.910685 
L 478.524793 84.910685 
L 480.446281 83.529863 
L 486.210744 83.529863 
L 488.132231 82.149041 
L 505.42562 82.149041 
L 507.347107 80.768219 
L 520.797521 80.768219 
L 522.719008 79.387397 
L 526.561983 79.387397 
L 530.404959 76.625753 
L 540.012397 76.625753 
L 541.933884 75.244932 
L 551.541322 75.244932 
L 557.305785 71.102466 
L 582.285124 71.102466 
L 584.206612 68.340822 
L 586.128099 66.96 
L 622.636364 66.96 
L 622.636364 66.96 
" clip-path="url(#p3265c8db27)" style="fill: none; stroke: #ff7f0e; stroke-width: 1.5; stroke-linecap: square"/>
   </g>
   <g id="line2d_33">
    <path d="M 115.363636 327.935342 
L 123.049587 327.935342 
L 124.971074 325.173699 
L 128.81405 325.173699 
L 130.735537 323.792877 
L 132.657025 321.031233 
L 134.578512 319.650411 
L 136.5 315.507945 
L 138.421488 312.746301 
L 140.342975 311.365479 
L 142.264463 311.365479 
L 144.18595 308.603836 
L 146.107438 304.46137 
L 153.793388 304.46137 
L 155.714876 303.080548 
L 157.636364 303.080548 
L 159.557851 300.318904 
L 165.322314 300.318904 
L 169.165289 297.55726 
L 176.85124 297.55726 
L 178.772727 296.176438 
L 186.458678 296.176438 
L 192.223141 292.033973 
L 201.830579 292.033973 
L 203.752066 290.653151 
L 209.516529 290.653151 
L 211.438017 289.272329 
L 215.280992 289.272329 
L 217.202479 286.510685 
L 232.57438 286.510685 
L 234.495868 285.129863 
L 236.417355 282.368219 
L 238.338843 280.987397 
L 240.260331 280.987397 
L 242.181818 279.606575 
L 246.024793 279.606575 
L 247.946281 278.225753 
L 251.789256 278.225753 
L 253.710744 276.844932 
L 265.239669 276.844932 
L 267.161157 275.46411 
L 269.082645 275.46411 
L 271.004132 274.083288 
L 272.92562 274.083288 
L 274.847107 272.702466 
L 280.61157 272.702466 
L 282.533058 271.321644 
L 284.454545 268.56 
L 294.061983 268.56 
L 299.826446 264.417534 
L 305.590909 264.417534 
L 307.512397 263.036712 
L 315.198347 263.036712 
L 317.119835 261.65589 
L 319.041322 261.65589 
L 320.96281 260.275068 
L 324.805785 260.275068 
L 326.727273 258.894247 
L 332.491736 258.894247 
L 336.334711 256.132603 
L 338.256198 256.132603 
L 340.177686 254.751781 
L 355.549587 254.751781 
L 357.471074 251.990137 
L 359.392562 250.609315 
L 374.764463 250.609315 
L 376.68595 249.228493 
L 382.450413 249.228493 
L 384.371901 247.847671 
L 390.136364 247.847671 
L 392.057851 246.466849 
L 411.272727 246.466849 
L 413.194215 245.086027 
L 420.880165 245.086027 
L 422.801653 243.705205 
L 434.330579 243.705205 
L 436.252066 242.324384 
L 440.095041 242.324384 
L 442.016529 240.943562 
L 449.702479 240.943562 
L 453.545455 238.181918 
L 490.053719 238.181918 
L 491.975207 236.801096 
L 493.896694 236.801096 
L 495.818182 235.420274 
L 501.582645 235.420274 
L 503.504132 234.039452 
L 513.11157 234.039452 
L 515.033058 232.65863 
L 518.876033 232.65863 
L 520.797521 231.277808 
L 532.326446 231.277808 
L 534.247934 232.65863 
L 536.169421 231.277808 
L 549.619835 231.277808 
L 551.541322 229.896986 
L 566.913223 229.896986 
L 568.834711 228.516164 
L 572.677686 228.516164 
L 574.599174 227.135342 
L 576.520661 227.135342 
L 578.442149 225.754521 
L 591.892562 225.754521 
L 593.81405 224.373699 
L 605.342975 224.373699 
L 607.264463 222.992877 
L 622.636364 222.992877 
L 622.636364 222.992877 
" clip-path="url(#p3265c8db27)" style="fill: none; stroke: #2ca02c; stroke-width: 1.5; stroke-linecap: square"/>
   </g>
   <g id="line2d_34">
    <path d="M 115.363636 369.36 
L 589.971074 369.36 
L 591.892562 367.979178 
L 622.636364 367.979178 
L 622.636364 367.979178 
" clip-path="url(#p3265c8db27)" style="fill: none; stroke: #d62728; stroke-width: 1.5; stroke-linecap: square"/>
   </g>
   <g id="line2d_35">
    <path d="M 115.363636 338.981918 
L 121.128099 338.981918 
L 123.049587 337.601096 
L 134.578512 337.601096 
L 136.5 336.220274 
L 148.028926 336.220274 
L 149.950413 334.839452 
L 192.223141 334.839452 
L 194.144628 333.45863 
L 263.318182 333.45863 
L 267.161157 330.696986 
L 282.533058 330.696986 
L 284.454545 329.316164 
L 292.140496 329.316164 
L 294.061983 327.935342 
L 297.904959 327.935342 
L 299.826446 326.554521 
L 349.785124 326.554521 
L 351.706612 325.173699 
L 430.487603 325.173699 
L 432.409091 323.792877 
L 622.636364 323.792877 
L 622.636364 323.792877 
" clip-path="url(#p3265c8db27)" style="fill: none; stroke: #9467bd; stroke-width: 1.5; stroke-linecap: square"/>
   </g>
   <g id="line2d_36">
    <path d="M 115.363636 350.028493 
L 117.285124 350.028493 
L 119.206612 348.647671 
L 146.107438 348.647671 
L 148.028926 347.266849 
L 171.086777 347.266849 
L 173.008264 345.886027 
L 201.830579 345.886027 
L 205.673554 343.124384 
L 226.809917 343.124384 
L 228.731405 341.743562 
L 286.376033 341.743562 
L 288.297521 340.36274 
L 305.590909 340.36274 
L 307.512397 338.981918 
L 340.177686 338.981918 
L 342.099174 337.601096 
L 372.842975 337.601096 
L 374.764463 336.220274 
L 382.450413 336.220274 
L 384.371901 334.839452 
L 401.665289 334.839452 
L 403.586777 333.45863 
L 449.702479 333.45863 
L 451.623967 332.077808 
L 463.152893 332.077808 
L 465.07438 330.696986 
L 476.603306 330.696986 
L 478.524793 329.316164 
L 486.210744 329.316164 
L 488.132231 327.935342 
L 559.227273 327.935342 
L 561.14876 326.554521 
L 616.871901 326.554521 
L 618.793388 325.173699 
L 622.636364 325.173699 
L 622.636364 325.173699 
" clip-path="url(#p3265c8db27)" style="fill: none; stroke: #8c564b; stroke-width: 1.5; stroke-linecap: square"/>
   </g>
   <g id="line2d_37">
    <path d="M 115.363636 247.847671 
L 123.049587 247.847671 
L 124.971074 246.466849 
L 132.657025 246.466849 
L 136.5 243.705205 
L 138.421488 243.705205 
L 140.342975 242.324384 
L 142.264463 242.324384 
L 144.18595 240.943562 
L 148.028926 240.943562 
L 149.950413 239.56274 
L 155.714876 239.56274 
L 157.636364 238.181918 
L 161.479339 238.181918 
L 163.400826 236.801096 
L 165.322314 236.801096 
L 167.243802 235.420274 
L 171.086777 235.420274 
L 174.929752 232.65863 
L 182.615702 232.65863 
L 184.53719 231.277808 
L 190.301653 231.277808 
L 194.144628 228.516164 
L 197.987603 228.516164 
L 199.909091 227.135342 
L 203.752066 227.135342 
L 205.673554 225.754521 
L 207.595041 222.992877 
L 209.516529 218.850411 
L 213.359504 218.850411 
L 215.280992 217.469589 
L 224.88843 217.469589 
L 228.731405 214.707945 
L 230.652893 211.946301 
L 232.57438 210.565479 
L 234.495868 210.565479 
L 236.417355 207.803836 
L 244.103306 207.803836 
L 246.024793 206.423014 
L 247.946281 206.423014 
L 251.789256 203.66137 
L 253.710744 203.66137 
L 255.632231 202.280548 
L 257.553719 202.280548 
L 261.396694 199.518904 
L 265.239669 199.518904 
L 267.161157 196.75726 
L 274.847107 196.75726 
L 278.690083 193.995616 
L 282.533058 193.995616 
L 284.454545 192.614795 
L 286.376033 189.853151 
L 292.140496 189.853151 
L 294.061983 188.472329 
L 295.983471 188.472329 
L 297.904959 185.710685 
L 299.826446 185.710685 
L 301.747934 184.329863 
L 303.669421 184.329863 
L 305.590909 182.949041 
L 313.27686 182.949041 
L 317.119835 180.187397 
L 319.041322 180.187397 
L 320.96281 177.425753 
L 322.884298 177.425753 
L 324.805785 176.044932 
L 326.727273 176.044932 
L 328.64876 174.66411 
L 334.413223 174.66411 
L 336.334711 173.283288 
L 338.256198 173.283288 
L 345.942149 167.76 
L 347.863636 164.998356 
L 351.706612 164.998356 
L 355.549587 159.475068 
L 359.392562 159.475068 
L 363.235537 156.713425 
L 365.157025 156.713425 
L 367.078512 153.951781 
L 369 153.951781 
L 370.921488 152.570959 
L 372.842975 152.570959 
L 374.764463 151.190137 
L 378.607438 151.190137 
L 380.528926 149.809315 
L 382.450413 149.809315 
L 384.371901 148.428493 
L 392.057851 148.428493 
L 393.979339 141.524384 
L 395.900826 141.524384 
L 397.822314 140.143562 
L 403.586777 140.143562 
L 405.508264 138.76274 
L 422.801653 138.76274 
L 424.723141 136.001096 
L 432.409091 136.001096 
L 434.330579 134.620274 
L 453.545455 134.620274 
L 455.466942 131.85863 
L 457.38843 130.477808 
L 466.995868 130.477808 
L 468.917355 129.096986 
L 482.367769 129.096986 
L 484.289256 127.716164 
L 486.210744 127.716164 
L 488.132231 126.335342 
L 499.661157 126.335342 
L 503.504132 123.573699 
L 516.954545 123.573699 
L 520.797521 120.812055 
L 522.719008 120.812055 
L 524.640496 119.431233 
L 536.169421 119.431233 
L 538.090909 118.050411 
L 543.855372 118.050411 
L 545.77686 116.669589 
L 547.698347 113.907945 
L 553.46281 113.907945 
L 555.384298 112.527123 
L 557.305785 112.527123 
L 561.14876 109.765479 
L 568.834711 109.765479 
L 570.756198 108.384658 
L 578.442149 108.384658 
L 580.363636 107.003836 
L 586.128099 107.003836 
L 588.049587 105.623014 
L 603.421488 105.623014 
L 607.264463 102.86137 
L 616.871901 102.86137 
L 618.793388 101.480548 
L 622.636364 101.480548 
L 622.636364 101.480548 
" clip-path="url(#p3265c8db27)" style="fill: none; stroke: #e377c2; stroke-width: 1.5; stroke-linecap: square"/>
   </g>
   <g id="line2d_38">
    <path d="M 115.363636 333.45863 
L 117.285124 333.45863 
L 121.128099 330.696986 
L 130.735537 330.696986 
L 132.657025 329.316164 
L 134.578512 329.316164 
L 138.421488 326.554521 
L 142.264463 326.554521 
L 144.18595 325.173699 
L 149.950413 325.173699 
L 151.871901 323.792877 
L 153.793388 323.792877 
L 155.714876 322.412055 
L 157.636364 322.412055 
L 161.479339 319.650411 
L 167.243802 319.650411 
L 169.165289 318.269589 
L 173.008264 318.269589 
L 176.85124 315.507945 
L 180.694215 315.507945 
L 184.53719 312.746301 
L 186.458678 312.746301 
L 188.380165 311.365479 
L 190.301653 307.223014 
L 197.987603 307.223014 
L 205.673554 301.699726 
L 207.595041 301.699726 
L 211.438017 298.938082 
L 213.359504 298.938082 
L 215.280992 297.55726 
L 217.202479 297.55726 
L 219.123967 296.176438 
L 236.417355 296.176438 
L 238.338843 294.795616 
L 257.553719 294.795616 
L 261.396694 292.033973 
L 267.161157 292.033973 
L 269.082645 290.653151 
L 272.92562 290.653151 
L 276.768595 287.891507 
L 280.61157 287.891507 
L 282.533058 285.129863 
L 288.297521 285.129863 
L 290.219008 282.368219 
L 292.140496 280.987397 
L 301.747934 280.987397 
L 303.669421 279.606575 
L 305.590909 279.606575 
L 309.433884 276.844932 
L 319.041322 276.844932 
L 320.96281 275.46411 
L 322.884298 275.46411 
L 324.805785 274.083288 
L 336.334711 274.083288 
L 338.256198 272.702466 
L 344.020661 272.702466 
L 345.942149 271.321644 
L 347.863636 271.321644 
L 349.785124 267.179178 
L 351.706612 267.179178 
L 353.628099 264.417534 
L 355.549587 263.036712 
L 357.471074 263.036712 
L 361.31405 260.275068 
L 365.157025 260.275068 
L 367.078512 258.894247 
L 370.921488 258.894247 
L 372.842975 257.513425 
L 374.764463 257.513425 
L 376.68595 254.751781 
L 378.607438 254.751781 
L 380.528926 253.370959 
L 384.371901 253.370959 
L 388.214876 250.609315 
L 390.136364 250.609315 
L 392.057851 247.847671 
L 393.979339 246.466849 
L 407.429752 246.466849 
L 409.35124 243.705205 
L 415.115702 243.705205 
L 417.03719 242.324384 
L 418.958678 242.324384 
L 420.880165 240.943562 
L 426.644628 240.943562 
L 428.566116 239.56274 
L 438.173554 239.56274 
L 440.095041 238.181918 
L 443.938017 238.181918 
L 445.859504 236.801096 
L 455.466942 236.801096 
L 457.38843 235.420274 
L 474.681818 235.420274 
L 478.524793 232.65863 
L 480.446281 232.65863 
L 482.367769 231.277808 
L 484.289256 231.277808 
L 486.210744 229.896986 
L 488.132231 229.896986 
L 490.053719 228.516164 
L 493.896694 228.516164 
L 495.818182 227.135342 
L 497.739669 227.135342 
L 501.582645 224.373699 
L 507.347107 224.373699 
L 509.268595 222.992877 
L 515.033058 222.992877 
L 516.954545 221.612055 
L 530.404959 221.612055 
L 532.326446 220.231233 
L 534.247934 220.231233 
L 536.169421 218.850411 
L 543.855372 218.850411 
L 545.77686 216.088767 
L 557.305785 216.088767 
L 559.227273 214.707945 
L 561.14876 214.707945 
L 563.070248 211.946301 
L 572.677686 211.946301 
L 574.599174 210.565479 
L 586.128099 210.565479 
L 588.049587 209.184658 
L 613.028926 209.184658 
L 614.950413 207.803836 
L 622.636364 207.803836 
L 622.636364 207.803836 
" clip-path="url(#p3265c8db27)" style="fill: none; stroke: #7f7f7f; stroke-width: 1.5; stroke-linecap: square"/>
   </g>
   <g id="line2d_39">
    <path d="M 115.363636 341.743562 
L 123.049587 341.743562 
L 124.971074 340.36274 
L 144.18595 340.36274 
L 146.107438 338.981918 
L 155.714876 338.981918 
L 157.636364 337.601096 
L 176.85124 337.601096 
L 178.772727 336.220274 
L 197.987603 336.220274 
L 199.909091 334.839452 
L 303.669421 334.839452 
L 305.590909 333.45863 
L 315.198347 333.45863 
L 317.119835 332.077808 
L 330.570248 332.077808 
L 332.491736 330.696986 
L 334.413223 330.696986 
L 336.334711 326.554521 
L 338.256198 325.173699 
L 342.099174 325.173699 
L 344.020661 323.792877 
L 363.235537 323.792877 
L 365.157025 322.412055 
L 382.450413 322.412055 
L 384.371901 321.031233 
L 405.508264 321.031233 
L 407.429752 319.650411 
L 430.487603 319.650411 
L 432.409091 318.269589 
L 442.016529 318.269589 
L 443.938017 316.888767 
L 505.42562 316.888767 
L 507.347107 315.507945 
L 511.190083 315.507945 
L 513.11157 314.127123 
L 528.483471 314.127123 
L 530.404959 312.746301 
L 584.206612 312.746301 
L 589.971074 308.603836 
L 622.636364 308.603836 
L 622.636364 308.603836 
" clip-path="url(#p3265c8db27)" style="fill: none; stroke: #bcbd22; stroke-width: 1.5; stroke-linecap: square"/>
   </g>
   <g id="line2d_40">
    <path d="M 115.363636 366.598356 
L 211.438017 366.598356 
L 213.359504 365.217534 
L 334.413223 365.217534 
L 336.334711 363.836712 
L 532.326446 363.836712 
L 534.247934 362.45589 
L 536.169421 363.836712 
L 622.636364 363.836712 
L 622.636364 363.836712 
" clip-path="url(#p3265c8db27)" style="fill: none; stroke: #17becf; stroke-width: 1.5; stroke-linecap: square"/>
   </g>
   <g id="line2d_41">
    <path d="M 115.363636 369.36 
L 117.285124 367.979178 
L 121.128099 367.979178 
L 123.049587 366.598356 
L 136.5 366.598356 
L 138.421488 365.217534 
L 144.18595 365.217534 
L 146.107438 363.836712 
L 148.028926 363.836712 
L 151.871901 361.075068 
L 161.479339 361.075068 
L 165.322314 358.313425 
L 167.243802 358.313425 
L 169.165289 356.932603 
L 182.615702 356.932603 
L 184.53719 355.551781 
L 186.458678 352.790137 
L 190.301653 352.790137 
L 192.223141 351.409315 
L 194.144628 351.409315 
L 196.066116 350.028493 
L 197.987603 350.028493 
L 199.909091 348.647671 
L 201.830579 348.647671 
L 205.673554 345.886027 
L 217.202479 345.886027 
L 221.045455 343.124384 
L 226.809917 343.124384 
L 228.731405 341.743562 
L 230.652893 341.743562 
L 232.57438 338.981918 
L 238.338843 338.981918 
L 242.181818 333.45863 
L 253.710744 333.45863 
L 255.632231 330.696986 
L 257.553719 329.316164 
L 263.318182 329.316164 
L 265.239669 327.935342 
L 267.161157 325.173699 
L 271.004132 325.173699 
L 272.92562 323.792877 
L 299.826446 323.792877 
L 301.747934 321.031233 
L 315.198347 311.365479 
L 334.413223 311.365479 
L 340.177686 307.223014 
L 344.020661 307.223014 
L 345.942149 304.46137 
L 349.785124 304.46137 
L 351.706612 303.080548 
L 357.471074 303.080548 
L 359.392562 301.699726 
L 361.31405 301.699726 
L 363.235537 300.318904 
L 365.157025 300.318904 
L 369 297.55726 
L 393.979339 297.55726 
L 397.822314 294.795616 
L 413.194215 294.795616 
L 415.115702 293.414795 
L 420.880165 293.414795 
L 424.723141 290.653151 
L 430.487603 290.653151 
L 432.409091 289.272329 
L 436.252066 289.272329 
L 438.173554 287.891507 
L 447.780992 287.891507 
L 449.702479 286.510685 
L 451.623967 286.510685 
L 453.545455 283.749041 
L 455.466942 283.749041 
L 457.38843 282.368219 
L 466.995868 282.368219 
L 468.917355 280.987397 
L 472.760331 280.987397 
L 474.681818 279.606575 
L 476.603306 279.606575 
L 480.446281 276.844932 
L 493.896694 276.844932 
L 495.818182 275.46411 
L 497.739669 275.46411 
L 499.661157 274.083288 
L 509.268595 274.083288 
L 511.190083 271.321644 
L 513.11157 269.940822 
L 522.719008 269.940822 
L 524.640496 268.56 
L 532.326446 268.56 
L 534.247934 265.798356 
L 541.933884 265.798356 
L 545.77686 263.036712 
L 551.541322 263.036712 
L 553.46281 261.65589 
L 576.520661 261.65589 
L 578.442149 258.894247 
L 580.363636 257.513425 
L 595.735537 257.513425 
L 597.657025 256.132603 
L 622.636364 256.132603 
L 622.636364 256.132603 
" clip-path="url(#p3265c8db27)" style="fill: none; stroke: #1f77b4; stroke-width: 1.5; stroke-linecap: square"/>
   </g>
   <g id="line2d_42">
    <path d="M 115.363636 318.269589 
L 128.81405 318.269589 
L 130.735537 316.888767 
L 136.5 316.888767 
L 138.421488 315.507945 
L 146.107438 315.507945 
L 148.028926 314.127123 
L 153.793388 314.127123 
L 155.714876 312.746301 
L 157.636364 312.746301 
L 159.557851 311.365479 
L 165.322314 311.365479 
L 167.243802 309.984658 
L 171.086777 309.984658 
L 173.008264 308.603836 
L 174.929752 308.603836 
L 178.772727 305.842192 
L 190.301653 305.842192 
L 192.223141 304.46137 
L 194.144628 304.46137 
L 196.066116 303.080548 
L 197.987603 303.080548 
L 199.909091 300.318904 
L 201.830579 296.176438 
L 203.752066 294.795616 
L 211.438017 294.795616 
L 217.202479 290.653151 
L 222.966942 290.653151 
L 226.809917 287.891507 
L 247.946281 287.891507 
L 249.867769 283.749041 
L 251.789256 283.749041 
L 255.632231 278.225753 
L 259.475207 275.46411 
L 261.396694 275.46411 
L 263.318182 272.702466 
L 278.690083 272.702466 
L 280.61157 269.940822 
L 286.376033 269.940822 
L 288.297521 268.56 
L 301.747934 268.56 
L 303.669421 267.179178 
L 326.727273 267.179178 
L 328.64876 265.798356 
L 330.570248 265.798356 
L 332.491736 264.417534 
L 338.256198 264.417534 
L 340.177686 263.036712 
L 363.235537 263.036712 
L 365.157025 261.65589 
L 369 261.65589 
L 372.842975 256.132603 
L 376.68595 256.132603 
L 380.528926 253.370959 
L 384.371901 253.370959 
L 386.293388 251.990137 
L 392.057851 251.990137 
L 393.979339 250.609315 
L 417.03719 250.609315 
L 418.958678 249.228493 
L 447.780992 249.228493 
L 449.702479 247.847671 
L 466.995868 247.847671 
L 468.917355 246.466849 
L 472.760331 246.466849 
L 474.681818 245.086027 
L 480.446281 245.086027 
L 484.289256 242.324384 
L 486.210744 242.324384 
L 488.132231 240.943562 
L 495.818182 240.943562 
L 499.661157 238.181918 
L 509.268595 238.181918 
L 511.190083 236.801096 
L 516.954545 236.801096 
L 518.876033 235.420274 
L 528.483471 235.420274 
L 530.404959 234.039452 
L 540.012397 234.039452 
L 541.933884 232.65863 
L 576.520661 232.65863 
L 578.442149 231.277808 
L 580.363636 231.277808 
L 582.285124 229.896986 
L 601.5 229.896986 
L 603.421488 227.135342 
L 605.342975 227.135342 
L 607.264463 225.754521 
L 622.636364 225.754521 
L 622.636364 225.754521 
" clip-path="url(#p3265c8db27)" style="fill: none; stroke: #ff7f0e; stroke-width: 1.5; stroke-linecap: square"/>
   </g>
   <g id="patch_3">
    <path d="M 90 384.48 
L 90 51.84 
" style="fill: none; stroke: #000000; stroke-width: 0.8; stroke-linejoin: miter; stroke-linecap: square"/>
   </g>
   <g id="patch_4">
    <path d="M 648 384.48 
L 648 51.84 
" style="fill: none; stroke: #000000; stroke-width: 0.8; stroke-linejoin: miter; stroke-linecap: square"/>
   </g>
   <g id="patch_5">
    <path d="M 90 384.48 
L 648 384.48 
" style="fill: none; stroke: #000000; stroke-width: 0.8; stroke-linejoin: miter; stroke-linecap: square"/>
   </g>
   <g id="patch_6">
    <path d="M 90 51.84 
L 648 51.84 
" style="fill: none; stroke: #000000; stroke-width: 0.8; stroke-linejoin: miter; stroke-linecap: square"/>
   </g>
   <g id="text_18">
    <!-- Time Series of Votes for Each Keyword -->
    <g transform="translate(253.716563 45.84) scale(0.12 -0.12)">
     <defs>
      <path id="DejaVuSans-53" d="M 3425 4513 
L 3425 3897 
Q 3066 4069 2747 4153 
Q 2428 4238 2131 4238 
Q 1616 4238 1336 4038 
Q 1056 3838 1056 3469 
Q 1056 3159 1242 3001 
Q 1428 2844 1947 2747 
L 2328 2669 
Q 3034 2534 3370 2195 
Q 3706 1856 3706 1288 
Q 3706 609 3251 259 
Q 2797 -91 1919 -91 
Q 1588 -91 1214 -16 
Q 841 59 441 206 
L 441 856 
Q 825 641 1194 531 
Q 1563 422 1919 422 
Q 2459 422 2753 634 
Q 3047 847 3047 1241 
Q 3047 1584 2836 1778 
Q 2625 1972 2144 2069 
L 1759 2144 
Q 1053 2284 737 2584 
Q 422 2884 422 3419 
Q 422 4038 858 4394 
Q 1294 4750 2059 4750 
Q 2388 4750 2728 4690 
Q 3069 4631 3425 4513 
z
" transform="scale(0.015625)"/>
      <path id="DejaVuSans-72" d="M 2631 2963 
Q 2534 3019 2420 3045 
Q 2306 3072 2169 3072 
Q 1681 3072 1420 2755 
Q 1159 2438 1159 1844 
L 1159 0 
L 581 0 
L 581 3500 
L 1159 3500 
L 1159 2956 
Q 1341 3275 1631 3429 
Q 1922 3584 2338 3584 
Q 2397 3584 2469 3576 
Q 2541 3569 2628 3553 
L 2631 2963 
z
" transform="scale(0.015625)"/>
      <path id="DejaVuSans-66" d="M 2375 4863 
L 2375 4384 
L 1825 4384 
Q 1516 4384 1395 4259 
Q 1275 4134 1275 3809 
L 1275 3500 
L 2222 3500 
L 2222 3053 
L 1275 3053 
L 1275 0 
L 697 0 
L 697 3053 
L 147 3053 
L 147 3500 
L 697 3500 
L 697 3744 
Q 697 4328 969 4595 
Q 1241 4863 1831 4863 
L 2375 4863 
z
" transform="scale(0.015625)"/>
      <path id="DejaVuSans-45" d="M 628 4666 
L 3578 4666 
L 3578 4134 
L 1259 4134 
L 1259 2753 
L 3481 2753 
L 3481 2222 
L 1259 2222 
L 1259 531 
L 3634 531 
L 3634 0 
L 628 0 
L 628 4666 
z
" transform="scale(0.015625)"/>
      <path id="DejaVuSans-63" d="M 3122 3366 
L 3122 2828 
Q 2878 2963 2633 3030 
Q 2388 3097 2138 3097 
Q 1578 3097 1268 2742 
Q 959 2388 959 1747 
Q 959 1106 1268 751 
Q 1578 397 2138 397 
Q 2388 397 2633 464 
Q 2878 531 3122 666 
L 3122 134 
Q 2881 22 2623 -34 
Q 2366 -91 2075 -91 
Q 1284 -91 818 406 
Q 353 903 353 1747 
Q 353 2603 823 3093 
Q 1294 3584 2113 3584 
Q 2378 3584 2631 3529 
Q 2884 3475 3122 3366 
z
" transform="scale(0.015625)"/>
      <path id="DejaVuSans-68" d="M 3513 2113 
L 3513 0 
L 2938 0 
L 2938 2094 
Q 2938 2591 2744 2837 
Q 2550 3084 2163 3084 
Q 1697 3084 1428 2787 
Q 1159 2491 1159 1978 
L 1159 0 
L 581 0 
L 581 4863 
L 1159 4863 
L 1159 2956 
Q 1366 3272 1645 3428 
Q 1925 3584 2291 3584 
Q 2894 3584 3203 3211 
Q 3513 2838 3513 2113 
z
" transform="scale(0.015625)"/>
      <path id="DejaVuSans-4b" d="M 628 4666 
L 1259 4666 
L 1259 2694 
L 3353 4666 
L 4166 4666 
L 1850 2491 
L 4331 0 
L 3500 0 
L 1259 2247 
L 1259 0 
L 628 0 
L 628 4666 
z
" transform="scale(0.015625)"/>
      <path id="DejaVuSans-79" d="M 2059 -325 
Q 1816 -950 1584 -1140 
Q 1353 -1331 966 -1331 
L 506 -1331 
L 506 -850 
L 844 -850 
Q 1081 -850 1212 -737 
Q 1344 -625 1503 -206 
L 1606 56 
L 191 3500 
L 800 3500 
L 1894 763 
L 2988 3500 
L 3597 3500 
L 2059 -325 
z
" transform="scale(0.015625)"/>
      <path id="DejaVuSans-77" d="M 269 3500 
L 844 3500 
L 1563 769 
L 2278 3500 
L 2956 3500 
L 3675 769 
L 4391 3500 
L 4966 3500 
L 4050 0 
L 3372 0 
L 2619 2869 
L 1863 0 
L 1184 0 
L 269 3500 
z
" transform="scale(0.015625)"/>
     </defs>
     <use xlink:href="#DejaVuSans-54"/>
     <use xlink:href="#DejaVuSans-69" transform="translate(57.958984 0)"/>
     <use xlink:href="#DejaVuSans-6d" transform="translate(85.742188 0)"/>
     <use xlink:href="#DejaVuSans-65" transform="translate(183.154297 0)"/>
     <use xlink:href="#DejaVuSans-20" transform="translate(244.677734 0)"/>
     <use xlink:href="#DejaVuSans-53" transform="translate(276.464844 0)"/>
     <use xlink:href="#DejaVuSans-65" transform="translate(339.941406 0)"/>
     <use xlink:href="#DejaVuSans-72" transform="translate(401.464844 0)"/>
     <use xlink:href="#DejaVuSans-69" transform="translate(442.578125 0)"/>
     <use xlink:href="#DejaVuSans-65" transform="translate(470.361328 0)"/>
     <use xlink:href="#DejaVuSans-73" transform="translate(531.884766 0)"/>
     <use xlink:href="#DejaVuSans-20" transform="translate(583.984375 0)"/>
     <use xlink:href="#DejaVuSans-6f" transform="translate(615.771484 0)"/>
     <use xlink:href="#DejaVuSans-66" transform="translate(676.953125 0)"/>
     <use xlink:href="#DejaVuSans-20" transform="translate(712.158203 0)"/>
     <use xlink:href="#DejaVuSans-56" transform="translate(743.945312 0)"/>
     <use xlink:href="#DejaVuSans-6f" transform="translate(804.603516 0)"/>
     <use xlink:href="#DejaVuSans-74" transform="translate(865.785156 0)"/>
     <use xlink:href="#DejaVuSans-65" transform="translate(904.994141 0)"/>
     <use xlink:href="#DejaVuSans-73" transform="translate(966.517578 0)"/>
     <use xlink:href="#DejaVuSans-20" transform="translate(1018.617188 0)"/>
     <use xlink:href="#DejaVuSans-66" transform="translate(1050.404297 0)"/>
     <use xlink:href="#DejaVuSans-6f" transform="translate(1085.609375 0)"/>
     <use xlink:href="#DejaVuSans-72" transform="translate(1146.791016 0)"/>
     <use xlink:href="#DejaVuSans-20" transform="translate(1187.904297 0)"/>
     <use xlink:href="#DejaVuSans-45" transform="translate(1219.691406 0)"/>
     <use xlink:href="#DejaVuSans-61" transform="translate(1282.875 0)"/>
     <use xlink:href="#DejaVuSans-63" transform="translate(1344.154297 0)"/>
     <use xlink:href="#DejaVuSans-68" transform="translate(1399.134766 0)"/>
     <use xlink:href="#DejaVuSans-20" transform="translate(1462.513672 0)"/>
     <use xlink:href="#DejaVuSans-4b" transform="translate(1494.300781 0)"/>
     <use xlink:href="#DejaVuSans-65" transform="translate(1554.876953 0)"/>
     <use xlink:href="#DejaVuSans-79" transform="translate(1616.400391 0)"/>
     <use xlink:href="#DejaVuSans-77" transform="translate(1675.580078 0)"/>
     <use xlink:href="#DejaVuSans-6f" transform="translate(1757.367188 0)"/>
     <use xlink:href="#DejaVuSans-72" transform="translate(1818.548828 0)"/>
     <use xlink:href="#DejaVuSans-64" transform="translate(1857.912109 0)"/>
    </g>
   </g>
   <g id="legend_1">
    <g id="patch_7">
     <path d="M 97 235.9775 
L 149.245313 235.9775 
Q 151.245313 235.9775 151.245313 233.9775 
L 151.245313 58.84 
Q 151.245313 56.84 149.245313 56.84 
L 97 56.84 
Q 95 56.84 95 58.84 
L 95 233.9775 
Q 95 235.9775 97 235.9775 
z
" style="fill: #ffffff; opacity: 0.8; stroke: #cccccc; stroke-linejoin: miter"/>
    </g>
    <g id="line2d_43">
     <path d="M 99 64.938437 
L 109 64.938437 
L 119 64.938437 
" style="fill: none; stroke: #1f77b4; stroke-width: 1.5; stroke-linecap: square"/>
    </g>
    <g id="text_19">
     <!-- H01 -->
     <g transform="translate(127 68.438437) scale(0.1 -0.1)">
      <defs>
       <path id="DejaVuSans-48" d="M 628 4666 
L 1259 4666 
L 1259 2753 
L 3553 2753 
L 3553 4666 
L 4184 4666 
L 4184 0 
L 3553 0 
L 3553 2222 
L 1259 2222 
L 1259 0 
L 628 0 
L 628 4666 
z
" transform="scale(0.015625)"/>
      </defs>
      <use xlink:href="#DejaVuSans-48"/>
      <use xlink:href="#DejaVuSans-30" transform="translate(75.195312 0)"/>
      <use xlink:href="#DejaVuSans-31" transform="translate(138.818359 0)"/>
     </g>
    </g>
    <g id="line2d_44">
     <path d="M 99 79.616562 
L 109 79.616562 
L 119 79.616562 
" style="fill: none; stroke: #ff7f0e; stroke-width: 1.5; stroke-linecap: square"/>
    </g>
    <g id="text_20">
     <!-- H02 -->
     <g transform="translate(127 83.116562) scale(0.1 -0.1)">
      <use xlink:href="#DejaVuSans-48"/>
      <use xlink:href="#DejaVuSans-30" transform="translate(75.195312 0)"/>
      <use xlink:href="#DejaVuSans-32" transform="translate(138.818359 0)"/>
     </g>
    </g>
    <g id="line2d_45">
     <path d="M 99 94.294688 
L 109 94.294688 
L 119 94.294688 
" style="fill: none; stroke: #2ca02c; stroke-width: 1.5; stroke-linecap: square"/>
    </g>
    <g id="text_21">
     <!-- H03 -->
     <g transform="translate(127 97.794688) scale(0.1 -0.1)">
      <use xlink:href="#DejaVuSans-48"/>
      <use xlink:href="#DejaVuSans-30" transform="translate(75.195312 0)"/>
      <use xlink:href="#DejaVuSans-33" transform="translate(138.818359 0)"/>
     </g>
    </g>
    <g id="line2d_46">
     <path d="M 99 108.972812 
L 109 108.972812 
L 119 108.972812 
" style="fill: none; stroke: #d62728; stroke-width: 1.5; stroke-linecap: square"/>
    </g>
    <g id="text_22">
     <!-- H04 -->
     <g transform="translate(127 112.472812) scale(0.1 -0.1)">
      <use xlink:href="#DejaVuSans-48"/>
      <use xlink:href="#DejaVuSans-30" transform="translate(75.195312 0)"/>
      <use xlink:href="#DejaVuSans-34" transform="translate(138.818359 0)"/>
     </g>
    </g>
    <g id="line2d_47">
     <path d="M 99 123.650937 
L 109 123.650937 
L 119 123.650937 
" style="fill: none; stroke: #9467bd; stroke-width: 1.5; stroke-linecap: square"/>
    </g>
    <g id="text_23">
     <!-- H05 -->
     <g transform="translate(127 127.150937) scale(0.1 -0.1)">
      <use xlink:href="#DejaVuSans-48"/>
      <use xlink:href="#DejaVuSans-30" transform="translate(75.195312 0)"/>
      <use xlink:href="#DejaVuSans-35" transform="translate(138.818359 0)"/>
     </g>
    </g>
    <g id="line2d_48">
     <path d="M 99 138.329062 
L 109 138.329062 
L 119 138.329062 
" style="fill: none; stroke: #8c564b; stroke-width: 1.5; stroke-linecap: square"/>
    </g>
    <g id="text_24">
     <!-- H06 -->
     <g transform="translate(127 141.829062) scale(0.1 -0.1)">
      <use xlink:href="#DejaVuSans-48"/>
      <use xlink:href="#DejaVuSans-30" transform="translate(75.195312 0)"/>
      <use xlink:href="#DejaVuSans-36" transform="translate(138.818359 0)"/>
     </g>
    </g>
    <g id="line2d_49">
     <path d="M 99 153.007187 
L 109 153.007187 
L 119 153.007187 
" style="fill: none; stroke: #e377c2; stroke-width: 1.5; stroke-linecap: square"/>
    </g>
    <g id="text_25">
     <!-- H07 -->
     <g transform="translate(127 156.507187) scale(0.1 -0.1)">
      <use xlink:href="#DejaVuSans-48"/>
      <use xlink:href="#DejaVuSans-30" transform="translate(75.195312 0)"/>
      <use xlink:href="#DejaVuSans-37" transform="translate(138.818359 0)"/>
     </g>
    </g>
    <g id="line2d_50">
     <path d="M 99 167.685312 
L 109 167.685312 
L 119 167.685312 
" style="fill: none; stroke: #7f7f7f; stroke-width: 1.5; stroke-linecap: square"/>
    </g>
    <g id="text_26">
     <!-- H08 -->
     <g transform="translate(127 171.185312) scale(0.1 -0.1)">
      <use xlink:href="#DejaVuSans-48"/>
      <use xlink:href="#DejaVuSans-30" transform="translate(75.195312 0)"/>
      <use xlink:href="#DejaVuSans-38" transform="translate(138.818359 0)"/>
     </g>
    </g>
    <g id="line2d_51">
     <path d="M 99 182.363437 
L 109 182.363437 
L 119 182.363437 
" style="fill: none; stroke: #bcbd22; stroke-width: 1.5; stroke-linecap: square"/>
    </g>
    <g id="text_27">
     <!-- H09 -->
     <g transform="translate(127 185.863437) scale(0.1 -0.1)">
      <defs>
       <path id="DejaVuSans-39" d="M 703 97 
L 703 672 
Q 941 559 1184 500 
Q 1428 441 1663 441 
Q 2288 441 2617 861 
Q 2947 1281 2994 2138 
Q 2813 1869 2534 1725 
Q 2256 1581 1919 1581 
Q 1219 1581 811 2004 
Q 403 2428 403 3163 
Q 403 3881 828 4315 
Q 1253 4750 1959 4750 
Q 2769 4750 3195 4129 
Q 3622 3509 3622 2328 
Q 3622 1225 3098 567 
Q 2575 -91 1691 -91 
Q 1453 -91 1209 -44 
Q 966 3 703 97 
z
M 1959 2075 
Q 2384 2075 2632 2365 
Q 2881 2656 2881 3163 
Q 2881 3666 2632 3958 
Q 2384 4250 1959 4250 
Q 1534 4250 1286 3958 
Q 1038 3666 1038 3163 
Q 1038 2656 1286 2365 
Q 1534 2075 1959 2075 
z
" transform="scale(0.015625)"/>
      </defs>
      <use xlink:href="#DejaVuSans-48"/>
      <use xlink:href="#DejaVuSans-30" transform="translate(75.195312 0)"/>
      <use xlink:href="#DejaVuSans-39" transform="translate(138.818359 0)"/>
     </g>
    </g>
    <g id="line2d_52">
     <path d="M 99 197.041562 
L 109 197.041562 
L 119 197.041562 
" style="fill: none; stroke: #17becf; stroke-width: 1.5; stroke-linecap: square"/>
    </g>
    <g id="text_28">
     <!-- H10 -->
     <g transform="translate(127 200.541562) scale(0.1 -0.1)">
      <use xlink:href="#DejaVuSans-48"/>
      <use xlink:href="#DejaVuSans-31" transform="translate(75.195312 0)"/>
      <use xlink:href="#DejaVuSans-30" transform="translate(138.818359 0)"/>
     </g>
    </g>
    <g id="line2d_53">
     <path d="M 99 211.719687 
L 109 211.719687 
L 119 211.719687 
" style="fill: none; stroke: #1f77b4; stroke-width: 1.5; stroke-linecap: square"/>
    </g>
    <g id="text_29">
     <!-- H11 -->
     <g transform="translate(127 215.219687) scale(0.1 -0.1)">
      <use xlink:href="#DejaVuSans-48"/>
      <use xlink:href="#DejaVuSans-31" transform="translate(75.195312 0)"/>
      <use xlink:href="#DejaVuSans-31" transform="translate(138.818359 0)"/>
     </g>
    </g>
    <g id="line2d_54">
     <path d="M 99 226.397812 
L 109 226.397812 
L 119 226.397812 
" style="fill: none; stroke: #ff7f0e; stroke-width: 1.5; stroke-linecap: square"/>
    </g>
    <g id="text_30">
     <!-- H12 -->
     <g transform="translate(127 229.897812) scale(0.1 -0.1)">
      <use xlink:href="#DejaVuSans-48"/>
      <use xlink:href="#DejaVuSans-31" transform="translate(75.195312 0)"/>
      <use xlink:href="#DejaVuSans-32" transform="translate(138.818359 0)"/>
     </g>
    </g>
   </g>
  </g>
 </g>
 <defs>
  <clipPath id="p3265c8db27">
   <rect x="90" y="51.84" width="558" height="332.64"/>
  </clipPath>
 </defs>
</svg>
