<?xml version="1.0" encoding="utf-8" standalone="no"?>
<!DOCTYPE svg PUBLIC "-//W3C//DTD SVG 1.1//EN"
  "http://www.w3.org/Graphics/SVG/1.1/DTD/svg11.dtd">
<svg xmlns:xlink="http://www.w3.org/1999/xlink" width="720pt" height="432pt" viewBox="0 0 720 432" xmlns="http://www.w3.org/2000/svg" version="1.1">
 <metadata>
  <rdf:RDF xmlns:dc="http://purl.org/dc/elements/1.1/" xmlns:cc="http://creativecommons.org/ns#" xmlns:rdf="http://www.w3.org/1999/02/22-rdf-syntax-ns#">
   <cc:Work>
    <dc:type rdf:resource="http://purl.org/dc/dcmitype/StillImage"/>
    <dc:date>2025-01-14T23:39:15.429237</dc:date>
    <dc:format>image/svg+xml</dc:format>
    <dc:creator>
     <cc:Agent>
      <dc:title>Matplotlib v3.10.0, https://matplotlib.org/</dc:title>
     </cc:Agent>
    </dc:creator>
   </cc:Work>
  </rdf:RDF>
 </metadata>
 <defs>
  <style type="text/css">*{stroke-linejoin: round; stroke-linecap: butt}</style>
 </defs>
 <g id="figure_1">
  <g id="patch_1">
   <path d="M 0 432 
L 720 432 
L 720 0 
L 0 0 
z
" style="fill: #ffffff"/>
  </g>
  <g id="axes_1">
   <g id="patch_2">
    <path d="M 90 384.48 
L 648 384.48 
L 648 51.84 
L 90 51.84 
z
" style="fill: #ffffff"/>
   </g>
   <g id="matplotlib.axis_1">
    <g id="xtick_1">
     <g id="line2d_1">
      <path d="M 138.002254 384.48 
L 138.002254 51.84 
" clip-path="url(#pebe19539fb)" style="fill: none; stroke: #b0b0b0; stroke-width: 0.8; stroke-linecap: square"/>
     </g>
     <g id="line2d_2">
      <defs>
       <path id="md77f685213" d="M 0 0 
L 0 3.5 
" style="stroke: #000000; stroke-width: 0.8"/>
      </defs>
      <g>
       <use xlink:href="#md77f685213" x="138.002254" y="384.48" style="stroke: #000000; stroke-width: 0.8"/>
      </g>
     </g>
     <g id="text_1">
      <!-- 01-14 14 -->
      <g transform="translate(115.521785 399.078438) scale(0.1 -0.1)">
       <defs>
        <path id="DejaVuSans-30" d="M 2034 4250 
Q 1547 4250 1301 3770 
Q 1056 3291 1056 2328 
Q 1056 1369 1301 889 
Q 1547 409 2034 409 
Q 2525 409 2770 889 
Q 3016 1369 3016 2328 
Q 3016 3291 2770 3770 
Q 2525 4250 2034 4250 
z
M 2034 4750 
Q 2819 4750 3233 4129 
Q 3647 3509 3647 2328 
Q 3647 1150 3233 529 
Q 2819 -91 2034 -91 
Q 1250 -91 836 529 
Q 422 1150 422 2328 
Q 422 3509 836 4129 
Q 1250 4750 2034 4750 
z
" transform="scale(0.015625)"/>
        <path id="DejaVuSans-31" d="M 794 531 
L 1825 531 
L 1825 4091 
L 703 3866 
L 703 4441 
L 1819 4666 
L 2450 4666 
L 2450 531 
L 3481 531 
L 3481 0 
L 794 0 
L 794 531 
z
" transform="scale(0.015625)"/>
        <path id="DejaVuSans-2d" d="M 313 2009 
L 1997 2009 
L 1997 1497 
L 313 1497 
L 313 2009 
z
" transform="scale(0.015625)"/>
        <path id="DejaVuSans-34" d="M 2419 4116 
L 825 1625 
L 2419 1625 
L 2419 4116 
z
M 2253 4666 
L 3047 4666 
L 3047 1625 
L 3713 1625 
L 3713 1100 
L 3047 1100 
L 3047 0 
L 2419 0 
L 2419 1100 
L 313 1100 
L 313 1709 
L 2253 4666 
z
" transform="scale(0.015625)"/>
        <path id="DejaVuSans-20" transform="scale(0.015625)"/>
       </defs>
       <use xlink:href="#DejaVuSans-30"/>
       <use xlink:href="#DejaVuSans-31" transform="translate(63.623047 0)"/>
       <use xlink:href="#DejaVuSans-2d" transform="translate(127.246094 0)"/>
       <use xlink:href="#DejaVuSans-31" transform="translate(163.330078 0)"/>
       <use xlink:href="#DejaVuSans-34" transform="translate(226.953125 0)"/>
       <use xlink:href="#DejaVuSans-20" transform="translate(290.576172 0)"/>
       <use xlink:href="#DejaVuSans-31" transform="translate(322.363281 0)"/>
       <use xlink:href="#DejaVuSans-34" transform="translate(385.986328 0)"/>
      </g>
     </g>
    </g>
    <g id="xtick_2">
     <g id="line2d_3">
      <path d="M 188.310293 384.48 
L 188.310293 51.84 
" clip-path="url(#pebe19539fb)" style="fill: none; stroke: #b0b0b0; stroke-width: 0.8; stroke-linecap: square"/>
     </g>
     <g id="line2d_4">
      <g>
       <use xlink:href="#md77f685213" x="188.310293" y="384.48" style="stroke: #000000; stroke-width: 0.8"/>
      </g>
     </g>
     <g id="text_2">
      <!-- 01-14 15 -->
      <g transform="translate(165.829824 399.078438) scale(0.1 -0.1)">
       <defs>
        <path id="DejaVuSans-35" d="M 691 4666 
L 3169 4666 
L 3169 4134 
L 1269 4134 
L 1269 2991 
Q 1406 3038 1543 3061 
Q 1681 3084 1819 3084 
Q 2600 3084 3056 2656 
Q 3513 2228 3513 1497 
Q 3513 744 3044 326 
Q 2575 -91 1722 -91 
Q 1428 -91 1123 -41 
Q 819 9 494 109 
L 494 744 
Q 775 591 1075 516 
Q 1375 441 1709 441 
Q 2250 441 2565 725 
Q 2881 1009 2881 1497 
Q 2881 1984 2565 2268 
Q 2250 2553 1709 2553 
Q 1456 2553 1204 2497 
Q 953 2441 691 2322 
L 691 4666 
z
" transform="scale(0.015625)"/>
       </defs>
       <use xlink:href="#DejaVuSans-30"/>
       <use xlink:href="#DejaVuSans-31" transform="translate(63.623047 0)"/>
       <use xlink:href="#DejaVuSans-2d" transform="translate(127.246094 0)"/>
       <use xlink:href="#DejaVuSans-31" transform="translate(163.330078 0)"/>
       <use xlink:href="#DejaVuSans-34" transform="translate(226.953125 0)"/>
       <use xlink:href="#DejaVuSans-20" transform="translate(290.576172 0)"/>
       <use xlink:href="#DejaVuSans-31" transform="translate(322.363281 0)"/>
       <use xlink:href="#DejaVuSans-35" transform="translate(385.986328 0)"/>
      </g>
     </g>
    </g>
    <g id="xtick_3">
     <g id="line2d_5">
      <path d="M 238.618332 384.48 
L 238.618332 51.84 
" clip-path="url(#pebe19539fb)" style="fill: none; stroke: #b0b0b0; stroke-width: 0.8; stroke-linecap: square"/>
     </g>
     <g id="line2d_6">
      <g>
       <use xlink:href="#md77f685213" x="238.618332" y="384.48" style="stroke: #000000; stroke-width: 0.8"/>
      </g>
     </g>
     <g id="text_3">
      <!-- 01-14 16 -->
      <g transform="translate(216.137863 399.078438) scale(0.1 -0.1)">
       <defs>
        <path id="DejaVuSans-36" d="M 2113 2584 
Q 1688 2584 1439 2293 
Q 1191 2003 1191 1497 
Q 1191 994 1439 701 
Q 1688 409 2113 409 
Q 2538 409 2786 701 
Q 3034 994 3034 1497 
Q 3034 2003 2786 2293 
Q 2538 2584 2113 2584 
z
M 3366 4563 
L 3366 3988 
Q 3128 4100 2886 4159 
Q 2644 4219 2406 4219 
Q 1781 4219 1451 3797 
Q 1122 3375 1075 2522 
Q 1259 2794 1537 2939 
Q 1816 3084 2150 3084 
Q 2853 3084 3261 2657 
Q 3669 2231 3669 1497 
Q 3669 778 3244 343 
Q 2819 -91 2113 -91 
Q 1303 -91 875 529 
Q 447 1150 447 2328 
Q 447 3434 972 4092 
Q 1497 4750 2381 4750 
Q 2619 4750 2861 4703 
Q 3103 4656 3366 4563 
z
" transform="scale(0.015625)"/>
       </defs>
       <use xlink:href="#DejaVuSans-30"/>
       <use xlink:href="#DejaVuSans-31" transform="translate(63.623047 0)"/>
       <use xlink:href="#DejaVuSans-2d" transform="translate(127.246094 0)"/>
       <use xlink:href="#DejaVuSans-31" transform="translate(163.330078 0)"/>
       <use xlink:href="#DejaVuSans-34" transform="translate(226.953125 0)"/>
       <use xlink:href="#DejaVuSans-20" transform="translate(290.576172 0)"/>
       <use xlink:href="#DejaVuSans-31" transform="translate(322.363281 0)"/>
       <use xlink:href="#DejaVuSans-36" transform="translate(385.986328 0)"/>
      </g>
     </g>
    </g>
    <g id="xtick_4">
     <g id="line2d_7">
      <path d="M 288.926371 384.48 
L 288.926371 51.84 
" clip-path="url(#pebe19539fb)" style="fill: none; stroke: #b0b0b0; stroke-width: 0.8; stroke-linecap: square"/>
     </g>
     <g id="line2d_8">
      <g>
       <use xlink:href="#md77f685213" x="288.926371" y="384.48" style="stroke: #000000; stroke-width: 0.8"/>
      </g>
     </g>
     <g id="text_4">
      <!-- 01-14 17 -->
      <g transform="translate(266.445902 399.078438) scale(0.1 -0.1)">
       <defs>
        <path id="DejaVuSans-37" d="M 525 4666 
L 3525 4666 
L 3525 4397 
L 1831 0 
L 1172 0 
L 2766 4134 
L 525 4134 
L 525 4666 
z
" transform="scale(0.015625)"/>
       </defs>
       <use xlink:href="#DejaVuSans-30"/>
       <use xlink:href="#DejaVuSans-31" transform="translate(63.623047 0)"/>
       <use xlink:href="#DejaVuSans-2d" transform="translate(127.246094 0)"/>
       <use xlink:href="#DejaVuSans-31" transform="translate(163.330078 0)"/>
       <use xlink:href="#DejaVuSans-34" transform="translate(226.953125 0)"/>
       <use xlink:href="#DejaVuSans-20" transform="translate(290.576172 0)"/>
       <use xlink:href="#DejaVuSans-31" transform="translate(322.363281 0)"/>
       <use xlink:href="#DejaVuSans-37" transform="translate(385.986328 0)"/>
      </g>
     </g>
    </g>
    <g id="xtick_5">
     <g id="line2d_9">
      <path d="M 339.23441 384.48 
L 339.23441 51.84 
" clip-path="url(#pebe19539fb)" style="fill: none; stroke: #b0b0b0; stroke-width: 0.8; stroke-linecap: square"/>
     </g>
     <g id="line2d_10">
      <g>
       <use xlink:href="#md77f685213" x="339.23441" y="384.48" style="stroke: #000000; stroke-width: 0.8"/>
      </g>
     </g>
     <g id="text_5">
      <!-- 01-14 18 -->
      <g transform="translate(316.753941 399.078438) scale(0.1 -0.1)">
       <defs>
        <path id="DejaVuSans-38" d="M 2034 2216 
Q 1584 2216 1326 1975 
Q 1069 1734 1069 1313 
Q 1069 891 1326 650 
Q 1584 409 2034 409 
Q 2484 409 2743 651 
Q 3003 894 3003 1313 
Q 3003 1734 2745 1975 
Q 2488 2216 2034 2216 
z
M 1403 2484 
Q 997 2584 770 2862 
Q 544 3141 544 3541 
Q 544 4100 942 4425 
Q 1341 4750 2034 4750 
Q 2731 4750 3128 4425 
Q 3525 4100 3525 3541 
Q 3525 3141 3298 2862 
Q 3072 2584 2669 2484 
Q 3125 2378 3379 2068 
Q 3634 1759 3634 1313 
Q 3634 634 3220 271 
Q 2806 -91 2034 -91 
Q 1263 -91 848 271 
Q 434 634 434 1313 
Q 434 1759 690 2068 
Q 947 2378 1403 2484 
z
M 1172 3481 
Q 1172 3119 1398 2916 
Q 1625 2713 2034 2713 
Q 2441 2713 2670 2916 
Q 2900 3119 2900 3481 
Q 2900 3844 2670 4047 
Q 2441 4250 2034 4250 
Q 1625 4250 1398 4047 
Q 1172 3844 1172 3481 
z
" transform="scale(0.015625)"/>
       </defs>
       <use xlink:href="#DejaVuSans-30"/>
       <use xlink:href="#DejaVuSans-31" transform="translate(63.623047 0)"/>
       <use xlink:href="#DejaVuSans-2d" transform="translate(127.246094 0)"/>
       <use xlink:href="#DejaVuSans-31" transform="translate(163.330078 0)"/>
       <use xlink:href="#DejaVuSans-34" transform="translate(226.953125 0)"/>
       <use xlink:href="#DejaVuSans-20" transform="translate(290.576172 0)"/>
       <use xlink:href="#DejaVuSans-31" transform="translate(322.363281 0)"/>
       <use xlink:href="#DejaVuSans-38" transform="translate(385.986328 0)"/>
      </g>
     </g>
    </g>
    <g id="xtick_6">
     <g id="line2d_11">
      <path d="M 389.542449 384.48 
L 389.542449 51.84 
" clip-path="url(#pebe19539fb)" style="fill: none; stroke: #b0b0b0; stroke-width: 0.8; stroke-linecap: square"/>
     </g>
     <g id="line2d_12">
      <g>
       <use xlink:href="#md77f685213" x="389.542449" y="384.48" style="stroke: #000000; stroke-width: 0.8"/>
      </g>
     </g>
     <g id="text_6">
      <!-- 01-14 19 -->
      <g transform="translate(367.061981 399.078438) scale(0.1 -0.1)">
       <defs>
        <path id="DejaVuSans-39" d="M 703 97 
L 703 672 
Q 941 559 1184 500 
Q 1428 441 1663 441 
Q 2288 441 2617 861 
Q 2947 1281 2994 2138 
Q 2813 1869 2534 1725 
Q 2256 1581 1919 1581 
Q 1219 1581 811 2004 
Q 403 2428 403 3163 
Q 403 3881 828 4315 
Q 1253 4750 1959 4750 
Q 2769 4750 3195 4129 
Q 3622 3509 3622 2328 
Q 3622 1225 3098 567 
Q 2575 -91 1691 -91 
Q 1453 -91 1209 -44 
Q 966 3 703 97 
z
M 1959 2075 
Q 2384 2075 2632 2365 
Q 2881 2656 2881 3163 
Q 2881 3666 2632 3958 
Q 2384 4250 1959 4250 
Q 1534 4250 1286 3958 
Q 1038 3666 1038 3163 
Q 1038 2656 1286 2365 
Q 1534 2075 1959 2075 
z
" transform="scale(0.015625)"/>
       </defs>
       <use xlink:href="#DejaVuSans-30"/>
       <use xlink:href="#DejaVuSans-31" transform="translate(63.623047 0)"/>
       <use xlink:href="#DejaVuSans-2d" transform="translate(127.246094 0)"/>
       <use xlink:href="#DejaVuSans-31" transform="translate(163.330078 0)"/>
       <use xlink:href="#DejaVuSans-34" transform="translate(226.953125 0)"/>
       <use xlink:href="#DejaVuSans-20" transform="translate(290.576172 0)"/>
       <use xlink:href="#DejaVuSans-31" transform="translate(322.363281 0)"/>
       <use xlink:href="#DejaVuSans-39" transform="translate(385.986328 0)"/>
      </g>
     </g>
    </g>
    <g id="xtick_7">
     <g id="line2d_13">
      <path d="M 439.850488 384.48 
L 439.850488 51.84 
" clip-path="url(#pebe19539fb)" style="fill: none; stroke: #b0b0b0; stroke-width: 0.8; stroke-linecap: square"/>
     </g>
     <g id="line2d_14">
      <g>
       <use xlink:href="#md77f685213" x="439.850488" y="384.48" style="stroke: #000000; stroke-width: 0.8"/>
      </g>
     </g>
     <g id="text_7">
      <!-- 01-14 20 -->
      <g transform="translate(417.37002 399.078438) scale(0.1 -0.1)">
       <defs>
        <path id="DejaVuSans-32" d="M 1228 531 
L 3431 531 
L 3431 0 
L 469 0 
L 469 531 
Q 828 903 1448 1529 
Q 2069 2156 2228 2338 
Q 2531 2678 2651 2914 
Q 2772 3150 2772 3378 
Q 2772 3750 2511 3984 
Q 2250 4219 1831 4219 
Q 1534 4219 1204 4116 
Q 875 4013 500 3803 
L 500 4441 
Q 881 4594 1212 4672 
Q 1544 4750 1819 4750 
Q 2544 4750 2975 4387 
Q 3406 4025 3406 3419 
Q 3406 3131 3298 2873 
Q 3191 2616 2906 2266 
Q 2828 2175 2409 1742 
Q 1991 1309 1228 531 
z
" transform="scale(0.015625)"/>
       </defs>
       <use xlink:href="#DejaVuSans-30"/>
       <use xlink:href="#DejaVuSans-31" transform="translate(63.623047 0)"/>
       <use xlink:href="#DejaVuSans-2d" transform="translate(127.246094 0)"/>
       <use xlink:href="#DejaVuSans-31" transform="translate(163.330078 0)"/>
       <use xlink:href="#DejaVuSans-34" transform="translate(226.953125 0)"/>
       <use xlink:href="#DejaVuSans-20" transform="translate(290.576172 0)"/>
       <use xlink:href="#DejaVuSans-32" transform="translate(322.363281 0)"/>
       <use xlink:href="#DejaVuSans-30" transform="translate(385.986328 0)"/>
      </g>
     </g>
    </g>
    <g id="xtick_8">
     <g id="line2d_15">
      <path d="M 490.158527 384.48 
L 490.158527 51.84 
" clip-path="url(#pebe19539fb)" style="fill: none; stroke: #b0b0b0; stroke-width: 0.8; stroke-linecap: square"/>
     </g>
     <g id="line2d_16">
      <g>
       <use xlink:href="#md77f685213" x="490.158527" y="384.48" style="stroke: #000000; stroke-width: 0.8"/>
      </g>
     </g>
     <g id="text_8">
      <!-- 01-14 21 -->
      <g transform="translate(467.678059 399.078438) scale(0.1 -0.1)">
       <use xlink:href="#DejaVuSans-30"/>
       <use xlink:href="#DejaVuSans-31" transform="translate(63.623047 0)"/>
       <use xlink:href="#DejaVuSans-2d" transform="translate(127.246094 0)"/>
       <use xlink:href="#DejaVuSans-31" transform="translate(163.330078 0)"/>
       <use xlink:href="#DejaVuSans-34" transform="translate(226.953125 0)"/>
       <use xlink:href="#DejaVuSans-20" transform="translate(290.576172 0)"/>
       <use xlink:href="#DejaVuSans-32" transform="translate(322.363281 0)"/>
       <use xlink:href="#DejaVuSans-31" transform="translate(385.986328 0)"/>
      </g>
     </g>
    </g>
    <g id="xtick_9">
     <g id="line2d_17">
      <path d="M 540.466566 384.48 
L 540.466566 51.84 
" clip-path="url(#pebe19539fb)" style="fill: none; stroke: #b0b0b0; stroke-width: 0.8; stroke-linecap: square"/>
     </g>
     <g id="line2d_18">
      <g>
       <use xlink:href="#md77f685213" x="540.466566" y="384.48" style="stroke: #000000; stroke-width: 0.8"/>
      </g>
     </g>
     <g id="text_9">
      <!-- 01-14 22 -->
      <g transform="translate(517.986098 399.078438) scale(0.1 -0.1)">
       <use xlink:href="#DejaVuSans-30"/>
       <use xlink:href="#DejaVuSans-31" transform="translate(63.623047 0)"/>
       <use xlink:href="#DejaVuSans-2d" transform="translate(127.246094 0)"/>
       <use xlink:href="#DejaVuSans-31" transform="translate(163.330078 0)"/>
       <use xlink:href="#DejaVuSans-34" transform="translate(226.953125 0)"/>
       <use xlink:href="#DejaVuSans-20" transform="translate(290.576172 0)"/>
       <use xlink:href="#DejaVuSans-32" transform="translate(322.363281 0)"/>
       <use xlink:href="#DejaVuSans-32" transform="translate(385.986328 0)"/>
      </g>
     </g>
    </g>
    <g id="xtick_10">
     <g id="line2d_19">
      <path d="M 590.774606 384.48 
L 590.774606 51.84 
" clip-path="url(#pebe19539fb)" style="fill: none; stroke: #b0b0b0; stroke-width: 0.8; stroke-linecap: square"/>
     </g>
     <g id="line2d_20">
      <g>
       <use xlink:href="#md77f685213" x="590.774606" y="384.48" style="stroke: #000000; stroke-width: 0.8"/>
      </g>
     </g>
     <g id="text_10">
      <!-- 01-14 23 -->
      <g transform="translate(568.294137 399.078438) scale(0.1 -0.1)">
       <defs>
        <path id="DejaVuSans-33" d="M 2597 2516 
Q 3050 2419 3304 2112 
Q 3559 1806 3559 1356 
Q 3559 666 3084 287 
Q 2609 -91 1734 -91 
Q 1441 -91 1130 -33 
Q 819 25 488 141 
L 488 750 
Q 750 597 1062 519 
Q 1375 441 1716 441 
Q 2309 441 2620 675 
Q 2931 909 2931 1356 
Q 2931 1769 2642 2001 
Q 2353 2234 1838 2234 
L 1294 2234 
L 1294 2753 
L 1863 2753 
Q 2328 2753 2575 2939 
Q 2822 3125 2822 3475 
Q 2822 3834 2567 4026 
Q 2313 4219 1838 4219 
Q 1578 4219 1281 4162 
Q 984 4106 628 3988 
L 628 4550 
Q 988 4650 1302 4700 
Q 1616 4750 1894 4750 
Q 2613 4750 3031 4423 
Q 3450 4097 3450 3541 
Q 3450 3153 3228 2886 
Q 3006 2619 2597 2516 
z
" transform="scale(0.015625)"/>
       </defs>
       <use xlink:href="#DejaVuSans-30"/>
       <use xlink:href="#DejaVuSans-31" transform="translate(63.623047 0)"/>
       <use xlink:href="#DejaVuSans-2d" transform="translate(127.246094 0)"/>
       <use xlink:href="#DejaVuSans-31" transform="translate(163.330078 0)"/>
       <use xlink:href="#DejaVuSans-34" transform="translate(226.953125 0)"/>
       <use xlink:href="#DejaVuSans-20" transform="translate(290.576172 0)"/>
       <use xlink:href="#DejaVuSans-32" transform="translate(322.363281 0)"/>
       <use xlink:href="#DejaVuSans-33" transform="translate(385.986328 0)"/>
      </g>
     </g>
    </g>
    <g id="xtick_11">
     <g id="line2d_21">
      <path d="M 641.082645 384.48 
L 641.082645 51.84 
" clip-path="url(#pebe19539fb)" style="fill: none; stroke: #b0b0b0; stroke-width: 0.8; stroke-linecap: square"/>
     </g>
     <g id="line2d_22">
      <g>
       <use xlink:href="#md77f685213" x="641.082645" y="384.48" style="stroke: #000000; stroke-width: 0.8"/>
      </g>
     </g>
     <g id="text_11">
      <!-- 01-15 00 -->
      <g transform="translate(618.602176 399.078438) scale(0.1 -0.1)">
       <use xlink:href="#DejaVuSans-30"/>
       <use xlink:href="#DejaVuSans-31" transform="translate(63.623047 0)"/>
       <use xlink:href="#DejaVuSans-2d" transform="translate(127.246094 0)"/>
       <use xlink:href="#DejaVuSans-31" transform="translate(163.330078 0)"/>
       <use xlink:href="#DejaVuSans-35" transform="translate(226.953125 0)"/>
       <use xlink:href="#DejaVuSans-20" transform="translate(290.576172 0)"/>
       <use xlink:href="#DejaVuSans-30" transform="translate(322.363281 0)"/>
       <use xlink:href="#DejaVuSans-30" transform="translate(385.986328 0)"/>
      </g>
     </g>
    </g>
    <g id="text_12">
     <!-- Date and Time -->
     <g transform="translate(332.230469 412.756563) scale(0.1 -0.1)">
      <defs>
       <path id="DejaVuSans-44" d="M 1259 4147 
L 1259 519 
L 2022 519 
Q 2988 519 3436 956 
Q 3884 1394 3884 2338 
Q 3884 3275 3436 3711 
Q 2988 4147 2022 4147 
L 1259 4147 
z
M 628 4666 
L 1925 4666 
Q 3281 4666 3915 4102 
Q 4550 3538 4550 2338 
Q 4550 1131 3912 565 
Q 3275 0 1925 0 
L 628 0 
L 628 4666 
z
" transform="scale(0.015625)"/>
       <path id="DejaVuSans-61" d="M 2194 1759 
Q 1497 1759 1228 1600 
Q 959 1441 959 1056 
Q 959 750 1161 570 
Q 1363 391 1709 391 
Q 2188 391 2477 730 
Q 2766 1069 2766 1631 
L 2766 1759 
L 2194 1759 
z
M 3341 1997 
L 3341 0 
L 2766 0 
L 2766 531 
Q 2569 213 2275 61 
Q 1981 -91 1556 -91 
Q 1019 -91 701 211 
Q 384 513 384 1019 
Q 384 1609 779 1909 
Q 1175 2209 1959 2209 
L 2766 2209 
L 2766 2266 
Q 2766 2663 2505 2880 
Q 2244 3097 1772 3097 
Q 1472 3097 1187 3025 
Q 903 2953 641 2809 
L 641 3341 
Q 956 3463 1253 3523 
Q 1550 3584 1831 3584 
Q 2591 3584 2966 3190 
Q 3341 2797 3341 1997 
z
" transform="scale(0.015625)"/>
       <path id="DejaVuSans-74" d="M 1172 4494 
L 1172 3500 
L 2356 3500 
L 2356 3053 
L 1172 3053 
L 1172 1153 
Q 1172 725 1289 603 
Q 1406 481 1766 481 
L 2356 481 
L 2356 0 
L 1766 0 
Q 1100 0 847 248 
Q 594 497 594 1153 
L 594 3053 
L 172 3053 
L 172 3500 
L 594 3500 
L 594 4494 
L 1172 4494 
z
" transform="scale(0.015625)"/>
       <path id="DejaVuSans-65" d="M 3597 1894 
L 3597 1613 
L 953 1613 
Q 991 1019 1311 708 
Q 1631 397 2203 397 
Q 2534 397 2845 478 
Q 3156 559 3463 722 
L 3463 178 
Q 3153 47 2828 -22 
Q 2503 -91 2169 -91 
Q 1331 -91 842 396 
Q 353 884 353 1716 
Q 353 2575 817 3079 
Q 1281 3584 2069 3584 
Q 2775 3584 3186 3129 
Q 3597 2675 3597 1894 
z
M 3022 2063 
Q 3016 2534 2758 2815 
Q 2500 3097 2075 3097 
Q 1594 3097 1305 2825 
Q 1016 2553 972 2059 
L 3022 2063 
z
" transform="scale(0.015625)"/>
       <path id="DejaVuSans-6e" d="M 3513 2113 
L 3513 0 
L 2938 0 
L 2938 2094 
Q 2938 2591 2744 2837 
Q 2550 3084 2163 3084 
Q 1697 3084 1428 2787 
Q 1159 2491 1159 1978 
L 1159 0 
L 581 0 
L 581 3500 
L 1159 3500 
L 1159 2956 
Q 1366 3272 1645 3428 
Q 1925 3584 2291 3584 
Q 2894 3584 3203 3211 
Q 3513 2838 3513 2113 
z
" transform="scale(0.015625)"/>
       <path id="DejaVuSans-64" d="M 2906 2969 
L 2906 4863 
L 3481 4863 
L 3481 0 
L 2906 0 
L 2906 525 
Q 2725 213 2448 61 
Q 2172 -91 1784 -91 
Q 1150 -91 751 415 
Q 353 922 353 1747 
Q 353 2572 751 3078 
Q 1150 3584 1784 3584 
Q 2172 3584 2448 3432 
Q 2725 3281 2906 2969 
z
M 947 1747 
Q 947 1113 1208 752 
Q 1469 391 1925 391 
Q 2381 391 2643 752 
Q 2906 1113 2906 1747 
Q 2906 2381 2643 2742 
Q 2381 3103 1925 3103 
Q 1469 3103 1208 2742 
Q 947 2381 947 1747 
z
" transform="scale(0.015625)"/>
       <path id="DejaVuSans-54" d="M -19 4666 
L 3928 4666 
L 3928 4134 
L 2272 4134 
L 2272 0 
L 1638 0 
L 1638 4134 
L -19 4134 
L -19 4666 
z
" transform="scale(0.015625)"/>
       <path id="DejaVuSans-69" d="M 603 3500 
L 1178 3500 
L 1178 0 
L 603 0 
L 603 3500 
z
M 603 4863 
L 1178 4863 
L 1178 4134 
L 603 4134 
L 603 4863 
z
" transform="scale(0.015625)"/>
       <path id="DejaVuSans-6d" d="M 3328 2828 
Q 3544 3216 3844 3400 
Q 4144 3584 4550 3584 
Q 5097 3584 5394 3201 
Q 5691 2819 5691 2113 
L 5691 0 
L 5113 0 
L 5113 2094 
Q 5113 2597 4934 2840 
Q 4756 3084 4391 3084 
Q 3944 3084 3684 2787 
Q 3425 2491 3425 1978 
L 3425 0 
L 2847 0 
L 2847 2094 
Q 2847 2600 2669 2842 
Q 2491 3084 2119 3084 
Q 1678 3084 1418 2786 
Q 1159 2488 1159 1978 
L 1159 0 
L 581 0 
L 581 3500 
L 1159 3500 
L 1159 2956 
Q 1356 3278 1631 3431 
Q 1906 3584 2284 3584 
Q 2666 3584 2933 3390 
Q 3200 3197 3328 2828 
z
" transform="scale(0.015625)"/>
      </defs>
      <use xlink:href="#DejaVuSans-44"/>
      <use xlink:href="#DejaVuSans-61" transform="translate(77.001953 0)"/>
      <use xlink:href="#DejaVuSans-74" transform="translate(138.28125 0)"/>
      <use xlink:href="#DejaVuSans-65" transform="translate(177.490234 0)"/>
      <use xlink:href="#DejaVuSans-20" transform="translate(239.013672 0)"/>
      <use xlink:href="#DejaVuSans-61" transform="translate(270.800781 0)"/>
      <use xlink:href="#DejaVuSans-6e" transform="translate(332.080078 0)"/>
      <use xlink:href="#DejaVuSans-64" transform="translate(395.458984 0)"/>
      <use xlink:href="#DejaVuSans-20" transform="translate(458.935547 0)"/>
      <use xlink:href="#DejaVuSans-54" transform="translate(490.722656 0)"/>
      <use xlink:href="#DejaVuSans-69" transform="translate(548.681641 0)"/>
      <use xlink:href="#DejaVuSans-6d" transform="translate(576.464844 0)"/>
      <use xlink:href="#DejaVuSans-65" transform="translate(673.876953 0)"/>
     </g>
    </g>
   </g>
   <g id="matplotlib.axis_2">
    <g id="ytick_1">
     <g id="line2d_23">
      <path d="M 90 370.305 
L 648 370.305 
" clip-path="url(#pebe19539fb)" style="fill: none; stroke: #b0b0b0; stroke-width: 0.8; stroke-linecap: square"/>
     </g>
     <g id="line2d_24">
      <defs>
       <path id="md7fb7c0bc0" d="M 0 0 
L -3.5 0 
" style="stroke: #000000; stroke-width: 0.8"/>
      </defs>
      <g>
       <use xlink:href="#md7fb7c0bc0" x="90" y="370.305" style="stroke: #000000; stroke-width: 0.8"/>
      </g>
     </g>
     <g id="text_13">
      <!-- 0 -->
      <g transform="translate(76.6375 374.104219) scale(0.1 -0.1)">
       <use xlink:href="#DejaVuSans-30"/>
      </g>
     </g>
    </g>
    <g id="ytick_2">
     <g id="line2d_25">
      <path d="M 90 323.055 
L 648 323.055 
" clip-path="url(#pebe19539fb)" style="fill: none; stroke: #b0b0b0; stroke-width: 0.8; stroke-linecap: square"/>
     </g>
     <g id="line2d_26">
      <g>
       <use xlink:href="#md7fb7c0bc0" x="90" y="323.055" style="stroke: #000000; stroke-width: 0.8"/>
      </g>
     </g>
     <g id="text_14">
      <!-- 50 -->
      <g transform="translate(70.275 326.854219) scale(0.1 -0.1)">
       <use xlink:href="#DejaVuSans-35"/>
       <use xlink:href="#DejaVuSans-30" transform="translate(63.623047 0)"/>
      </g>
     </g>
    </g>
    <g id="ytick_3">
     <g id="line2d_27">
      <path d="M 90 275.805 
L 648 275.805 
" clip-path="url(#pebe19539fb)" style="fill: none; stroke: #b0b0b0; stroke-width: 0.8; stroke-linecap: square"/>
     </g>
     <g id="line2d_28">
      <g>
       <use xlink:href="#md7fb7c0bc0" x="90" y="275.805" style="stroke: #000000; stroke-width: 0.8"/>
      </g>
     </g>
     <g id="text_15">
      <!-- 100 -->
      <g transform="translate(63.9125 279.604219) scale(0.1 -0.1)">
       <use xlink:href="#DejaVuSans-31"/>
       <use xlink:href="#DejaVuSans-30" transform="translate(63.623047 0)"/>
       <use xlink:href="#DejaVuSans-30" transform="translate(127.246094 0)"/>
      </g>
     </g>
    </g>
    <g id="ytick_4">
     <g id="line2d_29">
      <path d="M 90 228.555 
L 648 228.555 
" clip-path="url(#pebe19539fb)" style="fill: none; stroke: #b0b0b0; stroke-width: 0.8; stroke-linecap: square"/>
     </g>
     <g id="line2d_30">
      <g>
       <use xlink:href="#md7fb7c0bc0" x="90" y="228.555" style="stroke: #000000; stroke-width: 0.8"/>
      </g>
     </g>
     <g id="text_16">
      <!-- 150 -->
      <g transform="translate(63.9125 232.354219) scale(0.1 -0.1)">
       <use xlink:href="#DejaVuSans-31"/>
       <use xlink:href="#DejaVuSans-35" transform="translate(63.623047 0)"/>
       <use xlink:href="#DejaVuSans-30" transform="translate(127.246094 0)"/>
      </g>
     </g>
    </g>
    <g id="ytick_5">
     <g id="line2d_31">
      <path d="M 90 181.305 
L 648 181.305 
" clip-path="url(#pebe19539fb)" style="fill: none; stroke: #b0b0b0; stroke-width: 0.8; stroke-linecap: square"/>
     </g>
     <g id="line2d_32">
      <g>
       <use xlink:href="#md7fb7c0bc0" x="90" y="181.305" style="stroke: #000000; stroke-width: 0.8"/>
      </g>
     </g>
     <g id="text_17">
      <!-- 200 -->
      <g transform="translate(63.9125 185.104219) scale(0.1 -0.1)">
       <use xlink:href="#DejaVuSans-32"/>
       <use xlink:href="#DejaVuSans-30" transform="translate(63.623047 0)"/>
       <use xlink:href="#DejaVuSans-30" transform="translate(127.246094 0)"/>
      </g>
     </g>
    </g>
    <g id="ytick_6">
     <g id="line2d_33">
      <path d="M 90 134.055 
L 648 134.055 
" clip-path="url(#pebe19539fb)" style="fill: none; stroke: #b0b0b0; stroke-width: 0.8; stroke-linecap: square"/>
     </g>
     <g id="line2d_34">
      <g>
       <use xlink:href="#md7fb7c0bc0" x="90" y="134.055" style="stroke: #000000; stroke-width: 0.8"/>
      </g>
     </g>
     <g id="text_18">
      <!-- 250 -->
      <g transform="translate(63.9125 137.854219) scale(0.1 -0.1)">
       <use xlink:href="#DejaVuSans-32"/>
       <use xlink:href="#DejaVuSans-35" transform="translate(63.623047 0)"/>
       <use xlink:href="#DejaVuSans-30" transform="translate(127.246094 0)"/>
      </g>
     </g>
    </g>
    <g id="ytick_7">
     <g id="line2d_35">
      <path d="M 90 86.805 
L 648 86.805 
" clip-path="url(#pebe19539fb)" style="fill: none; stroke: #b0b0b0; stroke-width: 0.8; stroke-linecap: square"/>
     </g>
     <g id="line2d_36">
      <g>
       <use xlink:href="#md7fb7c0bc0" x="90" y="86.805" style="stroke: #000000; stroke-width: 0.8"/>
      </g>
     </g>
     <g id="text_19">
      <!-- 300 -->
      <g transform="translate(63.9125 90.604219) scale(0.1 -0.1)">
       <use xlink:href="#DejaVuSans-33"/>
       <use xlink:href="#DejaVuSans-30" transform="translate(63.623047 0)"/>
       <use xlink:href="#DejaVuSans-30" transform="translate(127.246094 0)"/>
      </g>
     </g>
    </g>
    <g id="text_20">
     <!-- Votes -->
     <g transform="translate(57.832812 231.893594) rotate(-90) scale(0.1 -0.1)">
      <defs>
       <path id="DejaVuSans-56" d="M 1831 0 
L 50 4666 
L 709 4666 
L 2188 738 
L 3669 4666 
L 4325 4666 
L 2547 0 
L 1831 0 
z
" transform="scale(0.015625)"/>
       <path id="DejaVuSans-6f" d="M 1959 3097 
Q 1497 3097 1228 2736 
Q 959 2375 959 1747 
Q 959 1119 1226 758 
Q 1494 397 1959 397 
Q 2419 397 2687 759 
Q 2956 1122 2956 1747 
Q 2956 2369 2687 2733 
Q 2419 3097 1959 3097 
z
M 1959 3584 
Q 2709 3584 3137 3096 
Q 3566 2609 3566 1747 
Q 3566 888 3137 398 
Q 2709 -91 1959 -91 
Q 1206 -91 779 398 
Q 353 888 353 1747 
Q 353 2609 779 3096 
Q 1206 3584 1959 3584 
z
" transform="scale(0.015625)"/>
       <path id="DejaVuSans-73" d="M 2834 3397 
L 2834 2853 
Q 2591 2978 2328 3040 
Q 2066 3103 1784 3103 
Q 1356 3103 1142 2972 
Q 928 2841 928 2578 
Q 928 2378 1081 2264 
Q 1234 2150 1697 2047 
L 1894 2003 
Q 2506 1872 2764 1633 
Q 3022 1394 3022 966 
Q 3022 478 2636 193 
Q 2250 -91 1575 -91 
Q 1294 -91 989 -36 
Q 684 19 347 128 
L 347 722 
Q 666 556 975 473 
Q 1284 391 1588 391 
Q 1994 391 2212 530 
Q 2431 669 2431 922 
Q 2431 1156 2273 1281 
Q 2116 1406 1581 1522 
L 1381 1569 
Q 847 1681 609 1914 
Q 372 2147 372 2553 
Q 372 3047 722 3315 
Q 1072 3584 1716 3584 
Q 2034 3584 2315 3537 
Q 2597 3491 2834 3397 
z
" transform="scale(0.015625)"/>
      </defs>
      <use xlink:href="#DejaVuSans-56"/>
      <use xlink:href="#DejaVuSans-6f" transform="translate(60.658203 0)"/>
      <use xlink:href="#DejaVuSans-74" transform="translate(121.839844 0)"/>
      <use xlink:href="#DejaVuSans-65" transform="translate(161.048828 0)"/>
      <use xlink:href="#DejaVuSans-73" transform="translate(222.572266 0)"/>
     </g>
    </g>
   </g>
   <g id="line2d_37">
    <path d="M 115.363636 353.295 
L 123.74831 353.295 
L 124.586777 352.35 
L 132.97145 352.35 
L 133.809917 350.46 
L 141.356123 350.46 
L 142.194591 349.515 
L 146.386927 349.515 
L 147.225394 348.57 
L 150.579264 348.57 
L 151.417731 347.625 
L 153.933133 347.625 
L 154.7716 346.68 
L 166.510143 346.68 
L 167.34861 345.735 
L 176.571751 345.735 
L 178.248685 343.845 
L 179.92562 343.845 
L 180.764087 342.9 
L 188.310293 342.9 
L 189.987228 341.01 
L 200.048835 341.01 
L 200.887303 340.065 
L 203.402705 340.065 
L 204.241172 339.12 
L 205.079639 339.12 
L 205.918107 338.175 
L 228.556724 338.175 
L 229.395192 337.23 
L 239.456799 337.23 
L 240.295267 336.285 
L 246.164538 336.285 
L 247.003005 335.34 
L 247.841473 333.45 
L 248.67994 333.45 
L 250.356875 331.56 
L 263.772352 331.56 
L 264.610819 330.615 
L 269.641623 330.615 
L 270.48009 329.67 
L 273.833959 329.67 
L 274.672427 328.725 
L 283.0571 328.725 
L 283.895567 327.78 
L 285.572502 327.78 
L 286.410969 326.835 
L 288.926371 326.835 
L 289.764838 325.89 
L 296.472577 325.89 
L 297.311044 324.945 
L 298.149512 324.945 
L 298.987979 324 
L 307.372652 324 
L 308.211119 323.055 
L 314.080391 323.055 
L 314.918858 322.11 
L 315.757325 322.11 
L 317.43426 320.22 
L 335.880541 320.22 
L 336.719008 319.275 
L 350.134485 319.275 
L 350.972953 318.33 
L 351.81142 318.33 
L 352.649887 317.385 
L 360.196093 317.385 
L 361.03456 316.44 
L 361.873028 316.44 
L 362.711495 315.495 
L 366.903832 315.495 
L 367.742299 314.55 
L 370.257701 314.55 
L 371.934636 312.66 
L 372.773103 312.66 
L 373.61157 311.715 
L 375.288505 311.715 
L 376.126972 310.77 
L 377.803907 310.77 
L 378.642374 309.825 
L 380.319309 309.825 
L 381.157776 308.88 
L 401.280992 308.88 
L 402.119459 307.935 
L 410.504132 307.935 
L 411.3426 306.99 
L 416.373403 306.99 
L 417.211871 306.045 
L 418.050338 306.045 
L 418.888805 305.1 
L 419.727273 305.1 
L 423.081142 301.32 
L 424.758077 301.32 
L 425.596544 299.43 
L 432.304282 299.43 
L 433.981217 297.54 
L 435.658152 297.54 
L 436.496619 296.595 
L 439.850488 296.595 
L 440.688956 295.65 
L 446.558227 295.65 
L 447.396694 294.705 
L 449.073629 294.705 
L 449.912096 293.76 
L 454.9429 293.76 
L 456.619835 291.87 
L 462.489106 291.87 
L 463.327573 290.925 
L 465.842975 290.925 
L 466.681443 289.98 
L 468.358377 289.98 
L 469.196844 288.09 
L 472.550714 288.09 
L 473.389181 286.2 
L 474.227648 285.255 
L 477.581518 285.255 
L 478.419985 283.365 
L 484.289256 283.365 
L 485.127724 282.42 
L 488.481593 282.42 
L 489.32006 281.475 
L 491.835462 281.475 
L 492.673929 280.53 
L 493.512397 278.64 
L 495.189331 278.64 
L 496.027799 277.695 
L 509.443276 277.695 
L 511.12021 275.805 
L 522.858753 275.805 
L 523.69722 274.86 
L 528.728024 274.86 
L 529.566491 273.915 
L 540.466566 273.915 
L 541.305034 272.97 
L 548.85124 272.97 
L 549.689707 272.025 
L 571.489857 272.025 
L 572.328325 271.08 
L 612.574756 271.08 
L 613.413223 270.135 
L 616.767092 270.135 
L 617.60556 269.19 
L 622.636364 269.19 
L 622.636364 269.19 
" clip-path="url(#pebe19539fb)" style="fill: none; stroke: #1f77b4; stroke-width: 1.5; stroke-linecap: square"/>
   </g>
   <g id="line2d_38">
    <path d="M 115.363636 292.815 
L 116.202104 291.87 
L 118.717506 291.87 
L 119.555973 290.925 
L 120.39444 290.925 
L 121.232908 289.98 
L 122.071375 289.98 
L 123.74831 288.09 
L 124.586777 286.2 
L 125.425244 286.2 
L 127.102179 284.31 
L 127.940646 284.31 
L 128.779113 280.53 
L 129.617581 278.64 
L 130.456048 274.86 
L 131.294515 272.025 
L 133.809917 272.025 
L 134.648385 269.19 
L 135.486852 267.3 
L 137.163787 265.41 
L 138.002254 263.52 
L 139.679189 261.63 
L 140.517656 259.74 
L 143.033058 259.74 
L 143.871525 255.015 
L 144.709992 253.125 
L 145.54846 252.18 
L 146.386927 250.29 
L 147.225394 249.345 
L 148.063862 249.345 
L 148.902329 246.51 
L 149.740796 246.51 
L 150.579264 244.62 
L 151.417731 243.675 
L 152.256198 243.675 
L 153.094666 242.73 
L 154.7716 242.73 
L 155.610068 241.785 
L 157.287002 241.785 
L 158.12547 239.895 
L 158.963937 239.895 
L 159.802404 238.95 
L 163.156273 238.95 
L 163.994741 238.005 
L 166.510143 238.005 
L 167.34861 237.06 
L 168.187077 237.06 
L 169.025545 235.17 
L 169.864012 235.17 
L 170.702479 233.28 
L 171.540947 232.335 
L 174.056349 232.335 
L 174.894816 230.445 
L 175.733283 229.5 
L 176.571751 226.665 
L 178.248685 224.775 
L 184.956424 224.775 
L 185.794891 221.94 
L 186.633358 221.94 
L 188.310293 220.05 
L 189.14876 220.05 
L 191.664162 217.215 
L 193.341097 217.215 
L 194.179564 216.27 
L 195.856499 216.27 
L 198.371901 213.435 
L 200.048835 213.435 
L 200.887303 212.49 
L 205.079639 212.49 
L 205.918107 211.545 
L 207.595041 211.545 
L 208.433509 210.6 
L 218.495116 210.6 
L 219.333584 208.71 
L 221.010518 208.71 
L 222.687453 206.82 
L 223.52592 206.82 
L 224.364388 205.875 
L 229.395192 205.875 
L 231.910594 203.04 
L 232.749061 203.04 
L 233.587528 202.095 
L 234.425995 200.205 
L 235.264463 200.205 
L 236.10293 199.26 
L 236.941397 199.26 
L 240.295267 195.48 
L 241.972201 195.48 
L 242.810669 193.59 
L 245.326071 193.59 
L 246.164538 192.645 
L 248.67994 192.645 
L 249.518407 191.7 
L 250.356875 191.7 
L 251.195342 188.865 
L 253.710744 188.865 
L 254.549211 187.92 
L 255.387678 186.03 
L 257.064613 186.03 
L 257.90308 185.085 
L 259.580015 185.085 
L 260.418482 184.14 
L 261.25695 184.14 
L 265.449286 179.415 
L 267.126221 179.415 
L 269.641623 176.58 
L 272.157025 176.58 
L 272.995492 174.69 
L 273.833959 174.69 
L 274.672427 173.745 
L 277.187829 173.745 
L 278.026296 172.8 
L 285.572502 172.8 
L 286.410969 171.855 
L 292.28024 171.855 
L 293.118708 170.91 
L 294.795642 170.91 
L 296.472577 169.02 
L 300.664914 169.02 
L 301.503381 168.075 
L 305.695718 168.075 
L 308.211119 165.24 
L 319.111195 165.24 
L 319.949662 163.35 
L 320.788129 162.405 
L 340.911345 162.405 
L 341.749812 161.46 
L 346.780616 161.46 
L 348.457551 159.57 
L 350.134485 159.57 
L 350.972953 158.625 
L 351.81142 158.625 
L 353.488355 156.735 
L 354.326822 156.735 
L 355.165289 155.79 
L 356.003757 155.79 
L 357.680691 152.01 
L 358.519159 151.065 
L 362.711495 151.065 
L 363.549962 148.23 
L 364.38843 146.34 
L 366.065364 146.34 
L 367.742299 144.45 
L 371.934636 144.45 
L 373.61157 142.56 
L 375.288505 142.56 
L 376.126972 141.615 
L 377.803907 141.615 
L 378.642374 140.67 
L 379.480841 140.67 
L 380.319309 139.725 
L 381.157776 139.725 
L 381.996243 138.78 
L 382.834711 138.78 
L 383.673178 137.835 
L 385.350113 137.835 
L 386.18858 135.945 
L 390.380917 135.945 
L 392.057851 134.055 
L 400.442524 134.055 
L 401.280992 133.11 
L 402.119459 133.11 
L 402.957926 132.165 
L 403.796394 132.165 
L 406.311796 129.33 
L 407.98873 129.33 
L 408.827198 128.385 
L 425.596544 128.385 
L 427.273479 126.495 
L 430.627348 126.495 
L 431.465815 125.55 
L 432.304282 125.55 
L 433.14275 124.605 
L 433.981217 124.605 
L 434.819684 123.66 
L 453.265965 123.66 
L 454.104433 122.715 
L 470.873779 122.715 
L 471.712246 120.825 
L 477.581518 120.825 
L 479.258452 118.935 
L 480.935387 118.935 
L 481.773854 117.99 
L 483.450789 117.99 
L 485.127724 116.1 
L 486.804658 116.1 
L 487.643125 114.21 
L 494.350864 114.21 
L 495.189331 113.265 
L 499.381668 113.265 
L 500.220135 112.32 
L 505.250939 112.32 
L 506.089406 111.375 
L 511.958678 111.375 
L 513.635612 109.485 
L 514.47408 109.485 
L 515.312547 108.54 
L 520.343351 108.54 
L 521.181818 107.595 
L 524.535687 107.595 
L 525.374155 106.65 
L 526.212622 106.65 
L 527.051089 105.705 
L 539.628099 105.705 
L 542.143501 102.87 
L 551.366642 102.87 
L 552.205109 101.925 
L 555.558978 101.925 
L 556.397446 100.035 
L 565.620586 100.035 
L 566.459053 98.145 
L 578.197596 98.145 
L 579.036063 97.2 
L 591.613073 97.2 
L 592.45154 95.31 
L 601.674681 95.31 
L 602.513148 94.365 
L 609.220887 94.365 
L 610.059354 93.42 
L 622.636364 93.42 
L 622.636364 93.42 
" clip-path="url(#pebe19539fb)" style="fill: none; stroke: #ff7f0e; stroke-width: 1.5; stroke-linecap: square"/>
   </g>
   <g id="line2d_39">
    <path d="M 115.363636 341.01 
L 118.717506 341.01 
L 119.555973 339.12 
L 121.232908 339.12 
L 122.071375 338.175 
L 122.909842 336.285 
L 123.74831 335.34 
L 124.586777 332.505 
L 125.425244 330.615 
L 126.263711 329.67 
L 127.102179 329.67 
L 127.940646 327.78 
L 128.779113 324.945 
L 132.132983 324.945 
L 132.97145 324 
L 133.809917 324 
L 134.648385 322.11 
L 137.163787 322.11 
L 138.840721 320.22 
L 142.194591 320.22 
L 143.033058 319.275 
L 146.386927 319.275 
L 148.902329 316.44 
L 153.094666 316.44 
L 153.933133 315.495 
L 156.448535 315.495 
L 157.287002 314.55 
L 158.963937 314.55 
L 159.802404 312.66 
L 166.510143 312.66 
L 167.34861 311.715 
L 168.187077 309.825 
L 169.025545 308.88 
L 169.864012 308.88 
L 170.702479 307.935 
L 172.379414 307.935 
L 173.217881 306.99 
L 174.894816 306.99 
L 175.733283 306.045 
L 180.764087 306.045 
L 181.602554 305.1 
L 182.441022 305.1 
L 183.279489 304.155 
L 184.117956 304.155 
L 184.956424 303.21 
L 187.471826 303.21 
L 188.310293 302.265 
L 189.14876 300.375 
L 193.341097 300.375 
L 195.856499 297.54 
L 198.371901 297.54 
L 199.210368 296.595 
L 202.564237 296.595 
L 203.402705 295.65 
L 204.241172 295.65 
L 205.079639 294.705 
L 206.756574 294.705 
L 207.595041 293.76 
L 210.110443 293.76 
L 211.787378 291.87 
L 212.625845 291.87 
L 213.464313 290.925 
L 220.172051 290.925 
L 221.010518 289.035 
L 221.848986 288.09 
L 228.556724 288.09 
L 229.395192 287.145 
L 231.910594 287.145 
L 232.749061 286.2 
L 235.264463 286.2 
L 236.10293 285.255 
L 244.487603 285.255 
L 245.326071 284.31 
L 248.67994 284.31 
L 249.518407 283.365 
L 254.549211 283.365 
L 255.387678 282.42 
L 257.064613 282.42 
L 257.90308 281.475 
L 261.25695 281.475 
L 262.933884 279.585 
L 278.864763 279.585 
L 279.703231 278.64 
L 280.541698 278.64 
L 281.380165 277.695 
L 283.895567 277.695 
L 284.734035 276.75 
L 288.926371 276.75 
L 289.764838 275.805 
L 291.441773 275.805 
L 292.28024 274.86 
L 297.311044 274.86 
L 298.149512 275.805 
L 298.987979 274.86 
L 304.85725 274.86 
L 305.695718 273.915 
L 312.403456 273.915 
L 313.241923 272.97 
L 314.918858 272.97 
L 315.757325 272.025 
L 316.595793 272.025 
L 317.43426 271.08 
L 323.303531 271.08 
L 324.141998 270.135 
L 329.172802 270.135 
L 330.01127 269.19 
L 342.588279 269.19 
L 343.426747 268.245 
L 361.873028 268.245 
L 362.711495 267.3 
L 371.096168 267.3 
L 371.934636 266.355 
L 385.350113 266.355 
L 387.027047 264.465 
L 402.119459 264.465 
L 402.957926 263.52 
L 403.796394 261.63 
L 420.56574 261.63 
L 421.404207 260.685 
L 423.081142 260.685 
L 423.919609 259.74 
L 428.950413 259.74 
L 429.788881 258.795 
L 432.304282 258.795 
L 433.981217 256.905 
L 435.658152 256.905 
L 436.496619 255.96 
L 439.850488 255.96 
L 440.688956 254.07 
L 443.204358 254.07 
L 444.042825 253.125 
L 444.881292 253.125 
L 446.558227 251.235 
L 457.458302 251.235 
L 458.296769 250.29 
L 468.358377 250.29 
L 469.196844 248.4 
L 475.904583 248.4 
L 477.581518 246.51 
L 485.966191 246.51 
L 488.481593 243.675 
L 490.996995 243.675 
L 491.835462 242.73 
L 493.512397 242.73 
L 494.350864 241.785 
L 501.89707 241.785 
L 502.735537 240.84 
L 510.281743 240.84 
L 511.12021 239.895 
L 516.989482 239.895 
L 518.666416 238.005 
L 524.535687 238.005 
L 525.374155 237.06 
L 533.758828 237.06 
L 534.597295 236.115 
L 535.435763 236.115 
L 536.27423 235.17 
L 546.335838 235.17 
L 547.174305 234.225 
L 549.689707 234.225 
L 550.528174 233.28 
L 562.266717 233.28 
L 563.105184 232.335 
L 576.520661 232.335 
L 577.359128 230.445 
L 589.936138 230.445 
L 590.774606 228.555 
L 622.636364 228.555 
L 622.636364 228.555 
" clip-path="url(#pebe19539fb)" style="fill: none; stroke: #2ca02c; stroke-width: 1.5; stroke-linecap: square"/>
   </g>
   <g id="line2d_40">
    <path d="M 115.363636 369.36 
L 322.465064 369.36 
L 323.303531 368.415 
L 501.058603 368.415 
L 501.89707 367.47 
L 622.636364 367.47 
L 622.636364 367.47 
" clip-path="url(#pebe19539fb)" style="fill: none; stroke: #d62728; stroke-width: 1.5; stroke-linecap: square"/>
   </g>
   <g id="line2d_41">
    <path d="M 115.363636 348.57 
L 117.879038 348.57 
L 118.717506 347.625 
L 123.74831 347.625 
L 124.586777 346.68 
L 129.617581 346.68 
L 130.456048 345.735 
L 148.902329 345.735 
L 149.740796 344.79 
L 179.92562 344.79 
L 181.602554 342.9 
L 188.310293 342.9 
L 189.14876 341.955 
L 192.50263 341.955 
L 193.341097 341.01 
L 195.018032 341.01 
L 195.856499 340.065 
L 217.656649 340.065 
L 218.495116 339.12 
L 252.872276 339.12 
L 253.710744 338.175 
L 362.711495 338.175 
L 363.549962 337.23 
L 364.38843 337.23 
L 365.226897 336.285 
L 418.050338 336.285 
L 418.888805 335.34 
L 553.043576 335.34 
L 553.882044 334.395 
L 592.45154 334.395 
L 593.290008 333.45 
L 622.636364 333.45 
L 622.636364 333.45 
" clip-path="url(#pebe19539fb)" style="fill: none; stroke: #9467bd; stroke-width: 1.5; stroke-linecap: square"/>
   </g>
   <g id="line2d_42">
    <path d="M 115.363636 356.13 
L 116.202104 356.13 
L 117.040571 355.185 
L 128.779113 355.185 
L 129.617581 354.24 
L 139.679189 354.24 
L 140.517656 353.295 
L 153.094666 353.295 
L 154.7716 351.405 
L 163.994741 351.405 
L 164.833208 350.46 
L 189.987228 350.46 
L 190.825695 349.515 
L 198.371901 349.515 
L 199.210368 348.57 
L 213.464313 348.57 
L 214.30278 347.625 
L 227.718257 347.625 
L 228.556724 346.68 
L 231.910594 346.68 
L 232.749061 345.735 
L 240.295267 345.735 
L 241.133734 344.79 
L 261.25695 344.79 
L 262.095417 343.845 
L 267.126221 343.845 
L 267.964688 342.9 
L 272.995492 342.9 
L 273.833959 341.955 
L 277.187829 341.955 
L 278.026296 341.01 
L 309.049587 341.01 
L 309.888054 340.065 
L 334.203606 340.065 
L 335.042074 339.12 
L 383.673178 339.12 
L 384.511645 338.175 
L 407.98873 338.175 
L 408.827198 337.23 
L 419.727273 337.23 
L 420.56574 336.285 
L 622.636364 336.285 
L 622.636364 336.285 
" clip-path="url(#pebe19539fb)" style="fill: none; stroke: #8c564b; stroke-width: 1.5; stroke-linecap: square"/>
   </g>
   <g id="line2d_43">
    <path d="M 115.363636 286.2 
L 118.717506 286.2 
L 119.555973 285.255 
L 122.909842 285.255 
L 124.586777 283.365 
L 125.425244 283.365 
L 126.263711 282.42 
L 127.102179 282.42 
L 127.940646 281.475 
L 129.617581 281.475 
L 130.456048 280.53 
L 132.97145 280.53 
L 133.809917 279.585 
L 135.486852 279.585 
L 136.325319 278.64 
L 137.163787 278.64 
L 138.002254 277.695 
L 139.679189 277.695 
L 141.356123 275.805 
L 144.709992 275.805 
L 145.54846 274.86 
L 148.063862 274.86 
L 149.740796 272.97 
L 151.417731 272.97 
L 152.256198 272.025 
L 153.933133 272.025 
L 154.7716 271.08 
L 155.610068 269.19 
L 156.448535 266.355 
L 158.12547 266.355 
L 158.963937 265.41 
L 163.156273 265.41 
L 164.833208 263.52 
L 165.671675 261.63 
L 166.510143 260.685 
L 167.34861 260.685 
L 168.187077 258.795 
L 171.540947 258.795 
L 172.379414 257.85 
L 173.217881 257.85 
L 174.894816 255.96 
L 175.733283 255.96 
L 176.571751 255.015 
L 177.410218 255.015 
L 179.087153 253.125 
L 180.764087 253.125 
L 181.602554 251.235 
L 184.956424 251.235 
L 186.633358 249.345 
L 188.310293 249.345 
L 189.14876 248.4 
L 189.987228 246.51 
L 192.50263 246.51 
L 193.341097 245.565 
L 194.179564 245.565 
L 195.018032 243.675 
L 195.856499 243.675 
L 196.694966 242.73 
L 197.533434 242.73 
L 198.371901 241.785 
L 201.72577 241.785 
L 203.402705 239.895 
L 204.241172 239.895 
L 205.079639 238.005 
L 205.918107 238.005 
L 206.756574 237.06 
L 207.595041 237.06 
L 208.433509 236.115 
L 210.948911 236.115 
L 211.787378 235.17 
L 212.625845 235.17 
L 215.979714 231.39 
L 216.818182 229.5 
L 218.495116 229.5 
L 220.172051 225.72 
L 221.848986 225.72 
L 223.52592 223.83 
L 224.364388 223.83 
L 225.202855 221.94 
L 226.041322 221.94 
L 226.87979 220.995 
L 227.718257 220.995 
L 228.556724 220.05 
L 230.233659 220.05 
L 231.072126 219.105 
L 231.910594 219.105 
L 232.749061 218.16 
L 236.10293 218.16 
L 236.941397 213.435 
L 237.779865 213.435 
L 238.618332 212.49 
L 241.133734 212.49 
L 241.972201 211.545 
L 249.518407 211.545 
L 250.356875 209.655 
L 253.710744 209.655 
L 254.549211 208.71 
L 262.933884 208.71 
L 263.772352 206.82 
L 264.610819 205.875 
L 268.803156 205.875 
L 269.641623 204.93 
L 275.510894 204.93 
L 276.349361 203.985 
L 277.187829 203.985 
L 278.026296 203.04 
L 283.0571 203.04 
L 284.734035 201.15 
L 290.603306 201.15 
L 292.28024 199.26 
L 293.118708 199.26 
L 293.957175 198.315 
L 298.987979 198.315 
L 299.826446 197.37 
L 302.341848 197.37 
L 303.180316 196.425 
L 304.018783 194.535 
L 306.534185 194.535 
L 307.372652 193.59 
L 308.211119 193.59 
L 309.888054 191.7 
L 313.241923 191.7 
L 314.080391 190.755 
L 317.43426 190.755 
L 318.272727 189.81 
L 320.788129 189.81 
L 321.626597 188.865 
L 328.334335 188.865 
L 330.01127 186.975 
L 334.203606 186.975 
L 335.042074 186.03 
L 338.395943 186.03 
L 342.588279 181.305 
L 344.265214 181.305 
L 345.103681 180.36 
L 345.942149 180.36 
L 346.780616 178.47 
L 348.457551 176.58 
L 350.134485 172.8 
L 351.81142 172.8 
L 353.488355 169.02 
L 355.165289 169.02 
L 356.003757 167.13 
L 357.680691 165.24 
L 360.196093 165.24 
L 361.03456 164.295 
L 361.873028 164.295 
L 363.549962 162.405 
L 366.903832 162.405 
L 367.742299 161.46 
L 369.419234 161.46 
L 370.257701 160.515 
L 374.450038 160.515 
L 375.288505 158.625 
L 376.126972 157.68 
L 376.96544 157.68 
L 377.803907 156.735 
L 379.480841 156.735 
L 380.319309 155.79 
L 381.996243 155.79 
L 382.834711 153.9 
L 384.511645 153.9 
L 385.350113 152.955 
L 386.18858 152.955 
L 387.027047 152.01 
L 391.219384 152.01 
L 392.057851 151.065 
L 396.250188 151.065 
L 397.088655 150.12 
L 397.927122 150.12 
L 398.76559 148.23 
L 400.442524 146.34 
L 401.280992 143.505 
L 402.119459 142.56 
L 402.957926 142.56 
L 403.796394 141.615 
L 404.634861 141.615 
L 405.473328 140.67 
L 408.827198 140.67 
L 409.665665 139.725 
L 411.3426 139.725 
L 412.181067 138.78 
L 413.858002 138.78 
L 415.534936 136.89 
L 418.050338 136.89 
L 418.888805 135.945 
L 423.081142 135.945 
L 423.919609 134.055 
L 428.111946 134.055 
L 428.950413 133.11 
L 431.465815 133.11 
L 432.304282 131.22 
L 435.658152 131.22 
L 436.496619 130.275 
L 444.042825 130.275 
L 444.881292 129.33 
L 446.558227 129.33 
L 447.396694 128.385 
L 453.265965 128.385 
L 454.104433 127.44 
L 454.9429 127.44 
L 455.781367 126.495 
L 456.619835 126.495 
L 457.458302 125.55 
L 462.489106 125.55 
L 464.166041 123.66 
L 475.904583 123.66 
L 476.74305 122.715 
L 477.581518 122.715 
L 479.258452 120.825 
L 480.09692 120.825 
L 480.935387 119.88 
L 490.996995 119.88 
L 491.835462 118.935 
L 492.673929 117.045 
L 494.350864 117.045 
L 495.189331 116.1 
L 499.381668 116.1 
L 500.220135 115.155 
L 501.058603 115.155 
L 502.735537 113.265 
L 506.927874 113.265 
L 507.766341 112.32 
L 510.281743 112.32 
L 511.12021 111.375 
L 512.797145 111.375 
L 513.635612 110.43 
L 515.312547 110.43 
L 516.151014 109.485 
L 516.989482 109.485 
L 517.827949 107.595 
L 523.69722 107.595 
L 524.535687 104.76 
L 525.374155 102.87 
L 526.212622 102.87 
L 529.566491 99.09 
L 530.404959 97.2 
L 532.081893 97.2 
L 532.920361 95.31 
L 539.628099 95.31 
L 541.305034 93.42 
L 542.143501 91.53 
L 542.981968 90.585 
L 545.49737 90.585 
L 546.335838 88.695 
L 547.174305 87.75 
L 548.012772 87.75 
L 548.85124 84.915 
L 549.689707 83.97 
L 553.882044 83.97 
L 554.720511 82.08 
L 555.558978 82.08 
L 556.397446 81.135 
L 558.912847 81.135 
L 559.751315 79.245 
L 561.428249 79.245 
L 562.266717 78.3 
L 563.105184 78.3 
L 563.943651 77.355 
L 564.782119 74.52 
L 566.459053 74.52 
L 568.135988 72.63 
L 578.197596 72.63 
L 579.036063 71.685 
L 579.87453 71.685 
L 581.551465 69.795 
L 587.420736 69.795 
L 588.259204 68.85 
L 603.351615 68.85 
L 604.190083 67.905 
L 613.413223 67.905 
L 614.25169 66.96 
L 622.636364 66.96 
L 622.636364 66.96 
" clip-path="url(#pebe19539fb)" style="fill: none; stroke: #e377c2; stroke-width: 1.5; stroke-linecap: square"/>
   </g>
   <g id="line2d_44">
    <path d="M 115.363636 344.79 
L 116.202104 344.79 
L 117.879038 342.9 
L 122.071375 342.9 
L 122.909842 341.955 
L 123.74831 341.955 
L 125.425244 340.065 
L 127.102179 340.065 
L 127.940646 339.12 
L 130.456048 339.12 
L 131.294515 338.175 
L 132.132983 338.175 
L 132.97145 337.23 
L 133.809917 337.23 
L 135.486852 335.34 
L 138.002254 335.34 
L 138.840721 334.395 
L 140.517656 334.395 
L 142.194591 332.505 
L 143.871525 332.505 
L 145.54846 330.615 
L 146.386927 330.615 
L 147.225394 329.67 
L 148.063862 326.835 
L 151.417731 326.835 
L 154.7716 323.055 
L 155.610068 323.055 
L 157.287002 321.165 
L 158.12547 321.165 
L 158.963937 320.22 
L 159.802404 320.22 
L 160.640872 319.275 
L 168.187077 319.275 
L 169.025545 318.33 
L 177.410218 318.33 
L 179.087153 316.44 
L 181.602554 316.44 
L 182.441022 315.495 
L 184.117956 315.495 
L 185.794891 313.605 
L 187.471826 313.605 
L 188.310293 311.715 
L 190.825695 311.715 
L 191.664162 309.825 
L 192.50263 308.88 
L 196.694966 308.88 
L 197.533434 307.935 
L 198.371901 307.935 
L 200.048835 306.045 
L 204.241172 306.045 
L 205.079639 305.1 
L 205.918107 305.1 
L 206.756574 304.155 
L 211.787378 304.155 
L 212.625845 303.21 
L 215.141247 303.21 
L 215.979714 302.265 
L 216.818182 302.265 
L 217.656649 299.43 
L 218.495116 299.43 
L 219.333584 297.54 
L 220.172051 296.595 
L 221.010518 296.595 
L 222.687453 294.705 
L 224.364388 294.705 
L 225.202855 293.76 
L 226.87979 293.76 
L 227.718257 292.815 
L 228.556724 292.815 
L 229.395192 290.925 
L 230.233659 290.925 
L 231.072126 289.98 
L 232.749061 289.98 
L 234.425995 288.09 
L 235.264463 288.09 
L 236.10293 286.2 
L 236.941397 285.255 
L 242.810669 285.255 
L 243.649136 283.365 
L 246.164538 283.365 
L 247.003005 282.42 
L 247.841473 282.42 
L 248.67994 281.475 
L 251.195342 281.475 
L 252.033809 280.53 
L 256.226146 280.53 
L 257.064613 279.585 
L 258.741548 279.585 
L 259.580015 278.64 
L 263.772352 278.64 
L 264.610819 277.695 
L 272.157025 277.695 
L 273.833959 275.805 
L 274.672427 275.805 
L 275.510894 274.86 
L 276.349361 274.86 
L 277.187829 273.915 
L 278.026296 273.915 
L 278.864763 272.97 
L 280.541698 272.97 
L 281.380165 272.025 
L 282.218633 272.025 
L 283.895567 270.135 
L 286.410969 270.135 
L 287.249437 269.19 
L 289.764838 269.19 
L 290.603306 268.245 
L 296.472577 268.245 
L 297.311044 267.3 
L 298.149512 267.3 
L 298.987979 266.355 
L 302.341848 266.355 
L 303.180316 264.465 
L 308.211119 264.465 
L 309.049587 263.52 
L 309.888054 263.52 
L 310.726521 261.63 
L 314.918858 261.63 
L 315.757325 260.685 
L 320.788129 260.685 
L 321.626597 259.74 
L 332.526672 259.74 
L 333.365139 258.795 
L 345.942149 258.795 
L 346.780616 257.85 
L 350.972953 257.85 
L 351.81142 256.905 
L 352.649887 256.905 
L 353.488355 255.96 
L 354.326822 255.96 
L 355.165289 254.07 
L 356.003757 254.07 
L 357.680691 252.18 
L 363.549962 252.18 
L 364.38843 251.235 
L 365.226897 251.235 
L 366.065364 250.29 
L 366.903832 250.29 
L 367.742299 249.345 
L 371.934636 249.345 
L 372.773103 248.4 
L 380.319309 248.4 
L 381.157776 247.455 
L 385.350113 247.455 
L 386.18858 246.51 
L 390.380917 246.51 
L 391.219384 245.565 
L 392.896319 245.565 
L 395.411721 242.73 
L 397.088655 242.73 
L 397.927122 240.84 
L 402.119459 240.84 
L 403.796394 238.95 
L 405.473328 238.95 
L 406.311796 238.005 
L 407.150263 238.005 
L 408.827198 236.115 
L 414.696469 236.115 
L 415.534936 235.17 
L 417.211871 235.17 
L 418.050338 234.225 
L 424.758077 234.225 
L 426.435011 232.335 
L 428.950413 232.335 
L 429.788881 231.39 
L 430.627348 231.39 
L 431.465815 228.555 
L 432.304282 227.61 
L 435.658152 227.61 
L 436.496619 225.72 
L 439.012021 225.72 
L 439.850488 224.775 
L 448.235162 224.775 
L 449.073629 223.83 
L 457.458302 223.83 
L 459.135237 221.94 
L 465.004508 221.94 
L 465.842975 220.995 
L 480.09692 220.995 
L 483.450789 217.215 
L 486.804658 217.215 
L 487.643125 216.27 
L 494.350864 216.27 
L 495.189331 215.325 
L 497.704733 215.325 
L 498.543201 214.38 
L 499.381668 214.38 
L 500.220135 213.435 
L 505.250939 213.435 
L 506.927874 211.545 
L 508.604808 211.545 
L 509.443276 210.6 
L 513.635612 210.6 
L 514.47408 209.655 
L 515.312547 209.655 
L 516.151014 207.765 
L 525.374155 207.765 
L 527.051089 205.875 
L 529.566491 205.875 
L 530.404959 204.93 
L 534.597295 204.93 
L 535.435763 203.985 
L 541.305034 203.985 
L 542.143501 203.04 
L 555.558978 203.04 
L 556.397446 202.095 
L 557.235913 202.095 
L 558.07438 200.205 
L 587.420736 200.205 
L 588.259204 198.315 
L 591.613073 198.315 
L 592.45154 197.37 
L 594.966942 197.37 
L 595.805409 196.425 
L 622.636364 196.425 
L 622.636364 196.425 
" clip-path="url(#pebe19539fb)" style="fill: none; stroke: #7f7f7f; stroke-width: 1.5; stroke-linecap: square"/>
   </g>
   <g id="line2d_45">
    <path d="M 115.363636 350.46 
L 118.717506 350.46 
L 119.555973 349.515 
L 127.940646 349.515 
L 128.779113 348.57 
L 132.97145 348.57 
L 133.809917 347.625 
L 142.194591 347.625 
L 143.033058 346.68 
L 151.417731 346.68 
L 152.256198 345.735 
L 197.533434 345.735 
L 198.371901 344.79 
L 202.564237 344.79 
L 203.402705 343.845 
L 209.271976 343.845 
L 210.110443 342.9 
L 210.948911 342.9 
L 211.787378 340.065 
L 212.625845 339.12 
L 214.30278 339.12 
L 215.141247 338.175 
L 223.52592 338.175 
L 224.364388 337.23 
L 231.910594 337.23 
L 232.749061 336.285 
L 241.972201 336.285 
L 242.810669 335.34 
L 252.872276 335.34 
L 253.710744 334.395 
L 257.90308 334.395 
L 258.741548 333.45 
L 285.572502 333.45 
L 286.410969 332.505 
L 288.087904 332.505 
L 288.926371 331.56 
L 295.63411 331.56 
L 296.472577 330.615 
L 319.949662 330.615 
L 322.465064 327.78 
L 346.780616 327.78 
L 347.619083 326.835 
L 348.457551 326.835 
L 350.134485 324.945 
L 351.81142 324.945 
L 352.649887 324 
L 395.411721 324 
L 396.250188 323.055 
L 444.881292 323.055 
L 445.71976 322.11 
L 480.935387 322.11 
L 481.773854 321.165 
L 485.966191 321.165 
L 486.804658 320.22 
L 498.543201 320.22 
L 499.381668 319.275 
L 516.151014 319.275 
L 516.989482 318.33 
L 598.320811 318.33 
L 599.159279 317.385 
L 622.636364 317.385 
L 622.636364 317.385 
" clip-path="url(#pebe19539fb)" style="fill: none; stroke: #bcbd22; stroke-width: 1.5; stroke-linecap: square"/>
   </g>
   <g id="line2d_46">
    <path d="M 115.363636 367.47 
L 157.287002 367.47 
L 158.12547 366.525 
L 210.948911 366.525 
L 211.787378 365.58 
L 297.311044 365.58 
L 298.149512 364.635 
L 298.987979 365.58 
L 400.442524 365.58 
L 401.280992 364.635 
L 407.150263 364.635 
L 407.98873 363.69 
L 428.950413 363.69 
L 429.788881 362.745 
L 622.636364 362.745 
L 622.636364 362.745 
" clip-path="url(#pebe19539fb)" style="fill: none; stroke: #17becf; stroke-width: 1.5; stroke-linecap: square"/>
   </g>
   <g id="line2d_47">
    <path d="M 115.363636 369.36 
L 116.202104 368.415 
L 117.879038 368.415 
L 118.717506 367.47 
L 124.586777 367.47 
L 125.425244 366.525 
L 127.940646 366.525 
L 128.779113 365.58 
L 129.617581 365.58 
L 131.294515 363.69 
L 135.486852 363.69 
L 137.163787 361.8 
L 138.002254 361.8 
L 138.840721 360.855 
L 144.709992 360.855 
L 145.54846 359.91 
L 146.386927 358.02 
L 148.063862 358.02 
L 148.902329 357.075 
L 149.740796 357.075 
L 150.579264 356.13 
L 151.417731 356.13 
L 152.256198 355.185 
L 153.094666 355.185 
L 154.7716 353.295 
L 159.802404 353.295 
L 161.479339 351.405 
L 163.994741 351.405 
L 164.833208 350.46 
L 165.671675 350.46 
L 166.510143 348.57 
L 169.025545 348.57 
L 170.702479 344.79 
L 175.733283 344.79 
L 176.571751 342.9 
L 177.410218 341.955 
L 179.92562 341.955 
L 180.764087 341.01 
L 181.602554 339.12 
L 183.279489 339.12 
L 184.117956 338.175 
L 195.856499 338.175 
L 196.694966 336.285 
L 202.564237 329.67 
L 210.948911 329.67 
L 213.464313 326.835 
L 215.141247 326.835 
L 215.979714 324.945 
L 217.656649 324.945 
L 218.495116 324 
L 221.010518 324 
L 221.848986 323.055 
L 222.687453 323.055 
L 223.52592 322.11 
L 224.364388 322.11 
L 226.041322 320.22 
L 236.941397 320.22 
L 238.618332 318.33 
L 245.326071 318.33 
L 246.164538 317.385 
L 248.67994 317.385 
L 250.356875 315.495 
L 252.872276 315.495 
L 253.710744 314.55 
L 255.387678 314.55 
L 256.226146 313.605 
L 260.418482 313.605 
L 261.25695 312.66 
L 262.095417 312.66 
L 262.933884 310.77 
L 263.772352 310.77 
L 264.610819 309.825 
L 268.803156 309.825 
L 269.641623 308.88 
L 271.318557 308.88 
L 272.157025 307.935 
L 272.995492 307.935 
L 274.672427 306.045 
L 280.541698 306.045 
L 281.380165 305.1 
L 282.218633 305.1 
L 283.0571 304.155 
L 287.249437 304.155 
L 288.087904 302.265 
L 288.926371 301.32 
L 293.118708 301.32 
L 293.957175 300.375 
L 297.311044 300.375 
L 298.149512 298.485 
L 301.503381 298.485 
L 303.180316 296.595 
L 305.695718 296.595 
L 306.534185 295.65 
L 316.595793 295.65 
L 317.43426 293.76 
L 318.272727 292.815 
L 324.980466 292.815 
L 325.818933 291.87 
L 340.911345 291.87 
L 341.749812 290.925 
L 343.426747 290.925 
L 344.265214 289.98 
L 346.780616 289.98 
L 347.619083 289.035 
L 358.519159 289.035 
L 359.357626 287.145 
L 361.03456 287.145 
L 361.873028 286.2 
L 362.711495 286.2 
L 363.549962 285.255 
L 366.903832 285.255 
L 367.742299 284.31 
L 373.61157 284.31 
L 374.450038 282.42 
L 375.288505 282.42 
L 376.126972 281.475 
L 380.319309 281.475 
L 381.157776 280.53 
L 385.350113 280.53 
L 387.027047 278.64 
L 388.703982 278.64 
L 389.542449 277.695 
L 391.219384 277.695 
L 392.057851 276.75 
L 392.896319 276.75 
L 393.734786 275.805 
L 399.604057 275.805 
L 400.442524 274.86 
L 419.727273 274.86 
L 420.56574 273.915 
L 424.758077 273.915 
L 425.596544 272.97 
L 434.819684 272.97 
L 435.658152 272.025 
L 472.550714 272.025 
L 473.389181 271.08 
L 478.419985 271.08 
L 479.258452 270.135 
L 480.09692 270.135 
L 480.935387 269.19 
L 491.835462 269.19 
L 492.673929 268.245 
L 508.604808 268.245 
L 509.443276 267.3 
L 512.797145 267.3 
L 513.635612 266.355 
L 517.827949 266.355 
L 518.666416 265.41 
L 523.69722 265.41 
L 524.535687 264.465 
L 529.566491 264.465 
L 530.404959 263.52 
L 535.435763 263.52 
L 536.27423 260.685 
L 537.112697 259.74 
L 542.981968 259.74 
L 543.820436 258.795 
L 548.012772 258.795 
L 548.85124 257.85 
L 553.043576 257.85 
L 553.882044 256.905 
L 558.912847 256.905 
L 559.751315 255.96 
L 573.166792 255.96 
L 574.005259 254.07 
L 574.843727 254.07 
L 575.682194 253.125 
L 576.520661 253.125 
L 577.359128 252.18 
L 578.197596 252.18 
L 579.036063 251.235 
L 591.613073 251.235 
L 592.45154 250.29 
L 596.643877 250.29 
L 597.482344 249.345 
L 612.574756 249.345 
L 613.413223 248.4 
L 622.636364 248.4 
L 622.636364 248.4 
" clip-path="url(#pebe19539fb)" style="fill: none; stroke: #1f77b4; stroke-width: 1.5; stroke-linecap: square"/>
   </g>
   <g id="line2d_48">
    <path d="M 115.363636 334.395 
L 121.232908 334.395 
L 122.071375 333.45 
L 124.586777 333.45 
L 125.425244 332.505 
L 128.779113 332.505 
L 129.617581 331.56 
L 132.132983 331.56 
L 132.97145 330.615 
L 133.809917 330.615 
L 134.648385 329.67 
L 137.163787 329.67 
L 138.002254 328.725 
L 139.679189 328.725 
L 140.517656 327.78 
L 141.356123 327.78 
L 143.033058 325.89 
L 148.063862 325.89 
L 148.902329 324.945 
L 149.740796 324.945 
L 150.579264 324 
L 151.417731 324 
L 152.256198 322.11 
L 153.094666 319.275 
L 153.933133 318.33 
L 157.287002 318.33 
L 159.802404 315.495 
L 162.317806 315.495 
L 163.994741 313.605 
L 173.217881 313.605 
L 174.056349 310.77 
L 174.894816 310.77 
L 176.571751 306.99 
L 178.248685 305.1 
L 179.087153 305.1 
L 179.92562 303.21 
L 186.633358 303.21 
L 187.471826 301.32 
L 189.987228 301.32 
L 190.825695 300.375 
L 196.694966 300.375 
L 197.533434 299.43 
L 207.595041 299.43 
L 208.433509 298.485 
L 209.271976 298.485 
L 210.110443 297.54 
L 212.625845 297.54 
L 213.464313 296.595 
L 223.52592 296.595 
L 224.364388 295.65 
L 226.041322 295.65 
L 227.718257 291.87 
L 229.395192 291.87 
L 231.072126 289.98 
L 232.749061 289.98 
L 233.587528 289.035 
L 236.10293 289.035 
L 236.941397 288.09 
L 247.003005 288.09 
L 247.841473 287.145 
L 260.418482 287.145 
L 261.25695 286.2 
L 268.803156 286.2 
L 269.641623 285.255 
L 271.318557 285.255 
L 272.157025 284.31 
L 274.672427 284.31 
L 276.349361 282.42 
L 277.187829 282.42 
L 278.026296 281.475 
L 281.380165 281.475 
L 283.0571 279.585 
L 287.249437 279.585 
L 288.087904 278.64 
L 290.603306 278.64 
L 291.441773 277.695 
L 295.63411 277.695 
L 296.472577 276.75 
L 300.664914 276.75 
L 301.503381 275.805 
L 316.595793 275.805 
L 317.43426 274.86 
L 318.272727 274.86 
L 319.111195 273.915 
L 327.495868 273.915 
L 328.334335 272.025 
L 329.172802 272.025 
L 330.01127 271.08 
L 338.395943 271.08 
L 339.23441 270.135 
L 342.588279 270.135 
L 343.426747 269.19 
L 344.265214 269.19 
L 345.103681 268.245 
L 352.649887 268.245 
L 353.488355 267.3 
L 370.257701 267.3 
L 371.096168 264.465 
L 376.96544 264.465 
L 377.803907 263.52 
L 379.480841 263.52 
L 380.319309 262.575 
L 390.380917 262.575 
L 391.219384 261.63 
L 402.957926 261.63 
L 403.796394 260.685 
L 406.311796 260.685 
L 407.150263 259.74 
L 413.858002 259.74 
L 414.696469 257.85 
L 428.111946 257.85 
L 428.950413 256.905 
L 433.14275 256.905 
L 433.981217 255.96 
L 446.558227 255.96 
L 447.396694 255.015 
L 449.073629 255.015 
L 449.912096 254.07 
L 458.296769 254.07 
L 459.135237 253.125 
L 468.358377 253.125 
L 469.196844 252.18 
L 480.09692 252.18 
L 480.935387 251.235 
L 490.996995 251.235 
L 491.835462 250.29 
L 497.704733 250.29 
L 498.543201 249.345 
L 506.927874 249.345 
L 509.443276 246.51 
L 511.12021 246.51 
L 511.958678 245.565 
L 512.797145 245.565 
L 514.47408 243.675 
L 517.827949 243.675 
L 518.666416 242.73 
L 520.343351 242.73 
L 521.181818 240.84 
L 522.020285 239.895 
L 532.081893 239.895 
L 532.920361 238.95 
L 540.466566 238.95 
L 541.305034 238.005 
L 549.689707 238.005 
L 550.528174 237.06 
L 554.720511 237.06 
L 555.558978 235.17 
L 575.682194 235.17 
L 576.520661 234.225 
L 605.867017 234.225 
L 606.705485 233.28 
L 622.636364 233.28 
L 622.636364 233.28 
" clip-path="url(#pebe19539fb)" style="fill: none; stroke: #ff7f0e; stroke-width: 1.5; stroke-linecap: square"/>
   </g>
   <g id="patch_3">
    <path d="M 90 384.48 
L 90 51.84 
" style="fill: none; stroke: #000000; stroke-width: 0.8; stroke-linejoin: miter; stroke-linecap: square"/>
   </g>
   <g id="patch_4">
    <path d="M 648 384.48 
L 648 51.84 
" style="fill: none; stroke: #000000; stroke-width: 0.8; stroke-linejoin: miter; stroke-linecap: square"/>
   </g>
   <g id="patch_5">
    <path d="M 90 384.48 
L 648 384.48 
" style="fill: none; stroke: #000000; stroke-width: 0.8; stroke-linejoin: miter; stroke-linecap: square"/>
   </g>
   <g id="patch_6">
    <path d="M 90 51.84 
L 648 51.84 
" style="fill: none; stroke: #000000; stroke-width: 0.8; stroke-linejoin: miter; stroke-linecap: square"/>
   </g>
   <g id="text_21">
    <!-- Time Series of Votes for Each Keyword -->
    <g transform="translate(253.716563 45.84) scale(0.12 -0.12)">
     <defs>
      <path id="DejaVuSans-53" d="M 3425 4513 
L 3425 3897 
Q 3066 4069 2747 4153 
Q 2428 4238 2131 4238 
Q 1616 4238 1336 4038 
Q 1056 3838 1056 3469 
Q 1056 3159 1242 3001 
Q 1428 2844 1947 2747 
L 2328 2669 
Q 3034 2534 3370 2195 
Q 3706 1856 3706 1288 
Q 3706 609 3251 259 
Q 2797 -91 1919 -91 
Q 1588 -91 1214 -16 
Q 841 59 441 206 
L 441 856 
Q 825 641 1194 531 
Q 1563 422 1919 422 
Q 2459 422 2753 634 
Q 3047 847 3047 1241 
Q 3047 1584 2836 1778 
Q 2625 1972 2144 2069 
L 1759 2144 
Q 1053 2284 737 2584 
Q 422 2884 422 3419 
Q 422 4038 858 4394 
Q 1294 4750 2059 4750 
Q 2388 4750 2728 4690 
Q 3069 4631 3425 4513 
z
" transform="scale(0.015625)"/>
      <path id="DejaVuSans-72" d="M 2631 2963 
Q 2534 3019 2420 3045 
Q 2306 3072 2169 3072 
Q 1681 3072 1420 2755 
Q 1159 2438 1159 1844 
L 1159 0 
L 581 0 
L 581 3500 
L 1159 3500 
L 1159 2956 
Q 1341 3275 1631 3429 
Q 1922 3584 2338 3584 
Q 2397 3584 2469 3576 
Q 2541 3569 2628 3553 
L 2631 2963 
z
" transform="scale(0.015625)"/>
      <path id="DejaVuSans-66" d="M 2375 4863 
L 2375 4384 
L 1825 4384 
Q 1516 4384 1395 4259 
Q 1275 4134 1275 3809 
L 1275 3500 
L 2222 3500 
L 2222 3053 
L 1275 3053 
L 1275 0 
L 697 0 
L 697 3053 
L 147 3053 
L 147 3500 
L 697 3500 
L 697 3744 
Q 697 4328 969 4595 
Q 1241 4863 1831 4863 
L 2375 4863 
z
" transform="scale(0.015625)"/>
      <path id="DejaVuSans-45" d="M 628 4666 
L 3578 4666 
L 3578 4134 
L 1259 4134 
L 1259 2753 
L 3481 2753 
L 3481 2222 
L 1259 2222 
L 1259 531 
L 3634 531 
L 3634 0 
L 628 0 
L 628 4666 
z
" transform="scale(0.015625)"/>
      <path id="DejaVuSans-63" d="M 3122 3366 
L 3122 2828 
Q 2878 2963 2633 3030 
Q 2388 3097 2138 3097 
Q 1578 3097 1268 2742 
Q 959 2388 959 1747 
Q 959 1106 1268 751 
Q 1578 397 2138 397 
Q 2388 397 2633 464 
Q 2878 531 3122 666 
L 3122 134 
Q 2881 22 2623 -34 
Q 2366 -91 2075 -91 
Q 1284 -91 818 406 
Q 353 903 353 1747 
Q 353 2603 823 3093 
Q 1294 3584 2113 3584 
Q 2378 3584 2631 3529 
Q 2884 3475 3122 3366 
z
" transform="scale(0.015625)"/>
      <path id="DejaVuSans-68" d="M 3513 2113 
L 3513 0 
L 2938 0 
L 2938 2094 
Q 2938 2591 2744 2837 
Q 2550 3084 2163 3084 
Q 1697 3084 1428 2787 
Q 1159 2491 1159 1978 
L 1159 0 
L 581 0 
L 581 4863 
L 1159 4863 
L 1159 2956 
Q 1366 3272 1645 3428 
Q 1925 3584 2291 3584 
Q 2894 3584 3203 3211 
Q 3513 2838 3513 2113 
z
" transform="scale(0.015625)"/>
      <path id="DejaVuSans-4b" d="M 628 4666 
L 1259 4666 
L 1259 2694 
L 3353 4666 
L 4166 4666 
L 1850 2491 
L 4331 0 
L 3500 0 
L 1259 2247 
L 1259 0 
L 628 0 
L 628 4666 
z
" transform="scale(0.015625)"/>
      <path id="DejaVuSans-79" d="M 2059 -325 
Q 1816 -950 1584 -1140 
Q 1353 -1331 966 -1331 
L 506 -1331 
L 506 -850 
L 844 -850 
Q 1081 -850 1212 -737 
Q 1344 -625 1503 -206 
L 1606 56 
L 191 3500 
L 800 3500 
L 1894 763 
L 2988 3500 
L 3597 3500 
L 2059 -325 
z
" transform="scale(0.015625)"/>
      <path id="DejaVuSans-77" d="M 269 3500 
L 844 3500 
L 1563 769 
L 2278 3500 
L 2956 3500 
L 3675 769 
L 4391 3500 
L 4966 3500 
L 4050 0 
L 3372 0 
L 2619 2869 
L 1863 0 
L 1184 0 
L 269 3500 
z
" transform="scale(0.015625)"/>
     </defs>
     <use xlink:href="#DejaVuSans-54"/>
     <use xlink:href="#DejaVuSans-69" transform="translate(57.958984 0)"/>
     <use xlink:href="#DejaVuSans-6d" transform="translate(85.742188 0)"/>
     <use xlink:href="#DejaVuSans-65" transform="translate(183.154297 0)"/>
     <use xlink:href="#DejaVuSans-20" transform="translate(244.677734 0)"/>
     <use xlink:href="#DejaVuSans-53" transform="translate(276.464844 0)"/>
     <use xlink:href="#DejaVuSans-65" transform="translate(339.941406 0)"/>
     <use xlink:href="#DejaVuSans-72" transform="translate(401.464844 0)"/>
     <use xlink:href="#DejaVuSans-69" transform="translate(442.578125 0)"/>
     <use xlink:href="#DejaVuSans-65" transform="translate(470.361328 0)"/>
     <use xlink:href="#DejaVuSans-73" transform="translate(531.884766 0)"/>
     <use xlink:href="#DejaVuSans-20" transform="translate(583.984375 0)"/>
     <use xlink:href="#DejaVuSans-6f" transform="translate(615.771484 0)"/>
     <use xlink:href="#DejaVuSans-66" transform="translate(676.953125 0)"/>
     <use xlink:href="#DejaVuSans-20" transform="translate(712.158203 0)"/>
     <use xlink:href="#DejaVuSans-56" transform="translate(743.945312 0)"/>
     <use xlink:href="#DejaVuSans-6f" transform="translate(804.603516 0)"/>
     <use xlink:href="#DejaVuSans-74" transform="translate(865.785156 0)"/>
     <use xlink:href="#DejaVuSans-65" transform="translate(904.994141 0)"/>
     <use xlink:href="#DejaVuSans-73" transform="translate(966.517578 0)"/>
     <use xlink:href="#DejaVuSans-20" transform="translate(1018.617188 0)"/>
     <use xlink:href="#DejaVuSans-66" transform="translate(1050.404297 0)"/>
     <use xlink:href="#DejaVuSans-6f" transform="translate(1085.609375 0)"/>
     <use xlink:href="#DejaVuSans-72" transform="translate(1146.791016 0)"/>
     <use xlink:href="#DejaVuSans-20" transform="translate(1187.904297 0)"/>
     <use xlink:href="#DejaVuSans-45" transform="translate(1219.691406 0)"/>
     <use xlink:href="#DejaVuSans-61" transform="translate(1282.875 0)"/>
     <use xlink:href="#DejaVuSans-63" transform="translate(1344.154297 0)"/>
     <use xlink:href="#DejaVuSans-68" transform="translate(1399.134766 0)"/>
     <use xlink:href="#DejaVuSans-20" transform="translate(1462.513672 0)"/>
     <use xlink:href="#DejaVuSans-4b" transform="translate(1494.300781 0)"/>
     <use xlink:href="#DejaVuSans-65" transform="translate(1554.876953 0)"/>
     <use xlink:href="#DejaVuSans-79" transform="translate(1616.400391 0)"/>
     <use xlink:href="#DejaVuSans-77" transform="translate(1675.580078 0)"/>
     <use xlink:href="#DejaVuSans-6f" transform="translate(1757.367188 0)"/>
     <use xlink:href="#DejaVuSans-72" transform="translate(1818.548828 0)"/>
     <use xlink:href="#DejaVuSans-64" transform="translate(1857.912109 0)"/>
    </g>
   </g>
   <g id="legend_1">
    <g id="patch_7">
     <path d="M 97 235.9775 
L 149.245313 235.9775 
Q 151.245313 235.9775 151.245313 233.9775 
L 151.245313 58.84 
Q 151.245313 56.84 149.245313 56.84 
L 97 56.84 
Q 95 56.84 95 58.84 
L 95 233.9775 
Q 95 235.9775 97 235.9775 
z
" style="fill: #ffffff; opacity: 0.8; stroke: #cccccc; stroke-linejoin: miter"/>
    </g>
    <g id="line2d_49">
     <path d="M 99 64.938437 
L 109 64.938437 
L 119 64.938437 
" style="fill: none; stroke: #1f77b4; stroke-width: 1.5; stroke-linecap: square"/>
    </g>
    <g id="text_22">
     <!-- H01 -->
     <g transform="translate(127 68.438437) scale(0.1 -0.1)">
      <defs>
       <path id="DejaVuSans-48" d="M 628 4666 
L 1259 4666 
L 1259 2753 
L 3553 2753 
L 3553 4666 
L 4184 4666 
L 4184 0 
L 3553 0 
L 3553 2222 
L 1259 2222 
L 1259 0 
L 628 0 
L 628 4666 
z
" transform="scale(0.015625)"/>
      </defs>
      <use xlink:href="#DejaVuSans-48"/>
      <use xlink:href="#DejaVuSans-30" transform="translate(75.195312 0)"/>
      <use xlink:href="#DejaVuSans-31" transform="translate(138.818359 0)"/>
     </g>
    </g>
    <g id="line2d_50">
     <path d="M 99 79.616562 
L 109 79.616562 
L 119 79.616562 
" style="fill: none; stroke: #ff7f0e; stroke-width: 1.5; stroke-linecap: square"/>
    </g>
    <g id="text_23">
     <!-- H02 -->
     <g transform="translate(127 83.116562) scale(0.1 -0.1)">
      <use xlink:href="#DejaVuSans-48"/>
      <use xlink:href="#DejaVuSans-30" transform="translate(75.195312 0)"/>
      <use xlink:href="#DejaVuSans-32" transform="translate(138.818359 0)"/>
     </g>
    </g>
    <g id="line2d_51">
     <path d="M 99 94.294688 
L 109 94.294688 
L 119 94.294688 
" style="fill: none; stroke: #2ca02c; stroke-width: 1.5; stroke-linecap: square"/>
    </g>
    <g id="text_24">
     <!-- H03 -->
     <g transform="translate(127 97.794688) scale(0.1 -0.1)">
      <use xlink:href="#DejaVuSans-48"/>
      <use xlink:href="#DejaVuSans-30" transform="translate(75.195312 0)"/>
      <use xlink:href="#DejaVuSans-33" transform="translate(138.818359 0)"/>
     </g>
    </g>
    <g id="line2d_52">
     <path d="M 99 108.972812 
L 109 108.972812 
L 119 108.972812 
" style="fill: none; stroke: #d62728; stroke-width: 1.5; stroke-linecap: square"/>
    </g>
    <g id="text_25">
     <!-- H04 -->
     <g transform="translate(127 112.472812) scale(0.1 -0.1)">
      <use xlink:href="#DejaVuSans-48"/>
      <use xlink:href="#DejaVuSans-30" transform="translate(75.195312 0)"/>
      <use xlink:href="#DejaVuSans-34" transform="translate(138.818359 0)"/>
     </g>
    </g>
    <g id="line2d_53">
     <path d="M 99 123.650937 
L 109 123.650937 
L 119 123.650937 
" style="fill: none; stroke: #9467bd; stroke-width: 1.5; stroke-linecap: square"/>
    </g>
    <g id="text_26">
     <!-- H05 -->
     <g transform="translate(127 127.150937) scale(0.1 -0.1)">
      <use xlink:href="#DejaVuSans-48"/>
      <use xlink:href="#DejaVuSans-30" transform="translate(75.195312 0)"/>
      <use xlink:href="#DejaVuSans-35" transform="translate(138.818359 0)"/>
     </g>
    </g>
    <g id="line2d_54">
     <path d="M 99 138.329062 
L 109 138.329062 
L 119 138.329062 
" style="fill: none; stroke: #8c564b; stroke-width: 1.5; stroke-linecap: square"/>
    </g>
    <g id="text_27">
     <!-- H06 -->
     <g transform="translate(127 141.829062) scale(0.1 -0.1)">
      <use xlink:href="#DejaVuSans-48"/>
      <use xlink:href="#DejaVuSans-30" transform="translate(75.195312 0)"/>
      <use xlink:href="#DejaVuSans-36" transform="translate(138.818359 0)"/>
     </g>
    </g>
    <g id="line2d_55">
     <path d="M 99 153.007187 
L 109 153.007187 
L 119 153.007187 
" style="fill: none; stroke: #e377c2; stroke-width: 1.5; stroke-linecap: square"/>
    </g>
    <g id="text_28">
     <!-- H07 -->
     <g transform="translate(127 156.507187) scale(0.1 -0.1)">
      <use xlink:href="#DejaVuSans-48"/>
      <use xlink:href="#DejaVuSans-30" transform="translate(75.195312 0)"/>
      <use xlink:href="#DejaVuSans-37" transform="translate(138.818359 0)"/>
     </g>
    </g>
    <g id="line2d_56">
     <path d="M 99 167.685312 
L 109 167.685312 
L 119 167.685312 
" style="fill: none; stroke: #7f7f7f; stroke-width: 1.5; stroke-linecap: square"/>
    </g>
    <g id="text_29">
     <!-- H08 -->
     <g transform="translate(127 171.185312) scale(0.1 -0.1)">
      <use xlink:href="#DejaVuSans-48"/>
      <use xlink:href="#DejaVuSans-30" transform="translate(75.195312 0)"/>
      <use xlink:href="#DejaVuSans-38" transform="translate(138.818359 0)"/>
     </g>
    </g>
    <g id="line2d_57">
     <path d="M 99 182.363437 
L 109 182.363437 
L 119 182.363437 
" style="fill: none; stroke: #bcbd22; stroke-width: 1.5; stroke-linecap: square"/>
    </g>
    <g id="text_30">
     <!-- H09 -->
     <g transform="translate(127 185.863437) scale(0.1 -0.1)">
      <use xlink:href="#DejaVuSans-48"/>
      <use xlink:href="#DejaVuSans-30" transform="translate(75.195312 0)"/>
      <use xlink:href="#DejaVuSans-39" transform="translate(138.818359 0)"/>
     </g>
    </g>
    <g id="line2d_58">
     <path d="M 99 197.041562 
L 109 197.041562 
L 119 197.041562 
" style="fill: none; stroke: #17becf; stroke-width: 1.5; stroke-linecap: square"/>
    </g>
    <g id="text_31">
     <!-- H10 -->
     <g transform="translate(127 200.541562) scale(0.1 -0.1)">
      <use xlink:href="#DejaVuSans-48"/>
      <use xlink:href="#DejaVuSans-31" transform="translate(75.195312 0)"/>
      <use xlink:href="#DejaVuSans-30" transform="translate(138.818359 0)"/>
     </g>
    </g>
    <g id="line2d_59">
     <path d="M 99 211.719687 
L 109 211.719687 
L 119 211.719687 
" style="fill: none; stroke: #1f77b4; stroke-width: 1.5; stroke-linecap: square"/>
    </g>
    <g id="text_32">
     <!-- H11 -->
     <g transform="translate(127 215.219687) scale(0.1 -0.1)">
      <use xlink:href="#DejaVuSans-48"/>
      <use xlink:href="#DejaVuSans-31" transform="translate(75.195312 0)"/>
      <use xlink:href="#DejaVuSans-31" transform="translate(138.818359 0)"/>
     </g>
    </g>
    <g id="line2d_60">
     <path d="M 99 226.397812 
L 109 226.397812 
L 119 226.397812 
" style="fill: none; stroke: #ff7f0e; stroke-width: 1.5; stroke-linecap: square"/>
    </g>
    <g id="text_33">
     <!-- H12 -->
     <g transform="translate(127 229.897812) scale(0.1 -0.1)">
      <use xlink:href="#DejaVuSans-48"/>
      <use xlink:href="#DejaVuSans-31" transform="translate(75.195312 0)"/>
      <use xlink:href="#DejaVuSans-32" transform="translate(138.818359 0)"/>
     </g>
    </g>
   </g>
  </g>
 </g>
 <defs>
  <clipPath id="pebe19539fb">
   <rect x="90" y="51.84" width="558" height="332.64"/>
  </clipPath>
 </defs>
</svg>
