<?xml version="1.0" encoding="utf-8" standalone="no"?>
<!DOCTYPE svg PUBLIC "-//W3C//DTD SVG 1.1//EN"
  "http://www.w3.org/Graphics/SVG/1.1/DTD/svg11.dtd">
<svg xmlns:xlink="http://www.w3.org/1999/xlink" width="720pt" height="432pt" viewBox="0 0 720 432" xmlns="http://www.w3.org/2000/svg" version="1.1">
 <metadata>
  <rdf:RDF xmlns:dc="http://purl.org/dc/elements/1.1/" xmlns:cc="http://creativecommons.org/ns#" xmlns:rdf="http://www.w3.org/1999/02/22-rdf-syntax-ns#">
   <cc:Work>
    <dc:type rdf:resource="http://purl.org/dc/dcmitype/StillImage"/>
    <dc:date>2025-01-14T23:23:03.383354</dc:date>
    <dc:format>image/svg+xml</dc:format>
    <dc:creator>
     <cc:Agent>
      <dc:title>Matplotlib v3.10.0, https://matplotlib.org/</dc:title>
     </cc:Agent>
    </dc:creator>
   </cc:Work>
  </rdf:RDF>
 </metadata>
 <defs>
  <style type="text/css">*{stroke-linejoin: round; stroke-linecap: butt}</style>
 </defs>
 <g id="figure_1">
  <g id="patch_1">
   <path d="M 0 432 
L 720 432 
L 720 0 
L 0 0 
z
" style="fill: #ffffff"/>
  </g>
  <g id="axes_1">
   <g id="patch_2">
    <path d="M 90 384.48 
L 648 384.48 
L 648 51.84 
L 90 51.84 
z
" style="fill: #ffffff"/>
   </g>
   <g id="matplotlib.axis_1">
    <g id="xtick_1">
     <g id="line2d_1">
      <path d="M 138.617225 384.48 
L 138.617225 51.84 
" clip-path="url(#p30fa9c1c1c)" style="fill: none; stroke: #b0b0b0; stroke-width: 0.8; stroke-linecap: square"/>
     </g>
     <g id="line2d_2">
      <defs>
       <path id="m61d271d317" d="M 0 0 
L 0 3.5 
" style="stroke: #000000; stroke-width: 0.8"/>
      </defs>
      <g>
       <use xlink:href="#m61d271d317" x="138.617225" y="384.48" style="stroke: #000000; stroke-width: 0.8"/>
      </g>
     </g>
     <g id="text_1">
      <!-- 01-14 14 -->
      <g transform="translate(116.136756 399.078438) scale(0.1 -0.1)">
       <defs>
        <path id="DejaVuSans-30" d="M 2034 4250 
Q 1547 4250 1301 3770 
Q 1056 3291 1056 2328 
Q 1056 1369 1301 889 
Q 1547 409 2034 409 
Q 2525 409 2770 889 
Q 3016 1369 3016 2328 
Q 3016 3291 2770 3770 
Q 2525 4250 2034 4250 
z
M 2034 4750 
Q 2819 4750 3233 4129 
Q 3647 3509 3647 2328 
Q 3647 1150 3233 529 
Q 2819 -91 2034 -91 
Q 1250 -91 836 529 
Q 422 1150 422 2328 
Q 422 3509 836 4129 
Q 1250 4750 2034 4750 
z
" transform="scale(0.015625)"/>
        <path id="DejaVuSans-31" d="M 794 531 
L 1825 531 
L 1825 4091 
L 703 3866 
L 703 4441 
L 1819 4666 
L 2450 4666 
L 2450 531 
L 3481 531 
L 3481 0 
L 794 0 
L 794 531 
z
" transform="scale(0.015625)"/>
        <path id="DejaVuSans-2d" d="M 313 2009 
L 1997 2009 
L 1997 1497 
L 313 1497 
L 313 2009 
z
" transform="scale(0.015625)"/>
        <path id="DejaVuSans-34" d="M 2419 4116 
L 825 1625 
L 2419 1625 
L 2419 4116 
z
M 2253 4666 
L 3047 4666 
L 3047 1625 
L 3713 1625 
L 3713 1100 
L 3047 1100 
L 3047 0 
L 2419 0 
L 2419 1100 
L 313 1100 
L 313 1709 
L 2253 4666 
z
" transform="scale(0.015625)"/>
        <path id="DejaVuSans-20" transform="scale(0.015625)"/>
       </defs>
       <use xlink:href="#DejaVuSans-30"/>
       <use xlink:href="#DejaVuSans-31" transform="translate(63.623047 0)"/>
       <use xlink:href="#DejaVuSans-2d" transform="translate(127.246094 0)"/>
       <use xlink:href="#DejaVuSans-31" transform="translate(163.330078 0)"/>
       <use xlink:href="#DejaVuSans-34" transform="translate(226.953125 0)"/>
       <use xlink:href="#DejaVuSans-20" transform="translate(290.576172 0)"/>
       <use xlink:href="#DejaVuSans-31" transform="translate(322.363281 0)"/>
       <use xlink:href="#DejaVuSans-34" transform="translate(385.986328 0)"/>
      </g>
     </g>
    </g>
    <g id="xtick_2">
     <g id="line2d_3">
      <path d="M 190.291866 384.48 
L 190.291866 51.84 
" clip-path="url(#p30fa9c1c1c)" style="fill: none; stroke: #b0b0b0; stroke-width: 0.8; stroke-linecap: square"/>
     </g>
     <g id="line2d_4">
      <g>
       <use xlink:href="#m61d271d317" x="190.291866" y="384.48" style="stroke: #000000; stroke-width: 0.8"/>
      </g>
     </g>
     <g id="text_2">
      <!-- 01-14 15 -->
      <g transform="translate(167.811397 399.078438) scale(0.1 -0.1)">
       <defs>
        <path id="DejaVuSans-35" d="M 691 4666 
L 3169 4666 
L 3169 4134 
L 1269 4134 
L 1269 2991 
Q 1406 3038 1543 3061 
Q 1681 3084 1819 3084 
Q 2600 3084 3056 2656 
Q 3513 2228 3513 1497 
Q 3513 744 3044 326 
Q 2575 -91 1722 -91 
Q 1428 -91 1123 -41 
Q 819 9 494 109 
L 494 744 
Q 775 591 1075 516 
Q 1375 441 1709 441 
Q 2250 441 2565 725 
Q 2881 1009 2881 1497 
Q 2881 1984 2565 2268 
Q 2250 2553 1709 2553 
Q 1456 2553 1204 2497 
Q 953 2441 691 2322 
L 691 4666 
z
" transform="scale(0.015625)"/>
       </defs>
       <use xlink:href="#DejaVuSans-30"/>
       <use xlink:href="#DejaVuSans-31" transform="translate(63.623047 0)"/>
       <use xlink:href="#DejaVuSans-2d" transform="translate(127.246094 0)"/>
       <use xlink:href="#DejaVuSans-31" transform="translate(163.330078 0)"/>
       <use xlink:href="#DejaVuSans-34" transform="translate(226.953125 0)"/>
       <use xlink:href="#DejaVuSans-20" transform="translate(290.576172 0)"/>
       <use xlink:href="#DejaVuSans-31" transform="translate(322.363281 0)"/>
       <use xlink:href="#DejaVuSans-35" transform="translate(385.986328 0)"/>
      </g>
     </g>
    </g>
    <g id="xtick_3">
     <g id="line2d_5">
      <path d="M 241.966507 384.48 
L 241.966507 51.84 
" clip-path="url(#p30fa9c1c1c)" style="fill: none; stroke: #b0b0b0; stroke-width: 0.8; stroke-linecap: square"/>
     </g>
     <g id="line2d_6">
      <g>
       <use xlink:href="#m61d271d317" x="241.966507" y="384.48" style="stroke: #000000; stroke-width: 0.8"/>
      </g>
     </g>
     <g id="text_3">
      <!-- 01-14 16 -->
      <g transform="translate(219.486038 399.078438) scale(0.1 -0.1)">
       <defs>
        <path id="DejaVuSans-36" d="M 2113 2584 
Q 1688 2584 1439 2293 
Q 1191 2003 1191 1497 
Q 1191 994 1439 701 
Q 1688 409 2113 409 
Q 2538 409 2786 701 
Q 3034 994 3034 1497 
Q 3034 2003 2786 2293 
Q 2538 2584 2113 2584 
z
M 3366 4563 
L 3366 3988 
Q 3128 4100 2886 4159 
Q 2644 4219 2406 4219 
Q 1781 4219 1451 3797 
Q 1122 3375 1075 2522 
Q 1259 2794 1537 2939 
Q 1816 3084 2150 3084 
Q 2853 3084 3261 2657 
Q 3669 2231 3669 1497 
Q 3669 778 3244 343 
Q 2819 -91 2113 -91 
Q 1303 -91 875 529 
Q 447 1150 447 2328 
Q 447 3434 972 4092 
Q 1497 4750 2381 4750 
Q 2619 4750 2861 4703 
Q 3103 4656 3366 4563 
z
" transform="scale(0.015625)"/>
       </defs>
       <use xlink:href="#DejaVuSans-30"/>
       <use xlink:href="#DejaVuSans-31" transform="translate(63.623047 0)"/>
       <use xlink:href="#DejaVuSans-2d" transform="translate(127.246094 0)"/>
       <use xlink:href="#DejaVuSans-31" transform="translate(163.330078 0)"/>
       <use xlink:href="#DejaVuSans-34" transform="translate(226.953125 0)"/>
       <use xlink:href="#DejaVuSans-20" transform="translate(290.576172 0)"/>
       <use xlink:href="#DejaVuSans-31" transform="translate(322.363281 0)"/>
       <use xlink:href="#DejaVuSans-36" transform="translate(385.986328 0)"/>
      </g>
     </g>
    </g>
    <g id="xtick_4">
     <g id="line2d_7">
      <path d="M 293.641148 384.48 
L 293.641148 51.84 
" clip-path="url(#p30fa9c1c1c)" style="fill: none; stroke: #b0b0b0; stroke-width: 0.8; stroke-linecap: square"/>
     </g>
     <g id="line2d_8">
      <g>
       <use xlink:href="#m61d271d317" x="293.641148" y="384.48" style="stroke: #000000; stroke-width: 0.8"/>
      </g>
     </g>
     <g id="text_4">
      <!-- 01-14 17 -->
      <g transform="translate(271.16068 399.078438) scale(0.1 -0.1)">
       <defs>
        <path id="DejaVuSans-37" d="M 525 4666 
L 3525 4666 
L 3525 4397 
L 1831 0 
L 1172 0 
L 2766 4134 
L 525 4134 
L 525 4666 
z
" transform="scale(0.015625)"/>
       </defs>
       <use xlink:href="#DejaVuSans-30"/>
       <use xlink:href="#DejaVuSans-31" transform="translate(63.623047 0)"/>
       <use xlink:href="#DejaVuSans-2d" transform="translate(127.246094 0)"/>
       <use xlink:href="#DejaVuSans-31" transform="translate(163.330078 0)"/>
       <use xlink:href="#DejaVuSans-34" transform="translate(226.953125 0)"/>
       <use xlink:href="#DejaVuSans-20" transform="translate(290.576172 0)"/>
       <use xlink:href="#DejaVuSans-31" transform="translate(322.363281 0)"/>
       <use xlink:href="#DejaVuSans-37" transform="translate(385.986328 0)"/>
      </g>
     </g>
    </g>
    <g id="xtick_5">
     <g id="line2d_9">
      <path d="M 345.315789 384.48 
L 345.315789 51.84 
" clip-path="url(#p30fa9c1c1c)" style="fill: none; stroke: #b0b0b0; stroke-width: 0.8; stroke-linecap: square"/>
     </g>
     <g id="line2d_10">
      <g>
       <use xlink:href="#m61d271d317" x="345.315789" y="384.48" style="stroke: #000000; stroke-width: 0.8"/>
      </g>
     </g>
     <g id="text_5">
      <!-- 01-14 18 -->
      <g transform="translate(322.835321 399.078438) scale(0.1 -0.1)">
       <defs>
        <path id="DejaVuSans-38" d="M 2034 2216 
Q 1584 2216 1326 1975 
Q 1069 1734 1069 1313 
Q 1069 891 1326 650 
Q 1584 409 2034 409 
Q 2484 409 2743 651 
Q 3003 894 3003 1313 
Q 3003 1734 2745 1975 
Q 2488 2216 2034 2216 
z
M 1403 2484 
Q 997 2584 770 2862 
Q 544 3141 544 3541 
Q 544 4100 942 4425 
Q 1341 4750 2034 4750 
Q 2731 4750 3128 4425 
Q 3525 4100 3525 3541 
Q 3525 3141 3298 2862 
Q 3072 2584 2669 2484 
Q 3125 2378 3379 2068 
Q 3634 1759 3634 1313 
Q 3634 634 3220 271 
Q 2806 -91 2034 -91 
Q 1263 -91 848 271 
Q 434 634 434 1313 
Q 434 1759 690 2068 
Q 947 2378 1403 2484 
z
M 1172 3481 
Q 1172 3119 1398 2916 
Q 1625 2713 2034 2713 
Q 2441 2713 2670 2916 
Q 2900 3119 2900 3481 
Q 2900 3844 2670 4047 
Q 2441 4250 2034 4250 
Q 1625 4250 1398 4047 
Q 1172 3844 1172 3481 
z
" transform="scale(0.015625)"/>
       </defs>
       <use xlink:href="#DejaVuSans-30"/>
       <use xlink:href="#DejaVuSans-31" transform="translate(63.623047 0)"/>
       <use xlink:href="#DejaVuSans-2d" transform="translate(127.246094 0)"/>
       <use xlink:href="#DejaVuSans-31" transform="translate(163.330078 0)"/>
       <use xlink:href="#DejaVuSans-34" transform="translate(226.953125 0)"/>
       <use xlink:href="#DejaVuSans-20" transform="translate(290.576172 0)"/>
       <use xlink:href="#DejaVuSans-31" transform="translate(322.363281 0)"/>
       <use xlink:href="#DejaVuSans-38" transform="translate(385.986328 0)"/>
      </g>
     </g>
    </g>
    <g id="xtick_6">
     <g id="line2d_11">
      <path d="M 396.990431 384.48 
L 396.990431 51.84 
" clip-path="url(#p30fa9c1c1c)" style="fill: none; stroke: #b0b0b0; stroke-width: 0.8; stroke-linecap: square"/>
     </g>
     <g id="line2d_12">
      <g>
       <use xlink:href="#m61d271d317" x="396.990431" y="384.48" style="stroke: #000000; stroke-width: 0.8"/>
      </g>
     </g>
     <g id="text_6">
      <!-- 01-14 19 -->
      <g transform="translate(374.509962 399.078438) scale(0.1 -0.1)">
       <defs>
        <path id="DejaVuSans-39" d="M 703 97 
L 703 672 
Q 941 559 1184 500 
Q 1428 441 1663 441 
Q 2288 441 2617 861 
Q 2947 1281 2994 2138 
Q 2813 1869 2534 1725 
Q 2256 1581 1919 1581 
Q 1219 1581 811 2004 
Q 403 2428 403 3163 
Q 403 3881 828 4315 
Q 1253 4750 1959 4750 
Q 2769 4750 3195 4129 
Q 3622 3509 3622 2328 
Q 3622 1225 3098 567 
Q 2575 -91 1691 -91 
Q 1453 -91 1209 -44 
Q 966 3 703 97 
z
M 1959 2075 
Q 2384 2075 2632 2365 
Q 2881 2656 2881 3163 
Q 2881 3666 2632 3958 
Q 2384 4250 1959 4250 
Q 1534 4250 1286 3958 
Q 1038 3666 1038 3163 
Q 1038 2656 1286 2365 
Q 1534 2075 1959 2075 
z
" transform="scale(0.015625)"/>
       </defs>
       <use xlink:href="#DejaVuSans-30"/>
       <use xlink:href="#DejaVuSans-31" transform="translate(63.623047 0)"/>
       <use xlink:href="#DejaVuSans-2d" transform="translate(127.246094 0)"/>
       <use xlink:href="#DejaVuSans-31" transform="translate(163.330078 0)"/>
       <use xlink:href="#DejaVuSans-34" transform="translate(226.953125 0)"/>
       <use xlink:href="#DejaVuSans-20" transform="translate(290.576172 0)"/>
       <use xlink:href="#DejaVuSans-31" transform="translate(322.363281 0)"/>
       <use xlink:href="#DejaVuSans-39" transform="translate(385.986328 0)"/>
      </g>
     </g>
    </g>
    <g id="xtick_7">
     <g id="line2d_13">
      <path d="M 448.665072 384.48 
L 448.665072 51.84 
" clip-path="url(#p30fa9c1c1c)" style="fill: none; stroke: #b0b0b0; stroke-width: 0.8; stroke-linecap: square"/>
     </g>
     <g id="line2d_14">
      <g>
       <use xlink:href="#m61d271d317" x="448.665072" y="384.48" style="stroke: #000000; stroke-width: 0.8"/>
      </g>
     </g>
     <g id="text_7">
      <!-- 01-14 20 -->
      <g transform="translate(426.184603 399.078438) scale(0.1 -0.1)">
       <defs>
        <path id="DejaVuSans-32" d="M 1228 531 
L 3431 531 
L 3431 0 
L 469 0 
L 469 531 
Q 828 903 1448 1529 
Q 2069 2156 2228 2338 
Q 2531 2678 2651 2914 
Q 2772 3150 2772 3378 
Q 2772 3750 2511 3984 
Q 2250 4219 1831 4219 
Q 1534 4219 1204 4116 
Q 875 4013 500 3803 
L 500 4441 
Q 881 4594 1212 4672 
Q 1544 4750 1819 4750 
Q 2544 4750 2975 4387 
Q 3406 4025 3406 3419 
Q 3406 3131 3298 2873 
Q 3191 2616 2906 2266 
Q 2828 2175 2409 1742 
Q 1991 1309 1228 531 
z
" transform="scale(0.015625)"/>
       </defs>
       <use xlink:href="#DejaVuSans-30"/>
       <use xlink:href="#DejaVuSans-31" transform="translate(63.623047 0)"/>
       <use xlink:href="#DejaVuSans-2d" transform="translate(127.246094 0)"/>
       <use xlink:href="#DejaVuSans-31" transform="translate(163.330078 0)"/>
       <use xlink:href="#DejaVuSans-34" transform="translate(226.953125 0)"/>
       <use xlink:href="#DejaVuSans-20" transform="translate(290.576172 0)"/>
       <use xlink:href="#DejaVuSans-32" transform="translate(322.363281 0)"/>
       <use xlink:href="#DejaVuSans-30" transform="translate(385.986328 0)"/>
      </g>
     </g>
    </g>
    <g id="xtick_8">
     <g id="line2d_15">
      <path d="M 500.339713 384.48 
L 500.339713 51.84 
" clip-path="url(#p30fa9c1c1c)" style="fill: none; stroke: #b0b0b0; stroke-width: 0.8; stroke-linecap: square"/>
     </g>
     <g id="line2d_16">
      <g>
       <use xlink:href="#m61d271d317" x="500.339713" y="384.48" style="stroke: #000000; stroke-width: 0.8"/>
      </g>
     </g>
     <g id="text_8">
      <!-- 01-14 21 -->
      <g transform="translate(477.859244 399.078438) scale(0.1 -0.1)">
       <use xlink:href="#DejaVuSans-30"/>
       <use xlink:href="#DejaVuSans-31" transform="translate(63.623047 0)"/>
       <use xlink:href="#DejaVuSans-2d" transform="translate(127.246094 0)"/>
       <use xlink:href="#DejaVuSans-31" transform="translate(163.330078 0)"/>
       <use xlink:href="#DejaVuSans-34" transform="translate(226.953125 0)"/>
       <use xlink:href="#DejaVuSans-20" transform="translate(290.576172 0)"/>
       <use xlink:href="#DejaVuSans-32" transform="translate(322.363281 0)"/>
       <use xlink:href="#DejaVuSans-31" transform="translate(385.986328 0)"/>
      </g>
     </g>
    </g>
    <g id="xtick_9">
     <g id="line2d_17">
      <path d="M 552.014354 384.48 
L 552.014354 51.84 
" clip-path="url(#p30fa9c1c1c)" style="fill: none; stroke: #b0b0b0; stroke-width: 0.8; stroke-linecap: square"/>
     </g>
     <g id="line2d_18">
      <g>
       <use xlink:href="#m61d271d317" x="552.014354" y="384.48" style="stroke: #000000; stroke-width: 0.8"/>
      </g>
     </g>
     <g id="text_9">
      <!-- 01-14 22 -->
      <g transform="translate(529.533885 399.078438) scale(0.1 -0.1)">
       <use xlink:href="#DejaVuSans-30"/>
       <use xlink:href="#DejaVuSans-31" transform="translate(63.623047 0)"/>
       <use xlink:href="#DejaVuSans-2d" transform="translate(127.246094 0)"/>
       <use xlink:href="#DejaVuSans-31" transform="translate(163.330078 0)"/>
       <use xlink:href="#DejaVuSans-34" transform="translate(226.953125 0)"/>
       <use xlink:href="#DejaVuSans-20" transform="translate(290.576172 0)"/>
       <use xlink:href="#DejaVuSans-32" transform="translate(322.363281 0)"/>
       <use xlink:href="#DejaVuSans-32" transform="translate(385.986328 0)"/>
      </g>
     </g>
    </g>
    <g id="xtick_10">
     <g id="line2d_19">
      <path d="M 603.688995 384.48 
L 603.688995 51.84 
" clip-path="url(#p30fa9c1c1c)" style="fill: none; stroke: #b0b0b0; stroke-width: 0.8; stroke-linecap: square"/>
     </g>
     <g id="line2d_20">
      <g>
       <use xlink:href="#m61d271d317" x="603.688995" y="384.48" style="stroke: #000000; stroke-width: 0.8"/>
      </g>
     </g>
     <g id="text_10">
      <!-- 01-14 23 -->
      <g transform="translate(581.208526 399.078438) scale(0.1 -0.1)">
       <defs>
        <path id="DejaVuSans-33" d="M 2597 2516 
Q 3050 2419 3304 2112 
Q 3559 1806 3559 1356 
Q 3559 666 3084 287 
Q 2609 -91 1734 -91 
Q 1441 -91 1130 -33 
Q 819 25 488 141 
L 488 750 
Q 750 597 1062 519 
Q 1375 441 1716 441 
Q 2309 441 2620 675 
Q 2931 909 2931 1356 
Q 2931 1769 2642 2001 
Q 2353 2234 1838 2234 
L 1294 2234 
L 1294 2753 
L 1863 2753 
Q 2328 2753 2575 2939 
Q 2822 3125 2822 3475 
Q 2822 3834 2567 4026 
Q 2313 4219 1838 4219 
Q 1578 4219 1281 4162 
Q 984 4106 628 3988 
L 628 4550 
Q 988 4650 1302 4700 
Q 1616 4750 1894 4750 
Q 2613 4750 3031 4423 
Q 3450 4097 3450 3541 
Q 3450 3153 3228 2886 
Q 3006 2619 2597 2516 
z
" transform="scale(0.015625)"/>
       </defs>
       <use xlink:href="#DejaVuSans-30"/>
       <use xlink:href="#DejaVuSans-31" transform="translate(63.623047 0)"/>
       <use xlink:href="#DejaVuSans-2d" transform="translate(127.246094 0)"/>
       <use xlink:href="#DejaVuSans-31" transform="translate(163.330078 0)"/>
       <use xlink:href="#DejaVuSans-34" transform="translate(226.953125 0)"/>
       <use xlink:href="#DejaVuSans-20" transform="translate(290.576172 0)"/>
       <use xlink:href="#DejaVuSans-32" transform="translate(322.363281 0)"/>
       <use xlink:href="#DejaVuSans-33" transform="translate(385.986328 0)"/>
      </g>
     </g>
    </g>
    <g id="text_11">
     <!-- Date and Time -->
     <g transform="translate(332.230469 412.756563) scale(0.1 -0.1)">
      <defs>
       <path id="DejaVuSans-44" d="M 1259 4147 
L 1259 519 
L 2022 519 
Q 2988 519 3436 956 
Q 3884 1394 3884 2338 
Q 3884 3275 3436 3711 
Q 2988 4147 2022 4147 
L 1259 4147 
z
M 628 4666 
L 1925 4666 
Q 3281 4666 3915 4102 
Q 4550 3538 4550 2338 
Q 4550 1131 3912 565 
Q 3275 0 1925 0 
L 628 0 
L 628 4666 
z
" transform="scale(0.015625)"/>
       <path id="DejaVuSans-61" d="M 2194 1759 
Q 1497 1759 1228 1600 
Q 959 1441 959 1056 
Q 959 750 1161 570 
Q 1363 391 1709 391 
Q 2188 391 2477 730 
Q 2766 1069 2766 1631 
L 2766 1759 
L 2194 1759 
z
M 3341 1997 
L 3341 0 
L 2766 0 
L 2766 531 
Q 2569 213 2275 61 
Q 1981 -91 1556 -91 
Q 1019 -91 701 211 
Q 384 513 384 1019 
Q 384 1609 779 1909 
Q 1175 2209 1959 2209 
L 2766 2209 
L 2766 2266 
Q 2766 2663 2505 2880 
Q 2244 3097 1772 3097 
Q 1472 3097 1187 3025 
Q 903 2953 641 2809 
L 641 3341 
Q 956 3463 1253 3523 
Q 1550 3584 1831 3584 
Q 2591 3584 2966 3190 
Q 3341 2797 3341 1997 
z
" transform="scale(0.015625)"/>
       <path id="DejaVuSans-74" d="M 1172 4494 
L 1172 3500 
L 2356 3500 
L 2356 3053 
L 1172 3053 
L 1172 1153 
Q 1172 725 1289 603 
Q 1406 481 1766 481 
L 2356 481 
L 2356 0 
L 1766 0 
Q 1100 0 847 248 
Q 594 497 594 1153 
L 594 3053 
L 172 3053 
L 172 3500 
L 594 3500 
L 594 4494 
L 1172 4494 
z
" transform="scale(0.015625)"/>
       <path id="DejaVuSans-65" d="M 3597 1894 
L 3597 1613 
L 953 1613 
Q 991 1019 1311 708 
Q 1631 397 2203 397 
Q 2534 397 2845 478 
Q 3156 559 3463 722 
L 3463 178 
Q 3153 47 2828 -22 
Q 2503 -91 2169 -91 
Q 1331 -91 842 396 
Q 353 884 353 1716 
Q 353 2575 817 3079 
Q 1281 3584 2069 3584 
Q 2775 3584 3186 3129 
Q 3597 2675 3597 1894 
z
M 3022 2063 
Q 3016 2534 2758 2815 
Q 2500 3097 2075 3097 
Q 1594 3097 1305 2825 
Q 1016 2553 972 2059 
L 3022 2063 
z
" transform="scale(0.015625)"/>
       <path id="DejaVuSans-6e" d="M 3513 2113 
L 3513 0 
L 2938 0 
L 2938 2094 
Q 2938 2591 2744 2837 
Q 2550 3084 2163 3084 
Q 1697 3084 1428 2787 
Q 1159 2491 1159 1978 
L 1159 0 
L 581 0 
L 581 3500 
L 1159 3500 
L 1159 2956 
Q 1366 3272 1645 3428 
Q 1925 3584 2291 3584 
Q 2894 3584 3203 3211 
Q 3513 2838 3513 2113 
z
" transform="scale(0.015625)"/>
       <path id="DejaVuSans-64" d="M 2906 2969 
L 2906 4863 
L 3481 4863 
L 3481 0 
L 2906 0 
L 2906 525 
Q 2725 213 2448 61 
Q 2172 -91 1784 -91 
Q 1150 -91 751 415 
Q 353 922 353 1747 
Q 353 2572 751 3078 
Q 1150 3584 1784 3584 
Q 2172 3584 2448 3432 
Q 2725 3281 2906 2969 
z
M 947 1747 
Q 947 1113 1208 752 
Q 1469 391 1925 391 
Q 2381 391 2643 752 
Q 2906 1113 2906 1747 
Q 2906 2381 2643 2742 
Q 2381 3103 1925 3103 
Q 1469 3103 1208 2742 
Q 947 2381 947 1747 
z
" transform="scale(0.015625)"/>
       <path id="DejaVuSans-54" d="M -19 4666 
L 3928 4666 
L 3928 4134 
L 2272 4134 
L 2272 0 
L 1638 0 
L 1638 4134 
L -19 4134 
L -19 4666 
z
" transform="scale(0.015625)"/>
       <path id="DejaVuSans-69" d="M 603 3500 
L 1178 3500 
L 1178 0 
L 603 0 
L 603 3500 
z
M 603 4863 
L 1178 4863 
L 1178 4134 
L 603 4134 
L 603 4863 
z
" transform="scale(0.015625)"/>
       <path id="DejaVuSans-6d" d="M 3328 2828 
Q 3544 3216 3844 3400 
Q 4144 3584 4550 3584 
Q 5097 3584 5394 3201 
Q 5691 2819 5691 2113 
L 5691 0 
L 5113 0 
L 5113 2094 
Q 5113 2597 4934 2840 
Q 4756 3084 4391 3084 
Q 3944 3084 3684 2787 
Q 3425 2491 3425 1978 
L 3425 0 
L 2847 0 
L 2847 2094 
Q 2847 2600 2669 2842 
Q 2491 3084 2119 3084 
Q 1678 3084 1418 2786 
Q 1159 2488 1159 1978 
L 1159 0 
L 581 0 
L 581 3500 
L 1159 3500 
L 1159 2956 
Q 1356 3278 1631 3431 
Q 1906 3584 2284 3584 
Q 2666 3584 2933 3390 
Q 3200 3197 3328 2828 
z
" transform="scale(0.015625)"/>
      </defs>
      <use xlink:href="#DejaVuSans-44"/>
      <use xlink:href="#DejaVuSans-61" transform="translate(77.001953 0)"/>
      <use xlink:href="#DejaVuSans-74" transform="translate(138.28125 0)"/>
      <use xlink:href="#DejaVuSans-65" transform="translate(177.490234 0)"/>
      <use xlink:href="#DejaVuSans-20" transform="translate(239.013672 0)"/>
      <use xlink:href="#DejaVuSans-61" transform="translate(270.800781 0)"/>
      <use xlink:href="#DejaVuSans-6e" transform="translate(332.080078 0)"/>
      <use xlink:href="#DejaVuSans-64" transform="translate(395.458984 0)"/>
      <use xlink:href="#DejaVuSans-20" transform="translate(458.935547 0)"/>
      <use xlink:href="#DejaVuSans-54" transform="translate(490.722656 0)"/>
      <use xlink:href="#DejaVuSans-69" transform="translate(548.681641 0)"/>
      <use xlink:href="#DejaVuSans-6d" transform="translate(576.464844 0)"/>
      <use xlink:href="#DejaVuSans-65" transform="translate(673.876953 0)"/>
     </g>
    </g>
   </g>
   <g id="matplotlib.axis_2">
    <g id="ytick_1">
     <g id="line2d_21">
      <path d="M 90 370.307962 
L 648 370.307962 
" clip-path="url(#p30fa9c1c1c)" style="fill: none; stroke: #b0b0b0; stroke-width: 0.8; stroke-linecap: square"/>
     </g>
     <g id="line2d_22">
      <defs>
       <path id="m072d511c5e" d="M 0 0 
L -3.5 0 
" style="stroke: #000000; stroke-width: 0.8"/>
      </defs>
      <g>
       <use xlink:href="#m072d511c5e" x="90" y="370.307962" style="stroke: #000000; stroke-width: 0.8"/>
      </g>
     </g>
     <g id="text_12">
      <!-- 0 -->
      <g transform="translate(76.6375 374.107181) scale(0.1 -0.1)">
       <use xlink:href="#DejaVuSans-30"/>
      </g>
     </g>
    </g>
    <g id="ytick_2">
     <g id="line2d_23">
      <path d="M 90 322.909843 
L 648 322.909843 
" clip-path="url(#p30fa9c1c1c)" style="fill: none; stroke: #b0b0b0; stroke-width: 0.8; stroke-linecap: square"/>
     </g>
     <g id="line2d_24">
      <g>
       <use xlink:href="#m072d511c5e" x="90" y="322.909843" style="stroke: #000000; stroke-width: 0.8"/>
      </g>
     </g>
     <g id="text_13">
      <!-- 50 -->
      <g transform="translate(70.275 326.709062) scale(0.1 -0.1)">
       <use xlink:href="#DejaVuSans-35"/>
       <use xlink:href="#DejaVuSans-30" transform="translate(63.623047 0)"/>
      </g>
     </g>
    </g>
    <g id="ytick_3">
     <g id="line2d_25">
      <path d="M 90 275.511724 
L 648 275.511724 
" clip-path="url(#p30fa9c1c1c)" style="fill: none; stroke: #b0b0b0; stroke-width: 0.8; stroke-linecap: square"/>
     </g>
     <g id="line2d_26">
      <g>
       <use xlink:href="#m072d511c5e" x="90" y="275.511724" style="stroke: #000000; stroke-width: 0.8"/>
      </g>
     </g>
     <g id="text_14">
      <!-- 100 -->
      <g transform="translate(63.9125 279.310943) scale(0.1 -0.1)">
       <use xlink:href="#DejaVuSans-31"/>
       <use xlink:href="#DejaVuSans-30" transform="translate(63.623047 0)"/>
       <use xlink:href="#DejaVuSans-30" transform="translate(127.246094 0)"/>
      </g>
     </g>
    </g>
    <g id="ytick_4">
     <g id="line2d_27">
      <path d="M 90 228.113605 
L 648 228.113605 
" clip-path="url(#p30fa9c1c1c)" style="fill: none; stroke: #b0b0b0; stroke-width: 0.8; stroke-linecap: square"/>
     </g>
     <g id="line2d_28">
      <g>
       <use xlink:href="#m072d511c5e" x="90" y="228.113605" style="stroke: #000000; stroke-width: 0.8"/>
      </g>
     </g>
     <g id="text_15">
      <!-- 150 -->
      <g transform="translate(63.9125 231.912824) scale(0.1 -0.1)">
       <use xlink:href="#DejaVuSans-31"/>
       <use xlink:href="#DejaVuSans-35" transform="translate(63.623047 0)"/>
       <use xlink:href="#DejaVuSans-30" transform="translate(127.246094 0)"/>
      </g>
     </g>
    </g>
    <g id="ytick_5">
     <g id="line2d_29">
      <path d="M 90 180.715486 
L 648 180.715486 
" clip-path="url(#p30fa9c1c1c)" style="fill: none; stroke: #b0b0b0; stroke-width: 0.8; stroke-linecap: square"/>
     </g>
     <g id="line2d_30">
      <g>
       <use xlink:href="#m072d511c5e" x="90" y="180.715486" style="stroke: #000000; stroke-width: 0.8"/>
      </g>
     </g>
     <g id="text_16">
      <!-- 200 -->
      <g transform="translate(63.9125 184.514705) scale(0.1 -0.1)">
       <use xlink:href="#DejaVuSans-32"/>
       <use xlink:href="#DejaVuSans-30" transform="translate(63.623047 0)"/>
       <use xlink:href="#DejaVuSans-30" transform="translate(127.246094 0)"/>
      </g>
     </g>
    </g>
    <g id="ytick_6">
     <g id="line2d_31">
      <path d="M 90 133.317367 
L 648 133.317367 
" clip-path="url(#p30fa9c1c1c)" style="fill: none; stroke: #b0b0b0; stroke-width: 0.8; stroke-linecap: square"/>
     </g>
     <g id="line2d_32">
      <g>
       <use xlink:href="#m072d511c5e" x="90" y="133.317367" style="stroke: #000000; stroke-width: 0.8"/>
      </g>
     </g>
     <g id="text_17">
      <!-- 250 -->
      <g transform="translate(63.9125 137.116586) scale(0.1 -0.1)">
       <use xlink:href="#DejaVuSans-32"/>
       <use xlink:href="#DejaVuSans-35" transform="translate(63.623047 0)"/>
       <use xlink:href="#DejaVuSans-30" transform="translate(127.246094 0)"/>
      </g>
     </g>
    </g>
    <g id="ytick_7">
     <g id="line2d_33">
      <path d="M 90 85.919248 
L 648 85.919248 
" clip-path="url(#p30fa9c1c1c)" style="fill: none; stroke: #b0b0b0; stroke-width: 0.8; stroke-linecap: square"/>
     </g>
     <g id="line2d_34">
      <g>
       <use xlink:href="#m072d511c5e" x="90" y="85.919248" style="stroke: #000000; stroke-width: 0.8"/>
      </g>
     </g>
     <g id="text_18">
      <!-- 300 -->
      <g transform="translate(63.9125 89.718466) scale(0.1 -0.1)">
       <use xlink:href="#DejaVuSans-33"/>
       <use xlink:href="#DejaVuSans-30" transform="translate(63.623047 0)"/>
       <use xlink:href="#DejaVuSans-30" transform="translate(127.246094 0)"/>
      </g>
     </g>
    </g>
    <g id="text_19">
     <!-- Votes -->
     <g transform="translate(57.832812 231.893594) rotate(-90) scale(0.1 -0.1)">
      <defs>
       <path id="DejaVuSans-56" d="M 1831 0 
L 50 4666 
L 709 4666 
L 2188 738 
L 3669 4666 
L 4325 4666 
L 2547 0 
L 1831 0 
z
" transform="scale(0.015625)"/>
       <path id="DejaVuSans-6f" d="M 1959 3097 
Q 1497 3097 1228 2736 
Q 959 2375 959 1747 
Q 959 1119 1226 758 
Q 1494 397 1959 397 
Q 2419 397 2687 759 
Q 2956 1122 2956 1747 
Q 2956 2369 2687 2733 
Q 2419 3097 1959 3097 
z
M 1959 3584 
Q 2709 3584 3137 3096 
Q 3566 2609 3566 1747 
Q 3566 888 3137 398 
Q 2709 -91 1959 -91 
Q 1206 -91 779 398 
Q 353 888 353 1747 
Q 353 2609 779 3096 
Q 1206 3584 1959 3584 
z
" transform="scale(0.015625)"/>
       <path id="DejaVuSans-73" d="M 2834 3397 
L 2834 2853 
Q 2591 2978 2328 3040 
Q 2066 3103 1784 3103 
Q 1356 3103 1142 2972 
Q 928 2841 928 2578 
Q 928 2378 1081 2264 
Q 1234 2150 1697 2047 
L 1894 2003 
Q 2506 1872 2764 1633 
Q 3022 1394 3022 966 
Q 3022 478 2636 193 
Q 2250 -91 1575 -91 
Q 1294 -91 989 -36 
Q 684 19 347 128 
L 347 722 
Q 666 556 975 473 
Q 1284 391 1588 391 
Q 1994 391 2212 530 
Q 2431 669 2431 922 
Q 2431 1156 2273 1281 
Q 2116 1406 1581 1522 
L 1381 1569 
Q 847 1681 609 1914 
Q 372 2147 372 2553 
Q 372 3047 722 3315 
Q 1072 3584 1716 3584 
Q 2034 3584 2315 3537 
Q 2597 3491 2834 3397 
z
" transform="scale(0.015625)"/>
      </defs>
      <use xlink:href="#DejaVuSans-56"/>
      <use xlink:href="#DejaVuSans-6f" transform="translate(60.658203 0)"/>
      <use xlink:href="#DejaVuSans-74" transform="translate(121.839844 0)"/>
      <use xlink:href="#DejaVuSans-65" transform="translate(161.048828 0)"/>
      <use xlink:href="#DejaVuSans-73" transform="translate(222.572266 0)"/>
     </g>
    </g>
   </g>
   <g id="line2d_35">
    <path d="M 115.363636 353.244639 
L 123.976077 353.244639 
L 124.837321 352.296677 
L 133.449761 352.296677 
L 134.311005 350.400752 
L 142.062201 350.400752 
L 142.923445 349.45279 
L 147.229665 349.45279 
L 148.090909 348.504828 
L 151.535885 348.504828 
L 152.397129 347.556865 
L 154.980861 347.556865 
L 155.842105 346.608903 
L 167.899522 346.608903 
L 168.760766 345.66094 
L 178.23445 345.66094 
L 179.956938 343.765016 
L 181.679426 343.765016 
L 182.54067 342.817053 
L 190.291866 342.817053 
L 192.014354 340.921129 
L 202.349282 340.921129 
L 203.210526 339.973166 
L 205.794258 339.973166 
L 206.655502 339.025204 
L 207.516746 339.025204 
L 208.37799 338.077241 
L 231.631579 338.077241 
L 232.492823 337.129279 
L 242.827751 337.129279 
L 243.688995 336.181317 
L 249.717703 336.181317 
L 250.578947 335.233354 
L 251.440191 333.337429 
L 252.301435 333.337429 
L 254.023923 331.441505 
L 267.803828 331.441505 
L 268.665072 330.493542 
L 273.832536 330.493542 
L 274.69378 329.54558 
L 278.138756 329.54558 
L 279 328.597618 
L 287.61244 328.597618 
L 288.473684 327.649655 
L 290.196172 327.649655 
L 291.057416 326.701693 
L 293.641148 326.701693 
L 294.502392 325.75373 
L 301.392345 325.75373 
L 302.253589 324.805768 
L 303.114833 324.805768 
L 303.976077 323.857806 
L 312.588517 323.857806 
L 313.449761 322.909843 
L 319.478469 322.909843 
L 320.339713 321.961881 
L 321.200957 321.961881 
L 322.923445 320.065956 
L 341.870813 320.065956 
L 342.732057 319.117994 
L 356.511962 319.117994 
L 357.373206 318.170031 
L 358.23445 318.170031 
L 359.095694 317.222069 
L 366.84689 317.222069 
L 367.708134 316.274107 
L 368.569378 316.274107 
L 369.430622 315.326144 
L 373.736842 315.326144 
L 374.598086 314.378182 
L 377.181818 314.378182 
L 378.904306 312.482257 
L 379.76555 312.482257 
L 380.626794 311.534295 
L 382.349282 311.534295 
L 383.210526 310.586332 
L 384.933014 310.586332 
L 385.794258 309.63837 
L 387.516746 309.63837 
L 388.37799 308.690408 
L 409.047847 308.690408 
L 409.909091 307.742445 
L 418.521531 307.742445 
L 419.382775 306.794483 
L 424.550239 306.794483 
L 425.411483 305.84652 
L 426.272727 305.84652 
L 427.133971 304.898558 
L 427.995215 304.898558 
L 431.440191 301.106708 
L 433.162679 301.106708 
L 434.023923 299.210784 
L 440.913876 299.210784 
L 442.636364 297.314859 
L 444.358852 297.314859 
L 445.220096 296.366897 
L 448.665072 296.366897 
L 449.526316 295.418934 
L 455.555024 295.418934 
L 456.416268 294.470972 
L 458.138756 294.470972 
L 459 293.523009 
L 464.167464 293.523009 
L 465.889952 291.627085 
L 471.91866 291.627085 
L 472.779904 290.679122 
L 475.363636 290.679122 
L 476.22488 289.73116 
L 477.947368 289.73116 
L 478.808612 287.835235 
L 482.253589 287.835235 
L 483.114833 285.93931 
L 483.976077 284.991348 
L 487.421053 284.991348 
L 488.282297 283.095423 
L 494.311005 283.095423 
L 495.172249 282.147461 
L 498.617225 282.147461 
L 499.478469 281.199498 
L 502.062201 281.199498 
L 502.923445 280.251536 
L 503.784689 278.355611 
L 505.507177 278.355611 
L 506.368421 277.407649 
L 520.148325 277.407649 
L 521.870813 275.511724 
L 533.92823 275.511724 
L 534.789474 274.563762 
L 539.956938 274.563762 
L 540.818182 273.615799 
L 552.014354 273.615799 
L 552.875598 272.667837 
L 560.626794 272.667837 
L 561.488038 271.719875 
L 583.880383 271.719875 
L 584.741627 270.771912 
L 622.636364 270.771912 
L 622.636364 270.771912 
" clip-path="url(#p30fa9c1c1c)" style="fill: none; stroke: #1f77b4; stroke-width: 1.5; stroke-linecap: square"/>
   </g>
   <g id="line2d_36">
    <path d="M 115.363636 292.575047 
L 116.22488 291.627085 
L 118.808612 291.627085 
L 119.669856 290.679122 
L 120.5311 290.679122 
L 121.392345 289.73116 
L 122.253589 289.73116 
L 123.976077 287.835235 
L 124.837321 285.93931 
L 125.698565 285.93931 
L 127.421053 284.043386 
L 128.282297 284.043386 
L 129.143541 280.251536 
L 130.004785 278.355611 
L 130.866029 274.563762 
L 131.727273 271.719875 
L 134.311005 271.719875 
L 135.172249 268.875987 
L 136.033493 266.980063 
L 137.755981 265.084138 
L 138.617225 263.188213 
L 140.339713 261.292288 
L 141.200957 259.396364 
L 143.784689 259.396364 
L 144.645933 254.656552 
L 145.507177 252.760627 
L 146.368421 251.812665 
L 147.229665 249.91674 
L 148.090909 248.968777 
L 148.952153 248.968777 
L 149.813397 246.12489 
L 150.674641 246.12489 
L 151.535885 244.228966 
L 152.397129 243.281003 
L 153.258373 243.281003 
L 154.119617 242.333041 
L 155.842105 242.333041 
L 156.703349 241.385078 
L 158.425837 241.385078 
L 159.287081 239.489154 
L 160.148325 239.489154 
L 161.009569 238.541191 
L 164.454545 238.541191 
L 165.315789 237.593229 
L 167.899522 237.593229 
L 168.760766 236.645266 
L 169.62201 236.645266 
L 170.483254 234.749342 
L 171.344498 234.749342 
L 172.205742 232.853417 
L 173.066986 231.905455 
L 175.650718 231.905455 
L 176.511962 230.00953 
L 177.373206 229.061567 
L 178.23445 226.21768 
L 179.956938 224.321755 
L 186.84689 224.321755 
L 187.708134 221.477868 
L 188.569378 221.477868 
L 190.291866 219.581944 
L 191.15311 219.581944 
L 193.736842 216.738056 
L 195.45933 216.738056 
L 196.320574 215.790094 
L 198.043062 215.790094 
L 200.626794 212.946207 
L 202.349282 212.946207 
L 203.210526 211.998245 
L 207.516746 211.998245 
L 208.37799 211.050282 
L 210.100478 211.050282 
L 210.961722 210.10232 
L 221.296651 210.10232 
L 222.157895 208.206395 
L 223.880383 208.206395 
L 225.602871 206.31047 
L 226.464115 206.31047 
L 227.325359 205.362508 
L 232.492823 205.362508 
L 235.076555 202.518621 
L 235.937799 202.518621 
L 236.799043 201.570658 
L 237.660287 199.674734 
L 238.521531 199.674734 
L 239.382775 198.726771 
L 240.244019 198.726771 
L 243.688995 194.934922 
L 245.411483 194.934922 
L 246.272727 193.038997 
L 248.856459 193.038997 
L 249.717703 192.091034 
L 252.301435 192.091034 
L 253.162679 191.143072 
L 254.023923 191.143072 
L 254.885167 188.299185 
L 257.4689 188.299185 
L 258.330144 187.351223 
L 259.191388 185.455298 
L 260.913876 185.455298 
L 261.77512 184.507335 
L 263.497608 184.507335 
L 264.358852 183.559373 
L 265.220096 183.559373 
L 269.526316 178.819561 
L 271.248804 178.819561 
L 273.832536 175.975674 
L 276.416268 175.975674 
L 277.277512 174.079749 
L 278.138756 174.079749 
L 279 173.131787 
L 281.583732 173.131787 
L 282.444976 172.183824 
L 290.196172 172.183824 
L 291.057416 171.235862 
L 297.086124 171.235862 
L 297.947368 170.2879 
L 299.669856 170.2879 
L 301.392345 168.391975 
L 305.698565 168.391975 
L 306.559809 167.444013 
L 310.866029 167.444013 
L 313.449761 164.600125 
L 324.645933 164.600125 
L 325.507177 162.704201 
L 326.368421 161.756238 
L 347.038278 161.756238 
L 347.899522 160.808276 
L 353.066986 160.808276 
L 354.789474 158.912351 
L 356.511962 158.912351 
L 357.373206 157.964389 
L 358.23445 157.964389 
L 359.956938 156.068464 
L 360.818182 156.068464 
L 361.679426 155.120502 
L 362.54067 155.120502 
L 364.263158 151.328652 
L 365.124402 150.38069 
L 369.430622 150.38069 
L 370.291866 147.536803 
L 371.15311 145.640878 
L 372.875598 145.640878 
L 374.598086 143.744953 
L 378.904306 143.744953 
L 380.626794 141.849028 
L 382.349282 141.849028 
L 383.210526 140.901066 
L 384.933014 140.901066 
L 385.794258 139.953103 
L 386.655502 139.953103 
L 387.516746 139.005141 
L 388.37799 139.005141 
L 389.239234 138.057179 
L 390.100478 138.057179 
L 390.961722 137.109216 
L 392.684211 137.109216 
L 393.545455 135.213292 
L 397.851675 135.213292 
L 399.574163 133.317367 
L 408.186603 133.317367 
L 409.047847 132.369404 
L 409.909091 132.369404 
L 410.770335 131.421442 
L 411.631579 131.421442 
L 414.215311 128.577555 
L 415.937799 128.577555 
L 416.799043 127.629592 
L 434.023923 127.629592 
L 435.746411 125.733668 
L 439.191388 125.733668 
L 440.052632 124.785705 
L 440.913876 124.785705 
L 441.77512 123.837743 
L 442.636364 123.837743 
L 443.497608 122.889781 
L 462.444976 122.889781 
L 463.30622 121.941818 
L 480.5311 121.941818 
L 481.392345 120.045893 
L 487.421053 120.045893 
L 489.143541 118.149969 
L 490.866029 118.149969 
L 491.727273 117.202006 
L 493.449761 117.202006 
L 495.172249 115.306082 
L 496.894737 115.306082 
L 497.755981 113.410157 
L 504.645933 113.410157 
L 505.507177 112.462194 
L 509.813397 112.462194 
L 510.674641 111.514232 
L 515.842105 111.514232 
L 516.703349 110.56627 
L 522.732057 110.56627 
L 524.454545 108.670345 
L 525.315789 108.670345 
L 526.177033 107.722382 
L 531.344498 107.722382 
L 532.205742 106.77442 
L 535.650718 106.77442 
L 536.511962 105.826458 
L 537.373206 105.826458 
L 538.23445 104.878495 
L 551.15311 104.878495 
L 553.736842 102.034608 
L 563.210526 102.034608 
L 564.07177 101.086646 
L 567.516746 101.086646 
L 568.37799 99.190721 
L 577.851675 99.190721 
L 578.712919 97.294796 
L 590.770335 97.294796 
L 591.631579 96.346834 
L 604.550239 96.346834 
L 605.411483 94.450909 
L 614.885167 94.450909 
L 615.746411 93.502947 
L 622.636364 93.502947 
L 622.636364 93.502947 
" clip-path="url(#p30fa9c1c1c)" style="fill: none; stroke: #ff7f0e; stroke-width: 1.5; stroke-linecap: square"/>
   </g>
   <g id="line2d_37">
    <path d="M 115.363636 340.921129 
L 118.808612 340.921129 
L 119.669856 339.025204 
L 121.392345 339.025204 
L 122.253589 338.077241 
L 123.114833 336.181317 
L 123.976077 335.233354 
L 124.837321 332.389467 
L 125.698565 330.493542 
L 126.559809 329.54558 
L 127.421053 329.54558 
L 128.282297 327.649655 
L 129.143541 324.805768 
L 132.588517 324.805768 
L 133.449761 323.857806 
L 134.311005 323.857806 
L 135.172249 321.961881 
L 137.755981 321.961881 
L 139.478469 320.065956 
L 142.923445 320.065956 
L 143.784689 319.117994 
L 147.229665 319.117994 
L 149.813397 316.274107 
L 154.119617 316.274107 
L 154.980861 315.326144 
L 157.564593 315.326144 
L 158.425837 314.378182 
L 160.148325 314.378182 
L 161.009569 312.482257 
L 167.899522 312.482257 
L 168.760766 311.534295 
L 169.62201 309.63837 
L 170.483254 308.690408 
L 171.344498 308.690408 
L 172.205742 307.742445 
L 173.92823 307.742445 
L 174.789474 306.794483 
L 176.511962 306.794483 
L 177.373206 305.84652 
L 182.54067 305.84652 
L 183.401914 304.898558 
L 184.263158 304.898558 
L 185.124402 303.950596 
L 185.985646 303.950596 
L 186.84689 303.002633 
L 189.430622 303.002633 
L 190.291866 302.054671 
L 191.15311 300.158746 
L 195.45933 300.158746 
L 198.043062 297.314859 
L 200.626794 297.314859 
L 201.488038 296.366897 
L 204.933014 296.366897 
L 205.794258 295.418934 
L 206.655502 295.418934 
L 207.516746 294.470972 
L 209.239234 294.470972 
L 210.100478 293.523009 
L 212.684211 293.523009 
L 214.406699 291.627085 
L 215.267943 291.627085 
L 216.129187 290.679122 
L 223.019139 290.679122 
L 223.880383 288.783197 
L 224.741627 287.835235 
L 231.631579 287.835235 
L 232.492823 286.887273 
L 235.076555 286.887273 
L 235.937799 285.93931 
L 238.521531 285.93931 
L 239.382775 284.991348 
L 247.995215 284.991348 
L 248.856459 284.043386 
L 252.301435 284.043386 
L 253.162679 283.095423 
L 258.330144 283.095423 
L 259.191388 282.147461 
L 260.913876 282.147461 
L 261.77512 281.199498 
L 265.220096 281.199498 
L 266.942584 279.303574 
L 283.30622 279.303574 
L 284.167464 278.355611 
L 285.028708 278.355611 
L 285.889952 277.407649 
L 288.473684 277.407649 
L 289.334928 276.459687 
L 293.641148 276.459687 
L 294.502392 275.511724 
L 296.22488 275.511724 
L 297.086124 274.563762 
L 302.253589 274.563762 
L 303.114833 275.511724 
L 303.976077 274.563762 
L 310.004785 274.563762 
L 310.866029 273.615799 
L 317.755981 273.615799 
L 318.617225 272.667837 
L 320.339713 272.667837 
L 321.200957 271.719875 
L 322.062201 271.719875 
L 322.923445 270.771912 
L 328.952153 270.771912 
L 329.813397 269.82395 
L 334.980861 269.82395 
L 335.842105 268.875987 
L 348.760766 268.875987 
L 349.62201 267.928025 
L 368.569378 267.928025 
L 369.430622 266.980063 
L 378.043062 266.980063 
L 378.904306 266.0321 
L 392.684211 266.0321 
L 394.406699 264.136176 
L 409.909091 264.136176 
L 410.770335 263.188213 
L 411.631579 261.292288 
L 428.856459 261.292288 
L 429.717703 260.344326 
L 431.440191 260.344326 
L 432.301435 259.396364 
L 437.4689 259.396364 
L 438.330144 258.448401 
L 440.913876 258.448401 
L 442.636364 256.552476 
L 444.358852 256.552476 
L 445.220096 255.604514 
L 448.665072 255.604514 
L 449.526316 253.708589 
L 452.110048 253.708589 
L 452.971292 252.760627 
L 453.832536 252.760627 
L 455.555024 250.864702 
L 466.751196 250.864702 
L 467.61244 249.91674 
L 477.947368 249.91674 
L 478.808612 248.020815 
L 485.698565 248.020815 
L 487.421053 246.12489 
L 496.033493 246.12489 
L 498.617225 243.281003 
L 501.200957 243.281003 
L 502.062201 242.333041 
L 503.784689 242.333041 
L 504.645933 241.385078 
L 512.397129 241.385078 
L 513.258373 240.437116 
L 521.009569 240.437116 
L 521.870813 239.489154 
L 527.899522 239.489154 
L 529.62201 237.593229 
L 535.650718 237.593229 
L 536.511962 236.645266 
L 545.124402 236.645266 
L 545.985646 235.697304 
L 546.84689 235.697304 
L 547.708134 234.749342 
L 558.043062 234.749342 
L 558.904306 233.801379 
L 561.488038 233.801379 
L 562.349282 232.853417 
L 574.406699 232.853417 
L 575.267943 231.905455 
L 589.047847 231.905455 
L 589.909091 230.00953 
L 602.827751 230.00953 
L 603.688995 228.113605 
L 622.636364 228.113605 
L 622.636364 228.113605 
" clip-path="url(#p30fa9c1c1c)" style="fill: none; stroke: #2ca02c; stroke-width: 1.5; stroke-linecap: square"/>
   </g>
   <g id="line2d_38">
    <path d="M 115.363636 369.36 
L 328.090909 369.36 
L 328.952153 368.412038 
L 511.535885 368.412038 
L 512.397129 367.464075 
L 622.636364 367.464075 
L 622.636364 367.464075 
" clip-path="url(#p30fa9c1c1c)" style="fill: none; stroke: #d62728; stroke-width: 1.5; stroke-linecap: square"/>
   </g>
   <g id="line2d_39">
    <path d="M 115.363636 348.504828 
L 117.947368 348.504828 
L 118.808612 347.556865 
L 123.976077 347.556865 
L 124.837321 346.608903 
L 130.004785 346.608903 
L 130.866029 345.66094 
L 149.813397 345.66094 
L 150.674641 344.712978 
L 181.679426 344.712978 
L 183.401914 342.817053 
L 190.291866 342.817053 
L 191.15311 341.869091 
L 194.598086 341.869091 
L 195.45933 340.921129 
L 197.181818 340.921129 
L 198.043062 339.973166 
L 220.435407 339.973166 
L 221.296651 339.025204 
L 256.607656 339.025204 
L 257.4689 338.077241 
L 369.430622 338.077241 
L 370.291866 337.129279 
L 371.15311 337.129279 
L 372.014354 336.181317 
L 426.272727 336.181317 
L 427.133971 335.233354 
L 564.933014 335.233354 
L 565.794258 334.285392 
L 605.411483 334.285392 
L 606.272727 333.337429 
L 622.636364 333.337429 
L 622.636364 333.337429 
" clip-path="url(#p30fa9c1c1c)" style="fill: none; stroke: #9467bd; stroke-width: 1.5; stroke-linecap: square"/>
   </g>
   <g id="line2d_40">
    <path d="M 115.363636 356.088527 
L 116.22488 356.088527 
L 117.086124 355.140564 
L 129.143541 355.140564 
L 130.004785 354.192602 
L 140.339713 354.192602 
L 141.200957 353.244639 
L 154.119617 353.244639 
L 155.842105 351.348715 
L 165.315789 351.348715 
L 166.177033 350.400752 
L 192.014354 350.400752 
L 192.875598 349.45279 
L 200.626794 349.45279 
L 201.488038 348.504828 
L 216.129187 348.504828 
L 216.990431 347.556865 
L 230.770335 347.556865 
L 231.631579 346.608903 
L 235.076555 346.608903 
L 235.937799 345.66094 
L 243.688995 345.66094 
L 244.550239 344.712978 
L 265.220096 344.712978 
L 266.08134 343.765016 
L 271.248804 343.765016 
L 272.110048 342.817053 
L 277.277512 342.817053 
L 278.138756 341.869091 
L 281.583732 341.869091 
L 282.444976 340.921129 
L 314.311005 340.921129 
L 315.172249 339.973166 
L 340.148325 339.973166 
L 341.009569 339.025204 
L 390.961722 339.025204 
L 391.822967 338.077241 
L 415.937799 338.077241 
L 416.799043 337.129279 
L 427.995215 337.129279 
L 428.856459 336.181317 
L 622.636364 336.181317 
L 622.636364 336.181317 
" clip-path="url(#p30fa9c1c1c)" style="fill: none; stroke: #8c564b; stroke-width: 1.5; stroke-linecap: square"/>
   </g>
   <g id="line2d_41">
    <path d="M 115.363636 285.93931 
L 118.808612 285.93931 
L 119.669856 284.991348 
L 123.114833 284.991348 
L 124.837321 283.095423 
L 125.698565 283.095423 
L 126.559809 282.147461 
L 127.421053 282.147461 
L 128.282297 281.199498 
L 130.004785 281.199498 
L 130.866029 280.251536 
L 133.449761 280.251536 
L 134.311005 279.303574 
L 136.033493 279.303574 
L 136.894737 278.355611 
L 137.755981 278.355611 
L 138.617225 277.407649 
L 140.339713 277.407649 
L 142.062201 275.511724 
L 145.507177 275.511724 
L 146.368421 274.563762 
L 148.952153 274.563762 
L 150.674641 272.667837 
L 152.397129 272.667837 
L 153.258373 271.719875 
L 154.980861 271.719875 
L 155.842105 270.771912 
L 156.703349 268.875987 
L 157.564593 266.0321 
L 159.287081 266.0321 
L 160.148325 265.084138 
L 164.454545 265.084138 
L 166.177033 263.188213 
L 167.038278 261.292288 
L 167.899522 260.344326 
L 168.760766 260.344326 
L 169.62201 258.448401 
L 173.066986 258.448401 
L 173.92823 257.500439 
L 174.789474 257.500439 
L 176.511962 255.604514 
L 177.373206 255.604514 
L 178.23445 254.656552 
L 179.095694 254.656552 
L 180.818182 252.760627 
L 182.54067 252.760627 
L 183.401914 250.864702 
L 186.84689 250.864702 
L 188.569378 248.968777 
L 190.291866 248.968777 
L 191.15311 248.020815 
L 192.014354 246.12489 
L 194.598086 246.12489 
L 195.45933 245.176928 
L 196.320574 245.176928 
L 197.181818 243.281003 
L 198.043062 243.281003 
L 198.904306 242.333041 
L 199.76555 242.333041 
L 200.626794 241.385078 
L 204.07177 241.385078 
L 205.794258 239.489154 
L 206.655502 239.489154 
L 207.516746 237.593229 
L 208.37799 237.593229 
L 209.239234 236.645266 
L 210.100478 236.645266 
L 210.961722 235.697304 
L 213.545455 235.697304 
L 214.406699 234.749342 
L 215.267943 234.749342 
L 218.712919 230.957492 
L 219.574163 229.061567 
L 221.296651 229.061567 
L 223.019139 225.269718 
L 224.741627 225.269718 
L 226.464115 223.373793 
L 227.325359 223.373793 
L 228.186603 221.477868 
L 229.047847 221.477868 
L 229.909091 220.529906 
L 230.770335 220.529906 
L 231.631579 219.581944 
L 233.354067 219.581944 
L 234.215311 218.633981 
L 235.076555 218.633981 
L 235.937799 217.686019 
L 239.382775 217.686019 
L 240.244019 212.946207 
L 241.105263 212.946207 
L 241.966507 211.998245 
L 244.550239 211.998245 
L 245.411483 211.050282 
L 253.162679 211.050282 
L 254.023923 209.154357 
L 257.4689 209.154357 
L 258.330144 208.206395 
L 266.942584 208.206395 
L 267.803828 206.31047 
L 268.665072 205.362508 
L 272.971292 205.362508 
L 273.832536 204.414545 
L 279.861244 204.414545 
L 280.722488 203.466583 
L 281.583732 203.466583 
L 282.444976 202.518621 
L 287.61244 202.518621 
L 289.334928 200.622696 
L 295.363636 200.622696 
L 297.086124 198.726771 
L 297.947368 198.726771 
L 298.808612 197.778809 
L 303.976077 197.778809 
L 304.837321 196.830846 
L 307.421053 196.830846 
L 308.282297 195.882884 
L 309.143541 193.986959 
L 311.727273 193.986959 
L 312.588517 193.038997 
L 313.449761 193.038997 
L 315.172249 191.143072 
L 318.617225 191.143072 
L 319.478469 190.19511 
L 322.923445 190.19511 
L 323.784689 189.247147 
L 326.368421 189.247147 
L 327.229665 188.299185 
L 334.119617 188.299185 
L 335.842105 186.40326 
L 340.148325 186.40326 
L 341.009569 185.455298 
L 344.454545 185.455298 
L 348.760766 180.715486 
L 350.483254 180.715486 
L 351.344498 179.767524 
L 352.205742 179.767524 
L 353.066986 177.871599 
L 354.789474 175.975674 
L 356.511962 172.183824 
L 358.23445 172.183824 
L 359.956938 168.391975 
L 361.679426 168.391975 
L 362.54067 166.49605 
L 364.263158 164.600125 
L 366.84689 164.600125 
L 367.708134 163.652163 
L 368.569378 163.652163 
L 370.291866 161.756238 
L 373.736842 161.756238 
L 374.598086 160.808276 
L 376.320574 160.808276 
L 377.181818 159.860313 
L 381.488038 159.860313 
L 382.349282 157.964389 
L 383.210526 157.016426 
L 384.07177 157.016426 
L 384.933014 156.068464 
L 386.655502 156.068464 
L 387.516746 155.120502 
L 389.239234 155.120502 
L 390.100478 153.224577 
L 391.822967 153.224577 
L 392.684211 152.276614 
L 393.545455 152.276614 
L 394.406699 151.328652 
L 398.712919 151.328652 
L 399.574163 150.38069 
L 403.880383 150.38069 
L 404.741627 149.432727 
L 405.602871 149.432727 
L 406.464115 147.536803 
L 408.186603 145.640878 
L 409.047847 142.796991 
L 409.909091 141.849028 
L 410.770335 141.849028 
L 411.631579 140.901066 
L 412.492823 140.901066 
L 413.354067 139.953103 
L 416.799043 139.953103 
L 417.660287 139.005141 
L 419.382775 139.005141 
L 420.244019 138.057179 
L 421.966507 138.057179 
L 423.688995 136.161254 
L 426.272727 136.161254 
L 427.133971 135.213292 
L 431.440191 135.213292 
L 432.301435 133.317367 
L 436.607656 133.317367 
L 437.4689 132.369404 
L 440.052632 132.369404 
L 440.913876 130.47348 
L 444.358852 130.47348 
L 445.220096 129.525517 
L 452.971292 129.525517 
L 453.832536 128.577555 
L 455.555024 128.577555 
L 456.416268 127.629592 
L 462.444976 127.629592 
L 463.30622 126.68163 
L 464.167464 126.68163 
L 465.028708 125.733668 
L 465.889952 125.733668 
L 466.751196 124.785705 
L 471.91866 124.785705 
L 473.641148 122.889781 
L 485.698565 122.889781 
L 486.559809 121.941818 
L 487.421053 121.941818 
L 489.143541 120.045893 
L 490.004785 120.045893 
L 490.866029 119.097931 
L 501.200957 119.097931 
L 502.062201 118.149969 
L 502.923445 116.254044 
L 504.645933 116.254044 
L 505.507177 115.306082 
L 509.813397 115.306082 
L 510.674641 114.358119 
L 511.535885 114.358119 
L 513.258373 112.462194 
L 517.564593 112.462194 
L 518.425837 111.514232 
L 521.009569 111.514232 
L 521.870813 110.56627 
L 523.593301 110.56627 
L 524.454545 109.618307 
L 526.177033 109.618307 
L 527.038278 108.670345 
L 527.899522 108.670345 
L 528.760766 106.77442 
L 534.789474 106.77442 
L 535.650718 103.930533 
L 536.511962 102.034608 
L 537.373206 102.034608 
L 540.818182 98.242759 
L 541.679426 96.346834 
L 543.401914 96.346834 
L 544.263158 94.450909 
L 551.15311 94.450909 
L 552.875598 92.554984 
L 553.736842 90.65906 
L 554.598086 89.711097 
L 557.181818 89.711097 
L 558.043062 87.815172 
L 558.904306 86.86721 
L 559.76555 86.86721 
L 560.626794 84.023323 
L 561.488038 83.075361 
L 565.794258 83.075361 
L 566.655502 81.179436 
L 567.516746 81.179436 
L 568.37799 80.231473 
L 570.961722 80.231473 
L 571.822967 78.335549 
L 573.545455 78.335549 
L 574.406699 77.387586 
L 575.267943 77.387586 
L 576.129187 76.439624 
L 576.990431 73.595737 
L 578.712919 73.595737 
L 580.435407 71.699812 
L 590.770335 71.699812 
L 591.631579 70.75185 
L 592.492823 70.75185 
L 594.215311 68.855925 
L 600.244019 68.855925 
L 601.105263 67.907962 
L 616.607656 67.907962 
L 617.4689 66.96 
L 622.636364 66.96 
L 622.636364 66.96 
" clip-path="url(#p30fa9c1c1c)" style="fill: none; stroke: #e377c2; stroke-width: 1.5; stroke-linecap: square"/>
   </g>
   <g id="line2d_42">
    <path d="M 115.363636 344.712978 
L 116.22488 344.712978 
L 117.947368 342.817053 
L 122.253589 342.817053 
L 123.114833 341.869091 
L 123.976077 341.869091 
L 125.698565 339.973166 
L 127.421053 339.973166 
L 128.282297 339.025204 
L 130.866029 339.025204 
L 131.727273 338.077241 
L 132.588517 338.077241 
L 133.449761 337.129279 
L 134.311005 337.129279 
L 136.033493 335.233354 
L 138.617225 335.233354 
L 139.478469 334.285392 
L 141.200957 334.285392 
L 142.923445 332.389467 
L 144.645933 332.389467 
L 146.368421 330.493542 
L 147.229665 330.493542 
L 148.090909 329.54558 
L 148.952153 326.701693 
L 152.397129 326.701693 
L 155.842105 322.909843 
L 156.703349 322.909843 
L 158.425837 321.013918 
L 159.287081 321.013918 
L 160.148325 320.065956 
L 161.009569 320.065956 
L 161.870813 319.117994 
L 169.62201 319.117994 
L 170.483254 318.170031 
L 179.095694 318.170031 
L 180.818182 316.274107 
L 183.401914 316.274107 
L 184.263158 315.326144 
L 185.985646 315.326144 
L 187.708134 313.430219 
L 189.430622 313.430219 
L 190.291866 311.534295 
L 192.875598 311.534295 
L 193.736842 309.63837 
L 194.598086 308.690408 
L 198.904306 308.690408 
L 199.76555 307.742445 
L 200.626794 307.742445 
L 202.349282 305.84652 
L 206.655502 305.84652 
L 207.516746 304.898558 
L 208.37799 304.898558 
L 209.239234 303.950596 
L 214.406699 303.950596 
L 215.267943 303.002633 
L 217.851675 303.002633 
L 218.712919 302.054671 
L 219.574163 302.054671 
L 220.435407 299.210784 
L 221.296651 299.210784 
L 222.157895 297.314859 
L 223.019139 296.366897 
L 223.880383 296.366897 
L 225.602871 294.470972 
L 227.325359 294.470972 
L 228.186603 293.523009 
L 229.909091 293.523009 
L 230.770335 292.575047 
L 231.631579 292.575047 
L 232.492823 290.679122 
L 233.354067 290.679122 
L 234.215311 289.73116 
L 235.937799 289.73116 
L 237.660287 287.835235 
L 238.521531 287.835235 
L 239.382775 285.93931 
L 240.244019 284.991348 
L 246.272727 284.991348 
L 247.133971 283.095423 
L 249.717703 283.095423 
L 250.578947 282.147461 
L 251.440191 282.147461 
L 252.301435 281.199498 
L 254.885167 281.199498 
L 255.746411 280.251536 
L 260.052632 280.251536 
L 260.913876 279.303574 
L 262.636364 279.303574 
L 263.497608 278.355611 
L 267.803828 278.355611 
L 268.665072 277.407649 
L 276.416268 277.407649 
L 278.138756 275.511724 
L 279 275.511724 
L 279.861244 274.563762 
L 280.722488 274.563762 
L 281.583732 273.615799 
L 282.444976 273.615799 
L 283.30622 272.667837 
L 285.028708 272.667837 
L 285.889952 271.719875 
L 286.751196 271.719875 
L 288.473684 269.82395 
L 291.057416 269.82395 
L 291.91866 268.875987 
L 294.502392 268.875987 
L 295.363636 267.928025 
L 301.392345 267.928025 
L 302.253589 266.980063 
L 303.114833 266.980063 
L 303.976077 266.0321 
L 307.421053 266.0321 
L 308.282297 264.136176 
L 313.449761 264.136176 
L 314.311005 263.188213 
L 315.172249 263.188213 
L 316.033493 261.292288 
L 320.339713 261.292288 
L 321.200957 260.344326 
L 326.368421 260.344326 
L 327.229665 259.396364 
L 338.425837 259.396364 
L 339.287081 258.448401 
L 352.205742 258.448401 
L 353.066986 257.500439 
L 357.373206 257.500439 
L 358.23445 256.552476 
L 359.095694 256.552476 
L 359.956938 255.604514 
L 360.818182 255.604514 
L 361.679426 253.708589 
L 362.54067 253.708589 
L 364.263158 251.812665 
L 370.291866 251.812665 
L 371.15311 250.864702 
L 372.014354 250.864702 
L 372.875598 249.91674 
L 373.736842 249.91674 
L 374.598086 248.968777 
L 378.904306 248.968777 
L 379.76555 248.020815 
L 387.516746 248.020815 
L 388.37799 247.072853 
L 392.684211 247.072853 
L 393.545455 246.12489 
L 397.851675 246.12489 
L 398.712919 245.176928 
L 400.435407 245.176928 
L 403.019139 242.333041 
L 404.741627 242.333041 
L 405.602871 240.437116 
L 409.909091 240.437116 
L 411.631579 238.541191 
L 413.354067 238.541191 
L 414.215311 237.593229 
L 415.076555 237.593229 
L 416.799043 235.697304 
L 422.827751 235.697304 
L 423.688995 234.749342 
L 425.411483 234.749342 
L 426.272727 233.801379 
L 433.162679 233.801379 
L 434.885167 231.905455 
L 437.4689 231.905455 
L 438.330144 230.957492 
L 439.191388 230.957492 
L 440.052632 228.113605 
L 440.913876 227.165643 
L 444.358852 227.165643 
L 445.220096 225.269718 
L 447.803828 225.269718 
L 448.665072 224.321755 
L 457.277512 224.321755 
L 458.138756 223.373793 
L 466.751196 223.373793 
L 468.473684 221.477868 
L 474.502392 221.477868 
L 475.363636 220.529906 
L 490.004785 220.529906 
L 493.449761 216.738056 
L 496.894737 216.738056 
L 497.755981 215.790094 
L 504.645933 215.790094 
L 505.507177 214.842132 
L 508.090909 214.842132 
L 508.952153 213.894169 
L 509.813397 213.894169 
L 510.674641 212.946207 
L 515.842105 212.946207 
L 517.564593 211.050282 
L 519.287081 211.050282 
L 520.148325 210.10232 
L 524.454545 210.10232 
L 525.315789 209.154357 
L 526.177033 209.154357 
L 527.038278 207.258433 
L 536.511962 207.258433 
L 538.23445 205.362508 
L 540.818182 205.362508 
L 541.679426 204.414545 
L 545.985646 204.414545 
L 546.84689 203.466583 
L 552.875598 203.466583 
L 553.736842 202.518621 
L 567.516746 202.518621 
L 568.37799 201.570658 
L 569.239234 201.570658 
L 570.100478 199.674734 
L 600.244019 199.674734 
L 601.105263 197.778809 
L 604.550239 197.778809 
L 605.411483 196.830846 
L 607.995215 196.830846 
L 608.856459 195.882884 
L 622.636364 195.882884 
L 622.636364 195.882884 
" clip-path="url(#p30fa9c1c1c)" style="fill: none; stroke: #7f7f7f; stroke-width: 1.5; stroke-linecap: square"/>
   </g>
   <g id="line2d_43">
    <path d="M 115.363636 350.400752 
L 118.808612 350.400752 
L 119.669856 349.45279 
L 128.282297 349.45279 
L 129.143541 348.504828 
L 133.449761 348.504828 
L 134.311005 347.556865 
L 142.923445 347.556865 
L 143.784689 346.608903 
L 152.397129 346.608903 
L 153.258373 345.66094 
L 199.76555 345.66094 
L 200.626794 344.712978 
L 204.933014 344.712978 
L 205.794258 343.765016 
L 211.822967 343.765016 
L 212.684211 342.817053 
L 213.545455 342.817053 
L 214.406699 339.973166 
L 215.267943 339.025204 
L 216.990431 339.025204 
L 217.851675 338.077241 
L 226.464115 338.077241 
L 227.325359 337.129279 
L 235.076555 337.129279 
L 235.937799 336.181317 
L 245.411483 336.181317 
L 246.272727 335.233354 
L 256.607656 335.233354 
L 257.4689 334.285392 
L 261.77512 334.285392 
L 262.636364 333.337429 
L 290.196172 333.337429 
L 291.057416 332.389467 
L 292.779904 332.389467 
L 293.641148 331.441505 
L 300.5311 331.441505 
L 301.392345 330.493542 
L 325.507177 330.493542 
L 328.090909 327.649655 
L 353.066986 327.649655 
L 353.92823 326.701693 
L 354.789474 326.701693 
L 356.511962 324.805768 
L 358.23445 324.805768 
L 359.095694 323.857806 
L 403.019139 323.857806 
L 403.880383 322.909843 
L 453.832536 322.909843 
L 454.69378 321.961881 
L 490.866029 321.961881 
L 491.727273 321.013918 
L 496.033493 321.013918 
L 496.894737 320.065956 
L 508.952153 320.065956 
L 509.813397 319.117994 
L 527.038278 319.117994 
L 527.899522 318.170031 
L 611.440191 318.170031 
L 612.301435 317.222069 
L 622.636364 317.222069 
L 622.636364 317.222069 
" clip-path="url(#p30fa9c1c1c)" style="fill: none; stroke: #bcbd22; stroke-width: 1.5; stroke-linecap: square"/>
   </g>
   <g id="line2d_44">
    <path d="M 115.363636 367.464075 
L 158.425837 367.464075 
L 159.287081 366.516113 
L 213.545455 366.516113 
L 214.406699 365.56815 
L 302.253589 365.56815 
L 303.114833 364.620188 
L 303.976077 365.56815 
L 408.186603 365.56815 
L 409.047847 364.620188 
L 415.076555 364.620188 
L 415.937799 363.672226 
L 437.4689 363.672226 
L 438.330144 362.724263 
L 622.636364 362.724263 
L 622.636364 362.724263 
" clip-path="url(#p30fa9c1c1c)" style="fill: none; stroke: #17becf; stroke-width: 1.5; stroke-linecap: square"/>
   </g>
   <g id="line2d_45">
    <path d="M 115.363636 369.36 
L 116.22488 368.412038 
L 117.947368 368.412038 
L 118.808612 367.464075 
L 124.837321 367.464075 
L 125.698565 366.516113 
L 128.282297 366.516113 
L 129.143541 365.56815 
L 130.004785 365.56815 
L 131.727273 363.672226 
L 136.033493 363.672226 
L 137.755981 361.776301 
L 138.617225 361.776301 
L 139.478469 360.828339 
L 145.507177 360.828339 
L 146.368421 359.880376 
L 147.229665 357.984451 
L 148.952153 357.984451 
L 149.813397 357.036489 
L 150.674641 357.036489 
L 151.535885 356.088527 
L 152.397129 356.088527 
L 153.258373 355.140564 
L 154.119617 355.140564 
L 155.842105 353.244639 
L 161.009569 353.244639 
L 162.732057 351.348715 
L 165.315789 351.348715 
L 166.177033 350.400752 
L 167.038278 350.400752 
L 167.899522 348.504828 
L 170.483254 348.504828 
L 172.205742 344.712978 
L 177.373206 344.712978 
L 178.23445 342.817053 
L 179.095694 341.869091 
L 181.679426 341.869091 
L 182.54067 340.921129 
L 183.401914 339.025204 
L 185.124402 339.025204 
L 185.985646 338.077241 
L 198.043062 338.077241 
L 198.904306 336.181317 
L 204.933014 329.54558 
L 213.545455 329.54558 
L 216.129187 326.701693 
L 217.851675 326.701693 
L 218.712919 324.805768 
L 220.435407 324.805768 
L 221.296651 323.857806 
L 223.880383 323.857806 
L 224.741627 322.909843 
L 225.602871 322.909843 
L 226.464115 321.961881 
L 227.325359 321.961881 
L 229.047847 320.065956 
L 240.244019 320.065956 
L 241.966507 318.170031 
L 248.856459 318.170031 
L 249.717703 317.222069 
L 252.301435 317.222069 
L 254.023923 315.326144 
L 256.607656 315.326144 
L 257.4689 314.378182 
L 259.191388 314.378182 
L 260.052632 313.430219 
L 264.358852 313.430219 
L 265.220096 312.482257 
L 266.08134 312.482257 
L 266.942584 310.586332 
L 267.803828 310.586332 
L 268.665072 309.63837 
L 272.971292 309.63837 
L 273.832536 308.690408 
L 275.555024 308.690408 
L 276.416268 307.742445 
L 277.277512 307.742445 
L 279 305.84652 
L 285.028708 305.84652 
L 285.889952 304.898558 
L 286.751196 304.898558 
L 287.61244 303.950596 
L 291.91866 303.950596 
L 292.779904 302.054671 
L 293.641148 301.106708 
L 297.947368 301.106708 
L 298.808612 300.158746 
L 302.253589 300.158746 
L 303.114833 298.262821 
L 306.559809 298.262821 
L 308.282297 296.366897 
L 310.866029 296.366897 
L 311.727273 295.418934 
L 322.062201 295.418934 
L 322.923445 293.523009 
L 323.784689 292.575047 
L 330.674641 292.575047 
L 331.535885 291.627085 
L 347.038278 291.627085 
L 347.899522 290.679122 
L 349.62201 290.679122 
L 350.483254 289.73116 
L 353.066986 289.73116 
L 353.92823 288.783197 
L 365.124402 288.783197 
L 365.985646 286.887273 
L 367.708134 286.887273 
L 368.569378 285.93931 
L 369.430622 285.93931 
L 370.291866 284.991348 
L 373.736842 284.991348 
L 374.598086 284.043386 
L 380.626794 284.043386 
L 381.488038 282.147461 
L 382.349282 282.147461 
L 383.210526 281.199498 
L 387.516746 281.199498 
L 388.37799 280.251536 
L 392.684211 280.251536 
L 394.406699 278.355611 
L 396.129187 278.355611 
L 396.990431 277.407649 
L 398.712919 277.407649 
L 399.574163 276.459687 
L 400.435407 276.459687 
L 401.296651 275.511724 
L 407.325359 275.511724 
L 408.186603 274.563762 
L 427.995215 274.563762 
L 428.856459 273.615799 
L 433.162679 273.615799 
L 434.023923 272.667837 
L 443.497608 272.667837 
L 444.358852 271.719875 
L 482.253589 271.719875 
L 483.114833 270.771912 
L 488.282297 270.771912 
L 489.143541 269.82395 
L 490.004785 269.82395 
L 490.866029 268.875987 
L 502.062201 268.875987 
L 502.923445 267.928025 
L 519.287081 267.928025 
L 520.148325 266.980063 
L 523.593301 266.980063 
L 524.454545 266.0321 
L 528.760766 266.0321 
L 529.62201 265.084138 
L 534.789474 265.084138 
L 535.650718 264.136176 
L 540.818182 264.136176 
L 541.679426 263.188213 
L 546.84689 263.188213 
L 547.708134 260.344326 
L 548.569378 259.396364 
L 554.598086 259.396364 
L 555.45933 258.448401 
L 559.76555 258.448401 
L 560.626794 257.500439 
L 564.933014 257.500439 
L 565.794258 256.552476 
L 570.961722 256.552476 
L 571.822967 255.604514 
L 585.602871 255.604514 
L 586.464115 253.708589 
L 587.325359 253.708589 
L 588.186603 252.760627 
L 589.047847 252.760627 
L 589.909091 251.812665 
L 590.770335 251.812665 
L 591.631579 250.864702 
L 604.550239 250.864702 
L 605.411483 249.91674 
L 609.717703 249.91674 
L 610.578947 248.968777 
L 622.636364 248.968777 
L 622.636364 248.968777 
" clip-path="url(#p30fa9c1c1c)" style="fill: none; stroke: #1f77b4; stroke-width: 1.5; stroke-linecap: square"/>
   </g>
   <g id="line2d_46">
    <path d="M 115.363636 334.285392 
L 121.392345 334.285392 
L 122.253589 333.337429 
L 124.837321 333.337429 
L 125.698565 332.389467 
L 129.143541 332.389467 
L 130.004785 331.441505 
L 132.588517 331.441505 
L 133.449761 330.493542 
L 134.311005 330.493542 
L 135.172249 329.54558 
L 137.755981 329.54558 
L 138.617225 328.597618 
L 140.339713 328.597618 
L 141.200957 327.649655 
L 142.062201 327.649655 
L 143.784689 325.75373 
L 148.952153 325.75373 
L 149.813397 324.805768 
L 150.674641 324.805768 
L 151.535885 323.857806 
L 152.397129 323.857806 
L 153.258373 321.961881 
L 154.119617 319.117994 
L 154.980861 318.170031 
L 158.425837 318.170031 
L 161.009569 315.326144 
L 163.593301 315.326144 
L 165.315789 313.430219 
L 174.789474 313.430219 
L 175.650718 310.586332 
L 176.511962 310.586332 
L 178.23445 306.794483 
L 179.956938 304.898558 
L 180.818182 304.898558 
L 181.679426 303.002633 
L 188.569378 303.002633 
L 189.430622 301.106708 
L 192.014354 301.106708 
L 192.875598 300.158746 
L 198.904306 300.158746 
L 199.76555 299.210784 
L 210.100478 299.210784 
L 210.961722 298.262821 
L 211.822967 298.262821 
L 212.684211 297.314859 
L 215.267943 297.314859 
L 216.129187 296.366897 
L 226.464115 296.366897 
L 227.325359 295.418934 
L 229.047847 295.418934 
L 230.770335 291.627085 
L 232.492823 291.627085 
L 234.215311 289.73116 
L 235.937799 289.73116 
L 236.799043 288.783197 
L 239.382775 288.783197 
L 240.244019 287.835235 
L 250.578947 287.835235 
L 251.440191 286.887273 
L 264.358852 286.887273 
L 265.220096 285.93931 
L 272.971292 285.93931 
L 273.832536 284.991348 
L 275.555024 284.991348 
L 276.416268 284.043386 
L 279 284.043386 
L 280.722488 282.147461 
L 281.583732 282.147461 
L 282.444976 281.199498 
L 285.889952 281.199498 
L 287.61244 279.303574 
L 291.91866 279.303574 
L 292.779904 278.355611 
L 295.363636 278.355611 
L 296.22488 277.407649 
L 300.5311 277.407649 
L 301.392345 276.459687 
L 305.698565 276.459687 
L 306.559809 275.511724 
L 322.062201 275.511724 
L 322.923445 274.563762 
L 323.784689 274.563762 
L 324.645933 273.615799 
L 333.258373 273.615799 
L 334.119617 271.719875 
L 334.980861 271.719875 
L 335.842105 270.771912 
L 344.454545 270.771912 
L 345.315789 269.82395 
L 348.760766 269.82395 
L 349.62201 268.875987 
L 350.483254 268.875987 
L 351.344498 267.928025 
L 359.095694 267.928025 
L 359.956938 266.980063 
L 377.181818 266.980063 
L 378.043062 264.136176 
L 384.07177 264.136176 
L 384.933014 263.188213 
L 386.655502 263.188213 
L 387.516746 262.240251 
L 397.851675 262.240251 
L 398.712919 261.292288 
L 410.770335 261.292288 
L 411.631579 260.344326 
L 414.215311 260.344326 
L 415.076555 259.396364 
L 421.966507 259.396364 
L 422.827751 257.500439 
L 436.607656 257.500439 
L 437.4689 256.552476 
L 441.77512 256.552476 
L 442.636364 255.604514 
L 455.555024 255.604514 
L 456.416268 254.656552 
L 458.138756 254.656552 
L 459 253.708589 
L 467.61244 253.708589 
L 468.473684 252.760627 
L 477.947368 252.760627 
L 478.808612 251.812665 
L 490.004785 251.812665 
L 490.866029 250.864702 
L 501.200957 250.864702 
L 502.062201 249.91674 
L 508.090909 249.91674 
L 508.952153 248.968777 
L 517.564593 248.968777 
L 520.148325 246.12489 
L 521.870813 246.12489 
L 522.732057 245.176928 
L 523.593301 245.176928 
L 525.315789 243.281003 
L 528.760766 243.281003 
L 529.62201 242.333041 
L 531.344498 242.333041 
L 532.205742 240.437116 
L 533.066986 239.489154 
L 543.401914 239.489154 
L 544.263158 238.541191 
L 552.014354 238.541191 
L 552.875598 237.593229 
L 561.488038 237.593229 
L 562.349282 236.645266 
L 566.655502 236.645266 
L 567.516746 234.749342 
L 588.186603 234.749342 
L 589.047847 233.801379 
L 619.191388 233.801379 
L 620.052632 232.853417 
L 622.636364 232.853417 
L 622.636364 232.853417 
" clip-path="url(#p30fa9c1c1c)" style="fill: none; stroke: #ff7f0e; stroke-width: 1.5; stroke-linecap: square"/>
   </g>
   <g id="patch_3">
    <path d="M 90 384.48 
L 90 51.84 
" style="fill: none; stroke: #000000; stroke-width: 0.8; stroke-linejoin: miter; stroke-linecap: square"/>
   </g>
   <g id="patch_4">
    <path d="M 648 384.48 
L 648 51.84 
" style="fill: none; stroke: #000000; stroke-width: 0.8; stroke-linejoin: miter; stroke-linecap: square"/>
   </g>
   <g id="patch_5">
    <path d="M 90 384.48 
L 648 384.48 
" style="fill: none; stroke: #000000; stroke-width: 0.8; stroke-linejoin: miter; stroke-linecap: square"/>
   </g>
   <g id="patch_6">
    <path d="M 90 51.84 
L 648 51.84 
" style="fill: none; stroke: #000000; stroke-width: 0.8; stroke-linejoin: miter; stroke-linecap: square"/>
   </g>
   <g id="text_20">
    <!-- Time Series of Votes for Each Keyword -->
    <g transform="translate(253.716563 45.84) scale(0.12 -0.12)">
     <defs>
      <path id="DejaVuSans-53" d="M 3425 4513 
L 3425 3897 
Q 3066 4069 2747 4153 
Q 2428 4238 2131 4238 
Q 1616 4238 1336 4038 
Q 1056 3838 1056 3469 
Q 1056 3159 1242 3001 
Q 1428 2844 1947 2747 
L 2328 2669 
Q 3034 2534 3370 2195 
Q 3706 1856 3706 1288 
Q 3706 609 3251 259 
Q 2797 -91 1919 -91 
Q 1588 -91 1214 -16 
Q 841 59 441 206 
L 441 856 
Q 825 641 1194 531 
Q 1563 422 1919 422 
Q 2459 422 2753 634 
Q 3047 847 3047 1241 
Q 3047 1584 2836 1778 
Q 2625 1972 2144 2069 
L 1759 2144 
Q 1053 2284 737 2584 
Q 422 2884 422 3419 
Q 422 4038 858 4394 
Q 1294 4750 2059 4750 
Q 2388 4750 2728 4690 
Q 3069 4631 3425 4513 
z
" transform="scale(0.015625)"/>
      <path id="DejaVuSans-72" d="M 2631 2963 
Q 2534 3019 2420 3045 
Q 2306 3072 2169 3072 
Q 1681 3072 1420 2755 
Q 1159 2438 1159 1844 
L 1159 0 
L 581 0 
L 581 3500 
L 1159 3500 
L 1159 2956 
Q 1341 3275 1631 3429 
Q 1922 3584 2338 3584 
Q 2397 3584 2469 3576 
Q 2541 3569 2628 3553 
L 2631 2963 
z
" transform="scale(0.015625)"/>
      <path id="DejaVuSans-66" d="M 2375 4863 
L 2375 4384 
L 1825 4384 
Q 1516 4384 1395 4259 
Q 1275 4134 1275 3809 
L 1275 3500 
L 2222 3500 
L 2222 3053 
L 1275 3053 
L 1275 0 
L 697 0 
L 697 3053 
L 147 3053 
L 147 3500 
L 697 3500 
L 697 3744 
Q 697 4328 969 4595 
Q 1241 4863 1831 4863 
L 2375 4863 
z
" transform="scale(0.015625)"/>
      <path id="DejaVuSans-45" d="M 628 4666 
L 3578 4666 
L 3578 4134 
L 1259 4134 
L 1259 2753 
L 3481 2753 
L 3481 2222 
L 1259 2222 
L 1259 531 
L 3634 531 
L 3634 0 
L 628 0 
L 628 4666 
z
" transform="scale(0.015625)"/>
      <path id="DejaVuSans-63" d="M 3122 3366 
L 3122 2828 
Q 2878 2963 2633 3030 
Q 2388 3097 2138 3097 
Q 1578 3097 1268 2742 
Q 959 2388 959 1747 
Q 959 1106 1268 751 
Q 1578 397 2138 397 
Q 2388 397 2633 464 
Q 2878 531 3122 666 
L 3122 134 
Q 2881 22 2623 -34 
Q 2366 -91 2075 -91 
Q 1284 -91 818 406 
Q 353 903 353 1747 
Q 353 2603 823 3093 
Q 1294 3584 2113 3584 
Q 2378 3584 2631 3529 
Q 2884 3475 3122 3366 
z
" transform="scale(0.015625)"/>
      <path id="DejaVuSans-68" d="M 3513 2113 
L 3513 0 
L 2938 0 
L 2938 2094 
Q 2938 2591 2744 2837 
Q 2550 3084 2163 3084 
Q 1697 3084 1428 2787 
Q 1159 2491 1159 1978 
L 1159 0 
L 581 0 
L 581 4863 
L 1159 4863 
L 1159 2956 
Q 1366 3272 1645 3428 
Q 1925 3584 2291 3584 
Q 2894 3584 3203 3211 
Q 3513 2838 3513 2113 
z
" transform="scale(0.015625)"/>
      <path id="DejaVuSans-4b" d="M 628 4666 
L 1259 4666 
L 1259 2694 
L 3353 4666 
L 4166 4666 
L 1850 2491 
L 4331 0 
L 3500 0 
L 1259 2247 
L 1259 0 
L 628 0 
L 628 4666 
z
" transform="scale(0.015625)"/>
      <path id="DejaVuSans-79" d="M 2059 -325 
Q 1816 -950 1584 -1140 
Q 1353 -1331 966 -1331 
L 506 -1331 
L 506 -850 
L 844 -850 
Q 1081 -850 1212 -737 
Q 1344 -625 1503 -206 
L 1606 56 
L 191 3500 
L 800 3500 
L 1894 763 
L 2988 3500 
L 3597 3500 
L 2059 -325 
z
" transform="scale(0.015625)"/>
      <path id="DejaVuSans-77" d="M 269 3500 
L 844 3500 
L 1563 769 
L 2278 3500 
L 2956 3500 
L 3675 769 
L 4391 3500 
L 4966 3500 
L 4050 0 
L 3372 0 
L 2619 2869 
L 1863 0 
L 1184 0 
L 269 3500 
z
" transform="scale(0.015625)"/>
     </defs>
     <use xlink:href="#DejaVuSans-54"/>
     <use xlink:href="#DejaVuSans-69" transform="translate(57.958984 0)"/>
     <use xlink:href="#DejaVuSans-6d" transform="translate(85.742188 0)"/>
     <use xlink:href="#DejaVuSans-65" transform="translate(183.154297 0)"/>
     <use xlink:href="#DejaVuSans-20" transform="translate(244.677734 0)"/>
     <use xlink:href="#DejaVuSans-53" transform="translate(276.464844 0)"/>
     <use xlink:href="#DejaVuSans-65" transform="translate(339.941406 0)"/>
     <use xlink:href="#DejaVuSans-72" transform="translate(401.464844 0)"/>
     <use xlink:href="#DejaVuSans-69" transform="translate(442.578125 0)"/>
     <use xlink:href="#DejaVuSans-65" transform="translate(470.361328 0)"/>
     <use xlink:href="#DejaVuSans-73" transform="translate(531.884766 0)"/>
     <use xlink:href="#DejaVuSans-20" transform="translate(583.984375 0)"/>
     <use xlink:href="#DejaVuSans-6f" transform="translate(615.771484 0)"/>
     <use xlink:href="#DejaVuSans-66" transform="translate(676.953125 0)"/>
     <use xlink:href="#DejaVuSans-20" transform="translate(712.158203 0)"/>
     <use xlink:href="#DejaVuSans-56" transform="translate(743.945312 0)"/>
     <use xlink:href="#DejaVuSans-6f" transform="translate(804.603516 0)"/>
     <use xlink:href="#DejaVuSans-74" transform="translate(865.785156 0)"/>
     <use xlink:href="#DejaVuSans-65" transform="translate(904.994141 0)"/>
     <use xlink:href="#DejaVuSans-73" transform="translate(966.517578 0)"/>
     <use xlink:href="#DejaVuSans-20" transform="translate(1018.617188 0)"/>
     <use xlink:href="#DejaVuSans-66" transform="translate(1050.404297 0)"/>
     <use xlink:href="#DejaVuSans-6f" transform="translate(1085.609375 0)"/>
     <use xlink:href="#DejaVuSans-72" transform="translate(1146.791016 0)"/>
     <use xlink:href="#DejaVuSans-20" transform="translate(1187.904297 0)"/>
     <use xlink:href="#DejaVuSans-45" transform="translate(1219.691406 0)"/>
     <use xlink:href="#DejaVuSans-61" transform="translate(1282.875 0)"/>
     <use xlink:href="#DejaVuSans-63" transform="translate(1344.154297 0)"/>
     <use xlink:href="#DejaVuSans-68" transform="translate(1399.134766 0)"/>
     <use xlink:href="#DejaVuSans-20" transform="translate(1462.513672 0)"/>
     <use xlink:href="#DejaVuSans-4b" transform="translate(1494.300781 0)"/>
     <use xlink:href="#DejaVuSans-65" transform="translate(1554.876953 0)"/>
     <use xlink:href="#DejaVuSans-79" transform="translate(1616.400391 0)"/>
     <use xlink:href="#DejaVuSans-77" transform="translate(1675.580078 0)"/>
     <use xlink:href="#DejaVuSans-6f" transform="translate(1757.367188 0)"/>
     <use xlink:href="#DejaVuSans-72" transform="translate(1818.548828 0)"/>
     <use xlink:href="#DejaVuSans-64" transform="translate(1857.912109 0)"/>
    </g>
   </g>
   <g id="legend_1">
    <g id="patch_7">
     <path d="M 97 235.9775 
L 149.245313 235.9775 
Q 151.245313 235.9775 151.245313 233.9775 
L 151.245313 58.84 
Q 151.245313 56.84 149.245313 56.84 
L 97 56.84 
Q 95 56.84 95 58.84 
L 95 233.9775 
Q 95 235.9775 97 235.9775 
z
" style="fill: #ffffff; opacity: 0.8; stroke: #cccccc; stroke-linejoin: miter"/>
    </g>
    <g id="line2d_47">
     <path d="M 99 64.938437 
L 109 64.938437 
L 119 64.938437 
" style="fill: none; stroke: #1f77b4; stroke-width: 1.5; stroke-linecap: square"/>
    </g>
    <g id="text_21">
     <!-- H01 -->
     <g transform="translate(127 68.438437) scale(0.1 -0.1)">
      <defs>
       <path id="DejaVuSans-48" d="M 628 4666 
L 1259 4666 
L 1259 2753 
L 3553 2753 
L 3553 4666 
L 4184 4666 
L 4184 0 
L 3553 0 
L 3553 2222 
L 1259 2222 
L 1259 0 
L 628 0 
L 628 4666 
z
" transform="scale(0.015625)"/>
      </defs>
      <use xlink:href="#DejaVuSans-48"/>
      <use xlink:href="#DejaVuSans-30" transform="translate(75.195312 0)"/>
      <use xlink:href="#DejaVuSans-31" transform="translate(138.818359 0)"/>
     </g>
    </g>
    <g id="line2d_48">
     <path d="M 99 79.616562 
L 109 79.616562 
L 119 79.616562 
" style="fill: none; stroke: #ff7f0e; stroke-width: 1.5; stroke-linecap: square"/>
    </g>
    <g id="text_22">
     <!-- H02 -->
     <g transform="translate(127 83.116562) scale(0.1 -0.1)">
      <use xlink:href="#DejaVuSans-48"/>
      <use xlink:href="#DejaVuSans-30" transform="translate(75.195312 0)"/>
      <use xlink:href="#DejaVuSans-32" transform="translate(138.818359 0)"/>
     </g>
    </g>
    <g id="line2d_49">
     <path d="M 99 94.294688 
L 109 94.294688 
L 119 94.294688 
" style="fill: none; stroke: #2ca02c; stroke-width: 1.5; stroke-linecap: square"/>
    </g>
    <g id="text_23">
     <!-- H03 -->
     <g transform="translate(127 97.794688) scale(0.1 -0.1)">
      <use xlink:href="#DejaVuSans-48"/>
      <use xlink:href="#DejaVuSans-30" transform="translate(75.195312 0)"/>
      <use xlink:href="#DejaVuSans-33" transform="translate(138.818359 0)"/>
     </g>
    </g>
    <g id="line2d_50">
     <path d="M 99 108.972812 
L 109 108.972812 
L 119 108.972812 
" style="fill: none; stroke: #d62728; stroke-width: 1.5; stroke-linecap: square"/>
    </g>
    <g id="text_24">
     <!-- H04 -->
     <g transform="translate(127 112.472812) scale(0.1 -0.1)">
      <use xlink:href="#DejaVuSans-48"/>
      <use xlink:href="#DejaVuSans-30" transform="translate(75.195312 0)"/>
      <use xlink:href="#DejaVuSans-34" transform="translate(138.818359 0)"/>
     </g>
    </g>
    <g id="line2d_51">
     <path d="M 99 123.650937 
L 109 123.650937 
L 119 123.650937 
" style="fill: none; stroke: #9467bd; stroke-width: 1.5; stroke-linecap: square"/>
    </g>
    <g id="text_25">
     <!-- H05 -->
     <g transform="translate(127 127.150937) scale(0.1 -0.1)">
      <use xlink:href="#DejaVuSans-48"/>
      <use xlink:href="#DejaVuSans-30" transform="translate(75.195312 0)"/>
      <use xlink:href="#DejaVuSans-35" transform="translate(138.818359 0)"/>
     </g>
    </g>
    <g id="line2d_52">
     <path d="M 99 138.329062 
L 109 138.329062 
L 119 138.329062 
" style="fill: none; stroke: #8c564b; stroke-width: 1.5; stroke-linecap: square"/>
    </g>
    <g id="text_26">
     <!-- H06 -->
     <g transform="translate(127 141.829062) scale(0.1 -0.1)">
      <use xlink:href="#DejaVuSans-48"/>
      <use xlink:href="#DejaVuSans-30" transform="translate(75.195312 0)"/>
      <use xlink:href="#DejaVuSans-36" transform="translate(138.818359 0)"/>
     </g>
    </g>
    <g id="line2d_53">
     <path d="M 99 153.007187 
L 109 153.007187 
L 119 153.007187 
" style="fill: none; stroke: #e377c2; stroke-width: 1.5; stroke-linecap: square"/>
    </g>
    <g id="text_27">
     <!-- H07 -->
     <g transform="translate(127 156.507187) scale(0.1 -0.1)">
      <use xlink:href="#DejaVuSans-48"/>
      <use xlink:href="#DejaVuSans-30" transform="translate(75.195312 0)"/>
      <use xlink:href="#DejaVuSans-37" transform="translate(138.818359 0)"/>
     </g>
    </g>
    <g id="line2d_54">
     <path d="M 99 167.685312 
L 109 167.685312 
L 119 167.685312 
" style="fill: none; stroke: #7f7f7f; stroke-width: 1.5; stroke-linecap: square"/>
    </g>
    <g id="text_28">
     <!-- H08 -->
     <g transform="translate(127 171.185312) scale(0.1 -0.1)">
      <use xlink:href="#DejaVuSans-48"/>
      <use xlink:href="#DejaVuSans-30" transform="translate(75.195312 0)"/>
      <use xlink:href="#DejaVuSans-38" transform="translate(138.818359 0)"/>
     </g>
    </g>
    <g id="line2d_55">
     <path d="M 99 182.363437 
L 109 182.363437 
L 119 182.363437 
" style="fill: none; stroke: #bcbd22; stroke-width: 1.5; stroke-linecap: square"/>
    </g>
    <g id="text_29">
     <!-- H09 -->
     <g transform="translate(127 185.863437) scale(0.1 -0.1)">
      <use xlink:href="#DejaVuSans-48"/>
      <use xlink:href="#DejaVuSans-30" transform="translate(75.195312 0)"/>
      <use xlink:href="#DejaVuSans-39" transform="translate(138.818359 0)"/>
     </g>
    </g>
    <g id="line2d_56">
     <path d="M 99 197.041562 
L 109 197.041562 
L 119 197.041562 
" style="fill: none; stroke: #17becf; stroke-width: 1.5; stroke-linecap: square"/>
    </g>
    <g id="text_30">
     <!-- H10 -->
     <g transform="translate(127 200.541562) scale(0.1 -0.1)">
      <use xlink:href="#DejaVuSans-48"/>
      <use xlink:href="#DejaVuSans-31" transform="translate(75.195312 0)"/>
      <use xlink:href="#DejaVuSans-30" transform="translate(138.818359 0)"/>
     </g>
    </g>
    <g id="line2d_57">
     <path d="M 99 211.719687 
L 109 211.719687 
L 119 211.719687 
" style="fill: none; stroke: #1f77b4; stroke-width: 1.5; stroke-linecap: square"/>
    </g>
    <g id="text_31">
     <!-- H11 -->
     <g transform="translate(127 215.219687) scale(0.1 -0.1)">
      <use xlink:href="#DejaVuSans-48"/>
      <use xlink:href="#DejaVuSans-31" transform="translate(75.195312 0)"/>
      <use xlink:href="#DejaVuSans-31" transform="translate(138.818359 0)"/>
     </g>
    </g>
    <g id="line2d_58">
     <path d="M 99 226.397812 
L 109 226.397812 
L 119 226.397812 
" style="fill: none; stroke: #ff7f0e; stroke-width: 1.5; stroke-linecap: square"/>
    </g>
    <g id="text_32">
     <!-- H12 -->
     <g transform="translate(127 229.897812) scale(0.1 -0.1)">
      <use xlink:href="#DejaVuSans-48"/>
      <use xlink:href="#DejaVuSans-31" transform="translate(75.195312 0)"/>
      <use xlink:href="#DejaVuSans-32" transform="translate(138.818359 0)"/>
     </g>
    </g>
   </g>
  </g>
 </g>
 <defs>
  <clipPath id="p30fa9c1c1c">
   <rect x="90" y="51.84" width="558" height="332.64"/>
  </clipPath>
 </defs>
</svg>
