<?xml version="1.0" encoding="utf-8" standalone="no"?>
<!DOCTYPE svg PUBLIC "-//W3C//DTD SVG 1.1//EN"
  "http://www.w3.org/Graphics/SVG/1.1/DTD/svg11.dtd">
<svg xmlns:xlink="http://www.w3.org/1999/xlink" width="720pt" height="432pt" viewBox="0 0 720 432" xmlns="http://www.w3.org/2000/svg" version="1.1">
 <metadata>
  <rdf:RDF xmlns:dc="http://purl.org/dc/elements/1.1/" xmlns:cc="http://creativecommons.org/ns#" xmlns:rdf="http://www.w3.org/1999/02/22-rdf-syntax-ns#">
   <cc:Work>
    <dc:type rdf:resource="http://purl.org/dc/dcmitype/StillImage"/>
    <dc:date>2025-01-14T21:11:34.318880</dc:date>
    <dc:format>image/svg+xml</dc:format>
    <dc:creator>
     <cc:Agent>
      <dc:title>Matplotlib v3.10.0, https://matplotlib.org/</dc:title>
     </cc:Agent>
    </dc:creator>
   </cc:Work>
  </rdf:RDF>
 </metadata>
 <defs>
  <style type="text/css">*{stroke-linejoin: round; stroke-linecap: butt}</style>
 </defs>
 <g id="figure_1">
  <g id="patch_1">
   <path d="M 0 432 
L 720 432 
L 720 0 
L 0 0 
z
" style="fill: #ffffff"/>
  </g>
  <g id="axes_1">
   <g id="patch_2">
    <path d="M 90 384.48 
L 648 384.48 
L 648 51.84 
L 90 51.84 
z
" style="fill: #ffffff"/>
   </g>
   <g id="matplotlib.axis_1">
    <g id="xtick_1">
     <g id="line2d_1">
      <path d="M 145.26836 384.48 
L 145.26836 51.84 
" clip-path="url(#pb7e8ec41c3)" style="fill: none; stroke: #b0b0b0; stroke-width: 0.8; stroke-linecap: square"/>
     </g>
     <g id="line2d_2">
      <defs>
       <path id="me2d3b69697" d="M 0 0 
L 0 3.5 
" style="stroke: #000000; stroke-width: 0.8"/>
      </defs>
      <g>
       <use xlink:href="#me2d3b69697" x="145.26836" y="384.48" style="stroke: #000000; stroke-width: 0.8"/>
      </g>
     </g>
     <g id="text_1">
      <!-- 01-14 14 -->
      <g transform="translate(122.787892 399.078438) scale(0.1 -0.1)">
       <defs>
        <path id="DejaVuSans-30" d="M 2034 4250 
Q 1547 4250 1301 3770 
Q 1056 3291 1056 2328 
Q 1056 1369 1301 889 
Q 1547 409 2034 409 
Q 2525 409 2770 889 
Q 3016 1369 3016 2328 
Q 3016 3291 2770 3770 
Q 2525 4250 2034 4250 
z
M 2034 4750 
Q 2819 4750 3233 4129 
Q 3647 3509 3647 2328 
Q 3647 1150 3233 529 
Q 2819 -91 2034 -91 
Q 1250 -91 836 529 
Q 422 1150 422 2328 
Q 422 3509 836 4129 
Q 1250 4750 2034 4750 
z
" transform="scale(0.015625)"/>
        <path id="DejaVuSans-31" d="M 794 531 
L 1825 531 
L 1825 4091 
L 703 3866 
L 703 4441 
L 1819 4666 
L 2450 4666 
L 2450 531 
L 3481 531 
L 3481 0 
L 794 0 
L 794 531 
z
" transform="scale(0.015625)"/>
        <path id="DejaVuSans-2d" d="M 313 2009 
L 1997 2009 
L 1997 1497 
L 313 1497 
L 313 2009 
z
" transform="scale(0.015625)"/>
        <path id="DejaVuSans-34" d="M 2419 4116 
L 825 1625 
L 2419 1625 
L 2419 4116 
z
M 2253 4666 
L 3047 4666 
L 3047 1625 
L 3713 1625 
L 3713 1100 
L 3047 1100 
L 3047 0 
L 2419 0 
L 2419 1100 
L 313 1100 
L 313 1709 
L 2253 4666 
z
" transform="scale(0.015625)"/>
        <path id="DejaVuSans-20" transform="scale(0.015625)"/>
       </defs>
       <use xlink:href="#DejaVuSans-30"/>
       <use xlink:href="#DejaVuSans-31" transform="translate(63.623047 0)"/>
       <use xlink:href="#DejaVuSans-2d" transform="translate(127.246094 0)"/>
       <use xlink:href="#DejaVuSans-31" transform="translate(163.330078 0)"/>
       <use xlink:href="#DejaVuSans-34" transform="translate(226.953125 0)"/>
       <use xlink:href="#DejaVuSans-20" transform="translate(290.576172 0)"/>
       <use xlink:href="#DejaVuSans-31" transform="translate(322.363281 0)"/>
       <use xlink:href="#DejaVuSans-34" transform="translate(385.986328 0)"/>
      </g>
     </g>
    </g>
    <g id="xtick_2">
     <g id="line2d_3">
      <path d="M 211.723303 384.48 
L 211.723303 51.84 
" clip-path="url(#pb7e8ec41c3)" style="fill: none; stroke: #b0b0b0; stroke-width: 0.8; stroke-linecap: square"/>
     </g>
     <g id="line2d_4">
      <g>
       <use xlink:href="#me2d3b69697" x="211.723303" y="384.48" style="stroke: #000000; stroke-width: 0.8"/>
      </g>
     </g>
     <g id="text_2">
      <!-- 01-14 15 -->
      <g transform="translate(189.242834 399.078438) scale(0.1 -0.1)">
       <defs>
        <path id="DejaVuSans-35" d="M 691 4666 
L 3169 4666 
L 3169 4134 
L 1269 4134 
L 1269 2991 
Q 1406 3038 1543 3061 
Q 1681 3084 1819 3084 
Q 2600 3084 3056 2656 
Q 3513 2228 3513 1497 
Q 3513 744 3044 326 
Q 2575 -91 1722 -91 
Q 1428 -91 1123 -41 
Q 819 9 494 109 
L 494 744 
Q 775 591 1075 516 
Q 1375 441 1709 441 
Q 2250 441 2565 725 
Q 2881 1009 2881 1497 
Q 2881 1984 2565 2268 
Q 2250 2553 1709 2553 
Q 1456 2553 1204 2497 
Q 953 2441 691 2322 
L 691 4666 
z
" transform="scale(0.015625)"/>
       </defs>
       <use xlink:href="#DejaVuSans-30"/>
       <use xlink:href="#DejaVuSans-31" transform="translate(63.623047 0)"/>
       <use xlink:href="#DejaVuSans-2d" transform="translate(127.246094 0)"/>
       <use xlink:href="#DejaVuSans-31" transform="translate(163.330078 0)"/>
       <use xlink:href="#DejaVuSans-34" transform="translate(226.953125 0)"/>
       <use xlink:href="#DejaVuSans-20" transform="translate(290.576172 0)"/>
       <use xlink:href="#DejaVuSans-31" transform="translate(322.363281 0)"/>
       <use xlink:href="#DejaVuSans-35" transform="translate(385.986328 0)"/>
      </g>
     </g>
    </g>
    <g id="xtick_3">
     <g id="line2d_5">
      <path d="M 278.178245 384.48 
L 278.178245 51.84 
" clip-path="url(#pb7e8ec41c3)" style="fill: none; stroke: #b0b0b0; stroke-width: 0.8; stroke-linecap: square"/>
     </g>
     <g id="line2d_6">
      <g>
       <use xlink:href="#me2d3b69697" x="278.178245" y="384.48" style="stroke: #000000; stroke-width: 0.8"/>
      </g>
     </g>
     <g id="text_3">
      <!-- 01-14 16 -->
      <g transform="translate(255.697777 399.078438) scale(0.1 -0.1)">
       <defs>
        <path id="DejaVuSans-36" d="M 2113 2584 
Q 1688 2584 1439 2293 
Q 1191 2003 1191 1497 
Q 1191 994 1439 701 
Q 1688 409 2113 409 
Q 2538 409 2786 701 
Q 3034 994 3034 1497 
Q 3034 2003 2786 2293 
Q 2538 2584 2113 2584 
z
M 3366 4563 
L 3366 3988 
Q 3128 4100 2886 4159 
Q 2644 4219 2406 4219 
Q 1781 4219 1451 3797 
Q 1122 3375 1075 2522 
Q 1259 2794 1537 2939 
Q 1816 3084 2150 3084 
Q 2853 3084 3261 2657 
Q 3669 2231 3669 1497 
Q 3669 778 3244 343 
Q 2819 -91 2113 -91 
Q 1303 -91 875 529 
Q 447 1150 447 2328 
Q 447 3434 972 4092 
Q 1497 4750 2381 4750 
Q 2619 4750 2861 4703 
Q 3103 4656 3366 4563 
z
" transform="scale(0.015625)"/>
       </defs>
       <use xlink:href="#DejaVuSans-30"/>
       <use xlink:href="#DejaVuSans-31" transform="translate(63.623047 0)"/>
       <use xlink:href="#DejaVuSans-2d" transform="translate(127.246094 0)"/>
       <use xlink:href="#DejaVuSans-31" transform="translate(163.330078 0)"/>
       <use xlink:href="#DejaVuSans-34" transform="translate(226.953125 0)"/>
       <use xlink:href="#DejaVuSans-20" transform="translate(290.576172 0)"/>
       <use xlink:href="#DejaVuSans-31" transform="translate(322.363281 0)"/>
       <use xlink:href="#DejaVuSans-36" transform="translate(385.986328 0)"/>
      </g>
     </g>
    </g>
    <g id="xtick_4">
     <g id="line2d_7">
      <path d="M 344.633188 384.48 
L 344.633188 51.84 
" clip-path="url(#pb7e8ec41c3)" style="fill: none; stroke: #b0b0b0; stroke-width: 0.8; stroke-linecap: square"/>
     </g>
     <g id="line2d_8">
      <g>
       <use xlink:href="#me2d3b69697" x="344.633188" y="384.48" style="stroke: #000000; stroke-width: 0.8"/>
      </g>
     </g>
     <g id="text_4">
      <!-- 01-14 17 -->
      <g transform="translate(322.152719 399.078438) scale(0.1 -0.1)">
       <defs>
        <path id="DejaVuSans-37" d="M 525 4666 
L 3525 4666 
L 3525 4397 
L 1831 0 
L 1172 0 
L 2766 4134 
L 525 4134 
L 525 4666 
z
" transform="scale(0.015625)"/>
       </defs>
       <use xlink:href="#DejaVuSans-30"/>
       <use xlink:href="#DejaVuSans-31" transform="translate(63.623047 0)"/>
       <use xlink:href="#DejaVuSans-2d" transform="translate(127.246094 0)"/>
       <use xlink:href="#DejaVuSans-31" transform="translate(163.330078 0)"/>
       <use xlink:href="#DejaVuSans-34" transform="translate(226.953125 0)"/>
       <use xlink:href="#DejaVuSans-20" transform="translate(290.576172 0)"/>
       <use xlink:href="#DejaVuSans-31" transform="translate(322.363281 0)"/>
       <use xlink:href="#DejaVuSans-37" transform="translate(385.986328 0)"/>
      </g>
     </g>
    </g>
    <g id="xtick_5">
     <g id="line2d_9">
      <path d="M 411.08813 384.48 
L 411.08813 51.84 
" clip-path="url(#pb7e8ec41c3)" style="fill: none; stroke: #b0b0b0; stroke-width: 0.8; stroke-linecap: square"/>
     </g>
     <g id="line2d_10">
      <g>
       <use xlink:href="#me2d3b69697" x="411.08813" y="384.48" style="stroke: #000000; stroke-width: 0.8"/>
      </g>
     </g>
     <g id="text_5">
      <!-- 01-14 18 -->
      <g transform="translate(388.607661 399.078438) scale(0.1 -0.1)">
       <defs>
        <path id="DejaVuSans-38" d="M 2034 2216 
Q 1584 2216 1326 1975 
Q 1069 1734 1069 1313 
Q 1069 891 1326 650 
Q 1584 409 2034 409 
Q 2484 409 2743 651 
Q 3003 894 3003 1313 
Q 3003 1734 2745 1975 
Q 2488 2216 2034 2216 
z
M 1403 2484 
Q 997 2584 770 2862 
Q 544 3141 544 3541 
Q 544 4100 942 4425 
Q 1341 4750 2034 4750 
Q 2731 4750 3128 4425 
Q 3525 4100 3525 3541 
Q 3525 3141 3298 2862 
Q 3072 2584 2669 2484 
Q 3125 2378 3379 2068 
Q 3634 1759 3634 1313 
Q 3634 634 3220 271 
Q 2806 -91 2034 -91 
Q 1263 -91 848 271 
Q 434 634 434 1313 
Q 434 1759 690 2068 
Q 947 2378 1403 2484 
z
M 1172 3481 
Q 1172 3119 1398 2916 
Q 1625 2713 2034 2713 
Q 2441 2713 2670 2916 
Q 2900 3119 2900 3481 
Q 2900 3844 2670 4047 
Q 2441 4250 2034 4250 
Q 1625 4250 1398 4047 
Q 1172 3844 1172 3481 
z
" transform="scale(0.015625)"/>
       </defs>
       <use xlink:href="#DejaVuSans-30"/>
       <use xlink:href="#DejaVuSans-31" transform="translate(63.623047 0)"/>
       <use xlink:href="#DejaVuSans-2d" transform="translate(127.246094 0)"/>
       <use xlink:href="#DejaVuSans-31" transform="translate(163.330078 0)"/>
       <use xlink:href="#DejaVuSans-34" transform="translate(226.953125 0)"/>
       <use xlink:href="#DejaVuSans-20" transform="translate(290.576172 0)"/>
       <use xlink:href="#DejaVuSans-31" transform="translate(322.363281 0)"/>
       <use xlink:href="#DejaVuSans-38" transform="translate(385.986328 0)"/>
      </g>
     </g>
    </g>
    <g id="xtick_6">
     <g id="line2d_11">
      <path d="M 477.543073 384.48 
L 477.543073 51.84 
" clip-path="url(#pb7e8ec41c3)" style="fill: none; stroke: #b0b0b0; stroke-width: 0.8; stroke-linecap: square"/>
     </g>
     <g id="line2d_12">
      <g>
       <use xlink:href="#me2d3b69697" x="477.543073" y="384.48" style="stroke: #000000; stroke-width: 0.8"/>
      </g>
     </g>
     <g id="text_6">
      <!-- 01-14 19 -->
      <g transform="translate(455.062604 399.078438) scale(0.1 -0.1)">
       <defs>
        <path id="DejaVuSans-39" d="M 703 97 
L 703 672 
Q 941 559 1184 500 
Q 1428 441 1663 441 
Q 2288 441 2617 861 
Q 2947 1281 2994 2138 
Q 2813 1869 2534 1725 
Q 2256 1581 1919 1581 
Q 1219 1581 811 2004 
Q 403 2428 403 3163 
Q 403 3881 828 4315 
Q 1253 4750 1959 4750 
Q 2769 4750 3195 4129 
Q 3622 3509 3622 2328 
Q 3622 1225 3098 567 
Q 2575 -91 1691 -91 
Q 1453 -91 1209 -44 
Q 966 3 703 97 
z
M 1959 2075 
Q 2384 2075 2632 2365 
Q 2881 2656 2881 3163 
Q 2881 3666 2632 3958 
Q 2384 4250 1959 4250 
Q 1534 4250 1286 3958 
Q 1038 3666 1038 3163 
Q 1038 2656 1286 2365 
Q 1534 2075 1959 2075 
z
" transform="scale(0.015625)"/>
       </defs>
       <use xlink:href="#DejaVuSans-30"/>
       <use xlink:href="#DejaVuSans-31" transform="translate(63.623047 0)"/>
       <use xlink:href="#DejaVuSans-2d" transform="translate(127.246094 0)"/>
       <use xlink:href="#DejaVuSans-31" transform="translate(163.330078 0)"/>
       <use xlink:href="#DejaVuSans-34" transform="translate(226.953125 0)"/>
       <use xlink:href="#DejaVuSans-20" transform="translate(290.576172 0)"/>
       <use xlink:href="#DejaVuSans-31" transform="translate(322.363281 0)"/>
       <use xlink:href="#DejaVuSans-39" transform="translate(385.986328 0)"/>
      </g>
     </g>
    </g>
    <g id="xtick_7">
     <g id="line2d_13">
      <path d="M 543.998015 384.48 
L 543.998015 51.84 
" clip-path="url(#pb7e8ec41c3)" style="fill: none; stroke: #b0b0b0; stroke-width: 0.8; stroke-linecap: square"/>
     </g>
     <g id="line2d_14">
      <g>
       <use xlink:href="#me2d3b69697" x="543.998015" y="384.48" style="stroke: #000000; stroke-width: 0.8"/>
      </g>
     </g>
     <g id="text_7">
      <!-- 01-14 20 -->
      <g transform="translate(521.517546 399.078438) scale(0.1 -0.1)">
       <defs>
        <path id="DejaVuSans-32" d="M 1228 531 
L 3431 531 
L 3431 0 
L 469 0 
L 469 531 
Q 828 903 1448 1529 
Q 2069 2156 2228 2338 
Q 2531 2678 2651 2914 
Q 2772 3150 2772 3378 
Q 2772 3750 2511 3984 
Q 2250 4219 1831 4219 
Q 1534 4219 1204 4116 
Q 875 4013 500 3803 
L 500 4441 
Q 881 4594 1212 4672 
Q 1544 4750 1819 4750 
Q 2544 4750 2975 4387 
Q 3406 4025 3406 3419 
Q 3406 3131 3298 2873 
Q 3191 2616 2906 2266 
Q 2828 2175 2409 1742 
Q 1991 1309 1228 531 
z
" transform="scale(0.015625)"/>
       </defs>
       <use xlink:href="#DejaVuSans-30"/>
       <use xlink:href="#DejaVuSans-31" transform="translate(63.623047 0)"/>
       <use xlink:href="#DejaVuSans-2d" transform="translate(127.246094 0)"/>
       <use xlink:href="#DejaVuSans-31" transform="translate(163.330078 0)"/>
       <use xlink:href="#DejaVuSans-34" transform="translate(226.953125 0)"/>
       <use xlink:href="#DejaVuSans-20" transform="translate(290.576172 0)"/>
       <use xlink:href="#DejaVuSans-32" transform="translate(322.363281 0)"/>
       <use xlink:href="#DejaVuSans-30" transform="translate(385.986328 0)"/>
      </g>
     </g>
    </g>
    <g id="xtick_8">
     <g id="line2d_15">
      <path d="M 610.452958 384.48 
L 610.452958 51.84 
" clip-path="url(#pb7e8ec41c3)" style="fill: none; stroke: #b0b0b0; stroke-width: 0.8; stroke-linecap: square"/>
     </g>
     <g id="line2d_16">
      <g>
       <use xlink:href="#me2d3b69697" x="610.452958" y="384.48" style="stroke: #000000; stroke-width: 0.8"/>
      </g>
     </g>
     <g id="text_8">
      <!-- 01-14 21 -->
      <g transform="translate(587.972489 399.078438) scale(0.1 -0.1)">
       <use xlink:href="#DejaVuSans-30"/>
       <use xlink:href="#DejaVuSans-31" transform="translate(63.623047 0)"/>
       <use xlink:href="#DejaVuSans-2d" transform="translate(127.246094 0)"/>
       <use xlink:href="#DejaVuSans-31" transform="translate(163.330078 0)"/>
       <use xlink:href="#DejaVuSans-34" transform="translate(226.953125 0)"/>
       <use xlink:href="#DejaVuSans-20" transform="translate(290.576172 0)"/>
       <use xlink:href="#DejaVuSans-32" transform="translate(322.363281 0)"/>
       <use xlink:href="#DejaVuSans-31" transform="translate(385.986328 0)"/>
      </g>
     </g>
    </g>
    <g id="text_9">
     <!-- Date and Time -->
     <g transform="translate(332.230469 412.756563) scale(0.1 -0.1)">
      <defs>
       <path id="DejaVuSans-44" d="M 1259 4147 
L 1259 519 
L 2022 519 
Q 2988 519 3436 956 
Q 3884 1394 3884 2338 
Q 3884 3275 3436 3711 
Q 2988 4147 2022 4147 
L 1259 4147 
z
M 628 4666 
L 1925 4666 
Q 3281 4666 3915 4102 
Q 4550 3538 4550 2338 
Q 4550 1131 3912 565 
Q 3275 0 1925 0 
L 628 0 
L 628 4666 
z
" transform="scale(0.015625)"/>
       <path id="DejaVuSans-61" d="M 2194 1759 
Q 1497 1759 1228 1600 
Q 959 1441 959 1056 
Q 959 750 1161 570 
Q 1363 391 1709 391 
Q 2188 391 2477 730 
Q 2766 1069 2766 1631 
L 2766 1759 
L 2194 1759 
z
M 3341 1997 
L 3341 0 
L 2766 0 
L 2766 531 
Q 2569 213 2275 61 
Q 1981 -91 1556 -91 
Q 1019 -91 701 211 
Q 384 513 384 1019 
Q 384 1609 779 1909 
Q 1175 2209 1959 2209 
L 2766 2209 
L 2766 2266 
Q 2766 2663 2505 2880 
Q 2244 3097 1772 3097 
Q 1472 3097 1187 3025 
Q 903 2953 641 2809 
L 641 3341 
Q 956 3463 1253 3523 
Q 1550 3584 1831 3584 
Q 2591 3584 2966 3190 
Q 3341 2797 3341 1997 
z
" transform="scale(0.015625)"/>
       <path id="DejaVuSans-74" d="M 1172 4494 
L 1172 3500 
L 2356 3500 
L 2356 3053 
L 1172 3053 
L 1172 1153 
Q 1172 725 1289 603 
Q 1406 481 1766 481 
L 2356 481 
L 2356 0 
L 1766 0 
Q 1100 0 847 248 
Q 594 497 594 1153 
L 594 3053 
L 172 3053 
L 172 3500 
L 594 3500 
L 594 4494 
L 1172 4494 
z
" transform="scale(0.015625)"/>
       <path id="DejaVuSans-65" d="M 3597 1894 
L 3597 1613 
L 953 1613 
Q 991 1019 1311 708 
Q 1631 397 2203 397 
Q 2534 397 2845 478 
Q 3156 559 3463 722 
L 3463 178 
Q 3153 47 2828 -22 
Q 2503 -91 2169 -91 
Q 1331 -91 842 396 
Q 353 884 353 1716 
Q 353 2575 817 3079 
Q 1281 3584 2069 3584 
Q 2775 3584 3186 3129 
Q 3597 2675 3597 1894 
z
M 3022 2063 
Q 3016 2534 2758 2815 
Q 2500 3097 2075 3097 
Q 1594 3097 1305 2825 
Q 1016 2553 972 2059 
L 3022 2063 
z
" transform="scale(0.015625)"/>
       <path id="DejaVuSans-6e" d="M 3513 2113 
L 3513 0 
L 2938 0 
L 2938 2094 
Q 2938 2591 2744 2837 
Q 2550 3084 2163 3084 
Q 1697 3084 1428 2787 
Q 1159 2491 1159 1978 
L 1159 0 
L 581 0 
L 581 3500 
L 1159 3500 
L 1159 2956 
Q 1366 3272 1645 3428 
Q 1925 3584 2291 3584 
Q 2894 3584 3203 3211 
Q 3513 2838 3513 2113 
z
" transform="scale(0.015625)"/>
       <path id="DejaVuSans-64" d="M 2906 2969 
L 2906 4863 
L 3481 4863 
L 3481 0 
L 2906 0 
L 2906 525 
Q 2725 213 2448 61 
Q 2172 -91 1784 -91 
Q 1150 -91 751 415 
Q 353 922 353 1747 
Q 353 2572 751 3078 
Q 1150 3584 1784 3584 
Q 2172 3584 2448 3432 
Q 2725 3281 2906 2969 
z
M 947 1747 
Q 947 1113 1208 752 
Q 1469 391 1925 391 
Q 2381 391 2643 752 
Q 2906 1113 2906 1747 
Q 2906 2381 2643 2742 
Q 2381 3103 1925 3103 
Q 1469 3103 1208 2742 
Q 947 2381 947 1747 
z
" transform="scale(0.015625)"/>
       <path id="DejaVuSans-54" d="M -19 4666 
L 3928 4666 
L 3928 4134 
L 2272 4134 
L 2272 0 
L 1638 0 
L 1638 4134 
L -19 4134 
L -19 4666 
z
" transform="scale(0.015625)"/>
       <path id="DejaVuSans-69" d="M 603 3500 
L 1178 3500 
L 1178 0 
L 603 0 
L 603 3500 
z
M 603 4863 
L 1178 4863 
L 1178 4134 
L 603 4134 
L 603 4863 
z
" transform="scale(0.015625)"/>
       <path id="DejaVuSans-6d" d="M 3328 2828 
Q 3544 3216 3844 3400 
Q 4144 3584 4550 3584 
Q 5097 3584 5394 3201 
Q 5691 2819 5691 2113 
L 5691 0 
L 5113 0 
L 5113 2094 
Q 5113 2597 4934 2840 
Q 4756 3084 4391 3084 
Q 3944 3084 3684 2787 
Q 3425 2491 3425 1978 
L 3425 0 
L 2847 0 
L 2847 2094 
Q 2847 2600 2669 2842 
Q 2491 3084 2119 3084 
Q 1678 3084 1418 2786 
Q 1159 2488 1159 1978 
L 1159 0 
L 581 0 
L 581 3500 
L 1159 3500 
L 1159 2956 
Q 1356 3278 1631 3431 
Q 1906 3584 2284 3584 
Q 2666 3584 2933 3390 
Q 3200 3197 3328 2828 
z
" transform="scale(0.015625)"/>
      </defs>
      <use xlink:href="#DejaVuSans-44"/>
      <use xlink:href="#DejaVuSans-61" transform="translate(77.001953 0)"/>
      <use xlink:href="#DejaVuSans-74" transform="translate(138.28125 0)"/>
      <use xlink:href="#DejaVuSans-65" transform="translate(177.490234 0)"/>
      <use xlink:href="#DejaVuSans-20" transform="translate(239.013672 0)"/>
      <use xlink:href="#DejaVuSans-61" transform="translate(270.800781 0)"/>
      <use xlink:href="#DejaVuSans-6e" transform="translate(332.080078 0)"/>
      <use xlink:href="#DejaVuSans-64" transform="translate(395.458984 0)"/>
      <use xlink:href="#DejaVuSans-20" transform="translate(458.935547 0)"/>
      <use xlink:href="#DejaVuSans-54" transform="translate(490.722656 0)"/>
      <use xlink:href="#DejaVuSans-69" transform="translate(548.681641 0)"/>
      <use xlink:href="#DejaVuSans-6d" transform="translate(576.464844 0)"/>
      <use xlink:href="#DejaVuSans-65" transform="translate(673.876953 0)"/>
     </g>
    </g>
   </g>
   <g id="matplotlib.axis_2">
    <g id="ytick_1">
     <g id="line2d_17">
      <path d="M 90 370.475867 
L 648 370.475867 
" clip-path="url(#pb7e8ec41c3)" style="fill: none; stroke: #b0b0b0; stroke-width: 0.8; stroke-linecap: square"/>
     </g>
     <g id="line2d_18">
      <defs>
       <path id="m27bafaf3ac" d="M 0 0 
L -3.5 0 
" style="stroke: #000000; stroke-width: 0.8"/>
      </defs>
      <g>
       <use xlink:href="#m27bafaf3ac" x="90" y="370.475867" style="stroke: #000000; stroke-width: 0.8"/>
      </g>
     </g>
     <g id="text_10">
      <!-- 0 -->
      <g transform="translate(76.6375 374.275086) scale(0.1 -0.1)">
       <use xlink:href="#DejaVuSans-30"/>
      </g>
     </g>
    </g>
    <g id="ytick_2">
     <g id="line2d_19">
      <path d="M 90 314.682509 
L 648 314.682509 
" clip-path="url(#pb7e8ec41c3)" style="fill: none; stroke: #b0b0b0; stroke-width: 0.8; stroke-linecap: square"/>
     </g>
     <g id="line2d_20">
      <g>
       <use xlink:href="#m27bafaf3ac" x="90" y="314.682509" style="stroke: #000000; stroke-width: 0.8"/>
      </g>
     </g>
     <g id="text_11">
      <!-- 50 -->
      <g transform="translate(70.275 318.481728) scale(0.1 -0.1)">
       <use xlink:href="#DejaVuSans-35"/>
       <use xlink:href="#DejaVuSans-30" transform="translate(63.623047 0)"/>
      </g>
     </g>
    </g>
    <g id="ytick_3">
     <g id="line2d_21">
      <path d="M 90 258.889151 
L 648 258.889151 
" clip-path="url(#pb7e8ec41c3)" style="fill: none; stroke: #b0b0b0; stroke-width: 0.8; stroke-linecap: square"/>
     </g>
     <g id="line2d_22">
      <g>
       <use xlink:href="#m27bafaf3ac" x="90" y="258.889151" style="stroke: #000000; stroke-width: 0.8"/>
      </g>
     </g>
     <g id="text_12">
      <!-- 100 -->
      <g transform="translate(63.9125 262.68837) scale(0.1 -0.1)">
       <use xlink:href="#DejaVuSans-31"/>
       <use xlink:href="#DejaVuSans-30" transform="translate(63.623047 0)"/>
       <use xlink:href="#DejaVuSans-30" transform="translate(127.246094 0)"/>
      </g>
     </g>
    </g>
    <g id="ytick_4">
     <g id="line2d_23">
      <path d="M 90 203.095793 
L 648 203.095793 
" clip-path="url(#pb7e8ec41c3)" style="fill: none; stroke: #b0b0b0; stroke-width: 0.8; stroke-linecap: square"/>
     </g>
     <g id="line2d_24">
      <g>
       <use xlink:href="#m27bafaf3ac" x="90" y="203.095793" style="stroke: #000000; stroke-width: 0.8"/>
      </g>
     </g>
     <g id="text_13">
      <!-- 150 -->
      <g transform="translate(63.9125 206.895012) scale(0.1 -0.1)">
       <use xlink:href="#DejaVuSans-31"/>
       <use xlink:href="#DejaVuSans-35" transform="translate(63.623047 0)"/>
       <use xlink:href="#DejaVuSans-30" transform="translate(127.246094 0)"/>
      </g>
     </g>
    </g>
    <g id="ytick_5">
     <g id="line2d_25">
      <path d="M 90 147.302435 
L 648 147.302435 
" clip-path="url(#pb7e8ec41c3)" style="fill: none; stroke: #b0b0b0; stroke-width: 0.8; stroke-linecap: square"/>
     </g>
     <g id="line2d_26">
      <g>
       <use xlink:href="#m27bafaf3ac" x="90" y="147.302435" style="stroke: #000000; stroke-width: 0.8"/>
      </g>
     </g>
     <g id="text_14">
      <!-- 200 -->
      <g transform="translate(63.9125 151.101654) scale(0.1 -0.1)">
       <use xlink:href="#DejaVuSans-32"/>
       <use xlink:href="#DejaVuSans-30" transform="translate(63.623047 0)"/>
       <use xlink:href="#DejaVuSans-30" transform="translate(127.246094 0)"/>
      </g>
     </g>
    </g>
    <g id="ytick_6">
     <g id="line2d_27">
      <path d="M 90 91.509077 
L 648 91.509077 
" clip-path="url(#pb7e8ec41c3)" style="fill: none; stroke: #b0b0b0; stroke-width: 0.8; stroke-linecap: square"/>
     </g>
     <g id="line2d_28">
      <g>
       <use xlink:href="#m27bafaf3ac" x="90" y="91.509077" style="stroke: #000000; stroke-width: 0.8"/>
      </g>
     </g>
     <g id="text_15">
      <!-- 250 -->
      <g transform="translate(63.9125 95.308296) scale(0.1 -0.1)">
       <use xlink:href="#DejaVuSans-32"/>
       <use xlink:href="#DejaVuSans-35" transform="translate(63.623047 0)"/>
       <use xlink:href="#DejaVuSans-30" transform="translate(127.246094 0)"/>
      </g>
     </g>
    </g>
    <g id="text_16">
     <!-- Votes -->
     <g transform="translate(57.832812 231.893594) rotate(-90) scale(0.1 -0.1)">
      <defs>
       <path id="DejaVuSans-56" d="M 1831 0 
L 50 4666 
L 709 4666 
L 2188 738 
L 3669 4666 
L 4325 4666 
L 2547 0 
L 1831 0 
z
" transform="scale(0.015625)"/>
       <path id="DejaVuSans-6f" d="M 1959 3097 
Q 1497 3097 1228 2736 
Q 959 2375 959 1747 
Q 959 1119 1226 758 
Q 1494 397 1959 397 
Q 2419 397 2687 759 
Q 2956 1122 2956 1747 
Q 2956 2369 2687 2733 
Q 2419 3097 1959 3097 
z
M 1959 3584 
Q 2709 3584 3137 3096 
Q 3566 2609 3566 1747 
Q 3566 888 3137 398 
Q 2709 -91 1959 -91 
Q 1206 -91 779 398 
Q 353 888 353 1747 
Q 353 2609 779 3096 
Q 1206 3584 1959 3584 
z
" transform="scale(0.015625)"/>
       <path id="DejaVuSans-73" d="M 2834 3397 
L 2834 2853 
Q 2591 2978 2328 3040 
Q 2066 3103 1784 3103 
Q 1356 3103 1142 2972 
Q 928 2841 928 2578 
Q 928 2378 1081 2264 
Q 1234 2150 1697 2047 
L 1894 2003 
Q 2506 1872 2764 1633 
Q 3022 1394 3022 966 
Q 3022 478 2636 193 
Q 2250 -91 1575 -91 
Q 1294 -91 989 -36 
Q 684 19 347 128 
L 347 722 
Q 666 556 975 473 
Q 1284 391 1588 391 
Q 1994 391 2212 530 
Q 2431 669 2431 922 
Q 2431 1156 2273 1281 
Q 2116 1406 1581 1522 
L 1381 1569 
Q 847 1681 609 1914 
Q 372 2147 372 2553 
Q 372 3047 722 3315 
Q 1072 3584 1716 3584 
Q 2034 3584 2315 3537 
Q 2597 3491 2834 3397 
z
" transform="scale(0.015625)"/>
      </defs>
      <use xlink:href="#DejaVuSans-56"/>
      <use xlink:href="#DejaVuSans-6f" transform="translate(60.658203 0)"/>
      <use xlink:href="#DejaVuSans-74" transform="translate(121.839844 0)"/>
      <use xlink:href="#DejaVuSans-65" transform="translate(161.048828 0)"/>
      <use xlink:href="#DejaVuSans-73" transform="translate(222.572266 0)"/>
     </g>
    </g>
   </g>
   <g id="line2d_29">
    <path d="M 115.363636 350.390258 
L 126.43946 350.390258 
L 127.547042 349.274391 
L 138.622866 349.274391 
L 139.730449 347.042657 
L 149.69869 347.042657 
L 150.806272 345.92679 
L 156.344184 345.92679 
L 157.451767 344.810923 
L 161.882096 344.810923 
L 162.989678 343.695055 
L 166.312426 343.695055 
L 167.420008 342.579188 
L 182.926161 342.579188 
L 184.033744 341.463321 
L 196.21715 341.463321 
L 198.432314 339.231587 
L 200.647479 339.231587 
L 201.755062 338.11572 
L 211.723303 338.11572 
L 213.938468 335.883985 
L 227.229456 335.883985 
L 228.337039 334.768118 
L 231.659786 334.768118 
L 232.767368 333.652251 
L 233.87495 333.652251 
L 234.982533 332.536384 
L 264.887257 332.536384 
L 265.994839 331.420517 
L 279.285828 331.420517 
L 280.39341 330.304649 
L 288.146487 330.304649 
L 289.254069 329.188782 
L 290.361651 326.957048 
L 291.469234 326.957048 
L 293.684399 324.725314 
L 311.405717 324.725314 
L 312.513299 323.609446 
L 319.158793 323.609446 
L 320.266376 322.493579 
L 324.696705 322.493579 
L 325.804287 321.377712 
L 336.880111 321.377712 
L 337.987694 320.261845 
L 340.202858 320.261845 
L 341.310441 319.145978 
L 344.633188 319.145978 
L 345.74077 318.030111 
L 354.601429 318.030111 
L 355.709012 316.914244 
L 356.816594 316.914244 
L 357.924176 315.798376 
L 369 315.798376 
L 370.107582 314.682509 
L 377.860659 314.682509 
L 378.968241 313.566642 
L 380.075824 313.566642 
L 382.290988 311.334908 
L 406.657801 311.334908 
L 407.765383 310.219041 
L 425.486701 310.219041 
L 426.594283 309.103173 
L 427.701866 309.103173 
L 428.809448 307.987306 
L 438.77769 307.987306 
L 439.885272 306.871439 
L 440.992854 306.871439 
L 442.100437 305.755572 
L 447.638349 305.755572 
L 448.745931 304.639705 
L 452.068678 304.639705 
L 454.283843 302.40797 
L 455.391425 302.40797 
L 456.499008 301.292103 
L 458.714172 301.292103 
L 459.821755 300.176236 
L 462.036919 300.176236 
L 463.144502 299.060369 
L 465.359667 299.060369 
L 466.467249 297.944502 
L 493.049226 297.944502 
L 494.156808 296.828635 
L 505.232632 296.828635 
L 506.340214 295.712768 
L 512.985709 295.712768 
L 514.093291 294.5969 
L 515.200873 294.5969 
L 516.308456 293.481033 
L 517.416038 293.481033 
L 521.846368 289.017565 
L 524.061532 289.017565 
L 525.169115 286.78583 
L 534.029774 286.78583 
L 536.244938 284.554096 
L 538.460103 284.554096 
L 539.567686 283.438229 
L 543.998015 283.438229 
L 545.105597 282.322362 
L 552.858674 282.322362 
L 553.966256 281.206494 
L 556.181421 281.206494 
L 557.289004 280.090627 
L 563.934498 280.090627 
L 566.149663 277.858893 
L 573.902739 277.858893 
L 575.010322 276.743026 
L 578.333069 276.743026 
L 579.440651 275.627159 
L 581.655816 275.627159 
L 582.763398 273.395424 
L 587.193728 273.395424 
L 588.30131 271.16369 
L 589.408892 270.047823 
L 593.839222 270.047823 
L 594.946804 267.816089 
L 602.699881 267.816089 
L 603.807463 266.700221 
L 608.237793 266.700221 
L 609.345375 265.584354 
L 612.668122 265.584354 
L 613.775705 264.468487 
L 614.883287 262.236753 
L 617.098452 262.236753 
L 618.206034 261.120886 
L 622.636364 261.120886 
L 622.636364 261.120886 
" clip-path="url(#pb7e8ec41c3)" style="fill: none; stroke: #1f77b4; stroke-width: 1.5; stroke-linecap: square"/>
   </g>
   <g id="line2d_30">
    <path d="M 115.363636 278.97476 
L 116.471219 277.858893 
L 119.793966 277.858893 
L 120.901548 276.743026 
L 122.009131 276.743026 
L 123.116713 275.627159 
L 124.224295 275.627159 
L 126.43946 273.395424 
L 127.547042 271.16369 
L 128.654625 271.16369 
L 130.86979 268.931956 
L 131.977372 268.931956 
L 133.084954 264.468487 
L 134.192537 262.236753 
L 135.300119 257.773284 
L 136.407701 254.425683 
L 139.730449 254.425683 
L 140.838031 251.078081 
L 141.945613 248.846347 
L 144.160778 246.614613 
L 145.26836 244.382878 
L 147.483525 242.151144 
L 148.591108 239.91941 
L 151.913855 239.91941 
L 153.021437 234.340074 
L 154.129019 232.108339 
L 155.236602 230.992472 
L 156.344184 228.760738 
L 157.451767 227.644871 
L 158.559349 227.644871 
L 159.666931 224.297269 
L 160.774514 224.297269 
L 161.882096 222.065535 
L 162.989678 220.949668 
L 164.097261 220.949668 
L 165.204843 219.833801 
L 167.420008 219.833801 
L 168.52759 218.717934 
L 170.742755 218.717934 
L 171.850337 216.486199 
L 172.95792 216.486199 
L 174.065502 215.370332 
L 178.495832 215.370332 
L 179.603414 214.254465 
L 182.926161 214.254465 
L 184.033744 213.138598 
L 185.141326 213.138598 
L 186.248908 210.906863 
L 187.356491 210.906863 
L 188.464073 208.675129 
L 189.571655 207.559262 
L 192.894403 207.559262 
L 194.001985 205.327528 
L 195.109567 204.211661 
L 196.21715 200.864059 
L 198.432314 198.632325 
L 207.292973 198.632325 
L 208.400556 195.284723 
L 209.508138 195.284723 
L 211.723303 193.052989 
L 212.830885 193.052989 
L 216.153632 189.705387 
L 218.368797 189.705387 
L 219.47638 188.58952 
L 221.691544 188.58952 
L 225.014291 185.241919 
L 227.229456 185.241919 
L 228.337039 184.126052 
L 233.87495 184.126052 
L 234.982533 183.010185 
L 237.197698 183.010185 
L 238.30528 181.894317 
L 251.596268 181.894317 
L 252.703851 179.662583 
L 254.919015 179.662583 
L 257.13418 177.430849 
L 258.241763 177.430849 
L 259.349345 176.314982 
L 265.994839 176.314982 
L 269.317586 172.96738 
L 270.425169 172.96738 
L 271.532751 171.851513 
L 272.640333 169.619779 
L 273.747916 169.619779 
L 274.855498 168.503911 
L 275.963081 168.503911 
L 280.39341 164.040443 
L 282.608575 164.040443 
L 283.716157 161.808708 
L 287.038904 161.808708 
L 288.146487 160.692841 
L 291.469234 160.692841 
L 292.576816 159.576974 
L 293.684399 159.576974 
L 294.791981 156.229373 
L 298.114728 156.229373 
L 299.22231 155.113506 
L 300.329893 152.881771 
L 302.545058 152.881771 
L 303.65264 151.765904 
L 305.867805 151.765904 
L 306.975387 150.650037 
L 308.082969 150.650037 
L 313.620881 145.070701 
L 315.836046 145.070701 
L 319.158793 141.7231 
L 322.48154 141.7231 
L 323.589123 139.491365 
L 324.696705 139.491365 
L 325.804287 138.375498 
L 329.127035 138.375498 
L 330.234617 137.259631 
L 340.202858 137.259631 
L 341.310441 136.143764 
L 349.063517 136.143764 
L 350.1711 135.027897 
L 352.386264 135.027897 
L 354.601429 132.796162 
L 360.139341 132.796162 
L 361.246923 131.680295 
L 366.784835 131.680295 
L 370.107582 128.332694 
L 384.506153 128.332694 
L 385.613736 126.100959 
L 386.721318 124.985092 
L 413.303295 124.985092 
L 414.410877 123.869225 
L 421.056372 123.869225 
L 423.271536 121.637491 
L 425.486701 121.637491 
L 426.594283 120.521624 
L 427.701866 120.521624 
L 429.917031 118.289889 
L 431.024613 118.289889 
L 432.132195 117.174022 
L 433.239778 117.174022 
L 435.454942 112.710554 
L 436.562525 111.594686 
L 442.100437 111.594686 
L 443.208019 108.247085 
L 444.315601 106.015351 
L 446.530766 106.015351 
L 448.745931 103.783616 
L 454.283843 103.783616 
L 456.499008 101.551882 
L 458.714172 101.551882 
L 459.821755 100.436015 
L 462.036919 100.436015 
L 463.144502 99.320148 
L 464.252084 99.320148 
L 465.359667 98.20428 
L 466.467249 98.20428 
L 467.574831 97.088413 
L 468.682414 97.088413 
L 469.789996 95.972546 
L 472.005161 95.972546 
L 473.112743 93.740812 
L 478.650655 93.740812 
L 480.86582 91.509077 
L 491.941644 91.509077 
L 493.049226 90.39321 
L 494.156808 90.39321 
L 495.264391 89.277343 
L 496.371973 89.277343 
L 499.69472 85.929742 
L 501.909885 85.929742 
L 503.017467 84.813875 
L 525.169115 84.813875 
L 527.384279 82.58214 
L 531.814609 82.58214 
L 532.922191 81.466273 
L 534.029774 81.466273 
L 535.137356 80.350406 
L 536.244938 80.350406 
L 537.352521 79.234539 
L 561.719333 79.234539 
L 562.826915 78.118672 
L 584.978563 78.118672 
L 586.086145 75.886937 
L 593.839222 75.886937 
L 596.054387 73.655203 
L 598.269551 73.655203 
L 599.377134 72.539336 
L 601.592299 72.539336 
L 603.807463 70.307601 
L 606.022628 70.307601 
L 607.13021 68.075867 
L 615.990869 68.075867 
L 617.098452 66.96 
L 622.636364 66.96 
L 622.636364 66.96 
" clip-path="url(#pb7e8ec41c3)" style="fill: none; stroke: #ff7f0e; stroke-width: 1.5; stroke-linecap: square"/>
   </g>
   <g id="line2d_31">
    <path d="M 115.363636 335.883985 
L 119.793966 335.883985 
L 120.901548 333.652251 
L 123.116713 333.652251 
L 124.224295 332.536384 
L 125.331878 330.304649 
L 126.43946 329.188782 
L 127.547042 325.841181 
L 128.654625 323.609446 
L 129.762207 322.493579 
L 130.86979 322.493579 
L 131.977372 320.261845 
L 133.084954 316.914244 
L 137.515284 316.914244 
L 138.622866 315.798376 
L 139.730449 315.798376 
L 140.838031 313.566642 
L 144.160778 313.566642 
L 146.375943 311.334908 
L 150.806272 311.334908 
L 151.913855 310.219041 
L 156.344184 310.219041 
L 159.666931 306.871439 
L 165.204843 306.871439 
L 166.312426 305.755572 
L 169.635173 305.755572 
L 170.742755 304.639705 
L 172.95792 304.639705 
L 174.065502 302.40797 
L 182.926161 302.40797 
L 184.033744 301.292103 
L 185.141326 299.060369 
L 186.248908 297.944502 
L 187.356491 297.944502 
L 188.464073 296.828635 
L 190.679238 296.828635 
L 191.78682 295.712768 
L 194.001985 295.712768 
L 195.109567 294.5969 
L 201.755062 294.5969 
L 202.862644 293.481033 
L 203.970226 293.481033 
L 205.077809 292.365166 
L 206.185391 292.365166 
L 207.292973 291.249299 
L 210.615721 291.249299 
L 211.723303 290.133432 
L 212.830885 287.901697 
L 218.368797 287.901697 
L 221.691544 284.554096 
L 225.014291 284.554096 
L 226.121874 283.438229 
L 230.552203 283.438229 
L 231.659786 282.322362 
L 232.767368 282.322362 
L 233.87495 281.206494 
L 236.090115 281.206494 
L 237.197698 280.090627 
L 240.520445 280.090627 
L 242.735609 277.858893 
L 243.843192 277.858893 
L 244.950774 276.743026 
L 253.811433 276.743026 
L 254.919015 274.511292 
L 256.026598 273.395424 
L 264.887257 273.395424 
L 265.994839 272.279557 
L 269.317586 272.279557 
L 270.425169 271.16369 
L 273.747916 271.16369 
L 274.855498 270.047823 
L 285.931322 270.047823 
L 287.038904 268.931956 
L 291.469234 268.931956 
L 292.576816 267.816089 
L 299.22231 267.816089 
L 300.329893 266.700221 
L 302.545058 266.700221 
L 303.65264 265.584354 
L 308.082969 265.584354 
L 310.298134 263.35262 
L 331.342199 263.35262 
L 332.449782 262.236753 
L 333.557364 262.236753 
L 334.664946 261.120886 
L 337.987694 261.120886 
L 339.095276 260.005018 
L 344.633188 260.005018 
L 345.74077 258.889151 
L 347.955935 258.889151 
L 349.063517 257.773284 
L 355.709012 257.773284 
L 356.816594 258.889151 
L 357.924176 257.773284 
L 365.677253 257.773284 
L 366.784835 256.657417 
L 375.645494 256.657417 
L 376.753077 255.54155 
L 378.968241 255.54155 
L 380.075824 254.425683 
L 381.183406 254.425683 
L 382.290988 253.309815 
L 390.044065 253.309815 
L 391.151647 252.193948 
L 397.797142 252.193948 
L 398.904724 251.078081 
L 415.51846 251.078081 
L 416.626042 249.962214 
L 440.992854 249.962214 
L 442.100437 248.846347 
L 453.17626 248.846347 
L 454.283843 247.73048 
L 472.005161 247.73048 
L 474.220326 245.498745 
L 494.156808 245.498745 
L 495.264391 244.382878 
L 496.371973 242.151144 
L 518.52362 242.151144 
L 519.631203 241.035277 
L 521.846368 241.035277 
L 522.95395 239.91941 
L 529.599444 239.91941 
L 530.707027 238.803542 
L 534.029774 238.803542 
L 536.244938 236.571808 
L 538.460103 236.571808 
L 539.567686 235.455941 
L 543.998015 235.455941 
L 545.105597 233.224207 
L 548.428345 233.224207 
L 549.535927 232.108339 
L 550.643509 232.108339 
L 552.858674 229.876605 
L 567.257245 229.876605 
L 568.364827 228.760738 
L 581.655816 228.760738 
L 582.763398 226.529004 
L 591.624057 226.529004 
L 593.839222 224.297269 
L 604.915046 224.297269 
L 608.237793 220.949668 
L 611.56054 220.949668 
L 612.668122 219.833801 
L 614.883287 219.833801 
L 615.990869 218.717934 
L 622.636364 218.717934 
L 622.636364 218.717934 
" clip-path="url(#pb7e8ec41c3)" style="fill: none; stroke: #2ca02c; stroke-width: 1.5; stroke-linecap: square"/>
   </g>
   <g id="line2d_32">
    <path d="M 115.363636 369.36 
L 388.936483 369.36 
L 390.044065 368.244133 
L 622.636364 368.244133 
L 622.636364 368.244133 
" clip-path="url(#pb7e8ec41c3)" style="fill: none; stroke: #d62728; stroke-width: 1.5; stroke-linecap: square"/>
   </g>
   <g id="line2d_33">
    <path d="M 115.363636 344.810923 
L 118.686383 344.810923 
L 119.793966 343.695055 
L 126.43946 343.695055 
L 127.547042 342.579188 
L 134.192537 342.579188 
L 135.300119 341.463321 
L 159.666931 341.463321 
L 160.774514 340.347454 
L 200.647479 340.347454 
L 202.862644 338.11572 
L 211.723303 338.11572 
L 212.830885 336.999852 
L 217.261215 336.999852 
L 218.368797 335.883985 
L 220.583962 335.883985 
L 221.691544 334.768118 
L 250.488686 334.768118 
L 251.596268 333.652251 
L 297.007146 333.652251 
L 298.114728 332.536384 
L 442.100437 332.536384 
L 443.208019 331.420517 
L 444.315601 331.420517 
L 445.423184 330.304649 
L 515.200873 330.304649 
L 516.308456 329.188782 
L 622.636364 329.188782 
L 622.636364 329.188782 
" clip-path="url(#pb7e8ec41c3)" style="fill: none; stroke: #9467bd; stroke-width: 1.5; stroke-linecap: square"/>
   </g>
   <g id="line2d_34">
    <path d="M 115.363636 353.73786 
L 116.471219 353.73786 
L 117.578801 352.621993 
L 133.084954 352.621993 
L 134.192537 351.506125 
L 147.483525 351.506125 
L 148.591108 350.390258 
L 165.204843 350.390258 
L 167.420008 348.158524 
L 179.603414 348.158524 
L 180.710996 347.042657 
L 213.938468 347.042657 
L 215.04605 345.92679 
L 225.014291 345.92679 
L 226.121874 344.810923 
L 244.950774 344.810923 
L 246.058356 343.695055 
L 263.779674 343.695055 
L 264.887257 342.579188 
L 269.317586 342.579188 
L 270.425169 341.463321 
L 280.39341 341.463321 
L 281.500992 340.347454 
L 308.082969 340.347454 
L 309.190552 339.231587 
L 315.836046 339.231587 
L 316.943628 338.11572 
L 323.589123 338.11572 
L 324.696705 336.999852 
L 329.127035 336.999852 
L 330.234617 335.883985 
L 371.215165 335.883985 
L 372.322747 334.768118 
L 404.442636 334.768118 
L 405.550218 333.652251 
L 469.789996 333.652251 
L 470.897578 332.536384 
L 501.909885 332.536384 
L 503.017467 331.420517 
L 517.416038 331.420517 
L 518.52362 330.304649 
L 622.636364 330.304649 
L 622.636364 330.304649 
" clip-path="url(#pb7e8ec41c3)" style="fill: none; stroke: #8c564b; stroke-width: 1.5; stroke-linecap: square"/>
   </g>
   <g id="line2d_35">
    <path d="M 115.363636 271.16369 
L 119.793966 271.16369 
L 120.901548 270.047823 
L 125.331878 270.047823 
L 127.547042 267.816089 
L 128.654625 267.816089 
L 129.762207 266.700221 
L 130.86979 266.700221 
L 131.977372 265.584354 
L 134.192537 265.584354 
L 135.300119 264.468487 
L 138.622866 264.468487 
L 139.730449 263.35262 
L 141.945613 263.35262 
L 143.053196 262.236753 
L 144.160778 262.236753 
L 145.26836 261.120886 
L 147.483525 261.120886 
L 149.69869 258.889151 
L 154.129019 258.889151 
L 155.236602 257.773284 
L 158.559349 257.773284 
L 160.774514 255.54155 
L 162.989678 255.54155 
L 164.097261 254.425683 
L 166.312426 254.425683 
L 167.420008 253.309815 
L 168.52759 251.078081 
L 169.635173 247.73048 
L 171.850337 247.73048 
L 172.95792 246.614613 
L 178.495832 246.614613 
L 180.710996 244.382878 
L 181.818579 242.151144 
L 182.926161 241.035277 
L 184.033744 241.035277 
L 185.141326 238.803542 
L 189.571655 238.803542 
L 190.679238 237.687675 
L 191.78682 237.687675 
L 194.001985 235.455941 
L 195.109567 235.455941 
L 196.21715 234.340074 
L 197.324732 234.340074 
L 199.539897 232.108339 
L 201.755062 232.108339 
L 202.862644 229.876605 
L 207.292973 229.876605 
L 209.508138 227.644871 
L 211.723303 227.644871 
L 212.830885 226.529004 
L 213.938468 224.297269 
L 217.261215 224.297269 
L 218.368797 223.181402 
L 219.47638 223.181402 
L 220.583962 220.949668 
L 221.691544 220.949668 
L 222.799127 219.833801 
L 223.906709 219.833801 
L 225.014291 218.717934 
L 229.444621 218.717934 
L 231.659786 216.486199 
L 232.767368 216.486199 
L 233.87495 214.254465 
L 234.982533 214.254465 
L 236.090115 213.138598 
L 237.197698 213.138598 
L 238.30528 212.022731 
L 241.628027 212.022731 
L 242.735609 210.906863 
L 243.843192 210.906863 
L 248.273521 206.443395 
L 249.381104 204.211661 
L 251.596268 204.211661 
L 253.811433 199.748192 
L 256.026598 199.748192 
L 258.241763 197.516458 
L 259.349345 197.516458 
L 260.456927 195.284723 
L 261.56451 195.284723 
L 262.672092 194.168856 
L 263.779674 194.168856 
L 264.887257 193.052989 
L 267.102422 193.052989 
L 268.210004 191.937122 
L 269.317586 191.937122 
L 270.425169 190.821255 
L 274.855498 190.821255 
L 275.963081 185.241919 
L 277.070663 185.241919 
L 278.178245 184.126052 
L 281.500992 184.126052 
L 282.608575 183.010185 
L 292.576816 183.010185 
L 293.684399 180.77845 
L 298.114728 180.77845 
L 299.22231 179.662583 
L 310.298134 179.662583 
L 311.405717 177.430849 
L 312.513299 176.314982 
L 318.051211 176.314982 
L 319.158793 175.199114 
L 326.91187 175.199114 
L 328.019452 174.083247 
L 329.127035 174.083247 
L 330.234617 172.96738 
L 336.880111 172.96738 
L 339.095276 170.735646 
L 346.848353 170.735646 
L 349.063517 168.503911 
L 350.1711 168.503911 
L 351.278682 167.388044 
L 357.924176 167.388044 
L 359.031759 166.272177 
L 362.354506 166.272177 
L 363.462088 165.15631 
L 364.569671 162.924576 
L 367.892418 162.924576 
L 369 161.808708 
L 370.107582 161.808708 
L 372.322747 159.576974 
L 376.753077 159.576974 
L 377.860659 158.461107 
L 382.290988 158.461107 
L 383.398571 157.34524 
L 386.721318 157.34524 
L 387.8289 156.229373 
L 396.689559 156.229373 
L 398.904724 153.997638 
L 404.442636 153.997638 
L 405.550218 152.881771 
L 409.980548 152.881771 
L 415.51846 147.302435 
L 417.733624 147.302435 
L 418.841207 146.186568 
L 419.948789 146.186568 
L 421.056372 143.954834 
L 423.271536 141.7231 
L 425.486701 137.259631 
L 427.701866 137.259631 
L 429.917031 132.796162 
L 432.132195 132.796162 
L 433.239778 130.564428 
L 435.454942 128.332694 
L 438.77769 128.332694 
L 439.885272 127.216827 
L 440.992854 127.216827 
L 443.208019 124.985092 
L 447.638349 124.985092 
L 448.745931 123.869225 
L 450.961096 123.869225 
L 452.068678 122.753358 
L 457.60659 122.753358 
L 458.714172 120.521624 
L 459.821755 119.405756 
L 460.929337 119.405756 
L 462.036919 118.289889 
L 464.252084 118.289889 
L 465.359667 117.174022 
L 467.574831 117.174022 
L 468.682414 114.942288 
L 470.897578 114.942288 
L 472.005161 113.826421 
L 473.112743 113.826421 
L 474.220326 112.710554 
L 479.758237 112.710554 
L 480.86582 111.594686 
L 486.403732 111.594686 
L 487.511314 110.478819 
L 488.618896 110.478819 
L 489.726479 108.247085 
L 491.941644 106.015351 
L 493.049226 102.667749 
L 494.156808 101.551882 
L 495.264391 101.551882 
L 496.371973 100.436015 
L 497.479555 100.436015 
L 498.587138 99.320148 
L 503.017467 99.320148 
L 504.12505 98.20428 
L 506.340214 98.20428 
L 507.447797 97.088413 
L 509.662961 97.088413 
L 511.878126 94.856679 
L 515.200873 94.856679 
L 516.308456 93.740812 
L 521.846368 93.740812 
L 522.95395 91.509077 
L 528.491862 91.509077 
L 529.599444 90.39321 
L 532.922191 90.39321 
L 534.029774 88.161476 
L 538.460103 88.161476 
L 539.567686 87.045609 
L 549.535927 87.045609 
L 550.643509 85.929742 
L 552.858674 85.929742 
L 553.966256 84.813875 
L 561.719333 84.813875 
L 562.826915 83.698007 
L 563.934498 83.698007 
L 565.04208 82.58214 
L 566.149663 82.58214 
L 567.257245 81.466273 
L 573.902739 81.466273 
L 576.117904 79.234539 
L 591.624057 79.234539 
L 592.73164 78.118672 
L 593.839222 78.118672 
L 596.054387 75.886937 
L 597.161969 75.886937 
L 598.269551 74.77107 
L 611.56054 74.77107 
L 612.668122 73.655203 
L 613.775705 71.423469 
L 615.990869 71.423469 
L 617.098452 70.307601 
L 622.636364 70.307601 
L 622.636364 70.307601 
" clip-path="url(#pb7e8ec41c3)" style="fill: none; stroke: #e377c2; stroke-width: 1.5; stroke-linecap: square"/>
   </g>
   <g id="line2d_36">
    <path d="M 115.363636 340.347454 
L 116.471219 340.347454 
L 118.686383 338.11572 
L 124.224295 338.11572 
L 125.331878 336.999852 
L 126.43946 336.999852 
L 128.654625 334.768118 
L 130.86979 334.768118 
L 131.977372 333.652251 
L 135.300119 333.652251 
L 136.407701 332.536384 
L 137.515284 332.536384 
L 138.622866 331.420517 
L 139.730449 331.420517 
L 141.945613 329.188782 
L 145.26836 329.188782 
L 146.375943 328.072915 
L 148.591108 328.072915 
L 150.806272 325.841181 
L 153.021437 325.841181 
L 155.236602 323.609446 
L 156.344184 323.609446 
L 157.451767 322.493579 
L 158.559349 319.145978 
L 162.989678 319.145978 
L 167.420008 314.682509 
L 168.52759 314.682509 
L 170.742755 312.450775 
L 171.850337 312.450775 
L 172.95792 311.334908 
L 174.065502 311.334908 
L 175.173085 310.219041 
L 185.141326 310.219041 
L 186.248908 309.103173 
L 197.324732 309.103173 
L 199.539897 306.871439 
L 202.862644 306.871439 
L 203.970226 305.755572 
L 206.185391 305.755572 
L 208.400556 303.523838 
L 210.615721 303.523838 
L 211.723303 301.292103 
L 215.04605 301.292103 
L 216.153632 299.060369 
L 217.261215 297.944502 
L 222.799127 297.944502 
L 223.906709 296.828635 
L 225.014291 296.828635 
L 227.229456 294.5969 
L 232.767368 294.5969 
L 233.87495 293.481033 
L 234.982533 293.481033 
L 236.090115 292.365166 
L 242.735609 292.365166 
L 243.843192 291.249299 
L 247.165939 291.249299 
L 248.273521 290.133432 
L 249.381104 290.133432 
L 250.488686 286.78583 
L 251.596268 286.78583 
L 252.703851 284.554096 
L 253.811433 283.438229 
L 254.919015 283.438229 
L 257.13418 281.206494 
L 259.349345 281.206494 
L 260.456927 280.090627 
L 262.672092 280.090627 
L 263.779674 278.97476 
L 264.887257 278.97476 
L 265.994839 276.743026 
L 267.102422 276.743026 
L 268.210004 275.627159 
L 270.425169 275.627159 
L 272.640333 273.395424 
L 273.747916 273.395424 
L 274.855498 271.16369 
L 275.963081 270.047823 
L 283.716157 270.047823 
L 284.82374 267.816089 
L 288.146487 267.816089 
L 289.254069 266.700221 
L 290.361651 266.700221 
L 291.469234 265.584354 
L 294.791981 265.584354 
L 295.899563 264.468487 
L 301.437475 264.468487 
L 302.545058 263.35262 
L 304.760222 263.35262 
L 305.867805 262.236753 
L 311.405717 262.236753 
L 312.513299 261.120886 
L 322.48154 261.120886 
L 324.696705 258.889151 
L 325.804287 258.889151 
L 326.91187 257.773284 
L 328.019452 257.773284 
L 329.127035 256.657417 
L 330.234617 256.657417 
L 331.342199 255.54155 
L 333.557364 255.54155 
L 334.664946 254.425683 
L 335.772529 254.425683 
L 337.987694 252.193948 
L 341.310441 252.193948 
L 342.418023 251.078081 
L 345.74077 251.078081 
L 346.848353 249.962214 
L 354.601429 249.962214 
L 355.709012 248.846347 
L 356.816594 248.846347 
L 357.924176 247.73048 
L 362.354506 247.73048 
L 363.462088 245.498745 
L 370.107582 245.498745 
L 371.215165 244.382878 
L 372.322747 244.382878 
L 373.430329 242.151144 
L 378.968241 242.151144 
L 380.075824 241.035277 
L 386.721318 241.035277 
L 387.8289 239.91941 
L 402.227471 239.91941 
L 403.335054 238.803542 
L 419.948789 238.803542 
L 421.056372 237.687675 
L 426.594283 237.687675 
L 427.701866 236.571808 
L 428.809448 236.571808 
L 429.917031 235.455941 
L 431.024613 235.455941 
L 432.132195 233.224207 
L 433.239778 233.224207 
L 435.454942 230.992472 
L 443.208019 230.992472 
L 444.315601 229.876605 
L 445.423184 229.876605 
L 446.530766 228.760738 
L 447.638349 228.760738 
L 448.745931 227.644871 
L 454.283843 227.644871 
L 455.391425 226.529004 
L 465.359667 226.529004 
L 466.467249 225.413137 
L 472.005161 225.413137 
L 473.112743 224.297269 
L 478.650655 224.297269 
L 479.758237 223.181402 
L 481.973402 223.181402 
L 485.296149 219.833801 
L 487.511314 219.833801 
L 488.618896 217.602066 
L 494.156808 217.602066 
L 496.371973 215.370332 
L 498.587138 215.370332 
L 499.69472 214.254465 
L 500.802303 214.254465 
L 503.017467 212.022731 
L 510.770544 212.022731 
L 511.878126 210.906863 
L 514.093291 210.906863 
L 515.200873 209.790996 
L 524.061532 209.790996 
L 526.276697 207.559262 
L 529.599444 207.559262 
L 530.707027 206.443395 
L 531.814609 206.443395 
L 532.922191 203.095793 
L 534.029774 201.979926 
L 538.460103 201.979926 
L 539.567686 199.748192 
L 542.890433 199.748192 
L 543.998015 198.632325 
L 555.073839 198.632325 
L 556.181421 197.516458 
L 567.257245 197.516458 
L 569.47241 195.284723 
L 577.225486 195.284723 
L 578.333069 194.168856 
L 597.161969 194.168856 
L 601.592299 189.705387 
L 606.022628 189.705387 
L 607.13021 188.58952 
L 615.990869 188.58952 
L 617.098452 187.473653 
L 620.421199 187.473653 
L 621.528781 186.357786 
L 622.636364 186.357786 
L 622.636364 186.357786 
" clip-path="url(#pb7e8ec41c3)" style="fill: none; stroke: #7f7f7f; stroke-width: 1.5; stroke-linecap: square"/>
   </g>
   <g id="line2d_37">
    <path d="M 115.363636 347.042657 
L 119.793966 347.042657 
L 120.901548 345.92679 
L 131.977372 345.92679 
L 133.084954 344.810923 
L 138.622866 344.810923 
L 139.730449 343.695055 
L 150.806272 343.695055 
L 151.913855 342.579188 
L 162.989678 342.579188 
L 164.097261 341.463321 
L 223.906709 341.463321 
L 225.014291 340.347454 
L 230.552203 340.347454 
L 231.659786 339.231587 
L 239.412862 339.231587 
L 240.520445 338.11572 
L 241.628027 338.11572 
L 242.735609 334.768118 
L 243.843192 333.652251 
L 246.058356 333.652251 
L 247.165939 332.536384 
L 258.241763 332.536384 
L 259.349345 331.420517 
L 269.317586 331.420517 
L 270.425169 330.304649 
L 282.608575 330.304649 
L 283.716157 329.188782 
L 297.007146 329.188782 
L 298.114728 328.072915 
L 303.65264 328.072915 
L 304.760222 326.957048 
L 340.202858 326.957048 
L 341.310441 325.841181 
L 343.525605 325.841181 
L 344.633188 324.725314 
L 353.493847 324.725314 
L 354.601429 323.609446 
L 385.613736 323.609446 
L 388.936483 320.261845 
L 421.056372 320.261845 
L 422.163954 319.145978 
L 423.271536 319.145978 
L 425.486701 316.914244 
L 427.701866 316.914244 
L 428.809448 315.798376 
L 485.296149 315.798376 
L 486.403732 314.682509 
L 550.643509 314.682509 
L 551.751092 313.566642 
L 598.269551 313.566642 
L 599.377134 312.450775 
L 604.915046 312.450775 
L 606.022628 311.334908 
L 621.528781 311.334908 
L 622.636364 310.219041 
L 622.636364 310.219041 
" clip-path="url(#pb7e8ec41c3)" style="fill: none; stroke: #bcbd22; stroke-width: 1.5; stroke-linecap: square"/>
   </g>
   <g id="line2d_38">
    <path d="M 115.363636 367.128266 
L 170.742755 367.128266 
L 171.850337 366.012399 
L 241.628027 366.012399 
L 242.735609 364.896531 
L 355.709012 364.896531 
L 356.816594 363.780664 
L 357.924176 364.896531 
L 491.941644 364.896531 
L 493.049226 363.780664 
L 500.802303 363.780664 
L 501.909885 362.664797 
L 529.599444 362.664797 
L 530.707027 361.54893 
L 622.636364 361.54893 
L 622.636364 361.54893 
" clip-path="url(#pb7e8ec41c3)" style="fill: none; stroke: #17becf; stroke-width: 1.5; stroke-linecap: square"/>
   </g>
   <g id="line2d_39">
    <path d="M 115.363636 369.36 
L 116.471219 368.244133 
L 118.686383 368.244133 
L 119.793966 367.128266 
L 127.547042 367.128266 
L 128.654625 366.012399 
L 131.977372 366.012399 
L 133.084954 364.896531 
L 134.192537 364.896531 
L 136.407701 362.664797 
L 141.945613 362.664797 
L 144.160778 360.433063 
L 145.26836 360.433063 
L 146.375943 359.317196 
L 154.129019 359.317196 
L 155.236602 358.201328 
L 156.344184 355.969594 
L 158.559349 355.969594 
L 159.666931 354.853727 
L 160.774514 354.853727 
L 161.882096 353.73786 
L 162.989678 353.73786 
L 164.097261 352.621993 
L 165.204843 352.621993 
L 167.420008 350.390258 
L 174.065502 350.390258 
L 176.280667 348.158524 
L 179.603414 348.158524 
L 180.710996 347.042657 
L 181.818579 347.042657 
L 182.926161 344.810923 
L 186.248908 344.810923 
L 188.464073 340.347454 
L 195.109567 340.347454 
L 196.21715 338.11572 
L 197.324732 336.999852 
L 200.647479 336.999852 
L 201.755062 335.883985 
L 202.862644 333.652251 
L 205.077809 333.652251 
L 206.185391 332.536384 
L 221.691544 332.536384 
L 222.799127 330.304649 
L 230.552203 322.493579 
L 241.628027 322.493579 
L 244.950774 319.145978 
L 247.165939 319.145978 
L 248.273521 316.914244 
L 250.488686 316.914244 
L 251.596268 315.798376 
L 254.919015 315.798376 
L 256.026598 314.682509 
L 257.13418 314.682509 
L 258.241763 313.566642 
L 259.349345 313.566642 
L 261.56451 311.334908 
L 275.963081 311.334908 
L 278.178245 309.103173 
L 287.038904 309.103173 
L 288.146487 307.987306 
L 291.469234 307.987306 
L 293.684399 305.755572 
L 297.007146 305.755572 
L 298.114728 304.639705 
L 300.329893 304.639705 
L 301.437475 303.523838 
L 306.975387 303.523838 
L 308.082969 302.40797 
L 309.190552 302.40797 
L 310.298134 300.176236 
L 311.405717 300.176236 
L 312.513299 299.060369 
L 318.051211 299.060369 
L 319.158793 297.944502 
L 321.373958 297.944502 
L 322.48154 296.828635 
L 323.589123 296.828635 
L 325.804287 294.5969 
L 333.557364 294.5969 
L 334.664946 293.481033 
L 335.772529 293.481033 
L 336.880111 292.365166 
L 342.418023 292.365166 
L 343.525605 290.133432 
L 344.633188 289.017565 
L 350.1711 289.017565 
L 351.278682 287.901697 
L 355.709012 287.901697 
L 356.816594 285.669963 
L 361.246923 285.669963 
L 363.462088 283.438229 
L 366.784835 283.438229 
L 367.892418 282.322362 
L 381.183406 282.322362 
L 382.290988 280.090627 
L 383.398571 278.97476 
L 392.25923 278.97476 
L 393.366812 277.858893 
L 413.303295 277.858893 
L 414.410877 276.743026 
L 416.626042 276.743026 
L 417.733624 275.627159 
L 421.056372 275.627159 
L 422.163954 274.511292 
L 436.562525 274.511292 
L 437.670107 272.279557 
L 439.885272 272.279557 
L 440.992854 271.16369 
L 442.100437 271.16369 
L 443.208019 270.047823 
L 447.638349 270.047823 
L 448.745931 268.931956 
L 456.499008 268.931956 
L 457.60659 266.700221 
L 458.714172 266.700221 
L 459.821755 265.584354 
L 465.359667 265.584354 
L 466.467249 264.468487 
L 472.005161 264.468487 
L 474.220326 262.236753 
L 476.43549 262.236753 
L 477.543073 261.120886 
L 479.758237 261.120886 
L 480.86582 260.005018 
L 481.973402 260.005018 
L 483.080985 258.889151 
L 490.834061 258.889151 
L 491.941644 257.773284 
L 517.416038 257.773284 
L 518.52362 256.657417 
L 524.061532 256.657417 
L 525.169115 255.54155 
L 537.352521 255.54155 
L 538.460103 254.425683 
L 587.193728 254.425683 
L 588.30131 253.309815 
L 594.946804 253.309815 
L 596.054387 252.193948 
L 597.161969 252.193948 
L 598.269551 251.078081 
L 612.668122 251.078081 
L 613.775705 249.962214 
L 622.636364 249.962214 
L 622.636364 249.962214 
" clip-path="url(#pb7e8ec41c3)" style="fill: none; stroke: #1f77b4; stroke-width: 1.5; stroke-linecap: square"/>
   </g>
   <g id="line2d_40">
    <path d="M 115.363636 328.072915 
L 123.116713 328.072915 
L 124.224295 326.957048 
L 127.547042 326.957048 
L 128.654625 325.841181 
L 133.084954 325.841181 
L 134.192537 324.725314 
L 137.515284 324.725314 
L 138.622866 323.609446 
L 139.730449 323.609446 
L 140.838031 322.493579 
L 144.160778 322.493579 
L 145.26836 321.377712 
L 147.483525 321.377712 
L 148.591108 320.261845 
L 149.69869 320.261845 
L 151.913855 318.030111 
L 158.559349 318.030111 
L 159.666931 316.914244 
L 160.774514 316.914244 
L 161.882096 315.798376 
L 162.989678 315.798376 
L 164.097261 313.566642 
L 165.204843 310.219041 
L 166.312426 309.103173 
L 170.742755 309.103173 
L 174.065502 305.755572 
L 177.388249 305.755572 
L 179.603414 303.523838 
L 191.78682 303.523838 
L 192.894403 300.176236 
L 194.001985 300.176236 
L 196.21715 295.712768 
L 198.432314 293.481033 
L 199.539897 293.481033 
L 200.647479 291.249299 
L 209.508138 291.249299 
L 210.615721 289.017565 
L 213.938468 289.017565 
L 215.04605 287.901697 
L 222.799127 287.901697 
L 223.906709 286.78583 
L 237.197698 286.78583 
L 238.30528 285.669963 
L 239.412862 285.669963 
L 240.520445 284.554096 
L 243.843192 284.554096 
L 244.950774 283.438229 
L 258.241763 283.438229 
L 259.349345 282.322362 
L 261.56451 282.322362 
L 263.779674 277.858893 
L 265.994839 277.858893 
L 268.210004 275.627159 
L 270.425169 275.627159 
L 271.532751 274.511292 
L 274.855498 274.511292 
L 275.963081 273.395424 
L 289.254069 273.395424 
L 290.361651 272.279557 
L 306.975387 272.279557 
L 308.082969 271.16369 
L 318.051211 271.16369 
L 319.158793 270.047823 
L 321.373958 270.047823 
L 322.48154 268.931956 
L 325.804287 268.931956 
L 328.019452 266.700221 
L 329.127035 266.700221 
L 330.234617 265.584354 
L 334.664946 265.584354 
L 336.880111 263.35262 
L 342.418023 263.35262 
L 343.525605 262.236753 
L 346.848353 262.236753 
L 347.955935 261.120886 
L 353.493847 261.120886 
L 354.601429 260.005018 
L 360.139341 260.005018 
L 361.246923 258.889151 
L 381.183406 258.889151 
L 382.290988 257.773284 
L 383.398571 257.773284 
L 384.506153 256.657417 
L 395.581977 256.657417 
L 396.689559 254.425683 
L 397.797142 254.425683 
L 398.904724 253.309815 
L 409.980548 253.309815 
L 411.08813 252.193948 
L 415.51846 252.193948 
L 416.626042 251.078081 
L 417.733624 251.078081 
L 418.841207 249.962214 
L 428.809448 249.962214 
L 429.917031 248.846347 
L 452.068678 248.846347 
L 453.17626 245.498745 
L 460.929337 245.498745 
L 462.036919 244.382878 
L 464.252084 244.382878 
L 465.359667 243.267011 
L 478.650655 243.267011 
L 479.758237 242.151144 
L 495.264391 242.151144 
L 496.371973 241.035277 
L 499.69472 241.035277 
L 500.802303 239.91941 
L 509.662961 239.91941 
L 510.770544 237.687675 
L 528.491862 237.687675 
L 529.599444 236.571808 
L 535.137356 236.571808 
L 536.244938 235.455941 
L 552.858674 235.455941 
L 553.966256 234.340074 
L 556.181421 234.340074 
L 557.289004 233.224207 
L 568.364827 233.224207 
L 569.47241 232.108339 
L 581.655816 232.108339 
L 582.763398 230.992472 
L 597.161969 230.992472 
L 598.269551 229.876605 
L 611.56054 229.876605 
L 612.668122 228.760738 
L 620.421199 228.760738 
L 621.528781 227.644871 
L 622.636364 227.644871 
L 622.636364 227.644871 
" clip-path="url(#pb7e8ec41c3)" style="fill: none; stroke: #ff7f0e; stroke-width: 1.5; stroke-linecap: square"/>
   </g>
   <g id="patch_3">
    <path d="M 90 384.48 
L 90 51.84 
" style="fill: none; stroke: #000000; stroke-width: 0.8; stroke-linejoin: miter; stroke-linecap: square"/>
   </g>
   <g id="patch_4">
    <path d="M 648 384.48 
L 648 51.84 
" style="fill: none; stroke: #000000; stroke-width: 0.8; stroke-linejoin: miter; stroke-linecap: square"/>
   </g>
   <g id="patch_5">
    <path d="M 90 384.48 
L 648 384.48 
" style="fill: none; stroke: #000000; stroke-width: 0.8; stroke-linejoin: miter; stroke-linecap: square"/>
   </g>
   <g id="patch_6">
    <path d="M 90 51.84 
L 648 51.84 
" style="fill: none; stroke: #000000; stroke-width: 0.8; stroke-linejoin: miter; stroke-linecap: square"/>
   </g>
   <g id="text_17">
    <!-- Time Series of Votes for Each Keyword -->
    <g transform="translate(253.716563 45.84) scale(0.12 -0.12)">
     <defs>
      <path id="DejaVuSans-53" d="M 3425 4513 
L 3425 3897 
Q 3066 4069 2747 4153 
Q 2428 4238 2131 4238 
Q 1616 4238 1336 4038 
Q 1056 3838 1056 3469 
Q 1056 3159 1242 3001 
Q 1428 2844 1947 2747 
L 2328 2669 
Q 3034 2534 3370 2195 
Q 3706 1856 3706 1288 
Q 3706 609 3251 259 
Q 2797 -91 1919 -91 
Q 1588 -91 1214 -16 
Q 841 59 441 206 
L 441 856 
Q 825 641 1194 531 
Q 1563 422 1919 422 
Q 2459 422 2753 634 
Q 3047 847 3047 1241 
Q 3047 1584 2836 1778 
Q 2625 1972 2144 2069 
L 1759 2144 
Q 1053 2284 737 2584 
Q 422 2884 422 3419 
Q 422 4038 858 4394 
Q 1294 4750 2059 4750 
Q 2388 4750 2728 4690 
Q 3069 4631 3425 4513 
z
" transform="scale(0.015625)"/>
      <path id="DejaVuSans-72" d="M 2631 2963 
Q 2534 3019 2420 3045 
Q 2306 3072 2169 3072 
Q 1681 3072 1420 2755 
Q 1159 2438 1159 1844 
L 1159 0 
L 581 0 
L 581 3500 
L 1159 3500 
L 1159 2956 
Q 1341 3275 1631 3429 
Q 1922 3584 2338 3584 
Q 2397 3584 2469 3576 
Q 2541 3569 2628 3553 
L 2631 2963 
z
" transform="scale(0.015625)"/>
      <path id="DejaVuSans-66" d="M 2375 4863 
L 2375 4384 
L 1825 4384 
Q 1516 4384 1395 4259 
Q 1275 4134 1275 3809 
L 1275 3500 
L 2222 3500 
L 2222 3053 
L 1275 3053 
L 1275 0 
L 697 0 
L 697 3053 
L 147 3053 
L 147 3500 
L 697 3500 
L 697 3744 
Q 697 4328 969 4595 
Q 1241 4863 1831 4863 
L 2375 4863 
z
" transform="scale(0.015625)"/>
      <path id="DejaVuSans-45" d="M 628 4666 
L 3578 4666 
L 3578 4134 
L 1259 4134 
L 1259 2753 
L 3481 2753 
L 3481 2222 
L 1259 2222 
L 1259 531 
L 3634 531 
L 3634 0 
L 628 0 
L 628 4666 
z
" transform="scale(0.015625)"/>
      <path id="DejaVuSans-63" d="M 3122 3366 
L 3122 2828 
Q 2878 2963 2633 3030 
Q 2388 3097 2138 3097 
Q 1578 3097 1268 2742 
Q 959 2388 959 1747 
Q 959 1106 1268 751 
Q 1578 397 2138 397 
Q 2388 397 2633 464 
Q 2878 531 3122 666 
L 3122 134 
Q 2881 22 2623 -34 
Q 2366 -91 2075 -91 
Q 1284 -91 818 406 
Q 353 903 353 1747 
Q 353 2603 823 3093 
Q 1294 3584 2113 3584 
Q 2378 3584 2631 3529 
Q 2884 3475 3122 3366 
z
" transform="scale(0.015625)"/>
      <path id="DejaVuSans-68" d="M 3513 2113 
L 3513 0 
L 2938 0 
L 2938 2094 
Q 2938 2591 2744 2837 
Q 2550 3084 2163 3084 
Q 1697 3084 1428 2787 
Q 1159 2491 1159 1978 
L 1159 0 
L 581 0 
L 581 4863 
L 1159 4863 
L 1159 2956 
Q 1366 3272 1645 3428 
Q 1925 3584 2291 3584 
Q 2894 3584 3203 3211 
Q 3513 2838 3513 2113 
z
" transform="scale(0.015625)"/>
      <path id="DejaVuSans-4b" d="M 628 4666 
L 1259 4666 
L 1259 2694 
L 3353 4666 
L 4166 4666 
L 1850 2491 
L 4331 0 
L 3500 0 
L 1259 2247 
L 1259 0 
L 628 0 
L 628 4666 
z
" transform="scale(0.015625)"/>
      <path id="DejaVuSans-79" d="M 2059 -325 
Q 1816 -950 1584 -1140 
Q 1353 -1331 966 -1331 
L 506 -1331 
L 506 -850 
L 844 -850 
Q 1081 -850 1212 -737 
Q 1344 -625 1503 -206 
L 1606 56 
L 191 3500 
L 800 3500 
L 1894 763 
L 2988 3500 
L 3597 3500 
L 2059 -325 
z
" transform="scale(0.015625)"/>
      <path id="DejaVuSans-77" d="M 269 3500 
L 844 3500 
L 1563 769 
L 2278 3500 
L 2956 3500 
L 3675 769 
L 4391 3500 
L 4966 3500 
L 4050 0 
L 3372 0 
L 2619 2869 
L 1863 0 
L 1184 0 
L 269 3500 
z
" transform="scale(0.015625)"/>
     </defs>
     <use xlink:href="#DejaVuSans-54"/>
     <use xlink:href="#DejaVuSans-69" transform="translate(57.958984 0)"/>
     <use xlink:href="#DejaVuSans-6d" transform="translate(85.742188 0)"/>
     <use xlink:href="#DejaVuSans-65" transform="translate(183.154297 0)"/>
     <use xlink:href="#DejaVuSans-20" transform="translate(244.677734 0)"/>
     <use xlink:href="#DejaVuSans-53" transform="translate(276.464844 0)"/>
     <use xlink:href="#DejaVuSans-65" transform="translate(339.941406 0)"/>
     <use xlink:href="#DejaVuSans-72" transform="translate(401.464844 0)"/>
     <use xlink:href="#DejaVuSans-69" transform="translate(442.578125 0)"/>
     <use xlink:href="#DejaVuSans-65" transform="translate(470.361328 0)"/>
     <use xlink:href="#DejaVuSans-73" transform="translate(531.884766 0)"/>
     <use xlink:href="#DejaVuSans-20" transform="translate(583.984375 0)"/>
     <use xlink:href="#DejaVuSans-6f" transform="translate(615.771484 0)"/>
     <use xlink:href="#DejaVuSans-66" transform="translate(676.953125 0)"/>
     <use xlink:href="#DejaVuSans-20" transform="translate(712.158203 0)"/>
     <use xlink:href="#DejaVuSans-56" transform="translate(743.945312 0)"/>
     <use xlink:href="#DejaVuSans-6f" transform="translate(804.603516 0)"/>
     <use xlink:href="#DejaVuSans-74" transform="translate(865.785156 0)"/>
     <use xlink:href="#DejaVuSans-65" transform="translate(904.994141 0)"/>
     <use xlink:href="#DejaVuSans-73" transform="translate(966.517578 0)"/>
     <use xlink:href="#DejaVuSans-20" transform="translate(1018.617188 0)"/>
     <use xlink:href="#DejaVuSans-66" transform="translate(1050.404297 0)"/>
     <use xlink:href="#DejaVuSans-6f" transform="translate(1085.609375 0)"/>
     <use xlink:href="#DejaVuSans-72" transform="translate(1146.791016 0)"/>
     <use xlink:href="#DejaVuSans-20" transform="translate(1187.904297 0)"/>
     <use xlink:href="#DejaVuSans-45" transform="translate(1219.691406 0)"/>
     <use xlink:href="#DejaVuSans-61" transform="translate(1282.875 0)"/>
     <use xlink:href="#DejaVuSans-63" transform="translate(1344.154297 0)"/>
     <use xlink:href="#DejaVuSans-68" transform="translate(1399.134766 0)"/>
     <use xlink:href="#DejaVuSans-20" transform="translate(1462.513672 0)"/>
     <use xlink:href="#DejaVuSans-4b" transform="translate(1494.300781 0)"/>
     <use xlink:href="#DejaVuSans-65" transform="translate(1554.876953 0)"/>
     <use xlink:href="#DejaVuSans-79" transform="translate(1616.400391 0)"/>
     <use xlink:href="#DejaVuSans-77" transform="translate(1675.580078 0)"/>
     <use xlink:href="#DejaVuSans-6f" transform="translate(1757.367188 0)"/>
     <use xlink:href="#DejaVuSans-72" transform="translate(1818.548828 0)"/>
     <use xlink:href="#DejaVuSans-64" transform="translate(1857.912109 0)"/>
    </g>
   </g>
   <g id="legend_1">
    <g id="patch_7">
     <path d="M 97 235.9775 
L 149.245313 235.9775 
Q 151.245313 235.9775 151.245313 233.9775 
L 151.245313 58.84 
Q 151.245313 56.84 149.245313 56.84 
L 97 56.84 
Q 95 56.84 95 58.84 
L 95 233.9775 
Q 95 235.9775 97 235.9775 
z
" style="fill: #ffffff; opacity: 0.8; stroke: #cccccc; stroke-linejoin: miter"/>
    </g>
    <g id="line2d_41">
     <path d="M 99 64.938437 
L 109 64.938437 
L 119 64.938437 
" style="fill: none; stroke: #1f77b4; stroke-width: 1.5; stroke-linecap: square"/>
    </g>
    <g id="text_18">
     <!-- H01 -->
     <g transform="translate(127 68.438437) scale(0.1 -0.1)">
      <defs>
       <path id="DejaVuSans-48" d="M 628 4666 
L 1259 4666 
L 1259 2753 
L 3553 2753 
L 3553 4666 
L 4184 4666 
L 4184 0 
L 3553 0 
L 3553 2222 
L 1259 2222 
L 1259 0 
L 628 0 
L 628 4666 
z
" transform="scale(0.015625)"/>
      </defs>
      <use xlink:href="#DejaVuSans-48"/>
      <use xlink:href="#DejaVuSans-30" transform="translate(75.195312 0)"/>
      <use xlink:href="#DejaVuSans-31" transform="translate(138.818359 0)"/>
     </g>
    </g>
    <g id="line2d_42">
     <path d="M 99 79.616562 
L 109 79.616562 
L 119 79.616562 
" style="fill: none; stroke: #ff7f0e; stroke-width: 1.5; stroke-linecap: square"/>
    </g>
    <g id="text_19">
     <!-- H02 -->
     <g transform="translate(127 83.116562) scale(0.1 -0.1)">
      <use xlink:href="#DejaVuSans-48"/>
      <use xlink:href="#DejaVuSans-30" transform="translate(75.195312 0)"/>
      <use xlink:href="#DejaVuSans-32" transform="translate(138.818359 0)"/>
     </g>
    </g>
    <g id="line2d_43">
     <path d="M 99 94.294688 
L 109 94.294688 
L 119 94.294688 
" style="fill: none; stroke: #2ca02c; stroke-width: 1.5; stroke-linecap: square"/>
    </g>
    <g id="text_20">
     <!-- H03 -->
     <g transform="translate(127 97.794688) scale(0.1 -0.1)">
      <defs>
       <path id="DejaVuSans-33" d="M 2597 2516 
Q 3050 2419 3304 2112 
Q 3559 1806 3559 1356 
Q 3559 666 3084 287 
Q 2609 -91 1734 -91 
Q 1441 -91 1130 -33 
Q 819 25 488 141 
L 488 750 
Q 750 597 1062 519 
Q 1375 441 1716 441 
Q 2309 441 2620 675 
Q 2931 909 2931 1356 
Q 2931 1769 2642 2001 
Q 2353 2234 1838 2234 
L 1294 2234 
L 1294 2753 
L 1863 2753 
Q 2328 2753 2575 2939 
Q 2822 3125 2822 3475 
Q 2822 3834 2567 4026 
Q 2313 4219 1838 4219 
Q 1578 4219 1281 4162 
Q 984 4106 628 3988 
L 628 4550 
Q 988 4650 1302 4700 
Q 1616 4750 1894 4750 
Q 2613 4750 3031 4423 
Q 3450 4097 3450 3541 
Q 3450 3153 3228 2886 
Q 3006 2619 2597 2516 
z
" transform="scale(0.015625)"/>
      </defs>
      <use xlink:href="#DejaVuSans-48"/>
      <use xlink:href="#DejaVuSans-30" transform="translate(75.195312 0)"/>
      <use xlink:href="#DejaVuSans-33" transform="translate(138.818359 0)"/>
     </g>
    </g>
    <g id="line2d_44">
     <path d="M 99 108.972812 
L 109 108.972812 
L 119 108.972812 
" style="fill: none; stroke: #d62728; stroke-width: 1.5; stroke-linecap: square"/>
    </g>
    <g id="text_21">
     <!-- H04 -->
     <g transform="translate(127 112.472812) scale(0.1 -0.1)">
      <use xlink:href="#DejaVuSans-48"/>
      <use xlink:href="#DejaVuSans-30" transform="translate(75.195312 0)"/>
      <use xlink:href="#DejaVuSans-34" transform="translate(138.818359 0)"/>
     </g>
    </g>
    <g id="line2d_45">
     <path d="M 99 123.650937 
L 109 123.650937 
L 119 123.650937 
" style="fill: none; stroke: #9467bd; stroke-width: 1.5; stroke-linecap: square"/>
    </g>
    <g id="text_22">
     <!-- H05 -->
     <g transform="translate(127 127.150937) scale(0.1 -0.1)">
      <use xlink:href="#DejaVuSans-48"/>
      <use xlink:href="#DejaVuSans-30" transform="translate(75.195312 0)"/>
      <use xlink:href="#DejaVuSans-35" transform="translate(138.818359 0)"/>
     </g>
    </g>
    <g id="line2d_46">
     <path d="M 99 138.329062 
L 109 138.329062 
L 119 138.329062 
" style="fill: none; stroke: #8c564b; stroke-width: 1.5; stroke-linecap: square"/>
    </g>
    <g id="text_23">
     <!-- H06 -->
     <g transform="translate(127 141.829062) scale(0.1 -0.1)">
      <use xlink:href="#DejaVuSans-48"/>
      <use xlink:href="#DejaVuSans-30" transform="translate(75.195312 0)"/>
      <use xlink:href="#DejaVuSans-36" transform="translate(138.818359 0)"/>
     </g>
    </g>
    <g id="line2d_47">
     <path d="M 99 153.007187 
L 109 153.007187 
L 119 153.007187 
" style="fill: none; stroke: #e377c2; stroke-width: 1.5; stroke-linecap: square"/>
    </g>
    <g id="text_24">
     <!-- H07 -->
     <g transform="translate(127 156.507187) scale(0.1 -0.1)">
      <use xlink:href="#DejaVuSans-48"/>
      <use xlink:href="#DejaVuSans-30" transform="translate(75.195312 0)"/>
      <use xlink:href="#DejaVuSans-37" transform="translate(138.818359 0)"/>
     </g>
    </g>
    <g id="line2d_48">
     <path d="M 99 167.685312 
L 109 167.685312 
L 119 167.685312 
" style="fill: none; stroke: #7f7f7f; stroke-width: 1.5; stroke-linecap: square"/>
    </g>
    <g id="text_25">
     <!-- H08 -->
     <g transform="translate(127 171.185312) scale(0.1 -0.1)">
      <use xlink:href="#DejaVuSans-48"/>
      <use xlink:href="#DejaVuSans-30" transform="translate(75.195312 0)"/>
      <use xlink:href="#DejaVuSans-38" transform="translate(138.818359 0)"/>
     </g>
    </g>
    <g id="line2d_49">
     <path d="M 99 182.363437 
L 109 182.363437 
L 119 182.363437 
" style="fill: none; stroke: #bcbd22; stroke-width: 1.5; stroke-linecap: square"/>
    </g>
    <g id="text_26">
     <!-- H09 -->
     <g transform="translate(127 185.863437) scale(0.1 -0.1)">
      <use xlink:href="#DejaVuSans-48"/>
      <use xlink:href="#DejaVuSans-30" transform="translate(75.195312 0)"/>
      <use xlink:href="#DejaVuSans-39" transform="translate(138.818359 0)"/>
     </g>
    </g>
    <g id="line2d_50">
     <path d="M 99 197.041562 
L 109 197.041562 
L 119 197.041562 
" style="fill: none; stroke: #17becf; stroke-width: 1.5; stroke-linecap: square"/>
    </g>
    <g id="text_27">
     <!-- H10 -->
     <g transform="translate(127 200.541562) scale(0.1 -0.1)">
      <use xlink:href="#DejaVuSans-48"/>
      <use xlink:href="#DejaVuSans-31" transform="translate(75.195312 0)"/>
      <use xlink:href="#DejaVuSans-30" transform="translate(138.818359 0)"/>
     </g>
    </g>
    <g id="line2d_51">
     <path d="M 99 211.719687 
L 109 211.719687 
L 119 211.719687 
" style="fill: none; stroke: #1f77b4; stroke-width: 1.5; stroke-linecap: square"/>
    </g>
    <g id="text_28">
     <!-- H11 -->
     <g transform="translate(127 215.219687) scale(0.1 -0.1)">
      <use xlink:href="#DejaVuSans-48"/>
      <use xlink:href="#DejaVuSans-31" transform="translate(75.195312 0)"/>
      <use xlink:href="#DejaVuSans-31" transform="translate(138.818359 0)"/>
     </g>
    </g>
    <g id="line2d_52">
     <path d="M 99 226.397812 
L 109 226.397812 
L 119 226.397812 
" style="fill: none; stroke: #ff7f0e; stroke-width: 1.5; stroke-linecap: square"/>
    </g>
    <g id="text_29">
     <!-- H12 -->
     <g transform="translate(127 229.897812) scale(0.1 -0.1)">
      <use xlink:href="#DejaVuSans-48"/>
      <use xlink:href="#DejaVuSans-31" transform="translate(75.195312 0)"/>
      <use xlink:href="#DejaVuSans-32" transform="translate(138.818359 0)"/>
     </g>
    </g>
   </g>
  </g>
 </g>
 <defs>
  <clipPath id="pb7e8ec41c3">
   <rect x="90" y="51.84" width="558" height="332.64"/>
  </clipPath>
 </defs>
</svg>
