<?xml version="1.0" encoding="utf-8" standalone="no"?>
<!DOCTYPE svg PUBLIC "-//W3C//DTD SVG 1.1//EN"
  "http://www.w3.org/Graphics/SVG/1.1/DTD/svg11.dtd">
<svg xmlns:xlink="http://www.w3.org/1999/xlink" width="720pt" height="432pt" viewBox="0 0 720 432" xmlns="http://www.w3.org/2000/svg" version="1.1">
 <metadata>
  <rdf:RDF xmlns:dc="http://purl.org/dc/elements/1.1/" xmlns:cc="http://creativecommons.org/ns#" xmlns:rdf="http://www.w3.org/1999/02/22-rdf-syntax-ns#">
   <cc:Work>
    <dc:type rdf:resource="http://purl.org/dc/dcmitype/StillImage"/>
    <dc:date>2025-01-14T19:32:54.054346</dc:date>
    <dc:format>image/svg+xml</dc:format>
    <dc:creator>
     <cc:Agent>
      <dc:title>Matplotlib v3.10.0, https://matplotlib.org/</dc:title>
     </cc:Agent>
    </dc:creator>
   </cc:Work>
  </rdf:RDF>
 </metadata>
 <defs>
  <style type="text/css">*{stroke-linejoin: round; stroke-linecap: butt}</style>
 </defs>
 <g id="figure_1">
  <g id="patch_1">
   <path d="M 0 432 
L 720 432 
L 720 0 
L 0 0 
z
" style="fill: #ffffff"/>
  </g>
  <g id="axes_1">
   <g id="patch_2">
    <path d="M 90 384.48 
L 648 384.48 
L 648 51.84 
L 90 51.84 
z
" style="fill: #ffffff"/>
   </g>
   <g id="matplotlib.axis_1">
    <g id="xtick_1">
     <g id="line2d_1">
      <path d="M 153.515067 384.48 
L 153.515067 51.84 
" clip-path="url(#pc60b19d6b9)" style="fill: none; stroke: #b0b0b0; stroke-width: 0.8; stroke-linecap: square"/>
     </g>
     <g id="line2d_2">
      <defs>
       <path id="m6ae39fd8ff" d="M 0 0 
L 0 3.5 
" style="stroke: #000000; stroke-width: 0.8"/>
      </defs>
      <g>
       <use xlink:href="#m6ae39fd8ff" x="153.515067" y="384.48" style="stroke: #000000; stroke-width: 0.8"/>
      </g>
     </g>
     <g id="text_1">
      <!-- 01-14 14 -->
      <g transform="translate(131.034598 399.078438) scale(0.1 -0.1)">
       <defs>
        <path id="DejaVuSans-30" d="M 2034 4250 
Q 1547 4250 1301 3770 
Q 1056 3291 1056 2328 
Q 1056 1369 1301 889 
Q 1547 409 2034 409 
Q 2525 409 2770 889 
Q 3016 1369 3016 2328 
Q 3016 3291 2770 3770 
Q 2525 4250 2034 4250 
z
M 2034 4750 
Q 2819 4750 3233 4129 
Q 3647 3509 3647 2328 
Q 3647 1150 3233 529 
Q 2819 -91 2034 -91 
Q 1250 -91 836 529 
Q 422 1150 422 2328 
Q 422 3509 836 4129 
Q 1250 4750 2034 4750 
z
" transform="scale(0.015625)"/>
        <path id="DejaVuSans-31" d="M 794 531 
L 1825 531 
L 1825 4091 
L 703 3866 
L 703 4441 
L 1819 4666 
L 2450 4666 
L 2450 531 
L 3481 531 
L 3481 0 
L 794 0 
L 794 531 
z
" transform="scale(0.015625)"/>
        <path id="DejaVuSans-2d" d="M 313 2009 
L 1997 2009 
L 1997 1497 
L 313 1497 
L 313 2009 
z
" transform="scale(0.015625)"/>
        <path id="DejaVuSans-34" d="M 2419 4116 
L 825 1625 
L 2419 1625 
L 2419 4116 
z
M 2253 4666 
L 3047 4666 
L 3047 1625 
L 3713 1625 
L 3713 1100 
L 3047 1100 
L 3047 0 
L 2419 0 
L 2419 1100 
L 313 1100 
L 313 1709 
L 2253 4666 
z
" transform="scale(0.015625)"/>
        <path id="DejaVuSans-20" transform="scale(0.015625)"/>
       </defs>
       <use xlink:href="#DejaVuSans-30"/>
       <use xlink:href="#DejaVuSans-31" transform="translate(63.623047 0)"/>
       <use xlink:href="#DejaVuSans-2d" transform="translate(127.246094 0)"/>
       <use xlink:href="#DejaVuSans-31" transform="translate(163.330078 0)"/>
       <use xlink:href="#DejaVuSans-34" transform="translate(226.953125 0)"/>
       <use xlink:href="#DejaVuSans-20" transform="translate(290.576172 0)"/>
       <use xlink:href="#DejaVuSans-31" transform="translate(322.363281 0)"/>
       <use xlink:href="#DejaVuSans-34" transform="translate(385.986328 0)"/>
      </g>
     </g>
    </g>
    <g id="xtick_2">
     <g id="line2d_3">
      <path d="M 238.296024 384.48 
L 238.296024 51.84 
" clip-path="url(#pc60b19d6b9)" style="fill: none; stroke: #b0b0b0; stroke-width: 0.8; stroke-linecap: square"/>
     </g>
     <g id="line2d_4">
      <g>
       <use xlink:href="#m6ae39fd8ff" x="238.296024" y="384.48" style="stroke: #000000; stroke-width: 0.8"/>
      </g>
     </g>
     <g id="text_2">
      <!-- 01-14 15 -->
      <g transform="translate(215.815556 399.078438) scale(0.1 -0.1)">
       <defs>
        <path id="DejaVuSans-35" d="M 691 4666 
L 3169 4666 
L 3169 4134 
L 1269 4134 
L 1269 2991 
Q 1406 3038 1543 3061 
Q 1681 3084 1819 3084 
Q 2600 3084 3056 2656 
Q 3513 2228 3513 1497 
Q 3513 744 3044 326 
Q 2575 -91 1722 -91 
Q 1428 -91 1123 -41 
Q 819 9 494 109 
L 494 744 
Q 775 591 1075 516 
Q 1375 441 1709 441 
Q 2250 441 2565 725 
Q 2881 1009 2881 1497 
Q 2881 1984 2565 2268 
Q 2250 2553 1709 2553 
Q 1456 2553 1204 2497 
Q 953 2441 691 2322 
L 691 4666 
z
" transform="scale(0.015625)"/>
       </defs>
       <use xlink:href="#DejaVuSans-30"/>
       <use xlink:href="#DejaVuSans-31" transform="translate(63.623047 0)"/>
       <use xlink:href="#DejaVuSans-2d" transform="translate(127.246094 0)"/>
       <use xlink:href="#DejaVuSans-31" transform="translate(163.330078 0)"/>
       <use xlink:href="#DejaVuSans-34" transform="translate(226.953125 0)"/>
       <use xlink:href="#DejaVuSans-20" transform="translate(290.576172 0)"/>
       <use xlink:href="#DejaVuSans-31" transform="translate(322.363281 0)"/>
       <use xlink:href="#DejaVuSans-35" transform="translate(385.986328 0)"/>
      </g>
     </g>
    </g>
    <g id="xtick_3">
     <g id="line2d_5">
      <path d="M 323.076982 384.48 
L 323.076982 51.84 
" clip-path="url(#pc60b19d6b9)" style="fill: none; stroke: #b0b0b0; stroke-width: 0.8; stroke-linecap: square"/>
     </g>
     <g id="line2d_6">
      <g>
       <use xlink:href="#m6ae39fd8ff" x="323.076982" y="384.48" style="stroke: #000000; stroke-width: 0.8"/>
      </g>
     </g>
     <g id="text_3">
      <!-- 01-14 16 -->
      <g transform="translate(300.596513 399.078438) scale(0.1 -0.1)">
       <defs>
        <path id="DejaVuSans-36" d="M 2113 2584 
Q 1688 2584 1439 2293 
Q 1191 2003 1191 1497 
Q 1191 994 1439 701 
Q 1688 409 2113 409 
Q 2538 409 2786 701 
Q 3034 994 3034 1497 
Q 3034 2003 2786 2293 
Q 2538 2584 2113 2584 
z
M 3366 4563 
L 3366 3988 
Q 3128 4100 2886 4159 
Q 2644 4219 2406 4219 
Q 1781 4219 1451 3797 
Q 1122 3375 1075 2522 
Q 1259 2794 1537 2939 
Q 1816 3084 2150 3084 
Q 2853 3084 3261 2657 
Q 3669 2231 3669 1497 
Q 3669 778 3244 343 
Q 2819 -91 2113 -91 
Q 1303 -91 875 529 
Q 447 1150 447 2328 
Q 447 3434 972 4092 
Q 1497 4750 2381 4750 
Q 2619 4750 2861 4703 
Q 3103 4656 3366 4563 
z
" transform="scale(0.015625)"/>
       </defs>
       <use xlink:href="#DejaVuSans-30"/>
       <use xlink:href="#DejaVuSans-31" transform="translate(63.623047 0)"/>
       <use xlink:href="#DejaVuSans-2d" transform="translate(127.246094 0)"/>
       <use xlink:href="#DejaVuSans-31" transform="translate(163.330078 0)"/>
       <use xlink:href="#DejaVuSans-34" transform="translate(226.953125 0)"/>
       <use xlink:href="#DejaVuSans-20" transform="translate(290.576172 0)"/>
       <use xlink:href="#DejaVuSans-31" transform="translate(322.363281 0)"/>
       <use xlink:href="#DejaVuSans-36" transform="translate(385.986328 0)"/>
      </g>
     </g>
    </g>
    <g id="xtick_4">
     <g id="line2d_7">
      <path d="M 407.857939 384.48 
L 407.857939 51.84 
" clip-path="url(#pc60b19d6b9)" style="fill: none; stroke: #b0b0b0; stroke-width: 0.8; stroke-linecap: square"/>
     </g>
     <g id="line2d_8">
      <g>
       <use xlink:href="#m6ae39fd8ff" x="407.857939" y="384.48" style="stroke: #000000; stroke-width: 0.8"/>
      </g>
     </g>
     <g id="text_4">
      <!-- 01-14 17 -->
      <g transform="translate(385.37747 399.078438) scale(0.1 -0.1)">
       <defs>
        <path id="DejaVuSans-37" d="M 525 4666 
L 3525 4666 
L 3525 4397 
L 1831 0 
L 1172 0 
L 2766 4134 
L 525 4134 
L 525 4666 
z
" transform="scale(0.015625)"/>
       </defs>
       <use xlink:href="#DejaVuSans-30"/>
       <use xlink:href="#DejaVuSans-31" transform="translate(63.623047 0)"/>
       <use xlink:href="#DejaVuSans-2d" transform="translate(127.246094 0)"/>
       <use xlink:href="#DejaVuSans-31" transform="translate(163.330078 0)"/>
       <use xlink:href="#DejaVuSans-34" transform="translate(226.953125 0)"/>
       <use xlink:href="#DejaVuSans-20" transform="translate(290.576172 0)"/>
       <use xlink:href="#DejaVuSans-31" transform="translate(322.363281 0)"/>
       <use xlink:href="#DejaVuSans-37" transform="translate(385.986328 0)"/>
      </g>
     </g>
    </g>
    <g id="xtick_5">
     <g id="line2d_9">
      <path d="M 492.638896 384.48 
L 492.638896 51.84 
" clip-path="url(#pc60b19d6b9)" style="fill: none; stroke: #b0b0b0; stroke-width: 0.8; stroke-linecap: square"/>
     </g>
     <g id="line2d_10">
      <g>
       <use xlink:href="#m6ae39fd8ff" x="492.638896" y="384.48" style="stroke: #000000; stroke-width: 0.8"/>
      </g>
     </g>
     <g id="text_5">
      <!-- 01-14 18 -->
      <g transform="translate(470.158427 399.078438) scale(0.1 -0.1)">
       <defs>
        <path id="DejaVuSans-38" d="M 2034 2216 
Q 1584 2216 1326 1975 
Q 1069 1734 1069 1313 
Q 1069 891 1326 650 
Q 1584 409 2034 409 
Q 2484 409 2743 651 
Q 3003 894 3003 1313 
Q 3003 1734 2745 1975 
Q 2488 2216 2034 2216 
z
M 1403 2484 
Q 997 2584 770 2862 
Q 544 3141 544 3541 
Q 544 4100 942 4425 
Q 1341 4750 2034 4750 
Q 2731 4750 3128 4425 
Q 3525 4100 3525 3541 
Q 3525 3141 3298 2862 
Q 3072 2584 2669 2484 
Q 3125 2378 3379 2068 
Q 3634 1759 3634 1313 
Q 3634 634 3220 271 
Q 2806 -91 2034 -91 
Q 1263 -91 848 271 
Q 434 634 434 1313 
Q 434 1759 690 2068 
Q 947 2378 1403 2484 
z
M 1172 3481 
Q 1172 3119 1398 2916 
Q 1625 2713 2034 2713 
Q 2441 2713 2670 2916 
Q 2900 3119 2900 3481 
Q 2900 3844 2670 4047 
Q 2441 4250 2034 4250 
Q 1625 4250 1398 4047 
Q 1172 3844 1172 3481 
z
" transform="scale(0.015625)"/>
       </defs>
       <use xlink:href="#DejaVuSans-30"/>
       <use xlink:href="#DejaVuSans-31" transform="translate(63.623047 0)"/>
       <use xlink:href="#DejaVuSans-2d" transform="translate(127.246094 0)"/>
       <use xlink:href="#DejaVuSans-31" transform="translate(163.330078 0)"/>
       <use xlink:href="#DejaVuSans-34" transform="translate(226.953125 0)"/>
       <use xlink:href="#DejaVuSans-20" transform="translate(290.576172 0)"/>
       <use xlink:href="#DejaVuSans-31" transform="translate(322.363281 0)"/>
       <use xlink:href="#DejaVuSans-38" transform="translate(385.986328 0)"/>
      </g>
     </g>
    </g>
    <g id="xtick_6">
     <g id="line2d_11">
      <path d="M 577.419853 384.48 
L 577.419853 51.84 
" clip-path="url(#pc60b19d6b9)" style="fill: none; stroke: #b0b0b0; stroke-width: 0.8; stroke-linecap: square"/>
     </g>
     <g id="line2d_12">
      <g>
       <use xlink:href="#m6ae39fd8ff" x="577.419853" y="384.48" style="stroke: #000000; stroke-width: 0.8"/>
      </g>
     </g>
     <g id="text_6">
      <!-- 01-14 19 -->
      <g transform="translate(554.939384 399.078438) scale(0.1 -0.1)">
       <defs>
        <path id="DejaVuSans-39" d="M 703 97 
L 703 672 
Q 941 559 1184 500 
Q 1428 441 1663 441 
Q 2288 441 2617 861 
Q 2947 1281 2994 2138 
Q 2813 1869 2534 1725 
Q 2256 1581 1919 1581 
Q 1219 1581 811 2004 
Q 403 2428 403 3163 
Q 403 3881 828 4315 
Q 1253 4750 1959 4750 
Q 2769 4750 3195 4129 
Q 3622 3509 3622 2328 
Q 3622 1225 3098 567 
Q 2575 -91 1691 -91 
Q 1453 -91 1209 -44 
Q 966 3 703 97 
z
M 1959 2075 
Q 2384 2075 2632 2365 
Q 2881 2656 2881 3163 
Q 2881 3666 2632 3958 
Q 2384 4250 1959 4250 
Q 1534 4250 1286 3958 
Q 1038 3666 1038 3163 
Q 1038 2656 1286 2365 
Q 1534 2075 1959 2075 
z
" transform="scale(0.015625)"/>
       </defs>
       <use xlink:href="#DejaVuSans-30"/>
       <use xlink:href="#DejaVuSans-31" transform="translate(63.623047 0)"/>
       <use xlink:href="#DejaVuSans-2d" transform="translate(127.246094 0)"/>
       <use xlink:href="#DejaVuSans-31" transform="translate(163.330078 0)"/>
       <use xlink:href="#DejaVuSans-34" transform="translate(226.953125 0)"/>
       <use xlink:href="#DejaVuSans-20" transform="translate(290.576172 0)"/>
       <use xlink:href="#DejaVuSans-31" transform="translate(322.363281 0)"/>
       <use xlink:href="#DejaVuSans-39" transform="translate(385.986328 0)"/>
      </g>
     </g>
    </g>
    <g id="text_7">
     <!-- Date and Time -->
     <g transform="translate(332.230469 412.756563) scale(0.1 -0.1)">
      <defs>
       <path id="DejaVuSans-44" d="M 1259 4147 
L 1259 519 
L 2022 519 
Q 2988 519 3436 956 
Q 3884 1394 3884 2338 
Q 3884 3275 3436 3711 
Q 2988 4147 2022 4147 
L 1259 4147 
z
M 628 4666 
L 1925 4666 
Q 3281 4666 3915 4102 
Q 4550 3538 4550 2338 
Q 4550 1131 3912 565 
Q 3275 0 1925 0 
L 628 0 
L 628 4666 
z
" transform="scale(0.015625)"/>
       <path id="DejaVuSans-61" d="M 2194 1759 
Q 1497 1759 1228 1600 
Q 959 1441 959 1056 
Q 959 750 1161 570 
Q 1363 391 1709 391 
Q 2188 391 2477 730 
Q 2766 1069 2766 1631 
L 2766 1759 
L 2194 1759 
z
M 3341 1997 
L 3341 0 
L 2766 0 
L 2766 531 
Q 2569 213 2275 61 
Q 1981 -91 1556 -91 
Q 1019 -91 701 211 
Q 384 513 384 1019 
Q 384 1609 779 1909 
Q 1175 2209 1959 2209 
L 2766 2209 
L 2766 2266 
Q 2766 2663 2505 2880 
Q 2244 3097 1772 3097 
Q 1472 3097 1187 3025 
Q 903 2953 641 2809 
L 641 3341 
Q 956 3463 1253 3523 
Q 1550 3584 1831 3584 
Q 2591 3584 2966 3190 
Q 3341 2797 3341 1997 
z
" transform="scale(0.015625)"/>
       <path id="DejaVuSans-74" d="M 1172 4494 
L 1172 3500 
L 2356 3500 
L 2356 3053 
L 1172 3053 
L 1172 1153 
Q 1172 725 1289 603 
Q 1406 481 1766 481 
L 2356 481 
L 2356 0 
L 1766 0 
Q 1100 0 847 248 
Q 594 497 594 1153 
L 594 3053 
L 172 3053 
L 172 3500 
L 594 3500 
L 594 4494 
L 1172 4494 
z
" transform="scale(0.015625)"/>
       <path id="DejaVuSans-65" d="M 3597 1894 
L 3597 1613 
L 953 1613 
Q 991 1019 1311 708 
Q 1631 397 2203 397 
Q 2534 397 2845 478 
Q 3156 559 3463 722 
L 3463 178 
Q 3153 47 2828 -22 
Q 2503 -91 2169 -91 
Q 1331 -91 842 396 
Q 353 884 353 1716 
Q 353 2575 817 3079 
Q 1281 3584 2069 3584 
Q 2775 3584 3186 3129 
Q 3597 2675 3597 1894 
z
M 3022 2063 
Q 3016 2534 2758 2815 
Q 2500 3097 2075 3097 
Q 1594 3097 1305 2825 
Q 1016 2553 972 2059 
L 3022 2063 
z
" transform="scale(0.015625)"/>
       <path id="DejaVuSans-6e" d="M 3513 2113 
L 3513 0 
L 2938 0 
L 2938 2094 
Q 2938 2591 2744 2837 
Q 2550 3084 2163 3084 
Q 1697 3084 1428 2787 
Q 1159 2491 1159 1978 
L 1159 0 
L 581 0 
L 581 3500 
L 1159 3500 
L 1159 2956 
Q 1366 3272 1645 3428 
Q 1925 3584 2291 3584 
Q 2894 3584 3203 3211 
Q 3513 2838 3513 2113 
z
" transform="scale(0.015625)"/>
       <path id="DejaVuSans-64" d="M 2906 2969 
L 2906 4863 
L 3481 4863 
L 3481 0 
L 2906 0 
L 2906 525 
Q 2725 213 2448 61 
Q 2172 -91 1784 -91 
Q 1150 -91 751 415 
Q 353 922 353 1747 
Q 353 2572 751 3078 
Q 1150 3584 1784 3584 
Q 2172 3584 2448 3432 
Q 2725 3281 2906 2969 
z
M 947 1747 
Q 947 1113 1208 752 
Q 1469 391 1925 391 
Q 2381 391 2643 752 
Q 2906 1113 2906 1747 
Q 2906 2381 2643 2742 
Q 2381 3103 1925 3103 
Q 1469 3103 1208 2742 
Q 947 2381 947 1747 
z
" transform="scale(0.015625)"/>
       <path id="DejaVuSans-54" d="M -19 4666 
L 3928 4666 
L 3928 4134 
L 2272 4134 
L 2272 0 
L 1638 0 
L 1638 4134 
L -19 4134 
L -19 4666 
z
" transform="scale(0.015625)"/>
       <path id="DejaVuSans-69" d="M 603 3500 
L 1178 3500 
L 1178 0 
L 603 0 
L 603 3500 
z
M 603 4863 
L 1178 4863 
L 1178 4134 
L 603 4134 
L 603 4863 
z
" transform="scale(0.015625)"/>
       <path id="DejaVuSans-6d" d="M 3328 2828 
Q 3544 3216 3844 3400 
Q 4144 3584 4550 3584 
Q 5097 3584 5394 3201 
Q 5691 2819 5691 2113 
L 5691 0 
L 5113 0 
L 5113 2094 
Q 5113 2597 4934 2840 
Q 4756 3084 4391 3084 
Q 3944 3084 3684 2787 
Q 3425 2491 3425 1978 
L 3425 0 
L 2847 0 
L 2847 2094 
Q 2847 2600 2669 2842 
Q 2491 3084 2119 3084 
Q 1678 3084 1418 2786 
Q 1159 2488 1159 1978 
L 1159 0 
L 581 0 
L 581 3500 
L 1159 3500 
L 1159 2956 
Q 1356 3278 1631 3431 
Q 1906 3584 2284 3584 
Q 2666 3584 2933 3390 
Q 3200 3197 3328 2828 
z
" transform="scale(0.015625)"/>
      </defs>
      <use xlink:href="#DejaVuSans-44"/>
      <use xlink:href="#DejaVuSans-61" transform="translate(77.001953 0)"/>
      <use xlink:href="#DejaVuSans-74" transform="translate(138.28125 0)"/>
      <use xlink:href="#DejaVuSans-65" transform="translate(177.490234 0)"/>
      <use xlink:href="#DejaVuSans-20" transform="translate(239.013672 0)"/>
      <use xlink:href="#DejaVuSans-61" transform="translate(270.800781 0)"/>
      <use xlink:href="#DejaVuSans-6e" transform="translate(332.080078 0)"/>
      <use xlink:href="#DejaVuSans-64" transform="translate(395.458984 0)"/>
      <use xlink:href="#DejaVuSans-20" transform="translate(458.935547 0)"/>
      <use xlink:href="#DejaVuSans-54" transform="translate(490.722656 0)"/>
      <use xlink:href="#DejaVuSans-69" transform="translate(548.681641 0)"/>
      <use xlink:href="#DejaVuSans-6d" transform="translate(576.464844 0)"/>
      <use xlink:href="#DejaVuSans-65" transform="translate(673.876953 0)"/>
     </g>
    </g>
   </g>
   <g id="matplotlib.axis_2">
    <g id="ytick_1">
     <g id="line2d_13">
      <path d="M 90 370.545882 
L 648 370.545882 
" clip-path="url(#pc60b19d6b9)" style="fill: none; stroke: #b0b0b0; stroke-width: 0.8; stroke-linecap: square"/>
     </g>
     <g id="line2d_14">
      <defs>
       <path id="m80c83247ef" d="M 0 0 
L -3.5 0 
" style="stroke: #000000; stroke-width: 0.8"/>
      </defs>
      <g>
       <use xlink:href="#m80c83247ef" x="90" y="370.545882" style="stroke: #000000; stroke-width: 0.8"/>
      </g>
     </g>
     <g id="text_8">
      <!-- 0 -->
      <g transform="translate(76.6375 374.345101) scale(0.1 -0.1)">
       <use xlink:href="#DejaVuSans-30"/>
      </g>
     </g>
    </g>
    <g id="ytick_2">
     <g id="line2d_15">
      <path d="M 90 311.251765 
L 648 311.251765 
" clip-path="url(#pc60b19d6b9)" style="fill: none; stroke: #b0b0b0; stroke-width: 0.8; stroke-linecap: square"/>
     </g>
     <g id="line2d_16">
      <g>
       <use xlink:href="#m80c83247ef" x="90" y="311.251765" style="stroke: #000000; stroke-width: 0.8"/>
      </g>
     </g>
     <g id="text_9">
      <!-- 50 -->
      <g transform="translate(70.275 315.050983) scale(0.1 -0.1)">
       <use xlink:href="#DejaVuSans-35"/>
       <use xlink:href="#DejaVuSans-30" transform="translate(63.623047 0)"/>
      </g>
     </g>
    </g>
    <g id="ytick_3">
     <g id="line2d_17">
      <path d="M 90 251.957647 
L 648 251.957647 
" clip-path="url(#pc60b19d6b9)" style="fill: none; stroke: #b0b0b0; stroke-width: 0.8; stroke-linecap: square"/>
     </g>
     <g id="line2d_18">
      <g>
       <use xlink:href="#m80c83247ef" x="90" y="251.957647" style="stroke: #000000; stroke-width: 0.8"/>
      </g>
     </g>
     <g id="text_10">
      <!-- 100 -->
      <g transform="translate(63.9125 255.756866) scale(0.1 -0.1)">
       <use xlink:href="#DejaVuSans-31"/>
       <use xlink:href="#DejaVuSans-30" transform="translate(63.623047 0)"/>
       <use xlink:href="#DejaVuSans-30" transform="translate(127.246094 0)"/>
      </g>
     </g>
    </g>
    <g id="ytick_4">
     <g id="line2d_19">
      <path d="M 90 192.663529 
L 648 192.663529 
" clip-path="url(#pc60b19d6b9)" style="fill: none; stroke: #b0b0b0; stroke-width: 0.8; stroke-linecap: square"/>
     </g>
     <g id="line2d_20">
      <g>
       <use xlink:href="#m80c83247ef" x="90" y="192.663529" style="stroke: #000000; stroke-width: 0.8"/>
      </g>
     </g>
     <g id="text_11">
      <!-- 150 -->
      <g transform="translate(63.9125 196.462748) scale(0.1 -0.1)">
       <use xlink:href="#DejaVuSans-31"/>
       <use xlink:href="#DejaVuSans-35" transform="translate(63.623047 0)"/>
       <use xlink:href="#DejaVuSans-30" transform="translate(127.246094 0)"/>
      </g>
     </g>
    </g>
    <g id="ytick_5">
     <g id="line2d_21">
      <path d="M 90 133.369412 
L 648 133.369412 
" clip-path="url(#pc60b19d6b9)" style="fill: none; stroke: #b0b0b0; stroke-width: 0.8; stroke-linecap: square"/>
     </g>
     <g id="line2d_22">
      <g>
       <use xlink:href="#m80c83247ef" x="90" y="133.369412" style="stroke: #000000; stroke-width: 0.8"/>
      </g>
     </g>
     <g id="text_12">
      <!-- 200 -->
      <g transform="translate(63.9125 137.168631) scale(0.1 -0.1)">
       <defs>
        <path id="DejaVuSans-32" d="M 1228 531 
L 3431 531 
L 3431 0 
L 469 0 
L 469 531 
Q 828 903 1448 1529 
Q 2069 2156 2228 2338 
Q 2531 2678 2651 2914 
Q 2772 3150 2772 3378 
Q 2772 3750 2511 3984 
Q 2250 4219 1831 4219 
Q 1534 4219 1204 4116 
Q 875 4013 500 3803 
L 500 4441 
Q 881 4594 1212 4672 
Q 1544 4750 1819 4750 
Q 2544 4750 2975 4387 
Q 3406 4025 3406 3419 
Q 3406 3131 3298 2873 
Q 3191 2616 2906 2266 
Q 2828 2175 2409 1742 
Q 1991 1309 1228 531 
z
" transform="scale(0.015625)"/>
       </defs>
       <use xlink:href="#DejaVuSans-32"/>
       <use xlink:href="#DejaVuSans-30" transform="translate(63.623047 0)"/>
       <use xlink:href="#DejaVuSans-30" transform="translate(127.246094 0)"/>
      </g>
     </g>
    </g>
    <g id="ytick_6">
     <g id="line2d_23">
      <path d="M 90 74.075294 
L 648 74.075294 
" clip-path="url(#pc60b19d6b9)" style="fill: none; stroke: #b0b0b0; stroke-width: 0.8; stroke-linecap: square"/>
     </g>
     <g id="line2d_24">
      <g>
       <use xlink:href="#m80c83247ef" x="90" y="74.075294" style="stroke: #000000; stroke-width: 0.8"/>
      </g>
     </g>
     <g id="text_13">
      <!-- 250 -->
      <g transform="translate(63.9125 77.874513) scale(0.1 -0.1)">
       <use xlink:href="#DejaVuSans-32"/>
       <use xlink:href="#DejaVuSans-35" transform="translate(63.623047 0)"/>
       <use xlink:href="#DejaVuSans-30" transform="translate(127.246094 0)"/>
      </g>
     </g>
    </g>
    <g id="text_14">
     <!-- Votes -->
     <g transform="translate(57.832812 231.893594) rotate(-90) scale(0.1 -0.1)">
      <defs>
       <path id="DejaVuSans-56" d="M 1831 0 
L 50 4666 
L 709 4666 
L 2188 738 
L 3669 4666 
L 4325 4666 
L 2547 0 
L 1831 0 
z
" transform="scale(0.015625)"/>
       <path id="DejaVuSans-6f" d="M 1959 3097 
Q 1497 3097 1228 2736 
Q 959 2375 959 1747 
Q 959 1119 1226 758 
Q 1494 397 1959 397 
Q 2419 397 2687 759 
Q 2956 1122 2956 1747 
Q 2956 2369 2687 2733 
Q 2419 3097 1959 3097 
z
M 1959 3584 
Q 2709 3584 3137 3096 
Q 3566 2609 3566 1747 
Q 3566 888 3137 398 
Q 2709 -91 1959 -91 
Q 1206 -91 779 398 
Q 353 888 353 1747 
Q 353 2609 779 3096 
Q 1206 3584 1959 3584 
z
" transform="scale(0.015625)"/>
       <path id="DejaVuSans-73" d="M 2834 3397 
L 2834 2853 
Q 2591 2978 2328 3040 
Q 2066 3103 1784 3103 
Q 1356 3103 1142 2972 
Q 928 2841 928 2578 
Q 928 2378 1081 2264 
Q 1234 2150 1697 2047 
L 1894 2003 
Q 2506 1872 2764 1633 
Q 3022 1394 3022 966 
Q 3022 478 2636 193 
Q 2250 -91 1575 -91 
Q 1294 -91 989 -36 
Q 684 19 347 128 
L 347 722 
Q 666 556 975 473 
Q 1284 391 1588 391 
Q 1994 391 2212 530 
Q 2431 669 2431 922 
Q 2431 1156 2273 1281 
Q 2116 1406 1581 1522 
L 1381 1569 
Q 847 1681 609 1914 
Q 372 2147 372 2553 
Q 372 3047 722 3315 
Q 1072 3584 1716 3584 
Q 2034 3584 2315 3537 
Q 2597 3491 2834 3397 
z
" transform="scale(0.015625)"/>
      </defs>
      <use xlink:href="#DejaVuSans-56"/>
      <use xlink:href="#DejaVuSans-6f" transform="translate(60.658203 0)"/>
      <use xlink:href="#DejaVuSans-74" transform="translate(121.839844 0)"/>
      <use xlink:href="#DejaVuSans-65" transform="translate(161.048828 0)"/>
      <use xlink:href="#DejaVuSans-73" transform="translate(222.572266 0)"/>
     </g>
    </g>
   </g>
   <g id="line2d_25">
    <path d="M 115.363636 349.2 
L 129.493796 349.2 
L 130.906812 348.014118 
L 145.036971 348.014118 
L 146.449987 345.642353 
L 159.167131 345.642353 
L 160.580147 344.456471 
L 167.645227 344.456471 
L 169.058243 343.270588 
L 174.710306 343.270588 
L 176.123322 342.084706 
L 180.36237 342.084706 
L 181.775386 340.898824 
L 201.55761 340.898824 
L 202.970625 339.712941 
L 218.513801 339.712941 
L 221.339833 337.341176 
L 224.165865 337.341176 
L 225.578881 336.155294 
L 238.296024 336.155294 
L 241.122056 333.783529 
L 258.078248 333.783529 
L 259.491264 332.597647 
L 263.730311 332.597647 
L 265.143327 331.411765 
L 266.556343 331.411765 
L 267.969359 330.225882 
L 306.12079 330.225882 
L 307.533806 329.04 
L 324.489997 329.04 
L 325.903013 327.854118 
L 335.794125 327.854118 
L 337.207141 326.668235 
L 338.620157 324.296471 
L 340.033173 324.296471 
L 342.859205 321.924706 
L 365.46746 321.924706 
L 366.880476 320.738824 
L 375.358572 320.738824 
L 376.771588 319.552941 
L 382.423652 319.552941 
L 383.836668 318.367059 
L 397.966827 318.367059 
L 399.379843 317.181176 
L 402.205875 317.181176 
L 403.618891 315.995294 
L 407.857939 315.995294 
L 409.270955 314.809412 
L 420.575082 314.809412 
L 421.988098 313.623529 
L 423.401114 313.623529 
L 424.81413 312.437647 
L 438.94429 312.437647 
L 440.357306 311.251765 
L 450.248417 311.251765 
L 451.661433 310.065882 
L 453.074449 310.065882 
L 455.900481 307.694118 
L 486.986832 307.694118 
L 488.399848 306.508235 
L 511.008103 306.508235 
L 512.421119 305.322353 
L 513.834135 305.322353 
L 515.247151 304.136471 
L 527.964295 304.136471 
L 529.377311 302.950588 
L 530.790327 302.950588 
L 532.203343 301.764706 
L 539.268422 301.764706 
L 540.681438 300.578824 
L 544.920486 300.578824 
L 547.746518 298.207059 
L 549.159534 298.207059 
L 550.57255 297.021176 
L 553.398582 297.021176 
L 554.811598 295.835294 
L 557.63763 295.835294 
L 559.050646 294.649412 
L 561.876678 294.649412 
L 563.289694 293.463529 
L 597.202076 293.463529 
L 598.615092 292.277647 
L 612.745252 292.277647 
L 614.158268 291.091765 
L 622.636364 291.091765 
L 622.636364 291.091765 
" clip-path="url(#pc60b19d6b9)" style="fill: none; stroke: #1f77b4; stroke-width: 1.5; stroke-linecap: square"/>
   </g>
   <g id="line2d_26">
    <path d="M 115.363636 273.303529 
L 116.776652 272.117647 
L 121.0157 272.117647 
L 122.428716 270.931765 
L 123.841732 270.931765 
L 125.254748 269.745882 
L 126.667764 269.745882 
L 129.493796 267.374118 
L 130.906812 265.002353 
L 132.319828 265.002353 
L 135.14586 262.630588 
L 136.558876 262.630588 
L 137.971892 257.887059 
L 139.384908 255.515294 
L 140.797924 250.771765 
L 142.210939 247.214118 
L 146.449987 247.214118 
L 147.863003 243.656471 
L 149.276019 241.284706 
L 152.102051 238.912941 
L 153.515067 236.541176 
L 156.341099 234.169412 
L 157.754115 231.797647 
L 161.993163 231.797647 
L 163.406179 225.868235 
L 164.819195 223.496471 
L 166.232211 222.310588 
L 167.645227 219.938824 
L 169.058243 218.752941 
L 170.471259 218.752941 
L 171.884274 215.195294 
L 173.29729 215.195294 
L 174.710306 212.823529 
L 176.123322 211.637647 
L 177.536338 211.637647 
L 178.949354 210.451765 
L 181.775386 210.451765 
L 183.188402 209.265882 
L 186.014434 209.265882 
L 187.42745 206.894118 
L 188.840466 206.894118 
L 190.253482 205.708235 
L 195.905546 205.708235 
L 197.318562 204.522353 
L 201.55761 204.522353 
L 202.970625 203.336471 
L 204.383641 203.336471 
L 205.796657 200.964706 
L 207.209673 200.964706 
L 208.622689 198.592941 
L 210.035705 197.407059 
L 214.274753 197.407059 
L 215.687769 195.035294 
L 217.100785 193.849412 
L 218.513801 190.291765 
L 221.339833 187.92 
L 232.64396 187.92 
L 234.056976 184.362353 
L 235.469992 184.362353 
L 238.296024 181.990588 
L 239.70904 181.990588 
L 243.948088 178.432941 
L 246.77412 178.432941 
L 248.187136 177.247059 
L 251.013168 177.247059 
L 255.252216 173.689412 
L 258.078248 173.689412 
L 259.491264 172.503529 
L 266.556343 172.503529 
L 267.969359 171.317647 
L 270.795391 171.317647 
L 272.208407 170.131765 
L 289.164599 170.131765 
L 290.577615 167.76 
L 293.403646 167.76 
L 296.229678 165.388235 
L 297.642694 165.388235 
L 299.05571 164.202353 
L 307.533806 164.202353 
L 311.772854 160.644706 
L 313.18587 160.644706 
L 314.598886 159.458824 
L 316.011902 157.087059 
L 317.424918 157.087059 
L 318.837934 155.901176 
L 320.25095 155.901176 
L 325.903013 151.157647 
L 328.729045 151.157647 
L 330.142061 148.785882 
L 334.381109 148.785882 
L 335.794125 147.6 
L 340.033173 147.6 
L 341.446189 146.414118 
L 342.859205 146.414118 
L 344.272221 142.856471 
L 348.511269 142.856471 
L 349.924285 141.670588 
L 351.337301 139.298824 
L 354.163332 139.298824 
L 355.576348 138.112941 
L 358.40238 138.112941 
L 359.815396 136.927059 
L 361.228412 136.927059 
L 368.293492 130.997647 
L 371.119524 130.997647 
L 375.358572 127.44 
L 379.59762 127.44 
L 381.010636 125.068235 
L 382.423652 125.068235 
L 383.836668 123.882353 
L 388.075715 123.882353 
L 389.488731 122.696471 
L 402.205875 122.696471 
L 403.618891 121.510588 
L 413.510003 121.510588 
L 414.923018 120.324706 
L 417.74905 120.324706 
L 420.575082 117.952941 
L 427.640162 117.952941 
L 429.053178 116.767059 
L 436.118258 116.767059 
L 440.357306 113.209412 
L 458.726513 113.209412 
L 460.139529 110.837647 
L 461.552545 109.651765 
L 495.464928 109.651765 
L 496.877944 108.465882 
L 505.35604 108.465882 
L 508.182071 106.094118 
L 511.008103 106.094118 
L 512.421119 104.908235 
L 513.834135 104.908235 
L 516.660167 102.536471 
L 518.073183 102.536471 
L 519.486199 101.350588 
L 520.899215 101.350588 
L 523.725247 96.607059 
L 525.138263 95.421176 
L 532.203343 95.421176 
L 533.616359 91.863529 
L 535.029375 89.491765 
L 537.855406 89.491765 
L 540.681438 87.12 
L 547.746518 87.12 
L 550.57255 84.748235 
L 553.398582 84.748235 
L 554.811598 83.562353 
L 557.63763 83.562353 
L 559.050646 82.376471 
L 560.463662 82.376471 
L 561.876678 81.190588 
L 563.289694 81.190588 
L 564.70271 80.004706 
L 566.115726 80.004706 
L 567.528741 78.818824 
L 570.354773 78.818824 
L 571.767789 76.447059 
L 578.832869 76.447059 
L 581.658901 74.075294 
L 595.789061 74.075294 
L 597.202076 72.889412 
L 598.615092 72.889412 
L 600.028108 71.703529 
L 601.441124 71.703529 
L 605.680172 68.145882 
L 608.506204 68.145882 
L 609.91922 66.96 
L 622.636364 66.96 
L 622.636364 66.96 
" clip-path="url(#pc60b19d6b9)" style="fill: none; stroke: #ff7f0e; stroke-width: 1.5; stroke-linecap: square"/>
   </g>
   <g id="line2d_27">
    <path d="M 115.363636 333.783529 
L 121.0157 333.783529 
L 122.428716 331.411765 
L 125.254748 331.411765 
L 126.667764 330.225882 
L 128.08078 327.854118 
L 129.493796 326.668235 
L 130.906812 323.110588 
L 132.319828 320.738824 
L 133.732844 319.552941 
L 135.14586 319.552941 
L 136.558876 317.181176 
L 137.971892 313.623529 
L 143.623955 313.623529 
L 145.036971 312.437647 
L 146.449987 312.437647 
L 147.863003 310.065882 
L 152.102051 310.065882 
L 154.928083 307.694118 
L 160.580147 307.694118 
L 161.993163 306.508235 
L 167.645227 306.508235 
L 171.884274 302.950588 
L 178.949354 302.950588 
L 180.36237 301.764706 
L 184.601418 301.764706 
L 186.014434 300.578824 
L 188.840466 300.578824 
L 190.253482 298.207059 
L 201.55761 298.207059 
L 202.970625 297.021176 
L 204.383641 294.649412 
L 205.796657 293.463529 
L 207.209673 293.463529 
L 208.622689 292.277647 
L 211.448721 292.277647 
L 212.861737 291.091765 
L 215.687769 291.091765 
L 217.100785 289.905882 
L 225.578881 289.905882 
L 226.991897 288.72 
L 228.404913 288.72 
L 229.817929 287.534118 
L 231.230945 287.534118 
L 232.64396 286.348235 
L 236.883008 286.348235 
L 238.296024 285.162353 
L 239.70904 282.790588 
L 246.77412 282.790588 
L 251.013168 279.232941 
L 255.252216 279.232941 
L 256.665232 278.047059 
L 262.317296 278.047059 
L 263.730311 276.861176 
L 265.143327 276.861176 
L 266.556343 275.675294 
L 269.382375 275.675294 
L 270.795391 274.489412 
L 275.034439 274.489412 
L 277.860471 272.117647 
L 279.273487 272.117647 
L 280.686503 270.931765 
L 291.990631 270.931765 
L 293.403646 268.56 
L 294.816662 267.374118 
L 306.12079 267.374118 
L 307.533806 266.188235 
L 311.772854 266.188235 
L 313.18587 265.002353 
L 317.424918 265.002353 
L 318.837934 263.816471 
L 332.968093 263.816471 
L 334.381109 262.630588 
L 340.033173 262.630588 
L 341.446189 261.444706 
L 349.924285 261.444706 
L 351.337301 260.258824 
L 354.163332 260.258824 
L 355.576348 259.072941 
L 361.228412 259.072941 
L 364.054444 256.701176 
L 390.901747 256.701176 
L 392.314763 255.515294 
L 393.727779 255.515294 
L 395.140795 254.329412 
L 399.379843 254.329412 
L 400.792859 253.143529 
L 407.857939 253.143529 
L 409.270955 251.957647 
L 412.096987 251.957647 
L 413.510003 250.771765 
L 421.988098 250.771765 
L 423.401114 251.957647 
L 424.81413 250.771765 
L 434.705242 250.771765 
L 436.118258 249.585882 
L 447.422385 249.585882 
L 448.835401 248.4 
L 451.661433 248.4 
L 453.074449 247.214118 
L 454.487465 247.214118 
L 455.900481 246.028235 
L 465.791593 246.028235 
L 467.204609 244.842353 
L 475.682704 244.842353 
L 477.09572 243.656471 
L 498.29096 243.656471 
L 499.703976 242.470588 
L 530.790327 242.470588 
L 532.203343 241.284706 
L 546.333502 241.284706 
L 547.746518 240.098824 
L 570.354773 240.098824 
L 573.180805 237.727059 
L 598.615092 237.727059 
L 600.028108 236.541176 
L 601.441124 234.169412 
L 622.636364 234.169412 
L 622.636364 234.169412 
" clip-path="url(#pc60b19d6b9)" style="fill: none; stroke: #2ca02c; stroke-width: 1.5; stroke-linecap: square"/>
   </g>
   <g id="line2d_28">
    <path d="M 115.363636 369.36 
L 464.378577 369.36 
L 465.791593 368.174118 
L 622.636364 368.174118 
L 622.636364 368.174118 
" clip-path="url(#pc60b19d6b9)" style="fill: none; stroke: #d62728; stroke-width: 1.5; stroke-linecap: square"/>
   </g>
   <g id="line2d_29">
    <path d="M 115.363636 343.270588 
L 119.602684 343.270588 
L 121.0157 342.084706 
L 129.493796 342.084706 
L 130.906812 340.898824 
L 139.384908 340.898824 
L 140.797924 339.712941 
L 171.884274 339.712941 
L 173.29729 338.527059 
L 224.165865 338.527059 
L 226.991897 336.155294 
L 238.296024 336.155294 
L 239.70904 334.969412 
L 245.361104 334.969412 
L 246.77412 333.783529 
L 249.600152 333.783529 
L 251.013168 332.597647 
L 287.751583 332.597647 
L 289.164599 331.411765 
L 347.098253 331.411765 
L 348.511269 330.225882 
L 532.203343 330.225882 
L 533.616359 329.04 
L 535.029375 329.04 
L 536.44239 327.854118 
L 622.636364 327.854118 
L 622.636364 327.854118 
" clip-path="url(#pc60b19d6b9)" style="fill: none; stroke: #9467bd; stroke-width: 1.5; stroke-linecap: square"/>
   </g>
   <g id="line2d_30">
    <path d="M 115.363636 352.757647 
L 116.776652 352.757647 
L 118.189668 351.571765 
L 137.971892 351.571765 
L 139.384908 350.385882 
L 156.341099 350.385882 
L 157.754115 349.2 
L 178.949354 349.2 
L 181.775386 346.828235 
L 197.318562 346.828235 
L 198.731578 345.642353 
L 241.122056 345.642353 
L 242.535072 344.456471 
L 255.252216 344.456471 
L 256.665232 343.270588 
L 280.686503 343.270588 
L 282.099519 342.084706 
L 304.707774 342.084706 
L 306.12079 340.898824 
L 311.772854 340.898824 
L 313.18587 339.712941 
L 325.903013 339.712941 
L 327.316029 338.527059 
L 361.228412 338.527059 
L 362.641428 337.341176 
L 371.119524 337.341176 
L 372.53254 336.155294 
L 381.010636 336.155294 
L 382.423652 334.969412 
L 388.075715 334.969412 
L 389.488731 333.783529 
L 441.770322 333.783529 
L 443.183338 332.597647 
L 484.1608 332.597647 
L 485.573816 331.411765 
L 567.528741 331.411765 
L 568.941757 330.225882 
L 608.506204 330.225882 
L 609.91922 329.04 
L 622.636364 329.04 
L 622.636364 329.04 
" clip-path="url(#pc60b19d6b9)" style="fill: none; stroke: #8c564b; stroke-width: 1.5; stroke-linecap: square"/>
   </g>
   <g id="line2d_31">
    <path d="M 115.363636 265.002353 
L 121.0157 265.002353 
L 122.428716 263.816471 
L 128.08078 263.816471 
L 130.906812 261.444706 
L 132.319828 261.444706 
L 133.732844 260.258824 
L 135.14586 260.258824 
L 136.558876 259.072941 
L 139.384908 259.072941 
L 140.797924 257.887059 
L 145.036971 257.887059 
L 146.449987 256.701176 
L 149.276019 256.701176 
L 150.689035 255.515294 
L 152.102051 255.515294 
L 153.515067 254.329412 
L 156.341099 254.329412 
L 159.167131 251.957647 
L 164.819195 251.957647 
L 166.232211 250.771765 
L 170.471259 250.771765 
L 173.29729 248.4 
L 176.123322 248.4 
L 177.536338 247.214118 
L 180.36237 247.214118 
L 181.775386 246.028235 
L 183.188402 243.656471 
L 184.601418 240.098824 
L 187.42745 240.098824 
L 188.840466 238.912941 
L 195.905546 238.912941 
L 198.731578 236.541176 
L 200.144594 234.169412 
L 201.55761 232.983529 
L 202.970625 232.983529 
L 204.383641 230.611765 
L 210.035705 230.611765 
L 211.448721 229.425882 
L 212.861737 229.425882 
L 215.687769 227.054118 
L 217.100785 227.054118 
L 218.513801 225.868235 
L 219.926817 225.868235 
L 222.752849 223.496471 
L 225.578881 223.496471 
L 226.991897 221.124706 
L 232.64396 221.124706 
L 235.469992 218.752941 
L 238.296024 218.752941 
L 239.70904 217.567059 
L 241.122056 215.195294 
L 245.361104 215.195294 
L 246.77412 214.009412 
L 248.187136 214.009412 
L 249.600152 211.637647 
L 251.013168 211.637647 
L 252.426184 210.451765 
L 253.8392 210.451765 
L 255.252216 209.265882 
L 260.90428 209.265882 
L 263.730311 206.894118 
L 265.143327 206.894118 
L 266.556343 204.522353 
L 267.969359 204.522353 
L 269.382375 203.336471 
L 270.795391 203.336471 
L 272.208407 202.150588 
L 276.447455 202.150588 
L 277.860471 200.964706 
L 279.273487 200.964706 
L 284.925551 196.221176 
L 286.338567 193.849412 
L 289.164599 193.849412 
L 291.990631 189.105882 
L 294.816662 189.105882 
L 297.642694 186.734118 
L 299.05571 186.734118 
L 300.468726 184.362353 
L 301.881742 184.362353 
L 303.294758 183.176471 
L 304.707774 183.176471 
L 306.12079 181.990588 
L 308.946822 181.990588 
L 310.359838 180.804706 
L 311.772854 180.804706 
L 313.18587 179.618824 
L 318.837934 179.618824 
L 320.25095 173.689412 
L 321.663966 173.689412 
L 323.076982 172.503529 
L 327.316029 172.503529 
L 328.729045 171.317647 
L 341.446189 171.317647 
L 342.859205 168.945882 
L 348.511269 168.945882 
L 349.924285 167.76 
L 364.054444 167.76 
L 365.46746 165.388235 
L 366.880476 164.202353 
L 373.945556 164.202353 
L 375.358572 163.016471 
L 385.249683 163.016471 
L 386.662699 161.830588 
L 388.075715 161.830588 
L 389.488731 160.644706 
L 397.966827 160.644706 
L 400.792859 158.272941 
L 410.683971 158.272941 
L 413.510003 155.901176 
L 414.923018 155.901176 
L 416.336034 154.715294 
L 424.81413 154.715294 
L 426.227146 153.529412 
L 430.466194 153.529412 
L 431.87921 152.343529 
L 433.292226 149.971765 
L 437.531274 149.971765 
L 438.94429 148.785882 
L 440.357306 148.785882 
L 443.183338 146.414118 
L 448.835401 146.414118 
L 450.248417 145.228235 
L 455.900481 145.228235 
L 457.313497 144.042353 
L 461.552545 144.042353 
L 462.965561 142.856471 
L 474.269689 142.856471 
L 477.09572 140.484706 
L 484.1608 140.484706 
L 485.573816 139.298824 
L 491.22588 139.298824 
L 498.29096 133.369412 
L 501.116992 133.369412 
L 502.530008 132.183529 
L 503.943024 132.183529 
L 505.35604 129.811765 
L 508.182071 127.44 
L 511.008103 122.696471 
L 513.834135 122.696471 
L 516.660167 117.952941 
L 519.486199 117.952941 
L 520.899215 115.581176 
L 523.725247 113.209412 
L 527.964295 113.209412 
L 529.377311 112.023529 
L 530.790327 112.023529 
L 533.616359 109.651765 
L 539.268422 109.651765 
L 540.681438 108.465882 
L 543.50747 108.465882 
L 544.920486 107.28 
L 551.985566 107.28 
L 553.398582 104.908235 
L 554.811598 103.722353 
L 556.224614 103.722353 
L 557.63763 102.536471 
L 560.463662 102.536471 
L 561.876678 101.350588 
L 564.70271 101.350588 
L 566.115726 98.978824 
L 568.941757 98.978824 
L 570.354773 97.792941 
L 571.767789 97.792941 
L 573.180805 96.607059 
L 580.245885 96.607059 
L 581.658901 95.421176 
L 588.723981 95.421176 
L 590.136997 94.235294 
L 591.550013 94.235294 
L 592.963029 91.863529 
L 595.789061 89.491765 
L 597.202076 85.934118 
L 598.615092 84.748235 
L 600.028108 84.748235 
L 601.441124 83.562353 
L 602.85414 83.562353 
L 604.267156 82.376471 
L 609.91922 82.376471 
L 611.332236 81.190588 
L 614.158268 81.190588 
L 615.571284 80.004706 
L 618.397316 80.004706 
L 621.223348 77.632941 
L 622.636364 77.632941 
L 622.636364 77.632941 
" clip-path="url(#pc60b19d6b9)" style="fill: none; stroke: #e377c2; stroke-width: 1.5; stroke-linecap: square"/>
   </g>
   <g id="line2d_32">
    <path d="M 115.363636 338.527059 
L 116.776652 338.527059 
L 119.602684 336.155294 
L 126.667764 336.155294 
L 128.08078 334.969412 
L 129.493796 334.969412 
L 132.319828 332.597647 
L 135.14586 332.597647 
L 136.558876 331.411765 
L 140.797924 331.411765 
L 142.210939 330.225882 
L 143.623955 330.225882 
L 145.036971 329.04 
L 146.449987 329.04 
L 149.276019 326.668235 
L 153.515067 326.668235 
L 154.928083 325.482353 
L 157.754115 325.482353 
L 160.580147 323.110588 
L 163.406179 323.110588 
L 166.232211 320.738824 
L 167.645227 320.738824 
L 169.058243 319.552941 
L 170.471259 315.995294 
L 176.123322 315.995294 
L 181.775386 311.251765 
L 183.188402 311.251765 
L 186.014434 308.88 
L 187.42745 308.88 
L 188.840466 307.694118 
L 190.253482 307.694118 
L 191.666498 306.508235 
L 204.383641 306.508235 
L 205.796657 305.322353 
L 219.926817 305.322353 
L 222.752849 302.950588 
L 226.991897 302.950588 
L 228.404913 301.764706 
L 231.230945 301.764706 
L 234.056976 299.392941 
L 236.883008 299.392941 
L 238.296024 297.021176 
L 242.535072 297.021176 
L 243.948088 294.649412 
L 245.361104 293.463529 
L 252.426184 293.463529 
L 253.8392 292.277647 
L 255.252216 292.277647 
L 258.078248 289.905882 
L 265.143327 289.905882 
L 266.556343 288.72 
L 267.969359 288.72 
L 269.382375 287.534118 
L 277.860471 287.534118 
L 279.273487 286.348235 
L 283.512535 286.348235 
L 284.925551 285.162353 
L 286.338567 285.162353 
L 287.751583 281.604706 
L 289.164599 281.604706 
L 290.577615 279.232941 
L 291.990631 278.047059 
L 293.403646 278.047059 
L 296.229678 275.675294 
L 299.05571 275.675294 
L 300.468726 274.489412 
L 303.294758 274.489412 
L 304.707774 273.303529 
L 306.12079 273.303529 
L 307.533806 270.931765 
L 308.946822 270.931765 
L 310.359838 269.745882 
L 313.18587 269.745882 
L 316.011902 267.374118 
L 317.424918 267.374118 
L 318.837934 265.002353 
L 320.25095 263.816471 
L 330.142061 263.816471 
L 331.555077 261.444706 
L 335.794125 261.444706 
L 337.207141 260.258824 
L 338.620157 260.258824 
L 340.033173 259.072941 
L 344.272221 259.072941 
L 345.685237 257.887059 
L 352.750317 257.887059 
L 354.163332 256.701176 
L 356.989364 256.701176 
L 358.40238 255.515294 
L 365.46746 255.515294 
L 366.880476 254.329412 
L 379.59762 254.329412 
L 382.423652 251.957647 
L 383.836668 251.957647 
L 385.249683 250.771765 
L 386.662699 250.771765 
L 388.075715 249.585882 
L 389.488731 249.585882 
L 390.901747 248.4 
L 393.727779 248.4 
L 395.140795 247.214118 
L 396.553811 247.214118 
L 399.379843 244.842353 
L 403.618891 244.842353 
L 405.031907 243.656471 
L 409.270955 243.656471 
L 410.683971 242.470588 
L 420.575082 242.470588 
L 421.988098 241.284706 
L 423.401114 241.284706 
L 424.81413 240.098824 
L 430.466194 240.098824 
L 431.87921 237.727059 
L 440.357306 237.727059 
L 441.770322 236.541176 
L 443.183338 236.541176 
L 444.596354 234.169412 
L 451.661433 234.169412 
L 453.074449 232.983529 
L 461.552545 232.983529 
L 462.965561 231.797647 
L 481.334768 231.797647 
L 482.747784 230.611765 
L 503.943024 230.611765 
L 505.35604 229.425882 
L 512.421119 229.425882 
L 513.834135 228.24 
L 515.247151 228.24 
L 516.660167 227.054118 
L 518.073183 227.054118 
L 519.486199 224.682353 
L 520.899215 224.682353 
L 523.725247 222.310588 
L 533.616359 222.310588 
L 535.029375 221.124706 
L 536.44239 221.124706 
L 537.855406 219.938824 
L 539.268422 219.938824 
L 540.681438 218.752941 
L 547.746518 218.752941 
L 549.159534 217.567059 
L 561.876678 217.567059 
L 563.289694 216.381176 
L 570.354773 216.381176 
L 571.767789 215.195294 
L 578.832869 215.195294 
L 580.245885 214.009412 
L 583.071917 214.009412 
L 587.310965 210.451765 
L 590.136997 210.451765 
L 591.550013 208.08 
L 598.615092 208.08 
L 601.441124 205.708235 
L 604.267156 205.708235 
L 605.680172 204.522353 
L 607.093188 204.522353 
L 609.91922 202.150588 
L 619.810332 202.150588 
L 621.223348 200.964706 
L 622.636364 200.964706 
L 622.636364 200.964706 
" clip-path="url(#pc60b19d6b9)" style="fill: none; stroke: #7f7f7f; stroke-width: 1.5; stroke-linecap: square"/>
   </g>
   <g id="line2d_33">
    <path d="M 115.363636 345.642353 
L 121.0157 345.642353 
L 122.428716 344.456471 
L 136.558876 344.456471 
L 137.971892 343.270588 
L 145.036971 343.270588 
L 146.449987 342.084706 
L 160.580147 342.084706 
L 161.993163 340.898824 
L 176.123322 340.898824 
L 177.536338 339.712941 
L 253.8392 339.712941 
L 255.252216 338.527059 
L 262.317296 338.527059 
L 263.730311 337.341176 
L 273.621423 337.341176 
L 275.034439 336.155294 
L 276.447455 336.155294 
L 277.860471 332.597647 
L 279.273487 331.411765 
L 282.099519 331.411765 
L 283.512535 330.225882 
L 297.642694 330.225882 
L 299.05571 329.04 
L 311.772854 329.04 
L 313.18587 327.854118 
L 328.729045 327.854118 
L 330.142061 326.668235 
L 347.098253 326.668235 
L 348.511269 325.482353 
L 355.576348 325.482353 
L 356.989364 324.296471 
L 402.205875 324.296471 
L 403.618891 323.110588 
L 406.444923 323.110588 
L 407.857939 321.924706 
L 419.162066 321.924706 
L 420.575082 320.738824 
L 460.139529 320.738824 
L 464.378577 317.181176 
L 505.35604 317.181176 
L 506.769055 315.995294 
L 508.182071 315.995294 
L 511.008103 313.623529 
L 513.834135 313.623529 
L 515.247151 312.437647 
L 587.310965 312.437647 
L 588.723981 311.251765 
L 622.636364 311.251765 
L 622.636364 311.251765 
" clip-path="url(#pc60b19d6b9)" style="fill: none; stroke: #bcbd22; stroke-width: 1.5; stroke-linecap: square"/>
   </g>
   <g id="line2d_34">
    <path d="M 115.363636 366.988235 
L 186.014434 366.988235 
L 187.42745 365.802353 
L 276.447455 365.802353 
L 277.860471 364.616471 
L 421.988098 364.616471 
L 423.401114 363.430588 
L 424.81413 364.616471 
L 595.789061 364.616471 
L 597.202076 363.430588 
L 607.093188 363.430588 
L 608.506204 362.244706 
L 622.636364 362.244706 
L 622.636364 362.244706 
" clip-path="url(#pc60b19d6b9)" style="fill: none; stroke: #17becf; stroke-width: 1.5; stroke-linecap: square"/>
   </g>
   <g id="line2d_35">
    <path d="M 115.363636 369.36 
L 116.776652 368.174118 
L 119.602684 368.174118 
L 121.0157 366.988235 
L 130.906812 366.988235 
L 132.319828 365.802353 
L 136.558876 365.802353 
L 137.971892 364.616471 
L 139.384908 364.616471 
L 142.210939 362.244706 
L 149.276019 362.244706 
L 152.102051 359.872941 
L 153.515067 359.872941 
L 154.928083 358.687059 
L 164.819195 358.687059 
L 166.232211 357.501176 
L 167.645227 355.129412 
L 170.471259 355.129412 
L 171.884274 353.943529 
L 173.29729 353.943529 
L 174.710306 352.757647 
L 176.123322 352.757647 
L 177.536338 351.571765 
L 178.949354 351.571765 
L 181.775386 349.2 
L 190.253482 349.2 
L 193.079514 346.828235 
L 197.318562 346.828235 
L 198.731578 345.642353 
L 200.144594 345.642353 
L 201.55761 343.270588 
L 205.796657 343.270588 
L 208.622689 338.527059 
L 217.100785 338.527059 
L 218.513801 336.155294 
L 219.926817 334.969412 
L 224.165865 334.969412 
L 225.578881 333.783529 
L 226.991897 331.411765 
L 229.817929 331.411765 
L 231.230945 330.225882 
L 251.013168 330.225882 
L 252.426184 327.854118 
L 262.317296 319.552941 
L 276.447455 319.552941 
L 280.686503 315.995294 
L 283.512535 315.995294 
L 284.925551 313.623529 
L 287.751583 313.623529 
L 289.164599 312.437647 
L 293.403646 312.437647 
L 294.816662 311.251765 
L 296.229678 311.251765 
L 297.642694 310.065882 
L 299.05571 310.065882 
L 301.881742 307.694118 
L 320.25095 307.694118 
L 323.076982 305.322353 
L 334.381109 305.322353 
L 335.794125 304.136471 
L 340.033173 304.136471 
L 342.859205 301.764706 
L 347.098253 301.764706 
L 348.511269 300.578824 
L 351.337301 300.578824 
L 352.750317 299.392941 
L 359.815396 299.392941 
L 361.228412 298.207059 
L 362.641428 298.207059 
L 364.054444 295.835294 
L 365.46746 295.835294 
L 366.880476 294.649412 
L 373.945556 294.649412 
L 375.358572 293.463529 
L 378.184604 293.463529 
L 379.59762 292.277647 
L 381.010636 292.277647 
L 383.836668 289.905882 
L 393.727779 289.905882 
L 395.140795 288.72 
L 396.553811 288.72 
L 397.966827 287.534118 
L 405.031907 287.534118 
L 406.444923 285.162353 
L 407.857939 283.976471 
L 414.923018 283.976471 
L 416.336034 282.790588 
L 421.988098 282.790588 
L 423.401114 280.418824 
L 429.053178 280.418824 
L 431.87921 278.047059 
L 436.118258 278.047059 
L 437.531274 276.861176 
L 454.487465 276.861176 
L 455.900481 274.489412 
L 457.313497 273.303529 
L 468.617625 273.303529 
L 470.030641 272.117647 
L 495.464928 272.117647 
L 496.877944 270.931765 
L 499.703976 270.931765 
L 501.116992 269.745882 
L 505.35604 269.745882 
L 506.769055 268.56 
L 525.138263 268.56 
L 526.551279 266.188235 
L 529.377311 266.188235 
L 530.790327 265.002353 
L 532.203343 265.002353 
L 533.616359 263.816471 
L 539.268422 263.816471 
L 540.681438 262.630588 
L 550.57255 262.630588 
L 551.985566 260.258824 
L 553.398582 260.258824 
L 554.811598 259.072941 
L 561.876678 259.072941 
L 563.289694 257.887059 
L 570.354773 257.887059 
L 573.180805 255.515294 
L 576.006837 255.515294 
L 577.419853 254.329412 
L 580.245885 254.329412 
L 581.658901 253.143529 
L 583.071917 253.143529 
L 584.484933 251.957647 
L 594.376045 251.957647 
L 595.789061 250.771765 
L 622.636364 250.771765 
L 622.636364 250.771765 
" clip-path="url(#pc60b19d6b9)" style="fill: none; stroke: #1f77b4; stroke-width: 1.5; stroke-linecap: square"/>
   </g>
   <g id="line2d_36">
    <path d="M 115.363636 325.482353 
L 125.254748 325.482353 
L 126.667764 324.296471 
L 130.906812 324.296471 
L 132.319828 323.110588 
L 137.971892 323.110588 
L 139.384908 321.924706 
L 143.623955 321.924706 
L 145.036971 320.738824 
L 146.449987 320.738824 
L 147.863003 319.552941 
L 152.102051 319.552941 
L 153.515067 318.367059 
L 156.341099 318.367059 
L 157.754115 317.181176 
L 159.167131 317.181176 
L 161.993163 314.809412 
L 170.471259 314.809412 
L 171.884274 313.623529 
L 173.29729 313.623529 
L 174.710306 312.437647 
L 176.123322 312.437647 
L 177.536338 310.065882 
L 178.949354 306.508235 
L 180.36237 305.322353 
L 186.014434 305.322353 
L 190.253482 301.764706 
L 194.49253 301.764706 
L 197.318562 299.392941 
L 212.861737 299.392941 
L 214.274753 295.835294 
L 215.687769 295.835294 
L 218.513801 291.091765 
L 221.339833 288.72 
L 222.752849 288.72 
L 224.165865 286.348235 
L 235.469992 286.348235 
L 236.883008 283.976471 
L 241.122056 283.976471 
L 242.535072 282.790588 
L 252.426184 282.790588 
L 253.8392 281.604706 
L 270.795391 281.604706 
L 272.208407 280.418824 
L 273.621423 280.418824 
L 275.034439 279.232941 
L 279.273487 279.232941 
L 280.686503 278.047059 
L 297.642694 278.047059 
L 299.05571 276.861176 
L 301.881742 276.861176 
L 304.707774 272.117647 
L 307.533806 272.117647 
L 310.359838 269.745882 
L 313.18587 269.745882 
L 314.598886 268.56 
L 318.837934 268.56 
L 320.25095 267.374118 
L 337.207141 267.374118 
L 338.620157 266.188235 
L 359.815396 266.188235 
L 361.228412 265.002353 
L 373.945556 265.002353 
L 375.358572 263.816471 
L 378.184604 263.816471 
L 379.59762 262.630588 
L 383.836668 262.630588 
L 386.662699 260.258824 
L 388.075715 260.258824 
L 389.488731 259.072941 
L 395.140795 259.072941 
L 397.966827 256.701176 
L 405.031907 256.701176 
L 406.444923 255.515294 
L 410.683971 255.515294 
L 412.096987 254.329412 
L 419.162066 254.329412 
L 420.575082 253.143529 
L 427.640162 253.143529 
L 429.053178 251.957647 
L 454.487465 251.957647 
L 455.900481 250.771765 
L 457.313497 250.771765 
L 458.726513 249.585882 
L 472.856673 249.585882 
L 474.269689 247.214118 
L 475.682704 247.214118 
L 477.09572 246.028235 
L 491.22588 246.028235 
L 492.638896 244.842353 
L 498.29096 244.842353 
L 499.703976 243.656471 
L 501.116992 243.656471 
L 502.530008 242.470588 
L 515.247151 242.470588 
L 516.660167 241.284706 
L 544.920486 241.284706 
L 546.333502 237.727059 
L 556.224614 237.727059 
L 557.63763 236.541176 
L 560.463662 236.541176 
L 561.876678 235.355294 
L 578.832869 235.355294 
L 580.245885 234.169412 
L 600.028108 234.169412 
L 601.441124 232.983529 
L 605.680172 232.983529 
L 607.093188 231.797647 
L 618.397316 231.797647 
L 619.810332 229.425882 
L 622.636364 229.425882 
L 622.636364 229.425882 
" clip-path="url(#pc60b19d6b9)" style="fill: none; stroke: #ff7f0e; stroke-width: 1.5; stroke-linecap: square"/>
   </g>
   <g id="patch_3">
    <path d="M 90 384.48 
L 90 51.84 
" style="fill: none; stroke: #000000; stroke-width: 0.8; stroke-linejoin: miter; stroke-linecap: square"/>
   </g>
   <g id="patch_4">
    <path d="M 648 384.48 
L 648 51.84 
" style="fill: none; stroke: #000000; stroke-width: 0.8; stroke-linejoin: miter; stroke-linecap: square"/>
   </g>
   <g id="patch_5">
    <path d="M 90 384.48 
L 648 384.48 
" style="fill: none; stroke: #000000; stroke-width: 0.8; stroke-linejoin: miter; stroke-linecap: square"/>
   </g>
   <g id="patch_6">
    <path d="M 90 51.84 
L 648 51.84 
" style="fill: none; stroke: #000000; stroke-width: 0.8; stroke-linejoin: miter; stroke-linecap: square"/>
   </g>
   <g id="text_15">
    <!-- Time Series of Votes for Each Keyword -->
    <g transform="translate(253.716563 45.84) scale(0.12 -0.12)">
     <defs>
      <path id="DejaVuSans-53" d="M 3425 4513 
L 3425 3897 
Q 3066 4069 2747 4153 
Q 2428 4238 2131 4238 
Q 1616 4238 1336 4038 
Q 1056 3838 1056 3469 
Q 1056 3159 1242 3001 
Q 1428 2844 1947 2747 
L 2328 2669 
Q 3034 2534 3370 2195 
Q 3706 1856 3706 1288 
Q 3706 609 3251 259 
Q 2797 -91 1919 -91 
Q 1588 -91 1214 -16 
Q 841 59 441 206 
L 441 856 
Q 825 641 1194 531 
Q 1563 422 1919 422 
Q 2459 422 2753 634 
Q 3047 847 3047 1241 
Q 3047 1584 2836 1778 
Q 2625 1972 2144 2069 
L 1759 2144 
Q 1053 2284 737 2584 
Q 422 2884 422 3419 
Q 422 4038 858 4394 
Q 1294 4750 2059 4750 
Q 2388 4750 2728 4690 
Q 3069 4631 3425 4513 
z
" transform="scale(0.015625)"/>
      <path id="DejaVuSans-72" d="M 2631 2963 
Q 2534 3019 2420 3045 
Q 2306 3072 2169 3072 
Q 1681 3072 1420 2755 
Q 1159 2438 1159 1844 
L 1159 0 
L 581 0 
L 581 3500 
L 1159 3500 
L 1159 2956 
Q 1341 3275 1631 3429 
Q 1922 3584 2338 3584 
Q 2397 3584 2469 3576 
Q 2541 3569 2628 3553 
L 2631 2963 
z
" transform="scale(0.015625)"/>
      <path id="DejaVuSans-66" d="M 2375 4863 
L 2375 4384 
L 1825 4384 
Q 1516 4384 1395 4259 
Q 1275 4134 1275 3809 
L 1275 3500 
L 2222 3500 
L 2222 3053 
L 1275 3053 
L 1275 0 
L 697 0 
L 697 3053 
L 147 3053 
L 147 3500 
L 697 3500 
L 697 3744 
Q 697 4328 969 4595 
Q 1241 4863 1831 4863 
L 2375 4863 
z
" transform="scale(0.015625)"/>
      <path id="DejaVuSans-45" d="M 628 4666 
L 3578 4666 
L 3578 4134 
L 1259 4134 
L 1259 2753 
L 3481 2753 
L 3481 2222 
L 1259 2222 
L 1259 531 
L 3634 531 
L 3634 0 
L 628 0 
L 628 4666 
z
" transform="scale(0.015625)"/>
      <path id="DejaVuSans-63" d="M 3122 3366 
L 3122 2828 
Q 2878 2963 2633 3030 
Q 2388 3097 2138 3097 
Q 1578 3097 1268 2742 
Q 959 2388 959 1747 
Q 959 1106 1268 751 
Q 1578 397 2138 397 
Q 2388 397 2633 464 
Q 2878 531 3122 666 
L 3122 134 
Q 2881 22 2623 -34 
Q 2366 -91 2075 -91 
Q 1284 -91 818 406 
Q 353 903 353 1747 
Q 353 2603 823 3093 
Q 1294 3584 2113 3584 
Q 2378 3584 2631 3529 
Q 2884 3475 3122 3366 
z
" transform="scale(0.015625)"/>
      <path id="DejaVuSans-68" d="M 3513 2113 
L 3513 0 
L 2938 0 
L 2938 2094 
Q 2938 2591 2744 2837 
Q 2550 3084 2163 3084 
Q 1697 3084 1428 2787 
Q 1159 2491 1159 1978 
L 1159 0 
L 581 0 
L 581 4863 
L 1159 4863 
L 1159 2956 
Q 1366 3272 1645 3428 
Q 1925 3584 2291 3584 
Q 2894 3584 3203 3211 
Q 3513 2838 3513 2113 
z
" transform="scale(0.015625)"/>
      <path id="DejaVuSans-4b" d="M 628 4666 
L 1259 4666 
L 1259 2694 
L 3353 4666 
L 4166 4666 
L 1850 2491 
L 4331 0 
L 3500 0 
L 1259 2247 
L 1259 0 
L 628 0 
L 628 4666 
z
" transform="scale(0.015625)"/>
      <path id="DejaVuSans-79" d="M 2059 -325 
Q 1816 -950 1584 -1140 
Q 1353 -1331 966 -1331 
L 506 -1331 
L 506 -850 
L 844 -850 
Q 1081 -850 1212 -737 
Q 1344 -625 1503 -206 
L 1606 56 
L 191 3500 
L 800 3500 
L 1894 763 
L 2988 3500 
L 3597 3500 
L 2059 -325 
z
" transform="scale(0.015625)"/>
      <path id="DejaVuSans-77" d="M 269 3500 
L 844 3500 
L 1563 769 
L 2278 3500 
L 2956 3500 
L 3675 769 
L 4391 3500 
L 4966 3500 
L 4050 0 
L 3372 0 
L 2619 2869 
L 1863 0 
L 1184 0 
L 269 3500 
z
" transform="scale(0.015625)"/>
     </defs>
     <use xlink:href="#DejaVuSans-54"/>
     <use xlink:href="#DejaVuSans-69" transform="translate(57.958984 0)"/>
     <use xlink:href="#DejaVuSans-6d" transform="translate(85.742188 0)"/>
     <use xlink:href="#DejaVuSans-65" transform="translate(183.154297 0)"/>
     <use xlink:href="#DejaVuSans-20" transform="translate(244.677734 0)"/>
     <use xlink:href="#DejaVuSans-53" transform="translate(276.464844 0)"/>
     <use xlink:href="#DejaVuSans-65" transform="translate(339.941406 0)"/>
     <use xlink:href="#DejaVuSans-72" transform="translate(401.464844 0)"/>
     <use xlink:href="#DejaVuSans-69" transform="translate(442.578125 0)"/>
     <use xlink:href="#DejaVuSans-65" transform="translate(470.361328 0)"/>
     <use xlink:href="#DejaVuSans-73" transform="translate(531.884766 0)"/>
     <use xlink:href="#DejaVuSans-20" transform="translate(583.984375 0)"/>
     <use xlink:href="#DejaVuSans-6f" transform="translate(615.771484 0)"/>
     <use xlink:href="#DejaVuSans-66" transform="translate(676.953125 0)"/>
     <use xlink:href="#DejaVuSans-20" transform="translate(712.158203 0)"/>
     <use xlink:href="#DejaVuSans-56" transform="translate(743.945312 0)"/>
     <use xlink:href="#DejaVuSans-6f" transform="translate(804.603516 0)"/>
     <use xlink:href="#DejaVuSans-74" transform="translate(865.785156 0)"/>
     <use xlink:href="#DejaVuSans-65" transform="translate(904.994141 0)"/>
     <use xlink:href="#DejaVuSans-73" transform="translate(966.517578 0)"/>
     <use xlink:href="#DejaVuSans-20" transform="translate(1018.617188 0)"/>
     <use xlink:href="#DejaVuSans-66" transform="translate(1050.404297 0)"/>
     <use xlink:href="#DejaVuSans-6f" transform="translate(1085.609375 0)"/>
     <use xlink:href="#DejaVuSans-72" transform="translate(1146.791016 0)"/>
     <use xlink:href="#DejaVuSans-20" transform="translate(1187.904297 0)"/>
     <use xlink:href="#DejaVuSans-45" transform="translate(1219.691406 0)"/>
     <use xlink:href="#DejaVuSans-61" transform="translate(1282.875 0)"/>
     <use xlink:href="#DejaVuSans-63" transform="translate(1344.154297 0)"/>
     <use xlink:href="#DejaVuSans-68" transform="translate(1399.134766 0)"/>
     <use xlink:href="#DejaVuSans-20" transform="translate(1462.513672 0)"/>
     <use xlink:href="#DejaVuSans-4b" transform="translate(1494.300781 0)"/>
     <use xlink:href="#DejaVuSans-65" transform="translate(1554.876953 0)"/>
     <use xlink:href="#DejaVuSans-79" transform="translate(1616.400391 0)"/>
     <use xlink:href="#DejaVuSans-77" transform="translate(1675.580078 0)"/>
     <use xlink:href="#DejaVuSans-6f" transform="translate(1757.367188 0)"/>
     <use xlink:href="#DejaVuSans-72" transform="translate(1818.548828 0)"/>
     <use xlink:href="#DejaVuSans-64" transform="translate(1857.912109 0)"/>
    </g>
   </g>
   <g id="legend_1">
    <g id="patch_7">
     <path d="M 97 235.9775 
L 149.245313 235.9775 
Q 151.245313 235.9775 151.245313 233.9775 
L 151.245313 58.84 
Q 151.245313 56.84 149.245313 56.84 
L 97 56.84 
Q 95 56.84 95 58.84 
L 95 233.9775 
Q 95 235.9775 97 235.9775 
z
" style="fill: #ffffff; opacity: 0.8; stroke: #cccccc; stroke-linejoin: miter"/>
    </g>
    <g id="line2d_37">
     <path d="M 99 64.938437 
L 109 64.938437 
L 119 64.938437 
" style="fill: none; stroke: #1f77b4; stroke-width: 1.5; stroke-linecap: square"/>
    </g>
    <g id="text_16">
     <!-- H01 -->
     <g transform="translate(127 68.438437) scale(0.1 -0.1)">
      <defs>
       <path id="DejaVuSans-48" d="M 628 4666 
L 1259 4666 
L 1259 2753 
L 3553 2753 
L 3553 4666 
L 4184 4666 
L 4184 0 
L 3553 0 
L 3553 2222 
L 1259 2222 
L 1259 0 
L 628 0 
L 628 4666 
z
" transform="scale(0.015625)"/>
      </defs>
      <use xlink:href="#DejaVuSans-48"/>
      <use xlink:href="#DejaVuSans-30" transform="translate(75.195312 0)"/>
      <use xlink:href="#DejaVuSans-31" transform="translate(138.818359 0)"/>
     </g>
    </g>
    <g id="line2d_38">
     <path d="M 99 79.616562 
L 109 79.616562 
L 119 79.616562 
" style="fill: none; stroke: #ff7f0e; stroke-width: 1.5; stroke-linecap: square"/>
    </g>
    <g id="text_17">
     <!-- H02 -->
     <g transform="translate(127 83.116562) scale(0.1 -0.1)">
      <use xlink:href="#DejaVuSans-48"/>
      <use xlink:href="#DejaVuSans-30" transform="translate(75.195312 0)"/>
      <use xlink:href="#DejaVuSans-32" transform="translate(138.818359 0)"/>
     </g>
    </g>
    <g id="line2d_39">
     <path d="M 99 94.294688 
L 109 94.294688 
L 119 94.294688 
" style="fill: none; stroke: #2ca02c; stroke-width: 1.5; stroke-linecap: square"/>
    </g>
    <g id="text_18">
     <!-- H03 -->
     <g transform="translate(127 97.794688) scale(0.1 -0.1)">
      <defs>
       <path id="DejaVuSans-33" d="M 2597 2516 
Q 3050 2419 3304 2112 
Q 3559 1806 3559 1356 
Q 3559 666 3084 287 
Q 2609 -91 1734 -91 
Q 1441 -91 1130 -33 
Q 819 25 488 141 
L 488 750 
Q 750 597 1062 519 
Q 1375 441 1716 441 
Q 2309 441 2620 675 
Q 2931 909 2931 1356 
Q 2931 1769 2642 2001 
Q 2353 2234 1838 2234 
L 1294 2234 
L 1294 2753 
L 1863 2753 
Q 2328 2753 2575 2939 
Q 2822 3125 2822 3475 
Q 2822 3834 2567 4026 
Q 2313 4219 1838 4219 
Q 1578 4219 1281 4162 
Q 984 4106 628 3988 
L 628 4550 
Q 988 4650 1302 4700 
Q 1616 4750 1894 4750 
Q 2613 4750 3031 4423 
Q 3450 4097 3450 3541 
Q 3450 3153 3228 2886 
Q 3006 2619 2597 2516 
z
" transform="scale(0.015625)"/>
      </defs>
      <use xlink:href="#DejaVuSans-48"/>
      <use xlink:href="#DejaVuSans-30" transform="translate(75.195312 0)"/>
      <use xlink:href="#DejaVuSans-33" transform="translate(138.818359 0)"/>
     </g>
    </g>
    <g id="line2d_40">
     <path d="M 99 108.972812 
L 109 108.972812 
L 119 108.972812 
" style="fill: none; stroke: #d62728; stroke-width: 1.5; stroke-linecap: square"/>
    </g>
    <g id="text_19">
     <!-- H04 -->
     <g transform="translate(127 112.472812) scale(0.1 -0.1)">
      <use xlink:href="#DejaVuSans-48"/>
      <use xlink:href="#DejaVuSans-30" transform="translate(75.195312 0)"/>
      <use xlink:href="#DejaVuSans-34" transform="translate(138.818359 0)"/>
     </g>
    </g>
    <g id="line2d_41">
     <path d="M 99 123.650937 
L 109 123.650937 
L 119 123.650937 
" style="fill: none; stroke: #9467bd; stroke-width: 1.5; stroke-linecap: square"/>
    </g>
    <g id="text_20">
     <!-- H05 -->
     <g transform="translate(127 127.150937) scale(0.1 -0.1)">
      <use xlink:href="#DejaVuSans-48"/>
      <use xlink:href="#DejaVuSans-30" transform="translate(75.195312 0)"/>
      <use xlink:href="#DejaVuSans-35" transform="translate(138.818359 0)"/>
     </g>
    </g>
    <g id="line2d_42">
     <path d="M 99 138.329062 
L 109 138.329062 
L 119 138.329062 
" style="fill: none; stroke: #8c564b; stroke-width: 1.5; stroke-linecap: square"/>
    </g>
    <g id="text_21">
     <!-- H06 -->
     <g transform="translate(127 141.829062) scale(0.1 -0.1)">
      <use xlink:href="#DejaVuSans-48"/>
      <use xlink:href="#DejaVuSans-30" transform="translate(75.195312 0)"/>
      <use xlink:href="#DejaVuSans-36" transform="translate(138.818359 0)"/>
     </g>
    </g>
    <g id="line2d_43">
     <path d="M 99 153.007187 
L 109 153.007187 
L 119 153.007187 
" style="fill: none; stroke: #e377c2; stroke-width: 1.5; stroke-linecap: square"/>
    </g>
    <g id="text_22">
     <!-- H07 -->
     <g transform="translate(127 156.507187) scale(0.1 -0.1)">
      <use xlink:href="#DejaVuSans-48"/>
      <use xlink:href="#DejaVuSans-30" transform="translate(75.195312 0)"/>
      <use xlink:href="#DejaVuSans-37" transform="translate(138.818359 0)"/>
     </g>
    </g>
    <g id="line2d_44">
     <path d="M 99 167.685312 
L 109 167.685312 
L 119 167.685312 
" style="fill: none; stroke: #7f7f7f; stroke-width: 1.5; stroke-linecap: square"/>
    </g>
    <g id="text_23">
     <!-- H08 -->
     <g transform="translate(127 171.185312) scale(0.1 -0.1)">
      <use xlink:href="#DejaVuSans-48"/>
      <use xlink:href="#DejaVuSans-30" transform="translate(75.195312 0)"/>
      <use xlink:href="#DejaVuSans-38" transform="translate(138.818359 0)"/>
     </g>
    </g>
    <g id="line2d_45">
     <path d="M 99 182.363437 
L 109 182.363437 
L 119 182.363437 
" style="fill: none; stroke: #bcbd22; stroke-width: 1.5; stroke-linecap: square"/>
    </g>
    <g id="text_24">
     <!-- H09 -->
     <g transform="translate(127 185.863437) scale(0.1 -0.1)">
      <use xlink:href="#DejaVuSans-48"/>
      <use xlink:href="#DejaVuSans-30" transform="translate(75.195312 0)"/>
      <use xlink:href="#DejaVuSans-39" transform="translate(138.818359 0)"/>
     </g>
    </g>
    <g id="line2d_46">
     <path d="M 99 197.041562 
L 109 197.041562 
L 119 197.041562 
" style="fill: none; stroke: #17becf; stroke-width: 1.5; stroke-linecap: square"/>
    </g>
    <g id="text_25">
     <!-- H10 -->
     <g transform="translate(127 200.541562) scale(0.1 -0.1)">
      <use xlink:href="#DejaVuSans-48"/>
      <use xlink:href="#DejaVuSans-31" transform="translate(75.195312 0)"/>
      <use xlink:href="#DejaVuSans-30" transform="translate(138.818359 0)"/>
     </g>
    </g>
    <g id="line2d_47">
     <path d="M 99 211.719687 
L 109 211.719687 
L 119 211.719687 
" style="fill: none; stroke: #1f77b4; stroke-width: 1.5; stroke-linecap: square"/>
    </g>
    <g id="text_26">
     <!-- H11 -->
     <g transform="translate(127 215.219687) scale(0.1 -0.1)">
      <use xlink:href="#DejaVuSans-48"/>
      <use xlink:href="#DejaVuSans-31" transform="translate(75.195312 0)"/>
      <use xlink:href="#DejaVuSans-31" transform="translate(138.818359 0)"/>
     </g>
    </g>
    <g id="line2d_48">
     <path d="M 99 226.397812 
L 109 226.397812 
L 119 226.397812 
" style="fill: none; stroke: #ff7f0e; stroke-width: 1.5; stroke-linecap: square"/>
    </g>
    <g id="text_27">
     <!-- H12 -->
     <g transform="translate(127 229.897812) scale(0.1 -0.1)">
      <use xlink:href="#DejaVuSans-48"/>
      <use xlink:href="#DejaVuSans-31" transform="translate(75.195312 0)"/>
      <use xlink:href="#DejaVuSans-32" transform="translate(138.818359 0)"/>
     </g>
    </g>
   </g>
  </g>
 </g>
 <defs>
  <clipPath id="pc60b19d6b9">
   <rect x="90" y="51.84" width="558" height="332.64"/>
  </clipPath>
 </defs>
</svg>
