<?xml version="1.0" encoding="utf-8" standalone="no"?>
<!DOCTYPE svg PUBLIC "-//W3C//DTD SVG 1.1//EN"
  "http://www.w3.org/Graphics/SVG/1.1/DTD/svg11.dtd">
<svg xmlns:xlink="http://www.w3.org/1999/xlink" width="720pt" height="432pt" viewBox="0 0 720 432" xmlns="http://www.w3.org/2000/svg" version="1.1">
 <metadata>
  <rdf:RDF xmlns:dc="http://purl.org/dc/elements/1.1/" xmlns:cc="http://creativecommons.org/ns#" xmlns:rdf="http://www.w3.org/1999/02/22-rdf-syntax-ns#">
   <cc:Work>
    <dc:type rdf:resource="http://purl.org/dc/dcmitype/StillImage"/>
    <dc:date>2025-01-14T23:50:22.295761</dc:date>
    <dc:format>image/svg+xml</dc:format>
    <dc:creator>
     <cc:Agent>
      <dc:title>Matplotlib v3.10.0, https://matplotlib.org/</dc:title>
     </cc:Agent>
    </dc:creator>
   </cc:Work>
  </rdf:RDF>
 </metadata>
 <defs>
  <style type="text/css">*{stroke-linejoin: round; stroke-linecap: butt}</style>
 </defs>
 <g id="figure_1">
  <g id="patch_1">
   <path d="M 0 432 
L 720 432 
L 720 0 
L 0 0 
z
" style="fill: #ffffff"/>
  </g>
  <g id="axes_1">
   <g id="patch_2">
    <path d="M 90 384.48 
L 648 384.48 
L 648 51.84 
L 90 51.84 
z
" style="fill: #ffffff"/>
   </g>
   <g id="matplotlib.axis_1">
    <g id="xtick_1">
     <g id="line2d_1">
      <path d="M 137.561957 384.48 
L 137.561957 51.84 
" clip-path="url(#p3c5b4db0ca)" style="fill: none; stroke: #b0b0b0; stroke-width: 0.8; stroke-linecap: square"/>
     </g>
     <g id="line2d_2">
      <defs>
       <path id="m99c6e3d51c" d="M 0 0 
L 0 3.5 
" style="stroke: #000000; stroke-width: 0.8"/>
      </defs>
      <g>
       <use xlink:href="#m99c6e3d51c" x="137.561957" y="384.48" style="stroke: #000000; stroke-width: 0.8"/>
      </g>
     </g>
     <g id="text_1">
      <!-- 01-14 14 -->
      <g transform="translate(115.081488 399.078438) scale(0.1 -0.1)">
       <defs>
        <path id="DejaVuSans-30" d="M 2034 4250 
Q 1547 4250 1301 3770 
Q 1056 3291 1056 2328 
Q 1056 1369 1301 889 
Q 1547 409 2034 409 
Q 2525 409 2770 889 
Q 3016 1369 3016 2328 
Q 3016 3291 2770 3770 
Q 2525 4250 2034 4250 
z
M 2034 4750 
Q 2819 4750 3233 4129 
Q 3647 3509 3647 2328 
Q 3647 1150 3233 529 
Q 2819 -91 2034 -91 
Q 1250 -91 836 529 
Q 422 1150 422 2328 
Q 422 3509 836 4129 
Q 1250 4750 2034 4750 
z
" transform="scale(0.015625)"/>
        <path id="DejaVuSans-31" d="M 794 531 
L 1825 531 
L 1825 4091 
L 703 3866 
L 703 4441 
L 1819 4666 
L 2450 4666 
L 2450 531 
L 3481 531 
L 3481 0 
L 794 0 
L 794 531 
z
" transform="scale(0.015625)"/>
        <path id="DejaVuSans-2d" d="M 313 2009 
L 1997 2009 
L 1997 1497 
L 313 1497 
L 313 2009 
z
" transform="scale(0.015625)"/>
        <path id="DejaVuSans-34" d="M 2419 4116 
L 825 1625 
L 2419 1625 
L 2419 4116 
z
M 2253 4666 
L 3047 4666 
L 3047 1625 
L 3713 1625 
L 3713 1100 
L 3047 1100 
L 3047 0 
L 2419 0 
L 2419 1100 
L 313 1100 
L 313 1709 
L 2253 4666 
z
" transform="scale(0.015625)"/>
        <path id="DejaVuSans-20" transform="scale(0.015625)"/>
       </defs>
       <use xlink:href="#DejaVuSans-30"/>
       <use xlink:href="#DejaVuSans-31" transform="translate(63.623047 0)"/>
       <use xlink:href="#DejaVuSans-2d" transform="translate(127.246094 0)"/>
       <use xlink:href="#DejaVuSans-31" transform="translate(163.330078 0)"/>
       <use xlink:href="#DejaVuSans-34" transform="translate(226.953125 0)"/>
       <use xlink:href="#DejaVuSans-20" transform="translate(290.576172 0)"/>
       <use xlink:href="#DejaVuSans-31" transform="translate(322.363281 0)"/>
       <use xlink:href="#DejaVuSans-34" transform="translate(385.986328 0)"/>
      </g>
     </g>
    </g>
    <g id="xtick_2">
     <g id="line2d_3">
      <path d="M 186.891557 384.48 
L 186.891557 51.84 
" clip-path="url(#p3c5b4db0ca)" style="fill: none; stroke: #b0b0b0; stroke-width: 0.8; stroke-linecap: square"/>
     </g>
     <g id="line2d_4">
      <g>
       <use xlink:href="#m99c6e3d51c" x="186.891557" y="384.48" style="stroke: #000000; stroke-width: 0.8"/>
      </g>
     </g>
     <g id="text_2">
      <!-- 01-14 15 -->
      <g transform="translate(164.411089 399.078438) scale(0.1 -0.1)">
       <defs>
        <path id="DejaVuSans-35" d="M 691 4666 
L 3169 4666 
L 3169 4134 
L 1269 4134 
L 1269 2991 
Q 1406 3038 1543 3061 
Q 1681 3084 1819 3084 
Q 2600 3084 3056 2656 
Q 3513 2228 3513 1497 
Q 3513 744 3044 326 
Q 2575 -91 1722 -91 
Q 1428 -91 1123 -41 
Q 819 9 494 109 
L 494 744 
Q 775 591 1075 516 
Q 1375 441 1709 441 
Q 2250 441 2565 725 
Q 2881 1009 2881 1497 
Q 2881 1984 2565 2268 
Q 2250 2553 1709 2553 
Q 1456 2553 1204 2497 
Q 953 2441 691 2322 
L 691 4666 
z
" transform="scale(0.015625)"/>
       </defs>
       <use xlink:href="#DejaVuSans-30"/>
       <use xlink:href="#DejaVuSans-31" transform="translate(63.623047 0)"/>
       <use xlink:href="#DejaVuSans-2d" transform="translate(127.246094 0)"/>
       <use xlink:href="#DejaVuSans-31" transform="translate(163.330078 0)"/>
       <use xlink:href="#DejaVuSans-34" transform="translate(226.953125 0)"/>
       <use xlink:href="#DejaVuSans-20" transform="translate(290.576172 0)"/>
       <use xlink:href="#DejaVuSans-31" transform="translate(322.363281 0)"/>
       <use xlink:href="#DejaVuSans-35" transform="translate(385.986328 0)"/>
      </g>
     </g>
    </g>
    <g id="xtick_3">
     <g id="line2d_5">
      <path d="M 236.221158 384.48 
L 236.221158 51.84 
" clip-path="url(#p3c5b4db0ca)" style="fill: none; stroke: #b0b0b0; stroke-width: 0.8; stroke-linecap: square"/>
     </g>
     <g id="line2d_6">
      <g>
       <use xlink:href="#m99c6e3d51c" x="236.221158" y="384.48" style="stroke: #000000; stroke-width: 0.8"/>
      </g>
     </g>
     <g id="text_3">
      <!-- 01-14 16 -->
      <g transform="translate(213.740689 399.078438) scale(0.1 -0.1)">
       <defs>
        <path id="DejaVuSans-36" d="M 2113 2584 
Q 1688 2584 1439 2293 
Q 1191 2003 1191 1497 
Q 1191 994 1439 701 
Q 1688 409 2113 409 
Q 2538 409 2786 701 
Q 3034 994 3034 1497 
Q 3034 2003 2786 2293 
Q 2538 2584 2113 2584 
z
M 3366 4563 
L 3366 3988 
Q 3128 4100 2886 4159 
Q 2644 4219 2406 4219 
Q 1781 4219 1451 3797 
Q 1122 3375 1075 2522 
Q 1259 2794 1537 2939 
Q 1816 3084 2150 3084 
Q 2853 3084 3261 2657 
Q 3669 2231 3669 1497 
Q 3669 778 3244 343 
Q 2819 -91 2113 -91 
Q 1303 -91 875 529 
Q 447 1150 447 2328 
Q 447 3434 972 4092 
Q 1497 4750 2381 4750 
Q 2619 4750 2861 4703 
Q 3103 4656 3366 4563 
z
" transform="scale(0.015625)"/>
       </defs>
       <use xlink:href="#DejaVuSans-30"/>
       <use xlink:href="#DejaVuSans-31" transform="translate(63.623047 0)"/>
       <use xlink:href="#DejaVuSans-2d" transform="translate(127.246094 0)"/>
       <use xlink:href="#DejaVuSans-31" transform="translate(163.330078 0)"/>
       <use xlink:href="#DejaVuSans-34" transform="translate(226.953125 0)"/>
       <use xlink:href="#DejaVuSans-20" transform="translate(290.576172 0)"/>
       <use xlink:href="#DejaVuSans-31" transform="translate(322.363281 0)"/>
       <use xlink:href="#DejaVuSans-36" transform="translate(385.986328 0)"/>
      </g>
     </g>
    </g>
    <g id="xtick_4">
     <g id="line2d_7">
      <path d="M 285.550759 384.48 
L 285.550759 51.84 
" clip-path="url(#p3c5b4db0ca)" style="fill: none; stroke: #b0b0b0; stroke-width: 0.8; stroke-linecap: square"/>
     </g>
     <g id="line2d_8">
      <g>
       <use xlink:href="#m99c6e3d51c" x="285.550759" y="384.48" style="stroke: #000000; stroke-width: 0.8"/>
      </g>
     </g>
     <g id="text_4">
      <!-- 01-14 17 -->
      <g transform="translate(263.07029 399.078438) scale(0.1 -0.1)">
       <defs>
        <path id="DejaVuSans-37" d="M 525 4666 
L 3525 4666 
L 3525 4397 
L 1831 0 
L 1172 0 
L 2766 4134 
L 525 4134 
L 525 4666 
z
" transform="scale(0.015625)"/>
       </defs>
       <use xlink:href="#DejaVuSans-30"/>
       <use xlink:href="#DejaVuSans-31" transform="translate(63.623047 0)"/>
       <use xlink:href="#DejaVuSans-2d" transform="translate(127.246094 0)"/>
       <use xlink:href="#DejaVuSans-31" transform="translate(163.330078 0)"/>
       <use xlink:href="#DejaVuSans-34" transform="translate(226.953125 0)"/>
       <use xlink:href="#DejaVuSans-20" transform="translate(290.576172 0)"/>
       <use xlink:href="#DejaVuSans-31" transform="translate(322.363281 0)"/>
       <use xlink:href="#DejaVuSans-37" transform="translate(385.986328 0)"/>
      </g>
     </g>
    </g>
    <g id="xtick_5">
     <g id="line2d_9">
      <path d="M 334.88036 384.48 
L 334.88036 51.84 
" clip-path="url(#p3c5b4db0ca)" style="fill: none; stroke: #b0b0b0; stroke-width: 0.8; stroke-linecap: square"/>
     </g>
     <g id="line2d_10">
      <g>
       <use xlink:href="#m99c6e3d51c" x="334.88036" y="384.48" style="stroke: #000000; stroke-width: 0.8"/>
      </g>
     </g>
     <g id="text_5">
      <!-- 01-14 18 -->
      <g transform="translate(312.399891 399.078438) scale(0.1 -0.1)">
       <defs>
        <path id="DejaVuSans-38" d="M 2034 2216 
Q 1584 2216 1326 1975 
Q 1069 1734 1069 1313 
Q 1069 891 1326 650 
Q 1584 409 2034 409 
Q 2484 409 2743 651 
Q 3003 894 3003 1313 
Q 3003 1734 2745 1975 
Q 2488 2216 2034 2216 
z
M 1403 2484 
Q 997 2584 770 2862 
Q 544 3141 544 3541 
Q 544 4100 942 4425 
Q 1341 4750 2034 4750 
Q 2731 4750 3128 4425 
Q 3525 4100 3525 3541 
Q 3525 3141 3298 2862 
Q 3072 2584 2669 2484 
Q 3125 2378 3379 2068 
Q 3634 1759 3634 1313 
Q 3634 634 3220 271 
Q 2806 -91 2034 -91 
Q 1263 -91 848 271 
Q 434 634 434 1313 
Q 434 1759 690 2068 
Q 947 2378 1403 2484 
z
M 1172 3481 
Q 1172 3119 1398 2916 
Q 1625 2713 2034 2713 
Q 2441 2713 2670 2916 
Q 2900 3119 2900 3481 
Q 2900 3844 2670 4047 
Q 2441 4250 2034 4250 
Q 1625 4250 1398 4047 
Q 1172 3844 1172 3481 
z
" transform="scale(0.015625)"/>
       </defs>
       <use xlink:href="#DejaVuSans-30"/>
       <use xlink:href="#DejaVuSans-31" transform="translate(63.623047 0)"/>
       <use xlink:href="#DejaVuSans-2d" transform="translate(127.246094 0)"/>
       <use xlink:href="#DejaVuSans-31" transform="translate(163.330078 0)"/>
       <use xlink:href="#DejaVuSans-34" transform="translate(226.953125 0)"/>
       <use xlink:href="#DejaVuSans-20" transform="translate(290.576172 0)"/>
       <use xlink:href="#DejaVuSans-31" transform="translate(322.363281 0)"/>
       <use xlink:href="#DejaVuSans-38" transform="translate(385.986328 0)"/>
      </g>
     </g>
    </g>
    <g id="xtick_6">
     <g id="line2d_11">
      <path d="M 384.20996 384.48 
L 384.20996 51.84 
" clip-path="url(#p3c5b4db0ca)" style="fill: none; stroke: #b0b0b0; stroke-width: 0.8; stroke-linecap: square"/>
     </g>
     <g id="line2d_12">
      <g>
       <use xlink:href="#m99c6e3d51c" x="384.20996" y="384.48" style="stroke: #000000; stroke-width: 0.8"/>
      </g>
     </g>
     <g id="text_6">
      <!-- 01-14 19 -->
      <g transform="translate(361.729491 399.078438) scale(0.1 -0.1)">
       <defs>
        <path id="DejaVuSans-39" d="M 703 97 
L 703 672 
Q 941 559 1184 500 
Q 1428 441 1663 441 
Q 2288 441 2617 861 
Q 2947 1281 2994 2138 
Q 2813 1869 2534 1725 
Q 2256 1581 1919 1581 
Q 1219 1581 811 2004 
Q 403 2428 403 3163 
Q 403 3881 828 4315 
Q 1253 4750 1959 4750 
Q 2769 4750 3195 4129 
Q 3622 3509 3622 2328 
Q 3622 1225 3098 567 
Q 2575 -91 1691 -91 
Q 1453 -91 1209 -44 
Q 966 3 703 97 
z
M 1959 2075 
Q 2384 2075 2632 2365 
Q 2881 2656 2881 3163 
Q 2881 3666 2632 3958 
Q 2384 4250 1959 4250 
Q 1534 4250 1286 3958 
Q 1038 3666 1038 3163 
Q 1038 2656 1286 2365 
Q 1534 2075 1959 2075 
z
" transform="scale(0.015625)"/>
       </defs>
       <use xlink:href="#DejaVuSans-30"/>
       <use xlink:href="#DejaVuSans-31" transform="translate(63.623047 0)"/>
       <use xlink:href="#DejaVuSans-2d" transform="translate(127.246094 0)"/>
       <use xlink:href="#DejaVuSans-31" transform="translate(163.330078 0)"/>
       <use xlink:href="#DejaVuSans-34" transform="translate(226.953125 0)"/>
       <use xlink:href="#DejaVuSans-20" transform="translate(290.576172 0)"/>
       <use xlink:href="#DejaVuSans-31" transform="translate(322.363281 0)"/>
       <use xlink:href="#DejaVuSans-39" transform="translate(385.986328 0)"/>
      </g>
     </g>
    </g>
    <g id="xtick_7">
     <g id="line2d_13">
      <path d="M 433.539561 384.48 
L 433.539561 51.84 
" clip-path="url(#p3c5b4db0ca)" style="fill: none; stroke: #b0b0b0; stroke-width: 0.8; stroke-linecap: square"/>
     </g>
     <g id="line2d_14">
      <g>
       <use xlink:href="#m99c6e3d51c" x="433.539561" y="384.48" style="stroke: #000000; stroke-width: 0.8"/>
      </g>
     </g>
     <g id="text_7">
      <!-- 01-14 20 -->
      <g transform="translate(411.059092 399.078438) scale(0.1 -0.1)">
       <defs>
        <path id="DejaVuSans-32" d="M 1228 531 
L 3431 531 
L 3431 0 
L 469 0 
L 469 531 
Q 828 903 1448 1529 
Q 2069 2156 2228 2338 
Q 2531 2678 2651 2914 
Q 2772 3150 2772 3378 
Q 2772 3750 2511 3984 
Q 2250 4219 1831 4219 
Q 1534 4219 1204 4116 
Q 875 4013 500 3803 
L 500 4441 
Q 881 4594 1212 4672 
Q 1544 4750 1819 4750 
Q 2544 4750 2975 4387 
Q 3406 4025 3406 3419 
Q 3406 3131 3298 2873 
Q 3191 2616 2906 2266 
Q 2828 2175 2409 1742 
Q 1991 1309 1228 531 
z
" transform="scale(0.015625)"/>
       </defs>
       <use xlink:href="#DejaVuSans-30"/>
       <use xlink:href="#DejaVuSans-31" transform="translate(63.623047 0)"/>
       <use xlink:href="#DejaVuSans-2d" transform="translate(127.246094 0)"/>
       <use xlink:href="#DejaVuSans-31" transform="translate(163.330078 0)"/>
       <use xlink:href="#DejaVuSans-34" transform="translate(226.953125 0)"/>
       <use xlink:href="#DejaVuSans-20" transform="translate(290.576172 0)"/>
       <use xlink:href="#DejaVuSans-32" transform="translate(322.363281 0)"/>
       <use xlink:href="#DejaVuSans-30" transform="translate(385.986328 0)"/>
      </g>
     </g>
    </g>
    <g id="xtick_8">
     <g id="line2d_15">
      <path d="M 482.869162 384.48 
L 482.869162 51.84 
" clip-path="url(#p3c5b4db0ca)" style="fill: none; stroke: #b0b0b0; stroke-width: 0.8; stroke-linecap: square"/>
     </g>
     <g id="line2d_16">
      <g>
       <use xlink:href="#m99c6e3d51c" x="482.869162" y="384.48" style="stroke: #000000; stroke-width: 0.8"/>
      </g>
     </g>
     <g id="text_8">
      <!-- 01-14 21 -->
      <g transform="translate(460.388693 399.078438) scale(0.1 -0.1)">
       <use xlink:href="#DejaVuSans-30"/>
       <use xlink:href="#DejaVuSans-31" transform="translate(63.623047 0)"/>
       <use xlink:href="#DejaVuSans-2d" transform="translate(127.246094 0)"/>
       <use xlink:href="#DejaVuSans-31" transform="translate(163.330078 0)"/>
       <use xlink:href="#DejaVuSans-34" transform="translate(226.953125 0)"/>
       <use xlink:href="#DejaVuSans-20" transform="translate(290.576172 0)"/>
       <use xlink:href="#DejaVuSans-32" transform="translate(322.363281 0)"/>
       <use xlink:href="#DejaVuSans-31" transform="translate(385.986328 0)"/>
      </g>
     </g>
    </g>
    <g id="xtick_9">
     <g id="line2d_17">
      <path d="M 532.198762 384.48 
L 532.198762 51.84 
" clip-path="url(#p3c5b4db0ca)" style="fill: none; stroke: #b0b0b0; stroke-width: 0.8; stroke-linecap: square"/>
     </g>
     <g id="line2d_18">
      <g>
       <use xlink:href="#m99c6e3d51c" x="532.198762" y="384.48" style="stroke: #000000; stroke-width: 0.8"/>
      </g>
     </g>
     <g id="text_9">
      <!-- 01-14 22 -->
      <g transform="translate(509.718294 399.078438) scale(0.1 -0.1)">
       <use xlink:href="#DejaVuSans-30"/>
       <use xlink:href="#DejaVuSans-31" transform="translate(63.623047 0)"/>
       <use xlink:href="#DejaVuSans-2d" transform="translate(127.246094 0)"/>
       <use xlink:href="#DejaVuSans-31" transform="translate(163.330078 0)"/>
       <use xlink:href="#DejaVuSans-34" transform="translate(226.953125 0)"/>
       <use xlink:href="#DejaVuSans-20" transform="translate(290.576172 0)"/>
       <use xlink:href="#DejaVuSans-32" transform="translate(322.363281 0)"/>
       <use xlink:href="#DejaVuSans-32" transform="translate(385.986328 0)"/>
      </g>
     </g>
    </g>
    <g id="xtick_10">
     <g id="line2d_19">
      <path d="M 581.528363 384.48 
L 581.528363 51.84 
" clip-path="url(#p3c5b4db0ca)" style="fill: none; stroke: #b0b0b0; stroke-width: 0.8; stroke-linecap: square"/>
     </g>
     <g id="line2d_20">
      <g>
       <use xlink:href="#m99c6e3d51c" x="581.528363" y="384.48" style="stroke: #000000; stroke-width: 0.8"/>
      </g>
     </g>
     <g id="text_10">
      <!-- 01-14 23 -->
      <g transform="translate(559.047894 399.078438) scale(0.1 -0.1)">
       <defs>
        <path id="DejaVuSans-33" d="M 2597 2516 
Q 3050 2419 3304 2112 
Q 3559 1806 3559 1356 
Q 3559 666 3084 287 
Q 2609 -91 1734 -91 
Q 1441 -91 1130 -33 
Q 819 25 488 141 
L 488 750 
Q 750 597 1062 519 
Q 1375 441 1716 441 
Q 2309 441 2620 675 
Q 2931 909 2931 1356 
Q 2931 1769 2642 2001 
Q 2353 2234 1838 2234 
L 1294 2234 
L 1294 2753 
L 1863 2753 
Q 2328 2753 2575 2939 
Q 2822 3125 2822 3475 
Q 2822 3834 2567 4026 
Q 2313 4219 1838 4219 
Q 1578 4219 1281 4162 
Q 984 4106 628 3988 
L 628 4550 
Q 988 4650 1302 4700 
Q 1616 4750 1894 4750 
Q 2613 4750 3031 4423 
Q 3450 4097 3450 3541 
Q 3450 3153 3228 2886 
Q 3006 2619 2597 2516 
z
" transform="scale(0.015625)"/>
       </defs>
       <use xlink:href="#DejaVuSans-30"/>
       <use xlink:href="#DejaVuSans-31" transform="translate(63.623047 0)"/>
       <use xlink:href="#DejaVuSans-2d" transform="translate(127.246094 0)"/>
       <use xlink:href="#DejaVuSans-31" transform="translate(163.330078 0)"/>
       <use xlink:href="#DejaVuSans-34" transform="translate(226.953125 0)"/>
       <use xlink:href="#DejaVuSans-20" transform="translate(290.576172 0)"/>
       <use xlink:href="#DejaVuSans-32" transform="translate(322.363281 0)"/>
       <use xlink:href="#DejaVuSans-33" transform="translate(385.986328 0)"/>
      </g>
     </g>
    </g>
    <g id="xtick_11">
     <g id="line2d_21">
      <path d="M 630.857964 384.48 
L 630.857964 51.84 
" clip-path="url(#p3c5b4db0ca)" style="fill: none; stroke: #b0b0b0; stroke-width: 0.8; stroke-linecap: square"/>
     </g>
     <g id="line2d_22">
      <g>
       <use xlink:href="#m99c6e3d51c" x="630.857964" y="384.48" style="stroke: #000000; stroke-width: 0.8"/>
      </g>
     </g>
     <g id="text_11">
      <!-- 01-15 00 -->
      <g transform="translate(608.377495 399.078438) scale(0.1 -0.1)">
       <use xlink:href="#DejaVuSans-30"/>
       <use xlink:href="#DejaVuSans-31" transform="translate(63.623047 0)"/>
       <use xlink:href="#DejaVuSans-2d" transform="translate(127.246094 0)"/>
       <use xlink:href="#DejaVuSans-31" transform="translate(163.330078 0)"/>
       <use xlink:href="#DejaVuSans-35" transform="translate(226.953125 0)"/>
       <use xlink:href="#DejaVuSans-20" transform="translate(290.576172 0)"/>
       <use xlink:href="#DejaVuSans-30" transform="translate(322.363281 0)"/>
       <use xlink:href="#DejaVuSans-30" transform="translate(385.986328 0)"/>
      </g>
     </g>
    </g>
    <g id="text_12">
     <!-- Date and Time -->
     <g transform="translate(332.230469 412.756563) scale(0.1 -0.1)">
      <defs>
       <path id="DejaVuSans-44" d="M 1259 4147 
L 1259 519 
L 2022 519 
Q 2988 519 3436 956 
Q 3884 1394 3884 2338 
Q 3884 3275 3436 3711 
Q 2988 4147 2022 4147 
L 1259 4147 
z
M 628 4666 
L 1925 4666 
Q 3281 4666 3915 4102 
Q 4550 3538 4550 2338 
Q 4550 1131 3912 565 
Q 3275 0 1925 0 
L 628 0 
L 628 4666 
z
" transform="scale(0.015625)"/>
       <path id="DejaVuSans-61" d="M 2194 1759 
Q 1497 1759 1228 1600 
Q 959 1441 959 1056 
Q 959 750 1161 570 
Q 1363 391 1709 391 
Q 2188 391 2477 730 
Q 2766 1069 2766 1631 
L 2766 1759 
L 2194 1759 
z
M 3341 1997 
L 3341 0 
L 2766 0 
L 2766 531 
Q 2569 213 2275 61 
Q 1981 -91 1556 -91 
Q 1019 -91 701 211 
Q 384 513 384 1019 
Q 384 1609 779 1909 
Q 1175 2209 1959 2209 
L 2766 2209 
L 2766 2266 
Q 2766 2663 2505 2880 
Q 2244 3097 1772 3097 
Q 1472 3097 1187 3025 
Q 903 2953 641 2809 
L 641 3341 
Q 956 3463 1253 3523 
Q 1550 3584 1831 3584 
Q 2591 3584 2966 3190 
Q 3341 2797 3341 1997 
z
" transform="scale(0.015625)"/>
       <path id="DejaVuSans-74" d="M 1172 4494 
L 1172 3500 
L 2356 3500 
L 2356 3053 
L 1172 3053 
L 1172 1153 
Q 1172 725 1289 603 
Q 1406 481 1766 481 
L 2356 481 
L 2356 0 
L 1766 0 
Q 1100 0 847 248 
Q 594 497 594 1153 
L 594 3053 
L 172 3053 
L 172 3500 
L 594 3500 
L 594 4494 
L 1172 4494 
z
" transform="scale(0.015625)"/>
       <path id="DejaVuSans-65" d="M 3597 1894 
L 3597 1613 
L 953 1613 
Q 991 1019 1311 708 
Q 1631 397 2203 397 
Q 2534 397 2845 478 
Q 3156 559 3463 722 
L 3463 178 
Q 3153 47 2828 -22 
Q 2503 -91 2169 -91 
Q 1331 -91 842 396 
Q 353 884 353 1716 
Q 353 2575 817 3079 
Q 1281 3584 2069 3584 
Q 2775 3584 3186 3129 
Q 3597 2675 3597 1894 
z
M 3022 2063 
Q 3016 2534 2758 2815 
Q 2500 3097 2075 3097 
Q 1594 3097 1305 2825 
Q 1016 2553 972 2059 
L 3022 2063 
z
" transform="scale(0.015625)"/>
       <path id="DejaVuSans-6e" d="M 3513 2113 
L 3513 0 
L 2938 0 
L 2938 2094 
Q 2938 2591 2744 2837 
Q 2550 3084 2163 3084 
Q 1697 3084 1428 2787 
Q 1159 2491 1159 1978 
L 1159 0 
L 581 0 
L 581 3500 
L 1159 3500 
L 1159 2956 
Q 1366 3272 1645 3428 
Q 1925 3584 2291 3584 
Q 2894 3584 3203 3211 
Q 3513 2838 3513 2113 
z
" transform="scale(0.015625)"/>
       <path id="DejaVuSans-64" d="M 2906 2969 
L 2906 4863 
L 3481 4863 
L 3481 0 
L 2906 0 
L 2906 525 
Q 2725 213 2448 61 
Q 2172 -91 1784 -91 
Q 1150 -91 751 415 
Q 353 922 353 1747 
Q 353 2572 751 3078 
Q 1150 3584 1784 3584 
Q 2172 3584 2448 3432 
Q 2725 3281 2906 2969 
z
M 947 1747 
Q 947 1113 1208 752 
Q 1469 391 1925 391 
Q 2381 391 2643 752 
Q 2906 1113 2906 1747 
Q 2906 2381 2643 2742 
Q 2381 3103 1925 3103 
Q 1469 3103 1208 2742 
Q 947 2381 947 1747 
z
" transform="scale(0.015625)"/>
       <path id="DejaVuSans-54" d="M -19 4666 
L 3928 4666 
L 3928 4134 
L 2272 4134 
L 2272 0 
L 1638 0 
L 1638 4134 
L -19 4134 
L -19 4666 
z
" transform="scale(0.015625)"/>
       <path id="DejaVuSans-69" d="M 603 3500 
L 1178 3500 
L 1178 0 
L 603 0 
L 603 3500 
z
M 603 4863 
L 1178 4863 
L 1178 4134 
L 603 4134 
L 603 4863 
z
" transform="scale(0.015625)"/>
       <path id="DejaVuSans-6d" d="M 3328 2828 
Q 3544 3216 3844 3400 
Q 4144 3584 4550 3584 
Q 5097 3584 5394 3201 
Q 5691 2819 5691 2113 
L 5691 0 
L 5113 0 
L 5113 2094 
Q 5113 2597 4934 2840 
Q 4756 3084 4391 3084 
Q 3944 3084 3684 2787 
Q 3425 2491 3425 1978 
L 3425 0 
L 2847 0 
L 2847 2094 
Q 2847 2600 2669 2842 
Q 2491 3084 2119 3084 
Q 1678 3084 1418 2786 
Q 1159 2488 1159 1978 
L 1159 0 
L 581 0 
L 581 3500 
L 1159 3500 
L 1159 2956 
Q 1356 3278 1631 3431 
Q 1906 3584 2284 3584 
Q 2666 3584 2933 3390 
Q 3200 3197 3328 2828 
z
" transform="scale(0.015625)"/>
      </defs>
      <use xlink:href="#DejaVuSans-44"/>
      <use xlink:href="#DejaVuSans-61" transform="translate(77.001953 0)"/>
      <use xlink:href="#DejaVuSans-74" transform="translate(138.28125 0)"/>
      <use xlink:href="#DejaVuSans-65" transform="translate(177.490234 0)"/>
      <use xlink:href="#DejaVuSans-20" transform="translate(239.013672 0)"/>
      <use xlink:href="#DejaVuSans-61" transform="translate(270.800781 0)"/>
      <use xlink:href="#DejaVuSans-6e" transform="translate(332.080078 0)"/>
      <use xlink:href="#DejaVuSans-64" transform="translate(395.458984 0)"/>
      <use xlink:href="#DejaVuSans-20" transform="translate(458.935547 0)"/>
      <use xlink:href="#DejaVuSans-54" transform="translate(490.722656 0)"/>
      <use xlink:href="#DejaVuSans-69" transform="translate(548.681641 0)"/>
      <use xlink:href="#DejaVuSans-6d" transform="translate(576.464844 0)"/>
      <use xlink:href="#DejaVuSans-65" transform="translate(673.876953 0)"/>
     </g>
    </g>
   </g>
   <g id="matplotlib.axis_2">
    <g id="ytick_1">
     <g id="line2d_23">
      <path d="M 90 370.29913 
L 648 370.29913 
" clip-path="url(#p3c5b4db0ca)" style="fill: none; stroke: #b0b0b0; stroke-width: 0.8; stroke-linecap: square"/>
     </g>
     <g id="line2d_24">
      <defs>
       <path id="m3028bf661e" d="M 0 0 
L -3.5 0 
" style="stroke: #000000; stroke-width: 0.8"/>
      </defs>
      <g>
       <use xlink:href="#m3028bf661e" x="90" y="370.29913" style="stroke: #000000; stroke-width: 0.8"/>
      </g>
     </g>
     <g id="text_13">
      <!-- 0 -->
      <g transform="translate(76.6375 374.098349) scale(0.1 -0.1)">
       <use xlink:href="#DejaVuSans-30"/>
      </g>
     </g>
    </g>
    <g id="ytick_2">
     <g id="line2d_25">
      <path d="M 90 323.342609 
L 648 323.342609 
" clip-path="url(#p3c5b4db0ca)" style="fill: none; stroke: #b0b0b0; stroke-width: 0.8; stroke-linecap: square"/>
     </g>
     <g id="line2d_26">
      <g>
       <use xlink:href="#m3028bf661e" x="90" y="323.342609" style="stroke: #000000; stroke-width: 0.8"/>
      </g>
     </g>
     <g id="text_14">
      <!-- 50 -->
      <g transform="translate(70.275 327.141827) scale(0.1 -0.1)">
       <use xlink:href="#DejaVuSans-35"/>
       <use xlink:href="#DejaVuSans-30" transform="translate(63.623047 0)"/>
      </g>
     </g>
    </g>
    <g id="ytick_3">
     <g id="line2d_27">
      <path d="M 90 276.386087 
L 648 276.386087 
" clip-path="url(#p3c5b4db0ca)" style="fill: none; stroke: #b0b0b0; stroke-width: 0.8; stroke-linecap: square"/>
     </g>
     <g id="line2d_28">
      <g>
       <use xlink:href="#m3028bf661e" x="90" y="276.386087" style="stroke: #000000; stroke-width: 0.8"/>
      </g>
     </g>
     <g id="text_15">
      <!-- 100 -->
      <g transform="translate(63.9125 280.185306) scale(0.1 -0.1)">
       <use xlink:href="#DejaVuSans-31"/>
       <use xlink:href="#DejaVuSans-30" transform="translate(63.623047 0)"/>
       <use xlink:href="#DejaVuSans-30" transform="translate(127.246094 0)"/>
      </g>
     </g>
    </g>
    <g id="ytick_4">
     <g id="line2d_29">
      <path d="M 90 229.429565 
L 648 229.429565 
" clip-path="url(#p3c5b4db0ca)" style="fill: none; stroke: #b0b0b0; stroke-width: 0.8; stroke-linecap: square"/>
     </g>
     <g id="line2d_30">
      <g>
       <use xlink:href="#m3028bf661e" x="90" y="229.429565" style="stroke: #000000; stroke-width: 0.8"/>
      </g>
     </g>
     <g id="text_16">
      <!-- 150 -->
      <g transform="translate(63.9125 233.228784) scale(0.1 -0.1)">
       <use xlink:href="#DejaVuSans-31"/>
       <use xlink:href="#DejaVuSans-35" transform="translate(63.623047 0)"/>
       <use xlink:href="#DejaVuSans-30" transform="translate(127.246094 0)"/>
      </g>
     </g>
    </g>
    <g id="ytick_5">
     <g id="line2d_31">
      <path d="M 90 182.473043 
L 648 182.473043 
" clip-path="url(#p3c5b4db0ca)" style="fill: none; stroke: #b0b0b0; stroke-width: 0.8; stroke-linecap: square"/>
     </g>
     <g id="line2d_32">
      <g>
       <use xlink:href="#m3028bf661e" x="90" y="182.473043" style="stroke: #000000; stroke-width: 0.8"/>
      </g>
     </g>
     <g id="text_17">
      <!-- 200 -->
      <g transform="translate(63.9125 186.272262) scale(0.1 -0.1)">
       <use xlink:href="#DejaVuSans-32"/>
       <use xlink:href="#DejaVuSans-30" transform="translate(63.623047 0)"/>
       <use xlink:href="#DejaVuSans-30" transform="translate(127.246094 0)"/>
      </g>
     </g>
    </g>
    <g id="ytick_6">
     <g id="line2d_33">
      <path d="M 90 135.516522 
L 648 135.516522 
" clip-path="url(#p3c5b4db0ca)" style="fill: none; stroke: #b0b0b0; stroke-width: 0.8; stroke-linecap: square"/>
     </g>
     <g id="line2d_34">
      <g>
       <use xlink:href="#m3028bf661e" x="90" y="135.516522" style="stroke: #000000; stroke-width: 0.8"/>
      </g>
     </g>
     <g id="text_18">
      <!-- 250 -->
      <g transform="translate(63.9125 139.31574) scale(0.1 -0.1)">
       <use xlink:href="#DejaVuSans-32"/>
       <use xlink:href="#DejaVuSans-35" transform="translate(63.623047 0)"/>
       <use xlink:href="#DejaVuSans-30" transform="translate(127.246094 0)"/>
      </g>
     </g>
    </g>
    <g id="ytick_7">
     <g id="line2d_35">
      <path d="M 90 88.56 
L 648 88.56 
" clip-path="url(#p3c5b4db0ca)" style="fill: none; stroke: #b0b0b0; stroke-width: 0.8; stroke-linecap: square"/>
     </g>
     <g id="line2d_36">
      <g>
       <use xlink:href="#m3028bf661e" x="90" y="88.56" style="stroke: #000000; stroke-width: 0.8"/>
      </g>
     </g>
     <g id="text_19">
      <!-- 300 -->
      <g transform="translate(63.9125 92.359219) scale(0.1 -0.1)">
       <use xlink:href="#DejaVuSans-33"/>
       <use xlink:href="#DejaVuSans-30" transform="translate(63.623047 0)"/>
       <use xlink:href="#DejaVuSans-30" transform="translate(127.246094 0)"/>
      </g>
     </g>
    </g>
    <g id="text_20">
     <!-- Votes -->
     <g transform="translate(57.832812 231.893594) rotate(-90) scale(0.1 -0.1)">
      <defs>
       <path id="DejaVuSans-56" d="M 1831 0 
L 50 4666 
L 709 4666 
L 2188 738 
L 3669 4666 
L 4325 4666 
L 2547 0 
L 1831 0 
z
" transform="scale(0.015625)"/>
       <path id="DejaVuSans-6f" d="M 1959 3097 
Q 1497 3097 1228 2736 
Q 959 2375 959 1747 
Q 959 1119 1226 758 
Q 1494 397 1959 397 
Q 2419 397 2687 759 
Q 2956 1122 2956 1747 
Q 2956 2369 2687 2733 
Q 2419 3097 1959 3097 
z
M 1959 3584 
Q 2709 3584 3137 3096 
Q 3566 2609 3566 1747 
Q 3566 888 3137 398 
Q 2709 -91 1959 -91 
Q 1206 -91 779 398 
Q 353 888 353 1747 
Q 353 2609 779 3096 
Q 1206 3584 1959 3584 
z
" transform="scale(0.015625)"/>
       <path id="DejaVuSans-73" d="M 2834 3397 
L 2834 2853 
Q 2591 2978 2328 3040 
Q 2066 3103 1784 3103 
Q 1356 3103 1142 2972 
Q 928 2841 928 2578 
Q 928 2378 1081 2264 
Q 1234 2150 1697 2047 
L 1894 2003 
Q 2506 1872 2764 1633 
Q 3022 1394 3022 966 
Q 3022 478 2636 193 
Q 2250 -91 1575 -91 
Q 1294 -91 989 -36 
Q 684 19 347 128 
L 347 722 
Q 666 556 975 473 
Q 1284 391 1588 391 
Q 1994 391 2212 530 
Q 2431 669 2431 922 
Q 2431 1156 2273 1281 
Q 2116 1406 1581 1522 
L 1381 1569 
Q 847 1681 609 1914 
Q 372 2147 372 2553 
Q 372 3047 722 3315 
Q 1072 3584 1716 3584 
Q 2034 3584 2315 3537 
Q 2597 3491 2834 3397 
z
" transform="scale(0.015625)"/>
      </defs>
      <use xlink:href="#DejaVuSans-56"/>
      <use xlink:href="#DejaVuSans-6f" transform="translate(60.658203 0)"/>
      <use xlink:href="#DejaVuSans-74" transform="translate(121.839844 0)"/>
      <use xlink:href="#DejaVuSans-65" transform="translate(161.048828 0)"/>
      <use xlink:href="#DejaVuSans-73" transform="translate(222.572266 0)"/>
     </g>
    </g>
   </g>
   <g id="line2d_37">
    <path d="M 115.363636 353.394783 
L 123.585236 353.394783 
L 124.407396 352.455652 
L 132.628997 352.455652 
L 133.451157 350.577391 
L 140.850597 350.577391 
L 141.672757 349.638261 
L 145.783557 349.638261 
L 146.605717 348.69913 
L 149.894357 348.69913 
L 150.716517 347.76 
L 153.182997 347.76 
L 154.005157 346.82087 
L 165.515397 346.82087 
L 166.337557 345.881739 
L 175.381317 345.881739 
L 177.025637 344.003478 
L 178.669957 344.003478 
L 179.492117 343.064348 
L 186.891557 343.064348 
L 188.535877 341.186087 
L 198.401798 341.186087 
L 199.223958 340.246957 
L 201.690438 340.246957 
L 202.512598 339.307826 
L 203.334758 339.307826 
L 204.156918 338.368696 
L 226.355238 338.368696 
L 227.177398 337.429565 
L 237.043318 337.429565 
L 237.865478 336.490435 
L 243.620598 336.490435 
L 244.442758 335.551304 
L 245.264918 333.673043 
L 246.087078 333.673043 
L 247.731398 331.794783 
L 260.885958 331.794783 
L 261.708118 330.855652 
L 266.641079 330.855652 
L 267.463239 329.916522 
L 270.751879 329.916522 
L 271.574039 328.977391 
L 279.795639 328.977391 
L 280.617799 328.038261 
L 282.262119 328.038261 
L 283.084279 327.09913 
L 285.550759 327.09913 
L 286.372919 326.16 
L 292.950199 326.16 
L 293.772359 325.22087 
L 294.594519 325.22087 
L 295.416679 324.281739 
L 303.638279 324.281739 
L 304.460439 323.342609 
L 310.215559 323.342609 
L 311.037719 322.403478 
L 311.859879 322.403478 
L 313.504199 320.525217 
L 331.591719 320.525217 
L 332.413879 319.586087 
L 345.56844 319.586087 
L 346.3906 318.646957 
L 347.21276 318.646957 
L 348.03492 317.707826 
L 355.43436 317.707826 
L 356.25652 316.768696 
L 357.07868 316.768696 
L 357.90084 315.829565 
L 362.01164 315.829565 
L 362.8338 314.890435 
L 365.30028 314.890435 
L 366.9446 313.012174 
L 367.76676 313.012174 
L 368.58892 312.073043 
L 370.23324 312.073043 
L 371.0554 311.133913 
L 372.69972 311.133913 
L 373.52188 310.194783 
L 375.1662 310.194783 
L 375.98836 309.255652 
L 395.7202 309.255652 
L 396.54236 308.316522 
L 404.763961 308.316522 
L 405.586121 307.377391 
L 410.519081 307.377391 
L 411.341241 306.438261 
L 412.163401 306.438261 
L 412.985561 305.49913 
L 413.807721 305.49913 
L 417.096361 301.742609 
L 418.740681 301.742609 
L 419.562841 299.864348 
L 426.140121 299.864348 
L 427.784441 297.986087 
L 429.428761 297.986087 
L 430.250921 297.046957 
L 433.539561 297.046957 
L 434.361721 296.107826 
L 440.116841 296.107826 
L 440.939001 295.168696 
L 442.583321 295.168696 
L 443.405481 294.229565 
L 448.338441 294.229565 
L 449.982761 292.351304 
L 455.737881 292.351304 
L 456.560041 291.412174 
L 459.026521 291.412174 
L 459.848681 290.473043 
L 461.493001 290.473043 
L 462.315161 288.594783 
L 465.603801 288.594783 
L 466.425961 286.716522 
L 467.248121 285.777391 
L 470.536761 285.777391 
L 471.358921 283.89913 
L 477.114042 283.89913 
L 477.936202 282.96 
L 481.224842 282.96 
L 482.047002 282.02087 
L 484.513482 282.02087 
L 485.335642 281.081739 
L 486.157802 279.203478 
L 487.802122 279.203478 
L 488.624282 278.264348 
L 501.778842 278.264348 
L 503.423162 276.386087 
L 514.933402 276.386087 
L 515.755562 275.446957 
L 520.688522 275.446957 
L 521.510682 274.507826 
L 532.198762 274.507826 
L 533.020922 273.568696 
L 540.420362 273.568696 
L 541.242522 272.629565 
L 562.618683 272.629565 
L 563.440843 271.690435 
L 602.904523 271.690435 
L 603.726683 270.751304 
L 607.015323 270.751304 
L 607.837483 269.812174 
L 622.636364 269.812174 
L 622.636364 269.812174 
" clip-path="url(#p3c5b4db0ca)" style="fill: none; stroke: #1f77b4; stroke-width: 1.5; stroke-linecap: square"/>
   </g>
   <g id="line2d_38">
    <path d="M 115.363636 293.290435 
L 116.185796 292.351304 
L 118.652276 292.351304 
L 119.474436 291.412174 
L 120.296596 291.412174 
L 121.118756 290.473043 
L 121.940916 290.473043 
L 123.585236 288.594783 
L 124.407396 286.716522 
L 125.229557 286.716522 
L 126.873877 284.838261 
L 127.696037 284.838261 
L 128.518197 281.081739 
L 129.340357 279.203478 
L 130.162517 275.446957 
L 130.984677 272.629565 
L 133.451157 272.629565 
L 134.273317 269.812174 
L 135.095477 267.933913 
L 136.739797 266.055652 
L 137.561957 264.177391 
L 139.206277 262.29913 
L 140.028437 260.42087 
L 142.494917 260.42087 
L 143.317077 255.725217 
L 144.139237 253.846957 
L 144.961397 252.907826 
L 145.783557 251.029565 
L 146.605717 250.090435 
L 147.427877 250.090435 
L 148.250037 247.273043 
L 149.072197 247.273043 
L 149.894357 245.394783 
L 150.716517 244.455652 
L 151.538677 244.455652 
L 152.360837 243.516522 
L 154.005157 243.516522 
L 154.827317 242.577391 
L 156.471637 242.577391 
L 157.293797 240.69913 
L 158.115957 240.69913 
L 158.938117 239.76 
L 162.226757 239.76 
L 163.048917 238.82087 
L 165.515397 238.82087 
L 166.337557 237.881739 
L 167.159717 237.881739 
L 167.981877 236.003478 
L 168.804037 236.003478 
L 169.626197 234.125217 
L 170.448357 233.186087 
L 172.914837 233.186087 
L 173.736997 231.307826 
L 174.559157 230.368696 
L 175.381317 227.551304 
L 177.025637 225.673043 
L 183.602917 225.673043 
L 184.425077 222.855652 
L 185.247237 222.855652 
L 186.891557 220.977391 
L 187.713717 220.977391 
L 190.180197 218.16 
L 191.824517 218.16 
L 192.646677 217.22087 
L 194.290997 217.22087 
L 196.757478 214.403478 
L 198.401798 214.403478 
L 199.223958 213.464348 
L 203.334758 213.464348 
L 204.156918 212.525217 
L 205.801238 212.525217 
L 206.623398 211.586087 
L 216.489318 211.586087 
L 217.311478 209.707826 
L 218.955798 209.707826 
L 220.600118 207.829565 
L 221.422278 207.829565 
L 222.244438 206.890435 
L 227.177398 206.890435 
L 229.643878 204.073043 
L 230.466038 204.073043 
L 231.288198 203.133913 
L 232.110358 201.255652 
L 232.932518 201.255652 
L 233.754678 200.316522 
L 234.576838 200.316522 
L 237.865478 196.56 
L 239.509798 196.56 
L 240.331958 194.681739 
L 242.798438 194.681739 
L 243.620598 193.742609 
L 246.087078 193.742609 
L 246.909238 192.803478 
L 247.731398 192.803478 
L 248.553558 189.986087 
L 251.020038 189.986087 
L 251.842198 189.046957 
L 252.664358 187.168696 
L 254.308678 187.168696 
L 255.130838 186.229565 
L 256.775158 186.229565 
L 257.597318 185.290435 
L 258.419478 185.290435 
L 262.530278 180.594783 
L 264.174599 180.594783 
L 266.641079 177.777391 
L 269.107559 177.777391 
L 269.929719 175.89913 
L 270.751879 175.89913 
L 271.574039 174.96 
L 274.040519 174.96 
L 274.862679 174.02087 
L 282.262119 174.02087 
L 283.084279 173.081739 
L 288.839399 173.081739 
L 289.661559 172.142609 
L 291.305879 172.142609 
L 292.950199 170.264348 
L 297.060999 170.264348 
L 297.883159 169.325217 
L 301.993959 169.325217 
L 304.460439 166.507826 
L 315.148519 166.507826 
L 315.970679 164.629565 
L 316.792839 163.690435 
L 336.52468 163.690435 
L 337.34684 162.751304 
L 342.2798 162.751304 
L 343.92412 160.873043 
L 345.56844 160.873043 
L 346.3906 159.933913 
L 347.21276 159.933913 
L 348.85708 158.055652 
L 349.67924 158.055652 
L 350.5014 157.116522 
L 351.32356 157.116522 
L 352.96788 153.36 
L 353.79004 152.42087 
L 357.90084 152.42087 
L 358.723 149.603478 
L 359.54516 147.725217 
L 361.18948 147.725217 
L 362.8338 145.846957 
L 366.9446 145.846957 
L 368.58892 143.968696 
L 370.23324 143.968696 
L 371.0554 143.029565 
L 372.69972 143.029565 
L 373.52188 142.090435 
L 374.34404 142.090435 
L 375.1662 141.151304 
L 375.98836 141.151304 
L 376.81052 140.212174 
L 377.63268 140.212174 
L 378.45484 139.273043 
L 380.09916 139.273043 
L 380.92132 137.394783 
L 385.03212 137.394783 
L 386.67644 135.516522 
L 394.89804 135.516522 
L 395.7202 134.577391 
L 396.54236 134.577391 
L 397.36452 133.638261 
L 398.18668 133.638261 
L 400.65316 130.82087 
L 402.29748 130.82087 
L 403.11964 129.881739 
L 419.562841 129.881739 
L 421.207161 128.003478 
L 424.495801 128.003478 
L 425.317961 127.064348 
L 426.140121 127.064348 
L 426.962281 126.125217 
L 427.784441 126.125217 
L 428.606601 125.186087 
L 446.694121 125.186087 
L 447.516281 124.246957 
L 463.959481 124.246957 
L 464.781641 122.368696 
L 470.536761 122.368696 
L 472.181081 120.490435 
L 473.825402 120.490435 
L 474.647562 119.551304 
L 476.291882 119.551304 
L 477.936202 117.673043 
L 479.580522 117.673043 
L 480.402682 115.794783 
L 486.979962 115.794783 
L 487.802122 114.855652 
L 491.912922 114.855652 
L 492.735082 113.916522 
L 497.668042 113.916522 
L 498.490202 112.977391 
L 504.245322 112.977391 
L 505.889642 111.09913 
L 506.711802 111.09913 
L 507.533962 110.16 
L 512.466922 110.16 
L 513.289082 109.22087 
L 516.577722 109.22087 
L 517.399882 108.281739 
L 518.222042 108.281739 
L 519.044202 107.342609 
L 531.376602 107.342609 
L 533.843082 104.525217 
L 542.886843 104.525217 
L 543.709003 103.586087 
L 546.997643 103.586087 
L 547.819803 101.707826 
L 556.863563 101.707826 
L 557.685723 99.829565 
L 569.195963 99.829565 
L 570.018123 98.890435 
L 582.350523 98.890435 
L 583.172683 97.012174 
L 592.216443 97.012174 
L 593.038603 96.073043 
L 599.615883 96.073043 
L 600.438043 95.133913 
L 622.636364 95.133913 
L 622.636364 95.133913 
" clip-path="url(#p3c5b4db0ca)" style="fill: none; stroke: #ff7f0e; stroke-width: 1.5; stroke-linecap: square"/>
   </g>
   <g id="line2d_39">
    <path d="M 115.363636 341.186087 
L 118.652276 341.186087 
L 119.474436 339.307826 
L 121.118756 339.307826 
L 121.940916 338.368696 
L 122.763076 336.490435 
L 123.585236 335.551304 
L 124.407396 332.733913 
L 125.229557 330.855652 
L 126.051717 329.916522 
L 126.873877 329.916522 
L 127.696037 328.038261 
L 128.518197 325.22087 
L 131.806837 325.22087 
L 132.628997 324.281739 
L 133.451157 324.281739 
L 134.273317 322.403478 
L 136.739797 322.403478 
L 138.384117 320.525217 
L 141.672757 320.525217 
L 142.494917 319.586087 
L 145.783557 319.586087 
L 148.250037 316.768696 
L 152.360837 316.768696 
L 153.182997 315.829565 
L 155.649477 315.829565 
L 156.471637 314.890435 
L 158.115957 314.890435 
L 158.938117 313.012174 
L 165.515397 313.012174 
L 166.337557 312.073043 
L 167.159717 310.194783 
L 167.981877 309.255652 
L 168.804037 309.255652 
L 169.626197 308.316522 
L 171.270517 308.316522 
L 172.092677 307.377391 
L 173.736997 307.377391 
L 174.559157 306.438261 
L 179.492117 306.438261 
L 180.314277 305.49913 
L 181.136437 305.49913 
L 181.958597 304.56 
L 182.780757 304.56 
L 183.602917 303.62087 
L 186.069397 303.62087 
L 186.891557 302.681739 
L 187.713717 300.803478 
L 191.824517 300.803478 
L 194.290997 297.986087 
L 196.757478 297.986087 
L 197.579638 297.046957 
L 200.868278 297.046957 
L 201.690438 296.107826 
L 202.512598 296.107826 
L 203.334758 295.168696 
L 204.979078 295.168696 
L 205.801238 294.229565 
L 208.267718 294.229565 
L 209.912038 292.351304 
L 210.734198 292.351304 
L 211.556358 291.412174 
L 218.133638 291.412174 
L 218.955798 289.533913 
L 219.777958 288.594783 
L 226.355238 288.594783 
L 227.177398 287.655652 
L 229.643878 287.655652 
L 230.466038 286.716522 
L 232.932518 286.716522 
L 233.754678 285.777391 
L 241.976278 285.777391 
L 242.798438 284.838261 
L 246.087078 284.838261 
L 246.909238 283.89913 
L 251.842198 283.89913 
L 252.664358 282.96 
L 254.308678 282.96 
L 255.130838 282.02087 
L 258.419478 282.02087 
L 260.063798 280.142609 
L 275.684839 280.142609 
L 276.506999 279.203478 
L 277.329159 279.203478 
L 278.151319 278.264348 
L 280.617799 278.264348 
L 281.439959 277.325217 
L 285.550759 277.325217 
L 286.372919 276.386087 
L 288.017239 276.386087 
L 288.839399 275.446957 
L 293.772359 275.446957 
L 294.594519 276.386087 
L 295.416679 275.446957 
L 301.171799 275.446957 
L 301.993959 274.507826 
L 308.571239 274.507826 
L 309.393399 273.568696 
L 311.037719 273.568696 
L 311.859879 272.629565 
L 312.682039 272.629565 
L 313.504199 271.690435 
L 319.259319 271.690435 
L 320.081479 270.751304 
L 325.014439 270.751304 
L 325.836599 269.812174 
L 338.169 269.812174 
L 338.99116 268.873043 
L 357.07868 268.873043 
L 357.90084 267.933913 
L 366.12244 267.933913 
L 366.9446 266.994783 
L 380.09916 266.994783 
L 381.74348 265.116522 
L 396.54236 265.116522 
L 397.36452 264.177391 
L 398.18668 262.29913 
L 414.629881 262.29913 
L 415.452041 261.36 
L 417.096361 261.36 
L 417.918521 260.42087 
L 422.851481 260.42087 
L 423.673641 259.481739 
L 426.140121 259.481739 
L 427.784441 257.603478 
L 429.428761 257.603478 
L 430.250921 256.664348 
L 433.539561 256.664348 
L 434.361721 254.786087 
L 436.828201 254.786087 
L 437.650361 253.846957 
L 438.472521 253.846957 
L 440.116841 251.968696 
L 450.804921 251.968696 
L 451.627081 251.029565 
L 461.493001 251.029565 
L 462.315161 249.151304 
L 468.892441 249.151304 
L 470.536761 247.273043 
L 478.758362 247.273043 
L 481.224842 244.455652 
L 483.691322 244.455652 
L 484.513482 243.516522 
L 486.157802 243.516522 
L 486.979962 242.577391 
L 494.379402 242.577391 
L 495.201562 241.638261 
L 502.601002 241.638261 
L 503.423162 240.69913 
L 509.178282 240.69913 
L 510.822602 238.82087 
L 516.577722 238.82087 
L 517.399882 237.881739 
L 525.621482 237.881739 
L 526.443642 236.942609 
L 527.265802 236.942609 
L 528.087962 236.003478 
L 537.953882 236.003478 
L 538.776042 235.064348 
L 541.242522 235.064348 
L 542.064682 234.125217 
L 553.574923 234.125217 
L 554.397083 233.186087 
L 567.551643 233.186087 
L 568.373803 231.307826 
L 580.706203 231.307826 
L 581.528363 229.429565 
L 622.636364 229.429565 
L 622.636364 229.429565 
" clip-path="url(#p3c5b4db0ca)" style="fill: none; stroke: #2ca02c; stroke-width: 1.5; stroke-linecap: square"/>
   </g>
   <g id="line2d_40">
    <path d="M 115.363636 369.36 
L 318.437159 369.36 
L 319.259319 368.42087 
L 493.557242 368.42087 
L 494.379402 367.481739 
L 622.636364 367.481739 
L 622.636364 367.481739 
" clip-path="url(#p3c5b4db0ca)" style="fill: none; stroke: #d62728; stroke-width: 1.5; stroke-linecap: square"/>
   </g>
   <g id="line2d_41">
    <path d="M 115.363636 348.69913 
L 117.830116 348.69913 
L 118.652276 347.76 
L 123.585236 347.76 
L 124.407396 346.82087 
L 129.340357 346.82087 
L 130.162517 345.881739 
L 148.250037 345.881739 
L 149.072197 344.942609 
L 178.669957 344.942609 
L 180.314277 343.064348 
L 186.891557 343.064348 
L 187.713717 342.125217 
L 191.002357 342.125217 
L 191.824517 341.186087 
L 193.468837 341.186087 
L 194.290997 340.246957 
L 215.667158 340.246957 
L 216.489318 339.307826 
L 250.197878 339.307826 
L 251.020038 338.368696 
L 357.90084 338.368696 
L 358.723 337.429565 
L 359.54516 337.429565 
L 360.36732 336.490435 
L 412.163401 336.490435 
L 412.985561 335.551304 
L 544.531163 335.551304 
L 545.353323 334.612174 
L 583.172683 334.612174 
L 583.994843 333.673043 
L 612.770444 333.673043 
L 613.592604 332.733913 
L 622.636364 332.733913 
L 622.636364 332.733913 
" clip-path="url(#p3c5b4db0ca)" style="fill: none; stroke: #9467bd; stroke-width: 1.5; stroke-linecap: square"/>
   </g>
   <g id="line2d_42">
    <path d="M 115.363636 356.212174 
L 116.185796 356.212174 
L 117.007956 355.273043 
L 128.518197 355.273043 
L 129.340357 354.333913 
L 139.206277 354.333913 
L 140.028437 353.394783 
L 152.360837 353.394783 
L 154.005157 351.516522 
L 163.048917 351.516522 
L 163.871077 350.577391 
L 188.535877 350.577391 
L 189.358037 349.638261 
L 196.757478 349.638261 
L 197.579638 348.69913 
L 211.556358 348.69913 
L 212.378518 347.76 
L 225.533078 347.76 
L 226.355238 346.82087 
L 229.643878 346.82087 
L 230.466038 345.881739 
L 237.865478 345.881739 
L 238.687638 344.942609 
L 258.419478 344.942609 
L 259.241638 344.003478 
L 264.174599 344.003478 
L 264.996759 343.064348 
L 269.929719 343.064348 
L 270.751879 342.125217 
L 274.040519 342.125217 
L 274.862679 341.186087 
L 305.282599 341.186087 
L 306.104759 340.246957 
L 329.947399 340.246957 
L 330.769559 339.307826 
L 378.45484 339.307826 
L 379.277 338.368696 
L 402.29748 338.368696 
L 403.11964 337.429565 
L 413.807721 337.429565 
L 414.629881 336.490435 
L 622.636364 336.490435 
L 622.636364 336.490435 
" clip-path="url(#p3c5b4db0ca)" style="fill: none; stroke: #8c564b; stroke-width: 1.5; stroke-linecap: square"/>
   </g>
   <g id="line2d_43">
    <path d="M 115.363636 286.716522 
L 118.652276 286.716522 
L 119.474436 285.777391 
L 122.763076 285.777391 
L 124.407396 283.89913 
L 125.229557 283.89913 
L 126.051717 282.96 
L 126.873877 282.96 
L 127.696037 282.02087 
L 129.340357 282.02087 
L 130.162517 281.081739 
L 132.628997 281.081739 
L 133.451157 280.142609 
L 135.095477 280.142609 
L 135.917637 279.203478 
L 136.739797 279.203478 
L 137.561957 278.264348 
L 139.206277 278.264348 
L 140.850597 276.386087 
L 144.139237 276.386087 
L 144.961397 275.446957 
L 147.427877 275.446957 
L 149.072197 273.568696 
L 150.716517 273.568696 
L 151.538677 272.629565 
L 153.182997 272.629565 
L 154.005157 271.690435 
L 154.827317 269.812174 
L 155.649477 266.994783 
L 157.293797 266.994783 
L 158.115957 266.055652 
L 162.226757 266.055652 
L 163.871077 264.177391 
L 164.693237 262.29913 
L 165.515397 261.36 
L 166.337557 261.36 
L 167.159717 259.481739 
L 170.448357 259.481739 
L 171.270517 258.542609 
L 172.092677 258.542609 
L 173.736997 256.664348 
L 174.559157 256.664348 
L 175.381317 255.725217 
L 176.203477 255.725217 
L 177.847797 253.846957 
L 179.492117 253.846957 
L 180.314277 251.968696 
L 183.602917 251.968696 
L 185.247237 250.090435 
L 186.891557 250.090435 
L 187.713717 249.151304 
L 188.535877 247.273043 
L 191.002357 247.273043 
L 191.824517 246.333913 
L 192.646677 246.333913 
L 193.468837 244.455652 
L 194.290997 244.455652 
L 195.113158 243.516522 
L 195.935318 243.516522 
L 196.757478 242.577391 
L 200.046118 242.577391 
L 201.690438 240.69913 
L 202.512598 240.69913 
L 203.334758 238.82087 
L 204.156918 238.82087 
L 204.979078 237.881739 
L 205.801238 237.881739 
L 206.623398 236.942609 
L 209.089878 236.942609 
L 209.912038 236.003478 
L 210.734198 236.003478 
L 214.022838 232.246957 
L 214.844998 230.368696 
L 216.489318 230.368696 
L 218.133638 226.612174 
L 219.777958 226.612174 
L 221.422278 224.733913 
L 222.244438 224.733913 
L 223.066598 222.855652 
L 223.888758 222.855652 
L 224.710918 221.916522 
L 225.533078 221.916522 
L 226.355238 220.977391 
L 227.999558 220.977391 
L 228.821718 220.038261 
L 229.643878 220.038261 
L 230.466038 219.09913 
L 233.754678 219.09913 
L 234.576838 214.403478 
L 235.398998 214.403478 
L 236.221158 213.464348 
L 238.687638 213.464348 
L 239.509798 212.525217 
L 246.909238 212.525217 
L 247.731398 210.646957 
L 251.020038 210.646957 
L 251.842198 209.707826 
L 260.063798 209.707826 
L 260.885958 207.829565 
L 261.708118 206.890435 
L 265.818919 206.890435 
L 266.641079 205.951304 
L 272.396199 205.951304 
L 273.218359 205.012174 
L 274.040519 205.012174 
L 274.862679 204.073043 
L 279.795639 204.073043 
L 281.439959 202.194783 
L 287.195079 202.194783 
L 288.839399 200.316522 
L 289.661559 200.316522 
L 290.483719 199.377391 
L 295.416679 199.377391 
L 296.238839 198.438261 
L 298.705319 198.438261 
L 299.527479 197.49913 
L 300.349639 195.62087 
L 302.816119 195.62087 
L 303.638279 194.681739 
L 304.460439 194.681739 
L 306.104759 192.803478 
L 309.393399 192.803478 
L 310.215559 191.864348 
L 313.504199 191.864348 
L 314.326359 190.925217 
L 316.792839 190.925217 
L 317.614999 189.986087 
L 324.192279 189.986087 
L 325.836599 188.107826 
L 329.947399 188.107826 
L 330.769559 187.168696 
L 334.0582 187.168696 
L 338.169 182.473043 
L 339.81332 182.473043 
L 340.63548 181.533913 
L 341.45764 181.533913 
L 342.2798 179.655652 
L 343.92412 177.777391 
L 345.56844 174.02087 
L 347.21276 174.02087 
L 348.85708 170.264348 
L 350.5014 170.264348 
L 351.32356 168.386087 
L 352.96788 166.507826 
L 355.43436 166.507826 
L 356.25652 165.568696 
L 357.07868 165.568696 
L 358.723 163.690435 
L 362.01164 163.690435 
L 362.8338 162.751304 
L 364.47812 162.751304 
L 365.30028 161.812174 
L 369.41108 161.812174 
L 370.23324 159.933913 
L 371.0554 158.994783 
L 371.87756 158.994783 
L 372.69972 158.055652 
L 374.34404 158.055652 
L 375.1662 157.116522 
L 376.81052 157.116522 
L 377.63268 155.238261 
L 379.277 155.238261 
L 380.09916 154.29913 
L 380.92132 154.29913 
L 381.74348 153.36 
L 385.85428 153.36 
L 386.67644 152.42087 
L 390.78724 152.42087 
L 391.6094 151.481739 
L 392.43156 151.481739 
L 393.25372 149.603478 
L 394.89804 147.725217 
L 395.7202 144.907826 
L 396.54236 143.968696 
L 397.36452 143.968696 
L 398.18668 143.029565 
L 399.00884 143.029565 
L 399.831 142.090435 
L 403.11964 142.090435 
L 403.941801 141.151304 
L 405.586121 141.151304 
L 406.408281 140.212174 
L 408.052601 140.212174 
L 409.696921 138.333913 
L 412.163401 138.333913 
L 412.985561 137.394783 
L 417.096361 137.394783 
L 417.918521 135.516522 
L 422.029321 135.516522 
L 422.851481 134.577391 
L 425.317961 134.577391 
L 426.140121 132.69913 
L 429.428761 132.69913 
L 430.250921 131.76 
L 437.650361 131.76 
L 438.472521 130.82087 
L 440.116841 130.82087 
L 440.939001 129.881739 
L 446.694121 129.881739 
L 447.516281 128.942609 
L 448.338441 128.942609 
L 449.160601 128.003478 
L 449.982761 128.003478 
L 450.804921 127.064348 
L 455.737881 127.064348 
L 457.382201 125.186087 
L 468.892441 125.186087 
L 469.714601 124.246957 
L 470.536761 124.246957 
L 472.181081 122.368696 
L 473.003241 122.368696 
L 473.825402 121.429565 
L 483.691322 121.429565 
L 484.513482 120.490435 
L 485.335642 118.612174 
L 486.979962 118.612174 
L 487.802122 117.673043 
L 491.912922 117.673043 
L 492.735082 116.733913 
L 493.557242 116.733913 
L 495.201562 114.855652 
L 499.312362 114.855652 
L 500.134522 113.916522 
L 502.601002 113.916522 
L 503.423162 112.977391 
L 505.067482 112.977391 
L 505.889642 112.038261 
L 507.533962 112.038261 
L 508.356122 111.09913 
L 509.178282 111.09913 
L 510.000442 109.22087 
L 515.755562 109.22087 
L 516.577722 106.403478 
L 517.399882 104.525217 
L 518.222042 104.525217 
L 521.510682 100.768696 
L 522.332842 98.890435 
L 523.977162 98.890435 
L 524.799322 97.012174 
L 531.376602 97.012174 
L 533.020922 95.133913 
L 533.843082 93.255652 
L 534.665242 92.316522 
L 537.131722 92.316522 
L 537.953882 90.438261 
L 538.776042 89.49913 
L 539.598202 89.49913 
L 540.420362 86.681739 
L 541.242522 85.742609 
L 545.353323 85.742609 
L 546.175483 83.864348 
L 546.997643 83.864348 
L 547.819803 82.925217 
L 550.286283 82.925217 
L 551.108443 81.046957 
L 552.752763 81.046957 
L 553.574923 80.107826 
L 554.397083 80.107826 
L 555.219243 79.168696 
L 556.041403 76.351304 
L 557.685723 76.351304 
L 559.330043 74.473043 
L 569.195963 74.473043 
L 570.018123 73.533913 
L 570.840283 73.533913 
L 572.484603 71.655652 
L 578.239723 71.655652 
L 579.061883 70.716522 
L 593.860763 70.716522 
L 594.682923 69.777391 
L 603.726683 69.777391 
L 604.548843 68.838261 
L 613.592604 68.838261 
L 614.414764 67.89913 
L 619.347724 67.89913 
L 620.169884 66.96 
L 622.636364 66.96 
L 622.636364 66.96 
" clip-path="url(#p3c5b4db0ca)" style="fill: none; stroke: #e377c2; stroke-width: 1.5; stroke-linecap: square"/>
   </g>
   <g id="line2d_44">
    <path d="M 115.363636 344.942609 
L 116.185796 344.942609 
L 117.830116 343.064348 
L 121.940916 343.064348 
L 122.763076 342.125217 
L 123.585236 342.125217 
L 125.229557 340.246957 
L 126.873877 340.246957 
L 127.696037 339.307826 
L 130.162517 339.307826 
L 130.984677 338.368696 
L 131.806837 338.368696 
L 132.628997 337.429565 
L 133.451157 337.429565 
L 135.095477 335.551304 
L 137.561957 335.551304 
L 138.384117 334.612174 
L 140.028437 334.612174 
L 141.672757 332.733913 
L 143.317077 332.733913 
L 144.961397 330.855652 
L 145.783557 330.855652 
L 146.605717 329.916522 
L 147.427877 327.09913 
L 150.716517 327.09913 
L 154.005157 323.342609 
L 154.827317 323.342609 
L 156.471637 321.464348 
L 157.293797 321.464348 
L 158.115957 320.525217 
L 158.938117 320.525217 
L 159.760277 319.586087 
L 167.159717 319.586087 
L 167.981877 318.646957 
L 176.203477 318.646957 
L 177.847797 316.768696 
L 180.314277 316.768696 
L 181.136437 315.829565 
L 182.780757 315.829565 
L 184.425077 313.951304 
L 186.069397 313.951304 
L 186.891557 312.073043 
L 189.358037 312.073043 
L 190.180197 310.194783 
L 191.002357 309.255652 
L 195.113158 309.255652 
L 195.935318 308.316522 
L 196.757478 308.316522 
L 198.401798 306.438261 
L 202.512598 306.438261 
L 203.334758 305.49913 
L 204.156918 305.49913 
L 204.979078 304.56 
L 209.912038 304.56 
L 210.734198 303.62087 
L 213.200678 303.62087 
L 214.022838 302.681739 
L 214.844998 302.681739 
L 215.667158 299.864348 
L 216.489318 299.864348 
L 217.311478 297.986087 
L 218.133638 297.046957 
L 218.955798 297.046957 
L 220.600118 295.168696 
L 222.244438 295.168696 
L 223.066598 294.229565 
L 224.710918 294.229565 
L 225.533078 293.290435 
L 226.355238 293.290435 
L 227.177398 291.412174 
L 227.999558 291.412174 
L 228.821718 290.473043 
L 230.466038 290.473043 
L 232.110358 288.594783 
L 232.932518 288.594783 
L 233.754678 286.716522 
L 234.576838 285.777391 
L 240.331958 285.777391 
L 241.154118 283.89913 
L 243.620598 283.89913 
L 244.442758 282.96 
L 245.264918 282.96 
L 246.087078 282.02087 
L 248.553558 282.02087 
L 249.375718 281.081739 
L 253.486518 281.081739 
L 254.308678 280.142609 
L 255.952998 280.142609 
L 256.775158 279.203478 
L 260.885958 279.203478 
L 261.708118 278.264348 
L 269.107559 278.264348 
L 270.751879 276.386087 
L 271.574039 276.386087 
L 272.396199 275.446957 
L 273.218359 275.446957 
L 274.040519 274.507826 
L 274.862679 274.507826 
L 275.684839 273.568696 
L 277.329159 273.568696 
L 278.151319 272.629565 
L 278.973479 272.629565 
L 280.617799 270.751304 
L 283.084279 270.751304 
L 283.906439 269.812174 
L 286.372919 269.812174 
L 287.195079 268.873043 
L 292.950199 268.873043 
L 293.772359 267.933913 
L 294.594519 267.933913 
L 295.416679 266.994783 
L 298.705319 266.994783 
L 299.527479 265.116522 
L 304.460439 265.116522 
L 305.282599 264.177391 
L 306.104759 264.177391 
L 306.926919 262.29913 
L 311.037719 262.29913 
L 311.859879 261.36 
L 316.792839 261.36 
L 317.614999 260.42087 
L 328.303079 260.42087 
L 329.125239 259.481739 
L 341.45764 259.481739 
L 342.2798 258.542609 
L 346.3906 258.542609 
L 347.21276 257.603478 
L 348.03492 257.603478 
L 348.85708 256.664348 
L 349.67924 256.664348 
L 350.5014 254.786087 
L 351.32356 254.786087 
L 352.96788 252.907826 
L 358.723 252.907826 
L 359.54516 251.968696 
L 360.36732 251.968696 
L 361.18948 251.029565 
L 362.01164 251.029565 
L 362.8338 250.090435 
L 366.9446 250.090435 
L 367.76676 249.151304 
L 375.1662 249.151304 
L 375.98836 248.212174 
L 380.09916 248.212174 
L 380.92132 247.273043 
L 385.03212 247.273043 
L 385.85428 246.333913 
L 387.4986 246.333913 
L 389.96508 243.516522 
L 391.6094 243.516522 
L 392.43156 241.638261 
L 396.54236 241.638261 
L 398.18668 239.76 
L 399.831 239.76 
L 400.65316 238.82087 
L 401.47532 238.82087 
L 403.11964 236.942609 
L 408.874761 236.942609 
L 409.696921 236.003478 
L 411.341241 236.003478 
L 412.163401 235.064348 
L 418.740681 235.064348 
L 420.385001 233.186087 
L 422.851481 233.186087 
L 423.673641 232.246957 
L 424.495801 232.246957 
L 425.317961 229.429565 
L 426.140121 228.490435 
L 429.428761 228.490435 
L 430.250921 226.612174 
L 432.717401 226.612174 
L 433.539561 225.673043 
L 441.761161 225.673043 
L 442.583321 224.733913 
L 450.804921 224.733913 
L 452.449241 222.855652 
L 458.204361 222.855652 
L 459.026521 221.916522 
L 473.003241 221.916522 
L 476.291882 218.16 
L 479.580522 218.16 
L 480.402682 217.22087 
L 486.979962 217.22087 
L 487.802122 216.281739 
L 490.268602 216.281739 
L 491.090762 215.342609 
L 491.912922 215.342609 
L 492.735082 214.403478 
L 497.668042 214.403478 
L 499.312362 212.525217 
L 500.956682 212.525217 
L 501.778842 211.586087 
L 505.889642 211.586087 
L 506.711802 210.646957 
L 507.533962 210.646957 
L 508.356122 208.768696 
L 517.399882 208.768696 
L 519.044202 206.890435 
L 521.510682 206.890435 
L 522.332842 205.951304 
L 526.443642 205.951304 
L 527.265802 205.012174 
L 533.020922 205.012174 
L 533.843082 204.073043 
L 546.997643 204.073043 
L 547.819803 203.133913 
L 548.641963 203.133913 
L 549.464123 201.255652 
L 578.239723 201.255652 
L 579.061883 199.377391 
L 582.350523 199.377391 
L 583.172683 198.438261 
L 585.639163 198.438261 
L 586.461323 197.49913 
L 614.414764 197.49913 
L 615.236924 196.56 
L 622.636364 196.56 
L 622.636364 196.56 
" clip-path="url(#p3c5b4db0ca)" style="fill: none; stroke: #7f7f7f; stroke-width: 1.5; stroke-linecap: square"/>
   </g>
   <g id="line2d_45">
    <path d="M 115.363636 350.577391 
L 118.652276 350.577391 
L 119.474436 349.638261 
L 127.696037 349.638261 
L 128.518197 348.69913 
L 132.628997 348.69913 
L 133.451157 347.76 
L 141.672757 347.76 
L 142.494917 346.82087 
L 150.716517 346.82087 
L 151.538677 345.881739 
L 195.935318 345.881739 
L 196.757478 344.942609 
L 200.868278 344.942609 
L 201.690438 344.003478 
L 207.445558 344.003478 
L 208.267718 343.064348 
L 209.089878 343.064348 
L 209.912038 340.246957 
L 210.734198 339.307826 
L 212.378518 339.307826 
L 213.200678 338.368696 
L 221.422278 338.368696 
L 222.244438 337.429565 
L 229.643878 337.429565 
L 230.466038 336.490435 
L 239.509798 336.490435 
L 240.331958 335.551304 
L 250.197878 335.551304 
L 251.020038 334.612174 
L 255.130838 334.612174 
L 255.952998 333.673043 
L 282.262119 333.673043 
L 283.084279 332.733913 
L 284.728599 332.733913 
L 285.550759 331.794783 
L 292.128039 331.794783 
L 292.950199 330.855652 
L 315.970679 330.855652 
L 318.437159 328.038261 
L 342.2798 328.038261 
L 343.10196 327.09913 
L 343.92412 327.09913 
L 345.56844 325.22087 
L 347.21276 325.22087 
L 348.03492 324.281739 
L 389.96508 324.281739 
L 390.78724 323.342609 
L 438.472521 323.342609 
L 439.294681 322.403478 
L 473.825402 322.403478 
L 474.647562 321.464348 
L 478.758362 321.464348 
L 479.580522 320.525217 
L 491.090762 320.525217 
L 491.912922 319.586087 
L 508.356122 319.586087 
L 509.178282 318.646957 
L 588.927803 318.646957 
L 589.749963 317.707826 
L 622.636364 317.707826 
L 622.636364 317.707826 
" clip-path="url(#p3c5b4db0ca)" style="fill: none; stroke: #bcbd22; stroke-width: 1.5; stroke-linecap: square"/>
   </g>
   <g id="line2d_46">
    <path d="M 115.363636 367.481739 
L 156.471637 367.481739 
L 157.293797 366.542609 
L 209.089878 366.542609 
L 209.912038 365.603478 
L 293.772359 365.603478 
L 294.594519 364.664348 
L 295.416679 365.603478 
L 394.89804 365.603478 
L 395.7202 364.664348 
L 401.47532 364.664348 
L 402.29748 363.725217 
L 422.851481 363.725217 
L 423.673641 362.786087 
L 622.636364 362.786087 
L 622.636364 362.786087 
" clip-path="url(#p3c5b4db0ca)" style="fill: none; stroke: #17becf; stroke-width: 1.5; stroke-linecap: square"/>
   </g>
   <g id="line2d_47">
    <path d="M 115.363636 369.36 
L 116.185796 368.42087 
L 117.830116 368.42087 
L 118.652276 367.481739 
L 124.407396 367.481739 
L 125.229557 366.542609 
L 127.696037 366.542609 
L 128.518197 365.603478 
L 129.340357 365.603478 
L 130.984677 363.725217 
L 135.095477 363.725217 
L 136.739797 361.846957 
L 137.561957 361.846957 
L 138.384117 360.907826 
L 144.139237 360.907826 
L 144.961397 359.968696 
L 145.783557 358.090435 
L 147.427877 358.090435 
L 148.250037 357.151304 
L 149.072197 357.151304 
L 149.894357 356.212174 
L 150.716517 356.212174 
L 151.538677 355.273043 
L 152.360837 355.273043 
L 154.005157 353.394783 
L 158.938117 353.394783 
L 160.582437 351.516522 
L 163.048917 351.516522 
L 163.871077 350.577391 
L 164.693237 350.577391 
L 165.515397 348.69913 
L 167.981877 348.69913 
L 169.626197 344.942609 
L 174.559157 344.942609 
L 175.381317 343.064348 
L 176.203477 342.125217 
L 178.669957 342.125217 
L 179.492117 341.186087 
L 180.314277 339.307826 
L 181.958597 339.307826 
L 182.780757 338.368696 
L 194.290997 338.368696 
L 195.113158 336.490435 
L 200.868278 329.916522 
L 209.089878 329.916522 
L 211.556358 327.09913 
L 213.200678 327.09913 
L 214.022838 325.22087 
L 215.667158 325.22087 
L 216.489318 324.281739 
L 218.955798 324.281739 
L 219.777958 323.342609 
L 220.600118 323.342609 
L 221.422278 322.403478 
L 222.244438 322.403478 
L 223.888758 320.525217 
L 234.576838 320.525217 
L 236.221158 318.646957 
L 242.798438 318.646957 
L 243.620598 317.707826 
L 246.087078 317.707826 
L 247.731398 315.829565 
L 250.197878 315.829565 
L 251.020038 314.890435 
L 252.664358 314.890435 
L 253.486518 313.951304 
L 257.597318 313.951304 
L 258.419478 313.012174 
L 259.241638 313.012174 
L 260.063798 311.133913 
L 260.885958 311.133913 
L 261.708118 310.194783 
L 265.818919 310.194783 
L 266.641079 309.255652 
L 268.285399 309.255652 
L 269.107559 308.316522 
L 269.929719 308.316522 
L 271.574039 306.438261 
L 277.329159 306.438261 
L 278.151319 305.49913 
L 278.973479 305.49913 
L 279.795639 304.56 
L 283.906439 304.56 
L 284.728599 302.681739 
L 285.550759 301.742609 
L 289.661559 301.742609 
L 290.483719 300.803478 
L 293.772359 300.803478 
L 294.594519 298.925217 
L 297.883159 298.925217 
L 299.527479 297.046957 
L 301.993959 297.046957 
L 302.816119 296.107826 
L 312.682039 296.107826 
L 313.504199 294.229565 
L 314.326359 293.290435 
L 320.903639 293.290435 
L 321.725799 292.351304 
L 336.52468 292.351304 
L 337.34684 291.412174 
L 338.99116 291.412174 
L 339.81332 290.473043 
L 342.2798 290.473043 
L 343.10196 289.533913 
L 353.79004 289.533913 
L 354.6122 287.655652 
L 356.25652 287.655652 
L 357.07868 286.716522 
L 357.90084 286.716522 
L 358.723 285.777391 
L 362.01164 285.777391 
L 362.8338 284.838261 
L 368.58892 284.838261 
L 369.41108 282.96 
L 370.23324 282.96 
L 371.0554 282.02087 
L 375.1662 282.02087 
L 375.98836 281.081739 
L 380.09916 281.081739 
L 381.74348 279.203478 
L 383.3878 279.203478 
L 384.20996 278.264348 
L 385.85428 278.264348 
L 386.67644 277.325217 
L 387.4986 277.325217 
L 388.32076 276.386087 
L 394.07588 276.386087 
L 394.89804 275.446957 
L 413.807721 275.446957 
L 414.629881 274.507826 
L 418.740681 274.507826 
L 419.562841 273.568696 
L 428.606601 273.568696 
L 429.428761 272.629565 
L 465.603801 272.629565 
L 466.425961 271.690435 
L 471.358921 271.690435 
L 472.181081 270.751304 
L 473.003241 270.751304 
L 473.825402 269.812174 
L 484.513482 269.812174 
L 485.335642 268.873043 
L 500.956682 268.873043 
L 501.778842 267.933913 
L 505.067482 267.933913 
L 505.889642 266.994783 
L 510.000442 266.994783 
L 510.822602 266.055652 
L 515.755562 266.055652 
L 516.577722 265.116522 
L 521.510682 265.116522 
L 522.332842 264.177391 
L 527.265802 264.177391 
L 528.087962 261.36 
L 528.910122 260.42087 
L 534.665242 260.42087 
L 535.487402 259.481739 
L 539.598202 259.481739 
L 540.420362 258.542609 
L 544.531163 258.542609 
L 545.353323 257.603478 
L 550.286283 257.603478 
L 551.108443 256.664348 
L 564.263003 256.664348 
L 565.085163 254.786087 
L 565.907323 254.786087 
L 566.729483 253.846957 
L 567.551643 253.846957 
L 568.373803 252.907826 
L 569.195963 252.907826 
L 570.018123 251.968696 
L 582.350523 251.968696 
L 583.172683 251.029565 
L 587.283483 251.029565 
L 588.105643 250.090435 
L 602.904523 250.090435 
L 603.726683 249.151304 
L 622.636364 249.151304 
L 622.636364 249.151304 
" clip-path="url(#p3c5b4db0ca)" style="fill: none; stroke: #1f77b4; stroke-width: 1.5; stroke-linecap: square"/>
   </g>
   <g id="line2d_48">
    <path d="M 115.363636 334.612174 
L 121.118756 334.612174 
L 121.940916 333.673043 
L 124.407396 333.673043 
L 125.229557 332.733913 
L 128.518197 332.733913 
L 129.340357 331.794783 
L 131.806837 331.794783 
L 132.628997 330.855652 
L 133.451157 330.855652 
L 134.273317 329.916522 
L 136.739797 329.916522 
L 137.561957 328.977391 
L 139.206277 328.977391 
L 140.028437 328.038261 
L 140.850597 328.038261 
L 142.494917 326.16 
L 147.427877 326.16 
L 148.250037 325.22087 
L 149.072197 325.22087 
L 149.894357 324.281739 
L 150.716517 324.281739 
L 151.538677 322.403478 
L 152.360837 319.586087 
L 153.182997 318.646957 
L 156.471637 318.646957 
L 158.938117 315.829565 
L 161.404597 315.829565 
L 163.048917 313.951304 
L 172.092677 313.951304 
L 172.914837 311.133913 
L 173.736997 311.133913 
L 175.381317 307.377391 
L 177.025637 305.49913 
L 177.847797 305.49913 
L 178.669957 303.62087 
L 185.247237 303.62087 
L 186.069397 301.742609 
L 188.535877 301.742609 
L 189.358037 300.803478 
L 195.113158 300.803478 
L 195.935318 299.864348 
L 205.801238 299.864348 
L 206.623398 298.925217 
L 207.445558 298.925217 
L 208.267718 297.986087 
L 210.734198 297.986087 
L 211.556358 297.046957 
L 221.422278 297.046957 
L 222.244438 296.107826 
L 223.888758 296.107826 
L 225.533078 292.351304 
L 227.177398 292.351304 
L 228.821718 290.473043 
L 230.466038 290.473043 
L 231.288198 289.533913 
L 233.754678 289.533913 
L 234.576838 288.594783 
L 244.442758 288.594783 
L 245.264918 287.655652 
L 257.597318 287.655652 
L 258.419478 286.716522 
L 265.818919 286.716522 
L 266.641079 285.777391 
L 268.285399 285.777391 
L 269.107559 284.838261 
L 271.574039 284.838261 
L 273.218359 282.96 
L 274.040519 282.96 
L 274.862679 282.02087 
L 278.151319 282.02087 
L 279.795639 280.142609 
L 283.906439 280.142609 
L 284.728599 279.203478 
L 287.195079 279.203478 
L 288.017239 278.264348 
L 292.128039 278.264348 
L 292.950199 277.325217 
L 297.060999 277.325217 
L 297.883159 276.386087 
L 312.682039 276.386087 
L 313.504199 275.446957 
L 314.326359 275.446957 
L 315.148519 274.507826 
L 323.370119 274.507826 
L 324.192279 272.629565 
L 325.014439 272.629565 
L 325.836599 271.690435 
L 334.0582 271.690435 
L 334.88036 270.751304 
L 338.169 270.751304 
L 338.99116 269.812174 
L 339.81332 269.812174 
L 340.63548 268.873043 
L 348.03492 268.873043 
L 348.85708 267.933913 
L 365.30028 267.933913 
L 366.12244 265.116522 
L 371.87756 265.116522 
L 372.69972 264.177391 
L 374.34404 264.177391 
L 375.1662 263.238261 
L 385.03212 263.238261 
L 385.85428 262.29913 
L 397.36452 262.29913 
L 398.18668 261.36 
L 400.65316 261.36 
L 401.47532 260.42087 
L 408.052601 260.42087 
L 408.874761 258.542609 
L 422.029321 258.542609 
L 422.851481 257.603478 
L 426.962281 257.603478 
L 427.784441 256.664348 
L 440.116841 256.664348 
L 440.939001 255.725217 
L 442.583321 255.725217 
L 443.405481 254.786087 
L 451.627081 254.786087 
L 452.449241 253.846957 
L 461.493001 253.846957 
L 462.315161 252.907826 
L 473.003241 252.907826 
L 473.825402 251.968696 
L 483.691322 251.968696 
L 484.513482 251.029565 
L 490.268602 251.029565 
L 491.090762 250.090435 
L 499.312362 250.090435 
L 501.778842 247.273043 
L 503.423162 247.273043 
L 504.245322 246.333913 
L 505.067482 246.333913 
L 506.711802 244.455652 
L 510.000442 244.455652 
L 510.822602 243.516522 
L 512.466922 243.516522 
L 513.289082 241.638261 
L 514.111242 240.69913 
L 523.977162 240.69913 
L 524.799322 239.76 
L 532.198762 239.76 
L 533.020922 238.82087 
L 541.242522 238.82087 
L 542.064682 237.881739 
L 546.175483 237.881739 
L 546.997643 236.003478 
L 566.729483 236.003478 
L 567.551643 235.064348 
L 596.327243 235.064348 
L 597.149403 234.125217 
L 622.636364 234.125217 
L 622.636364 234.125217 
" clip-path="url(#p3c5b4db0ca)" style="fill: none; stroke: #ff7f0e; stroke-width: 1.5; stroke-linecap: square"/>
   </g>
   <g id="patch_3">
    <path d="M 90 384.48 
L 90 51.84 
" style="fill: none; stroke: #000000; stroke-width: 0.8; stroke-linejoin: miter; stroke-linecap: square"/>
   </g>
   <g id="patch_4">
    <path d="M 648 384.48 
L 648 51.84 
" style="fill: none; stroke: #000000; stroke-width: 0.8; stroke-linejoin: miter; stroke-linecap: square"/>
   </g>
   <g id="patch_5">
    <path d="M 90 384.48 
L 648 384.48 
" style="fill: none; stroke: #000000; stroke-width: 0.8; stroke-linejoin: miter; stroke-linecap: square"/>
   </g>
   <g id="patch_6">
    <path d="M 90 51.84 
L 648 51.84 
" style="fill: none; stroke: #000000; stroke-width: 0.8; stroke-linejoin: miter; stroke-linecap: square"/>
   </g>
   <g id="text_21">
    <!-- Time Series of Votes for Each Keyword -->
    <g transform="translate(253.716563 45.84) scale(0.12 -0.12)">
     <defs>
      <path id="DejaVuSans-53" d="M 3425 4513 
L 3425 3897 
Q 3066 4069 2747 4153 
Q 2428 4238 2131 4238 
Q 1616 4238 1336 4038 
Q 1056 3838 1056 3469 
Q 1056 3159 1242 3001 
Q 1428 2844 1947 2747 
L 2328 2669 
Q 3034 2534 3370 2195 
Q 3706 1856 3706 1288 
Q 3706 609 3251 259 
Q 2797 -91 1919 -91 
Q 1588 -91 1214 -16 
Q 841 59 441 206 
L 441 856 
Q 825 641 1194 531 
Q 1563 422 1919 422 
Q 2459 422 2753 634 
Q 3047 847 3047 1241 
Q 3047 1584 2836 1778 
Q 2625 1972 2144 2069 
L 1759 2144 
Q 1053 2284 737 2584 
Q 422 2884 422 3419 
Q 422 4038 858 4394 
Q 1294 4750 2059 4750 
Q 2388 4750 2728 4690 
Q 3069 4631 3425 4513 
z
" transform="scale(0.015625)"/>
      <path id="DejaVuSans-72" d="M 2631 2963 
Q 2534 3019 2420 3045 
Q 2306 3072 2169 3072 
Q 1681 3072 1420 2755 
Q 1159 2438 1159 1844 
L 1159 0 
L 581 0 
L 581 3500 
L 1159 3500 
L 1159 2956 
Q 1341 3275 1631 3429 
Q 1922 3584 2338 3584 
Q 2397 3584 2469 3576 
Q 2541 3569 2628 3553 
L 2631 2963 
z
" transform="scale(0.015625)"/>
      <path id="DejaVuSans-66" d="M 2375 4863 
L 2375 4384 
L 1825 4384 
Q 1516 4384 1395 4259 
Q 1275 4134 1275 3809 
L 1275 3500 
L 2222 3500 
L 2222 3053 
L 1275 3053 
L 1275 0 
L 697 0 
L 697 3053 
L 147 3053 
L 147 3500 
L 697 3500 
L 697 3744 
Q 697 4328 969 4595 
Q 1241 4863 1831 4863 
L 2375 4863 
z
" transform="scale(0.015625)"/>
      <path id="DejaVuSans-45" d="M 628 4666 
L 3578 4666 
L 3578 4134 
L 1259 4134 
L 1259 2753 
L 3481 2753 
L 3481 2222 
L 1259 2222 
L 1259 531 
L 3634 531 
L 3634 0 
L 628 0 
L 628 4666 
z
" transform="scale(0.015625)"/>
      <path id="DejaVuSans-63" d="M 3122 3366 
L 3122 2828 
Q 2878 2963 2633 3030 
Q 2388 3097 2138 3097 
Q 1578 3097 1268 2742 
Q 959 2388 959 1747 
Q 959 1106 1268 751 
Q 1578 397 2138 397 
Q 2388 397 2633 464 
Q 2878 531 3122 666 
L 3122 134 
Q 2881 22 2623 -34 
Q 2366 -91 2075 -91 
Q 1284 -91 818 406 
Q 353 903 353 1747 
Q 353 2603 823 3093 
Q 1294 3584 2113 3584 
Q 2378 3584 2631 3529 
Q 2884 3475 3122 3366 
z
" transform="scale(0.015625)"/>
      <path id="DejaVuSans-68" d="M 3513 2113 
L 3513 0 
L 2938 0 
L 2938 2094 
Q 2938 2591 2744 2837 
Q 2550 3084 2163 3084 
Q 1697 3084 1428 2787 
Q 1159 2491 1159 1978 
L 1159 0 
L 581 0 
L 581 4863 
L 1159 4863 
L 1159 2956 
Q 1366 3272 1645 3428 
Q 1925 3584 2291 3584 
Q 2894 3584 3203 3211 
Q 3513 2838 3513 2113 
z
" transform="scale(0.015625)"/>
      <path id="DejaVuSans-4b" d="M 628 4666 
L 1259 4666 
L 1259 2694 
L 3353 4666 
L 4166 4666 
L 1850 2491 
L 4331 0 
L 3500 0 
L 1259 2247 
L 1259 0 
L 628 0 
L 628 4666 
z
" transform="scale(0.015625)"/>
      <path id="DejaVuSans-79" d="M 2059 -325 
Q 1816 -950 1584 -1140 
Q 1353 -1331 966 -1331 
L 506 -1331 
L 506 -850 
L 844 -850 
Q 1081 -850 1212 -737 
Q 1344 -625 1503 -206 
L 1606 56 
L 191 3500 
L 800 3500 
L 1894 763 
L 2988 3500 
L 3597 3500 
L 2059 -325 
z
" transform="scale(0.015625)"/>
      <path id="DejaVuSans-77" d="M 269 3500 
L 844 3500 
L 1563 769 
L 2278 3500 
L 2956 3500 
L 3675 769 
L 4391 3500 
L 4966 3500 
L 4050 0 
L 3372 0 
L 2619 2869 
L 1863 0 
L 1184 0 
L 269 3500 
z
" transform="scale(0.015625)"/>
     </defs>
     <use xlink:href="#DejaVuSans-54"/>
     <use xlink:href="#DejaVuSans-69" transform="translate(57.958984 0)"/>
     <use xlink:href="#DejaVuSans-6d" transform="translate(85.742188 0)"/>
     <use xlink:href="#DejaVuSans-65" transform="translate(183.154297 0)"/>
     <use xlink:href="#DejaVuSans-20" transform="translate(244.677734 0)"/>
     <use xlink:href="#DejaVuSans-53" transform="translate(276.464844 0)"/>
     <use xlink:href="#DejaVuSans-65" transform="translate(339.941406 0)"/>
     <use xlink:href="#DejaVuSans-72" transform="translate(401.464844 0)"/>
     <use xlink:href="#DejaVuSans-69" transform="translate(442.578125 0)"/>
     <use xlink:href="#DejaVuSans-65" transform="translate(470.361328 0)"/>
     <use xlink:href="#DejaVuSans-73" transform="translate(531.884766 0)"/>
     <use xlink:href="#DejaVuSans-20" transform="translate(583.984375 0)"/>
     <use xlink:href="#DejaVuSans-6f" transform="translate(615.771484 0)"/>
     <use xlink:href="#DejaVuSans-66" transform="translate(676.953125 0)"/>
     <use xlink:href="#DejaVuSans-20" transform="translate(712.158203 0)"/>
     <use xlink:href="#DejaVuSans-56" transform="translate(743.945312 0)"/>
     <use xlink:href="#DejaVuSans-6f" transform="translate(804.603516 0)"/>
     <use xlink:href="#DejaVuSans-74" transform="translate(865.785156 0)"/>
     <use xlink:href="#DejaVuSans-65" transform="translate(904.994141 0)"/>
     <use xlink:href="#DejaVuSans-73" transform="translate(966.517578 0)"/>
     <use xlink:href="#DejaVuSans-20" transform="translate(1018.617188 0)"/>
     <use xlink:href="#DejaVuSans-66" transform="translate(1050.404297 0)"/>
     <use xlink:href="#DejaVuSans-6f" transform="translate(1085.609375 0)"/>
     <use xlink:href="#DejaVuSans-72" transform="translate(1146.791016 0)"/>
     <use xlink:href="#DejaVuSans-20" transform="translate(1187.904297 0)"/>
     <use xlink:href="#DejaVuSans-45" transform="translate(1219.691406 0)"/>
     <use xlink:href="#DejaVuSans-61" transform="translate(1282.875 0)"/>
     <use xlink:href="#DejaVuSans-63" transform="translate(1344.154297 0)"/>
     <use xlink:href="#DejaVuSans-68" transform="translate(1399.134766 0)"/>
     <use xlink:href="#DejaVuSans-20" transform="translate(1462.513672 0)"/>
     <use xlink:href="#DejaVuSans-4b" transform="translate(1494.300781 0)"/>
     <use xlink:href="#DejaVuSans-65" transform="translate(1554.876953 0)"/>
     <use xlink:href="#DejaVuSans-79" transform="translate(1616.400391 0)"/>
     <use xlink:href="#DejaVuSans-77" transform="translate(1675.580078 0)"/>
     <use xlink:href="#DejaVuSans-6f" transform="translate(1757.367188 0)"/>
     <use xlink:href="#DejaVuSans-72" transform="translate(1818.548828 0)"/>
     <use xlink:href="#DejaVuSans-64" transform="translate(1857.912109 0)"/>
    </g>
   </g>
   <g id="legend_1">
    <g id="patch_7">
     <path d="M 97 235.9775 
L 149.245313 235.9775 
Q 151.245313 235.9775 151.245313 233.9775 
L 151.245313 58.84 
Q 151.245313 56.84 149.245313 56.84 
L 97 56.84 
Q 95 56.84 95 58.84 
L 95 233.9775 
Q 95 235.9775 97 235.9775 
z
" style="fill: #ffffff; opacity: 0.8; stroke: #cccccc; stroke-linejoin: miter"/>
    </g>
    <g id="line2d_49">
     <path d="M 99 64.938437 
L 109 64.938437 
L 119 64.938437 
" style="fill: none; stroke: #1f77b4; stroke-width: 1.5; stroke-linecap: square"/>
    </g>
    <g id="text_22">
     <!-- H01 -->
     <g transform="translate(127 68.438437) scale(0.1 -0.1)">
      <defs>
       <path id="DejaVuSans-48" d="M 628 4666 
L 1259 4666 
L 1259 2753 
L 3553 2753 
L 3553 4666 
L 4184 4666 
L 4184 0 
L 3553 0 
L 3553 2222 
L 1259 2222 
L 1259 0 
L 628 0 
L 628 4666 
z
" transform="scale(0.015625)"/>
      </defs>
      <use xlink:href="#DejaVuSans-48"/>
      <use xlink:href="#DejaVuSans-30" transform="translate(75.195312 0)"/>
      <use xlink:href="#DejaVuSans-31" transform="translate(138.818359 0)"/>
     </g>
    </g>
    <g id="line2d_50">
     <path d="M 99 79.616562 
L 109 79.616562 
L 119 79.616562 
" style="fill: none; stroke: #ff7f0e; stroke-width: 1.5; stroke-linecap: square"/>
    </g>
    <g id="text_23">
     <!-- H02 -->
     <g transform="translate(127 83.116562) scale(0.1 -0.1)">
      <use xlink:href="#DejaVuSans-48"/>
      <use xlink:href="#DejaVuSans-30" transform="translate(75.195312 0)"/>
      <use xlink:href="#DejaVuSans-32" transform="translate(138.818359 0)"/>
     </g>
    </g>
    <g id="line2d_51">
     <path d="M 99 94.294688 
L 109 94.294688 
L 119 94.294688 
" style="fill: none; stroke: #2ca02c; stroke-width: 1.5; stroke-linecap: square"/>
    </g>
    <g id="text_24">
     <!-- H03 -->
     <g transform="translate(127 97.794688) scale(0.1 -0.1)">
      <use xlink:href="#DejaVuSans-48"/>
      <use xlink:href="#DejaVuSans-30" transform="translate(75.195312 0)"/>
      <use xlink:href="#DejaVuSans-33" transform="translate(138.818359 0)"/>
     </g>
    </g>
    <g id="line2d_52">
     <path d="M 99 108.972812 
L 109 108.972812 
L 119 108.972812 
" style="fill: none; stroke: #d62728; stroke-width: 1.5; stroke-linecap: square"/>
    </g>
    <g id="text_25">
     <!-- H04 -->
     <g transform="translate(127 112.472812) scale(0.1 -0.1)">
      <use xlink:href="#DejaVuSans-48"/>
      <use xlink:href="#DejaVuSans-30" transform="translate(75.195312 0)"/>
      <use xlink:href="#DejaVuSans-34" transform="translate(138.818359 0)"/>
     </g>
    </g>
    <g id="line2d_53">
     <path d="M 99 123.650937 
L 109 123.650937 
L 119 123.650937 
" style="fill: none; stroke: #9467bd; stroke-width: 1.5; stroke-linecap: square"/>
    </g>
    <g id="text_26">
     <!-- H05 -->
     <g transform="translate(127 127.150937) scale(0.1 -0.1)">
      <use xlink:href="#DejaVuSans-48"/>
      <use xlink:href="#DejaVuSans-30" transform="translate(75.195312 0)"/>
      <use xlink:href="#DejaVuSans-35" transform="translate(138.818359 0)"/>
     </g>
    </g>
    <g id="line2d_54">
     <path d="M 99 138.329062 
L 109 138.329062 
L 119 138.329062 
" style="fill: none; stroke: #8c564b; stroke-width: 1.5; stroke-linecap: square"/>
    </g>
    <g id="text_27">
     <!-- H06 -->
     <g transform="translate(127 141.829062) scale(0.1 -0.1)">
      <use xlink:href="#DejaVuSans-48"/>
      <use xlink:href="#DejaVuSans-30" transform="translate(75.195312 0)"/>
      <use xlink:href="#DejaVuSans-36" transform="translate(138.818359 0)"/>
     </g>
    </g>
    <g id="line2d_55">
     <path d="M 99 153.007187 
L 109 153.007187 
L 119 153.007187 
" style="fill: none; stroke: #e377c2; stroke-width: 1.5; stroke-linecap: square"/>
    </g>
    <g id="text_28">
     <!-- H07 -->
     <g transform="translate(127 156.507187) scale(0.1 -0.1)">
      <use xlink:href="#DejaVuSans-48"/>
      <use xlink:href="#DejaVuSans-30" transform="translate(75.195312 0)"/>
      <use xlink:href="#DejaVuSans-37" transform="translate(138.818359 0)"/>
     </g>
    </g>
    <g id="line2d_56">
     <path d="M 99 167.685312 
L 109 167.685312 
L 119 167.685312 
" style="fill: none; stroke: #7f7f7f; stroke-width: 1.5; stroke-linecap: square"/>
    </g>
    <g id="text_29">
     <!-- H08 -->
     <g transform="translate(127 171.185312) scale(0.1 -0.1)">
      <use xlink:href="#DejaVuSans-48"/>
      <use xlink:href="#DejaVuSans-30" transform="translate(75.195312 0)"/>
      <use xlink:href="#DejaVuSans-38" transform="translate(138.818359 0)"/>
     </g>
    </g>
    <g id="line2d_57">
     <path d="M 99 182.363437 
L 109 182.363437 
L 119 182.363437 
" style="fill: none; stroke: #bcbd22; stroke-width: 1.5; stroke-linecap: square"/>
    </g>
    <g id="text_30">
     <!-- H09 -->
     <g transform="translate(127 185.863437) scale(0.1 -0.1)">
      <use xlink:href="#DejaVuSans-48"/>
      <use xlink:href="#DejaVuSans-30" transform="translate(75.195312 0)"/>
      <use xlink:href="#DejaVuSans-39" transform="translate(138.818359 0)"/>
     </g>
    </g>
    <g id="line2d_58">
     <path d="M 99 197.041562 
L 109 197.041562 
L 119 197.041562 
" style="fill: none; stroke: #17becf; stroke-width: 1.5; stroke-linecap: square"/>
    </g>
    <g id="text_31">
     <!-- H10 -->
     <g transform="translate(127 200.541562) scale(0.1 -0.1)">
      <use xlink:href="#DejaVuSans-48"/>
      <use xlink:href="#DejaVuSans-31" transform="translate(75.195312 0)"/>
      <use xlink:href="#DejaVuSans-30" transform="translate(138.818359 0)"/>
     </g>
    </g>
    <g id="line2d_59">
     <path d="M 99 211.719687 
L 109 211.719687 
L 119 211.719687 
" style="fill: none; stroke: #1f77b4; stroke-width: 1.5; stroke-linecap: square"/>
    </g>
    <g id="text_32">
     <!-- H11 -->
     <g transform="translate(127 215.219687) scale(0.1 -0.1)">
      <use xlink:href="#DejaVuSans-48"/>
      <use xlink:href="#DejaVuSans-31" transform="translate(75.195312 0)"/>
      <use xlink:href="#DejaVuSans-31" transform="translate(138.818359 0)"/>
     </g>
    </g>
    <g id="line2d_60">
     <path d="M 99 226.397812 
L 109 226.397812 
L 119 226.397812 
" style="fill: none; stroke: #ff7f0e; stroke-width: 1.5; stroke-linecap: square"/>
    </g>
    <g id="text_33">
     <!-- H12 -->
     <g transform="translate(127 229.897812) scale(0.1 -0.1)">
      <use xlink:href="#DejaVuSans-48"/>
      <use xlink:href="#DejaVuSans-31" transform="translate(75.195312 0)"/>
      <use xlink:href="#DejaVuSans-32" transform="translate(138.818359 0)"/>
     </g>
    </g>
   </g>
  </g>
 </g>
 <defs>
  <clipPath id="p3c5b4db0ca">
   <rect x="90" y="51.84" width="558" height="332.64"/>
  </clipPath>
 </defs>
</svg>
