<?xml version="1.0" encoding="utf-8" standalone="no"?>
<!DOCTYPE svg PUBLIC "-//W3C//DTD SVG 1.1//EN"
  "http://www.w3.org/Graphics/SVG/1.1/DTD/svg11.dtd">
<svg xmlns:xlink="http://www.w3.org/1999/xlink" width="720pt" height="432pt" viewBox="0 0 720 432" xmlns="http://www.w3.org/2000/svg" version="1.1">
 <metadata>
  <rdf:RDF xmlns:dc="http://purl.org/dc/elements/1.1/" xmlns:cc="http://creativecommons.org/ns#" xmlns:rdf="http://www.w3.org/1999/02/22-rdf-syntax-ns#">
   <cc:Work>
    <dc:type rdf:resource="http://purl.org/dc/dcmitype/StillImage"/>
    <dc:date>2025-01-14T20:12:09.239326</dc:date>
    <dc:format>image/svg+xml</dc:format>
    <dc:creator>
     <cc:Agent>
      <dc:title>Matplotlib v3.10.0, https://matplotlib.org/</dc:title>
     </cc:Agent>
    </dc:creator>
   </cc:Work>
  </rdf:RDF>
 </metadata>
 <defs>
  <style type="text/css">*{stroke-linejoin: round; stroke-linecap: butt}</style>
 </defs>
 <g id="figure_1">
  <g id="patch_1">
   <path d="M 0 432 
L 720 432 
L 720 0 
L 0 0 
z
" style="fill: #ffffff"/>
  </g>
  <g id="axes_1">
   <g id="patch_2">
    <path d="M 90 384.48 
L 648 384.48 
L 648 51.84 
L 90 51.84 
z
" style="fill: #ffffff"/>
   </g>
   <g id="matplotlib.axis_1">
    <g id="xtick_1">
     <g id="line2d_1">
      <path d="M 149.77661 384.48 
L 149.77661 51.84 
" clip-path="url(#p84d7bf6ddd)" style="fill: none; stroke: #b0b0b0; stroke-width: 0.8; stroke-linecap: square"/>
     </g>
     <g id="line2d_2">
      <defs>
       <path id="m8cbd81f611" d="M 0 0 
L 0 3.5 
" style="stroke: #000000; stroke-width: 0.8"/>
      </defs>
      <g>
       <use xlink:href="#m8cbd81f611" x="149.77661" y="384.48" style="stroke: #000000; stroke-width: 0.8"/>
      </g>
     </g>
     <g id="text_1">
      <!-- 01-14 14 -->
      <g transform="translate(127.296142 399.078438) scale(0.1 -0.1)">
       <defs>
        <path id="DejaVuSans-30" d="M 2034 4250 
Q 1547 4250 1301 3770 
Q 1056 3291 1056 2328 
Q 1056 1369 1301 889 
Q 1547 409 2034 409 
Q 2525 409 2770 889 
Q 3016 1369 3016 2328 
Q 3016 3291 2770 3770 
Q 2525 4250 2034 4250 
z
M 2034 4750 
Q 2819 4750 3233 4129 
Q 3647 3509 3647 2328 
Q 3647 1150 3233 529 
Q 2819 -91 2034 -91 
Q 1250 -91 836 529 
Q 422 1150 422 2328 
Q 422 3509 836 4129 
Q 1250 4750 2034 4750 
z
" transform="scale(0.015625)"/>
        <path id="DejaVuSans-31" d="M 794 531 
L 1825 531 
L 1825 4091 
L 703 3866 
L 703 4441 
L 1819 4666 
L 2450 4666 
L 2450 531 
L 3481 531 
L 3481 0 
L 794 0 
L 794 531 
z
" transform="scale(0.015625)"/>
        <path id="DejaVuSans-2d" d="M 313 2009 
L 1997 2009 
L 1997 1497 
L 313 1497 
L 313 2009 
z
" transform="scale(0.015625)"/>
        <path id="DejaVuSans-34" d="M 2419 4116 
L 825 1625 
L 2419 1625 
L 2419 4116 
z
M 2253 4666 
L 3047 4666 
L 3047 1625 
L 3713 1625 
L 3713 1100 
L 3047 1100 
L 3047 0 
L 2419 0 
L 2419 1100 
L 313 1100 
L 313 1709 
L 2253 4666 
z
" transform="scale(0.015625)"/>
        <path id="DejaVuSans-20" transform="scale(0.015625)"/>
       </defs>
       <use xlink:href="#DejaVuSans-30"/>
       <use xlink:href="#DejaVuSans-31" transform="translate(63.623047 0)"/>
       <use xlink:href="#DejaVuSans-2d" transform="translate(127.246094 0)"/>
       <use xlink:href="#DejaVuSans-31" transform="translate(163.330078 0)"/>
       <use xlink:href="#DejaVuSans-34" transform="translate(226.953125 0)"/>
       <use xlink:href="#DejaVuSans-20" transform="translate(290.576172 0)"/>
       <use xlink:href="#DejaVuSans-31" transform="translate(322.363281 0)"/>
       <use xlink:href="#DejaVuSans-34" transform="translate(385.986328 0)"/>
      </g>
     </g>
    </g>
    <g id="xtick_2">
     <g id="line2d_3">
      <path d="M 226.249886 384.48 
L 226.249886 51.84 
" clip-path="url(#p84d7bf6ddd)" style="fill: none; stroke: #b0b0b0; stroke-width: 0.8; stroke-linecap: square"/>
     </g>
     <g id="line2d_4">
      <g>
       <use xlink:href="#m8cbd81f611" x="226.249886" y="384.48" style="stroke: #000000; stroke-width: 0.8"/>
      </g>
     </g>
     <g id="text_2">
      <!-- 01-14 15 -->
      <g transform="translate(203.769417 399.078438) scale(0.1 -0.1)">
       <defs>
        <path id="DejaVuSans-35" d="M 691 4666 
L 3169 4666 
L 3169 4134 
L 1269 4134 
L 1269 2991 
Q 1406 3038 1543 3061 
Q 1681 3084 1819 3084 
Q 2600 3084 3056 2656 
Q 3513 2228 3513 1497 
Q 3513 744 3044 326 
Q 2575 -91 1722 -91 
Q 1428 -91 1123 -41 
Q 819 9 494 109 
L 494 744 
Q 775 591 1075 516 
Q 1375 441 1709 441 
Q 2250 441 2565 725 
Q 2881 1009 2881 1497 
Q 2881 1984 2565 2268 
Q 2250 2553 1709 2553 
Q 1456 2553 1204 2497 
Q 953 2441 691 2322 
L 691 4666 
z
" transform="scale(0.015625)"/>
       </defs>
       <use xlink:href="#DejaVuSans-30"/>
       <use xlink:href="#DejaVuSans-31" transform="translate(63.623047 0)"/>
       <use xlink:href="#DejaVuSans-2d" transform="translate(127.246094 0)"/>
       <use xlink:href="#DejaVuSans-31" transform="translate(163.330078 0)"/>
       <use xlink:href="#DejaVuSans-34" transform="translate(226.953125 0)"/>
       <use xlink:href="#DejaVuSans-20" transform="translate(290.576172 0)"/>
       <use xlink:href="#DejaVuSans-31" transform="translate(322.363281 0)"/>
       <use xlink:href="#DejaVuSans-35" transform="translate(385.986328 0)"/>
      </g>
     </g>
    </g>
    <g id="xtick_3">
     <g id="line2d_5">
      <path d="M 302.723161 384.48 
L 302.723161 51.84 
" clip-path="url(#p84d7bf6ddd)" style="fill: none; stroke: #b0b0b0; stroke-width: 0.8; stroke-linecap: square"/>
     </g>
     <g id="line2d_6">
      <g>
       <use xlink:href="#m8cbd81f611" x="302.723161" y="384.48" style="stroke: #000000; stroke-width: 0.8"/>
      </g>
     </g>
     <g id="text_3">
      <!-- 01-14 16 -->
      <g transform="translate(280.242693 399.078438) scale(0.1 -0.1)">
       <defs>
        <path id="DejaVuSans-36" d="M 2113 2584 
Q 1688 2584 1439 2293 
Q 1191 2003 1191 1497 
Q 1191 994 1439 701 
Q 1688 409 2113 409 
Q 2538 409 2786 701 
Q 3034 994 3034 1497 
Q 3034 2003 2786 2293 
Q 2538 2584 2113 2584 
z
M 3366 4563 
L 3366 3988 
Q 3128 4100 2886 4159 
Q 2644 4219 2406 4219 
Q 1781 4219 1451 3797 
Q 1122 3375 1075 2522 
Q 1259 2794 1537 2939 
Q 1816 3084 2150 3084 
Q 2853 3084 3261 2657 
Q 3669 2231 3669 1497 
Q 3669 778 3244 343 
Q 2819 -91 2113 -91 
Q 1303 -91 875 529 
Q 447 1150 447 2328 
Q 447 3434 972 4092 
Q 1497 4750 2381 4750 
Q 2619 4750 2861 4703 
Q 3103 4656 3366 4563 
z
" transform="scale(0.015625)"/>
       </defs>
       <use xlink:href="#DejaVuSans-30"/>
       <use xlink:href="#DejaVuSans-31" transform="translate(63.623047 0)"/>
       <use xlink:href="#DejaVuSans-2d" transform="translate(127.246094 0)"/>
       <use xlink:href="#DejaVuSans-31" transform="translate(163.330078 0)"/>
       <use xlink:href="#DejaVuSans-34" transform="translate(226.953125 0)"/>
       <use xlink:href="#DejaVuSans-20" transform="translate(290.576172 0)"/>
       <use xlink:href="#DejaVuSans-31" transform="translate(322.363281 0)"/>
       <use xlink:href="#DejaVuSans-36" transform="translate(385.986328 0)"/>
      </g>
     </g>
    </g>
    <g id="xtick_4">
     <g id="line2d_7">
      <path d="M 379.196437 384.48 
L 379.196437 51.84 
" clip-path="url(#p84d7bf6ddd)" style="fill: none; stroke: #b0b0b0; stroke-width: 0.8; stroke-linecap: square"/>
     </g>
     <g id="line2d_8">
      <g>
       <use xlink:href="#m8cbd81f611" x="379.196437" y="384.48" style="stroke: #000000; stroke-width: 0.8"/>
      </g>
     </g>
     <g id="text_4">
      <!-- 01-14 17 -->
      <g transform="translate(356.715968 399.078438) scale(0.1 -0.1)">
       <defs>
        <path id="DejaVuSans-37" d="M 525 4666 
L 3525 4666 
L 3525 4397 
L 1831 0 
L 1172 0 
L 2766 4134 
L 525 4134 
L 525 4666 
z
" transform="scale(0.015625)"/>
       </defs>
       <use xlink:href="#DejaVuSans-30"/>
       <use xlink:href="#DejaVuSans-31" transform="translate(63.623047 0)"/>
       <use xlink:href="#DejaVuSans-2d" transform="translate(127.246094 0)"/>
       <use xlink:href="#DejaVuSans-31" transform="translate(163.330078 0)"/>
       <use xlink:href="#DejaVuSans-34" transform="translate(226.953125 0)"/>
       <use xlink:href="#DejaVuSans-20" transform="translate(290.576172 0)"/>
       <use xlink:href="#DejaVuSans-31" transform="translate(322.363281 0)"/>
       <use xlink:href="#DejaVuSans-37" transform="translate(385.986328 0)"/>
      </g>
     </g>
    </g>
    <g id="xtick_5">
     <g id="line2d_9">
      <path d="M 455.669712 384.48 
L 455.669712 51.84 
" clip-path="url(#p84d7bf6ddd)" style="fill: none; stroke: #b0b0b0; stroke-width: 0.8; stroke-linecap: square"/>
     </g>
     <g id="line2d_10">
      <g>
       <use xlink:href="#m8cbd81f611" x="455.669712" y="384.48" style="stroke: #000000; stroke-width: 0.8"/>
      </g>
     </g>
     <g id="text_5">
      <!-- 01-14 18 -->
      <g transform="translate(433.189243 399.078438) scale(0.1 -0.1)">
       <defs>
        <path id="DejaVuSans-38" d="M 2034 2216 
Q 1584 2216 1326 1975 
Q 1069 1734 1069 1313 
Q 1069 891 1326 650 
Q 1584 409 2034 409 
Q 2484 409 2743 651 
Q 3003 894 3003 1313 
Q 3003 1734 2745 1975 
Q 2488 2216 2034 2216 
z
M 1403 2484 
Q 997 2584 770 2862 
Q 544 3141 544 3541 
Q 544 4100 942 4425 
Q 1341 4750 2034 4750 
Q 2731 4750 3128 4425 
Q 3525 4100 3525 3541 
Q 3525 3141 3298 2862 
Q 3072 2584 2669 2484 
Q 3125 2378 3379 2068 
Q 3634 1759 3634 1313 
Q 3634 634 3220 271 
Q 2806 -91 2034 -91 
Q 1263 -91 848 271 
Q 434 634 434 1313 
Q 434 1759 690 2068 
Q 947 2378 1403 2484 
z
M 1172 3481 
Q 1172 3119 1398 2916 
Q 1625 2713 2034 2713 
Q 2441 2713 2670 2916 
Q 2900 3119 2900 3481 
Q 2900 3844 2670 4047 
Q 2441 4250 2034 4250 
Q 1625 4250 1398 4047 
Q 1172 3844 1172 3481 
z
" transform="scale(0.015625)"/>
       </defs>
       <use xlink:href="#DejaVuSans-30"/>
       <use xlink:href="#DejaVuSans-31" transform="translate(63.623047 0)"/>
       <use xlink:href="#DejaVuSans-2d" transform="translate(127.246094 0)"/>
       <use xlink:href="#DejaVuSans-31" transform="translate(163.330078 0)"/>
       <use xlink:href="#DejaVuSans-34" transform="translate(226.953125 0)"/>
       <use xlink:href="#DejaVuSans-20" transform="translate(290.576172 0)"/>
       <use xlink:href="#DejaVuSans-31" transform="translate(322.363281 0)"/>
       <use xlink:href="#DejaVuSans-38" transform="translate(385.986328 0)"/>
      </g>
     </g>
    </g>
    <g id="xtick_6">
     <g id="line2d_11">
      <path d="M 532.142988 384.48 
L 532.142988 51.84 
" clip-path="url(#p84d7bf6ddd)" style="fill: none; stroke: #b0b0b0; stroke-width: 0.8; stroke-linecap: square"/>
     </g>
     <g id="line2d_12">
      <g>
       <use xlink:href="#m8cbd81f611" x="532.142988" y="384.48" style="stroke: #000000; stroke-width: 0.8"/>
      </g>
     </g>
     <g id="text_6">
      <!-- 01-14 19 -->
      <g transform="translate(509.662519 399.078438) scale(0.1 -0.1)">
       <defs>
        <path id="DejaVuSans-39" d="M 703 97 
L 703 672 
Q 941 559 1184 500 
Q 1428 441 1663 441 
Q 2288 441 2617 861 
Q 2947 1281 2994 2138 
Q 2813 1869 2534 1725 
Q 2256 1581 1919 1581 
Q 1219 1581 811 2004 
Q 403 2428 403 3163 
Q 403 3881 828 4315 
Q 1253 4750 1959 4750 
Q 2769 4750 3195 4129 
Q 3622 3509 3622 2328 
Q 3622 1225 3098 567 
Q 2575 -91 1691 -91 
Q 1453 -91 1209 -44 
Q 966 3 703 97 
z
M 1959 2075 
Q 2384 2075 2632 2365 
Q 2881 2656 2881 3163 
Q 2881 3666 2632 3958 
Q 2384 4250 1959 4250 
Q 1534 4250 1286 3958 
Q 1038 3666 1038 3163 
Q 1038 2656 1286 2365 
Q 1534 2075 1959 2075 
z
" transform="scale(0.015625)"/>
       </defs>
       <use xlink:href="#DejaVuSans-30"/>
       <use xlink:href="#DejaVuSans-31" transform="translate(63.623047 0)"/>
       <use xlink:href="#DejaVuSans-2d" transform="translate(127.246094 0)"/>
       <use xlink:href="#DejaVuSans-31" transform="translate(163.330078 0)"/>
       <use xlink:href="#DejaVuSans-34" transform="translate(226.953125 0)"/>
       <use xlink:href="#DejaVuSans-20" transform="translate(290.576172 0)"/>
       <use xlink:href="#DejaVuSans-31" transform="translate(322.363281 0)"/>
       <use xlink:href="#DejaVuSans-39" transform="translate(385.986328 0)"/>
      </g>
     </g>
    </g>
    <g id="xtick_7">
     <g id="line2d_13">
      <path d="M 608.616263 384.48 
L 608.616263 51.84 
" clip-path="url(#p84d7bf6ddd)" style="fill: none; stroke: #b0b0b0; stroke-width: 0.8; stroke-linecap: square"/>
     </g>
     <g id="line2d_14">
      <g>
       <use xlink:href="#m8cbd81f611" x="608.616263" y="384.48" style="stroke: #000000; stroke-width: 0.8"/>
      </g>
     </g>
     <g id="text_7">
      <!-- 01-14 20 -->
      <g transform="translate(586.135794 399.078438) scale(0.1 -0.1)">
       <defs>
        <path id="DejaVuSans-32" d="M 1228 531 
L 3431 531 
L 3431 0 
L 469 0 
L 469 531 
Q 828 903 1448 1529 
Q 2069 2156 2228 2338 
Q 2531 2678 2651 2914 
Q 2772 3150 2772 3378 
Q 2772 3750 2511 3984 
Q 2250 4219 1831 4219 
Q 1534 4219 1204 4116 
Q 875 4013 500 3803 
L 500 4441 
Q 881 4594 1212 4672 
Q 1544 4750 1819 4750 
Q 2544 4750 2975 4387 
Q 3406 4025 3406 3419 
Q 3406 3131 3298 2873 
Q 3191 2616 2906 2266 
Q 2828 2175 2409 1742 
Q 1991 1309 1228 531 
z
" transform="scale(0.015625)"/>
       </defs>
       <use xlink:href="#DejaVuSans-30"/>
       <use xlink:href="#DejaVuSans-31" transform="translate(63.623047 0)"/>
       <use xlink:href="#DejaVuSans-2d" transform="translate(127.246094 0)"/>
       <use xlink:href="#DejaVuSans-31" transform="translate(163.330078 0)"/>
       <use xlink:href="#DejaVuSans-34" transform="translate(226.953125 0)"/>
       <use xlink:href="#DejaVuSans-20" transform="translate(290.576172 0)"/>
       <use xlink:href="#DejaVuSans-32" transform="translate(322.363281 0)"/>
       <use xlink:href="#DejaVuSans-30" transform="translate(385.986328 0)"/>
      </g>
     </g>
    </g>
    <g id="text_8">
     <!-- Date and Time -->
     <g transform="translate(332.230469 412.756563) scale(0.1 -0.1)">
      <defs>
       <path id="DejaVuSans-44" d="M 1259 4147 
L 1259 519 
L 2022 519 
Q 2988 519 3436 956 
Q 3884 1394 3884 2338 
Q 3884 3275 3436 3711 
Q 2988 4147 2022 4147 
L 1259 4147 
z
M 628 4666 
L 1925 4666 
Q 3281 4666 3915 4102 
Q 4550 3538 4550 2338 
Q 4550 1131 3912 565 
Q 3275 0 1925 0 
L 628 0 
L 628 4666 
z
" transform="scale(0.015625)"/>
       <path id="DejaVuSans-61" d="M 2194 1759 
Q 1497 1759 1228 1600 
Q 959 1441 959 1056 
Q 959 750 1161 570 
Q 1363 391 1709 391 
Q 2188 391 2477 730 
Q 2766 1069 2766 1631 
L 2766 1759 
L 2194 1759 
z
M 3341 1997 
L 3341 0 
L 2766 0 
L 2766 531 
Q 2569 213 2275 61 
Q 1981 -91 1556 -91 
Q 1019 -91 701 211 
Q 384 513 384 1019 
Q 384 1609 779 1909 
Q 1175 2209 1959 2209 
L 2766 2209 
L 2766 2266 
Q 2766 2663 2505 2880 
Q 2244 3097 1772 3097 
Q 1472 3097 1187 3025 
Q 903 2953 641 2809 
L 641 3341 
Q 956 3463 1253 3523 
Q 1550 3584 1831 3584 
Q 2591 3584 2966 3190 
Q 3341 2797 3341 1997 
z
" transform="scale(0.015625)"/>
       <path id="DejaVuSans-74" d="M 1172 4494 
L 1172 3500 
L 2356 3500 
L 2356 3053 
L 1172 3053 
L 1172 1153 
Q 1172 725 1289 603 
Q 1406 481 1766 481 
L 2356 481 
L 2356 0 
L 1766 0 
Q 1100 0 847 248 
Q 594 497 594 1153 
L 594 3053 
L 172 3053 
L 172 3500 
L 594 3500 
L 594 4494 
L 1172 4494 
z
" transform="scale(0.015625)"/>
       <path id="DejaVuSans-65" d="M 3597 1894 
L 3597 1613 
L 953 1613 
Q 991 1019 1311 708 
Q 1631 397 2203 397 
Q 2534 397 2845 478 
Q 3156 559 3463 722 
L 3463 178 
Q 3153 47 2828 -22 
Q 2503 -91 2169 -91 
Q 1331 -91 842 396 
Q 353 884 353 1716 
Q 353 2575 817 3079 
Q 1281 3584 2069 3584 
Q 2775 3584 3186 3129 
Q 3597 2675 3597 1894 
z
M 3022 2063 
Q 3016 2534 2758 2815 
Q 2500 3097 2075 3097 
Q 1594 3097 1305 2825 
Q 1016 2553 972 2059 
L 3022 2063 
z
" transform="scale(0.015625)"/>
       <path id="DejaVuSans-6e" d="M 3513 2113 
L 3513 0 
L 2938 0 
L 2938 2094 
Q 2938 2591 2744 2837 
Q 2550 3084 2163 3084 
Q 1697 3084 1428 2787 
Q 1159 2491 1159 1978 
L 1159 0 
L 581 0 
L 581 3500 
L 1159 3500 
L 1159 2956 
Q 1366 3272 1645 3428 
Q 1925 3584 2291 3584 
Q 2894 3584 3203 3211 
Q 3513 2838 3513 2113 
z
" transform="scale(0.015625)"/>
       <path id="DejaVuSans-64" d="M 2906 2969 
L 2906 4863 
L 3481 4863 
L 3481 0 
L 2906 0 
L 2906 525 
Q 2725 213 2448 61 
Q 2172 -91 1784 -91 
Q 1150 -91 751 415 
Q 353 922 353 1747 
Q 353 2572 751 3078 
Q 1150 3584 1784 3584 
Q 2172 3584 2448 3432 
Q 2725 3281 2906 2969 
z
M 947 1747 
Q 947 1113 1208 752 
Q 1469 391 1925 391 
Q 2381 391 2643 752 
Q 2906 1113 2906 1747 
Q 2906 2381 2643 2742 
Q 2381 3103 1925 3103 
Q 1469 3103 1208 2742 
Q 947 2381 947 1747 
z
" transform="scale(0.015625)"/>
       <path id="DejaVuSans-54" d="M -19 4666 
L 3928 4666 
L 3928 4134 
L 2272 4134 
L 2272 0 
L 1638 0 
L 1638 4134 
L -19 4134 
L -19 4666 
z
" transform="scale(0.015625)"/>
       <path id="DejaVuSans-69" d="M 603 3500 
L 1178 3500 
L 1178 0 
L 603 0 
L 603 3500 
z
M 603 4863 
L 1178 4863 
L 1178 4134 
L 603 4134 
L 603 4863 
z
" transform="scale(0.015625)"/>
       <path id="DejaVuSans-6d" d="M 3328 2828 
Q 3544 3216 3844 3400 
Q 4144 3584 4550 3584 
Q 5097 3584 5394 3201 
Q 5691 2819 5691 2113 
L 5691 0 
L 5113 0 
L 5113 2094 
Q 5113 2597 4934 2840 
Q 4756 3084 4391 3084 
Q 3944 3084 3684 2787 
Q 3425 2491 3425 1978 
L 3425 0 
L 2847 0 
L 2847 2094 
Q 2847 2600 2669 2842 
Q 2491 3084 2119 3084 
Q 1678 3084 1418 2786 
Q 1159 2488 1159 1978 
L 1159 0 
L 581 0 
L 581 3500 
L 1159 3500 
L 1159 2956 
Q 1356 3278 1631 3431 
Q 1906 3584 2284 3584 
Q 2666 3584 2933 3390 
Q 3200 3197 3328 2828 
z
" transform="scale(0.015625)"/>
      </defs>
      <use xlink:href="#DejaVuSans-44"/>
      <use xlink:href="#DejaVuSans-61" transform="translate(77.001953 0)"/>
      <use xlink:href="#DejaVuSans-74" transform="translate(138.28125 0)"/>
      <use xlink:href="#DejaVuSans-65" transform="translate(177.490234 0)"/>
      <use xlink:href="#DejaVuSans-20" transform="translate(239.013672 0)"/>
      <use xlink:href="#DejaVuSans-61" transform="translate(270.800781 0)"/>
      <use xlink:href="#DejaVuSans-6e" transform="translate(332.080078 0)"/>
      <use xlink:href="#DejaVuSans-64" transform="translate(395.458984 0)"/>
      <use xlink:href="#DejaVuSans-20" transform="translate(458.935547 0)"/>
      <use xlink:href="#DejaVuSans-54" transform="translate(490.722656 0)"/>
      <use xlink:href="#DejaVuSans-69" transform="translate(548.681641 0)"/>
      <use xlink:href="#DejaVuSans-6d" transform="translate(576.464844 0)"/>
      <use xlink:href="#DejaVuSans-65" transform="translate(673.876953 0)"/>
     </g>
    </g>
   </g>
   <g id="matplotlib.axis_2">
    <g id="ytick_1">
     <g id="line2d_15">
      <path d="M 90 370.523077 
L 648 370.523077 
" clip-path="url(#p84d7bf6ddd)" style="fill: none; stroke: #b0b0b0; stroke-width: 0.8; stroke-linecap: square"/>
     </g>
     <g id="line2d_16">
      <defs>
       <path id="m78060fb1de" d="M 0 0 
L -3.5 0 
" style="stroke: #000000; stroke-width: 0.8"/>
      </defs>
      <g>
       <use xlink:href="#m78060fb1de" x="90" y="370.523077" style="stroke: #000000; stroke-width: 0.8"/>
      </g>
     </g>
     <g id="text_9">
      <!-- 0 -->
      <g transform="translate(76.6375 374.322296) scale(0.1 -0.1)">
       <use xlink:href="#DejaVuSans-30"/>
      </g>
     </g>
    </g>
    <g id="ytick_2">
     <g id="line2d_17">
      <path d="M 90 312.369231 
L 648 312.369231 
" clip-path="url(#p84d7bf6ddd)" style="fill: none; stroke: #b0b0b0; stroke-width: 0.8; stroke-linecap: square"/>
     </g>
     <g id="line2d_18">
      <g>
       <use xlink:href="#m78060fb1de" x="90" y="312.369231" style="stroke: #000000; stroke-width: 0.8"/>
      </g>
     </g>
     <g id="text_10">
      <!-- 50 -->
      <g transform="translate(70.275 316.16845) scale(0.1 -0.1)">
       <use xlink:href="#DejaVuSans-35"/>
       <use xlink:href="#DejaVuSans-30" transform="translate(63.623047 0)"/>
      </g>
     </g>
    </g>
    <g id="ytick_3">
     <g id="line2d_19">
      <path d="M 90 254.215385 
L 648 254.215385 
" clip-path="url(#p84d7bf6ddd)" style="fill: none; stroke: #b0b0b0; stroke-width: 0.8; stroke-linecap: square"/>
     </g>
     <g id="line2d_20">
      <g>
       <use xlink:href="#m78060fb1de" x="90" y="254.215385" style="stroke: #000000; stroke-width: 0.8"/>
      </g>
     </g>
     <g id="text_11">
      <!-- 100 -->
      <g transform="translate(63.9125 258.014603) scale(0.1 -0.1)">
       <use xlink:href="#DejaVuSans-31"/>
       <use xlink:href="#DejaVuSans-30" transform="translate(63.623047 0)"/>
       <use xlink:href="#DejaVuSans-30" transform="translate(127.246094 0)"/>
      </g>
     </g>
    </g>
    <g id="ytick_4">
     <g id="line2d_21">
      <path d="M 90 196.061538 
L 648 196.061538 
" clip-path="url(#p84d7bf6ddd)" style="fill: none; stroke: #b0b0b0; stroke-width: 0.8; stroke-linecap: square"/>
     </g>
     <g id="line2d_22">
      <g>
       <use xlink:href="#m78060fb1de" x="90" y="196.061538" style="stroke: #000000; stroke-width: 0.8"/>
      </g>
     </g>
     <g id="text_12">
      <!-- 150 -->
      <g transform="translate(63.9125 199.860757) scale(0.1 -0.1)">
       <use xlink:href="#DejaVuSans-31"/>
       <use xlink:href="#DejaVuSans-35" transform="translate(63.623047 0)"/>
       <use xlink:href="#DejaVuSans-30" transform="translate(127.246094 0)"/>
      </g>
     </g>
    </g>
    <g id="ytick_5">
     <g id="line2d_23">
      <path d="M 90 137.907692 
L 648 137.907692 
" clip-path="url(#p84d7bf6ddd)" style="fill: none; stroke: #b0b0b0; stroke-width: 0.8; stroke-linecap: square"/>
     </g>
     <g id="line2d_24">
      <g>
       <use xlink:href="#m78060fb1de" x="90" y="137.907692" style="stroke: #000000; stroke-width: 0.8"/>
      </g>
     </g>
     <g id="text_13">
      <!-- 200 -->
      <g transform="translate(63.9125 141.706911) scale(0.1 -0.1)">
       <use xlink:href="#DejaVuSans-32"/>
       <use xlink:href="#DejaVuSans-30" transform="translate(63.623047 0)"/>
       <use xlink:href="#DejaVuSans-30" transform="translate(127.246094 0)"/>
      </g>
     </g>
    </g>
    <g id="ytick_6">
     <g id="line2d_25">
      <path d="M 90 79.753846 
L 648 79.753846 
" clip-path="url(#p84d7bf6ddd)" style="fill: none; stroke: #b0b0b0; stroke-width: 0.8; stroke-linecap: square"/>
     </g>
     <g id="line2d_26">
      <g>
       <use xlink:href="#m78060fb1de" x="90" y="79.753846" style="stroke: #000000; stroke-width: 0.8"/>
      </g>
     </g>
     <g id="text_14">
      <!-- 250 -->
      <g transform="translate(63.9125 83.553065) scale(0.1 -0.1)">
       <use xlink:href="#DejaVuSans-32"/>
       <use xlink:href="#DejaVuSans-35" transform="translate(63.623047 0)"/>
       <use xlink:href="#DejaVuSans-30" transform="translate(127.246094 0)"/>
      </g>
     </g>
    </g>
    <g id="text_15">
     <!-- Votes -->
     <g transform="translate(57.832812 231.893594) rotate(-90) scale(0.1 -0.1)">
      <defs>
       <path id="DejaVuSans-56" d="M 1831 0 
L 50 4666 
L 709 4666 
L 2188 738 
L 3669 4666 
L 4325 4666 
L 2547 0 
L 1831 0 
z
" transform="scale(0.015625)"/>
       <path id="DejaVuSans-6f" d="M 1959 3097 
Q 1497 3097 1228 2736 
Q 959 2375 959 1747 
Q 959 1119 1226 758 
Q 1494 397 1959 397 
Q 2419 397 2687 759 
Q 2956 1122 2956 1747 
Q 2956 2369 2687 2733 
Q 2419 3097 1959 3097 
z
M 1959 3584 
Q 2709 3584 3137 3096 
Q 3566 2609 3566 1747 
Q 3566 888 3137 398 
Q 2709 -91 1959 -91 
Q 1206 -91 779 398 
Q 353 888 353 1747 
Q 353 2609 779 3096 
Q 1206 3584 1959 3584 
z
" transform="scale(0.015625)"/>
       <path id="DejaVuSans-73" d="M 2834 3397 
L 2834 2853 
Q 2591 2978 2328 3040 
Q 2066 3103 1784 3103 
Q 1356 3103 1142 2972 
Q 928 2841 928 2578 
Q 928 2378 1081 2264 
Q 1234 2150 1697 2047 
L 1894 2003 
Q 2506 1872 2764 1633 
Q 3022 1394 3022 966 
Q 3022 478 2636 193 
Q 2250 -91 1575 -91 
Q 1294 -91 989 -36 
Q 684 19 347 128 
L 347 722 
Q 666 556 975 473 
Q 1284 391 1588 391 
Q 1994 391 2212 530 
Q 2431 669 2431 922 
Q 2431 1156 2273 1281 
Q 2116 1406 1581 1522 
L 1381 1569 
Q 847 1681 609 1914 
Q 372 2147 372 2553 
Q 372 3047 722 3315 
Q 1072 3584 1716 3584 
Q 2034 3584 2315 3537 
Q 2597 3491 2834 3397 
z
" transform="scale(0.015625)"/>
      </defs>
      <use xlink:href="#DejaVuSans-56"/>
      <use xlink:href="#DejaVuSans-6f" transform="translate(60.658203 0)"/>
      <use xlink:href="#DejaVuSans-74" transform="translate(121.839844 0)"/>
      <use xlink:href="#DejaVuSans-65" transform="translate(161.048828 0)"/>
      <use xlink:href="#DejaVuSans-73" transform="translate(222.572266 0)"/>
     </g>
    </g>
   </g>
   <g id="line2d_27">
    <path d="M 115.363636 349.587692 
L 128.109182 349.587692 
L 129.383737 348.424615 
L 142.129283 348.424615 
L 143.403837 346.098462 
L 154.874829 346.098462 
L 156.149383 344.935385 
L 162.522156 344.935385 
L 163.796711 343.772308 
L 168.894929 343.772308 
L 170.169484 342.609231 
L 173.993148 342.609231 
L 175.267702 341.446154 
L 193.111466 341.446154 
L 194.386021 340.283077 
L 208.406122 340.283077 
L 210.955231 337.956923 
L 213.50434 337.956923 
L 214.778894 336.793846 
L 226.249886 336.793846 
L 228.798995 334.467692 
L 244.09365 334.467692 
L 245.368205 333.304615 
L 249.191868 333.304615 
L 250.466423 332.141538 
L 251.740978 332.141538 
L 253.015532 330.978462 
L 287.428506 330.978462 
L 288.703061 329.815385 
L 303.997716 329.815385 
L 305.27227 328.652308 
L 314.194153 328.652308 
L 315.468707 327.489231 
L 316.743262 325.163077 
L 318.017816 325.163077 
L 320.566926 322.836923 
L 340.959799 322.836923 
L 342.234354 321.673846 
L 349.881681 321.673846 
L 351.156236 320.510769 
L 356.254454 320.510769 
L 357.529009 319.347692 
L 370.274555 319.347692 
L 371.549109 318.184615 
L 374.098218 318.184615 
L 375.372773 317.021538 
L 379.196437 317.021538 
L 380.470991 315.858462 
L 390.667428 315.858462 
L 391.941983 314.695385 
L 393.216537 314.695385 
L 394.491092 313.532308 
L 407.236638 313.532308 
L 408.511192 312.369231 
L 417.433074 312.369231 
L 418.707629 311.206154 
L 419.982184 311.206154 
L 422.531293 308.88 
L 450.571494 308.88 
L 451.846048 307.716923 
L 472.238922 307.716923 
L 473.513476 306.553846 
L 474.788031 306.553846 
L 476.062586 305.390769 
L 487.533577 305.390769 
L 488.808132 304.227692 
L 490.082686 304.227692 
L 491.357241 303.064615 
L 497.730014 303.064615 
L 499.004568 301.901538 
L 502.828232 301.901538 
L 505.377341 299.575385 
L 506.651896 299.575385 
L 507.92645 298.412308 
L 510.47556 298.412308 
L 511.750114 297.249231 
L 514.299223 297.249231 
L 515.573778 296.086154 
L 518.122887 296.086154 
L 519.397442 294.923077 
L 549.986752 294.923077 
L 551.261307 293.76 
L 564.006852 293.76 
L 565.281407 292.596923 
L 572.928735 292.596923 
L 574.203289 291.433846 
L 575.477844 291.433846 
L 576.752398 290.270769 
L 578.026953 290.270769 
L 583.125171 285.618462 
L 585.674281 285.618462 
L 586.948835 283.292308 
L 597.145272 283.292308 
L 599.694381 280.966154 
L 602.24349 280.966154 
L 603.518045 279.803077 
L 608.616263 279.803077 
L 609.890818 278.64 
L 618.8127 278.64 
L 620.087254 277.476923 
L 622.636364 277.476923 
L 622.636364 277.476923 
" clip-path="url(#p84d7bf6ddd)" style="fill: none; stroke: #1f77b4; stroke-width: 1.5; stroke-linecap: square"/>
   </g>
   <g id="line2d_28">
    <path d="M 115.363636 275.150769 
L 116.638191 273.987692 
L 120.461855 273.987692 
L 121.736409 272.824615 
L 123.010964 272.824615 
L 124.285519 271.661538 
L 125.560073 271.661538 
L 128.109182 269.335385 
L 129.383737 267.009231 
L 130.658291 267.009231 
L 133.207401 264.683077 
L 134.481955 264.683077 
L 135.75651 260.030769 
L 137.031064 257.704615 
L 138.305619 253.052308 
L 139.580174 249.563077 
L 143.403837 249.563077 
L 144.678392 246.073846 
L 145.952947 243.747692 
L 148.502056 241.421538 
L 149.77661 239.095385 
L 152.32572 236.769231 
L 153.600274 234.443077 
L 157.423938 234.443077 
L 158.698492 228.627692 
L 159.973047 226.301538 
L 161.247602 225.138462 
L 162.522156 222.812308 
L 163.796711 221.649231 
L 165.071265 221.649231 
L 166.34582 218.16 
L 167.620375 218.16 
L 168.894929 215.833846 
L 170.169484 214.670769 
L 171.444038 214.670769 
L 172.718593 213.507692 
L 175.267702 213.507692 
L 176.542257 212.344615 
L 179.091366 212.344615 
L 180.365921 210.018462 
L 181.640475 210.018462 
L 182.91503 208.855385 
L 188.013248 208.855385 
L 189.287803 207.692308 
L 193.111466 207.692308 
L 194.386021 206.529231 
L 195.660576 206.529231 
L 196.93513 204.203077 
L 198.209685 204.203077 
L 199.484239 201.876923 
L 200.758794 200.713846 
L 204.582458 200.713846 
L 205.857012 198.387692 
L 207.131567 197.224615 
L 208.406122 193.735385 
L 210.955231 191.409231 
L 221.151667 191.409231 
L 222.426222 187.92 
L 223.700777 187.92 
L 226.249886 185.593846 
L 227.52444 185.593846 
L 231.348104 182.104615 
L 233.897213 182.104615 
L 235.171768 180.941538 
L 237.720877 180.941538 
L 241.544541 177.452308 
L 244.09365 177.452308 
L 245.368205 176.289231 
L 251.740978 176.289231 
L 253.015532 175.126154 
L 255.564641 175.126154 
L 256.839196 173.963077 
L 272.133851 173.963077 
L 273.408406 171.636923 
L 275.957515 171.636923 
L 278.506624 169.310769 
L 279.781179 169.310769 
L 281.055733 168.147692 
L 288.703061 168.147692 
L 292.526725 164.658462 
L 293.801279 164.658462 
L 295.075834 163.495385 
L 296.350388 161.169231 
L 297.624943 161.169231 
L 298.899497 160.006154 
L 300.174052 160.006154 
L 305.27227 155.353846 
L 307.82138 155.353846 
L 309.095934 153.027692 
L 312.919598 153.027692 
L 314.194153 151.864615 
L 318.017816 151.864615 
L 319.292371 150.701538 
L 320.566926 150.701538 
L 321.84148 147.212308 
L 325.665144 147.212308 
L 326.939698 146.049231 
L 328.214253 143.723077 
L 330.763362 143.723077 
L 332.037917 142.56 
L 334.587026 142.56 
L 335.861581 141.396923 
L 337.136135 141.396923 
L 343.508908 135.581538 
L 346.058017 135.581538 
L 349.881681 132.092308 
L 353.705345 132.092308 
L 354.979899 129.766154 
L 356.254454 129.766154 
L 357.529009 128.603077 
L 361.352672 128.603077 
L 362.627227 127.44 
L 374.098218 127.44 
L 375.372773 126.276923 
L 384.294655 126.276923 
L 385.56921 125.113846 
L 388.118319 125.113846 
L 390.667428 122.787692 
L 397.040201 122.787692 
L 398.314756 121.624615 
L 404.687529 121.624615 
L 408.511192 118.135385 
L 425.080402 118.135385 
L 426.354957 115.809231 
L 427.629511 114.646154 
L 458.218821 114.646154 
L 459.493376 113.483077 
L 467.140704 113.483077 
L 469.689813 111.156923 
L 472.238922 111.156923 
L 473.513476 109.993846 
L 474.788031 109.993846 
L 477.33714 107.667692 
L 478.611695 107.667692 
L 479.886249 106.504615 
L 481.160804 106.504615 
L 483.709913 101.852308 
L 484.984468 100.689231 
L 491.357241 100.689231 
L 492.631795 97.2 
L 493.90635 94.873846 
L 496.455459 94.873846 
L 499.004568 92.547692 
L 505.377341 92.547692 
L 507.92645 90.221538 
L 510.47556 90.221538 
L 511.750114 89.058462 
L 514.299223 89.058462 
L 515.573778 87.895385 
L 516.848333 87.895385 
L 518.122887 86.732308 
L 519.397442 86.732308 
L 520.671996 85.569231 
L 521.946551 85.569231 
L 523.221106 84.406154 
L 525.770215 84.406154 
L 527.044769 82.08 
L 533.417542 82.08 
L 535.966651 79.753846 
L 548.712197 79.753846 
L 549.986752 78.590769 
L 551.261307 78.590769 
L 552.535861 77.427692 
L 553.810416 77.427692 
L 557.634079 73.938462 
L 560.183189 73.938462 
L 561.457743 72.775385 
L 586.948835 72.775385 
L 589.497944 70.449231 
L 594.596163 70.449231 
L 595.870717 69.286154 
L 597.145272 69.286154 
L 598.419826 68.123077 
L 599.694381 68.123077 
L 600.968936 66.96 
L 622.636364 66.96 
L 622.636364 66.96 
" clip-path="url(#p84d7bf6ddd)" style="fill: none; stroke: #ff7f0e; stroke-width: 1.5; stroke-linecap: square"/>
   </g>
   <g id="line2d_29">
    <path d="M 115.363636 334.467692 
L 120.461855 334.467692 
L 121.736409 332.141538 
L 124.285519 332.141538 
L 125.560073 330.978462 
L 126.834628 328.652308 
L 128.109182 327.489231 
L 129.383737 324 
L 130.658291 321.673846 
L 131.932846 320.510769 
L 133.207401 320.510769 
L 134.481955 318.184615 
L 135.75651 314.695385 
L 140.854728 314.695385 
L 142.129283 313.532308 
L 143.403837 313.532308 
L 144.678392 311.206154 
L 148.502056 311.206154 
L 151.051165 308.88 
L 156.149383 308.88 
L 157.423938 307.716923 
L 162.522156 307.716923 
L 166.34582 304.227692 
L 172.718593 304.227692 
L 173.993148 303.064615 
L 177.816811 303.064615 
L 179.091366 301.901538 
L 181.640475 301.901538 
L 182.91503 299.575385 
L 193.111466 299.575385 
L 194.386021 298.412308 
L 195.660576 296.086154 
L 196.93513 294.923077 
L 198.209685 294.923077 
L 199.484239 293.76 
L 202.033349 293.76 
L 203.307903 292.596923 
L 205.857012 292.596923 
L 207.131567 291.433846 
L 214.778894 291.433846 
L 216.053449 290.270769 
L 217.328004 290.270769 
L 218.602558 289.107692 
L 219.877113 289.107692 
L 221.151667 287.944615 
L 224.975331 287.944615 
L 226.249886 286.781538 
L 227.52444 284.455385 
L 233.897213 284.455385 
L 237.720877 280.966154 
L 241.544541 280.966154 
L 242.819095 279.803077 
L 247.917314 279.803077 
L 249.191868 278.64 
L 250.466423 278.64 
L 251.740978 277.476923 
L 254.290087 277.476923 
L 255.564641 276.313846 
L 259.388305 276.313846 
L 261.937414 273.987692 
L 263.211969 273.987692 
L 264.486524 272.824615 
L 274.68296 272.824615 
L 275.957515 270.498462 
L 277.232069 269.335385 
L 287.428506 269.335385 
L 288.703061 268.172308 
L 292.526725 268.172308 
L 293.801279 267.009231 
L 297.624943 267.009231 
L 298.899497 265.846154 
L 311.645043 265.846154 
L 312.919598 264.683077 
L 318.017816 264.683077 
L 319.292371 263.52 
L 326.939698 263.52 
L 328.214253 262.356923 
L 330.763362 262.356923 
L 332.037917 261.193846 
L 337.136135 261.193846 
L 339.685244 258.867692 
L 363.901782 258.867692 
L 365.176336 257.704615 
L 366.450891 257.704615 
L 367.725445 256.541538 
L 371.549109 256.541538 
L 372.823664 255.378462 
L 379.196437 255.378462 
L 380.470991 254.215385 
L 383.020101 254.215385 
L 384.294655 253.052308 
L 391.941983 253.052308 
L 393.216537 254.215385 
L 394.491092 253.052308 
L 403.412974 253.052308 
L 404.687529 251.889231 
L 414.883965 251.889231 
L 416.15852 250.726154 
L 418.707629 250.726154 
L 419.982184 249.563077 
L 421.256738 249.563077 
L 422.531293 248.4 
L 431.453175 248.4 
L 432.72773 247.236923 
L 440.375057 247.236923 
L 441.649612 246.073846 
L 460.767931 246.073846 
L 462.042485 244.910769 
L 490.082686 244.910769 
L 491.357241 243.747692 
L 504.102787 243.747692 
L 505.377341 242.584615 
L 525.770215 242.584615 
L 528.319324 240.258462 
L 551.261307 240.258462 
L 552.535861 239.095385 
L 553.810416 236.769231 
L 579.301508 236.769231 
L 580.576062 235.606154 
L 583.125171 235.606154 
L 584.399726 234.443077 
L 592.047053 234.443077 
L 593.321608 233.28 
L 597.145272 233.28 
L 599.694381 230.953846 
L 602.24349 230.953846 
L 603.518045 229.790769 
L 608.616263 229.790769 
L 609.890818 227.464615 
L 613.714482 227.464615 
L 614.989036 226.301538 
L 616.263591 226.301538 
L 618.8127 223.975385 
L 622.636364 223.975385 
L 622.636364 223.975385 
" clip-path="url(#p84d7bf6ddd)" style="fill: none; stroke: #2ca02c; stroke-width: 1.5; stroke-linecap: square"/>
   </g>
   <g id="line2d_30">
    <path d="M 115.363636 369.36 
L 430.17862 369.36 
L 431.453175 368.196923 
L 622.636364 368.196923 
L 622.636364 368.196923 
" clip-path="url(#p84d7bf6ddd)" style="fill: none; stroke: #d62728; stroke-width: 1.5; stroke-linecap: square"/>
   </g>
   <g id="line2d_31">
    <path d="M 115.363636 343.772308 
L 119.1873 343.772308 
L 120.461855 342.609231 
L 128.109182 342.609231 
L 129.383737 341.446154 
L 137.031064 341.446154 
L 138.305619 340.283077 
L 166.34582 340.283077 
L 167.620375 339.12 
L 213.50434 339.12 
L 216.053449 336.793846 
L 226.249886 336.793846 
L 227.52444 335.630769 
L 232.622659 335.630769 
L 233.897213 334.467692 
L 236.446323 334.467692 
L 237.720877 333.304615 
L 270.859296 333.304615 
L 272.133851 332.141538 
L 324.390589 332.141538 
L 325.665144 330.978462 
L 491.357241 330.978462 
L 492.631795 329.815385 
L 493.90635 329.815385 
L 495.180905 328.652308 
L 575.477844 328.652308 
L 576.752398 327.489231 
L 622.636364 327.489231 
L 622.636364 327.489231 
" clip-path="url(#p84d7bf6ddd)" style="fill: none; stroke: #9467bd; stroke-width: 1.5; stroke-linecap: square"/>
   </g>
   <g id="line2d_32">
    <path d="M 115.363636 353.076923 
L 116.638191 353.076923 
L 117.912746 351.913846 
L 135.75651 351.913846 
L 137.031064 350.750769 
L 152.32572 350.750769 
L 153.600274 349.587692 
L 172.718593 349.587692 
L 175.267702 347.261538 
L 189.287803 347.261538 
L 190.562357 346.098462 
L 228.798995 346.098462 
L 230.07355 344.935385 
L 241.544541 344.935385 
L 242.819095 343.772308 
L 264.486524 343.772308 
L 265.761078 342.609231 
L 286.153952 342.609231 
L 287.428506 341.446154 
L 292.526725 341.446154 
L 293.801279 340.283077 
L 305.27227 340.283077 
L 306.546825 339.12 
L 337.136135 339.12 
L 338.41069 337.956923 
L 346.058017 337.956923 
L 347.332572 336.793846 
L 354.979899 336.793846 
L 356.254454 335.630769 
L 361.352672 335.630769 
L 362.627227 334.467692 
L 409.785747 334.467692 
L 411.060302 333.304615 
L 448.022385 333.304615 
L 449.296939 332.141538 
L 523.221106 332.141538 
L 524.49566 330.978462 
L 560.183189 330.978462 
L 561.457743 329.815385 
L 578.026953 329.815385 
L 579.301508 328.652308 
L 622.636364 328.652308 
L 622.636364 328.652308 
" clip-path="url(#p84d7bf6ddd)" style="fill: none; stroke: #8c564b; stroke-width: 1.5; stroke-linecap: square"/>
   </g>
   <g id="line2d_33">
    <path d="M 115.363636 267.009231 
L 120.461855 267.009231 
L 121.736409 265.846154 
L 126.834628 265.846154 
L 129.383737 263.52 
L 130.658291 263.52 
L 131.932846 262.356923 
L 133.207401 262.356923 
L 134.481955 261.193846 
L 137.031064 261.193846 
L 138.305619 260.030769 
L 142.129283 260.030769 
L 143.403837 258.867692 
L 145.952947 258.867692 
L 147.227501 257.704615 
L 148.502056 257.704615 
L 149.77661 256.541538 
L 152.32572 256.541538 
L 154.874829 254.215385 
L 159.973047 254.215385 
L 161.247602 253.052308 
L 165.071265 253.052308 
L 167.620375 250.726154 
L 170.169484 250.726154 
L 171.444038 249.563077 
L 173.993148 249.563077 
L 175.267702 248.4 
L 176.542257 246.073846 
L 177.816811 242.584615 
L 180.365921 242.584615 
L 181.640475 241.421538 
L 188.013248 241.421538 
L 190.562357 239.095385 
L 191.836912 236.769231 
L 193.111466 235.606154 
L 194.386021 235.606154 
L 195.660576 233.28 
L 200.758794 233.28 
L 202.033349 232.116923 
L 203.307903 232.116923 
L 205.857012 229.790769 
L 207.131567 229.790769 
L 208.406122 228.627692 
L 209.680676 228.627692 
L 212.229785 226.301538 
L 214.778894 226.301538 
L 216.053449 223.975385 
L 221.151667 223.975385 
L 223.700777 221.649231 
L 226.249886 221.649231 
L 227.52444 220.486154 
L 228.798995 218.16 
L 232.622659 218.16 
L 233.897213 216.996923 
L 235.171768 216.996923 
L 236.446323 214.670769 
L 237.720877 214.670769 
L 238.995432 213.507692 
L 240.269986 213.507692 
L 241.544541 212.344615 
L 246.642759 212.344615 
L 249.191868 210.018462 
L 250.466423 210.018462 
L 251.740978 207.692308 
L 253.015532 207.692308 
L 254.290087 206.529231 
L 255.564641 206.529231 
L 256.839196 205.366154 
L 260.66286 205.366154 
L 261.937414 204.203077 
L 263.211969 204.203077 
L 268.310187 199.550769 
L 269.584742 197.224615 
L 272.133851 197.224615 
L 274.68296 192.572308 
L 277.232069 192.572308 
L 279.781179 190.246154 
L 281.055733 190.246154 
L 282.330288 187.92 
L 283.604842 187.92 
L 284.879397 186.756923 
L 286.153952 186.756923 
L 287.428506 185.593846 
L 289.977615 185.593846 
L 291.25217 184.430769 
L 292.526725 184.430769 
L 293.801279 183.267692 
L 298.899497 183.267692 
L 300.174052 177.452308 
L 301.448607 177.452308 
L 302.723161 176.289231 
L 306.546825 176.289231 
L 307.82138 175.126154 
L 319.292371 175.126154 
L 320.566926 172.8 
L 325.665144 172.8 
L 326.939698 171.636923 
L 339.685244 171.636923 
L 340.959799 169.310769 
L 342.234354 168.147692 
L 348.607127 168.147692 
L 349.881681 166.984615 
L 358.803563 166.984615 
L 360.078118 165.821538 
L 361.352672 165.821538 
L 362.627227 164.658462 
L 370.274555 164.658462 
L 372.823664 162.332308 
L 381.745546 162.332308 
L 384.294655 160.006154 
L 385.56921 160.006154 
L 386.843764 158.843077 
L 394.491092 158.843077 
L 395.765646 157.68 
L 399.58931 157.68 
L 400.863865 156.516923 
L 402.138419 154.190769 
L 405.962083 154.190769 
L 407.236638 153.027692 
L 408.511192 153.027692 
L 411.060302 150.701538 
L 416.15852 150.701538 
L 417.433074 149.538462 
L 422.531293 149.538462 
L 423.805847 148.375385 
L 427.629511 148.375385 
L 428.904066 147.212308 
L 439.100503 147.212308 
L 441.649612 144.886154 
L 448.022385 144.886154 
L 449.296939 143.723077 
L 454.395158 143.723077 
L 460.767931 137.907692 
L 463.31704 137.907692 
L 464.591594 136.744615 
L 465.866149 136.744615 
L 467.140704 134.418462 
L 469.689813 132.092308 
L 472.238922 127.44 
L 474.788031 127.44 
L 477.33714 122.787692 
L 479.886249 122.787692 
L 481.160804 120.461538 
L 483.709913 118.135385 
L 487.533577 118.135385 
L 488.808132 116.972308 
L 490.082686 116.972308 
L 492.631795 114.646154 
L 497.730014 114.646154 
L 499.004568 113.483077 
L 501.553677 113.483077 
L 502.828232 112.32 
L 509.201005 112.32 
L 510.47556 109.993846 
L 511.750114 108.830769 
L 513.024669 108.830769 
L 514.299223 107.667692 
L 516.848333 107.667692 
L 518.122887 106.504615 
L 520.671996 106.504615 
L 521.946551 104.178462 
L 524.49566 104.178462 
L 525.770215 103.015385 
L 527.044769 103.015385 
L 528.319324 101.852308 
L 534.692097 101.852308 
L 535.966651 100.689231 
L 542.339424 100.689231 
L 543.613979 99.526154 
L 544.888534 99.526154 
L 546.163088 97.2 
L 548.712197 94.873846 
L 549.986752 91.384615 
L 551.261307 90.221538 
L 552.535861 90.221538 
L 553.810416 89.058462 
L 555.08497 89.058462 
L 556.359525 87.895385 
L 561.457743 87.895385 
L 562.732298 86.732308 
L 565.281407 86.732308 
L 566.555962 85.569231 
L 569.105071 85.569231 
L 571.65418 83.243077 
L 575.477844 83.243077 
L 576.752398 82.08 
L 583.125171 82.08 
L 584.399726 79.753846 
L 590.772499 79.753846 
L 592.047053 78.590769 
L 595.870717 78.590769 
L 597.145272 76.264615 
L 602.24349 76.264615 
L 603.518045 75.101538 
L 614.989036 75.101538 
L 616.263591 73.938462 
L 618.8127 73.938462 
L 620.087254 72.775385 
L 622.636364 72.775385 
L 622.636364 72.775385 
" clip-path="url(#p84d7bf6ddd)" style="fill: none; stroke: #e377c2; stroke-width: 1.5; stroke-linecap: square"/>
   </g>
   <g id="line2d_34">
    <path d="M 115.363636 339.12 
L 116.638191 339.12 
L 119.1873 336.793846 
L 125.560073 336.793846 
L 126.834628 335.630769 
L 128.109182 335.630769 
L 130.658291 333.304615 
L 133.207401 333.304615 
L 134.481955 332.141538 
L 138.305619 332.141538 
L 139.580174 330.978462 
L 140.854728 330.978462 
L 142.129283 329.815385 
L 143.403837 329.815385 
L 145.952947 327.489231 
L 149.77661 327.489231 
L 151.051165 326.326154 
L 153.600274 326.326154 
L 156.149383 324 
L 158.698492 324 
L 161.247602 321.673846 
L 162.522156 321.673846 
L 163.796711 320.510769 
L 165.071265 317.021538 
L 170.169484 317.021538 
L 175.267702 312.369231 
L 176.542257 312.369231 
L 179.091366 310.043077 
L 180.365921 310.043077 
L 181.640475 308.88 
L 182.91503 308.88 
L 184.189584 307.716923 
L 195.660576 307.716923 
L 196.93513 306.553846 
L 209.680676 306.553846 
L 212.229785 304.227692 
L 216.053449 304.227692 
L 217.328004 303.064615 
L 219.877113 303.064615 
L 222.426222 300.738462 
L 224.975331 300.738462 
L 226.249886 298.412308 
L 230.07355 298.412308 
L 231.348104 296.086154 
L 232.622659 294.923077 
L 238.995432 294.923077 
L 240.269986 293.76 
L 241.544541 293.76 
L 244.09365 291.433846 
L 250.466423 291.433846 
L 251.740978 290.270769 
L 253.015532 290.270769 
L 254.290087 289.107692 
L 261.937414 289.107692 
L 263.211969 287.944615 
L 267.035633 287.944615 
L 268.310187 286.781538 
L 269.584742 286.781538 
L 270.859296 283.292308 
L 272.133851 283.292308 
L 273.408406 280.966154 
L 274.68296 279.803077 
L 275.957515 279.803077 
L 278.506624 277.476923 
L 281.055733 277.476923 
L 282.330288 276.313846 
L 284.879397 276.313846 
L 286.153952 275.150769 
L 287.428506 275.150769 
L 288.703061 272.824615 
L 289.977615 272.824615 
L 291.25217 271.661538 
L 293.801279 271.661538 
L 296.350388 269.335385 
L 297.624943 269.335385 
L 298.899497 267.009231 
L 300.174052 265.846154 
L 309.095934 265.846154 
L 310.370489 263.52 
L 314.194153 263.52 
L 315.468707 262.356923 
L 316.743262 262.356923 
L 318.017816 261.193846 
L 321.84148 261.193846 
L 323.116035 260.030769 
L 329.488808 260.030769 
L 330.763362 258.867692 
L 333.312471 258.867692 
L 334.587026 257.704615 
L 340.959799 257.704615 
L 342.234354 256.541538 
L 353.705345 256.541538 
L 356.254454 254.215385 
L 357.529009 254.215385 
L 358.803563 253.052308 
L 360.078118 253.052308 
L 361.352672 251.889231 
L 362.627227 251.889231 
L 363.901782 250.726154 
L 366.450891 250.726154 
L 367.725445 249.563077 
L 369 249.563077 
L 371.549109 247.236923 
L 375.372773 247.236923 
L 376.647328 246.073846 
L 380.470991 246.073846 
L 381.745546 244.910769 
L 390.667428 244.910769 
L 391.941983 243.747692 
L 393.216537 243.747692 
L 394.491092 242.584615 
L 399.58931 242.584615 
L 400.863865 240.258462 
L 408.511192 240.258462 
L 409.785747 239.095385 
L 411.060302 239.095385 
L 412.334856 236.769231 
L 418.707629 236.769231 
L 419.982184 235.606154 
L 427.629511 235.606154 
L 428.904066 234.443077 
L 445.473275 234.443077 
L 446.74783 233.28 
L 465.866149 233.28 
L 467.140704 232.116923 
L 473.513476 232.116923 
L 474.788031 230.953846 
L 476.062586 230.953846 
L 477.33714 229.790769 
L 478.611695 229.790769 
L 479.886249 227.464615 
L 481.160804 227.464615 
L 483.709913 225.138462 
L 492.631795 225.138462 
L 493.90635 223.975385 
L 495.180905 223.975385 
L 496.455459 222.812308 
L 497.730014 222.812308 
L 499.004568 221.649231 
L 505.377341 221.649231 
L 506.651896 220.486154 
L 518.122887 220.486154 
L 519.397442 219.323077 
L 525.770215 219.323077 
L 527.044769 218.16 
L 533.417542 218.16 
L 534.692097 216.996923 
L 537.241206 216.996923 
L 541.06487 213.507692 
L 543.613979 213.507692 
L 544.888534 211.181538 
L 551.261307 211.181538 
L 553.810416 208.855385 
L 556.359525 208.855385 
L 557.634079 207.692308 
L 558.908634 207.692308 
L 561.457743 205.366154 
L 570.379625 205.366154 
L 571.65418 204.203077 
L 574.203289 204.203077 
L 575.477844 203.04 
L 585.674281 203.04 
L 588.22339 200.713846 
L 592.047053 200.713846 
L 593.321608 199.550769 
L 594.596163 199.550769 
L 595.870717 196.061538 
L 597.145272 194.898462 
L 602.24349 194.898462 
L 603.518045 192.572308 
L 607.341709 192.572308 
L 608.616263 191.409231 
L 621.361809 191.409231 
L 622.636364 190.246154 
L 622.636364 190.246154 
" clip-path="url(#p84d7bf6ddd)" style="fill: none; stroke: #7f7f7f; stroke-width: 1.5; stroke-linecap: square"/>
   </g>
   <g id="line2d_35">
    <path d="M 115.363636 346.098462 
L 120.461855 346.098462 
L 121.736409 344.935385 
L 134.481955 344.935385 
L 135.75651 343.772308 
L 142.129283 343.772308 
L 143.403837 342.609231 
L 156.149383 342.609231 
L 157.423938 341.446154 
L 170.169484 341.446154 
L 171.444038 340.283077 
L 240.269986 340.283077 
L 241.544541 339.12 
L 247.917314 339.12 
L 249.191868 337.956923 
L 258.113751 337.956923 
L 259.388305 336.793846 
L 260.66286 336.793846 
L 261.937414 333.304615 
L 263.211969 332.141538 
L 265.761078 332.141538 
L 267.035633 330.978462 
L 279.781179 330.978462 
L 281.055733 329.815385 
L 292.526725 329.815385 
L 293.801279 328.652308 
L 307.82138 328.652308 
L 309.095934 327.489231 
L 324.390589 327.489231 
L 325.665144 326.326154 
L 332.037917 326.326154 
L 333.312471 325.163077 
L 374.098218 325.163077 
L 375.372773 324 
L 377.921882 324 
L 379.196437 322.836923 
L 389.392873 322.836923 
L 390.667428 321.673846 
L 426.354957 321.673846 
L 430.17862 318.184615 
L 467.140704 318.184615 
L 468.415258 317.021538 
L 469.689813 317.021538 
L 472.238922 314.695385 
L 474.788031 314.695385 
L 476.062586 313.532308 
L 541.06487 313.532308 
L 542.339424 312.369231 
L 616.263591 312.369231 
L 617.538145 311.206154 
L 622.636364 311.206154 
L 622.636364 311.206154 
" clip-path="url(#p84d7bf6ddd)" style="fill: none; stroke: #bcbd22; stroke-width: 1.5; stroke-linecap: square"/>
   </g>
   <g id="line2d_36">
    <path d="M 115.363636 367.033846 
L 179.091366 367.033846 
L 180.365921 365.870769 
L 260.66286 365.870769 
L 261.937414 364.707692 
L 391.941983 364.707692 
L 393.216537 363.544615 
L 394.491092 364.707692 
L 548.712197 364.707692 
L 549.986752 363.544615 
L 558.908634 363.544615 
L 560.183189 362.381538 
L 592.047053 362.381538 
L 593.321608 361.218462 
L 622.636364 361.218462 
L 622.636364 361.218462 
" clip-path="url(#p84d7bf6ddd)" style="fill: none; stroke: #17becf; stroke-width: 1.5; stroke-linecap: square"/>
   </g>
   <g id="line2d_37">
    <path d="M 115.363636 369.36 
L 116.638191 368.196923 
L 119.1873 368.196923 
L 120.461855 367.033846 
L 129.383737 367.033846 
L 130.658291 365.870769 
L 134.481955 365.870769 
L 135.75651 364.707692 
L 137.031064 364.707692 
L 139.580174 362.381538 
L 145.952947 362.381538 
L 148.502056 360.055385 
L 149.77661 360.055385 
L 151.051165 358.892308 
L 159.973047 358.892308 
L 161.247602 357.729231 
L 162.522156 355.403077 
L 165.071265 355.403077 
L 166.34582 354.24 
L 167.620375 354.24 
L 168.894929 353.076923 
L 170.169484 353.076923 
L 171.444038 351.913846 
L 172.718593 351.913846 
L 175.267702 349.587692 
L 182.91503 349.587692 
L 185.464139 347.261538 
L 189.287803 347.261538 
L 190.562357 346.098462 
L 191.836912 346.098462 
L 193.111466 343.772308 
L 196.93513 343.772308 
L 199.484239 339.12 
L 207.131567 339.12 
L 208.406122 336.793846 
L 209.680676 335.630769 
L 213.50434 335.630769 
L 214.778894 334.467692 
L 216.053449 332.141538 
L 218.602558 332.141538 
L 219.877113 330.978462 
L 237.720877 330.978462 
L 238.995432 328.652308 
L 247.917314 320.510769 
L 260.66286 320.510769 
L 264.486524 317.021538 
L 267.035633 317.021538 
L 268.310187 314.695385 
L 270.859296 314.695385 
L 272.133851 313.532308 
L 275.957515 313.532308 
L 277.232069 312.369231 
L 278.506624 312.369231 
L 279.781179 311.206154 
L 281.055733 311.206154 
L 283.604842 308.88 
L 300.174052 308.88 
L 302.723161 306.553846 
L 312.919598 306.553846 
L 314.194153 305.390769 
L 318.017816 305.390769 
L 320.566926 303.064615 
L 324.390589 303.064615 
L 325.665144 301.901538 
L 328.214253 301.901538 
L 329.488808 300.738462 
L 335.861581 300.738462 
L 337.136135 299.575385 
L 338.41069 299.575385 
L 339.685244 297.249231 
L 340.959799 297.249231 
L 342.234354 296.086154 
L 348.607127 296.086154 
L 349.881681 294.923077 
L 352.43079 294.923077 
L 353.705345 293.76 
L 354.979899 293.76 
L 357.529009 291.433846 
L 366.450891 291.433846 
L 367.725445 290.270769 
L 369 290.270769 
L 370.274555 289.107692 
L 376.647328 289.107692 
L 377.921882 286.781538 
L 379.196437 285.618462 
L 385.56921 285.618462 
L 386.843764 284.455385 
L 391.941983 284.455385 
L 393.216537 282.129231 
L 398.314756 282.129231 
L 400.863865 279.803077 
L 404.687529 279.803077 
L 405.962083 278.64 
L 421.256738 278.64 
L 422.531293 276.313846 
L 423.805847 275.150769 
L 434.002284 275.150769 
L 435.276839 273.987692 
L 458.218821 273.987692 
L 459.493376 272.824615 
L 462.042485 272.824615 
L 463.31704 271.661538 
L 467.140704 271.661538 
L 468.415258 270.498462 
L 484.984468 270.498462 
L 486.259022 268.172308 
L 488.808132 268.172308 
L 490.082686 267.009231 
L 491.357241 267.009231 
L 492.631795 265.846154 
L 497.730014 265.846154 
L 499.004568 264.683077 
L 507.92645 264.683077 
L 509.201005 262.356923 
L 510.47556 262.356923 
L 511.750114 261.193846 
L 518.122887 261.193846 
L 519.397442 260.030769 
L 525.770215 260.030769 
L 528.319324 257.704615 
L 530.868433 257.704615 
L 532.142988 256.541538 
L 534.692097 256.541538 
L 535.966651 255.378462 
L 537.241206 255.378462 
L 538.515761 254.215385 
L 547.437643 254.215385 
L 548.712197 253.052308 
L 578.026953 253.052308 
L 579.301508 251.889231 
L 585.674281 251.889231 
L 586.948835 250.726154 
L 600.968936 250.726154 
L 602.24349 249.563077 
L 622.636364 249.563077 
L 622.636364 249.563077 
" clip-path="url(#p84d7bf6ddd)" style="fill: none; stroke: #1f77b4; stroke-width: 1.5; stroke-linecap: square"/>
   </g>
   <g id="line2d_38">
    <path d="M 115.363636 326.326154 
L 124.285519 326.326154 
L 125.560073 325.163077 
L 129.383737 325.163077 
L 130.658291 324 
L 135.75651 324 
L 137.031064 322.836923 
L 140.854728 322.836923 
L 142.129283 321.673846 
L 143.403837 321.673846 
L 144.678392 320.510769 
L 148.502056 320.510769 
L 149.77661 319.347692 
L 152.32572 319.347692 
L 153.600274 318.184615 
L 154.874829 318.184615 
L 157.423938 315.858462 
L 165.071265 315.858462 
L 166.34582 314.695385 
L 167.620375 314.695385 
L 168.894929 313.532308 
L 170.169484 313.532308 
L 171.444038 311.206154 
L 172.718593 307.716923 
L 173.993148 306.553846 
L 179.091366 306.553846 
L 182.91503 303.064615 
L 186.738693 303.064615 
L 189.287803 300.738462 
L 203.307903 300.738462 
L 204.582458 297.249231 
L 205.857012 297.249231 
L 208.406122 292.596923 
L 210.955231 290.270769 
L 212.229785 290.270769 
L 213.50434 287.944615 
L 223.700777 287.944615 
L 224.975331 285.618462 
L 228.798995 285.618462 
L 230.07355 284.455385 
L 238.995432 284.455385 
L 240.269986 283.292308 
L 255.564641 283.292308 
L 256.839196 282.129231 
L 258.113751 282.129231 
L 259.388305 280.966154 
L 263.211969 280.966154 
L 264.486524 279.803077 
L 279.781179 279.803077 
L 281.055733 278.64 
L 283.604842 278.64 
L 286.153952 273.987692 
L 288.703061 273.987692 
L 291.25217 271.661538 
L 293.801279 271.661538 
L 295.075834 270.498462 
L 298.899497 270.498462 
L 300.174052 269.335385 
L 315.468707 269.335385 
L 316.743262 268.172308 
L 335.861581 268.172308 
L 337.136135 267.009231 
L 348.607127 267.009231 
L 349.881681 265.846154 
L 352.43079 265.846154 
L 353.705345 264.683077 
L 357.529009 264.683077 
L 360.078118 262.356923 
L 361.352672 262.356923 
L 362.627227 261.193846 
L 367.725445 261.193846 
L 370.274555 258.867692 
L 376.647328 258.867692 
L 377.921882 257.704615 
L 381.745546 257.704615 
L 383.020101 256.541538 
L 389.392873 256.541538 
L 390.667428 255.378462 
L 397.040201 255.378462 
L 398.314756 254.215385 
L 421.256738 254.215385 
L 422.531293 253.052308 
L 423.805847 253.052308 
L 425.080402 251.889231 
L 437.825948 251.889231 
L 439.100503 249.563077 
L 440.375057 249.563077 
L 441.649612 248.4 
L 454.395158 248.4 
L 455.669712 247.236923 
L 460.767931 247.236923 
L 462.042485 246.073846 
L 463.31704 246.073846 
L 464.591594 244.910769 
L 476.062586 244.910769 
L 477.33714 243.747692 
L 502.828232 243.747692 
L 504.102787 240.258462 
L 513.024669 240.258462 
L 514.299223 239.095385 
L 516.848333 239.095385 
L 518.122887 237.932308 
L 533.417542 237.932308 
L 534.692097 236.769231 
L 552.535861 236.769231 
L 553.810416 235.606154 
L 557.634079 235.606154 
L 558.908634 234.443077 
L 569.105071 234.443077 
L 570.379625 232.116923 
L 590.772499 232.116923 
L 592.047053 230.953846 
L 598.419826 230.953846 
L 599.694381 229.790769 
L 618.8127 229.790769 
L 620.087254 228.627692 
L 622.636364 228.627692 
L 622.636364 228.627692 
" clip-path="url(#p84d7bf6ddd)" style="fill: none; stroke: #ff7f0e; stroke-width: 1.5; stroke-linecap: square"/>
   </g>
   <g id="patch_3">
    <path d="M 90 384.48 
L 90 51.84 
" style="fill: none; stroke: #000000; stroke-width: 0.8; stroke-linejoin: miter; stroke-linecap: square"/>
   </g>
   <g id="patch_4">
    <path d="M 648 384.48 
L 648 51.84 
" style="fill: none; stroke: #000000; stroke-width: 0.8; stroke-linejoin: miter; stroke-linecap: square"/>
   </g>
   <g id="patch_5">
    <path d="M 90 384.48 
L 648 384.48 
" style="fill: none; stroke: #000000; stroke-width: 0.8; stroke-linejoin: miter; stroke-linecap: square"/>
   </g>
   <g id="patch_6">
    <path d="M 90 51.84 
L 648 51.84 
" style="fill: none; stroke: #000000; stroke-width: 0.8; stroke-linejoin: miter; stroke-linecap: square"/>
   </g>
   <g id="text_16">
    <!-- Time Series of Votes for Each Keyword -->
    <g transform="translate(253.716563 45.84) scale(0.12 -0.12)">
     <defs>
      <path id="DejaVuSans-53" d="M 3425 4513 
L 3425 3897 
Q 3066 4069 2747 4153 
Q 2428 4238 2131 4238 
Q 1616 4238 1336 4038 
Q 1056 3838 1056 3469 
Q 1056 3159 1242 3001 
Q 1428 2844 1947 2747 
L 2328 2669 
Q 3034 2534 3370 2195 
Q 3706 1856 3706 1288 
Q 3706 609 3251 259 
Q 2797 -91 1919 -91 
Q 1588 -91 1214 -16 
Q 841 59 441 206 
L 441 856 
Q 825 641 1194 531 
Q 1563 422 1919 422 
Q 2459 422 2753 634 
Q 3047 847 3047 1241 
Q 3047 1584 2836 1778 
Q 2625 1972 2144 2069 
L 1759 2144 
Q 1053 2284 737 2584 
Q 422 2884 422 3419 
Q 422 4038 858 4394 
Q 1294 4750 2059 4750 
Q 2388 4750 2728 4690 
Q 3069 4631 3425 4513 
z
" transform="scale(0.015625)"/>
      <path id="DejaVuSans-72" d="M 2631 2963 
Q 2534 3019 2420 3045 
Q 2306 3072 2169 3072 
Q 1681 3072 1420 2755 
Q 1159 2438 1159 1844 
L 1159 0 
L 581 0 
L 581 3500 
L 1159 3500 
L 1159 2956 
Q 1341 3275 1631 3429 
Q 1922 3584 2338 3584 
Q 2397 3584 2469 3576 
Q 2541 3569 2628 3553 
L 2631 2963 
z
" transform="scale(0.015625)"/>
      <path id="DejaVuSans-66" d="M 2375 4863 
L 2375 4384 
L 1825 4384 
Q 1516 4384 1395 4259 
Q 1275 4134 1275 3809 
L 1275 3500 
L 2222 3500 
L 2222 3053 
L 1275 3053 
L 1275 0 
L 697 0 
L 697 3053 
L 147 3053 
L 147 3500 
L 697 3500 
L 697 3744 
Q 697 4328 969 4595 
Q 1241 4863 1831 4863 
L 2375 4863 
z
" transform="scale(0.015625)"/>
      <path id="DejaVuSans-45" d="M 628 4666 
L 3578 4666 
L 3578 4134 
L 1259 4134 
L 1259 2753 
L 3481 2753 
L 3481 2222 
L 1259 2222 
L 1259 531 
L 3634 531 
L 3634 0 
L 628 0 
L 628 4666 
z
" transform="scale(0.015625)"/>
      <path id="DejaVuSans-63" d="M 3122 3366 
L 3122 2828 
Q 2878 2963 2633 3030 
Q 2388 3097 2138 3097 
Q 1578 3097 1268 2742 
Q 959 2388 959 1747 
Q 959 1106 1268 751 
Q 1578 397 2138 397 
Q 2388 397 2633 464 
Q 2878 531 3122 666 
L 3122 134 
Q 2881 22 2623 -34 
Q 2366 -91 2075 -91 
Q 1284 -91 818 406 
Q 353 903 353 1747 
Q 353 2603 823 3093 
Q 1294 3584 2113 3584 
Q 2378 3584 2631 3529 
Q 2884 3475 3122 3366 
z
" transform="scale(0.015625)"/>
      <path id="DejaVuSans-68" d="M 3513 2113 
L 3513 0 
L 2938 0 
L 2938 2094 
Q 2938 2591 2744 2837 
Q 2550 3084 2163 3084 
Q 1697 3084 1428 2787 
Q 1159 2491 1159 1978 
L 1159 0 
L 581 0 
L 581 4863 
L 1159 4863 
L 1159 2956 
Q 1366 3272 1645 3428 
Q 1925 3584 2291 3584 
Q 2894 3584 3203 3211 
Q 3513 2838 3513 2113 
z
" transform="scale(0.015625)"/>
      <path id="DejaVuSans-4b" d="M 628 4666 
L 1259 4666 
L 1259 2694 
L 3353 4666 
L 4166 4666 
L 1850 2491 
L 4331 0 
L 3500 0 
L 1259 2247 
L 1259 0 
L 628 0 
L 628 4666 
z
" transform="scale(0.015625)"/>
      <path id="DejaVuSans-79" d="M 2059 -325 
Q 1816 -950 1584 -1140 
Q 1353 -1331 966 -1331 
L 506 -1331 
L 506 -850 
L 844 -850 
Q 1081 -850 1212 -737 
Q 1344 -625 1503 -206 
L 1606 56 
L 191 3500 
L 800 3500 
L 1894 763 
L 2988 3500 
L 3597 3500 
L 2059 -325 
z
" transform="scale(0.015625)"/>
      <path id="DejaVuSans-77" d="M 269 3500 
L 844 3500 
L 1563 769 
L 2278 3500 
L 2956 3500 
L 3675 769 
L 4391 3500 
L 4966 3500 
L 4050 0 
L 3372 0 
L 2619 2869 
L 1863 0 
L 1184 0 
L 269 3500 
z
" transform="scale(0.015625)"/>
     </defs>
     <use xlink:href="#DejaVuSans-54"/>
     <use xlink:href="#DejaVuSans-69" transform="translate(57.958984 0)"/>
     <use xlink:href="#DejaVuSans-6d" transform="translate(85.742188 0)"/>
     <use xlink:href="#DejaVuSans-65" transform="translate(183.154297 0)"/>
     <use xlink:href="#DejaVuSans-20" transform="translate(244.677734 0)"/>
     <use xlink:href="#DejaVuSans-53" transform="translate(276.464844 0)"/>
     <use xlink:href="#DejaVuSans-65" transform="translate(339.941406 0)"/>
     <use xlink:href="#DejaVuSans-72" transform="translate(401.464844 0)"/>
     <use xlink:href="#DejaVuSans-69" transform="translate(442.578125 0)"/>
     <use xlink:href="#DejaVuSans-65" transform="translate(470.361328 0)"/>
     <use xlink:href="#DejaVuSans-73" transform="translate(531.884766 0)"/>
     <use xlink:href="#DejaVuSans-20" transform="translate(583.984375 0)"/>
     <use xlink:href="#DejaVuSans-6f" transform="translate(615.771484 0)"/>
     <use xlink:href="#DejaVuSans-66" transform="translate(676.953125 0)"/>
     <use xlink:href="#DejaVuSans-20" transform="translate(712.158203 0)"/>
     <use xlink:href="#DejaVuSans-56" transform="translate(743.945312 0)"/>
     <use xlink:href="#DejaVuSans-6f" transform="translate(804.603516 0)"/>
     <use xlink:href="#DejaVuSans-74" transform="translate(865.785156 0)"/>
     <use xlink:href="#DejaVuSans-65" transform="translate(904.994141 0)"/>
     <use xlink:href="#DejaVuSans-73" transform="translate(966.517578 0)"/>
     <use xlink:href="#DejaVuSans-20" transform="translate(1018.617188 0)"/>
     <use xlink:href="#DejaVuSans-66" transform="translate(1050.404297 0)"/>
     <use xlink:href="#DejaVuSans-6f" transform="translate(1085.609375 0)"/>
     <use xlink:href="#DejaVuSans-72" transform="translate(1146.791016 0)"/>
     <use xlink:href="#DejaVuSans-20" transform="translate(1187.904297 0)"/>
     <use xlink:href="#DejaVuSans-45" transform="translate(1219.691406 0)"/>
     <use xlink:href="#DejaVuSans-61" transform="translate(1282.875 0)"/>
     <use xlink:href="#DejaVuSans-63" transform="translate(1344.154297 0)"/>
     <use xlink:href="#DejaVuSans-68" transform="translate(1399.134766 0)"/>
     <use xlink:href="#DejaVuSans-20" transform="translate(1462.513672 0)"/>
     <use xlink:href="#DejaVuSans-4b" transform="translate(1494.300781 0)"/>
     <use xlink:href="#DejaVuSans-65" transform="translate(1554.876953 0)"/>
     <use xlink:href="#DejaVuSans-79" transform="translate(1616.400391 0)"/>
     <use xlink:href="#DejaVuSans-77" transform="translate(1675.580078 0)"/>
     <use xlink:href="#DejaVuSans-6f" transform="translate(1757.367188 0)"/>
     <use xlink:href="#DejaVuSans-72" transform="translate(1818.548828 0)"/>
     <use xlink:href="#DejaVuSans-64" transform="translate(1857.912109 0)"/>
    </g>
   </g>
   <g id="legend_1">
    <g id="patch_7">
     <path d="M 97 235.9775 
L 149.245313 235.9775 
Q 151.245313 235.9775 151.245313 233.9775 
L 151.245313 58.84 
Q 151.245313 56.84 149.245313 56.84 
L 97 56.84 
Q 95 56.84 95 58.84 
L 95 233.9775 
Q 95 235.9775 97 235.9775 
z
" style="fill: #ffffff; opacity: 0.8; stroke: #cccccc; stroke-linejoin: miter"/>
    </g>
    <g id="line2d_39">
     <path d="M 99 64.938437 
L 109 64.938437 
L 119 64.938437 
" style="fill: none; stroke: #1f77b4; stroke-width: 1.5; stroke-linecap: square"/>
    </g>
    <g id="text_17">
     <!-- H01 -->
     <g transform="translate(127 68.438437) scale(0.1 -0.1)">
      <defs>
       <path id="DejaVuSans-48" d="M 628 4666 
L 1259 4666 
L 1259 2753 
L 3553 2753 
L 3553 4666 
L 4184 4666 
L 4184 0 
L 3553 0 
L 3553 2222 
L 1259 2222 
L 1259 0 
L 628 0 
L 628 4666 
z
" transform="scale(0.015625)"/>
      </defs>
      <use xlink:href="#DejaVuSans-48"/>
      <use xlink:href="#DejaVuSans-30" transform="translate(75.195312 0)"/>
      <use xlink:href="#DejaVuSans-31" transform="translate(138.818359 0)"/>
     </g>
    </g>
    <g id="line2d_40">
     <path d="M 99 79.616562 
L 109 79.616562 
L 119 79.616562 
" style="fill: none; stroke: #ff7f0e; stroke-width: 1.5; stroke-linecap: square"/>
    </g>
    <g id="text_18">
     <!-- H02 -->
     <g transform="translate(127 83.116562) scale(0.1 -0.1)">
      <use xlink:href="#DejaVuSans-48"/>
      <use xlink:href="#DejaVuSans-30" transform="translate(75.195312 0)"/>
      <use xlink:href="#DejaVuSans-32" transform="translate(138.818359 0)"/>
     </g>
    </g>
    <g id="line2d_41">
     <path d="M 99 94.294688 
L 109 94.294688 
L 119 94.294688 
" style="fill: none; stroke: #2ca02c; stroke-width: 1.5; stroke-linecap: square"/>
    </g>
    <g id="text_19">
     <!-- H03 -->
     <g transform="translate(127 97.794688) scale(0.1 -0.1)">
      <defs>
       <path id="DejaVuSans-33" d="M 2597 2516 
Q 3050 2419 3304 2112 
Q 3559 1806 3559 1356 
Q 3559 666 3084 287 
Q 2609 -91 1734 -91 
Q 1441 -91 1130 -33 
Q 819 25 488 141 
L 488 750 
Q 750 597 1062 519 
Q 1375 441 1716 441 
Q 2309 441 2620 675 
Q 2931 909 2931 1356 
Q 2931 1769 2642 2001 
Q 2353 2234 1838 2234 
L 1294 2234 
L 1294 2753 
L 1863 2753 
Q 2328 2753 2575 2939 
Q 2822 3125 2822 3475 
Q 2822 3834 2567 4026 
Q 2313 4219 1838 4219 
Q 1578 4219 1281 4162 
Q 984 4106 628 3988 
L 628 4550 
Q 988 4650 1302 4700 
Q 1616 4750 1894 4750 
Q 2613 4750 3031 4423 
Q 3450 4097 3450 3541 
Q 3450 3153 3228 2886 
Q 3006 2619 2597 2516 
z
" transform="scale(0.015625)"/>
      </defs>
      <use xlink:href="#DejaVuSans-48"/>
      <use xlink:href="#DejaVuSans-30" transform="translate(75.195312 0)"/>
      <use xlink:href="#DejaVuSans-33" transform="translate(138.818359 0)"/>
     </g>
    </g>
    <g id="line2d_42">
     <path d="M 99 108.972812 
L 109 108.972812 
L 119 108.972812 
" style="fill: none; stroke: #d62728; stroke-width: 1.5; stroke-linecap: square"/>
    </g>
    <g id="text_20">
     <!-- H04 -->
     <g transform="translate(127 112.472812) scale(0.1 -0.1)">
      <use xlink:href="#DejaVuSans-48"/>
      <use xlink:href="#DejaVuSans-30" transform="translate(75.195312 0)"/>
      <use xlink:href="#DejaVuSans-34" transform="translate(138.818359 0)"/>
     </g>
    </g>
    <g id="line2d_43">
     <path d="M 99 123.650937 
L 109 123.650937 
L 119 123.650937 
" style="fill: none; stroke: #9467bd; stroke-width: 1.5; stroke-linecap: square"/>
    </g>
    <g id="text_21">
     <!-- H05 -->
     <g transform="translate(127 127.150937) scale(0.1 -0.1)">
      <use xlink:href="#DejaVuSans-48"/>
      <use xlink:href="#DejaVuSans-30" transform="translate(75.195312 0)"/>
      <use xlink:href="#DejaVuSans-35" transform="translate(138.818359 0)"/>
     </g>
    </g>
    <g id="line2d_44">
     <path d="M 99 138.329062 
L 109 138.329062 
L 119 138.329062 
" style="fill: none; stroke: #8c564b; stroke-width: 1.5; stroke-linecap: square"/>
    </g>
    <g id="text_22">
     <!-- H06 -->
     <g transform="translate(127 141.829062) scale(0.1 -0.1)">
      <use xlink:href="#DejaVuSans-48"/>
      <use xlink:href="#DejaVuSans-30" transform="translate(75.195312 0)"/>
      <use xlink:href="#DejaVuSans-36" transform="translate(138.818359 0)"/>
     </g>
    </g>
    <g id="line2d_45">
     <path d="M 99 153.007187 
L 109 153.007187 
L 119 153.007187 
" style="fill: none; stroke: #e377c2; stroke-width: 1.5; stroke-linecap: square"/>
    </g>
    <g id="text_23">
     <!-- H07 -->
     <g transform="translate(127 156.507187) scale(0.1 -0.1)">
      <use xlink:href="#DejaVuSans-48"/>
      <use xlink:href="#DejaVuSans-30" transform="translate(75.195312 0)"/>
      <use xlink:href="#DejaVuSans-37" transform="translate(138.818359 0)"/>
     </g>
    </g>
    <g id="line2d_46">
     <path d="M 99 167.685312 
L 109 167.685312 
L 119 167.685312 
" style="fill: none; stroke: #7f7f7f; stroke-width: 1.5; stroke-linecap: square"/>
    </g>
    <g id="text_24">
     <!-- H08 -->
     <g transform="translate(127 171.185312) scale(0.1 -0.1)">
      <use xlink:href="#DejaVuSans-48"/>
      <use xlink:href="#DejaVuSans-30" transform="translate(75.195312 0)"/>
      <use xlink:href="#DejaVuSans-38" transform="translate(138.818359 0)"/>
     </g>
    </g>
    <g id="line2d_47">
     <path d="M 99 182.363437 
L 109 182.363437 
L 119 182.363437 
" style="fill: none; stroke: #bcbd22; stroke-width: 1.5; stroke-linecap: square"/>
    </g>
    <g id="text_25">
     <!-- H09 -->
     <g transform="translate(127 185.863437) scale(0.1 -0.1)">
      <use xlink:href="#DejaVuSans-48"/>
      <use xlink:href="#DejaVuSans-30" transform="translate(75.195312 0)"/>
      <use xlink:href="#DejaVuSans-39" transform="translate(138.818359 0)"/>
     </g>
    </g>
    <g id="line2d_48">
     <path d="M 99 197.041562 
L 109 197.041562 
L 119 197.041562 
" style="fill: none; stroke: #17becf; stroke-width: 1.5; stroke-linecap: square"/>
    </g>
    <g id="text_26">
     <!-- H10 -->
     <g transform="translate(127 200.541562) scale(0.1 -0.1)">
      <use xlink:href="#DejaVuSans-48"/>
      <use xlink:href="#DejaVuSans-31" transform="translate(75.195312 0)"/>
      <use xlink:href="#DejaVuSans-30" transform="translate(138.818359 0)"/>
     </g>
    </g>
    <g id="line2d_49">
     <path d="M 99 211.719687 
L 109 211.719687 
L 119 211.719687 
" style="fill: none; stroke: #1f77b4; stroke-width: 1.5; stroke-linecap: square"/>
    </g>
    <g id="text_27">
     <!-- H11 -->
     <g transform="translate(127 215.219687) scale(0.1 -0.1)">
      <use xlink:href="#DejaVuSans-48"/>
      <use xlink:href="#DejaVuSans-31" transform="translate(75.195312 0)"/>
      <use xlink:href="#DejaVuSans-31" transform="translate(138.818359 0)"/>
     </g>
    </g>
    <g id="line2d_50">
     <path d="M 99 226.397812 
L 109 226.397812 
L 119 226.397812 
" style="fill: none; stroke: #ff7f0e; stroke-width: 1.5; stroke-linecap: square"/>
    </g>
    <g id="text_28">
     <!-- H12 -->
     <g transform="translate(127 229.897812) scale(0.1 -0.1)">
      <use xlink:href="#DejaVuSans-48"/>
      <use xlink:href="#DejaVuSans-31" transform="translate(75.195312 0)"/>
      <use xlink:href="#DejaVuSans-32" transform="translate(138.818359 0)"/>
     </g>
    </g>
   </g>
  </g>
 </g>
 <defs>
  <clipPath id="p84d7bf6ddd">
   <rect x="90" y="51.84" width="558" height="332.64"/>
  </clipPath>
 </defs>
</svg>
