<?xml version="1.0" encoding="utf-8" standalone="no"?>
<!DOCTYPE svg PUBLIC "-//W3C//DTD SVG 1.1//EN"
  "http://www.w3.org/Graphics/SVG/1.1/DTD/svg11.dtd">
<svg xmlns:xlink="http://www.w3.org/1999/xlink" width="720pt" height="432pt" viewBox="0 0 720 432" xmlns="http://www.w3.org/2000/svg" version="1.1">
 <metadata>
  <rdf:RDF xmlns:dc="http://purl.org/dc/elements/1.1/" xmlns:cc="http://creativecommons.org/ns#" xmlns:rdf="http://www.w3.org/1999/02/22-rdf-syntax-ns#">
   <cc:Work>
    <dc:type rdf:resource="http://purl.org/dc/dcmitype/StillImage"/>
    <dc:date>2025-01-14T16:50:45.255696</dc:date>
    <dc:format>image/svg+xml</dc:format>
    <dc:creator>
     <cc:Agent>
      <dc:title>Matplotlib v3.10.0, https://matplotlib.org/</dc:title>
     </cc:Agent>
    </dc:creator>
   </cc:Work>
  </rdf:RDF>
 </metadata>
 <defs>
  <style type="text/css">*{stroke-linejoin: round; stroke-linecap: butt}</style>
 </defs>
 <g id="figure_1">
  <g id="patch_1">
   <path d="M 0 432 
L 720 432 
L 720 0 
L 0 0 
z
" style="fill: #ffffff"/>
  </g>
  <g id="axes_1">
   <g id="patch_2">
    <path d="M 90 384.48 
L 648 384.48 
L 648 51.84 
L 90 51.84 
z
" style="fill: #ffffff"/>
   </g>
   <g id="matplotlib.axis_1">
    <g id="xtick_1">
     <g id="line2d_1">
      <path d="M 107.638671 384.48 
L 107.638671 51.84 
" clip-path="url(#p98204c1970)" style="fill: none; stroke: #b0b0b0; stroke-width: 0.8; stroke-linecap: square"/>
     </g>
     <g id="line2d_2">
      <defs>
       <path id="m2c647ea49b" d="M 0 0 
L 0 3.5 
" style="stroke: #000000; stroke-width: 0.8"/>
      </defs>
      <g>
       <use xlink:href="#m2c647ea49b" x="107.638671" y="384.48" style="stroke: #000000; stroke-width: 0.8"/>
      </g>
     </g>
     <g id="text_1">
      <!-- 14 13:30 -->
      <g transform="translate(85.277733 399.078438) scale(0.1 -0.1)">
       <defs>
        <path id="DejaVuSans-31" d="M 794 531 
L 1825 531 
L 1825 4091 
L 703 3866 
L 703 4441 
L 1819 4666 
L 2450 4666 
L 2450 531 
L 3481 531 
L 3481 0 
L 794 0 
L 794 531 
z
" transform="scale(0.015625)"/>
        <path id="DejaVuSans-34" d="M 2419 4116 
L 825 1625 
L 2419 1625 
L 2419 4116 
z
M 2253 4666 
L 3047 4666 
L 3047 1625 
L 3713 1625 
L 3713 1100 
L 3047 1100 
L 3047 0 
L 2419 0 
L 2419 1100 
L 313 1100 
L 313 1709 
L 2253 4666 
z
" transform="scale(0.015625)"/>
        <path id="DejaVuSans-20" transform="scale(0.015625)"/>
        <path id="DejaVuSans-33" d="M 2597 2516 
Q 3050 2419 3304 2112 
Q 3559 1806 3559 1356 
Q 3559 666 3084 287 
Q 2609 -91 1734 -91 
Q 1441 -91 1130 -33 
Q 819 25 488 141 
L 488 750 
Q 750 597 1062 519 
Q 1375 441 1716 441 
Q 2309 441 2620 675 
Q 2931 909 2931 1356 
Q 2931 1769 2642 2001 
Q 2353 2234 1838 2234 
L 1294 2234 
L 1294 2753 
L 1863 2753 
Q 2328 2753 2575 2939 
Q 2822 3125 2822 3475 
Q 2822 3834 2567 4026 
Q 2313 4219 1838 4219 
Q 1578 4219 1281 4162 
Q 984 4106 628 3988 
L 628 4550 
Q 988 4650 1302 4700 
Q 1616 4750 1894 4750 
Q 2613 4750 3031 4423 
Q 3450 4097 3450 3541 
Q 3450 3153 3228 2886 
Q 3006 2619 2597 2516 
z
" transform="scale(0.015625)"/>
        <path id="DejaVuSans-3a" d="M 750 794 
L 1409 794 
L 1409 0 
L 750 0 
L 750 794 
z
M 750 3309 
L 1409 3309 
L 1409 2516 
L 750 2516 
L 750 3309 
z
" transform="scale(0.015625)"/>
        <path id="DejaVuSans-30" d="M 2034 4250 
Q 1547 4250 1301 3770 
Q 1056 3291 1056 2328 
Q 1056 1369 1301 889 
Q 1547 409 2034 409 
Q 2525 409 2770 889 
Q 3016 1369 3016 2328 
Q 3016 3291 2770 3770 
Q 2525 4250 2034 4250 
z
M 2034 4750 
Q 2819 4750 3233 4129 
Q 3647 3509 3647 2328 
Q 3647 1150 3233 529 
Q 2819 -91 2034 -91 
Q 1250 -91 836 529 
Q 422 1150 422 2328 
Q 422 3509 836 4129 
Q 1250 4750 2034 4750 
z
" transform="scale(0.015625)"/>
       </defs>
       <use xlink:href="#DejaVuSans-31"/>
       <use xlink:href="#DejaVuSans-34" transform="translate(63.623047 0)"/>
       <use xlink:href="#DejaVuSans-20" transform="translate(127.246094 0)"/>
       <use xlink:href="#DejaVuSans-31" transform="translate(159.033203 0)"/>
       <use xlink:href="#DejaVuSans-33" transform="translate(222.65625 0)"/>
       <use xlink:href="#DejaVuSans-3a" transform="translate(286.279297 0)"/>
       <use xlink:href="#DejaVuSans-33" transform="translate(319.970703 0)"/>
       <use xlink:href="#DejaVuSans-30" transform="translate(383.59375 0)"/>
      </g>
     </g>
    </g>
    <g id="xtick_2">
     <g id="line2d_3">
      <path d="M 184.888325 384.48 
L 184.888325 51.84 
" clip-path="url(#p98204c1970)" style="fill: none; stroke: #b0b0b0; stroke-width: 0.8; stroke-linecap: square"/>
     </g>
     <g id="line2d_4">
      <g>
       <use xlink:href="#m2c647ea49b" x="184.888325" y="384.48" style="stroke: #000000; stroke-width: 0.8"/>
      </g>
     </g>
     <g id="text_2">
      <!-- 14 14:00 -->
      <g transform="translate(162.527387 399.078438) scale(0.1 -0.1)">
       <use xlink:href="#DejaVuSans-31"/>
       <use xlink:href="#DejaVuSans-34" transform="translate(63.623047 0)"/>
       <use xlink:href="#DejaVuSans-20" transform="translate(127.246094 0)"/>
       <use xlink:href="#DejaVuSans-31" transform="translate(159.033203 0)"/>
       <use xlink:href="#DejaVuSans-34" transform="translate(222.65625 0)"/>
       <use xlink:href="#DejaVuSans-3a" transform="translate(286.279297 0)"/>
       <use xlink:href="#DejaVuSans-30" transform="translate(319.970703 0)"/>
       <use xlink:href="#DejaVuSans-30" transform="translate(383.59375 0)"/>
      </g>
     </g>
    </g>
    <g id="xtick_3">
     <g id="line2d_5">
      <path d="M 262.137979 384.48 
L 262.137979 51.84 
" clip-path="url(#p98204c1970)" style="fill: none; stroke: #b0b0b0; stroke-width: 0.8; stroke-linecap: square"/>
     </g>
     <g id="line2d_6">
      <g>
       <use xlink:href="#m2c647ea49b" x="262.137979" y="384.48" style="stroke: #000000; stroke-width: 0.8"/>
      </g>
     </g>
     <g id="text_3">
      <!-- 14 14:30 -->
      <g transform="translate(239.777041 399.078438) scale(0.1 -0.1)">
       <use xlink:href="#DejaVuSans-31"/>
       <use xlink:href="#DejaVuSans-34" transform="translate(63.623047 0)"/>
       <use xlink:href="#DejaVuSans-20" transform="translate(127.246094 0)"/>
       <use xlink:href="#DejaVuSans-31" transform="translate(159.033203 0)"/>
       <use xlink:href="#DejaVuSans-34" transform="translate(222.65625 0)"/>
       <use xlink:href="#DejaVuSans-3a" transform="translate(286.279297 0)"/>
       <use xlink:href="#DejaVuSans-33" transform="translate(319.970703 0)"/>
       <use xlink:href="#DejaVuSans-30" transform="translate(383.59375 0)"/>
      </g>
     </g>
    </g>
    <g id="xtick_4">
     <g id="line2d_7">
      <path d="M 339.387633 384.48 
L 339.387633 51.84 
" clip-path="url(#p98204c1970)" style="fill: none; stroke: #b0b0b0; stroke-width: 0.8; stroke-linecap: square"/>
     </g>
     <g id="line2d_8">
      <g>
       <use xlink:href="#m2c647ea49b" x="339.387633" y="384.48" style="stroke: #000000; stroke-width: 0.8"/>
      </g>
     </g>
     <g id="text_4">
      <!-- 14 15:00 -->
      <g transform="translate(317.026695 399.078438) scale(0.1 -0.1)">
       <defs>
        <path id="DejaVuSans-35" d="M 691 4666 
L 3169 4666 
L 3169 4134 
L 1269 4134 
L 1269 2991 
Q 1406 3038 1543 3061 
Q 1681 3084 1819 3084 
Q 2600 3084 3056 2656 
Q 3513 2228 3513 1497 
Q 3513 744 3044 326 
Q 2575 -91 1722 -91 
Q 1428 -91 1123 -41 
Q 819 9 494 109 
L 494 744 
Q 775 591 1075 516 
Q 1375 441 1709 441 
Q 2250 441 2565 725 
Q 2881 1009 2881 1497 
Q 2881 1984 2565 2268 
Q 2250 2553 1709 2553 
Q 1456 2553 1204 2497 
Q 953 2441 691 2322 
L 691 4666 
z
" transform="scale(0.015625)"/>
       </defs>
       <use xlink:href="#DejaVuSans-31"/>
       <use xlink:href="#DejaVuSans-34" transform="translate(63.623047 0)"/>
       <use xlink:href="#DejaVuSans-20" transform="translate(127.246094 0)"/>
       <use xlink:href="#DejaVuSans-31" transform="translate(159.033203 0)"/>
       <use xlink:href="#DejaVuSans-35" transform="translate(222.65625 0)"/>
       <use xlink:href="#DejaVuSans-3a" transform="translate(286.279297 0)"/>
       <use xlink:href="#DejaVuSans-30" transform="translate(319.970703 0)"/>
       <use xlink:href="#DejaVuSans-30" transform="translate(383.59375 0)"/>
      </g>
     </g>
    </g>
    <g id="xtick_5">
     <g id="line2d_9">
      <path d="M 416.637287 384.48 
L 416.637287 51.84 
" clip-path="url(#p98204c1970)" style="fill: none; stroke: #b0b0b0; stroke-width: 0.8; stroke-linecap: square"/>
     </g>
     <g id="line2d_10">
      <g>
       <use xlink:href="#m2c647ea49b" x="416.637287" y="384.48" style="stroke: #000000; stroke-width: 0.8"/>
      </g>
     </g>
     <g id="text_5">
      <!-- 14 15:30 -->
      <g transform="translate(394.276349 399.078438) scale(0.1 -0.1)">
       <use xlink:href="#DejaVuSans-31"/>
       <use xlink:href="#DejaVuSans-34" transform="translate(63.623047 0)"/>
       <use xlink:href="#DejaVuSans-20" transform="translate(127.246094 0)"/>
       <use xlink:href="#DejaVuSans-31" transform="translate(159.033203 0)"/>
       <use xlink:href="#DejaVuSans-35" transform="translate(222.65625 0)"/>
       <use xlink:href="#DejaVuSans-3a" transform="translate(286.279297 0)"/>
       <use xlink:href="#DejaVuSans-33" transform="translate(319.970703 0)"/>
       <use xlink:href="#DejaVuSans-30" transform="translate(383.59375 0)"/>
      </g>
     </g>
    </g>
    <g id="xtick_6">
     <g id="line2d_11">
      <path d="M 493.88694 384.48 
L 493.88694 51.84 
" clip-path="url(#p98204c1970)" style="fill: none; stroke: #b0b0b0; stroke-width: 0.8; stroke-linecap: square"/>
     </g>
     <g id="line2d_12">
      <g>
       <use xlink:href="#m2c647ea49b" x="493.88694" y="384.48" style="stroke: #000000; stroke-width: 0.8"/>
      </g>
     </g>
     <g id="text_6">
      <!-- 14 16:00 -->
      <g transform="translate(471.526003 399.078438) scale(0.1 -0.1)">
       <defs>
        <path id="DejaVuSans-36" d="M 2113 2584 
Q 1688 2584 1439 2293 
Q 1191 2003 1191 1497 
Q 1191 994 1439 701 
Q 1688 409 2113 409 
Q 2538 409 2786 701 
Q 3034 994 3034 1497 
Q 3034 2003 2786 2293 
Q 2538 2584 2113 2584 
z
M 3366 4563 
L 3366 3988 
Q 3128 4100 2886 4159 
Q 2644 4219 2406 4219 
Q 1781 4219 1451 3797 
Q 1122 3375 1075 2522 
Q 1259 2794 1537 2939 
Q 1816 3084 2150 3084 
Q 2853 3084 3261 2657 
Q 3669 2231 3669 1497 
Q 3669 778 3244 343 
Q 2819 -91 2113 -91 
Q 1303 -91 875 529 
Q 447 1150 447 2328 
Q 447 3434 972 4092 
Q 1497 4750 2381 4750 
Q 2619 4750 2861 4703 
Q 3103 4656 3366 4563 
z
" transform="scale(0.015625)"/>
       </defs>
       <use xlink:href="#DejaVuSans-31"/>
       <use xlink:href="#DejaVuSans-34" transform="translate(63.623047 0)"/>
       <use xlink:href="#DejaVuSans-20" transform="translate(127.246094 0)"/>
       <use xlink:href="#DejaVuSans-31" transform="translate(159.033203 0)"/>
       <use xlink:href="#DejaVuSans-36" transform="translate(222.65625 0)"/>
       <use xlink:href="#DejaVuSans-3a" transform="translate(286.279297 0)"/>
       <use xlink:href="#DejaVuSans-30" transform="translate(319.970703 0)"/>
       <use xlink:href="#DejaVuSans-30" transform="translate(383.59375 0)"/>
      </g>
     </g>
    </g>
    <g id="xtick_7">
     <g id="line2d_13">
      <path d="M 571.136594 384.48 
L 571.136594 51.84 
" clip-path="url(#p98204c1970)" style="fill: none; stroke: #b0b0b0; stroke-width: 0.8; stroke-linecap: square"/>
     </g>
     <g id="line2d_14">
      <g>
       <use xlink:href="#m2c647ea49b" x="571.136594" y="384.48" style="stroke: #000000; stroke-width: 0.8"/>
      </g>
     </g>
     <g id="text_7">
      <!-- 14 16:30 -->
      <g transform="translate(548.775657 399.078438) scale(0.1 -0.1)">
       <use xlink:href="#DejaVuSans-31"/>
       <use xlink:href="#DejaVuSans-34" transform="translate(63.623047 0)"/>
       <use xlink:href="#DejaVuSans-20" transform="translate(127.246094 0)"/>
       <use xlink:href="#DejaVuSans-31" transform="translate(159.033203 0)"/>
       <use xlink:href="#DejaVuSans-36" transform="translate(222.65625 0)"/>
       <use xlink:href="#DejaVuSans-3a" transform="translate(286.279297 0)"/>
       <use xlink:href="#DejaVuSans-33" transform="translate(319.970703 0)"/>
       <use xlink:href="#DejaVuSans-30" transform="translate(383.59375 0)"/>
      </g>
     </g>
    </g>
    <g id="text_8">
     <!-- Date and Time -->
     <g transform="translate(332.230469 412.756563) scale(0.1 -0.1)">
      <defs>
       <path id="DejaVuSans-44" d="M 1259 4147 
L 1259 519 
L 2022 519 
Q 2988 519 3436 956 
Q 3884 1394 3884 2338 
Q 3884 3275 3436 3711 
Q 2988 4147 2022 4147 
L 1259 4147 
z
M 628 4666 
L 1925 4666 
Q 3281 4666 3915 4102 
Q 4550 3538 4550 2338 
Q 4550 1131 3912 565 
Q 3275 0 1925 0 
L 628 0 
L 628 4666 
z
" transform="scale(0.015625)"/>
       <path id="DejaVuSans-61" d="M 2194 1759 
Q 1497 1759 1228 1600 
Q 959 1441 959 1056 
Q 959 750 1161 570 
Q 1363 391 1709 391 
Q 2188 391 2477 730 
Q 2766 1069 2766 1631 
L 2766 1759 
L 2194 1759 
z
M 3341 1997 
L 3341 0 
L 2766 0 
L 2766 531 
Q 2569 213 2275 61 
Q 1981 -91 1556 -91 
Q 1019 -91 701 211 
Q 384 513 384 1019 
Q 384 1609 779 1909 
Q 1175 2209 1959 2209 
L 2766 2209 
L 2766 2266 
Q 2766 2663 2505 2880 
Q 2244 3097 1772 3097 
Q 1472 3097 1187 3025 
Q 903 2953 641 2809 
L 641 3341 
Q 956 3463 1253 3523 
Q 1550 3584 1831 3584 
Q 2591 3584 2966 3190 
Q 3341 2797 3341 1997 
z
" transform="scale(0.015625)"/>
       <path id="DejaVuSans-74" d="M 1172 4494 
L 1172 3500 
L 2356 3500 
L 2356 3053 
L 1172 3053 
L 1172 1153 
Q 1172 725 1289 603 
Q 1406 481 1766 481 
L 2356 481 
L 2356 0 
L 1766 0 
Q 1100 0 847 248 
Q 594 497 594 1153 
L 594 3053 
L 172 3053 
L 172 3500 
L 594 3500 
L 594 4494 
L 1172 4494 
z
" transform="scale(0.015625)"/>
       <path id="DejaVuSans-65" d="M 3597 1894 
L 3597 1613 
L 953 1613 
Q 991 1019 1311 708 
Q 1631 397 2203 397 
Q 2534 397 2845 478 
Q 3156 559 3463 722 
L 3463 178 
Q 3153 47 2828 -22 
Q 2503 -91 2169 -91 
Q 1331 -91 842 396 
Q 353 884 353 1716 
Q 353 2575 817 3079 
Q 1281 3584 2069 3584 
Q 2775 3584 3186 3129 
Q 3597 2675 3597 1894 
z
M 3022 2063 
Q 3016 2534 2758 2815 
Q 2500 3097 2075 3097 
Q 1594 3097 1305 2825 
Q 1016 2553 972 2059 
L 3022 2063 
z
" transform="scale(0.015625)"/>
       <path id="DejaVuSans-6e" d="M 3513 2113 
L 3513 0 
L 2938 0 
L 2938 2094 
Q 2938 2591 2744 2837 
Q 2550 3084 2163 3084 
Q 1697 3084 1428 2787 
Q 1159 2491 1159 1978 
L 1159 0 
L 581 0 
L 581 3500 
L 1159 3500 
L 1159 2956 
Q 1366 3272 1645 3428 
Q 1925 3584 2291 3584 
Q 2894 3584 3203 3211 
Q 3513 2838 3513 2113 
z
" transform="scale(0.015625)"/>
       <path id="DejaVuSans-64" d="M 2906 2969 
L 2906 4863 
L 3481 4863 
L 3481 0 
L 2906 0 
L 2906 525 
Q 2725 213 2448 61 
Q 2172 -91 1784 -91 
Q 1150 -91 751 415 
Q 353 922 353 1747 
Q 353 2572 751 3078 
Q 1150 3584 1784 3584 
Q 2172 3584 2448 3432 
Q 2725 3281 2906 2969 
z
M 947 1747 
Q 947 1113 1208 752 
Q 1469 391 1925 391 
Q 2381 391 2643 752 
Q 2906 1113 2906 1747 
Q 2906 2381 2643 2742 
Q 2381 3103 1925 3103 
Q 1469 3103 1208 2742 
Q 947 2381 947 1747 
z
" transform="scale(0.015625)"/>
       <path id="DejaVuSans-54" d="M -19 4666 
L 3928 4666 
L 3928 4134 
L 2272 4134 
L 2272 0 
L 1638 0 
L 1638 4134 
L -19 4134 
L -19 4666 
z
" transform="scale(0.015625)"/>
       <path id="DejaVuSans-69" d="M 603 3500 
L 1178 3500 
L 1178 0 
L 603 0 
L 603 3500 
z
M 603 4863 
L 1178 4863 
L 1178 4134 
L 603 4134 
L 603 4863 
z
" transform="scale(0.015625)"/>
       <path id="DejaVuSans-6d" d="M 3328 2828 
Q 3544 3216 3844 3400 
Q 4144 3584 4550 3584 
Q 5097 3584 5394 3201 
Q 5691 2819 5691 2113 
L 5691 0 
L 5113 0 
L 5113 2094 
Q 5113 2597 4934 2840 
Q 4756 3084 4391 3084 
Q 3944 3084 3684 2787 
Q 3425 2491 3425 1978 
L 3425 0 
L 2847 0 
L 2847 2094 
Q 2847 2600 2669 2842 
Q 2491 3084 2119 3084 
Q 1678 3084 1418 2786 
Q 1159 2488 1159 1978 
L 1159 0 
L 581 0 
L 581 3500 
L 1159 3500 
L 1159 2956 
Q 1356 3278 1631 3431 
Q 1906 3584 2284 3584 
Q 2666 3584 2933 3390 
Q 3200 3197 3328 2828 
z
" transform="scale(0.015625)"/>
      </defs>
      <use xlink:href="#DejaVuSans-44"/>
      <use xlink:href="#DejaVuSans-61" transform="translate(77.001953 0)"/>
      <use xlink:href="#DejaVuSans-74" transform="translate(138.28125 0)"/>
      <use xlink:href="#DejaVuSans-65" transform="translate(177.490234 0)"/>
      <use xlink:href="#DejaVuSans-20" transform="translate(239.013672 0)"/>
      <use xlink:href="#DejaVuSans-61" transform="translate(270.800781 0)"/>
      <use xlink:href="#DejaVuSans-6e" transform="translate(332.080078 0)"/>
      <use xlink:href="#DejaVuSans-64" transform="translate(395.458984 0)"/>
      <use xlink:href="#DejaVuSans-20" transform="translate(458.935547 0)"/>
      <use xlink:href="#DejaVuSans-54" transform="translate(490.722656 0)"/>
      <use xlink:href="#DejaVuSans-69" transform="translate(548.681641 0)"/>
      <use xlink:href="#DejaVuSans-6d" transform="translate(576.464844 0)"/>
      <use xlink:href="#DejaVuSans-65" transform="translate(673.876953 0)"/>
     </g>
    </g>
   </g>
   <g id="matplotlib.axis_2">
    <g id="ytick_1">
     <g id="line2d_15">
      <path d="M 90 370.813846 
L 648 370.813846 
" clip-path="url(#p98204c1970)" style="fill: none; stroke: #b0b0b0; stroke-width: 0.8; stroke-linecap: square"/>
     </g>
     <g id="line2d_16">
      <defs>
       <path id="med801c2ad3" d="M 0 0 
L -3.5 0 
" style="stroke: #000000; stroke-width: 0.8"/>
      </defs>
      <g>
       <use xlink:href="#med801c2ad3" x="90" y="370.813846" style="stroke: #000000; stroke-width: 0.8"/>
      </g>
     </g>
     <g id="text_9">
      <!-- 0 -->
      <g transform="translate(76.6375 374.613065) scale(0.1 -0.1)">
       <use xlink:href="#DejaVuSans-30"/>
      </g>
     </g>
    </g>
    <g id="ytick_2">
     <g id="line2d_17">
      <path d="M 90 298.121538 
L 648 298.121538 
" clip-path="url(#p98204c1970)" style="fill: none; stroke: #b0b0b0; stroke-width: 0.8; stroke-linecap: square"/>
     </g>
     <g id="line2d_18">
      <g>
       <use xlink:href="#med801c2ad3" x="90" y="298.121538" style="stroke: #000000; stroke-width: 0.8"/>
      </g>
     </g>
     <g id="text_10">
      <!-- 50 -->
      <g transform="translate(70.275 301.920757) scale(0.1 -0.1)">
       <use xlink:href="#DejaVuSans-35"/>
       <use xlink:href="#DejaVuSans-30" transform="translate(63.623047 0)"/>
      </g>
     </g>
    </g>
    <g id="ytick_3">
     <g id="line2d_19">
      <path d="M 90 225.429231 
L 648 225.429231 
" clip-path="url(#p98204c1970)" style="fill: none; stroke: #b0b0b0; stroke-width: 0.8; stroke-linecap: square"/>
     </g>
     <g id="line2d_20">
      <g>
       <use xlink:href="#med801c2ad3" x="90" y="225.429231" style="stroke: #000000; stroke-width: 0.8"/>
      </g>
     </g>
     <g id="text_11">
      <!-- 100 -->
      <g transform="translate(63.9125 229.22845) scale(0.1 -0.1)">
       <use xlink:href="#DejaVuSans-31"/>
       <use xlink:href="#DejaVuSans-30" transform="translate(63.623047 0)"/>
       <use xlink:href="#DejaVuSans-30" transform="translate(127.246094 0)"/>
      </g>
     </g>
    </g>
    <g id="ytick_4">
     <g id="line2d_21">
      <path d="M 90 152.736923 
L 648 152.736923 
" clip-path="url(#p98204c1970)" style="fill: none; stroke: #b0b0b0; stroke-width: 0.8; stroke-linecap: square"/>
     </g>
     <g id="line2d_22">
      <g>
       <use xlink:href="#med801c2ad3" x="90" y="152.736923" style="stroke: #000000; stroke-width: 0.8"/>
      </g>
     </g>
     <g id="text_12">
      <!-- 150 -->
      <g transform="translate(63.9125 156.536142) scale(0.1 -0.1)">
       <use xlink:href="#DejaVuSans-31"/>
       <use xlink:href="#DejaVuSans-35" transform="translate(63.623047 0)"/>
       <use xlink:href="#DejaVuSans-30" transform="translate(127.246094 0)"/>
      </g>
     </g>
    </g>
    <g id="ytick_5">
     <g id="line2d_23">
      <path d="M 90 80.044615 
L 648 80.044615 
" clip-path="url(#p98204c1970)" style="fill: none; stroke: #b0b0b0; stroke-width: 0.8; stroke-linecap: square"/>
     </g>
     <g id="line2d_24">
      <g>
       <use xlink:href="#med801c2ad3" x="90" y="80.044615" style="stroke: #000000; stroke-width: 0.8"/>
      </g>
     </g>
     <g id="text_13">
      <!-- 200 -->
      <g transform="translate(63.9125 83.843834) scale(0.1 -0.1)">
       <defs>
        <path id="DejaVuSans-32" d="M 1228 531 
L 3431 531 
L 3431 0 
L 469 0 
L 469 531 
Q 828 903 1448 1529 
Q 2069 2156 2228 2338 
Q 2531 2678 2651 2914 
Q 2772 3150 2772 3378 
Q 2772 3750 2511 3984 
Q 2250 4219 1831 4219 
Q 1534 4219 1204 4116 
Q 875 4013 500 3803 
L 500 4441 
Q 881 4594 1212 4672 
Q 1544 4750 1819 4750 
Q 2544 4750 2975 4387 
Q 3406 4025 3406 3419 
Q 3406 3131 3298 2873 
Q 3191 2616 2906 2266 
Q 2828 2175 2409 1742 
Q 1991 1309 1228 531 
z
" transform="scale(0.015625)"/>
       </defs>
       <use xlink:href="#DejaVuSans-32"/>
       <use xlink:href="#DejaVuSans-30" transform="translate(63.623047 0)"/>
       <use xlink:href="#DejaVuSans-30" transform="translate(127.246094 0)"/>
      </g>
     </g>
    </g>
    <g id="text_14">
     <!-- Votes -->
     <g transform="translate(57.832812 231.893594) rotate(-90) scale(0.1 -0.1)">
      <defs>
       <path id="DejaVuSans-56" d="M 1831 0 
L 50 4666 
L 709 4666 
L 2188 738 
L 3669 4666 
L 4325 4666 
L 2547 0 
L 1831 0 
z
" transform="scale(0.015625)"/>
       <path id="DejaVuSans-6f" d="M 1959 3097 
Q 1497 3097 1228 2736 
Q 959 2375 959 1747 
Q 959 1119 1226 758 
Q 1494 397 1959 397 
Q 2419 397 2687 759 
Q 2956 1122 2956 1747 
Q 2956 2369 2687 2733 
Q 2419 3097 1959 3097 
z
M 1959 3584 
Q 2709 3584 3137 3096 
Q 3566 2609 3566 1747 
Q 3566 888 3137 398 
Q 2709 -91 1959 -91 
Q 1206 -91 779 398 
Q 353 888 353 1747 
Q 353 2609 779 3096 
Q 1206 3584 1959 3584 
z
" transform="scale(0.015625)"/>
       <path id="DejaVuSans-73" d="M 2834 3397 
L 2834 2853 
Q 2591 2978 2328 3040 
Q 2066 3103 1784 3103 
Q 1356 3103 1142 2972 
Q 928 2841 928 2578 
Q 928 2378 1081 2264 
Q 1234 2150 1697 2047 
L 1894 2003 
Q 2506 1872 2764 1633 
Q 3022 1394 3022 966 
Q 3022 478 2636 193 
Q 2250 -91 1575 -91 
Q 1294 -91 989 -36 
Q 684 19 347 128 
L 347 722 
Q 666 556 975 473 
Q 1284 391 1588 391 
Q 1994 391 2212 530 
Q 2431 669 2431 922 
Q 2431 1156 2273 1281 
Q 2116 1406 1581 1522 
L 1381 1569 
Q 847 1681 609 1914 
Q 372 2147 372 2553 
Q 372 3047 722 3315 
Q 1072 3584 1716 3584 
Q 2034 3584 2315 3537 
Q 2597 3491 2834 3397 
z
" transform="scale(0.015625)"/>
      </defs>
      <use xlink:href="#DejaVuSans-56"/>
      <use xlink:href="#DejaVuSans-6f" transform="translate(60.658203 0)"/>
      <use xlink:href="#DejaVuSans-74" transform="translate(121.839844 0)"/>
      <use xlink:href="#DejaVuSans-65" transform="translate(161.048828 0)"/>
      <use xlink:href="#DejaVuSans-73" transform="translate(222.572266 0)"/>
     </g>
    </g>
   </g>
   <g id="line2d_25">
    <path d="M 115.363636 344.644615 
L 141.113521 344.644615 
L 143.688509 343.190769 
L 169.438394 343.190769 
L 172.013383 340.283077 
L 195.188279 340.283077 
L 197.763267 338.829231 
L 210.638209 338.829231 
L 213.213198 337.375385 
L 223.513152 337.375385 
L 226.08814 335.921538 
L 233.813106 335.921538 
L 236.388094 334.467692 
L 272.437933 334.467692 
L 275.012921 333.013846 
L 303.337794 333.013846 
L 308.487771 330.106154 
L 313.637748 330.106154 
L 316.212737 328.652308 
L 339.387633 328.652308 
L 344.53761 325.744615 
L 375.437471 325.744615 
L 378.01246 324.290769 
L 385.737425 324.290769 
L 388.312413 322.836923 
L 390.887402 322.836923 
L 393.46239 321.383077 
L 462.987079 321.383077 
L 465.562067 319.929231 
L 496.461929 319.929231 
L 499.036917 318.475385 
L 517.061837 318.475385 
L 519.636825 317.021538 
L 522.211814 314.113846 
L 524.786802 314.113846 
L 529.936779 311.206154 
L 571.136594 311.206154 
L 573.711583 309.752308 
L 589.161514 309.752308 
L 591.736502 308.298462 
L 602.036456 308.298462 
L 604.611444 306.844615 
L 622.636364 306.844615 
L 622.636364 306.844615 
" clip-path="url(#p98204c1970)" style="fill: none; stroke: #1f77b4; stroke-width: 1.5; stroke-linecap: square"/>
   </g>
   <g id="line2d_26">
    <path d="M 115.363636 251.598462 
L 117.938625 250.144615 
L 125.66359 250.144615 
L 128.238579 248.690769 
L 130.813567 248.690769 
L 133.388556 247.236923 
L 135.963544 247.236923 
L 141.113521 244.329231 
L 143.688509 241.421538 
L 146.263498 241.421538 
L 151.413475 238.513846 
L 153.988463 238.513846 
L 156.563452 232.698462 
L 159.13844 229.790769 
L 161.713429 223.975385 
L 164.288417 219.613846 
L 172.013383 219.613846 
L 174.588371 215.252308 
L 177.163359 212.344615 
L 182.313336 209.436923 
L 184.888325 206.529231 
L 190.038302 203.621538 
L 192.61329 200.713846 
L 200.338256 200.713846 
L 202.913244 193.444615 
L 205.488233 190.536923 
L 208.063221 189.083077 
L 210.638209 186.175385 
L 213.213198 184.721538 
L 215.788186 184.721538 
L 218.363175 180.36 
L 220.938163 180.36 
L 223.513152 177.452308 
L 226.08814 175.998462 
L 228.663129 175.998462 
L 231.238117 174.544615 
L 236.388094 174.544615 
L 238.963083 173.090769 
L 244.11306 173.090769 
L 246.688048 170.183077 
L 249.263036 170.183077 
L 251.838025 168.729231 
L 262.137979 168.729231 
L 264.712967 167.275385 
L 272.437933 167.275385 
L 275.012921 165.821538 
L 277.58791 165.821538 
L 280.162898 162.913846 
L 282.737886 162.913846 
L 285.312875 160.006154 
L 287.887863 158.552308 
L 295.612829 158.552308 
L 298.187817 155.644615 
L 300.762806 154.190769 
L 303.337794 149.829231 
L 308.487771 146.921538 
L 329.087679 146.921538 
L 331.662667 142.56 
L 334.237656 142.56 
L 339.387633 139.652308 
L 341.962621 139.652308 
L 349.687587 135.290769 
L 354.837563 135.290769 
L 357.412552 133.836923 
L 362.562529 133.836923 
L 370.287494 129.475385 
L 375.437471 129.475385 
L 378.01246 128.021538 
L 390.887402 128.021538 
L 393.46239 126.567692 
L 398.612367 126.567692 
L 401.187356 125.113846 
L 432.087217 125.113846 
L 434.662206 122.206154 
L 439.812183 122.206154 
L 444.96216 119.298462 
L 447.537148 119.298462 
L 450.112137 117.844615 
L 465.562067 117.844615 
L 473.287033 113.483077 
L 475.862021 113.483077 
L 478.43701 112.029231 
L 481.011998 109.121538 
L 483.586987 109.121538 
L 486.161975 107.667692 
L 488.736964 107.667692 
L 499.036917 101.852308 
L 504.186894 101.852308 
L 506.761883 98.944615 
L 514.486848 98.944615 
L 517.061837 97.490769 
L 524.786802 97.490769 
L 527.36179 96.036923 
L 529.936779 96.036923 
L 532.511767 91.675385 
L 540.236733 91.675385 
L 542.811721 90.221538 
L 545.38671 87.313846 
L 550.536687 87.313846 
L 553.111675 85.86 
L 558.261652 85.86 
L 560.836641 84.406154 
L 563.411629 84.406154 
L 576.286571 77.136923 
L 581.436548 77.136923 
L 589.161514 72.775385 
L 596.886479 72.775385 
L 599.461467 69.867692 
L 602.036456 69.867692 
L 604.611444 68.413846 
L 612.33641 68.413846 
L 614.911398 66.96 
L 622.636364 66.96 
L 622.636364 66.96 
" clip-path="url(#p98204c1970)" style="fill: none; stroke: #ff7f0e; stroke-width: 1.5; stroke-linecap: square"/>
   </g>
   <g id="line2d_27">
    <path d="M 115.363636 325.744615 
L 125.66359 325.744615 
L 128.238579 322.836923 
L 133.388556 322.836923 
L 135.963544 321.383077 
L 138.538533 318.475385 
L 141.113521 317.021538 
L 143.688509 312.66 
L 146.263498 309.752308 
L 148.838486 308.298462 
L 151.413475 308.298462 
L 153.988463 305.390769 
L 156.563452 301.029231 
L 166.863406 301.029231 
L 169.438394 299.575385 
L 172.013383 299.575385 
L 174.588371 296.667692 
L 182.313336 296.667692 
L 187.463313 293.76 
L 197.763267 293.76 
L 200.338256 292.306154 
L 210.638209 292.306154 
L 218.363175 287.944615 
L 231.238117 287.944615 
L 233.813106 286.490769 
L 241.538071 286.490769 
L 244.11306 285.036923 
L 249.263036 285.036923 
L 251.838025 282.129231 
L 272.437933 282.129231 
L 275.012921 280.675385 
L 277.58791 277.767692 
L 280.162898 276.313846 
L 282.737886 276.313846 
L 285.312875 274.86 
L 290.462852 274.86 
L 293.03784 273.406154 
L 298.187817 273.406154 
L 300.762806 271.952308 
L 316.212737 271.952308 
L 318.787725 270.498462 
L 321.362713 270.498462 
L 323.937702 269.044615 
L 326.51269 269.044615 
L 329.087679 267.590769 
L 336.812644 267.590769 
L 339.387633 266.136923 
L 341.962621 263.229231 
L 354.837563 263.229231 
L 362.562529 258.867692 
L 370.287494 258.867692 
L 372.862483 257.413846 
L 383.162437 257.413846 
L 385.737425 255.96 
L 388.312413 255.96 
L 390.887402 254.506154 
L 396.037379 254.506154 
L 398.612367 253.052308 
L 406.337333 253.052308 
L 411.48731 250.144615 
L 414.062298 250.144615 
L 416.637287 248.690769 
L 437.237194 248.690769 
L 439.812183 245.783077 
L 442.387171 244.329231 
L 462.987079 244.329231 
L 465.562067 242.875385 
L 473.287033 242.875385 
L 475.862021 241.421538 
L 483.586987 241.421538 
L 486.161975 239.967692 
L 511.91186 239.967692 
L 514.486848 238.513846 
L 524.786802 238.513846 
L 527.36179 237.06 
L 542.811721 237.06 
L 545.38671 235.606154 
L 550.536687 235.606154 
L 553.111675 234.152308 
L 563.411629 234.152308 
L 568.561606 231.244615 
L 617.486387 231.244615 
L 620.061375 229.790769 
L 622.636364 229.790769 
L 622.636364 229.790769 
" clip-path="url(#p98204c1970)" style="fill: none; stroke: #2ca02c; stroke-width: 1.5; stroke-linecap: square"/>
   </g>
   <g id="line2d_28">
    <path d="M 115.363636 369.36 
L 622.636364 369.36 
L 622.636364 369.36 
" clip-path="url(#p98204c1970)" style="fill: none; stroke: #d62728; stroke-width: 1.5; stroke-linecap: square"/>
   </g>
   <g id="line2d_29">
    <path d="M 115.363636 337.375385 
L 123.088602 337.375385 
L 125.66359 335.921538 
L 141.113521 335.921538 
L 143.688509 334.467692 
L 159.13844 334.467692 
L 161.713429 333.013846 
L 218.363175 333.013846 
L 220.938163 331.56 
L 313.637748 331.56 
L 318.787725 328.652308 
L 339.387633 328.652308 
L 341.962621 327.198462 
L 352.262575 327.198462 
L 354.837563 325.744615 
L 359.98754 325.744615 
L 362.562529 324.290769 
L 429.512229 324.290769 
L 432.087217 322.836923 
L 537.661744 322.836923 
L 540.236733 321.383077 
L 622.636364 321.383077 
L 622.636364 321.383077 
" clip-path="url(#p98204c1970)" style="fill: none; stroke: #9467bd; stroke-width: 1.5; stroke-linecap: square"/>
   </g>
   <g id="line2d_30">
    <path d="M 115.363636 349.006154 
L 117.938625 349.006154 
L 120.513613 347.552308 
L 156.563452 347.552308 
L 159.13844 346.098462 
L 190.038302 346.098462 
L 192.61329 344.644615 
L 231.238117 344.644615 
L 236.388094 341.736923 
L 264.712967 341.736923 
L 267.287956 340.283077 
L 344.53761 340.283077 
L 347.112598 338.829231 
L 370.287494 338.829231 
L 372.862483 337.375385 
L 416.637287 337.375385 
L 419.212275 335.921538 
L 460.41209 335.921538 
L 462.987079 334.467692 
L 473.287033 334.467692 
L 475.862021 333.013846 
L 499.036917 333.013846 
L 501.611906 331.56 
L 563.411629 331.56 
L 565.986617 330.106154 
L 581.436548 330.106154 
L 584.011537 328.652308 
L 599.461467 328.652308 
L 602.036456 327.198462 
L 612.33641 327.198462 
L 614.911398 325.744615 
L 622.636364 325.744615 
L 622.636364 325.744615 
" clip-path="url(#p98204c1970)" style="fill: none; stroke: #8c564b; stroke-width: 1.5; stroke-linecap: square"/>
   </g>
   <g id="line2d_31">
    <path d="M 115.363636 241.421538 
L 125.66359 241.421538 
L 128.238579 239.967692 
L 138.538533 239.967692 
L 143.688509 237.06 
L 146.263498 237.06 
L 148.838486 235.606154 
L 151.413475 235.606154 
L 153.988463 234.152308 
L 159.13844 234.152308 
L 161.713429 232.698462 
L 169.438394 232.698462 
L 172.013383 231.244615 
L 177.163359 231.244615 
L 179.738348 229.790769 
L 182.313336 229.790769 
L 184.888325 228.336923 
L 190.038302 228.336923 
L 195.188279 225.429231 
L 205.488233 225.429231 
L 208.063221 223.975385 
L 215.788186 223.975385 
L 220.938163 221.067692 
L 226.08814 221.067692 
L 228.663129 219.613846 
L 233.813106 219.613846 
L 236.388094 218.16 
L 238.963083 215.252308 
L 241.538071 210.890769 
L 246.688048 210.890769 
L 249.263036 209.436923 
L 262.137979 209.436923 
L 267.287956 206.529231 
L 269.862944 203.621538 
L 272.437933 202.167692 
L 275.012921 202.167692 
L 277.58791 199.26 
L 287.887863 199.26 
L 290.462852 197.806154 
L 293.03784 197.806154 
L 298.187817 194.898462 
L 300.762806 194.898462 
L 303.337794 193.444615 
L 305.912783 193.444615 
L 311.06276 190.536923 
L 316.212737 190.536923 
L 318.787725 187.629231 
L 329.087679 187.629231 
L 334.237656 184.721538 
L 339.387633 184.721538 
L 341.962621 183.267692 
L 344.53761 180.36 
L 352.262575 180.36 
L 354.837563 178.906154 
L 357.412552 178.906154 
L 359.98754 175.998462 
L 362.562529 175.998462 
L 365.137517 174.544615 
L 367.712506 174.544615 
L 370.287494 173.090769 
L 380.587448 173.090769 
L 385.737425 170.183077 
L 388.312413 170.183077 
L 390.887402 167.275385 
L 393.46239 167.275385 
L 396.037379 165.821538 
L 398.612367 165.821538 
L 401.187356 164.367692 
L 408.912321 164.367692 
L 411.48731 162.913846 
L 414.062298 162.913846 
L 424.362252 157.098462 
L 426.93724 154.190769 
L 432.087217 154.190769 
L 437.237194 148.375385 
L 442.387171 148.375385 
L 447.537148 145.467692 
L 450.112137 145.467692 
L 452.687125 142.56 
L 455.262114 142.56 
L 457.837102 141.106154 
L 460.41209 141.106154 
L 462.987079 139.652308 
L 468.137056 139.652308 
L 470.712044 138.198462 
L 473.287033 138.198462 
L 475.862021 136.744615 
L 486.161975 136.744615 
L 488.736964 129.475385 
L 491.311952 129.475385 
L 493.88694 128.021538 
L 501.611906 128.021538 
L 504.186894 126.567692 
L 527.36179 126.567692 
L 529.936779 123.66 
L 540.236733 123.66 
L 542.811721 122.206154 
L 568.561606 122.206154 
L 571.136594 119.298462 
L 573.711583 117.844615 
L 586.586525 117.844615 
L 589.161514 116.390769 
L 607.186433 116.390769 
L 609.761421 114.936923 
L 612.33641 114.936923 
L 614.911398 113.483077 
L 622.636364 113.483077 
L 622.636364 113.483077 
" clip-path="url(#p98204c1970)" style="fill: none; stroke: #e377c2; stroke-width: 1.5; stroke-linecap: square"/>
   </g>
   <g id="line2d_32">
    <path d="M 115.363636 331.56 
L 117.938625 331.56 
L 123.088602 328.652308 
L 135.963544 328.652308 
L 138.538533 327.198462 
L 141.113521 327.198462 
L 146.263498 324.290769 
L 151.413475 324.290769 
L 153.988463 322.836923 
L 161.713429 322.836923 
L 164.288417 321.383077 
L 166.863406 321.383077 
L 169.438394 319.929231 
L 172.013383 319.929231 
L 177.163359 317.021538 
L 184.888325 317.021538 
L 187.463313 315.567692 
L 192.61329 315.567692 
L 197.763267 312.66 
L 202.913244 312.66 
L 208.063221 309.752308 
L 210.638209 309.752308 
L 213.213198 308.298462 
L 215.788186 303.936923 
L 226.08814 303.936923 
L 236.388094 298.121538 
L 238.963083 298.121538 
L 244.11306 295.213846 
L 246.688048 295.213846 
L 249.263036 293.76 
L 251.838025 293.76 
L 254.413013 292.306154 
L 277.58791 292.306154 
L 280.162898 290.852308 
L 305.912783 290.852308 
L 311.06276 287.944615 
L 318.787725 287.944615 
L 321.362713 286.490769 
L 326.51269 286.490769 
L 331.662667 283.583077 
L 336.812644 283.583077 
L 339.387633 280.675385 
L 347.112598 280.675385 
L 349.687587 277.767692 
L 352.262575 276.313846 
L 365.137517 276.313846 
L 367.712506 274.86 
L 370.287494 274.86 
L 375.437471 271.952308 
L 388.312413 271.952308 
L 390.887402 270.498462 
L 393.46239 270.498462 
L 396.037379 269.044615 
L 411.48731 269.044615 
L 414.062298 267.590769 
L 421.787263 267.590769 
L 424.362252 266.136923 
L 426.93724 266.136923 
L 429.512229 261.775385 
L 432.087217 261.775385 
L 434.662206 258.867692 
L 437.237194 257.413846 
L 439.812183 257.413846 
L 444.96216 254.506154 
L 450.112137 254.506154 
L 452.687125 253.052308 
L 457.837102 253.052308 
L 460.41209 251.598462 
L 462.987079 251.598462 
L 465.562067 248.690769 
L 468.137056 248.690769 
L 470.712044 247.236923 
L 475.862021 247.236923 
L 481.011998 244.329231 
L 483.586987 244.329231 
L 486.161975 241.421538 
L 488.736964 239.967692 
L 506.761883 239.967692 
L 509.336871 237.06 
L 517.061837 237.06 
L 519.636825 235.606154 
L 522.211814 235.606154 
L 524.786802 234.152308 
L 532.511767 234.152308 
L 535.086756 232.698462 
L 547.961698 232.698462 
L 550.536687 231.244615 
L 555.686664 231.244615 
L 558.261652 229.790769 
L 571.136594 229.790769 
L 573.711583 228.336923 
L 596.886479 228.336923 
L 602.036456 225.429231 
L 604.611444 225.429231 
L 607.186433 223.975385 
L 609.761421 223.975385 
L 612.33641 222.521538 
L 614.911398 222.521538 
L 617.486387 221.067692 
L 622.636364 221.067692 
L 622.636364 221.067692 
" clip-path="url(#p98204c1970)" style="fill: none; stroke: #7f7f7f; stroke-width: 1.5; stroke-linecap: square"/>
   </g>
   <g id="line2d_33">
    <path d="M 115.363636 340.283077 
L 125.66359 340.283077 
L 128.238579 338.829231 
L 153.988463 338.829231 
L 156.563452 337.375385 
L 169.438394 337.375385 
L 172.013383 335.921538 
L 197.763267 335.921538 
L 200.338256 334.467692 
L 226.08814 334.467692 
L 228.663129 333.013846 
L 367.712506 333.013846 
L 370.287494 331.56 
L 383.162437 331.56 
L 385.737425 330.106154 
L 403.762344 330.106154 
L 406.337333 328.652308 
L 408.912321 328.652308 
L 411.48731 324.290769 
L 414.062298 322.836923 
L 419.212275 322.836923 
L 421.787263 321.383077 
L 447.537148 321.383077 
L 450.112137 319.929231 
L 473.287033 319.929231 
L 475.862021 318.475385 
L 504.186894 318.475385 
L 506.761883 317.021538 
L 537.661744 317.021538 
L 540.236733 315.567692 
L 553.111675 315.567692 
L 555.686664 314.113846 
L 622.636364 314.113846 
L 622.636364 314.113846 
" clip-path="url(#p98204c1970)" style="fill: none; stroke: #bcbd22; stroke-width: 1.5; stroke-linecap: square"/>
   </g>
   <g id="line2d_34">
    <path d="M 115.363636 366.452308 
L 244.11306 366.452308 
L 246.688048 364.998462 
L 408.912321 364.998462 
L 411.48731 363.544615 
L 622.636364 363.544615 
L 622.636364 363.544615 
" clip-path="url(#p98204c1970)" style="fill: none; stroke: #17becf; stroke-width: 1.5; stroke-linecap: square"/>
   </g>
   <g id="line2d_35">
    <path d="M 115.363636 369.36 
L 117.938625 367.906154 
L 123.088602 367.906154 
L 125.66359 366.452308 
L 143.688509 366.452308 
L 146.263498 364.998462 
L 153.988463 364.998462 
L 156.563452 363.544615 
L 159.13844 363.544615 
L 164.288417 360.636923 
L 177.163359 360.636923 
L 182.313336 357.729231 
L 184.888325 357.729231 
L 187.463313 356.275385 
L 205.488233 356.275385 
L 208.063221 354.821538 
L 210.638209 351.913846 
L 215.788186 351.913846 
L 218.363175 350.46 
L 220.938163 350.46 
L 223.513152 349.006154 
L 226.08814 349.006154 
L 228.663129 347.552308 
L 231.238117 347.552308 
L 236.388094 344.644615 
L 251.838025 344.644615 
L 256.988002 341.736923 
L 264.712967 341.736923 
L 267.287956 340.283077 
L 269.862944 340.283077 
L 272.437933 337.375385 
L 280.162898 337.375385 
L 285.312875 331.56 
L 300.762806 331.56 
L 303.337794 328.652308 
L 305.912783 327.198462 
L 313.637748 327.198462 
L 316.212737 325.744615 
L 318.787725 322.836923 
L 323.937702 322.836923 
L 326.51269 321.383077 
L 362.562529 321.383077 
L 365.137517 318.475385 
L 383.162437 308.298462 
L 408.912321 308.298462 
L 416.637287 303.936923 
L 421.787263 303.936923 
L 424.362252 301.029231 
L 429.512229 301.029231 
L 432.087217 299.575385 
L 439.812183 299.575385 
L 442.387171 298.121538 
L 444.96216 298.121538 
L 447.537148 296.667692 
L 450.112137 296.667692 
L 455.262114 293.76 
L 488.736964 293.76 
L 493.88694 290.852308 
L 514.486848 290.852308 
L 517.061837 289.398462 
L 524.786802 289.398462 
L 529.936779 286.490769 
L 537.661744 286.490769 
L 540.236733 285.036923 
L 545.38671 285.036923 
L 547.961698 283.583077 
L 560.836641 283.583077 
L 563.411629 282.129231 
L 565.986617 282.129231 
L 568.561606 279.221538 
L 571.136594 279.221538 
L 573.711583 277.767692 
L 586.586525 277.767692 
L 589.161514 276.313846 
L 594.311491 276.313846 
L 596.886479 274.86 
L 599.461467 274.86 
L 604.611444 271.952308 
L 622.636364 271.952308 
L 622.636364 271.952308 
" clip-path="url(#p98204c1970)" style="fill: none; stroke: #1f77b4; stroke-width: 1.5; stroke-linecap: square"/>
   </g>
   <g id="line2d_36">
    <path d="M 115.363636 315.567692 
L 133.388556 315.567692 
L 135.963544 314.113846 
L 143.688509 314.113846 
L 146.263498 312.66 
L 156.563452 312.66 
L 159.13844 311.206154 
L 166.863406 311.206154 
L 169.438394 309.752308 
L 172.013383 309.752308 
L 174.588371 308.298462 
L 182.313336 308.298462 
L 184.888325 306.844615 
L 190.038302 306.844615 
L 192.61329 305.390769 
L 195.188279 305.390769 
L 200.338256 302.483077 
L 215.788186 302.483077 
L 218.363175 301.029231 
L 220.938163 301.029231 
L 223.513152 299.575385 
L 226.08814 299.575385 
L 228.663129 296.667692 
L 231.238117 292.306154 
L 233.813106 290.852308 
L 244.11306 290.852308 
L 251.838025 286.490769 
L 259.56299 286.490769 
L 264.712967 283.583077 
L 293.03784 283.583077 
L 295.612829 279.221538 
L 298.187817 279.221538 
L 303.337794 273.406154 
L 308.487771 270.498462 
L 311.06276 270.498462 
L 313.637748 267.590769 
L 334.237656 267.590769 
L 336.812644 264.683077 
L 344.53761 264.683077 
L 347.112598 263.229231 
L 365.137517 263.229231 
L 367.712506 261.775385 
L 398.612367 261.775385 
L 401.187356 260.321538 
L 403.762344 260.321538 
L 406.337333 258.867692 
L 414.062298 258.867692 
L 416.637287 257.413846 
L 447.537148 257.413846 
L 450.112137 255.96 
L 455.262114 255.96 
L 460.41209 250.144615 
L 465.562067 250.144615 
L 470.712044 247.236923 
L 475.862021 247.236923 
L 478.43701 245.783077 
L 486.161975 245.783077 
L 488.736964 244.329231 
L 519.636825 244.329231 
L 522.211814 242.875385 
L 560.836641 242.875385 
L 563.411629 241.421538 
L 586.586525 241.421538 
L 589.161514 239.967692 
L 594.311491 239.967692 
L 596.886479 238.513846 
L 604.611444 238.513846 
L 609.761421 235.606154 
L 612.33641 235.606154 
L 614.911398 234.152308 
L 622.636364 234.152308 
L 622.636364 234.152308 
" clip-path="url(#p98204c1970)" style="fill: none; stroke: #ff7f0e; stroke-width: 1.5; stroke-linecap: square"/>
   </g>
   <g id="patch_3">
    <path d="M 90 384.48 
L 90 51.84 
" style="fill: none; stroke: #000000; stroke-width: 0.8; stroke-linejoin: miter; stroke-linecap: square"/>
   </g>
   <g id="patch_4">
    <path d="M 648 384.48 
L 648 51.84 
" style="fill: none; stroke: #000000; stroke-width: 0.8; stroke-linejoin: miter; stroke-linecap: square"/>
   </g>
   <g id="patch_5">
    <path d="M 90 384.48 
L 648 384.48 
" style="fill: none; stroke: #000000; stroke-width: 0.8; stroke-linejoin: miter; stroke-linecap: square"/>
   </g>
   <g id="patch_6">
    <path d="M 90 51.84 
L 648 51.84 
" style="fill: none; stroke: #000000; stroke-width: 0.8; stroke-linejoin: miter; stroke-linecap: square"/>
   </g>
   <g id="text_15">
    <!-- Time Series of Votes for Each Keyword -->
    <g transform="translate(253.716563 45.84) scale(0.12 -0.12)">
     <defs>
      <path id="DejaVuSans-53" d="M 3425 4513 
L 3425 3897 
Q 3066 4069 2747 4153 
Q 2428 4238 2131 4238 
Q 1616 4238 1336 4038 
Q 1056 3838 1056 3469 
Q 1056 3159 1242 3001 
Q 1428 2844 1947 2747 
L 2328 2669 
Q 3034 2534 3370 2195 
Q 3706 1856 3706 1288 
Q 3706 609 3251 259 
Q 2797 -91 1919 -91 
Q 1588 -91 1214 -16 
Q 841 59 441 206 
L 441 856 
Q 825 641 1194 531 
Q 1563 422 1919 422 
Q 2459 422 2753 634 
Q 3047 847 3047 1241 
Q 3047 1584 2836 1778 
Q 2625 1972 2144 2069 
L 1759 2144 
Q 1053 2284 737 2584 
Q 422 2884 422 3419 
Q 422 4038 858 4394 
Q 1294 4750 2059 4750 
Q 2388 4750 2728 4690 
Q 3069 4631 3425 4513 
z
" transform="scale(0.015625)"/>
      <path id="DejaVuSans-72" d="M 2631 2963 
Q 2534 3019 2420 3045 
Q 2306 3072 2169 3072 
Q 1681 3072 1420 2755 
Q 1159 2438 1159 1844 
L 1159 0 
L 581 0 
L 581 3500 
L 1159 3500 
L 1159 2956 
Q 1341 3275 1631 3429 
Q 1922 3584 2338 3584 
Q 2397 3584 2469 3576 
Q 2541 3569 2628 3553 
L 2631 2963 
z
" transform="scale(0.015625)"/>
      <path id="DejaVuSans-66" d="M 2375 4863 
L 2375 4384 
L 1825 4384 
Q 1516 4384 1395 4259 
Q 1275 4134 1275 3809 
L 1275 3500 
L 2222 3500 
L 2222 3053 
L 1275 3053 
L 1275 0 
L 697 0 
L 697 3053 
L 147 3053 
L 147 3500 
L 697 3500 
L 697 3744 
Q 697 4328 969 4595 
Q 1241 4863 1831 4863 
L 2375 4863 
z
" transform="scale(0.015625)"/>
      <path id="DejaVuSans-45" d="M 628 4666 
L 3578 4666 
L 3578 4134 
L 1259 4134 
L 1259 2753 
L 3481 2753 
L 3481 2222 
L 1259 2222 
L 1259 531 
L 3634 531 
L 3634 0 
L 628 0 
L 628 4666 
z
" transform="scale(0.015625)"/>
      <path id="DejaVuSans-63" d="M 3122 3366 
L 3122 2828 
Q 2878 2963 2633 3030 
Q 2388 3097 2138 3097 
Q 1578 3097 1268 2742 
Q 959 2388 959 1747 
Q 959 1106 1268 751 
Q 1578 397 2138 397 
Q 2388 397 2633 464 
Q 2878 531 3122 666 
L 3122 134 
Q 2881 22 2623 -34 
Q 2366 -91 2075 -91 
Q 1284 -91 818 406 
Q 353 903 353 1747 
Q 353 2603 823 3093 
Q 1294 3584 2113 3584 
Q 2378 3584 2631 3529 
Q 2884 3475 3122 3366 
z
" transform="scale(0.015625)"/>
      <path id="DejaVuSans-68" d="M 3513 2113 
L 3513 0 
L 2938 0 
L 2938 2094 
Q 2938 2591 2744 2837 
Q 2550 3084 2163 3084 
Q 1697 3084 1428 2787 
Q 1159 2491 1159 1978 
L 1159 0 
L 581 0 
L 581 4863 
L 1159 4863 
L 1159 2956 
Q 1366 3272 1645 3428 
Q 1925 3584 2291 3584 
Q 2894 3584 3203 3211 
Q 3513 2838 3513 2113 
z
" transform="scale(0.015625)"/>
      <path id="DejaVuSans-4b" d="M 628 4666 
L 1259 4666 
L 1259 2694 
L 3353 4666 
L 4166 4666 
L 1850 2491 
L 4331 0 
L 3500 0 
L 1259 2247 
L 1259 0 
L 628 0 
L 628 4666 
z
" transform="scale(0.015625)"/>
      <path id="DejaVuSans-79" d="M 2059 -325 
Q 1816 -950 1584 -1140 
Q 1353 -1331 966 -1331 
L 506 -1331 
L 506 -850 
L 844 -850 
Q 1081 -850 1212 -737 
Q 1344 -625 1503 -206 
L 1606 56 
L 191 3500 
L 800 3500 
L 1894 763 
L 2988 3500 
L 3597 3500 
L 2059 -325 
z
" transform="scale(0.015625)"/>
      <path id="DejaVuSans-77" d="M 269 3500 
L 844 3500 
L 1563 769 
L 2278 3500 
L 2956 3500 
L 3675 769 
L 4391 3500 
L 4966 3500 
L 4050 0 
L 3372 0 
L 2619 2869 
L 1863 0 
L 1184 0 
L 269 3500 
z
" transform="scale(0.015625)"/>
     </defs>
     <use xlink:href="#DejaVuSans-54"/>
     <use xlink:href="#DejaVuSans-69" transform="translate(57.958984 0)"/>
     <use xlink:href="#DejaVuSans-6d" transform="translate(85.742188 0)"/>
     <use xlink:href="#DejaVuSans-65" transform="translate(183.154297 0)"/>
     <use xlink:href="#DejaVuSans-20" transform="translate(244.677734 0)"/>
     <use xlink:href="#DejaVuSans-53" transform="translate(276.464844 0)"/>
     <use xlink:href="#DejaVuSans-65" transform="translate(339.941406 0)"/>
     <use xlink:href="#DejaVuSans-72" transform="translate(401.464844 0)"/>
     <use xlink:href="#DejaVuSans-69" transform="translate(442.578125 0)"/>
     <use xlink:href="#DejaVuSans-65" transform="translate(470.361328 0)"/>
     <use xlink:href="#DejaVuSans-73" transform="translate(531.884766 0)"/>
     <use xlink:href="#DejaVuSans-20" transform="translate(583.984375 0)"/>
     <use xlink:href="#DejaVuSans-6f" transform="translate(615.771484 0)"/>
     <use xlink:href="#DejaVuSans-66" transform="translate(676.953125 0)"/>
     <use xlink:href="#DejaVuSans-20" transform="translate(712.158203 0)"/>
     <use xlink:href="#DejaVuSans-56" transform="translate(743.945312 0)"/>
     <use xlink:href="#DejaVuSans-6f" transform="translate(804.603516 0)"/>
     <use xlink:href="#DejaVuSans-74" transform="translate(865.785156 0)"/>
     <use xlink:href="#DejaVuSans-65" transform="translate(904.994141 0)"/>
     <use xlink:href="#DejaVuSans-73" transform="translate(966.517578 0)"/>
     <use xlink:href="#DejaVuSans-20" transform="translate(1018.617188 0)"/>
     <use xlink:href="#DejaVuSans-66" transform="translate(1050.404297 0)"/>
     <use xlink:href="#DejaVuSans-6f" transform="translate(1085.609375 0)"/>
     <use xlink:href="#DejaVuSans-72" transform="translate(1146.791016 0)"/>
     <use xlink:href="#DejaVuSans-20" transform="translate(1187.904297 0)"/>
     <use xlink:href="#DejaVuSans-45" transform="translate(1219.691406 0)"/>
     <use xlink:href="#DejaVuSans-61" transform="translate(1282.875 0)"/>
     <use xlink:href="#DejaVuSans-63" transform="translate(1344.154297 0)"/>
     <use xlink:href="#DejaVuSans-68" transform="translate(1399.134766 0)"/>
     <use xlink:href="#DejaVuSans-20" transform="translate(1462.513672 0)"/>
     <use xlink:href="#DejaVuSans-4b" transform="translate(1494.300781 0)"/>
     <use xlink:href="#DejaVuSans-65" transform="translate(1554.876953 0)"/>
     <use xlink:href="#DejaVuSans-79" transform="translate(1616.400391 0)"/>
     <use xlink:href="#DejaVuSans-77" transform="translate(1675.580078 0)"/>
     <use xlink:href="#DejaVuSans-6f" transform="translate(1757.367188 0)"/>
     <use xlink:href="#DejaVuSans-72" transform="translate(1818.548828 0)"/>
     <use xlink:href="#DejaVuSans-64" transform="translate(1857.912109 0)"/>
    </g>
   </g>
   <g id="legend_1">
    <g id="patch_7">
     <path d="M 97 235.9775 
L 149.245313 235.9775 
Q 151.245313 235.9775 151.245313 233.9775 
L 151.245313 58.84 
Q 151.245313 56.84 149.245313 56.84 
L 97 56.84 
Q 95 56.84 95 58.84 
L 95 233.9775 
Q 95 235.9775 97 235.9775 
z
" style="fill: #ffffff; opacity: 0.8; stroke: #cccccc; stroke-linejoin: miter"/>
    </g>
    <g id="line2d_37">
     <path d="M 99 64.938437 
L 109 64.938437 
L 119 64.938437 
" style="fill: none; stroke: #1f77b4; stroke-width: 1.5; stroke-linecap: square"/>
    </g>
    <g id="text_16">
     <!-- H01 -->
     <g transform="translate(127 68.438437) scale(0.1 -0.1)">
      <defs>
       <path id="DejaVuSans-48" d="M 628 4666 
L 1259 4666 
L 1259 2753 
L 3553 2753 
L 3553 4666 
L 4184 4666 
L 4184 0 
L 3553 0 
L 3553 2222 
L 1259 2222 
L 1259 0 
L 628 0 
L 628 4666 
z
" transform="scale(0.015625)"/>
      </defs>
      <use xlink:href="#DejaVuSans-48"/>
      <use xlink:href="#DejaVuSans-30" transform="translate(75.195312 0)"/>
      <use xlink:href="#DejaVuSans-31" transform="translate(138.818359 0)"/>
     </g>
    </g>
    <g id="line2d_38">
     <path d="M 99 79.616562 
L 109 79.616562 
L 119 79.616562 
" style="fill: none; stroke: #ff7f0e; stroke-width: 1.5; stroke-linecap: square"/>
    </g>
    <g id="text_17">
     <!-- H02 -->
     <g transform="translate(127 83.116562) scale(0.1 -0.1)">
      <use xlink:href="#DejaVuSans-48"/>
      <use xlink:href="#DejaVuSans-30" transform="translate(75.195312 0)"/>
      <use xlink:href="#DejaVuSans-32" transform="translate(138.818359 0)"/>
     </g>
    </g>
    <g id="line2d_39">
     <path d="M 99 94.294688 
L 109 94.294688 
L 119 94.294688 
" style="fill: none; stroke: #2ca02c; stroke-width: 1.5; stroke-linecap: square"/>
    </g>
    <g id="text_18">
     <!-- H03 -->
     <g transform="translate(127 97.794688) scale(0.1 -0.1)">
      <use xlink:href="#DejaVuSans-48"/>
      <use xlink:href="#DejaVuSans-30" transform="translate(75.195312 0)"/>
      <use xlink:href="#DejaVuSans-33" transform="translate(138.818359 0)"/>
     </g>
    </g>
    <g id="line2d_40">
     <path d="M 99 108.972812 
L 109 108.972812 
L 119 108.972812 
" style="fill: none; stroke: #d62728; stroke-width: 1.5; stroke-linecap: square"/>
    </g>
    <g id="text_19">
     <!-- H04 -->
     <g transform="translate(127 112.472812) scale(0.1 -0.1)">
      <use xlink:href="#DejaVuSans-48"/>
      <use xlink:href="#DejaVuSans-30" transform="translate(75.195312 0)"/>
      <use xlink:href="#DejaVuSans-34" transform="translate(138.818359 0)"/>
     </g>
    </g>
    <g id="line2d_41">
     <path d="M 99 123.650937 
L 109 123.650937 
L 119 123.650937 
" style="fill: none; stroke: #9467bd; stroke-width: 1.5; stroke-linecap: square"/>
    </g>
    <g id="text_20">
     <!-- H05 -->
     <g transform="translate(127 127.150937) scale(0.1 -0.1)">
      <use xlink:href="#DejaVuSans-48"/>
      <use xlink:href="#DejaVuSans-30" transform="translate(75.195312 0)"/>
      <use xlink:href="#DejaVuSans-35" transform="translate(138.818359 0)"/>
     </g>
    </g>
    <g id="line2d_42">
     <path d="M 99 138.329062 
L 109 138.329062 
L 119 138.329062 
" style="fill: none; stroke: #8c564b; stroke-width: 1.5; stroke-linecap: square"/>
    </g>
    <g id="text_21">
     <!-- H06 -->
     <g transform="translate(127 141.829062) scale(0.1 -0.1)">
      <use xlink:href="#DejaVuSans-48"/>
      <use xlink:href="#DejaVuSans-30" transform="translate(75.195312 0)"/>
      <use xlink:href="#DejaVuSans-36" transform="translate(138.818359 0)"/>
     </g>
    </g>
    <g id="line2d_43">
     <path d="M 99 153.007187 
L 109 153.007187 
L 119 153.007187 
" style="fill: none; stroke: #e377c2; stroke-width: 1.5; stroke-linecap: square"/>
    </g>
    <g id="text_22">
     <!-- H07 -->
     <g transform="translate(127 156.507187) scale(0.1 -0.1)">
      <defs>
       <path id="DejaVuSans-37" d="M 525 4666 
L 3525 4666 
L 3525 4397 
L 1831 0 
L 1172 0 
L 2766 4134 
L 525 4134 
L 525 4666 
z
" transform="scale(0.015625)"/>
      </defs>
      <use xlink:href="#DejaVuSans-48"/>
      <use xlink:href="#DejaVuSans-30" transform="translate(75.195312 0)"/>
      <use xlink:href="#DejaVuSans-37" transform="translate(138.818359 0)"/>
     </g>
    </g>
    <g id="line2d_44">
     <path d="M 99 167.685312 
L 109 167.685312 
L 119 167.685312 
" style="fill: none; stroke: #7f7f7f; stroke-width: 1.5; stroke-linecap: square"/>
    </g>
    <g id="text_23">
     <!-- H08 -->
     <g transform="translate(127 171.185312) scale(0.1 -0.1)">
      <defs>
       <path id="DejaVuSans-38" d="M 2034 2216 
Q 1584 2216 1326 1975 
Q 1069 1734 1069 1313 
Q 1069 891 1326 650 
Q 1584 409 2034 409 
Q 2484 409 2743 651 
Q 3003 894 3003 1313 
Q 3003 1734 2745 1975 
Q 2488 2216 2034 2216 
z
M 1403 2484 
Q 997 2584 770 2862 
Q 544 3141 544 3541 
Q 544 4100 942 4425 
Q 1341 4750 2034 4750 
Q 2731 4750 3128 4425 
Q 3525 4100 3525 3541 
Q 3525 3141 3298 2862 
Q 3072 2584 2669 2484 
Q 3125 2378 3379 2068 
Q 3634 1759 3634 1313 
Q 3634 634 3220 271 
Q 2806 -91 2034 -91 
Q 1263 -91 848 271 
Q 434 634 434 1313 
Q 434 1759 690 2068 
Q 947 2378 1403 2484 
z
M 1172 3481 
Q 1172 3119 1398 2916 
Q 1625 2713 2034 2713 
Q 2441 2713 2670 2916 
Q 2900 3119 2900 3481 
Q 2900 3844 2670 4047 
Q 2441 4250 2034 4250 
Q 1625 4250 1398 4047 
Q 1172 3844 1172 3481 
z
" transform="scale(0.015625)"/>
      </defs>
      <use xlink:href="#DejaVuSans-48"/>
      <use xlink:href="#DejaVuSans-30" transform="translate(75.195312 0)"/>
      <use xlink:href="#DejaVuSans-38" transform="translate(138.818359 0)"/>
     </g>
    </g>
    <g id="line2d_45">
     <path d="M 99 182.363437 
L 109 182.363437 
L 119 182.363437 
" style="fill: none; stroke: #bcbd22; stroke-width: 1.5; stroke-linecap: square"/>
    </g>
    <g id="text_24">
     <!-- H09 -->
     <g transform="translate(127 185.863437) scale(0.1 -0.1)">
      <defs>
       <path id="DejaVuSans-39" d="M 703 97 
L 703 672 
Q 941 559 1184 500 
Q 1428 441 1663 441 
Q 2288 441 2617 861 
Q 2947 1281 2994 2138 
Q 2813 1869 2534 1725 
Q 2256 1581 1919 1581 
Q 1219 1581 811 2004 
Q 403 2428 403 3163 
Q 403 3881 828 4315 
Q 1253 4750 1959 4750 
Q 2769 4750 3195 4129 
Q 3622 3509 3622 2328 
Q 3622 1225 3098 567 
Q 2575 -91 1691 -91 
Q 1453 -91 1209 -44 
Q 966 3 703 97 
z
M 1959 2075 
Q 2384 2075 2632 2365 
Q 2881 2656 2881 3163 
Q 2881 3666 2632 3958 
Q 2384 4250 1959 4250 
Q 1534 4250 1286 3958 
Q 1038 3666 1038 3163 
Q 1038 2656 1286 2365 
Q 1534 2075 1959 2075 
z
" transform="scale(0.015625)"/>
      </defs>
      <use xlink:href="#DejaVuSans-48"/>
      <use xlink:href="#DejaVuSans-30" transform="translate(75.195312 0)"/>
      <use xlink:href="#DejaVuSans-39" transform="translate(138.818359 0)"/>
     </g>
    </g>
    <g id="line2d_46">
     <path d="M 99 197.041562 
L 109 197.041562 
L 119 197.041562 
" style="fill: none; stroke: #17becf; stroke-width: 1.5; stroke-linecap: square"/>
    </g>
    <g id="text_25">
     <!-- H10 -->
     <g transform="translate(127 200.541562) scale(0.1 -0.1)">
      <use xlink:href="#DejaVuSans-48"/>
      <use xlink:href="#DejaVuSans-31" transform="translate(75.195312 0)"/>
      <use xlink:href="#DejaVuSans-30" transform="translate(138.818359 0)"/>
     </g>
    </g>
    <g id="line2d_47">
     <path d="M 99 211.719687 
L 109 211.719687 
L 119 211.719687 
" style="fill: none; stroke: #1f77b4; stroke-width: 1.5; stroke-linecap: square"/>
    </g>
    <g id="text_26">
     <!-- H11 -->
     <g transform="translate(127 215.219687) scale(0.1 -0.1)">
      <use xlink:href="#DejaVuSans-48"/>
      <use xlink:href="#DejaVuSans-31" transform="translate(75.195312 0)"/>
      <use xlink:href="#DejaVuSans-31" transform="translate(138.818359 0)"/>
     </g>
    </g>
    <g id="line2d_48">
     <path d="M 99 226.397812 
L 109 226.397812 
L 119 226.397812 
" style="fill: none; stroke: #ff7f0e; stroke-width: 1.5; stroke-linecap: square"/>
    </g>
    <g id="text_27">
     <!-- H12 -->
     <g transform="translate(127 229.897812) scale(0.1 -0.1)">
      <use xlink:href="#DejaVuSans-48"/>
      <use xlink:href="#DejaVuSans-31" transform="translate(75.195312 0)"/>
      <use xlink:href="#DejaVuSans-32" transform="translate(138.818359 0)"/>
     </g>
    </g>
   </g>
  </g>
 </g>
 <defs>
  <clipPath id="p98204c1970">
   <rect x="90" y="51.84" width="558" height="332.64"/>
  </clipPath>
 </defs>
</svg>
