<?xml version="1.0" encoding="utf-8" standalone="no"?>
<!DOCTYPE svg PUBLIC "-//W3C//DTD SVG 1.1//EN"
  "http://www.w3.org/Graphics/SVG/1.1/DTD/svg11.dtd">
<svg xmlns:xlink="http://www.w3.org/1999/xlink" width="720pt" height="432pt" viewBox="0 0 720 432" xmlns="http://www.w3.org/2000/svg" version="1.1">
 <metadata>
  <rdf:RDF xmlns:dc="http://purl.org/dc/elements/1.1/" xmlns:cc="http://creativecommons.org/ns#" xmlns:rdf="http://www.w3.org/1999/02/22-rdf-syntax-ns#">
   <cc:Work>
    <dc:type rdf:resource="http://purl.org/dc/dcmitype/StillImage"/>
    <dc:date>2025-01-14T17:02:49.527488</dc:date>
    <dc:format>image/svg+xml</dc:format>
    <dc:creator>
     <cc:Agent>
      <dc:title>Matplotlib v3.10.0, https://matplotlib.org/</dc:title>
     </cc:Agent>
    </dc:creator>
   </cc:Work>
  </rdf:RDF>
 </metadata>
 <defs>
  <style type="text/css">*{stroke-linejoin: round; stroke-linecap: butt}</style>
 </defs>
 <g id="figure_1">
  <g id="patch_1">
   <path d="M 0 432 
L 720 432 
L 720 0 
L 0 0 
z
" style="fill: #ffffff"/>
  </g>
  <g id="axes_1">
   <g id="patch_2">
    <path d="M 90 384.48 
L 648 384.48 
L 648 51.84 
L 90 51.84 
z
" style="fill: #ffffff"/>
   </g>
   <g id="matplotlib.axis_1">
    <g id="xtick_1">
     <g id="line2d_1">
      <path d="M 108.08221 384.48 
L 108.08221 51.84 
" clip-path="url(#pbc25b4b39a)" style="fill: none; stroke: #b0b0b0; stroke-width: 0.8; stroke-linecap: square"/>
     </g>
     <g id="line2d_2">
      <defs>
       <path id="me458452b76" d="M 0 0 
L 0 3.5 
" style="stroke: #000000; stroke-width: 0.8"/>
      </defs>
      <g>
       <use xlink:href="#me458452b76" x="108.08221" y="384.48" style="stroke: #000000; stroke-width: 0.8"/>
      </g>
     </g>
     <g id="text_1">
      <!-- 14 13:30 -->
      <g transform="translate(85.721272 399.078438) scale(0.1 -0.1)">
       <defs>
        <path id="DejaVuSans-31" d="M 794 531 
L 1825 531 
L 1825 4091 
L 703 3866 
L 703 4441 
L 1819 4666 
L 2450 4666 
L 2450 531 
L 3481 531 
L 3481 0 
L 794 0 
L 794 531 
z
" transform="scale(0.015625)"/>
        <path id="DejaVuSans-34" d="M 2419 4116 
L 825 1625 
L 2419 1625 
L 2419 4116 
z
M 2253 4666 
L 3047 4666 
L 3047 1625 
L 3713 1625 
L 3713 1100 
L 3047 1100 
L 3047 0 
L 2419 0 
L 2419 1100 
L 313 1100 
L 313 1709 
L 2253 4666 
z
" transform="scale(0.015625)"/>
        <path id="DejaVuSans-20" transform="scale(0.015625)"/>
        <path id="DejaVuSans-33" d="M 2597 2516 
Q 3050 2419 3304 2112 
Q 3559 1806 3559 1356 
Q 3559 666 3084 287 
Q 2609 -91 1734 -91 
Q 1441 -91 1130 -33 
Q 819 25 488 141 
L 488 750 
Q 750 597 1062 519 
Q 1375 441 1716 441 
Q 2309 441 2620 675 
Q 2931 909 2931 1356 
Q 2931 1769 2642 2001 
Q 2353 2234 1838 2234 
L 1294 2234 
L 1294 2753 
L 1863 2753 
Q 2328 2753 2575 2939 
Q 2822 3125 2822 3475 
Q 2822 3834 2567 4026 
Q 2313 4219 1838 4219 
Q 1578 4219 1281 4162 
Q 984 4106 628 3988 
L 628 4550 
Q 988 4650 1302 4700 
Q 1616 4750 1894 4750 
Q 2613 4750 3031 4423 
Q 3450 4097 3450 3541 
Q 3450 3153 3228 2886 
Q 3006 2619 2597 2516 
z
" transform="scale(0.015625)"/>
        <path id="DejaVuSans-3a" d="M 750 794 
L 1409 794 
L 1409 0 
L 750 0 
L 750 794 
z
M 750 3309 
L 1409 3309 
L 1409 2516 
L 750 2516 
L 750 3309 
z
" transform="scale(0.015625)"/>
        <path id="DejaVuSans-30" d="M 2034 4250 
Q 1547 4250 1301 3770 
Q 1056 3291 1056 2328 
Q 1056 1369 1301 889 
Q 1547 409 2034 409 
Q 2525 409 2770 889 
Q 3016 1369 3016 2328 
Q 3016 3291 2770 3770 
Q 2525 4250 2034 4250 
z
M 2034 4750 
Q 2819 4750 3233 4129 
Q 3647 3509 3647 2328 
Q 3647 1150 3233 529 
Q 2819 -91 2034 -91 
Q 1250 -91 836 529 
Q 422 1150 422 2328 
Q 422 3509 836 4129 
Q 1250 4750 2034 4750 
z
" transform="scale(0.015625)"/>
       </defs>
       <use xlink:href="#DejaVuSans-31"/>
       <use xlink:href="#DejaVuSans-34" transform="translate(63.623047 0)"/>
       <use xlink:href="#DejaVuSans-20" transform="translate(127.246094 0)"/>
       <use xlink:href="#DejaVuSans-31" transform="translate(159.033203 0)"/>
       <use xlink:href="#DejaVuSans-33" transform="translate(222.65625 0)"/>
       <use xlink:href="#DejaVuSans-3a" transform="translate(286.279297 0)"/>
       <use xlink:href="#DejaVuSans-33" transform="translate(319.970703 0)"/>
       <use xlink:href="#DejaVuSans-30" transform="translate(383.59375 0)"/>
      </g>
     </g>
    </g>
    <g id="xtick_2">
     <g id="line2d_3">
      <path d="M 180.896477 384.48 
L 180.896477 51.84 
" clip-path="url(#pbc25b4b39a)" style="fill: none; stroke: #b0b0b0; stroke-width: 0.8; stroke-linecap: square"/>
     </g>
     <g id="line2d_4">
      <g>
       <use xlink:href="#me458452b76" x="180.896477" y="384.48" style="stroke: #000000; stroke-width: 0.8"/>
      </g>
     </g>
     <g id="text_2">
      <!-- 14 14:00 -->
      <g transform="translate(158.535539 399.078438) scale(0.1 -0.1)">
       <use xlink:href="#DejaVuSans-31"/>
       <use xlink:href="#DejaVuSans-34" transform="translate(63.623047 0)"/>
       <use xlink:href="#DejaVuSans-20" transform="translate(127.246094 0)"/>
       <use xlink:href="#DejaVuSans-31" transform="translate(159.033203 0)"/>
       <use xlink:href="#DejaVuSans-34" transform="translate(222.65625 0)"/>
       <use xlink:href="#DejaVuSans-3a" transform="translate(286.279297 0)"/>
       <use xlink:href="#DejaVuSans-30" transform="translate(319.970703 0)"/>
       <use xlink:href="#DejaVuSans-30" transform="translate(383.59375 0)"/>
      </g>
     </g>
    </g>
    <g id="xtick_3">
     <g id="line2d_5">
      <path d="M 253.710744 384.48 
L 253.710744 51.84 
" clip-path="url(#pbc25b4b39a)" style="fill: none; stroke: #b0b0b0; stroke-width: 0.8; stroke-linecap: square"/>
     </g>
     <g id="line2d_6">
      <g>
       <use xlink:href="#me458452b76" x="253.710744" y="384.48" style="stroke: #000000; stroke-width: 0.8"/>
      </g>
     </g>
     <g id="text_3">
      <!-- 14 14:30 -->
      <g transform="translate(231.349806 399.078438) scale(0.1 -0.1)">
       <use xlink:href="#DejaVuSans-31"/>
       <use xlink:href="#DejaVuSans-34" transform="translate(63.623047 0)"/>
       <use xlink:href="#DejaVuSans-20" transform="translate(127.246094 0)"/>
       <use xlink:href="#DejaVuSans-31" transform="translate(159.033203 0)"/>
       <use xlink:href="#DejaVuSans-34" transform="translate(222.65625 0)"/>
       <use xlink:href="#DejaVuSans-3a" transform="translate(286.279297 0)"/>
       <use xlink:href="#DejaVuSans-33" transform="translate(319.970703 0)"/>
       <use xlink:href="#DejaVuSans-30" transform="translate(383.59375 0)"/>
      </g>
     </g>
    </g>
    <g id="xtick_4">
     <g id="line2d_7">
      <path d="M 326.525011 384.48 
L 326.525011 51.84 
" clip-path="url(#pbc25b4b39a)" style="fill: none; stroke: #b0b0b0; stroke-width: 0.8; stroke-linecap: square"/>
     </g>
     <g id="line2d_8">
      <g>
       <use xlink:href="#me458452b76" x="326.525011" y="384.48" style="stroke: #000000; stroke-width: 0.8"/>
      </g>
     </g>
     <g id="text_4">
      <!-- 14 15:00 -->
      <g transform="translate(304.164073 399.078438) scale(0.1 -0.1)">
       <defs>
        <path id="DejaVuSans-35" d="M 691 4666 
L 3169 4666 
L 3169 4134 
L 1269 4134 
L 1269 2991 
Q 1406 3038 1543 3061 
Q 1681 3084 1819 3084 
Q 2600 3084 3056 2656 
Q 3513 2228 3513 1497 
Q 3513 744 3044 326 
Q 2575 -91 1722 -91 
Q 1428 -91 1123 -41 
Q 819 9 494 109 
L 494 744 
Q 775 591 1075 516 
Q 1375 441 1709 441 
Q 2250 441 2565 725 
Q 2881 1009 2881 1497 
Q 2881 1984 2565 2268 
Q 2250 2553 1709 2553 
Q 1456 2553 1204 2497 
Q 953 2441 691 2322 
L 691 4666 
z
" transform="scale(0.015625)"/>
       </defs>
       <use xlink:href="#DejaVuSans-31"/>
       <use xlink:href="#DejaVuSans-34" transform="translate(63.623047 0)"/>
       <use xlink:href="#DejaVuSans-20" transform="translate(127.246094 0)"/>
       <use xlink:href="#DejaVuSans-31" transform="translate(159.033203 0)"/>
       <use xlink:href="#DejaVuSans-35" transform="translate(222.65625 0)"/>
       <use xlink:href="#DejaVuSans-3a" transform="translate(286.279297 0)"/>
       <use xlink:href="#DejaVuSans-30" transform="translate(319.970703 0)"/>
       <use xlink:href="#DejaVuSans-30" transform="translate(383.59375 0)"/>
      </g>
     </g>
    </g>
    <g id="xtick_5">
     <g id="line2d_9">
      <path d="M 399.339278 384.48 
L 399.339278 51.84 
" clip-path="url(#pbc25b4b39a)" style="fill: none; stroke: #b0b0b0; stroke-width: 0.8; stroke-linecap: square"/>
     </g>
     <g id="line2d_10">
      <g>
       <use xlink:href="#me458452b76" x="399.339278" y="384.48" style="stroke: #000000; stroke-width: 0.8"/>
      </g>
     </g>
     <g id="text_5">
      <!-- 14 15:30 -->
      <g transform="translate(376.97834 399.078438) scale(0.1 -0.1)">
       <use xlink:href="#DejaVuSans-31"/>
       <use xlink:href="#DejaVuSans-34" transform="translate(63.623047 0)"/>
       <use xlink:href="#DejaVuSans-20" transform="translate(127.246094 0)"/>
       <use xlink:href="#DejaVuSans-31" transform="translate(159.033203 0)"/>
       <use xlink:href="#DejaVuSans-35" transform="translate(222.65625 0)"/>
       <use xlink:href="#DejaVuSans-3a" transform="translate(286.279297 0)"/>
       <use xlink:href="#DejaVuSans-33" transform="translate(319.970703 0)"/>
       <use xlink:href="#DejaVuSans-30" transform="translate(383.59375 0)"/>
      </g>
     </g>
    </g>
    <g id="xtick_6">
     <g id="line2d_11">
      <path d="M 472.153545 384.48 
L 472.153545 51.84 
" clip-path="url(#pbc25b4b39a)" style="fill: none; stroke: #b0b0b0; stroke-width: 0.8; stroke-linecap: square"/>
     </g>
     <g id="line2d_12">
      <g>
       <use xlink:href="#me458452b76" x="472.153545" y="384.48" style="stroke: #000000; stroke-width: 0.8"/>
      </g>
     </g>
     <g id="text_6">
      <!-- 14 16:00 -->
      <g transform="translate(449.792608 399.078438) scale(0.1 -0.1)">
       <defs>
        <path id="DejaVuSans-36" d="M 2113 2584 
Q 1688 2584 1439 2293 
Q 1191 2003 1191 1497 
Q 1191 994 1439 701 
Q 1688 409 2113 409 
Q 2538 409 2786 701 
Q 3034 994 3034 1497 
Q 3034 2003 2786 2293 
Q 2538 2584 2113 2584 
z
M 3366 4563 
L 3366 3988 
Q 3128 4100 2886 4159 
Q 2644 4219 2406 4219 
Q 1781 4219 1451 3797 
Q 1122 3375 1075 2522 
Q 1259 2794 1537 2939 
Q 1816 3084 2150 3084 
Q 2853 3084 3261 2657 
Q 3669 2231 3669 1497 
Q 3669 778 3244 343 
Q 2819 -91 2113 -91 
Q 1303 -91 875 529 
Q 447 1150 447 2328 
Q 447 3434 972 4092 
Q 1497 4750 2381 4750 
Q 2619 4750 2861 4703 
Q 3103 4656 3366 4563 
z
" transform="scale(0.015625)"/>
       </defs>
       <use xlink:href="#DejaVuSans-31"/>
       <use xlink:href="#DejaVuSans-34" transform="translate(63.623047 0)"/>
       <use xlink:href="#DejaVuSans-20" transform="translate(127.246094 0)"/>
       <use xlink:href="#DejaVuSans-31" transform="translate(159.033203 0)"/>
       <use xlink:href="#DejaVuSans-36" transform="translate(222.65625 0)"/>
       <use xlink:href="#DejaVuSans-3a" transform="translate(286.279297 0)"/>
       <use xlink:href="#DejaVuSans-30" transform="translate(319.970703 0)"/>
       <use xlink:href="#DejaVuSans-30" transform="translate(383.59375 0)"/>
      </g>
     </g>
    </g>
    <g id="xtick_7">
     <g id="line2d_13">
      <path d="M 544.967812 384.48 
L 544.967812 51.84 
" clip-path="url(#pbc25b4b39a)" style="fill: none; stroke: #b0b0b0; stroke-width: 0.8; stroke-linecap: square"/>
     </g>
     <g id="line2d_14">
      <g>
       <use xlink:href="#me458452b76" x="544.967812" y="384.48" style="stroke: #000000; stroke-width: 0.8"/>
      </g>
     </g>
     <g id="text_7">
      <!-- 14 16:30 -->
      <g transform="translate(522.606875 399.078438) scale(0.1 -0.1)">
       <use xlink:href="#DejaVuSans-31"/>
       <use xlink:href="#DejaVuSans-34" transform="translate(63.623047 0)"/>
       <use xlink:href="#DejaVuSans-20" transform="translate(127.246094 0)"/>
       <use xlink:href="#DejaVuSans-31" transform="translate(159.033203 0)"/>
       <use xlink:href="#DejaVuSans-36" transform="translate(222.65625 0)"/>
       <use xlink:href="#DejaVuSans-3a" transform="translate(286.279297 0)"/>
       <use xlink:href="#DejaVuSans-33" transform="translate(319.970703 0)"/>
       <use xlink:href="#DejaVuSans-30" transform="translate(383.59375 0)"/>
      </g>
     </g>
    </g>
    <g id="xtick_8">
     <g id="line2d_15">
      <path d="M 617.782079 384.48 
L 617.782079 51.84 
" clip-path="url(#pbc25b4b39a)" style="fill: none; stroke: #b0b0b0; stroke-width: 0.8; stroke-linecap: square"/>
     </g>
     <g id="line2d_16">
      <g>
       <use xlink:href="#me458452b76" x="617.782079" y="384.48" style="stroke: #000000; stroke-width: 0.8"/>
      </g>
     </g>
     <g id="text_8">
      <!-- 14 17:00 -->
      <g transform="translate(595.421142 399.078438) scale(0.1 -0.1)">
       <defs>
        <path id="DejaVuSans-37" d="M 525 4666 
L 3525 4666 
L 3525 4397 
L 1831 0 
L 1172 0 
L 2766 4134 
L 525 4134 
L 525 4666 
z
" transform="scale(0.015625)"/>
       </defs>
       <use xlink:href="#DejaVuSans-31"/>
       <use xlink:href="#DejaVuSans-34" transform="translate(63.623047 0)"/>
       <use xlink:href="#DejaVuSans-20" transform="translate(127.246094 0)"/>
       <use xlink:href="#DejaVuSans-31" transform="translate(159.033203 0)"/>
       <use xlink:href="#DejaVuSans-37" transform="translate(222.65625 0)"/>
       <use xlink:href="#DejaVuSans-3a" transform="translate(286.279297 0)"/>
       <use xlink:href="#DejaVuSans-30" transform="translate(319.970703 0)"/>
       <use xlink:href="#DejaVuSans-30" transform="translate(383.59375 0)"/>
      </g>
     </g>
    </g>
    <g id="text_9">
     <!-- Date and Time -->
     <g transform="translate(332.230469 412.756563) scale(0.1 -0.1)">
      <defs>
       <path id="DejaVuSans-44" d="M 1259 4147 
L 1259 519 
L 2022 519 
Q 2988 519 3436 956 
Q 3884 1394 3884 2338 
Q 3884 3275 3436 3711 
Q 2988 4147 2022 4147 
L 1259 4147 
z
M 628 4666 
L 1925 4666 
Q 3281 4666 3915 4102 
Q 4550 3538 4550 2338 
Q 4550 1131 3912 565 
Q 3275 0 1925 0 
L 628 0 
L 628 4666 
z
" transform="scale(0.015625)"/>
       <path id="DejaVuSans-61" d="M 2194 1759 
Q 1497 1759 1228 1600 
Q 959 1441 959 1056 
Q 959 750 1161 570 
Q 1363 391 1709 391 
Q 2188 391 2477 730 
Q 2766 1069 2766 1631 
L 2766 1759 
L 2194 1759 
z
M 3341 1997 
L 3341 0 
L 2766 0 
L 2766 531 
Q 2569 213 2275 61 
Q 1981 -91 1556 -91 
Q 1019 -91 701 211 
Q 384 513 384 1019 
Q 384 1609 779 1909 
Q 1175 2209 1959 2209 
L 2766 2209 
L 2766 2266 
Q 2766 2663 2505 2880 
Q 2244 3097 1772 3097 
Q 1472 3097 1187 3025 
Q 903 2953 641 2809 
L 641 3341 
Q 956 3463 1253 3523 
Q 1550 3584 1831 3584 
Q 2591 3584 2966 3190 
Q 3341 2797 3341 1997 
z
" transform="scale(0.015625)"/>
       <path id="DejaVuSans-74" d="M 1172 4494 
L 1172 3500 
L 2356 3500 
L 2356 3053 
L 1172 3053 
L 1172 1153 
Q 1172 725 1289 603 
Q 1406 481 1766 481 
L 2356 481 
L 2356 0 
L 1766 0 
Q 1100 0 847 248 
Q 594 497 594 1153 
L 594 3053 
L 172 3053 
L 172 3500 
L 594 3500 
L 594 4494 
L 1172 4494 
z
" transform="scale(0.015625)"/>
       <path id="DejaVuSans-65" d="M 3597 1894 
L 3597 1613 
L 953 1613 
Q 991 1019 1311 708 
Q 1631 397 2203 397 
Q 2534 397 2845 478 
Q 3156 559 3463 722 
L 3463 178 
Q 3153 47 2828 -22 
Q 2503 -91 2169 -91 
Q 1331 -91 842 396 
Q 353 884 353 1716 
Q 353 2575 817 3079 
Q 1281 3584 2069 3584 
Q 2775 3584 3186 3129 
Q 3597 2675 3597 1894 
z
M 3022 2063 
Q 3016 2534 2758 2815 
Q 2500 3097 2075 3097 
Q 1594 3097 1305 2825 
Q 1016 2553 972 2059 
L 3022 2063 
z
" transform="scale(0.015625)"/>
       <path id="DejaVuSans-6e" d="M 3513 2113 
L 3513 0 
L 2938 0 
L 2938 2094 
Q 2938 2591 2744 2837 
Q 2550 3084 2163 3084 
Q 1697 3084 1428 2787 
Q 1159 2491 1159 1978 
L 1159 0 
L 581 0 
L 581 3500 
L 1159 3500 
L 1159 2956 
Q 1366 3272 1645 3428 
Q 1925 3584 2291 3584 
Q 2894 3584 3203 3211 
Q 3513 2838 3513 2113 
z
" transform="scale(0.015625)"/>
       <path id="DejaVuSans-64" d="M 2906 2969 
L 2906 4863 
L 3481 4863 
L 3481 0 
L 2906 0 
L 2906 525 
Q 2725 213 2448 61 
Q 2172 -91 1784 -91 
Q 1150 -91 751 415 
Q 353 922 353 1747 
Q 353 2572 751 3078 
Q 1150 3584 1784 3584 
Q 2172 3584 2448 3432 
Q 2725 3281 2906 2969 
z
M 947 1747 
Q 947 1113 1208 752 
Q 1469 391 1925 391 
Q 2381 391 2643 752 
Q 2906 1113 2906 1747 
Q 2906 2381 2643 2742 
Q 2381 3103 1925 3103 
Q 1469 3103 1208 2742 
Q 947 2381 947 1747 
z
" transform="scale(0.015625)"/>
       <path id="DejaVuSans-54" d="M -19 4666 
L 3928 4666 
L 3928 4134 
L 2272 4134 
L 2272 0 
L 1638 0 
L 1638 4134 
L -19 4134 
L -19 4666 
z
" transform="scale(0.015625)"/>
       <path id="DejaVuSans-69" d="M 603 3500 
L 1178 3500 
L 1178 0 
L 603 0 
L 603 3500 
z
M 603 4863 
L 1178 4863 
L 1178 4134 
L 603 4134 
L 603 4863 
z
" transform="scale(0.015625)"/>
       <path id="DejaVuSans-6d" d="M 3328 2828 
Q 3544 3216 3844 3400 
Q 4144 3584 4550 3584 
Q 5097 3584 5394 3201 
Q 5691 2819 5691 2113 
L 5691 0 
L 5113 0 
L 5113 2094 
Q 5113 2597 4934 2840 
Q 4756 3084 4391 3084 
Q 3944 3084 3684 2787 
Q 3425 2491 3425 1978 
L 3425 0 
L 2847 0 
L 2847 2094 
Q 2847 2600 2669 2842 
Q 2491 3084 2119 3084 
Q 1678 3084 1418 2786 
Q 1159 2488 1159 1978 
L 1159 0 
L 581 0 
L 581 3500 
L 1159 3500 
L 1159 2956 
Q 1356 3278 1631 3431 
Q 1906 3584 2284 3584 
Q 2666 3584 2933 3390 
Q 3200 3197 3328 2828 
z
" transform="scale(0.015625)"/>
      </defs>
      <use xlink:href="#DejaVuSans-44"/>
      <use xlink:href="#DejaVuSans-61" transform="translate(77.001953 0)"/>
      <use xlink:href="#DejaVuSans-74" transform="translate(138.28125 0)"/>
      <use xlink:href="#DejaVuSans-65" transform="translate(177.490234 0)"/>
      <use xlink:href="#DejaVuSans-20" transform="translate(239.013672 0)"/>
      <use xlink:href="#DejaVuSans-61" transform="translate(270.800781 0)"/>
      <use xlink:href="#DejaVuSans-6e" transform="translate(332.080078 0)"/>
      <use xlink:href="#DejaVuSans-64" transform="translate(395.458984 0)"/>
      <use xlink:href="#DejaVuSans-20" transform="translate(458.935547 0)"/>
      <use xlink:href="#DejaVuSans-54" transform="translate(490.722656 0)"/>
      <use xlink:href="#DejaVuSans-69" transform="translate(548.681641 0)"/>
      <use xlink:href="#DejaVuSans-6d" transform="translate(576.464844 0)"/>
      <use xlink:href="#DejaVuSans-65" transform="translate(673.876953 0)"/>
     </g>
    </g>
   </g>
   <g id="matplotlib.axis_2">
    <g id="ytick_1">
     <g id="line2d_17">
      <path d="M 90 370.80689 
L 648 370.80689 
" clip-path="url(#pbc25b4b39a)" style="fill: none; stroke: #b0b0b0; stroke-width: 0.8; stroke-linecap: square"/>
     </g>
     <g id="line2d_18">
      <defs>
       <path id="ma752c2bc2d" d="M 0 0 
L -3.5 0 
" style="stroke: #000000; stroke-width: 0.8"/>
      </defs>
      <g>
       <use xlink:href="#ma752c2bc2d" x="90" y="370.80689" style="stroke: #000000; stroke-width: 0.8"/>
      </g>
     </g>
     <g id="text_10">
      <!-- 0 -->
      <g transform="translate(76.6375 374.606109) scale(0.1 -0.1)">
       <use xlink:href="#DejaVuSans-30"/>
      </g>
     </g>
    </g>
    <g id="ytick_2">
     <g id="line2d_19">
      <path d="M 90 298.462392 
L 648 298.462392 
" clip-path="url(#pbc25b4b39a)" style="fill: none; stroke: #b0b0b0; stroke-width: 0.8; stroke-linecap: square"/>
     </g>
     <g id="line2d_20">
      <g>
       <use xlink:href="#ma752c2bc2d" x="90" y="298.462392" style="stroke: #000000; stroke-width: 0.8"/>
      </g>
     </g>
     <g id="text_11">
      <!-- 50 -->
      <g transform="translate(70.275 302.261611) scale(0.1 -0.1)">
       <use xlink:href="#DejaVuSans-35"/>
       <use xlink:href="#DejaVuSans-30" transform="translate(63.623047 0)"/>
      </g>
     </g>
    </g>
    <g id="ytick_3">
     <g id="line2d_21">
      <path d="M 90 226.117895 
L 648 226.117895 
" clip-path="url(#pbc25b4b39a)" style="fill: none; stroke: #b0b0b0; stroke-width: 0.8; stroke-linecap: square"/>
     </g>
     <g id="line2d_22">
      <g>
       <use xlink:href="#ma752c2bc2d" x="90" y="226.117895" style="stroke: #000000; stroke-width: 0.8"/>
      </g>
     </g>
     <g id="text_12">
      <!-- 100 -->
      <g transform="translate(63.9125 229.917113) scale(0.1 -0.1)">
       <use xlink:href="#DejaVuSans-31"/>
       <use xlink:href="#DejaVuSans-30" transform="translate(63.623047 0)"/>
       <use xlink:href="#DejaVuSans-30" transform="translate(127.246094 0)"/>
      </g>
     </g>
    </g>
    <g id="ytick_4">
     <g id="line2d_23">
      <path d="M 90 153.773397 
L 648 153.773397 
" clip-path="url(#pbc25b4b39a)" style="fill: none; stroke: #b0b0b0; stroke-width: 0.8; stroke-linecap: square"/>
     </g>
     <g id="line2d_24">
      <g>
       <use xlink:href="#ma752c2bc2d" x="90" y="153.773397" style="stroke: #000000; stroke-width: 0.8"/>
      </g>
     </g>
     <g id="text_13">
      <!-- 150 -->
      <g transform="translate(63.9125 157.572616) scale(0.1 -0.1)">
       <use xlink:href="#DejaVuSans-31"/>
       <use xlink:href="#DejaVuSans-35" transform="translate(63.623047 0)"/>
       <use xlink:href="#DejaVuSans-30" transform="translate(127.246094 0)"/>
      </g>
     </g>
    </g>
    <g id="ytick_5">
     <g id="line2d_25">
      <path d="M 90 81.4289 
L 648 81.4289 
" clip-path="url(#pbc25b4b39a)" style="fill: none; stroke: #b0b0b0; stroke-width: 0.8; stroke-linecap: square"/>
     </g>
     <g id="line2d_26">
      <g>
       <use xlink:href="#ma752c2bc2d" x="90" y="81.4289" style="stroke: #000000; stroke-width: 0.8"/>
      </g>
     </g>
     <g id="text_14">
      <!-- 200 -->
      <g transform="translate(63.9125 85.228118) scale(0.1 -0.1)">
       <defs>
        <path id="DejaVuSans-32" d="M 1228 531 
L 3431 531 
L 3431 0 
L 469 0 
L 469 531 
Q 828 903 1448 1529 
Q 2069 2156 2228 2338 
Q 2531 2678 2651 2914 
Q 2772 3150 2772 3378 
Q 2772 3750 2511 3984 
Q 2250 4219 1831 4219 
Q 1534 4219 1204 4116 
Q 875 4013 500 3803 
L 500 4441 
Q 881 4594 1212 4672 
Q 1544 4750 1819 4750 
Q 2544 4750 2975 4387 
Q 3406 4025 3406 3419 
Q 3406 3131 3298 2873 
Q 3191 2616 2906 2266 
Q 2828 2175 2409 1742 
Q 1991 1309 1228 531 
z
" transform="scale(0.015625)"/>
       </defs>
       <use xlink:href="#DejaVuSans-32"/>
       <use xlink:href="#DejaVuSans-30" transform="translate(63.623047 0)"/>
       <use xlink:href="#DejaVuSans-30" transform="translate(127.246094 0)"/>
      </g>
     </g>
    </g>
    <g id="text_15">
     <!-- Votes -->
     <g transform="translate(57.832812 231.893594) rotate(-90) scale(0.1 -0.1)">
      <defs>
       <path id="DejaVuSans-56" d="M 1831 0 
L 50 4666 
L 709 4666 
L 2188 738 
L 3669 4666 
L 4325 4666 
L 2547 0 
L 1831 0 
z
" transform="scale(0.015625)"/>
       <path id="DejaVuSans-6f" d="M 1959 3097 
Q 1497 3097 1228 2736 
Q 959 2375 959 1747 
Q 959 1119 1226 758 
Q 1494 397 1959 397 
Q 2419 397 2687 759 
Q 2956 1122 2956 1747 
Q 2956 2369 2687 2733 
Q 2419 3097 1959 3097 
z
M 1959 3584 
Q 2709 3584 3137 3096 
Q 3566 2609 3566 1747 
Q 3566 888 3137 398 
Q 2709 -91 1959 -91 
Q 1206 -91 779 398 
Q 353 888 353 1747 
Q 353 2609 779 3096 
Q 1206 3584 1959 3584 
z
" transform="scale(0.015625)"/>
       <path id="DejaVuSans-73" d="M 2834 3397 
L 2834 2853 
Q 2591 2978 2328 3040 
Q 2066 3103 1784 3103 
Q 1356 3103 1142 2972 
Q 928 2841 928 2578 
Q 928 2378 1081 2264 
Q 1234 2150 1697 2047 
L 1894 2003 
Q 2506 1872 2764 1633 
Q 3022 1394 3022 966 
Q 3022 478 2636 193 
Q 2250 -91 1575 -91 
Q 1294 -91 989 -36 
Q 684 19 347 128 
L 347 722 
Q 666 556 975 473 
Q 1284 391 1588 391 
Q 1994 391 2212 530 
Q 2431 669 2431 922 
Q 2431 1156 2273 1281 
Q 2116 1406 1581 1522 
L 1381 1569 
Q 847 1681 609 1914 
Q 372 2147 372 2553 
Q 372 3047 722 3315 
Q 1072 3584 1716 3584 
Q 2034 3584 2315 3537 
Q 2597 3491 2834 3397 
z
" transform="scale(0.015625)"/>
      </defs>
      <use xlink:href="#DejaVuSans-56"/>
      <use xlink:href="#DejaVuSans-6f" transform="translate(60.658203 0)"/>
      <use xlink:href="#DejaVuSans-74" transform="translate(121.839844 0)"/>
      <use xlink:href="#DejaVuSans-65" transform="translate(161.048828 0)"/>
      <use xlink:href="#DejaVuSans-73" transform="translate(222.572266 0)"/>
     </g>
    </g>
   </g>
   <g id="line2d_27">
    <path d="M 115.363636 344.762871 
L 139.635059 344.762871 
L 142.062201 343.315981 
L 166.333623 343.315981 
L 168.760766 340.422201 
L 190.605046 340.422201 
L 193.032188 338.975311 
L 205.167899 338.975311 
L 207.595041 337.528421 
L 217.30361 337.528421 
L 219.730752 336.081531 
L 227.012179 336.081531 
L 229.439321 334.634641 
L 263.419313 334.634641 
L 265.846455 333.187751 
L 292.54502 333.187751 
L 297.399304 330.293971 
L 302.253589 330.293971 
L 304.680731 328.847081 
L 326.525011 328.847081 
L 331.379295 325.953301 
L 360.505002 325.953301 
L 362.932144 324.506411 
L 370.213571 324.506411 
L 372.640713 323.059522 
L 375.067856 323.059522 
L 377.494998 321.612632 
L 443.027838 321.612632 
L 445.45498 320.165742 
L 474.580687 320.165742 
L 477.007829 318.718852 
L 493.997825 318.718852 
L 496.424967 317.271962 
L 498.85211 314.378182 
L 501.279252 314.378182 
L 506.133536 311.484402 
L 544.967812 311.484402 
L 547.394954 310.037512 
L 561.957808 310.037512 
L 564.38495 308.590622 
L 574.093519 308.590622 
L 576.520661 307.143732 
L 600.792084 307.143732 
L 603.219226 305.696842 
L 608.07351 305.696842 
L 610.500652 304.249952 
L 617.782079 304.249952 
L 620.209221 302.803062 
L 622.636364 302.803062 
L 622.636364 302.803062 
" clip-path="url(#pbc25b4b39a)" style="fill: none; stroke: #1f77b4; stroke-width: 1.5; stroke-linecap: square"/>
   </g>
   <g id="line2d_28">
    <path d="M 115.363636 252.161914 
L 117.790779 250.715024 
L 125.072205 250.715024 
L 127.499348 249.268134 
L 129.92649 249.268134 
L 132.353632 247.821244 
L 134.780774 247.821244 
L 139.635059 244.927464 
L 142.062201 242.033684 
L 144.489343 242.033684 
L 149.343628 239.139904 
L 151.77077 239.139904 
L 154.197912 233.352344 
L 156.625054 230.458565 
L 159.052197 224.671005 
L 161.479339 220.330335 
L 168.760766 220.330335 
L 171.187908 215.989665 
L 173.61505 213.095885 
L 178.469334 210.202105 
L 180.896477 207.308325 
L 185.750761 204.414545 
L 188.177903 201.520766 
L 195.45933 201.520766 
L 197.886472 194.286316 
L 200.313615 191.392536 
L 202.740757 189.945646 
L 205.167899 187.051866 
L 207.595041 185.604976 
L 210.022184 185.604976 
L 212.449326 181.264306 
L 214.876468 181.264306 
L 217.30361 178.370526 
L 219.730752 176.923636 
L 222.157895 176.923636 
L 224.585037 175.476746 
L 229.439321 175.476746 
L 231.866464 174.029856 
L 236.720748 174.029856 
L 239.14789 171.136077 
L 241.575033 171.136077 
L 244.002175 169.689187 
L 253.710744 169.689187 
L 256.137886 168.242297 
L 263.419313 168.242297 
L 265.846455 166.795407 
L 268.273597 166.795407 
L 270.700739 163.901627 
L 273.127882 163.901627 
L 275.555024 161.007847 
L 277.982166 159.560957 
L 285.263593 159.560957 
L 287.690735 156.667177 
L 290.117877 155.220287 
L 292.54502 150.879617 
L 297.399304 147.985837 
L 316.816442 147.985837 
L 319.243584 143.645167 
L 321.670726 143.645167 
L 326.525011 140.751388 
L 328.952153 140.751388 
L 336.23358 136.410718 
L 341.087864 136.410718 
L 343.515007 134.963828 
L 348.369291 134.963828 
L 355.650718 130.623158 
L 360.505002 130.623158 
L 362.932144 129.176268 
L 375.067856 129.176268 
L 377.494998 127.729378 
L 382.349282 127.729378 
L 384.776425 126.282488 
L 413.902131 126.282488 
L 416.329274 123.388708 
L 421.183558 123.388708 
L 426.037843 120.494928 
L 428.464985 120.494928 
L 430.892127 119.048038 
L 445.45498 119.048038 
L 452.736407 114.707368 
L 455.163549 114.707368 
L 457.590692 113.260478 
L 460.017834 110.366699 
L 462.444976 110.366699 
L 464.872118 108.919809 
L 467.299261 108.919809 
L 477.007829 103.132249 
L 481.862114 103.132249 
L 484.289256 100.238469 
L 491.570683 100.238469 
L 493.997825 98.791579 
L 501.279252 98.791579 
L 503.706394 97.344689 
L 506.133536 97.344689 
L 508.560679 93.004019 
L 515.842105 93.004019 
L 518.269248 91.557129 
L 520.69639 88.663349 
L 525.550674 88.663349 
L 527.977816 87.216459 
L 532.832101 87.216459 
L 535.259243 85.769569 
L 537.686385 85.769569 
L 549.822097 78.53512 
L 554.676381 78.53512 
L 561.957808 74.19445 
L 569.239234 74.19445 
L 571.666377 71.30067 
L 574.093519 71.30067 
L 576.520661 69.85378 
L 583.802088 69.85378 
L 586.22923 68.40689 
L 608.07351 68.40689 
L 610.500652 66.96 
L 622.636364 66.96 
L 622.636364 66.96 
" clip-path="url(#pbc25b4b39a)" style="fill: none; stroke: #ff7f0e; stroke-width: 1.5; stroke-linecap: square"/>
   </g>
   <g id="line2d_29">
    <path d="M 115.363636 325.953301 
L 125.072205 325.953301 
L 127.499348 323.059522 
L 132.353632 323.059522 
L 134.780774 321.612632 
L 137.207916 318.718852 
L 139.635059 317.271962 
L 142.062201 312.931292 
L 144.489343 310.037512 
L 146.916485 308.590622 
L 149.343628 308.590622 
L 151.77077 305.696842 
L 154.197912 301.356172 
L 163.906481 301.356172 
L 166.333623 299.909282 
L 168.760766 299.909282 
L 171.187908 297.015502 
L 178.469334 297.015502 
L 183.323619 294.121722 
L 193.032188 294.121722 
L 195.45933 292.674833 
L 205.167899 292.674833 
L 212.449326 288.334163 
L 224.585037 288.334163 
L 227.012179 286.887273 
L 234.293606 286.887273 
L 236.720748 285.440383 
L 241.575033 285.440383 
L 244.002175 282.546603 
L 263.419313 282.546603 
L 265.846455 281.099713 
L 268.273597 278.205933 
L 270.700739 276.759043 
L 273.127882 276.759043 
L 275.555024 275.312153 
L 280.409308 275.312153 
L 282.836451 273.865263 
L 287.690735 273.865263 
L 290.117877 272.418373 
L 304.680731 272.418373 
L 307.107873 270.971483 
L 309.535015 270.971483 
L 311.962157 269.524593 
L 314.3893 269.524593 
L 316.816442 268.077703 
L 324.097869 268.077703 
L 326.525011 266.630813 
L 328.952153 263.737033 
L 341.087864 263.737033 
L 348.369291 259.396364 
L 355.650718 259.396364 
L 358.07786 257.949474 
L 367.786429 257.949474 
L 370.213571 256.502584 
L 372.640713 256.502584 
L 375.067856 255.055694 
L 379.92214 255.055694 
L 382.349282 253.608804 
L 389.630709 253.608804 
L 394.484993 250.715024 
L 396.912136 250.715024 
L 399.339278 249.268134 
L 418.756416 249.268134 
L 421.183558 246.374354 
L 423.6107 244.927464 
L 443.027838 244.927464 
L 445.45498 243.480574 
L 452.736407 243.480574 
L 455.163549 242.033684 
L 462.444976 242.033684 
L 464.872118 240.586794 
L 489.143541 240.586794 
L 491.570683 239.139904 
L 501.279252 239.139904 
L 503.706394 237.693014 
L 518.269248 237.693014 
L 520.69639 236.246124 
L 525.550674 236.246124 
L 527.977816 234.799234 
L 537.686385 234.799234 
L 542.54067 231.905455 
L 588.656372 231.905455 
L 591.083515 230.458565 
L 593.510657 230.458565 
L 595.937799 229.011675 
L 603.219226 229.011675 
L 605.646368 227.564785 
L 617.782079 227.564785 
L 620.209221 226.117895 
L 622.636364 226.117895 
L 622.636364 226.117895 
" clip-path="url(#pbc25b4b39a)" style="fill: none; stroke: #2ca02c; stroke-width: 1.5; stroke-linecap: square"/>
   </g>
   <g id="line2d_30">
    <path d="M 115.363636 369.36 
L 622.636364 369.36 
L 622.636364 369.36 
" clip-path="url(#pbc25b4b39a)" style="fill: none; stroke: #d62728; stroke-width: 1.5; stroke-linecap: square"/>
   </g>
   <g id="line2d_31">
    <path d="M 115.363636 337.528421 
L 122.645063 337.528421 
L 125.072205 336.081531 
L 139.635059 336.081531 
L 142.062201 334.634641 
L 156.625054 334.634641 
L 159.052197 333.187751 
L 212.449326 333.187751 
L 214.876468 331.740861 
L 302.253589 331.740861 
L 307.107873 328.847081 
L 326.525011 328.847081 
L 328.952153 327.400191 
L 338.660722 327.400191 
L 341.087864 325.953301 
L 345.942149 325.953301 
L 348.369291 324.506411 
L 411.474989 324.506411 
L 413.902131 323.059522 
L 513.414963 323.059522 
L 515.842105 321.612632 
L 622.636364 321.612632 
L 622.636364 321.612632 
" clip-path="url(#pbc25b4b39a)" style="fill: none; stroke: #9467bd; stroke-width: 1.5; stroke-linecap: square"/>
   </g>
   <g id="line2d_32">
    <path d="M 115.363636 349.103541 
L 117.790779 349.103541 
L 120.217921 347.656651 
L 154.197912 347.656651 
L 156.625054 346.209761 
L 185.750761 346.209761 
L 188.177903 344.762871 
L 224.585037 344.762871 
L 229.439321 341.869091 
L 256.137886 341.869091 
L 258.565028 340.422201 
L 331.379295 340.422201 
L 333.806438 338.975311 
L 355.650718 338.975311 
L 358.07786 337.528421 
L 399.339278 337.528421 
L 401.76642 336.081531 
L 440.600696 336.081531 
L 443.027838 334.634641 
L 452.736407 334.634641 
L 455.163549 333.187751 
L 477.007829 333.187751 
L 479.434972 331.740861 
L 537.686385 331.740861 
L 540.113528 330.293971 
L 554.676381 330.293971 
L 557.103523 328.847081 
L 571.666377 328.847081 
L 574.093519 327.400191 
L 583.802088 327.400191 
L 586.22923 325.953301 
L 622.636364 325.953301 
L 622.636364 325.953301 
" clip-path="url(#pbc25b4b39a)" style="fill: none; stroke: #8c564b; stroke-width: 1.5; stroke-linecap: square"/>
   </g>
   <g id="line2d_33">
    <path d="M 115.363636 242.033684 
L 125.072205 242.033684 
L 127.499348 240.586794 
L 137.207916 240.586794 
L 142.062201 237.693014 
L 144.489343 237.693014 
L 146.916485 236.246124 
L 149.343628 236.246124 
L 151.77077 234.799234 
L 156.625054 234.799234 
L 159.052197 233.352344 
L 166.333623 233.352344 
L 168.760766 231.905455 
L 173.61505 231.905455 
L 176.042192 230.458565 
L 178.469334 230.458565 
L 180.896477 229.011675 
L 185.750761 229.011675 
L 190.605046 226.117895 
L 200.313615 226.117895 
L 202.740757 224.671005 
L 210.022184 224.671005 
L 214.876468 221.777225 
L 219.730752 221.777225 
L 222.157895 220.330335 
L 227.012179 220.330335 
L 229.439321 218.883445 
L 231.866464 215.989665 
L 234.293606 211.648995 
L 239.14789 211.648995 
L 241.575033 210.202105 
L 253.710744 210.202105 
L 258.565028 207.308325 
L 260.992171 204.414545 
L 263.419313 202.967656 
L 265.846455 202.967656 
L 268.273597 200.073876 
L 277.982166 200.073876 
L 280.409308 198.626986 
L 282.836451 198.626986 
L 287.690735 195.733206 
L 290.117877 195.733206 
L 292.54502 194.286316 
L 294.972162 194.286316 
L 299.826446 191.392536 
L 304.680731 191.392536 
L 307.107873 188.498756 
L 316.816442 188.498756 
L 321.670726 185.604976 
L 326.525011 185.604976 
L 328.952153 184.158086 
L 331.379295 181.264306 
L 338.660722 181.264306 
L 341.087864 179.817416 
L 343.515007 179.817416 
L 345.942149 176.923636 
L 348.369291 176.923636 
L 350.796433 175.476746 
L 353.223575 175.476746 
L 355.650718 174.029856 
L 365.359287 174.029856 
L 370.213571 171.136077 
L 372.640713 171.136077 
L 375.067856 168.242297 
L 377.494998 168.242297 
L 379.92214 166.795407 
L 382.349282 166.795407 
L 384.776425 165.348517 
L 392.057851 165.348517 
L 394.484993 163.901627 
L 396.912136 163.901627 
L 406.620705 158.114067 
L 409.047847 155.220287 
L 413.902131 155.220287 
L 418.756416 149.432727 
L 423.6107 149.432727 
L 428.464985 146.538947 
L 430.892127 146.538947 
L 433.319269 143.645167 
L 435.746411 143.645167 
L 438.173554 142.198278 
L 440.600696 142.198278 
L 443.027838 140.751388 
L 447.882123 140.751388 
L 450.309265 139.304498 
L 452.736407 139.304498 
L 455.163549 137.857608 
L 464.872118 137.857608 
L 467.299261 130.623158 
L 469.726403 130.623158 
L 472.153545 129.176268 
L 479.434972 129.176268 
L 481.862114 127.729378 
L 503.706394 127.729378 
L 506.133536 124.835598 
L 515.842105 124.835598 
L 518.269248 123.388708 
L 542.54067 123.388708 
L 544.967812 120.494928 
L 547.394954 119.048038 
L 559.530666 119.048038 
L 561.957808 117.601148 
L 578.947803 117.601148 
L 581.374946 116.154258 
L 583.802088 116.154258 
L 586.22923 114.707368 
L 600.792084 114.707368 
L 605.646368 111.813589 
L 622.636364 111.813589 
L 622.636364 111.813589 
" clip-path="url(#pbc25b4b39a)" style="fill: none; stroke: #e377c2; stroke-width: 1.5; stroke-linecap: square"/>
   </g>
   <g id="line2d_34">
    <path d="M 115.363636 331.740861 
L 117.790779 331.740861 
L 122.645063 328.847081 
L 134.780774 328.847081 
L 137.207916 327.400191 
L 139.635059 327.400191 
L 144.489343 324.506411 
L 149.343628 324.506411 
L 151.77077 323.059522 
L 159.052197 323.059522 
L 161.479339 321.612632 
L 163.906481 321.612632 
L 166.333623 320.165742 
L 168.760766 320.165742 
L 173.61505 317.271962 
L 180.896477 317.271962 
L 183.323619 315.825072 
L 188.177903 315.825072 
L 193.032188 312.931292 
L 197.886472 312.931292 
L 202.740757 310.037512 
L 205.167899 310.037512 
L 207.595041 308.590622 
L 210.022184 304.249952 
L 219.730752 304.249952 
L 229.439321 298.462392 
L 231.866464 298.462392 
L 236.720748 295.568612 
L 239.14789 295.568612 
L 241.575033 294.121722 
L 244.002175 294.121722 
L 246.429317 292.674833 
L 268.273597 292.674833 
L 270.700739 291.227943 
L 294.972162 291.227943 
L 299.826446 288.334163 
L 307.107873 288.334163 
L 309.535015 286.887273 
L 314.3893 286.887273 
L 319.243584 283.993493 
L 324.097869 283.993493 
L 326.525011 281.099713 
L 333.806438 281.099713 
L 336.23358 278.205933 
L 338.660722 276.759043 
L 350.796433 276.759043 
L 353.223575 275.312153 
L 355.650718 275.312153 
L 360.505002 272.418373 
L 372.640713 272.418373 
L 375.067856 270.971483 
L 377.494998 270.971483 
L 379.92214 269.524593 
L 394.484993 269.524593 
L 396.912136 268.077703 
L 404.193562 268.077703 
L 406.620705 266.630813 
L 409.047847 266.630813 
L 411.474989 262.290144 
L 413.902131 262.290144 
L 416.329274 259.396364 
L 418.756416 257.949474 
L 421.183558 257.949474 
L 426.037843 255.055694 
L 430.892127 255.055694 
L 433.319269 253.608804 
L 438.173554 253.608804 
L 440.600696 252.161914 
L 443.027838 252.161914 
L 445.45498 249.268134 
L 447.882123 249.268134 
L 450.309265 247.821244 
L 455.163549 247.821244 
L 460.017834 244.927464 
L 462.444976 244.927464 
L 464.872118 242.033684 
L 467.299261 240.586794 
L 484.289256 240.586794 
L 486.716398 237.693014 
L 493.997825 237.693014 
L 496.424967 236.246124 
L 498.85211 236.246124 
L 501.279252 234.799234 
L 508.560679 234.799234 
L 510.987821 233.352344 
L 523.123532 233.352344 
L 525.550674 231.905455 
L 530.404959 231.905455 
L 532.832101 230.458565 
L 544.967812 230.458565 
L 547.394954 229.011675 
L 569.239234 229.011675 
L 574.093519 226.117895 
L 576.520661 226.117895 
L 578.947803 224.671005 
L 581.374946 224.671005 
L 583.802088 223.224115 
L 586.22923 223.224115 
L 588.656372 221.777225 
L 593.510657 221.777225 
L 595.937799 220.330335 
L 598.364941 220.330335 
L 603.219226 217.436555 
L 610.500652 217.436555 
L 612.927795 215.989665 
L 620.209221 215.989665 
L 622.636364 214.542775 
L 622.636364 214.542775 
" clip-path="url(#pbc25b4b39a)" style="fill: none; stroke: #7f7f7f; stroke-width: 1.5; stroke-linecap: square"/>
   </g>
   <g id="line2d_35">
    <path d="M 115.363636 340.422201 
L 125.072205 340.422201 
L 127.499348 338.975311 
L 151.77077 338.975311 
L 154.197912 337.528421 
L 166.333623 337.528421 
L 168.760766 336.081531 
L 193.032188 336.081531 
L 195.45933 334.634641 
L 219.730752 334.634641 
L 222.157895 333.187751 
L 353.223575 333.187751 
L 355.650718 331.740861 
L 367.786429 331.740861 
L 370.213571 330.293971 
L 387.203567 330.293971 
L 389.630709 328.847081 
L 392.057851 328.847081 
L 394.484993 324.506411 
L 396.912136 323.059522 
L 401.76642 323.059522 
L 404.193562 321.612632 
L 428.464985 321.612632 
L 430.892127 320.165742 
L 452.736407 320.165742 
L 455.163549 318.718852 
L 481.862114 318.718852 
L 484.289256 317.271962 
L 513.414963 317.271962 
L 515.842105 315.825072 
L 527.977816 315.825072 
L 530.404959 314.378182 
L 608.07351 314.378182 
L 610.500652 312.931292 
L 615.354937 312.931292 
L 617.782079 311.484402 
L 622.636364 311.484402 
L 622.636364 311.484402 
" clip-path="url(#pbc25b4b39a)" style="fill: none; stroke: #bcbd22; stroke-width: 1.5; stroke-linecap: square"/>
   </g>
   <g id="line2d_36">
    <path d="M 115.363636 366.46622 
L 236.720748 366.46622 
L 239.14789 365.01933 
L 392.057851 365.01933 
L 394.484993 363.57244 
L 622.636364 363.57244 
L 622.636364 363.57244 
" clip-path="url(#pbc25b4b39a)" style="fill: none; stroke: #17becf; stroke-width: 1.5; stroke-linecap: square"/>
   </g>
   <g id="line2d_37">
    <path d="M 115.363636 369.36 
L 117.790779 367.91311 
L 122.645063 367.91311 
L 125.072205 366.46622 
L 142.062201 366.46622 
L 144.489343 365.01933 
L 151.77077 365.01933 
L 154.197912 363.57244 
L 156.625054 363.57244 
L 161.479339 360.67866 
L 173.61505 360.67866 
L 178.469334 357.78488 
L 180.896477 357.78488 
L 183.323619 356.33799 
L 200.313615 356.33799 
L 202.740757 354.8911 
L 205.167899 351.997321 
L 210.022184 351.997321 
L 212.449326 350.550431 
L 214.876468 350.550431 
L 217.30361 349.103541 
L 219.730752 349.103541 
L 222.157895 347.656651 
L 224.585037 347.656651 
L 229.439321 344.762871 
L 244.002175 344.762871 
L 248.856459 341.869091 
L 256.137886 341.869091 
L 258.565028 340.422201 
L 260.992171 340.422201 
L 263.419313 337.528421 
L 270.700739 337.528421 
L 275.555024 331.740861 
L 290.117877 331.740861 
L 292.54502 328.847081 
L 294.972162 327.400191 
L 302.253589 327.400191 
L 304.680731 325.953301 
L 307.107873 323.059522 
L 311.962157 323.059522 
L 314.3893 321.612632 
L 348.369291 321.612632 
L 350.796433 318.718852 
L 367.786429 308.590622 
L 392.057851 308.590622 
L 399.339278 304.249952 
L 404.193562 304.249952 
L 406.620705 301.356172 
L 411.474989 301.356172 
L 413.902131 299.909282 
L 421.183558 299.909282 
L 423.6107 298.462392 
L 426.037843 298.462392 
L 428.464985 297.015502 
L 430.892127 297.015502 
L 435.746411 294.121722 
L 467.299261 294.121722 
L 472.153545 291.227943 
L 491.570683 291.227943 
L 493.997825 289.781053 
L 501.279252 289.781053 
L 506.133536 286.887273 
L 513.414963 286.887273 
L 515.842105 285.440383 
L 520.69639 285.440383 
L 523.123532 283.993493 
L 535.259243 283.993493 
L 537.686385 282.546603 
L 540.113528 282.546603 
L 542.54067 279.652823 
L 544.967812 279.652823 
L 547.394954 278.205933 
L 559.530666 278.205933 
L 561.957808 276.759043 
L 566.812092 276.759043 
L 569.239234 275.312153 
L 571.666377 275.312153 
L 576.520661 272.418373 
L 593.510657 272.418373 
L 595.937799 270.971483 
L 598.364941 270.971483 
L 600.792084 269.524593 
L 612.927795 269.524593 
L 615.354937 266.630813 
L 617.782079 265.183923 
L 622.636364 265.183923 
L 622.636364 265.183923 
" clip-path="url(#pbc25b4b39a)" style="fill: none; stroke: #1f77b4; stroke-width: 1.5; stroke-linecap: square"/>
   </g>
   <g id="line2d_38">
    <path d="M 115.363636 315.825072 
L 132.353632 315.825072 
L 134.780774 314.378182 
L 142.062201 314.378182 
L 144.489343 312.931292 
L 154.197912 312.931292 
L 156.625054 311.484402 
L 163.906481 311.484402 
L 166.333623 310.037512 
L 168.760766 310.037512 
L 171.187908 308.590622 
L 178.469334 308.590622 
L 180.896477 307.143732 
L 185.750761 307.143732 
L 188.177903 305.696842 
L 190.605046 305.696842 
L 195.45933 302.803062 
L 210.022184 302.803062 
L 212.449326 301.356172 
L 214.876468 301.356172 
L 217.30361 299.909282 
L 219.730752 299.909282 
L 222.157895 297.015502 
L 224.585037 292.674833 
L 227.012179 291.227943 
L 236.720748 291.227943 
L 244.002175 286.887273 
L 251.283602 286.887273 
L 256.137886 283.993493 
L 282.836451 283.993493 
L 285.263593 279.652823 
L 287.690735 279.652823 
L 292.54502 273.865263 
L 297.399304 270.971483 
L 299.826446 270.971483 
L 302.253589 268.077703 
L 321.670726 268.077703 
L 324.097869 265.183923 
L 331.379295 265.183923 
L 333.806438 263.737033 
L 350.796433 263.737033 
L 353.223575 262.290144 
L 382.349282 262.290144 
L 384.776425 260.843254 
L 387.203567 260.843254 
L 389.630709 259.396364 
L 396.912136 259.396364 
L 399.339278 257.949474 
L 428.464985 257.949474 
L 430.892127 256.502584 
L 435.746411 256.502584 
L 440.600696 250.715024 
L 445.45498 250.715024 
L 450.309265 247.821244 
L 455.163549 247.821244 
L 457.590692 246.374354 
L 464.872118 246.374354 
L 467.299261 244.927464 
L 496.424967 244.927464 
L 498.85211 243.480574 
L 535.259243 243.480574 
L 537.686385 242.033684 
L 559.530666 242.033684 
L 561.957808 240.586794 
L 566.812092 240.586794 
L 569.239234 239.139904 
L 576.520661 239.139904 
L 581.374946 236.246124 
L 583.802088 236.246124 
L 586.22923 234.799234 
L 595.937799 234.799234 
L 600.792084 231.905455 
L 612.927795 231.905455 
L 615.354937 230.458565 
L 622.636364 230.458565 
L 622.636364 230.458565 
" clip-path="url(#pbc25b4b39a)" style="fill: none; stroke: #ff7f0e; stroke-width: 1.5; stroke-linecap: square"/>
   </g>
   <g id="patch_3">
    <path d="M 90 384.48 
L 90 51.84 
" style="fill: none; stroke: #000000; stroke-width: 0.8; stroke-linejoin: miter; stroke-linecap: square"/>
   </g>
   <g id="patch_4">
    <path d="M 648 384.48 
L 648 51.84 
" style="fill: none; stroke: #000000; stroke-width: 0.8; stroke-linejoin: miter; stroke-linecap: square"/>
   </g>
   <g id="patch_5">
    <path d="M 90 384.48 
L 648 384.48 
" style="fill: none; stroke: #000000; stroke-width: 0.8; stroke-linejoin: miter; stroke-linecap: square"/>
   </g>
   <g id="patch_6">
    <path d="M 90 51.84 
L 648 51.84 
" style="fill: none; stroke: #000000; stroke-width: 0.8; stroke-linejoin: miter; stroke-linecap: square"/>
   </g>
   <g id="text_16">
    <!-- Time Series of Votes for Each Keyword -->
    <g transform="translate(253.716563 45.84) scale(0.12 -0.12)">
     <defs>
      <path id="DejaVuSans-53" d="M 3425 4513 
L 3425 3897 
Q 3066 4069 2747 4153 
Q 2428 4238 2131 4238 
Q 1616 4238 1336 4038 
Q 1056 3838 1056 3469 
Q 1056 3159 1242 3001 
Q 1428 2844 1947 2747 
L 2328 2669 
Q 3034 2534 3370 2195 
Q 3706 1856 3706 1288 
Q 3706 609 3251 259 
Q 2797 -91 1919 -91 
Q 1588 -91 1214 -16 
Q 841 59 441 206 
L 441 856 
Q 825 641 1194 531 
Q 1563 422 1919 422 
Q 2459 422 2753 634 
Q 3047 847 3047 1241 
Q 3047 1584 2836 1778 
Q 2625 1972 2144 2069 
L 1759 2144 
Q 1053 2284 737 2584 
Q 422 2884 422 3419 
Q 422 4038 858 4394 
Q 1294 4750 2059 4750 
Q 2388 4750 2728 4690 
Q 3069 4631 3425 4513 
z
" transform="scale(0.015625)"/>
      <path id="DejaVuSans-72" d="M 2631 2963 
Q 2534 3019 2420 3045 
Q 2306 3072 2169 3072 
Q 1681 3072 1420 2755 
Q 1159 2438 1159 1844 
L 1159 0 
L 581 0 
L 581 3500 
L 1159 3500 
L 1159 2956 
Q 1341 3275 1631 3429 
Q 1922 3584 2338 3584 
Q 2397 3584 2469 3576 
Q 2541 3569 2628 3553 
L 2631 2963 
z
" transform="scale(0.015625)"/>
      <path id="DejaVuSans-66" d="M 2375 4863 
L 2375 4384 
L 1825 4384 
Q 1516 4384 1395 4259 
Q 1275 4134 1275 3809 
L 1275 3500 
L 2222 3500 
L 2222 3053 
L 1275 3053 
L 1275 0 
L 697 0 
L 697 3053 
L 147 3053 
L 147 3500 
L 697 3500 
L 697 3744 
Q 697 4328 969 4595 
Q 1241 4863 1831 4863 
L 2375 4863 
z
" transform="scale(0.015625)"/>
      <path id="DejaVuSans-45" d="M 628 4666 
L 3578 4666 
L 3578 4134 
L 1259 4134 
L 1259 2753 
L 3481 2753 
L 3481 2222 
L 1259 2222 
L 1259 531 
L 3634 531 
L 3634 0 
L 628 0 
L 628 4666 
z
" transform="scale(0.015625)"/>
      <path id="DejaVuSans-63" d="M 3122 3366 
L 3122 2828 
Q 2878 2963 2633 3030 
Q 2388 3097 2138 3097 
Q 1578 3097 1268 2742 
Q 959 2388 959 1747 
Q 959 1106 1268 751 
Q 1578 397 2138 397 
Q 2388 397 2633 464 
Q 2878 531 3122 666 
L 3122 134 
Q 2881 22 2623 -34 
Q 2366 -91 2075 -91 
Q 1284 -91 818 406 
Q 353 903 353 1747 
Q 353 2603 823 3093 
Q 1294 3584 2113 3584 
Q 2378 3584 2631 3529 
Q 2884 3475 3122 3366 
z
" transform="scale(0.015625)"/>
      <path id="DejaVuSans-68" d="M 3513 2113 
L 3513 0 
L 2938 0 
L 2938 2094 
Q 2938 2591 2744 2837 
Q 2550 3084 2163 3084 
Q 1697 3084 1428 2787 
Q 1159 2491 1159 1978 
L 1159 0 
L 581 0 
L 581 4863 
L 1159 4863 
L 1159 2956 
Q 1366 3272 1645 3428 
Q 1925 3584 2291 3584 
Q 2894 3584 3203 3211 
Q 3513 2838 3513 2113 
z
" transform="scale(0.015625)"/>
      <path id="DejaVuSans-4b" d="M 628 4666 
L 1259 4666 
L 1259 2694 
L 3353 4666 
L 4166 4666 
L 1850 2491 
L 4331 0 
L 3500 0 
L 1259 2247 
L 1259 0 
L 628 0 
L 628 4666 
z
" transform="scale(0.015625)"/>
      <path id="DejaVuSans-79" d="M 2059 -325 
Q 1816 -950 1584 -1140 
Q 1353 -1331 966 -1331 
L 506 -1331 
L 506 -850 
L 844 -850 
Q 1081 -850 1212 -737 
Q 1344 -625 1503 -206 
L 1606 56 
L 191 3500 
L 800 3500 
L 1894 763 
L 2988 3500 
L 3597 3500 
L 2059 -325 
z
" transform="scale(0.015625)"/>
      <path id="DejaVuSans-77" d="M 269 3500 
L 844 3500 
L 1563 769 
L 2278 3500 
L 2956 3500 
L 3675 769 
L 4391 3500 
L 4966 3500 
L 4050 0 
L 3372 0 
L 2619 2869 
L 1863 0 
L 1184 0 
L 269 3500 
z
" transform="scale(0.015625)"/>
     </defs>
     <use xlink:href="#DejaVuSans-54"/>
     <use xlink:href="#DejaVuSans-69" transform="translate(57.958984 0)"/>
     <use xlink:href="#DejaVuSans-6d" transform="translate(85.742188 0)"/>
     <use xlink:href="#DejaVuSans-65" transform="translate(183.154297 0)"/>
     <use xlink:href="#DejaVuSans-20" transform="translate(244.677734 0)"/>
     <use xlink:href="#DejaVuSans-53" transform="translate(276.464844 0)"/>
     <use xlink:href="#DejaVuSans-65" transform="translate(339.941406 0)"/>
     <use xlink:href="#DejaVuSans-72" transform="translate(401.464844 0)"/>
     <use xlink:href="#DejaVuSans-69" transform="translate(442.578125 0)"/>
     <use xlink:href="#DejaVuSans-65" transform="translate(470.361328 0)"/>
     <use xlink:href="#DejaVuSans-73" transform="translate(531.884766 0)"/>
     <use xlink:href="#DejaVuSans-20" transform="translate(583.984375 0)"/>
     <use xlink:href="#DejaVuSans-6f" transform="translate(615.771484 0)"/>
     <use xlink:href="#DejaVuSans-66" transform="translate(676.953125 0)"/>
     <use xlink:href="#DejaVuSans-20" transform="translate(712.158203 0)"/>
     <use xlink:href="#DejaVuSans-56" transform="translate(743.945312 0)"/>
     <use xlink:href="#DejaVuSans-6f" transform="translate(804.603516 0)"/>
     <use xlink:href="#DejaVuSans-74" transform="translate(865.785156 0)"/>
     <use xlink:href="#DejaVuSans-65" transform="translate(904.994141 0)"/>
     <use xlink:href="#DejaVuSans-73" transform="translate(966.517578 0)"/>
     <use xlink:href="#DejaVuSans-20" transform="translate(1018.617188 0)"/>
     <use xlink:href="#DejaVuSans-66" transform="translate(1050.404297 0)"/>
     <use xlink:href="#DejaVuSans-6f" transform="translate(1085.609375 0)"/>
     <use xlink:href="#DejaVuSans-72" transform="translate(1146.791016 0)"/>
     <use xlink:href="#DejaVuSans-20" transform="translate(1187.904297 0)"/>
     <use xlink:href="#DejaVuSans-45" transform="translate(1219.691406 0)"/>
     <use xlink:href="#DejaVuSans-61" transform="translate(1282.875 0)"/>
     <use xlink:href="#DejaVuSans-63" transform="translate(1344.154297 0)"/>
     <use xlink:href="#DejaVuSans-68" transform="translate(1399.134766 0)"/>
     <use xlink:href="#DejaVuSans-20" transform="translate(1462.513672 0)"/>
     <use xlink:href="#DejaVuSans-4b" transform="translate(1494.300781 0)"/>
     <use xlink:href="#DejaVuSans-65" transform="translate(1554.876953 0)"/>
     <use xlink:href="#DejaVuSans-79" transform="translate(1616.400391 0)"/>
     <use xlink:href="#DejaVuSans-77" transform="translate(1675.580078 0)"/>
     <use xlink:href="#DejaVuSans-6f" transform="translate(1757.367188 0)"/>
     <use xlink:href="#DejaVuSans-72" transform="translate(1818.548828 0)"/>
     <use xlink:href="#DejaVuSans-64" transform="translate(1857.912109 0)"/>
    </g>
   </g>
   <g id="legend_1">
    <g id="patch_7">
     <path d="M 97 235.9775 
L 149.245313 235.9775 
Q 151.245313 235.9775 151.245313 233.9775 
L 151.245313 58.84 
Q 151.245313 56.84 149.245313 56.84 
L 97 56.84 
Q 95 56.84 95 58.84 
L 95 233.9775 
Q 95 235.9775 97 235.9775 
z
" style="fill: #ffffff; opacity: 0.8; stroke: #cccccc; stroke-linejoin: miter"/>
    </g>
    <g id="line2d_39">
     <path d="M 99 64.938437 
L 109 64.938437 
L 119 64.938437 
" style="fill: none; stroke: #1f77b4; stroke-width: 1.5; stroke-linecap: square"/>
    </g>
    <g id="text_17">
     <!-- H01 -->
     <g transform="translate(127 68.438437) scale(0.1 -0.1)">
      <defs>
       <path id="DejaVuSans-48" d="M 628 4666 
L 1259 4666 
L 1259 2753 
L 3553 2753 
L 3553 4666 
L 4184 4666 
L 4184 0 
L 3553 0 
L 3553 2222 
L 1259 2222 
L 1259 0 
L 628 0 
L 628 4666 
z
" transform="scale(0.015625)"/>
      </defs>
      <use xlink:href="#DejaVuSans-48"/>
      <use xlink:href="#DejaVuSans-30" transform="translate(75.195312 0)"/>
      <use xlink:href="#DejaVuSans-31" transform="translate(138.818359 0)"/>
     </g>
    </g>
    <g id="line2d_40">
     <path d="M 99 79.616562 
L 109 79.616562 
L 119 79.616562 
" style="fill: none; stroke: #ff7f0e; stroke-width: 1.5; stroke-linecap: square"/>
    </g>
    <g id="text_18">
     <!-- H02 -->
     <g transform="translate(127 83.116562) scale(0.1 -0.1)">
      <use xlink:href="#DejaVuSans-48"/>
      <use xlink:href="#DejaVuSans-30" transform="translate(75.195312 0)"/>
      <use xlink:href="#DejaVuSans-32" transform="translate(138.818359 0)"/>
     </g>
    </g>
    <g id="line2d_41">
     <path d="M 99 94.294688 
L 109 94.294688 
L 119 94.294688 
" style="fill: none; stroke: #2ca02c; stroke-width: 1.5; stroke-linecap: square"/>
    </g>
    <g id="text_19">
     <!-- H03 -->
     <g transform="translate(127 97.794688) scale(0.1 -0.1)">
      <use xlink:href="#DejaVuSans-48"/>
      <use xlink:href="#DejaVuSans-30" transform="translate(75.195312 0)"/>
      <use xlink:href="#DejaVuSans-33" transform="translate(138.818359 0)"/>
     </g>
    </g>
    <g id="line2d_42">
     <path d="M 99 108.972812 
L 109 108.972812 
L 119 108.972812 
" style="fill: none; stroke: #d62728; stroke-width: 1.5; stroke-linecap: square"/>
    </g>
    <g id="text_20">
     <!-- H04 -->
     <g transform="translate(127 112.472812) scale(0.1 -0.1)">
      <use xlink:href="#DejaVuSans-48"/>
      <use xlink:href="#DejaVuSans-30" transform="translate(75.195312 0)"/>
      <use xlink:href="#DejaVuSans-34" transform="translate(138.818359 0)"/>
     </g>
    </g>
    <g id="line2d_43">
     <path d="M 99 123.650937 
L 109 123.650937 
L 119 123.650937 
" style="fill: none; stroke: #9467bd; stroke-width: 1.5; stroke-linecap: square"/>
    </g>
    <g id="text_21">
     <!-- H05 -->
     <g transform="translate(127 127.150937) scale(0.1 -0.1)">
      <use xlink:href="#DejaVuSans-48"/>
      <use xlink:href="#DejaVuSans-30" transform="translate(75.195312 0)"/>
      <use xlink:href="#DejaVuSans-35" transform="translate(138.818359 0)"/>
     </g>
    </g>
    <g id="line2d_44">
     <path d="M 99 138.329062 
L 109 138.329062 
L 119 138.329062 
" style="fill: none; stroke: #8c564b; stroke-width: 1.5; stroke-linecap: square"/>
    </g>
    <g id="text_22">
     <!-- H06 -->
     <g transform="translate(127 141.829062) scale(0.1 -0.1)">
      <use xlink:href="#DejaVuSans-48"/>
      <use xlink:href="#DejaVuSans-30" transform="translate(75.195312 0)"/>
      <use xlink:href="#DejaVuSans-36" transform="translate(138.818359 0)"/>
     </g>
    </g>
    <g id="line2d_45">
     <path d="M 99 153.007187 
L 109 153.007187 
L 119 153.007187 
" style="fill: none; stroke: #e377c2; stroke-width: 1.5; stroke-linecap: square"/>
    </g>
    <g id="text_23">
     <!-- H07 -->
     <g transform="translate(127 156.507187) scale(0.1 -0.1)">
      <use xlink:href="#DejaVuSans-48"/>
      <use xlink:href="#DejaVuSans-30" transform="translate(75.195312 0)"/>
      <use xlink:href="#DejaVuSans-37" transform="translate(138.818359 0)"/>
     </g>
    </g>
    <g id="line2d_46">
     <path d="M 99 167.685312 
L 109 167.685312 
L 119 167.685312 
" style="fill: none; stroke: #7f7f7f; stroke-width: 1.5; stroke-linecap: square"/>
    </g>
    <g id="text_24">
     <!-- H08 -->
     <g transform="translate(127 171.185312) scale(0.1 -0.1)">
      <defs>
       <path id="DejaVuSans-38" d="M 2034 2216 
Q 1584 2216 1326 1975 
Q 1069 1734 1069 1313 
Q 1069 891 1326 650 
Q 1584 409 2034 409 
Q 2484 409 2743 651 
Q 3003 894 3003 1313 
Q 3003 1734 2745 1975 
Q 2488 2216 2034 2216 
z
M 1403 2484 
Q 997 2584 770 2862 
Q 544 3141 544 3541 
Q 544 4100 942 4425 
Q 1341 4750 2034 4750 
Q 2731 4750 3128 4425 
Q 3525 4100 3525 3541 
Q 3525 3141 3298 2862 
Q 3072 2584 2669 2484 
Q 3125 2378 3379 2068 
Q 3634 1759 3634 1313 
Q 3634 634 3220 271 
Q 2806 -91 2034 -91 
Q 1263 -91 848 271 
Q 434 634 434 1313 
Q 434 1759 690 2068 
Q 947 2378 1403 2484 
z
M 1172 3481 
Q 1172 3119 1398 2916 
Q 1625 2713 2034 2713 
Q 2441 2713 2670 2916 
Q 2900 3119 2900 3481 
Q 2900 3844 2670 4047 
Q 2441 4250 2034 4250 
Q 1625 4250 1398 4047 
Q 1172 3844 1172 3481 
z
" transform="scale(0.015625)"/>
      </defs>
      <use xlink:href="#DejaVuSans-48"/>
      <use xlink:href="#DejaVuSans-30" transform="translate(75.195312 0)"/>
      <use xlink:href="#DejaVuSans-38" transform="translate(138.818359 0)"/>
     </g>
    </g>
    <g id="line2d_47">
     <path d="M 99 182.363437 
L 109 182.363437 
L 119 182.363437 
" style="fill: none; stroke: #bcbd22; stroke-width: 1.5; stroke-linecap: square"/>
    </g>
    <g id="text_25">
     <!-- H09 -->
     <g transform="translate(127 185.863437) scale(0.1 -0.1)">
      <defs>
       <path id="DejaVuSans-39" d="M 703 97 
L 703 672 
Q 941 559 1184 500 
Q 1428 441 1663 441 
Q 2288 441 2617 861 
Q 2947 1281 2994 2138 
Q 2813 1869 2534 1725 
Q 2256 1581 1919 1581 
Q 1219 1581 811 2004 
Q 403 2428 403 3163 
Q 403 3881 828 4315 
Q 1253 4750 1959 4750 
Q 2769 4750 3195 4129 
Q 3622 3509 3622 2328 
Q 3622 1225 3098 567 
Q 2575 -91 1691 -91 
Q 1453 -91 1209 -44 
Q 966 3 703 97 
z
M 1959 2075 
Q 2384 2075 2632 2365 
Q 2881 2656 2881 3163 
Q 2881 3666 2632 3958 
Q 2384 4250 1959 4250 
Q 1534 4250 1286 3958 
Q 1038 3666 1038 3163 
Q 1038 2656 1286 2365 
Q 1534 2075 1959 2075 
z
" transform="scale(0.015625)"/>
      </defs>
      <use xlink:href="#DejaVuSans-48"/>
      <use xlink:href="#DejaVuSans-30" transform="translate(75.195312 0)"/>
      <use xlink:href="#DejaVuSans-39" transform="translate(138.818359 0)"/>
     </g>
    </g>
    <g id="line2d_48">
     <path d="M 99 197.041562 
L 109 197.041562 
L 119 197.041562 
" style="fill: none; stroke: #17becf; stroke-width: 1.5; stroke-linecap: square"/>
    </g>
    <g id="text_26">
     <!-- H10 -->
     <g transform="translate(127 200.541562) scale(0.1 -0.1)">
      <use xlink:href="#DejaVuSans-48"/>
      <use xlink:href="#DejaVuSans-31" transform="translate(75.195312 0)"/>
      <use xlink:href="#DejaVuSans-30" transform="translate(138.818359 0)"/>
     </g>
    </g>
    <g id="line2d_49">
     <path d="M 99 211.719687 
L 109 211.719687 
L 119 211.719687 
" style="fill: none; stroke: #1f77b4; stroke-width: 1.5; stroke-linecap: square"/>
    </g>
    <g id="text_27">
     <!-- H11 -->
     <g transform="translate(127 215.219687) scale(0.1 -0.1)">
      <use xlink:href="#DejaVuSans-48"/>
      <use xlink:href="#DejaVuSans-31" transform="translate(75.195312 0)"/>
      <use xlink:href="#DejaVuSans-31" transform="translate(138.818359 0)"/>
     </g>
    </g>
    <g id="line2d_50">
     <path d="M 99 226.397812 
L 109 226.397812 
L 119 226.397812 
" style="fill: none; stroke: #ff7f0e; stroke-width: 1.5; stroke-linecap: square"/>
    </g>
    <g id="text_28">
     <!-- H12 -->
     <g transform="translate(127 229.897812) scale(0.1 -0.1)">
      <use xlink:href="#DejaVuSans-48"/>
      <use xlink:href="#DejaVuSans-31" transform="translate(75.195312 0)"/>
      <use xlink:href="#DejaVuSans-32" transform="translate(138.818359 0)"/>
     </g>
    </g>
   </g>
  </g>
 </g>
 <defs>
  <clipPath id="pbc25b4b39a">
   <rect x="90" y="51.84" width="558" height="332.64"/>
  </clipPath>
 </defs>
</svg>
