<?xml version="1.0" encoding="utf-8" standalone="no"?>
<!DOCTYPE svg PUBLIC "-//W3C//DTD SVG 1.1//EN"
  "http://www.w3.org/Graphics/SVG/1.1/DTD/svg11.dtd">
<svg xmlns:xlink="http://www.w3.org/1999/xlink" width="720pt" height="432pt" viewBox="0 0 720 432" xmlns="http://www.w3.org/2000/svg" version="1.1">
 <metadata>
  <rdf:RDF xmlns:dc="http://purl.org/dc/elements/1.1/" xmlns:cc="http://creativecommons.org/ns#" xmlns:rdf="http://www.w3.org/1999/02/22-rdf-syntax-ns#">
   <cc:Work>
    <dc:type rdf:resource="http://purl.org/dc/dcmitype/StillImage"/>
    <dc:date>2025-01-14T22:58:47.905784</dc:date>
    <dc:format>image/svg+xml</dc:format>
    <dc:creator>
     <cc:Agent>
      <dc:title>Matplotlib v3.10.0, https://matplotlib.org/</dc:title>
     </cc:Agent>
    </dc:creator>
   </cc:Work>
  </rdf:RDF>
 </metadata>
 <defs>
  <style type="text/css">*{stroke-linejoin: round; stroke-linecap: butt}</style>
 </defs>
 <g id="figure_1">
  <g id="patch_1">
   <path d="M 0 432 
L 720 432 
L 720 0 
L 0 0 
z
" style="fill: #ffffff"/>
  </g>
  <g id="axes_1">
   <g id="patch_2">
    <path d="M 90 384.48 
L 648 384.48 
L 648 51.84 
L 90 51.84 
z
" style="fill: #ffffff"/>
   </g>
   <g id="matplotlib.axis_1">
    <g id="xtick_1">
     <g id="line2d_1">
      <path d="M 139.604988 384.48 
L 139.604988 51.84 
" clip-path="url(#p8aae1c1ff2)" style="fill: none; stroke: #b0b0b0; stroke-width: 0.8; stroke-linecap: square"/>
     </g>
     <g id="line2d_2">
      <defs>
       <path id="m5e19985881" d="M 0 0 
L 0 3.5 
" style="stroke: #000000; stroke-width: 0.8"/>
      </defs>
      <g>
       <use xlink:href="#m5e19985881" x="139.604988" y="384.48" style="stroke: #000000; stroke-width: 0.8"/>
      </g>
     </g>
     <g id="text_1">
      <!-- 01-14 14 -->
      <g transform="translate(117.124519 399.078438) scale(0.1 -0.1)">
       <defs>
        <path id="DejaVuSans-30" d="M 2034 4250 
Q 1547 4250 1301 3770 
Q 1056 3291 1056 2328 
Q 1056 1369 1301 889 
Q 1547 409 2034 409 
Q 2525 409 2770 889 
Q 3016 1369 3016 2328 
Q 3016 3291 2770 3770 
Q 2525 4250 2034 4250 
z
M 2034 4750 
Q 2819 4750 3233 4129 
Q 3647 3509 3647 2328 
Q 3647 1150 3233 529 
Q 2819 -91 2034 -91 
Q 1250 -91 836 529 
Q 422 1150 422 2328 
Q 422 3509 836 4129 
Q 1250 4750 2034 4750 
z
" transform="scale(0.015625)"/>
        <path id="DejaVuSans-31" d="M 794 531 
L 1825 531 
L 1825 4091 
L 703 3866 
L 703 4441 
L 1819 4666 
L 2450 4666 
L 2450 531 
L 3481 531 
L 3481 0 
L 794 0 
L 794 531 
z
" transform="scale(0.015625)"/>
        <path id="DejaVuSans-2d" d="M 313 2009 
L 1997 2009 
L 1997 1497 
L 313 1497 
L 313 2009 
z
" transform="scale(0.015625)"/>
        <path id="DejaVuSans-34" d="M 2419 4116 
L 825 1625 
L 2419 1625 
L 2419 4116 
z
M 2253 4666 
L 3047 4666 
L 3047 1625 
L 3713 1625 
L 3713 1100 
L 3047 1100 
L 3047 0 
L 2419 0 
L 2419 1100 
L 313 1100 
L 313 1709 
L 2253 4666 
z
" transform="scale(0.015625)"/>
        <path id="DejaVuSans-20" transform="scale(0.015625)"/>
       </defs>
       <use xlink:href="#DejaVuSans-30"/>
       <use xlink:href="#DejaVuSans-31" transform="translate(63.623047 0)"/>
       <use xlink:href="#DejaVuSans-2d" transform="translate(127.246094 0)"/>
       <use xlink:href="#DejaVuSans-31" transform="translate(163.330078 0)"/>
       <use xlink:href="#DejaVuSans-34" transform="translate(226.953125 0)"/>
       <use xlink:href="#DejaVuSans-20" transform="translate(290.576172 0)"/>
       <use xlink:href="#DejaVuSans-31" transform="translate(322.363281 0)"/>
       <use xlink:href="#DejaVuSans-34" transform="translate(385.986328 0)"/>
      </g>
     </g>
    </g>
    <g id="xtick_2">
     <g id="line2d_3">
      <path d="M 193.474658 384.48 
L 193.474658 51.84 
" clip-path="url(#p8aae1c1ff2)" style="fill: none; stroke: #b0b0b0; stroke-width: 0.8; stroke-linecap: square"/>
     </g>
     <g id="line2d_4">
      <g>
       <use xlink:href="#m5e19985881" x="193.474658" y="384.48" style="stroke: #000000; stroke-width: 0.8"/>
      </g>
     </g>
     <g id="text_2">
      <!-- 01-14 15 -->
      <g transform="translate(170.994189 399.078438) scale(0.1 -0.1)">
       <defs>
        <path id="DejaVuSans-35" d="M 691 4666 
L 3169 4666 
L 3169 4134 
L 1269 4134 
L 1269 2991 
Q 1406 3038 1543 3061 
Q 1681 3084 1819 3084 
Q 2600 3084 3056 2656 
Q 3513 2228 3513 1497 
Q 3513 744 3044 326 
Q 2575 -91 1722 -91 
Q 1428 -91 1123 -41 
Q 819 9 494 109 
L 494 744 
Q 775 591 1075 516 
Q 1375 441 1709 441 
Q 2250 441 2565 725 
Q 2881 1009 2881 1497 
Q 2881 1984 2565 2268 
Q 2250 2553 1709 2553 
Q 1456 2553 1204 2497 
Q 953 2441 691 2322 
L 691 4666 
z
" transform="scale(0.015625)"/>
       </defs>
       <use xlink:href="#DejaVuSans-30"/>
       <use xlink:href="#DejaVuSans-31" transform="translate(63.623047 0)"/>
       <use xlink:href="#DejaVuSans-2d" transform="translate(127.246094 0)"/>
       <use xlink:href="#DejaVuSans-31" transform="translate(163.330078 0)"/>
       <use xlink:href="#DejaVuSans-34" transform="translate(226.953125 0)"/>
       <use xlink:href="#DejaVuSans-20" transform="translate(290.576172 0)"/>
       <use xlink:href="#DejaVuSans-31" transform="translate(322.363281 0)"/>
       <use xlink:href="#DejaVuSans-35" transform="translate(385.986328 0)"/>
      </g>
     </g>
    </g>
    <g id="xtick_3">
     <g id="line2d_5">
      <path d="M 247.344328 384.48 
L 247.344328 51.84 
" clip-path="url(#p8aae1c1ff2)" style="fill: none; stroke: #b0b0b0; stroke-width: 0.8; stroke-linecap: square"/>
     </g>
     <g id="line2d_6">
      <g>
       <use xlink:href="#m5e19985881" x="247.344328" y="384.48" style="stroke: #000000; stroke-width: 0.8"/>
      </g>
     </g>
     <g id="text_3">
      <!-- 01-14 16 -->
      <g transform="translate(224.863859 399.078438) scale(0.1 -0.1)">
       <defs>
        <path id="DejaVuSans-36" d="M 2113 2584 
Q 1688 2584 1439 2293 
Q 1191 2003 1191 1497 
Q 1191 994 1439 701 
Q 1688 409 2113 409 
Q 2538 409 2786 701 
Q 3034 994 3034 1497 
Q 3034 2003 2786 2293 
Q 2538 2584 2113 2584 
z
M 3366 4563 
L 3366 3988 
Q 3128 4100 2886 4159 
Q 2644 4219 2406 4219 
Q 1781 4219 1451 3797 
Q 1122 3375 1075 2522 
Q 1259 2794 1537 2939 
Q 1816 3084 2150 3084 
Q 2853 3084 3261 2657 
Q 3669 2231 3669 1497 
Q 3669 778 3244 343 
Q 2819 -91 2113 -91 
Q 1303 -91 875 529 
Q 447 1150 447 2328 
Q 447 3434 972 4092 
Q 1497 4750 2381 4750 
Q 2619 4750 2861 4703 
Q 3103 4656 3366 4563 
z
" transform="scale(0.015625)"/>
       </defs>
       <use xlink:href="#DejaVuSans-30"/>
       <use xlink:href="#DejaVuSans-31" transform="translate(63.623047 0)"/>
       <use xlink:href="#DejaVuSans-2d" transform="translate(127.246094 0)"/>
       <use xlink:href="#DejaVuSans-31" transform="translate(163.330078 0)"/>
       <use xlink:href="#DejaVuSans-34" transform="translate(226.953125 0)"/>
       <use xlink:href="#DejaVuSans-20" transform="translate(290.576172 0)"/>
       <use xlink:href="#DejaVuSans-31" transform="translate(322.363281 0)"/>
       <use xlink:href="#DejaVuSans-36" transform="translate(385.986328 0)"/>
      </g>
     </g>
    </g>
    <g id="xtick_4">
     <g id="line2d_7">
      <path d="M 301.213998 384.48 
L 301.213998 51.84 
" clip-path="url(#p8aae1c1ff2)" style="fill: none; stroke: #b0b0b0; stroke-width: 0.8; stroke-linecap: square"/>
     </g>
     <g id="line2d_8">
      <g>
       <use xlink:href="#m5e19985881" x="301.213998" y="384.48" style="stroke: #000000; stroke-width: 0.8"/>
      </g>
     </g>
     <g id="text_4">
      <!-- 01-14 17 -->
      <g transform="translate(278.73353 399.078438) scale(0.1 -0.1)">
       <defs>
        <path id="DejaVuSans-37" d="M 525 4666 
L 3525 4666 
L 3525 4397 
L 1831 0 
L 1172 0 
L 2766 4134 
L 525 4134 
L 525 4666 
z
" transform="scale(0.015625)"/>
       </defs>
       <use xlink:href="#DejaVuSans-30"/>
       <use xlink:href="#DejaVuSans-31" transform="translate(63.623047 0)"/>
       <use xlink:href="#DejaVuSans-2d" transform="translate(127.246094 0)"/>
       <use xlink:href="#DejaVuSans-31" transform="translate(163.330078 0)"/>
       <use xlink:href="#DejaVuSans-34" transform="translate(226.953125 0)"/>
       <use xlink:href="#DejaVuSans-20" transform="translate(290.576172 0)"/>
       <use xlink:href="#DejaVuSans-31" transform="translate(322.363281 0)"/>
       <use xlink:href="#DejaVuSans-37" transform="translate(385.986328 0)"/>
      </g>
     </g>
    </g>
    <g id="xtick_5">
     <g id="line2d_9">
      <path d="M 355.083669 384.48 
L 355.083669 51.84 
" clip-path="url(#p8aae1c1ff2)" style="fill: none; stroke: #b0b0b0; stroke-width: 0.8; stroke-linecap: square"/>
     </g>
     <g id="line2d_10">
      <g>
       <use xlink:href="#m5e19985881" x="355.083669" y="384.48" style="stroke: #000000; stroke-width: 0.8"/>
      </g>
     </g>
     <g id="text_5">
      <!-- 01-14 18 -->
      <g transform="translate(332.6032 399.078438) scale(0.1 -0.1)">
       <defs>
        <path id="DejaVuSans-38" d="M 2034 2216 
Q 1584 2216 1326 1975 
Q 1069 1734 1069 1313 
Q 1069 891 1326 650 
Q 1584 409 2034 409 
Q 2484 409 2743 651 
Q 3003 894 3003 1313 
Q 3003 1734 2745 1975 
Q 2488 2216 2034 2216 
z
M 1403 2484 
Q 997 2584 770 2862 
Q 544 3141 544 3541 
Q 544 4100 942 4425 
Q 1341 4750 2034 4750 
Q 2731 4750 3128 4425 
Q 3525 4100 3525 3541 
Q 3525 3141 3298 2862 
Q 3072 2584 2669 2484 
Q 3125 2378 3379 2068 
Q 3634 1759 3634 1313 
Q 3634 634 3220 271 
Q 2806 -91 2034 -91 
Q 1263 -91 848 271 
Q 434 634 434 1313 
Q 434 1759 690 2068 
Q 947 2378 1403 2484 
z
M 1172 3481 
Q 1172 3119 1398 2916 
Q 1625 2713 2034 2713 
Q 2441 2713 2670 2916 
Q 2900 3119 2900 3481 
Q 2900 3844 2670 4047 
Q 2441 4250 2034 4250 
Q 1625 4250 1398 4047 
Q 1172 3844 1172 3481 
z
" transform="scale(0.015625)"/>
       </defs>
       <use xlink:href="#DejaVuSans-30"/>
       <use xlink:href="#DejaVuSans-31" transform="translate(63.623047 0)"/>
       <use xlink:href="#DejaVuSans-2d" transform="translate(127.246094 0)"/>
       <use xlink:href="#DejaVuSans-31" transform="translate(163.330078 0)"/>
       <use xlink:href="#DejaVuSans-34" transform="translate(226.953125 0)"/>
       <use xlink:href="#DejaVuSans-20" transform="translate(290.576172 0)"/>
       <use xlink:href="#DejaVuSans-31" transform="translate(322.363281 0)"/>
       <use xlink:href="#DejaVuSans-38" transform="translate(385.986328 0)"/>
      </g>
     </g>
    </g>
    <g id="xtick_6">
     <g id="line2d_11">
      <path d="M 408.953339 384.48 
L 408.953339 51.84 
" clip-path="url(#p8aae1c1ff2)" style="fill: none; stroke: #b0b0b0; stroke-width: 0.8; stroke-linecap: square"/>
     </g>
     <g id="line2d_12">
      <g>
       <use xlink:href="#m5e19985881" x="408.953339" y="384.48" style="stroke: #000000; stroke-width: 0.8"/>
      </g>
     </g>
     <g id="text_6">
      <!-- 01-14 19 -->
      <g transform="translate(386.47287 399.078438) scale(0.1 -0.1)">
       <defs>
        <path id="DejaVuSans-39" d="M 703 97 
L 703 672 
Q 941 559 1184 500 
Q 1428 441 1663 441 
Q 2288 441 2617 861 
Q 2947 1281 2994 2138 
Q 2813 1869 2534 1725 
Q 2256 1581 1919 1581 
Q 1219 1581 811 2004 
Q 403 2428 403 3163 
Q 403 3881 828 4315 
Q 1253 4750 1959 4750 
Q 2769 4750 3195 4129 
Q 3622 3509 3622 2328 
Q 3622 1225 3098 567 
Q 2575 -91 1691 -91 
Q 1453 -91 1209 -44 
Q 966 3 703 97 
z
M 1959 2075 
Q 2384 2075 2632 2365 
Q 2881 2656 2881 3163 
Q 2881 3666 2632 3958 
Q 2384 4250 1959 4250 
Q 1534 4250 1286 3958 
Q 1038 3666 1038 3163 
Q 1038 2656 1286 2365 
Q 1534 2075 1959 2075 
z
" transform="scale(0.015625)"/>
       </defs>
       <use xlink:href="#DejaVuSans-30"/>
       <use xlink:href="#DejaVuSans-31" transform="translate(63.623047 0)"/>
       <use xlink:href="#DejaVuSans-2d" transform="translate(127.246094 0)"/>
       <use xlink:href="#DejaVuSans-31" transform="translate(163.330078 0)"/>
       <use xlink:href="#DejaVuSans-34" transform="translate(226.953125 0)"/>
       <use xlink:href="#DejaVuSans-20" transform="translate(290.576172 0)"/>
       <use xlink:href="#DejaVuSans-31" transform="translate(322.363281 0)"/>
       <use xlink:href="#DejaVuSans-39" transform="translate(385.986328 0)"/>
      </g>
     </g>
    </g>
    <g id="xtick_7">
     <g id="line2d_13">
      <path d="M 462.823009 384.48 
L 462.823009 51.84 
" clip-path="url(#p8aae1c1ff2)" style="fill: none; stroke: #b0b0b0; stroke-width: 0.8; stroke-linecap: square"/>
     </g>
     <g id="line2d_14">
      <g>
       <use xlink:href="#m5e19985881" x="462.823009" y="384.48" style="stroke: #000000; stroke-width: 0.8"/>
      </g>
     </g>
     <g id="text_7">
      <!-- 01-14 20 -->
      <g transform="translate(440.34254 399.078438) scale(0.1 -0.1)">
       <defs>
        <path id="DejaVuSans-32" d="M 1228 531 
L 3431 531 
L 3431 0 
L 469 0 
L 469 531 
Q 828 903 1448 1529 
Q 2069 2156 2228 2338 
Q 2531 2678 2651 2914 
Q 2772 3150 2772 3378 
Q 2772 3750 2511 3984 
Q 2250 4219 1831 4219 
Q 1534 4219 1204 4116 
Q 875 4013 500 3803 
L 500 4441 
Q 881 4594 1212 4672 
Q 1544 4750 1819 4750 
Q 2544 4750 2975 4387 
Q 3406 4025 3406 3419 
Q 3406 3131 3298 2873 
Q 3191 2616 2906 2266 
Q 2828 2175 2409 1742 
Q 1991 1309 1228 531 
z
" transform="scale(0.015625)"/>
       </defs>
       <use xlink:href="#DejaVuSans-30"/>
       <use xlink:href="#DejaVuSans-31" transform="translate(63.623047 0)"/>
       <use xlink:href="#DejaVuSans-2d" transform="translate(127.246094 0)"/>
       <use xlink:href="#DejaVuSans-31" transform="translate(163.330078 0)"/>
       <use xlink:href="#DejaVuSans-34" transform="translate(226.953125 0)"/>
       <use xlink:href="#DejaVuSans-20" transform="translate(290.576172 0)"/>
       <use xlink:href="#DejaVuSans-32" transform="translate(322.363281 0)"/>
       <use xlink:href="#DejaVuSans-30" transform="translate(385.986328 0)"/>
      </g>
     </g>
    </g>
    <g id="xtick_8">
     <g id="line2d_15">
      <path d="M 516.692679 384.48 
L 516.692679 51.84 
" clip-path="url(#p8aae1c1ff2)" style="fill: none; stroke: #b0b0b0; stroke-width: 0.8; stroke-linecap: square"/>
     </g>
     <g id="line2d_16">
      <g>
       <use xlink:href="#m5e19985881" x="516.692679" y="384.48" style="stroke: #000000; stroke-width: 0.8"/>
      </g>
     </g>
     <g id="text_8">
      <!-- 01-14 21 -->
      <g transform="translate(494.21221 399.078438) scale(0.1 -0.1)">
       <use xlink:href="#DejaVuSans-30"/>
       <use xlink:href="#DejaVuSans-31" transform="translate(63.623047 0)"/>
       <use xlink:href="#DejaVuSans-2d" transform="translate(127.246094 0)"/>
       <use xlink:href="#DejaVuSans-31" transform="translate(163.330078 0)"/>
       <use xlink:href="#DejaVuSans-34" transform="translate(226.953125 0)"/>
       <use xlink:href="#DejaVuSans-20" transform="translate(290.576172 0)"/>
       <use xlink:href="#DejaVuSans-32" transform="translate(322.363281 0)"/>
       <use xlink:href="#DejaVuSans-31" transform="translate(385.986328 0)"/>
      </g>
     </g>
    </g>
    <g id="xtick_9">
     <g id="line2d_17">
      <path d="M 570.562349 384.48 
L 570.562349 51.84 
" clip-path="url(#p8aae1c1ff2)" style="fill: none; stroke: #b0b0b0; stroke-width: 0.8; stroke-linecap: square"/>
     </g>
     <g id="line2d_18">
      <g>
       <use xlink:href="#m5e19985881" x="570.562349" y="384.48" style="stroke: #000000; stroke-width: 0.8"/>
      </g>
     </g>
     <g id="text_9">
      <!-- 01-14 22 -->
      <g transform="translate(548.08188 399.078438) scale(0.1 -0.1)">
       <use xlink:href="#DejaVuSans-30"/>
       <use xlink:href="#DejaVuSans-31" transform="translate(63.623047 0)"/>
       <use xlink:href="#DejaVuSans-2d" transform="translate(127.246094 0)"/>
       <use xlink:href="#DejaVuSans-31" transform="translate(163.330078 0)"/>
       <use xlink:href="#DejaVuSans-34" transform="translate(226.953125 0)"/>
       <use xlink:href="#DejaVuSans-20" transform="translate(290.576172 0)"/>
       <use xlink:href="#DejaVuSans-32" transform="translate(322.363281 0)"/>
       <use xlink:href="#DejaVuSans-32" transform="translate(385.986328 0)"/>
      </g>
     </g>
    </g>
    <g id="xtick_10">
     <g id="line2d_19">
      <path d="M 624.432019 384.48 
L 624.432019 51.84 
" clip-path="url(#p8aae1c1ff2)" style="fill: none; stroke: #b0b0b0; stroke-width: 0.8; stroke-linecap: square"/>
     </g>
     <g id="line2d_20">
      <g>
       <use xlink:href="#m5e19985881" x="624.432019" y="384.48" style="stroke: #000000; stroke-width: 0.8"/>
      </g>
     </g>
     <g id="text_10">
      <!-- 01-14 23 -->
      <g transform="translate(601.951551 399.078438) scale(0.1 -0.1)">
       <defs>
        <path id="DejaVuSans-33" d="M 2597 2516 
Q 3050 2419 3304 2112 
Q 3559 1806 3559 1356 
Q 3559 666 3084 287 
Q 2609 -91 1734 -91 
Q 1441 -91 1130 -33 
Q 819 25 488 141 
L 488 750 
Q 750 597 1062 519 
Q 1375 441 1716 441 
Q 2309 441 2620 675 
Q 2931 909 2931 1356 
Q 2931 1769 2642 2001 
Q 2353 2234 1838 2234 
L 1294 2234 
L 1294 2753 
L 1863 2753 
Q 2328 2753 2575 2939 
Q 2822 3125 2822 3475 
Q 2822 3834 2567 4026 
Q 2313 4219 1838 4219 
Q 1578 4219 1281 4162 
Q 984 4106 628 3988 
L 628 4550 
Q 988 4650 1302 4700 
Q 1616 4750 1894 4750 
Q 2613 4750 3031 4423 
Q 3450 4097 3450 3541 
Q 3450 3153 3228 2886 
Q 3006 2619 2597 2516 
z
" transform="scale(0.015625)"/>
       </defs>
       <use xlink:href="#DejaVuSans-30"/>
       <use xlink:href="#DejaVuSans-31" transform="translate(63.623047 0)"/>
       <use xlink:href="#DejaVuSans-2d" transform="translate(127.246094 0)"/>
       <use xlink:href="#DejaVuSans-31" transform="translate(163.330078 0)"/>
       <use xlink:href="#DejaVuSans-34" transform="translate(226.953125 0)"/>
       <use xlink:href="#DejaVuSans-20" transform="translate(290.576172 0)"/>
       <use xlink:href="#DejaVuSans-32" transform="translate(322.363281 0)"/>
       <use xlink:href="#DejaVuSans-33" transform="translate(385.986328 0)"/>
      </g>
     </g>
    </g>
    <g id="text_11">
     <!-- Date and Time -->
     <g transform="translate(332.230469 412.756563) scale(0.1 -0.1)">
      <defs>
       <path id="DejaVuSans-44" d="M 1259 4147 
L 1259 519 
L 2022 519 
Q 2988 519 3436 956 
Q 3884 1394 3884 2338 
Q 3884 3275 3436 3711 
Q 2988 4147 2022 4147 
L 1259 4147 
z
M 628 4666 
L 1925 4666 
Q 3281 4666 3915 4102 
Q 4550 3538 4550 2338 
Q 4550 1131 3912 565 
Q 3275 0 1925 0 
L 628 0 
L 628 4666 
z
" transform="scale(0.015625)"/>
       <path id="DejaVuSans-61" d="M 2194 1759 
Q 1497 1759 1228 1600 
Q 959 1441 959 1056 
Q 959 750 1161 570 
Q 1363 391 1709 391 
Q 2188 391 2477 730 
Q 2766 1069 2766 1631 
L 2766 1759 
L 2194 1759 
z
M 3341 1997 
L 3341 0 
L 2766 0 
L 2766 531 
Q 2569 213 2275 61 
Q 1981 -91 1556 -91 
Q 1019 -91 701 211 
Q 384 513 384 1019 
Q 384 1609 779 1909 
Q 1175 2209 1959 2209 
L 2766 2209 
L 2766 2266 
Q 2766 2663 2505 2880 
Q 2244 3097 1772 3097 
Q 1472 3097 1187 3025 
Q 903 2953 641 2809 
L 641 3341 
Q 956 3463 1253 3523 
Q 1550 3584 1831 3584 
Q 2591 3584 2966 3190 
Q 3341 2797 3341 1997 
z
" transform="scale(0.015625)"/>
       <path id="DejaVuSans-74" d="M 1172 4494 
L 1172 3500 
L 2356 3500 
L 2356 3053 
L 1172 3053 
L 1172 1153 
Q 1172 725 1289 603 
Q 1406 481 1766 481 
L 2356 481 
L 2356 0 
L 1766 0 
Q 1100 0 847 248 
Q 594 497 594 1153 
L 594 3053 
L 172 3053 
L 172 3500 
L 594 3500 
L 594 4494 
L 1172 4494 
z
" transform="scale(0.015625)"/>
       <path id="DejaVuSans-65" d="M 3597 1894 
L 3597 1613 
L 953 1613 
Q 991 1019 1311 708 
Q 1631 397 2203 397 
Q 2534 397 2845 478 
Q 3156 559 3463 722 
L 3463 178 
Q 3153 47 2828 -22 
Q 2503 -91 2169 -91 
Q 1331 -91 842 396 
Q 353 884 353 1716 
Q 353 2575 817 3079 
Q 1281 3584 2069 3584 
Q 2775 3584 3186 3129 
Q 3597 2675 3597 1894 
z
M 3022 2063 
Q 3016 2534 2758 2815 
Q 2500 3097 2075 3097 
Q 1594 3097 1305 2825 
Q 1016 2553 972 2059 
L 3022 2063 
z
" transform="scale(0.015625)"/>
       <path id="DejaVuSans-6e" d="M 3513 2113 
L 3513 0 
L 2938 0 
L 2938 2094 
Q 2938 2591 2744 2837 
Q 2550 3084 2163 3084 
Q 1697 3084 1428 2787 
Q 1159 2491 1159 1978 
L 1159 0 
L 581 0 
L 581 3500 
L 1159 3500 
L 1159 2956 
Q 1366 3272 1645 3428 
Q 1925 3584 2291 3584 
Q 2894 3584 3203 3211 
Q 3513 2838 3513 2113 
z
" transform="scale(0.015625)"/>
       <path id="DejaVuSans-64" d="M 2906 2969 
L 2906 4863 
L 3481 4863 
L 3481 0 
L 2906 0 
L 2906 525 
Q 2725 213 2448 61 
Q 2172 -91 1784 -91 
Q 1150 -91 751 415 
Q 353 922 353 1747 
Q 353 2572 751 3078 
Q 1150 3584 1784 3584 
Q 2172 3584 2448 3432 
Q 2725 3281 2906 2969 
z
M 947 1747 
Q 947 1113 1208 752 
Q 1469 391 1925 391 
Q 2381 391 2643 752 
Q 2906 1113 2906 1747 
Q 2906 2381 2643 2742 
Q 2381 3103 1925 3103 
Q 1469 3103 1208 2742 
Q 947 2381 947 1747 
z
" transform="scale(0.015625)"/>
       <path id="DejaVuSans-54" d="M -19 4666 
L 3928 4666 
L 3928 4134 
L 2272 4134 
L 2272 0 
L 1638 0 
L 1638 4134 
L -19 4134 
L -19 4666 
z
" transform="scale(0.015625)"/>
       <path id="DejaVuSans-69" d="M 603 3500 
L 1178 3500 
L 1178 0 
L 603 0 
L 603 3500 
z
M 603 4863 
L 1178 4863 
L 1178 4134 
L 603 4134 
L 603 4863 
z
" transform="scale(0.015625)"/>
       <path id="DejaVuSans-6d" d="M 3328 2828 
Q 3544 3216 3844 3400 
Q 4144 3584 4550 3584 
Q 5097 3584 5394 3201 
Q 5691 2819 5691 2113 
L 5691 0 
L 5113 0 
L 5113 2094 
Q 5113 2597 4934 2840 
Q 4756 3084 4391 3084 
Q 3944 3084 3684 2787 
Q 3425 2491 3425 1978 
L 3425 0 
L 2847 0 
L 2847 2094 
Q 2847 2600 2669 2842 
Q 2491 3084 2119 3084 
Q 1678 3084 1418 2786 
Q 1159 2488 1159 1978 
L 1159 0 
L 581 0 
L 581 3500 
L 1159 3500 
L 1159 2956 
Q 1356 3278 1631 3431 
Q 1906 3584 2284 3584 
Q 2666 3584 2933 3390 
Q 3200 3197 3328 2828 
z
" transform="scale(0.015625)"/>
      </defs>
      <use xlink:href="#DejaVuSans-44"/>
      <use xlink:href="#DejaVuSans-61" transform="translate(77.001953 0)"/>
      <use xlink:href="#DejaVuSans-74" transform="translate(138.28125 0)"/>
      <use xlink:href="#DejaVuSans-65" transform="translate(177.490234 0)"/>
      <use xlink:href="#DejaVuSans-20" transform="translate(239.013672 0)"/>
      <use xlink:href="#DejaVuSans-61" transform="translate(270.800781 0)"/>
      <use xlink:href="#DejaVuSans-6e" transform="translate(332.080078 0)"/>
      <use xlink:href="#DejaVuSans-64" transform="translate(395.458984 0)"/>
      <use xlink:href="#DejaVuSans-20" transform="translate(458.935547 0)"/>
      <use xlink:href="#DejaVuSans-54" transform="translate(490.722656 0)"/>
      <use xlink:href="#DejaVuSans-69" transform="translate(548.681641 0)"/>
      <use xlink:href="#DejaVuSans-6d" transform="translate(576.464844 0)"/>
      <use xlink:href="#DejaVuSans-65" transform="translate(673.876953 0)"/>
     </g>
    </g>
   </g>
   <g id="matplotlib.axis_2">
    <g id="ytick_1">
     <g id="line2d_21">
      <path d="M 90 370.310943 
L 648 370.310943 
" clip-path="url(#p8aae1c1ff2)" style="fill: none; stroke: #b0b0b0; stroke-width: 0.8; stroke-linecap: square"/>
     </g>
     <g id="line2d_22">
      <defs>
       <path id="mbac0026204" d="M 0 0 
L -3.5 0 
" style="stroke: #000000; stroke-width: 0.8"/>
      </defs>
      <g>
       <use xlink:href="#mbac0026204" x="90" y="370.310943" style="stroke: #000000; stroke-width: 0.8"/>
      </g>
     </g>
     <g id="text_12">
      <!-- 0 -->
      <g transform="translate(76.6375 374.110162) scale(0.1 -0.1)">
       <use xlink:href="#DejaVuSans-30"/>
      </g>
     </g>
    </g>
    <g id="ytick_2">
     <g id="line2d_23">
      <path d="M 90 322.763774 
L 648 322.763774 
" clip-path="url(#p8aae1c1ff2)" style="fill: none; stroke: #b0b0b0; stroke-width: 0.8; stroke-linecap: square"/>
     </g>
     <g id="line2d_24">
      <g>
       <use xlink:href="#mbac0026204" x="90" y="322.763774" style="stroke: #000000; stroke-width: 0.8"/>
      </g>
     </g>
     <g id="text_13">
      <!-- 50 -->
      <g transform="translate(70.275 326.562992) scale(0.1 -0.1)">
       <use xlink:href="#DejaVuSans-35"/>
       <use xlink:href="#DejaVuSans-30" transform="translate(63.623047 0)"/>
      </g>
     </g>
    </g>
    <g id="ytick_3">
     <g id="line2d_25">
      <path d="M 90 275.216604 
L 648 275.216604 
" clip-path="url(#p8aae1c1ff2)" style="fill: none; stroke: #b0b0b0; stroke-width: 0.8; stroke-linecap: square"/>
     </g>
     <g id="line2d_26">
      <g>
       <use xlink:href="#mbac0026204" x="90" y="275.216604" style="stroke: #000000; stroke-width: 0.8"/>
      </g>
     </g>
     <g id="text_14">
      <!-- 100 -->
      <g transform="translate(63.9125 279.015823) scale(0.1 -0.1)">
       <use xlink:href="#DejaVuSans-31"/>
       <use xlink:href="#DejaVuSans-30" transform="translate(63.623047 0)"/>
       <use xlink:href="#DejaVuSans-30" transform="translate(127.246094 0)"/>
      </g>
     </g>
    </g>
    <g id="ytick_4">
     <g id="line2d_27">
      <path d="M 90 227.669434 
L 648 227.669434 
" clip-path="url(#p8aae1c1ff2)" style="fill: none; stroke: #b0b0b0; stroke-width: 0.8; stroke-linecap: square"/>
     </g>
     <g id="line2d_28">
      <g>
       <use xlink:href="#mbac0026204" x="90" y="227.669434" style="stroke: #000000; stroke-width: 0.8"/>
      </g>
     </g>
     <g id="text_15">
      <!-- 150 -->
      <g transform="translate(63.9125 231.468653) scale(0.1 -0.1)">
       <use xlink:href="#DejaVuSans-31"/>
       <use xlink:href="#DejaVuSans-35" transform="translate(63.623047 0)"/>
       <use xlink:href="#DejaVuSans-30" transform="translate(127.246094 0)"/>
      </g>
     </g>
    </g>
    <g id="ytick_5">
     <g id="line2d_29">
      <path d="M 90 180.122264 
L 648 180.122264 
" clip-path="url(#p8aae1c1ff2)" style="fill: none; stroke: #b0b0b0; stroke-width: 0.8; stroke-linecap: square"/>
     </g>
     <g id="line2d_30">
      <g>
       <use xlink:href="#mbac0026204" x="90" y="180.122264" style="stroke: #000000; stroke-width: 0.8"/>
      </g>
     </g>
     <g id="text_16">
      <!-- 200 -->
      <g transform="translate(63.9125 183.921483) scale(0.1 -0.1)">
       <use xlink:href="#DejaVuSans-32"/>
       <use xlink:href="#DejaVuSans-30" transform="translate(63.623047 0)"/>
       <use xlink:href="#DejaVuSans-30" transform="translate(127.246094 0)"/>
      </g>
     </g>
    </g>
    <g id="ytick_6">
     <g id="line2d_31">
      <path d="M 90 132.575094 
L 648 132.575094 
" clip-path="url(#p8aae1c1ff2)" style="fill: none; stroke: #b0b0b0; stroke-width: 0.8; stroke-linecap: square"/>
     </g>
     <g id="line2d_32">
      <g>
       <use xlink:href="#mbac0026204" x="90" y="132.575094" style="stroke: #000000; stroke-width: 0.8"/>
      </g>
     </g>
     <g id="text_17">
      <!-- 250 -->
      <g transform="translate(63.9125 136.374313) scale(0.1 -0.1)">
       <use xlink:href="#DejaVuSans-32"/>
       <use xlink:href="#DejaVuSans-35" transform="translate(63.623047 0)"/>
       <use xlink:href="#DejaVuSans-30" transform="translate(127.246094 0)"/>
      </g>
     </g>
    </g>
    <g id="ytick_7">
     <g id="line2d_33">
      <path d="M 90 85.027925 
L 648 85.027925 
" clip-path="url(#p8aae1c1ff2)" style="fill: none; stroke: #b0b0b0; stroke-width: 0.8; stroke-linecap: square"/>
     </g>
     <g id="line2d_34">
      <g>
       <use xlink:href="#mbac0026204" x="90" y="85.027925" style="stroke: #000000; stroke-width: 0.8"/>
      </g>
     </g>
     <g id="text_18">
      <!-- 300 -->
      <g transform="translate(63.9125 88.827143) scale(0.1 -0.1)">
       <use xlink:href="#DejaVuSans-33"/>
       <use xlink:href="#DejaVuSans-30" transform="translate(63.623047 0)"/>
       <use xlink:href="#DejaVuSans-30" transform="translate(127.246094 0)"/>
      </g>
     </g>
    </g>
    <g id="text_19">
     <!-- Votes -->
     <g transform="translate(57.832812 231.893594) rotate(-90) scale(0.1 -0.1)">
      <defs>
       <path id="DejaVuSans-56" d="M 1831 0 
L 50 4666 
L 709 4666 
L 2188 738 
L 3669 4666 
L 4325 4666 
L 2547 0 
L 1831 0 
z
" transform="scale(0.015625)"/>
       <path id="DejaVuSans-6f" d="M 1959 3097 
Q 1497 3097 1228 2736 
Q 959 2375 959 1747 
Q 959 1119 1226 758 
Q 1494 397 1959 397 
Q 2419 397 2687 759 
Q 2956 1122 2956 1747 
Q 2956 2369 2687 2733 
Q 2419 3097 1959 3097 
z
M 1959 3584 
Q 2709 3584 3137 3096 
Q 3566 2609 3566 1747 
Q 3566 888 3137 398 
Q 2709 -91 1959 -91 
Q 1206 -91 779 398 
Q 353 888 353 1747 
Q 353 2609 779 3096 
Q 1206 3584 1959 3584 
z
" transform="scale(0.015625)"/>
       <path id="DejaVuSans-73" d="M 2834 3397 
L 2834 2853 
Q 2591 2978 2328 3040 
Q 2066 3103 1784 3103 
Q 1356 3103 1142 2972 
Q 928 2841 928 2578 
Q 928 2378 1081 2264 
Q 1234 2150 1697 2047 
L 1894 2003 
Q 2506 1872 2764 1633 
Q 3022 1394 3022 966 
Q 3022 478 2636 193 
Q 2250 -91 1575 -91 
Q 1294 -91 989 -36 
Q 684 19 347 128 
L 347 722 
Q 666 556 975 473 
Q 1284 391 1588 391 
Q 1994 391 2212 530 
Q 2431 669 2431 922 
Q 2431 1156 2273 1281 
Q 2116 1406 1581 1522 
L 1381 1569 
Q 847 1681 609 1914 
Q 372 2147 372 2553 
Q 372 3047 722 3315 
Q 1072 3584 1716 3584 
Q 2034 3584 2315 3537 
Q 2597 3491 2834 3397 
z
" transform="scale(0.015625)"/>
      </defs>
      <use xlink:href="#DejaVuSans-56"/>
      <use xlink:href="#DejaVuSans-6f" transform="translate(60.658203 0)"/>
      <use xlink:href="#DejaVuSans-74" transform="translate(121.839844 0)"/>
      <use xlink:href="#DejaVuSans-65" transform="translate(161.048828 0)"/>
      <use xlink:href="#DejaVuSans-73" transform="translate(222.572266 0)"/>
     </g>
    </g>
   </g>
   <g id="line2d_35">
    <path d="M 115.363636 353.193962 
L 124.341915 353.193962 
L 125.239743 352.243019 
L 134.218021 352.243019 
L 135.115849 350.341132 
L 143.196299 350.341132 
L 144.094127 349.390189 
L 148.583266 349.390189 
L 149.481094 348.439245 
L 153.072405 348.439245 
L 153.970233 347.488302 
L 156.663717 347.488302 
L 157.561545 346.537358 
L 170.131134 346.537358 
L 171.028962 345.586415 
L 180.905068 345.586415 
L 182.700724 343.684528 
L 184.49638 343.684528 
L 185.394208 342.733585 
L 193.474658 342.733585 
L 195.270314 340.831698 
L 206.044248 340.831698 
L 206.942076 339.880755 
L 209.635559 339.880755 
L 210.533387 338.929811 
L 211.431215 338.929811 
L 212.329043 337.978868 
L 236.570394 337.978868 
L 237.468222 337.027925 
L 248.242156 337.027925 
L 249.139984 336.076981 
L 255.424779 336.076981 
L 256.322607 335.126038 
L 257.220434 333.224151 
L 258.118262 333.224151 
L 259.913918 331.322264 
L 274.279163 331.322264 
L 275.176991 330.371321 
L 280.563958 330.371321 
L 281.461786 329.420377 
L 285.053097 329.420377 
L 285.950925 328.469434 
L 294.929204 328.469434 
L 295.827031 327.518491 
L 297.622687 327.518491 
L 298.520515 326.567547 
L 301.213998 326.567547 
L 302.111826 325.616604 
L 309.294449 325.616604 
L 310.192277 324.66566 
L 311.090105 324.66566 
L 311.987932 323.714717 
L 320.966211 323.714717 
L 321.864039 322.763774 
L 328.148833 322.763774 
L 329.046661 321.81283 
L 329.944489 321.81283 
L 331.740145 319.910943 
L 351.492357 319.910943 
L 352.390185 318.96 
L 366.75543 318.96 
L 367.653258 318.009057 
L 368.551086 318.009057 
L 369.448914 317.058113 
L 377.529364 317.058113 
L 378.427192 316.10717 
L 379.32502 316.10717 
L 380.222848 315.156226 
L 384.711987 315.156226 
L 385.609815 314.205283 
L 388.303298 314.205283 
L 390.098954 312.303396 
L 390.996782 312.303396 
L 391.89461 311.352453 
L 393.690265 311.352453 
L 394.588093 310.401509 
L 396.383749 310.401509 
L 397.281577 309.450566 
L 399.077233 309.450566 
L 399.97506 308.499623 
L 421.522928 308.499623 
L 422.420756 307.548679 
L 431.399035 307.548679 
L 432.296862 306.597736 
L 437.683829 306.597736 
L 438.581657 305.646792 
L 439.479485 305.646792 
L 440.377313 304.695849 
L 441.275141 304.695849 
L 444.866452 300.892075 
L 446.662108 300.892075 
L 447.559936 298.990189 
L 454.742558 298.990189 
L 456.538214 297.088302 
L 458.33387 297.088302 
L 459.231698 296.137358 
L 462.823009 296.137358 
L 463.720837 295.186415 
L 470.005632 295.186415 
L 470.903459 294.235472 
L 472.699115 294.235472 
L 473.596943 293.284528 
L 478.98391 293.284528 
L 480.779566 291.382642 
L 487.06436 291.382642 
L 487.962188 290.431698 
L 490.655672 290.431698 
L 491.5535 289.480755 
L 493.349155 289.480755 
L 494.246983 287.578868 
L 497.838294 287.578868 
L 498.736122 285.676981 
L 499.63395 284.726038 
L 503.225261 284.726038 
L 504.123089 282.824151 
L 510.407884 282.824151 
L 511.305712 281.873208 
L 514.897023 281.873208 
L 515.794851 280.922264 
L 518.488335 280.922264 
L 519.386163 279.971321 
L 520.28399 278.069434 
L 522.079646 278.069434 
L 522.977474 277.118491 
L 537.342719 277.118491 
L 539.138375 275.216604 
L 551.707965 275.216604 
L 552.605792 274.26566 
L 557.992759 274.26566 
L 558.890587 273.314717 
L 570.562349 273.314717 
L 571.460177 272.363774 
L 579.540628 272.363774 
L 580.438455 271.41283 
L 603.781979 271.41283 
L 604.679807 270.461887 
L 622.636364 270.461887 
L 622.636364 270.461887 
" clip-path="url(#p8aae1c1ff2)" style="fill: none; stroke: #1f77b4; stroke-width: 1.5; stroke-linecap: square"/>
   </g>
   <g id="line2d_36">
    <path d="M 115.363636 292.333585 
L 116.261464 291.382642 
L 118.954948 291.382642 
L 119.852776 290.431698 
L 120.750603 290.431698 
L 121.648431 289.480755 
L 122.546259 289.480755 
L 124.341915 287.578868 
L 125.239743 285.676981 
L 126.13757 285.676981 
L 127.933226 283.775094 
L 128.831054 283.775094 
L 129.728882 279.971321 
L 130.62671 278.069434 
L 131.524537 274.26566 
L 132.422365 271.41283 
L 135.115849 271.41283 
L 136.013677 268.56 
L 136.911504 266.658113 
L 138.70716 264.756226 
L 139.604988 262.85434 
L 141.400644 260.952453 
L 142.298471 259.050566 
L 144.991955 259.050566 
L 145.889783 254.295849 
L 146.787611 252.393962 
L 147.685438 251.443019 
L 148.583266 249.541132 
L 149.481094 248.590189 
L 150.378922 248.590189 
L 151.27675 245.737358 
L 152.174578 245.737358 
L 153.072405 243.835472 
L 153.970233 242.884528 
L 154.868061 242.884528 
L 155.765889 241.933585 
L 157.561545 241.933585 
L 158.459372 240.982642 
L 160.255028 240.982642 
L 161.152856 239.080755 
L 162.050684 239.080755 
L 162.948512 238.129811 
L 166.539823 238.129811 
L 167.437651 237.178868 
L 170.131134 237.178868 
L 171.028962 236.227925 
L 171.92679 236.227925 
L 172.824618 234.326038 
L 173.722446 234.326038 
L 174.620274 232.424151 
L 175.518101 231.473208 
L 178.211585 231.473208 
L 179.109413 229.571321 
L 180.007241 228.620377 
L 180.905068 225.767547 
L 182.700724 223.86566 
L 189.883347 223.86566 
L 190.781175 221.01283 
L 191.679002 221.01283 
L 193.474658 219.110943 
L 194.372486 219.110943 
L 197.065969 216.258113 
L 198.861625 216.258113 
L 199.759453 215.30717 
L 201.555109 215.30717 
L 204.248592 212.45434 
L 206.044248 212.45434 
L 206.942076 211.503396 
L 211.431215 211.503396 
L 212.329043 210.552453 
L 214.124698 210.552453 
L 215.022526 209.601509 
L 225.79646 209.601509 
L 226.694288 207.699623 
L 228.489944 207.699623 
L 230.285599 205.797736 
L 231.183427 205.797736 
L 232.081255 204.846792 
L 237.468222 204.846792 
L 240.161706 201.993962 
L 241.059533 201.993962 
L 241.957361 201.043019 
L 242.855189 199.141132 
L 243.753017 199.141132 
L 244.650845 198.190189 
L 245.548673 198.190189 
L 249.139984 194.386415 
L 250.93564 194.386415 
L 251.833467 192.484528 
L 254.526951 192.484528 
L 255.424779 191.533585 
L 258.118262 191.533585 
L 259.01609 190.582642 
L 259.913918 190.582642 
L 260.811746 187.729811 
L 263.505229 187.729811 
L 264.403057 186.778868 
L 265.300885 184.876981 
L 267.096541 184.876981 
L 267.994368 183.926038 
L 269.790024 183.926038 
L 270.687852 182.975094 
L 271.58568 182.975094 
L 276.074819 178.220377 
L 277.870475 178.220377 
L 280.563958 175.367547 
L 283.257442 175.367547 
L 284.15527 173.46566 
L 285.053097 173.46566 
L 285.950925 172.514717 
L 288.644409 172.514717 
L 289.542237 171.563774 
L 297.622687 171.563774 
L 298.520515 170.61283 
L 304.80531 170.61283 
L 305.703138 169.661887 
L 307.498793 169.661887 
L 309.294449 167.76 
L 313.783588 167.76 
L 314.681416 166.809057 
L 319.170555 166.809057 
L 321.864039 163.956226 
L 333.5358 163.956226 
L 334.433628 162.05434 
L 335.331456 161.103396 
L 356.879324 161.103396 
L 357.777152 160.152453 
L 363.164119 160.152453 
L 364.959775 158.250566 
L 366.75543 158.250566 
L 367.653258 157.299623 
L 368.551086 157.299623 
L 370.346742 155.397736 
L 371.24457 155.397736 
L 372.142397 154.446792 
L 373.040225 154.446792 
L 374.835881 150.643019 
L 375.733709 149.692075 
L 380.222848 149.692075 
L 381.120676 146.839245 
L 382.018504 144.937358 
L 383.814159 144.937358 
L 385.609815 143.035472 
L 390.098954 143.035472 
L 391.89461 141.133585 
L 393.690265 141.133585 
L 394.588093 140.182642 
L 396.383749 140.182642 
L 397.281577 139.231698 
L 398.179405 139.231698 
L 399.077233 138.280755 
L 399.97506 138.280755 
L 400.872888 137.329811 
L 401.770716 137.329811 
L 402.668544 136.378868 
L 404.4642 136.378868 
L 405.362027 134.476981 
L 409.851167 134.476981 
L 411.646822 132.575094 
L 420.625101 132.575094 
L 421.522928 131.624151 
L 422.420756 131.624151 
L 423.318584 130.673208 
L 424.216412 130.673208 
L 426.909895 127.820377 
L 428.705551 127.820377 
L 429.603379 126.869434 
L 447.559936 126.869434 
L 449.355591 124.967547 
L 452.946903 124.967547 
L 453.84473 124.016604 
L 454.742558 124.016604 
L 455.640386 123.06566 
L 456.538214 123.06566 
L 457.436042 122.114717 
L 477.188254 122.114717 
L 478.086082 121.163774 
L 496.042639 121.163774 
L 496.940467 119.261887 
L 503.225261 119.261887 
L 505.020917 117.36 
L 506.816573 117.36 
L 507.714401 116.409057 
L 509.510056 116.409057 
L 511.305712 114.50717 
L 513.101368 114.50717 
L 513.999195 112.605283 
L 521.181818 112.605283 
L 522.079646 111.65434 
L 526.568785 111.65434 
L 527.466613 110.703396 
L 532.85358 110.703396 
L 533.751408 109.752453 
L 540.036203 109.752453 
L 541.831858 107.850566 
L 542.729686 107.850566 
L 543.627514 106.899623 
L 549.014481 106.899623 
L 549.912309 105.948679 
L 553.50362 105.948679 
L 554.401448 104.997736 
L 555.299276 104.997736 
L 556.197104 104.046792 
L 569.664521 104.046792 
L 572.358005 101.193962 
L 582.234111 101.193962 
L 583.131939 100.243019 
L 586.72325 100.243019 
L 587.621078 98.341132 
L 597.497184 98.341132 
L 598.395012 96.439245 
L 610.964602 96.439245 
L 611.86243 95.488302 
L 622.636364 95.488302 
L 622.636364 95.488302 
" clip-path="url(#p8aae1c1ff2)" style="fill: none; stroke: #ff7f0e; stroke-width: 1.5; stroke-linecap: square"/>
   </g>
   <g id="line2d_37">
    <path d="M 115.363636 340.831698 
L 118.954948 340.831698 
L 119.852776 338.929811 
L 121.648431 338.929811 
L 122.546259 337.978868 
L 123.444087 336.076981 
L 124.341915 335.126038 
L 125.239743 332.273208 
L 126.13757 330.371321 
L 127.035398 329.420377 
L 127.933226 329.420377 
L 128.831054 327.518491 
L 129.728882 324.66566 
L 133.320193 324.66566 
L 134.218021 323.714717 
L 135.115849 323.714717 
L 136.013677 321.81283 
L 138.70716 321.81283 
L 140.502816 319.910943 
L 144.094127 319.910943 
L 144.991955 318.96 
L 148.583266 318.96 
L 151.27675 316.10717 
L 155.765889 316.10717 
L 156.663717 315.156226 
L 159.3572 315.156226 
L 160.255028 314.205283 
L 162.050684 314.205283 
L 162.948512 312.303396 
L 170.131134 312.303396 
L 171.028962 311.352453 
L 171.92679 309.450566 
L 172.824618 308.499623 
L 173.722446 308.499623 
L 174.620274 307.548679 
L 176.415929 307.548679 
L 177.313757 306.597736 
L 179.109413 306.597736 
L 180.007241 305.646792 
L 185.394208 305.646792 
L 186.292035 304.695849 
L 187.189863 304.695849 
L 188.087691 303.744906 
L 188.985519 303.744906 
L 189.883347 302.793962 
L 192.57683 302.793962 
L 193.474658 301.843019 
L 194.372486 299.941132 
L 198.861625 299.941132 
L 201.555109 297.088302 
L 204.248592 297.088302 
L 205.14642 296.137358 
L 208.737731 296.137358 
L 209.635559 295.186415 
L 210.533387 295.186415 
L 211.431215 294.235472 
L 213.22687 294.235472 
L 214.124698 293.284528 
L 216.818182 293.284528 
L 218.613837 291.382642 
L 219.511665 291.382642 
L 220.409493 290.431698 
L 227.592116 290.431698 
L 228.489944 288.529811 
L 229.387772 287.578868 
L 236.570394 287.578868 
L 237.468222 286.627925 
L 240.161706 286.627925 
L 241.059533 285.676981 
L 243.753017 285.676981 
L 244.650845 284.726038 
L 253.629123 284.726038 
L 254.526951 283.775094 
L 258.118262 283.775094 
L 259.01609 282.824151 
L 264.403057 282.824151 
L 265.300885 281.873208 
L 267.096541 281.873208 
L 267.994368 280.922264 
L 271.58568 280.922264 
L 273.381335 279.020377 
L 290.440064 279.020377 
L 291.337892 278.069434 
L 292.23572 278.069434 
L 293.133548 277.118491 
L 295.827031 277.118491 
L 296.724859 276.167547 
L 301.213998 276.167547 
L 302.111826 275.216604 
L 303.907482 275.216604 
L 304.80531 274.26566 
L 310.192277 274.26566 
L 311.090105 275.216604 
L 311.987932 274.26566 
L 318.272727 274.26566 
L 319.170555 273.314717 
L 326.353178 273.314717 
L 327.251006 272.363774 
L 329.046661 272.363774 
L 329.944489 271.41283 
L 330.842317 271.41283 
L 331.740145 270.461887 
L 338.02494 270.461887 
L 338.922767 269.510943 
L 344.309735 269.510943 
L 345.207562 268.56 
L 358.67498 268.56 
L 359.572808 267.609057 
L 379.32502 267.609057 
L 380.222848 266.658113 
L 389.201126 266.658113 
L 390.098954 265.70717 
L 404.4642 265.70717 
L 406.259855 263.805283 
L 422.420756 263.805283 
L 423.318584 262.85434 
L 424.216412 260.952453 
L 442.172969 260.952453 
L 443.070796 260.001509 
L 444.866452 260.001509 
L 445.76428 259.050566 
L 451.151247 259.050566 
L 452.049075 258.099623 
L 454.742558 258.099623 
L 456.538214 256.197736 
L 458.33387 256.197736 
L 459.231698 255.246792 
L 462.823009 255.246792 
L 463.720837 253.344906 
L 466.41432 253.344906 
L 467.312148 252.393962 
L 468.209976 252.393962 
L 470.005632 250.492075 
L 481.677393 250.492075 
L 482.575221 249.541132 
L 493.349155 249.541132 
L 494.246983 247.639245 
L 501.429606 247.639245 
L 503.225261 245.737358 
L 512.20354 245.737358 
L 514.897023 242.884528 
L 517.590507 242.884528 
L 518.488335 241.933585 
L 520.28399 241.933585 
L 521.181818 240.982642 
L 529.262269 240.982642 
L 530.160097 240.031698 
L 538.240547 240.031698 
L 539.138375 239.080755 
L 545.42317 239.080755 
L 547.218825 237.178868 
L 553.50362 237.178868 
L 554.401448 236.227925 
L 563.379726 236.227925 
L 564.277554 235.276981 
L 565.175382 235.276981 
L 566.07321 234.326038 
L 576.847144 234.326038 
L 577.744972 233.375094 
L 580.438455 233.375094 
L 581.336283 232.424151 
L 593.905873 232.424151 
L 594.803701 231.473208 
L 609.168946 231.473208 
L 610.066774 229.571321 
L 622.636364 229.571321 
L 622.636364 229.571321 
" clip-path="url(#p8aae1c1ff2)" style="fill: none; stroke: #2ca02c; stroke-width: 1.5; stroke-linecap: square"/>
   </g>
   <g id="line2d_38">
    <path d="M 115.363636 369.36 
L 337.127112 369.36 
L 338.02494 368.409057 
L 528.364441 368.409057 
L 529.262269 367.458113 
L 622.636364 367.458113 
L 622.636364 367.458113 
" clip-path="url(#p8aae1c1ff2)" style="fill: none; stroke: #d62728; stroke-width: 1.5; stroke-linecap: square"/>
   </g>
   <g id="line2d_39">
    <path d="M 115.363636 348.439245 
L 118.05712 348.439245 
L 118.954948 347.488302 
L 124.341915 347.488302 
L 125.239743 346.537358 
L 130.62671 346.537358 
L 131.524537 345.586415 
L 151.27675 345.586415 
L 152.174578 344.635472 
L 184.49638 344.635472 
L 186.292035 342.733585 
L 193.474658 342.733585 
L 194.372486 341.782642 
L 197.963797 341.782642 
L 198.861625 340.831698 
L 200.657281 340.831698 
L 201.555109 339.880755 
L 224.898632 339.880755 
L 225.79646 338.929811 
L 262.607401 338.929811 
L 263.505229 337.978868 
L 380.222848 337.978868 
L 381.120676 337.027925 
L 382.018504 337.027925 
L 382.916331 336.076981 
L 439.479485 336.076981 
L 440.377313 335.126038 
L 584.029767 335.126038 
L 584.927595 334.175094 
L 622.636364 334.175094 
L 622.636364 334.175094 
" clip-path="url(#p8aae1c1ff2)" style="fill: none; stroke: #9467bd; stroke-width: 1.5; stroke-linecap: square"/>
   </g>
   <g id="line2d_40">
    <path d="M 115.363636 356.046792 
L 116.261464 356.046792 
L 117.159292 355.095849 
L 129.728882 355.095849 
L 130.62671 354.144906 
L 141.400644 354.144906 
L 142.298471 353.193962 
L 155.765889 353.193962 
L 157.561545 351.292075 
L 167.437651 351.292075 
L 168.335479 350.341132 
L 195.270314 350.341132 
L 196.168142 349.390189 
L 204.248592 349.390189 
L 205.14642 348.439245 
L 220.409493 348.439245 
L 221.307321 347.488302 
L 235.672566 347.488302 
L 236.570394 346.537358 
L 240.161706 346.537358 
L 241.059533 345.586415 
L 249.139984 345.586415 
L 250.037812 344.635472 
L 271.58568 344.635472 
L 272.483508 343.684528 
L 277.870475 343.684528 
L 278.768302 342.733585 
L 284.15527 342.733585 
L 285.053097 341.782642 
L 288.644409 341.782642 
L 289.542237 340.831698 
L 322.761866 340.831698 
L 323.659694 339.880755 
L 349.696702 339.880755 
L 350.594529 338.929811 
L 402.668544 338.929811 
L 403.566372 337.978868 
L 428.705551 337.978868 
L 429.603379 337.027925 
L 441.275141 337.027925 
L 442.172969 336.076981 
L 622.636364 336.076981 
L 622.636364 336.076981 
" clip-path="url(#p8aae1c1ff2)" style="fill: none; stroke: #8c564b; stroke-width: 1.5; stroke-linecap: square"/>
   </g>
   <g id="line2d_41">
    <path d="M 115.363636 285.676981 
L 118.954948 285.676981 
L 119.852776 284.726038 
L 123.444087 284.726038 
L 125.239743 282.824151 
L 126.13757 282.824151 
L 127.035398 281.873208 
L 127.933226 281.873208 
L 128.831054 280.922264 
L 130.62671 280.922264 
L 131.524537 279.971321 
L 134.218021 279.971321 
L 135.115849 279.020377 
L 136.911504 279.020377 
L 137.809332 278.069434 
L 138.70716 278.069434 
L 139.604988 277.118491 
L 141.400644 277.118491 
L 143.196299 275.216604 
L 146.787611 275.216604 
L 147.685438 274.26566 
L 150.378922 274.26566 
L 152.174578 272.363774 
L 153.970233 272.363774 
L 154.868061 271.41283 
L 156.663717 271.41283 
L 157.561545 270.461887 
L 158.459372 268.56 
L 159.3572 265.70717 
L 161.152856 265.70717 
L 162.050684 264.756226 
L 166.539823 264.756226 
L 168.335479 262.85434 
L 169.233307 260.952453 
L 170.131134 260.001509 
L 171.028962 260.001509 
L 171.92679 258.099623 
L 175.518101 258.099623 
L 176.415929 257.148679 
L 177.313757 257.148679 
L 179.109413 255.246792 
L 180.007241 255.246792 
L 180.905068 254.295849 
L 181.802896 254.295849 
L 183.598552 252.393962 
L 185.394208 252.393962 
L 186.292035 250.492075 
L 189.883347 250.492075 
L 191.679002 248.590189 
L 193.474658 248.590189 
L 194.372486 247.639245 
L 195.270314 245.737358 
L 197.963797 245.737358 
L 198.861625 244.786415 
L 199.759453 244.786415 
L 200.657281 242.884528 
L 201.555109 242.884528 
L 202.452936 241.933585 
L 203.350764 241.933585 
L 204.248592 240.982642 
L 207.839903 240.982642 
L 209.635559 239.080755 
L 210.533387 239.080755 
L 211.431215 237.178868 
L 212.329043 237.178868 
L 213.22687 236.227925 
L 214.124698 236.227925 
L 215.022526 235.276981 
L 217.71601 235.276981 
L 218.613837 234.326038 
L 219.511665 234.326038 
L 223.102977 230.522264 
L 224.000805 228.620377 
L 225.79646 228.620377 
L 227.592116 224.816604 
L 229.387772 224.816604 
L 231.183427 222.914717 
L 232.081255 222.914717 
L 232.979083 221.01283 
L 233.876911 221.01283 
L 234.774739 220.061887 
L 235.672566 220.061887 
L 236.570394 219.110943 
L 238.36605 219.110943 
L 239.263878 218.16 
L 240.161706 218.16 
L 241.059533 217.209057 
L 244.650845 217.209057 
L 245.548673 212.45434 
L 246.4465 212.45434 
L 247.344328 211.503396 
L 250.037812 211.503396 
L 250.93564 210.552453 
L 259.01609 210.552453 
L 259.913918 208.650566 
L 263.505229 208.650566 
L 264.403057 207.699623 
L 273.381335 207.699623 
L 274.279163 205.797736 
L 275.176991 204.846792 
L 279.66613 204.846792 
L 280.563958 203.895849 
L 286.848753 203.895849 
L 287.746581 202.944906 
L 288.644409 202.944906 
L 289.542237 201.993962 
L 294.929204 201.993962 
L 296.724859 200.092075 
L 303.009654 200.092075 
L 304.80531 198.190189 
L 305.703138 198.190189 
L 306.600965 197.239245 
L 311.987932 197.239245 
L 312.88576 196.288302 
L 315.579244 196.288302 
L 316.477072 195.337358 
L 317.374899 193.435472 
L 320.068383 193.435472 
L 320.966211 192.484528 
L 321.864039 192.484528 
L 323.659694 190.582642 
L 327.251006 190.582642 
L 328.148833 189.631698 
L 331.740145 189.631698 
L 332.637973 188.680755 
L 335.331456 188.680755 
L 336.229284 187.729811 
L 343.411907 187.729811 
L 345.207562 185.827925 
L 349.696702 185.827925 
L 350.594529 184.876981 
L 354.185841 184.876981 
L 358.67498 180.122264 
L 360.470636 180.122264 
L 361.368463 179.171321 
L 362.266291 179.171321 
L 363.164119 177.269434 
L 364.959775 175.367547 
L 366.75543 171.563774 
L 368.551086 171.563774 
L 370.346742 167.76 
L 372.142397 167.76 
L 373.040225 165.858113 
L 374.835881 163.956226 
L 377.529364 163.956226 
L 378.427192 163.005283 
L 379.32502 163.005283 
L 381.120676 161.103396 
L 384.711987 161.103396 
L 385.609815 160.152453 
L 387.405471 160.152453 
L 388.303298 159.201509 
L 392.792438 159.201509 
L 393.690265 157.299623 
L 394.588093 156.348679 
L 395.485921 156.348679 
L 396.383749 155.397736 
L 398.179405 155.397736 
L 399.077233 154.446792 
L 400.872888 154.446792 
L 401.770716 152.544906 
L 403.566372 152.544906 
L 404.4642 151.593962 
L 405.362027 151.593962 
L 406.259855 150.643019 
L 410.748994 150.643019 
L 411.646822 149.692075 
L 416.135961 149.692075 
L 417.033789 148.741132 
L 417.931617 148.741132 
L 418.829445 146.839245 
L 420.625101 144.937358 
L 421.522928 142.084528 
L 422.420756 141.133585 
L 423.318584 141.133585 
L 424.216412 140.182642 
L 425.11424 140.182642 
L 426.012068 139.231698 
L 429.603379 139.231698 
L 430.501207 138.280755 
L 432.296862 138.280755 
L 433.19469 137.329811 
L 434.990346 137.329811 
L 436.786002 135.427925 
L 439.479485 135.427925 
L 440.377313 134.476981 
L 444.866452 134.476981 
L 445.76428 132.575094 
L 450.253419 132.575094 
L 451.151247 131.624151 
L 453.84473 131.624151 
L 454.742558 129.722264 
L 458.33387 129.722264 
L 459.231698 128.771321 
L 467.312148 128.771321 
L 468.209976 127.820377 
L 470.005632 127.820377 
L 470.903459 126.869434 
L 477.188254 126.869434 
L 478.086082 125.918491 
L 478.98391 125.918491 
L 479.881738 124.967547 
L 480.779566 124.967547 
L 481.677393 124.016604 
L 487.06436 124.016604 
L 488.860016 122.114717 
L 501.429606 122.114717 
L 502.327434 121.163774 
L 503.225261 121.163774 
L 505.020917 119.261887 
L 505.918745 119.261887 
L 506.816573 118.310943 
L 517.590507 118.310943 
L 518.488335 117.36 
L 519.386163 115.458113 
L 521.181818 115.458113 
L 522.079646 114.50717 
L 526.568785 114.50717 
L 527.466613 113.556226 
L 528.364441 113.556226 
L 530.160097 111.65434 
L 534.649236 111.65434 
L 535.547064 110.703396 
L 538.240547 110.703396 
L 539.138375 109.752453 
L 540.934031 109.752453 
L 541.831858 108.801509 
L 543.627514 108.801509 
L 544.525342 107.850566 
L 545.42317 107.850566 
L 546.320998 105.948679 
L 552.605792 105.948679 
L 553.50362 103.095849 
L 554.401448 101.193962 
L 555.299276 101.193962 
L 558.890587 97.390189 
L 559.788415 95.488302 
L 561.584071 95.488302 
L 562.481899 93.586415 
L 569.664521 93.586415 
L 571.460177 91.684528 
L 572.358005 89.782642 
L 573.255833 88.831698 
L 575.949316 88.831698 
L 576.847144 86.929811 
L 577.744972 85.978868 
L 578.6428 85.978868 
L 579.540628 83.126038 
L 580.438455 82.175094 
L 584.927595 82.175094 
L 585.825422 80.273208 
L 586.72325 80.273208 
L 587.621078 79.322264 
L 590.314562 79.322264 
L 591.212389 77.420377 
L 593.008045 77.420377 
L 593.905873 76.469434 
L 594.803701 76.469434 
L 595.701529 75.518491 
L 596.599356 72.66566 
L 598.395012 72.66566 
L 600.190668 70.763774 
L 610.964602 70.763774 
L 611.86243 69.81283 
L 612.760257 69.81283 
L 614.555913 67.910943 
L 620.840708 67.910943 
L 621.738536 66.96 
L 622.636364 66.96 
L 622.636364 66.96 
" clip-path="url(#p8aae1c1ff2)" style="fill: none; stroke: #e377c2; stroke-width: 1.5; stroke-linecap: square"/>
   </g>
   <g id="line2d_42">
    <path d="M 115.363636 344.635472 
L 116.261464 344.635472 
L 118.05712 342.733585 
L 122.546259 342.733585 
L 123.444087 341.782642 
L 124.341915 341.782642 
L 126.13757 339.880755 
L 127.933226 339.880755 
L 128.831054 338.929811 
L 131.524537 338.929811 
L 132.422365 337.978868 
L 133.320193 337.978868 
L 134.218021 337.027925 
L 135.115849 337.027925 
L 136.911504 335.126038 
L 139.604988 335.126038 
L 140.502816 334.175094 
L 142.298471 334.175094 
L 144.094127 332.273208 
L 145.889783 332.273208 
L 147.685438 330.371321 
L 148.583266 330.371321 
L 149.481094 329.420377 
L 150.378922 326.567547 
L 153.970233 326.567547 
L 157.561545 322.763774 
L 158.459372 322.763774 
L 160.255028 320.861887 
L 161.152856 320.861887 
L 162.050684 319.910943 
L 162.948512 319.910943 
L 163.84634 318.96 
L 171.92679 318.96 
L 172.824618 318.009057 
L 181.802896 318.009057 
L 183.598552 316.10717 
L 186.292035 316.10717 
L 187.189863 315.156226 
L 188.985519 315.156226 
L 190.781175 313.25434 
L 192.57683 313.25434 
L 193.474658 311.352453 
L 196.168142 311.352453 
L 197.065969 309.450566 
L 197.963797 308.499623 
L 202.452936 308.499623 
L 203.350764 307.548679 
L 204.248592 307.548679 
L 206.044248 305.646792 
L 210.533387 305.646792 
L 211.431215 304.695849 
L 212.329043 304.695849 
L 213.22687 303.744906 
L 218.613837 303.744906 
L 219.511665 302.793962 
L 222.205149 302.793962 
L 223.102977 301.843019 
L 224.000805 301.843019 
L 224.898632 298.990189 
L 225.79646 298.990189 
L 226.694288 297.088302 
L 227.592116 296.137358 
L 228.489944 296.137358 
L 230.285599 294.235472 
L 232.081255 294.235472 
L 232.979083 293.284528 
L 234.774739 293.284528 
L 235.672566 292.333585 
L 236.570394 292.333585 
L 237.468222 290.431698 
L 238.36605 290.431698 
L 239.263878 289.480755 
L 241.059533 289.480755 
L 242.855189 287.578868 
L 243.753017 287.578868 
L 244.650845 285.676981 
L 245.548673 284.726038 
L 251.833467 284.726038 
L 252.731295 282.824151 
L 255.424779 282.824151 
L 256.322607 281.873208 
L 257.220434 281.873208 
L 258.118262 280.922264 
L 260.811746 280.922264 
L 261.709574 279.971321 
L 266.198713 279.971321 
L 267.096541 279.020377 
L 268.892196 279.020377 
L 269.790024 278.069434 
L 274.279163 278.069434 
L 275.176991 277.118491 
L 283.257442 277.118491 
L 285.053097 275.216604 
L 285.950925 275.216604 
L 286.848753 274.26566 
L 287.746581 274.26566 
L 288.644409 273.314717 
L 289.542237 273.314717 
L 290.440064 272.363774 
L 292.23572 272.363774 
L 293.133548 271.41283 
L 294.031376 271.41283 
L 295.827031 269.510943 
L 298.520515 269.510943 
L 299.418343 268.56 
L 302.111826 268.56 
L 303.009654 267.609057 
L 309.294449 267.609057 
L 310.192277 266.658113 
L 311.090105 266.658113 
L 311.987932 265.70717 
L 315.579244 265.70717 
L 316.477072 263.805283 
L 321.864039 263.805283 
L 322.761866 262.85434 
L 323.659694 262.85434 
L 324.557522 260.952453 
L 329.046661 260.952453 
L 329.944489 260.001509 
L 335.331456 260.001509 
L 336.229284 259.050566 
L 347.901046 259.050566 
L 348.798874 258.099623 
L 362.266291 258.099623 
L 363.164119 257.148679 
L 367.653258 257.148679 
L 368.551086 256.197736 
L 369.448914 256.197736 
L 370.346742 255.246792 
L 371.24457 255.246792 
L 372.142397 253.344906 
L 373.040225 253.344906 
L 374.835881 251.443019 
L 381.120676 251.443019 
L 382.018504 250.492075 
L 382.916331 250.492075 
L 383.814159 249.541132 
L 384.711987 249.541132 
L 385.609815 248.590189 
L 390.098954 248.590189 
L 390.996782 247.639245 
L 399.077233 247.639245 
L 399.97506 246.688302 
L 404.4642 246.688302 
L 405.362027 245.737358 
L 409.851167 245.737358 
L 410.748994 244.786415 
L 412.54465 244.786415 
L 415.238134 241.933585 
L 417.033789 241.933585 
L 417.931617 240.031698 
L 422.420756 240.031698 
L 424.216412 238.129811 
L 426.012068 238.129811 
L 426.909895 237.178868 
L 427.807723 237.178868 
L 429.603379 235.276981 
L 435.888174 235.276981 
L 436.786002 234.326038 
L 438.581657 234.326038 
L 439.479485 233.375094 
L 446.662108 233.375094 
L 448.457763 231.473208 
L 451.151247 231.473208 
L 452.049075 230.522264 
L 452.946903 230.522264 
L 453.84473 227.669434 
L 454.742558 226.718491 
L 458.33387 226.718491 
L 459.231698 224.816604 
L 461.925181 224.816604 
L 462.823009 223.86566 
L 471.801287 223.86566 
L 472.699115 222.914717 
L 481.677393 222.914717 
L 483.473049 221.01283 
L 489.757844 221.01283 
L 490.655672 220.061887 
L 505.918745 220.061887 
L 509.510056 216.258113 
L 513.101368 216.258113 
L 513.999195 215.30717 
L 521.181818 215.30717 
L 522.079646 214.356226 
L 524.77313 214.356226 
L 525.670957 213.405283 
L 526.568785 213.405283 
L 527.466613 212.45434 
L 532.85358 212.45434 
L 534.649236 210.552453 
L 536.444891 210.552453 
L 537.342719 209.601509 
L 541.831858 209.601509 
L 542.729686 208.650566 
L 543.627514 208.650566 
L 544.525342 206.748679 
L 554.401448 206.748679 
L 556.197104 204.846792 
L 558.890587 204.846792 
L 559.788415 203.895849 
L 564.277554 203.895849 
L 565.175382 202.944906 
L 571.460177 202.944906 
L 572.358005 201.993962 
L 586.72325 201.993962 
L 587.621078 201.043019 
L 588.518906 201.043019 
L 589.416734 199.141132 
L 620.840708 199.141132 
L 621.738536 197.239245 
L 622.636364 197.239245 
L 622.636364 197.239245 
" clip-path="url(#p8aae1c1ff2)" style="fill: none; stroke: #7f7f7f; stroke-width: 1.5; stroke-linecap: square"/>
   </g>
   <g id="line2d_43">
    <path d="M 115.363636 350.341132 
L 118.954948 350.341132 
L 119.852776 349.390189 
L 128.831054 349.390189 
L 129.728882 348.439245 
L 134.218021 348.439245 
L 135.115849 347.488302 
L 144.094127 347.488302 
L 144.991955 346.537358 
L 153.970233 346.537358 
L 154.868061 345.586415 
L 203.350764 345.586415 
L 204.248592 344.635472 
L 208.737731 344.635472 
L 209.635559 343.684528 
L 215.920354 343.684528 
L 216.818182 342.733585 
L 217.71601 342.733585 
L 218.613837 339.880755 
L 219.511665 338.929811 
L 221.307321 338.929811 
L 222.205149 337.978868 
L 231.183427 337.978868 
L 232.081255 337.027925 
L 240.161706 337.027925 
L 241.059533 336.076981 
L 250.93564 336.076981 
L 251.833467 335.126038 
L 262.607401 335.126038 
L 263.505229 334.175094 
L 267.994368 334.175094 
L 268.892196 333.224151 
L 297.622687 333.224151 
L 298.520515 332.273208 
L 300.316171 332.273208 
L 301.213998 331.322264 
L 308.396621 331.322264 
L 309.294449 330.371321 
L 334.433628 330.371321 
L 337.127112 327.518491 
L 363.164119 327.518491 
L 364.061947 326.567547 
L 364.959775 326.567547 
L 366.75543 324.66566 
L 368.551086 324.66566 
L 369.448914 323.714717 
L 415.238134 323.714717 
L 416.135961 322.763774 
L 468.209976 322.763774 
L 469.107804 321.81283 
L 506.816573 321.81283 
L 507.714401 320.861887 
L 512.20354 320.861887 
L 513.101368 319.910943 
L 525.670957 319.910943 
L 526.568785 318.96 
L 544.525342 318.96 
L 545.42317 318.009057 
L 622.636364 318.009057 
L 622.636364 318.009057 
" clip-path="url(#p8aae1c1ff2)" style="fill: none; stroke: #bcbd22; stroke-width: 1.5; stroke-linecap: square"/>
   </g>
   <g id="line2d_44">
    <path d="M 115.363636 367.458113 
L 160.255028 367.458113 
L 161.152856 366.50717 
L 217.71601 366.50717 
L 218.613837 365.556226 
L 310.192277 365.556226 
L 311.090105 364.605283 
L 311.987932 365.556226 
L 420.625101 365.556226 
L 421.522928 364.605283 
L 427.807723 364.605283 
L 428.705551 363.65434 
L 451.151247 363.65434 
L 452.049075 362.703396 
L 622.636364 362.703396 
L 622.636364 362.703396 
" clip-path="url(#p8aae1c1ff2)" style="fill: none; stroke: #17becf; stroke-width: 1.5; stroke-linecap: square"/>
   </g>
   <g id="line2d_45">
    <path d="M 115.363636 369.36 
L 116.261464 368.409057 
L 118.05712 368.409057 
L 118.954948 367.458113 
L 125.239743 367.458113 
L 126.13757 366.50717 
L 128.831054 366.50717 
L 129.728882 365.556226 
L 130.62671 365.556226 
L 132.422365 363.65434 
L 136.911504 363.65434 
L 138.70716 361.752453 
L 139.604988 361.752453 
L 140.502816 360.801509 
L 146.787611 360.801509 
L 147.685438 359.850566 
L 148.583266 357.948679 
L 150.378922 357.948679 
L 151.27675 356.997736 
L 152.174578 356.997736 
L 153.072405 356.046792 
L 153.970233 356.046792 
L 154.868061 355.095849 
L 155.765889 355.095849 
L 157.561545 353.193962 
L 162.948512 353.193962 
L 164.744167 351.292075 
L 167.437651 351.292075 
L 168.335479 350.341132 
L 169.233307 350.341132 
L 170.131134 348.439245 
L 172.824618 348.439245 
L 174.620274 344.635472 
L 180.007241 344.635472 
L 180.905068 342.733585 
L 181.802896 341.782642 
L 184.49638 341.782642 
L 185.394208 340.831698 
L 186.292035 338.929811 
L 188.087691 338.929811 
L 188.985519 337.978868 
L 201.555109 337.978868 
L 202.452936 336.076981 
L 208.737731 329.420377 
L 217.71601 329.420377 
L 220.409493 326.567547 
L 222.205149 326.567547 
L 223.102977 324.66566 
L 224.898632 324.66566 
L 225.79646 323.714717 
L 228.489944 323.714717 
L 229.387772 322.763774 
L 230.285599 322.763774 
L 231.183427 321.81283 
L 232.081255 321.81283 
L 233.876911 319.910943 
L 245.548673 319.910943 
L 247.344328 318.009057 
L 254.526951 318.009057 
L 255.424779 317.058113 
L 258.118262 317.058113 
L 259.913918 315.156226 
L 262.607401 315.156226 
L 263.505229 314.205283 
L 265.300885 314.205283 
L 266.198713 313.25434 
L 270.687852 313.25434 
L 271.58568 312.303396 
L 272.483508 312.303396 
L 273.381335 310.401509 
L 274.279163 310.401509 
L 275.176991 309.450566 
L 279.66613 309.450566 
L 280.563958 308.499623 
L 282.359614 308.499623 
L 283.257442 307.548679 
L 284.15527 307.548679 
L 285.950925 305.646792 
L 292.23572 305.646792 
L 293.133548 304.695849 
L 294.031376 304.695849 
L 294.929204 303.744906 
L 299.418343 303.744906 
L 300.316171 301.843019 
L 301.213998 300.892075 
L 305.703138 300.892075 
L 306.600965 299.941132 
L 310.192277 299.941132 
L 311.090105 298.039245 
L 314.681416 298.039245 
L 316.477072 296.137358 
L 319.170555 296.137358 
L 320.068383 295.186415 
L 330.842317 295.186415 
L 331.740145 293.284528 
L 332.637973 292.333585 
L 339.820595 292.333585 
L 340.718423 291.382642 
L 356.879324 291.382642 
L 357.777152 290.431698 
L 359.572808 290.431698 
L 360.470636 289.480755 
L 363.164119 289.480755 
L 364.061947 288.529811 
L 375.733709 288.529811 
L 376.631537 286.627925 
L 378.427192 286.627925 
L 379.32502 285.676981 
L 380.222848 285.676981 
L 381.120676 284.726038 
L 384.711987 284.726038 
L 385.609815 283.775094 
L 391.89461 283.775094 
L 392.792438 281.873208 
L 393.690265 281.873208 
L 394.588093 280.922264 
L 399.077233 280.922264 
L 399.97506 279.971321 
L 404.4642 279.971321 
L 406.259855 278.069434 
L 408.055511 278.069434 
L 408.953339 277.118491 
L 410.748994 277.118491 
L 411.646822 276.167547 
L 412.54465 276.167547 
L 413.442478 275.216604 
L 419.727273 275.216604 
L 420.625101 274.26566 
L 441.275141 274.26566 
L 442.172969 273.314717 
L 446.662108 273.314717 
L 447.559936 272.363774 
L 457.436042 272.363774 
L 458.33387 271.41283 
L 497.838294 271.41283 
L 498.736122 270.461887 
L 504.123089 270.461887 
L 505.020917 269.510943 
L 505.918745 269.510943 
L 506.816573 268.56 
L 518.488335 268.56 
L 519.386163 267.609057 
L 536.444891 267.609057 
L 537.342719 266.658113 
L 540.934031 266.658113 
L 541.831858 265.70717 
L 546.320998 265.70717 
L 547.218825 264.756226 
L 552.605792 264.756226 
L 553.50362 263.805283 
L 558.890587 263.805283 
L 559.788415 262.85434 
L 565.175382 262.85434 
L 566.07321 260.001509 
L 566.971038 259.050566 
L 573.255833 259.050566 
L 574.153661 258.099623 
L 578.6428 258.099623 
L 579.540628 257.148679 
L 584.029767 257.148679 
L 584.927595 256.197736 
L 590.314562 256.197736 
L 591.212389 255.246792 
L 605.577635 255.246792 
L 606.475463 253.344906 
L 607.37329 253.344906 
L 608.271118 252.393962 
L 609.168946 252.393962 
L 610.066774 251.443019 
L 610.964602 251.443019 
L 611.86243 250.492075 
L 622.636364 250.492075 
L 622.636364 250.492075 
" clip-path="url(#p8aae1c1ff2)" style="fill: none; stroke: #1f77b4; stroke-width: 1.5; stroke-linecap: square"/>
   </g>
   <g id="line2d_46">
    <path d="M 115.363636 334.175094 
L 121.648431 334.175094 
L 122.546259 333.224151 
L 125.239743 333.224151 
L 126.13757 332.273208 
L 129.728882 332.273208 
L 130.62671 331.322264 
L 133.320193 331.322264 
L 134.218021 330.371321 
L 135.115849 330.371321 
L 136.013677 329.420377 
L 138.70716 329.420377 
L 139.604988 328.469434 
L 141.400644 328.469434 
L 142.298471 327.518491 
L 143.196299 327.518491 
L 144.991955 325.616604 
L 150.378922 325.616604 
L 151.27675 324.66566 
L 152.174578 324.66566 
L 153.072405 323.714717 
L 153.970233 323.714717 
L 154.868061 321.81283 
L 155.765889 318.96 
L 156.663717 318.009057 
L 160.255028 318.009057 
L 162.948512 315.156226 
L 165.641995 315.156226 
L 167.437651 313.25434 
L 177.313757 313.25434 
L 178.211585 310.401509 
L 179.109413 310.401509 
L 180.905068 306.597736 
L 182.700724 304.695849 
L 183.598552 304.695849 
L 184.49638 302.793962 
L 191.679002 302.793962 
L 192.57683 300.892075 
L 195.270314 300.892075 
L 196.168142 299.941132 
L 202.452936 299.941132 
L 203.350764 298.990189 
L 214.124698 298.990189 
L 215.022526 298.039245 
L 215.920354 298.039245 
L 216.818182 297.088302 
L 219.511665 297.088302 
L 220.409493 296.137358 
L 231.183427 296.137358 
L 232.081255 295.186415 
L 233.876911 295.186415 
L 235.672566 291.382642 
L 237.468222 291.382642 
L 239.263878 289.480755 
L 241.059533 289.480755 
L 241.957361 288.529811 
L 244.650845 288.529811 
L 245.548673 287.578868 
L 256.322607 287.578868 
L 257.220434 286.627925 
L 270.687852 286.627925 
L 271.58568 285.676981 
L 279.66613 285.676981 
L 280.563958 284.726038 
L 282.359614 284.726038 
L 283.257442 283.775094 
L 285.950925 283.775094 
L 287.746581 281.873208 
L 288.644409 281.873208 
L 289.542237 280.922264 
L 293.133548 280.922264 
L 294.929204 279.020377 
L 299.418343 279.020377 
L 300.316171 278.069434 
L 303.009654 278.069434 
L 303.907482 277.118491 
L 308.396621 277.118491 
L 309.294449 276.167547 
L 313.783588 276.167547 
L 314.681416 275.216604 
L 330.842317 275.216604 
L 331.740145 274.26566 
L 332.637973 274.26566 
L 333.5358 273.314717 
L 342.514079 273.314717 
L 343.411907 271.41283 
L 344.309735 271.41283 
L 345.207562 270.461887 
L 354.185841 270.461887 
L 355.083669 269.510943 
L 358.67498 269.510943 
L 359.572808 268.56 
L 360.470636 268.56 
L 361.368463 267.609057 
L 369.448914 267.609057 
L 370.346742 266.658113 
L 388.303298 266.658113 
L 389.201126 263.805283 
L 395.485921 263.805283 
L 396.383749 262.85434 
L 398.179405 262.85434 
L 399.077233 261.903396 
L 409.851167 261.903396 
L 410.748994 260.952453 
L 423.318584 260.952453 
L 424.216412 260.001509 
L 426.909895 260.001509 
L 427.807723 259.050566 
L 434.990346 259.050566 
L 435.888174 257.148679 
L 450.253419 257.148679 
L 451.151247 256.197736 
L 455.640386 256.197736 
L 456.538214 255.246792 
L 470.005632 255.246792 
L 470.903459 254.295849 
L 472.699115 254.295849 
L 473.596943 253.344906 
L 482.575221 253.344906 
L 483.473049 252.393962 
L 493.349155 252.393962 
L 494.246983 251.443019 
L 505.918745 251.443019 
L 506.816573 250.492075 
L 517.590507 250.492075 
L 518.488335 249.541132 
L 524.77313 249.541132 
L 525.670957 248.590189 
L 534.649236 248.590189 
L 537.342719 245.737358 
L 539.138375 245.737358 
L 540.036203 244.786415 
L 540.934031 244.786415 
L 542.729686 242.884528 
L 546.320998 242.884528 
L 547.218825 241.933585 
L 549.014481 241.933585 
L 549.912309 240.031698 
L 550.810137 239.080755 
L 561.584071 239.080755 
L 562.481899 238.129811 
L 570.562349 238.129811 
L 571.460177 237.178868 
L 580.438455 237.178868 
L 581.336283 236.227925 
L 585.825422 236.227925 
L 586.72325 234.326038 
L 608.271118 234.326038 
L 609.168946 233.375094 
L 622.636364 233.375094 
L 622.636364 233.375094 
" clip-path="url(#p8aae1c1ff2)" style="fill: none; stroke: #ff7f0e; stroke-width: 1.5; stroke-linecap: square"/>
   </g>
   <g id="patch_3">
    <path d="M 90 384.48 
L 90 51.84 
" style="fill: none; stroke: #000000; stroke-width: 0.8; stroke-linejoin: miter; stroke-linecap: square"/>
   </g>
   <g id="patch_4">
    <path d="M 648 384.48 
L 648 51.84 
" style="fill: none; stroke: #000000; stroke-width: 0.8; stroke-linejoin: miter; stroke-linecap: square"/>
   </g>
   <g id="patch_5">
    <path d="M 90 384.48 
L 648 384.48 
" style="fill: none; stroke: #000000; stroke-width: 0.8; stroke-linejoin: miter; stroke-linecap: square"/>
   </g>
   <g id="patch_6">
    <path d="M 90 51.84 
L 648 51.84 
" style="fill: none; stroke: #000000; stroke-width: 0.8; stroke-linejoin: miter; stroke-linecap: square"/>
   </g>
   <g id="text_20">
    <!-- Time Series of Votes for Each Keyword -->
    <g transform="translate(253.716563 45.84) scale(0.12 -0.12)">
     <defs>
      <path id="DejaVuSans-53" d="M 3425 4513 
L 3425 3897 
Q 3066 4069 2747 4153 
Q 2428 4238 2131 4238 
Q 1616 4238 1336 4038 
Q 1056 3838 1056 3469 
Q 1056 3159 1242 3001 
Q 1428 2844 1947 2747 
L 2328 2669 
Q 3034 2534 3370 2195 
Q 3706 1856 3706 1288 
Q 3706 609 3251 259 
Q 2797 -91 1919 -91 
Q 1588 -91 1214 -16 
Q 841 59 441 206 
L 441 856 
Q 825 641 1194 531 
Q 1563 422 1919 422 
Q 2459 422 2753 634 
Q 3047 847 3047 1241 
Q 3047 1584 2836 1778 
Q 2625 1972 2144 2069 
L 1759 2144 
Q 1053 2284 737 2584 
Q 422 2884 422 3419 
Q 422 4038 858 4394 
Q 1294 4750 2059 4750 
Q 2388 4750 2728 4690 
Q 3069 4631 3425 4513 
z
" transform="scale(0.015625)"/>
      <path id="DejaVuSans-72" d="M 2631 2963 
Q 2534 3019 2420 3045 
Q 2306 3072 2169 3072 
Q 1681 3072 1420 2755 
Q 1159 2438 1159 1844 
L 1159 0 
L 581 0 
L 581 3500 
L 1159 3500 
L 1159 2956 
Q 1341 3275 1631 3429 
Q 1922 3584 2338 3584 
Q 2397 3584 2469 3576 
Q 2541 3569 2628 3553 
L 2631 2963 
z
" transform="scale(0.015625)"/>
      <path id="DejaVuSans-66" d="M 2375 4863 
L 2375 4384 
L 1825 4384 
Q 1516 4384 1395 4259 
Q 1275 4134 1275 3809 
L 1275 3500 
L 2222 3500 
L 2222 3053 
L 1275 3053 
L 1275 0 
L 697 0 
L 697 3053 
L 147 3053 
L 147 3500 
L 697 3500 
L 697 3744 
Q 697 4328 969 4595 
Q 1241 4863 1831 4863 
L 2375 4863 
z
" transform="scale(0.015625)"/>
      <path id="DejaVuSans-45" d="M 628 4666 
L 3578 4666 
L 3578 4134 
L 1259 4134 
L 1259 2753 
L 3481 2753 
L 3481 2222 
L 1259 2222 
L 1259 531 
L 3634 531 
L 3634 0 
L 628 0 
L 628 4666 
z
" transform="scale(0.015625)"/>
      <path id="DejaVuSans-63" d="M 3122 3366 
L 3122 2828 
Q 2878 2963 2633 3030 
Q 2388 3097 2138 3097 
Q 1578 3097 1268 2742 
Q 959 2388 959 1747 
Q 959 1106 1268 751 
Q 1578 397 2138 397 
Q 2388 397 2633 464 
Q 2878 531 3122 666 
L 3122 134 
Q 2881 22 2623 -34 
Q 2366 -91 2075 -91 
Q 1284 -91 818 406 
Q 353 903 353 1747 
Q 353 2603 823 3093 
Q 1294 3584 2113 3584 
Q 2378 3584 2631 3529 
Q 2884 3475 3122 3366 
z
" transform="scale(0.015625)"/>
      <path id="DejaVuSans-68" d="M 3513 2113 
L 3513 0 
L 2938 0 
L 2938 2094 
Q 2938 2591 2744 2837 
Q 2550 3084 2163 3084 
Q 1697 3084 1428 2787 
Q 1159 2491 1159 1978 
L 1159 0 
L 581 0 
L 581 4863 
L 1159 4863 
L 1159 2956 
Q 1366 3272 1645 3428 
Q 1925 3584 2291 3584 
Q 2894 3584 3203 3211 
Q 3513 2838 3513 2113 
z
" transform="scale(0.015625)"/>
      <path id="DejaVuSans-4b" d="M 628 4666 
L 1259 4666 
L 1259 2694 
L 3353 4666 
L 4166 4666 
L 1850 2491 
L 4331 0 
L 3500 0 
L 1259 2247 
L 1259 0 
L 628 0 
L 628 4666 
z
" transform="scale(0.015625)"/>
      <path id="DejaVuSans-79" d="M 2059 -325 
Q 1816 -950 1584 -1140 
Q 1353 -1331 966 -1331 
L 506 -1331 
L 506 -850 
L 844 -850 
Q 1081 -850 1212 -737 
Q 1344 -625 1503 -206 
L 1606 56 
L 191 3500 
L 800 3500 
L 1894 763 
L 2988 3500 
L 3597 3500 
L 2059 -325 
z
" transform="scale(0.015625)"/>
      <path id="DejaVuSans-77" d="M 269 3500 
L 844 3500 
L 1563 769 
L 2278 3500 
L 2956 3500 
L 3675 769 
L 4391 3500 
L 4966 3500 
L 4050 0 
L 3372 0 
L 2619 2869 
L 1863 0 
L 1184 0 
L 269 3500 
z
" transform="scale(0.015625)"/>
     </defs>
     <use xlink:href="#DejaVuSans-54"/>
     <use xlink:href="#DejaVuSans-69" transform="translate(57.958984 0)"/>
     <use xlink:href="#DejaVuSans-6d" transform="translate(85.742188 0)"/>
     <use xlink:href="#DejaVuSans-65" transform="translate(183.154297 0)"/>
     <use xlink:href="#DejaVuSans-20" transform="translate(244.677734 0)"/>
     <use xlink:href="#DejaVuSans-53" transform="translate(276.464844 0)"/>
     <use xlink:href="#DejaVuSans-65" transform="translate(339.941406 0)"/>
     <use xlink:href="#DejaVuSans-72" transform="translate(401.464844 0)"/>
     <use xlink:href="#DejaVuSans-69" transform="translate(442.578125 0)"/>
     <use xlink:href="#DejaVuSans-65" transform="translate(470.361328 0)"/>
     <use xlink:href="#DejaVuSans-73" transform="translate(531.884766 0)"/>
     <use xlink:href="#DejaVuSans-20" transform="translate(583.984375 0)"/>
     <use xlink:href="#DejaVuSans-6f" transform="translate(615.771484 0)"/>
     <use xlink:href="#DejaVuSans-66" transform="translate(676.953125 0)"/>
     <use xlink:href="#DejaVuSans-20" transform="translate(712.158203 0)"/>
     <use xlink:href="#DejaVuSans-56" transform="translate(743.945312 0)"/>
     <use xlink:href="#DejaVuSans-6f" transform="translate(804.603516 0)"/>
     <use xlink:href="#DejaVuSans-74" transform="translate(865.785156 0)"/>
     <use xlink:href="#DejaVuSans-65" transform="translate(904.994141 0)"/>
     <use xlink:href="#DejaVuSans-73" transform="translate(966.517578 0)"/>
     <use xlink:href="#DejaVuSans-20" transform="translate(1018.617188 0)"/>
     <use xlink:href="#DejaVuSans-66" transform="translate(1050.404297 0)"/>
     <use xlink:href="#DejaVuSans-6f" transform="translate(1085.609375 0)"/>
     <use xlink:href="#DejaVuSans-72" transform="translate(1146.791016 0)"/>
     <use xlink:href="#DejaVuSans-20" transform="translate(1187.904297 0)"/>
     <use xlink:href="#DejaVuSans-45" transform="translate(1219.691406 0)"/>
     <use xlink:href="#DejaVuSans-61" transform="translate(1282.875 0)"/>
     <use xlink:href="#DejaVuSans-63" transform="translate(1344.154297 0)"/>
     <use xlink:href="#DejaVuSans-68" transform="translate(1399.134766 0)"/>
     <use xlink:href="#DejaVuSans-20" transform="translate(1462.513672 0)"/>
     <use xlink:href="#DejaVuSans-4b" transform="translate(1494.300781 0)"/>
     <use xlink:href="#DejaVuSans-65" transform="translate(1554.876953 0)"/>
     <use xlink:href="#DejaVuSans-79" transform="translate(1616.400391 0)"/>
     <use xlink:href="#DejaVuSans-77" transform="translate(1675.580078 0)"/>
     <use xlink:href="#DejaVuSans-6f" transform="translate(1757.367188 0)"/>
     <use xlink:href="#DejaVuSans-72" transform="translate(1818.548828 0)"/>
     <use xlink:href="#DejaVuSans-64" transform="translate(1857.912109 0)"/>
    </g>
   </g>
   <g id="legend_1">
    <g id="patch_7">
     <path d="M 97 235.9775 
L 149.245313 235.9775 
Q 151.245313 235.9775 151.245313 233.9775 
L 151.245313 58.84 
Q 151.245313 56.84 149.245313 56.84 
L 97 56.84 
Q 95 56.84 95 58.84 
L 95 233.9775 
Q 95 235.9775 97 235.9775 
z
" style="fill: #ffffff; opacity: 0.8; stroke: #cccccc; stroke-linejoin: miter"/>
    </g>
    <g id="line2d_47">
     <path d="M 99 64.938437 
L 109 64.938437 
L 119 64.938437 
" style="fill: none; stroke: #1f77b4; stroke-width: 1.5; stroke-linecap: square"/>
    </g>
    <g id="text_21">
     <!-- H01 -->
     <g transform="translate(127 68.438437) scale(0.1 -0.1)">
      <defs>
       <path id="DejaVuSans-48" d="M 628 4666 
L 1259 4666 
L 1259 2753 
L 3553 2753 
L 3553 4666 
L 4184 4666 
L 4184 0 
L 3553 0 
L 3553 2222 
L 1259 2222 
L 1259 0 
L 628 0 
L 628 4666 
z
" transform="scale(0.015625)"/>
      </defs>
      <use xlink:href="#DejaVuSans-48"/>
      <use xlink:href="#DejaVuSans-30" transform="translate(75.195312 0)"/>
      <use xlink:href="#DejaVuSans-31" transform="translate(138.818359 0)"/>
     </g>
    </g>
    <g id="line2d_48">
     <path d="M 99 79.616562 
L 109 79.616562 
L 119 79.616562 
" style="fill: none; stroke: #ff7f0e; stroke-width: 1.5; stroke-linecap: square"/>
    </g>
    <g id="text_22">
     <!-- H02 -->
     <g transform="translate(127 83.116562) scale(0.1 -0.1)">
      <use xlink:href="#DejaVuSans-48"/>
      <use xlink:href="#DejaVuSans-30" transform="translate(75.195312 0)"/>
      <use xlink:href="#DejaVuSans-32" transform="translate(138.818359 0)"/>
     </g>
    </g>
    <g id="line2d_49">
     <path d="M 99 94.294688 
L 109 94.294688 
L 119 94.294688 
" style="fill: none; stroke: #2ca02c; stroke-width: 1.5; stroke-linecap: square"/>
    </g>
    <g id="text_23">
     <!-- H03 -->
     <g transform="translate(127 97.794688) scale(0.1 -0.1)">
      <use xlink:href="#DejaVuSans-48"/>
      <use xlink:href="#DejaVuSans-30" transform="translate(75.195312 0)"/>
      <use xlink:href="#DejaVuSans-33" transform="translate(138.818359 0)"/>
     </g>
    </g>
    <g id="line2d_50">
     <path d="M 99 108.972812 
L 109 108.972812 
L 119 108.972812 
" style="fill: none; stroke: #d62728; stroke-width: 1.5; stroke-linecap: square"/>
    </g>
    <g id="text_24">
     <!-- H04 -->
     <g transform="translate(127 112.472812) scale(0.1 -0.1)">
      <use xlink:href="#DejaVuSans-48"/>
      <use xlink:href="#DejaVuSans-30" transform="translate(75.195312 0)"/>
      <use xlink:href="#DejaVuSans-34" transform="translate(138.818359 0)"/>
     </g>
    </g>
    <g id="line2d_51">
     <path d="M 99 123.650937 
L 109 123.650937 
L 119 123.650937 
" style="fill: none; stroke: #9467bd; stroke-width: 1.5; stroke-linecap: square"/>
    </g>
    <g id="text_25">
     <!-- H05 -->
     <g transform="translate(127 127.150937) scale(0.1 -0.1)">
      <use xlink:href="#DejaVuSans-48"/>
      <use xlink:href="#DejaVuSans-30" transform="translate(75.195312 0)"/>
      <use xlink:href="#DejaVuSans-35" transform="translate(138.818359 0)"/>
     </g>
    </g>
    <g id="line2d_52">
     <path d="M 99 138.329062 
L 109 138.329062 
L 119 138.329062 
" style="fill: none; stroke: #8c564b; stroke-width: 1.5; stroke-linecap: square"/>
    </g>
    <g id="text_26">
     <!-- H06 -->
     <g transform="translate(127 141.829062) scale(0.1 -0.1)">
      <use xlink:href="#DejaVuSans-48"/>
      <use xlink:href="#DejaVuSans-30" transform="translate(75.195312 0)"/>
      <use xlink:href="#DejaVuSans-36" transform="translate(138.818359 0)"/>
     </g>
    </g>
    <g id="line2d_53">
     <path d="M 99 153.007187 
L 109 153.007187 
L 119 153.007187 
" style="fill: none; stroke: #e377c2; stroke-width: 1.5; stroke-linecap: square"/>
    </g>
    <g id="text_27">
     <!-- H07 -->
     <g transform="translate(127 156.507187) scale(0.1 -0.1)">
      <use xlink:href="#DejaVuSans-48"/>
      <use xlink:href="#DejaVuSans-30" transform="translate(75.195312 0)"/>
      <use xlink:href="#DejaVuSans-37" transform="translate(138.818359 0)"/>
     </g>
    </g>
    <g id="line2d_54">
     <path d="M 99 167.685312 
L 109 167.685312 
L 119 167.685312 
" style="fill: none; stroke: #7f7f7f; stroke-width: 1.5; stroke-linecap: square"/>
    </g>
    <g id="text_28">
     <!-- H08 -->
     <g transform="translate(127 171.185312) scale(0.1 -0.1)">
      <use xlink:href="#DejaVuSans-48"/>
      <use xlink:href="#DejaVuSans-30" transform="translate(75.195312 0)"/>
      <use xlink:href="#DejaVuSans-38" transform="translate(138.818359 0)"/>
     </g>
    </g>
    <g id="line2d_55">
     <path d="M 99 182.363437 
L 109 182.363437 
L 119 182.363437 
" style="fill: none; stroke: #bcbd22; stroke-width: 1.5; stroke-linecap: square"/>
    </g>
    <g id="text_29">
     <!-- H09 -->
     <g transform="translate(127 185.863437) scale(0.1 -0.1)">
      <use xlink:href="#DejaVuSans-48"/>
      <use xlink:href="#DejaVuSans-30" transform="translate(75.195312 0)"/>
      <use xlink:href="#DejaVuSans-39" transform="translate(138.818359 0)"/>
     </g>
    </g>
    <g id="line2d_56">
     <path d="M 99 197.041562 
L 109 197.041562 
L 119 197.041562 
" style="fill: none; stroke: #17becf; stroke-width: 1.5; stroke-linecap: square"/>
    </g>
    <g id="text_30">
     <!-- H10 -->
     <g transform="translate(127 200.541562) scale(0.1 -0.1)">
      <use xlink:href="#DejaVuSans-48"/>
      <use xlink:href="#DejaVuSans-31" transform="translate(75.195312 0)"/>
      <use xlink:href="#DejaVuSans-30" transform="translate(138.818359 0)"/>
     </g>
    </g>
    <g id="line2d_57">
     <path d="M 99 211.719687 
L 109 211.719687 
L 119 211.719687 
" style="fill: none; stroke: #1f77b4; stroke-width: 1.5; stroke-linecap: square"/>
    </g>
    <g id="text_31">
     <!-- H11 -->
     <g transform="translate(127 215.219687) scale(0.1 -0.1)">
      <use xlink:href="#DejaVuSans-48"/>
      <use xlink:href="#DejaVuSans-31" transform="translate(75.195312 0)"/>
      <use xlink:href="#DejaVuSans-31" transform="translate(138.818359 0)"/>
     </g>
    </g>
    <g id="line2d_58">
     <path d="M 99 226.397812 
L 109 226.397812 
L 119 226.397812 
" style="fill: none; stroke: #ff7f0e; stroke-width: 1.5; stroke-linecap: square"/>
    </g>
    <g id="text_32">
     <!-- H12 -->
     <g transform="translate(127 229.897812) scale(0.1 -0.1)">
      <use xlink:href="#DejaVuSans-48"/>
      <use xlink:href="#DejaVuSans-31" transform="translate(75.195312 0)"/>
      <use xlink:href="#DejaVuSans-32" transform="translate(138.818359 0)"/>
     </g>
    </g>
   </g>
  </g>
 </g>
 <defs>
  <clipPath id="p8aae1c1ff2">
   <rect x="90" y="51.84" width="558" height="332.64"/>
  </clipPath>
 </defs>
</svg>
