<?xml version="1.0" encoding="utf-8" standalone="no"?>
<!DOCTYPE svg PUBLIC "-//W3C//DTD SVG 1.1//EN"
  "http://www.w3.org/Graphics/SVG/1.1/DTD/svg11.dtd">
<svg xmlns:xlink="http://www.w3.org/1999/xlink" width="720pt" height="432pt" viewBox="0 0 720 432" xmlns="http://www.w3.org/2000/svg" version="1.1">
 <metadata>
  <rdf:RDF xmlns:dc="http://purl.org/dc/elements/1.1/" xmlns:cc="http://creativecommons.org/ns#" xmlns:rdf="http://www.w3.org/1999/02/22-rdf-syntax-ns#">
   <cc:Work>
    <dc:type rdf:resource="http://purl.org/dc/dcmitype/StillImage"/>
    <dc:date>2025-01-14T19:09:42.569117</dc:date>
    <dc:format>image/svg+xml</dc:format>
    <dc:creator>
     <cc:Agent>
      <dc:title>Matplotlib v3.10.0, https://matplotlib.org/</dc:title>
     </cc:Agent>
    </dc:creator>
   </cc:Work>
  </rdf:RDF>
 </metadata>
 <defs>
  <style type="text/css">*{stroke-linejoin: round; stroke-linecap: butt}</style>
 </defs>
 <g id="figure_1">
  <g id="patch_1">
   <path d="M 0 432 
L 720 432 
L 720 0 
L 0 0 
z
" style="fill: #ffffff"/>
  </g>
  <g id="axes_1">
   <g id="patch_2">
    <path d="M 90 384.48 
L 648 384.48 
L 648 51.84 
L 90 51.84 
z
" style="fill: #ffffff"/>
   </g>
   <g id="matplotlib.axis_1">
    <g id="xtick_1">
     <g id="line2d_1">
      <path d="M 156.248304 384.48 
L 156.248304 51.84 
" clip-path="url(#p035faaadfe)" style="fill: none; stroke: #b0b0b0; stroke-width: 0.8; stroke-linecap: square"/>
     </g>
     <g id="line2d_2">
      <defs>
       <path id="medf59dabc1" d="M 0 0 
L 0 3.5 
" style="stroke: #000000; stroke-width: 0.8"/>
      </defs>
      <g>
       <use xlink:href="#medf59dabc1" x="156.248304" y="384.48" style="stroke: #000000; stroke-width: 0.8"/>
      </g>
     </g>
     <g id="text_1">
      <!-- 01-14 14 -->
      <g transform="translate(133.767835 399.078438) scale(0.1 -0.1)">
       <defs>
        <path id="DejaVuSans-30" d="M 2034 4250 
Q 1547 4250 1301 3770 
Q 1056 3291 1056 2328 
Q 1056 1369 1301 889 
Q 1547 409 2034 409 
Q 2525 409 2770 889 
Q 3016 1369 3016 2328 
Q 3016 3291 2770 3770 
Q 2525 4250 2034 4250 
z
M 2034 4750 
Q 2819 4750 3233 4129 
Q 3647 3509 3647 2328 
Q 3647 1150 3233 529 
Q 2819 -91 2034 -91 
Q 1250 -91 836 529 
Q 422 1150 422 2328 
Q 422 3509 836 4129 
Q 1250 4750 2034 4750 
z
" transform="scale(0.015625)"/>
        <path id="DejaVuSans-31" d="M 794 531 
L 1825 531 
L 1825 4091 
L 703 3866 
L 703 4441 
L 1819 4666 
L 2450 4666 
L 2450 531 
L 3481 531 
L 3481 0 
L 794 0 
L 794 531 
z
" transform="scale(0.015625)"/>
        <path id="DejaVuSans-2d" d="M 313 2009 
L 1997 2009 
L 1997 1497 
L 313 1497 
L 313 2009 
z
" transform="scale(0.015625)"/>
        <path id="DejaVuSans-34" d="M 2419 4116 
L 825 1625 
L 2419 1625 
L 2419 4116 
z
M 2253 4666 
L 3047 4666 
L 3047 1625 
L 3713 1625 
L 3713 1100 
L 3047 1100 
L 3047 0 
L 2419 0 
L 2419 1100 
L 313 1100 
L 313 1709 
L 2253 4666 
z
" transform="scale(0.015625)"/>
        <path id="DejaVuSans-20" transform="scale(0.015625)"/>
       </defs>
       <use xlink:href="#DejaVuSans-30"/>
       <use xlink:href="#DejaVuSans-31" transform="translate(63.623047 0)"/>
       <use xlink:href="#DejaVuSans-2d" transform="translate(127.246094 0)"/>
       <use xlink:href="#DejaVuSans-31" transform="translate(163.330078 0)"/>
       <use xlink:href="#DejaVuSans-34" transform="translate(226.953125 0)"/>
       <use xlink:href="#DejaVuSans-20" transform="translate(290.576172 0)"/>
       <use xlink:href="#DejaVuSans-31" transform="translate(322.363281 0)"/>
       <use xlink:href="#DejaVuSans-34" transform="translate(385.986328 0)"/>
      </g>
     </g>
    </g>
    <g id="xtick_2">
     <g id="line2d_3">
      <path d="M 247.103121 384.48 
L 247.103121 51.84 
" clip-path="url(#p035faaadfe)" style="fill: none; stroke: #b0b0b0; stroke-width: 0.8; stroke-linecap: square"/>
     </g>
     <g id="line2d_4">
      <g>
       <use xlink:href="#medf59dabc1" x="247.103121" y="384.48" style="stroke: #000000; stroke-width: 0.8"/>
      </g>
     </g>
     <g id="text_2">
      <!-- 01-14 15 -->
      <g transform="translate(224.622652 399.078438) scale(0.1 -0.1)">
       <defs>
        <path id="DejaVuSans-35" d="M 691 4666 
L 3169 4666 
L 3169 4134 
L 1269 4134 
L 1269 2991 
Q 1406 3038 1543 3061 
Q 1681 3084 1819 3084 
Q 2600 3084 3056 2656 
Q 3513 2228 3513 1497 
Q 3513 744 3044 326 
Q 2575 -91 1722 -91 
Q 1428 -91 1123 -41 
Q 819 9 494 109 
L 494 744 
Q 775 591 1075 516 
Q 1375 441 1709 441 
Q 2250 441 2565 725 
Q 2881 1009 2881 1497 
Q 2881 1984 2565 2268 
Q 2250 2553 1709 2553 
Q 1456 2553 1204 2497 
Q 953 2441 691 2322 
L 691 4666 
z
" transform="scale(0.015625)"/>
       </defs>
       <use xlink:href="#DejaVuSans-30"/>
       <use xlink:href="#DejaVuSans-31" transform="translate(63.623047 0)"/>
       <use xlink:href="#DejaVuSans-2d" transform="translate(127.246094 0)"/>
       <use xlink:href="#DejaVuSans-31" transform="translate(163.330078 0)"/>
       <use xlink:href="#DejaVuSans-34" transform="translate(226.953125 0)"/>
       <use xlink:href="#DejaVuSans-20" transform="translate(290.576172 0)"/>
       <use xlink:href="#DejaVuSans-31" transform="translate(322.363281 0)"/>
       <use xlink:href="#DejaVuSans-35" transform="translate(385.986328 0)"/>
      </g>
     </g>
    </g>
    <g id="xtick_3">
     <g id="line2d_5">
      <path d="M 337.957938 384.48 
L 337.957938 51.84 
" clip-path="url(#p035faaadfe)" style="fill: none; stroke: #b0b0b0; stroke-width: 0.8; stroke-linecap: square"/>
     </g>
     <g id="line2d_6">
      <g>
       <use xlink:href="#medf59dabc1" x="337.957938" y="384.48" style="stroke: #000000; stroke-width: 0.8"/>
      </g>
     </g>
     <g id="text_3">
      <!-- 01-14 16 -->
      <g transform="translate(315.477469 399.078438) scale(0.1 -0.1)">
       <defs>
        <path id="DejaVuSans-36" d="M 2113 2584 
Q 1688 2584 1439 2293 
Q 1191 2003 1191 1497 
Q 1191 994 1439 701 
Q 1688 409 2113 409 
Q 2538 409 2786 701 
Q 3034 994 3034 1497 
Q 3034 2003 2786 2293 
Q 2538 2584 2113 2584 
z
M 3366 4563 
L 3366 3988 
Q 3128 4100 2886 4159 
Q 2644 4219 2406 4219 
Q 1781 4219 1451 3797 
Q 1122 3375 1075 2522 
Q 1259 2794 1537 2939 
Q 1816 3084 2150 3084 
Q 2853 3084 3261 2657 
Q 3669 2231 3669 1497 
Q 3669 778 3244 343 
Q 2819 -91 2113 -91 
Q 1303 -91 875 529 
Q 447 1150 447 2328 
Q 447 3434 972 4092 
Q 1497 4750 2381 4750 
Q 2619 4750 2861 4703 
Q 3103 4656 3366 4563 
z
" transform="scale(0.015625)"/>
       </defs>
       <use xlink:href="#DejaVuSans-30"/>
       <use xlink:href="#DejaVuSans-31" transform="translate(63.623047 0)"/>
       <use xlink:href="#DejaVuSans-2d" transform="translate(127.246094 0)"/>
       <use xlink:href="#DejaVuSans-31" transform="translate(163.330078 0)"/>
       <use xlink:href="#DejaVuSans-34" transform="translate(226.953125 0)"/>
       <use xlink:href="#DejaVuSans-20" transform="translate(290.576172 0)"/>
       <use xlink:href="#DejaVuSans-31" transform="translate(322.363281 0)"/>
       <use xlink:href="#DejaVuSans-36" transform="translate(385.986328 0)"/>
      </g>
     </g>
    </g>
    <g id="xtick_4">
     <g id="line2d_7">
      <path d="M 428.812754 384.48 
L 428.812754 51.84 
" clip-path="url(#p035faaadfe)" style="fill: none; stroke: #b0b0b0; stroke-width: 0.8; stroke-linecap: square"/>
     </g>
     <g id="line2d_8">
      <g>
       <use xlink:href="#medf59dabc1" x="428.812754" y="384.48" style="stroke: #000000; stroke-width: 0.8"/>
      </g>
     </g>
     <g id="text_4">
      <!-- 01-14 17 -->
      <g transform="translate(406.332286 399.078438) scale(0.1 -0.1)">
       <defs>
        <path id="DejaVuSans-37" d="M 525 4666 
L 3525 4666 
L 3525 4397 
L 1831 0 
L 1172 0 
L 2766 4134 
L 525 4134 
L 525 4666 
z
" transform="scale(0.015625)"/>
       </defs>
       <use xlink:href="#DejaVuSans-30"/>
       <use xlink:href="#DejaVuSans-31" transform="translate(63.623047 0)"/>
       <use xlink:href="#DejaVuSans-2d" transform="translate(127.246094 0)"/>
       <use xlink:href="#DejaVuSans-31" transform="translate(163.330078 0)"/>
       <use xlink:href="#DejaVuSans-34" transform="translate(226.953125 0)"/>
       <use xlink:href="#DejaVuSans-20" transform="translate(290.576172 0)"/>
       <use xlink:href="#DejaVuSans-31" transform="translate(322.363281 0)"/>
       <use xlink:href="#DejaVuSans-37" transform="translate(385.986328 0)"/>
      </g>
     </g>
    </g>
    <g id="xtick_5">
     <g id="line2d_9">
      <path d="M 519.667571 384.48 
L 519.667571 51.84 
" clip-path="url(#p035faaadfe)" style="fill: none; stroke: #b0b0b0; stroke-width: 0.8; stroke-linecap: square"/>
     </g>
     <g id="line2d_10">
      <g>
       <use xlink:href="#medf59dabc1" x="519.667571" y="384.48" style="stroke: #000000; stroke-width: 0.8"/>
      </g>
     </g>
     <g id="text_5">
      <!-- 01-14 18 -->
      <g transform="translate(497.187102 399.078438) scale(0.1 -0.1)">
       <defs>
        <path id="DejaVuSans-38" d="M 2034 2216 
Q 1584 2216 1326 1975 
Q 1069 1734 1069 1313 
Q 1069 891 1326 650 
Q 1584 409 2034 409 
Q 2484 409 2743 651 
Q 3003 894 3003 1313 
Q 3003 1734 2745 1975 
Q 2488 2216 2034 2216 
z
M 1403 2484 
Q 997 2584 770 2862 
Q 544 3141 544 3541 
Q 544 4100 942 4425 
Q 1341 4750 2034 4750 
Q 2731 4750 3128 4425 
Q 3525 4100 3525 3541 
Q 3525 3141 3298 2862 
Q 3072 2584 2669 2484 
Q 3125 2378 3379 2068 
Q 3634 1759 3634 1313 
Q 3634 634 3220 271 
Q 2806 -91 2034 -91 
Q 1263 -91 848 271 
Q 434 634 434 1313 
Q 434 1759 690 2068 
Q 947 2378 1403 2484 
z
M 1172 3481 
Q 1172 3119 1398 2916 
Q 1625 2713 2034 2713 
Q 2441 2713 2670 2916 
Q 2900 3119 2900 3481 
Q 2900 3844 2670 4047 
Q 2441 4250 2034 4250 
Q 1625 4250 1398 4047 
Q 1172 3844 1172 3481 
z
" transform="scale(0.015625)"/>
       </defs>
       <use xlink:href="#DejaVuSans-30"/>
       <use xlink:href="#DejaVuSans-31" transform="translate(63.623047 0)"/>
       <use xlink:href="#DejaVuSans-2d" transform="translate(127.246094 0)"/>
       <use xlink:href="#DejaVuSans-31" transform="translate(163.330078 0)"/>
       <use xlink:href="#DejaVuSans-34" transform="translate(226.953125 0)"/>
       <use xlink:href="#DejaVuSans-20" transform="translate(290.576172 0)"/>
       <use xlink:href="#DejaVuSans-31" transform="translate(322.363281 0)"/>
       <use xlink:href="#DejaVuSans-38" transform="translate(385.986328 0)"/>
      </g>
     </g>
    </g>
    <g id="xtick_6">
     <g id="line2d_11">
      <path d="M 610.522388 384.48 
L 610.522388 51.84 
" clip-path="url(#p035faaadfe)" style="fill: none; stroke: #b0b0b0; stroke-width: 0.8; stroke-linecap: square"/>
     </g>
     <g id="line2d_12">
      <g>
       <use xlink:href="#medf59dabc1" x="610.522388" y="384.48" style="stroke: #000000; stroke-width: 0.8"/>
      </g>
     </g>
     <g id="text_6">
      <!-- 01-14 19 -->
      <g transform="translate(588.041919 399.078438) scale(0.1 -0.1)">
       <defs>
        <path id="DejaVuSans-39" d="M 703 97 
L 703 672 
Q 941 559 1184 500 
Q 1428 441 1663 441 
Q 2288 441 2617 861 
Q 2947 1281 2994 2138 
Q 2813 1869 2534 1725 
Q 2256 1581 1919 1581 
Q 1219 1581 811 2004 
Q 403 2428 403 3163 
Q 403 3881 828 4315 
Q 1253 4750 1959 4750 
Q 2769 4750 3195 4129 
Q 3622 3509 3622 2328 
Q 3622 1225 3098 567 
Q 2575 -91 1691 -91 
Q 1453 -91 1209 -44 
Q 966 3 703 97 
z
M 1959 2075 
Q 2384 2075 2632 2365 
Q 2881 2656 2881 3163 
Q 2881 3666 2632 3958 
Q 2384 4250 1959 4250 
Q 1534 4250 1286 3958 
Q 1038 3666 1038 3163 
Q 1038 2656 1286 2365 
Q 1534 2075 1959 2075 
z
" transform="scale(0.015625)"/>
       </defs>
       <use xlink:href="#DejaVuSans-30"/>
       <use xlink:href="#DejaVuSans-31" transform="translate(63.623047 0)"/>
       <use xlink:href="#DejaVuSans-2d" transform="translate(127.246094 0)"/>
       <use xlink:href="#DejaVuSans-31" transform="translate(163.330078 0)"/>
       <use xlink:href="#DejaVuSans-34" transform="translate(226.953125 0)"/>
       <use xlink:href="#DejaVuSans-20" transform="translate(290.576172 0)"/>
       <use xlink:href="#DejaVuSans-31" transform="translate(322.363281 0)"/>
       <use xlink:href="#DejaVuSans-39" transform="translate(385.986328 0)"/>
      </g>
     </g>
    </g>
    <g id="text_7">
     <!-- Date and Time -->
     <g transform="translate(332.230469 412.756563) scale(0.1 -0.1)">
      <defs>
       <path id="DejaVuSans-44" d="M 1259 4147 
L 1259 519 
L 2022 519 
Q 2988 519 3436 956 
Q 3884 1394 3884 2338 
Q 3884 3275 3436 3711 
Q 2988 4147 2022 4147 
L 1259 4147 
z
M 628 4666 
L 1925 4666 
Q 3281 4666 3915 4102 
Q 4550 3538 4550 2338 
Q 4550 1131 3912 565 
Q 3275 0 1925 0 
L 628 0 
L 628 4666 
z
" transform="scale(0.015625)"/>
       <path id="DejaVuSans-61" d="M 2194 1759 
Q 1497 1759 1228 1600 
Q 959 1441 959 1056 
Q 959 750 1161 570 
Q 1363 391 1709 391 
Q 2188 391 2477 730 
Q 2766 1069 2766 1631 
L 2766 1759 
L 2194 1759 
z
M 3341 1997 
L 3341 0 
L 2766 0 
L 2766 531 
Q 2569 213 2275 61 
Q 1981 -91 1556 -91 
Q 1019 -91 701 211 
Q 384 513 384 1019 
Q 384 1609 779 1909 
Q 1175 2209 1959 2209 
L 2766 2209 
L 2766 2266 
Q 2766 2663 2505 2880 
Q 2244 3097 1772 3097 
Q 1472 3097 1187 3025 
Q 903 2953 641 2809 
L 641 3341 
Q 956 3463 1253 3523 
Q 1550 3584 1831 3584 
Q 2591 3584 2966 3190 
Q 3341 2797 3341 1997 
z
" transform="scale(0.015625)"/>
       <path id="DejaVuSans-74" d="M 1172 4494 
L 1172 3500 
L 2356 3500 
L 2356 3053 
L 1172 3053 
L 1172 1153 
Q 1172 725 1289 603 
Q 1406 481 1766 481 
L 2356 481 
L 2356 0 
L 1766 0 
Q 1100 0 847 248 
Q 594 497 594 1153 
L 594 3053 
L 172 3053 
L 172 3500 
L 594 3500 
L 594 4494 
L 1172 4494 
z
" transform="scale(0.015625)"/>
       <path id="DejaVuSans-65" d="M 3597 1894 
L 3597 1613 
L 953 1613 
Q 991 1019 1311 708 
Q 1631 397 2203 397 
Q 2534 397 2845 478 
Q 3156 559 3463 722 
L 3463 178 
Q 3153 47 2828 -22 
Q 2503 -91 2169 -91 
Q 1331 -91 842 396 
Q 353 884 353 1716 
Q 353 2575 817 3079 
Q 1281 3584 2069 3584 
Q 2775 3584 3186 3129 
Q 3597 2675 3597 1894 
z
M 3022 2063 
Q 3016 2534 2758 2815 
Q 2500 3097 2075 3097 
Q 1594 3097 1305 2825 
Q 1016 2553 972 2059 
L 3022 2063 
z
" transform="scale(0.015625)"/>
       <path id="DejaVuSans-6e" d="M 3513 2113 
L 3513 0 
L 2938 0 
L 2938 2094 
Q 2938 2591 2744 2837 
Q 2550 3084 2163 3084 
Q 1697 3084 1428 2787 
Q 1159 2491 1159 1978 
L 1159 0 
L 581 0 
L 581 3500 
L 1159 3500 
L 1159 2956 
Q 1366 3272 1645 3428 
Q 1925 3584 2291 3584 
Q 2894 3584 3203 3211 
Q 3513 2838 3513 2113 
z
" transform="scale(0.015625)"/>
       <path id="DejaVuSans-64" d="M 2906 2969 
L 2906 4863 
L 3481 4863 
L 3481 0 
L 2906 0 
L 2906 525 
Q 2725 213 2448 61 
Q 2172 -91 1784 -91 
Q 1150 -91 751 415 
Q 353 922 353 1747 
Q 353 2572 751 3078 
Q 1150 3584 1784 3584 
Q 2172 3584 2448 3432 
Q 2725 3281 2906 2969 
z
M 947 1747 
Q 947 1113 1208 752 
Q 1469 391 1925 391 
Q 2381 391 2643 752 
Q 2906 1113 2906 1747 
Q 2906 2381 2643 2742 
Q 2381 3103 1925 3103 
Q 1469 3103 1208 2742 
Q 947 2381 947 1747 
z
" transform="scale(0.015625)"/>
       <path id="DejaVuSans-54" d="M -19 4666 
L 3928 4666 
L 3928 4134 
L 2272 4134 
L 2272 0 
L 1638 0 
L 1638 4134 
L -19 4134 
L -19 4666 
z
" transform="scale(0.015625)"/>
       <path id="DejaVuSans-69" d="M 603 3500 
L 1178 3500 
L 1178 0 
L 603 0 
L 603 3500 
z
M 603 4863 
L 1178 4863 
L 1178 4134 
L 603 4134 
L 603 4863 
z
" transform="scale(0.015625)"/>
       <path id="DejaVuSans-6d" d="M 3328 2828 
Q 3544 3216 3844 3400 
Q 4144 3584 4550 3584 
Q 5097 3584 5394 3201 
Q 5691 2819 5691 2113 
L 5691 0 
L 5113 0 
L 5113 2094 
Q 5113 2597 4934 2840 
Q 4756 3084 4391 3084 
Q 3944 3084 3684 2787 
Q 3425 2491 3425 1978 
L 3425 0 
L 2847 0 
L 2847 2094 
Q 2847 2600 2669 2842 
Q 2491 3084 2119 3084 
Q 1678 3084 1418 2786 
Q 1159 2488 1159 1978 
L 1159 0 
L 581 0 
L 581 3500 
L 1159 3500 
L 1159 2956 
Q 1356 3278 1631 3431 
Q 1906 3584 2284 3584 
Q 2666 3584 2933 3390 
Q 3200 3197 3328 2828 
z
" transform="scale(0.015625)"/>
      </defs>
      <use xlink:href="#DejaVuSans-44"/>
      <use xlink:href="#DejaVuSans-61" transform="translate(77.001953 0)"/>
      <use xlink:href="#DejaVuSans-74" transform="translate(138.28125 0)"/>
      <use xlink:href="#DejaVuSans-65" transform="translate(177.490234 0)"/>
      <use xlink:href="#DejaVuSans-20" transform="translate(239.013672 0)"/>
      <use xlink:href="#DejaVuSans-61" transform="translate(270.800781 0)"/>
      <use xlink:href="#DejaVuSans-6e" transform="translate(332.080078 0)"/>
      <use xlink:href="#DejaVuSans-64" transform="translate(395.458984 0)"/>
      <use xlink:href="#DejaVuSans-20" transform="translate(458.935547 0)"/>
      <use xlink:href="#DejaVuSans-54" transform="translate(490.722656 0)"/>
      <use xlink:href="#DejaVuSans-69" transform="translate(548.681641 0)"/>
      <use xlink:href="#DejaVuSans-6d" transform="translate(576.464844 0)"/>
      <use xlink:href="#DejaVuSans-65" transform="translate(673.876953 0)"/>
     </g>
    </g>
   </g>
   <g id="matplotlib.axis_2">
    <g id="ytick_1">
     <g id="line2d_13">
      <path d="M 90 370.574458 
L 648 370.574458 
" clip-path="url(#p035faaadfe)" style="fill: none; stroke: #b0b0b0; stroke-width: 0.8; stroke-linecap: square"/>
     </g>
     <g id="line2d_14">
      <defs>
       <path id="ma96d56526c" d="M 0 0 
L -3.5 0 
" style="stroke: #000000; stroke-width: 0.8"/>
      </defs>
      <g>
       <use xlink:href="#ma96d56526c" x="90" y="370.574458" style="stroke: #000000; stroke-width: 0.8"/>
      </g>
     </g>
     <g id="text_8">
      <!-- 0 -->
      <g transform="translate(76.6375 374.373677) scale(0.1 -0.1)">
       <use xlink:href="#DejaVuSans-30"/>
      </g>
     </g>
    </g>
    <g id="ytick_2">
     <g id="line2d_15">
      <path d="M 90 309.851566 
L 648 309.851566 
" clip-path="url(#p035faaadfe)" style="fill: none; stroke: #b0b0b0; stroke-width: 0.8; stroke-linecap: square"/>
     </g>
     <g id="line2d_16">
      <g>
       <use xlink:href="#ma96d56526c" x="90" y="309.851566" style="stroke: #000000; stroke-width: 0.8"/>
      </g>
     </g>
     <g id="text_9">
      <!-- 50 -->
      <g transform="translate(70.275 313.650785) scale(0.1 -0.1)">
       <use xlink:href="#DejaVuSans-35"/>
       <use xlink:href="#DejaVuSans-30" transform="translate(63.623047 0)"/>
      </g>
     </g>
    </g>
    <g id="ytick_3">
     <g id="line2d_17">
      <path d="M 90 249.128675 
L 648 249.128675 
" clip-path="url(#p035faaadfe)" style="fill: none; stroke: #b0b0b0; stroke-width: 0.8; stroke-linecap: square"/>
     </g>
     <g id="line2d_18">
      <g>
       <use xlink:href="#ma96d56526c" x="90" y="249.128675" style="stroke: #000000; stroke-width: 0.8"/>
      </g>
     </g>
     <g id="text_10">
      <!-- 100 -->
      <g transform="translate(63.9125 252.927893) scale(0.1 -0.1)">
       <use xlink:href="#DejaVuSans-31"/>
       <use xlink:href="#DejaVuSans-30" transform="translate(63.623047 0)"/>
       <use xlink:href="#DejaVuSans-30" transform="translate(127.246094 0)"/>
      </g>
     </g>
    </g>
    <g id="ytick_4">
     <g id="line2d_19">
      <path d="M 90 188.405783 
L 648 188.405783 
" clip-path="url(#p035faaadfe)" style="fill: none; stroke: #b0b0b0; stroke-width: 0.8; stroke-linecap: square"/>
     </g>
     <g id="line2d_20">
      <g>
       <use xlink:href="#ma96d56526c" x="90" y="188.405783" style="stroke: #000000; stroke-width: 0.8"/>
      </g>
     </g>
     <g id="text_11">
      <!-- 150 -->
      <g transform="translate(63.9125 192.205002) scale(0.1 -0.1)">
       <use xlink:href="#DejaVuSans-31"/>
       <use xlink:href="#DejaVuSans-35" transform="translate(63.623047 0)"/>
       <use xlink:href="#DejaVuSans-30" transform="translate(127.246094 0)"/>
      </g>
     </g>
    </g>
    <g id="ytick_5">
     <g id="line2d_21">
      <path d="M 90 127.682892 
L 648 127.682892 
" clip-path="url(#p035faaadfe)" style="fill: none; stroke: #b0b0b0; stroke-width: 0.8; stroke-linecap: square"/>
     </g>
     <g id="line2d_22">
      <g>
       <use xlink:href="#ma96d56526c" x="90" y="127.682892" style="stroke: #000000; stroke-width: 0.8"/>
      </g>
     </g>
     <g id="text_12">
      <!-- 200 -->
      <g transform="translate(63.9125 131.48211) scale(0.1 -0.1)">
       <defs>
        <path id="DejaVuSans-32" d="M 1228 531 
L 3431 531 
L 3431 0 
L 469 0 
L 469 531 
Q 828 903 1448 1529 
Q 2069 2156 2228 2338 
Q 2531 2678 2651 2914 
Q 2772 3150 2772 3378 
Q 2772 3750 2511 3984 
Q 2250 4219 1831 4219 
Q 1534 4219 1204 4116 
Q 875 4013 500 3803 
L 500 4441 
Q 881 4594 1212 4672 
Q 1544 4750 1819 4750 
Q 2544 4750 2975 4387 
Q 3406 4025 3406 3419 
Q 3406 3131 3298 2873 
Q 3191 2616 2906 2266 
Q 2828 2175 2409 1742 
Q 1991 1309 1228 531 
z
" transform="scale(0.015625)"/>
       </defs>
       <use xlink:href="#DejaVuSans-32"/>
       <use xlink:href="#DejaVuSans-30" transform="translate(63.623047 0)"/>
       <use xlink:href="#DejaVuSans-30" transform="translate(127.246094 0)"/>
      </g>
     </g>
    </g>
    <g id="ytick_6">
     <g id="line2d_23">
      <path d="M 90 66.96 
L 648 66.96 
" clip-path="url(#p035faaadfe)" style="fill: none; stroke: #b0b0b0; stroke-width: 0.8; stroke-linecap: square"/>
     </g>
     <g id="line2d_24">
      <g>
       <use xlink:href="#ma96d56526c" x="90" y="66.96" style="stroke: #000000; stroke-width: 0.8"/>
      </g>
     </g>
     <g id="text_13">
      <!-- 250 -->
      <g transform="translate(63.9125 70.759219) scale(0.1 -0.1)">
       <use xlink:href="#DejaVuSans-32"/>
       <use xlink:href="#DejaVuSans-35" transform="translate(63.623047 0)"/>
       <use xlink:href="#DejaVuSans-30" transform="translate(127.246094 0)"/>
      </g>
     </g>
    </g>
    <g id="text_14">
     <!-- Votes -->
     <g transform="translate(57.832812 231.893594) rotate(-90) scale(0.1 -0.1)">
      <defs>
       <path id="DejaVuSans-56" d="M 1831 0 
L 50 4666 
L 709 4666 
L 2188 738 
L 3669 4666 
L 4325 4666 
L 2547 0 
L 1831 0 
z
" transform="scale(0.015625)"/>
       <path id="DejaVuSans-6f" d="M 1959 3097 
Q 1497 3097 1228 2736 
Q 959 2375 959 1747 
Q 959 1119 1226 758 
Q 1494 397 1959 397 
Q 2419 397 2687 759 
Q 2956 1122 2956 1747 
Q 2956 2369 2687 2733 
Q 2419 3097 1959 3097 
z
M 1959 3584 
Q 2709 3584 3137 3096 
Q 3566 2609 3566 1747 
Q 3566 888 3137 398 
Q 2709 -91 1959 -91 
Q 1206 -91 779 398 
Q 353 888 353 1747 
Q 353 2609 779 3096 
Q 1206 3584 1959 3584 
z
" transform="scale(0.015625)"/>
       <path id="DejaVuSans-73" d="M 2834 3397 
L 2834 2853 
Q 2591 2978 2328 3040 
Q 2066 3103 1784 3103 
Q 1356 3103 1142 2972 
Q 928 2841 928 2578 
Q 928 2378 1081 2264 
Q 1234 2150 1697 2047 
L 1894 2003 
Q 2506 1872 2764 1633 
Q 3022 1394 3022 966 
Q 3022 478 2636 193 
Q 2250 -91 1575 -91 
Q 1294 -91 989 -36 
Q 684 19 347 128 
L 347 722 
Q 666 556 975 473 
Q 1284 391 1588 391 
Q 1994 391 2212 530 
Q 2431 669 2431 922 
Q 2431 1156 2273 1281 
Q 2116 1406 1581 1522 
L 1381 1569 
Q 847 1681 609 1914 
Q 372 2147 372 2553 
Q 372 3047 722 3315 
Q 1072 3584 1716 3584 
Q 2034 3584 2315 3537 
Q 2597 3491 2834 3397 
z
" transform="scale(0.015625)"/>
      </defs>
      <use xlink:href="#DejaVuSans-56"/>
      <use xlink:href="#DejaVuSans-6f" transform="translate(60.658203 0)"/>
      <use xlink:href="#DejaVuSans-74" transform="translate(121.839844 0)"/>
      <use xlink:href="#DejaVuSans-65" transform="translate(161.048828 0)"/>
      <use xlink:href="#DejaVuSans-73" transform="translate(222.572266 0)"/>
     </g>
    </g>
   </g>
   <g id="line2d_25">
    <path d="M 115.363636 348.714217 
L 130.506106 348.714217 
L 132.020353 347.499759 
L 147.162822 347.499759 
L 148.677069 345.070843 
L 162.305292 345.070843 
L 163.819539 343.856386 
L 171.390773 343.856386 
L 172.90502 342.641928 
L 178.962008 342.641928 
L 180.476255 341.42747 
L 185.018996 341.42747 
L 186.533243 340.213012 
L 207.7327 340.213012 
L 209.246947 338.998554 
L 225.903664 338.998554 
L 228.932157 336.569639 
L 231.960651 336.569639 
L 233.474898 335.355181 
L 247.103121 335.355181 
L 250.131615 332.926265 
L 268.302578 332.926265 
L 269.816825 331.711807 
L 274.359566 331.711807 
L 275.873813 330.497349 
L 277.38806 330.497349 
L 278.902307 329.282892 
L 319.786974 329.282892 
L 321.301221 328.068434 
L 339.472185 328.068434 
L 340.986431 326.853976 
L 351.58616 326.853976 
L 353.100407 325.639518 
L 354.614654 323.210602 
L 356.128901 323.210602 
L 359.157395 320.781687 
L 383.385346 320.781687 
L 384.899593 319.567229 
L 393.985075 319.567229 
L 395.499322 318.352771 
L 401.556309 318.352771 
L 403.070556 317.138313 
L 418.213026 317.138313 
L 419.727273 315.923855 
L 422.755767 315.923855 
L 424.270014 314.709398 
L 428.812754 314.709398 
L 430.327001 313.49494 
L 442.440977 313.49494 
L 443.955224 312.280482 
L 445.469471 312.280482 
L 446.983718 311.066024 
L 462.126187 311.066024 
L 463.640434 309.851566 
L 474.240163 309.851566 
L 475.75441 308.637108 
L 477.268657 308.637108 
L 480.297151 306.208193 
L 513.610583 306.208193 
L 515.12483 304.993735 
L 539.352782 304.993735 
L 540.867028 303.779277 
L 542.381275 303.779277 
L 543.895522 302.564819 
L 557.523745 302.564819 
L 559.037992 301.350361 
L 560.552239 301.350361 
L 562.066486 300.135904 
L 569.63772 300.135904 
L 571.151967 298.921446 
L 575.694708 298.921446 
L 578.723202 296.49253 
L 580.237449 296.49253 
L 581.751696 295.278072 
L 584.78019 295.278072 
L 586.294437 294.063614 
L 589.322931 294.063614 
L 590.837178 292.849157 
L 593.865672 292.849157 
L 595.379919 291.634699 
L 622.636364 291.634699 
L 622.636364 291.634699 
" clip-path="url(#p035faaadfe)" style="fill: none; stroke: #1f77b4; stroke-width: 1.5; stroke-linecap: square"/>
   </g>
   <g id="line2d_26">
    <path d="M 115.363636 270.988916 
L 116.877883 269.774458 
L 121.420624 269.774458 
L 122.934871 268.56 
L 124.449118 268.56 
L 125.963365 267.345542 
L 127.477612 267.345542 
L 130.506106 264.916627 
L 132.020353 262.487711 
L 133.5346 262.487711 
L 136.563094 260.058795 
L 138.077341 260.058795 
L 139.591588 255.200964 
L 141.105834 252.772048 
L 142.620081 247.914217 
L 144.134328 244.270843 
L 148.677069 244.270843 
L 150.191316 240.62747 
L 151.705563 238.198554 
L 154.734057 235.769639 
L 156.248304 233.340723 
L 159.276798 230.911807 
L 160.791045 228.482892 
L 165.333786 228.482892 
L 166.848033 222.410602 
L 168.36228 219.981687 
L 169.876526 218.767229 
L 171.390773 216.338313 
L 172.90502 215.123855 
L 174.419267 215.123855 
L 175.933514 211.480482 
L 177.447761 211.480482 
L 178.962008 209.051566 
L 180.476255 207.837108 
L 181.990502 207.837108 
L 183.504749 206.622651 
L 186.533243 206.622651 
L 188.04749 205.408193 
L 191.075984 205.408193 
L 192.590231 202.979277 
L 194.104478 202.979277 
L 195.618725 201.764819 
L 201.675712 201.764819 
L 203.189959 200.550361 
L 207.7327 200.550361 
L 209.246947 199.335904 
L 210.761194 199.335904 
L 212.275441 196.906988 
L 213.789688 196.906988 
L 215.303935 194.478072 
L 216.818182 193.263614 
L 221.360923 193.263614 
L 222.87517 190.834699 
L 224.389417 189.620241 
L 225.903664 185.976867 
L 228.932157 183.547952 
L 241.046133 183.547952 
L 242.56038 179.904578 
L 244.074627 179.904578 
L 247.103121 177.475663 
L 248.617368 177.475663 
L 253.160109 173.832289 
L 256.188602 173.832289 
L 257.702849 172.617831 
L 260.731343 172.617831 
L 265.274084 168.974458 
L 268.302578 168.974458 
L 269.816825 167.76 
L 277.38806 167.76 
L 278.902307 166.545542 
L 281.930801 166.545542 
L 283.445047 165.331084 
L 301.616011 165.331084 
L 303.130258 162.902169 
L 306.158752 162.902169 
L 309.187246 160.473253 
L 310.701493 160.473253 
L 312.215739 159.258795 
L 321.301221 159.258795 
L 325.843962 155.615422 
L 327.358209 155.615422 
L 328.872456 154.400964 
L 330.386703 151.972048 
L 331.90095 151.972048 
L 333.415197 150.75759 
L 334.929444 150.75759 
L 340.986431 145.899759 
L 344.014925 145.899759 
L 345.529172 143.470843 
L 350.071913 143.470843 
L 351.58616 142.256386 
L 356.128901 142.256386 
L 357.643148 141.041928 
L 359.157395 141.041928 
L 360.671642 137.398554 
L 365.214383 137.398554 
L 366.72863 136.184096 
L 368.242877 133.755181 
L 371.27137 133.755181 
L 372.785617 132.540723 
L 375.814111 132.540723 
L 377.328358 131.326265 
L 378.842605 131.326265 
L 386.41384 125.253976 
L 389.442334 125.253976 
L 393.985075 121.610602 
L 398.527815 121.610602 
L 400.042062 119.181687 
L 401.556309 119.181687 
L 403.070556 117.967229 
L 407.613297 117.967229 
L 409.127544 116.752771 
L 422.755767 116.752771 
L 424.270014 115.538313 
L 434.869742 115.538313 
L 436.383989 114.323855 
L 439.412483 114.323855 
L 442.440977 111.89494 
L 450.012212 111.89494 
L 451.526459 110.680482 
L 459.097693 110.680482 
L 463.640434 107.037108 
L 483.325645 107.037108 
L 484.839891 104.608193 
L 486.354138 103.393735 
L 522.696065 103.393735 
L 524.210312 102.179277 
L 533.295794 102.179277 
L 536.324288 99.750361 
L 539.352782 99.750361 
L 540.867028 98.535904 
L 542.381275 98.535904 
L 545.409769 96.106988 
L 546.924016 96.106988 
L 548.438263 94.89253 
L 549.95251 94.89253 
L 552.981004 90.034699 
L 554.495251 88.820241 
L 562.066486 88.820241 
L 563.580733 85.176867 
L 565.09498 82.747952 
L 568.123474 82.747952 
L 571.151967 80.319036 
L 578.723202 80.319036 
L 581.751696 77.89012 
L 584.78019 77.89012 
L 586.294437 76.675663 
L 589.322931 76.675663 
L 590.837178 75.461205 
L 592.351425 75.461205 
L 593.865672 74.246747 
L 595.379919 74.246747 
L 596.894166 73.032289 
L 598.408412 73.032289 
L 599.922659 71.817831 
L 602.951153 71.817831 
L 604.4654 69.388916 
L 612.036635 69.388916 
L 615.065129 66.96 
L 622.636364 66.96 
L 622.636364 66.96 
" clip-path="url(#p035faaadfe)" style="fill: none; stroke: #ff7f0e; stroke-width: 1.5; stroke-linecap: square"/>
   </g>
   <g id="line2d_27">
    <path d="M 115.363636 332.926265 
L 121.420624 332.926265 
L 122.934871 330.497349 
L 125.963365 330.497349 
L 127.477612 329.282892 
L 128.991859 326.853976 
L 130.506106 325.639518 
L 132.020353 321.996145 
L 133.5346 319.567229 
L 135.048847 318.352771 
L 136.563094 318.352771 
L 138.077341 315.923855 
L 139.591588 312.280482 
L 145.648575 312.280482 
L 147.162822 311.066024 
L 148.677069 311.066024 
L 150.191316 308.637108 
L 154.734057 308.637108 
L 157.762551 306.208193 
L 163.819539 306.208193 
L 165.333786 304.993735 
L 171.390773 304.993735 
L 175.933514 301.350361 
L 183.504749 301.350361 
L 185.018996 300.135904 
L 189.561737 300.135904 
L 191.075984 298.921446 
L 194.104478 298.921446 
L 195.618725 296.49253 
L 207.7327 296.49253 
L 209.246947 295.278072 
L 210.761194 292.849157 
L 212.275441 291.634699 
L 213.789688 291.634699 
L 215.303935 290.420241 
L 218.332429 290.420241 
L 219.846676 289.205783 
L 222.87517 289.205783 
L 224.389417 287.991325 
L 233.474898 287.991325 
L 234.989145 286.776867 
L 236.503392 286.776867 
L 238.017639 285.56241 
L 239.531886 285.56241 
L 241.046133 284.347952 
L 245.588874 284.347952 
L 247.103121 283.133494 
L 248.617368 280.704578 
L 256.188602 280.704578 
L 260.731343 277.061205 
L 265.274084 277.061205 
L 266.788331 275.846747 
L 272.845319 275.846747 
L 274.359566 274.632289 
L 275.873813 274.632289 
L 277.38806 273.417831 
L 280.416554 273.417831 
L 281.930801 272.203373 
L 286.473541 272.203373 
L 289.502035 269.774458 
L 291.016282 269.774458 
L 292.530529 268.56 
L 304.644505 268.56 
L 306.158752 266.131084 
L 307.672999 264.916627 
L 319.786974 264.916627 
L 321.301221 263.702169 
L 325.843962 263.702169 
L 327.358209 262.487711 
L 331.90095 262.487711 
L 333.415197 261.273253 
L 348.557666 261.273253 
L 350.071913 260.058795 
L 356.128901 260.058795 
L 357.643148 258.844337 
L 366.72863 258.844337 
L 368.242877 257.62988 
L 371.27137 257.62988 
L 372.785617 256.415422 
L 378.842605 256.415422 
L 381.871099 253.986506 
L 410.641791 253.986506 
L 412.156038 252.772048 
L 413.670285 252.772048 
L 415.184532 251.55759 
L 419.727273 251.55759 
L 421.24152 250.343133 
L 428.812754 250.343133 
L 430.327001 249.128675 
L 433.355495 249.128675 
L 434.869742 247.914217 
L 443.955224 247.914217 
L 445.469471 249.128675 
L 446.983718 247.914217 
L 457.583446 247.914217 
L 459.097693 246.699759 
L 471.211669 246.699759 
L 472.725916 245.485301 
L 475.75441 245.485301 
L 477.268657 244.270843 
L 478.782904 244.270843 
L 480.297151 243.056386 
L 490.896879 243.056386 
L 492.411126 241.841928 
L 501.496608 241.841928 
L 503.010855 240.62747 
L 525.724559 240.62747 
L 527.238806 239.413012 
L 560.552239 239.413012 
L 562.066486 238.198554 
L 577.208955 238.198554 
L 578.723202 236.984096 
L 602.951153 236.984096 
L 605.979647 234.555181 
L 622.636364 234.555181 
L 622.636364 234.555181 
" clip-path="url(#p035faaadfe)" style="fill: none; stroke: #2ca02c; stroke-width: 1.5; stroke-linecap: square"/>
   </g>
   <g id="line2d_28">
    <path d="M 115.363636 369.36 
L 489.382632 369.36 
L 490.896879 368.145542 
L 622.636364 368.145542 
L 622.636364 368.145542 
" clip-path="url(#p035faaadfe)" style="fill: none; stroke: #d62728; stroke-width: 1.5; stroke-linecap: square"/>
   </g>
   <g id="line2d_29">
    <path d="M 115.363636 342.641928 
L 119.906377 342.641928 
L 121.420624 341.42747 
L 130.506106 341.42747 
L 132.020353 340.213012 
L 141.105834 340.213012 
L 142.620081 338.998554 
L 175.933514 338.998554 
L 177.447761 337.784096 
L 231.960651 337.784096 
L 234.989145 335.355181 
L 247.103121 335.355181 
L 248.617368 334.140723 
L 254.674355 334.140723 
L 256.188602 332.926265 
L 259.217096 332.926265 
L 260.731343 331.711807 
L 300.101764 331.711807 
L 301.616011 330.497349 
L 363.700136 330.497349 
L 365.214383 329.282892 
L 562.066486 329.282892 
L 563.580733 328.068434 
L 565.09498 328.068434 
L 566.609227 326.853976 
L 622.636364 326.853976 
L 622.636364 326.853976 
" clip-path="url(#p035faaadfe)" style="fill: none; stroke: #9467bd; stroke-width: 1.5; stroke-linecap: square"/>
   </g>
   <g id="line2d_30">
    <path d="M 115.363636 352.35759 
L 116.877883 352.35759 
L 118.39213 351.143133 
L 139.591588 351.143133 
L 141.105834 349.928675 
L 159.276798 349.928675 
L 160.791045 348.714217 
L 183.504749 348.714217 
L 186.533243 346.285301 
L 203.189959 346.285301 
L 204.704206 345.070843 
L 250.131615 345.070843 
L 251.645862 343.856386 
L 265.274084 343.856386 
L 266.788331 342.641928 
L 292.530529 342.641928 
L 294.044776 341.42747 
L 318.272727 341.42747 
L 319.786974 340.213012 
L 325.843962 340.213012 
L 327.358209 338.998554 
L 340.986431 338.998554 
L 342.500678 337.784096 
L 378.842605 337.784096 
L 380.356852 336.569639 
L 389.442334 336.569639 
L 390.956581 335.355181 
L 400.042062 335.355181 
L 401.556309 334.140723 
L 407.613297 334.140723 
L 409.127544 332.926265 
L 465.154681 332.926265 
L 466.668928 331.711807 
L 510.58209 331.711807 
L 512.096336 330.497349 
L 599.922659 330.497349 
L 601.436906 329.282892 
L 622.636364 329.282892 
L 622.636364 329.282892 
" clip-path="url(#p035faaadfe)" style="fill: none; stroke: #8c564b; stroke-width: 1.5; stroke-linecap: square"/>
   </g>
   <g id="line2d_31">
    <path d="M 115.363636 262.487711 
L 121.420624 262.487711 
L 122.934871 261.273253 
L 128.991859 261.273253 
L 132.020353 258.844337 
L 133.5346 258.844337 
L 135.048847 257.62988 
L 136.563094 257.62988 
L 138.077341 256.415422 
L 141.105834 256.415422 
L 142.620081 255.200964 
L 147.162822 255.200964 
L 148.677069 253.986506 
L 151.705563 253.986506 
L 153.21981 252.772048 
L 154.734057 252.772048 
L 156.248304 251.55759 
L 159.276798 251.55759 
L 162.305292 249.128675 
L 168.36228 249.128675 
L 169.876526 247.914217 
L 174.419267 247.914217 
L 177.447761 245.485301 
L 180.476255 245.485301 
L 181.990502 244.270843 
L 185.018996 244.270843 
L 186.533243 243.056386 
L 188.04749 240.62747 
L 189.561737 236.984096 
L 192.590231 236.984096 
L 194.104478 235.769639 
L 201.675712 235.769639 
L 204.704206 233.340723 
L 206.218453 230.911807 
L 207.7327 229.697349 
L 209.246947 229.697349 
L 210.761194 227.268434 
L 216.818182 227.268434 
L 218.332429 226.053976 
L 219.846676 226.053976 
L 222.87517 223.62506 
L 224.389417 223.62506 
L 225.903664 222.410602 
L 227.41791 222.410602 
L 230.446404 219.981687 
L 233.474898 219.981687 
L 234.989145 217.552771 
L 241.046133 217.552771 
L 244.074627 215.123855 
L 247.103121 215.123855 
L 248.617368 213.909398 
L 250.131615 211.480482 
L 254.674355 211.480482 
L 256.188602 210.266024 
L 257.702849 210.266024 
L 259.217096 207.837108 
L 260.731343 207.837108 
L 262.24559 206.622651 
L 263.759837 206.622651 
L 265.274084 205.408193 
L 271.331072 205.408193 
L 274.359566 202.979277 
L 275.873813 202.979277 
L 277.38806 200.550361 
L 278.902307 200.550361 
L 280.416554 199.335904 
L 281.930801 199.335904 
L 283.445047 198.121446 
L 287.987788 198.121446 
L 289.502035 196.906988 
L 291.016282 196.906988 
L 297.07327 192.049157 
L 298.587517 189.620241 
L 301.616011 189.620241 
L 304.644505 184.76241 
L 307.672999 184.76241 
L 310.701493 182.333494 
L 312.215739 182.333494 
L 313.729986 179.904578 
L 315.244233 179.904578 
L 316.75848 178.69012 
L 318.272727 178.69012 
L 319.786974 177.475663 
L 322.815468 177.475663 
L 324.329715 176.261205 
L 325.843962 176.261205 
L 327.358209 175.046747 
L 333.415197 175.046747 
L 334.929444 168.974458 
L 336.443691 168.974458 
L 337.957938 167.76 
L 342.500678 167.76 
L 344.014925 166.545542 
L 357.643148 166.545542 
L 359.157395 164.116627 
L 365.214383 164.116627 
L 366.72863 162.902169 
L 381.871099 162.902169 
L 383.385346 160.473253 
L 384.899593 159.258795 
L 392.470828 159.258795 
L 393.985075 158.044337 
L 404.584803 158.044337 
L 406.09905 156.82988 
L 407.613297 156.82988 
L 409.127544 155.615422 
L 418.213026 155.615422 
L 421.24152 153.186506 
L 431.841248 153.186506 
L 434.869742 150.75759 
L 436.383989 150.75759 
L 437.898236 149.543133 
L 446.983718 149.543133 
L 448.497965 148.328675 
L 453.040706 148.328675 
L 454.554953 147.114217 
L 456.069199 144.685301 
L 460.61194 144.685301 
L 462.126187 143.470843 
L 463.640434 143.470843 
L 466.668928 141.041928 
L 472.725916 141.041928 
L 474.240163 139.82747 
L 480.297151 139.82747 
L 481.811398 138.613012 
L 486.354138 138.613012 
L 487.868385 137.398554 
L 499.982361 137.398554 
L 503.010855 134.969639 
L 510.58209 134.969639 
L 512.096336 133.755181 
L 518.153324 133.755181 
L 525.724559 127.682892 
L 528.753053 127.682892 
L 530.2673 126.468434 
L 531.781547 126.468434 
L 533.295794 124.039518 
L 536.324288 121.610602 
L 539.352782 116.752771 
L 542.381275 116.752771 
L 545.409769 111.89494 
L 548.438263 111.89494 
L 549.95251 109.466024 
L 552.981004 107.037108 
L 557.523745 107.037108 
L 559.037992 105.822651 
L 560.552239 105.822651 
L 563.580733 103.393735 
L 569.63772 103.393735 
L 571.151967 102.179277 
L 574.180461 102.179277 
L 575.694708 100.964819 
L 583.265943 100.964819 
L 584.78019 98.535904 
L 586.294437 97.321446 
L 587.808684 97.321446 
L 589.322931 96.106988 
L 592.351425 96.106988 
L 593.865672 94.89253 
L 596.894166 94.89253 
L 598.408412 92.463614 
L 601.436906 92.463614 
L 602.951153 91.249157 
L 604.4654 91.249157 
L 605.979647 90.034699 
L 613.550882 90.034699 
L 615.065129 88.820241 
L 622.636364 88.820241 
L 622.636364 88.820241 
" clip-path="url(#p035faaadfe)" style="fill: none; stroke: #e377c2; stroke-width: 1.5; stroke-linecap: square"/>
   </g>
   <g id="line2d_32">
    <path d="M 115.363636 337.784096 
L 116.877883 337.784096 
L 119.906377 335.355181 
L 127.477612 335.355181 
L 128.991859 334.140723 
L 130.506106 334.140723 
L 133.5346 331.711807 
L 136.563094 331.711807 
L 138.077341 330.497349 
L 142.620081 330.497349 
L 144.134328 329.282892 
L 145.648575 329.282892 
L 147.162822 328.068434 
L 148.677069 328.068434 
L 151.705563 325.639518 
L 156.248304 325.639518 
L 157.762551 324.42506 
L 160.791045 324.42506 
L 163.819539 321.996145 
L 166.848033 321.996145 
L 169.876526 319.567229 
L 171.390773 319.567229 
L 172.90502 318.352771 
L 174.419267 314.709398 
L 180.476255 314.709398 
L 186.533243 309.851566 
L 188.04749 309.851566 
L 191.075984 307.422651 
L 192.590231 307.422651 
L 194.104478 306.208193 
L 195.618725 306.208193 
L 197.132972 304.993735 
L 210.761194 304.993735 
L 212.275441 303.779277 
L 227.41791 303.779277 
L 230.446404 301.350361 
L 234.989145 301.350361 
L 236.503392 300.135904 
L 239.531886 300.135904 
L 242.56038 297.706988 
L 245.588874 297.706988 
L 247.103121 295.278072 
L 251.645862 295.278072 
L 253.160109 292.849157 
L 254.674355 291.634699 
L 262.24559 291.634699 
L 263.759837 290.420241 
L 265.274084 290.420241 
L 268.302578 287.991325 
L 275.873813 287.991325 
L 277.38806 286.776867 
L 278.902307 286.776867 
L 280.416554 285.56241 
L 289.502035 285.56241 
L 291.016282 284.347952 
L 295.559023 284.347952 
L 297.07327 283.133494 
L 298.587517 283.133494 
L 300.101764 279.49012 
L 301.616011 279.49012 
L 303.130258 277.061205 
L 304.644505 275.846747 
L 306.158752 275.846747 
L 309.187246 273.417831 
L 312.215739 273.417831 
L 313.729986 272.203373 
L 316.75848 272.203373 
L 318.272727 270.988916 
L 319.786974 270.988916 
L 321.301221 268.56 
L 322.815468 268.56 
L 324.329715 267.345542 
L 327.358209 267.345542 
L 330.386703 264.916627 
L 331.90095 264.916627 
L 333.415197 262.487711 
L 334.929444 261.273253 
L 345.529172 261.273253 
L 347.043419 258.844337 
L 351.58616 258.844337 
L 353.100407 257.62988 
L 354.614654 257.62988 
L 356.128901 256.415422 
L 360.671642 256.415422 
L 362.185889 255.200964 
L 369.757123 255.200964 
L 371.27137 253.986506 
L 374.299864 253.986506 
L 375.814111 252.772048 
L 383.385346 252.772048 
L 384.899593 251.55759 
L 398.527815 251.55759 
L 401.556309 249.128675 
L 403.070556 249.128675 
L 404.584803 247.914217 
L 406.09905 247.914217 
L 407.613297 246.699759 
L 409.127544 246.699759 
L 410.641791 245.485301 
L 413.670285 245.485301 
L 415.184532 244.270843 
L 416.698779 244.270843 
L 419.727273 241.841928 
L 424.270014 241.841928 
L 425.784261 240.62747 
L 430.327001 240.62747 
L 431.841248 239.413012 
L 442.440977 239.413012 
L 443.955224 238.198554 
L 445.469471 238.198554 
L 446.983718 236.984096 
L 453.040706 236.984096 
L 454.554953 234.555181 
L 463.640434 234.555181 
L 465.154681 233.340723 
L 466.668928 233.340723 
L 468.183175 230.911807 
L 475.75441 230.911807 
L 477.268657 229.697349 
L 486.354138 229.697349 
L 487.868385 228.482892 
L 507.553596 228.482892 
L 509.067843 227.268434 
L 531.781547 227.268434 
L 533.295794 226.053976 
L 540.867028 226.053976 
L 542.381275 224.839518 
L 543.895522 224.839518 
L 545.409769 223.62506 
L 546.924016 223.62506 
L 548.438263 221.196145 
L 549.95251 221.196145 
L 552.981004 218.767229 
L 563.580733 218.767229 
L 565.09498 217.552771 
L 566.609227 217.552771 
L 568.123474 216.338313 
L 569.63772 216.338313 
L 571.151967 215.123855 
L 578.723202 215.123855 
L 580.237449 213.909398 
L 593.865672 213.909398 
L 595.379919 212.69494 
L 602.951153 212.69494 
L 604.4654 211.480482 
L 612.036635 211.480482 
L 613.550882 210.266024 
L 616.579376 210.266024 
L 621.122117 206.622651 
L 622.636364 206.622651 
L 622.636364 206.622651 
" clip-path="url(#p035faaadfe)" style="fill: none; stroke: #7f7f7f; stroke-width: 1.5; stroke-linecap: square"/>
   </g>
   <g id="line2d_33">
    <path d="M 115.363636 345.070843 
L 121.420624 345.070843 
L 122.934871 343.856386 
L 138.077341 343.856386 
L 139.591588 342.641928 
L 147.162822 342.641928 
L 148.677069 341.42747 
L 163.819539 341.42747 
L 165.333786 340.213012 
L 180.476255 340.213012 
L 181.990502 338.998554 
L 263.759837 338.998554 
L 265.274084 337.784096 
L 272.845319 337.784096 
L 274.359566 336.569639 
L 284.959294 336.569639 
L 286.473541 335.355181 
L 287.987788 335.355181 
L 289.502035 331.711807 
L 291.016282 330.497349 
L 294.044776 330.497349 
L 295.559023 329.282892 
L 310.701493 329.282892 
L 312.215739 328.068434 
L 325.843962 328.068434 
L 327.358209 326.853976 
L 344.014925 326.853976 
L 345.529172 325.639518 
L 363.700136 325.639518 
L 365.214383 324.42506 
L 372.785617 324.42506 
L 374.299864 323.210602 
L 422.755767 323.210602 
L 424.270014 321.996145 
L 427.298507 321.996145 
L 428.812754 320.781687 
L 440.92673 320.781687 
L 442.440977 319.567229 
L 484.839891 319.567229 
L 489.382632 315.923855 
L 533.295794 315.923855 
L 534.810041 314.709398 
L 536.324288 314.709398 
L 539.352782 312.280482 
L 542.381275 312.280482 
L 543.895522 311.066024 
L 621.122117 311.066024 
L 622.636364 309.851566 
L 622.636364 309.851566 
" clip-path="url(#p035faaadfe)" style="fill: none; stroke: #bcbd22; stroke-width: 1.5; stroke-linecap: square"/>
   </g>
   <g id="line2d_34">
    <path d="M 115.363636 366.931084 
L 191.075984 366.931084 
L 192.590231 365.716627 
L 287.987788 365.716627 
L 289.502035 364.502169 
L 443.955224 364.502169 
L 445.469471 363.287711 
L 446.983718 364.502169 
L 622.636364 364.502169 
L 622.636364 364.502169 
" clip-path="url(#p035faaadfe)" style="fill: none; stroke: #17becf; stroke-width: 1.5; stroke-linecap: square"/>
   </g>
   <g id="line2d_35">
    <path d="M 115.363636 369.36 
L 116.877883 368.145542 
L 119.906377 368.145542 
L 121.420624 366.931084 
L 132.020353 366.931084 
L 133.5346 365.716627 
L 138.077341 365.716627 
L 139.591588 364.502169 
L 141.105834 364.502169 
L 144.134328 362.073253 
L 151.705563 362.073253 
L 154.734057 359.644337 
L 156.248304 359.644337 
L 157.762551 358.42988 
L 168.36228 358.42988 
L 169.876526 357.215422 
L 171.390773 354.786506 
L 174.419267 354.786506 
L 175.933514 353.572048 
L 177.447761 353.572048 
L 178.962008 352.35759 
L 180.476255 352.35759 
L 181.990502 351.143133 
L 183.504749 351.143133 
L 186.533243 348.714217 
L 195.618725 348.714217 
L 198.647218 346.285301 
L 203.189959 346.285301 
L 204.704206 345.070843 
L 206.218453 345.070843 
L 207.7327 342.641928 
L 212.275441 342.641928 
L 215.303935 337.784096 
L 224.389417 337.784096 
L 225.903664 335.355181 
L 227.41791 334.140723 
L 231.960651 334.140723 
L 233.474898 332.926265 
L 234.989145 330.497349 
L 238.017639 330.497349 
L 239.531886 329.282892 
L 260.731343 329.282892 
L 262.24559 326.853976 
L 272.845319 318.352771 
L 287.987788 318.352771 
L 292.530529 314.709398 
L 295.559023 314.709398 
L 297.07327 312.280482 
L 300.101764 312.280482 
L 301.616011 311.066024 
L 306.158752 311.066024 
L 307.672999 309.851566 
L 309.187246 309.851566 
L 310.701493 308.637108 
L 312.215739 308.637108 
L 315.244233 306.208193 
L 334.929444 306.208193 
L 337.957938 303.779277 
L 350.071913 303.779277 
L 351.58616 302.564819 
L 356.128901 302.564819 
L 359.157395 300.135904 
L 363.700136 300.135904 
L 365.214383 298.921446 
L 368.242877 298.921446 
L 369.757123 297.706988 
L 377.328358 297.706988 
L 378.842605 296.49253 
L 380.356852 296.49253 
L 381.871099 294.063614 
L 383.385346 294.063614 
L 384.899593 292.849157 
L 392.470828 292.849157 
L 393.985075 291.634699 
L 397.013569 291.634699 
L 398.527815 290.420241 
L 400.042062 290.420241 
L 403.070556 287.991325 
L 413.670285 287.991325 
L 415.184532 286.776867 
L 416.698779 286.776867 
L 418.213026 285.56241 
L 425.784261 285.56241 
L 427.298507 283.133494 
L 428.812754 281.919036 
L 436.383989 281.919036 
L 437.898236 280.704578 
L 443.955224 280.704578 
L 445.469471 278.275663 
L 451.526459 278.275663 
L 454.554953 275.846747 
L 459.097693 275.846747 
L 460.61194 274.632289 
L 478.782904 274.632289 
L 480.297151 272.203373 
L 481.811398 270.988916 
L 493.925373 270.988916 
L 495.43962 269.774458 
L 522.696065 269.774458 
L 524.210312 268.56 
L 527.238806 268.56 
L 528.753053 267.345542 
L 533.295794 267.345542 
L 534.810041 266.131084 
L 554.495251 266.131084 
L 556.009498 263.702169 
L 559.037992 263.702169 
L 560.552239 262.487711 
L 562.066486 262.487711 
L 563.580733 261.273253 
L 569.63772 261.273253 
L 571.151967 260.058795 
L 581.751696 260.058795 
L 583.265943 257.62988 
L 584.78019 257.62988 
L 586.294437 256.415422 
L 593.865672 256.415422 
L 595.379919 255.200964 
L 602.951153 255.200964 
L 605.979647 252.772048 
L 609.008141 252.772048 
L 610.522388 251.55759 
L 613.550882 251.55759 
L 615.065129 250.343133 
L 616.579376 250.343133 
L 618.093623 249.128675 
L 622.636364 249.128675 
L 622.636364 249.128675 
" clip-path="url(#p035faaadfe)" style="fill: none; stroke: #1f77b4; stroke-width: 1.5; stroke-linecap: square"/>
   </g>
   <g id="line2d_36">
    <path d="M 115.363636 324.42506 
L 125.963365 324.42506 
L 127.477612 323.210602 
L 132.020353 323.210602 
L 133.5346 321.996145 
L 139.591588 321.996145 
L 141.105834 320.781687 
L 145.648575 320.781687 
L 147.162822 319.567229 
L 148.677069 319.567229 
L 150.191316 318.352771 
L 154.734057 318.352771 
L 156.248304 317.138313 
L 159.276798 317.138313 
L 160.791045 315.923855 
L 162.305292 315.923855 
L 165.333786 313.49494 
L 174.419267 313.49494 
L 175.933514 312.280482 
L 177.447761 312.280482 
L 178.962008 311.066024 
L 180.476255 311.066024 
L 181.990502 308.637108 
L 183.504749 304.993735 
L 185.018996 303.779277 
L 191.075984 303.779277 
L 195.618725 300.135904 
L 200.161465 300.135904 
L 203.189959 297.706988 
L 219.846676 297.706988 
L 221.360923 294.063614 
L 222.87517 294.063614 
L 225.903664 289.205783 
L 228.932157 286.776867 
L 230.446404 286.776867 
L 231.960651 284.347952 
L 244.074627 284.347952 
L 245.588874 281.919036 
L 250.131615 281.919036 
L 251.645862 280.704578 
L 262.24559 280.704578 
L 263.759837 279.49012 
L 281.930801 279.49012 
L 283.445047 278.275663 
L 284.959294 278.275663 
L 286.473541 277.061205 
L 291.016282 277.061205 
L 292.530529 275.846747 
L 310.701493 275.846747 
L 312.215739 274.632289 
L 315.244233 274.632289 
L 318.272727 269.774458 
L 321.301221 269.774458 
L 324.329715 267.345542 
L 327.358209 267.345542 
L 328.872456 266.131084 
L 333.415197 266.131084 
L 334.929444 264.916627 
L 353.100407 264.916627 
L 354.614654 263.702169 
L 377.328358 263.702169 
L 378.842605 262.487711 
L 392.470828 262.487711 
L 393.985075 261.273253 
L 397.013569 261.273253 
L 398.527815 260.058795 
L 403.070556 260.058795 
L 406.09905 257.62988 
L 407.613297 257.62988 
L 409.127544 256.415422 
L 415.184532 256.415422 
L 418.213026 253.986506 
L 425.784261 253.986506 
L 427.298507 252.772048 
L 431.841248 252.772048 
L 433.355495 251.55759 
L 440.92673 251.55759 
L 442.440977 250.343133 
L 450.012212 250.343133 
L 451.526459 249.128675 
L 478.782904 249.128675 
L 480.297151 247.914217 
L 481.811398 247.914217 
L 483.325645 246.699759 
L 498.468114 246.699759 
L 499.982361 244.270843 
L 501.496608 244.270843 
L 503.010855 243.056386 
L 518.153324 243.056386 
L 519.667571 241.841928 
L 525.724559 241.841928 
L 527.238806 240.62747 
L 528.753053 240.62747 
L 530.2673 239.413012 
L 543.895522 239.413012 
L 545.409769 238.198554 
L 575.694708 238.198554 
L 577.208955 234.555181 
L 587.808684 234.555181 
L 589.322931 233.340723 
L 592.351425 233.340723 
L 593.865672 232.126265 
L 612.036635 232.126265 
L 613.550882 230.911807 
L 622.636364 230.911807 
L 622.636364 230.911807 
" clip-path="url(#p035faaadfe)" style="fill: none; stroke: #ff7f0e; stroke-width: 1.5; stroke-linecap: square"/>
   </g>
   <g id="patch_3">
    <path d="M 90 384.48 
L 90 51.84 
" style="fill: none; stroke: #000000; stroke-width: 0.8; stroke-linejoin: miter; stroke-linecap: square"/>
   </g>
   <g id="patch_4">
    <path d="M 648 384.48 
L 648 51.84 
" style="fill: none; stroke: #000000; stroke-width: 0.8; stroke-linejoin: miter; stroke-linecap: square"/>
   </g>
   <g id="patch_5">
    <path d="M 90 384.48 
L 648 384.48 
" style="fill: none; stroke: #000000; stroke-width: 0.8; stroke-linejoin: miter; stroke-linecap: square"/>
   </g>
   <g id="patch_6">
    <path d="M 90 51.84 
L 648 51.84 
" style="fill: none; stroke: #000000; stroke-width: 0.8; stroke-linejoin: miter; stroke-linecap: square"/>
   </g>
   <g id="text_15">
    <!-- Time Series of Votes for Each Keyword -->
    <g transform="translate(253.716563 45.84) scale(0.12 -0.12)">
     <defs>
      <path id="DejaVuSans-53" d="M 3425 4513 
L 3425 3897 
Q 3066 4069 2747 4153 
Q 2428 4238 2131 4238 
Q 1616 4238 1336 4038 
Q 1056 3838 1056 3469 
Q 1056 3159 1242 3001 
Q 1428 2844 1947 2747 
L 2328 2669 
Q 3034 2534 3370 2195 
Q 3706 1856 3706 1288 
Q 3706 609 3251 259 
Q 2797 -91 1919 -91 
Q 1588 -91 1214 -16 
Q 841 59 441 206 
L 441 856 
Q 825 641 1194 531 
Q 1563 422 1919 422 
Q 2459 422 2753 634 
Q 3047 847 3047 1241 
Q 3047 1584 2836 1778 
Q 2625 1972 2144 2069 
L 1759 2144 
Q 1053 2284 737 2584 
Q 422 2884 422 3419 
Q 422 4038 858 4394 
Q 1294 4750 2059 4750 
Q 2388 4750 2728 4690 
Q 3069 4631 3425 4513 
z
" transform="scale(0.015625)"/>
      <path id="DejaVuSans-72" d="M 2631 2963 
Q 2534 3019 2420 3045 
Q 2306 3072 2169 3072 
Q 1681 3072 1420 2755 
Q 1159 2438 1159 1844 
L 1159 0 
L 581 0 
L 581 3500 
L 1159 3500 
L 1159 2956 
Q 1341 3275 1631 3429 
Q 1922 3584 2338 3584 
Q 2397 3584 2469 3576 
Q 2541 3569 2628 3553 
L 2631 2963 
z
" transform="scale(0.015625)"/>
      <path id="DejaVuSans-66" d="M 2375 4863 
L 2375 4384 
L 1825 4384 
Q 1516 4384 1395 4259 
Q 1275 4134 1275 3809 
L 1275 3500 
L 2222 3500 
L 2222 3053 
L 1275 3053 
L 1275 0 
L 697 0 
L 697 3053 
L 147 3053 
L 147 3500 
L 697 3500 
L 697 3744 
Q 697 4328 969 4595 
Q 1241 4863 1831 4863 
L 2375 4863 
z
" transform="scale(0.015625)"/>
      <path id="DejaVuSans-45" d="M 628 4666 
L 3578 4666 
L 3578 4134 
L 1259 4134 
L 1259 2753 
L 3481 2753 
L 3481 2222 
L 1259 2222 
L 1259 531 
L 3634 531 
L 3634 0 
L 628 0 
L 628 4666 
z
" transform="scale(0.015625)"/>
      <path id="DejaVuSans-63" d="M 3122 3366 
L 3122 2828 
Q 2878 2963 2633 3030 
Q 2388 3097 2138 3097 
Q 1578 3097 1268 2742 
Q 959 2388 959 1747 
Q 959 1106 1268 751 
Q 1578 397 2138 397 
Q 2388 397 2633 464 
Q 2878 531 3122 666 
L 3122 134 
Q 2881 22 2623 -34 
Q 2366 -91 2075 -91 
Q 1284 -91 818 406 
Q 353 903 353 1747 
Q 353 2603 823 3093 
Q 1294 3584 2113 3584 
Q 2378 3584 2631 3529 
Q 2884 3475 3122 3366 
z
" transform="scale(0.015625)"/>
      <path id="DejaVuSans-68" d="M 3513 2113 
L 3513 0 
L 2938 0 
L 2938 2094 
Q 2938 2591 2744 2837 
Q 2550 3084 2163 3084 
Q 1697 3084 1428 2787 
Q 1159 2491 1159 1978 
L 1159 0 
L 581 0 
L 581 4863 
L 1159 4863 
L 1159 2956 
Q 1366 3272 1645 3428 
Q 1925 3584 2291 3584 
Q 2894 3584 3203 3211 
Q 3513 2838 3513 2113 
z
" transform="scale(0.015625)"/>
      <path id="DejaVuSans-4b" d="M 628 4666 
L 1259 4666 
L 1259 2694 
L 3353 4666 
L 4166 4666 
L 1850 2491 
L 4331 0 
L 3500 0 
L 1259 2247 
L 1259 0 
L 628 0 
L 628 4666 
z
" transform="scale(0.015625)"/>
      <path id="DejaVuSans-79" d="M 2059 -325 
Q 1816 -950 1584 -1140 
Q 1353 -1331 966 -1331 
L 506 -1331 
L 506 -850 
L 844 -850 
Q 1081 -850 1212 -737 
Q 1344 -625 1503 -206 
L 1606 56 
L 191 3500 
L 800 3500 
L 1894 763 
L 2988 3500 
L 3597 3500 
L 2059 -325 
z
" transform="scale(0.015625)"/>
      <path id="DejaVuSans-77" d="M 269 3500 
L 844 3500 
L 1563 769 
L 2278 3500 
L 2956 3500 
L 3675 769 
L 4391 3500 
L 4966 3500 
L 4050 0 
L 3372 0 
L 2619 2869 
L 1863 0 
L 1184 0 
L 269 3500 
z
" transform="scale(0.015625)"/>
     </defs>
     <use xlink:href="#DejaVuSans-54"/>
     <use xlink:href="#DejaVuSans-69" transform="translate(57.958984 0)"/>
     <use xlink:href="#DejaVuSans-6d" transform="translate(85.742188 0)"/>
     <use xlink:href="#DejaVuSans-65" transform="translate(183.154297 0)"/>
     <use xlink:href="#DejaVuSans-20" transform="translate(244.677734 0)"/>
     <use xlink:href="#DejaVuSans-53" transform="translate(276.464844 0)"/>
     <use xlink:href="#DejaVuSans-65" transform="translate(339.941406 0)"/>
     <use xlink:href="#DejaVuSans-72" transform="translate(401.464844 0)"/>
     <use xlink:href="#DejaVuSans-69" transform="translate(442.578125 0)"/>
     <use xlink:href="#DejaVuSans-65" transform="translate(470.361328 0)"/>
     <use xlink:href="#DejaVuSans-73" transform="translate(531.884766 0)"/>
     <use xlink:href="#DejaVuSans-20" transform="translate(583.984375 0)"/>
     <use xlink:href="#DejaVuSans-6f" transform="translate(615.771484 0)"/>
     <use xlink:href="#DejaVuSans-66" transform="translate(676.953125 0)"/>
     <use xlink:href="#DejaVuSans-20" transform="translate(712.158203 0)"/>
     <use xlink:href="#DejaVuSans-56" transform="translate(743.945312 0)"/>
     <use xlink:href="#DejaVuSans-6f" transform="translate(804.603516 0)"/>
     <use xlink:href="#DejaVuSans-74" transform="translate(865.785156 0)"/>
     <use xlink:href="#DejaVuSans-65" transform="translate(904.994141 0)"/>
     <use xlink:href="#DejaVuSans-73" transform="translate(966.517578 0)"/>
     <use xlink:href="#DejaVuSans-20" transform="translate(1018.617188 0)"/>
     <use xlink:href="#DejaVuSans-66" transform="translate(1050.404297 0)"/>
     <use xlink:href="#DejaVuSans-6f" transform="translate(1085.609375 0)"/>
     <use xlink:href="#DejaVuSans-72" transform="translate(1146.791016 0)"/>
     <use xlink:href="#DejaVuSans-20" transform="translate(1187.904297 0)"/>
     <use xlink:href="#DejaVuSans-45" transform="translate(1219.691406 0)"/>
     <use xlink:href="#DejaVuSans-61" transform="translate(1282.875 0)"/>
     <use xlink:href="#DejaVuSans-63" transform="translate(1344.154297 0)"/>
     <use xlink:href="#DejaVuSans-68" transform="translate(1399.134766 0)"/>
     <use xlink:href="#DejaVuSans-20" transform="translate(1462.513672 0)"/>
     <use xlink:href="#DejaVuSans-4b" transform="translate(1494.300781 0)"/>
     <use xlink:href="#DejaVuSans-65" transform="translate(1554.876953 0)"/>
     <use xlink:href="#DejaVuSans-79" transform="translate(1616.400391 0)"/>
     <use xlink:href="#DejaVuSans-77" transform="translate(1675.580078 0)"/>
     <use xlink:href="#DejaVuSans-6f" transform="translate(1757.367188 0)"/>
     <use xlink:href="#DejaVuSans-72" transform="translate(1818.548828 0)"/>
     <use xlink:href="#DejaVuSans-64" transform="translate(1857.912109 0)"/>
    </g>
   </g>
   <g id="legend_1">
    <g id="patch_7">
     <path d="M 97 235.9775 
L 149.245313 235.9775 
Q 151.245313 235.9775 151.245313 233.9775 
L 151.245313 58.84 
Q 151.245313 56.84 149.245313 56.84 
L 97 56.84 
Q 95 56.84 95 58.84 
L 95 233.9775 
Q 95 235.9775 97 235.9775 
z
" style="fill: #ffffff; opacity: 0.8; stroke: #cccccc; stroke-linejoin: miter"/>
    </g>
    <g id="line2d_37">
     <path d="M 99 64.938437 
L 109 64.938437 
L 119 64.938437 
" style="fill: none; stroke: #1f77b4; stroke-width: 1.5; stroke-linecap: square"/>
    </g>
    <g id="text_16">
     <!-- H01 -->
     <g transform="translate(127 68.438437) scale(0.1 -0.1)">
      <defs>
       <path id="DejaVuSans-48" d="M 628 4666 
L 1259 4666 
L 1259 2753 
L 3553 2753 
L 3553 4666 
L 4184 4666 
L 4184 0 
L 3553 0 
L 3553 2222 
L 1259 2222 
L 1259 0 
L 628 0 
L 628 4666 
z
" transform="scale(0.015625)"/>
      </defs>
      <use xlink:href="#DejaVuSans-48"/>
      <use xlink:href="#DejaVuSans-30" transform="translate(75.195312 0)"/>
      <use xlink:href="#DejaVuSans-31" transform="translate(138.818359 0)"/>
     </g>
    </g>
    <g id="line2d_38">
     <path d="M 99 79.616562 
L 109 79.616562 
L 119 79.616562 
" style="fill: none; stroke: #ff7f0e; stroke-width: 1.5; stroke-linecap: square"/>
    </g>
    <g id="text_17">
     <!-- H02 -->
     <g transform="translate(127 83.116562) scale(0.1 -0.1)">
      <use xlink:href="#DejaVuSans-48"/>
      <use xlink:href="#DejaVuSans-30" transform="translate(75.195312 0)"/>
      <use xlink:href="#DejaVuSans-32" transform="translate(138.818359 0)"/>
     </g>
    </g>
    <g id="line2d_39">
     <path d="M 99 94.294688 
L 109 94.294688 
L 119 94.294688 
" style="fill: none; stroke: #2ca02c; stroke-width: 1.5; stroke-linecap: square"/>
    </g>
    <g id="text_18">
     <!-- H03 -->
     <g transform="translate(127 97.794688) scale(0.1 -0.1)">
      <defs>
       <path id="DejaVuSans-33" d="M 2597 2516 
Q 3050 2419 3304 2112 
Q 3559 1806 3559 1356 
Q 3559 666 3084 287 
Q 2609 -91 1734 -91 
Q 1441 -91 1130 -33 
Q 819 25 488 141 
L 488 750 
Q 750 597 1062 519 
Q 1375 441 1716 441 
Q 2309 441 2620 675 
Q 2931 909 2931 1356 
Q 2931 1769 2642 2001 
Q 2353 2234 1838 2234 
L 1294 2234 
L 1294 2753 
L 1863 2753 
Q 2328 2753 2575 2939 
Q 2822 3125 2822 3475 
Q 2822 3834 2567 4026 
Q 2313 4219 1838 4219 
Q 1578 4219 1281 4162 
Q 984 4106 628 3988 
L 628 4550 
Q 988 4650 1302 4700 
Q 1616 4750 1894 4750 
Q 2613 4750 3031 4423 
Q 3450 4097 3450 3541 
Q 3450 3153 3228 2886 
Q 3006 2619 2597 2516 
z
" transform="scale(0.015625)"/>
      </defs>
      <use xlink:href="#DejaVuSans-48"/>
      <use xlink:href="#DejaVuSans-30" transform="translate(75.195312 0)"/>
      <use xlink:href="#DejaVuSans-33" transform="translate(138.818359 0)"/>
     </g>
    </g>
    <g id="line2d_40">
     <path d="M 99 108.972812 
L 109 108.972812 
L 119 108.972812 
" style="fill: none; stroke: #d62728; stroke-width: 1.5; stroke-linecap: square"/>
    </g>
    <g id="text_19">
     <!-- H04 -->
     <g transform="translate(127 112.472812) scale(0.1 -0.1)">
      <use xlink:href="#DejaVuSans-48"/>
      <use xlink:href="#DejaVuSans-30" transform="translate(75.195312 0)"/>
      <use xlink:href="#DejaVuSans-34" transform="translate(138.818359 0)"/>
     </g>
    </g>
    <g id="line2d_41">
     <path d="M 99 123.650937 
L 109 123.650937 
L 119 123.650937 
" style="fill: none; stroke: #9467bd; stroke-width: 1.5; stroke-linecap: square"/>
    </g>
    <g id="text_20">
     <!-- H05 -->
     <g transform="translate(127 127.150937) scale(0.1 -0.1)">
      <use xlink:href="#DejaVuSans-48"/>
      <use xlink:href="#DejaVuSans-30" transform="translate(75.195312 0)"/>
      <use xlink:href="#DejaVuSans-35" transform="translate(138.818359 0)"/>
     </g>
    </g>
    <g id="line2d_42">
     <path d="M 99 138.329062 
L 109 138.329062 
L 119 138.329062 
" style="fill: none; stroke: #8c564b; stroke-width: 1.5; stroke-linecap: square"/>
    </g>
    <g id="text_21">
     <!-- H06 -->
     <g transform="translate(127 141.829062) scale(0.1 -0.1)">
      <use xlink:href="#DejaVuSans-48"/>
      <use xlink:href="#DejaVuSans-30" transform="translate(75.195312 0)"/>
      <use xlink:href="#DejaVuSans-36" transform="translate(138.818359 0)"/>
     </g>
    </g>
    <g id="line2d_43">
     <path d="M 99 153.007187 
L 109 153.007187 
L 119 153.007187 
" style="fill: none; stroke: #e377c2; stroke-width: 1.5; stroke-linecap: square"/>
    </g>
    <g id="text_22">
     <!-- H07 -->
     <g transform="translate(127 156.507187) scale(0.1 -0.1)">
      <use xlink:href="#DejaVuSans-48"/>
      <use xlink:href="#DejaVuSans-30" transform="translate(75.195312 0)"/>
      <use xlink:href="#DejaVuSans-37" transform="translate(138.818359 0)"/>
     </g>
    </g>
    <g id="line2d_44">
     <path d="M 99 167.685312 
L 109 167.685312 
L 119 167.685312 
" style="fill: none; stroke: #7f7f7f; stroke-width: 1.5; stroke-linecap: square"/>
    </g>
    <g id="text_23">
     <!-- H08 -->
     <g transform="translate(127 171.185312) scale(0.1 -0.1)">
      <use xlink:href="#DejaVuSans-48"/>
      <use xlink:href="#DejaVuSans-30" transform="translate(75.195312 0)"/>
      <use xlink:href="#DejaVuSans-38" transform="translate(138.818359 0)"/>
     </g>
    </g>
    <g id="line2d_45">
     <path d="M 99 182.363437 
L 109 182.363437 
L 119 182.363437 
" style="fill: none; stroke: #bcbd22; stroke-width: 1.5; stroke-linecap: square"/>
    </g>
    <g id="text_24">
     <!-- H09 -->
     <g transform="translate(127 185.863437) scale(0.1 -0.1)">
      <use xlink:href="#DejaVuSans-48"/>
      <use xlink:href="#DejaVuSans-30" transform="translate(75.195312 0)"/>
      <use xlink:href="#DejaVuSans-39" transform="translate(138.818359 0)"/>
     </g>
    </g>
    <g id="line2d_46">
     <path d="M 99 197.041562 
L 109 197.041562 
L 119 197.041562 
" style="fill: none; stroke: #17becf; stroke-width: 1.5; stroke-linecap: square"/>
    </g>
    <g id="text_25">
     <!-- H10 -->
     <g transform="translate(127 200.541562) scale(0.1 -0.1)">
      <use xlink:href="#DejaVuSans-48"/>
      <use xlink:href="#DejaVuSans-31" transform="translate(75.195312 0)"/>
      <use xlink:href="#DejaVuSans-30" transform="translate(138.818359 0)"/>
     </g>
    </g>
    <g id="line2d_47">
     <path d="M 99 211.719687 
L 109 211.719687 
L 119 211.719687 
" style="fill: none; stroke: #1f77b4; stroke-width: 1.5; stroke-linecap: square"/>
    </g>
    <g id="text_26">
     <!-- H11 -->
     <g transform="translate(127 215.219687) scale(0.1 -0.1)">
      <use xlink:href="#DejaVuSans-48"/>
      <use xlink:href="#DejaVuSans-31" transform="translate(75.195312 0)"/>
      <use xlink:href="#DejaVuSans-31" transform="translate(138.818359 0)"/>
     </g>
    </g>
    <g id="line2d_48">
     <path d="M 99 226.397812 
L 109 226.397812 
L 119 226.397812 
" style="fill: none; stroke: #ff7f0e; stroke-width: 1.5; stroke-linecap: square"/>
    </g>
    <g id="text_27">
     <!-- H12 -->
     <g transform="translate(127 229.897812) scale(0.1 -0.1)">
      <use xlink:href="#DejaVuSans-48"/>
      <use xlink:href="#DejaVuSans-31" transform="translate(75.195312 0)"/>
      <use xlink:href="#DejaVuSans-32" transform="translate(138.818359 0)"/>
     </g>
    </g>
   </g>
  </g>
 </g>
 <defs>
  <clipPath id="p035faaadfe">
   <rect x="90" y="51.84" width="558" height="332.64"/>
  </clipPath>
 </defs>
</svg>
