<?xml version="1.0" encoding="utf-8" standalone="no"?>
<!DOCTYPE svg PUBLIC "-//W3C//DTD SVG 1.1//EN"
  "http://www.w3.org/Graphics/SVG/1.1/DTD/svg11.dtd">
<svg xmlns:xlink="http://www.w3.org/1999/xlink" width="720pt" height="432pt" viewBox="0 0 720 432" xmlns="http://www.w3.org/2000/svg" version="1.1">
 <metadata>
  <rdf:RDF xmlns:dc="http://purl.org/dc/elements/1.1/" xmlns:cc="http://creativecommons.org/ns#" xmlns:rdf="http://www.w3.org/1999/02/22-rdf-syntax-ns#">
   <cc:Work>
    <dc:type rdf:resource="http://purl.org/dc/dcmitype/StillImage"/>
    <dc:date>2025-01-14T18:15:17.946261</dc:date>
    <dc:format>image/svg+xml</dc:format>
    <dc:creator>
     <cc:Agent>
      <dc:title>Matplotlib v3.10.0, https://matplotlib.org/</dc:title>
     </cc:Agent>
    </dc:creator>
   </cc:Work>
  </rdf:RDF>
 </metadata>
 <defs>
  <style type="text/css">*{stroke-linejoin: round; stroke-linecap: butt}</style>
 </defs>
 <g id="figure_1">
  <g id="patch_1">
   <path d="M 0 432 
L 720 432 
L 720 0 
L 0 0 
z
" style="fill: #ffffff"/>
  </g>
  <g id="axes_1">
   <g id="patch_2">
    <path d="M 90 384.48 
L 648 384.48 
L 648 51.84 
L 90 51.84 
z
" style="fill: #ffffff"/>
   </g>
   <g id="matplotlib.axis_1">
    <g id="xtick_1">
     <g id="line2d_1">
      <path d="M 163.932302 384.48 
L 163.932302 51.84 
" clip-path="url(#p0f3063e079)" style="fill: none; stroke: #b0b0b0; stroke-width: 0.8; stroke-linecap: square"/>
     </g>
     <g id="line2d_2">
      <defs>
       <path id="m9ae2e906ea" d="M 0 0 
L 0 3.5 
" style="stroke: #000000; stroke-width: 0.8"/>
      </defs>
      <g>
       <use xlink:href="#m9ae2e906ea" x="163.932302" y="384.48" style="stroke: #000000; stroke-width: 0.8"/>
      </g>
     </g>
     <g id="text_1">
      <!-- 01-14 14 -->
      <g transform="translate(141.451833 399.078438) scale(0.1 -0.1)">
       <defs>
        <path id="DejaVuSans-30" d="M 2034 4250 
Q 1547 4250 1301 3770 
Q 1056 3291 1056 2328 
Q 1056 1369 1301 889 
Q 1547 409 2034 409 
Q 2525 409 2770 889 
Q 3016 1369 3016 2328 
Q 3016 3291 2770 3770 
Q 2525 4250 2034 4250 
z
M 2034 4750 
Q 2819 4750 3233 4129 
Q 3647 3509 3647 2328 
Q 3647 1150 3233 529 
Q 2819 -91 2034 -91 
Q 1250 -91 836 529 
Q 422 1150 422 2328 
Q 422 3509 836 4129 
Q 1250 4750 2034 4750 
z
" transform="scale(0.015625)"/>
        <path id="DejaVuSans-31" d="M 794 531 
L 1825 531 
L 1825 4091 
L 703 3866 
L 703 4441 
L 1819 4666 
L 2450 4666 
L 2450 531 
L 3481 531 
L 3481 0 
L 794 0 
L 794 531 
z
" transform="scale(0.015625)"/>
        <path id="DejaVuSans-2d" d="M 313 2009 
L 1997 2009 
L 1997 1497 
L 313 1497 
L 313 2009 
z
" transform="scale(0.015625)"/>
        <path id="DejaVuSans-34" d="M 2419 4116 
L 825 1625 
L 2419 1625 
L 2419 4116 
z
M 2253 4666 
L 3047 4666 
L 3047 1625 
L 3713 1625 
L 3713 1100 
L 3047 1100 
L 3047 0 
L 2419 0 
L 2419 1100 
L 313 1100 
L 313 1709 
L 2253 4666 
z
" transform="scale(0.015625)"/>
        <path id="DejaVuSans-20" transform="scale(0.015625)"/>
       </defs>
       <use xlink:href="#DejaVuSans-30"/>
       <use xlink:href="#DejaVuSans-31" transform="translate(63.623047 0)"/>
       <use xlink:href="#DejaVuSans-2d" transform="translate(127.246094 0)"/>
       <use xlink:href="#DejaVuSans-31" transform="translate(163.330078 0)"/>
       <use xlink:href="#DejaVuSans-34" transform="translate(226.953125 0)"/>
       <use xlink:href="#DejaVuSans-20" transform="translate(290.576172 0)"/>
       <use xlink:href="#DejaVuSans-31" transform="translate(322.363281 0)"/>
       <use xlink:href="#DejaVuSans-34" transform="translate(385.986328 0)"/>
      </g>
     </g>
    </g>
    <g id="xtick_2">
     <g id="line2d_3">
      <path d="M 271.862669 384.48 
L 271.862669 51.84 
" clip-path="url(#p0f3063e079)" style="fill: none; stroke: #b0b0b0; stroke-width: 0.8; stroke-linecap: square"/>
     </g>
     <g id="line2d_4">
      <g>
       <use xlink:href="#m9ae2e906ea" x="271.862669" y="384.48" style="stroke: #000000; stroke-width: 0.8"/>
      </g>
     </g>
     <g id="text_2">
      <!-- 01-14 15 -->
      <g transform="translate(249.3822 399.078438) scale(0.1 -0.1)">
       <defs>
        <path id="DejaVuSans-35" d="M 691 4666 
L 3169 4666 
L 3169 4134 
L 1269 4134 
L 1269 2991 
Q 1406 3038 1543 3061 
Q 1681 3084 1819 3084 
Q 2600 3084 3056 2656 
Q 3513 2228 3513 1497 
Q 3513 744 3044 326 
Q 2575 -91 1722 -91 
Q 1428 -91 1123 -41 
Q 819 9 494 109 
L 494 744 
Q 775 591 1075 516 
Q 1375 441 1709 441 
Q 2250 441 2565 725 
Q 2881 1009 2881 1497 
Q 2881 1984 2565 2268 
Q 2250 2553 1709 2553 
Q 1456 2553 1204 2497 
Q 953 2441 691 2322 
L 691 4666 
z
" transform="scale(0.015625)"/>
       </defs>
       <use xlink:href="#DejaVuSans-30"/>
       <use xlink:href="#DejaVuSans-31" transform="translate(63.623047 0)"/>
       <use xlink:href="#DejaVuSans-2d" transform="translate(127.246094 0)"/>
       <use xlink:href="#DejaVuSans-31" transform="translate(163.330078 0)"/>
       <use xlink:href="#DejaVuSans-34" transform="translate(226.953125 0)"/>
       <use xlink:href="#DejaVuSans-20" transform="translate(290.576172 0)"/>
       <use xlink:href="#DejaVuSans-31" transform="translate(322.363281 0)"/>
       <use xlink:href="#DejaVuSans-35" transform="translate(385.986328 0)"/>
      </g>
     </g>
    </g>
    <g id="xtick_3">
     <g id="line2d_5">
      <path d="M 379.793037 384.48 
L 379.793037 51.84 
" clip-path="url(#p0f3063e079)" style="fill: none; stroke: #b0b0b0; stroke-width: 0.8; stroke-linecap: square"/>
     </g>
     <g id="line2d_6">
      <g>
       <use xlink:href="#m9ae2e906ea" x="379.793037" y="384.48" style="stroke: #000000; stroke-width: 0.8"/>
      </g>
     </g>
     <g id="text_3">
      <!-- 01-14 16 -->
      <g transform="translate(357.312568 399.078438) scale(0.1 -0.1)">
       <defs>
        <path id="DejaVuSans-36" d="M 2113 2584 
Q 1688 2584 1439 2293 
Q 1191 2003 1191 1497 
Q 1191 994 1439 701 
Q 1688 409 2113 409 
Q 2538 409 2786 701 
Q 3034 994 3034 1497 
Q 3034 2003 2786 2293 
Q 2538 2584 2113 2584 
z
M 3366 4563 
L 3366 3988 
Q 3128 4100 2886 4159 
Q 2644 4219 2406 4219 
Q 1781 4219 1451 3797 
Q 1122 3375 1075 2522 
Q 1259 2794 1537 2939 
Q 1816 3084 2150 3084 
Q 2853 3084 3261 2657 
Q 3669 2231 3669 1497 
Q 3669 778 3244 343 
Q 2819 -91 2113 -91 
Q 1303 -91 875 529 
Q 447 1150 447 2328 
Q 447 3434 972 4092 
Q 1497 4750 2381 4750 
Q 2619 4750 2861 4703 
Q 3103 4656 3366 4563 
z
" transform="scale(0.015625)"/>
       </defs>
       <use xlink:href="#DejaVuSans-30"/>
       <use xlink:href="#DejaVuSans-31" transform="translate(63.623047 0)"/>
       <use xlink:href="#DejaVuSans-2d" transform="translate(127.246094 0)"/>
       <use xlink:href="#DejaVuSans-31" transform="translate(163.330078 0)"/>
       <use xlink:href="#DejaVuSans-34" transform="translate(226.953125 0)"/>
       <use xlink:href="#DejaVuSans-20" transform="translate(290.576172 0)"/>
       <use xlink:href="#DejaVuSans-31" transform="translate(322.363281 0)"/>
       <use xlink:href="#DejaVuSans-36" transform="translate(385.986328 0)"/>
      </g>
     </g>
    </g>
    <g id="xtick_4">
     <g id="line2d_7">
      <path d="M 487.723404 384.48 
L 487.723404 51.84 
" clip-path="url(#p0f3063e079)" style="fill: none; stroke: #b0b0b0; stroke-width: 0.8; stroke-linecap: square"/>
     </g>
     <g id="line2d_8">
      <g>
       <use xlink:href="#m9ae2e906ea" x="487.723404" y="384.48" style="stroke: #000000; stroke-width: 0.8"/>
      </g>
     </g>
     <g id="text_4">
      <!-- 01-14 17 -->
      <g transform="translate(465.242936 399.078438) scale(0.1 -0.1)">
       <defs>
        <path id="DejaVuSans-37" d="M 525 4666 
L 3525 4666 
L 3525 4397 
L 1831 0 
L 1172 0 
L 2766 4134 
L 525 4134 
L 525 4666 
z
" transform="scale(0.015625)"/>
       </defs>
       <use xlink:href="#DejaVuSans-30"/>
       <use xlink:href="#DejaVuSans-31" transform="translate(63.623047 0)"/>
       <use xlink:href="#DejaVuSans-2d" transform="translate(127.246094 0)"/>
       <use xlink:href="#DejaVuSans-31" transform="translate(163.330078 0)"/>
       <use xlink:href="#DejaVuSans-34" transform="translate(226.953125 0)"/>
       <use xlink:href="#DejaVuSans-20" transform="translate(290.576172 0)"/>
       <use xlink:href="#DejaVuSans-31" transform="translate(322.363281 0)"/>
       <use xlink:href="#DejaVuSans-37" transform="translate(385.986328 0)"/>
      </g>
     </g>
    </g>
    <g id="xtick_5">
     <g id="line2d_9">
      <path d="M 595.653772 384.48 
L 595.653772 51.84 
" clip-path="url(#p0f3063e079)" style="fill: none; stroke: #b0b0b0; stroke-width: 0.8; stroke-linecap: square"/>
     </g>
     <g id="line2d_10">
      <g>
       <use xlink:href="#m9ae2e906ea" x="595.653772" y="384.48" style="stroke: #000000; stroke-width: 0.8"/>
      </g>
     </g>
     <g id="text_5">
      <!-- 01-14 18 -->
      <g transform="translate(573.173303 399.078438) scale(0.1 -0.1)">
       <defs>
        <path id="DejaVuSans-38" d="M 2034 2216 
Q 1584 2216 1326 1975 
Q 1069 1734 1069 1313 
Q 1069 891 1326 650 
Q 1584 409 2034 409 
Q 2484 409 2743 651 
Q 3003 894 3003 1313 
Q 3003 1734 2745 1975 
Q 2488 2216 2034 2216 
z
M 1403 2484 
Q 997 2584 770 2862 
Q 544 3141 544 3541 
Q 544 4100 942 4425 
Q 1341 4750 2034 4750 
Q 2731 4750 3128 4425 
Q 3525 4100 3525 3541 
Q 3525 3141 3298 2862 
Q 3072 2584 2669 2484 
Q 3125 2378 3379 2068 
Q 3634 1759 3634 1313 
Q 3634 634 3220 271 
Q 2806 -91 2034 -91 
Q 1263 -91 848 271 
Q 434 634 434 1313 
Q 434 1759 690 2068 
Q 947 2378 1403 2484 
z
M 1172 3481 
Q 1172 3119 1398 2916 
Q 1625 2713 2034 2713 
Q 2441 2713 2670 2916 
Q 2900 3119 2900 3481 
Q 2900 3844 2670 4047 
Q 2441 4250 2034 4250 
Q 1625 4250 1398 4047 
Q 1172 3844 1172 3481 
z
" transform="scale(0.015625)"/>
       </defs>
       <use xlink:href="#DejaVuSans-30"/>
       <use xlink:href="#DejaVuSans-31" transform="translate(63.623047 0)"/>
       <use xlink:href="#DejaVuSans-2d" transform="translate(127.246094 0)"/>
       <use xlink:href="#DejaVuSans-31" transform="translate(163.330078 0)"/>
       <use xlink:href="#DejaVuSans-34" transform="translate(226.953125 0)"/>
       <use xlink:href="#DejaVuSans-20" transform="translate(290.576172 0)"/>
       <use xlink:href="#DejaVuSans-31" transform="translate(322.363281 0)"/>
       <use xlink:href="#DejaVuSans-38" transform="translate(385.986328 0)"/>
      </g>
     </g>
    </g>
    <g id="text_6">
     <!-- Date and Time -->
     <g transform="translate(332.230469 412.756563) scale(0.1 -0.1)">
      <defs>
       <path id="DejaVuSans-44" d="M 1259 4147 
L 1259 519 
L 2022 519 
Q 2988 519 3436 956 
Q 3884 1394 3884 2338 
Q 3884 3275 3436 3711 
Q 2988 4147 2022 4147 
L 1259 4147 
z
M 628 4666 
L 1925 4666 
Q 3281 4666 3915 4102 
Q 4550 3538 4550 2338 
Q 4550 1131 3912 565 
Q 3275 0 1925 0 
L 628 0 
L 628 4666 
z
" transform="scale(0.015625)"/>
       <path id="DejaVuSans-61" d="M 2194 1759 
Q 1497 1759 1228 1600 
Q 959 1441 959 1056 
Q 959 750 1161 570 
Q 1363 391 1709 391 
Q 2188 391 2477 730 
Q 2766 1069 2766 1631 
L 2766 1759 
L 2194 1759 
z
M 3341 1997 
L 3341 0 
L 2766 0 
L 2766 531 
Q 2569 213 2275 61 
Q 1981 -91 1556 -91 
Q 1019 -91 701 211 
Q 384 513 384 1019 
Q 384 1609 779 1909 
Q 1175 2209 1959 2209 
L 2766 2209 
L 2766 2266 
Q 2766 2663 2505 2880 
Q 2244 3097 1772 3097 
Q 1472 3097 1187 3025 
Q 903 2953 641 2809 
L 641 3341 
Q 956 3463 1253 3523 
Q 1550 3584 1831 3584 
Q 2591 3584 2966 3190 
Q 3341 2797 3341 1997 
z
" transform="scale(0.015625)"/>
       <path id="DejaVuSans-74" d="M 1172 4494 
L 1172 3500 
L 2356 3500 
L 2356 3053 
L 1172 3053 
L 1172 1153 
Q 1172 725 1289 603 
Q 1406 481 1766 481 
L 2356 481 
L 2356 0 
L 1766 0 
Q 1100 0 847 248 
Q 594 497 594 1153 
L 594 3053 
L 172 3053 
L 172 3500 
L 594 3500 
L 594 4494 
L 1172 4494 
z
" transform="scale(0.015625)"/>
       <path id="DejaVuSans-65" d="M 3597 1894 
L 3597 1613 
L 953 1613 
Q 991 1019 1311 708 
Q 1631 397 2203 397 
Q 2534 397 2845 478 
Q 3156 559 3463 722 
L 3463 178 
Q 3153 47 2828 -22 
Q 2503 -91 2169 -91 
Q 1331 -91 842 396 
Q 353 884 353 1716 
Q 353 2575 817 3079 
Q 1281 3584 2069 3584 
Q 2775 3584 3186 3129 
Q 3597 2675 3597 1894 
z
M 3022 2063 
Q 3016 2534 2758 2815 
Q 2500 3097 2075 3097 
Q 1594 3097 1305 2825 
Q 1016 2553 972 2059 
L 3022 2063 
z
" transform="scale(0.015625)"/>
       <path id="DejaVuSans-6e" d="M 3513 2113 
L 3513 0 
L 2938 0 
L 2938 2094 
Q 2938 2591 2744 2837 
Q 2550 3084 2163 3084 
Q 1697 3084 1428 2787 
Q 1159 2491 1159 1978 
L 1159 0 
L 581 0 
L 581 3500 
L 1159 3500 
L 1159 2956 
Q 1366 3272 1645 3428 
Q 1925 3584 2291 3584 
Q 2894 3584 3203 3211 
Q 3513 2838 3513 2113 
z
" transform="scale(0.015625)"/>
       <path id="DejaVuSans-64" d="M 2906 2969 
L 2906 4863 
L 3481 4863 
L 3481 0 
L 2906 0 
L 2906 525 
Q 2725 213 2448 61 
Q 2172 -91 1784 -91 
Q 1150 -91 751 415 
Q 353 922 353 1747 
Q 353 2572 751 3078 
Q 1150 3584 1784 3584 
Q 2172 3584 2448 3432 
Q 2725 3281 2906 2969 
z
M 947 1747 
Q 947 1113 1208 752 
Q 1469 391 1925 391 
Q 2381 391 2643 752 
Q 2906 1113 2906 1747 
Q 2906 2381 2643 2742 
Q 2381 3103 1925 3103 
Q 1469 3103 1208 2742 
Q 947 2381 947 1747 
z
" transform="scale(0.015625)"/>
       <path id="DejaVuSans-54" d="M -19 4666 
L 3928 4666 
L 3928 4134 
L 2272 4134 
L 2272 0 
L 1638 0 
L 1638 4134 
L -19 4134 
L -19 4666 
z
" transform="scale(0.015625)"/>
       <path id="DejaVuSans-69" d="M 603 3500 
L 1178 3500 
L 1178 0 
L 603 0 
L 603 3500 
z
M 603 4863 
L 1178 4863 
L 1178 4134 
L 603 4134 
L 603 4863 
z
" transform="scale(0.015625)"/>
       <path id="DejaVuSans-6d" d="M 3328 2828 
Q 3544 3216 3844 3400 
Q 4144 3584 4550 3584 
Q 5097 3584 5394 3201 
Q 5691 2819 5691 2113 
L 5691 0 
L 5113 0 
L 5113 2094 
Q 5113 2597 4934 2840 
Q 4756 3084 4391 3084 
Q 3944 3084 3684 2787 
Q 3425 2491 3425 1978 
L 3425 0 
L 2847 0 
L 2847 2094 
Q 2847 2600 2669 2842 
Q 2491 3084 2119 3084 
Q 1678 3084 1418 2786 
Q 1159 2488 1159 1978 
L 1159 0 
L 581 0 
L 581 3500 
L 1159 3500 
L 1159 2956 
Q 1356 3278 1631 3431 
Q 1906 3584 2284 3584 
Q 2666 3584 2933 3390 
Q 3200 3197 3328 2828 
z
" transform="scale(0.015625)"/>
      </defs>
      <use xlink:href="#DejaVuSans-44"/>
      <use xlink:href="#DejaVuSans-61" transform="translate(77.001953 0)"/>
      <use xlink:href="#DejaVuSans-74" transform="translate(138.28125 0)"/>
      <use xlink:href="#DejaVuSans-65" transform="translate(177.490234 0)"/>
      <use xlink:href="#DejaVuSans-20" transform="translate(239.013672 0)"/>
      <use xlink:href="#DejaVuSans-61" transform="translate(270.800781 0)"/>
      <use xlink:href="#DejaVuSans-6e" transform="translate(332.080078 0)"/>
      <use xlink:href="#DejaVuSans-64" transform="translate(395.458984 0)"/>
      <use xlink:href="#DejaVuSans-20" transform="translate(458.935547 0)"/>
      <use xlink:href="#DejaVuSans-54" transform="translate(490.722656 0)"/>
      <use xlink:href="#DejaVuSans-69" transform="translate(548.681641 0)"/>
      <use xlink:href="#DejaVuSans-6d" transform="translate(576.464844 0)"/>
      <use xlink:href="#DejaVuSans-65" transform="translate(673.876953 0)"/>
     </g>
    </g>
   </g>
   <g id="matplotlib.axis_2">
    <g id="ytick_1">
     <g id="line2d_11">
      <path d="M 90 370.716054 
L 648 370.716054 
" clip-path="url(#p0f3063e079)" style="fill: none; stroke: #b0b0b0; stroke-width: 0.8; stroke-linecap: square"/>
     </g>
     <g id="line2d_12">
      <defs>
       <path id="m829782fcf7" d="M 0 0 
L -3.5 0 
" style="stroke: #000000; stroke-width: 0.8"/>
      </defs>
      <g>
       <use xlink:href="#m829782fcf7" x="90" y="370.716054" style="stroke: #000000; stroke-width: 0.8"/>
      </g>
     </g>
     <g id="text_7">
      <!-- 0 -->
      <g transform="translate(76.6375 374.515273) scale(0.1 -0.1)">
       <use xlink:href="#DejaVuSans-30"/>
      </g>
     </g>
    </g>
    <g id="ytick_2">
     <g id="line2d_13">
      <path d="M 90 302.913363 
L 648 302.913363 
" clip-path="url(#p0f3063e079)" style="fill: none; stroke: #b0b0b0; stroke-width: 0.8; stroke-linecap: square"/>
     </g>
     <g id="line2d_14">
      <g>
       <use xlink:href="#m829782fcf7" x="90" y="302.913363" style="stroke: #000000; stroke-width: 0.8"/>
      </g>
     </g>
     <g id="text_8">
      <!-- 50 -->
      <g transform="translate(70.275 306.712582) scale(0.1 -0.1)">
       <use xlink:href="#DejaVuSans-35"/>
       <use xlink:href="#DejaVuSans-30" transform="translate(63.623047 0)"/>
      </g>
     </g>
    </g>
    <g id="ytick_3">
     <g id="line2d_15">
      <path d="M 90 235.110673 
L 648 235.110673 
" clip-path="url(#p0f3063e079)" style="fill: none; stroke: #b0b0b0; stroke-width: 0.8; stroke-linecap: square"/>
     </g>
     <g id="line2d_16">
      <g>
       <use xlink:href="#m829782fcf7" x="90" y="235.110673" style="stroke: #000000; stroke-width: 0.8"/>
      </g>
     </g>
     <g id="text_9">
      <!-- 100 -->
      <g transform="translate(63.9125 238.909891) scale(0.1 -0.1)">
       <use xlink:href="#DejaVuSans-31"/>
       <use xlink:href="#DejaVuSans-30" transform="translate(63.623047 0)"/>
       <use xlink:href="#DejaVuSans-30" transform="translate(127.246094 0)"/>
      </g>
     </g>
    </g>
    <g id="ytick_4">
     <g id="line2d_17">
      <path d="M 90 167.307982 
L 648 167.307982 
" clip-path="url(#p0f3063e079)" style="fill: none; stroke: #b0b0b0; stroke-width: 0.8; stroke-linecap: square"/>
     </g>
     <g id="line2d_18">
      <g>
       <use xlink:href="#m829782fcf7" x="90" y="167.307982" style="stroke: #000000; stroke-width: 0.8"/>
      </g>
     </g>
     <g id="text_10">
      <!-- 150 -->
      <g transform="translate(63.9125 171.107201) scale(0.1 -0.1)">
       <use xlink:href="#DejaVuSans-31"/>
       <use xlink:href="#DejaVuSans-35" transform="translate(63.623047 0)"/>
       <use xlink:href="#DejaVuSans-30" transform="translate(127.246094 0)"/>
      </g>
     </g>
    </g>
    <g id="ytick_5">
     <g id="line2d_19">
      <path d="M 90 99.505291 
L 648 99.505291 
" clip-path="url(#p0f3063e079)" style="fill: none; stroke: #b0b0b0; stroke-width: 0.8; stroke-linecap: square"/>
     </g>
     <g id="line2d_20">
      <g>
       <use xlink:href="#m829782fcf7" x="90" y="99.505291" style="stroke: #000000; stroke-width: 0.8"/>
      </g>
     </g>
     <g id="text_11">
      <!-- 200 -->
      <g transform="translate(63.9125 103.30451) scale(0.1 -0.1)">
       <defs>
        <path id="DejaVuSans-32" d="M 1228 531 
L 3431 531 
L 3431 0 
L 469 0 
L 469 531 
Q 828 903 1448 1529 
Q 2069 2156 2228 2338 
Q 2531 2678 2651 2914 
Q 2772 3150 2772 3378 
Q 2772 3750 2511 3984 
Q 2250 4219 1831 4219 
Q 1534 4219 1204 4116 
Q 875 4013 500 3803 
L 500 4441 
Q 881 4594 1212 4672 
Q 1544 4750 1819 4750 
Q 2544 4750 2975 4387 
Q 3406 4025 3406 3419 
Q 3406 3131 3298 2873 
Q 3191 2616 2906 2266 
Q 2828 2175 2409 1742 
Q 1991 1309 1228 531 
z
" transform="scale(0.015625)"/>
       </defs>
       <use xlink:href="#DejaVuSans-32"/>
       <use xlink:href="#DejaVuSans-30" transform="translate(63.623047 0)"/>
       <use xlink:href="#DejaVuSans-30" transform="translate(127.246094 0)"/>
      </g>
     </g>
    </g>
    <g id="text_12">
     <!-- Votes -->
     <g transform="translate(57.832812 231.893594) rotate(-90) scale(0.1 -0.1)">
      <defs>
       <path id="DejaVuSans-56" d="M 1831 0 
L 50 4666 
L 709 4666 
L 2188 738 
L 3669 4666 
L 4325 4666 
L 2547 0 
L 1831 0 
z
" transform="scale(0.015625)"/>
       <path id="DejaVuSans-6f" d="M 1959 3097 
Q 1497 3097 1228 2736 
Q 959 2375 959 1747 
Q 959 1119 1226 758 
Q 1494 397 1959 397 
Q 2419 397 2687 759 
Q 2956 1122 2956 1747 
Q 2956 2369 2687 2733 
Q 2419 3097 1959 3097 
z
M 1959 3584 
Q 2709 3584 3137 3096 
Q 3566 2609 3566 1747 
Q 3566 888 3137 398 
Q 2709 -91 1959 -91 
Q 1206 -91 779 398 
Q 353 888 353 1747 
Q 353 2609 779 3096 
Q 1206 3584 1959 3584 
z
" transform="scale(0.015625)"/>
       <path id="DejaVuSans-73" d="M 2834 3397 
L 2834 2853 
Q 2591 2978 2328 3040 
Q 2066 3103 1784 3103 
Q 1356 3103 1142 2972 
Q 928 2841 928 2578 
Q 928 2378 1081 2264 
Q 1234 2150 1697 2047 
L 1894 2003 
Q 2506 1872 2764 1633 
Q 3022 1394 3022 966 
Q 3022 478 2636 193 
Q 2250 -91 1575 -91 
Q 1294 -91 989 -36 
Q 684 19 347 128 
L 347 722 
Q 666 556 975 473 
Q 1284 391 1588 391 
Q 1994 391 2212 530 
Q 2431 669 2431 922 
Q 2431 1156 2273 1281 
Q 2116 1406 1581 1522 
L 1381 1569 
Q 847 1681 609 1914 
Q 372 2147 372 2553 
Q 372 3047 722 3315 
Q 1072 3584 1716 3584 
Q 2034 3584 2315 3537 
Q 2597 3491 2834 3397 
z
" transform="scale(0.015625)"/>
      </defs>
      <use xlink:href="#DejaVuSans-56"/>
      <use xlink:href="#DejaVuSans-6f" transform="translate(60.658203 0)"/>
      <use xlink:href="#DejaVuSans-74" transform="translate(121.839844 0)"/>
      <use xlink:href="#DejaVuSans-65" transform="translate(161.048828 0)"/>
      <use xlink:href="#DejaVuSans-73" transform="translate(222.572266 0)"/>
     </g>
    </g>
   </g>
   <g id="line2d_21">
    <path d="M 115.363636 346.307085 
L 133.352031 346.307085 
L 135.15087 344.951031 
L 153.139265 344.951031 
L 154.938104 342.238924 
L 171.12766 342.238924 
L 172.926499 340.88287 
L 181.920696 340.88287 
L 183.719536 339.526816 
L 190.914894 339.526816 
L 192.713733 338.170762 
L 198.110251 338.170762 
L 199.909091 336.814709 
L 225.092843 336.814709 
L 226.891683 335.458655 
L 246.678917 335.458655 
L 250.276596 332.746547 
L 253.874275 332.746547 
L 255.673114 331.390493 
L 271.862669 331.390493 
L 275.460348 328.678386 
L 297.046422 328.678386 
L 298.845261 327.322332 
L 304.241779 327.322332 
L 306.040619 325.966278 
L 307.839458 325.966278 
L 309.638298 324.610224 
L 358.206963 324.610224 
L 360.005803 323.25417 
L 381.591876 323.25417 
L 383.390716 321.898117 
L 395.982592 321.898117 
L 397.781431 320.542063 
L 399.580271 317.829955 
L 401.37911 317.829955 
L 404.976789 315.117848 
L 433.758221 315.117848 
L 435.55706 313.761794 
L 446.350097 313.761794 
L 448.148936 312.40574 
L 455.344294 312.40574 
L 457.143133 311.049686 
L 475.131528 311.049686 
L 476.930367 309.693632 
L 480.528046 309.693632 
L 482.326886 308.337578 
L 487.723404 308.337578 
L 489.522244 306.981525 
L 503.912959 306.981525 
L 505.711799 305.625471 
L 507.510638 305.625471 
L 509.309478 304.269417 
L 527.297872 304.269417 
L 529.096712 302.913363 
L 541.688588 302.913363 
L 543.487427 301.557309 
L 545.286267 301.557309 
L 548.883946 298.845202 
L 588.458414 298.845202 
L 590.257253 297.489148 
L 619.038685 297.489148 
L 620.837524 296.133094 
L 622.636364 296.133094 
L 622.636364 296.133094 
" clip-path="url(#p0f3063e079)" style="fill: none; stroke: #1f77b4; stroke-width: 1.5; stroke-linecap: square"/>
   </g>
   <g id="line2d_22">
    <path d="M 115.363636 259.519641 
L 117.162476 258.163587 
L 122.558994 258.163587 
L 124.357834 256.807534 
L 126.156673 256.807534 
L 127.955513 255.45148 
L 129.754352 255.45148 
L 133.352031 252.739372 
L 135.15087 250.027265 
L 136.94971 250.027265 
L 140.547389 247.315157 
L 142.346228 247.315157 
L 144.145068 241.890942 
L 145.943907 239.178834 
L 147.742747 233.754619 
L 149.541586 229.686457 
L 154.938104 229.686457 
L 156.736944 225.618296 
L 158.535783 222.906188 
L 162.133462 220.194081 
L 163.932302 217.481973 
L 167.529981 214.769865 
L 169.32882 212.057758 
L 174.725338 212.057758 
L 176.524178 205.277489 
L 178.323017 202.565381 
L 180.121857 201.209327 
L 181.920696 198.49722 
L 183.719536 197.141166 
L 185.518375 197.141166 
L 187.317215 193.073004 
L 189.116054 193.073004 
L 190.914894 190.360897 
L 192.713733 189.004843 
L 194.512573 189.004843 
L 196.311412 187.648789 
L 199.909091 187.648789 
L 201.70793 186.292735 
L 205.305609 186.292735 
L 207.104449 183.580628 
L 208.903288 183.580628 
L 210.702128 182.224574 
L 217.897485 182.224574 
L 219.696325 180.86852 
L 225.092843 180.86852 
L 226.891683 179.512466 
L 228.690522 179.512466 
L 230.489362 176.800359 
L 232.288201 176.800359 
L 234.087041 174.088251 
L 235.88588 172.732197 
L 241.282398 172.732197 
L 243.081238 170.02009 
L 244.880077 168.664036 
L 246.678917 164.595874 
L 250.276596 161.883767 
L 264.667311 161.883767 
L 266.466151 157.815605 
L 268.26499 157.815605 
L 271.862669 155.103498 
L 273.661509 155.103498 
L 279.058027 151.035336 
L 282.655706 151.035336 
L 284.454545 149.679283 
L 288.052224 149.679283 
L 293.448743 145.611121 
L 297.046422 145.611121 
L 298.845261 144.255067 
L 307.839458 144.255067 
L 309.638298 142.899013 
L 313.235977 142.899013 
L 315.034816 141.54296 
L 336.62089 141.54296 
L 338.419729 138.830852 
L 342.017408 138.830852 
L 345.615087 136.118744 
L 347.413926 136.118744 
L 349.212766 134.762691 
L 360.005803 134.762691 
L 365.402321 130.694529 
L 367.201161 130.694529 
L 369 129.338475 
L 370.798839 126.626368 
L 372.597679 126.626368 
L 374.396518 125.270314 
L 376.195358 125.270314 
L 383.390716 119.846099 
L 386.988395 119.846099 
L 388.787234 117.133991 
L 394.183752 117.133991 
L 395.982592 115.777937 
L 401.37911 115.777937 
L 403.17795 114.421883 
L 404.976789 114.421883 
L 406.775629 110.353722 
L 412.172147 110.353722 
L 413.970986 108.997668 
L 415.769826 106.285561 
L 419.367505 106.285561 
L 421.166344 104.929507 
L 424.764023 104.929507 
L 426.562863 103.573453 
L 428.361702 103.573453 
L 437.355899 96.793184 
L 440.953578 96.793184 
L 446.350097 92.725022 
L 451.746615 92.725022 
L 453.545455 90.012915 
L 455.344294 90.012915 
L 457.143133 88.656861 
L 462.539652 88.656861 
L 464.338491 87.300807 
L 480.528046 87.300807 
L 482.326886 85.944753 
L 494.918762 85.944753 
L 496.717602 84.5887 
L 500.31528 84.5887 
L 503.912959 81.876592 
L 512.907157 81.876592 
L 514.705996 80.520538 
L 523.700193 80.520538 
L 529.096712 76.452377 
L 552.481625 76.452377 
L 554.280464 73.740269 
L 556.079304 72.384215 
L 599.251451 72.384215 
L 601.05029 71.028161 
L 611.843327 71.028161 
L 615.441006 68.316054 
L 619.038685 68.316054 
L 620.837524 66.96 
L 622.636364 66.96 
L 622.636364 66.96 
" clip-path="url(#p0f3063e079)" style="fill: none; stroke: #ff7f0e; stroke-width: 1.5; stroke-linecap: square"/>
   </g>
   <g id="line2d_23">
    <path d="M 115.363636 328.678386 
L 122.558994 328.678386 
L 124.357834 325.966278 
L 127.955513 325.966278 
L 129.754352 324.610224 
L 131.553191 321.898117 
L 133.352031 320.542063 
L 135.15087 316.473901 
L 136.94971 313.761794 
L 138.748549 312.40574 
L 140.547389 312.40574 
L 142.346228 309.693632 
L 144.145068 305.625471 
L 151.340426 305.625471 
L 153.139265 304.269417 
L 154.938104 304.269417 
L 156.736944 301.557309 
L 162.133462 301.557309 
L 165.731141 298.845202 
L 172.926499 298.845202 
L 174.725338 297.489148 
L 181.920696 297.489148 
L 187.317215 293.420987 
L 196.311412 293.420987 
L 198.110251 292.064933 
L 203.50677 292.064933 
L 205.305609 290.708879 
L 208.903288 290.708879 
L 210.702128 287.996771 
L 225.092843 287.996771 
L 226.891683 286.640717 
L 228.690522 283.92861 
L 230.489362 282.572556 
L 232.288201 282.572556 
L 234.087041 281.216502 
L 237.68472 281.216502 
L 239.483559 279.860448 
L 243.081238 279.860448 
L 244.880077 278.504395 
L 255.673114 278.504395 
L 257.471954 277.148341 
L 259.270793 277.148341 
L 261.069633 275.792287 
L 262.868472 275.792287 
L 264.667311 274.436233 
L 270.06383 274.436233 
L 271.862669 273.080179 
L 273.661509 270.368072 
L 282.655706 270.368072 
L 288.052224 266.29991 
L 293.448743 266.29991 
L 295.247582 264.943857 
L 302.44294 264.943857 
L 304.241779 263.587803 
L 306.040619 263.587803 
L 307.839458 262.231749 
L 311.437137 262.231749 
L 313.235977 260.875695 
L 318.632495 260.875695 
L 322.230174 258.163587 
L 324.029014 258.163587 
L 325.827853 256.807534 
L 340.218569 256.807534 
L 342.017408 254.095426 
L 343.816248 252.739372 
L 358.206963 252.739372 
L 360.005803 251.383318 
L 365.402321 251.383318 
L 367.201161 250.027265 
L 372.597679 250.027265 
L 374.396518 248.671211 
L 392.384913 248.671211 
L 394.183752 247.315157 
L 401.37911 247.315157 
L 403.17795 245.959103 
L 413.970986 245.959103 
L 415.769826 244.603049 
L 419.367505 244.603049 
L 421.166344 243.246996 
L 428.361702 243.246996 
L 431.959381 240.534888 
L 466.137331 240.534888 
L 467.93617 239.178834 
L 469.73501 239.178834 
L 471.533849 237.82278 
L 476.930367 237.82278 
L 478.729207 236.466726 
L 487.723404 236.466726 
L 489.522244 235.110673 
L 493.119923 235.110673 
L 494.918762 233.754619 
L 505.711799 233.754619 
L 507.510638 235.110673 
L 509.309478 233.754619 
L 521.901354 233.754619 
L 523.700193 232.398565 
L 538.090909 232.398565 
L 539.889749 231.042511 
L 543.487427 231.042511 
L 545.286267 229.686457 
L 547.085106 229.686457 
L 548.883946 228.330404 
L 561.475822 228.330404 
L 563.274662 226.97435 
L 574.067698 226.97435 
L 575.866538 225.618296 
L 602.84913 225.618296 
L 604.647969 224.262242 
L 622.636364 224.262242 
L 622.636364 224.262242 
" clip-path="url(#p0f3063e079)" style="fill: none; stroke: #2ca02c; stroke-width: 1.5; stroke-linecap: square"/>
   </g>
   <g id="line2d_24">
    <path d="M 115.363636 369.36 
L 559.676983 369.36 
L 561.475822 368.003946 
L 622.636364 368.003946 
L 622.636364 368.003946 
" clip-path="url(#p0f3063e079)" style="fill: none; stroke: #d62728; stroke-width: 1.5; stroke-linecap: square"/>
   </g>
   <g id="line2d_25">
    <path d="M 115.363636 339.526816 
L 120.760155 339.526816 
L 122.558994 338.170762 
L 133.352031 338.170762 
L 135.15087 336.814709 
L 145.943907 336.814709 
L 147.742747 335.458655 
L 187.317215 335.458655 
L 189.116054 334.102601 
L 253.874275 334.102601 
L 257.471954 331.390493 
L 271.862669 331.390493 
L 273.661509 330.034439 
L 280.856867 330.034439 
L 282.655706 328.678386 
L 286.253385 328.678386 
L 288.052224 327.322332 
L 334.82205 327.322332 
L 336.62089 325.966278 
L 410.373308 325.966278 
L 412.172147 324.610224 
L 622.636364 324.610224 
L 622.636364 324.610224 
" clip-path="url(#p0f3063e079)" style="fill: none; stroke: #9467bd; stroke-width: 1.5; stroke-linecap: square"/>
   </g>
   <g id="line2d_26">
    <path d="M 115.363636 350.375247 
L 117.162476 350.375247 
L 118.961315 349.019193 
L 144.145068 349.019193 
L 145.943907 347.663139 
L 167.529981 347.663139 
L 169.32882 346.307085 
L 196.311412 346.307085 
L 199.909091 343.594978 
L 219.696325 343.594978 
L 221.495164 342.238924 
L 275.460348 342.238924 
L 277.259188 340.88287 
L 293.448743 340.88287 
L 295.247582 339.526816 
L 325.827853 339.526816 
L 327.626692 338.170762 
L 356.408124 338.170762 
L 358.206963 336.814709 
L 365.402321 336.814709 
L 367.201161 335.458655 
L 383.390716 335.458655 
L 385.189555 334.102601 
L 428.361702 334.102601 
L 430.160542 332.746547 
L 440.953578 332.746547 
L 442.752418 331.390493 
L 453.545455 331.390493 
L 455.344294 330.034439 
L 462.539652 330.034439 
L 464.338491 328.678386 
L 530.895551 328.678386 
L 532.694391 327.322332 
L 584.860735 327.322332 
L 586.659574 325.966278 
L 622.636364 325.966278 
L 622.636364 325.966278 
" clip-path="url(#p0f3063e079)" style="fill: none; stroke: #8c564b; stroke-width: 1.5; stroke-linecap: square"/>
   </g>
   <g id="line2d_27">
    <path d="M 115.363636 250.027265 
L 122.558994 250.027265 
L 124.357834 248.671211 
L 131.553191 248.671211 
L 135.15087 245.959103 
L 136.94971 245.959103 
L 138.748549 244.603049 
L 140.547389 244.603049 
L 142.346228 243.246996 
L 145.943907 243.246996 
L 147.742747 241.890942 
L 153.139265 241.890942 
L 154.938104 240.534888 
L 158.535783 240.534888 
L 160.334623 239.178834 
L 162.133462 239.178834 
L 163.932302 237.82278 
L 167.529981 237.82278 
L 171.12766 235.110673 
L 178.323017 235.110673 
L 180.121857 233.754619 
L 185.518375 233.754619 
L 189.116054 231.042511 
L 192.713733 231.042511 
L 194.512573 229.686457 
L 198.110251 229.686457 
L 199.909091 228.330404 
L 201.70793 225.618296 
L 203.50677 221.550135 
L 207.104449 221.550135 
L 208.903288 220.194081 
L 217.897485 220.194081 
L 221.495164 217.481973 
L 223.294004 214.769865 
L 225.092843 213.413812 
L 226.891683 213.413812 
L 228.690522 210.701704 
L 235.88588 210.701704 
L 237.68472 209.34565 
L 239.483559 209.34565 
L 243.081238 206.633543 
L 244.880077 206.633543 
L 246.678917 205.277489 
L 248.477756 205.277489 
L 252.075435 202.565381 
L 255.673114 202.565381 
L 257.471954 199.853274 
L 264.667311 199.853274 
L 268.26499 197.141166 
L 271.862669 197.141166 
L 273.661509 195.785112 
L 275.460348 193.073004 
L 280.856867 193.073004 
L 282.655706 191.716951 
L 284.454545 191.716951 
L 286.253385 189.004843 
L 288.052224 189.004843 
L 289.851064 187.648789 
L 291.649903 187.648789 
L 293.448743 186.292735 
L 300.644101 186.292735 
L 304.241779 183.580628 
L 306.040619 183.580628 
L 307.839458 180.86852 
L 309.638298 180.86852 
L 311.437137 179.512466 
L 313.235977 179.512466 
L 315.034816 178.156413 
L 320.431335 178.156413 
L 322.230174 176.800359 
L 324.029014 176.800359 
L 331.224371 171.376143 
L 333.023211 168.664036 
L 336.62089 168.664036 
L 340.218569 163.239821 
L 343.816248 163.239821 
L 347.413926 160.527713 
L 349.212766 160.527713 
L 351.011605 157.815605 
L 352.810445 157.815605 
L 354.609284 156.459552 
L 356.408124 156.459552 
L 358.206963 155.103498 
L 361.804642 155.103498 
L 363.603482 153.747444 
L 365.402321 153.747444 
L 367.201161 152.39139 
L 374.396518 152.39139 
L 376.195358 145.611121 
L 377.994197 145.611121 
L 379.793037 144.255067 
L 385.189555 144.255067 
L 386.988395 142.899013 
L 403.17795 142.899013 
L 404.976789 140.186906 
L 412.172147 140.186906 
L 413.970986 138.830852 
L 431.959381 138.830852 
L 433.758221 136.118744 
L 435.55706 134.762691 
L 444.551257 134.762691 
L 446.350097 133.406637 
L 458.941973 133.406637 
L 460.740812 132.050583 
L 462.539652 132.050583 
L 464.338491 130.694529 
L 475.131528 130.694529 
L 478.729207 127.982422 
L 491.321083 127.982422 
L 494.918762 125.270314 
L 496.717602 125.270314 
L 498.516441 123.91426 
L 509.309478 123.91426 
L 511.108317 122.558206 
L 516.504836 122.558206 
L 518.303675 121.202152 
L 520.102515 118.490045 
L 525.499033 118.490045 
L 527.297872 117.133991 
L 529.096712 117.133991 
L 532.694391 114.421883 
L 539.889749 114.421883 
L 541.688588 113.06583 
L 548.883946 113.06583 
L 550.682785 111.709776 
L 556.079304 111.709776 
L 557.878143 110.353722 
L 572.268859 110.353722 
L 575.866538 107.641614 
L 584.860735 107.641614 
L 586.659574 106.285561 
L 593.854932 106.285561 
L 602.84913 99.505291 
L 606.446809 99.505291 
L 608.245648 98.149238 
L 610.044487 98.149238 
L 611.843327 95.43713 
L 615.441006 92.725022 
L 619.038685 87.300807 
L 622.636364 87.300807 
L 622.636364 87.300807 
" clip-path="url(#p0f3063e079)" style="fill: none; stroke: #e377c2; stroke-width: 1.5; stroke-linecap: square"/>
   </g>
   <g id="line2d_28">
    <path d="M 115.363636 334.102601 
L 117.162476 334.102601 
L 120.760155 331.390493 
L 129.754352 331.390493 
L 131.553191 330.034439 
L 133.352031 330.034439 
L 136.94971 327.322332 
L 140.547389 327.322332 
L 142.346228 325.966278 
L 147.742747 325.966278 
L 149.541586 324.610224 
L 151.340426 324.610224 
L 153.139265 323.25417 
L 154.938104 323.25417 
L 158.535783 320.542063 
L 163.932302 320.542063 
L 165.731141 319.186009 
L 169.32882 319.186009 
L 172.926499 316.473901 
L 176.524178 316.473901 
L 180.121857 313.761794 
L 181.920696 313.761794 
L 183.719536 312.40574 
L 185.518375 308.337578 
L 192.713733 308.337578 
L 199.909091 302.913363 
L 201.70793 302.913363 
L 205.305609 300.201256 
L 207.104449 300.201256 
L 208.903288 298.845202 
L 210.702128 298.845202 
L 212.500967 297.489148 
L 228.690522 297.489148 
L 230.489362 296.133094 
L 248.477756 296.133094 
L 252.075435 293.420987 
L 257.471954 293.420987 
L 259.270793 292.064933 
L 262.868472 292.064933 
L 266.466151 289.352825 
L 270.06383 289.352825 
L 271.862669 286.640717 
L 277.259188 286.640717 
L 279.058027 283.92861 
L 280.856867 282.572556 
L 289.851064 282.572556 
L 291.649903 281.216502 
L 293.448743 281.216502 
L 297.046422 278.504395 
L 306.040619 278.504395 
L 307.839458 277.148341 
L 309.638298 277.148341 
L 311.437137 275.792287 
L 322.230174 275.792287 
L 324.029014 274.436233 
L 329.425532 274.436233 
L 331.224371 273.080179 
L 333.023211 273.080179 
L 334.82205 269.012018 
L 336.62089 269.012018 
L 338.419729 266.29991 
L 340.218569 264.943857 
L 342.017408 264.943857 
L 345.615087 262.231749 
L 349.212766 262.231749 
L 351.011605 260.875695 
L 354.609284 260.875695 
L 356.408124 259.519641 
L 358.206963 259.519641 
L 360.005803 256.807534 
L 361.804642 256.807534 
L 363.603482 255.45148 
L 367.201161 255.45148 
L 370.798839 252.739372 
L 372.597679 252.739372 
L 374.396518 250.027265 
L 376.195358 248.671211 
L 388.787234 248.671211 
L 390.586074 245.959103 
L 395.982592 245.959103 
L 397.781431 244.603049 
L 399.580271 244.603049 
L 401.37911 243.246996 
L 406.775629 243.246996 
L 408.574468 241.890942 
L 417.568665 241.890942 
L 419.367505 240.534888 
L 422.965184 240.534888 
L 424.764023 239.178834 
L 433.758221 239.178834 
L 435.55706 237.82278 
L 451.746615 237.82278 
L 455.344294 235.110673 
L 457.143133 235.110673 
L 458.941973 233.754619 
L 460.740812 233.754619 
L 462.539652 232.398565 
L 464.338491 232.398565 
L 466.137331 231.042511 
L 469.73501 231.042511 
L 471.533849 229.686457 
L 473.332689 229.686457 
L 476.930367 226.97435 
L 482.326886 226.97435 
L 484.125725 225.618296 
L 489.522244 225.618296 
L 491.321083 224.262242 
L 503.912959 224.262242 
L 505.711799 222.906188 
L 507.510638 222.906188 
L 509.309478 221.550135 
L 516.504836 221.550135 
L 518.303675 218.838027 
L 529.096712 218.838027 
L 530.895551 217.481973 
L 532.694391 217.481973 
L 534.49323 214.769865 
L 543.487427 214.769865 
L 545.286267 213.413812 
L 556.079304 213.413812 
L 557.878143 212.057758 
L 581.263056 212.057758 
L 583.061896 210.701704 
L 610.044487 210.701704 
L 611.843327 209.34565 
L 620.837524 209.34565 
L 622.636364 207.989596 
L 622.636364 207.989596 
" clip-path="url(#p0f3063e079)" style="fill: none; stroke: #7f7f7f; stroke-width: 1.5; stroke-linecap: square"/>
   </g>
   <g id="line2d_29">
    <path d="M 115.363636 342.238924 
L 122.558994 342.238924 
L 124.357834 340.88287 
L 142.346228 340.88287 
L 144.145068 339.526816 
L 153.139265 339.526816 
L 154.938104 338.170762 
L 172.926499 338.170762 
L 174.725338 336.814709 
L 192.713733 336.814709 
L 194.512573 335.458655 
L 291.649903 335.458655 
L 293.448743 334.102601 
L 302.44294 334.102601 
L 304.241779 332.746547 
L 316.833656 332.746547 
L 318.632495 331.390493 
L 320.431335 331.390493 
L 322.230174 327.322332 
L 324.029014 325.966278 
L 327.626692 325.966278 
L 329.425532 324.610224 
L 347.413926 324.610224 
L 349.212766 323.25417 
L 365.402321 323.25417 
L 367.201161 321.898117 
L 386.988395 321.898117 
L 388.787234 320.542063 
L 410.373308 320.542063 
L 412.172147 319.186009 
L 421.166344 319.186009 
L 422.965184 317.829955 
L 480.528046 317.829955 
L 482.326886 316.473901 
L 485.924565 316.473901 
L 487.723404 315.117848 
L 502.11412 315.117848 
L 503.912959 313.761794 
L 554.280464 313.761794 
L 559.676983 309.693632 
L 611.843327 309.693632 
L 613.642166 308.337578 
L 615.441006 308.337578 
L 619.038685 305.625471 
L 622.636364 305.625471 
L 622.636364 305.625471 
" clip-path="url(#p0f3063e079)" style="fill: none; stroke: #bcbd22; stroke-width: 1.5; stroke-linecap: square"/>
   </g>
   <g id="line2d_30">
    <path d="M 115.363636 366.647892 
L 205.305609 366.647892 
L 207.104449 365.291839 
L 320.431335 365.291839 
L 322.230174 363.935785 
L 505.711799 363.935785 
L 507.510638 362.579731 
L 509.309478 363.935785 
L 622.636364 363.935785 
L 622.636364 363.935785 
" clip-path="url(#p0f3063e079)" style="fill: none; stroke: #17becf; stroke-width: 1.5; stroke-linecap: square"/>
   </g>
   <g id="line2d_31">
    <path d="M 115.363636 369.36 
L 117.162476 368.003946 
L 120.760155 368.003946 
L 122.558994 366.647892 
L 135.15087 366.647892 
L 136.94971 365.291839 
L 142.346228 365.291839 
L 144.145068 363.935785 
L 145.943907 363.935785 
L 149.541586 361.223677 
L 158.535783 361.223677 
L 162.133462 358.51157 
L 163.932302 358.51157 
L 165.731141 357.155516 
L 178.323017 357.155516 
L 180.121857 355.799462 
L 181.920696 353.087354 
L 185.518375 353.087354 
L 187.317215 351.7313 
L 189.116054 351.7313 
L 190.914894 350.375247 
L 192.713733 350.375247 
L 194.512573 349.019193 
L 196.311412 349.019193 
L 199.909091 346.307085 
L 210.702128 346.307085 
L 214.299807 343.594978 
L 219.696325 343.594978 
L 221.495164 342.238924 
L 223.294004 342.238924 
L 225.092843 339.526816 
L 230.489362 339.526816 
L 234.087041 334.102601 
L 244.880077 334.102601 
L 246.678917 331.390493 
L 248.477756 330.034439 
L 253.874275 330.034439 
L 255.673114 328.678386 
L 257.471954 325.966278 
L 261.069633 325.966278 
L 262.868472 324.610224 
L 288.052224 324.610224 
L 289.851064 321.898117 
L 302.44294 312.40574 
L 320.431335 312.40574 
L 325.827853 308.337578 
L 329.425532 308.337578 
L 331.224371 305.625471 
L 334.82205 305.625471 
L 336.62089 304.269417 
L 342.017408 304.269417 
L 343.816248 302.913363 
L 345.615087 302.913363 
L 347.413926 301.557309 
L 349.212766 301.557309 
L 352.810445 298.845202 
L 376.195358 298.845202 
L 379.793037 296.133094 
L 394.183752 296.133094 
L 395.982592 294.77704 
L 401.37911 294.77704 
L 404.976789 292.064933 
L 410.373308 292.064933 
L 412.172147 290.708879 
L 415.769826 290.708879 
L 417.568665 289.352825 
L 426.562863 289.352825 
L 428.361702 287.996771 
L 430.160542 287.996771 
L 431.959381 285.284664 
L 433.758221 285.284664 
L 435.55706 283.92861 
L 444.551257 283.92861 
L 446.350097 282.572556 
L 449.947776 282.572556 
L 451.746615 281.216502 
L 453.545455 281.216502 
L 457.143133 278.504395 
L 469.73501 278.504395 
L 471.533849 277.148341 
L 473.332689 277.148341 
L 475.131528 275.792287 
L 484.125725 275.792287 
L 485.924565 273.080179 
L 487.723404 271.724126 
L 496.717602 271.724126 
L 498.516441 270.368072 
L 505.711799 270.368072 
L 507.510638 267.655964 
L 514.705996 267.655964 
L 518.303675 264.943857 
L 523.700193 264.943857 
L 525.499033 263.587803 
L 547.085106 263.587803 
L 548.883946 260.875695 
L 550.682785 259.519641 
L 565.073501 259.519641 
L 566.87234 258.163587 
L 599.251451 258.163587 
L 601.05029 256.807534 
L 604.647969 256.807534 
L 606.446809 255.45148 
L 611.843327 255.45148 
L 613.642166 254.095426 
L 622.636364 254.095426 
L 622.636364 254.095426 
" clip-path="url(#p0f3063e079)" style="fill: none; stroke: #1f77b4; stroke-width: 1.5; stroke-linecap: square"/>
   </g>
   <g id="line2d_32">
    <path d="M 115.363636 319.186009 
L 127.955513 319.186009 
L 129.754352 317.829955 
L 135.15087 317.829955 
L 136.94971 316.473901 
L 144.145068 316.473901 
L 145.943907 315.117848 
L 151.340426 315.117848 
L 153.139265 313.761794 
L 154.938104 313.761794 
L 156.736944 312.40574 
L 162.133462 312.40574 
L 163.932302 311.049686 
L 167.529981 311.049686 
L 169.32882 309.693632 
L 171.12766 309.693632 
L 174.725338 306.981525 
L 185.518375 306.981525 
L 187.317215 305.625471 
L 189.116054 305.625471 
L 190.914894 304.269417 
L 192.713733 304.269417 
L 194.512573 301.557309 
L 196.311412 297.489148 
L 198.110251 296.133094 
L 205.305609 296.133094 
L 210.702128 292.064933 
L 216.098646 292.064933 
L 219.696325 289.352825 
L 239.483559 289.352825 
L 241.282398 285.284664 
L 243.081238 285.284664 
L 246.678917 279.860448 
L 250.276596 277.148341 
L 252.075435 277.148341 
L 253.874275 274.436233 
L 268.26499 274.436233 
L 270.06383 271.724126 
L 275.460348 271.724126 
L 277.259188 270.368072 
L 289.851064 270.368072 
L 291.649903 269.012018 
L 313.235977 269.012018 
L 315.034816 267.655964 
L 316.833656 267.655964 
L 318.632495 266.29991 
L 324.029014 266.29991 
L 325.827853 264.943857 
L 347.413926 264.943857 
L 349.212766 263.587803 
L 352.810445 263.587803 
L 356.408124 258.163587 
L 360.005803 258.163587 
L 363.603482 255.45148 
L 367.201161 255.45148 
L 369 254.095426 
L 374.396518 254.095426 
L 376.195358 252.739372 
L 397.781431 252.739372 
L 399.580271 251.383318 
L 426.562863 251.383318 
L 428.361702 250.027265 
L 444.551257 250.027265 
L 446.350097 248.671211 
L 449.947776 248.671211 
L 451.746615 247.315157 
L 457.143133 247.315157 
L 460.740812 244.603049 
L 462.539652 244.603049 
L 464.338491 243.246996 
L 471.533849 243.246996 
L 475.131528 240.534888 
L 484.125725 240.534888 
L 485.924565 239.178834 
L 491.321083 239.178834 
L 493.119923 237.82278 
L 502.11412 237.82278 
L 503.912959 236.466726 
L 512.907157 236.466726 
L 514.705996 235.110673 
L 547.085106 235.110673 
L 548.883946 233.754619 
L 550.682785 233.754619 
L 552.481625 232.398565 
L 570.470019 232.398565 
L 572.268859 229.686457 
L 574.067698 229.686457 
L 575.866538 228.330404 
L 593.854932 228.330404 
L 595.653772 226.97435 
L 602.84913 226.97435 
L 604.647969 225.618296 
L 606.446809 225.618296 
L 608.245648 224.262242 
L 622.636364 224.262242 
L 622.636364 224.262242 
" clip-path="url(#p0f3063e079)" style="fill: none; stroke: #ff7f0e; stroke-width: 1.5; stroke-linecap: square"/>
   </g>
   <g id="patch_3">
    <path d="M 90 384.48 
L 90 51.84 
" style="fill: none; stroke: #000000; stroke-width: 0.8; stroke-linejoin: miter; stroke-linecap: square"/>
   </g>
   <g id="patch_4">
    <path d="M 648 384.48 
L 648 51.84 
" style="fill: none; stroke: #000000; stroke-width: 0.8; stroke-linejoin: miter; stroke-linecap: square"/>
   </g>
   <g id="patch_5">
    <path d="M 90 384.48 
L 648 384.48 
" style="fill: none; stroke: #000000; stroke-width: 0.8; stroke-linejoin: miter; stroke-linecap: square"/>
   </g>
   <g id="patch_6">
    <path d="M 90 51.84 
L 648 51.84 
" style="fill: none; stroke: #000000; stroke-width: 0.8; stroke-linejoin: miter; stroke-linecap: square"/>
   </g>
   <g id="text_13">
    <!-- Time Series of Votes for Each Keyword -->
    <g transform="translate(253.716563 45.84) scale(0.12 -0.12)">
     <defs>
      <path id="DejaVuSans-53" d="M 3425 4513 
L 3425 3897 
Q 3066 4069 2747 4153 
Q 2428 4238 2131 4238 
Q 1616 4238 1336 4038 
Q 1056 3838 1056 3469 
Q 1056 3159 1242 3001 
Q 1428 2844 1947 2747 
L 2328 2669 
Q 3034 2534 3370 2195 
Q 3706 1856 3706 1288 
Q 3706 609 3251 259 
Q 2797 -91 1919 -91 
Q 1588 -91 1214 -16 
Q 841 59 441 206 
L 441 856 
Q 825 641 1194 531 
Q 1563 422 1919 422 
Q 2459 422 2753 634 
Q 3047 847 3047 1241 
Q 3047 1584 2836 1778 
Q 2625 1972 2144 2069 
L 1759 2144 
Q 1053 2284 737 2584 
Q 422 2884 422 3419 
Q 422 4038 858 4394 
Q 1294 4750 2059 4750 
Q 2388 4750 2728 4690 
Q 3069 4631 3425 4513 
z
" transform="scale(0.015625)"/>
      <path id="DejaVuSans-72" d="M 2631 2963 
Q 2534 3019 2420 3045 
Q 2306 3072 2169 3072 
Q 1681 3072 1420 2755 
Q 1159 2438 1159 1844 
L 1159 0 
L 581 0 
L 581 3500 
L 1159 3500 
L 1159 2956 
Q 1341 3275 1631 3429 
Q 1922 3584 2338 3584 
Q 2397 3584 2469 3576 
Q 2541 3569 2628 3553 
L 2631 2963 
z
" transform="scale(0.015625)"/>
      <path id="DejaVuSans-66" d="M 2375 4863 
L 2375 4384 
L 1825 4384 
Q 1516 4384 1395 4259 
Q 1275 4134 1275 3809 
L 1275 3500 
L 2222 3500 
L 2222 3053 
L 1275 3053 
L 1275 0 
L 697 0 
L 697 3053 
L 147 3053 
L 147 3500 
L 697 3500 
L 697 3744 
Q 697 4328 969 4595 
Q 1241 4863 1831 4863 
L 2375 4863 
z
" transform="scale(0.015625)"/>
      <path id="DejaVuSans-45" d="M 628 4666 
L 3578 4666 
L 3578 4134 
L 1259 4134 
L 1259 2753 
L 3481 2753 
L 3481 2222 
L 1259 2222 
L 1259 531 
L 3634 531 
L 3634 0 
L 628 0 
L 628 4666 
z
" transform="scale(0.015625)"/>
      <path id="DejaVuSans-63" d="M 3122 3366 
L 3122 2828 
Q 2878 2963 2633 3030 
Q 2388 3097 2138 3097 
Q 1578 3097 1268 2742 
Q 959 2388 959 1747 
Q 959 1106 1268 751 
Q 1578 397 2138 397 
Q 2388 397 2633 464 
Q 2878 531 3122 666 
L 3122 134 
Q 2881 22 2623 -34 
Q 2366 -91 2075 -91 
Q 1284 -91 818 406 
Q 353 903 353 1747 
Q 353 2603 823 3093 
Q 1294 3584 2113 3584 
Q 2378 3584 2631 3529 
Q 2884 3475 3122 3366 
z
" transform="scale(0.015625)"/>
      <path id="DejaVuSans-68" d="M 3513 2113 
L 3513 0 
L 2938 0 
L 2938 2094 
Q 2938 2591 2744 2837 
Q 2550 3084 2163 3084 
Q 1697 3084 1428 2787 
Q 1159 2491 1159 1978 
L 1159 0 
L 581 0 
L 581 4863 
L 1159 4863 
L 1159 2956 
Q 1366 3272 1645 3428 
Q 1925 3584 2291 3584 
Q 2894 3584 3203 3211 
Q 3513 2838 3513 2113 
z
" transform="scale(0.015625)"/>
      <path id="DejaVuSans-4b" d="M 628 4666 
L 1259 4666 
L 1259 2694 
L 3353 4666 
L 4166 4666 
L 1850 2491 
L 4331 0 
L 3500 0 
L 1259 2247 
L 1259 0 
L 628 0 
L 628 4666 
z
" transform="scale(0.015625)"/>
      <path id="DejaVuSans-79" d="M 2059 -325 
Q 1816 -950 1584 -1140 
Q 1353 -1331 966 -1331 
L 506 -1331 
L 506 -850 
L 844 -850 
Q 1081 -850 1212 -737 
Q 1344 -625 1503 -206 
L 1606 56 
L 191 3500 
L 800 3500 
L 1894 763 
L 2988 3500 
L 3597 3500 
L 2059 -325 
z
" transform="scale(0.015625)"/>
      <path id="DejaVuSans-77" d="M 269 3500 
L 844 3500 
L 1563 769 
L 2278 3500 
L 2956 3500 
L 3675 769 
L 4391 3500 
L 4966 3500 
L 4050 0 
L 3372 0 
L 2619 2869 
L 1863 0 
L 1184 0 
L 269 3500 
z
" transform="scale(0.015625)"/>
     </defs>
     <use xlink:href="#DejaVuSans-54"/>
     <use xlink:href="#DejaVuSans-69" transform="translate(57.958984 0)"/>
     <use xlink:href="#DejaVuSans-6d" transform="translate(85.742188 0)"/>
     <use xlink:href="#DejaVuSans-65" transform="translate(183.154297 0)"/>
     <use xlink:href="#DejaVuSans-20" transform="translate(244.677734 0)"/>
     <use xlink:href="#DejaVuSans-53" transform="translate(276.464844 0)"/>
     <use xlink:href="#DejaVuSans-65" transform="translate(339.941406 0)"/>
     <use xlink:href="#DejaVuSans-72" transform="translate(401.464844 0)"/>
     <use xlink:href="#DejaVuSans-69" transform="translate(442.578125 0)"/>
     <use xlink:href="#DejaVuSans-65" transform="translate(470.361328 0)"/>
     <use xlink:href="#DejaVuSans-73" transform="translate(531.884766 0)"/>
     <use xlink:href="#DejaVuSans-20" transform="translate(583.984375 0)"/>
     <use xlink:href="#DejaVuSans-6f" transform="translate(615.771484 0)"/>
     <use xlink:href="#DejaVuSans-66" transform="translate(676.953125 0)"/>
     <use xlink:href="#DejaVuSans-20" transform="translate(712.158203 0)"/>
     <use xlink:href="#DejaVuSans-56" transform="translate(743.945312 0)"/>
     <use xlink:href="#DejaVuSans-6f" transform="translate(804.603516 0)"/>
     <use xlink:href="#DejaVuSans-74" transform="translate(865.785156 0)"/>
     <use xlink:href="#DejaVuSans-65" transform="translate(904.994141 0)"/>
     <use xlink:href="#DejaVuSans-73" transform="translate(966.517578 0)"/>
     <use xlink:href="#DejaVuSans-20" transform="translate(1018.617188 0)"/>
     <use xlink:href="#DejaVuSans-66" transform="translate(1050.404297 0)"/>
     <use xlink:href="#DejaVuSans-6f" transform="translate(1085.609375 0)"/>
     <use xlink:href="#DejaVuSans-72" transform="translate(1146.791016 0)"/>
     <use xlink:href="#DejaVuSans-20" transform="translate(1187.904297 0)"/>
     <use xlink:href="#DejaVuSans-45" transform="translate(1219.691406 0)"/>
     <use xlink:href="#DejaVuSans-61" transform="translate(1282.875 0)"/>
     <use xlink:href="#DejaVuSans-63" transform="translate(1344.154297 0)"/>
     <use xlink:href="#DejaVuSans-68" transform="translate(1399.134766 0)"/>
     <use xlink:href="#DejaVuSans-20" transform="translate(1462.513672 0)"/>
     <use xlink:href="#DejaVuSans-4b" transform="translate(1494.300781 0)"/>
     <use xlink:href="#DejaVuSans-65" transform="translate(1554.876953 0)"/>
     <use xlink:href="#DejaVuSans-79" transform="translate(1616.400391 0)"/>
     <use xlink:href="#DejaVuSans-77" transform="translate(1675.580078 0)"/>
     <use xlink:href="#DejaVuSans-6f" transform="translate(1757.367188 0)"/>
     <use xlink:href="#DejaVuSans-72" transform="translate(1818.548828 0)"/>
     <use xlink:href="#DejaVuSans-64" transform="translate(1857.912109 0)"/>
    </g>
   </g>
   <g id="legend_1">
    <g id="patch_7">
     <path d="M 97 235.9775 
L 149.245313 235.9775 
Q 151.245313 235.9775 151.245313 233.9775 
L 151.245313 58.84 
Q 151.245313 56.84 149.245313 56.84 
L 97 56.84 
Q 95 56.84 95 58.84 
L 95 233.9775 
Q 95 235.9775 97 235.9775 
z
" style="fill: #ffffff; opacity: 0.8; stroke: #cccccc; stroke-linejoin: miter"/>
    </g>
    <g id="line2d_33">
     <path d="M 99 64.938437 
L 109 64.938437 
L 119 64.938437 
" style="fill: none; stroke: #1f77b4; stroke-width: 1.5; stroke-linecap: square"/>
    </g>
    <g id="text_14">
     <!-- H01 -->
     <g transform="translate(127 68.438437) scale(0.1 -0.1)">
      <defs>
       <path id="DejaVuSans-48" d="M 628 4666 
L 1259 4666 
L 1259 2753 
L 3553 2753 
L 3553 4666 
L 4184 4666 
L 4184 0 
L 3553 0 
L 3553 2222 
L 1259 2222 
L 1259 0 
L 628 0 
L 628 4666 
z
" transform="scale(0.015625)"/>
      </defs>
      <use xlink:href="#DejaVuSans-48"/>
      <use xlink:href="#DejaVuSans-30" transform="translate(75.195312 0)"/>
      <use xlink:href="#DejaVuSans-31" transform="translate(138.818359 0)"/>
     </g>
    </g>
    <g id="line2d_34">
     <path d="M 99 79.616562 
L 109 79.616562 
L 119 79.616562 
" style="fill: none; stroke: #ff7f0e; stroke-width: 1.5; stroke-linecap: square"/>
    </g>
    <g id="text_15">
     <!-- H02 -->
     <g transform="translate(127 83.116562) scale(0.1 -0.1)">
      <use xlink:href="#DejaVuSans-48"/>
      <use xlink:href="#DejaVuSans-30" transform="translate(75.195312 0)"/>
      <use xlink:href="#DejaVuSans-32" transform="translate(138.818359 0)"/>
     </g>
    </g>
    <g id="line2d_35">
     <path d="M 99 94.294688 
L 109 94.294688 
L 119 94.294688 
" style="fill: none; stroke: #2ca02c; stroke-width: 1.5; stroke-linecap: square"/>
    </g>
    <g id="text_16">
     <!-- H03 -->
     <g transform="translate(127 97.794688) scale(0.1 -0.1)">
      <defs>
       <path id="DejaVuSans-33" d="M 2597 2516 
Q 3050 2419 3304 2112 
Q 3559 1806 3559 1356 
Q 3559 666 3084 287 
Q 2609 -91 1734 -91 
Q 1441 -91 1130 -33 
Q 819 25 488 141 
L 488 750 
Q 750 597 1062 519 
Q 1375 441 1716 441 
Q 2309 441 2620 675 
Q 2931 909 2931 1356 
Q 2931 1769 2642 2001 
Q 2353 2234 1838 2234 
L 1294 2234 
L 1294 2753 
L 1863 2753 
Q 2328 2753 2575 2939 
Q 2822 3125 2822 3475 
Q 2822 3834 2567 4026 
Q 2313 4219 1838 4219 
Q 1578 4219 1281 4162 
Q 984 4106 628 3988 
L 628 4550 
Q 988 4650 1302 4700 
Q 1616 4750 1894 4750 
Q 2613 4750 3031 4423 
Q 3450 4097 3450 3541 
Q 3450 3153 3228 2886 
Q 3006 2619 2597 2516 
z
" transform="scale(0.015625)"/>
      </defs>
      <use xlink:href="#DejaVuSans-48"/>
      <use xlink:href="#DejaVuSans-30" transform="translate(75.195312 0)"/>
      <use xlink:href="#DejaVuSans-33" transform="translate(138.818359 0)"/>
     </g>
    </g>
    <g id="line2d_36">
     <path d="M 99 108.972812 
L 109 108.972812 
L 119 108.972812 
" style="fill: none; stroke: #d62728; stroke-width: 1.5; stroke-linecap: square"/>
    </g>
    <g id="text_17">
     <!-- H04 -->
     <g transform="translate(127 112.472812) scale(0.1 -0.1)">
      <use xlink:href="#DejaVuSans-48"/>
      <use xlink:href="#DejaVuSans-30" transform="translate(75.195312 0)"/>
      <use xlink:href="#DejaVuSans-34" transform="translate(138.818359 0)"/>
     </g>
    </g>
    <g id="line2d_37">
     <path d="M 99 123.650937 
L 109 123.650937 
L 119 123.650937 
" style="fill: none; stroke: #9467bd; stroke-width: 1.5; stroke-linecap: square"/>
    </g>
    <g id="text_18">
     <!-- H05 -->
     <g transform="translate(127 127.150937) scale(0.1 -0.1)">
      <use xlink:href="#DejaVuSans-48"/>
      <use xlink:href="#DejaVuSans-30" transform="translate(75.195312 0)"/>
      <use xlink:href="#DejaVuSans-35" transform="translate(138.818359 0)"/>
     </g>
    </g>
    <g id="line2d_38">
     <path d="M 99 138.329062 
L 109 138.329062 
L 119 138.329062 
" style="fill: none; stroke: #8c564b; stroke-width: 1.5; stroke-linecap: square"/>
    </g>
    <g id="text_19">
     <!-- H06 -->
     <g transform="translate(127 141.829062) scale(0.1 -0.1)">
      <use xlink:href="#DejaVuSans-48"/>
      <use xlink:href="#DejaVuSans-30" transform="translate(75.195312 0)"/>
      <use xlink:href="#DejaVuSans-36" transform="translate(138.818359 0)"/>
     </g>
    </g>
    <g id="line2d_39">
     <path d="M 99 153.007187 
L 109 153.007187 
L 119 153.007187 
" style="fill: none; stroke: #e377c2; stroke-width: 1.5; stroke-linecap: square"/>
    </g>
    <g id="text_20">
     <!-- H07 -->
     <g transform="translate(127 156.507187) scale(0.1 -0.1)">
      <use xlink:href="#DejaVuSans-48"/>
      <use xlink:href="#DejaVuSans-30" transform="translate(75.195312 0)"/>
      <use xlink:href="#DejaVuSans-37" transform="translate(138.818359 0)"/>
     </g>
    </g>
    <g id="line2d_40">
     <path d="M 99 167.685312 
L 109 167.685312 
L 119 167.685312 
" style="fill: none; stroke: #7f7f7f; stroke-width: 1.5; stroke-linecap: square"/>
    </g>
    <g id="text_21">
     <!-- H08 -->
     <g transform="translate(127 171.185312) scale(0.1 -0.1)">
      <use xlink:href="#DejaVuSans-48"/>
      <use xlink:href="#DejaVuSans-30" transform="translate(75.195312 0)"/>
      <use xlink:href="#DejaVuSans-38" transform="translate(138.818359 0)"/>
     </g>
    </g>
    <g id="line2d_41">
     <path d="M 99 182.363437 
L 109 182.363437 
L 119 182.363437 
" style="fill: none; stroke: #bcbd22; stroke-width: 1.5; stroke-linecap: square"/>
    </g>
    <g id="text_22">
     <!-- H09 -->
     <g transform="translate(127 185.863437) scale(0.1 -0.1)">
      <defs>
       <path id="DejaVuSans-39" d="M 703 97 
L 703 672 
Q 941 559 1184 500 
Q 1428 441 1663 441 
Q 2288 441 2617 861 
Q 2947 1281 2994 2138 
Q 2813 1869 2534 1725 
Q 2256 1581 1919 1581 
Q 1219 1581 811 2004 
Q 403 2428 403 3163 
Q 403 3881 828 4315 
Q 1253 4750 1959 4750 
Q 2769 4750 3195 4129 
Q 3622 3509 3622 2328 
Q 3622 1225 3098 567 
Q 2575 -91 1691 -91 
Q 1453 -91 1209 -44 
Q 966 3 703 97 
z
M 1959 2075 
Q 2384 2075 2632 2365 
Q 2881 2656 2881 3163 
Q 2881 3666 2632 3958 
Q 2384 4250 1959 4250 
Q 1534 4250 1286 3958 
Q 1038 3666 1038 3163 
Q 1038 2656 1286 2365 
Q 1534 2075 1959 2075 
z
" transform="scale(0.015625)"/>
      </defs>
      <use xlink:href="#DejaVuSans-48"/>
      <use xlink:href="#DejaVuSans-30" transform="translate(75.195312 0)"/>
      <use xlink:href="#DejaVuSans-39" transform="translate(138.818359 0)"/>
     </g>
    </g>
    <g id="line2d_42">
     <path d="M 99 197.041562 
L 109 197.041562 
L 119 197.041562 
" style="fill: none; stroke: #17becf; stroke-width: 1.5; stroke-linecap: square"/>
    </g>
    <g id="text_23">
     <!-- H10 -->
     <g transform="translate(127 200.541562) scale(0.1 -0.1)">
      <use xlink:href="#DejaVuSans-48"/>
      <use xlink:href="#DejaVuSans-31" transform="translate(75.195312 0)"/>
      <use xlink:href="#DejaVuSans-30" transform="translate(138.818359 0)"/>
     </g>
    </g>
    <g id="line2d_43">
     <path d="M 99 211.719687 
L 109 211.719687 
L 119 211.719687 
" style="fill: none; stroke: #1f77b4; stroke-width: 1.5; stroke-linecap: square"/>
    </g>
    <g id="text_24">
     <!-- H11 -->
     <g transform="translate(127 215.219687) scale(0.1 -0.1)">
      <use xlink:href="#DejaVuSans-48"/>
      <use xlink:href="#DejaVuSans-31" transform="translate(75.195312 0)"/>
      <use xlink:href="#DejaVuSans-31" transform="translate(138.818359 0)"/>
     </g>
    </g>
    <g id="line2d_44">
     <path d="M 99 226.397812 
L 109 226.397812 
L 119 226.397812 
" style="fill: none; stroke: #ff7f0e; stroke-width: 1.5; stroke-linecap: square"/>
    </g>
    <g id="text_25">
     <!-- H12 -->
     <g transform="translate(127 229.897812) scale(0.1 -0.1)">
      <use xlink:href="#DejaVuSans-48"/>
      <use xlink:href="#DejaVuSans-31" transform="translate(75.195312 0)"/>
      <use xlink:href="#DejaVuSans-32" transform="translate(138.818359 0)"/>
     </g>
    </g>
   </g>
  </g>
 </g>
 <defs>
  <clipPath id="p0f3063e079">
   <rect x="90" y="51.84" width="558" height="332.64"/>
  </clipPath>
 </defs>
</svg>
