<?xml version="1.0" encoding="utf-8" standalone="no"?>
<!DOCTYPE svg PUBLIC "-//W3C//DTD SVG 1.1//EN"
  "http://www.w3.org/Graphics/SVG/1.1/DTD/svg11.dtd">
<svg xmlns:xlink="http://www.w3.org/1999/xlink" width="720pt" height="432pt" viewBox="0 0 720 432" xmlns="http://www.w3.org/2000/svg" version="1.1">
 <metadata>
  <rdf:RDF xmlns:dc="http://purl.org/dc/elements/1.1/" xmlns:cc="http://creativecommons.org/ns#" xmlns:rdf="http://www.w3.org/1999/02/22-rdf-syntax-ns#">
   <cc:Work>
    <dc:type rdf:resource="http://purl.org/dc/dcmitype/StillImage"/>
    <dc:date>2025-01-15T11:43:42.829458</dc:date>
    <dc:format>image/svg+xml</dc:format>
    <dc:creator>
     <cc:Agent>
      <dc:title>Matplotlib v3.10.0, https://matplotlib.org/</dc:title>
     </cc:Agent>
    </dc:creator>
   </cc:Work>
  </rdf:RDF>
 </metadata>
 <defs>
  <style type="text/css">*{stroke-linejoin: round; stroke-linecap: butt}</style>
 </defs>
 <g id="figure_1">
  <g id="patch_1">
   <path d="M 0 432 
L 720 432 
L 720 0 
L 0 0 
z
" style="fill: #ffffff"/>
  </g>
  <g id="axes_1">
   <g id="patch_2">
    <path d="M 90 384.48 
L 648 384.48 
L 648 51.84 
L 90 51.84 
z
" style="fill: #ffffff"/>
   </g>
   <g id="matplotlib.axis_1">
    <g id="xtick_1">
     <g id="line2d_1">
      <path d="M 134.327103 384.48 
L 134.327103 51.84 
" clip-path="url(#pa9a40e4608)" style="fill: none; stroke: #b0b0b0; stroke-width: 0.8; stroke-linecap: square"/>
     </g>
     <g id="line2d_2">
      <defs>
       <path id="m817370809c" d="M 0 0 
L 0 3.5 
" style="stroke: #000000; stroke-width: 0.8"/>
      </defs>
      <g>
       <use xlink:href="#m817370809c" x="134.327103" y="384.48" style="stroke: #000000; stroke-width: 0.8"/>
      </g>
     </g>
     <g id="text_1">
      <!-- 15 10:00 -->
      <g transform="translate(111.966165 399.078438) scale(0.1 -0.1)">
       <defs>
        <path id="DejaVuSans-31" d="M 794 531 
L 1825 531 
L 1825 4091 
L 703 3866 
L 703 4441 
L 1819 4666 
L 2450 4666 
L 2450 531 
L 3481 531 
L 3481 0 
L 794 0 
L 794 531 
z
" transform="scale(0.015625)"/>
        <path id="DejaVuSans-35" d="M 691 4666 
L 3169 4666 
L 3169 4134 
L 1269 4134 
L 1269 2991 
Q 1406 3038 1543 3061 
Q 1681 3084 1819 3084 
Q 2600 3084 3056 2656 
Q 3513 2228 3513 1497 
Q 3513 744 3044 326 
Q 2575 -91 1722 -91 
Q 1428 -91 1123 -41 
Q 819 9 494 109 
L 494 744 
Q 775 591 1075 516 
Q 1375 441 1709 441 
Q 2250 441 2565 725 
Q 2881 1009 2881 1497 
Q 2881 1984 2565 2268 
Q 2250 2553 1709 2553 
Q 1456 2553 1204 2497 
Q 953 2441 691 2322 
L 691 4666 
z
" transform="scale(0.015625)"/>
        <path id="DejaVuSans-20" transform="scale(0.015625)"/>
        <path id="DejaVuSans-30" d="M 2034 4250 
Q 1547 4250 1301 3770 
Q 1056 3291 1056 2328 
Q 1056 1369 1301 889 
Q 1547 409 2034 409 
Q 2525 409 2770 889 
Q 3016 1369 3016 2328 
Q 3016 3291 2770 3770 
Q 2525 4250 2034 4250 
z
M 2034 4750 
Q 2819 4750 3233 4129 
Q 3647 3509 3647 2328 
Q 3647 1150 3233 529 
Q 2819 -91 2034 -91 
Q 1250 -91 836 529 
Q 422 1150 422 2328 
Q 422 3509 836 4129 
Q 1250 4750 2034 4750 
z
" transform="scale(0.015625)"/>
        <path id="DejaVuSans-3a" d="M 750 794 
L 1409 794 
L 1409 0 
L 750 0 
L 750 794 
z
M 750 3309 
L 1409 3309 
L 1409 2516 
L 750 2516 
L 750 3309 
z
" transform="scale(0.015625)"/>
       </defs>
       <use xlink:href="#DejaVuSans-31"/>
       <use xlink:href="#DejaVuSans-35" transform="translate(63.623047 0)"/>
       <use xlink:href="#DejaVuSans-20" transform="translate(127.246094 0)"/>
       <use xlink:href="#DejaVuSans-31" transform="translate(159.033203 0)"/>
       <use xlink:href="#DejaVuSans-30" transform="translate(222.65625 0)"/>
       <use xlink:href="#DejaVuSans-3a" transform="translate(286.279297 0)"/>
       <use xlink:href="#DejaVuSans-30" transform="translate(319.970703 0)"/>
       <use xlink:href="#DejaVuSans-30" transform="translate(383.59375 0)"/>
      </g>
     </g>
    </g>
    <g id="xtick_2">
     <g id="line2d_3">
      <path d="M 205.440102 384.48 
L 205.440102 51.84 
" clip-path="url(#pa9a40e4608)" style="fill: none; stroke: #b0b0b0; stroke-width: 0.8; stroke-linecap: square"/>
     </g>
     <g id="line2d_4">
      <g>
       <use xlink:href="#m817370809c" x="205.440102" y="384.48" style="stroke: #000000; stroke-width: 0.8"/>
      </g>
     </g>
     <g id="text_2">
      <!-- 15 10:15 -->
      <g transform="translate(183.079164 399.078438) scale(0.1 -0.1)">
       <use xlink:href="#DejaVuSans-31"/>
       <use xlink:href="#DejaVuSans-35" transform="translate(63.623047 0)"/>
       <use xlink:href="#DejaVuSans-20" transform="translate(127.246094 0)"/>
       <use xlink:href="#DejaVuSans-31" transform="translate(159.033203 0)"/>
       <use xlink:href="#DejaVuSans-30" transform="translate(222.65625 0)"/>
       <use xlink:href="#DejaVuSans-3a" transform="translate(286.279297 0)"/>
       <use xlink:href="#DejaVuSans-31" transform="translate(319.970703 0)"/>
       <use xlink:href="#DejaVuSans-35" transform="translate(383.59375 0)"/>
      </g>
     </g>
    </g>
    <g id="xtick_3">
     <g id="line2d_5">
      <path d="M 276.553101 384.48 
L 276.553101 51.84 
" clip-path="url(#pa9a40e4608)" style="fill: none; stroke: #b0b0b0; stroke-width: 0.8; stroke-linecap: square"/>
     </g>
     <g id="line2d_6">
      <g>
       <use xlink:href="#m817370809c" x="276.553101" y="384.48" style="stroke: #000000; stroke-width: 0.8"/>
      </g>
     </g>
     <g id="text_3">
      <!-- 15 10:30 -->
      <g transform="translate(254.192164 399.078438) scale(0.1 -0.1)">
       <defs>
        <path id="DejaVuSans-33" d="M 2597 2516 
Q 3050 2419 3304 2112 
Q 3559 1806 3559 1356 
Q 3559 666 3084 287 
Q 2609 -91 1734 -91 
Q 1441 -91 1130 -33 
Q 819 25 488 141 
L 488 750 
Q 750 597 1062 519 
Q 1375 441 1716 441 
Q 2309 441 2620 675 
Q 2931 909 2931 1356 
Q 2931 1769 2642 2001 
Q 2353 2234 1838 2234 
L 1294 2234 
L 1294 2753 
L 1863 2753 
Q 2328 2753 2575 2939 
Q 2822 3125 2822 3475 
Q 2822 3834 2567 4026 
Q 2313 4219 1838 4219 
Q 1578 4219 1281 4162 
Q 984 4106 628 3988 
L 628 4550 
Q 988 4650 1302 4700 
Q 1616 4750 1894 4750 
Q 2613 4750 3031 4423 
Q 3450 4097 3450 3541 
Q 3450 3153 3228 2886 
Q 3006 2619 2597 2516 
z
" transform="scale(0.015625)"/>
       </defs>
       <use xlink:href="#DejaVuSans-31"/>
       <use xlink:href="#DejaVuSans-35" transform="translate(63.623047 0)"/>
       <use xlink:href="#DejaVuSans-20" transform="translate(127.246094 0)"/>
       <use xlink:href="#DejaVuSans-31" transform="translate(159.033203 0)"/>
       <use xlink:href="#DejaVuSans-30" transform="translate(222.65625 0)"/>
       <use xlink:href="#DejaVuSans-3a" transform="translate(286.279297 0)"/>
       <use xlink:href="#DejaVuSans-33" transform="translate(319.970703 0)"/>
       <use xlink:href="#DejaVuSans-30" transform="translate(383.59375 0)"/>
      </g>
     </g>
    </g>
    <g id="xtick_4">
     <g id="line2d_7">
      <path d="M 347.6661 384.48 
L 347.6661 51.84 
" clip-path="url(#pa9a40e4608)" style="fill: none; stroke: #b0b0b0; stroke-width: 0.8; stroke-linecap: square"/>
     </g>
     <g id="line2d_8">
      <g>
       <use xlink:href="#m817370809c" x="347.6661" y="384.48" style="stroke: #000000; stroke-width: 0.8"/>
      </g>
     </g>
     <g id="text_4">
      <!-- 15 10:45 -->
      <g transform="translate(325.305163 399.078438) scale(0.1 -0.1)">
       <defs>
        <path id="DejaVuSans-34" d="M 2419 4116 
L 825 1625 
L 2419 1625 
L 2419 4116 
z
M 2253 4666 
L 3047 4666 
L 3047 1625 
L 3713 1625 
L 3713 1100 
L 3047 1100 
L 3047 0 
L 2419 0 
L 2419 1100 
L 313 1100 
L 313 1709 
L 2253 4666 
z
" transform="scale(0.015625)"/>
       </defs>
       <use xlink:href="#DejaVuSans-31"/>
       <use xlink:href="#DejaVuSans-35" transform="translate(63.623047 0)"/>
       <use xlink:href="#DejaVuSans-20" transform="translate(127.246094 0)"/>
       <use xlink:href="#DejaVuSans-31" transform="translate(159.033203 0)"/>
       <use xlink:href="#DejaVuSans-30" transform="translate(222.65625 0)"/>
       <use xlink:href="#DejaVuSans-3a" transform="translate(286.279297 0)"/>
       <use xlink:href="#DejaVuSans-34" transform="translate(319.970703 0)"/>
       <use xlink:href="#DejaVuSans-35" transform="translate(383.59375 0)"/>
      </g>
     </g>
    </g>
    <g id="xtick_5">
     <g id="line2d_9">
      <path d="M 418.779099 384.48 
L 418.779099 51.84 
" clip-path="url(#pa9a40e4608)" style="fill: none; stroke: #b0b0b0; stroke-width: 0.8; stroke-linecap: square"/>
     </g>
     <g id="line2d_10">
      <g>
       <use xlink:href="#m817370809c" x="418.779099" y="384.48" style="stroke: #000000; stroke-width: 0.8"/>
      </g>
     </g>
     <g id="text_5">
      <!-- 15 11:00 -->
      <g transform="translate(396.418162 399.078438) scale(0.1 -0.1)">
       <use xlink:href="#DejaVuSans-31"/>
       <use xlink:href="#DejaVuSans-35" transform="translate(63.623047 0)"/>
       <use xlink:href="#DejaVuSans-20" transform="translate(127.246094 0)"/>
       <use xlink:href="#DejaVuSans-31" transform="translate(159.033203 0)"/>
       <use xlink:href="#DejaVuSans-31" transform="translate(222.65625 0)"/>
       <use xlink:href="#DejaVuSans-3a" transform="translate(286.279297 0)"/>
       <use xlink:href="#DejaVuSans-30" transform="translate(319.970703 0)"/>
       <use xlink:href="#DejaVuSans-30" transform="translate(383.59375 0)"/>
      </g>
     </g>
    </g>
    <g id="xtick_6">
     <g id="line2d_11">
      <path d="M 489.892099 384.48 
L 489.892099 51.84 
" clip-path="url(#pa9a40e4608)" style="fill: none; stroke: #b0b0b0; stroke-width: 0.8; stroke-linecap: square"/>
     </g>
     <g id="line2d_12">
      <g>
       <use xlink:href="#m817370809c" x="489.892099" y="384.48" style="stroke: #000000; stroke-width: 0.8"/>
      </g>
     </g>
     <g id="text_6">
      <!-- 15 11:15 -->
      <g transform="translate(467.531161 399.078438) scale(0.1 -0.1)">
       <use xlink:href="#DejaVuSans-31"/>
       <use xlink:href="#DejaVuSans-35" transform="translate(63.623047 0)"/>
       <use xlink:href="#DejaVuSans-20" transform="translate(127.246094 0)"/>
       <use xlink:href="#DejaVuSans-31" transform="translate(159.033203 0)"/>
       <use xlink:href="#DejaVuSans-31" transform="translate(222.65625 0)"/>
       <use xlink:href="#DejaVuSans-3a" transform="translate(286.279297 0)"/>
       <use xlink:href="#DejaVuSans-31" transform="translate(319.970703 0)"/>
       <use xlink:href="#DejaVuSans-35" transform="translate(383.59375 0)"/>
      </g>
     </g>
    </g>
    <g id="xtick_7">
     <g id="line2d_13">
      <path d="M 561.005098 384.48 
L 561.005098 51.84 
" clip-path="url(#pa9a40e4608)" style="fill: none; stroke: #b0b0b0; stroke-width: 0.8; stroke-linecap: square"/>
     </g>
     <g id="line2d_14">
      <g>
       <use xlink:href="#m817370809c" x="561.005098" y="384.48" style="stroke: #000000; stroke-width: 0.8"/>
      </g>
     </g>
     <g id="text_7">
      <!-- 15 11:30 -->
      <g transform="translate(538.64416 399.078438) scale(0.1 -0.1)">
       <use xlink:href="#DejaVuSans-31"/>
       <use xlink:href="#DejaVuSans-35" transform="translate(63.623047 0)"/>
       <use xlink:href="#DejaVuSans-20" transform="translate(127.246094 0)"/>
       <use xlink:href="#DejaVuSans-31" transform="translate(159.033203 0)"/>
       <use xlink:href="#DejaVuSans-31" transform="translate(222.65625 0)"/>
       <use xlink:href="#DejaVuSans-3a" transform="translate(286.279297 0)"/>
       <use xlink:href="#DejaVuSans-33" transform="translate(319.970703 0)"/>
       <use xlink:href="#DejaVuSans-30" transform="translate(383.59375 0)"/>
      </g>
     </g>
    </g>
    <g id="xtick_8">
     <g id="line2d_15">
      <path d="M 632.118097 384.48 
L 632.118097 51.84 
" clip-path="url(#pa9a40e4608)" style="fill: none; stroke: #b0b0b0; stroke-width: 0.8; stroke-linecap: square"/>
     </g>
     <g id="line2d_16">
      <g>
       <use xlink:href="#m817370809c" x="632.118097" y="384.48" style="stroke: #000000; stroke-width: 0.8"/>
      </g>
     </g>
     <g id="text_8">
      <!-- 15 11:45 -->
      <g transform="translate(609.757159 399.078438) scale(0.1 -0.1)">
       <use xlink:href="#DejaVuSans-31"/>
       <use xlink:href="#DejaVuSans-35" transform="translate(63.623047 0)"/>
       <use xlink:href="#DejaVuSans-20" transform="translate(127.246094 0)"/>
       <use xlink:href="#DejaVuSans-31" transform="translate(159.033203 0)"/>
       <use xlink:href="#DejaVuSans-31" transform="translate(222.65625 0)"/>
       <use xlink:href="#DejaVuSans-3a" transform="translate(286.279297 0)"/>
       <use xlink:href="#DejaVuSans-34" transform="translate(319.970703 0)"/>
       <use xlink:href="#DejaVuSans-35" transform="translate(383.59375 0)"/>
      </g>
     </g>
    </g>
    <g id="text_9">
     <!-- Date and Time -->
     <g transform="translate(332.230469 412.756563) scale(0.1 -0.1)">
      <defs>
       <path id="DejaVuSans-44" d="M 1259 4147 
L 1259 519 
L 2022 519 
Q 2988 519 3436 956 
Q 3884 1394 3884 2338 
Q 3884 3275 3436 3711 
Q 2988 4147 2022 4147 
L 1259 4147 
z
M 628 4666 
L 1925 4666 
Q 3281 4666 3915 4102 
Q 4550 3538 4550 2338 
Q 4550 1131 3912 565 
Q 3275 0 1925 0 
L 628 0 
L 628 4666 
z
" transform="scale(0.015625)"/>
       <path id="DejaVuSans-61" d="M 2194 1759 
Q 1497 1759 1228 1600 
Q 959 1441 959 1056 
Q 959 750 1161 570 
Q 1363 391 1709 391 
Q 2188 391 2477 730 
Q 2766 1069 2766 1631 
L 2766 1759 
L 2194 1759 
z
M 3341 1997 
L 3341 0 
L 2766 0 
L 2766 531 
Q 2569 213 2275 61 
Q 1981 -91 1556 -91 
Q 1019 -91 701 211 
Q 384 513 384 1019 
Q 384 1609 779 1909 
Q 1175 2209 1959 2209 
L 2766 2209 
L 2766 2266 
Q 2766 2663 2505 2880 
Q 2244 3097 1772 3097 
Q 1472 3097 1187 3025 
Q 903 2953 641 2809 
L 641 3341 
Q 956 3463 1253 3523 
Q 1550 3584 1831 3584 
Q 2591 3584 2966 3190 
Q 3341 2797 3341 1997 
z
" transform="scale(0.015625)"/>
       <path id="DejaVuSans-74" d="M 1172 4494 
L 1172 3500 
L 2356 3500 
L 2356 3053 
L 1172 3053 
L 1172 1153 
Q 1172 725 1289 603 
Q 1406 481 1766 481 
L 2356 481 
L 2356 0 
L 1766 0 
Q 1100 0 847 248 
Q 594 497 594 1153 
L 594 3053 
L 172 3053 
L 172 3500 
L 594 3500 
L 594 4494 
L 1172 4494 
z
" transform="scale(0.015625)"/>
       <path id="DejaVuSans-65" d="M 3597 1894 
L 3597 1613 
L 953 1613 
Q 991 1019 1311 708 
Q 1631 397 2203 397 
Q 2534 397 2845 478 
Q 3156 559 3463 722 
L 3463 178 
Q 3153 47 2828 -22 
Q 2503 -91 2169 -91 
Q 1331 -91 842 396 
Q 353 884 353 1716 
Q 353 2575 817 3079 
Q 1281 3584 2069 3584 
Q 2775 3584 3186 3129 
Q 3597 2675 3597 1894 
z
M 3022 2063 
Q 3016 2534 2758 2815 
Q 2500 3097 2075 3097 
Q 1594 3097 1305 2825 
Q 1016 2553 972 2059 
L 3022 2063 
z
" transform="scale(0.015625)"/>
       <path id="DejaVuSans-6e" d="M 3513 2113 
L 3513 0 
L 2938 0 
L 2938 2094 
Q 2938 2591 2744 2837 
Q 2550 3084 2163 3084 
Q 1697 3084 1428 2787 
Q 1159 2491 1159 1978 
L 1159 0 
L 581 0 
L 581 3500 
L 1159 3500 
L 1159 2956 
Q 1366 3272 1645 3428 
Q 1925 3584 2291 3584 
Q 2894 3584 3203 3211 
Q 3513 2838 3513 2113 
z
" transform="scale(0.015625)"/>
       <path id="DejaVuSans-64" d="M 2906 2969 
L 2906 4863 
L 3481 4863 
L 3481 0 
L 2906 0 
L 2906 525 
Q 2725 213 2448 61 
Q 2172 -91 1784 -91 
Q 1150 -91 751 415 
Q 353 922 353 1747 
Q 353 2572 751 3078 
Q 1150 3584 1784 3584 
Q 2172 3584 2448 3432 
Q 2725 3281 2906 2969 
z
M 947 1747 
Q 947 1113 1208 752 
Q 1469 391 1925 391 
Q 2381 391 2643 752 
Q 2906 1113 2906 1747 
Q 2906 2381 2643 2742 
Q 2381 3103 1925 3103 
Q 1469 3103 1208 2742 
Q 947 2381 947 1747 
z
" transform="scale(0.015625)"/>
       <path id="DejaVuSans-54" d="M -19 4666 
L 3928 4666 
L 3928 4134 
L 2272 4134 
L 2272 0 
L 1638 0 
L 1638 4134 
L -19 4134 
L -19 4666 
z
" transform="scale(0.015625)"/>
       <path id="DejaVuSans-69" d="M 603 3500 
L 1178 3500 
L 1178 0 
L 603 0 
L 603 3500 
z
M 603 4863 
L 1178 4863 
L 1178 4134 
L 603 4134 
L 603 4863 
z
" transform="scale(0.015625)"/>
       <path id="DejaVuSans-6d" d="M 3328 2828 
Q 3544 3216 3844 3400 
Q 4144 3584 4550 3584 
Q 5097 3584 5394 3201 
Q 5691 2819 5691 2113 
L 5691 0 
L 5113 0 
L 5113 2094 
Q 5113 2597 4934 2840 
Q 4756 3084 4391 3084 
Q 3944 3084 3684 2787 
Q 3425 2491 3425 1978 
L 3425 0 
L 2847 0 
L 2847 2094 
Q 2847 2600 2669 2842 
Q 2491 3084 2119 3084 
Q 1678 3084 1418 2786 
Q 1159 2488 1159 1978 
L 1159 0 
L 581 0 
L 581 3500 
L 1159 3500 
L 1159 2956 
Q 1356 3278 1631 3431 
Q 1906 3584 2284 3584 
Q 2666 3584 2933 3390 
Q 3200 3197 3328 2828 
z
" transform="scale(0.015625)"/>
      </defs>
      <use xlink:href="#DejaVuSans-44"/>
      <use xlink:href="#DejaVuSans-61" transform="translate(77.001953 0)"/>
      <use xlink:href="#DejaVuSans-74" transform="translate(138.28125 0)"/>
      <use xlink:href="#DejaVuSans-65" transform="translate(177.490234 0)"/>
      <use xlink:href="#DejaVuSans-20" transform="translate(239.013672 0)"/>
      <use xlink:href="#DejaVuSans-61" transform="translate(270.800781 0)"/>
      <use xlink:href="#DejaVuSans-6e" transform="translate(332.080078 0)"/>
      <use xlink:href="#DejaVuSans-64" transform="translate(395.458984 0)"/>
      <use xlink:href="#DejaVuSans-20" transform="translate(458.935547 0)"/>
      <use xlink:href="#DejaVuSans-54" transform="translate(490.722656 0)"/>
      <use xlink:href="#DejaVuSans-69" transform="translate(548.681641 0)"/>
      <use xlink:href="#DejaVuSans-6d" transform="translate(576.464844 0)"/>
      <use xlink:href="#DejaVuSans-65" transform="translate(673.876953 0)"/>
     </g>
    </g>
   </g>
   <g id="matplotlib.axis_2">
    <g id="ytick_1">
     <g id="line2d_17">
      <path d="M 90 370.896976 
L 648 370.896976 
" clip-path="url(#pa9a40e4608)" style="fill: none; stroke: #b0b0b0; stroke-width: 0.8; stroke-linecap: square"/>
     </g>
     <g id="line2d_18">
      <defs>
       <path id="mbdda3f5303" d="M 0 0 
L -3.5 0 
" style="stroke: #000000; stroke-width: 0.8"/>
      </defs>
      <g>
       <use xlink:href="#mbdda3f5303" x="90" y="370.896976" style="stroke: #000000; stroke-width: 0.8"/>
      </g>
     </g>
     <g id="text_10">
      <!-- 0 -->
      <g transform="translate(76.6375 374.696195) scale(0.1 -0.1)">
       <use xlink:href="#DejaVuSans-30"/>
      </g>
     </g>
    </g>
    <g id="ytick_2">
     <g id="line2d_19">
      <path d="M 90 332.472579 
L 648 332.472579 
" clip-path="url(#pa9a40e4608)" style="fill: none; stroke: #b0b0b0; stroke-width: 0.8; stroke-linecap: square"/>
     </g>
     <g id="line2d_20">
      <g>
       <use xlink:href="#mbdda3f5303" x="90" y="332.472579" style="stroke: #000000; stroke-width: 0.8"/>
      </g>
     </g>
     <g id="text_11">
      <!-- 100 -->
      <g transform="translate(63.9125 336.271798) scale(0.1 -0.1)">
       <use xlink:href="#DejaVuSans-31"/>
       <use xlink:href="#DejaVuSans-30" transform="translate(63.623047 0)"/>
       <use xlink:href="#DejaVuSans-30" transform="translate(127.246094 0)"/>
      </g>
     </g>
    </g>
    <g id="ytick_3">
     <g id="line2d_21">
      <path d="M 90 294.048183 
L 648 294.048183 
" clip-path="url(#pa9a40e4608)" style="fill: none; stroke: #b0b0b0; stroke-width: 0.8; stroke-linecap: square"/>
     </g>
     <g id="line2d_22">
      <g>
       <use xlink:href="#mbdda3f5303" x="90" y="294.048183" style="stroke: #000000; stroke-width: 0.8"/>
      </g>
     </g>
     <g id="text_12">
      <!-- 200 -->
      <g transform="translate(63.9125 297.847402) scale(0.1 -0.1)">
       <defs>
        <path id="DejaVuSans-32" d="M 1228 531 
L 3431 531 
L 3431 0 
L 469 0 
L 469 531 
Q 828 903 1448 1529 
Q 2069 2156 2228 2338 
Q 2531 2678 2651 2914 
Q 2772 3150 2772 3378 
Q 2772 3750 2511 3984 
Q 2250 4219 1831 4219 
Q 1534 4219 1204 4116 
Q 875 4013 500 3803 
L 500 4441 
Q 881 4594 1212 4672 
Q 1544 4750 1819 4750 
Q 2544 4750 2975 4387 
Q 3406 4025 3406 3419 
Q 3406 3131 3298 2873 
Q 3191 2616 2906 2266 
Q 2828 2175 2409 1742 
Q 1991 1309 1228 531 
z
" transform="scale(0.015625)"/>
       </defs>
       <use xlink:href="#DejaVuSans-32"/>
       <use xlink:href="#DejaVuSans-30" transform="translate(63.623047 0)"/>
       <use xlink:href="#DejaVuSans-30" transform="translate(127.246094 0)"/>
      </g>
     </g>
    </g>
    <g id="ytick_4">
     <g id="line2d_23">
      <path d="M 90 255.623787 
L 648 255.623787 
" clip-path="url(#pa9a40e4608)" style="fill: none; stroke: #b0b0b0; stroke-width: 0.8; stroke-linecap: square"/>
     </g>
     <g id="line2d_24">
      <g>
       <use xlink:href="#mbdda3f5303" x="90" y="255.623787" style="stroke: #000000; stroke-width: 0.8"/>
      </g>
     </g>
     <g id="text_13">
      <!-- 300 -->
      <g transform="translate(63.9125 259.423005) scale(0.1 -0.1)">
       <use xlink:href="#DejaVuSans-33"/>
       <use xlink:href="#DejaVuSans-30" transform="translate(63.623047 0)"/>
       <use xlink:href="#DejaVuSans-30" transform="translate(127.246094 0)"/>
      </g>
     </g>
    </g>
    <g id="ytick_5">
     <g id="line2d_25">
      <path d="M 90 217.19939 
L 648 217.19939 
" clip-path="url(#pa9a40e4608)" style="fill: none; stroke: #b0b0b0; stroke-width: 0.8; stroke-linecap: square"/>
     </g>
     <g id="line2d_26">
      <g>
       <use xlink:href="#mbdda3f5303" x="90" y="217.19939" style="stroke: #000000; stroke-width: 0.8"/>
      </g>
     </g>
     <g id="text_14">
      <!-- 400 -->
      <g transform="translate(63.9125 220.998609) scale(0.1 -0.1)">
       <use xlink:href="#DejaVuSans-34"/>
       <use xlink:href="#DejaVuSans-30" transform="translate(63.623047 0)"/>
       <use xlink:href="#DejaVuSans-30" transform="translate(127.246094 0)"/>
      </g>
     </g>
    </g>
    <g id="ytick_6">
     <g id="line2d_27">
      <path d="M 90 178.774994 
L 648 178.774994 
" clip-path="url(#pa9a40e4608)" style="fill: none; stroke: #b0b0b0; stroke-width: 0.8; stroke-linecap: square"/>
     </g>
     <g id="line2d_28">
      <g>
       <use xlink:href="#mbdda3f5303" x="90" y="178.774994" style="stroke: #000000; stroke-width: 0.8"/>
      </g>
     </g>
     <g id="text_15">
      <!-- 500 -->
      <g transform="translate(63.9125 182.574212) scale(0.1 -0.1)">
       <use xlink:href="#DejaVuSans-35"/>
       <use xlink:href="#DejaVuSans-30" transform="translate(63.623047 0)"/>
       <use xlink:href="#DejaVuSans-30" transform="translate(127.246094 0)"/>
      </g>
     </g>
    </g>
    <g id="ytick_7">
     <g id="line2d_29">
      <path d="M 90 140.350597 
L 648 140.350597 
" clip-path="url(#pa9a40e4608)" style="fill: none; stroke: #b0b0b0; stroke-width: 0.8; stroke-linecap: square"/>
     </g>
     <g id="line2d_30">
      <g>
       <use xlink:href="#mbdda3f5303" x="90" y="140.350597" style="stroke: #000000; stroke-width: 0.8"/>
      </g>
     </g>
     <g id="text_16">
      <!-- 600 -->
      <g transform="translate(63.9125 144.149816) scale(0.1 -0.1)">
       <defs>
        <path id="DejaVuSans-36" d="M 2113 2584 
Q 1688 2584 1439 2293 
Q 1191 2003 1191 1497 
Q 1191 994 1439 701 
Q 1688 409 2113 409 
Q 2538 409 2786 701 
Q 3034 994 3034 1497 
Q 3034 2003 2786 2293 
Q 2538 2584 2113 2584 
z
M 3366 4563 
L 3366 3988 
Q 3128 4100 2886 4159 
Q 2644 4219 2406 4219 
Q 1781 4219 1451 3797 
Q 1122 3375 1075 2522 
Q 1259 2794 1537 2939 
Q 1816 3084 2150 3084 
Q 2853 3084 3261 2657 
Q 3669 2231 3669 1497 
Q 3669 778 3244 343 
Q 2819 -91 2113 -91 
Q 1303 -91 875 529 
Q 447 1150 447 2328 
Q 447 3434 972 4092 
Q 1497 4750 2381 4750 
Q 2619 4750 2861 4703 
Q 3103 4656 3366 4563 
z
" transform="scale(0.015625)"/>
       </defs>
       <use xlink:href="#DejaVuSans-36"/>
       <use xlink:href="#DejaVuSans-30" transform="translate(63.623047 0)"/>
       <use xlink:href="#DejaVuSans-30" transform="translate(127.246094 0)"/>
      </g>
     </g>
    </g>
    <g id="ytick_8">
     <g id="line2d_31">
      <path d="M 90 101.926201 
L 648 101.926201 
" clip-path="url(#pa9a40e4608)" style="fill: none; stroke: #b0b0b0; stroke-width: 0.8; stroke-linecap: square"/>
     </g>
     <g id="line2d_32">
      <g>
       <use xlink:href="#mbdda3f5303" x="90" y="101.926201" style="stroke: #000000; stroke-width: 0.8"/>
      </g>
     </g>
     <g id="text_17">
      <!-- 700 -->
      <g transform="translate(63.9125 105.72542) scale(0.1 -0.1)">
       <defs>
        <path id="DejaVuSans-37" d="M 525 4666 
L 3525 4666 
L 3525 4397 
L 1831 0 
L 1172 0 
L 2766 4134 
L 525 4134 
L 525 4666 
z
" transform="scale(0.015625)"/>
       </defs>
       <use xlink:href="#DejaVuSans-37"/>
       <use xlink:href="#DejaVuSans-30" transform="translate(63.623047 0)"/>
       <use xlink:href="#DejaVuSans-30" transform="translate(127.246094 0)"/>
      </g>
     </g>
    </g>
    <g id="ytick_9">
     <g id="line2d_33">
      <path d="M 90 63.501804 
L 648 63.501804 
" clip-path="url(#pa9a40e4608)" style="fill: none; stroke: #b0b0b0; stroke-width: 0.8; stroke-linecap: square"/>
     </g>
     <g id="line2d_34">
      <g>
       <use xlink:href="#mbdda3f5303" x="90" y="63.501804" style="stroke: #000000; stroke-width: 0.8"/>
      </g>
     </g>
     <g id="text_18">
      <!-- 800 -->
      <g transform="translate(63.9125 67.301023) scale(0.1 -0.1)">
       <defs>
        <path id="DejaVuSans-38" d="M 2034 2216 
Q 1584 2216 1326 1975 
Q 1069 1734 1069 1313 
Q 1069 891 1326 650 
Q 1584 409 2034 409 
Q 2484 409 2743 651 
Q 3003 894 3003 1313 
Q 3003 1734 2745 1975 
Q 2488 2216 2034 2216 
z
M 1403 2484 
Q 997 2584 770 2862 
Q 544 3141 544 3541 
Q 544 4100 942 4425 
Q 1341 4750 2034 4750 
Q 2731 4750 3128 4425 
Q 3525 4100 3525 3541 
Q 3525 3141 3298 2862 
Q 3072 2584 2669 2484 
Q 3125 2378 3379 2068 
Q 3634 1759 3634 1313 
Q 3634 634 3220 271 
Q 2806 -91 2034 -91 
Q 1263 -91 848 271 
Q 434 634 434 1313 
Q 434 1759 690 2068 
Q 947 2378 1403 2484 
z
M 1172 3481 
Q 1172 3119 1398 2916 
Q 1625 2713 2034 2713 
Q 2441 2713 2670 2916 
Q 2900 3119 2900 3481 
Q 2900 3844 2670 4047 
Q 2441 4250 2034 4250 
Q 1625 4250 1398 4047 
Q 1172 3844 1172 3481 
z
" transform="scale(0.015625)"/>
       </defs>
       <use xlink:href="#DejaVuSans-38"/>
       <use xlink:href="#DejaVuSans-30" transform="translate(63.623047 0)"/>
       <use xlink:href="#DejaVuSans-30" transform="translate(127.246094 0)"/>
      </g>
     </g>
    </g>
    <g id="text_19">
     <!-- Votes -->
     <g transform="translate(57.832812 231.893594) rotate(-90) scale(0.1 -0.1)">
      <defs>
       <path id="DejaVuSans-56" d="M 1831 0 
L 50 4666 
L 709 4666 
L 2188 738 
L 3669 4666 
L 4325 4666 
L 2547 0 
L 1831 0 
z
" transform="scale(0.015625)"/>
       <path id="DejaVuSans-6f" d="M 1959 3097 
Q 1497 3097 1228 2736 
Q 959 2375 959 1747 
Q 959 1119 1226 758 
Q 1494 397 1959 397 
Q 2419 397 2687 759 
Q 2956 1122 2956 1747 
Q 2956 2369 2687 2733 
Q 2419 3097 1959 3097 
z
M 1959 3584 
Q 2709 3584 3137 3096 
Q 3566 2609 3566 1747 
Q 3566 888 3137 398 
Q 2709 -91 1959 -91 
Q 1206 -91 779 398 
Q 353 888 353 1747 
Q 353 2609 779 3096 
Q 1206 3584 1959 3584 
z
" transform="scale(0.015625)"/>
       <path id="DejaVuSans-73" d="M 2834 3397 
L 2834 2853 
Q 2591 2978 2328 3040 
Q 2066 3103 1784 3103 
Q 1356 3103 1142 2972 
Q 928 2841 928 2578 
Q 928 2378 1081 2264 
Q 1234 2150 1697 2047 
L 1894 2003 
Q 2506 1872 2764 1633 
Q 3022 1394 3022 966 
Q 3022 478 2636 193 
Q 2250 -91 1575 -91 
Q 1294 -91 989 -36 
Q 684 19 347 128 
L 347 722 
Q 666 556 975 473 
Q 1284 391 1588 391 
Q 1994 391 2212 530 
Q 2431 669 2431 922 
Q 2431 1156 2273 1281 
Q 2116 1406 1581 1522 
L 1381 1569 
Q 847 1681 609 1914 
Q 372 2147 372 2553 
Q 372 3047 722 3315 
Q 1072 3584 1716 3584 
Q 2034 3584 2315 3537 
Q 2597 3491 2834 3397 
z
" transform="scale(0.015625)"/>
      </defs>
      <use xlink:href="#DejaVuSans-56"/>
      <use xlink:href="#DejaVuSans-6f" transform="translate(60.658203 0)"/>
      <use xlink:href="#DejaVuSans-74" transform="translate(121.839844 0)"/>
      <use xlink:href="#DejaVuSans-65" transform="translate(161.048828 0)"/>
      <use xlink:href="#DejaVuSans-73" transform="translate(222.572266 0)"/>
     </g>
    </g>
   </g>
   <g id="line2d_35">
    <path d="M 115.363636 318.255553 
L 120.104503 318.255553 
L 124.84537 318.255553 
L 129.586236 318.255553 
L 134.327103 318.255553 
L 139.067969 318.255553 
L 143.808836 318.255553 
L 148.549703 317.871309 
L 153.290569 317.871309 
L 158.031436 317.871309 
L 162.772302 317.871309 
L 167.513169 317.871309 
L 172.254036 317.871309 
L 176.994902 317.871309 
L 181.735769 317.871309 
L 186.476636 317.871309 
L 191.217502 317.871309 
L 195.958369 317.871309 
L 200.699235 317.871309 
L 205.440102 317.871309 
L 210.180969 317.871309 
L 214.921835 317.871309 
L 219.662702 317.871309 
L 224.403568 317.871309 
L 229.144435 317.871309 
L 233.885302 317.871309 
L 238.626168 317.871309 
L 243.367035 317.871309 
L 248.107901 317.871309 
L 252.848768 317.871309 
L 257.589635 317.871309 
L 262.330501 317.871309 
L 267.071368 317.871309 
L 271.812234 317.487065 
L 276.553101 317.487065 
L 281.293968 317.487065 
L 286.034834 317.487065 
L 290.775701 317.487065 
L 295.516568 317.487065 
L 300.257434 317.487065 
L 304.998301 317.487065 
L 309.739167 317.487065 
L 314.480034 317.487065 
L 319.220901 317.487065 
L 323.961767 317.102821 
L 328.702634 317.102821 
L 333.4435 316.718577 
L 338.184367 316.718577 
L 342.925234 316.718577 
L 347.6661 316.718577 
L 352.406967 316.334333 
L 357.147833 316.334333 
L 361.8887 316.334333 
L 366.629567 316.334333 
L 371.370433 315.950089 
L 376.1113 315.950089 
L 380.852167 315.950089 
L 385.593033 315.950089 
L 390.3339 315.950089 
L 395.074766 315.950089 
L 399.815633 315.950089 
L 404.5565 315.950089 
L 409.297366 315.950089 
L 414.038233 315.950089 
L 418.779099 315.950089 
L 423.519966 315.950089 
L 428.260833 315.565845 
L 433.001699 315.565845 
L 437.742566 315.565845 
L 442.483432 315.565845 
L 447.224299 315.565845 
L 451.965166 315.565845 
L 456.706032 315.565845 
L 461.446899 315.565845 
L 466.187766 315.565845 
L 470.928632 315.565845 
L 475.669499 315.565845 
L 480.410365 315.181601 
L 485.151232 315.181601 
L 489.892099 315.181601 
L 494.632965 315.181601 
L 499.373832 315.181601 
L 504.114698 314.413113 
L 508.855565 314.413113 
L 513.596432 314.413113 
L 518.337298 314.413113 
L 523.078165 314.413113 
L 527.819031 314.413113 
L 532.559898 314.413113 
L 537.300765 314.413113 
L 542.041631 314.413113 
L 546.782498 314.413113 
L 551.523364 314.413113 
L 556.264231 314.413113 
L 561.005098 314.413113 
L 565.745964 314.413113 
L 570.486831 314.413113 
L 575.227698 314.413113 
L 579.968564 314.028869 
L 584.709431 314.028869 
L 589.450297 314.028869 
L 594.191164 314.028869 
L 598.932031 314.028869 
L 603.672897 314.028869 
L 608.413764 314.028869 
L 613.15463 313.644625 
L 617.895497 313.644625 
L 622.636364 313.644625 
" clip-path="url(#pa9a40e4608)" style="fill: none; stroke: #1f77b4; stroke-width: 1.5; stroke-linecap: square"/>
   </g>
   <g id="line2d_36">
    <path d="M 115.363636 199.908412 
L 120.104503 199.524168 
L 124.84537 198.75568 
L 129.586236 198.371436 
L 134.327103 197.987192 
L 139.067969 197.602948 
L 143.808836 197.987192 
L 148.549703 196.450216 
L 153.290569 196.065972 
L 158.031436 194.144752 
L 162.772302 192.99202 
L 167.513169 191.839288 
L 172.254036 190.302313 
L 176.994902 190.302313 
L 181.735769 188.765337 
L 186.476636 187.996849 
L 191.217502 186.075629 
L 195.958369 180.696213 
L 200.699235 176.46953 
L 205.440102 173.011334 
L 210.180969 170.70587 
L 214.921835 169.168895 
L 219.662702 167.247675 
L 224.403568 166.094943 
L 229.144435 164.557967 
L 233.885302 162.252503 
L 238.626168 160.715527 
L 243.367035 159.562795 
L 248.107901 156.488844 
L 252.848768 153.799136 
L 257.589635 152.646404 
L 262.330501 150.34094 
L 267.071368 147.651233 
L 271.812234 146.114257 
L 276.553101 145.730013 
L 281.293968 144.193037 
L 286.034834 141.887573 
L 290.775701 138.429377 
L 295.516568 134.202694 
L 300.257434 131.512986 
L 304.998301 129.591766 
L 309.739167 128.05479 
L 314.480034 126.517814 
L 319.220901 123.828107 
L 323.961767 122.675375 
L 328.702634 119.985667 
L 333.4435 118.832935 
L 338.184367 118.064447 
L 342.925234 116.911715 
L 347.6661 116.143227 
L 352.406967 115.37474 
L 357.147833 114.606252 
L 361.8887 114.222008 
L 366.629567 113.45352 
L 371.370433 112.300788 
L 376.1113 110.763812 
L 380.852167 110.379568 
L 385.593033 109.61108 
L 390.3339 108.842592 
L 395.074766 108.458348 
L 399.815633 107.305616 
L 404.5565 106.152884 
L 409.297366 105.76864 
L 414.038233 105.384396 
L 418.779099 103.847421 
L 423.519966 103.078933 
L 428.260833 100.773469 
L 433.001699 100.004981 
L 437.742566 98.852249 
L 442.483432 97.699517 
L 447.224299 97.315273 
L 451.965166 96.931029 
L 456.706032 95.778297 
L 461.446899 95.009809 
L 466.187766 94.625565 
L 470.928632 92.704346 
L 475.669499 91.935858 
L 480.410365 91.935858 
L 485.151232 91.935858 
L 489.892099 90.783126 
L 494.632965 89.630394 
L 499.373832 88.477662 
L 504.114698 86.940686 
L 508.855565 86.940686 
L 513.596432 86.172198 
L 518.337298 86.172198 
L 523.078165 84.635222 
L 527.819031 83.866734 
L 532.559898 83.48249 
L 537.300765 83.48249 
L 542.041631 83.48249 
L 546.782498 83.098247 
L 551.523364 82.714003 
L 556.264231 82.714003 
L 561.005098 81.945515 
L 565.745964 80.024295 
L 570.486831 78.487319 
L 575.227698 76.950343 
L 579.968564 75.797611 
L 584.709431 75.029123 
L 589.450297 73.492147 
L 594.191164 72.723659 
L 598.932031 71.955172 
L 603.672897 70.418196 
L 608.413764 70.033952 
L 613.15463 69.265464 
L 617.895497 68.112732 
L 622.636364 66.96 
" clip-path="url(#pa9a40e4608)" style="fill: none; stroke: #ff7f0e; stroke-width: 1.5; stroke-linecap: square"/>
   </g>
   <g id="line2d_37">
    <path d="M 115.363636 308.26521 
L 120.104503 308.26521 
L 124.84537 307.880966 
L 129.586236 307.880966 
L 134.327103 307.880966 
L 139.067969 307.880966 
L 143.808836 307.880966 
L 148.549703 307.880966 
L 153.290569 307.880966 
L 158.031436 307.880966 
L 162.772302 307.880966 
L 167.513169 307.880966 
L 172.254036 307.880966 
L 176.994902 307.880966 
L 181.735769 307.880966 
L 186.476636 307.880966 
L 191.217502 307.880966 
L 195.958369 307.880966 
L 200.699235 307.880966 
L 205.440102 307.880966 
L 210.180969 307.880966 
L 214.921835 307.880966 
L 219.662702 307.880966 
L 224.403568 307.880966 
L 229.144435 307.880966 
L 233.885302 307.880966 
L 238.626168 307.112478 
L 243.367035 306.728234 
L 248.107901 305.959746 
L 252.848768 305.959746 
L 257.589635 305.575502 
L 262.330501 305.575502 
L 267.071368 305.575502 
L 271.812234 305.575502 
L 276.553101 305.575502 
L 281.293968 305.575502 
L 286.034834 305.575502 
L 290.775701 305.575502 
L 295.516568 305.575502 
L 300.257434 305.575502 
L 304.998301 305.575502 
L 309.739167 305.575502 
L 314.480034 305.575502 
L 319.220901 305.575502 
L 323.961767 305.191258 
L 328.702634 305.191258 
L 333.4435 304.42277 
L 338.184367 304.42277 
L 342.925234 304.42277 
L 347.6661 304.42277 
L 352.406967 304.42277 
L 357.147833 304.42277 
L 361.8887 304.42277 
L 366.629567 304.038526 
L 371.370433 304.038526 
L 376.1113 304.038526 
L 380.852167 304.038526 
L 385.593033 304.038526 
L 390.3339 304.038526 
L 395.074766 304.038526 
L 399.815633 304.038526 
L 404.5565 304.038526 
L 409.297366 304.038526 
L 414.038233 304.038526 
L 418.779099 304.038526 
L 423.519966 304.038526 
L 428.260833 304.038526 
L 433.001699 304.038526 
L 437.742566 304.038526 
L 442.483432 304.038526 
L 447.224299 304.038526 
L 451.965166 304.038526 
L 456.706032 304.038526 
L 461.446899 303.654282 
L 466.187766 303.270038 
L 470.928632 303.270038 
L 475.669499 303.270038 
L 480.410365 303.270038 
L 485.151232 303.270038 
L 489.892099 303.270038 
L 494.632965 302.885794 
L 499.373832 302.885794 
L 504.114698 302.885794 
L 508.855565 302.885794 
L 513.596432 302.885794 
L 518.337298 302.885794 
L 523.078165 302.885794 
L 527.819031 302.885794 
L 532.559898 302.885794 
L 537.300765 302.885794 
L 542.041631 302.885794 
L 546.782498 302.885794 
L 551.523364 302.885794 
L 556.264231 302.885794 
L 561.005098 302.885794 
L 565.745964 302.885794 
L 570.486831 302.885794 
L 575.227698 302.885794 
L 579.968564 302.885794 
L 584.709431 302.885794 
L 589.450297 302.885794 
L 594.191164 302.885794 
L 598.932031 302.885794 
L 603.672897 302.885794 
L 608.413764 302.885794 
L 613.15463 302.50155 
L 617.895497 302.50155 
L 622.636364 302.50155 
" clip-path="url(#pa9a40e4608)" style="fill: none; stroke: #2ca02c; stroke-width: 1.5; stroke-linecap: square"/>
   </g>
   <g id="line2d_38">
    <path d="M 115.363636 369.36 
L 120.104503 369.36 
L 124.84537 369.36 
L 129.586236 369.36 
L 134.327103 369.36 
L 139.067969 369.36 
L 143.808836 369.36 
L 148.549703 369.36 
L 153.290569 369.36 
L 158.031436 369.36 
L 162.772302 369.36 
L 167.513169 369.36 
L 172.254036 369.36 
L 176.994902 369.36 
L 181.735769 369.36 
L 186.476636 369.36 
L 191.217502 369.36 
L 195.958369 369.36 
L 200.699235 369.36 
L 205.440102 369.36 
L 210.180969 369.36 
L 214.921835 369.36 
L 219.662702 369.36 
L 224.403568 369.36 
L 229.144435 369.36 
L 233.885302 369.36 
L 238.626168 369.36 
L 243.367035 369.36 
L 248.107901 369.36 
L 252.848768 369.36 
L 257.589635 369.36 
L 262.330501 369.36 
L 267.071368 368.975756 
L 271.812234 368.591512 
L 276.553101 368.591512 
L 281.293968 368.591512 
L 286.034834 368.591512 
L 290.775701 368.591512 
L 295.516568 368.591512 
L 300.257434 368.591512 
L 304.998301 368.591512 
L 309.739167 368.591512 
L 314.480034 368.591512 
L 319.220901 368.591512 
L 323.961767 368.591512 
L 328.702634 368.591512 
L 333.4435 368.591512 
L 338.184367 368.591512 
L 342.925234 368.591512 
L 347.6661 368.591512 
L 352.406967 368.591512 
L 357.147833 368.591512 
L 361.8887 368.591512 
L 366.629567 368.591512 
L 371.370433 368.591512 
L 376.1113 368.591512 
L 380.852167 368.591512 
L 385.593033 368.591512 
L 390.3339 368.207268 
L 395.074766 368.207268 
L 399.815633 368.207268 
L 404.5565 368.207268 
L 409.297366 368.207268 
L 414.038233 368.207268 
L 418.779099 368.207268 
L 423.519966 368.207268 
L 428.260833 368.207268 
L 433.001699 368.207268 
L 437.742566 368.207268 
L 442.483432 368.207268 
L 447.224299 368.207268 
L 451.965166 368.207268 
L 456.706032 368.207268 
L 461.446899 368.207268 
L 466.187766 368.207268 
L 470.928632 368.207268 
L 475.669499 368.207268 
L 480.410365 368.207268 
L 485.151232 368.207268 
L 489.892099 368.207268 
L 494.632965 368.207268 
L 499.373832 368.207268 
L 504.114698 368.207268 
L 508.855565 368.207268 
L 513.596432 368.207268 
L 518.337298 368.207268 
L 523.078165 368.207268 
L 527.819031 368.207268 
L 532.559898 368.207268 
L 537.300765 368.207268 
L 542.041631 368.207268 
L 546.782498 368.207268 
L 551.523364 368.207268 
L 556.264231 368.207268 
L 561.005098 368.207268 
L 565.745964 368.207268 
L 570.486831 368.207268 
L 575.227698 368.207268 
L 579.968564 368.207268 
L 584.709431 368.207268 
L 589.450297 368.207268 
L 594.191164 368.207268 
L 598.932031 368.207268 
L 603.672897 368.207268 
L 608.413764 368.207268 
L 613.15463 368.207268 
L 617.895497 368.207268 
L 622.636364 368.207268 
" clip-path="url(#pa9a40e4608)" style="fill: none; stroke: #d62728; stroke-width: 1.5; stroke-linecap: square"/>
   </g>
   <g id="line2d_39">
    <path d="M 115.363636 354.374485 
L 120.104503 354.374485 
L 124.84537 354.374485 
L 129.586236 354.374485 
L 134.327103 354.374485 
L 139.067969 354.374485 
L 143.808836 354.374485 
L 148.549703 354.374485 
L 153.290569 354.374485 
L 158.031436 354.374485 
L 162.772302 354.374485 
L 167.513169 354.374485 
L 172.254036 354.374485 
L 176.994902 354.374485 
L 181.735769 354.374485 
L 186.476636 354.374485 
L 191.217502 354.374485 
L 195.958369 354.374485 
L 200.699235 354.374485 
L 205.440102 354.374485 
L 210.180969 354.374485 
L 214.921835 354.374485 
L 219.662702 354.374485 
L 224.403568 354.374485 
L 229.144435 354.374485 
L 233.885302 354.374485 
L 238.626168 354.374485 
L 243.367035 354.374485 
L 248.107901 354.374485 
L 252.848768 354.374485 
L 257.589635 354.374485 
L 262.330501 354.374485 
L 267.071368 354.374485 
L 271.812234 354.374485 
L 276.553101 354.374485 
L 281.293968 354.374485 
L 286.034834 353.990241 
L 290.775701 353.990241 
L 295.516568 353.990241 
L 300.257434 353.990241 
L 304.998301 353.990241 
L 309.739167 353.990241 
L 314.480034 353.990241 
L 319.220901 353.990241 
L 323.961767 353.990241 
L 328.702634 353.990241 
L 333.4435 353.990241 
L 338.184367 353.990241 
L 342.925234 353.990241 
L 347.6661 353.990241 
L 352.406967 353.990241 
L 357.147833 353.990241 
L 361.8887 353.990241 
L 366.629567 353.990241 
L 371.370433 353.990241 
L 376.1113 353.990241 
L 380.852167 353.990241 
L 385.593033 353.990241 
L 390.3339 353.990241 
L 395.074766 353.990241 
L 399.815633 353.990241 
L 404.5565 353.990241 
L 409.297366 353.990241 
L 414.038233 353.990241 
L 418.779099 353.990241 
L 423.519966 353.990241 
L 428.260833 353.990241 
L 433.001699 353.990241 
L 437.742566 353.990241 
L 442.483432 353.990241 
L 447.224299 353.990241 
L 451.965166 353.990241 
L 456.706032 353.990241 
L 461.446899 353.990241 
L 466.187766 353.990241 
L 470.928632 353.990241 
L 475.669499 353.990241 
L 480.410365 353.221753 
L 485.151232 353.221753 
L 489.892099 353.221753 
L 494.632965 353.221753 
L 499.373832 353.221753 
L 504.114698 353.221753 
L 508.855565 353.221753 
L 513.596432 353.221753 
L 518.337298 353.221753 
L 523.078165 353.221753 
L 527.819031 353.221753 
L 532.559898 353.221753 
L 537.300765 352.83751 
L 542.041631 352.83751 
L 546.782498 352.83751 
L 551.523364 352.83751 
L 556.264231 352.83751 
L 561.005098 352.83751 
L 565.745964 352.83751 
L 570.486831 352.83751 
L 575.227698 352.83751 
L 579.968564 352.83751 
L 584.709431 352.83751 
L 589.450297 352.83751 
L 594.191164 352.83751 
L 598.932031 352.83751 
L 603.672897 352.83751 
L 608.413764 352.83751 
L 613.15463 352.83751 
L 617.895497 352.83751 
L 622.636364 352.83751 
" clip-path="url(#pa9a40e4608)" style="fill: none; stroke: #9467bd; stroke-width: 1.5; stroke-linecap: square"/>
   </g>
   <g id="line2d_40">
    <path d="M 115.363636 356.295705 
L 120.104503 356.295705 
L 124.84537 356.295705 
L 129.586236 356.295705 
L 134.327103 356.295705 
L 139.067969 356.295705 
L 143.808836 356.295705 
L 148.549703 356.295705 
L 153.290569 356.295705 
L 158.031436 356.295705 
L 162.772302 356.295705 
L 167.513169 356.295705 
L 172.254036 356.295705 
L 176.994902 356.295705 
L 181.735769 356.295705 
L 186.476636 356.295705 
L 191.217502 356.295705 
L 195.958369 356.295705 
L 200.699235 356.295705 
L 205.440102 356.295705 
L 210.180969 356.295705 
L 214.921835 356.295705 
L 219.662702 356.295705 
L 224.403568 356.295705 
L 229.144435 356.295705 
L 233.885302 356.295705 
L 238.626168 356.295705 
L 243.367035 356.295705 
L 248.107901 356.295705 
L 252.848768 356.295705 
L 257.589635 356.295705 
L 262.330501 356.295705 
L 267.071368 356.295705 
L 271.812234 356.295705 
L 276.553101 355.911461 
L 281.293968 355.911461 
L 286.034834 355.911461 
L 290.775701 356.295705 
L 295.516568 355.911461 
L 300.257434 355.911461 
L 304.998301 355.911461 
L 309.739167 355.911461 
L 314.480034 355.911461 
L 319.220901 355.911461 
L 323.961767 355.911461 
L 328.702634 355.911461 
L 333.4435 355.911461 
L 338.184367 355.911461 
L 342.925234 355.911461 
L 347.6661 355.911461 
L 352.406967 355.911461 
L 357.147833 355.911461 
L 361.8887 355.911461 
L 366.629567 355.911461 
L 371.370433 355.911461 
L 376.1113 355.911461 
L 380.852167 355.911461 
L 385.593033 355.911461 
L 390.3339 355.911461 
L 395.074766 355.911461 
L 399.815633 355.911461 
L 404.5565 355.911461 
L 409.297366 355.911461 
L 414.038233 355.911461 
L 418.779099 355.911461 
L 423.519966 355.911461 
L 428.260833 355.911461 
L 433.001699 355.911461 
L 437.742566 355.911461 
L 442.483432 355.911461 
L 447.224299 355.911461 
L 451.965166 355.911461 
L 456.706032 355.911461 
L 461.446899 355.911461 
L 466.187766 355.527217 
L 470.928632 355.527217 
L 475.669499 355.911461 
L 480.410365 355.911461 
L 485.151232 355.911461 
L 489.892099 355.911461 
L 494.632965 355.911461 
L 499.373832 355.911461 
L 504.114698 355.911461 
L 508.855565 355.911461 
L 513.596432 355.911461 
L 518.337298 355.911461 
L 523.078165 355.911461 
L 527.819031 355.911461 
L 532.559898 355.911461 
L 537.300765 355.911461 
L 542.041631 355.911461 
L 546.782498 355.911461 
L 551.523364 355.911461 
L 556.264231 355.911461 
L 561.005098 355.911461 
L 565.745964 355.911461 
L 570.486831 355.527217 
L 575.227698 355.527217 
L 579.968564 355.527217 
L 584.709431 355.527217 
L 589.450297 355.527217 
L 594.191164 355.527217 
L 598.932031 355.527217 
L 603.672897 355.527217 
L 608.413764 355.527217 
L 613.15463 355.527217 
L 617.895497 355.527217 
L 622.636364 355.527217 
" clip-path="url(#pa9a40e4608)" style="fill: none; stroke: #8c564b; stroke-width: 1.5; stroke-linecap: square"/>
   </g>
   <g id="line2d_41">
    <path d="M 115.363636 203.750851 
L 120.104503 202.982363 
L 124.84537 201.829632 
L 129.586236 201.061144 
L 134.327103 199.139924 
L 139.067969 197.987192 
L 143.808836 196.450216 
L 148.549703 194.91324 
L 153.290569 193.376264 
L 158.031436 191.455044 
L 162.772302 190.686557 
L 167.513169 189.918069 
L 172.254036 189.149581 
L 176.994902 187.996849 
L 181.735769 185.307141 
L 186.476636 183.770165 
L 191.217502 182.617433 
L 195.958369 180.696213 
L 200.699235 179.159238 
L 205.440102 176.46953 
L 210.180969 175.316798 
L 214.921835 174.164066 
L 219.662702 171.474358 
L 224.403568 170.321626 
L 229.144435 169.168895 
L 233.885302 168.400407 
L 238.626168 165.710699 
L 243.367035 163.020991 
L 248.107901 161.099771 
L 252.848768 161.099771 
L 257.589635 159.562795 
L 262.330501 157.257332 
L 267.071368 156.1046 
L 271.812234 154.567624 
L 276.553101 154.18338 
L 281.293968 152.26216 
L 286.034834 151.109428 
L 290.775701 149.572452 
L 295.516568 146.114257 
L 300.257434 144.577281 
L 304.998301 143.424549 
L 309.739167 141.887573 
L 314.480034 141.503329 
L 319.220901 140.350597 
L 323.961767 139.966353 
L 328.702634 139.197865 
L 333.4435 137.660889 
L 338.184367 136.892402 
L 342.925234 135.355426 
L 347.6661 134.586938 
L 352.406967 132.665718 
L 357.147833 132.665718 
L 361.8887 130.360254 
L 366.629567 129.591766 
L 371.370433 128.823278 
L 376.1113 127.286302 
L 380.852167 125.749327 
L 385.593033 124.596595 
L 390.3339 123.828107 
L 395.074766 123.059619 
L 399.815633 122.675375 
L 404.5565 121.906887 
L 409.297366 121.906887 
L 414.038233 121.906887 
L 418.779099 121.138399 
L 423.519966 119.985667 
L 428.260833 119.601423 
L 433.001699 117.680203 
L 437.742566 117.295959 
L 442.483432 115.758983 
L 447.224299 114.606252 
L 451.965166 113.837764 
L 456.706032 112.300788 
L 461.446899 110.763812 
L 466.187766 109.226836 
L 470.928632 108.842592 
L 475.669499 108.458348 
L 480.410365 108.074104 
L 485.151232 106.152884 
L 489.892099 105.000152 
L 494.632965 104.231665 
L 499.373832 103.078933 
L 504.114698 101.541957 
L 508.855565 100.389225 
L 513.596432 99.620737 
L 518.337298 99.620737 
L 523.078165 98.852249 
L 527.819031 98.852249 
L 532.559898 98.468005 
L 537.300765 98.468005 
L 542.041631 96.931029 
L 546.782498 94.241321 
L 551.523364 92.704346 
L 556.264231 90.398882 
L 561.005098 88.093418 
L 565.745964 86.172198 
L 570.486831 84.250978 
L 575.227698 82.714003 
L 579.968564 81.561271 
L 584.709431 80.408539 
L 589.450297 80.024295 
L 594.191164 79.640051 
L 598.932031 78.103075 
L 603.672897 77.334587 
L 608.413764 75.797611 
L 613.15463 74.260635 
L 617.895497 72.339416 
L 622.636364 70.033952 
" clip-path="url(#pa9a40e4608)" style="fill: none; stroke: #e377c2; stroke-width: 1.5; stroke-linecap: square"/>
   </g>
   <g id="line2d_42">
    <path d="M 115.363636 287.516036 
L 120.104503 287.516036 
L 124.84537 287.516036 
L 129.586236 287.516036 
L 134.327103 287.516036 
L 139.067969 286.747548 
L 143.808836 286.747548 
L 148.549703 286.747548 
L 153.290569 286.747548 
L 158.031436 286.747548 
L 162.772302 286.747548 
L 167.513169 286.747548 
L 172.254036 286.747548 
L 176.994902 286.747548 
L 181.735769 286.747548 
L 186.476636 286.363304 
L 191.217502 286.363304 
L 195.958369 286.363304 
L 200.699235 285.97906 
L 205.440102 285.97906 
L 210.180969 285.97906 
L 214.921835 285.97906 
L 219.662702 285.97906 
L 224.403568 285.97906 
L 229.144435 285.594816 
L 233.885302 282.905108 
L 238.626168 282.905108 
L 243.367035 282.905108 
L 248.107901 282.905108 
L 252.848768 282.905108 
L 257.589635 282.905108 
L 262.330501 282.905108 
L 267.071368 282.905108 
L 271.812234 282.520864 
L 276.553101 282.520864 
L 281.293968 282.520864 
L 286.034834 282.520864 
L 290.775701 282.520864 
L 295.516568 282.520864 
L 300.257434 282.13662 
L 304.998301 282.13662 
L 309.739167 281.752376 
L 314.480034 281.752376 
L 319.220901 281.752376 
L 323.961767 281.368132 
L 328.702634 281.368132 
L 333.4435 281.368132 
L 338.184367 281.368132 
L 342.925234 281.368132 
L 347.6661 281.368132 
L 352.406967 281.368132 
L 357.147833 281.368132 
L 361.8887 280.983888 
L 366.629567 280.983888 
L 371.370433 280.983888 
L 376.1113 280.983888 
L 380.852167 280.599644 
L 385.593033 280.599644 
L 390.3339 280.599644 
L 395.074766 280.599644 
L 399.815633 280.599644 
L 404.5565 280.599644 
L 409.297366 280.599644 
L 414.038233 280.2154 
L 418.779099 279.831156 
L 423.519966 279.831156 
L 428.260833 279.831156 
L 433.001699 279.831156 
L 437.742566 279.446912 
L 442.483432 279.446912 
L 447.224299 279.446912 
L 451.965166 279.446912 
L 456.706032 279.446912 
L 461.446899 279.446912 
L 466.187766 279.446912 
L 470.928632 279.446912 
L 475.669499 279.446912 
L 480.410365 279.446912 
L 485.151232 279.446912 
L 489.892099 279.062668 
L 494.632965 279.062668 
L 499.373832 279.062668 
L 504.114698 279.062668 
L 508.855565 279.062668 
L 513.596432 279.062668 
L 518.337298 279.062668 
L 523.078165 279.062668 
L 527.819031 278.678424 
L 532.559898 278.678424 
L 537.300765 278.678424 
L 542.041631 278.678424 
L 546.782498 278.29418 
L 551.523364 277.909936 
L 556.264231 277.909936 
L 561.005098 277.909936 
L 565.745964 277.909936 
L 570.486831 277.909936 
L 575.227698 277.909936 
L 579.968564 277.909936 
L 584.709431 277.909936 
L 589.450297 277.525693 
L 594.191164 277.525693 
L 598.932031 277.141449 
L 603.672897 277.141449 
L 608.413764 277.141449 
L 613.15463 277.141449 
L 617.895497 277.141449 
L 622.636364 277.141449 
" clip-path="url(#pa9a40e4608)" style="fill: none; stroke: #7f7f7f; stroke-width: 1.5; stroke-linecap: square"/>
   </g>
   <g id="line2d_43">
    <path d="M 115.363636 348.226582 
L 120.104503 348.226582 
L 124.84537 348.226582 
L 129.586236 348.226582 
L 134.327103 348.226582 
L 139.067969 348.226582 
L 143.808836 348.226582 
L 148.549703 348.226582 
L 153.290569 348.226582 
L 158.031436 348.226582 
L 162.772302 348.226582 
L 167.513169 348.226582 
L 172.254036 348.226582 
L 176.994902 348.226582 
L 181.735769 348.226582 
L 186.476636 348.226582 
L 191.217502 348.226582 
L 195.958369 348.226582 
L 200.699235 348.226582 
L 205.440102 348.226582 
L 210.180969 348.226582 
L 214.921835 348.226582 
L 219.662702 348.226582 
L 224.403568 348.226582 
L 229.144435 348.226582 
L 233.885302 348.226582 
L 238.626168 348.226582 
L 243.367035 348.226582 
L 248.107901 348.226582 
L 252.848768 348.226582 
L 257.589635 348.226582 
L 262.330501 348.226582 
L 267.071368 348.226582 
L 271.812234 348.226582 
L 276.553101 348.226582 
L 281.293968 348.226582 
L 286.034834 348.226582 
L 290.775701 348.226582 
L 295.516568 348.226582 
L 300.257434 348.226582 
L 304.998301 348.226582 
L 309.739167 348.226582 
L 314.480034 348.226582 
L 319.220901 348.226582 
L 323.961767 348.226582 
L 328.702634 348.226582 
L 333.4435 348.226582 
L 338.184367 348.226582 
L 342.925234 348.226582 
L 347.6661 348.226582 
L 352.406967 348.226582 
L 357.147833 348.226582 
L 361.8887 348.226582 
L 366.629567 348.226582 
L 371.370433 348.226582 
L 376.1113 348.226582 
L 380.852167 348.226582 
L 385.593033 348.226582 
L 390.3339 348.226582 
L 395.074766 348.226582 
L 399.815633 348.226582 
L 404.5565 348.226582 
L 409.297366 348.226582 
L 414.038233 348.226582 
L 418.779099 348.226582 
L 423.519966 348.226582 
L 428.260833 348.226582 
L 433.001699 348.226582 
L 437.742566 348.226582 
L 442.483432 348.226582 
L 447.224299 348.226582 
L 451.965166 348.226582 
L 456.706032 348.226582 
L 461.446899 348.226582 
L 466.187766 348.226582 
L 470.928632 348.226582 
L 475.669499 348.226582 
L 480.410365 348.226582 
L 485.151232 348.226582 
L 489.892099 348.226582 
L 494.632965 348.226582 
L 499.373832 348.226582 
L 504.114698 348.226582 
L 508.855565 348.226582 
L 513.596432 348.226582 
L 518.337298 348.226582 
L 523.078165 348.226582 
L 527.819031 348.226582 
L 532.559898 348.226582 
L 537.300765 348.226582 
L 542.041631 348.226582 
L 546.782498 348.226582 
L 551.523364 348.226582 
L 556.264231 348.226582 
L 561.005098 348.226582 
L 565.745964 348.226582 
L 570.486831 348.226582 
L 575.227698 348.226582 
L 579.968564 348.226582 
L 584.709431 348.226582 
L 589.450297 348.226582 
L 594.191164 348.226582 
L 598.932031 348.226582 
L 603.672897 348.226582 
L 608.413764 348.226582 
L 613.15463 348.226582 
L 617.895497 348.226582 
L 622.636364 348.226582 
" clip-path="url(#pa9a40e4608)" style="fill: none; stroke: #bcbd22; stroke-width: 1.5; stroke-linecap: square"/>
   </g>
   <g id="line2d_44">
    <path d="M 115.363636 365.901804 
L 120.104503 365.901804 
L 124.84537 365.901804 
L 129.586236 365.901804 
L 134.327103 365.901804 
L 139.067969 365.901804 
L 143.808836 365.901804 
L 148.549703 365.901804 
L 153.290569 365.901804 
L 158.031436 365.901804 
L 162.772302 365.901804 
L 167.513169 365.901804 
L 172.254036 365.901804 
L 176.994902 365.901804 
L 181.735769 365.901804 
L 186.476636 365.901804 
L 191.217502 365.901804 
L 195.958369 365.901804 
L 200.699235 365.901804 
L 205.440102 365.901804 
L 210.180969 365.901804 
L 214.921835 365.901804 
L 219.662702 365.901804 
L 224.403568 365.901804 
L 229.144435 365.901804 
L 233.885302 365.901804 
L 238.626168 365.901804 
L 243.367035 365.901804 
L 248.107901 365.901804 
L 252.848768 365.901804 
L 257.589635 365.901804 
L 262.330501 365.901804 
L 267.071368 365.901804 
L 271.812234 365.901804 
L 276.553101 365.901804 
L 281.293968 365.901804 
L 286.034834 365.901804 
L 290.775701 365.901804 
L 295.516568 365.901804 
L 300.257434 365.901804 
L 304.998301 365.901804 
L 309.739167 365.901804 
L 314.480034 365.901804 
L 319.220901 365.901804 
L 323.961767 365.901804 
L 328.702634 365.901804 
L 333.4435 365.901804 
L 338.184367 365.901804 
L 342.925234 365.901804 
L 347.6661 365.901804 
L 352.406967 365.901804 
L 357.147833 365.901804 
L 361.8887 365.901804 
L 366.629567 365.901804 
L 371.370433 365.901804 
L 376.1113 365.901804 
L 380.852167 365.901804 
L 385.593033 365.901804 
L 390.3339 365.901804 
L 395.074766 365.901804 
L 399.815633 365.901804 
L 404.5565 365.901804 
L 409.297366 365.901804 
L 414.038233 365.901804 
L 418.779099 365.901804 
L 423.519966 365.901804 
L 428.260833 365.901804 
L 433.001699 365.901804 
L 437.742566 365.901804 
L 442.483432 365.901804 
L 447.224299 365.901804 
L 451.965166 365.901804 
L 456.706032 365.901804 
L 461.446899 365.901804 
L 466.187766 365.901804 
L 470.928632 365.901804 
L 475.669499 365.901804 
L 480.410365 365.901804 
L 485.151232 365.901804 
L 489.892099 365.901804 
L 494.632965 365.901804 
L 499.373832 365.901804 
L 504.114698 365.901804 
L 508.855565 365.901804 
L 513.596432 365.901804 
L 518.337298 365.901804 
L 523.078165 365.901804 
L 527.819031 365.901804 
L 532.559898 365.901804 
L 537.300765 365.901804 
L 542.041631 365.901804 
L 546.782498 365.901804 
L 551.523364 365.901804 
L 556.264231 365.901804 
L 561.005098 365.901804 
L 565.745964 365.901804 
L 570.486831 365.901804 
L 575.227698 365.901804 
L 579.968564 365.901804 
L 584.709431 365.901804 
L 589.450297 365.901804 
L 594.191164 365.901804 
L 598.932031 365.901804 
L 603.672897 365.901804 
L 608.413764 365.901804 
L 613.15463 365.901804 
L 617.895497 365.901804 
L 622.636364 365.901804 
" clip-path="url(#pa9a40e4608)" style="fill: none; stroke: #17becf; stroke-width: 1.5; stroke-linecap: square"/>
   </g>
   <g id="line2d_45">
    <path d="M 115.363636 309.033698 
L 120.104503 309.033698 
L 124.84537 309.033698 
L 129.586236 309.033698 
L 134.327103 308.649454 
L 139.067969 308.26521 
L 143.808836 308.26521 
L 148.549703 308.26521 
L 153.290569 308.26521 
L 158.031436 308.26521 
L 162.772302 308.26521 
L 167.513169 308.26521 
L 172.254036 308.26521 
L 176.994902 308.26521 
L 181.735769 308.26521 
L 186.476636 308.26521 
L 191.217502 308.26521 
L 195.958369 308.26521 
L 200.699235 307.880966 
L 205.440102 307.880966 
L 210.180969 307.496722 
L 214.921835 307.112478 
L 219.662702 307.112478 
L 224.403568 306.728234 
L 229.144435 306.728234 
L 233.885302 306.728234 
L 238.626168 306.34399 
L 243.367035 306.34399 
L 248.107901 306.34399 
L 252.848768 306.34399 
L 257.589635 306.34399 
L 262.330501 306.34399 
L 267.071368 306.34399 
L 271.812234 306.34399 
L 276.553101 306.34399 
L 281.293968 306.34399 
L 286.034834 306.34399 
L 290.775701 306.34399 
L 295.516568 306.34399 
L 300.257434 306.34399 
L 304.998301 306.34399 
L 309.739167 306.34399 
L 314.480034 306.34399 
L 319.220901 306.34399 
L 323.961767 306.34399 
L 328.702634 306.34399 
L 333.4435 305.959746 
L 338.184367 305.959746 
L 342.925234 305.959746 
L 347.6661 305.575502 
L 352.406967 305.575502 
L 357.147833 305.575502 
L 361.8887 304.807014 
L 366.629567 304.807014 
L 371.370433 304.807014 
L 376.1113 304.807014 
L 380.852167 304.807014 
L 385.593033 304.807014 
L 390.3339 304.807014 
L 395.074766 304.42277 
L 399.815633 304.42277 
L 404.5565 304.42277 
L 409.297366 304.42277 
L 414.038233 304.42277 
L 418.779099 304.42277 
L 423.519966 304.42277 
L 428.260833 304.42277 
L 433.001699 304.42277 
L 437.742566 304.42277 
L 442.483432 304.42277 
L 447.224299 304.42277 
L 451.965166 304.42277 
L 456.706032 304.42277 
L 461.446899 304.42277 
L 466.187766 304.42277 
L 470.928632 304.42277 
L 475.669499 304.42277 
L 480.410365 304.42277 
L 485.151232 304.038526 
L 489.892099 304.038526 
L 494.632965 304.038526 
L 499.373832 304.038526 
L 504.114698 304.038526 
L 508.855565 304.038526 
L 513.596432 304.038526 
L 518.337298 304.038526 
L 523.078165 304.038526 
L 527.819031 304.038526 
L 532.559898 304.038526 
L 537.300765 304.038526 
L 542.041631 304.038526 
L 546.782498 304.038526 
L 551.523364 304.038526 
L 556.264231 304.038526 
L 561.005098 304.038526 
L 565.745964 303.654282 
L 570.486831 303.654282 
L 575.227698 303.654282 
L 579.968564 303.654282 
L 584.709431 303.654282 
L 589.450297 303.654282 
L 594.191164 303.654282 
L 598.932031 303.654282 
L 603.672897 303.654282 
L 608.413764 303.654282 
L 613.15463 303.654282 
L 617.895497 302.885794 
L 622.636364 302.885794 
" clip-path="url(#pa9a40e4608)" style="fill: none; stroke: #1f77b4; stroke-width: 1.5; stroke-linecap: square"/>
   </g>
   <g id="line2d_46">
    <path d="M 115.363636 307.496722 
L 120.104503 307.496722 
L 124.84537 307.496722 
L 129.586236 307.496722 
L 134.327103 307.496722 
L 139.067969 307.496722 
L 143.808836 307.496722 
L 148.549703 307.496722 
L 153.290569 307.496722 
L 158.031436 307.496722 
L 162.772302 307.496722 
L 167.513169 307.496722 
L 172.254036 307.496722 
L 176.994902 307.496722 
L 181.735769 307.496722 
L 186.476636 307.496722 
L 191.217502 307.496722 
L 195.958369 307.112478 
L 200.699235 307.112478 
L 205.440102 307.112478 
L 210.180969 307.112478 
L 214.921835 307.112478 
L 219.662702 307.112478 
L 224.403568 307.112478 
L 229.144435 307.112478 
L 233.885302 307.112478 
L 238.626168 307.112478 
L 243.367035 307.112478 
L 248.107901 306.728234 
L 252.848768 306.728234 
L 257.589635 306.728234 
L 262.330501 306.728234 
L 267.071368 306.728234 
L 271.812234 306.728234 
L 276.553101 306.728234 
L 281.293968 306.34399 
L 286.034834 306.34399 
L 290.775701 306.34399 
L 295.516568 306.34399 
L 300.257434 306.34399 
L 304.998301 306.34399 
L 309.739167 306.34399 
L 314.480034 306.34399 
L 319.220901 306.34399 
L 323.961767 306.34399 
L 328.702634 306.34399 
L 333.4435 306.34399 
L 338.184367 306.34399 
L 342.925234 306.34399 
L 347.6661 306.34399 
L 352.406967 306.34399 
L 357.147833 306.34399 
L 361.8887 305.959746 
L 366.629567 305.959746 
L 371.370433 305.959746 
L 376.1113 305.959746 
L 380.852167 305.959746 
L 385.593033 305.575502 
L 390.3339 305.575502 
L 395.074766 305.575502 
L 399.815633 305.575502 
L 404.5565 305.575502 
L 409.297366 305.575502 
L 414.038233 305.575502 
L 418.779099 305.575502 
L 423.519966 305.575502 
L 428.260833 305.575502 
L 433.001699 305.191258 
L 437.742566 305.191258 
L 442.483432 304.807014 
L 447.224299 304.807014 
L 451.965166 304.807014 
L 456.706032 304.807014 
L 461.446899 304.807014 
L 466.187766 304.807014 
L 470.928632 304.42277 
L 475.669499 304.42277 
L 480.410365 304.038526 
L 485.151232 304.038526 
L 489.892099 304.038526 
L 494.632965 304.038526 
L 499.373832 304.038526 
L 504.114698 304.038526 
L 508.855565 304.038526 
L 513.596432 304.038526 
L 518.337298 304.038526 
L 523.078165 304.038526 
L 527.819031 304.038526 
L 532.559898 304.038526 
L 537.300765 304.038526 
L 542.041631 304.038526 
L 546.782498 304.038526 
L 551.523364 304.038526 
L 556.264231 304.038526 
L 561.005098 303.654282 
L 565.745964 303.654282 
L 570.486831 303.654282 
L 575.227698 303.654282 
L 579.968564 303.654282 
L 584.709431 303.654282 
L 589.450297 303.654282 
L 594.191164 303.654282 
L 598.932031 303.654282 
L 603.672897 303.654282 
L 608.413764 303.654282 
L 613.15463 303.654282 
L 617.895497 303.654282 
L 622.636364 303.654282 
" clip-path="url(#pa9a40e4608)" style="fill: none; stroke: #ff7f0e; stroke-width: 1.5; stroke-linecap: square"/>
   </g>
   <g id="patch_3">
    <path d="M 90 384.48 
L 90 51.84 
" style="fill: none; stroke: #000000; stroke-width: 0.8; stroke-linejoin: miter; stroke-linecap: square"/>
   </g>
   <g id="patch_4">
    <path d="M 648 384.48 
L 648 51.84 
" style="fill: none; stroke: #000000; stroke-width: 0.8; stroke-linejoin: miter; stroke-linecap: square"/>
   </g>
   <g id="patch_5">
    <path d="M 90 384.48 
L 648 384.48 
" style="fill: none; stroke: #000000; stroke-width: 0.8; stroke-linejoin: miter; stroke-linecap: square"/>
   </g>
   <g id="patch_6">
    <path d="M 90 51.84 
L 648 51.84 
" style="fill: none; stroke: #000000; stroke-width: 0.8; stroke-linejoin: miter; stroke-linecap: square"/>
   </g>
   <g id="text_20">
    <!-- Time Series of Votes for Each Keyword -->
    <g transform="translate(253.716563 45.84) scale(0.12 -0.12)">
     <defs>
      <path id="DejaVuSans-53" d="M 3425 4513 
L 3425 3897 
Q 3066 4069 2747 4153 
Q 2428 4238 2131 4238 
Q 1616 4238 1336 4038 
Q 1056 3838 1056 3469 
Q 1056 3159 1242 3001 
Q 1428 2844 1947 2747 
L 2328 2669 
Q 3034 2534 3370 2195 
Q 3706 1856 3706 1288 
Q 3706 609 3251 259 
Q 2797 -91 1919 -91 
Q 1588 -91 1214 -16 
Q 841 59 441 206 
L 441 856 
Q 825 641 1194 531 
Q 1563 422 1919 422 
Q 2459 422 2753 634 
Q 3047 847 3047 1241 
Q 3047 1584 2836 1778 
Q 2625 1972 2144 2069 
L 1759 2144 
Q 1053 2284 737 2584 
Q 422 2884 422 3419 
Q 422 4038 858 4394 
Q 1294 4750 2059 4750 
Q 2388 4750 2728 4690 
Q 3069 4631 3425 4513 
z
" transform="scale(0.015625)"/>
      <path id="DejaVuSans-72" d="M 2631 2963 
Q 2534 3019 2420 3045 
Q 2306 3072 2169 3072 
Q 1681 3072 1420 2755 
Q 1159 2438 1159 1844 
L 1159 0 
L 581 0 
L 581 3500 
L 1159 3500 
L 1159 2956 
Q 1341 3275 1631 3429 
Q 1922 3584 2338 3584 
Q 2397 3584 2469 3576 
Q 2541 3569 2628 3553 
L 2631 2963 
z
" transform="scale(0.015625)"/>
      <path id="DejaVuSans-66" d="M 2375 4863 
L 2375 4384 
L 1825 4384 
Q 1516 4384 1395 4259 
Q 1275 4134 1275 3809 
L 1275 3500 
L 2222 3500 
L 2222 3053 
L 1275 3053 
L 1275 0 
L 697 0 
L 697 3053 
L 147 3053 
L 147 3500 
L 697 3500 
L 697 3744 
Q 697 4328 969 4595 
Q 1241 4863 1831 4863 
L 2375 4863 
z
" transform="scale(0.015625)"/>
      <path id="DejaVuSans-45" d="M 628 4666 
L 3578 4666 
L 3578 4134 
L 1259 4134 
L 1259 2753 
L 3481 2753 
L 3481 2222 
L 1259 2222 
L 1259 531 
L 3634 531 
L 3634 0 
L 628 0 
L 628 4666 
z
" transform="scale(0.015625)"/>
      <path id="DejaVuSans-63" d="M 3122 3366 
L 3122 2828 
Q 2878 2963 2633 3030 
Q 2388 3097 2138 3097 
Q 1578 3097 1268 2742 
Q 959 2388 959 1747 
Q 959 1106 1268 751 
Q 1578 397 2138 397 
Q 2388 397 2633 464 
Q 2878 531 3122 666 
L 3122 134 
Q 2881 22 2623 -34 
Q 2366 -91 2075 -91 
Q 1284 -91 818 406 
Q 353 903 353 1747 
Q 353 2603 823 3093 
Q 1294 3584 2113 3584 
Q 2378 3584 2631 3529 
Q 2884 3475 3122 3366 
z
" transform="scale(0.015625)"/>
      <path id="DejaVuSans-68" d="M 3513 2113 
L 3513 0 
L 2938 0 
L 2938 2094 
Q 2938 2591 2744 2837 
Q 2550 3084 2163 3084 
Q 1697 3084 1428 2787 
Q 1159 2491 1159 1978 
L 1159 0 
L 581 0 
L 581 4863 
L 1159 4863 
L 1159 2956 
Q 1366 3272 1645 3428 
Q 1925 3584 2291 3584 
Q 2894 3584 3203 3211 
Q 3513 2838 3513 2113 
z
" transform="scale(0.015625)"/>
      <path id="DejaVuSans-4b" d="M 628 4666 
L 1259 4666 
L 1259 2694 
L 3353 4666 
L 4166 4666 
L 1850 2491 
L 4331 0 
L 3500 0 
L 1259 2247 
L 1259 0 
L 628 0 
L 628 4666 
z
" transform="scale(0.015625)"/>
      <path id="DejaVuSans-79" d="M 2059 -325 
Q 1816 -950 1584 -1140 
Q 1353 -1331 966 -1331 
L 506 -1331 
L 506 -850 
L 844 -850 
Q 1081 -850 1212 -737 
Q 1344 -625 1503 -206 
L 1606 56 
L 191 3500 
L 800 3500 
L 1894 763 
L 2988 3500 
L 3597 3500 
L 2059 -325 
z
" transform="scale(0.015625)"/>
      <path id="DejaVuSans-77" d="M 269 3500 
L 844 3500 
L 1563 769 
L 2278 3500 
L 2956 3500 
L 3675 769 
L 4391 3500 
L 4966 3500 
L 4050 0 
L 3372 0 
L 2619 2869 
L 1863 0 
L 1184 0 
L 269 3500 
z
" transform="scale(0.015625)"/>
     </defs>
     <use xlink:href="#DejaVuSans-54"/>
     <use xlink:href="#DejaVuSans-69" transform="translate(57.958984 0)"/>
     <use xlink:href="#DejaVuSans-6d" transform="translate(85.742188 0)"/>
     <use xlink:href="#DejaVuSans-65" transform="translate(183.154297 0)"/>
     <use xlink:href="#DejaVuSans-20" transform="translate(244.677734 0)"/>
     <use xlink:href="#DejaVuSans-53" transform="translate(276.464844 0)"/>
     <use xlink:href="#DejaVuSans-65" transform="translate(339.941406 0)"/>
     <use xlink:href="#DejaVuSans-72" transform="translate(401.464844 0)"/>
     <use xlink:href="#DejaVuSans-69" transform="translate(442.578125 0)"/>
     <use xlink:href="#DejaVuSans-65" transform="translate(470.361328 0)"/>
     <use xlink:href="#DejaVuSans-73" transform="translate(531.884766 0)"/>
     <use xlink:href="#DejaVuSans-20" transform="translate(583.984375 0)"/>
     <use xlink:href="#DejaVuSans-6f" transform="translate(615.771484 0)"/>
     <use xlink:href="#DejaVuSans-66" transform="translate(676.953125 0)"/>
     <use xlink:href="#DejaVuSans-20" transform="translate(712.158203 0)"/>
     <use xlink:href="#DejaVuSans-56" transform="translate(743.945312 0)"/>
     <use xlink:href="#DejaVuSans-6f" transform="translate(804.603516 0)"/>
     <use xlink:href="#DejaVuSans-74" transform="translate(865.785156 0)"/>
     <use xlink:href="#DejaVuSans-65" transform="translate(904.994141 0)"/>
     <use xlink:href="#DejaVuSans-73" transform="translate(966.517578 0)"/>
     <use xlink:href="#DejaVuSans-20" transform="translate(1018.617188 0)"/>
     <use xlink:href="#DejaVuSans-66" transform="translate(1050.404297 0)"/>
     <use xlink:href="#DejaVuSans-6f" transform="translate(1085.609375 0)"/>
     <use xlink:href="#DejaVuSans-72" transform="translate(1146.791016 0)"/>
     <use xlink:href="#DejaVuSans-20" transform="translate(1187.904297 0)"/>
     <use xlink:href="#DejaVuSans-45" transform="translate(1219.691406 0)"/>
     <use xlink:href="#DejaVuSans-61" transform="translate(1282.875 0)"/>
     <use xlink:href="#DejaVuSans-63" transform="translate(1344.154297 0)"/>
     <use xlink:href="#DejaVuSans-68" transform="translate(1399.134766 0)"/>
     <use xlink:href="#DejaVuSans-20" transform="translate(1462.513672 0)"/>
     <use xlink:href="#DejaVuSans-4b" transform="translate(1494.300781 0)"/>
     <use xlink:href="#DejaVuSans-65" transform="translate(1554.876953 0)"/>
     <use xlink:href="#DejaVuSans-79" transform="translate(1616.400391 0)"/>
     <use xlink:href="#DejaVuSans-77" transform="translate(1675.580078 0)"/>
     <use xlink:href="#DejaVuSans-6f" transform="translate(1757.367188 0)"/>
     <use xlink:href="#DejaVuSans-72" transform="translate(1818.548828 0)"/>
     <use xlink:href="#DejaVuSans-64" transform="translate(1857.912109 0)"/>
    </g>
   </g>
   <g id="legend_1">
    <g id="patch_7">
     <path d="M 97 379.48 
L 149.245313 379.48 
Q 151.245313 379.48 151.245313 377.48 
L 151.245313 202.3425 
Q 151.245313 200.3425 149.245313 200.3425 
L 97 200.3425 
Q 95 200.3425 95 202.3425 
L 95 377.48 
Q 95 379.48 97 379.48 
z
" style="fill: #ffffff; opacity: 0.8; stroke: #cccccc; stroke-linejoin: miter"/>
    </g>
    <g id="line2d_47">
     <path d="M 99 208.440938 
L 109 208.440938 
L 119 208.440938 
" style="fill: none; stroke: #1f77b4; stroke-width: 1.5; stroke-linecap: square"/>
    </g>
    <g id="text_21">
     <!-- H01 -->
     <g transform="translate(127 211.940938) scale(0.1 -0.1)">
      <defs>
       <path id="DejaVuSans-48" d="M 628 4666 
L 1259 4666 
L 1259 2753 
L 3553 2753 
L 3553 4666 
L 4184 4666 
L 4184 0 
L 3553 0 
L 3553 2222 
L 1259 2222 
L 1259 0 
L 628 0 
L 628 4666 
z
" transform="scale(0.015625)"/>
      </defs>
      <use xlink:href="#DejaVuSans-48"/>
      <use xlink:href="#DejaVuSans-30" transform="translate(75.195312 0)"/>
      <use xlink:href="#DejaVuSans-31" transform="translate(138.818359 0)"/>
     </g>
    </g>
    <g id="line2d_48">
     <path d="M 99 223.119063 
L 109 223.119063 
L 119 223.119063 
" style="fill: none; stroke: #ff7f0e; stroke-width: 1.5; stroke-linecap: square"/>
    </g>
    <g id="text_22">
     <!-- H02 -->
     <g transform="translate(127 226.619063) scale(0.1 -0.1)">
      <use xlink:href="#DejaVuSans-48"/>
      <use xlink:href="#DejaVuSans-30" transform="translate(75.195312 0)"/>
      <use xlink:href="#DejaVuSans-32" transform="translate(138.818359 0)"/>
     </g>
    </g>
    <g id="line2d_49">
     <path d="M 99 237.797188 
L 109 237.797188 
L 119 237.797188 
" style="fill: none; stroke: #2ca02c; stroke-width: 1.5; stroke-linecap: square"/>
    </g>
    <g id="text_23">
     <!-- H03 -->
     <g transform="translate(127 241.297188) scale(0.1 -0.1)">
      <use xlink:href="#DejaVuSans-48"/>
      <use xlink:href="#DejaVuSans-30" transform="translate(75.195312 0)"/>
      <use xlink:href="#DejaVuSans-33" transform="translate(138.818359 0)"/>
     </g>
    </g>
    <g id="line2d_50">
     <path d="M 99 252.475313 
L 109 252.475313 
L 119 252.475313 
" style="fill: none; stroke: #d62728; stroke-width: 1.5; stroke-linecap: square"/>
    </g>
    <g id="text_24">
     <!-- H04 -->
     <g transform="translate(127 255.975313) scale(0.1 -0.1)">
      <use xlink:href="#DejaVuSans-48"/>
      <use xlink:href="#DejaVuSans-30" transform="translate(75.195312 0)"/>
      <use xlink:href="#DejaVuSans-34" transform="translate(138.818359 0)"/>
     </g>
    </g>
    <g id="line2d_51">
     <path d="M 99 267.153438 
L 109 267.153438 
L 119 267.153438 
" style="fill: none; stroke: #9467bd; stroke-width: 1.5; stroke-linecap: square"/>
    </g>
    <g id="text_25">
     <!-- H05 -->
     <g transform="translate(127 270.653438) scale(0.1 -0.1)">
      <use xlink:href="#DejaVuSans-48"/>
      <use xlink:href="#DejaVuSans-30" transform="translate(75.195312 0)"/>
      <use xlink:href="#DejaVuSans-35" transform="translate(138.818359 0)"/>
     </g>
    </g>
    <g id="line2d_52">
     <path d="M 99 281.831563 
L 109 281.831563 
L 119 281.831563 
" style="fill: none; stroke: #8c564b; stroke-width: 1.5; stroke-linecap: square"/>
    </g>
    <g id="text_26">
     <!-- H06 -->
     <g transform="translate(127 285.331563) scale(0.1 -0.1)">
      <use xlink:href="#DejaVuSans-48"/>
      <use xlink:href="#DejaVuSans-30" transform="translate(75.195312 0)"/>
      <use xlink:href="#DejaVuSans-36" transform="translate(138.818359 0)"/>
     </g>
    </g>
    <g id="line2d_53">
     <path d="M 99 296.509688 
L 109 296.509688 
L 119 296.509688 
" style="fill: none; stroke: #e377c2; stroke-width: 1.5; stroke-linecap: square"/>
    </g>
    <g id="text_27">
     <!-- H07 -->
     <g transform="translate(127 300.009688) scale(0.1 -0.1)">
      <use xlink:href="#DejaVuSans-48"/>
      <use xlink:href="#DejaVuSans-30" transform="translate(75.195312 0)"/>
      <use xlink:href="#DejaVuSans-37" transform="translate(138.818359 0)"/>
     </g>
    </g>
    <g id="line2d_54">
     <path d="M 99 311.187813 
L 109 311.187813 
L 119 311.187813 
" style="fill: none; stroke: #7f7f7f; stroke-width: 1.5; stroke-linecap: square"/>
    </g>
    <g id="text_28">
     <!-- H08 -->
     <g transform="translate(127 314.687813) scale(0.1 -0.1)">
      <use xlink:href="#DejaVuSans-48"/>
      <use xlink:href="#DejaVuSans-30" transform="translate(75.195312 0)"/>
      <use xlink:href="#DejaVuSans-38" transform="translate(138.818359 0)"/>
     </g>
    </g>
    <g id="line2d_55">
     <path d="M 99 325.865938 
L 109 325.865938 
L 119 325.865938 
" style="fill: none; stroke: #bcbd22; stroke-width: 1.5; stroke-linecap: square"/>
    </g>
    <g id="text_29">
     <!-- H09 -->
     <g transform="translate(127 329.365938) scale(0.1 -0.1)">
      <defs>
       <path id="DejaVuSans-39" d="M 703 97 
L 703 672 
Q 941 559 1184 500 
Q 1428 441 1663 441 
Q 2288 441 2617 861 
Q 2947 1281 2994 2138 
Q 2813 1869 2534 1725 
Q 2256 1581 1919 1581 
Q 1219 1581 811 2004 
Q 403 2428 403 3163 
Q 403 3881 828 4315 
Q 1253 4750 1959 4750 
Q 2769 4750 3195 4129 
Q 3622 3509 3622 2328 
Q 3622 1225 3098 567 
Q 2575 -91 1691 -91 
Q 1453 -91 1209 -44 
Q 966 3 703 97 
z
M 1959 2075 
Q 2384 2075 2632 2365 
Q 2881 2656 2881 3163 
Q 2881 3666 2632 3958 
Q 2384 4250 1959 4250 
Q 1534 4250 1286 3958 
Q 1038 3666 1038 3163 
Q 1038 2656 1286 2365 
Q 1534 2075 1959 2075 
z
" transform="scale(0.015625)"/>
      </defs>
      <use xlink:href="#DejaVuSans-48"/>
      <use xlink:href="#DejaVuSans-30" transform="translate(75.195312 0)"/>
      <use xlink:href="#DejaVuSans-39" transform="translate(138.818359 0)"/>
     </g>
    </g>
    <g id="line2d_56">
     <path d="M 99 340.544062 
L 109 340.544062 
L 119 340.544062 
" style="fill: none; stroke: #17becf; stroke-width: 1.5; stroke-linecap: square"/>
    </g>
    <g id="text_30">
     <!-- H10 -->
     <g transform="translate(127 344.044062) scale(0.1 -0.1)">
      <use xlink:href="#DejaVuSans-48"/>
      <use xlink:href="#DejaVuSans-31" transform="translate(75.195312 0)"/>
      <use xlink:href="#DejaVuSans-30" transform="translate(138.818359 0)"/>
     </g>
    </g>
    <g id="line2d_57">
     <path d="M 99 355.222188 
L 109 355.222188 
L 119 355.222188 
" style="fill: none; stroke: #1f77b4; stroke-width: 1.5; stroke-linecap: square"/>
    </g>
    <g id="text_31">
     <!-- H11 -->
     <g transform="translate(127 358.722188) scale(0.1 -0.1)">
      <use xlink:href="#DejaVuSans-48"/>
      <use xlink:href="#DejaVuSans-31" transform="translate(75.195312 0)"/>
      <use xlink:href="#DejaVuSans-31" transform="translate(138.818359 0)"/>
     </g>
    </g>
    <g id="line2d_58">
     <path d="M 99 369.900312 
L 109 369.900312 
L 119 369.900312 
" style="fill: none; stroke: #ff7f0e; stroke-width: 1.5; stroke-linecap: square"/>
    </g>
    <g id="text_32">
     <!-- H12 -->
     <g transform="translate(127 373.400312) scale(0.1 -0.1)">
      <use xlink:href="#DejaVuSans-48"/>
      <use xlink:href="#DejaVuSans-31" transform="translate(75.195312 0)"/>
      <use xlink:href="#DejaVuSans-32" transform="translate(138.818359 0)"/>
     </g>
    </g>
   </g>
  </g>
 </g>
 <defs>
  <clipPath id="pa9a40e4608">
   <rect x="90" y="51.84" width="558" height="332.64"/>
  </clipPath>
 </defs>
</svg>
