<?xml version="1.0" encoding="utf-8" standalone="no"?>
<!DOCTYPE svg PUBLIC "-//W3C//DTD SVG 1.1//EN"
  "http://www.w3.org/Graphics/SVG/1.1/DTD/svg11.dtd">
<svg xmlns:xlink="http://www.w3.org/1999/xlink" width="720pt" height="432pt" viewBox="0 0 720 432" xmlns="http://www.w3.org/2000/svg" version="1.1">
 <metadata>
  <rdf:RDF xmlns:dc="http://purl.org/dc/elements/1.1/" xmlns:cc="http://creativecommons.org/ns#" xmlns:rdf="http://www.w3.org/1999/02/22-rdf-syntax-ns#">
   <cc:Work>
    <dc:type rdf:resource="http://purl.org/dc/dcmitype/StillImage"/>
    <dc:date>2025-01-14T21:59:08.100436</dc:date>
    <dc:format>image/svg+xml</dc:format>
    <dc:creator>
     <cc:Agent>
      <dc:title>Matplotlib v3.10.0, https://matplotlib.org/</dc:title>
     </cc:Agent>
    </dc:creator>
   </cc:Work>
  </rdf:RDF>
 </metadata>
 <defs>
  <style type="text/css">*{stroke-linejoin: round; stroke-linecap: butt}</style>
 </defs>
 <g id="figure_1">
  <g id="patch_1">
   <path d="M 0 432 
L 720 432 
L 720 0 
L 0 0 
z
" style="fill: #ffffff"/>
  </g>
  <g id="axes_1">
   <g id="patch_2">
    <path d="M 90 384.48 
L 648 384.48 
L 648 51.84 
L 90 51.84 
z
" style="fill: #ffffff"/>
   </g>
   <g id="matplotlib.axis_1">
    <g id="xtick_1">
     <g id="line2d_1">
      <path d="M 142.485149 384.48 
L 142.485149 51.84 
" clip-path="url(#p64d3cf2846)" style="fill: none; stroke: #b0b0b0; stroke-width: 0.8; stroke-linecap: square"/>
     </g>
     <g id="line2d_2">
      <defs>
       <path id="m4b8c0476f0" d="M 0 0 
L 0 3.5 
" style="stroke: #000000; stroke-width: 0.8"/>
      </defs>
      <g>
       <use xlink:href="#m4b8c0476f0" x="142.485149" y="384.48" style="stroke: #000000; stroke-width: 0.8"/>
      </g>
     </g>
     <g id="text_1">
      <!-- 01-14 14 -->
      <g transform="translate(120.00468 399.078438) scale(0.1 -0.1)">
       <defs>
        <path id="DejaVuSans-30" d="M 2034 4250 
Q 1547 4250 1301 3770 
Q 1056 3291 1056 2328 
Q 1056 1369 1301 889 
Q 1547 409 2034 409 
Q 2525 409 2770 889 
Q 3016 1369 3016 2328 
Q 3016 3291 2770 3770 
Q 2525 4250 2034 4250 
z
M 2034 4750 
Q 2819 4750 3233 4129 
Q 3647 3509 3647 2328 
Q 3647 1150 3233 529 
Q 2819 -91 2034 -91 
Q 1250 -91 836 529 
Q 422 1150 422 2328 
Q 422 3509 836 4129 
Q 1250 4750 2034 4750 
z
" transform="scale(0.015625)"/>
        <path id="DejaVuSans-31" d="M 794 531 
L 1825 531 
L 1825 4091 
L 703 3866 
L 703 4441 
L 1819 4666 
L 2450 4666 
L 2450 531 
L 3481 531 
L 3481 0 
L 794 0 
L 794 531 
z
" transform="scale(0.015625)"/>
        <path id="DejaVuSans-2d" d="M 313 2009 
L 1997 2009 
L 1997 1497 
L 313 1497 
L 313 2009 
z
" transform="scale(0.015625)"/>
        <path id="DejaVuSans-34" d="M 2419 4116 
L 825 1625 
L 2419 1625 
L 2419 4116 
z
M 2253 4666 
L 3047 4666 
L 3047 1625 
L 3713 1625 
L 3713 1100 
L 3047 1100 
L 3047 0 
L 2419 0 
L 2419 1100 
L 313 1100 
L 313 1709 
L 2253 4666 
z
" transform="scale(0.015625)"/>
        <path id="DejaVuSans-20" transform="scale(0.015625)"/>
       </defs>
       <use xlink:href="#DejaVuSans-30"/>
       <use xlink:href="#DejaVuSans-31" transform="translate(63.623047 0)"/>
       <use xlink:href="#DejaVuSans-2d" transform="translate(127.246094 0)"/>
       <use xlink:href="#DejaVuSans-31" transform="translate(163.330078 0)"/>
       <use xlink:href="#DejaVuSans-34" transform="translate(226.953125 0)"/>
       <use xlink:href="#DejaVuSans-20" transform="translate(290.576172 0)"/>
       <use xlink:href="#DejaVuSans-31" transform="translate(322.363281 0)"/>
       <use xlink:href="#DejaVuSans-34" transform="translate(385.986328 0)"/>
      </g>
     </g>
    </g>
    <g id="xtick_2">
     <g id="line2d_3">
      <path d="M 202.755176 384.48 
L 202.755176 51.84 
" clip-path="url(#p64d3cf2846)" style="fill: none; stroke: #b0b0b0; stroke-width: 0.8; stroke-linecap: square"/>
     </g>
     <g id="line2d_4">
      <g>
       <use xlink:href="#m4b8c0476f0" x="202.755176" y="384.48" style="stroke: #000000; stroke-width: 0.8"/>
      </g>
     </g>
     <g id="text_2">
      <!-- 01-14 15 -->
      <g transform="translate(180.274707 399.078438) scale(0.1 -0.1)">
       <defs>
        <path id="DejaVuSans-35" d="M 691 4666 
L 3169 4666 
L 3169 4134 
L 1269 4134 
L 1269 2991 
Q 1406 3038 1543 3061 
Q 1681 3084 1819 3084 
Q 2600 3084 3056 2656 
Q 3513 2228 3513 1497 
Q 3513 744 3044 326 
Q 2575 -91 1722 -91 
Q 1428 -91 1123 -41 
Q 819 9 494 109 
L 494 744 
Q 775 591 1075 516 
Q 1375 441 1709 441 
Q 2250 441 2565 725 
Q 2881 1009 2881 1497 
Q 2881 1984 2565 2268 
Q 2250 2553 1709 2553 
Q 1456 2553 1204 2497 
Q 953 2441 691 2322 
L 691 4666 
z
" transform="scale(0.015625)"/>
       </defs>
       <use xlink:href="#DejaVuSans-30"/>
       <use xlink:href="#DejaVuSans-31" transform="translate(63.623047 0)"/>
       <use xlink:href="#DejaVuSans-2d" transform="translate(127.246094 0)"/>
       <use xlink:href="#DejaVuSans-31" transform="translate(163.330078 0)"/>
       <use xlink:href="#DejaVuSans-34" transform="translate(226.953125 0)"/>
       <use xlink:href="#DejaVuSans-20" transform="translate(290.576172 0)"/>
       <use xlink:href="#DejaVuSans-31" transform="translate(322.363281 0)"/>
       <use xlink:href="#DejaVuSans-35" transform="translate(385.986328 0)"/>
      </g>
     </g>
    </g>
    <g id="xtick_3">
     <g id="line2d_5">
      <path d="M 263.025203 384.48 
L 263.025203 51.84 
" clip-path="url(#p64d3cf2846)" style="fill: none; stroke: #b0b0b0; stroke-width: 0.8; stroke-linecap: square"/>
     </g>
     <g id="line2d_6">
      <g>
       <use xlink:href="#m4b8c0476f0" x="263.025203" y="384.48" style="stroke: #000000; stroke-width: 0.8"/>
      </g>
     </g>
     <g id="text_3">
      <!-- 01-14 16 -->
      <g transform="translate(240.544734 399.078438) scale(0.1 -0.1)">
       <defs>
        <path id="DejaVuSans-36" d="M 2113 2584 
Q 1688 2584 1439 2293 
Q 1191 2003 1191 1497 
Q 1191 994 1439 701 
Q 1688 409 2113 409 
Q 2538 409 2786 701 
Q 3034 994 3034 1497 
Q 3034 2003 2786 2293 
Q 2538 2584 2113 2584 
z
M 3366 4563 
L 3366 3988 
Q 3128 4100 2886 4159 
Q 2644 4219 2406 4219 
Q 1781 4219 1451 3797 
Q 1122 3375 1075 2522 
Q 1259 2794 1537 2939 
Q 1816 3084 2150 3084 
Q 2853 3084 3261 2657 
Q 3669 2231 3669 1497 
Q 3669 778 3244 343 
Q 2819 -91 2113 -91 
Q 1303 -91 875 529 
Q 447 1150 447 2328 
Q 447 3434 972 4092 
Q 1497 4750 2381 4750 
Q 2619 4750 2861 4703 
Q 3103 4656 3366 4563 
z
" transform="scale(0.015625)"/>
       </defs>
       <use xlink:href="#DejaVuSans-30"/>
       <use xlink:href="#DejaVuSans-31" transform="translate(63.623047 0)"/>
       <use xlink:href="#DejaVuSans-2d" transform="translate(127.246094 0)"/>
       <use xlink:href="#DejaVuSans-31" transform="translate(163.330078 0)"/>
       <use xlink:href="#DejaVuSans-34" transform="translate(226.953125 0)"/>
       <use xlink:href="#DejaVuSans-20" transform="translate(290.576172 0)"/>
       <use xlink:href="#DejaVuSans-31" transform="translate(322.363281 0)"/>
       <use xlink:href="#DejaVuSans-36" transform="translate(385.986328 0)"/>
      </g>
     </g>
    </g>
    <g id="xtick_4">
     <g id="line2d_7">
      <path d="M 323.29523 384.48 
L 323.29523 51.84 
" clip-path="url(#p64d3cf2846)" style="fill: none; stroke: #b0b0b0; stroke-width: 0.8; stroke-linecap: square"/>
     </g>
     <g id="line2d_8">
      <g>
       <use xlink:href="#m4b8c0476f0" x="323.29523" y="384.48" style="stroke: #000000; stroke-width: 0.8"/>
      </g>
     </g>
     <g id="text_4">
      <!-- 01-14 17 -->
      <g transform="translate(300.814761 399.078438) scale(0.1 -0.1)">
       <defs>
        <path id="DejaVuSans-37" d="M 525 4666 
L 3525 4666 
L 3525 4397 
L 1831 0 
L 1172 0 
L 2766 4134 
L 525 4134 
L 525 4666 
z
" transform="scale(0.015625)"/>
       </defs>
       <use xlink:href="#DejaVuSans-30"/>
       <use xlink:href="#DejaVuSans-31" transform="translate(63.623047 0)"/>
       <use xlink:href="#DejaVuSans-2d" transform="translate(127.246094 0)"/>
       <use xlink:href="#DejaVuSans-31" transform="translate(163.330078 0)"/>
       <use xlink:href="#DejaVuSans-34" transform="translate(226.953125 0)"/>
       <use xlink:href="#DejaVuSans-20" transform="translate(290.576172 0)"/>
       <use xlink:href="#DejaVuSans-31" transform="translate(322.363281 0)"/>
       <use xlink:href="#DejaVuSans-37" transform="translate(385.986328 0)"/>
      </g>
     </g>
    </g>
    <g id="xtick_5">
     <g id="line2d_9">
      <path d="M 383.565257 384.48 
L 383.565257 51.84 
" clip-path="url(#p64d3cf2846)" style="fill: none; stroke: #b0b0b0; stroke-width: 0.8; stroke-linecap: square"/>
     </g>
     <g id="line2d_10">
      <g>
       <use xlink:href="#m4b8c0476f0" x="383.565257" y="384.48" style="stroke: #000000; stroke-width: 0.8"/>
      </g>
     </g>
     <g id="text_5">
      <!-- 01-14 18 -->
      <g transform="translate(361.084788 399.078438) scale(0.1 -0.1)">
       <defs>
        <path id="DejaVuSans-38" d="M 2034 2216 
Q 1584 2216 1326 1975 
Q 1069 1734 1069 1313 
Q 1069 891 1326 650 
Q 1584 409 2034 409 
Q 2484 409 2743 651 
Q 3003 894 3003 1313 
Q 3003 1734 2745 1975 
Q 2488 2216 2034 2216 
z
M 1403 2484 
Q 997 2584 770 2862 
Q 544 3141 544 3541 
Q 544 4100 942 4425 
Q 1341 4750 2034 4750 
Q 2731 4750 3128 4425 
Q 3525 4100 3525 3541 
Q 3525 3141 3298 2862 
Q 3072 2584 2669 2484 
Q 3125 2378 3379 2068 
Q 3634 1759 3634 1313 
Q 3634 634 3220 271 
Q 2806 -91 2034 -91 
Q 1263 -91 848 271 
Q 434 634 434 1313 
Q 434 1759 690 2068 
Q 947 2378 1403 2484 
z
M 1172 3481 
Q 1172 3119 1398 2916 
Q 1625 2713 2034 2713 
Q 2441 2713 2670 2916 
Q 2900 3119 2900 3481 
Q 2900 3844 2670 4047 
Q 2441 4250 2034 4250 
Q 1625 4250 1398 4047 
Q 1172 3844 1172 3481 
z
" transform="scale(0.015625)"/>
       </defs>
       <use xlink:href="#DejaVuSans-30"/>
       <use xlink:href="#DejaVuSans-31" transform="translate(63.623047 0)"/>
       <use xlink:href="#DejaVuSans-2d" transform="translate(127.246094 0)"/>
       <use xlink:href="#DejaVuSans-31" transform="translate(163.330078 0)"/>
       <use xlink:href="#DejaVuSans-34" transform="translate(226.953125 0)"/>
       <use xlink:href="#DejaVuSans-20" transform="translate(290.576172 0)"/>
       <use xlink:href="#DejaVuSans-31" transform="translate(322.363281 0)"/>
       <use xlink:href="#DejaVuSans-38" transform="translate(385.986328 0)"/>
      </g>
     </g>
    </g>
    <g id="xtick_6">
     <g id="line2d_11">
      <path d="M 443.835284 384.48 
L 443.835284 51.84 
" clip-path="url(#p64d3cf2846)" style="fill: none; stroke: #b0b0b0; stroke-width: 0.8; stroke-linecap: square"/>
     </g>
     <g id="line2d_12">
      <g>
       <use xlink:href="#m4b8c0476f0" x="443.835284" y="384.48" style="stroke: #000000; stroke-width: 0.8"/>
      </g>
     </g>
     <g id="text_6">
      <!-- 01-14 19 -->
      <g transform="translate(421.354815 399.078438) scale(0.1 -0.1)">
       <defs>
        <path id="DejaVuSans-39" d="M 703 97 
L 703 672 
Q 941 559 1184 500 
Q 1428 441 1663 441 
Q 2288 441 2617 861 
Q 2947 1281 2994 2138 
Q 2813 1869 2534 1725 
Q 2256 1581 1919 1581 
Q 1219 1581 811 2004 
Q 403 2428 403 3163 
Q 403 3881 828 4315 
Q 1253 4750 1959 4750 
Q 2769 4750 3195 4129 
Q 3622 3509 3622 2328 
Q 3622 1225 3098 567 
Q 2575 -91 1691 -91 
Q 1453 -91 1209 -44 
Q 966 3 703 97 
z
M 1959 2075 
Q 2384 2075 2632 2365 
Q 2881 2656 2881 3163 
Q 2881 3666 2632 3958 
Q 2384 4250 1959 4250 
Q 1534 4250 1286 3958 
Q 1038 3666 1038 3163 
Q 1038 2656 1286 2365 
Q 1534 2075 1959 2075 
z
" transform="scale(0.015625)"/>
       </defs>
       <use xlink:href="#DejaVuSans-30"/>
       <use xlink:href="#DejaVuSans-31" transform="translate(63.623047 0)"/>
       <use xlink:href="#DejaVuSans-2d" transform="translate(127.246094 0)"/>
       <use xlink:href="#DejaVuSans-31" transform="translate(163.330078 0)"/>
       <use xlink:href="#DejaVuSans-34" transform="translate(226.953125 0)"/>
       <use xlink:href="#DejaVuSans-20" transform="translate(290.576172 0)"/>
       <use xlink:href="#DejaVuSans-31" transform="translate(322.363281 0)"/>
       <use xlink:href="#DejaVuSans-39" transform="translate(385.986328 0)"/>
      </g>
     </g>
    </g>
    <g id="xtick_7">
     <g id="line2d_13">
      <path d="M 504.105311 384.48 
L 504.105311 51.84 
" clip-path="url(#p64d3cf2846)" style="fill: none; stroke: #b0b0b0; stroke-width: 0.8; stroke-linecap: square"/>
     </g>
     <g id="line2d_14">
      <g>
       <use xlink:href="#m4b8c0476f0" x="504.105311" y="384.48" style="stroke: #000000; stroke-width: 0.8"/>
      </g>
     </g>
     <g id="text_7">
      <!-- 01-14 20 -->
      <g transform="translate(481.624842 399.078438) scale(0.1 -0.1)">
       <defs>
        <path id="DejaVuSans-32" d="M 1228 531 
L 3431 531 
L 3431 0 
L 469 0 
L 469 531 
Q 828 903 1448 1529 
Q 2069 2156 2228 2338 
Q 2531 2678 2651 2914 
Q 2772 3150 2772 3378 
Q 2772 3750 2511 3984 
Q 2250 4219 1831 4219 
Q 1534 4219 1204 4116 
Q 875 4013 500 3803 
L 500 4441 
Q 881 4594 1212 4672 
Q 1544 4750 1819 4750 
Q 2544 4750 2975 4387 
Q 3406 4025 3406 3419 
Q 3406 3131 3298 2873 
Q 3191 2616 2906 2266 
Q 2828 2175 2409 1742 
Q 1991 1309 1228 531 
z
" transform="scale(0.015625)"/>
       </defs>
       <use xlink:href="#DejaVuSans-30"/>
       <use xlink:href="#DejaVuSans-31" transform="translate(63.623047 0)"/>
       <use xlink:href="#DejaVuSans-2d" transform="translate(127.246094 0)"/>
       <use xlink:href="#DejaVuSans-31" transform="translate(163.330078 0)"/>
       <use xlink:href="#DejaVuSans-34" transform="translate(226.953125 0)"/>
       <use xlink:href="#DejaVuSans-20" transform="translate(290.576172 0)"/>
       <use xlink:href="#DejaVuSans-32" transform="translate(322.363281 0)"/>
       <use xlink:href="#DejaVuSans-30" transform="translate(385.986328 0)"/>
      </g>
     </g>
    </g>
    <g id="xtick_8">
     <g id="line2d_15">
      <path d="M 564.375338 384.48 
L 564.375338 51.84 
" clip-path="url(#p64d3cf2846)" style="fill: none; stroke: #b0b0b0; stroke-width: 0.8; stroke-linecap: square"/>
     </g>
     <g id="line2d_16">
      <g>
       <use xlink:href="#m4b8c0476f0" x="564.375338" y="384.48" style="stroke: #000000; stroke-width: 0.8"/>
      </g>
     </g>
     <g id="text_8">
      <!-- 01-14 21 -->
      <g transform="translate(541.894869 399.078438) scale(0.1 -0.1)">
       <use xlink:href="#DejaVuSans-30"/>
       <use xlink:href="#DejaVuSans-31" transform="translate(63.623047 0)"/>
       <use xlink:href="#DejaVuSans-2d" transform="translate(127.246094 0)"/>
       <use xlink:href="#DejaVuSans-31" transform="translate(163.330078 0)"/>
       <use xlink:href="#DejaVuSans-34" transform="translate(226.953125 0)"/>
       <use xlink:href="#DejaVuSans-20" transform="translate(290.576172 0)"/>
       <use xlink:href="#DejaVuSans-32" transform="translate(322.363281 0)"/>
       <use xlink:href="#DejaVuSans-31" transform="translate(385.986328 0)"/>
      </g>
     </g>
    </g>
    <g id="xtick_9">
     <g id="line2d_17">
      <path d="M 624.645365 384.48 
L 624.645365 51.84 
" clip-path="url(#p64d3cf2846)" style="fill: none; stroke: #b0b0b0; stroke-width: 0.8; stroke-linecap: square"/>
     </g>
     <g id="line2d_18">
      <g>
       <use xlink:href="#m4b8c0476f0" x="624.645365" y="384.48" style="stroke: #000000; stroke-width: 0.8"/>
      </g>
     </g>
     <g id="text_9">
      <!-- 01-14 22 -->
      <g transform="translate(602.164896 399.078438) scale(0.1 -0.1)">
       <use xlink:href="#DejaVuSans-30"/>
       <use xlink:href="#DejaVuSans-31" transform="translate(63.623047 0)"/>
       <use xlink:href="#DejaVuSans-2d" transform="translate(127.246094 0)"/>
       <use xlink:href="#DejaVuSans-31" transform="translate(163.330078 0)"/>
       <use xlink:href="#DejaVuSans-34" transform="translate(226.953125 0)"/>
       <use xlink:href="#DejaVuSans-20" transform="translate(290.576172 0)"/>
       <use xlink:href="#DejaVuSans-32" transform="translate(322.363281 0)"/>
       <use xlink:href="#DejaVuSans-32" transform="translate(385.986328 0)"/>
      </g>
     </g>
    </g>
    <g id="text_10">
     <!-- Date and Time -->
     <g transform="translate(332.230469 412.756563) scale(0.1 -0.1)">
      <defs>
       <path id="DejaVuSans-44" d="M 1259 4147 
L 1259 519 
L 2022 519 
Q 2988 519 3436 956 
Q 3884 1394 3884 2338 
Q 3884 3275 3436 3711 
Q 2988 4147 2022 4147 
L 1259 4147 
z
M 628 4666 
L 1925 4666 
Q 3281 4666 3915 4102 
Q 4550 3538 4550 2338 
Q 4550 1131 3912 565 
Q 3275 0 1925 0 
L 628 0 
L 628 4666 
z
" transform="scale(0.015625)"/>
       <path id="DejaVuSans-61" d="M 2194 1759 
Q 1497 1759 1228 1600 
Q 959 1441 959 1056 
Q 959 750 1161 570 
Q 1363 391 1709 391 
Q 2188 391 2477 730 
Q 2766 1069 2766 1631 
L 2766 1759 
L 2194 1759 
z
M 3341 1997 
L 3341 0 
L 2766 0 
L 2766 531 
Q 2569 213 2275 61 
Q 1981 -91 1556 -91 
Q 1019 -91 701 211 
Q 384 513 384 1019 
Q 384 1609 779 1909 
Q 1175 2209 1959 2209 
L 2766 2209 
L 2766 2266 
Q 2766 2663 2505 2880 
Q 2244 3097 1772 3097 
Q 1472 3097 1187 3025 
Q 903 2953 641 2809 
L 641 3341 
Q 956 3463 1253 3523 
Q 1550 3584 1831 3584 
Q 2591 3584 2966 3190 
Q 3341 2797 3341 1997 
z
" transform="scale(0.015625)"/>
       <path id="DejaVuSans-74" d="M 1172 4494 
L 1172 3500 
L 2356 3500 
L 2356 3053 
L 1172 3053 
L 1172 1153 
Q 1172 725 1289 603 
Q 1406 481 1766 481 
L 2356 481 
L 2356 0 
L 1766 0 
Q 1100 0 847 248 
Q 594 497 594 1153 
L 594 3053 
L 172 3053 
L 172 3500 
L 594 3500 
L 594 4494 
L 1172 4494 
z
" transform="scale(0.015625)"/>
       <path id="DejaVuSans-65" d="M 3597 1894 
L 3597 1613 
L 953 1613 
Q 991 1019 1311 708 
Q 1631 397 2203 397 
Q 2534 397 2845 478 
Q 3156 559 3463 722 
L 3463 178 
Q 3153 47 2828 -22 
Q 2503 -91 2169 -91 
Q 1331 -91 842 396 
Q 353 884 353 1716 
Q 353 2575 817 3079 
Q 1281 3584 2069 3584 
Q 2775 3584 3186 3129 
Q 3597 2675 3597 1894 
z
M 3022 2063 
Q 3016 2534 2758 2815 
Q 2500 3097 2075 3097 
Q 1594 3097 1305 2825 
Q 1016 2553 972 2059 
L 3022 2063 
z
" transform="scale(0.015625)"/>
       <path id="DejaVuSans-6e" d="M 3513 2113 
L 3513 0 
L 2938 0 
L 2938 2094 
Q 2938 2591 2744 2837 
Q 2550 3084 2163 3084 
Q 1697 3084 1428 2787 
Q 1159 2491 1159 1978 
L 1159 0 
L 581 0 
L 581 3500 
L 1159 3500 
L 1159 2956 
Q 1366 3272 1645 3428 
Q 1925 3584 2291 3584 
Q 2894 3584 3203 3211 
Q 3513 2838 3513 2113 
z
" transform="scale(0.015625)"/>
       <path id="DejaVuSans-64" d="M 2906 2969 
L 2906 4863 
L 3481 4863 
L 3481 0 
L 2906 0 
L 2906 525 
Q 2725 213 2448 61 
Q 2172 -91 1784 -91 
Q 1150 -91 751 415 
Q 353 922 353 1747 
Q 353 2572 751 3078 
Q 1150 3584 1784 3584 
Q 2172 3584 2448 3432 
Q 2725 3281 2906 2969 
z
M 947 1747 
Q 947 1113 1208 752 
Q 1469 391 1925 391 
Q 2381 391 2643 752 
Q 2906 1113 2906 1747 
Q 2906 2381 2643 2742 
Q 2381 3103 1925 3103 
Q 1469 3103 1208 2742 
Q 947 2381 947 1747 
z
" transform="scale(0.015625)"/>
       <path id="DejaVuSans-54" d="M -19 4666 
L 3928 4666 
L 3928 4134 
L 2272 4134 
L 2272 0 
L 1638 0 
L 1638 4134 
L -19 4134 
L -19 4666 
z
" transform="scale(0.015625)"/>
       <path id="DejaVuSans-69" d="M 603 3500 
L 1178 3500 
L 1178 0 
L 603 0 
L 603 3500 
z
M 603 4863 
L 1178 4863 
L 1178 4134 
L 603 4134 
L 603 4863 
z
" transform="scale(0.015625)"/>
       <path id="DejaVuSans-6d" d="M 3328 2828 
Q 3544 3216 3844 3400 
Q 4144 3584 4550 3584 
Q 5097 3584 5394 3201 
Q 5691 2819 5691 2113 
L 5691 0 
L 5113 0 
L 5113 2094 
Q 5113 2597 4934 2840 
Q 4756 3084 4391 3084 
Q 3944 3084 3684 2787 
Q 3425 2491 3425 1978 
L 3425 0 
L 2847 0 
L 2847 2094 
Q 2847 2600 2669 2842 
Q 2491 3084 2119 3084 
Q 1678 3084 1418 2786 
Q 1159 2488 1159 1978 
L 1159 0 
L 581 0 
L 581 3500 
L 1159 3500 
L 1159 2956 
Q 1356 3278 1631 3431 
Q 1906 3584 2284 3584 
Q 2666 3584 2933 3390 
Q 3200 3197 3328 2828 
z
" transform="scale(0.015625)"/>
      </defs>
      <use xlink:href="#DejaVuSans-44"/>
      <use xlink:href="#DejaVuSans-61" transform="translate(77.001953 0)"/>
      <use xlink:href="#DejaVuSans-74" transform="translate(138.28125 0)"/>
      <use xlink:href="#DejaVuSans-65" transform="translate(177.490234 0)"/>
      <use xlink:href="#DejaVuSans-20" transform="translate(239.013672 0)"/>
      <use xlink:href="#DejaVuSans-61" transform="translate(270.800781 0)"/>
      <use xlink:href="#DejaVuSans-6e" transform="translate(332.080078 0)"/>
      <use xlink:href="#DejaVuSans-64" transform="translate(395.458984 0)"/>
      <use xlink:href="#DejaVuSans-20" transform="translate(458.935547 0)"/>
      <use xlink:href="#DejaVuSans-54" transform="translate(490.722656 0)"/>
      <use xlink:href="#DejaVuSans-69" transform="translate(548.681641 0)"/>
      <use xlink:href="#DejaVuSans-6d" transform="translate(576.464844 0)"/>
      <use xlink:href="#DejaVuSans-65" transform="translate(673.876953 0)"/>
     </g>
    </g>
   </g>
   <g id="matplotlib.axis_2">
    <g id="ytick_1">
     <g id="line2d_19">
      <path d="M 90 370.402759 
L 648 370.402759 
" clip-path="url(#p64d3cf2846)" style="fill: none; stroke: #b0b0b0; stroke-width: 0.8; stroke-linecap: square"/>
     </g>
     <g id="line2d_20">
      <defs>
       <path id="mf329c0df32" d="M 0 0 
L -3.5 0 
" style="stroke: #000000; stroke-width: 0.8"/>
      </defs>
      <g>
       <use xlink:href="#mf329c0df32" x="90" y="370.402759" style="stroke: #000000; stroke-width: 0.8"/>
      </g>
     </g>
     <g id="text_11">
      <!-- 0 -->
      <g transform="translate(76.6375 374.201977) scale(0.1 -0.1)">
       <use xlink:href="#DejaVuSans-30"/>
      </g>
     </g>
    </g>
    <g id="ytick_2">
     <g id="line2d_21">
      <path d="M 90 318.264828 
L 648 318.264828 
" clip-path="url(#p64d3cf2846)" style="fill: none; stroke: #b0b0b0; stroke-width: 0.8; stroke-linecap: square"/>
     </g>
     <g id="line2d_22">
      <g>
       <use xlink:href="#mf329c0df32" x="90" y="318.264828" style="stroke: #000000; stroke-width: 0.8"/>
      </g>
     </g>
     <g id="text_12">
      <!-- 50 -->
      <g transform="translate(70.275 322.064046) scale(0.1 -0.1)">
       <use xlink:href="#DejaVuSans-35"/>
       <use xlink:href="#DejaVuSans-30" transform="translate(63.623047 0)"/>
      </g>
     </g>
    </g>
    <g id="ytick_3">
     <g id="line2d_23">
      <path d="M 90 266.126897 
L 648 266.126897 
" clip-path="url(#p64d3cf2846)" style="fill: none; stroke: #b0b0b0; stroke-width: 0.8; stroke-linecap: square"/>
     </g>
     <g id="line2d_24">
      <g>
       <use xlink:href="#mf329c0df32" x="90" y="266.126897" style="stroke: #000000; stroke-width: 0.8"/>
      </g>
     </g>
     <g id="text_13">
      <!-- 100 -->
      <g transform="translate(63.9125 269.926115) scale(0.1 -0.1)">
       <use xlink:href="#DejaVuSans-31"/>
       <use xlink:href="#DejaVuSans-30" transform="translate(63.623047 0)"/>
       <use xlink:href="#DejaVuSans-30" transform="translate(127.246094 0)"/>
      </g>
     </g>
    </g>
    <g id="ytick_4">
     <g id="line2d_25">
      <path d="M 90 213.988966 
L 648 213.988966 
" clip-path="url(#p64d3cf2846)" style="fill: none; stroke: #b0b0b0; stroke-width: 0.8; stroke-linecap: square"/>
     </g>
     <g id="line2d_26">
      <g>
       <use xlink:href="#mf329c0df32" x="90" y="213.988966" style="stroke: #000000; stroke-width: 0.8"/>
      </g>
     </g>
     <g id="text_14">
      <!-- 150 -->
      <g transform="translate(63.9125 217.788184) scale(0.1 -0.1)">
       <use xlink:href="#DejaVuSans-31"/>
       <use xlink:href="#DejaVuSans-35" transform="translate(63.623047 0)"/>
       <use xlink:href="#DejaVuSans-30" transform="translate(127.246094 0)"/>
      </g>
     </g>
    </g>
    <g id="ytick_5">
     <g id="line2d_27">
      <path d="M 90 161.851034 
L 648 161.851034 
" clip-path="url(#p64d3cf2846)" style="fill: none; stroke: #b0b0b0; stroke-width: 0.8; stroke-linecap: square"/>
     </g>
     <g id="line2d_28">
      <g>
       <use xlink:href="#mf329c0df32" x="90" y="161.851034" style="stroke: #000000; stroke-width: 0.8"/>
      </g>
     </g>
     <g id="text_15">
      <!-- 200 -->
      <g transform="translate(63.9125 165.650253) scale(0.1 -0.1)">
       <use xlink:href="#DejaVuSans-32"/>
       <use xlink:href="#DejaVuSans-30" transform="translate(63.623047 0)"/>
       <use xlink:href="#DejaVuSans-30" transform="translate(127.246094 0)"/>
      </g>
     </g>
    </g>
    <g id="ytick_6">
     <g id="line2d_29">
      <path d="M 90 109.713103 
L 648 109.713103 
" clip-path="url(#p64d3cf2846)" style="fill: none; stroke: #b0b0b0; stroke-width: 0.8; stroke-linecap: square"/>
     </g>
     <g id="line2d_30">
      <g>
       <use xlink:href="#mf329c0df32" x="90" y="109.713103" style="stroke: #000000; stroke-width: 0.8"/>
      </g>
     </g>
     <g id="text_16">
      <!-- 250 -->
      <g transform="translate(63.9125 113.512322) scale(0.1 -0.1)">
       <use xlink:href="#DejaVuSans-32"/>
       <use xlink:href="#DejaVuSans-35" transform="translate(63.623047 0)"/>
       <use xlink:href="#DejaVuSans-30" transform="translate(127.246094 0)"/>
      </g>
     </g>
    </g>
    <g id="ytick_7">
     <g id="line2d_31">
      <path d="M 90 57.575172 
L 648 57.575172 
" clip-path="url(#p64d3cf2846)" style="fill: none; stroke: #b0b0b0; stroke-width: 0.8; stroke-linecap: square"/>
     </g>
     <g id="line2d_32">
      <g>
       <use xlink:href="#mf329c0df32" x="90" y="57.575172" style="stroke: #000000; stroke-width: 0.8"/>
      </g>
     </g>
     <g id="text_17">
      <!-- 300 -->
      <g transform="translate(63.9125 61.374391) scale(0.1 -0.1)">
       <defs>
        <path id="DejaVuSans-33" d="M 2597 2516 
Q 3050 2419 3304 2112 
Q 3559 1806 3559 1356 
Q 3559 666 3084 287 
Q 2609 -91 1734 -91 
Q 1441 -91 1130 -33 
Q 819 25 488 141 
L 488 750 
Q 750 597 1062 519 
Q 1375 441 1716 441 
Q 2309 441 2620 675 
Q 2931 909 2931 1356 
Q 2931 1769 2642 2001 
Q 2353 2234 1838 2234 
L 1294 2234 
L 1294 2753 
L 1863 2753 
Q 2328 2753 2575 2939 
Q 2822 3125 2822 3475 
Q 2822 3834 2567 4026 
Q 2313 4219 1838 4219 
Q 1578 4219 1281 4162 
Q 984 4106 628 3988 
L 628 4550 
Q 988 4650 1302 4700 
Q 1616 4750 1894 4750 
Q 2613 4750 3031 4423 
Q 3450 4097 3450 3541 
Q 3450 3153 3228 2886 
Q 3006 2619 2597 2516 
z
" transform="scale(0.015625)"/>
       </defs>
       <use xlink:href="#DejaVuSans-33"/>
       <use xlink:href="#DejaVuSans-30" transform="translate(63.623047 0)"/>
       <use xlink:href="#DejaVuSans-30" transform="translate(127.246094 0)"/>
      </g>
     </g>
    </g>
    <g id="text_18">
     <!-- Votes -->
     <g transform="translate(57.832812 231.893594) rotate(-90) scale(0.1 -0.1)">
      <defs>
       <path id="DejaVuSans-56" d="M 1831 0 
L 50 4666 
L 709 4666 
L 2188 738 
L 3669 4666 
L 4325 4666 
L 2547 0 
L 1831 0 
z
" transform="scale(0.015625)"/>
       <path id="DejaVuSans-6f" d="M 1959 3097 
Q 1497 3097 1228 2736 
Q 959 2375 959 1747 
Q 959 1119 1226 758 
Q 1494 397 1959 397 
Q 2419 397 2687 759 
Q 2956 1122 2956 1747 
Q 2956 2369 2687 2733 
Q 2419 3097 1959 3097 
z
M 1959 3584 
Q 2709 3584 3137 3096 
Q 3566 2609 3566 1747 
Q 3566 888 3137 398 
Q 2709 -91 1959 -91 
Q 1206 -91 779 398 
Q 353 888 353 1747 
Q 353 2609 779 3096 
Q 1206 3584 1959 3584 
z
" transform="scale(0.015625)"/>
       <path id="DejaVuSans-73" d="M 2834 3397 
L 2834 2853 
Q 2591 2978 2328 3040 
Q 2066 3103 1784 3103 
Q 1356 3103 1142 2972 
Q 928 2841 928 2578 
Q 928 2378 1081 2264 
Q 1234 2150 1697 2047 
L 1894 2003 
Q 2506 1872 2764 1633 
Q 3022 1394 3022 966 
Q 3022 478 2636 193 
Q 2250 -91 1575 -91 
Q 1294 -91 989 -36 
Q 684 19 347 128 
L 347 722 
Q 666 556 975 473 
Q 1284 391 1588 391 
Q 1994 391 2212 530 
Q 2431 669 2431 922 
Q 2431 1156 2273 1281 
Q 2116 1406 1581 1522 
L 1381 1569 
Q 847 1681 609 1914 
Q 372 2147 372 2553 
Q 372 3047 722 3315 
Q 1072 3584 1716 3584 
Q 2034 3584 2315 3537 
Q 2597 3491 2834 3397 
z
" transform="scale(0.015625)"/>
      </defs>
      <use xlink:href="#DejaVuSans-56"/>
      <use xlink:href="#DejaVuSans-6f" transform="translate(60.658203 0)"/>
      <use xlink:href="#DejaVuSans-74" transform="translate(121.839844 0)"/>
      <use xlink:href="#DejaVuSans-65" transform="translate(161.048828 0)"/>
      <use xlink:href="#DejaVuSans-73" transform="translate(222.572266 0)"/>
     </g>
    </g>
   </g>
   <g id="line2d_33">
    <path d="M 115.363636 351.633103 
L 125.408641 351.633103 
L 126.413141 350.590345 
L 136.458146 350.590345 
L 137.462646 348.504828 
L 146.50315 348.504828 
L 147.507651 347.462069 
L 152.530153 347.462069 
L 153.534653 346.41931 
L 157.552655 346.41931 
L 158.557156 345.376552 
L 161.570657 345.376552 
L 162.575158 344.333793 
L 176.638164 344.333793 
L 177.642664 343.291034 
L 188.692169 343.291034 
L 190.70117 341.205517 
L 192.710171 341.205517 
L 193.714671 340.162759 
L 202.755176 340.162759 
L 204.764176 338.077241 
L 216.818182 338.077241 
L 217.822682 337.034483 
L 220.836184 337.034483 
L 221.840684 335.991724 
L 222.845185 335.991724 
L 223.849685 334.948966 
L 250.971197 334.948966 
L 251.975698 333.906207 
L 264.029703 333.906207 
L 265.034203 332.863448 
L 272.065707 332.863448 
L 273.070207 331.82069 
L 274.074707 329.735172 
L 275.079208 329.735172 
L 277.088209 327.649655 
L 293.160216 327.649655 
L 294.164716 326.606897 
L 300.191719 326.606897 
L 301.19622 325.564138 
L 305.214221 325.564138 
L 306.218722 324.521379 
L 316.263726 324.521379 
L 317.268227 323.478621 
L 319.277228 323.478621 
L 320.281728 322.435862 
L 323.29523 322.435862 
L 324.29973 321.393103 
L 332.335734 321.393103 
L 333.340234 320.350345 
L 334.344734 320.350345 
L 335.349235 319.307586 
L 345.394239 319.307586 
L 346.39874 318.264828 
L 353.430243 318.264828 
L 354.434743 317.222069 
L 355.439244 317.222069 
L 357.448245 315.136552 
L 379.547255 315.136552 
L 380.551755 314.093793 
L 396.623762 314.093793 
L 397.628263 313.051034 
L 398.632763 313.051034 
L 399.637264 312.008276 
L 408.677768 312.008276 
L 409.682268 310.965517 
L 410.686769 310.965517 
L 411.691269 309.922759 
L 416.713771 309.922759 
L 417.718272 308.88 
L 420.731773 308.88 
L 422.740774 306.794483 
L 423.745275 306.794483 
L 424.749775 305.751724 
L 426.758776 305.751724 
L 427.763276 304.708966 
L 429.772277 304.708966 
L 430.776778 303.666207 
L 432.785779 303.666207 
L 433.790279 302.623448 
L 457.89829 302.623448 
L 458.90279 301.58069 
L 468.947795 301.58069 
L 469.952295 300.537931 
L 475.979298 300.537931 
L 476.983798 299.495172 
L 477.988299 299.495172 
L 478.992799 298.452414 
L 479.9973 298.452414 
L 484.015302 294.281379 
L 486.024302 294.281379 
L 487.028803 292.195862 
L 495.064806 292.195862 
L 497.073807 290.110345 
L 499.082808 290.110345 
L 500.087309 289.067586 
L 504.105311 289.067586 
L 505.109811 288.024828 
L 512.141314 288.024828 
L 513.145815 286.982069 
L 515.154815 286.982069 
L 516.159316 285.93931 
L 522.186319 285.93931 
L 524.19532 283.853793 
L 531.226823 283.853793 
L 532.231323 282.811034 
L 535.244824 282.811034 
L 536.249325 281.768276 
L 538.258326 281.768276 
L 539.262826 279.682759 
L 543.280828 279.682759 
L 544.285329 277.597241 
L 545.289829 276.554483 
L 549.307831 276.554483 
L 550.312331 274.468966 
L 557.343834 274.468966 
L 558.348335 273.426207 
L 562.366337 273.426207 
L 563.370837 272.383448 
L 566.384338 272.383448 
L 567.388839 271.34069 
L 568.393339 269.255172 
L 570.40234 269.255172 
L 571.406841 268.212414 
L 587.478848 268.212414 
L 589.487849 266.126897 
L 603.550855 266.126897 
L 604.555356 265.084138 
L 610.582358 265.084138 
L 611.586859 264.041379 
L 622.636364 264.041379 
L 622.636364 264.041379 
" clip-path="url(#p64d3cf2846)" style="fill: none; stroke: #1f77b4; stroke-width: 1.5; stroke-linecap: square"/>
   </g>
   <g id="line2d_34">
    <path d="M 115.363636 284.896552 
L 116.368137 283.853793 
L 119.381638 283.853793 
L 120.386139 282.811034 
L 121.390639 282.811034 
L 122.39514 281.768276 
L 123.39964 281.768276 
L 125.408641 279.682759 
L 126.413141 277.597241 
L 127.417642 277.597241 
L 129.426643 275.511724 
L 130.431143 275.511724 
L 131.435644 271.34069 
L 132.440144 269.255172 
L 133.444644 265.084138 
L 134.449145 261.955862 
L 137.462646 261.955862 
L 138.467147 258.827586 
L 139.471647 256.742069 
L 141.480648 254.656552 
L 142.485149 252.571034 
L 144.494149 250.485517 
L 145.49865 248.4 
L 148.512151 248.4 
L 149.516652 243.186207 
L 150.521152 241.10069 
L 151.525653 240.057931 
L 152.530153 237.972414 
L 153.534653 236.929655 
L 154.539154 236.929655 
L 155.543654 233.801379 
L 156.548155 233.801379 
L 157.552655 231.715862 
L 158.557156 230.673103 
L 159.561656 230.673103 
L 160.566157 229.630345 
L 162.575158 229.630345 
L 163.579658 228.587586 
L 165.588659 228.587586 
L 166.593159 226.502069 
L 167.59766 226.502069 
L 168.60216 225.45931 
L 172.620162 225.45931 
L 173.624662 224.416552 
L 176.638164 224.416552 
L 177.642664 223.373793 
L 178.647165 223.373793 
L 179.651665 221.288276 
L 180.656166 221.288276 
L 181.660666 219.202759 
L 182.665167 218.16 
L 185.678668 218.16 
L 186.683168 216.074483 
L 187.687669 215.031724 
L 188.692169 211.903448 
L 190.70117 209.817931 
L 198.737174 209.817931 
L 199.741674 206.689655 
L 200.746175 206.689655 
L 202.755176 204.604138 
L 203.759676 204.604138 
L 206.773177 201.475862 
L 208.782178 201.475862 
L 209.786679 200.433103 
L 211.79568 200.433103 
L 214.809181 197.304828 
L 216.818182 197.304828 
L 217.822682 196.262069 
L 222.845185 196.262069 
L 223.849685 195.21931 
L 225.858686 195.21931 
L 226.863186 194.176552 
L 238.917192 194.176552 
L 239.921692 192.091034 
L 241.930693 192.091034 
L 243.939694 190.005517 
L 244.944194 190.005517 
L 245.948695 188.962759 
L 251.975698 188.962759 
L 254.989199 185.834483 
L 255.993699 185.834483 
L 256.9982 184.791724 
L 258.0027 182.706207 
L 259.007201 182.706207 
L 260.011701 181.663448 
L 261.016202 181.663448 
L 265.034203 177.492414 
L 267.043204 177.492414 
L 268.047705 175.406897 
L 271.061206 175.406897 
L 272.065707 174.364138 
L 275.079208 174.364138 
L 276.083708 173.321379 
L 277.088209 173.321379 
L 278.092709 170.193103 
L 281.106211 170.193103 
L 282.110711 169.150345 
L 283.115212 167.064828 
L 285.124212 167.064828 
L 286.128713 166.022069 
L 288.137714 166.022069 
L 289.142214 164.97931 
L 290.146715 164.97931 
L 295.169217 159.765517 
L 297.178218 159.765517 
L 300.191719 156.637241 
L 303.205221 156.637241 
L 304.209721 154.551724 
L 305.214221 154.551724 
L 306.218722 153.508966 
L 309.232223 153.508966 
L 310.236724 152.466207 
L 319.277228 152.466207 
L 320.281728 151.423448 
L 327.313231 151.423448 
L 328.317732 150.38069 
L 330.326733 150.38069 
L 332.335734 148.295172 
L 337.358236 148.295172 
L 338.362736 147.252414 
L 343.385239 147.252414 
L 346.39874 144.124138 
L 359.457246 144.124138 
L 360.461746 142.038621 
L 361.466247 140.995862 
L 385.574257 140.995862 
L 386.578758 139.953103 
L 392.605761 139.953103 
L 394.614761 137.867586 
L 396.623762 137.867586 
L 397.628263 136.824828 
L 398.632763 136.824828 
L 400.641764 134.73931 
L 401.646265 134.73931 
L 402.650765 133.696552 
L 403.655266 133.696552 
L 405.664266 129.525517 
L 406.668767 128.482759 
L 411.691269 128.482759 
L 412.69577 125.354483 
L 413.70027 123.268966 
L 415.709271 123.268966 
L 417.718272 121.183448 
L 422.740774 121.183448 
L 424.749775 119.097931 
L 426.758776 119.097931 
L 427.763276 118.055172 
L 429.772277 118.055172 
L 430.776778 117.012414 
L 431.781278 117.012414 
L 432.785779 115.969655 
L 433.790279 115.969655 
L 434.794779 114.926897 
L 435.79928 114.926897 
L 436.80378 113.884138 
L 438.812781 113.884138 
L 439.817282 111.798621 
L 444.839784 111.798621 
L 446.848785 109.713103 
L 456.893789 109.713103 
L 457.89829 108.670345 
L 458.90279 108.670345 
L 459.907291 107.627586 
L 460.911791 107.627586 
L 463.925293 104.49931 
L 465.934293 104.49931 
L 466.938794 103.456552 
L 487.028803 103.456552 
L 489.037804 101.371034 
L 493.055806 101.371034 
L 494.060306 100.328276 
L 495.064806 100.328276 
L 496.069307 99.285517 
L 497.073807 99.285517 
L 498.078308 98.242759 
L 520.177318 98.242759 
L 521.181818 97.2 
L 541.271827 97.2 
L 542.276328 95.114483 
L 549.307831 95.114483 
L 551.316832 93.028966 
L 553.325833 93.028966 
L 554.330333 91.986207 
L 556.339334 91.986207 
L 558.348335 89.90069 
L 560.357336 89.90069 
L 561.361836 87.815172 
L 569.39784 87.815172 
L 570.40234 86.772414 
L 575.424842 86.772414 
L 576.429343 85.729655 
L 582.456346 85.729655 
L 583.460846 84.686897 
L 590.492349 84.686897 
L 592.50135 82.601379 
L 593.505851 82.601379 
L 594.510351 81.558621 
L 600.537354 81.558621 
L 601.541854 80.515862 
L 605.559856 80.515862 
L 606.564356 79.473103 
L 607.568857 79.473103 
L 608.573357 78.430345 
L 622.636364 78.430345 
L 622.636364 78.430345 
" clip-path="url(#p64d3cf2846)" style="fill: none; stroke: #ff7f0e; stroke-width: 1.5; stroke-linecap: square"/>
   </g>
   <g id="line2d_35">
    <path d="M 115.363636 338.077241 
L 119.381638 338.077241 
L 120.386139 335.991724 
L 122.39514 335.991724 
L 123.39964 334.948966 
L 124.40414 332.863448 
L 125.408641 331.82069 
L 126.413141 328.692414 
L 127.417642 326.606897 
L 128.422142 325.564138 
L 129.426643 325.564138 
L 130.431143 323.478621 
L 131.435644 320.350345 
L 135.453645 320.350345 
L 136.458146 319.307586 
L 137.462646 319.307586 
L 138.467147 317.222069 
L 141.480648 317.222069 
L 143.489649 315.136552 
L 147.507651 315.136552 
L 148.512151 314.093793 
L 152.530153 314.093793 
L 155.543654 310.965517 
L 160.566157 310.965517 
L 161.570657 309.922759 
L 164.584158 309.922759 
L 165.588659 308.88 
L 167.59766 308.88 
L 168.60216 306.794483 
L 176.638164 306.794483 
L 177.642664 305.751724 
L 178.647165 303.666207 
L 179.651665 302.623448 
L 180.656166 302.623448 
L 181.660666 301.58069 
L 183.669667 301.58069 
L 184.674167 300.537931 
L 186.683168 300.537931 
L 187.687669 299.495172 
L 193.714671 299.495172 
L 194.719172 298.452414 
L 195.723672 298.452414 
L 196.728173 297.409655 
L 197.732673 297.409655 
L 198.737174 296.366897 
L 201.750675 296.366897 
L 202.755176 295.324138 
L 203.759676 293.238621 
L 208.782178 293.238621 
L 211.79568 290.110345 
L 214.809181 290.110345 
L 215.813681 289.067586 
L 219.831683 289.067586 
L 220.836184 288.024828 
L 221.840684 288.024828 
L 222.845185 286.982069 
L 224.854185 286.982069 
L 225.858686 285.93931 
L 228.872187 285.93931 
L 230.881188 283.853793 
L 231.885689 283.853793 
L 232.890189 282.811034 
L 240.926193 282.811034 
L 241.930693 280.725517 
L 242.935194 279.682759 
L 250.971197 279.682759 
L 251.975698 278.64 
L 254.989199 278.64 
L 255.993699 277.597241 
L 259.007201 277.597241 
L 260.011701 276.554483 
L 270.056706 276.554483 
L 271.061206 275.511724 
L 275.079208 275.511724 
L 276.083708 274.468966 
L 282.110711 274.468966 
L 283.115212 273.426207 
L 285.124212 273.426207 
L 286.128713 272.383448 
L 290.146715 272.383448 
L 292.155716 270.297931 
L 311.241224 270.297931 
L 312.245725 269.255172 
L 313.250225 269.255172 
L 314.254725 268.212414 
L 317.268227 268.212414 
L 318.272727 267.169655 
L 323.29523 267.169655 
L 324.29973 266.126897 
L 326.308731 266.126897 
L 327.313231 265.084138 
L 333.340234 265.084138 
L 334.344734 266.126897 
L 335.349235 265.084138 
L 342.380738 265.084138 
L 343.385239 264.041379 
L 351.421242 264.041379 
L 352.425743 262.998621 
L 354.434743 262.998621 
L 355.439244 261.955862 
L 356.443744 261.955862 
L 357.448245 260.913103 
L 364.479748 260.913103 
L 365.484248 259.870345 
L 371.511251 259.870345 
L 372.515752 258.827586 
L 387.583258 258.827586 
L 388.587759 257.784828 
L 410.686769 257.784828 
L 411.691269 256.742069 
L 421.736274 256.742069 
L 422.740774 255.69931 
L 438.812781 255.69931 
L 440.821782 253.613793 
L 458.90279 253.613793 
L 459.907291 252.571034 
L 460.911791 250.485517 
L 481.0018 250.485517 
L 482.006301 249.442759 
L 484.015302 249.442759 
L 485.019802 248.4 
L 491.046805 248.4 
L 492.051305 247.357241 
L 495.064806 247.357241 
L 497.073807 245.271724 
L 499.082808 245.271724 
L 500.087309 244.228966 
L 504.105311 244.228966 
L 505.109811 242.143448 
L 508.123312 242.143448 
L 509.127813 241.10069 
L 510.132313 241.10069 
L 512.141314 239.015172 
L 525.19982 239.015172 
L 526.20432 237.972414 
L 538.258326 237.972414 
L 539.262826 235.886897 
L 547.29883 235.886897 
L 549.307831 233.801379 
L 559.352835 233.801379 
L 562.366337 230.673103 
L 565.379838 230.673103 
L 566.384338 229.630345 
L 568.393339 229.630345 
L 569.39784 228.587586 
L 578.438344 228.587586 
L 579.442844 227.544828 
L 588.483348 227.544828 
L 589.487849 226.502069 
L 596.519352 226.502069 
L 598.528353 224.416552 
L 605.559856 224.416552 
L 606.564356 223.373793 
L 616.609361 223.373793 
L 617.613861 222.331034 
L 618.618362 222.331034 
L 619.622862 221.288276 
L 622.636364 221.288276 
L 622.636364 221.288276 
" clip-path="url(#p64d3cf2846)" style="fill: none; stroke: #2ca02c; stroke-width: 1.5; stroke-linecap: square"/>
   </g>
   <g id="line2d_36">
    <path d="M 115.363636 369.36 
L 363.475248 369.36 
L 364.479748 368.317241 
L 577.433843 368.317241 
L 578.438344 367.274483 
L 622.636364 367.274483 
L 622.636364 367.274483 
" clip-path="url(#p64d3cf2846)" style="fill: none; stroke: #d62728; stroke-width: 1.5; stroke-linecap: square"/>
   </g>
   <g id="line2d_37">
    <path d="M 115.363636 346.41931 
L 118.377138 346.41931 
L 119.381638 345.376552 
L 125.408641 345.376552 
L 126.413141 344.333793 
L 132.440144 344.333793 
L 133.444644 343.291034 
L 155.543654 343.291034 
L 156.548155 342.248276 
L 192.710171 342.248276 
L 194.719172 340.162759 
L 202.755176 340.162759 
L 203.759676 339.12 
L 207.777678 339.12 
L 208.782178 338.077241 
L 210.791179 338.077241 
L 211.79568 337.034483 
L 237.912691 337.034483 
L 238.917192 335.991724 
L 280.10171 335.991724 
L 281.106211 334.948966 
L 411.691269 334.948966 
L 412.69577 333.906207 
L 413.70027 333.906207 
L 414.70477 332.863448 
L 477.988299 332.863448 
L 478.992799 331.82069 
L 622.636364 331.82069 
L 622.636364 331.82069 
" clip-path="url(#p64d3cf2846)" style="fill: none; stroke: #9467bd; stroke-width: 1.5; stroke-linecap: square"/>
   </g>
   <g id="line2d_38">
    <path d="M 115.363636 354.761379 
L 116.368137 354.761379 
L 117.372637 353.718621 
L 131.435644 353.718621 
L 132.440144 352.675862 
L 144.494149 352.675862 
L 145.49865 351.633103 
L 160.566157 351.633103 
L 162.575158 349.547586 
L 173.624662 349.547586 
L 174.629163 348.504828 
L 204.764176 348.504828 
L 205.768677 347.462069 
L 214.809181 347.462069 
L 215.813681 346.41931 
L 232.890189 346.41931 
L 233.894689 345.376552 
L 249.966697 345.376552 
L 250.971197 344.333793 
L 254.989199 344.333793 
L 255.993699 343.291034 
L 265.034203 343.291034 
L 266.038704 342.248276 
L 290.146715 342.248276 
L 291.151215 341.205517 
L 297.178218 341.205517 
L 298.182718 340.162759 
L 304.209721 340.162759 
L 305.214221 339.12 
L 309.232223 339.12 
L 310.236724 338.077241 
L 347.40324 338.077241 
L 348.407741 337.034483 
L 377.538254 337.034483 
L 378.542754 335.991724 
L 436.80378 335.991724 
L 437.808281 334.948966 
L 465.934293 334.948966 
L 466.938794 333.906207 
L 479.9973 333.906207 
L 481.0018 332.863448 
L 622.636364 332.863448 
L 622.636364 332.863448 
" clip-path="url(#p64d3cf2846)" style="fill: none; stroke: #8c564b; stroke-width: 1.5; stroke-linecap: square"/>
   </g>
   <g id="line2d_39">
    <path d="M 115.363636 277.597241 
L 119.381638 277.597241 
L 120.386139 276.554483 
L 124.40414 276.554483 
L 126.413141 274.468966 
L 127.417642 274.468966 
L 128.422142 273.426207 
L 129.426643 273.426207 
L 130.431143 272.383448 
L 132.440144 272.383448 
L 133.444644 271.34069 
L 136.458146 271.34069 
L 137.462646 270.297931 
L 139.471647 270.297931 
L 140.476148 269.255172 
L 141.480648 269.255172 
L 142.485149 268.212414 
L 144.494149 268.212414 
L 146.50315 266.126897 
L 150.521152 266.126897 
L 151.525653 265.084138 
L 154.539154 265.084138 
L 156.548155 262.998621 
L 158.557156 262.998621 
L 159.561656 261.955862 
L 161.570657 261.955862 
L 162.575158 260.913103 
L 163.579658 258.827586 
L 164.584158 255.69931 
L 166.593159 255.69931 
L 167.59766 254.656552 
L 172.620162 254.656552 
L 174.629163 252.571034 
L 175.633663 250.485517 
L 176.638164 249.442759 
L 177.642664 249.442759 
L 178.647165 247.357241 
L 182.665167 247.357241 
L 183.669667 246.314483 
L 184.674167 246.314483 
L 186.683168 244.228966 
L 187.687669 244.228966 
L 188.692169 243.186207 
L 189.69667 243.186207 
L 191.705671 241.10069 
L 193.714671 241.10069 
L 194.719172 239.015172 
L 198.737174 239.015172 
L 200.746175 236.929655 
L 202.755176 236.929655 
L 203.759676 235.886897 
L 204.764176 233.801379 
L 207.777678 233.801379 
L 208.782178 232.758621 
L 209.786679 232.758621 
L 210.791179 230.673103 
L 211.79568 230.673103 
L 212.80018 229.630345 
L 213.80468 229.630345 
L 214.809181 228.587586 
L 218.827183 228.587586 
L 220.836184 226.502069 
L 221.840684 226.502069 
L 222.845185 224.416552 
L 223.849685 224.416552 
L 224.854185 223.373793 
L 225.858686 223.373793 
L 226.863186 222.331034 
L 229.876688 222.331034 
L 230.881188 221.288276 
L 231.885689 221.288276 
L 235.90369 217.117241 
L 236.908191 215.031724 
L 238.917192 215.031724 
L 240.926193 210.86069 
L 242.935194 210.86069 
L 244.944194 208.775172 
L 245.948695 208.775172 
L 246.953195 206.689655 
L 247.957696 206.689655 
L 248.962196 205.646897 
L 249.966697 205.646897 
L 250.971197 204.604138 
L 252.980198 204.604138 
L 253.984698 203.561379 
L 254.989199 203.561379 
L 255.993699 202.518621 
L 260.011701 202.518621 
L 261.016202 197.304828 
L 262.020702 197.304828 
L 263.025203 196.262069 
L 266.038704 196.262069 
L 267.043204 195.21931 
L 276.083708 195.21931 
L 277.088209 193.133793 
L 281.106211 193.133793 
L 282.110711 192.091034 
L 292.155716 192.091034 
L 293.160216 190.005517 
L 294.164716 188.962759 
L 299.187219 188.962759 
L 300.191719 187.92 
L 307.223222 187.92 
L 308.227723 186.877241 
L 309.232223 186.877241 
L 310.236724 185.834483 
L 316.263726 185.834483 
L 318.272727 183.748966 
L 325.30423 183.748966 
L 327.313231 181.663448 
L 328.317732 181.663448 
L 329.322232 180.62069 
L 335.349235 180.62069 
L 336.353735 179.577931 
L 339.367237 179.577931 
L 340.371737 178.535172 
L 341.376238 176.449655 
L 344.389739 176.449655 
L 345.394239 175.406897 
L 346.39874 175.406897 
L 348.407741 173.321379 
L 352.425743 173.321379 
L 353.430243 172.278621 
L 357.448245 172.278621 
L 358.452745 171.235862 
L 361.466247 171.235862 
L 362.470747 170.193103 
L 370.506751 170.193103 
L 372.515752 168.107586 
L 377.538254 168.107586 
L 378.542754 167.064828 
L 382.560756 167.064828 
L 387.583258 161.851034 
L 389.592259 161.851034 
L 390.59676 160.808276 
L 391.60126 160.808276 
L 392.605761 158.722759 
L 394.614761 156.637241 
L 396.623762 152.466207 
L 398.632763 152.466207 
L 400.641764 148.295172 
L 402.650765 148.295172 
L 403.655266 146.209655 
L 405.664266 144.124138 
L 408.677768 144.124138 
L 409.682268 143.081379 
L 410.686769 143.081379 
L 412.69577 140.995862 
L 416.713771 140.995862 
L 417.718272 139.953103 
L 419.727273 139.953103 
L 420.731773 138.910345 
L 425.754275 138.910345 
L 426.758776 136.824828 
L 427.763276 135.782069 
L 428.767777 135.782069 
L 429.772277 134.73931 
L 431.781278 134.73931 
L 432.785779 133.696552 
L 434.794779 133.696552 
L 435.79928 131.611034 
L 437.808281 131.611034 
L 438.812781 130.568276 
L 439.817282 130.568276 
L 440.821782 129.525517 
L 445.844284 129.525517 
L 446.848785 128.482759 
L 451.871287 128.482759 
L 452.875788 127.44 
L 453.880288 127.44 
L 454.884788 125.354483 
L 456.893789 123.268966 
L 457.89829 120.14069 
L 458.90279 119.097931 
L 459.907291 119.097931 
L 460.911791 118.055172 
L 461.916292 118.055172 
L 462.920792 117.012414 
L 466.938794 117.012414 
L 467.943294 115.969655 
L 469.952295 115.969655 
L 470.956796 114.926897 
L 472.965797 114.926897 
L 474.974797 112.841379 
L 477.988299 112.841379 
L 478.992799 111.798621 
L 484.015302 111.798621 
L 485.019802 109.713103 
L 490.042304 109.713103 
L 491.046805 108.670345 
L 494.060306 108.670345 
L 495.064806 106.584828 
L 499.082808 106.584828 
L 500.087309 105.542069 
L 509.127813 105.542069 
L 510.132313 104.49931 
L 512.141314 104.49931 
L 513.145815 103.456552 
L 520.177318 103.456552 
L 521.181818 102.413793 
L 522.186319 102.413793 
L 523.190819 101.371034 
L 524.19532 101.371034 
L 525.19982 100.328276 
L 531.226823 100.328276 
L 533.235824 98.242759 
L 547.29883 98.242759 
L 548.30333 97.2 
L 549.307831 97.2 
L 551.316832 95.114483 
L 552.321332 95.114483 
L 553.325833 94.071724 
L 565.379838 94.071724 
L 566.384338 93.028966 
L 567.388839 90.943448 
L 569.39784 90.943448 
L 570.40234 89.90069 
L 575.424842 89.90069 
L 576.429343 88.857931 
L 577.433843 88.857931 
L 579.442844 86.772414 
L 584.465347 86.772414 
L 585.469847 85.729655 
L 588.483348 85.729655 
L 589.487849 84.686897 
L 591.49685 84.686897 
L 592.50135 83.644138 
L 594.510351 83.644138 
L 595.514851 82.601379 
L 596.519352 82.601379 
L 597.523852 80.515862 
L 604.555356 80.515862 
L 605.559856 77.387586 
L 606.564356 75.302069 
L 607.568857 75.302069 
L 611.586859 71.131034 
L 612.591359 69.045517 
L 614.60036 69.045517 
L 615.60486 66.96 
L 622.636364 66.96 
L 622.636364 66.96 
" clip-path="url(#p64d3cf2846)" style="fill: none; stroke: #e377c2; stroke-width: 1.5; stroke-linecap: square"/>
   </g>
   <g id="line2d_40">
    <path d="M 115.363636 342.248276 
L 116.368137 342.248276 
L 118.377138 340.162759 
L 123.39964 340.162759 
L 124.40414 339.12 
L 125.408641 339.12 
L 127.417642 337.034483 
L 129.426643 337.034483 
L 130.431143 335.991724 
L 133.444644 335.991724 
L 134.449145 334.948966 
L 135.453645 334.948966 
L 136.458146 333.906207 
L 137.462646 333.906207 
L 139.471647 331.82069 
L 142.485149 331.82069 
L 143.489649 330.777931 
L 145.49865 330.777931 
L 147.507651 328.692414 
L 149.516652 328.692414 
L 151.525653 326.606897 
L 152.530153 326.606897 
L 153.534653 325.564138 
L 154.539154 322.435862 
L 158.557156 322.435862 
L 162.575158 318.264828 
L 163.579658 318.264828 
L 165.588659 316.17931 
L 166.593159 316.17931 
L 167.59766 315.136552 
L 168.60216 315.136552 
L 169.606661 314.093793 
L 178.647165 314.093793 
L 179.651665 313.051034 
L 189.69667 313.051034 
L 191.705671 310.965517 
L 194.719172 310.965517 
L 195.723672 309.922759 
L 197.732673 309.922759 
L 199.741674 307.837241 
L 201.750675 307.837241 
L 202.755176 305.751724 
L 205.768677 305.751724 
L 206.773177 303.666207 
L 207.777678 302.623448 
L 212.80018 302.623448 
L 213.80468 301.58069 
L 214.809181 301.58069 
L 216.818182 299.495172 
L 221.840684 299.495172 
L 222.845185 298.452414 
L 223.849685 298.452414 
L 224.854185 297.409655 
L 230.881188 297.409655 
L 231.885689 296.366897 
L 234.89919 296.366897 
L 235.90369 295.324138 
L 236.908191 295.324138 
L 237.912691 292.195862 
L 238.917192 292.195862 
L 239.921692 290.110345 
L 240.926193 289.067586 
L 241.930693 289.067586 
L 243.939694 286.982069 
L 245.948695 286.982069 
L 246.953195 285.93931 
L 248.962196 285.93931 
L 249.966697 284.896552 
L 250.971197 284.896552 
L 251.975698 282.811034 
L 252.980198 282.811034 
L 253.984698 281.768276 
L 255.993699 281.768276 
L 258.0027 279.682759 
L 259.007201 279.682759 
L 260.011701 277.597241 
L 261.016202 276.554483 
L 268.047705 276.554483 
L 269.052205 274.468966 
L 272.065707 274.468966 
L 273.070207 273.426207 
L 274.074707 273.426207 
L 275.079208 272.383448 
L 278.092709 272.383448 
L 279.09721 271.34069 
L 284.119712 271.34069 
L 285.124212 270.297931 
L 287.133213 270.297931 
L 288.137714 269.255172 
L 293.160216 269.255172 
L 294.164716 268.212414 
L 303.205221 268.212414 
L 305.214221 266.126897 
L 306.218722 266.126897 
L 307.223222 265.084138 
L 308.227723 265.084138 
L 309.232223 264.041379 
L 310.236724 264.041379 
L 311.241224 262.998621 
L 313.250225 262.998621 
L 314.254725 261.955862 
L 315.259226 261.955862 
L 317.268227 259.870345 
L 320.281728 259.870345 
L 321.286229 258.827586 
L 324.29973 258.827586 
L 325.30423 257.784828 
L 332.335734 257.784828 
L 333.340234 256.742069 
L 334.344734 256.742069 
L 335.349235 255.69931 
L 339.367237 255.69931 
L 340.371737 253.613793 
L 346.39874 253.613793 
L 347.40324 252.571034 
L 348.407741 252.571034 
L 349.412241 250.485517 
L 354.434743 250.485517 
L 355.439244 249.442759 
L 361.466247 249.442759 
L 362.470747 248.4 
L 375.529253 248.4 
L 376.533753 247.357241 
L 391.60126 247.357241 
L 392.605761 246.314483 
L 397.628263 246.314483 
L 398.632763 245.271724 
L 399.637264 245.271724 
L 400.641764 244.228966 
L 401.646265 244.228966 
L 402.650765 242.143448 
L 403.655266 242.143448 
L 405.664266 240.057931 
L 412.69577 240.057931 
L 413.70027 239.015172 
L 414.70477 239.015172 
L 415.709271 237.972414 
L 416.713771 237.972414 
L 417.718272 236.929655 
L 422.740774 236.929655 
L 423.745275 235.886897 
L 432.785779 235.886897 
L 433.790279 234.844138 
L 438.812781 234.844138 
L 439.817282 233.801379 
L 444.839784 233.801379 
L 445.844284 232.758621 
L 447.853285 232.758621 
L 450.866787 229.630345 
L 452.875788 229.630345 
L 453.880288 227.544828 
L 458.90279 227.544828 
L 460.911791 225.45931 
L 462.920792 225.45931 
L 463.925293 224.416552 
L 464.929793 224.416552 
L 466.938794 222.331034 
L 473.970297 222.331034 
L 474.974797 221.288276 
L 476.983798 221.288276 
L 477.988299 220.245517 
L 486.024302 220.245517 
L 488.033303 218.16 
L 491.046805 218.16 
L 492.051305 217.117241 
L 493.055806 217.117241 
L 494.060306 213.988966 
L 495.064806 212.946207 
L 499.082808 212.946207 
L 500.087309 210.86069 
L 503.10081 210.86069 
L 504.105311 209.817931 
L 514.150315 209.817931 
L 515.154815 208.775172 
L 525.19982 208.775172 
L 527.208821 206.689655 
L 534.240324 206.689655 
L 535.244824 205.646897 
L 552.321332 205.646897 
L 556.339334 201.475862 
L 560.357336 201.475862 
L 561.361836 200.433103 
L 569.39784 200.433103 
L 570.40234 199.390345 
L 573.415842 199.390345 
L 574.420342 198.347586 
L 575.424842 198.347586 
L 576.429343 197.304828 
L 582.456346 197.304828 
L 584.465347 195.21931 
L 586.474347 195.21931 
L 587.478848 194.176552 
L 592.50135 194.176552 
L 593.505851 193.133793 
L 594.510351 193.133793 
L 595.514851 191.048276 
L 606.564356 191.048276 
L 608.573357 188.962759 
L 611.586859 188.962759 
L 612.591359 187.92 
L 617.613861 187.92 
L 618.618362 186.877241 
L 622.636364 186.877241 
L 622.636364 186.877241 
" clip-path="url(#p64d3cf2846)" style="fill: none; stroke: #7f7f7f; stroke-width: 1.5; stroke-linecap: square"/>
   </g>
   <g id="line2d_41">
    <path d="M 115.363636 348.504828 
L 119.381638 348.504828 
L 120.386139 347.462069 
L 130.431143 347.462069 
L 131.435644 346.41931 
L 136.458146 346.41931 
L 137.462646 345.376552 
L 147.507651 345.376552 
L 148.512151 344.333793 
L 158.557156 344.333793 
L 159.561656 343.291034 
L 213.80468 343.291034 
L 214.809181 342.248276 
L 219.831683 342.248276 
L 220.836184 341.205517 
L 227.867687 341.205517 
L 228.872187 340.162759 
L 229.876688 340.162759 
L 230.881188 337.034483 
L 231.885689 335.991724 
L 233.894689 335.991724 
L 234.89919 334.948966 
L 244.944194 334.948966 
L 245.948695 333.906207 
L 254.989199 333.906207 
L 255.993699 332.863448 
L 267.043204 332.863448 
L 268.047705 331.82069 
L 280.10171 331.82069 
L 281.106211 330.777931 
L 286.128713 330.777931 
L 287.133213 329.735172 
L 319.277228 329.735172 
L 320.281728 328.692414 
L 322.290729 328.692414 
L 323.29523 327.649655 
L 331.331233 327.649655 
L 332.335734 326.606897 
L 360.461746 326.606897 
L 363.475248 323.478621 
L 392.605761 323.478621 
L 393.610261 322.435862 
L 394.614761 322.435862 
L 396.623762 320.350345 
L 398.632763 320.350345 
L 399.637264 319.307586 
L 450.866787 319.307586 
L 451.871287 318.264828 
L 510.132313 318.264828 
L 511.136814 317.222069 
L 553.325833 317.222069 
L 554.330333 316.17931 
L 559.352835 316.17931 
L 560.357336 315.136552 
L 574.420342 315.136552 
L 575.424842 314.093793 
L 595.514851 314.093793 
L 596.519352 313.051034 
L 622.636364 313.051034 
L 622.636364 313.051034 
" clip-path="url(#p64d3cf2846)" style="fill: none; stroke: #bcbd22; stroke-width: 1.5; stroke-linecap: square"/>
   </g>
   <g id="line2d_42">
    <path d="M 115.363636 367.274483 
L 165.588659 367.274483 
L 166.593159 366.231724 
L 229.876688 366.231724 
L 230.881188 365.188966 
L 333.340234 365.188966 
L 334.344734 364.146207 
L 335.349235 365.188966 
L 456.893789 365.188966 
L 457.89829 364.146207 
L 464.929793 364.146207 
L 465.934293 363.103448 
L 491.046805 363.103448 
L 492.051305 362.06069 
L 622.636364 362.06069 
L 622.636364 362.06069 
" clip-path="url(#p64d3cf2846)" style="fill: none; stroke: #17becf; stroke-width: 1.5; stroke-linecap: square"/>
   </g>
   <g id="line2d_43">
    <path d="M 115.363636 369.36 
L 116.368137 368.317241 
L 118.377138 368.317241 
L 119.381638 367.274483 
L 126.413141 367.274483 
L 127.417642 366.231724 
L 130.431143 366.231724 
L 131.435644 365.188966 
L 132.440144 365.188966 
L 134.449145 363.103448 
L 139.471647 363.103448 
L 141.480648 361.017931 
L 142.485149 361.017931 
L 143.489649 359.975172 
L 150.521152 359.975172 
L 151.525653 358.932414 
L 152.530153 356.846897 
L 154.539154 356.846897 
L 155.543654 355.804138 
L 156.548155 355.804138 
L 157.552655 354.761379 
L 158.557156 354.761379 
L 159.561656 353.718621 
L 160.566157 353.718621 
L 162.575158 351.633103 
L 168.60216 351.633103 
L 170.611161 349.547586 
L 173.624662 349.547586 
L 174.629163 348.504828 
L 175.633663 348.504828 
L 176.638164 346.41931 
L 179.651665 346.41931 
L 181.660666 342.248276 
L 187.687669 342.248276 
L 188.692169 340.162759 
L 189.69667 339.12 
L 192.710171 339.12 
L 193.714671 338.077241 
L 194.719172 335.991724 
L 196.728173 335.991724 
L 197.732673 334.948966 
L 211.79568 334.948966 
L 212.80018 332.863448 
L 219.831683 325.564138 
L 229.876688 325.564138 
L 232.890189 322.435862 
L 234.89919 322.435862 
L 235.90369 320.350345 
L 237.912691 320.350345 
L 238.917192 319.307586 
L 241.930693 319.307586 
L 242.935194 318.264828 
L 243.939694 318.264828 
L 244.944194 317.222069 
L 245.948695 317.222069 
L 247.957696 315.136552 
L 261.016202 315.136552 
L 263.025203 313.051034 
L 271.061206 313.051034 
L 272.065707 312.008276 
L 275.079208 312.008276 
L 277.088209 309.922759 
L 280.10171 309.922759 
L 281.106211 308.88 
L 283.115212 308.88 
L 284.119712 307.837241 
L 289.142214 307.837241 
L 290.146715 306.794483 
L 291.151215 306.794483 
L 292.155716 304.708966 
L 293.160216 304.708966 
L 294.164716 303.666207 
L 299.187219 303.666207 
L 300.191719 302.623448 
L 302.20072 302.623448 
L 303.205221 301.58069 
L 304.209721 301.58069 
L 306.218722 299.495172 
L 313.250225 299.495172 
L 314.254725 298.452414 
L 315.259226 298.452414 
L 316.263726 297.409655 
L 321.286229 297.409655 
L 322.290729 295.324138 
L 323.29523 294.281379 
L 328.317732 294.281379 
L 329.322232 293.238621 
L 333.340234 293.238621 
L 334.344734 291.153103 
L 338.362736 291.153103 
L 340.371737 289.067586 
L 343.385239 289.067586 
L 344.389739 288.024828 
L 356.443744 288.024828 
L 357.448245 285.93931 
L 358.452745 284.896552 
L 366.488749 284.896552 
L 367.493249 283.853793 
L 385.574257 283.853793 
L 386.578758 282.811034 
L 388.587759 282.811034 
L 389.592259 281.768276 
L 392.605761 281.768276 
L 393.610261 280.725517 
L 406.668767 280.725517 
L 407.673267 278.64 
L 409.682268 278.64 
L 410.686769 277.597241 
L 411.691269 277.597241 
L 412.69577 276.554483 
L 416.713771 276.554483 
L 417.718272 275.511724 
L 424.749775 275.511724 
L 425.754275 273.426207 
L 426.758776 273.426207 
L 427.763276 272.383448 
L 432.785779 272.383448 
L 433.790279 271.34069 
L 438.812781 271.34069 
L 440.821782 269.255172 
L 442.830783 269.255172 
L 443.835284 268.212414 
L 445.844284 268.212414 
L 446.848785 267.169655 
L 447.853285 267.169655 
L 448.857786 266.126897 
L 455.889289 266.126897 
L 456.893789 265.084138 
L 479.9973 265.084138 
L 481.0018 264.041379 
L 486.024302 264.041379 
L 487.028803 262.998621 
L 498.078308 262.998621 
L 499.082808 261.955862 
L 543.280828 261.955862 
L 544.285329 260.913103 
L 550.312331 260.913103 
L 551.316832 259.870345 
L 552.321332 259.870345 
L 553.325833 258.827586 
L 566.384338 258.827586 
L 567.388839 257.784828 
L 586.474347 257.784828 
L 587.478848 256.742069 
L 591.49685 256.742069 
L 592.50135 255.69931 
L 597.523852 255.69931 
L 598.528353 254.656552 
L 604.555356 254.656552 
L 605.559856 253.613793 
L 611.586859 253.613793 
L 612.591359 252.571034 
L 618.618362 252.571034 
L 619.622862 249.442759 
L 620.627363 248.4 
L 622.636364 248.4 
L 622.636364 248.4 
" clip-path="url(#p64d3cf2846)" style="fill: none; stroke: #1f77b4; stroke-width: 1.5; stroke-linecap: square"/>
   </g>
   <g id="line2d_44">
    <path d="M 115.363636 330.777931 
L 122.39514 330.777931 
L 123.39964 329.735172 
L 126.413141 329.735172 
L 127.417642 328.692414 
L 131.435644 328.692414 
L 132.440144 327.649655 
L 135.453645 327.649655 
L 136.458146 326.606897 
L 137.462646 326.606897 
L 138.467147 325.564138 
L 141.480648 325.564138 
L 142.485149 324.521379 
L 144.494149 324.521379 
L 145.49865 323.478621 
L 146.50315 323.478621 
L 148.512151 321.393103 
L 154.539154 321.393103 
L 155.543654 320.350345 
L 156.548155 320.350345 
L 157.552655 319.307586 
L 158.557156 319.307586 
L 159.561656 317.222069 
L 160.566157 314.093793 
L 161.570657 313.051034 
L 165.588659 313.051034 
L 168.60216 309.922759 
L 171.615662 309.922759 
L 173.624662 307.837241 
L 184.674167 307.837241 
L 185.678668 304.708966 
L 186.683168 304.708966 
L 188.692169 300.537931 
L 190.70117 298.452414 
L 191.705671 298.452414 
L 192.710171 296.366897 
L 200.746175 296.366897 
L 201.750675 294.281379 
L 204.764176 294.281379 
L 205.768677 293.238621 
L 212.80018 293.238621 
L 213.80468 292.195862 
L 225.858686 292.195862 
L 226.863186 291.153103 
L 227.867687 291.153103 
L 228.872187 290.110345 
L 231.885689 290.110345 
L 232.890189 289.067586 
L 244.944194 289.067586 
L 245.948695 288.024828 
L 247.957696 288.024828 
L 249.966697 283.853793 
L 251.975698 283.853793 
L 253.984698 281.768276 
L 255.993699 281.768276 
L 256.9982 280.725517 
L 260.011701 280.725517 
L 261.016202 279.682759 
L 273.070207 279.682759 
L 274.074707 278.64 
L 289.142214 278.64 
L 290.146715 277.597241 
L 299.187219 277.597241 
L 300.191719 276.554483 
L 302.20072 276.554483 
L 303.205221 275.511724 
L 306.218722 275.511724 
L 308.227723 273.426207 
L 309.232223 273.426207 
L 310.236724 272.383448 
L 314.254725 272.383448 
L 316.263726 270.297931 
L 321.286229 270.297931 
L 322.290729 269.255172 
L 325.30423 269.255172 
L 326.308731 268.212414 
L 331.331233 268.212414 
L 332.335734 267.169655 
L 337.358236 267.169655 
L 338.362736 266.126897 
L 356.443744 266.126897 
L 357.448245 265.084138 
L 358.452745 265.084138 
L 359.457246 264.041379 
L 369.50225 264.041379 
L 370.506751 261.955862 
L 371.511251 261.955862 
L 372.515752 260.913103 
L 382.560756 260.913103 
L 383.565257 259.870345 
L 387.583258 259.870345 
L 388.587759 258.827586 
L 389.592259 258.827586 
L 390.59676 257.784828 
L 399.637264 257.784828 
L 400.641764 256.742069 
L 420.731773 256.742069 
L 421.736274 253.613793 
L 428.767777 253.613793 
L 429.772277 252.571034 
L 431.781278 252.571034 
L 432.785779 251.528276 
L 444.839784 251.528276 
L 445.844284 250.485517 
L 459.907291 250.485517 
L 460.911791 249.442759 
L 463.925293 249.442759 
L 464.929793 248.4 
L 472.965797 248.4 
L 473.970297 246.314483 
L 490.042304 246.314483 
L 491.046805 245.271724 
L 496.069307 245.271724 
L 497.073807 244.228966 
L 512.141314 244.228966 
L 513.145815 243.186207 
L 515.154815 243.186207 
L 516.159316 242.143448 
L 526.20432 242.143448 
L 527.208821 241.10069 
L 538.258326 241.10069 
L 539.262826 240.057931 
L 552.321332 240.057931 
L 553.325833 239.015172 
L 565.379838 239.015172 
L 566.384338 237.972414 
L 573.415842 237.972414 
L 574.420342 236.929655 
L 584.465347 236.929655 
L 587.478848 233.801379 
L 589.487849 233.801379 
L 590.492349 232.758621 
L 591.49685 232.758621 
L 593.505851 230.673103 
L 597.523852 230.673103 
L 598.528353 229.630345 
L 600.537354 229.630345 
L 601.541854 227.544828 
L 602.546355 226.502069 
L 614.60036 226.502069 
L 615.60486 225.45931 
L 622.636364 225.45931 
L 622.636364 225.45931 
" clip-path="url(#p64d3cf2846)" style="fill: none; stroke: #ff7f0e; stroke-width: 1.5; stroke-linecap: square"/>
   </g>
   <g id="patch_3">
    <path d="M 90 384.48 
L 90 51.84 
" style="fill: none; stroke: #000000; stroke-width: 0.8; stroke-linejoin: miter; stroke-linecap: square"/>
   </g>
   <g id="patch_4">
    <path d="M 648 384.48 
L 648 51.84 
" style="fill: none; stroke: #000000; stroke-width: 0.8; stroke-linejoin: miter; stroke-linecap: square"/>
   </g>
   <g id="patch_5">
    <path d="M 90 384.48 
L 648 384.48 
" style="fill: none; stroke: #000000; stroke-width: 0.8; stroke-linejoin: miter; stroke-linecap: square"/>
   </g>
   <g id="patch_6">
    <path d="M 90 51.84 
L 648 51.84 
" style="fill: none; stroke: #000000; stroke-width: 0.8; stroke-linejoin: miter; stroke-linecap: square"/>
   </g>
   <g id="text_19">
    <!-- Time Series of Votes for Each Keyword -->
    <g transform="translate(253.716563 45.84) scale(0.12 -0.12)">
     <defs>
      <path id="DejaVuSans-53" d="M 3425 4513 
L 3425 3897 
Q 3066 4069 2747 4153 
Q 2428 4238 2131 4238 
Q 1616 4238 1336 4038 
Q 1056 3838 1056 3469 
Q 1056 3159 1242 3001 
Q 1428 2844 1947 2747 
L 2328 2669 
Q 3034 2534 3370 2195 
Q 3706 1856 3706 1288 
Q 3706 609 3251 259 
Q 2797 -91 1919 -91 
Q 1588 -91 1214 -16 
Q 841 59 441 206 
L 441 856 
Q 825 641 1194 531 
Q 1563 422 1919 422 
Q 2459 422 2753 634 
Q 3047 847 3047 1241 
Q 3047 1584 2836 1778 
Q 2625 1972 2144 2069 
L 1759 2144 
Q 1053 2284 737 2584 
Q 422 2884 422 3419 
Q 422 4038 858 4394 
Q 1294 4750 2059 4750 
Q 2388 4750 2728 4690 
Q 3069 4631 3425 4513 
z
" transform="scale(0.015625)"/>
      <path id="DejaVuSans-72" d="M 2631 2963 
Q 2534 3019 2420 3045 
Q 2306 3072 2169 3072 
Q 1681 3072 1420 2755 
Q 1159 2438 1159 1844 
L 1159 0 
L 581 0 
L 581 3500 
L 1159 3500 
L 1159 2956 
Q 1341 3275 1631 3429 
Q 1922 3584 2338 3584 
Q 2397 3584 2469 3576 
Q 2541 3569 2628 3553 
L 2631 2963 
z
" transform="scale(0.015625)"/>
      <path id="DejaVuSans-66" d="M 2375 4863 
L 2375 4384 
L 1825 4384 
Q 1516 4384 1395 4259 
Q 1275 4134 1275 3809 
L 1275 3500 
L 2222 3500 
L 2222 3053 
L 1275 3053 
L 1275 0 
L 697 0 
L 697 3053 
L 147 3053 
L 147 3500 
L 697 3500 
L 697 3744 
Q 697 4328 969 4595 
Q 1241 4863 1831 4863 
L 2375 4863 
z
" transform="scale(0.015625)"/>
      <path id="DejaVuSans-45" d="M 628 4666 
L 3578 4666 
L 3578 4134 
L 1259 4134 
L 1259 2753 
L 3481 2753 
L 3481 2222 
L 1259 2222 
L 1259 531 
L 3634 531 
L 3634 0 
L 628 0 
L 628 4666 
z
" transform="scale(0.015625)"/>
      <path id="DejaVuSans-63" d="M 3122 3366 
L 3122 2828 
Q 2878 2963 2633 3030 
Q 2388 3097 2138 3097 
Q 1578 3097 1268 2742 
Q 959 2388 959 1747 
Q 959 1106 1268 751 
Q 1578 397 2138 397 
Q 2388 397 2633 464 
Q 2878 531 3122 666 
L 3122 134 
Q 2881 22 2623 -34 
Q 2366 -91 2075 -91 
Q 1284 -91 818 406 
Q 353 903 353 1747 
Q 353 2603 823 3093 
Q 1294 3584 2113 3584 
Q 2378 3584 2631 3529 
Q 2884 3475 3122 3366 
z
" transform="scale(0.015625)"/>
      <path id="DejaVuSans-68" d="M 3513 2113 
L 3513 0 
L 2938 0 
L 2938 2094 
Q 2938 2591 2744 2837 
Q 2550 3084 2163 3084 
Q 1697 3084 1428 2787 
Q 1159 2491 1159 1978 
L 1159 0 
L 581 0 
L 581 4863 
L 1159 4863 
L 1159 2956 
Q 1366 3272 1645 3428 
Q 1925 3584 2291 3584 
Q 2894 3584 3203 3211 
Q 3513 2838 3513 2113 
z
" transform="scale(0.015625)"/>
      <path id="DejaVuSans-4b" d="M 628 4666 
L 1259 4666 
L 1259 2694 
L 3353 4666 
L 4166 4666 
L 1850 2491 
L 4331 0 
L 3500 0 
L 1259 2247 
L 1259 0 
L 628 0 
L 628 4666 
z
" transform="scale(0.015625)"/>
      <path id="DejaVuSans-79" d="M 2059 -325 
Q 1816 -950 1584 -1140 
Q 1353 -1331 966 -1331 
L 506 -1331 
L 506 -850 
L 844 -850 
Q 1081 -850 1212 -737 
Q 1344 -625 1503 -206 
L 1606 56 
L 191 3500 
L 800 3500 
L 1894 763 
L 2988 3500 
L 3597 3500 
L 2059 -325 
z
" transform="scale(0.015625)"/>
      <path id="DejaVuSans-77" d="M 269 3500 
L 844 3500 
L 1563 769 
L 2278 3500 
L 2956 3500 
L 3675 769 
L 4391 3500 
L 4966 3500 
L 4050 0 
L 3372 0 
L 2619 2869 
L 1863 0 
L 1184 0 
L 269 3500 
z
" transform="scale(0.015625)"/>
     </defs>
     <use xlink:href="#DejaVuSans-54"/>
     <use xlink:href="#DejaVuSans-69" transform="translate(57.958984 0)"/>
     <use xlink:href="#DejaVuSans-6d" transform="translate(85.742188 0)"/>
     <use xlink:href="#DejaVuSans-65" transform="translate(183.154297 0)"/>
     <use xlink:href="#DejaVuSans-20" transform="translate(244.677734 0)"/>
     <use xlink:href="#DejaVuSans-53" transform="translate(276.464844 0)"/>
     <use xlink:href="#DejaVuSans-65" transform="translate(339.941406 0)"/>
     <use xlink:href="#DejaVuSans-72" transform="translate(401.464844 0)"/>
     <use xlink:href="#DejaVuSans-69" transform="translate(442.578125 0)"/>
     <use xlink:href="#DejaVuSans-65" transform="translate(470.361328 0)"/>
     <use xlink:href="#DejaVuSans-73" transform="translate(531.884766 0)"/>
     <use xlink:href="#DejaVuSans-20" transform="translate(583.984375 0)"/>
     <use xlink:href="#DejaVuSans-6f" transform="translate(615.771484 0)"/>
     <use xlink:href="#DejaVuSans-66" transform="translate(676.953125 0)"/>
     <use xlink:href="#DejaVuSans-20" transform="translate(712.158203 0)"/>
     <use xlink:href="#DejaVuSans-56" transform="translate(743.945312 0)"/>
     <use xlink:href="#DejaVuSans-6f" transform="translate(804.603516 0)"/>
     <use xlink:href="#DejaVuSans-74" transform="translate(865.785156 0)"/>
     <use xlink:href="#DejaVuSans-65" transform="translate(904.994141 0)"/>
     <use xlink:href="#DejaVuSans-73" transform="translate(966.517578 0)"/>
     <use xlink:href="#DejaVuSans-20" transform="translate(1018.617188 0)"/>
     <use xlink:href="#DejaVuSans-66" transform="translate(1050.404297 0)"/>
     <use xlink:href="#DejaVuSans-6f" transform="translate(1085.609375 0)"/>
     <use xlink:href="#DejaVuSans-72" transform="translate(1146.791016 0)"/>
     <use xlink:href="#DejaVuSans-20" transform="translate(1187.904297 0)"/>
     <use xlink:href="#DejaVuSans-45" transform="translate(1219.691406 0)"/>
     <use xlink:href="#DejaVuSans-61" transform="translate(1282.875 0)"/>
     <use xlink:href="#DejaVuSans-63" transform="translate(1344.154297 0)"/>
     <use xlink:href="#DejaVuSans-68" transform="translate(1399.134766 0)"/>
     <use xlink:href="#DejaVuSans-20" transform="translate(1462.513672 0)"/>
     <use xlink:href="#DejaVuSans-4b" transform="translate(1494.300781 0)"/>
     <use xlink:href="#DejaVuSans-65" transform="translate(1554.876953 0)"/>
     <use xlink:href="#DejaVuSans-79" transform="translate(1616.400391 0)"/>
     <use xlink:href="#DejaVuSans-77" transform="translate(1675.580078 0)"/>
     <use xlink:href="#DejaVuSans-6f" transform="translate(1757.367188 0)"/>
     <use xlink:href="#DejaVuSans-72" transform="translate(1818.548828 0)"/>
     <use xlink:href="#DejaVuSans-64" transform="translate(1857.912109 0)"/>
    </g>
   </g>
   <g id="legend_1">
    <g id="patch_7">
     <path d="M 97 235.9775 
L 149.245313 235.9775 
Q 151.245313 235.9775 151.245313 233.9775 
L 151.245313 58.84 
Q 151.245313 56.84 149.245313 56.84 
L 97 56.84 
Q 95 56.84 95 58.84 
L 95 233.9775 
Q 95 235.9775 97 235.9775 
z
" style="fill: #ffffff; opacity: 0.8; stroke: #cccccc; stroke-linejoin: miter"/>
    </g>
    <g id="line2d_45">
     <path d="M 99 64.938437 
L 109 64.938437 
L 119 64.938437 
" style="fill: none; stroke: #1f77b4; stroke-width: 1.5; stroke-linecap: square"/>
    </g>
    <g id="text_20">
     <!-- H01 -->
     <g transform="translate(127 68.438437) scale(0.1 -0.1)">
      <defs>
       <path id="DejaVuSans-48" d="M 628 4666 
L 1259 4666 
L 1259 2753 
L 3553 2753 
L 3553 4666 
L 4184 4666 
L 4184 0 
L 3553 0 
L 3553 2222 
L 1259 2222 
L 1259 0 
L 628 0 
L 628 4666 
z
" transform="scale(0.015625)"/>
      </defs>
      <use xlink:href="#DejaVuSans-48"/>
      <use xlink:href="#DejaVuSans-30" transform="translate(75.195312 0)"/>
      <use xlink:href="#DejaVuSans-31" transform="translate(138.818359 0)"/>
     </g>
    </g>
    <g id="line2d_46">
     <path d="M 99 79.616562 
L 109 79.616562 
L 119 79.616562 
" style="fill: none; stroke: #ff7f0e; stroke-width: 1.5; stroke-linecap: square"/>
    </g>
    <g id="text_21">
     <!-- H02 -->
     <g transform="translate(127 83.116562) scale(0.1 -0.1)">
      <use xlink:href="#DejaVuSans-48"/>
      <use xlink:href="#DejaVuSans-30" transform="translate(75.195312 0)"/>
      <use xlink:href="#DejaVuSans-32" transform="translate(138.818359 0)"/>
     </g>
    </g>
    <g id="line2d_47">
     <path d="M 99 94.294688 
L 109 94.294688 
L 119 94.294688 
" style="fill: none; stroke: #2ca02c; stroke-width: 1.5; stroke-linecap: square"/>
    </g>
    <g id="text_22">
     <!-- H03 -->
     <g transform="translate(127 97.794688) scale(0.1 -0.1)">
      <use xlink:href="#DejaVuSans-48"/>
      <use xlink:href="#DejaVuSans-30" transform="translate(75.195312 0)"/>
      <use xlink:href="#DejaVuSans-33" transform="translate(138.818359 0)"/>
     </g>
    </g>
    <g id="line2d_48">
     <path d="M 99 108.972812 
L 109 108.972812 
L 119 108.972812 
" style="fill: none; stroke: #d62728; stroke-width: 1.5; stroke-linecap: square"/>
    </g>
    <g id="text_23">
     <!-- H04 -->
     <g transform="translate(127 112.472812) scale(0.1 -0.1)">
      <use xlink:href="#DejaVuSans-48"/>
      <use xlink:href="#DejaVuSans-30" transform="translate(75.195312 0)"/>
      <use xlink:href="#DejaVuSans-34" transform="translate(138.818359 0)"/>
     </g>
    </g>
    <g id="line2d_49">
     <path d="M 99 123.650937 
L 109 123.650937 
L 119 123.650937 
" style="fill: none; stroke: #9467bd; stroke-width: 1.5; stroke-linecap: square"/>
    </g>
    <g id="text_24">
     <!-- H05 -->
     <g transform="translate(127 127.150937) scale(0.1 -0.1)">
      <use xlink:href="#DejaVuSans-48"/>
      <use xlink:href="#DejaVuSans-30" transform="translate(75.195312 0)"/>
      <use xlink:href="#DejaVuSans-35" transform="translate(138.818359 0)"/>
     </g>
    </g>
    <g id="line2d_50">
     <path d="M 99 138.329062 
L 109 138.329062 
L 119 138.329062 
" style="fill: none; stroke: #8c564b; stroke-width: 1.5; stroke-linecap: square"/>
    </g>
    <g id="text_25">
     <!-- H06 -->
     <g transform="translate(127 141.829062) scale(0.1 -0.1)">
      <use xlink:href="#DejaVuSans-48"/>
      <use xlink:href="#DejaVuSans-30" transform="translate(75.195312 0)"/>
      <use xlink:href="#DejaVuSans-36" transform="translate(138.818359 0)"/>
     </g>
    </g>
    <g id="line2d_51">
     <path d="M 99 153.007187 
L 109 153.007187 
L 119 153.007187 
" style="fill: none; stroke: #e377c2; stroke-width: 1.5; stroke-linecap: square"/>
    </g>
    <g id="text_26">
     <!-- H07 -->
     <g transform="translate(127 156.507187) scale(0.1 -0.1)">
      <use xlink:href="#DejaVuSans-48"/>
      <use xlink:href="#DejaVuSans-30" transform="translate(75.195312 0)"/>
      <use xlink:href="#DejaVuSans-37" transform="translate(138.818359 0)"/>
     </g>
    </g>
    <g id="line2d_52">
     <path d="M 99 167.685312 
L 109 167.685312 
L 119 167.685312 
" style="fill: none; stroke: #7f7f7f; stroke-width: 1.5; stroke-linecap: square"/>
    </g>
    <g id="text_27">
     <!-- H08 -->
     <g transform="translate(127 171.185312) scale(0.1 -0.1)">
      <use xlink:href="#DejaVuSans-48"/>
      <use xlink:href="#DejaVuSans-30" transform="translate(75.195312 0)"/>
      <use xlink:href="#DejaVuSans-38" transform="translate(138.818359 0)"/>
     </g>
    </g>
    <g id="line2d_53">
     <path d="M 99 182.363437 
L 109 182.363437 
L 119 182.363437 
" style="fill: none; stroke: #bcbd22; stroke-width: 1.5; stroke-linecap: square"/>
    </g>
    <g id="text_28">
     <!-- H09 -->
     <g transform="translate(127 185.863437) scale(0.1 -0.1)">
      <use xlink:href="#DejaVuSans-48"/>
      <use xlink:href="#DejaVuSans-30" transform="translate(75.195312 0)"/>
      <use xlink:href="#DejaVuSans-39" transform="translate(138.818359 0)"/>
     </g>
    </g>
    <g id="line2d_54">
     <path d="M 99 197.041562 
L 109 197.041562 
L 119 197.041562 
" style="fill: none; stroke: #17becf; stroke-width: 1.5; stroke-linecap: square"/>
    </g>
    <g id="text_29">
     <!-- H10 -->
     <g transform="translate(127 200.541562) scale(0.1 -0.1)">
      <use xlink:href="#DejaVuSans-48"/>
      <use xlink:href="#DejaVuSans-31" transform="translate(75.195312 0)"/>
      <use xlink:href="#DejaVuSans-30" transform="translate(138.818359 0)"/>
     </g>
    </g>
    <g id="line2d_55">
     <path d="M 99 211.719687 
L 109 211.719687 
L 119 211.719687 
" style="fill: none; stroke: #1f77b4; stroke-width: 1.5; stroke-linecap: square"/>
    </g>
    <g id="text_30">
     <!-- H11 -->
     <g transform="translate(127 215.219687) scale(0.1 -0.1)">
      <use xlink:href="#DejaVuSans-48"/>
      <use xlink:href="#DejaVuSans-31" transform="translate(75.195312 0)"/>
      <use xlink:href="#DejaVuSans-31" transform="translate(138.818359 0)"/>
     </g>
    </g>
    <g id="line2d_56">
     <path d="M 99 226.397812 
L 109 226.397812 
L 119 226.397812 
" style="fill: none; stroke: #ff7f0e; stroke-width: 1.5; stroke-linecap: square"/>
    </g>
    <g id="text_31">
     <!-- H12 -->
     <g transform="translate(127 229.897812) scale(0.1 -0.1)">
      <use xlink:href="#DejaVuSans-48"/>
      <use xlink:href="#DejaVuSans-31" transform="translate(75.195312 0)"/>
      <use xlink:href="#DejaVuSans-32" transform="translate(138.818359 0)"/>
     </g>
    </g>
   </g>
  </g>
 </g>
 <defs>
  <clipPath id="p64d3cf2846">
   <rect x="90" y="51.84" width="558" height="332.64"/>
  </clipPath>
 </defs>
</svg>
