<?xml version="1.0" encoding="utf-8" standalone="no"?>
<!DOCTYPE svg PUBLIC "-//W3C//DTD SVG 1.1//EN"
  "http://www.w3.org/Graphics/SVG/1.1/DTD/svg11.dtd">
<svg xmlns:xlink="http://www.w3.org/1999/xlink" width="720pt" height="432pt" viewBox="0 0 720 432" xmlns="http://www.w3.org/2000/svg" version="1.1">
 <metadata>
  <rdf:RDF xmlns:dc="http://purl.org/dc/elements/1.1/" xmlns:cc="http://creativecommons.org/ns#" xmlns:rdf="http://www.w3.org/1999/02/22-rdf-syntax-ns#">
   <cc:Work>
    <dc:type rdf:resource="http://purl.org/dc/dcmitype/StillImage"/>
    <dc:date>2025-01-14T22:49:42.492940</dc:date>
    <dc:format>image/svg+xml</dc:format>
    <dc:creator>
     <cc:Agent>
      <dc:title>Matplotlib v3.10.0, https://matplotlib.org/</dc:title>
     </cc:Agent>
    </dc:creator>
   </cc:Work>
  </rdf:RDF>
 </metadata>
 <defs>
  <style type="text/css">*{stroke-linejoin: round; stroke-linecap: butt}</style>
 </defs>
 <g id="figure_1">
  <g id="patch_1">
   <path d="M 0 432 
L 720 432 
L 720 0 
L 0 0 
z
" style="fill: #ffffff"/>
  </g>
  <g id="axes_1">
   <g id="patch_2">
    <path d="M 90 384.48 
L 648 384.48 
L 648 51.84 
L 90 51.84 
z
" style="fill: #ffffff"/>
   </g>
   <g id="matplotlib.axis_1">
    <g id="xtick_1">
     <g id="line2d_1">
      <path d="M 140.041769 384.48 
L 140.041769 51.84 
" clip-path="url(#pf9fe417144)" style="fill: none; stroke: #b0b0b0; stroke-width: 0.8; stroke-linecap: square"/>
     </g>
     <g id="line2d_2">
      <defs>
       <path id="m4ed2f91531" d="M 0 0 
L 0 3.5 
" style="stroke: #000000; stroke-width: 0.8"/>
      </defs>
      <g>
       <use xlink:href="#m4ed2f91531" x="140.041769" y="384.48" style="stroke: #000000; stroke-width: 0.8"/>
      </g>
     </g>
     <g id="text_1">
      <!-- 01-14 14 -->
      <g transform="translate(117.5613 399.078438) scale(0.1 -0.1)">
       <defs>
        <path id="DejaVuSans-30" d="M 2034 4250 
Q 1547 4250 1301 3770 
Q 1056 3291 1056 2328 
Q 1056 1369 1301 889 
Q 1547 409 2034 409 
Q 2525 409 2770 889 
Q 3016 1369 3016 2328 
Q 3016 3291 2770 3770 
Q 2525 4250 2034 4250 
z
M 2034 4750 
Q 2819 4750 3233 4129 
Q 3647 3509 3647 2328 
Q 3647 1150 3233 529 
Q 2819 -91 2034 -91 
Q 1250 -91 836 529 
Q 422 1150 422 2328 
Q 422 3509 836 4129 
Q 1250 4750 2034 4750 
z
" transform="scale(0.015625)"/>
        <path id="DejaVuSans-31" d="M 794 531 
L 1825 531 
L 1825 4091 
L 703 3866 
L 703 4441 
L 1819 4666 
L 2450 4666 
L 2450 531 
L 3481 531 
L 3481 0 
L 794 0 
L 794 531 
z
" transform="scale(0.015625)"/>
        <path id="DejaVuSans-2d" d="M 313 2009 
L 1997 2009 
L 1997 1497 
L 313 1497 
L 313 2009 
z
" transform="scale(0.015625)"/>
        <path id="DejaVuSans-34" d="M 2419 4116 
L 825 1625 
L 2419 1625 
L 2419 4116 
z
M 2253 4666 
L 3047 4666 
L 3047 1625 
L 3713 1625 
L 3713 1100 
L 3047 1100 
L 3047 0 
L 2419 0 
L 2419 1100 
L 313 1100 
L 313 1709 
L 2253 4666 
z
" transform="scale(0.015625)"/>
        <path id="DejaVuSans-20" transform="scale(0.015625)"/>
       </defs>
       <use xlink:href="#DejaVuSans-30"/>
       <use xlink:href="#DejaVuSans-31" transform="translate(63.623047 0)"/>
       <use xlink:href="#DejaVuSans-2d" transform="translate(127.246094 0)"/>
       <use xlink:href="#DejaVuSans-31" transform="translate(163.330078 0)"/>
       <use xlink:href="#DejaVuSans-34" transform="translate(226.953125 0)"/>
       <use xlink:href="#DejaVuSans-20" transform="translate(290.576172 0)"/>
       <use xlink:href="#DejaVuSans-31" transform="translate(322.363281 0)"/>
       <use xlink:href="#DejaVuSans-34" transform="translate(385.986328 0)"/>
      </g>
     </g>
    </g>
    <g id="xtick_2">
     <g id="line2d_3">
      <path d="M 194.882064 384.48 
L 194.882064 51.84 
" clip-path="url(#pf9fe417144)" style="fill: none; stroke: #b0b0b0; stroke-width: 0.8; stroke-linecap: square"/>
     </g>
     <g id="line2d_4">
      <g>
       <use xlink:href="#m4ed2f91531" x="194.882064" y="384.48" style="stroke: #000000; stroke-width: 0.8"/>
      </g>
     </g>
     <g id="text_2">
      <!-- 01-14 15 -->
      <g transform="translate(172.401595 399.078438) scale(0.1 -0.1)">
       <defs>
        <path id="DejaVuSans-35" d="M 691 4666 
L 3169 4666 
L 3169 4134 
L 1269 4134 
L 1269 2991 
Q 1406 3038 1543 3061 
Q 1681 3084 1819 3084 
Q 2600 3084 3056 2656 
Q 3513 2228 3513 1497 
Q 3513 744 3044 326 
Q 2575 -91 1722 -91 
Q 1428 -91 1123 -41 
Q 819 9 494 109 
L 494 744 
Q 775 591 1075 516 
Q 1375 441 1709 441 
Q 2250 441 2565 725 
Q 2881 1009 2881 1497 
Q 2881 1984 2565 2268 
Q 2250 2553 1709 2553 
Q 1456 2553 1204 2497 
Q 953 2441 691 2322 
L 691 4666 
z
" transform="scale(0.015625)"/>
       </defs>
       <use xlink:href="#DejaVuSans-30"/>
       <use xlink:href="#DejaVuSans-31" transform="translate(63.623047 0)"/>
       <use xlink:href="#DejaVuSans-2d" transform="translate(127.246094 0)"/>
       <use xlink:href="#DejaVuSans-31" transform="translate(163.330078 0)"/>
       <use xlink:href="#DejaVuSans-34" transform="translate(226.953125 0)"/>
       <use xlink:href="#DejaVuSans-20" transform="translate(290.576172 0)"/>
       <use xlink:href="#DejaVuSans-31" transform="translate(322.363281 0)"/>
       <use xlink:href="#DejaVuSans-35" transform="translate(385.986328 0)"/>
      </g>
     </g>
    </g>
    <g id="xtick_3">
     <g id="line2d_5">
      <path d="M 249.722359 384.48 
L 249.722359 51.84 
" clip-path="url(#pf9fe417144)" style="fill: none; stroke: #b0b0b0; stroke-width: 0.8; stroke-linecap: square"/>
     </g>
     <g id="line2d_6">
      <g>
       <use xlink:href="#m4ed2f91531" x="249.722359" y="384.48" style="stroke: #000000; stroke-width: 0.8"/>
      </g>
     </g>
     <g id="text_3">
      <!-- 01-14 16 -->
      <g transform="translate(227.24189 399.078438) scale(0.1 -0.1)">
       <defs>
        <path id="DejaVuSans-36" d="M 2113 2584 
Q 1688 2584 1439 2293 
Q 1191 2003 1191 1497 
Q 1191 994 1439 701 
Q 1688 409 2113 409 
Q 2538 409 2786 701 
Q 3034 994 3034 1497 
Q 3034 2003 2786 2293 
Q 2538 2584 2113 2584 
z
M 3366 4563 
L 3366 3988 
Q 3128 4100 2886 4159 
Q 2644 4219 2406 4219 
Q 1781 4219 1451 3797 
Q 1122 3375 1075 2522 
Q 1259 2794 1537 2939 
Q 1816 3084 2150 3084 
Q 2853 3084 3261 2657 
Q 3669 2231 3669 1497 
Q 3669 778 3244 343 
Q 2819 -91 2113 -91 
Q 1303 -91 875 529 
Q 447 1150 447 2328 
Q 447 3434 972 4092 
Q 1497 4750 2381 4750 
Q 2619 4750 2861 4703 
Q 3103 4656 3366 4563 
z
" transform="scale(0.015625)"/>
       </defs>
       <use xlink:href="#DejaVuSans-30"/>
       <use xlink:href="#DejaVuSans-31" transform="translate(63.623047 0)"/>
       <use xlink:href="#DejaVuSans-2d" transform="translate(127.246094 0)"/>
       <use xlink:href="#DejaVuSans-31" transform="translate(163.330078 0)"/>
       <use xlink:href="#DejaVuSans-34" transform="translate(226.953125 0)"/>
       <use xlink:href="#DejaVuSans-20" transform="translate(290.576172 0)"/>
       <use xlink:href="#DejaVuSans-31" transform="translate(322.363281 0)"/>
       <use xlink:href="#DejaVuSans-36" transform="translate(385.986328 0)"/>
      </g>
     </g>
    </g>
    <g id="xtick_4">
     <g id="line2d_7">
      <path d="M 304.562654 384.48 
L 304.562654 51.84 
" clip-path="url(#pf9fe417144)" style="fill: none; stroke: #b0b0b0; stroke-width: 0.8; stroke-linecap: square"/>
     </g>
     <g id="line2d_8">
      <g>
       <use xlink:href="#m4ed2f91531" x="304.562654" y="384.48" style="stroke: #000000; stroke-width: 0.8"/>
      </g>
     </g>
     <g id="text_4">
      <!-- 01-14 17 -->
      <g transform="translate(282.082185 399.078438) scale(0.1 -0.1)">
       <defs>
        <path id="DejaVuSans-37" d="M 525 4666 
L 3525 4666 
L 3525 4397 
L 1831 0 
L 1172 0 
L 2766 4134 
L 525 4134 
L 525 4666 
z
" transform="scale(0.015625)"/>
       </defs>
       <use xlink:href="#DejaVuSans-30"/>
       <use xlink:href="#DejaVuSans-31" transform="translate(63.623047 0)"/>
       <use xlink:href="#DejaVuSans-2d" transform="translate(127.246094 0)"/>
       <use xlink:href="#DejaVuSans-31" transform="translate(163.330078 0)"/>
       <use xlink:href="#DejaVuSans-34" transform="translate(226.953125 0)"/>
       <use xlink:href="#DejaVuSans-20" transform="translate(290.576172 0)"/>
       <use xlink:href="#DejaVuSans-31" transform="translate(322.363281 0)"/>
       <use xlink:href="#DejaVuSans-37" transform="translate(385.986328 0)"/>
      </g>
     </g>
    </g>
    <g id="xtick_5">
     <g id="line2d_9">
      <path d="M 359.402948 384.48 
L 359.402948 51.84 
" clip-path="url(#pf9fe417144)" style="fill: none; stroke: #b0b0b0; stroke-width: 0.8; stroke-linecap: square"/>
     </g>
     <g id="line2d_10">
      <g>
       <use xlink:href="#m4ed2f91531" x="359.402948" y="384.48" style="stroke: #000000; stroke-width: 0.8"/>
      </g>
     </g>
     <g id="text_5">
      <!-- 01-14 18 -->
      <g transform="translate(336.92248 399.078438) scale(0.1 -0.1)">
       <defs>
        <path id="DejaVuSans-38" d="M 2034 2216 
Q 1584 2216 1326 1975 
Q 1069 1734 1069 1313 
Q 1069 891 1326 650 
Q 1584 409 2034 409 
Q 2484 409 2743 651 
Q 3003 894 3003 1313 
Q 3003 1734 2745 1975 
Q 2488 2216 2034 2216 
z
M 1403 2484 
Q 997 2584 770 2862 
Q 544 3141 544 3541 
Q 544 4100 942 4425 
Q 1341 4750 2034 4750 
Q 2731 4750 3128 4425 
Q 3525 4100 3525 3541 
Q 3525 3141 3298 2862 
Q 3072 2584 2669 2484 
Q 3125 2378 3379 2068 
Q 3634 1759 3634 1313 
Q 3634 634 3220 271 
Q 2806 -91 2034 -91 
Q 1263 -91 848 271 
Q 434 634 434 1313 
Q 434 1759 690 2068 
Q 947 2378 1403 2484 
z
M 1172 3481 
Q 1172 3119 1398 2916 
Q 1625 2713 2034 2713 
Q 2441 2713 2670 2916 
Q 2900 3119 2900 3481 
Q 2900 3844 2670 4047 
Q 2441 4250 2034 4250 
Q 1625 4250 1398 4047 
Q 1172 3844 1172 3481 
z
" transform="scale(0.015625)"/>
       </defs>
       <use xlink:href="#DejaVuSans-30"/>
       <use xlink:href="#DejaVuSans-31" transform="translate(63.623047 0)"/>
       <use xlink:href="#DejaVuSans-2d" transform="translate(127.246094 0)"/>
       <use xlink:href="#DejaVuSans-31" transform="translate(163.330078 0)"/>
       <use xlink:href="#DejaVuSans-34" transform="translate(226.953125 0)"/>
       <use xlink:href="#DejaVuSans-20" transform="translate(290.576172 0)"/>
       <use xlink:href="#DejaVuSans-31" transform="translate(322.363281 0)"/>
       <use xlink:href="#DejaVuSans-38" transform="translate(385.986328 0)"/>
      </g>
     </g>
    </g>
    <g id="xtick_6">
     <g id="line2d_11">
      <path d="M 414.243243 384.48 
L 414.243243 51.84 
" clip-path="url(#pf9fe417144)" style="fill: none; stroke: #b0b0b0; stroke-width: 0.8; stroke-linecap: square"/>
     </g>
     <g id="line2d_12">
      <g>
       <use xlink:href="#m4ed2f91531" x="414.243243" y="384.48" style="stroke: #000000; stroke-width: 0.8"/>
      </g>
     </g>
     <g id="text_6">
      <!-- 01-14 19 -->
      <g transform="translate(391.762774 399.078438) scale(0.1 -0.1)">
       <defs>
        <path id="DejaVuSans-39" d="M 703 97 
L 703 672 
Q 941 559 1184 500 
Q 1428 441 1663 441 
Q 2288 441 2617 861 
Q 2947 1281 2994 2138 
Q 2813 1869 2534 1725 
Q 2256 1581 1919 1581 
Q 1219 1581 811 2004 
Q 403 2428 403 3163 
Q 403 3881 828 4315 
Q 1253 4750 1959 4750 
Q 2769 4750 3195 4129 
Q 3622 3509 3622 2328 
Q 3622 1225 3098 567 
Q 2575 -91 1691 -91 
Q 1453 -91 1209 -44 
Q 966 3 703 97 
z
M 1959 2075 
Q 2384 2075 2632 2365 
Q 2881 2656 2881 3163 
Q 2881 3666 2632 3958 
Q 2384 4250 1959 4250 
Q 1534 4250 1286 3958 
Q 1038 3666 1038 3163 
Q 1038 2656 1286 2365 
Q 1534 2075 1959 2075 
z
" transform="scale(0.015625)"/>
       </defs>
       <use xlink:href="#DejaVuSans-30"/>
       <use xlink:href="#DejaVuSans-31" transform="translate(63.623047 0)"/>
       <use xlink:href="#DejaVuSans-2d" transform="translate(127.246094 0)"/>
       <use xlink:href="#DejaVuSans-31" transform="translate(163.330078 0)"/>
       <use xlink:href="#DejaVuSans-34" transform="translate(226.953125 0)"/>
       <use xlink:href="#DejaVuSans-20" transform="translate(290.576172 0)"/>
       <use xlink:href="#DejaVuSans-31" transform="translate(322.363281 0)"/>
       <use xlink:href="#DejaVuSans-39" transform="translate(385.986328 0)"/>
      </g>
     </g>
    </g>
    <g id="xtick_7">
     <g id="line2d_13">
      <path d="M 469.083538 384.48 
L 469.083538 51.84 
" clip-path="url(#pf9fe417144)" style="fill: none; stroke: #b0b0b0; stroke-width: 0.8; stroke-linecap: square"/>
     </g>
     <g id="line2d_14">
      <g>
       <use xlink:href="#m4ed2f91531" x="469.083538" y="384.48" style="stroke: #000000; stroke-width: 0.8"/>
      </g>
     </g>
     <g id="text_7">
      <!-- 01-14 20 -->
      <g transform="translate(446.603069 399.078438) scale(0.1 -0.1)">
       <defs>
        <path id="DejaVuSans-32" d="M 1228 531 
L 3431 531 
L 3431 0 
L 469 0 
L 469 531 
Q 828 903 1448 1529 
Q 2069 2156 2228 2338 
Q 2531 2678 2651 2914 
Q 2772 3150 2772 3378 
Q 2772 3750 2511 3984 
Q 2250 4219 1831 4219 
Q 1534 4219 1204 4116 
Q 875 4013 500 3803 
L 500 4441 
Q 881 4594 1212 4672 
Q 1544 4750 1819 4750 
Q 2544 4750 2975 4387 
Q 3406 4025 3406 3419 
Q 3406 3131 3298 2873 
Q 3191 2616 2906 2266 
Q 2828 2175 2409 1742 
Q 1991 1309 1228 531 
z
" transform="scale(0.015625)"/>
       </defs>
       <use xlink:href="#DejaVuSans-30"/>
       <use xlink:href="#DejaVuSans-31" transform="translate(63.623047 0)"/>
       <use xlink:href="#DejaVuSans-2d" transform="translate(127.246094 0)"/>
       <use xlink:href="#DejaVuSans-31" transform="translate(163.330078 0)"/>
       <use xlink:href="#DejaVuSans-34" transform="translate(226.953125 0)"/>
       <use xlink:href="#DejaVuSans-20" transform="translate(290.576172 0)"/>
       <use xlink:href="#DejaVuSans-32" transform="translate(322.363281 0)"/>
       <use xlink:href="#DejaVuSans-30" transform="translate(385.986328 0)"/>
      </g>
     </g>
    </g>
    <g id="xtick_8">
     <g id="line2d_15">
      <path d="M 523.923833 384.48 
L 523.923833 51.84 
" clip-path="url(#pf9fe417144)" style="fill: none; stroke: #b0b0b0; stroke-width: 0.8; stroke-linecap: square"/>
     </g>
     <g id="line2d_16">
      <g>
       <use xlink:href="#m4ed2f91531" x="523.923833" y="384.48" style="stroke: #000000; stroke-width: 0.8"/>
      </g>
     </g>
     <g id="text_8">
      <!-- 01-14 21 -->
      <g transform="translate(501.443364 399.078438) scale(0.1 -0.1)">
       <use xlink:href="#DejaVuSans-30"/>
       <use xlink:href="#DejaVuSans-31" transform="translate(63.623047 0)"/>
       <use xlink:href="#DejaVuSans-2d" transform="translate(127.246094 0)"/>
       <use xlink:href="#DejaVuSans-31" transform="translate(163.330078 0)"/>
       <use xlink:href="#DejaVuSans-34" transform="translate(226.953125 0)"/>
       <use xlink:href="#DejaVuSans-20" transform="translate(290.576172 0)"/>
       <use xlink:href="#DejaVuSans-32" transform="translate(322.363281 0)"/>
       <use xlink:href="#DejaVuSans-31" transform="translate(385.986328 0)"/>
      </g>
     </g>
    </g>
    <g id="xtick_9">
     <g id="line2d_17">
      <path d="M 578.764128 384.48 
L 578.764128 51.84 
" clip-path="url(#pf9fe417144)" style="fill: none; stroke: #b0b0b0; stroke-width: 0.8; stroke-linecap: square"/>
     </g>
     <g id="line2d_18">
      <g>
       <use xlink:href="#m4ed2f91531" x="578.764128" y="384.48" style="stroke: #000000; stroke-width: 0.8"/>
      </g>
     </g>
     <g id="text_9">
      <!-- 01-14 22 -->
      <g transform="translate(556.283659 399.078438) scale(0.1 -0.1)">
       <use xlink:href="#DejaVuSans-30"/>
       <use xlink:href="#DejaVuSans-31" transform="translate(63.623047 0)"/>
       <use xlink:href="#DejaVuSans-2d" transform="translate(127.246094 0)"/>
       <use xlink:href="#DejaVuSans-31" transform="translate(163.330078 0)"/>
       <use xlink:href="#DejaVuSans-34" transform="translate(226.953125 0)"/>
       <use xlink:href="#DejaVuSans-20" transform="translate(290.576172 0)"/>
       <use xlink:href="#DejaVuSans-32" transform="translate(322.363281 0)"/>
       <use xlink:href="#DejaVuSans-32" transform="translate(385.986328 0)"/>
      </g>
     </g>
    </g>
    <g id="xtick_10">
     <g id="line2d_19">
      <path d="M 633.604423 384.48 
L 633.604423 51.84 
" clip-path="url(#pf9fe417144)" style="fill: none; stroke: #b0b0b0; stroke-width: 0.8; stroke-linecap: square"/>
     </g>
     <g id="line2d_20">
      <g>
       <use xlink:href="#m4ed2f91531" x="633.604423" y="384.48" style="stroke: #000000; stroke-width: 0.8"/>
      </g>
     </g>
     <g id="text_10">
      <!-- 01-14 23 -->
      <g transform="translate(611.123954 399.078438) scale(0.1 -0.1)">
       <defs>
        <path id="DejaVuSans-33" d="M 2597 2516 
Q 3050 2419 3304 2112 
Q 3559 1806 3559 1356 
Q 3559 666 3084 287 
Q 2609 -91 1734 -91 
Q 1441 -91 1130 -33 
Q 819 25 488 141 
L 488 750 
Q 750 597 1062 519 
Q 1375 441 1716 441 
Q 2309 441 2620 675 
Q 2931 909 2931 1356 
Q 2931 1769 2642 2001 
Q 2353 2234 1838 2234 
L 1294 2234 
L 1294 2753 
L 1863 2753 
Q 2328 2753 2575 2939 
Q 2822 3125 2822 3475 
Q 2822 3834 2567 4026 
Q 2313 4219 1838 4219 
Q 1578 4219 1281 4162 
Q 984 4106 628 3988 
L 628 4550 
Q 988 4650 1302 4700 
Q 1616 4750 1894 4750 
Q 2613 4750 3031 4423 
Q 3450 4097 3450 3541 
Q 3450 3153 3228 2886 
Q 3006 2619 2597 2516 
z
" transform="scale(0.015625)"/>
       </defs>
       <use xlink:href="#DejaVuSans-30"/>
       <use xlink:href="#DejaVuSans-31" transform="translate(63.623047 0)"/>
       <use xlink:href="#DejaVuSans-2d" transform="translate(127.246094 0)"/>
       <use xlink:href="#DejaVuSans-31" transform="translate(163.330078 0)"/>
       <use xlink:href="#DejaVuSans-34" transform="translate(226.953125 0)"/>
       <use xlink:href="#DejaVuSans-20" transform="translate(290.576172 0)"/>
       <use xlink:href="#DejaVuSans-32" transform="translate(322.363281 0)"/>
       <use xlink:href="#DejaVuSans-33" transform="translate(385.986328 0)"/>
      </g>
     </g>
    </g>
    <g id="text_11">
     <!-- Date and Time -->
     <g transform="translate(332.230469 412.756563) scale(0.1 -0.1)">
      <defs>
       <path id="DejaVuSans-44" d="M 1259 4147 
L 1259 519 
L 2022 519 
Q 2988 519 3436 956 
Q 3884 1394 3884 2338 
Q 3884 3275 3436 3711 
Q 2988 4147 2022 4147 
L 1259 4147 
z
M 628 4666 
L 1925 4666 
Q 3281 4666 3915 4102 
Q 4550 3538 4550 2338 
Q 4550 1131 3912 565 
Q 3275 0 1925 0 
L 628 0 
L 628 4666 
z
" transform="scale(0.015625)"/>
       <path id="DejaVuSans-61" d="M 2194 1759 
Q 1497 1759 1228 1600 
Q 959 1441 959 1056 
Q 959 750 1161 570 
Q 1363 391 1709 391 
Q 2188 391 2477 730 
Q 2766 1069 2766 1631 
L 2766 1759 
L 2194 1759 
z
M 3341 1997 
L 3341 0 
L 2766 0 
L 2766 531 
Q 2569 213 2275 61 
Q 1981 -91 1556 -91 
Q 1019 -91 701 211 
Q 384 513 384 1019 
Q 384 1609 779 1909 
Q 1175 2209 1959 2209 
L 2766 2209 
L 2766 2266 
Q 2766 2663 2505 2880 
Q 2244 3097 1772 3097 
Q 1472 3097 1187 3025 
Q 903 2953 641 2809 
L 641 3341 
Q 956 3463 1253 3523 
Q 1550 3584 1831 3584 
Q 2591 3584 2966 3190 
Q 3341 2797 3341 1997 
z
" transform="scale(0.015625)"/>
       <path id="DejaVuSans-74" d="M 1172 4494 
L 1172 3500 
L 2356 3500 
L 2356 3053 
L 1172 3053 
L 1172 1153 
Q 1172 725 1289 603 
Q 1406 481 1766 481 
L 2356 481 
L 2356 0 
L 1766 0 
Q 1100 0 847 248 
Q 594 497 594 1153 
L 594 3053 
L 172 3053 
L 172 3500 
L 594 3500 
L 594 4494 
L 1172 4494 
z
" transform="scale(0.015625)"/>
       <path id="DejaVuSans-65" d="M 3597 1894 
L 3597 1613 
L 953 1613 
Q 991 1019 1311 708 
Q 1631 397 2203 397 
Q 2534 397 2845 478 
Q 3156 559 3463 722 
L 3463 178 
Q 3153 47 2828 -22 
Q 2503 -91 2169 -91 
Q 1331 -91 842 396 
Q 353 884 353 1716 
Q 353 2575 817 3079 
Q 1281 3584 2069 3584 
Q 2775 3584 3186 3129 
Q 3597 2675 3597 1894 
z
M 3022 2063 
Q 3016 2534 2758 2815 
Q 2500 3097 2075 3097 
Q 1594 3097 1305 2825 
Q 1016 2553 972 2059 
L 3022 2063 
z
" transform="scale(0.015625)"/>
       <path id="DejaVuSans-6e" d="M 3513 2113 
L 3513 0 
L 2938 0 
L 2938 2094 
Q 2938 2591 2744 2837 
Q 2550 3084 2163 3084 
Q 1697 3084 1428 2787 
Q 1159 2491 1159 1978 
L 1159 0 
L 581 0 
L 581 3500 
L 1159 3500 
L 1159 2956 
Q 1366 3272 1645 3428 
Q 1925 3584 2291 3584 
Q 2894 3584 3203 3211 
Q 3513 2838 3513 2113 
z
" transform="scale(0.015625)"/>
       <path id="DejaVuSans-64" d="M 2906 2969 
L 2906 4863 
L 3481 4863 
L 3481 0 
L 2906 0 
L 2906 525 
Q 2725 213 2448 61 
Q 2172 -91 1784 -91 
Q 1150 -91 751 415 
Q 353 922 353 1747 
Q 353 2572 751 3078 
Q 1150 3584 1784 3584 
Q 2172 3584 2448 3432 
Q 2725 3281 2906 2969 
z
M 947 1747 
Q 947 1113 1208 752 
Q 1469 391 1925 391 
Q 2381 391 2643 752 
Q 2906 1113 2906 1747 
Q 2906 2381 2643 2742 
Q 2381 3103 1925 3103 
Q 1469 3103 1208 2742 
Q 947 2381 947 1747 
z
" transform="scale(0.015625)"/>
       <path id="DejaVuSans-54" d="M -19 4666 
L 3928 4666 
L 3928 4134 
L 2272 4134 
L 2272 0 
L 1638 0 
L 1638 4134 
L -19 4134 
L -19 4666 
z
" transform="scale(0.015625)"/>
       <path id="DejaVuSans-69" d="M 603 3500 
L 1178 3500 
L 1178 0 
L 603 0 
L 603 3500 
z
M 603 4863 
L 1178 4863 
L 1178 4134 
L 603 4134 
L 603 4863 
z
" transform="scale(0.015625)"/>
       <path id="DejaVuSans-6d" d="M 3328 2828 
Q 3544 3216 3844 3400 
Q 4144 3584 4550 3584 
Q 5097 3584 5394 3201 
Q 5691 2819 5691 2113 
L 5691 0 
L 5113 0 
L 5113 2094 
Q 5113 2597 4934 2840 
Q 4756 3084 4391 3084 
Q 3944 3084 3684 2787 
Q 3425 2491 3425 1978 
L 3425 0 
L 2847 0 
L 2847 2094 
Q 2847 2600 2669 2842 
Q 2491 3084 2119 3084 
Q 1678 3084 1418 2786 
Q 1159 2488 1159 1978 
L 1159 0 
L 581 0 
L 581 3500 
L 1159 3500 
L 1159 2956 
Q 1356 3278 1631 3431 
Q 1906 3584 2284 3584 
Q 2666 3584 2933 3390 
Q 3200 3197 3328 2828 
z
" transform="scale(0.015625)"/>
      </defs>
      <use xlink:href="#DejaVuSans-44"/>
      <use xlink:href="#DejaVuSans-61" transform="translate(77.001953 0)"/>
      <use xlink:href="#DejaVuSans-74" transform="translate(138.28125 0)"/>
      <use xlink:href="#DejaVuSans-65" transform="translate(177.490234 0)"/>
      <use xlink:href="#DejaVuSans-20" transform="translate(239.013672 0)"/>
      <use xlink:href="#DejaVuSans-61" transform="translate(270.800781 0)"/>
      <use xlink:href="#DejaVuSans-6e" transform="translate(332.080078 0)"/>
      <use xlink:href="#DejaVuSans-64" transform="translate(395.458984 0)"/>
      <use xlink:href="#DejaVuSans-20" transform="translate(458.935547 0)"/>
      <use xlink:href="#DejaVuSans-54" transform="translate(490.722656 0)"/>
      <use xlink:href="#DejaVuSans-69" transform="translate(548.681641 0)"/>
      <use xlink:href="#DejaVuSans-6d" transform="translate(576.464844 0)"/>
      <use xlink:href="#DejaVuSans-65" transform="translate(673.876953 0)"/>
     </g>
    </g>
   </g>
   <g id="matplotlib.axis_2">
    <g id="ytick_1">
     <g id="line2d_21">
      <path d="M 90 370.316962 
L 648 370.316962 
" clip-path="url(#pf9fe417144)" style="fill: none; stroke: #b0b0b0; stroke-width: 0.8; stroke-linecap: square"/>
     </g>
     <g id="line2d_22">
      <defs>
       <path id="me12d694fb4" d="M 0 0 
L -3.5 0 
" style="stroke: #000000; stroke-width: 0.8"/>
      </defs>
      <g>
       <use xlink:href="#me12d694fb4" x="90" y="370.316962" style="stroke: #000000; stroke-width: 0.8"/>
      </g>
     </g>
     <g id="text_12">
      <!-- 0 -->
      <g transform="translate(76.6375 374.116181) scale(0.1 -0.1)">
       <use xlink:href="#DejaVuSans-30"/>
      </g>
     </g>
    </g>
    <g id="ytick_2">
     <g id="line2d_23">
      <path d="M 90 322.468861 
L 648 322.468861 
" clip-path="url(#pf9fe417144)" style="fill: none; stroke: #b0b0b0; stroke-width: 0.8; stroke-linecap: square"/>
     </g>
     <g id="line2d_24">
      <g>
       <use xlink:href="#me12d694fb4" x="90" y="322.468861" style="stroke: #000000; stroke-width: 0.8"/>
      </g>
     </g>
     <g id="text_13">
      <!-- 50 -->
      <g transform="translate(70.275 326.26808) scale(0.1 -0.1)">
       <use xlink:href="#DejaVuSans-35"/>
       <use xlink:href="#DejaVuSans-30" transform="translate(63.623047 0)"/>
      </g>
     </g>
    </g>
    <g id="ytick_3">
     <g id="line2d_25">
      <path d="M 90 274.620759 
L 648 274.620759 
" clip-path="url(#pf9fe417144)" style="fill: none; stroke: #b0b0b0; stroke-width: 0.8; stroke-linecap: square"/>
     </g>
     <g id="line2d_26">
      <g>
       <use xlink:href="#me12d694fb4" x="90" y="274.620759" style="stroke: #000000; stroke-width: 0.8"/>
      </g>
     </g>
     <g id="text_14">
      <!-- 100 -->
      <g transform="translate(63.9125 278.419978) scale(0.1 -0.1)">
       <use xlink:href="#DejaVuSans-31"/>
       <use xlink:href="#DejaVuSans-30" transform="translate(63.623047 0)"/>
       <use xlink:href="#DejaVuSans-30" transform="translate(127.246094 0)"/>
      </g>
     </g>
    </g>
    <g id="ytick_4">
     <g id="line2d_27">
      <path d="M 90 226.772658 
L 648 226.772658 
" clip-path="url(#pf9fe417144)" style="fill: none; stroke: #b0b0b0; stroke-width: 0.8; stroke-linecap: square"/>
     </g>
     <g id="line2d_28">
      <g>
       <use xlink:href="#me12d694fb4" x="90" y="226.772658" style="stroke: #000000; stroke-width: 0.8"/>
      </g>
     </g>
     <g id="text_15">
      <!-- 150 -->
      <g transform="translate(63.9125 230.571877) scale(0.1 -0.1)">
       <use xlink:href="#DejaVuSans-31"/>
       <use xlink:href="#DejaVuSans-35" transform="translate(63.623047 0)"/>
       <use xlink:href="#DejaVuSans-30" transform="translate(127.246094 0)"/>
      </g>
     </g>
    </g>
    <g id="ytick_5">
     <g id="line2d_29">
      <path d="M 90 178.924557 
L 648 178.924557 
" clip-path="url(#pf9fe417144)" style="fill: none; stroke: #b0b0b0; stroke-width: 0.8; stroke-linecap: square"/>
     </g>
     <g id="line2d_30">
      <g>
       <use xlink:href="#me12d694fb4" x="90" y="178.924557" style="stroke: #000000; stroke-width: 0.8"/>
      </g>
     </g>
     <g id="text_16">
      <!-- 200 -->
      <g transform="translate(63.9125 182.723776) scale(0.1 -0.1)">
       <use xlink:href="#DejaVuSans-32"/>
       <use xlink:href="#DejaVuSans-30" transform="translate(63.623047 0)"/>
       <use xlink:href="#DejaVuSans-30" transform="translate(127.246094 0)"/>
      </g>
     </g>
    </g>
    <g id="ytick_6">
     <g id="line2d_31">
      <path d="M 90 131.076456 
L 648 131.076456 
" clip-path="url(#pf9fe417144)" style="fill: none; stroke: #b0b0b0; stroke-width: 0.8; stroke-linecap: square"/>
     </g>
     <g id="line2d_32">
      <g>
       <use xlink:href="#me12d694fb4" x="90" y="131.076456" style="stroke: #000000; stroke-width: 0.8"/>
      </g>
     </g>
     <g id="text_17">
      <!-- 250 -->
      <g transform="translate(63.9125 134.875674) scale(0.1 -0.1)">
       <use xlink:href="#DejaVuSans-32"/>
       <use xlink:href="#DejaVuSans-35" transform="translate(63.623047 0)"/>
       <use xlink:href="#DejaVuSans-30" transform="translate(127.246094 0)"/>
      </g>
     </g>
    </g>
    <g id="ytick_7">
     <g id="line2d_33">
      <path d="M 90 83.228354 
L 648 83.228354 
" clip-path="url(#pf9fe417144)" style="fill: none; stroke: #b0b0b0; stroke-width: 0.8; stroke-linecap: square"/>
     </g>
     <g id="line2d_34">
      <g>
       <use xlink:href="#me12d694fb4" x="90" y="83.228354" style="stroke: #000000; stroke-width: 0.8"/>
      </g>
     </g>
     <g id="text_18">
      <!-- 300 -->
      <g transform="translate(63.9125 87.027573) scale(0.1 -0.1)">
       <use xlink:href="#DejaVuSans-33"/>
       <use xlink:href="#DejaVuSans-30" transform="translate(63.623047 0)"/>
       <use xlink:href="#DejaVuSans-30" transform="translate(127.246094 0)"/>
      </g>
     </g>
    </g>
    <g id="text_19">
     <!-- Votes -->
     <g transform="translate(57.832812 231.893594) rotate(-90) scale(0.1 -0.1)">
      <defs>
       <path id="DejaVuSans-56" d="M 1831 0 
L 50 4666 
L 709 4666 
L 2188 738 
L 3669 4666 
L 4325 4666 
L 2547 0 
L 1831 0 
z
" transform="scale(0.015625)"/>
       <path id="DejaVuSans-6f" d="M 1959 3097 
Q 1497 3097 1228 2736 
Q 959 2375 959 1747 
Q 959 1119 1226 758 
Q 1494 397 1959 397 
Q 2419 397 2687 759 
Q 2956 1122 2956 1747 
Q 2956 2369 2687 2733 
Q 2419 3097 1959 3097 
z
M 1959 3584 
Q 2709 3584 3137 3096 
Q 3566 2609 3566 1747 
Q 3566 888 3137 398 
Q 2709 -91 1959 -91 
Q 1206 -91 779 398 
Q 353 888 353 1747 
Q 353 2609 779 3096 
Q 1206 3584 1959 3584 
z
" transform="scale(0.015625)"/>
       <path id="DejaVuSans-73" d="M 2834 3397 
L 2834 2853 
Q 2591 2978 2328 3040 
Q 2066 3103 1784 3103 
Q 1356 3103 1142 2972 
Q 928 2841 928 2578 
Q 928 2378 1081 2264 
Q 1234 2150 1697 2047 
L 1894 2003 
Q 2506 1872 2764 1633 
Q 3022 1394 3022 966 
Q 3022 478 2636 193 
Q 2250 -91 1575 -91 
Q 1294 -91 989 -36 
Q 684 19 347 128 
L 347 722 
Q 666 556 975 473 
Q 1284 391 1588 391 
Q 1994 391 2212 530 
Q 2431 669 2431 922 
Q 2431 1156 2273 1281 
Q 2116 1406 1581 1522 
L 1381 1569 
Q 847 1681 609 1914 
Q 372 2147 372 2553 
Q 372 3047 722 3315 
Q 1072 3584 1716 3584 
Q 2034 3584 2315 3537 
Q 2597 3491 2834 3397 
z
" transform="scale(0.015625)"/>
      </defs>
      <use xlink:href="#DejaVuSans-56"/>
      <use xlink:href="#DejaVuSans-6f" transform="translate(60.658203 0)"/>
      <use xlink:href="#DejaVuSans-74" transform="translate(121.839844 0)"/>
      <use xlink:href="#DejaVuSans-65" transform="translate(161.048828 0)"/>
      <use xlink:href="#DejaVuSans-73" transform="translate(222.572266 0)"/>
     </g>
    </g>
   </g>
   <g id="line2d_35">
    <path d="M 115.363636 353.091646 
L 124.503686 353.091646 
L 125.41769 352.134684 
L 134.55774 352.134684 
L 135.471744 350.220759 
L 143.697789 350.220759 
L 144.611794 349.263797 
L 149.181818 349.263797 
L 150.095823 348.306835 
L 153.751843 348.306835 
L 154.665848 347.349873 
L 157.407862 347.349873 
L 158.321867 346.392911 
L 171.117936 346.392911 
L 172.031941 345.435949 
L 182.085995 345.435949 
L 183.914005 343.522025 
L 185.742015 343.522025 
L 186.65602 342.565063 
L 194.882064 342.565063 
L 196.710074 340.651139 
L 207.678133 340.651139 
L 208.592138 339.694177 
L 211.334152 339.694177 
L 212.248157 338.737215 
L 213.162162 338.737215 
L 214.076167 337.780253 
L 238.7543 337.780253 
L 239.668305 336.823291 
L 250.636364 336.823291 
L 251.550369 335.866329 
L 257.948403 335.866329 
L 258.862408 334.909367 
L 259.776413 332.995443 
L 260.690418 332.995443 
L 262.518428 331.081519 
L 277.142506 331.081519 
L 278.056511 330.124557 
L 283.540541 330.124557 
L 284.454545 329.167595 
L 288.110565 329.167595 
L 289.02457 328.210633 
L 298.164619 328.210633 
L 299.078624 327.253671 
L 300.906634 327.253671 
L 301.820639 326.296709 
L 304.562654 326.296709 
L 305.476658 325.339747 
L 312.788698 325.339747 
L 313.702703 324.382785 
L 314.616708 324.382785 
L 315.530713 323.425823 
L 324.670762 323.425823 
L 325.584767 322.468861 
L 331.982801 322.468861 
L 332.896806 321.511899 
L 333.810811 321.511899 
L 335.638821 319.597975 
L 355.746929 319.597975 
L 356.660934 318.641013 
L 371.285012 318.641013 
L 372.199017 317.684051 
L 373.113022 317.684051 
L 374.027027 316.727089 
L 382.253071 316.727089 
L 383.167076 315.770127 
L 384.081081 315.770127 
L 384.995086 314.813165 
L 389.565111 314.813165 
L 390.479115 313.856203 
L 393.22113 313.856203 
L 395.04914 311.942278 
L 395.963145 311.942278 
L 396.87715 310.985316 
L 398.70516 310.985316 
L 399.619165 310.028354 
L 401.447174 310.028354 
L 402.361179 309.071392 
L 404.189189 309.071392 
L 405.103194 308.11443 
L 427.039312 308.11443 
L 427.953317 307.157468 
L 437.093366 307.157468 
L 438.007371 306.200506 
L 443.4914 306.200506 
L 444.405405 305.243544 
L 445.31941 305.243544 
L 446.233415 304.286582 
L 447.14742 304.286582 
L 450.80344 300.458734 
L 452.63145 300.458734 
L 453.545455 298.54481 
L 460.857494 298.54481 
L 462.685504 296.630886 
L 464.513514 296.630886 
L 465.427518 295.673924 
L 469.083538 295.673924 
L 469.997543 294.716962 
L 476.395577 294.716962 
L 477.309582 293.76 
L 479.137592 293.76 
L 480.051597 292.803038 
L 485.535627 292.803038 
L 487.363636 290.889114 
L 493.761671 290.889114 
L 494.675676 289.932152 
L 497.41769 289.932152 
L 498.331695 288.97519 
L 500.159705 288.97519 
L 501.07371 287.061266 
L 504.72973 287.061266 
L 505.643735 285.147342 
L 506.55774 284.19038 
L 510.213759 284.19038 
L 511.127764 282.276456 
L 517.525799 282.276456 
L 518.439803 281.319494 
L 522.095823 281.319494 
L 523.009828 280.362532 
L 525.751843 280.362532 
L 526.665848 279.40557 
L 527.579853 277.491646 
L 529.407862 277.491646 
L 530.321867 276.534684 
L 544.945946 276.534684 
L 546.773956 274.620759 
L 559.570025 274.620759 
L 560.484029 273.663797 
L 565.968059 273.663797 
L 566.882064 272.706835 
L 578.764128 272.706835 
L 579.678133 271.749873 
L 587.904177 271.749873 
L 588.818182 270.792911 
L 612.58231 270.792911 
L 613.496314 269.835949 
L 622.636364 269.835949 
L 622.636364 269.835949 
" clip-path="url(#pf9fe417144)" style="fill: none; stroke: #1f77b4; stroke-width: 1.5; stroke-linecap: square"/>
   </g>
   <g id="line2d_36">
    <path d="M 115.363636 291.846076 
L 116.277641 290.889114 
L 119.019656 290.889114 
L 119.933661 289.932152 
L 120.847666 289.932152 
L 121.761671 288.97519 
L 122.675676 288.97519 
L 124.503686 287.061266 
L 125.41769 285.147342 
L 126.331695 285.147342 
L 128.159705 283.233418 
L 129.07371 283.233418 
L 129.987715 279.40557 
L 130.90172 277.491646 
L 131.815725 273.663797 
L 132.72973 270.792911 
L 135.471744 270.792911 
L 136.385749 267.922025 
L 137.299754 266.008101 
L 139.127764 264.094177 
L 140.041769 262.180253 
L 141.869779 260.266329 
L 142.783784 258.352405 
L 145.525799 258.352405 
L 146.439803 253.567595 
L 147.353808 251.653671 
L 148.267813 250.696709 
L 149.181818 248.782785 
L 150.095823 247.825823 
L 151.009828 247.825823 
L 151.923833 244.954937 
L 152.837838 244.954937 
L 153.751843 243.041013 
L 154.665848 242.084051 
L 155.579853 242.084051 
L 156.493857 241.127089 
L 158.321867 241.127089 
L 159.235872 240.170127 
L 161.063882 240.170127 
L 161.977887 238.256203 
L 162.891892 238.256203 
L 163.805897 237.299241 
L 167.461916 237.299241 
L 168.375921 236.342278 
L 171.117936 236.342278 
L 172.031941 235.385316 
L 172.945946 235.385316 
L 173.859951 233.471392 
L 174.773956 233.471392 
L 175.687961 231.557468 
L 176.601966 230.600506 
L 179.34398 230.600506 
L 180.257985 228.686582 
L 181.17199 227.72962 
L 182.085995 224.858734 
L 183.914005 222.94481 
L 191.226044 222.94481 
L 192.140049 220.073924 
L 193.054054 220.073924 
L 194.882064 218.16 
L 195.796069 218.16 
L 198.538084 215.289114 
L 200.366093 215.289114 
L 201.280098 214.332152 
L 203.108108 214.332152 
L 205.850123 211.461266 
L 207.678133 211.461266 
L 208.592138 210.504304 
L 213.162162 210.504304 
L 214.076167 209.547342 
L 215.904177 209.547342 
L 216.818182 208.59038 
L 227.786241 208.59038 
L 228.700246 206.676456 
L 230.528256 206.676456 
L 232.356265 204.762532 
L 233.27027 204.762532 
L 234.184275 203.80557 
L 239.668305 203.80557 
L 242.410319 200.934684 
L 243.324324 200.934684 
L 244.238329 199.977722 
L 245.152334 198.063797 
L 246.066339 198.063797 
L 246.980344 197.106835 
L 247.894349 197.106835 
L 251.550369 193.278987 
L 253.378378 193.278987 
L 254.292383 191.365063 
L 257.034398 191.365063 
L 257.948403 190.408101 
L 260.690418 190.408101 
L 261.604423 189.451139 
L 262.518428 189.451139 
L 263.432432 186.580253 
L 266.174447 186.580253 
L 267.088452 185.623291 
L 268.002457 183.709367 
L 269.830467 183.709367 
L 270.744472 182.752405 
L 272.572482 182.752405 
L 273.486486 181.795443 
L 274.400491 181.795443 
L 278.970516 177.010633 
L 280.798526 177.010633 
L 283.540541 174.139747 
L 286.282555 174.139747 
L 287.19656 172.225823 
L 288.110565 172.225823 
L 289.02457 171.268861 
L 291.766585 171.268861 
L 292.68059 170.311899 
L 300.906634 170.311899 
L 301.820639 169.354937 
L 308.218673 169.354937 
L 309.132678 168.397975 
L 310.960688 168.397975 
L 312.788698 166.484051 
L 317.358722 166.484051 
L 318.272727 165.527089 
L 322.842752 165.527089 
L 325.584767 162.656203 
L 337.46683 162.656203 
L 338.380835 160.742278 
L 339.29484 159.785316 
L 361.230958 159.785316 
L 362.144963 158.828354 
L 367.628993 158.828354 
L 369.457002 156.91443 
L 371.285012 156.91443 
L 372.199017 155.957468 
L 373.113022 155.957468 
L 374.941032 154.043544 
L 375.855037 154.043544 
L 376.769042 153.086582 
L 377.683047 153.086582 
L 379.511057 149.258734 
L 380.425061 148.301772 
L 384.995086 148.301772 
L 385.909091 145.430886 
L 386.823096 143.516962 
L 388.651106 143.516962 
L 390.479115 141.603038 
L 395.04914 141.603038 
L 396.87715 139.689114 
L 398.70516 139.689114 
L 399.619165 138.732152 
L 401.447174 138.732152 
L 402.361179 137.77519 
L 403.275184 137.77519 
L 404.189189 136.818228 
L 405.103194 136.818228 
L 406.017199 135.861266 
L 406.931204 135.861266 
L 407.845209 134.904304 
L 409.673219 134.904304 
L 410.587224 132.99038 
L 415.157248 132.99038 
L 416.985258 131.076456 
L 426.125307 131.076456 
L 427.039312 130.119494 
L 427.953317 130.119494 
L 428.867322 129.162532 
L 429.781327 129.162532 
L 432.523342 126.291646 
L 434.351351 126.291646 
L 435.265356 125.334684 
L 453.545455 125.334684 
L 455.373464 123.420759 
L 459.029484 123.420759 
L 459.943489 122.463797 
L 460.857494 122.463797 
L 461.771499 121.506835 
L 462.685504 121.506835 
L 463.599509 120.549873 
L 483.707617 120.549873 
L 484.621622 119.592911 
L 502.90172 119.592911 
L 503.815725 117.678987 
L 510.213759 117.678987 
L 512.041769 115.765063 
L 513.869779 115.765063 
L 514.783784 114.808101 
L 516.611794 114.808101 
L 518.439803 112.894177 
L 520.267813 112.894177 
L 521.181818 110.980253 
L 528.493857 110.980253 
L 529.407862 110.023291 
L 533.977887 110.023291 
L 534.891892 109.066329 
L 540.375921 109.066329 
L 541.289926 108.109367 
L 547.687961 108.109367 
L 549.515971 106.195443 
L 550.429975 106.195443 
L 551.34398 105.238481 
L 556.82801 105.238481 
L 557.742015 104.281519 
L 561.398034 104.281519 
L 562.312039 103.324557 
L 563.226044 103.324557 
L 564.140049 102.367595 
L 577.850123 102.367595 
L 580.592138 99.496709 
L 590.646192 99.496709 
L 591.560197 98.539747 
L 595.216216 98.539747 
L 596.130221 96.625823 
L 606.184275 96.625823 
L 607.09828 94.711899 
L 619.894349 94.711899 
L 620.808354 93.754937 
L 622.636364 93.754937 
L 622.636364 93.754937 
" clip-path="url(#pf9fe417144)" style="fill: none; stroke: #ff7f0e; stroke-width: 1.5; stroke-linecap: square"/>
   </g>
   <g id="line2d_37">
    <path d="M 115.363636 340.651139 
L 119.019656 340.651139 
L 119.933661 338.737215 
L 121.761671 338.737215 
L 122.675676 337.780253 
L 123.589681 335.866329 
L 124.503686 334.909367 
L 125.41769 332.038481 
L 126.331695 330.124557 
L 127.2457 329.167595 
L 128.159705 329.167595 
L 129.07371 327.253671 
L 129.987715 324.382785 
L 133.643735 324.382785 
L 134.55774 323.425823 
L 135.471744 323.425823 
L 136.385749 321.511899 
L 139.127764 321.511899 
L 140.955774 319.597975 
L 144.611794 319.597975 
L 145.525799 318.641013 
L 149.181818 318.641013 
L 151.923833 315.770127 
L 156.493857 315.770127 
L 157.407862 314.813165 
L 160.149877 314.813165 
L 161.063882 313.856203 
L 162.891892 313.856203 
L 163.805897 311.942278 
L 171.117936 311.942278 
L 172.031941 310.985316 
L 172.945946 309.071392 
L 173.859951 308.11443 
L 174.773956 308.11443 
L 175.687961 307.157468 
L 177.515971 307.157468 
L 178.429975 306.200506 
L 180.257985 306.200506 
L 181.17199 305.243544 
L 186.65602 305.243544 
L 187.570025 304.286582 
L 188.484029 304.286582 
L 189.398034 303.32962 
L 190.312039 303.32962 
L 191.226044 302.372658 
L 193.968059 302.372658 
L 194.882064 301.415696 
L 195.796069 299.501772 
L 200.366093 299.501772 
L 203.108108 296.630886 
L 205.850123 296.630886 
L 206.764128 295.673924 
L 210.420147 295.673924 
L 211.334152 294.716962 
L 212.248157 294.716962 
L 213.162162 293.76 
L 214.990172 293.76 
L 215.904177 292.803038 
L 218.646192 292.803038 
L 220.474201 290.889114 
L 221.388206 290.889114 
L 222.302211 289.932152 
L 229.614251 289.932152 
L 230.528256 288.018228 
L 231.44226 287.061266 
L 238.7543 287.061266 
L 239.668305 286.104304 
L 242.410319 286.104304 
L 243.324324 285.147342 
L 246.066339 285.147342 
L 246.980344 284.19038 
L 256.120393 284.19038 
L 257.034398 283.233418 
L 260.690418 283.233418 
L 261.604423 282.276456 
L 267.088452 282.276456 
L 268.002457 281.319494 
L 269.830467 281.319494 
L 270.744472 280.362532 
L 274.400491 280.362532 
L 276.228501 278.448608 
L 293.594595 278.448608 
L 294.5086 277.491646 
L 295.422604 277.491646 
L 296.336609 276.534684 
L 299.078624 276.534684 
L 299.992629 275.577722 
L 304.562654 275.577722 
L 305.476658 274.620759 
L 307.304668 274.620759 
L 308.218673 273.663797 
L 313.702703 273.663797 
L 314.616708 274.620759 
L 315.530713 273.663797 
L 321.928747 273.663797 
L 322.842752 272.706835 
L 330.154791 272.706835 
L 331.068796 271.749873 
L 332.896806 271.749873 
L 333.810811 270.792911 
L 334.724816 270.792911 
L 335.638821 269.835949 
L 342.036855 269.835949 
L 342.95086 268.878987 
L 348.434889 268.878987 
L 349.348894 267.922025 
L 363.058968 267.922025 
L 363.972973 266.965063 
L 384.081081 266.965063 
L 384.995086 266.008101 
L 394.135135 266.008101 
L 395.04914 265.051139 
L 409.673219 265.051139 
L 411.501229 263.137215 
L 427.953317 263.137215 
L 428.867322 262.180253 
L 429.781327 260.266329 
L 448.061425 260.266329 
L 448.97543 259.309367 
L 450.80344 259.309367 
L 451.717445 258.352405 
L 457.201474 258.352405 
L 458.115479 257.395443 
L 460.857494 257.395443 
L 462.685504 255.481519 
L 464.513514 255.481519 
L 465.427518 254.524557 
L 469.083538 254.524557 
L 469.997543 252.610633 
L 472.739558 252.610633 
L 473.653563 251.653671 
L 474.567568 251.653671 
L 476.395577 249.739747 
L 488.277641 249.739747 
L 489.191646 248.782785 
L 500.159705 248.782785 
L 501.07371 246.868861 
L 508.385749 246.868861 
L 510.213759 244.954937 
L 519.353808 244.954937 
L 522.095823 242.084051 
L 524.837838 242.084051 
L 525.751843 241.127089 
L 527.579853 241.127089 
L 528.493857 240.170127 
L 536.719902 240.170127 
L 537.633907 239.213165 
L 545.859951 239.213165 
L 546.773956 238.256203 
L 553.17199 238.256203 
L 555 236.342278 
L 561.398034 236.342278 
L 562.312039 235.385316 
L 571.452088 235.385316 
L 572.366093 234.428354 
L 573.280098 234.428354 
L 574.194103 233.471392 
L 585.162162 233.471392 
L 586.076167 232.51443 
L 588.818182 232.51443 
L 589.732187 231.557468 
L 602.528256 231.557468 
L 603.44226 230.600506 
L 618.066339 230.600506 
L 618.980344 228.686582 
L 622.636364 228.686582 
L 622.636364 228.686582 
" clip-path="url(#pf9fe417144)" style="fill: none; stroke: #2ca02c; stroke-width: 1.5; stroke-linecap: square"/>
   </g>
   <g id="line2d_38">
    <path d="M 115.363636 369.36 
L 341.12285 369.36 
L 342.036855 368.403038 
L 535.805897 368.403038 
L 536.719902 367.446076 
L 622.636364 367.446076 
L 622.636364 367.446076 
" clip-path="url(#pf9fe417144)" style="fill: none; stroke: #d62728; stroke-width: 1.5; stroke-linecap: square"/>
   </g>
   <g id="line2d_39">
    <path d="M 115.363636 348.306835 
L 118.105651 348.306835 
L 119.019656 347.349873 
L 124.503686 347.349873 
L 125.41769 346.392911 
L 130.90172 346.392911 
L 131.815725 345.435949 
L 151.923833 345.435949 
L 152.837838 344.478987 
L 185.742015 344.478987 
L 187.570025 342.565063 
L 194.882064 342.565063 
L 195.796069 341.608101 
L 199.452088 341.608101 
L 200.366093 340.651139 
L 202.194103 340.651139 
L 203.108108 339.694177 
L 226.872236 339.694177 
L 227.786241 338.737215 
L 265.260442 338.737215 
L 266.174447 337.780253 
L 384.995086 337.780253 
L 385.909091 336.823291 
L 386.823096 336.823291 
L 387.737101 335.866329 
L 445.31941 335.866329 
L 446.233415 334.909367 
L 592.474201 334.909367 
L 593.388206 333.952405 
L 622.636364 333.952405 
L 622.636364 333.952405 
" clip-path="url(#pf9fe417144)" style="fill: none; stroke: #9467bd; stroke-width: 1.5; stroke-linecap: square"/>
   </g>
   <g id="line2d_40">
    <path d="M 115.363636 355.962532 
L 116.277641 355.962532 
L 117.191646 355.00557 
L 129.987715 355.00557 
L 130.90172 354.048608 
L 141.869779 354.048608 
L 142.783784 353.091646 
L 156.493857 353.091646 
L 158.321867 351.177722 
L 168.375921 351.177722 
L 169.289926 350.220759 
L 196.710074 350.220759 
L 197.624079 349.263797 
L 205.850123 349.263797 
L 206.764128 348.306835 
L 222.302211 348.306835 
L 223.216216 347.349873 
L 237.840295 347.349873 
L 238.7543 346.392911 
L 242.410319 346.392911 
L 243.324324 345.435949 
L 251.550369 345.435949 
L 252.464373 344.478987 
L 274.400491 344.478987 
L 275.314496 343.522025 
L 280.798526 343.522025 
L 281.712531 342.565063 
L 287.19656 342.565063 
L 288.110565 341.608101 
L 291.766585 341.608101 
L 292.68059 340.651139 
L 326.498771 340.651139 
L 327.412776 339.694177 
L 353.918919 339.694177 
L 354.832924 338.737215 
L 407.845209 338.737215 
L 408.759214 337.780253 
L 434.351351 337.780253 
L 435.265356 336.823291 
L 447.14742 336.823291 
L 448.061425 335.866329 
L 622.636364 335.866329 
L 622.636364 335.866329 
" clip-path="url(#pf9fe417144)" style="fill: none; stroke: #8c564b; stroke-width: 1.5; stroke-linecap: square"/>
   </g>
   <g id="line2d_41">
    <path d="M 115.363636 285.147342 
L 119.019656 285.147342 
L 119.933661 284.19038 
L 123.589681 284.19038 
L 125.41769 282.276456 
L 126.331695 282.276456 
L 127.2457 281.319494 
L 128.159705 281.319494 
L 129.07371 280.362532 
L 130.90172 280.362532 
L 131.815725 279.40557 
L 134.55774 279.40557 
L 135.471744 278.448608 
L 137.299754 278.448608 
L 138.213759 277.491646 
L 139.127764 277.491646 
L 140.041769 276.534684 
L 141.869779 276.534684 
L 143.697789 274.620759 
L 147.353808 274.620759 
L 148.267813 273.663797 
L 151.009828 273.663797 
L 152.837838 271.749873 
L 154.665848 271.749873 
L 155.579853 270.792911 
L 157.407862 270.792911 
L 158.321867 269.835949 
L 159.235872 267.922025 
L 160.149877 265.051139 
L 161.977887 265.051139 
L 162.891892 264.094177 
L 167.461916 264.094177 
L 169.289926 262.180253 
L 170.203931 260.266329 
L 171.117936 259.309367 
L 172.031941 259.309367 
L 172.945946 257.395443 
L 176.601966 257.395443 
L 177.515971 256.438481 
L 178.429975 256.438481 
L 180.257985 254.524557 
L 181.17199 254.524557 
L 182.085995 253.567595 
L 183 253.567595 
L 184.82801 251.653671 
L 186.65602 251.653671 
L 187.570025 249.739747 
L 191.226044 249.739747 
L 193.054054 247.825823 
L 194.882064 247.825823 
L 195.796069 246.868861 
L 196.710074 244.954937 
L 199.452088 244.954937 
L 200.366093 243.997975 
L 201.280098 243.997975 
L 202.194103 242.084051 
L 203.108108 242.084051 
L 204.022113 241.127089 
L 204.936118 241.127089 
L 205.850123 240.170127 
L 209.506143 240.170127 
L 211.334152 238.256203 
L 212.248157 238.256203 
L 213.162162 236.342278 
L 214.076167 236.342278 
L 214.990172 235.385316 
L 215.904177 235.385316 
L 216.818182 234.428354 
L 219.560197 234.428354 
L 220.474201 233.471392 
L 221.388206 233.471392 
L 225.044226 229.643544 
L 225.958231 227.72962 
L 227.786241 227.72962 
L 229.614251 223.901772 
L 231.44226 223.901772 
L 233.27027 221.987848 
L 234.184275 221.987848 
L 235.09828 220.073924 
L 236.012285 220.073924 
L 236.92629 219.116962 
L 237.840295 219.116962 
L 238.7543 218.16 
L 240.58231 218.16 
L 241.496314 217.203038 
L 242.410319 217.203038 
L 243.324324 216.246076 
L 246.980344 216.246076 
L 247.894349 211.461266 
L 248.808354 211.461266 
L 249.722359 210.504304 
L 252.464373 210.504304 
L 253.378378 209.547342 
L 261.604423 209.547342 
L 262.518428 207.633418 
L 266.174447 207.633418 
L 267.088452 206.676456 
L 276.228501 206.676456 
L 277.142506 204.762532 
L 278.056511 203.80557 
L 282.626536 203.80557 
L 283.540541 202.848608 
L 289.938575 202.848608 
L 290.85258 201.891646 
L 291.766585 201.891646 
L 292.68059 200.934684 
L 298.164619 200.934684 
L 299.992629 199.020759 
L 306.390663 199.020759 
L 308.218673 197.106835 
L 309.132678 197.106835 
L 310.046683 196.149873 
L 315.530713 196.149873 
L 316.444717 195.192911 
L 319.186732 195.192911 
L 320.100737 194.235949 
L 321.014742 192.322025 
L 323.756757 192.322025 
L 324.670762 191.365063 
L 325.584767 191.365063 
L 327.412776 189.451139 
L 331.068796 189.451139 
L 331.982801 188.494177 
L 335.638821 188.494177 
L 336.552826 187.537215 
L 339.29484 187.537215 
L 340.208845 186.580253 
L 347.520885 186.580253 
L 349.348894 184.666329 
L 353.918919 184.666329 
L 354.832924 183.709367 
L 358.488943 183.709367 
L 363.058968 178.924557 
L 364.886978 178.924557 
L 365.800983 177.967595 
L 366.714988 177.967595 
L 367.628993 176.053671 
L 369.457002 174.139747 
L 371.285012 170.311899 
L 373.113022 170.311899 
L 374.941032 166.484051 
L 376.769042 166.484051 
L 377.683047 164.570127 
L 379.511057 162.656203 
L 382.253071 162.656203 
L 383.167076 161.699241 
L 384.081081 161.699241 
L 385.909091 159.785316 
L 389.565111 159.785316 
L 390.479115 158.828354 
L 392.307125 158.828354 
L 393.22113 157.871392 
L 397.791155 157.871392 
L 398.70516 155.957468 
L 399.619165 155.000506 
L 400.53317 155.000506 
L 401.447174 154.043544 
L 403.275184 154.043544 
L 404.189189 153.086582 
L 406.017199 153.086582 
L 406.931204 151.172658 
L 408.759214 151.172658 
L 409.673219 150.215696 
L 410.587224 150.215696 
L 411.501229 149.258734 
L 416.071253 149.258734 
L 416.985258 148.301772 
L 421.555283 148.301772 
L 422.469287 147.34481 
L 423.383292 147.34481 
L 424.297297 145.430886 
L 426.125307 143.516962 
L 427.039312 140.646076 
L 427.953317 139.689114 
L 428.867322 139.689114 
L 429.781327 138.732152 
L 430.695332 138.732152 
L 431.609337 137.77519 
L 435.265356 137.77519 
L 436.179361 136.818228 
L 438.007371 136.818228 
L 438.921376 135.861266 
L 440.749386 135.861266 
L 442.577396 133.947342 
L 445.31941 133.947342 
L 446.233415 132.99038 
L 450.80344 132.99038 
L 451.717445 131.076456 
L 456.287469 131.076456 
L 457.201474 130.119494 
L 459.943489 130.119494 
L 460.857494 128.20557 
L 464.513514 128.20557 
L 465.427518 127.248608 
L 473.653563 127.248608 
L 474.567568 126.291646 
L 476.395577 126.291646 
L 477.309582 125.334684 
L 483.707617 125.334684 
L 484.621622 124.377722 
L 485.535627 124.377722 
L 486.449631 123.420759 
L 487.363636 123.420759 
L 488.277641 122.463797 
L 493.761671 122.463797 
L 495.589681 120.549873 
L 508.385749 120.549873 
L 509.299754 119.592911 
L 510.213759 119.592911 
L 512.041769 117.678987 
L 512.955774 117.678987 
L 513.869779 116.722025 
L 524.837838 116.722025 
L 525.751843 115.765063 
L 526.665848 113.851139 
L 528.493857 113.851139 
L 529.407862 112.894177 
L 533.977887 112.894177 
L 534.891892 111.937215 
L 535.805897 111.937215 
L 537.633907 110.023291 
L 542.203931 110.023291 
L 543.117936 109.066329 
L 545.859951 109.066329 
L 546.773956 108.109367 
L 548.601966 108.109367 
L 549.515971 107.152405 
L 551.34398 107.152405 
L 552.257985 106.195443 
L 553.17199 106.195443 
L 554.085995 104.281519 
L 560.484029 104.281519 
L 561.398034 101.410633 
L 562.312039 99.496709 
L 563.226044 99.496709 
L 566.882064 95.668861 
L 567.796069 93.754937 
L 569.624079 93.754937 
L 570.538084 91.841013 
L 577.850123 91.841013 
L 579.678133 89.927089 
L 580.592138 88.013165 
L 581.506143 87.056203 
L 584.248157 87.056203 
L 585.162162 85.142278 
L 586.076167 84.185316 
L 586.990172 84.185316 
L 587.904177 81.31443 
L 588.818182 80.357468 
L 593.388206 80.357468 
L 594.302211 78.443544 
L 595.216216 78.443544 
L 596.130221 77.486582 
L 598.872236 77.486582 
L 599.786241 75.572658 
L 601.614251 75.572658 
L 602.528256 74.615696 
L 603.44226 74.615696 
L 604.356265 73.658734 
L 605.27027 70.787848 
L 607.09828 70.787848 
L 608.92629 68.873924 
L 619.894349 68.873924 
L 620.808354 67.916962 
L 621.722359 67.916962 
L 622.636364 66.96 
L 622.636364 66.96 
" clip-path="url(#pf9fe417144)" style="fill: none; stroke: #e377c2; stroke-width: 1.5; stroke-linecap: square"/>
   </g>
   <g id="line2d_42">
    <path d="M 115.363636 344.478987 
L 116.277641 344.478987 
L 118.105651 342.565063 
L 122.675676 342.565063 
L 123.589681 341.608101 
L 124.503686 341.608101 
L 126.331695 339.694177 
L 128.159705 339.694177 
L 129.07371 338.737215 
L 131.815725 338.737215 
L 132.72973 337.780253 
L 133.643735 337.780253 
L 134.55774 336.823291 
L 135.471744 336.823291 
L 137.299754 334.909367 
L 140.041769 334.909367 
L 140.955774 333.952405 
L 142.783784 333.952405 
L 144.611794 332.038481 
L 146.439803 332.038481 
L 148.267813 330.124557 
L 149.181818 330.124557 
L 150.095823 329.167595 
L 151.009828 326.296709 
L 154.665848 326.296709 
L 158.321867 322.468861 
L 159.235872 322.468861 
L 161.063882 320.554937 
L 161.977887 320.554937 
L 162.891892 319.597975 
L 163.805897 319.597975 
L 164.719902 318.641013 
L 172.945946 318.641013 
L 173.859951 317.684051 
L 183 317.684051 
L 184.82801 315.770127 
L 187.570025 315.770127 
L 188.484029 314.813165 
L 190.312039 314.813165 
L 192.140049 312.899241 
L 193.968059 312.899241 
L 194.882064 310.985316 
L 197.624079 310.985316 
L 198.538084 309.071392 
L 199.452088 308.11443 
L 204.022113 308.11443 
L 204.936118 307.157468 
L 205.850123 307.157468 
L 207.678133 305.243544 
L 212.248157 305.243544 
L 213.162162 304.286582 
L 214.076167 304.286582 
L 214.990172 303.32962 
L 220.474201 303.32962 
L 221.388206 302.372658 
L 224.130221 302.372658 
L 225.044226 301.415696 
L 225.958231 301.415696 
L 226.872236 298.54481 
L 227.786241 298.54481 
L 228.700246 296.630886 
L 229.614251 295.673924 
L 230.528256 295.673924 
L 232.356265 293.76 
L 234.184275 293.76 
L 235.09828 292.803038 
L 236.92629 292.803038 
L 237.840295 291.846076 
L 238.7543 291.846076 
L 239.668305 289.932152 
L 240.58231 289.932152 
L 241.496314 288.97519 
L 243.324324 288.97519 
L 245.152334 287.061266 
L 246.066339 287.061266 
L 246.980344 285.147342 
L 247.894349 284.19038 
L 254.292383 284.19038 
L 255.206388 282.276456 
L 257.948403 282.276456 
L 258.862408 281.319494 
L 259.776413 281.319494 
L 260.690418 280.362532 
L 263.432432 280.362532 
L 264.346437 279.40557 
L 268.916462 279.40557 
L 269.830467 278.448608 
L 271.658477 278.448608 
L 272.572482 277.491646 
L 277.142506 277.491646 
L 278.056511 276.534684 
L 286.282555 276.534684 
L 288.110565 274.620759 
L 289.02457 274.620759 
L 289.938575 273.663797 
L 290.85258 273.663797 
L 291.766585 272.706835 
L 292.68059 272.706835 
L 293.594595 271.749873 
L 295.422604 271.749873 
L 296.336609 270.792911 
L 297.250614 270.792911 
L 299.078624 268.878987 
L 301.820639 268.878987 
L 302.734644 267.922025 
L 305.476658 267.922025 
L 306.390663 266.965063 
L 312.788698 266.965063 
L 313.702703 266.008101 
L 314.616708 266.008101 
L 315.530713 265.051139 
L 319.186732 265.051139 
L 320.100737 263.137215 
L 325.584767 263.137215 
L 326.498771 262.180253 
L 327.412776 262.180253 
L 328.326781 260.266329 
L 332.896806 260.266329 
L 333.810811 259.309367 
L 339.29484 259.309367 
L 340.208845 258.352405 
L 352.090909 258.352405 
L 353.004914 257.395443 
L 366.714988 257.395443 
L 367.628993 256.438481 
L 372.199017 256.438481 
L 373.113022 255.481519 
L 374.027027 255.481519 
L 374.941032 254.524557 
L 375.855037 254.524557 
L 376.769042 252.610633 
L 377.683047 252.610633 
L 379.511057 250.696709 
L 385.909091 250.696709 
L 386.823096 249.739747 
L 387.737101 249.739747 
L 388.651106 248.782785 
L 389.565111 248.782785 
L 390.479115 247.825823 
L 395.04914 247.825823 
L 395.963145 246.868861 
L 404.189189 246.868861 
L 405.103194 245.911899 
L 409.673219 245.911899 
L 410.587224 244.954937 
L 415.157248 244.954937 
L 416.071253 243.997975 
L 417.899263 243.997975 
L 420.641278 241.127089 
L 422.469287 241.127089 
L 423.383292 239.213165 
L 427.953317 239.213165 
L 429.781327 237.299241 
L 431.609337 237.299241 
L 432.523342 236.342278 
L 433.437346 236.342278 
L 435.265356 234.428354 
L 441.663391 234.428354 
L 442.577396 233.471392 
L 444.405405 233.471392 
L 445.31941 232.51443 
L 452.63145 232.51443 
L 454.459459 230.600506 
L 457.201474 230.600506 
L 458.115479 229.643544 
L 459.029484 229.643544 
L 459.943489 226.772658 
L 460.857494 225.815696 
L 464.513514 225.815696 
L 465.427518 223.901772 
L 468.169533 223.901772 
L 469.083538 222.94481 
L 478.223587 222.94481 
L 479.137592 221.987848 
L 488.277641 221.987848 
L 490.105651 220.073924 
L 496.503686 220.073924 
L 497.41769 219.116962 
L 512.955774 219.116962 
L 516.611794 215.289114 
L 520.267813 215.289114 
L 521.181818 214.332152 
L 528.493857 214.332152 
L 529.407862 213.37519 
L 532.149877 213.37519 
L 533.063882 212.418228 
L 533.977887 212.418228 
L 534.891892 211.461266 
L 540.375921 211.461266 
L 542.203931 209.547342 
L 544.031941 209.547342 
L 544.945946 208.59038 
L 549.515971 208.59038 
L 550.429975 207.633418 
L 551.34398 207.633418 
L 552.257985 205.719494 
L 562.312039 205.719494 
L 564.140049 203.80557 
L 566.882064 203.80557 
L 567.796069 202.848608 
L 572.366093 202.848608 
L 573.280098 201.891646 
L 579.678133 201.891646 
L 580.592138 200.934684 
L 595.216216 200.934684 
L 596.130221 199.977722 
L 597.044226 199.977722 
L 597.958231 198.063797 
L 622.636364 198.063797 
L 622.636364 198.063797 
" clip-path="url(#pf9fe417144)" style="fill: none; stroke: #7f7f7f; stroke-width: 1.5; stroke-linecap: square"/>
   </g>
   <g id="line2d_43">
    <path d="M 115.363636 350.220759 
L 119.019656 350.220759 
L 119.933661 349.263797 
L 129.07371 349.263797 
L 129.987715 348.306835 
L 134.55774 348.306835 
L 135.471744 347.349873 
L 144.611794 347.349873 
L 145.525799 346.392911 
L 154.665848 346.392911 
L 155.579853 345.435949 
L 204.936118 345.435949 
L 205.850123 344.478987 
L 210.420147 344.478987 
L 211.334152 343.522025 
L 217.732187 343.522025 
L 218.646192 342.565063 
L 219.560197 342.565063 
L 220.474201 339.694177 
L 221.388206 338.737215 
L 223.216216 338.737215 
L 224.130221 337.780253 
L 233.27027 337.780253 
L 234.184275 336.823291 
L 242.410319 336.823291 
L 243.324324 335.866329 
L 253.378378 335.866329 
L 254.292383 334.909367 
L 265.260442 334.909367 
L 266.174447 333.952405 
L 270.744472 333.952405 
L 271.658477 332.995443 
L 300.906634 332.995443 
L 301.820639 332.038481 
L 303.648649 332.038481 
L 304.562654 331.081519 
L 311.874693 331.081519 
L 312.788698 330.124557 
L 338.380835 330.124557 
L 341.12285 327.253671 
L 367.628993 327.253671 
L 368.542998 326.296709 
L 369.457002 326.296709 
L 371.285012 324.382785 
L 373.113022 324.382785 
L 374.027027 323.425823 
L 420.641278 323.425823 
L 421.555283 322.468861 
L 474.567568 322.468861 
L 475.481572 321.511899 
L 513.869779 321.511899 
L 514.783784 320.554937 
L 519.353808 320.554937 
L 520.267813 319.597975 
L 533.063882 319.597975 
L 533.977887 318.641013 
L 552.257985 318.641013 
L 553.17199 317.684051 
L 622.636364 317.684051 
L 622.636364 317.684051 
" clip-path="url(#pf9fe417144)" style="fill: none; stroke: #bcbd22; stroke-width: 1.5; stroke-linecap: square"/>
   </g>
   <g id="line2d_44">
    <path d="M 115.363636 367.446076 
L 161.063882 367.446076 
L 161.977887 366.489114 
L 219.560197 366.489114 
L 220.474201 365.532152 
L 313.702703 365.532152 
L 314.616708 364.57519 
L 315.530713 365.532152 
L 426.125307 365.532152 
L 427.039312 364.57519 
L 433.437346 364.57519 
L 434.351351 363.618228 
L 457.201474 363.618228 
L 458.115479 362.661266 
L 622.636364 362.661266 
L 622.636364 362.661266 
" clip-path="url(#pf9fe417144)" style="fill: none; stroke: #17becf; stroke-width: 1.5; stroke-linecap: square"/>
   </g>
   <g id="line2d_45">
    <path d="M 115.363636 369.36 
L 116.277641 368.403038 
L 118.105651 368.403038 
L 119.019656 367.446076 
L 125.41769 367.446076 
L 126.331695 366.489114 
L 129.07371 366.489114 
L 129.987715 365.532152 
L 130.90172 365.532152 
L 132.72973 363.618228 
L 137.299754 363.618228 
L 139.127764 361.704304 
L 140.041769 361.704304 
L 140.955774 360.747342 
L 147.353808 360.747342 
L 148.267813 359.79038 
L 149.181818 357.876456 
L 151.009828 357.876456 
L 151.923833 356.919494 
L 152.837838 356.919494 
L 153.751843 355.962532 
L 154.665848 355.962532 
L 155.579853 355.00557 
L 156.493857 355.00557 
L 158.321867 353.091646 
L 163.805897 353.091646 
L 165.633907 351.177722 
L 168.375921 351.177722 
L 169.289926 350.220759 
L 170.203931 350.220759 
L 171.117936 348.306835 
L 173.859951 348.306835 
L 175.687961 344.478987 
L 181.17199 344.478987 
L 182.085995 342.565063 
L 183 341.608101 
L 185.742015 341.608101 
L 186.65602 340.651139 
L 187.570025 338.737215 
L 189.398034 338.737215 
L 190.312039 337.780253 
L 203.108108 337.780253 
L 204.022113 335.866329 
L 210.420147 329.167595 
L 219.560197 329.167595 
L 222.302211 326.296709 
L 224.130221 326.296709 
L 225.044226 324.382785 
L 226.872236 324.382785 
L 227.786241 323.425823 
L 230.528256 323.425823 
L 231.44226 322.468861 
L 232.356265 322.468861 
L 233.27027 321.511899 
L 234.184275 321.511899 
L 236.012285 319.597975 
L 247.894349 319.597975 
L 249.722359 317.684051 
L 257.034398 317.684051 
L 257.948403 316.727089 
L 260.690418 316.727089 
L 262.518428 314.813165 
L 265.260442 314.813165 
L 266.174447 313.856203 
L 268.002457 313.856203 
L 268.916462 312.899241 
L 273.486486 312.899241 
L 274.400491 311.942278 
L 275.314496 311.942278 
L 276.228501 310.028354 
L 277.142506 310.028354 
L 278.056511 309.071392 
L 282.626536 309.071392 
L 283.540541 308.11443 
L 285.36855 308.11443 
L 286.282555 307.157468 
L 287.19656 307.157468 
L 289.02457 305.243544 
L 295.422604 305.243544 
L 296.336609 304.286582 
L 297.250614 304.286582 
L 298.164619 303.32962 
L 302.734644 303.32962 
L 303.648649 301.415696 
L 304.562654 300.458734 
L 309.132678 300.458734 
L 310.046683 299.501772 
L 313.702703 299.501772 
L 314.616708 297.587848 
L 318.272727 297.587848 
L 320.100737 295.673924 
L 322.842752 295.673924 
L 323.756757 294.716962 
L 334.724816 294.716962 
L 335.638821 292.803038 
L 336.552826 291.846076 
L 343.864865 291.846076 
L 344.77887 290.889114 
L 361.230958 290.889114 
L 362.144963 289.932152 
L 363.972973 289.932152 
L 364.886978 288.97519 
L 367.628993 288.97519 
L 368.542998 288.018228 
L 380.425061 288.018228 
L 381.339066 286.104304 
L 383.167076 286.104304 
L 384.081081 285.147342 
L 384.995086 285.147342 
L 385.909091 284.19038 
L 389.565111 284.19038 
L 390.479115 283.233418 
L 396.87715 283.233418 
L 397.791155 281.319494 
L 398.70516 281.319494 
L 399.619165 280.362532 
L 404.189189 280.362532 
L 405.103194 279.40557 
L 409.673219 279.40557 
L 411.501229 277.491646 
L 413.329238 277.491646 
L 414.243243 276.534684 
L 416.071253 276.534684 
L 416.985258 275.577722 
L 417.899263 275.577722 
L 418.813268 274.620759 
L 425.211302 274.620759 
L 426.125307 273.663797 
L 447.14742 273.663797 
L 448.061425 272.706835 
L 452.63145 272.706835 
L 453.545455 271.749873 
L 463.599509 271.749873 
L 464.513514 270.792911 
L 504.72973 270.792911 
L 505.643735 269.835949 
L 511.127764 269.835949 
L 512.041769 268.878987 
L 512.955774 268.878987 
L 513.869779 267.922025 
L 525.751843 267.922025 
L 526.665848 266.965063 
L 544.031941 266.965063 
L 544.945946 266.008101 
L 548.601966 266.008101 
L 549.515971 265.051139 
L 554.085995 265.051139 
L 555 264.094177 
L 560.484029 264.094177 
L 561.398034 263.137215 
L 566.882064 263.137215 
L 567.796069 262.180253 
L 573.280098 262.180253 
L 574.194103 259.309367 
L 575.108108 258.352405 
L 581.506143 258.352405 
L 582.420147 257.395443 
L 586.990172 257.395443 
L 587.904177 256.438481 
L 592.474201 256.438481 
L 593.388206 255.481519 
L 598.872236 255.481519 
L 599.786241 254.524557 
L 614.410319 254.524557 
L 615.324324 252.610633 
L 616.238329 252.610633 
L 617.152334 251.653671 
L 618.066339 251.653671 
L 618.980344 250.696709 
L 619.894349 250.696709 
L 620.808354 249.739747 
L 622.636364 249.739747 
L 622.636364 249.739747 
" clip-path="url(#pf9fe417144)" style="fill: none; stroke: #1f77b4; stroke-width: 1.5; stroke-linecap: square"/>
   </g>
   <g id="line2d_46">
    <path d="M 115.363636 333.952405 
L 121.761671 333.952405 
L 122.675676 332.995443 
L 125.41769 332.995443 
L 126.331695 332.038481 
L 129.987715 332.038481 
L 130.90172 331.081519 
L 133.643735 331.081519 
L 134.55774 330.124557 
L 135.471744 330.124557 
L 136.385749 329.167595 
L 139.127764 329.167595 
L 140.041769 328.210633 
L 141.869779 328.210633 
L 142.783784 327.253671 
L 143.697789 327.253671 
L 145.525799 325.339747 
L 151.009828 325.339747 
L 151.923833 324.382785 
L 152.837838 324.382785 
L 153.751843 323.425823 
L 154.665848 323.425823 
L 155.579853 321.511899 
L 156.493857 318.641013 
L 157.407862 317.684051 
L 161.063882 317.684051 
L 163.805897 314.813165 
L 166.547912 314.813165 
L 168.375921 312.899241 
L 178.429975 312.899241 
L 179.34398 310.028354 
L 180.257985 310.028354 
L 182.085995 306.200506 
L 183.914005 304.286582 
L 184.82801 304.286582 
L 185.742015 302.372658 
L 193.054054 302.372658 
L 193.968059 300.458734 
L 196.710074 300.458734 
L 197.624079 299.501772 
L 204.022113 299.501772 
L 204.936118 298.54481 
L 215.904177 298.54481 
L 216.818182 297.587848 
L 217.732187 297.587848 
L 218.646192 296.630886 
L 221.388206 296.630886 
L 222.302211 295.673924 
L 233.27027 295.673924 
L 234.184275 294.716962 
L 236.012285 294.716962 
L 237.840295 290.889114 
L 239.668305 290.889114 
L 241.496314 288.97519 
L 243.324324 288.97519 
L 244.238329 288.018228 
L 246.980344 288.018228 
L 247.894349 287.061266 
L 258.862408 287.061266 
L 259.776413 286.104304 
L 273.486486 286.104304 
L 274.400491 285.147342 
L 282.626536 285.147342 
L 283.540541 284.19038 
L 285.36855 284.19038 
L 286.282555 283.233418 
L 289.02457 283.233418 
L 290.85258 281.319494 
L 291.766585 281.319494 
L 292.68059 280.362532 
L 296.336609 280.362532 
L 298.164619 278.448608 
L 302.734644 278.448608 
L 303.648649 277.491646 
L 306.390663 277.491646 
L 307.304668 276.534684 
L 311.874693 276.534684 
L 312.788698 275.577722 
L 317.358722 275.577722 
L 318.272727 274.620759 
L 334.724816 274.620759 
L 335.638821 273.663797 
L 336.552826 273.663797 
L 337.46683 272.706835 
L 346.60688 272.706835 
L 347.520885 270.792911 
L 348.434889 270.792911 
L 349.348894 269.835949 
L 358.488943 269.835949 
L 359.402948 268.878987 
L 363.058968 268.878987 
L 363.972973 267.922025 
L 364.886978 267.922025 
L 365.800983 266.965063 
L 374.027027 266.965063 
L 374.941032 266.008101 
L 393.22113 266.008101 
L 394.135135 263.137215 
L 400.53317 263.137215 
L 401.447174 262.180253 
L 403.275184 262.180253 
L 404.189189 261.223291 
L 415.157248 261.223291 
L 416.071253 260.266329 
L 428.867322 260.266329 
L 429.781327 259.309367 
L 432.523342 259.309367 
L 433.437346 258.352405 
L 440.749386 258.352405 
L 441.663391 256.438481 
L 456.287469 256.438481 
L 457.201474 255.481519 
L 461.771499 255.481519 
L 462.685504 254.524557 
L 476.395577 254.524557 
L 477.309582 253.567595 
L 479.137592 253.567595 
L 480.051597 252.610633 
L 489.191646 252.610633 
L 490.105651 251.653671 
L 500.159705 251.653671 
L 501.07371 250.696709 
L 512.955774 250.696709 
L 513.869779 249.739747 
L 524.837838 249.739747 
L 525.751843 248.782785 
L 532.149877 248.782785 
L 533.063882 247.825823 
L 542.203931 247.825823 
L 544.945946 244.954937 
L 546.773956 244.954937 
L 547.687961 243.997975 
L 548.601966 243.997975 
L 550.429975 242.084051 
L 554.085995 242.084051 
L 555 241.127089 
L 556.82801 241.127089 
L 557.742015 239.213165 
L 558.65602 238.256203 
L 569.624079 238.256203 
L 570.538084 237.299241 
L 578.764128 237.299241 
L 579.678133 236.342278 
L 588.818182 236.342278 
L 589.732187 235.385316 
L 594.302211 235.385316 
L 595.216216 233.471392 
L 617.152334 233.471392 
L 618.066339 232.51443 
L 622.636364 232.51443 
L 622.636364 232.51443 
" clip-path="url(#pf9fe417144)" style="fill: none; stroke: #ff7f0e; stroke-width: 1.5; stroke-linecap: square"/>
   </g>
   <g id="patch_3">
    <path d="M 90 384.48 
L 90 51.84 
" style="fill: none; stroke: #000000; stroke-width: 0.8; stroke-linejoin: miter; stroke-linecap: square"/>
   </g>
   <g id="patch_4">
    <path d="M 648 384.48 
L 648 51.84 
" style="fill: none; stroke: #000000; stroke-width: 0.8; stroke-linejoin: miter; stroke-linecap: square"/>
   </g>
   <g id="patch_5">
    <path d="M 90 384.48 
L 648 384.48 
" style="fill: none; stroke: #000000; stroke-width: 0.8; stroke-linejoin: miter; stroke-linecap: square"/>
   </g>
   <g id="patch_6">
    <path d="M 90 51.84 
L 648 51.84 
" style="fill: none; stroke: #000000; stroke-width: 0.8; stroke-linejoin: miter; stroke-linecap: square"/>
   </g>
   <g id="text_20">
    <!-- Time Series of Votes for Each Keyword -->
    <g transform="translate(253.716563 45.84) scale(0.12 -0.12)">
     <defs>
      <path id="DejaVuSans-53" d="M 3425 4513 
L 3425 3897 
Q 3066 4069 2747 4153 
Q 2428 4238 2131 4238 
Q 1616 4238 1336 4038 
Q 1056 3838 1056 3469 
Q 1056 3159 1242 3001 
Q 1428 2844 1947 2747 
L 2328 2669 
Q 3034 2534 3370 2195 
Q 3706 1856 3706 1288 
Q 3706 609 3251 259 
Q 2797 -91 1919 -91 
Q 1588 -91 1214 -16 
Q 841 59 441 206 
L 441 856 
Q 825 641 1194 531 
Q 1563 422 1919 422 
Q 2459 422 2753 634 
Q 3047 847 3047 1241 
Q 3047 1584 2836 1778 
Q 2625 1972 2144 2069 
L 1759 2144 
Q 1053 2284 737 2584 
Q 422 2884 422 3419 
Q 422 4038 858 4394 
Q 1294 4750 2059 4750 
Q 2388 4750 2728 4690 
Q 3069 4631 3425 4513 
z
" transform="scale(0.015625)"/>
      <path id="DejaVuSans-72" d="M 2631 2963 
Q 2534 3019 2420 3045 
Q 2306 3072 2169 3072 
Q 1681 3072 1420 2755 
Q 1159 2438 1159 1844 
L 1159 0 
L 581 0 
L 581 3500 
L 1159 3500 
L 1159 2956 
Q 1341 3275 1631 3429 
Q 1922 3584 2338 3584 
Q 2397 3584 2469 3576 
Q 2541 3569 2628 3553 
L 2631 2963 
z
" transform="scale(0.015625)"/>
      <path id="DejaVuSans-66" d="M 2375 4863 
L 2375 4384 
L 1825 4384 
Q 1516 4384 1395 4259 
Q 1275 4134 1275 3809 
L 1275 3500 
L 2222 3500 
L 2222 3053 
L 1275 3053 
L 1275 0 
L 697 0 
L 697 3053 
L 147 3053 
L 147 3500 
L 697 3500 
L 697 3744 
Q 697 4328 969 4595 
Q 1241 4863 1831 4863 
L 2375 4863 
z
" transform="scale(0.015625)"/>
      <path id="DejaVuSans-45" d="M 628 4666 
L 3578 4666 
L 3578 4134 
L 1259 4134 
L 1259 2753 
L 3481 2753 
L 3481 2222 
L 1259 2222 
L 1259 531 
L 3634 531 
L 3634 0 
L 628 0 
L 628 4666 
z
" transform="scale(0.015625)"/>
      <path id="DejaVuSans-63" d="M 3122 3366 
L 3122 2828 
Q 2878 2963 2633 3030 
Q 2388 3097 2138 3097 
Q 1578 3097 1268 2742 
Q 959 2388 959 1747 
Q 959 1106 1268 751 
Q 1578 397 2138 397 
Q 2388 397 2633 464 
Q 2878 531 3122 666 
L 3122 134 
Q 2881 22 2623 -34 
Q 2366 -91 2075 -91 
Q 1284 -91 818 406 
Q 353 903 353 1747 
Q 353 2603 823 3093 
Q 1294 3584 2113 3584 
Q 2378 3584 2631 3529 
Q 2884 3475 3122 3366 
z
" transform="scale(0.015625)"/>
      <path id="DejaVuSans-68" d="M 3513 2113 
L 3513 0 
L 2938 0 
L 2938 2094 
Q 2938 2591 2744 2837 
Q 2550 3084 2163 3084 
Q 1697 3084 1428 2787 
Q 1159 2491 1159 1978 
L 1159 0 
L 581 0 
L 581 4863 
L 1159 4863 
L 1159 2956 
Q 1366 3272 1645 3428 
Q 1925 3584 2291 3584 
Q 2894 3584 3203 3211 
Q 3513 2838 3513 2113 
z
" transform="scale(0.015625)"/>
      <path id="DejaVuSans-4b" d="M 628 4666 
L 1259 4666 
L 1259 2694 
L 3353 4666 
L 4166 4666 
L 1850 2491 
L 4331 0 
L 3500 0 
L 1259 2247 
L 1259 0 
L 628 0 
L 628 4666 
z
" transform="scale(0.015625)"/>
      <path id="DejaVuSans-79" d="M 2059 -325 
Q 1816 -950 1584 -1140 
Q 1353 -1331 966 -1331 
L 506 -1331 
L 506 -850 
L 844 -850 
Q 1081 -850 1212 -737 
Q 1344 -625 1503 -206 
L 1606 56 
L 191 3500 
L 800 3500 
L 1894 763 
L 2988 3500 
L 3597 3500 
L 2059 -325 
z
" transform="scale(0.015625)"/>
      <path id="DejaVuSans-77" d="M 269 3500 
L 844 3500 
L 1563 769 
L 2278 3500 
L 2956 3500 
L 3675 769 
L 4391 3500 
L 4966 3500 
L 4050 0 
L 3372 0 
L 2619 2869 
L 1863 0 
L 1184 0 
L 269 3500 
z
" transform="scale(0.015625)"/>
     </defs>
     <use xlink:href="#DejaVuSans-54"/>
     <use xlink:href="#DejaVuSans-69" transform="translate(57.958984 0)"/>
     <use xlink:href="#DejaVuSans-6d" transform="translate(85.742188 0)"/>
     <use xlink:href="#DejaVuSans-65" transform="translate(183.154297 0)"/>
     <use xlink:href="#DejaVuSans-20" transform="translate(244.677734 0)"/>
     <use xlink:href="#DejaVuSans-53" transform="translate(276.464844 0)"/>
     <use xlink:href="#DejaVuSans-65" transform="translate(339.941406 0)"/>
     <use xlink:href="#DejaVuSans-72" transform="translate(401.464844 0)"/>
     <use xlink:href="#DejaVuSans-69" transform="translate(442.578125 0)"/>
     <use xlink:href="#DejaVuSans-65" transform="translate(470.361328 0)"/>
     <use xlink:href="#DejaVuSans-73" transform="translate(531.884766 0)"/>
     <use xlink:href="#DejaVuSans-20" transform="translate(583.984375 0)"/>
     <use xlink:href="#DejaVuSans-6f" transform="translate(615.771484 0)"/>
     <use xlink:href="#DejaVuSans-66" transform="translate(676.953125 0)"/>
     <use xlink:href="#DejaVuSans-20" transform="translate(712.158203 0)"/>
     <use xlink:href="#DejaVuSans-56" transform="translate(743.945312 0)"/>
     <use xlink:href="#DejaVuSans-6f" transform="translate(804.603516 0)"/>
     <use xlink:href="#DejaVuSans-74" transform="translate(865.785156 0)"/>
     <use xlink:href="#DejaVuSans-65" transform="translate(904.994141 0)"/>
     <use xlink:href="#DejaVuSans-73" transform="translate(966.517578 0)"/>
     <use xlink:href="#DejaVuSans-20" transform="translate(1018.617188 0)"/>
     <use xlink:href="#DejaVuSans-66" transform="translate(1050.404297 0)"/>
     <use xlink:href="#DejaVuSans-6f" transform="translate(1085.609375 0)"/>
     <use xlink:href="#DejaVuSans-72" transform="translate(1146.791016 0)"/>
     <use xlink:href="#DejaVuSans-20" transform="translate(1187.904297 0)"/>
     <use xlink:href="#DejaVuSans-45" transform="translate(1219.691406 0)"/>
     <use xlink:href="#DejaVuSans-61" transform="translate(1282.875 0)"/>
     <use xlink:href="#DejaVuSans-63" transform="translate(1344.154297 0)"/>
     <use xlink:href="#DejaVuSans-68" transform="translate(1399.134766 0)"/>
     <use xlink:href="#DejaVuSans-20" transform="translate(1462.513672 0)"/>
     <use xlink:href="#DejaVuSans-4b" transform="translate(1494.300781 0)"/>
     <use xlink:href="#DejaVuSans-65" transform="translate(1554.876953 0)"/>
     <use xlink:href="#DejaVuSans-79" transform="translate(1616.400391 0)"/>
     <use xlink:href="#DejaVuSans-77" transform="translate(1675.580078 0)"/>
     <use xlink:href="#DejaVuSans-6f" transform="translate(1757.367188 0)"/>
     <use xlink:href="#DejaVuSans-72" transform="translate(1818.548828 0)"/>
     <use xlink:href="#DejaVuSans-64" transform="translate(1857.912109 0)"/>
    </g>
   </g>
   <g id="legend_1">
    <g id="patch_7">
     <path d="M 97 235.9775 
L 149.245313 235.9775 
Q 151.245313 235.9775 151.245313 233.9775 
L 151.245313 58.84 
Q 151.245313 56.84 149.245313 56.84 
L 97 56.84 
Q 95 56.84 95 58.84 
L 95 233.9775 
Q 95 235.9775 97 235.9775 
z
" style="fill: #ffffff; opacity: 0.8; stroke: #cccccc; stroke-linejoin: miter"/>
    </g>
    <g id="line2d_47">
     <path d="M 99 64.938437 
L 109 64.938437 
L 119 64.938437 
" style="fill: none; stroke: #1f77b4; stroke-width: 1.5; stroke-linecap: square"/>
    </g>
    <g id="text_21">
     <!-- H01 -->
     <g transform="translate(127 68.438437) scale(0.1 -0.1)">
      <defs>
       <path id="DejaVuSans-48" d="M 628 4666 
L 1259 4666 
L 1259 2753 
L 3553 2753 
L 3553 4666 
L 4184 4666 
L 4184 0 
L 3553 0 
L 3553 2222 
L 1259 2222 
L 1259 0 
L 628 0 
L 628 4666 
z
" transform="scale(0.015625)"/>
      </defs>
      <use xlink:href="#DejaVuSans-48"/>
      <use xlink:href="#DejaVuSans-30" transform="translate(75.195312 0)"/>
      <use xlink:href="#DejaVuSans-31" transform="translate(138.818359 0)"/>
     </g>
    </g>
    <g id="line2d_48">
     <path d="M 99 79.616562 
L 109 79.616562 
L 119 79.616562 
" style="fill: none; stroke: #ff7f0e; stroke-width: 1.5; stroke-linecap: square"/>
    </g>
    <g id="text_22">
     <!-- H02 -->
     <g transform="translate(127 83.116562) scale(0.1 -0.1)">
      <use xlink:href="#DejaVuSans-48"/>
      <use xlink:href="#DejaVuSans-30" transform="translate(75.195312 0)"/>
      <use xlink:href="#DejaVuSans-32" transform="translate(138.818359 0)"/>
     </g>
    </g>
    <g id="line2d_49">
     <path d="M 99 94.294688 
L 109 94.294688 
L 119 94.294688 
" style="fill: none; stroke: #2ca02c; stroke-width: 1.5; stroke-linecap: square"/>
    </g>
    <g id="text_23">
     <!-- H03 -->
     <g transform="translate(127 97.794688) scale(0.1 -0.1)">
      <use xlink:href="#DejaVuSans-48"/>
      <use xlink:href="#DejaVuSans-30" transform="translate(75.195312 0)"/>
      <use xlink:href="#DejaVuSans-33" transform="translate(138.818359 0)"/>
     </g>
    </g>
    <g id="line2d_50">
     <path d="M 99 108.972812 
L 109 108.972812 
L 119 108.972812 
" style="fill: none; stroke: #d62728; stroke-width: 1.5; stroke-linecap: square"/>
    </g>
    <g id="text_24">
     <!-- H04 -->
     <g transform="translate(127 112.472812) scale(0.1 -0.1)">
      <use xlink:href="#DejaVuSans-48"/>
      <use xlink:href="#DejaVuSans-30" transform="translate(75.195312 0)"/>
      <use xlink:href="#DejaVuSans-34" transform="translate(138.818359 0)"/>
     </g>
    </g>
    <g id="line2d_51">
     <path d="M 99 123.650937 
L 109 123.650937 
L 119 123.650937 
" style="fill: none; stroke: #9467bd; stroke-width: 1.5; stroke-linecap: square"/>
    </g>
    <g id="text_25">
     <!-- H05 -->
     <g transform="translate(127 127.150937) scale(0.1 -0.1)">
      <use xlink:href="#DejaVuSans-48"/>
      <use xlink:href="#DejaVuSans-30" transform="translate(75.195312 0)"/>
      <use xlink:href="#DejaVuSans-35" transform="translate(138.818359 0)"/>
     </g>
    </g>
    <g id="line2d_52">
     <path d="M 99 138.329062 
L 109 138.329062 
L 119 138.329062 
" style="fill: none; stroke: #8c564b; stroke-width: 1.5; stroke-linecap: square"/>
    </g>
    <g id="text_26">
     <!-- H06 -->
     <g transform="translate(127 141.829062) scale(0.1 -0.1)">
      <use xlink:href="#DejaVuSans-48"/>
      <use xlink:href="#DejaVuSans-30" transform="translate(75.195312 0)"/>
      <use xlink:href="#DejaVuSans-36" transform="translate(138.818359 0)"/>
     </g>
    </g>
    <g id="line2d_53">
     <path d="M 99 153.007187 
L 109 153.007187 
L 119 153.007187 
" style="fill: none; stroke: #e377c2; stroke-width: 1.5; stroke-linecap: square"/>
    </g>
    <g id="text_27">
     <!-- H07 -->
     <g transform="translate(127 156.507187) scale(0.1 -0.1)">
      <use xlink:href="#DejaVuSans-48"/>
      <use xlink:href="#DejaVuSans-30" transform="translate(75.195312 0)"/>
      <use xlink:href="#DejaVuSans-37" transform="translate(138.818359 0)"/>
     </g>
    </g>
    <g id="line2d_54">
     <path d="M 99 167.685312 
L 109 167.685312 
L 119 167.685312 
" style="fill: none; stroke: #7f7f7f; stroke-width: 1.5; stroke-linecap: square"/>
    </g>
    <g id="text_28">
     <!-- H08 -->
     <g transform="translate(127 171.185312) scale(0.1 -0.1)">
      <use xlink:href="#DejaVuSans-48"/>
      <use xlink:href="#DejaVuSans-30" transform="translate(75.195312 0)"/>
      <use xlink:href="#DejaVuSans-38" transform="translate(138.818359 0)"/>
     </g>
    </g>
    <g id="line2d_55">
     <path d="M 99 182.363437 
L 109 182.363437 
L 119 182.363437 
" style="fill: none; stroke: #bcbd22; stroke-width: 1.5; stroke-linecap: square"/>
    </g>
    <g id="text_29">
     <!-- H09 -->
     <g transform="translate(127 185.863437) scale(0.1 -0.1)">
      <use xlink:href="#DejaVuSans-48"/>
      <use xlink:href="#DejaVuSans-30" transform="translate(75.195312 0)"/>
      <use xlink:href="#DejaVuSans-39" transform="translate(138.818359 0)"/>
     </g>
    </g>
    <g id="line2d_56">
     <path d="M 99 197.041562 
L 109 197.041562 
L 119 197.041562 
" style="fill: none; stroke: #17becf; stroke-width: 1.5; stroke-linecap: square"/>
    </g>
    <g id="text_30">
     <!-- H10 -->
     <g transform="translate(127 200.541562) scale(0.1 -0.1)">
      <use xlink:href="#DejaVuSans-48"/>
      <use xlink:href="#DejaVuSans-31" transform="translate(75.195312 0)"/>
      <use xlink:href="#DejaVuSans-30" transform="translate(138.818359 0)"/>
     </g>
    </g>
    <g id="line2d_57">
     <path d="M 99 211.719687 
L 109 211.719687 
L 119 211.719687 
" style="fill: none; stroke: #1f77b4; stroke-width: 1.5; stroke-linecap: square"/>
    </g>
    <g id="text_31">
     <!-- H11 -->
     <g transform="translate(127 215.219687) scale(0.1 -0.1)">
      <use xlink:href="#DejaVuSans-48"/>
      <use xlink:href="#DejaVuSans-31" transform="translate(75.195312 0)"/>
      <use xlink:href="#DejaVuSans-31" transform="translate(138.818359 0)"/>
     </g>
    </g>
    <g id="line2d_58">
     <path d="M 99 226.397812 
L 109 226.397812 
L 119 226.397812 
" style="fill: none; stroke: #ff7f0e; stroke-width: 1.5; stroke-linecap: square"/>
    </g>
    <g id="text_32">
     <!-- H12 -->
     <g transform="translate(127 229.897812) scale(0.1 -0.1)">
      <use xlink:href="#DejaVuSans-48"/>
      <use xlink:href="#DejaVuSans-31" transform="translate(75.195312 0)"/>
      <use xlink:href="#DejaVuSans-32" transform="translate(138.818359 0)"/>
     </g>
    </g>
   </g>
  </g>
 </g>
 <defs>
  <clipPath id="pf9fe417144">
   <rect x="90" y="51.84" width="558" height="332.64"/>
  </clipPath>
 </defs>
</svg>
