<?xml version="1.0" encoding="utf-8" standalone="no"?>
<!DOCTYPE svg PUBLIC "-//W3C//DTD SVG 1.1//EN"
  "http://www.w3.org/Graphics/SVG/1.1/DTD/svg11.dtd">
<svg xmlns:xlink="http://www.w3.org/1999/xlink" width="720pt" height="432pt" viewBox="0 0 720 432" xmlns="http://www.w3.org/2000/svg" version="1.1">
 <metadata>
  <rdf:RDF xmlns:dc="http://purl.org/dc/elements/1.1/" xmlns:cc="http://creativecommons.org/ns#" xmlns:rdf="http://www.w3.org/1999/02/22-rdf-syntax-ns#">
   <cc:Work>
    <dc:type rdf:resource="http://purl.org/dc/dcmitype/StillImage"/>
    <dc:date>2025-01-14T18:57:37.097684</dc:date>
    <dc:format>image/svg+xml</dc:format>
    <dc:creator>
     <cc:Agent>
      <dc:title>Matplotlib v3.10.0, https://matplotlib.org/</dc:title>
     </cc:Agent>
    </dc:creator>
   </cc:Work>
  </rdf:RDF>
 </metadata>
 <defs>
  <style type="text/css">*{stroke-linejoin: round; stroke-linecap: butt}</style>
 </defs>
 <g id="figure_1">
  <g id="patch_1">
   <path d="M 0 432 
L 720 432 
L 720 0 
L 0 0 
z
" style="fill: #ffffff"/>
  </g>
  <g id="axes_1">
   <g id="patch_2">
    <path d="M 90 384.48 
L 648 384.48 
L 648 51.84 
L 90 51.84 
z
" style="fill: #ffffff"/>
   </g>
   <g id="matplotlib.axis_1">
    <g id="xtick_1">
     <g id="line2d_1">
      <path d="M 157.636364 384.48 
L 157.636364 51.84 
" clip-path="url(#p6d68a5a5ac)" style="fill: none; stroke: #b0b0b0; stroke-width: 0.8; stroke-linecap: square"/>
     </g>
     <g id="line2d_2">
      <defs>
       <path id="m8c736afb9c" d="M 0 0 
L 0 3.5 
" style="stroke: #000000; stroke-width: 0.8"/>
      </defs>
      <g>
       <use xlink:href="#m8c736afb9c" x="157.636364" y="384.48" style="stroke: #000000; stroke-width: 0.8"/>
      </g>
     </g>
     <g id="text_1">
      <!-- 01-14 14 -->
      <g transform="translate(135.155895 399.078438) scale(0.1 -0.1)">
       <defs>
        <path id="DejaVuSans-30" d="M 2034 4250 
Q 1547 4250 1301 3770 
Q 1056 3291 1056 2328 
Q 1056 1369 1301 889 
Q 1547 409 2034 409 
Q 2525 409 2770 889 
Q 3016 1369 3016 2328 
Q 3016 3291 2770 3770 
Q 2525 4250 2034 4250 
z
M 2034 4750 
Q 2819 4750 3233 4129 
Q 3647 3509 3647 2328 
Q 3647 1150 3233 529 
Q 2819 -91 2034 -91 
Q 1250 -91 836 529 
Q 422 1150 422 2328 
Q 422 3509 836 4129 
Q 1250 4750 2034 4750 
z
" transform="scale(0.015625)"/>
        <path id="DejaVuSans-31" d="M 794 531 
L 1825 531 
L 1825 4091 
L 703 3866 
L 703 4441 
L 1819 4666 
L 2450 4666 
L 2450 531 
L 3481 531 
L 3481 0 
L 794 0 
L 794 531 
z
" transform="scale(0.015625)"/>
        <path id="DejaVuSans-2d" d="M 313 2009 
L 1997 2009 
L 1997 1497 
L 313 1497 
L 313 2009 
z
" transform="scale(0.015625)"/>
        <path id="DejaVuSans-34" d="M 2419 4116 
L 825 1625 
L 2419 1625 
L 2419 4116 
z
M 2253 4666 
L 3047 4666 
L 3047 1625 
L 3713 1625 
L 3713 1100 
L 3047 1100 
L 3047 0 
L 2419 0 
L 2419 1100 
L 313 1100 
L 313 1709 
L 2253 4666 
z
" transform="scale(0.015625)"/>
        <path id="DejaVuSans-20" transform="scale(0.015625)"/>
       </defs>
       <use xlink:href="#DejaVuSans-30"/>
       <use xlink:href="#DejaVuSans-31" transform="translate(63.623047 0)"/>
       <use xlink:href="#DejaVuSans-2d" transform="translate(127.246094 0)"/>
       <use xlink:href="#DejaVuSans-31" transform="translate(163.330078 0)"/>
       <use xlink:href="#DejaVuSans-34" transform="translate(226.953125 0)"/>
       <use xlink:href="#DejaVuSans-20" transform="translate(290.576172 0)"/>
       <use xlink:href="#DejaVuSans-31" transform="translate(322.363281 0)"/>
       <use xlink:href="#DejaVuSans-34" transform="translate(385.986328 0)"/>
      </g>
     </g>
    </g>
    <g id="xtick_2">
     <g id="line2d_3">
      <path d="M 251.575758 384.48 
L 251.575758 51.84 
" clip-path="url(#p6d68a5a5ac)" style="fill: none; stroke: #b0b0b0; stroke-width: 0.8; stroke-linecap: square"/>
     </g>
     <g id="line2d_4">
      <g>
       <use xlink:href="#m8c736afb9c" x="251.575758" y="384.48" style="stroke: #000000; stroke-width: 0.8"/>
      </g>
     </g>
     <g id="text_2">
      <!-- 01-14 15 -->
      <g transform="translate(229.095289 399.078438) scale(0.1 -0.1)">
       <defs>
        <path id="DejaVuSans-35" d="M 691 4666 
L 3169 4666 
L 3169 4134 
L 1269 4134 
L 1269 2991 
Q 1406 3038 1543 3061 
Q 1681 3084 1819 3084 
Q 2600 3084 3056 2656 
Q 3513 2228 3513 1497 
Q 3513 744 3044 326 
Q 2575 -91 1722 -91 
Q 1428 -91 1123 -41 
Q 819 9 494 109 
L 494 744 
Q 775 591 1075 516 
Q 1375 441 1709 441 
Q 2250 441 2565 725 
Q 2881 1009 2881 1497 
Q 2881 1984 2565 2268 
Q 2250 2553 1709 2553 
Q 1456 2553 1204 2497 
Q 953 2441 691 2322 
L 691 4666 
z
" transform="scale(0.015625)"/>
       </defs>
       <use xlink:href="#DejaVuSans-30"/>
       <use xlink:href="#DejaVuSans-31" transform="translate(63.623047 0)"/>
       <use xlink:href="#DejaVuSans-2d" transform="translate(127.246094 0)"/>
       <use xlink:href="#DejaVuSans-31" transform="translate(163.330078 0)"/>
       <use xlink:href="#DejaVuSans-34" transform="translate(226.953125 0)"/>
       <use xlink:href="#DejaVuSans-20" transform="translate(290.576172 0)"/>
       <use xlink:href="#DejaVuSans-31" transform="translate(322.363281 0)"/>
       <use xlink:href="#DejaVuSans-35" transform="translate(385.986328 0)"/>
      </g>
     </g>
    </g>
    <g id="xtick_3">
     <g id="line2d_5">
      <path d="M 345.515152 384.48 
L 345.515152 51.84 
" clip-path="url(#p6d68a5a5ac)" style="fill: none; stroke: #b0b0b0; stroke-width: 0.8; stroke-linecap: square"/>
     </g>
     <g id="line2d_6">
      <g>
       <use xlink:href="#m8c736afb9c" x="345.515152" y="384.48" style="stroke: #000000; stroke-width: 0.8"/>
      </g>
     </g>
     <g id="text_3">
      <!-- 01-14 16 -->
      <g transform="translate(323.034683 399.078438) scale(0.1 -0.1)">
       <defs>
        <path id="DejaVuSans-36" d="M 2113 2584 
Q 1688 2584 1439 2293 
Q 1191 2003 1191 1497 
Q 1191 994 1439 701 
Q 1688 409 2113 409 
Q 2538 409 2786 701 
Q 3034 994 3034 1497 
Q 3034 2003 2786 2293 
Q 2538 2584 2113 2584 
z
M 3366 4563 
L 3366 3988 
Q 3128 4100 2886 4159 
Q 2644 4219 2406 4219 
Q 1781 4219 1451 3797 
Q 1122 3375 1075 2522 
Q 1259 2794 1537 2939 
Q 1816 3084 2150 3084 
Q 2853 3084 3261 2657 
Q 3669 2231 3669 1497 
Q 3669 778 3244 343 
Q 2819 -91 2113 -91 
Q 1303 -91 875 529 
Q 447 1150 447 2328 
Q 447 3434 972 4092 
Q 1497 4750 2381 4750 
Q 2619 4750 2861 4703 
Q 3103 4656 3366 4563 
z
" transform="scale(0.015625)"/>
       </defs>
       <use xlink:href="#DejaVuSans-30"/>
       <use xlink:href="#DejaVuSans-31" transform="translate(63.623047 0)"/>
       <use xlink:href="#DejaVuSans-2d" transform="translate(127.246094 0)"/>
       <use xlink:href="#DejaVuSans-31" transform="translate(163.330078 0)"/>
       <use xlink:href="#DejaVuSans-34" transform="translate(226.953125 0)"/>
       <use xlink:href="#DejaVuSans-20" transform="translate(290.576172 0)"/>
       <use xlink:href="#DejaVuSans-31" transform="translate(322.363281 0)"/>
       <use xlink:href="#DejaVuSans-36" transform="translate(385.986328 0)"/>
      </g>
     </g>
    </g>
    <g id="xtick_4">
     <g id="line2d_7">
      <path d="M 439.454545 384.48 
L 439.454545 51.84 
" clip-path="url(#p6d68a5a5ac)" style="fill: none; stroke: #b0b0b0; stroke-width: 0.8; stroke-linecap: square"/>
     </g>
     <g id="line2d_8">
      <g>
       <use xlink:href="#m8c736afb9c" x="439.454545" y="384.48" style="stroke: #000000; stroke-width: 0.8"/>
      </g>
     </g>
     <g id="text_4">
      <!-- 01-14 17 -->
      <g transform="translate(416.974077 399.078438) scale(0.1 -0.1)">
       <defs>
        <path id="DejaVuSans-37" d="M 525 4666 
L 3525 4666 
L 3525 4397 
L 1831 0 
L 1172 0 
L 2766 4134 
L 525 4134 
L 525 4666 
z
" transform="scale(0.015625)"/>
       </defs>
       <use xlink:href="#DejaVuSans-30"/>
       <use xlink:href="#DejaVuSans-31" transform="translate(63.623047 0)"/>
       <use xlink:href="#DejaVuSans-2d" transform="translate(127.246094 0)"/>
       <use xlink:href="#DejaVuSans-31" transform="translate(163.330078 0)"/>
       <use xlink:href="#DejaVuSans-34" transform="translate(226.953125 0)"/>
       <use xlink:href="#DejaVuSans-20" transform="translate(290.576172 0)"/>
       <use xlink:href="#DejaVuSans-31" transform="translate(322.363281 0)"/>
       <use xlink:href="#DejaVuSans-37" transform="translate(385.986328 0)"/>
      </g>
     </g>
    </g>
    <g id="xtick_5">
     <g id="line2d_9">
      <path d="M 533.393939 384.48 
L 533.393939 51.84 
" clip-path="url(#p6d68a5a5ac)" style="fill: none; stroke: #b0b0b0; stroke-width: 0.8; stroke-linecap: square"/>
     </g>
     <g id="line2d_10">
      <g>
       <use xlink:href="#m8c736afb9c" x="533.393939" y="384.48" style="stroke: #000000; stroke-width: 0.8"/>
      </g>
     </g>
     <g id="text_5">
      <!-- 01-14 18 -->
      <g transform="translate(510.913471 399.078438) scale(0.1 -0.1)">
       <defs>
        <path id="DejaVuSans-38" d="M 2034 2216 
Q 1584 2216 1326 1975 
Q 1069 1734 1069 1313 
Q 1069 891 1326 650 
Q 1584 409 2034 409 
Q 2484 409 2743 651 
Q 3003 894 3003 1313 
Q 3003 1734 2745 1975 
Q 2488 2216 2034 2216 
z
M 1403 2484 
Q 997 2584 770 2862 
Q 544 3141 544 3541 
Q 544 4100 942 4425 
Q 1341 4750 2034 4750 
Q 2731 4750 3128 4425 
Q 3525 4100 3525 3541 
Q 3525 3141 3298 2862 
Q 3072 2584 2669 2484 
Q 3125 2378 3379 2068 
Q 3634 1759 3634 1313 
Q 3634 634 3220 271 
Q 2806 -91 2034 -91 
Q 1263 -91 848 271 
Q 434 634 434 1313 
Q 434 1759 690 2068 
Q 947 2378 1403 2484 
z
M 1172 3481 
Q 1172 3119 1398 2916 
Q 1625 2713 2034 2713 
Q 2441 2713 2670 2916 
Q 2900 3119 2900 3481 
Q 2900 3844 2670 4047 
Q 2441 4250 2034 4250 
Q 1625 4250 1398 4047 
Q 1172 3844 1172 3481 
z
" transform="scale(0.015625)"/>
       </defs>
       <use xlink:href="#DejaVuSans-30"/>
       <use xlink:href="#DejaVuSans-31" transform="translate(63.623047 0)"/>
       <use xlink:href="#DejaVuSans-2d" transform="translate(127.246094 0)"/>
       <use xlink:href="#DejaVuSans-31" transform="translate(163.330078 0)"/>
       <use xlink:href="#DejaVuSans-34" transform="translate(226.953125 0)"/>
       <use xlink:href="#DejaVuSans-20" transform="translate(290.576172 0)"/>
       <use xlink:href="#DejaVuSans-31" transform="translate(322.363281 0)"/>
       <use xlink:href="#DejaVuSans-38" transform="translate(385.986328 0)"/>
      </g>
     </g>
    </g>
    <g id="xtick_6">
     <g id="line2d_11">
      <path d="M 627.333333 384.48 
L 627.333333 51.84 
" clip-path="url(#p6d68a5a5ac)" style="fill: none; stroke: #b0b0b0; stroke-width: 0.8; stroke-linecap: square"/>
     </g>
     <g id="line2d_12">
      <g>
       <use xlink:href="#m8c736afb9c" x="627.333333" y="384.48" style="stroke: #000000; stroke-width: 0.8"/>
      </g>
     </g>
     <g id="text_6">
      <!-- 01-14 19 -->
      <g transform="translate(604.852865 399.078438) scale(0.1 -0.1)">
       <defs>
        <path id="DejaVuSans-39" d="M 703 97 
L 703 672 
Q 941 559 1184 500 
Q 1428 441 1663 441 
Q 2288 441 2617 861 
Q 2947 1281 2994 2138 
Q 2813 1869 2534 1725 
Q 2256 1581 1919 1581 
Q 1219 1581 811 2004 
Q 403 2428 403 3163 
Q 403 3881 828 4315 
Q 1253 4750 1959 4750 
Q 2769 4750 3195 4129 
Q 3622 3509 3622 2328 
Q 3622 1225 3098 567 
Q 2575 -91 1691 -91 
Q 1453 -91 1209 -44 
Q 966 3 703 97 
z
M 1959 2075 
Q 2384 2075 2632 2365 
Q 2881 2656 2881 3163 
Q 2881 3666 2632 3958 
Q 2384 4250 1959 4250 
Q 1534 4250 1286 3958 
Q 1038 3666 1038 3163 
Q 1038 2656 1286 2365 
Q 1534 2075 1959 2075 
z
" transform="scale(0.015625)"/>
       </defs>
       <use xlink:href="#DejaVuSans-30"/>
       <use xlink:href="#DejaVuSans-31" transform="translate(63.623047 0)"/>
       <use xlink:href="#DejaVuSans-2d" transform="translate(127.246094 0)"/>
       <use xlink:href="#DejaVuSans-31" transform="translate(163.330078 0)"/>
       <use xlink:href="#DejaVuSans-34" transform="translate(226.953125 0)"/>
       <use xlink:href="#DejaVuSans-20" transform="translate(290.576172 0)"/>
       <use xlink:href="#DejaVuSans-31" transform="translate(322.363281 0)"/>
       <use xlink:href="#DejaVuSans-39" transform="translate(385.986328 0)"/>
      </g>
     </g>
    </g>
    <g id="text_7">
     <!-- Date and Time -->
     <g transform="translate(332.230469 412.756563) scale(0.1 -0.1)">
      <defs>
       <path id="DejaVuSans-44" d="M 1259 4147 
L 1259 519 
L 2022 519 
Q 2988 519 3436 956 
Q 3884 1394 3884 2338 
Q 3884 3275 3436 3711 
Q 2988 4147 2022 4147 
L 1259 4147 
z
M 628 4666 
L 1925 4666 
Q 3281 4666 3915 4102 
Q 4550 3538 4550 2338 
Q 4550 1131 3912 565 
Q 3275 0 1925 0 
L 628 0 
L 628 4666 
z
" transform="scale(0.015625)"/>
       <path id="DejaVuSans-61" d="M 2194 1759 
Q 1497 1759 1228 1600 
Q 959 1441 959 1056 
Q 959 750 1161 570 
Q 1363 391 1709 391 
Q 2188 391 2477 730 
Q 2766 1069 2766 1631 
L 2766 1759 
L 2194 1759 
z
M 3341 1997 
L 3341 0 
L 2766 0 
L 2766 531 
Q 2569 213 2275 61 
Q 1981 -91 1556 -91 
Q 1019 -91 701 211 
Q 384 513 384 1019 
Q 384 1609 779 1909 
Q 1175 2209 1959 2209 
L 2766 2209 
L 2766 2266 
Q 2766 2663 2505 2880 
Q 2244 3097 1772 3097 
Q 1472 3097 1187 3025 
Q 903 2953 641 2809 
L 641 3341 
Q 956 3463 1253 3523 
Q 1550 3584 1831 3584 
Q 2591 3584 2966 3190 
Q 3341 2797 3341 1997 
z
" transform="scale(0.015625)"/>
       <path id="DejaVuSans-74" d="M 1172 4494 
L 1172 3500 
L 2356 3500 
L 2356 3053 
L 1172 3053 
L 1172 1153 
Q 1172 725 1289 603 
Q 1406 481 1766 481 
L 2356 481 
L 2356 0 
L 1766 0 
Q 1100 0 847 248 
Q 594 497 594 1153 
L 594 3053 
L 172 3053 
L 172 3500 
L 594 3500 
L 594 4494 
L 1172 4494 
z
" transform="scale(0.015625)"/>
       <path id="DejaVuSans-65" d="M 3597 1894 
L 3597 1613 
L 953 1613 
Q 991 1019 1311 708 
Q 1631 397 2203 397 
Q 2534 397 2845 478 
Q 3156 559 3463 722 
L 3463 178 
Q 3153 47 2828 -22 
Q 2503 -91 2169 -91 
Q 1331 -91 842 396 
Q 353 884 353 1716 
Q 353 2575 817 3079 
Q 1281 3584 2069 3584 
Q 2775 3584 3186 3129 
Q 3597 2675 3597 1894 
z
M 3022 2063 
Q 3016 2534 2758 2815 
Q 2500 3097 2075 3097 
Q 1594 3097 1305 2825 
Q 1016 2553 972 2059 
L 3022 2063 
z
" transform="scale(0.015625)"/>
       <path id="DejaVuSans-6e" d="M 3513 2113 
L 3513 0 
L 2938 0 
L 2938 2094 
Q 2938 2591 2744 2837 
Q 2550 3084 2163 3084 
Q 1697 3084 1428 2787 
Q 1159 2491 1159 1978 
L 1159 0 
L 581 0 
L 581 3500 
L 1159 3500 
L 1159 2956 
Q 1366 3272 1645 3428 
Q 1925 3584 2291 3584 
Q 2894 3584 3203 3211 
Q 3513 2838 3513 2113 
z
" transform="scale(0.015625)"/>
       <path id="DejaVuSans-64" d="M 2906 2969 
L 2906 4863 
L 3481 4863 
L 3481 0 
L 2906 0 
L 2906 525 
Q 2725 213 2448 61 
Q 2172 -91 1784 -91 
Q 1150 -91 751 415 
Q 353 922 353 1747 
Q 353 2572 751 3078 
Q 1150 3584 1784 3584 
Q 2172 3584 2448 3432 
Q 2725 3281 2906 2969 
z
M 947 1747 
Q 947 1113 1208 752 
Q 1469 391 1925 391 
Q 2381 391 2643 752 
Q 2906 1113 2906 1747 
Q 2906 2381 2643 2742 
Q 2381 3103 1925 3103 
Q 1469 3103 1208 2742 
Q 947 2381 947 1747 
z
" transform="scale(0.015625)"/>
       <path id="DejaVuSans-54" d="M -19 4666 
L 3928 4666 
L 3928 4134 
L 2272 4134 
L 2272 0 
L 1638 0 
L 1638 4134 
L -19 4134 
L -19 4666 
z
" transform="scale(0.015625)"/>
       <path id="DejaVuSans-69" d="M 603 3500 
L 1178 3500 
L 1178 0 
L 603 0 
L 603 3500 
z
M 603 4863 
L 1178 4863 
L 1178 4134 
L 603 4134 
L 603 4863 
z
" transform="scale(0.015625)"/>
       <path id="DejaVuSans-6d" d="M 3328 2828 
Q 3544 3216 3844 3400 
Q 4144 3584 4550 3584 
Q 5097 3584 5394 3201 
Q 5691 2819 5691 2113 
L 5691 0 
L 5113 0 
L 5113 2094 
Q 5113 2597 4934 2840 
Q 4756 3084 4391 3084 
Q 3944 3084 3684 2787 
Q 3425 2491 3425 1978 
L 3425 0 
L 2847 0 
L 2847 2094 
Q 2847 2600 2669 2842 
Q 2491 3084 2119 3084 
Q 1678 3084 1418 2786 
Q 1159 2488 1159 1978 
L 1159 0 
L 581 0 
L 581 3500 
L 1159 3500 
L 1159 2956 
Q 1356 3278 1631 3431 
Q 1906 3584 2284 3584 
Q 2666 3584 2933 3390 
Q 3200 3197 3328 2828 
z
" transform="scale(0.015625)"/>
      </defs>
      <use xlink:href="#DejaVuSans-44"/>
      <use xlink:href="#DejaVuSans-61" transform="translate(77.001953 0)"/>
      <use xlink:href="#DejaVuSans-74" transform="translate(138.28125 0)"/>
      <use xlink:href="#DejaVuSans-65" transform="translate(177.490234 0)"/>
      <use xlink:href="#DejaVuSans-20" transform="translate(239.013672 0)"/>
      <use xlink:href="#DejaVuSans-61" transform="translate(270.800781 0)"/>
      <use xlink:href="#DejaVuSans-6e" transform="translate(332.080078 0)"/>
      <use xlink:href="#DejaVuSans-64" transform="translate(395.458984 0)"/>
      <use xlink:href="#DejaVuSans-20" transform="translate(458.935547 0)"/>
      <use xlink:href="#DejaVuSans-54" transform="translate(490.722656 0)"/>
      <use xlink:href="#DejaVuSans-69" transform="translate(548.681641 0)"/>
      <use xlink:href="#DejaVuSans-6d" transform="translate(576.464844 0)"/>
      <use xlink:href="#DejaVuSans-65" transform="translate(673.876953 0)"/>
     </g>
    </g>
   </g>
   <g id="matplotlib.axis_2">
    <g id="ytick_1">
     <g id="line2d_13">
      <path d="M 90 370.584291 
L 648 370.584291 
" clip-path="url(#p6d68a5a5ac)" style="fill: none; stroke: #b0b0b0; stroke-width: 0.8; stroke-linecap: square"/>
     </g>
     <g id="line2d_14">
      <defs>
       <path id="mae296bb24b" d="M 0 0 
L -3.5 0 
" style="stroke: #000000; stroke-width: 0.8"/>
      </defs>
      <g>
       <use xlink:href="#mae296bb24b" x="90" y="370.584291" style="stroke: #000000; stroke-width: 0.8"/>
      </g>
     </g>
     <g id="text_8">
      <!-- 0 -->
      <g transform="translate(76.6375 374.38351) scale(0.1 -0.1)">
       <use xlink:href="#DejaVuSans-30"/>
      </g>
     </g>
    </g>
    <g id="ytick_2">
     <g id="line2d_15">
      <path d="M 90 309.369717 
L 648 309.369717 
" clip-path="url(#p6d68a5a5ac)" style="fill: none; stroke: #b0b0b0; stroke-width: 0.8; stroke-linecap: square"/>
     </g>
     <g id="line2d_16">
      <g>
       <use xlink:href="#mae296bb24b" x="90" y="309.369717" style="stroke: #000000; stroke-width: 0.8"/>
      </g>
     </g>
     <g id="text_9">
      <!-- 50 -->
      <g transform="translate(70.275 313.168935) scale(0.1 -0.1)">
       <use xlink:href="#DejaVuSans-35"/>
       <use xlink:href="#DejaVuSans-30" transform="translate(63.623047 0)"/>
      </g>
     </g>
    </g>
    <g id="ytick_3">
     <g id="line2d_17">
      <path d="M 90 248.155142 
L 648 248.155142 
" clip-path="url(#p6d68a5a5ac)" style="fill: none; stroke: #b0b0b0; stroke-width: 0.8; stroke-linecap: square"/>
     </g>
     <g id="line2d_18">
      <g>
       <use xlink:href="#mae296bb24b" x="90" y="248.155142" style="stroke: #000000; stroke-width: 0.8"/>
      </g>
     </g>
     <g id="text_10">
      <!-- 100 -->
      <g transform="translate(63.9125 251.95436) scale(0.1 -0.1)">
       <use xlink:href="#DejaVuSans-31"/>
       <use xlink:href="#DejaVuSans-30" transform="translate(63.623047 0)"/>
       <use xlink:href="#DejaVuSans-30" transform="translate(127.246094 0)"/>
      </g>
     </g>
    </g>
    <g id="ytick_4">
     <g id="line2d_19">
      <path d="M 90 186.940567 
L 648 186.940567 
" clip-path="url(#p6d68a5a5ac)" style="fill: none; stroke: #b0b0b0; stroke-width: 0.8; stroke-linecap: square"/>
     </g>
     <g id="line2d_20">
      <g>
       <use xlink:href="#mae296bb24b" x="90" y="186.940567" style="stroke: #000000; stroke-width: 0.8"/>
      </g>
     </g>
     <g id="text_11">
      <!-- 150 -->
      <g transform="translate(63.9125 190.739786) scale(0.1 -0.1)">
       <use xlink:href="#DejaVuSans-31"/>
       <use xlink:href="#DejaVuSans-35" transform="translate(63.623047 0)"/>
       <use xlink:href="#DejaVuSans-30" transform="translate(127.246094 0)"/>
      </g>
     </g>
    </g>
    <g id="ytick_5">
     <g id="line2d_21">
      <path d="M 90 125.725992 
L 648 125.725992 
" clip-path="url(#p6d68a5a5ac)" style="fill: none; stroke: #b0b0b0; stroke-width: 0.8; stroke-linecap: square"/>
     </g>
     <g id="line2d_22">
      <g>
       <use xlink:href="#mae296bb24b" x="90" y="125.725992" style="stroke: #000000; stroke-width: 0.8"/>
      </g>
     </g>
     <g id="text_12">
      <!-- 200 -->
      <g transform="translate(63.9125 129.525211) scale(0.1 -0.1)">
       <defs>
        <path id="DejaVuSans-32" d="M 1228 531 
L 3431 531 
L 3431 0 
L 469 0 
L 469 531 
Q 828 903 1448 1529 
Q 2069 2156 2228 2338 
Q 2531 2678 2651 2914 
Q 2772 3150 2772 3378 
Q 2772 3750 2511 3984 
Q 2250 4219 1831 4219 
Q 1534 4219 1204 4116 
Q 875 4013 500 3803 
L 500 4441 
Q 881 4594 1212 4672 
Q 1544 4750 1819 4750 
Q 2544 4750 2975 4387 
Q 3406 4025 3406 3419 
Q 3406 3131 3298 2873 
Q 3191 2616 2906 2266 
Q 2828 2175 2409 1742 
Q 1991 1309 1228 531 
z
" transform="scale(0.015625)"/>
       </defs>
       <use xlink:href="#DejaVuSans-32"/>
       <use xlink:href="#DejaVuSans-30" transform="translate(63.623047 0)"/>
       <use xlink:href="#DejaVuSans-30" transform="translate(127.246094 0)"/>
      </g>
     </g>
    </g>
    <g id="ytick_6">
     <g id="line2d_23">
      <path d="M 90 64.511417 
L 648 64.511417 
" clip-path="url(#p6d68a5a5ac)" style="fill: none; stroke: #b0b0b0; stroke-width: 0.8; stroke-linecap: square"/>
     </g>
     <g id="line2d_24">
      <g>
       <use xlink:href="#mae296bb24b" x="90" y="64.511417" style="stroke: #000000; stroke-width: 0.8"/>
      </g>
     </g>
     <g id="text_13">
      <!-- 250 -->
      <g transform="translate(63.9125 68.310636) scale(0.1 -0.1)">
       <use xlink:href="#DejaVuSans-32"/>
       <use xlink:href="#DejaVuSans-35" transform="translate(63.623047 0)"/>
       <use xlink:href="#DejaVuSans-30" transform="translate(127.246094 0)"/>
      </g>
     </g>
    </g>
    <g id="text_14">
     <!-- Votes -->
     <g transform="translate(57.832812 231.893594) rotate(-90) scale(0.1 -0.1)">
      <defs>
       <path id="DejaVuSans-56" d="M 1831 0 
L 50 4666 
L 709 4666 
L 2188 738 
L 3669 4666 
L 4325 4666 
L 2547 0 
L 1831 0 
z
" transform="scale(0.015625)"/>
       <path id="DejaVuSans-6f" d="M 1959 3097 
Q 1497 3097 1228 2736 
Q 959 2375 959 1747 
Q 959 1119 1226 758 
Q 1494 397 1959 397 
Q 2419 397 2687 759 
Q 2956 1122 2956 1747 
Q 2956 2369 2687 2733 
Q 2419 3097 1959 3097 
z
M 1959 3584 
Q 2709 3584 3137 3096 
Q 3566 2609 3566 1747 
Q 3566 888 3137 398 
Q 2709 -91 1959 -91 
Q 1206 -91 779 398 
Q 353 888 353 1747 
Q 353 2609 779 3096 
Q 1206 3584 1959 3584 
z
" transform="scale(0.015625)"/>
       <path id="DejaVuSans-73" d="M 2834 3397 
L 2834 2853 
Q 2591 2978 2328 3040 
Q 2066 3103 1784 3103 
Q 1356 3103 1142 2972 
Q 928 2841 928 2578 
Q 928 2378 1081 2264 
Q 1234 2150 1697 2047 
L 1894 2003 
Q 2506 1872 2764 1633 
Q 3022 1394 3022 966 
Q 3022 478 2636 193 
Q 2250 -91 1575 -91 
Q 1294 -91 989 -36 
Q 684 19 347 128 
L 347 722 
Q 666 556 975 473 
Q 1284 391 1588 391 
Q 1994 391 2212 530 
Q 2431 669 2431 922 
Q 2431 1156 2273 1281 
Q 2116 1406 1581 1522 
L 1381 1569 
Q 847 1681 609 1914 
Q 372 2147 372 2553 
Q 372 3047 722 3315 
Q 1072 3584 1716 3584 
Q 2034 3584 2315 3537 
Q 2597 3491 2834 3397 
z
" transform="scale(0.015625)"/>
      </defs>
      <use xlink:href="#DejaVuSans-56"/>
      <use xlink:href="#DejaVuSans-6f" transform="translate(60.658203 0)"/>
      <use xlink:href="#DejaVuSans-74" transform="translate(121.839844 0)"/>
      <use xlink:href="#DejaVuSans-65" transform="translate(161.048828 0)"/>
      <use xlink:href="#DejaVuSans-73" transform="translate(222.572266 0)"/>
     </g>
    </g>
   </g>
   <g id="line2d_25">
    <path d="M 115.363636 348.547045 
L 131.020202 348.547045 
L 132.585859 347.322753 
L 148.242424 347.322753 
L 149.808081 344.87417 
L 163.89899 344.87417 
L 165.464646 343.649879 
L 173.292929 343.649879 
L 174.858586 342.425587 
L 181.121212 342.425587 
L 182.686869 341.201296 
L 187.383838 341.201296 
L 188.949495 339.977004 
L 210.868687 339.977004 
L 212.434343 338.752713 
L 229.656566 338.752713 
L 232.787879 336.30413 
L 235.919192 336.30413 
L 237.484848 335.079838 
L 251.575758 335.079838 
L 254.707071 332.631255 
L 273.494949 332.631255 
L 275.060606 331.406964 
L 279.757576 331.406964 
L 281.323232 330.182672 
L 282.888889 330.182672 
L 284.454545 328.958381 
L 326.727273 328.958381 
L 328.292929 327.734089 
L 347.080808 327.734089 
L 348.646465 326.509798 
L 359.606061 326.509798 
L 361.171717 325.285506 
L 362.737374 322.836923 
L 364.30303 322.836923 
L 367.434343 320.38834 
L 392.484848 320.38834 
L 394.050505 319.164049 
L 403.444444 319.164049 
L 405.010101 317.939757 
L 411.272727 317.939757 
L 412.838384 316.715466 
L 428.49495 316.715466 
L 430.060606 315.491174 
L 433.191919 315.491174 
L 434.757576 314.266883 
L 439.454545 314.266883 
L 441.020202 313.042591 
L 453.545455 313.042591 
L 455.111111 311.8183 
L 456.676768 311.8183 
L 458.242424 310.594008 
L 473.89899 310.594008 
L 475.464646 309.369717 
L 486.424242 309.369717 
L 487.989899 308.145425 
L 489.555556 308.145425 
L 492.686869 305.696842 
L 527.131313 305.696842 
L 528.69697 304.472551 
L 553.747475 304.472551 
L 555.313131 303.248259 
L 556.878788 303.248259 
L 558.444444 302.023968 
L 572.535354 302.023968 
L 574.10101 300.799676 
L 575.666667 300.799676 
L 577.232323 299.575385 
L 585.060606 299.575385 
L 586.626263 298.351093 
L 591.323232 298.351093 
L 594.454545 295.90251 
L 596.020202 295.90251 
L 597.585859 294.678219 
L 600.717172 294.678219 
L 602.282828 293.453927 
L 605.414141 293.453927 
L 606.979798 292.229636 
L 610.111111 292.229636 
L 611.676768 291.005344 
L 622.636364 291.005344 
L 622.636364 291.005344 
" clip-path="url(#p6d68a5a5ac)" style="fill: none; stroke: #1f77b4; stroke-width: 1.5; stroke-linecap: square"/>
   </g>
   <g id="line2d_26">
    <path d="M 115.363636 270.192389 
L 116.929293 268.968097 
L 121.626263 268.968097 
L 123.191919 267.743806 
L 124.757576 267.743806 
L 126.323232 266.519514 
L 127.888889 266.519514 
L 131.020202 264.070931 
L 132.585859 261.622348 
L 134.151515 261.622348 
L 137.282828 259.173765 
L 138.848485 259.173765 
L 140.414141 254.276599 
L 141.979798 251.828016 
L 143.545455 246.93085 
L 145.111111 243.257976 
L 149.808081 243.257976 
L 151.373737 239.585101 
L 152.939394 237.136518 
L 156.070707 234.687935 
L 157.636364 232.239352 
L 160.767677 229.790769 
L 162.333333 227.342186 
L 167.030303 227.342186 
L 168.59596 221.220729 
L 170.161616 218.772146 
L 171.727273 217.547854 
L 173.292929 215.099271 
L 174.858586 213.87498 
L 176.424242 213.87498 
L 177.989899 210.202105 
L 179.555556 210.202105 
L 181.121212 207.753522 
L 182.686869 206.529231 
L 184.252525 206.529231 
L 185.818182 205.304939 
L 188.949495 205.304939 
L 190.515152 204.080648 
L 193.646465 204.080648 
L 195.212121 201.632065 
L 196.777778 201.632065 
L 198.343434 200.407773 
L 204.606061 200.407773 
L 206.171717 199.183482 
L 210.868687 199.183482 
L 212.434343 197.95919 
L 214 197.95919 
L 215.565657 195.510607 
L 217.131313 195.510607 
L 218.69697 193.062024 
L 220.262626 191.837733 
L 224.959596 191.837733 
L 226.525253 189.38915 
L 228.090909 188.164858 
L 229.656566 184.491984 
L 232.787879 182.043401 
L 245.313131 182.043401 
L 246.878788 178.370526 
L 248.444444 178.370526 
L 251.575758 175.921943 
L 253.141414 175.921943 
L 257.838384 172.249069 
L 260.969697 172.249069 
L 262.535354 171.024777 
L 265.666667 171.024777 
L 270.363636 167.351903 
L 273.494949 167.351903 
L 275.060606 166.127611 
L 282.888889 166.127611 
L 284.454545 164.90332 
L 287.585859 164.90332 
L 289.151515 163.679028 
L 307.939394 163.679028 
L 309.505051 161.230445 
L 312.636364 161.230445 
L 315.767677 158.781862 
L 317.333333 158.781862 
L 318.89899 157.557571 
L 328.292929 157.557571 
L 332.989899 153.884696 
L 334.555556 153.884696 
L 336.121212 152.660405 
L 337.686869 150.211822 
L 339.252525 150.211822 
L 340.818182 148.98753 
L 342.383838 148.98753 
L 348.646465 144.090364 
L 351.777778 144.090364 
L 353.343434 141.641781 
L 358.040404 141.641781 
L 359.606061 140.41749 
L 364.30303 140.41749 
L 365.868687 139.193198 
L 367.434343 139.193198 
L 369 135.520324 
L 373.69697 135.520324 
L 375.262626 134.296032 
L 376.828283 131.847449 
L 379.959596 131.847449 
L 381.525253 130.623158 
L 384.656566 130.623158 
L 386.222222 129.398866 
L 387.787879 129.398866 
L 395.616162 123.277409 
L 398.747475 123.277409 
L 403.444444 119.604534 
L 408.141414 119.604534 
L 409.707071 117.155951 
L 411.272727 117.155951 
L 412.838384 115.93166 
L 417.535354 115.93166 
L 419.10101 114.707368 
L 433.191919 114.707368 
L 434.757576 113.483077 
L 445.717172 113.483077 
L 447.282828 112.258785 
L 450.414141 112.258785 
L 453.545455 109.810202 
L 461.373737 109.810202 
L 462.939394 108.585911 
L 470.767677 108.585911 
L 475.464646 104.913036 
L 495.818182 104.913036 
L 497.383838 102.464453 
L 498.949495 101.240162 
L 536.525253 101.240162 
L 538.090909 100.01587 
L 547.484848 100.01587 
L 550.616162 97.567287 
L 553.747475 97.567287 
L 555.313131 96.342996 
L 556.878788 96.342996 
L 560.010101 93.894413 
L 561.575758 93.894413 
L 563.141414 92.670121 
L 564.707071 92.670121 
L 567.838384 87.772955 
L 569.40404 86.548664 
L 577.232323 86.548664 
L 578.79798 82.875789 
L 580.363636 80.427206 
L 583.494949 80.427206 
L 586.626263 77.978623 
L 594.454545 77.978623 
L 597.585859 75.53004 
L 600.717172 75.53004 
L 602.282828 74.305749 
L 605.414141 74.305749 
L 606.979798 73.081457 
L 608.545455 73.081457 
L 610.111111 71.857166 
L 611.676768 71.857166 
L 613.242424 70.632874 
L 614.808081 70.632874 
L 616.373737 69.408583 
L 619.505051 69.408583 
L 621.070707 66.96 
L 622.636364 66.96 
L 622.636364 66.96 
" clip-path="url(#p6d68a5a5ac)" style="fill: none; stroke: #ff7f0e; stroke-width: 1.5; stroke-linecap: square"/>
   </g>
   <g id="line2d_27">
    <path d="M 115.363636 332.631255 
L 121.626263 332.631255 
L 123.191919 330.182672 
L 126.323232 330.182672 
L 127.888889 328.958381 
L 129.454545 326.509798 
L 131.020202 325.285506 
L 132.585859 321.612632 
L 134.151515 319.164049 
L 135.717172 317.939757 
L 137.282828 317.939757 
L 138.848485 315.491174 
L 140.414141 311.8183 
L 146.676768 311.8183 
L 148.242424 310.594008 
L 149.808081 310.594008 
L 151.373737 308.145425 
L 156.070707 308.145425 
L 159.20202 305.696842 
L 165.464646 305.696842 
L 167.030303 304.472551 
L 173.292929 304.472551 
L 177.989899 300.799676 
L 185.818182 300.799676 
L 187.383838 299.575385 
L 192.080808 299.575385 
L 193.646465 298.351093 
L 196.777778 298.351093 
L 198.343434 295.90251 
L 210.868687 295.90251 
L 212.434343 294.678219 
L 214 292.229636 
L 215.565657 291.005344 
L 217.131313 291.005344 
L 218.69697 289.781053 
L 221.828283 289.781053 
L 223.393939 288.556761 
L 226.525253 288.556761 
L 228.090909 287.33247 
L 237.484848 287.33247 
L 239.050505 286.108178 
L 240.616162 286.108178 
L 242.181818 284.883887 
L 243.747475 284.883887 
L 245.313131 283.659595 
L 250.010101 283.659595 
L 251.575758 282.435304 
L 253.141414 279.986721 
L 260.969697 279.986721 
L 265.666667 276.313846 
L 270.363636 276.313846 
L 271.929293 275.089555 
L 278.191919 275.089555 
L 279.757576 273.865263 
L 281.323232 273.865263 
L 282.888889 272.640972 
L 286.020202 272.640972 
L 287.585859 271.41668 
L 292.282828 271.41668 
L 295.414141 268.968097 
L 296.979798 268.968097 
L 298.545455 267.743806 
L 311.070707 267.743806 
L 312.636364 265.295223 
L 314.20202 264.070931 
L 326.727273 264.070931 
L 328.292929 262.84664 
L 332.989899 262.84664 
L 334.555556 261.622348 
L 339.252525 261.622348 
L 340.818182 260.398057 
L 356.474747 260.398057 
L 358.040404 259.173765 
L 364.30303 259.173765 
L 365.868687 257.949474 
L 375.262626 257.949474 
L 376.828283 256.725182 
L 379.959596 256.725182 
L 381.525253 255.500891 
L 387.787879 255.500891 
L 390.919192 253.052308 
L 420.666667 253.052308 
L 422.232323 251.828016 
L 423.79798 251.828016 
L 425.363636 250.603725 
L 430.060606 250.603725 
L 431.626263 249.379433 
L 439.454545 249.379433 
L 441.020202 248.155142 
L 444.151515 248.155142 
L 445.717172 246.93085 
L 455.111111 246.93085 
L 456.676768 248.155142 
L 458.242424 246.93085 
L 469.20202 246.93085 
L 470.767677 245.706559 
L 483.292929 245.706559 
L 484.858586 244.482267 
L 487.989899 244.482267 
L 489.555556 243.257976 
L 491.121212 243.257976 
L 492.686869 242.033684 
L 503.646465 242.033684 
L 505.212121 240.809393 
L 514.606061 240.809393 
L 516.171717 239.585101 
L 539.656566 239.585101 
L 541.222222 238.36081 
L 575.666667 238.36081 
L 577.232323 237.136518 
L 592.888889 237.136518 
L 594.454545 235.912227 
L 619.505051 235.912227 
L 622.636364 233.463644 
L 622.636364 233.463644 
" clip-path="url(#p6d68a5a5ac)" style="fill: none; stroke: #2ca02c; stroke-width: 1.5; stroke-linecap: square"/>
   </g>
   <g id="line2d_28">
    <path d="M 115.363636 369.36 
L 502.080808 369.36 
L 503.646465 368.135709 
L 622.636364 368.135709 
L 622.636364 368.135709 
" clip-path="url(#p6d68a5a5ac)" style="fill: none; stroke: #d62728; stroke-width: 1.5; stroke-linecap: square"/>
   </g>
   <g id="line2d_29">
    <path d="M 115.363636 342.425587 
L 120.060606 342.425587 
L 121.626263 341.201296 
L 131.020202 341.201296 
L 132.585859 339.977004 
L 141.979798 339.977004 
L 143.545455 338.752713 
L 177.989899 338.752713 
L 179.555556 337.528421 
L 235.919192 337.528421 
L 239.050505 335.079838 
L 251.575758 335.079838 
L 253.141414 333.855547 
L 259.40404 333.855547 
L 260.969697 332.631255 
L 264.10101 332.631255 
L 265.666667 331.406964 
L 306.373737 331.406964 
L 307.939394 330.182672 
L 372.131313 330.182672 
L 373.69697 328.958381 
L 577.232323 328.958381 
L 578.79798 327.734089 
L 580.363636 327.734089 
L 581.929293 326.509798 
L 622.636364 326.509798 
L 622.636364 326.509798 
" clip-path="url(#p6d68a5a5ac)" style="fill: none; stroke: #9467bd; stroke-width: 1.5; stroke-linecap: square"/>
   </g>
   <g id="line2d_30">
    <path d="M 115.363636 352.219919 
L 116.929293 352.219919 
L 118.49495 350.995628 
L 140.414141 350.995628 
L 141.979798 349.771336 
L 160.767677 349.771336 
L 162.333333 348.547045 
L 185.818182 348.547045 
L 188.949495 346.098462 
L 206.171717 346.098462 
L 207.737374 344.87417 
L 254.707071 344.87417 
L 256.272727 343.649879 
L 270.363636 343.649879 
L 271.929293 342.425587 
L 298.545455 342.425587 
L 300.111111 341.201296 
L 325.161616 341.201296 
L 326.727273 339.977004 
L 332.989899 339.977004 
L 334.555556 338.752713 
L 348.646465 338.752713 
L 350.212121 337.528421 
L 387.787879 337.528421 
L 389.353535 336.30413 
L 398.747475 336.30413 
L 400.313131 335.079838 
L 409.707071 335.079838 
L 411.272727 333.855547 
L 417.535354 333.855547 
L 419.10101 332.631255 
L 477.030303 332.631255 
L 478.59596 331.406964 
L 524 331.406964 
L 525.565657 330.182672 
L 616.373737 330.182672 
L 617.939394 328.958381 
L 622.636364 328.958381 
L 622.636364 328.958381 
" clip-path="url(#p6d68a5a5ac)" style="fill: none; stroke: #8c564b; stroke-width: 1.5; stroke-linecap: square"/>
   </g>
   <g id="line2d_31">
    <path d="M 115.363636 261.622348 
L 121.626263 261.622348 
L 123.191919 260.398057 
L 129.454545 260.398057 
L 132.585859 257.949474 
L 134.151515 257.949474 
L 135.717172 256.725182 
L 137.282828 256.725182 
L 138.848485 255.500891 
L 141.979798 255.500891 
L 143.545455 254.276599 
L 148.242424 254.276599 
L 149.808081 253.052308 
L 152.939394 253.052308 
L 154.505051 251.828016 
L 156.070707 251.828016 
L 157.636364 250.603725 
L 160.767677 250.603725 
L 163.89899 248.155142 
L 170.161616 248.155142 
L 171.727273 246.93085 
L 176.424242 246.93085 
L 179.555556 244.482267 
L 182.686869 244.482267 
L 184.252525 243.257976 
L 187.383838 243.257976 
L 188.949495 242.033684 
L 190.515152 239.585101 
L 192.080808 235.912227 
L 195.212121 235.912227 
L 196.777778 234.687935 
L 204.606061 234.687935 
L 207.737374 232.239352 
L 209.30303 229.790769 
L 210.868687 228.566478 
L 212.434343 228.566478 
L 214 226.117895 
L 220.262626 226.117895 
L 221.828283 224.893603 
L 223.393939 224.893603 
L 226.525253 222.44502 
L 228.090909 222.44502 
L 229.656566 221.220729 
L 231.222222 221.220729 
L 234.353535 218.772146 
L 237.484848 218.772146 
L 239.050505 216.323563 
L 245.313131 216.323563 
L 248.444444 213.87498 
L 251.575758 213.87498 
L 253.141414 212.650688 
L 254.707071 210.202105 
L 259.40404 210.202105 
L 260.969697 208.977814 
L 262.535354 208.977814 
L 264.10101 206.529231 
L 265.666667 206.529231 
L 267.232323 205.304939 
L 268.79798 205.304939 
L 270.363636 204.080648 
L 276.626263 204.080648 
L 279.757576 201.632065 
L 281.323232 201.632065 
L 282.888889 199.183482 
L 284.454545 199.183482 
L 286.020202 197.95919 
L 287.585859 197.95919 
L 289.151515 196.734899 
L 293.848485 196.734899 
L 295.414141 195.510607 
L 296.979798 195.510607 
L 303.242424 190.613441 
L 304.808081 188.164858 
L 307.939394 188.164858 
L 311.070707 183.267692 
L 314.20202 183.267692 
L 317.333333 180.819109 
L 318.89899 180.819109 
L 320.464646 178.370526 
L 322.030303 178.370526 
L 323.59596 177.146235 
L 325.161616 177.146235 
L 326.727273 175.921943 
L 329.858586 175.921943 
L 331.424242 174.697652 
L 332.989899 174.697652 
L 334.555556 173.47336 
L 340.818182 173.47336 
L 342.383838 167.351903 
L 343.949495 167.351903 
L 345.515152 166.127611 
L 350.212121 166.127611 
L 351.777778 164.90332 
L 365.868687 164.90332 
L 367.434343 162.454737 
L 373.69697 162.454737 
L 375.262626 161.230445 
L 390.919192 161.230445 
L 392.484848 158.781862 
L 394.050505 157.557571 
L 401.878788 157.557571 
L 403.444444 156.333279 
L 414.40404 156.333279 
L 415.969697 155.108988 
L 417.535354 155.108988 
L 419.10101 153.884696 
L 428.49495 153.884696 
L 431.626263 151.436113 
L 442.585859 151.436113 
L 445.717172 148.98753 
L 447.282828 148.98753 
L 448.848485 147.763239 
L 458.242424 147.763239 
L 459.808081 146.538947 
L 464.505051 146.538947 
L 466.070707 145.314656 
L 467.636364 142.866073 
L 472.333333 142.866073 
L 473.89899 141.641781 
L 475.464646 141.641781 
L 478.59596 139.193198 
L 484.858586 139.193198 
L 486.424242 137.968907 
L 492.686869 137.968907 
L 494.252525 136.744615 
L 498.949495 136.744615 
L 500.515152 135.520324 
L 513.040404 135.520324 
L 516.171717 133.071741 
L 524 133.071741 
L 525.565657 131.847449 
L 531.828283 131.847449 
L 539.656566 125.725992 
L 542.787879 125.725992 
L 544.353535 124.5017 
L 545.919192 124.5017 
L 547.484848 122.053117 
L 550.616162 119.604534 
L 553.747475 114.707368 
L 556.878788 114.707368 
L 560.010101 109.810202 
L 563.141414 109.810202 
L 564.707071 107.361619 
L 567.838384 104.913036 
L 572.535354 104.913036 
L 574.10101 103.688745 
L 575.666667 103.688745 
L 578.79798 101.240162 
L 585.060606 101.240162 
L 586.626263 100.01587 
L 589.757576 100.01587 
L 591.323232 98.791579 
L 599.151515 98.791579 
L 600.717172 96.342996 
L 602.282828 95.118704 
L 603.848485 95.118704 
L 605.414141 93.894413 
L 608.545455 93.894413 
L 610.111111 92.670121 
L 613.242424 92.670121 
L 614.808081 90.221538 
L 617.939394 90.221538 
L 619.505051 88.997247 
L 621.070707 88.997247 
L 622.636364 87.772955 
L 622.636364 87.772955 
" clip-path="url(#p6d68a5a5ac)" style="fill: none; stroke: #e377c2; stroke-width: 1.5; stroke-linecap: square"/>
   </g>
   <g id="line2d_32">
    <path d="M 115.363636 337.528421 
L 116.929293 337.528421 
L 120.060606 335.079838 
L 127.888889 335.079838 
L 129.454545 333.855547 
L 131.020202 333.855547 
L 134.151515 331.406964 
L 137.282828 331.406964 
L 138.848485 330.182672 
L 143.545455 330.182672 
L 145.111111 328.958381 
L 146.676768 328.958381 
L 148.242424 327.734089 
L 149.808081 327.734089 
L 152.939394 325.285506 
L 157.636364 325.285506 
L 159.20202 324.061215 
L 162.333333 324.061215 
L 165.464646 321.612632 
L 168.59596 321.612632 
L 171.727273 319.164049 
L 173.292929 319.164049 
L 174.858586 317.939757 
L 176.424242 314.266883 
L 182.686869 314.266883 
L 188.949495 309.369717 
L 190.515152 309.369717 
L 193.646465 306.921134 
L 195.212121 306.921134 
L 196.777778 305.696842 
L 198.343434 305.696842 
L 199.909091 304.472551 
L 214 304.472551 
L 215.565657 303.248259 
L 231.222222 303.248259 
L 234.353535 300.799676 
L 239.050505 300.799676 
L 240.616162 299.575385 
L 243.747475 299.575385 
L 246.878788 297.126802 
L 250.010101 297.126802 
L 251.575758 294.678219 
L 256.272727 294.678219 
L 257.838384 292.229636 
L 259.40404 291.005344 
L 267.232323 291.005344 
L 268.79798 289.781053 
L 270.363636 289.781053 
L 273.494949 287.33247 
L 281.323232 287.33247 
L 282.888889 286.108178 
L 284.454545 286.108178 
L 286.020202 284.883887 
L 295.414141 284.883887 
L 296.979798 283.659595 
L 301.676768 283.659595 
L 303.242424 282.435304 
L 304.808081 282.435304 
L 306.373737 278.762429 
L 307.939394 278.762429 
L 309.505051 276.313846 
L 311.070707 275.089555 
L 312.636364 275.089555 
L 315.767677 272.640972 
L 318.89899 272.640972 
L 320.464646 271.41668 
L 323.59596 271.41668 
L 325.161616 270.192389 
L 326.727273 270.192389 
L 328.292929 267.743806 
L 329.858586 267.743806 
L 331.424242 266.519514 
L 334.555556 266.519514 
L 337.686869 264.070931 
L 339.252525 264.070931 
L 340.818182 261.622348 
L 342.383838 260.398057 
L 353.343434 260.398057 
L 354.909091 257.949474 
L 359.606061 257.949474 
L 361.171717 256.725182 
L 362.737374 256.725182 
L 364.30303 255.500891 
L 369 255.500891 
L 370.565657 254.276599 
L 378.393939 254.276599 
L 379.959596 253.052308 
L 383.090909 253.052308 
L 384.656566 251.828016 
L 392.484848 251.828016 
L 394.050505 250.603725 
L 408.141414 250.603725 
L 411.272727 248.155142 
L 412.838384 248.155142 
L 414.40404 246.93085 
L 415.969697 246.93085 
L 417.535354 245.706559 
L 419.10101 245.706559 
L 420.666667 244.482267 
L 423.79798 244.482267 
L 425.363636 243.257976 
L 426.929293 243.257976 
L 430.060606 240.809393 
L 434.757576 240.809393 
L 436.323232 239.585101 
L 441.020202 239.585101 
L 442.585859 238.36081 
L 453.545455 238.36081 
L 455.111111 237.136518 
L 456.676768 237.136518 
L 458.242424 235.912227 
L 464.505051 235.912227 
L 466.070707 233.463644 
L 475.464646 233.463644 
L 477.030303 232.239352 
L 478.59596 232.239352 
L 480.161616 229.790769 
L 487.989899 229.790769 
L 489.555556 228.566478 
L 498.949495 228.566478 
L 500.515152 227.342186 
L 520.868687 227.342186 
L 522.434343 226.117895 
L 545.919192 226.117895 
L 547.484848 224.893603 
L 555.313131 224.893603 
L 556.878788 223.669312 
L 558.444444 223.669312 
L 560.010101 222.44502 
L 561.575758 222.44502 
L 563.141414 219.996437 
L 564.707071 219.996437 
L 567.838384 217.547854 
L 578.79798 217.547854 
L 580.363636 216.323563 
L 581.929293 216.323563 
L 583.494949 215.099271 
L 585.060606 215.099271 
L 586.626263 213.87498 
L 594.454545 213.87498 
L 596.020202 212.650688 
L 610.111111 212.650688 
L 611.676768 211.426397 
L 619.505051 211.426397 
L 621.070707 210.202105 
L 622.636364 210.202105 
L 622.636364 210.202105 
" clip-path="url(#p6d68a5a5ac)" style="fill: none; stroke: #7f7f7f; stroke-width: 1.5; stroke-linecap: square"/>
   </g>
   <g id="line2d_33">
    <path d="M 115.363636 344.87417 
L 121.626263 344.87417 
L 123.191919 343.649879 
L 138.848485 343.649879 
L 140.414141 342.425587 
L 148.242424 342.425587 
L 149.808081 341.201296 
L 165.464646 341.201296 
L 167.030303 339.977004 
L 182.686869 339.977004 
L 184.252525 338.752713 
L 268.79798 338.752713 
L 270.363636 337.528421 
L 278.191919 337.528421 
L 279.757576 336.30413 
L 290.717172 336.30413 
L 292.282828 335.079838 
L 293.848485 335.079838 
L 295.414141 331.406964 
L 296.979798 330.182672 
L 300.111111 330.182672 
L 301.676768 328.958381 
L 317.333333 328.958381 
L 318.89899 327.734089 
L 332.989899 327.734089 
L 334.555556 326.509798 
L 351.777778 326.509798 
L 353.343434 325.285506 
L 372.131313 325.285506 
L 373.69697 324.061215 
L 381.525253 324.061215 
L 383.090909 322.836923 
L 433.191919 322.836923 
L 434.757576 321.612632 
L 437.888889 321.612632 
L 439.454545 320.38834 
L 451.979798 320.38834 
L 453.545455 319.164049 
L 497.383838 319.164049 
L 502.080808 315.491174 
L 547.484848 315.491174 
L 549.050505 314.266883 
L 550.616162 314.266883 
L 553.747475 311.8183 
L 556.878788 311.8183 
L 558.444444 310.594008 
L 622.636364 310.594008 
L 622.636364 310.594008 
" clip-path="url(#p6d68a5a5ac)" style="fill: none; stroke: #bcbd22; stroke-width: 1.5; stroke-linecap: square"/>
   </g>
   <g id="line2d_34">
    <path d="M 115.363636 366.911417 
L 193.646465 366.911417 
L 195.212121 365.687126 
L 293.848485 365.687126 
L 295.414141 364.462834 
L 455.111111 364.462834 
L 456.676768 363.238543 
L 458.242424 364.462834 
L 622.636364 364.462834 
L 622.636364 364.462834 
" clip-path="url(#p6d68a5a5ac)" style="fill: none; stroke: #17becf; stroke-width: 1.5; stroke-linecap: square"/>
   </g>
   <g id="line2d_35">
    <path d="M 115.363636 369.36 
L 116.929293 368.135709 
L 120.060606 368.135709 
L 121.626263 366.911417 
L 132.585859 366.911417 
L 134.151515 365.687126 
L 138.848485 365.687126 
L 140.414141 364.462834 
L 141.979798 364.462834 
L 145.111111 362.014251 
L 152.939394 362.014251 
L 156.070707 359.565668 
L 157.636364 359.565668 
L 159.20202 358.341377 
L 170.161616 358.341377 
L 171.727273 357.117085 
L 173.292929 354.668502 
L 176.424242 354.668502 
L 177.989899 353.444211 
L 179.555556 353.444211 
L 181.121212 352.219919 
L 182.686869 352.219919 
L 184.252525 350.995628 
L 185.818182 350.995628 
L 188.949495 348.547045 
L 198.343434 348.547045 
L 201.474747 346.098462 
L 206.171717 346.098462 
L 207.737374 344.87417 
L 209.30303 344.87417 
L 210.868687 342.425587 
L 215.565657 342.425587 
L 218.69697 337.528421 
L 228.090909 337.528421 
L 229.656566 335.079838 
L 231.222222 333.855547 
L 235.919192 333.855547 
L 237.484848 332.631255 
L 239.050505 330.182672 
L 242.181818 330.182672 
L 243.747475 328.958381 
L 265.666667 328.958381 
L 267.232323 326.509798 
L 278.191919 317.939757 
L 293.848485 317.939757 
L 298.545455 314.266883 
L 301.676768 314.266883 
L 303.242424 311.8183 
L 306.373737 311.8183 
L 307.939394 310.594008 
L 312.636364 310.594008 
L 314.20202 309.369717 
L 315.767677 309.369717 
L 317.333333 308.145425 
L 318.89899 308.145425 
L 322.030303 305.696842 
L 342.383838 305.696842 
L 345.515152 303.248259 
L 358.040404 303.248259 
L 359.606061 302.023968 
L 364.30303 302.023968 
L 367.434343 299.575385 
L 372.131313 299.575385 
L 373.69697 298.351093 
L 376.828283 298.351093 
L 378.393939 297.126802 
L 386.222222 297.126802 
L 387.787879 295.90251 
L 389.353535 295.90251 
L 390.919192 293.453927 
L 392.484848 293.453927 
L 394.050505 292.229636 
L 401.878788 292.229636 
L 403.444444 291.005344 
L 406.575758 291.005344 
L 408.141414 289.781053 
L 409.707071 289.781053 
L 412.838384 287.33247 
L 423.79798 287.33247 
L 425.363636 286.108178 
L 426.929293 286.108178 
L 428.49495 284.883887 
L 436.323232 284.883887 
L 437.888889 282.435304 
L 439.454545 281.211012 
L 447.282828 281.211012 
L 448.848485 279.986721 
L 455.111111 279.986721 
L 456.676768 277.538138 
L 462.939394 277.538138 
L 466.070707 275.089555 
L 470.767677 275.089555 
L 472.333333 273.865263 
L 491.121212 273.865263 
L 492.686869 271.41668 
L 494.252525 270.192389 
L 506.777778 270.192389 
L 508.343434 268.968097 
L 536.525253 268.968097 
L 538.090909 267.743806 
L 541.222222 267.743806 
L 542.787879 266.519514 
L 547.484848 266.519514 
L 549.050505 265.295223 
L 569.40404 265.295223 
L 570.969697 262.84664 
L 574.10101 262.84664 
L 575.666667 261.622348 
L 577.232323 261.622348 
L 578.79798 260.398057 
L 585.060606 260.398057 
L 586.626263 259.173765 
L 597.585859 259.173765 
L 599.151515 256.725182 
L 600.717172 256.725182 
L 602.282828 255.500891 
L 610.111111 255.500891 
L 611.676768 254.276599 
L 619.505051 254.276599 
L 622.636364 251.828016 
L 622.636364 251.828016 
" clip-path="url(#p6d68a5a5ac)" style="fill: none; stroke: #1f77b4; stroke-width: 1.5; stroke-linecap: square"/>
   </g>
   <g id="line2d_36">
    <path d="M 115.363636 324.061215 
L 126.323232 324.061215 
L 127.888889 322.836923 
L 132.585859 322.836923 
L 134.151515 321.612632 
L 140.414141 321.612632 
L 141.979798 320.38834 
L 146.676768 320.38834 
L 148.242424 319.164049 
L 149.808081 319.164049 
L 151.373737 317.939757 
L 156.070707 317.939757 
L 157.636364 316.715466 
L 160.767677 316.715466 
L 162.333333 315.491174 
L 163.89899 315.491174 
L 167.030303 313.042591 
L 176.424242 313.042591 
L 177.989899 311.8183 
L 179.555556 311.8183 
L 181.121212 310.594008 
L 182.686869 310.594008 
L 184.252525 308.145425 
L 185.818182 304.472551 
L 187.383838 303.248259 
L 193.646465 303.248259 
L 198.343434 299.575385 
L 203.040404 299.575385 
L 206.171717 297.126802 
L 223.393939 297.126802 
L 224.959596 293.453927 
L 226.525253 293.453927 
L 229.656566 288.556761 
L 232.787879 286.108178 
L 234.353535 286.108178 
L 235.919192 283.659595 
L 248.444444 283.659595 
L 250.010101 281.211012 
L 254.707071 281.211012 
L 256.272727 279.986721 
L 267.232323 279.986721 
L 268.79798 278.762429 
L 287.585859 278.762429 
L 289.151515 277.538138 
L 290.717172 277.538138 
L 292.282828 276.313846 
L 296.979798 276.313846 
L 298.545455 275.089555 
L 317.333333 275.089555 
L 318.89899 273.865263 
L 322.030303 273.865263 
L 325.161616 268.968097 
L 328.292929 268.968097 
L 331.424242 266.519514 
L 334.555556 266.519514 
L 336.121212 265.295223 
L 340.818182 265.295223 
L 342.383838 264.070931 
L 361.171717 264.070931 
L 362.737374 262.84664 
L 386.222222 262.84664 
L 387.787879 261.622348 
L 401.878788 261.622348 
L 403.444444 260.398057 
L 406.575758 260.398057 
L 408.141414 259.173765 
L 412.838384 259.173765 
L 415.969697 256.725182 
L 417.535354 256.725182 
L 419.10101 255.500891 
L 425.363636 255.500891 
L 428.49495 253.052308 
L 436.323232 253.052308 
L 437.888889 251.828016 
L 442.585859 251.828016 
L 444.151515 250.603725 
L 451.979798 250.603725 
L 453.545455 249.379433 
L 461.373737 249.379433 
L 462.939394 248.155142 
L 491.121212 248.155142 
L 492.686869 246.93085 
L 494.252525 246.93085 
L 495.818182 245.706559 
L 511.474747 245.706559 
L 513.040404 243.257976 
L 514.606061 243.257976 
L 516.171717 242.033684 
L 531.828283 242.033684 
L 533.393939 240.809393 
L 539.656566 240.809393 
L 541.222222 239.585101 
L 542.787879 239.585101 
L 544.353535 238.36081 
L 558.444444 238.36081 
L 560.010101 237.136518 
L 591.323232 237.136518 
L 592.888889 233.463644 
L 603.848485 233.463644 
L 605.414141 232.239352 
L 608.545455 232.239352 
L 610.111111 231.015061 
L 622.636364 231.015061 
L 622.636364 231.015061 
" clip-path="url(#p6d68a5a5ac)" style="fill: none; stroke: #ff7f0e; stroke-width: 1.5; stroke-linecap: square"/>
   </g>
   <g id="patch_3">
    <path d="M 90 384.48 
L 90 51.84 
" style="fill: none; stroke: #000000; stroke-width: 0.8; stroke-linejoin: miter; stroke-linecap: square"/>
   </g>
   <g id="patch_4">
    <path d="M 648 384.48 
L 648 51.84 
" style="fill: none; stroke: #000000; stroke-width: 0.8; stroke-linejoin: miter; stroke-linecap: square"/>
   </g>
   <g id="patch_5">
    <path d="M 90 384.48 
L 648 384.48 
" style="fill: none; stroke: #000000; stroke-width: 0.8; stroke-linejoin: miter; stroke-linecap: square"/>
   </g>
   <g id="patch_6">
    <path d="M 90 51.84 
L 648 51.84 
" style="fill: none; stroke: #000000; stroke-width: 0.8; stroke-linejoin: miter; stroke-linecap: square"/>
   </g>
   <g id="text_15">
    <!-- Time Series of Votes for Each Keyword -->
    <g transform="translate(253.716563 45.84) scale(0.12 -0.12)">
     <defs>
      <path id="DejaVuSans-53" d="M 3425 4513 
L 3425 3897 
Q 3066 4069 2747 4153 
Q 2428 4238 2131 4238 
Q 1616 4238 1336 4038 
Q 1056 3838 1056 3469 
Q 1056 3159 1242 3001 
Q 1428 2844 1947 2747 
L 2328 2669 
Q 3034 2534 3370 2195 
Q 3706 1856 3706 1288 
Q 3706 609 3251 259 
Q 2797 -91 1919 -91 
Q 1588 -91 1214 -16 
Q 841 59 441 206 
L 441 856 
Q 825 641 1194 531 
Q 1563 422 1919 422 
Q 2459 422 2753 634 
Q 3047 847 3047 1241 
Q 3047 1584 2836 1778 
Q 2625 1972 2144 2069 
L 1759 2144 
Q 1053 2284 737 2584 
Q 422 2884 422 3419 
Q 422 4038 858 4394 
Q 1294 4750 2059 4750 
Q 2388 4750 2728 4690 
Q 3069 4631 3425 4513 
z
" transform="scale(0.015625)"/>
      <path id="DejaVuSans-72" d="M 2631 2963 
Q 2534 3019 2420 3045 
Q 2306 3072 2169 3072 
Q 1681 3072 1420 2755 
Q 1159 2438 1159 1844 
L 1159 0 
L 581 0 
L 581 3500 
L 1159 3500 
L 1159 2956 
Q 1341 3275 1631 3429 
Q 1922 3584 2338 3584 
Q 2397 3584 2469 3576 
Q 2541 3569 2628 3553 
L 2631 2963 
z
" transform="scale(0.015625)"/>
      <path id="DejaVuSans-66" d="M 2375 4863 
L 2375 4384 
L 1825 4384 
Q 1516 4384 1395 4259 
Q 1275 4134 1275 3809 
L 1275 3500 
L 2222 3500 
L 2222 3053 
L 1275 3053 
L 1275 0 
L 697 0 
L 697 3053 
L 147 3053 
L 147 3500 
L 697 3500 
L 697 3744 
Q 697 4328 969 4595 
Q 1241 4863 1831 4863 
L 2375 4863 
z
" transform="scale(0.015625)"/>
      <path id="DejaVuSans-45" d="M 628 4666 
L 3578 4666 
L 3578 4134 
L 1259 4134 
L 1259 2753 
L 3481 2753 
L 3481 2222 
L 1259 2222 
L 1259 531 
L 3634 531 
L 3634 0 
L 628 0 
L 628 4666 
z
" transform="scale(0.015625)"/>
      <path id="DejaVuSans-63" d="M 3122 3366 
L 3122 2828 
Q 2878 2963 2633 3030 
Q 2388 3097 2138 3097 
Q 1578 3097 1268 2742 
Q 959 2388 959 1747 
Q 959 1106 1268 751 
Q 1578 397 2138 397 
Q 2388 397 2633 464 
Q 2878 531 3122 666 
L 3122 134 
Q 2881 22 2623 -34 
Q 2366 -91 2075 -91 
Q 1284 -91 818 406 
Q 353 903 353 1747 
Q 353 2603 823 3093 
Q 1294 3584 2113 3584 
Q 2378 3584 2631 3529 
Q 2884 3475 3122 3366 
z
" transform="scale(0.015625)"/>
      <path id="DejaVuSans-68" d="M 3513 2113 
L 3513 0 
L 2938 0 
L 2938 2094 
Q 2938 2591 2744 2837 
Q 2550 3084 2163 3084 
Q 1697 3084 1428 2787 
Q 1159 2491 1159 1978 
L 1159 0 
L 581 0 
L 581 4863 
L 1159 4863 
L 1159 2956 
Q 1366 3272 1645 3428 
Q 1925 3584 2291 3584 
Q 2894 3584 3203 3211 
Q 3513 2838 3513 2113 
z
" transform="scale(0.015625)"/>
      <path id="DejaVuSans-4b" d="M 628 4666 
L 1259 4666 
L 1259 2694 
L 3353 4666 
L 4166 4666 
L 1850 2491 
L 4331 0 
L 3500 0 
L 1259 2247 
L 1259 0 
L 628 0 
L 628 4666 
z
" transform="scale(0.015625)"/>
      <path id="DejaVuSans-79" d="M 2059 -325 
Q 1816 -950 1584 -1140 
Q 1353 -1331 966 -1331 
L 506 -1331 
L 506 -850 
L 844 -850 
Q 1081 -850 1212 -737 
Q 1344 -625 1503 -206 
L 1606 56 
L 191 3500 
L 800 3500 
L 1894 763 
L 2988 3500 
L 3597 3500 
L 2059 -325 
z
" transform="scale(0.015625)"/>
      <path id="DejaVuSans-77" d="M 269 3500 
L 844 3500 
L 1563 769 
L 2278 3500 
L 2956 3500 
L 3675 769 
L 4391 3500 
L 4966 3500 
L 4050 0 
L 3372 0 
L 2619 2869 
L 1863 0 
L 1184 0 
L 269 3500 
z
" transform="scale(0.015625)"/>
     </defs>
     <use xlink:href="#DejaVuSans-54"/>
     <use xlink:href="#DejaVuSans-69" transform="translate(57.958984 0)"/>
     <use xlink:href="#DejaVuSans-6d" transform="translate(85.742188 0)"/>
     <use xlink:href="#DejaVuSans-65" transform="translate(183.154297 0)"/>
     <use xlink:href="#DejaVuSans-20" transform="translate(244.677734 0)"/>
     <use xlink:href="#DejaVuSans-53" transform="translate(276.464844 0)"/>
     <use xlink:href="#DejaVuSans-65" transform="translate(339.941406 0)"/>
     <use xlink:href="#DejaVuSans-72" transform="translate(401.464844 0)"/>
     <use xlink:href="#DejaVuSans-69" transform="translate(442.578125 0)"/>
     <use xlink:href="#DejaVuSans-65" transform="translate(470.361328 0)"/>
     <use xlink:href="#DejaVuSans-73" transform="translate(531.884766 0)"/>
     <use xlink:href="#DejaVuSans-20" transform="translate(583.984375 0)"/>
     <use xlink:href="#DejaVuSans-6f" transform="translate(615.771484 0)"/>
     <use xlink:href="#DejaVuSans-66" transform="translate(676.953125 0)"/>
     <use xlink:href="#DejaVuSans-20" transform="translate(712.158203 0)"/>
     <use xlink:href="#DejaVuSans-56" transform="translate(743.945312 0)"/>
     <use xlink:href="#DejaVuSans-6f" transform="translate(804.603516 0)"/>
     <use xlink:href="#DejaVuSans-74" transform="translate(865.785156 0)"/>
     <use xlink:href="#DejaVuSans-65" transform="translate(904.994141 0)"/>
     <use xlink:href="#DejaVuSans-73" transform="translate(966.517578 0)"/>
     <use xlink:href="#DejaVuSans-20" transform="translate(1018.617188 0)"/>
     <use xlink:href="#DejaVuSans-66" transform="translate(1050.404297 0)"/>
     <use xlink:href="#DejaVuSans-6f" transform="translate(1085.609375 0)"/>
     <use xlink:href="#DejaVuSans-72" transform="translate(1146.791016 0)"/>
     <use xlink:href="#DejaVuSans-20" transform="translate(1187.904297 0)"/>
     <use xlink:href="#DejaVuSans-45" transform="translate(1219.691406 0)"/>
     <use xlink:href="#DejaVuSans-61" transform="translate(1282.875 0)"/>
     <use xlink:href="#DejaVuSans-63" transform="translate(1344.154297 0)"/>
     <use xlink:href="#DejaVuSans-68" transform="translate(1399.134766 0)"/>
     <use xlink:href="#DejaVuSans-20" transform="translate(1462.513672 0)"/>
     <use xlink:href="#DejaVuSans-4b" transform="translate(1494.300781 0)"/>
     <use xlink:href="#DejaVuSans-65" transform="translate(1554.876953 0)"/>
     <use xlink:href="#DejaVuSans-79" transform="translate(1616.400391 0)"/>
     <use xlink:href="#DejaVuSans-77" transform="translate(1675.580078 0)"/>
     <use xlink:href="#DejaVuSans-6f" transform="translate(1757.367188 0)"/>
     <use xlink:href="#DejaVuSans-72" transform="translate(1818.548828 0)"/>
     <use xlink:href="#DejaVuSans-64" transform="translate(1857.912109 0)"/>
    </g>
   </g>
   <g id="legend_1">
    <g id="patch_7">
     <path d="M 97 235.9775 
L 149.245313 235.9775 
Q 151.245313 235.9775 151.245313 233.9775 
L 151.245313 58.84 
Q 151.245313 56.84 149.245313 56.84 
L 97 56.84 
Q 95 56.84 95 58.84 
L 95 233.9775 
Q 95 235.9775 97 235.9775 
z
" style="fill: #ffffff; opacity: 0.8; stroke: #cccccc; stroke-linejoin: miter"/>
    </g>
    <g id="line2d_37">
     <path d="M 99 64.938437 
L 109 64.938437 
L 119 64.938437 
" style="fill: none; stroke: #1f77b4; stroke-width: 1.5; stroke-linecap: square"/>
    </g>
    <g id="text_16">
     <!-- H01 -->
     <g transform="translate(127 68.438437) scale(0.1 -0.1)">
      <defs>
       <path id="DejaVuSans-48" d="M 628 4666 
L 1259 4666 
L 1259 2753 
L 3553 2753 
L 3553 4666 
L 4184 4666 
L 4184 0 
L 3553 0 
L 3553 2222 
L 1259 2222 
L 1259 0 
L 628 0 
L 628 4666 
z
" transform="scale(0.015625)"/>
      </defs>
      <use xlink:href="#DejaVuSans-48"/>
      <use xlink:href="#DejaVuSans-30" transform="translate(75.195312 0)"/>
      <use xlink:href="#DejaVuSans-31" transform="translate(138.818359 0)"/>
     </g>
    </g>
    <g id="line2d_38">
     <path d="M 99 79.616562 
L 109 79.616562 
L 119 79.616562 
" style="fill: none; stroke: #ff7f0e; stroke-width: 1.5; stroke-linecap: square"/>
    </g>
    <g id="text_17">
     <!-- H02 -->
     <g transform="translate(127 83.116562) scale(0.1 -0.1)">
      <use xlink:href="#DejaVuSans-48"/>
      <use xlink:href="#DejaVuSans-30" transform="translate(75.195312 0)"/>
      <use xlink:href="#DejaVuSans-32" transform="translate(138.818359 0)"/>
     </g>
    </g>
    <g id="line2d_39">
     <path d="M 99 94.294688 
L 109 94.294688 
L 119 94.294688 
" style="fill: none; stroke: #2ca02c; stroke-width: 1.5; stroke-linecap: square"/>
    </g>
    <g id="text_18">
     <!-- H03 -->
     <g transform="translate(127 97.794688) scale(0.1 -0.1)">
      <defs>
       <path id="DejaVuSans-33" d="M 2597 2516 
Q 3050 2419 3304 2112 
Q 3559 1806 3559 1356 
Q 3559 666 3084 287 
Q 2609 -91 1734 -91 
Q 1441 -91 1130 -33 
Q 819 25 488 141 
L 488 750 
Q 750 597 1062 519 
Q 1375 441 1716 441 
Q 2309 441 2620 675 
Q 2931 909 2931 1356 
Q 2931 1769 2642 2001 
Q 2353 2234 1838 2234 
L 1294 2234 
L 1294 2753 
L 1863 2753 
Q 2328 2753 2575 2939 
Q 2822 3125 2822 3475 
Q 2822 3834 2567 4026 
Q 2313 4219 1838 4219 
Q 1578 4219 1281 4162 
Q 984 4106 628 3988 
L 628 4550 
Q 988 4650 1302 4700 
Q 1616 4750 1894 4750 
Q 2613 4750 3031 4423 
Q 3450 4097 3450 3541 
Q 3450 3153 3228 2886 
Q 3006 2619 2597 2516 
z
" transform="scale(0.015625)"/>
      </defs>
      <use xlink:href="#DejaVuSans-48"/>
      <use xlink:href="#DejaVuSans-30" transform="translate(75.195312 0)"/>
      <use xlink:href="#DejaVuSans-33" transform="translate(138.818359 0)"/>
     </g>
    </g>
    <g id="line2d_40">
     <path d="M 99 108.972812 
L 109 108.972812 
L 119 108.972812 
" style="fill: none; stroke: #d62728; stroke-width: 1.5; stroke-linecap: square"/>
    </g>
    <g id="text_19">
     <!-- H04 -->
     <g transform="translate(127 112.472812) scale(0.1 -0.1)">
      <use xlink:href="#DejaVuSans-48"/>
      <use xlink:href="#DejaVuSans-30" transform="translate(75.195312 0)"/>
      <use xlink:href="#DejaVuSans-34" transform="translate(138.818359 0)"/>
     </g>
    </g>
    <g id="line2d_41">
     <path d="M 99 123.650937 
L 109 123.650937 
L 119 123.650937 
" style="fill: none; stroke: #9467bd; stroke-width: 1.5; stroke-linecap: square"/>
    </g>
    <g id="text_20">
     <!-- H05 -->
     <g transform="translate(127 127.150937) scale(0.1 -0.1)">
      <use xlink:href="#DejaVuSans-48"/>
      <use xlink:href="#DejaVuSans-30" transform="translate(75.195312 0)"/>
      <use xlink:href="#DejaVuSans-35" transform="translate(138.818359 0)"/>
     </g>
    </g>
    <g id="line2d_42">
     <path d="M 99 138.329062 
L 109 138.329062 
L 119 138.329062 
" style="fill: none; stroke: #8c564b; stroke-width: 1.5; stroke-linecap: square"/>
    </g>
    <g id="text_21">
     <!-- H06 -->
     <g transform="translate(127 141.829062) scale(0.1 -0.1)">
      <use xlink:href="#DejaVuSans-48"/>
      <use xlink:href="#DejaVuSans-30" transform="translate(75.195312 0)"/>
      <use xlink:href="#DejaVuSans-36" transform="translate(138.818359 0)"/>
     </g>
    </g>
    <g id="line2d_43">
     <path d="M 99 153.007187 
L 109 153.007187 
L 119 153.007187 
" style="fill: none; stroke: #e377c2; stroke-width: 1.5; stroke-linecap: square"/>
    </g>
    <g id="text_22">
     <!-- H07 -->
     <g transform="translate(127 156.507187) scale(0.1 -0.1)">
      <use xlink:href="#DejaVuSans-48"/>
      <use xlink:href="#DejaVuSans-30" transform="translate(75.195312 0)"/>
      <use xlink:href="#DejaVuSans-37" transform="translate(138.818359 0)"/>
     </g>
    </g>
    <g id="line2d_44">
     <path d="M 99 167.685312 
L 109 167.685312 
L 119 167.685312 
" style="fill: none; stroke: #7f7f7f; stroke-width: 1.5; stroke-linecap: square"/>
    </g>
    <g id="text_23">
     <!-- H08 -->
     <g transform="translate(127 171.185312) scale(0.1 -0.1)">
      <use xlink:href="#DejaVuSans-48"/>
      <use xlink:href="#DejaVuSans-30" transform="translate(75.195312 0)"/>
      <use xlink:href="#DejaVuSans-38" transform="translate(138.818359 0)"/>
     </g>
    </g>
    <g id="line2d_45">
     <path d="M 99 182.363437 
L 109 182.363437 
L 119 182.363437 
" style="fill: none; stroke: #bcbd22; stroke-width: 1.5; stroke-linecap: square"/>
    </g>
    <g id="text_24">
     <!-- H09 -->
     <g transform="translate(127 185.863437) scale(0.1 -0.1)">
      <use xlink:href="#DejaVuSans-48"/>
      <use xlink:href="#DejaVuSans-30" transform="translate(75.195312 0)"/>
      <use xlink:href="#DejaVuSans-39" transform="translate(138.818359 0)"/>
     </g>
    </g>
    <g id="line2d_46">
     <path d="M 99 197.041562 
L 109 197.041562 
L 119 197.041562 
" style="fill: none; stroke: #17becf; stroke-width: 1.5; stroke-linecap: square"/>
    </g>
    <g id="text_25">
     <!-- H10 -->
     <g transform="translate(127 200.541562) scale(0.1 -0.1)">
      <use xlink:href="#DejaVuSans-48"/>
      <use xlink:href="#DejaVuSans-31" transform="translate(75.195312 0)"/>
      <use xlink:href="#DejaVuSans-30" transform="translate(138.818359 0)"/>
     </g>
    </g>
    <g id="line2d_47">
     <path d="M 99 211.719687 
L 109 211.719687 
L 119 211.719687 
" style="fill: none; stroke: #1f77b4; stroke-width: 1.5; stroke-linecap: square"/>
    </g>
    <g id="text_26">
     <!-- H11 -->
     <g transform="translate(127 215.219687) scale(0.1 -0.1)">
      <use xlink:href="#DejaVuSans-48"/>
      <use xlink:href="#DejaVuSans-31" transform="translate(75.195312 0)"/>
      <use xlink:href="#DejaVuSans-31" transform="translate(138.818359 0)"/>
     </g>
    </g>
    <g id="line2d_48">
     <path d="M 99 226.397812 
L 109 226.397812 
L 119 226.397812 
" style="fill: none; stroke: #ff7f0e; stroke-width: 1.5; stroke-linecap: square"/>
    </g>
    <g id="text_27">
     <!-- H12 -->
     <g transform="translate(127 229.897812) scale(0.1 -0.1)">
      <use xlink:href="#DejaVuSans-48"/>
      <use xlink:href="#DejaVuSans-31" transform="translate(75.195312 0)"/>
      <use xlink:href="#DejaVuSans-32" transform="translate(138.818359 0)"/>
     </g>
    </g>
   </g>
  </g>
 </g>
 <defs>
  <clipPath id="p6d68a5a5ac">
   <rect x="90" y="51.84" width="558" height="332.64"/>
  </clipPath>
 </defs>
</svg>
