<?xml version="1.0" encoding="utf-8" standalone="no"?>
<!DOCTYPE svg PUBLIC "-//W3C//DTD SVG 1.1//EN"
  "http://www.w3.org/Graphics/SVG/1.1/DTD/svg11.dtd">
<svg xmlns:xlink="http://www.w3.org/1999/xlink" width="720pt" height="432pt" viewBox="0 0 720 432" xmlns="http://www.w3.org/2000/svg" version="1.1">
 <metadata>
  <rdf:RDF xmlns:dc="http://purl.org/dc/elements/1.1/" xmlns:cc="http://creativecommons.org/ns#" xmlns:rdf="http://www.w3.org/1999/02/22-rdf-syntax-ns#">
   <cc:Work>
    <dc:type rdf:resource="http://purl.org/dc/dcmitype/StillImage"/>
    <dc:date>2025-01-14T20:39:18.245640</dc:date>
    <dc:format>image/svg+xml</dc:format>
    <dc:creator>
     <cc:Agent>
      <dc:title>Matplotlib v3.10.0, https://matplotlib.org/</dc:title>
     </cc:Agent>
    </dc:creator>
   </cc:Work>
  </rdf:RDF>
 </metadata>
 <defs>
  <style type="text/css">*{stroke-linejoin: round; stroke-linecap: butt}</style>
 </defs>
 <g id="figure_1">
  <g id="patch_1">
   <path d="M 0 432 
L 720 432 
L 720 0 
L 0 0 
z
" style="fill: #ffffff"/>
  </g>
  <g id="axes_1">
   <g id="patch_2">
    <path d="M 90 384.48 
L 648 384.48 
L 648 51.84 
L 90 51.84 
z
" style="fill: #ffffff"/>
   </g>
   <g id="matplotlib.axis_1">
    <g id="xtick_1">
     <g id="line2d_1">
      <path d="M 147.590374 384.48 
L 147.590374 51.84 
" clip-path="url(#p8dac969c24)" style="fill: none; stroke: #b0b0b0; stroke-width: 0.8; stroke-linecap: square"/>
     </g>
     <g id="line2d_2">
      <defs>
       <path id="m3156fdf47a" d="M 0 0 
L 0 3.5 
" style="stroke: #000000; stroke-width: 0.8"/>
      </defs>
      <g>
       <use xlink:href="#m3156fdf47a" x="147.590374" y="384.48" style="stroke: #000000; stroke-width: 0.8"/>
      </g>
     </g>
     <g id="text_1">
      <!-- 01-14 14 -->
      <g transform="translate(125.109906 399.078438) scale(0.1 -0.1)">
       <defs>
        <path id="DejaVuSans-30" d="M 2034 4250 
Q 1547 4250 1301 3770 
Q 1056 3291 1056 2328 
Q 1056 1369 1301 889 
Q 1547 409 2034 409 
Q 2525 409 2770 889 
Q 3016 1369 3016 2328 
Q 3016 3291 2770 3770 
Q 2525 4250 2034 4250 
z
M 2034 4750 
Q 2819 4750 3233 4129 
Q 3647 3509 3647 2328 
Q 3647 1150 3233 529 
Q 2819 -91 2034 -91 
Q 1250 -91 836 529 
Q 422 1150 422 2328 
Q 422 3509 836 4129 
Q 1250 4750 2034 4750 
z
" transform="scale(0.015625)"/>
        <path id="DejaVuSans-31" d="M 794 531 
L 1825 531 
L 1825 4091 
L 703 3866 
L 703 4441 
L 1819 4666 
L 2450 4666 
L 2450 531 
L 3481 531 
L 3481 0 
L 794 0 
L 794 531 
z
" transform="scale(0.015625)"/>
        <path id="DejaVuSans-2d" d="M 313 2009 
L 1997 2009 
L 1997 1497 
L 313 1497 
L 313 2009 
z
" transform="scale(0.015625)"/>
        <path id="DejaVuSans-34" d="M 2419 4116 
L 825 1625 
L 2419 1625 
L 2419 4116 
z
M 2253 4666 
L 3047 4666 
L 3047 1625 
L 3713 1625 
L 3713 1100 
L 3047 1100 
L 3047 0 
L 2419 0 
L 2419 1100 
L 313 1100 
L 313 1709 
L 2253 4666 
z
" transform="scale(0.015625)"/>
        <path id="DejaVuSans-20" transform="scale(0.015625)"/>
       </defs>
       <use xlink:href="#DejaVuSans-30"/>
       <use xlink:href="#DejaVuSans-31" transform="translate(63.623047 0)"/>
       <use xlink:href="#DejaVuSans-2d" transform="translate(127.246094 0)"/>
       <use xlink:href="#DejaVuSans-31" transform="translate(163.330078 0)"/>
       <use xlink:href="#DejaVuSans-34" transform="translate(226.953125 0)"/>
       <use xlink:href="#DejaVuSans-20" transform="translate(290.576172 0)"/>
       <use xlink:href="#DejaVuSans-31" transform="translate(322.363281 0)"/>
       <use xlink:href="#DejaVuSans-34" transform="translate(385.986328 0)"/>
      </g>
     </g>
    </g>
    <g id="xtick_2">
     <g id="line2d_3">
      <path d="M 219.205348 384.48 
L 219.205348 51.84 
" clip-path="url(#p8dac969c24)" style="fill: none; stroke: #b0b0b0; stroke-width: 0.8; stroke-linecap: square"/>
     </g>
     <g id="line2d_4">
      <g>
       <use xlink:href="#m3156fdf47a" x="219.205348" y="384.48" style="stroke: #000000; stroke-width: 0.8"/>
      </g>
     </g>
     <g id="text_2">
      <!-- 01-14 15 -->
      <g transform="translate(196.724879 399.078438) scale(0.1 -0.1)">
       <defs>
        <path id="DejaVuSans-35" d="M 691 4666 
L 3169 4666 
L 3169 4134 
L 1269 4134 
L 1269 2991 
Q 1406 3038 1543 3061 
Q 1681 3084 1819 3084 
Q 2600 3084 3056 2656 
Q 3513 2228 3513 1497 
Q 3513 744 3044 326 
Q 2575 -91 1722 -91 
Q 1428 -91 1123 -41 
Q 819 9 494 109 
L 494 744 
Q 775 591 1075 516 
Q 1375 441 1709 441 
Q 2250 441 2565 725 
Q 2881 1009 2881 1497 
Q 2881 1984 2565 2268 
Q 2250 2553 1709 2553 
Q 1456 2553 1204 2497 
Q 953 2441 691 2322 
L 691 4666 
z
" transform="scale(0.015625)"/>
       </defs>
       <use xlink:href="#DejaVuSans-30"/>
       <use xlink:href="#DejaVuSans-31" transform="translate(63.623047 0)"/>
       <use xlink:href="#DejaVuSans-2d" transform="translate(127.246094 0)"/>
       <use xlink:href="#DejaVuSans-31" transform="translate(163.330078 0)"/>
       <use xlink:href="#DejaVuSans-34" transform="translate(226.953125 0)"/>
       <use xlink:href="#DejaVuSans-20" transform="translate(290.576172 0)"/>
       <use xlink:href="#DejaVuSans-31" transform="translate(322.363281 0)"/>
       <use xlink:href="#DejaVuSans-35" transform="translate(385.986328 0)"/>
      </g>
     </g>
    </g>
    <g id="xtick_3">
     <g id="line2d_5">
      <path d="M 290.820321 384.48 
L 290.820321 51.84 
" clip-path="url(#p8dac969c24)" style="fill: none; stroke: #b0b0b0; stroke-width: 0.8; stroke-linecap: square"/>
     </g>
     <g id="line2d_6">
      <g>
       <use xlink:href="#m3156fdf47a" x="290.820321" y="384.48" style="stroke: #000000; stroke-width: 0.8"/>
      </g>
     </g>
     <g id="text_3">
      <!-- 01-14 16 -->
      <g transform="translate(268.339852 399.078438) scale(0.1 -0.1)">
       <defs>
        <path id="DejaVuSans-36" d="M 2113 2584 
Q 1688 2584 1439 2293 
Q 1191 2003 1191 1497 
Q 1191 994 1439 701 
Q 1688 409 2113 409 
Q 2538 409 2786 701 
Q 3034 994 3034 1497 
Q 3034 2003 2786 2293 
Q 2538 2584 2113 2584 
z
M 3366 4563 
L 3366 3988 
Q 3128 4100 2886 4159 
Q 2644 4219 2406 4219 
Q 1781 4219 1451 3797 
Q 1122 3375 1075 2522 
Q 1259 2794 1537 2939 
Q 1816 3084 2150 3084 
Q 2853 3084 3261 2657 
Q 3669 2231 3669 1497 
Q 3669 778 3244 343 
Q 2819 -91 2113 -91 
Q 1303 -91 875 529 
Q 447 1150 447 2328 
Q 447 3434 972 4092 
Q 1497 4750 2381 4750 
Q 2619 4750 2861 4703 
Q 3103 4656 3366 4563 
z
" transform="scale(0.015625)"/>
       </defs>
       <use xlink:href="#DejaVuSans-30"/>
       <use xlink:href="#DejaVuSans-31" transform="translate(63.623047 0)"/>
       <use xlink:href="#DejaVuSans-2d" transform="translate(127.246094 0)"/>
       <use xlink:href="#DejaVuSans-31" transform="translate(163.330078 0)"/>
       <use xlink:href="#DejaVuSans-34" transform="translate(226.953125 0)"/>
       <use xlink:href="#DejaVuSans-20" transform="translate(290.576172 0)"/>
       <use xlink:href="#DejaVuSans-31" transform="translate(322.363281 0)"/>
       <use xlink:href="#DejaVuSans-36" transform="translate(385.986328 0)"/>
      </g>
     </g>
    </g>
    <g id="xtick_4">
     <g id="line2d_7">
      <path d="M 362.435294 384.48 
L 362.435294 51.84 
" clip-path="url(#p8dac969c24)" style="fill: none; stroke: #b0b0b0; stroke-width: 0.8; stroke-linecap: square"/>
     </g>
     <g id="line2d_8">
      <g>
       <use xlink:href="#m3156fdf47a" x="362.435294" y="384.48" style="stroke: #000000; stroke-width: 0.8"/>
      </g>
     </g>
     <g id="text_4">
      <!-- 01-14 17 -->
      <g transform="translate(339.954825 399.078438) scale(0.1 -0.1)">
       <defs>
        <path id="DejaVuSans-37" d="M 525 4666 
L 3525 4666 
L 3525 4397 
L 1831 0 
L 1172 0 
L 2766 4134 
L 525 4134 
L 525 4666 
z
" transform="scale(0.015625)"/>
       </defs>
       <use xlink:href="#DejaVuSans-30"/>
       <use xlink:href="#DejaVuSans-31" transform="translate(63.623047 0)"/>
       <use xlink:href="#DejaVuSans-2d" transform="translate(127.246094 0)"/>
       <use xlink:href="#DejaVuSans-31" transform="translate(163.330078 0)"/>
       <use xlink:href="#DejaVuSans-34" transform="translate(226.953125 0)"/>
       <use xlink:href="#DejaVuSans-20" transform="translate(290.576172 0)"/>
       <use xlink:href="#DejaVuSans-31" transform="translate(322.363281 0)"/>
       <use xlink:href="#DejaVuSans-37" transform="translate(385.986328 0)"/>
      </g>
     </g>
    </g>
    <g id="xtick_5">
     <g id="line2d_9">
      <path d="M 434.050267 384.48 
L 434.050267 51.84 
" clip-path="url(#p8dac969c24)" style="fill: none; stroke: #b0b0b0; stroke-width: 0.8; stroke-linecap: square"/>
     </g>
     <g id="line2d_10">
      <g>
       <use xlink:href="#m3156fdf47a" x="434.050267" y="384.48" style="stroke: #000000; stroke-width: 0.8"/>
      </g>
     </g>
     <g id="text_5">
      <!-- 01-14 18 -->
      <g transform="translate(411.569799 399.078438) scale(0.1 -0.1)">
       <defs>
        <path id="DejaVuSans-38" d="M 2034 2216 
Q 1584 2216 1326 1975 
Q 1069 1734 1069 1313 
Q 1069 891 1326 650 
Q 1584 409 2034 409 
Q 2484 409 2743 651 
Q 3003 894 3003 1313 
Q 3003 1734 2745 1975 
Q 2488 2216 2034 2216 
z
M 1403 2484 
Q 997 2584 770 2862 
Q 544 3141 544 3541 
Q 544 4100 942 4425 
Q 1341 4750 2034 4750 
Q 2731 4750 3128 4425 
Q 3525 4100 3525 3541 
Q 3525 3141 3298 2862 
Q 3072 2584 2669 2484 
Q 3125 2378 3379 2068 
Q 3634 1759 3634 1313 
Q 3634 634 3220 271 
Q 2806 -91 2034 -91 
Q 1263 -91 848 271 
Q 434 634 434 1313 
Q 434 1759 690 2068 
Q 947 2378 1403 2484 
z
M 1172 3481 
Q 1172 3119 1398 2916 
Q 1625 2713 2034 2713 
Q 2441 2713 2670 2916 
Q 2900 3119 2900 3481 
Q 2900 3844 2670 4047 
Q 2441 4250 2034 4250 
Q 1625 4250 1398 4047 
Q 1172 3844 1172 3481 
z
" transform="scale(0.015625)"/>
       </defs>
       <use xlink:href="#DejaVuSans-30"/>
       <use xlink:href="#DejaVuSans-31" transform="translate(63.623047 0)"/>
       <use xlink:href="#DejaVuSans-2d" transform="translate(127.246094 0)"/>
       <use xlink:href="#DejaVuSans-31" transform="translate(163.330078 0)"/>
       <use xlink:href="#DejaVuSans-34" transform="translate(226.953125 0)"/>
       <use xlink:href="#DejaVuSans-20" transform="translate(290.576172 0)"/>
       <use xlink:href="#DejaVuSans-31" transform="translate(322.363281 0)"/>
       <use xlink:href="#DejaVuSans-38" transform="translate(385.986328 0)"/>
      </g>
     </g>
    </g>
    <g id="xtick_6">
     <g id="line2d_11">
      <path d="M 505.665241 384.48 
L 505.665241 51.84 
" clip-path="url(#p8dac969c24)" style="fill: none; stroke: #b0b0b0; stroke-width: 0.8; stroke-linecap: square"/>
     </g>
     <g id="line2d_12">
      <g>
       <use xlink:href="#m3156fdf47a" x="505.665241" y="384.48" style="stroke: #000000; stroke-width: 0.8"/>
      </g>
     </g>
     <g id="text_6">
      <!-- 01-14 19 -->
      <g transform="translate(483.184772 399.078438) scale(0.1 -0.1)">
       <defs>
        <path id="DejaVuSans-39" d="M 703 97 
L 703 672 
Q 941 559 1184 500 
Q 1428 441 1663 441 
Q 2288 441 2617 861 
Q 2947 1281 2994 2138 
Q 2813 1869 2534 1725 
Q 2256 1581 1919 1581 
Q 1219 1581 811 2004 
Q 403 2428 403 3163 
Q 403 3881 828 4315 
Q 1253 4750 1959 4750 
Q 2769 4750 3195 4129 
Q 3622 3509 3622 2328 
Q 3622 1225 3098 567 
Q 2575 -91 1691 -91 
Q 1453 -91 1209 -44 
Q 966 3 703 97 
z
M 1959 2075 
Q 2384 2075 2632 2365 
Q 2881 2656 2881 3163 
Q 2881 3666 2632 3958 
Q 2384 4250 1959 4250 
Q 1534 4250 1286 3958 
Q 1038 3666 1038 3163 
Q 1038 2656 1286 2365 
Q 1534 2075 1959 2075 
z
" transform="scale(0.015625)"/>
       </defs>
       <use xlink:href="#DejaVuSans-30"/>
       <use xlink:href="#DejaVuSans-31" transform="translate(63.623047 0)"/>
       <use xlink:href="#DejaVuSans-2d" transform="translate(127.246094 0)"/>
       <use xlink:href="#DejaVuSans-31" transform="translate(163.330078 0)"/>
       <use xlink:href="#DejaVuSans-34" transform="translate(226.953125 0)"/>
       <use xlink:href="#DejaVuSans-20" transform="translate(290.576172 0)"/>
       <use xlink:href="#DejaVuSans-31" transform="translate(322.363281 0)"/>
       <use xlink:href="#DejaVuSans-39" transform="translate(385.986328 0)"/>
      </g>
     </g>
    </g>
    <g id="xtick_7">
     <g id="line2d_13">
      <path d="M 577.280214 384.48 
L 577.280214 51.84 
" clip-path="url(#p8dac969c24)" style="fill: none; stroke: #b0b0b0; stroke-width: 0.8; stroke-linecap: square"/>
     </g>
     <g id="line2d_14">
      <g>
       <use xlink:href="#m3156fdf47a" x="577.280214" y="384.48" style="stroke: #000000; stroke-width: 0.8"/>
      </g>
     </g>
     <g id="text_7">
      <!-- 01-14 20 -->
      <g transform="translate(554.799745 399.078438) scale(0.1 -0.1)">
       <defs>
        <path id="DejaVuSans-32" d="M 1228 531 
L 3431 531 
L 3431 0 
L 469 0 
L 469 531 
Q 828 903 1448 1529 
Q 2069 2156 2228 2338 
Q 2531 2678 2651 2914 
Q 2772 3150 2772 3378 
Q 2772 3750 2511 3984 
Q 2250 4219 1831 4219 
Q 1534 4219 1204 4116 
Q 875 4013 500 3803 
L 500 4441 
Q 881 4594 1212 4672 
Q 1544 4750 1819 4750 
Q 2544 4750 2975 4387 
Q 3406 4025 3406 3419 
Q 3406 3131 3298 2873 
Q 3191 2616 2906 2266 
Q 2828 2175 2409 1742 
Q 1991 1309 1228 531 
z
" transform="scale(0.015625)"/>
       </defs>
       <use xlink:href="#DejaVuSans-30"/>
       <use xlink:href="#DejaVuSans-31" transform="translate(63.623047 0)"/>
       <use xlink:href="#DejaVuSans-2d" transform="translate(127.246094 0)"/>
       <use xlink:href="#DejaVuSans-31" transform="translate(163.330078 0)"/>
       <use xlink:href="#DejaVuSans-34" transform="translate(226.953125 0)"/>
       <use xlink:href="#DejaVuSans-20" transform="translate(290.576172 0)"/>
       <use xlink:href="#DejaVuSans-32" transform="translate(322.363281 0)"/>
       <use xlink:href="#DejaVuSans-30" transform="translate(385.986328 0)"/>
      </g>
     </g>
    </g>
    <g id="text_8">
     <!-- Date and Time -->
     <g transform="translate(332.230469 412.756563) scale(0.1 -0.1)">
      <defs>
       <path id="DejaVuSans-44" d="M 1259 4147 
L 1259 519 
L 2022 519 
Q 2988 519 3436 956 
Q 3884 1394 3884 2338 
Q 3884 3275 3436 3711 
Q 2988 4147 2022 4147 
L 1259 4147 
z
M 628 4666 
L 1925 4666 
Q 3281 4666 3915 4102 
Q 4550 3538 4550 2338 
Q 4550 1131 3912 565 
Q 3275 0 1925 0 
L 628 0 
L 628 4666 
z
" transform="scale(0.015625)"/>
       <path id="DejaVuSans-61" d="M 2194 1759 
Q 1497 1759 1228 1600 
Q 959 1441 959 1056 
Q 959 750 1161 570 
Q 1363 391 1709 391 
Q 2188 391 2477 730 
Q 2766 1069 2766 1631 
L 2766 1759 
L 2194 1759 
z
M 3341 1997 
L 3341 0 
L 2766 0 
L 2766 531 
Q 2569 213 2275 61 
Q 1981 -91 1556 -91 
Q 1019 -91 701 211 
Q 384 513 384 1019 
Q 384 1609 779 1909 
Q 1175 2209 1959 2209 
L 2766 2209 
L 2766 2266 
Q 2766 2663 2505 2880 
Q 2244 3097 1772 3097 
Q 1472 3097 1187 3025 
Q 903 2953 641 2809 
L 641 3341 
Q 956 3463 1253 3523 
Q 1550 3584 1831 3584 
Q 2591 3584 2966 3190 
Q 3341 2797 3341 1997 
z
" transform="scale(0.015625)"/>
       <path id="DejaVuSans-74" d="M 1172 4494 
L 1172 3500 
L 2356 3500 
L 2356 3053 
L 1172 3053 
L 1172 1153 
Q 1172 725 1289 603 
Q 1406 481 1766 481 
L 2356 481 
L 2356 0 
L 1766 0 
Q 1100 0 847 248 
Q 594 497 594 1153 
L 594 3053 
L 172 3053 
L 172 3500 
L 594 3500 
L 594 4494 
L 1172 4494 
z
" transform="scale(0.015625)"/>
       <path id="DejaVuSans-65" d="M 3597 1894 
L 3597 1613 
L 953 1613 
Q 991 1019 1311 708 
Q 1631 397 2203 397 
Q 2534 397 2845 478 
Q 3156 559 3463 722 
L 3463 178 
Q 3153 47 2828 -22 
Q 2503 -91 2169 -91 
Q 1331 -91 842 396 
Q 353 884 353 1716 
Q 353 2575 817 3079 
Q 1281 3584 2069 3584 
Q 2775 3584 3186 3129 
Q 3597 2675 3597 1894 
z
M 3022 2063 
Q 3016 2534 2758 2815 
Q 2500 3097 2075 3097 
Q 1594 3097 1305 2825 
Q 1016 2553 972 2059 
L 3022 2063 
z
" transform="scale(0.015625)"/>
       <path id="DejaVuSans-6e" d="M 3513 2113 
L 3513 0 
L 2938 0 
L 2938 2094 
Q 2938 2591 2744 2837 
Q 2550 3084 2163 3084 
Q 1697 3084 1428 2787 
Q 1159 2491 1159 1978 
L 1159 0 
L 581 0 
L 581 3500 
L 1159 3500 
L 1159 2956 
Q 1366 3272 1645 3428 
Q 1925 3584 2291 3584 
Q 2894 3584 3203 3211 
Q 3513 2838 3513 2113 
z
" transform="scale(0.015625)"/>
       <path id="DejaVuSans-64" d="M 2906 2969 
L 2906 4863 
L 3481 4863 
L 3481 0 
L 2906 0 
L 2906 525 
Q 2725 213 2448 61 
Q 2172 -91 1784 -91 
Q 1150 -91 751 415 
Q 353 922 353 1747 
Q 353 2572 751 3078 
Q 1150 3584 1784 3584 
Q 2172 3584 2448 3432 
Q 2725 3281 2906 2969 
z
M 947 1747 
Q 947 1113 1208 752 
Q 1469 391 1925 391 
Q 2381 391 2643 752 
Q 2906 1113 2906 1747 
Q 2906 2381 2643 2742 
Q 2381 3103 1925 3103 
Q 1469 3103 1208 2742 
Q 947 2381 947 1747 
z
" transform="scale(0.015625)"/>
       <path id="DejaVuSans-54" d="M -19 4666 
L 3928 4666 
L 3928 4134 
L 2272 4134 
L 2272 0 
L 1638 0 
L 1638 4134 
L -19 4134 
L -19 4666 
z
" transform="scale(0.015625)"/>
       <path id="DejaVuSans-69" d="M 603 3500 
L 1178 3500 
L 1178 0 
L 603 0 
L 603 3500 
z
M 603 4863 
L 1178 4863 
L 1178 4134 
L 603 4134 
L 603 4863 
z
" transform="scale(0.015625)"/>
       <path id="DejaVuSans-6d" d="M 3328 2828 
Q 3544 3216 3844 3400 
Q 4144 3584 4550 3584 
Q 5097 3584 5394 3201 
Q 5691 2819 5691 2113 
L 5691 0 
L 5113 0 
L 5113 2094 
Q 5113 2597 4934 2840 
Q 4756 3084 4391 3084 
Q 3944 3084 3684 2787 
Q 3425 2491 3425 1978 
L 3425 0 
L 2847 0 
L 2847 2094 
Q 2847 2600 2669 2842 
Q 2491 3084 2119 3084 
Q 1678 3084 1418 2786 
Q 1159 2488 1159 1978 
L 1159 0 
L 581 0 
L 581 3500 
L 1159 3500 
L 1159 2956 
Q 1356 3278 1631 3431 
Q 1906 3584 2284 3584 
Q 2666 3584 2933 3390 
Q 3200 3197 3328 2828 
z
" transform="scale(0.015625)"/>
      </defs>
      <use xlink:href="#DejaVuSans-44"/>
      <use xlink:href="#DejaVuSans-61" transform="translate(77.001953 0)"/>
      <use xlink:href="#DejaVuSans-74" transform="translate(138.28125 0)"/>
      <use xlink:href="#DejaVuSans-65" transform="translate(177.490234 0)"/>
      <use xlink:href="#DejaVuSans-20" transform="translate(239.013672 0)"/>
      <use xlink:href="#DejaVuSans-61" transform="translate(270.800781 0)"/>
      <use xlink:href="#DejaVuSans-6e" transform="translate(332.080078 0)"/>
      <use xlink:href="#DejaVuSans-64" transform="translate(395.458984 0)"/>
      <use xlink:href="#DejaVuSans-20" transform="translate(458.935547 0)"/>
      <use xlink:href="#DejaVuSans-54" transform="translate(490.722656 0)"/>
      <use xlink:href="#DejaVuSans-69" transform="translate(548.681641 0)"/>
      <use xlink:href="#DejaVuSans-6d" transform="translate(576.464844 0)"/>
      <use xlink:href="#DejaVuSans-65" transform="translate(673.876953 0)"/>
     </g>
    </g>
   </g>
   <g id="matplotlib.axis_2">
    <g id="ytick_1">
     <g id="line2d_15">
      <path d="M 90 370.50981 
L 648 370.50981 
" clip-path="url(#p8dac969c24)" style="fill: none; stroke: #b0b0b0; stroke-width: 0.8; stroke-linecap: square"/>
     </g>
     <g id="line2d_16">
      <defs>
       <path id="m2cddb60b6b" d="M 0 0 
L -3.5 0 
" style="stroke: #000000; stroke-width: 0.8"/>
      </defs>
      <g>
       <use xlink:href="#m2cddb60b6b" x="90" y="370.50981" style="stroke: #000000; stroke-width: 0.8"/>
      </g>
     </g>
     <g id="text_9">
      <!-- 0 -->
      <g transform="translate(76.6375 374.309029) scale(0.1 -0.1)">
       <use xlink:href="#DejaVuSans-30"/>
      </g>
     </g>
    </g>
    <g id="ytick_2">
     <g id="line2d_17">
      <path d="M 90 313.019316 
L 648 313.019316 
" clip-path="url(#p8dac969c24)" style="fill: none; stroke: #b0b0b0; stroke-width: 0.8; stroke-linecap: square"/>
     </g>
     <g id="line2d_18">
      <g>
       <use xlink:href="#m2cddb60b6b" x="90" y="313.019316" style="stroke: #000000; stroke-width: 0.8"/>
      </g>
     </g>
     <g id="text_10">
      <!-- 50 -->
      <g transform="translate(70.275 316.818534) scale(0.1 -0.1)">
       <use xlink:href="#DejaVuSans-35"/>
       <use xlink:href="#DejaVuSans-30" transform="translate(63.623047 0)"/>
      </g>
     </g>
    </g>
    <g id="ytick_3">
     <g id="line2d_19">
      <path d="M 90 255.528821 
L 648 255.528821 
" clip-path="url(#p8dac969c24)" style="fill: none; stroke: #b0b0b0; stroke-width: 0.8; stroke-linecap: square"/>
     </g>
     <g id="line2d_20">
      <g>
       <use xlink:href="#m2cddb60b6b" x="90" y="255.528821" style="stroke: #000000; stroke-width: 0.8"/>
      </g>
     </g>
     <g id="text_11">
      <!-- 100 -->
      <g transform="translate(63.9125 259.32804) scale(0.1 -0.1)">
       <use xlink:href="#DejaVuSans-31"/>
       <use xlink:href="#DejaVuSans-30" transform="translate(63.623047 0)"/>
       <use xlink:href="#DejaVuSans-30" transform="translate(127.246094 0)"/>
      </g>
     </g>
    </g>
    <g id="ytick_4">
     <g id="line2d_21">
      <path d="M 90 198.038327 
L 648 198.038327 
" clip-path="url(#p8dac969c24)" style="fill: none; stroke: #b0b0b0; stroke-width: 0.8; stroke-linecap: square"/>
     </g>
     <g id="line2d_22">
      <g>
       <use xlink:href="#m2cddb60b6b" x="90" y="198.038327" style="stroke: #000000; stroke-width: 0.8"/>
      </g>
     </g>
     <g id="text_12">
      <!-- 150 -->
      <g transform="translate(63.9125 201.837546) scale(0.1 -0.1)">
       <use xlink:href="#DejaVuSans-31"/>
       <use xlink:href="#DejaVuSans-35" transform="translate(63.623047 0)"/>
       <use xlink:href="#DejaVuSans-30" transform="translate(127.246094 0)"/>
      </g>
     </g>
    </g>
    <g id="ytick_5">
     <g id="line2d_23">
      <path d="M 90 140.547833 
L 648 140.547833 
" clip-path="url(#p8dac969c24)" style="fill: none; stroke: #b0b0b0; stroke-width: 0.8; stroke-linecap: square"/>
     </g>
     <g id="line2d_24">
      <g>
       <use xlink:href="#m2cddb60b6b" x="90" y="140.547833" style="stroke: #000000; stroke-width: 0.8"/>
      </g>
     </g>
     <g id="text_13">
      <!-- 200 -->
      <g transform="translate(63.9125 144.347051) scale(0.1 -0.1)">
       <use xlink:href="#DejaVuSans-32"/>
       <use xlink:href="#DejaVuSans-30" transform="translate(63.623047 0)"/>
       <use xlink:href="#DejaVuSans-30" transform="translate(127.246094 0)"/>
      </g>
     </g>
    </g>
    <g id="ytick_6">
     <g id="line2d_25">
      <path d="M 90 83.057338 
L 648 83.057338 
" clip-path="url(#p8dac969c24)" style="fill: none; stroke: #b0b0b0; stroke-width: 0.8; stroke-linecap: square"/>
     </g>
     <g id="line2d_26">
      <g>
       <use xlink:href="#m2cddb60b6b" x="90" y="83.057338" style="stroke: #000000; stroke-width: 0.8"/>
      </g>
     </g>
     <g id="text_14">
      <!-- 250 -->
      <g transform="translate(63.9125 86.856557) scale(0.1 -0.1)">
       <use xlink:href="#DejaVuSans-32"/>
       <use xlink:href="#DejaVuSans-35" transform="translate(63.623047 0)"/>
       <use xlink:href="#DejaVuSans-30" transform="translate(127.246094 0)"/>
      </g>
     </g>
    </g>
    <g id="text_15">
     <!-- Votes -->
     <g transform="translate(57.832812 231.893594) rotate(-90) scale(0.1 -0.1)">
      <defs>
       <path id="DejaVuSans-56" d="M 1831 0 
L 50 4666 
L 709 4666 
L 2188 738 
L 3669 4666 
L 4325 4666 
L 2547 0 
L 1831 0 
z
" transform="scale(0.015625)"/>
       <path id="DejaVuSans-6f" d="M 1959 3097 
Q 1497 3097 1228 2736 
Q 959 2375 959 1747 
Q 959 1119 1226 758 
Q 1494 397 1959 397 
Q 2419 397 2687 759 
Q 2956 1122 2956 1747 
Q 2956 2369 2687 2733 
Q 2419 3097 1959 3097 
z
M 1959 3584 
Q 2709 3584 3137 3096 
Q 3566 2609 3566 1747 
Q 3566 888 3137 398 
Q 2709 -91 1959 -91 
Q 1206 -91 779 398 
Q 353 888 353 1747 
Q 353 2609 779 3096 
Q 1206 3584 1959 3584 
z
" transform="scale(0.015625)"/>
       <path id="DejaVuSans-73" d="M 2834 3397 
L 2834 2853 
Q 2591 2978 2328 3040 
Q 2066 3103 1784 3103 
Q 1356 3103 1142 2972 
Q 928 2841 928 2578 
Q 928 2378 1081 2264 
Q 1234 2150 1697 2047 
L 1894 2003 
Q 2506 1872 2764 1633 
Q 3022 1394 3022 966 
Q 3022 478 2636 193 
Q 2250 -91 1575 -91 
Q 1294 -91 989 -36 
Q 684 19 347 128 
L 347 722 
Q 666 556 975 473 
Q 1284 391 1588 391 
Q 1994 391 2212 530 
Q 2431 669 2431 922 
Q 2431 1156 2273 1281 
Q 2116 1406 1581 1522 
L 1381 1569 
Q 847 1681 609 1914 
Q 372 2147 372 2553 
Q 372 3047 722 3315 
Q 1072 3584 1716 3584 
Q 2034 3584 2315 3537 
Q 2597 3491 2834 3397 
z
" transform="scale(0.015625)"/>
      </defs>
      <use xlink:href="#DejaVuSans-56"/>
      <use xlink:href="#DejaVuSans-6f" transform="translate(60.658203 0)"/>
      <use xlink:href="#DejaVuSans-74" transform="translate(121.839844 0)"/>
      <use xlink:href="#DejaVuSans-65" transform="translate(161.048828 0)"/>
      <use xlink:href="#DejaVuSans-73" transform="translate(222.572266 0)"/>
     </g>
    </g>
   </g>
   <g id="line2d_27">
    <path d="M 115.363636 349.813232 
L 127.299465 349.813232 
L 128.493048 348.663422 
L 140.428877 348.663422 
L 141.62246 346.363802 
L 152.364706 346.363802 
L 153.558289 345.213992 
L 159.526203 345.213992 
L 160.719786 344.064183 
L 165.494118 344.064183 
L 166.687701 342.914373 
L 170.268449 342.914373 
L 171.462032 341.764563 
L 188.172193 341.764563 
L 189.365775 340.614753 
L 202.495187 340.614753 
L 204.882353 338.315133 
L 207.269519 338.315133 
L 208.463102 337.165323 
L 219.205348 337.165323 
L 221.592513 334.865703 
L 235.915508 334.865703 
L 237.109091 333.715894 
L 240.68984 333.715894 
L 241.883422 332.566084 
L 243.077005 332.566084 
L 244.270588 331.416274 
L 276.497326 331.416274 
L 277.690909 330.266464 
L 292.013904 330.266464 
L 293.207487 329.116654 
L 301.562567 329.116654 
L 302.75615 327.966844 
L 303.949733 325.667224 
L 305.143316 325.667224 
L 307.530481 323.367605 
L 326.627807 323.367605 
L 327.82139 322.217795 
L 334.982888 322.217795 
L 336.176471 321.067985 
L 340.950802 321.067985 
L 342.144385 319.918175 
L 354.080214 319.918175 
L 355.273797 318.768365 
L 357.660963 318.768365 
L 358.854545 317.618555 
L 362.435294 317.618555 
L 363.628877 316.468745 
L 373.17754 316.468745 
L 374.371123 315.318935 
L 375.564706 315.318935 
L 376.758289 314.169125 
L 388.694118 314.169125 
L 389.887701 313.019316 
L 398.242781 313.019316 
L 399.436364 311.869506 
L 400.629947 311.869506 
L 403.017112 309.569886 
L 429.275936 309.569886 
L 430.469519 308.420076 
L 449.566845 308.420076 
L 450.760428 307.270266 
L 451.954011 307.270266 
L 453.147594 306.120456 
L 463.88984 306.120456 
L 465.083422 304.970646 
L 466.277005 304.970646 
L 467.470588 303.820837 
L 473.438503 303.820837 
L 474.632086 302.671027 
L 478.212834 302.671027 
L 480.6 300.371407 
L 481.793583 300.371407 
L 482.987166 299.221597 
L 485.374332 299.221597 
L 486.567914 298.071787 
L 488.95508 298.071787 
L 490.148663 296.921977 
L 492.535829 296.921977 
L 493.729412 295.772167 
L 522.375401 295.772167 
L 523.568984 294.622357 
L 535.504813 294.622357 
L 536.698396 293.472548 
L 543.859893 293.472548 
L 545.053476 292.322738 
L 546.247059 292.322738 
L 547.440642 291.172928 
L 548.634225 291.172928 
L 553.408556 286.573688 
L 555.795722 286.573688 
L 556.989305 284.274068 
L 566.537968 284.274068 
L 568.925134 281.974449 
L 571.312299 281.974449 
L 572.505882 280.824639 
L 577.280214 280.824639 
L 578.473797 279.674829 
L 586.828877 279.674829 
L 588.02246 278.525019 
L 590.409626 278.525019 
L 591.603209 277.375209 
L 598.764706 277.375209 
L 601.151872 275.075589 
L 609.506952 275.075589 
L 610.700535 273.925779 
L 614.281283 273.925779 
L 615.474866 272.77597 
L 617.862032 272.77597 
L 619.055615 270.47635 
L 622.636364 270.47635 
L 622.636364 270.47635 
" clip-path="url(#p8dac969c24)" style="fill: none; stroke: #1f77b4; stroke-width: 1.5; stroke-linecap: square"/>
   </g>
   <g id="line2d_28">
    <path d="M 115.363636 276.225399 
L 116.557219 275.075589 
L 120.137968 275.075589 
L 121.331551 273.925779 
L 122.525134 273.925779 
L 123.718717 272.77597 
L 124.912299 272.77597 
L 127.299465 270.47635 
L 128.493048 268.17673 
L 129.686631 268.17673 
L 132.073797 265.87711 
L 133.26738 265.87711 
L 134.460963 261.277871 
L 135.654545 258.978251 
L 136.848128 254.379011 
L 138.041711 250.929582 
L 141.62246 250.929582 
L 142.816043 247.480152 
L 144.009626 245.180532 
L 146.396791 242.880913 
L 147.590374 240.581293 
L 149.97754 238.281673 
L 151.171123 235.982053 
L 154.751872 235.982053 
L 155.945455 230.233004 
L 157.139037 227.933384 
L 158.33262 226.783574 
L 159.526203 224.483954 
L 160.719786 223.334144 
L 161.913369 223.334144 
L 163.106952 219.884715 
L 164.300535 219.884715 
L 165.494118 217.585095 
L 166.687701 216.435285 
L 167.881283 216.435285 
L 169.074866 215.285475 
L 171.462032 215.285475 
L 172.655615 214.135665 
L 175.042781 214.135665 
L 176.236364 211.836046 
L 177.429947 211.836046 
L 178.623529 210.686236 
L 183.397861 210.686236 
L 184.591444 209.536426 
L 188.172193 209.536426 
L 189.365775 208.386616 
L 190.559358 208.386616 
L 191.752941 206.086996 
L 192.946524 206.086996 
L 194.140107 203.787376 
L 195.33369 202.637567 
L 198.914439 202.637567 
L 200.108021 200.337947 
L 201.301604 199.188137 
L 202.495187 195.738707 
L 204.882353 193.439087 
L 214.431016 193.439087 
L 215.624599 189.989658 
L 216.818182 189.989658 
L 219.205348 187.690038 
L 220.39893 187.690038 
L 223.979679 184.240608 
L 226.366845 184.240608 
L 227.560428 183.090798 
L 229.947594 183.090798 
L 233.528342 179.641369 
L 235.915508 179.641369 
L 237.109091 178.491559 
L 243.077005 178.491559 
L 244.270588 177.341749 
L 246.657754 177.341749 
L 247.851337 176.191939 
L 262.174332 176.191939 
L 263.367914 173.892319 
L 265.75508 173.892319 
L 268.142246 171.5927 
L 269.335829 171.5927 
L 270.529412 170.44289 
L 277.690909 170.44289 
L 281.271658 166.99346 
L 282.465241 166.99346 
L 283.658824 165.84365 
L 284.852406 163.54403 
L 286.045989 163.54403 
L 287.239572 162.394221 
L 288.433155 162.394221 
L 293.207487 157.794981 
L 295.594652 157.794981 
L 296.788235 155.495361 
L 300.368984 155.495361 
L 301.562567 154.345551 
L 305.143316 154.345551 
L 306.336898 153.195741 
L 307.530481 153.195741 
L 308.724064 149.746312 
L 312.304813 149.746312 
L 313.498396 148.596502 
L 314.691979 146.296882 
L 317.079144 146.296882 
L 318.272727 145.147072 
L 320.659893 145.147072 
L 321.853476 143.997262 
L 323.047059 143.997262 
L 329.014973 138.248213 
L 331.402139 138.248213 
L 334.982888 134.798783 
L 338.563636 134.798783 
L 339.757219 132.499163 
L 340.950802 132.499163 
L 342.144385 131.349354 
L 345.725134 131.349354 
L 346.918717 130.199544 
L 357.660963 130.199544 
L 358.854545 129.049734 
L 367.209626 129.049734 
L 368.403209 127.899924 
L 370.790374 127.899924 
L 373.17754 125.600304 
L 379.145455 125.600304 
L 380.339037 124.450494 
L 386.306952 124.450494 
L 389.887701 121.001065 
L 405.404278 121.001065 
L 406.597861 118.701445 
L 407.791444 117.551635 
L 436.437433 117.551635 
L 437.631016 116.401825 
L 444.792513 116.401825 
L 447.179679 114.102205 
L 449.566845 114.102205 
L 450.760428 112.952395 
L 451.954011 112.952395 
L 454.341176 110.652776 
L 455.534759 110.652776 
L 456.728342 109.502966 
L 457.921925 109.502966 
L 460.309091 104.903726 
L 461.502674 103.753916 
L 467.470588 103.753916 
L 468.664171 100.304487 
L 469.857754 98.004867 
L 472.24492 98.004867 
L 474.632086 95.705247 
L 480.6 95.705247 
L 482.987166 93.405627 
L 485.374332 93.405627 
L 486.567914 92.255817 
L 488.95508 92.255817 
L 490.148663 91.106008 
L 491.342246 91.106008 
L 492.535829 89.956198 
L 493.729412 89.956198 
L 494.922995 88.806388 
L 496.116578 88.806388 
L 497.31016 87.656578 
L 499.697326 87.656578 
L 500.890909 85.356958 
L 506.858824 85.356958 
L 509.245989 83.057338 
L 521.181818 83.057338 
L 522.375401 81.907529 
L 523.568984 81.907529 
L 524.762567 80.757719 
L 525.95615 80.757719 
L 529.536898 77.308289 
L 531.924064 77.308289 
L 533.117647 76.158479 
L 556.989305 76.158479 
L 559.376471 73.858859 
L 564.150802 73.858859 
L 565.344385 72.709049 
L 566.537968 72.709049 
L 567.731551 71.55924 
L 568.925134 71.55924 
L 570.118717 70.40943 
L 596.37754 70.40943 
L 597.571123 69.25962 
L 621.442781 69.25962 
L 622.636364 66.96 
L 622.636364 66.96 
" clip-path="url(#p8dac969c24)" style="fill: none; stroke: #ff7f0e; stroke-width: 1.5; stroke-linecap: square"/>
   </g>
   <g id="line2d_29">
    <path d="M 115.363636 334.865703 
L 120.137968 334.865703 
L 121.331551 332.566084 
L 123.718717 332.566084 
L 124.912299 331.416274 
L 126.105882 329.116654 
L 127.299465 327.966844 
L 128.493048 324.517414 
L 129.686631 322.217795 
L 130.880214 321.067985 
L 132.073797 321.067985 
L 133.26738 318.768365 
L 134.460963 315.318935 
L 139.235294 315.318935 
L 140.428877 314.169125 
L 141.62246 314.169125 
L 142.816043 311.869506 
L 146.396791 311.869506 
L 148.783957 309.569886 
L 153.558289 309.569886 
L 154.751872 308.420076 
L 159.526203 308.420076 
L 163.106952 304.970646 
L 169.074866 304.970646 
L 170.268449 303.820837 
L 173.849198 303.820837 
L 175.042781 302.671027 
L 177.429947 302.671027 
L 178.623529 300.371407 
L 188.172193 300.371407 
L 189.365775 299.221597 
L 190.559358 296.921977 
L 191.752941 295.772167 
L 192.946524 295.772167 
L 194.140107 294.622357 
L 196.527273 294.622357 
L 197.720856 293.472548 
L 200.108021 293.472548 
L 201.301604 292.322738 
L 208.463102 292.322738 
L 209.656684 291.172928 
L 210.850267 291.172928 
L 212.04385 290.023118 
L 213.237433 290.023118 
L 214.431016 288.873308 
L 218.011765 288.873308 
L 219.205348 287.723498 
L 220.39893 285.423878 
L 226.366845 285.423878 
L 229.947594 281.974449 
L 233.528342 281.974449 
L 234.721925 280.824639 
L 239.496257 280.824639 
L 240.68984 279.674829 
L 241.883422 279.674829 
L 243.077005 278.525019 
L 245.464171 278.525019 
L 246.657754 277.375209 
L 250.238503 277.375209 
L 252.625668 275.075589 
L 253.819251 275.075589 
L 255.012834 273.925779 
L 264.561497 273.925779 
L 265.75508 271.62616 
L 266.948663 270.47635 
L 276.497326 270.47635 
L 277.690909 269.32654 
L 281.271658 269.32654 
L 282.465241 268.17673 
L 286.045989 268.17673 
L 287.239572 267.02692 
L 299.175401 267.02692 
L 300.368984 265.87711 
L 305.143316 265.87711 
L 306.336898 264.7273 
L 313.498396 264.7273 
L 314.691979 263.57749 
L 317.079144 263.57749 
L 318.272727 262.427681 
L 323.047059 262.427681 
L 325.434225 260.128061 
L 348.112299 260.128061 
L 349.305882 258.978251 
L 350.499465 258.978251 
L 351.693048 257.828441 
L 355.273797 257.828441 
L 356.46738 256.678631 
L 362.435294 256.678631 
L 363.628877 255.528821 
L 366.016043 255.528821 
L 367.209626 254.379011 
L 374.371123 254.379011 
L 375.564706 255.528821 
L 376.758289 254.379011 
L 385.113369 254.379011 
L 386.306952 253.229202 
L 395.855615 253.229202 
L 397.049198 252.079392 
L 399.436364 252.079392 
L 400.629947 250.929582 
L 401.823529 250.929582 
L 403.017112 249.779772 
L 411.372193 249.779772 
L 412.565775 248.629962 
L 419.727273 248.629962 
L 420.920856 247.480152 
L 438.824599 247.480152 
L 440.018182 246.330342 
L 466.277005 246.330342 
L 467.470588 245.180532 
L 479.406417 245.180532 
L 480.6 244.030722 
L 499.697326 244.030722 
L 502.084492 241.731103 
L 523.568984 241.731103 
L 524.762567 240.581293 
L 525.95615 238.281673 
L 549.827807 238.281673 
L 551.02139 237.131863 
L 553.408556 237.131863 
L 554.602139 235.982053 
L 561.763636 235.982053 
L 562.957219 234.832243 
L 566.537968 234.832243 
L 568.925134 232.532624 
L 571.312299 232.532624 
L 572.505882 231.382814 
L 577.280214 231.382814 
L 578.473797 229.083194 
L 582.054545 229.083194 
L 583.248128 227.933384 
L 584.441711 227.933384 
L 586.828877 225.633764 
L 602.345455 225.633764 
L 603.539037 224.483954 
L 617.862032 224.483954 
L 619.055615 222.184335 
L 622.636364 222.184335 
L 622.636364 222.184335 
" clip-path="url(#p8dac969c24)" style="fill: none; stroke: #2ca02c; stroke-width: 1.5; stroke-linecap: square"/>
   </g>
   <g id="line2d_30">
    <path d="M 115.363636 369.36 
L 410.17861 369.36 
L 411.372193 368.21019 
L 622.636364 368.21019 
L 622.636364 368.21019 
" clip-path="url(#p8dac969c24)" style="fill: none; stroke: #d62728; stroke-width: 1.5; stroke-linecap: square"/>
   </g>
   <g id="line2d_31">
    <path d="M 115.363636 344.064183 
L 118.944385 344.064183 
L 120.137968 342.914373 
L 127.299465 342.914373 
L 128.493048 341.764563 
L 135.654545 341.764563 
L 136.848128 340.614753 
L 163.106952 340.614753 
L 164.300535 339.464943 
L 207.269519 339.464943 
L 209.656684 337.165323 
L 219.205348 337.165323 
L 220.39893 336.015513 
L 225.173262 336.015513 
L 226.366845 334.865703 
L 228.754011 334.865703 
L 229.947594 333.715894 
L 260.980749 333.715894 
L 262.174332 332.566084 
L 311.11123 332.566084 
L 312.304813 331.416274 
L 467.470588 331.416274 
L 468.664171 330.266464 
L 469.857754 330.266464 
L 471.051337 329.116654 
L 546.247059 329.116654 
L 547.440642 327.966844 
L 622.636364 327.966844 
L 622.636364 327.966844 
" clip-path="url(#p8dac969c24)" style="fill: none; stroke: #9467bd; stroke-width: 1.5; stroke-linecap: square"/>
   </g>
   <g id="line2d_32">
    <path d="M 115.363636 353.262662 
L 116.557219 353.262662 
L 117.750802 352.112852 
L 134.460963 352.112852 
L 135.654545 350.963042 
L 149.97754 350.963042 
L 151.171123 349.813232 
L 169.074866 349.813232 
L 171.462032 347.513612 
L 184.591444 347.513612 
L 185.785027 346.363802 
L 221.592513 346.363802 
L 222.786096 345.213992 
L 233.528342 345.213992 
L 234.721925 344.064183 
L 255.012834 344.064183 
L 256.206417 342.914373 
L 275.303743 342.914373 
L 276.497326 341.764563 
L 281.271658 341.764563 
L 282.465241 340.614753 
L 293.207487 340.614753 
L 294.40107 339.464943 
L 323.047059 339.464943 
L 324.240642 338.315133 
L 331.402139 338.315133 
L 332.595722 337.165323 
L 339.757219 337.165323 
L 340.950802 336.015513 
L 345.725134 336.015513 
L 346.918717 334.865703 
L 391.081283 334.865703 
L 392.274866 333.715894 
L 426.88877 333.715894 
L 428.082353 332.566084 
L 497.31016 332.566084 
L 498.503743 331.416274 
L 531.924064 331.416274 
L 533.117647 330.266464 
L 548.634225 330.266464 
L 549.827807 329.116654 
L 622.636364 329.116654 
L 622.636364 329.116654 
" clip-path="url(#p8dac969c24)" style="fill: none; stroke: #8c564b; stroke-width: 1.5; stroke-linecap: square"/>
   </g>
   <g id="line2d_33">
    <path d="M 115.363636 268.17673 
L 120.137968 268.17673 
L 121.331551 267.02692 
L 126.105882 267.02692 
L 128.493048 264.7273 
L 129.686631 264.7273 
L 130.880214 263.57749 
L 132.073797 263.57749 
L 133.26738 262.427681 
L 135.654545 262.427681 
L 136.848128 261.277871 
L 140.428877 261.277871 
L 141.62246 260.128061 
L 144.009626 260.128061 
L 145.203209 258.978251 
L 146.396791 258.978251 
L 147.590374 257.828441 
L 149.97754 257.828441 
L 152.364706 255.528821 
L 157.139037 255.528821 
L 158.33262 254.379011 
L 161.913369 254.379011 
L 164.300535 252.079392 
L 166.687701 252.079392 
L 167.881283 250.929582 
L 170.268449 250.929582 
L 171.462032 249.779772 
L 172.655615 247.480152 
L 173.849198 244.030722 
L 176.236364 244.030722 
L 177.429947 242.880913 
L 183.397861 242.880913 
L 185.785027 240.581293 
L 186.97861 238.281673 
L 188.172193 237.131863 
L 189.365775 237.131863 
L 190.559358 234.832243 
L 195.33369 234.832243 
L 196.527273 233.682433 
L 197.720856 233.682433 
L 200.108021 231.382814 
L 201.301604 231.382814 
L 202.495187 230.233004 
L 203.68877 230.233004 
L 206.075936 227.933384 
L 208.463102 227.933384 
L 209.656684 225.633764 
L 214.431016 225.633764 
L 216.818182 223.334144 
L 219.205348 223.334144 
L 220.39893 222.184335 
L 221.592513 219.884715 
L 225.173262 219.884715 
L 226.366845 218.734905 
L 227.560428 218.734905 
L 228.754011 216.435285 
L 229.947594 216.435285 
L 231.141176 215.285475 
L 232.334759 215.285475 
L 233.528342 214.135665 
L 238.302674 214.135665 
L 240.68984 211.836046 
L 241.883422 211.836046 
L 243.077005 209.536426 
L 244.270588 209.536426 
L 245.464171 208.386616 
L 246.657754 208.386616 
L 247.851337 207.236806 
L 251.432086 207.236806 
L 252.625668 206.086996 
L 253.819251 206.086996 
L 258.593583 201.487757 
L 259.787166 199.188137 
L 262.174332 199.188137 
L 264.561497 194.588897 
L 266.948663 194.588897 
L 269.335829 192.289278 
L 270.529412 192.289278 
L 271.722995 189.989658 
L 272.916578 189.989658 
L 274.11016 188.839848 
L 275.303743 188.839848 
L 276.497326 187.690038 
L 278.884492 187.690038 
L 280.078075 186.540228 
L 281.271658 186.540228 
L 282.465241 185.390418 
L 287.239572 185.390418 
L 288.433155 179.641369 
L 289.626738 179.641369 
L 290.820321 178.491559 
L 294.40107 178.491559 
L 295.594652 177.341749 
L 306.336898 177.341749 
L 307.530481 175.042129 
L 312.304813 175.042129 
L 313.498396 173.892319 
L 325.434225 173.892319 
L 326.627807 171.5927 
L 327.82139 170.44289 
L 333.789305 170.44289 
L 334.982888 169.29308 
L 343.337968 169.29308 
L 344.531551 168.14327 
L 345.725134 168.14327 
L 346.918717 166.99346 
L 354.080214 166.99346 
L 356.46738 164.69384 
L 364.82246 164.69384 
L 367.209626 162.394221 
L 368.403209 162.394221 
L 369.596791 161.244411 
L 376.758289 161.244411 
L 377.951872 160.094601 
L 381.53262 160.094601 
L 382.726203 158.944791 
L 383.919786 156.645171 
L 387.500535 156.645171 
L 388.694118 155.495361 
L 389.887701 155.495361 
L 392.274866 153.195741 
L 397.049198 153.195741 
L 398.242781 152.045932 
L 403.017112 152.045932 
L 404.210695 150.896122 
L 407.791444 150.896122 
L 408.985027 149.746312 
L 418.53369 149.746312 
L 420.920856 147.446692 
L 426.88877 147.446692 
L 428.082353 146.296882 
L 432.856684 146.296882 
L 438.824599 140.547833 
L 441.211765 140.547833 
L 442.405348 139.398023 
L 443.59893 139.398023 
L 444.792513 137.098403 
L 447.179679 134.798783 
L 449.566845 130.199544 
L 451.954011 130.199544 
L 454.341176 125.600304 
L 456.728342 125.600304 
L 457.921925 123.300684 
L 460.309091 121.001065 
L 463.88984 121.001065 
L 465.083422 119.851255 
L 466.277005 119.851255 
L 468.664171 117.551635 
L 473.438503 117.551635 
L 474.632086 116.401825 
L 477.019251 116.401825 
L 478.212834 115.252015 
L 484.180749 115.252015 
L 485.374332 112.952395 
L 486.567914 111.802586 
L 487.761497 111.802586 
L 488.95508 110.652776 
L 491.342246 110.652776 
L 492.535829 109.502966 
L 494.922995 109.502966 
L 496.116578 107.203346 
L 498.503743 107.203346 
L 499.697326 106.053536 
L 500.890909 106.053536 
L 502.084492 104.903726 
L 508.052406 104.903726 
L 509.245989 103.753916 
L 515.213904 103.753916 
L 516.407487 102.604106 
L 517.60107 102.604106 
L 518.794652 100.304487 
L 521.181818 98.004867 
L 522.375401 94.555437 
L 523.568984 93.405627 
L 524.762567 93.405627 
L 525.95615 92.255817 
L 527.149733 92.255817 
L 528.343316 91.106008 
L 533.117647 91.106008 
L 534.31123 89.956198 
L 536.698396 89.956198 
L 537.891979 88.806388 
L 540.279144 88.806388 
L 542.66631 86.506768 
L 546.247059 86.506768 
L 547.440642 85.356958 
L 553.408556 85.356958 
L 554.602139 83.057338 
L 560.570053 83.057338 
L 561.763636 81.907529 
L 565.344385 81.907529 
L 566.537968 79.607909 
L 571.312299 79.607909 
L 572.505882 78.458099 
L 583.248128 78.458099 
L 584.441711 77.308289 
L 586.828877 77.308289 
L 588.02246 76.158479 
L 596.37754 76.158479 
L 597.571123 75.008669 
L 598.764706 75.008669 
L 599.958289 73.858859 
L 601.151872 73.858859 
L 602.345455 72.709049 
L 609.506952 72.709049 
L 611.894118 70.40943 
L 622.636364 70.40943 
L 622.636364 70.40943 
" clip-path="url(#p8dac969c24)" style="fill: none; stroke: #e377c2; stroke-width: 1.5; stroke-linecap: square"/>
   </g>
   <g id="line2d_34">
    <path d="M 115.363636 339.464943 
L 116.557219 339.464943 
L 118.944385 337.165323 
L 124.912299 337.165323 
L 126.105882 336.015513 
L 127.299465 336.015513 
L 129.686631 333.715894 
L 132.073797 333.715894 
L 133.26738 332.566084 
L 136.848128 332.566084 
L 138.041711 331.416274 
L 139.235294 331.416274 
L 140.428877 330.266464 
L 141.62246 330.266464 
L 144.009626 327.966844 
L 147.590374 327.966844 
L 148.783957 326.817034 
L 151.171123 326.817034 
L 153.558289 324.517414 
L 155.945455 324.517414 
L 158.33262 322.217795 
L 159.526203 322.217795 
L 160.719786 321.067985 
L 161.913369 317.618555 
L 166.687701 317.618555 
L 171.462032 313.019316 
L 172.655615 313.019316 
L 175.042781 310.719696 
L 176.236364 310.719696 
L 177.429947 309.569886 
L 178.623529 309.569886 
L 179.817112 308.420076 
L 190.559358 308.420076 
L 191.752941 307.270266 
L 203.68877 307.270266 
L 206.075936 304.970646 
L 209.656684 304.970646 
L 210.850267 303.820837 
L 213.237433 303.820837 
L 215.624599 301.521217 
L 218.011765 301.521217 
L 219.205348 299.221597 
L 222.786096 299.221597 
L 223.979679 296.921977 
L 225.173262 295.772167 
L 231.141176 295.772167 
L 232.334759 294.622357 
L 233.528342 294.622357 
L 235.915508 292.322738 
L 241.883422 292.322738 
L 243.077005 291.172928 
L 244.270588 291.172928 
L 245.464171 290.023118 
L 252.625668 290.023118 
L 253.819251 288.873308 
L 257.4 288.873308 
L 258.593583 287.723498 
L 259.787166 287.723498 
L 260.980749 284.274068 
L 262.174332 284.274068 
L 263.367914 281.974449 
L 264.561497 280.824639 
L 265.75508 280.824639 
L 268.142246 278.525019 
L 270.529412 278.525019 
L 271.722995 277.375209 
L 274.11016 277.375209 
L 275.303743 276.225399 
L 276.497326 276.225399 
L 277.690909 273.925779 
L 278.884492 273.925779 
L 280.078075 272.77597 
L 282.465241 272.77597 
L 284.852406 270.47635 
L 286.045989 270.47635 
L 287.239572 268.17673 
L 288.433155 267.02692 
L 296.788235 267.02692 
L 297.981818 264.7273 
L 301.562567 264.7273 
L 302.75615 263.57749 
L 303.949733 263.57749 
L 305.143316 262.427681 
L 308.724064 262.427681 
L 309.917647 261.277871 
L 315.885562 261.277871 
L 317.079144 260.128061 
L 319.46631 260.128061 
L 320.659893 258.978251 
L 326.627807 258.978251 
L 327.82139 257.828441 
L 338.563636 257.828441 
L 340.950802 255.528821 
L 342.144385 255.528821 
L 343.337968 254.379011 
L 344.531551 254.379011 
L 345.725134 253.229202 
L 346.918717 253.229202 
L 348.112299 252.079392 
L 350.499465 252.079392 
L 351.693048 250.929582 
L 352.886631 250.929582 
L 355.273797 248.629962 
L 358.854545 248.629962 
L 360.048128 247.480152 
L 363.628877 247.480152 
L 364.82246 246.330342 
L 373.17754 246.330342 
L 374.371123 245.180532 
L 375.564706 245.180532 
L 376.758289 244.030722 
L 381.53262 244.030722 
L 382.726203 241.731103 
L 389.887701 241.731103 
L 391.081283 240.581293 
L 392.274866 240.581293 
L 393.468449 238.281673 
L 399.436364 238.281673 
L 400.629947 237.131863 
L 407.791444 237.131863 
L 408.985027 235.982053 
L 424.501604 235.982053 
L 425.695187 234.832243 
L 443.59893 234.832243 
L 444.792513 233.682433 
L 450.760428 233.682433 
L 451.954011 232.532624 
L 453.147594 232.532624 
L 454.341176 231.382814 
L 455.534759 231.382814 
L 456.728342 229.083194 
L 457.921925 229.083194 
L 460.309091 226.783574 
L 468.664171 226.783574 
L 469.857754 225.633764 
L 471.051337 225.633764 
L 472.24492 224.483954 
L 473.438503 224.483954 
L 474.632086 223.334144 
L 480.6 223.334144 
L 481.793583 222.184335 
L 492.535829 222.184335 
L 493.729412 221.034525 
L 499.697326 221.034525 
L 500.890909 219.884715 
L 506.858824 219.884715 
L 508.052406 218.734905 
L 510.439572 218.734905 
L 514.020321 215.285475 
L 516.407487 215.285475 
L 517.60107 212.985856 
L 523.568984 212.985856 
L 525.95615 210.686236 
L 528.343316 210.686236 
L 529.536898 209.536426 
L 530.730481 209.536426 
L 533.117647 207.236806 
L 541.472727 207.236806 
L 542.66631 206.086996 
L 545.053476 206.086996 
L 546.247059 204.937186 
L 555.795722 204.937186 
L 558.182888 202.637567 
L 561.763636 202.637567 
L 562.957219 201.487757 
L 564.150802 201.487757 
L 565.344385 198.038327 
L 566.537968 196.888517 
L 571.312299 196.888517 
L 572.505882 194.588897 
L 576.086631 194.588897 
L 577.280214 193.439087 
L 589.216043 193.439087 
L 590.409626 192.289278 
L 602.345455 192.289278 
L 604.73262 189.989658 
L 613.087701 189.989658 
L 614.281283 188.839848 
L 622.636364 188.839848 
L 622.636364 188.839848 
" clip-path="url(#p8dac969c24)" style="fill: none; stroke: #7f7f7f; stroke-width: 1.5; stroke-linecap: square"/>
   </g>
   <g id="line2d_35">
    <path d="M 115.363636 346.363802 
L 120.137968 346.363802 
L 121.331551 345.213992 
L 133.26738 345.213992 
L 134.460963 344.064183 
L 140.428877 344.064183 
L 141.62246 342.914373 
L 153.558289 342.914373 
L 154.751872 341.764563 
L 166.687701 341.764563 
L 167.881283 340.614753 
L 232.334759 340.614753 
L 233.528342 339.464943 
L 239.496257 339.464943 
L 240.68984 338.315133 
L 249.04492 338.315133 
L 250.238503 337.165323 
L 251.432086 337.165323 
L 252.625668 333.715894 
L 253.819251 332.566084 
L 256.206417 332.566084 
L 257.4 331.416274 
L 269.335829 331.416274 
L 270.529412 330.266464 
L 281.271658 330.266464 
L 282.465241 329.116654 
L 295.594652 329.116654 
L 296.788235 327.966844 
L 311.11123 327.966844 
L 312.304813 326.817034 
L 318.272727 326.817034 
L 319.46631 325.667224 
L 357.660963 325.667224 
L 358.854545 324.517414 
L 361.241711 324.517414 
L 362.435294 323.367605 
L 371.983957 323.367605 
L 373.17754 322.217795 
L 406.597861 322.217795 
L 410.17861 318.768365 
L 444.792513 318.768365 
L 445.986096 317.618555 
L 447.179679 317.618555 
L 449.566845 315.318935 
L 451.954011 315.318935 
L 453.147594 314.169125 
L 514.020321 314.169125 
L 515.213904 313.019316 
L 584.441711 313.019316 
L 585.635294 311.869506 
L 622.636364 311.869506 
L 622.636364 311.869506 
" clip-path="url(#p8dac969c24)" style="fill: none; stroke: #bcbd22; stroke-width: 1.5; stroke-linecap: square"/>
   </g>
   <g id="line2d_36">
    <path d="M 115.363636 367.06038 
L 175.042781 367.06038 
L 176.236364 365.91057 
L 251.432086 365.91057 
L 252.625668 364.76076 
L 374.371123 364.76076 
L 375.564706 363.610951 
L 376.758289 364.76076 
L 521.181818 364.76076 
L 522.375401 363.610951 
L 530.730481 363.610951 
L 531.924064 362.461141 
L 561.763636 362.461141 
L 562.957219 361.311331 
L 622.636364 361.311331 
L 622.636364 361.311331 
" clip-path="url(#p8dac969c24)" style="fill: none; stroke: #17becf; stroke-width: 1.5; stroke-linecap: square"/>
   </g>
   <g id="line2d_37">
    <path d="M 115.363636 369.36 
L 116.557219 368.21019 
L 118.944385 368.21019 
L 120.137968 367.06038 
L 128.493048 367.06038 
L 129.686631 365.91057 
L 133.26738 365.91057 
L 134.460963 364.76076 
L 135.654545 364.76076 
L 138.041711 362.461141 
L 144.009626 362.461141 
L 146.396791 360.161521 
L 147.590374 360.161521 
L 148.783957 359.011711 
L 157.139037 359.011711 
L 158.33262 357.861901 
L 159.526203 355.562281 
L 161.913369 355.562281 
L 163.106952 354.412471 
L 164.300535 354.412471 
L 165.494118 353.262662 
L 166.687701 353.262662 
L 167.881283 352.112852 
L 169.074866 352.112852 
L 171.462032 349.813232 
L 178.623529 349.813232 
L 181.010695 347.513612 
L 184.591444 347.513612 
L 185.785027 346.363802 
L 186.97861 346.363802 
L 188.172193 344.064183 
L 191.752941 344.064183 
L 194.140107 339.464943 
L 201.301604 339.464943 
L 202.495187 337.165323 
L 203.68877 336.015513 
L 207.269519 336.015513 
L 208.463102 334.865703 
L 209.656684 332.566084 
L 212.04385 332.566084 
L 213.237433 331.416274 
L 229.947594 331.416274 
L 231.141176 329.116654 
L 239.496257 321.067985 
L 251.432086 321.067985 
L 255.012834 317.618555 
L 257.4 317.618555 
L 258.593583 315.318935 
L 260.980749 315.318935 
L 262.174332 314.169125 
L 265.75508 314.169125 
L 266.948663 313.019316 
L 268.142246 313.019316 
L 269.335829 311.869506 
L 270.529412 311.869506 
L 272.916578 309.569886 
L 288.433155 309.569886 
L 290.820321 307.270266 
L 300.368984 307.270266 
L 301.562567 306.120456 
L 305.143316 306.120456 
L 307.530481 303.820837 
L 311.11123 303.820837 
L 312.304813 302.671027 
L 314.691979 302.671027 
L 315.885562 301.521217 
L 321.853476 301.521217 
L 323.047059 300.371407 
L 324.240642 300.371407 
L 325.434225 298.071787 
L 326.627807 298.071787 
L 327.82139 296.921977 
L 333.789305 296.921977 
L 334.982888 295.772167 
L 337.370053 295.772167 
L 338.563636 294.622357 
L 339.757219 294.622357 
L 342.144385 292.322738 
L 350.499465 292.322738 
L 351.693048 291.172928 
L 352.886631 291.172928 
L 354.080214 290.023118 
L 360.048128 290.023118 
L 361.241711 287.723498 
L 362.435294 286.573688 
L 368.403209 286.573688 
L 369.596791 285.423878 
L 374.371123 285.423878 
L 375.564706 283.124259 
L 380.339037 283.124259 
L 382.726203 280.824639 
L 386.306952 280.824639 
L 387.500535 279.674829 
L 401.823529 279.674829 
L 403.017112 277.375209 
L 404.210695 276.225399 
L 413.759358 276.225399 
L 414.952941 275.075589 
L 436.437433 275.075589 
L 437.631016 273.925779 
L 440.018182 273.925779 
L 441.211765 272.77597 
L 444.792513 272.77597 
L 445.986096 271.62616 
L 461.502674 271.62616 
L 462.696257 269.32654 
L 465.083422 269.32654 
L 466.277005 268.17673 
L 467.470588 268.17673 
L 468.664171 267.02692 
L 473.438503 267.02692 
L 474.632086 265.87711 
L 482.987166 265.87711 
L 484.180749 263.57749 
L 485.374332 263.57749 
L 486.567914 262.427681 
L 492.535829 262.427681 
L 493.729412 261.277871 
L 499.697326 261.277871 
L 502.084492 258.978251 
L 504.471658 258.978251 
L 505.665241 257.828441 
L 508.052406 257.828441 
L 509.245989 256.678631 
L 510.439572 256.678631 
L 511.633155 255.528821 
L 519.988235 255.528821 
L 521.181818 254.379011 
L 548.634225 254.379011 
L 549.827807 253.229202 
L 555.795722 253.229202 
L 556.989305 252.079392 
L 570.118717 252.079392 
L 571.312299 250.929582 
L 622.636364 250.929582 
L 622.636364 250.929582 
" clip-path="url(#p8dac969c24)" style="fill: none; stroke: #1f77b4; stroke-width: 1.5; stroke-linecap: square"/>
   </g>
   <g id="line2d_38">
    <path d="M 115.363636 326.817034 
L 123.718717 326.817034 
L 124.912299 325.667224 
L 128.493048 325.667224 
L 129.686631 324.517414 
L 134.460963 324.517414 
L 135.654545 323.367605 
L 139.235294 323.367605 
L 140.428877 322.217795 
L 141.62246 322.217795 
L 142.816043 321.067985 
L 146.396791 321.067985 
L 147.590374 319.918175 
L 149.97754 319.918175 
L 151.171123 318.768365 
L 152.364706 318.768365 
L 154.751872 316.468745 
L 161.913369 316.468745 
L 163.106952 315.318935 
L 164.300535 315.318935 
L 165.494118 314.169125 
L 166.687701 314.169125 
L 167.881283 311.869506 
L 169.074866 308.420076 
L 170.268449 307.270266 
L 175.042781 307.270266 
L 178.623529 303.820837 
L 182.204278 303.820837 
L 184.591444 301.521217 
L 197.720856 301.521217 
L 198.914439 298.071787 
L 200.108021 298.071787 
L 202.495187 293.472548 
L 204.882353 291.172928 
L 206.075936 291.172928 
L 207.269519 288.873308 
L 216.818182 288.873308 
L 218.011765 286.573688 
L 221.592513 286.573688 
L 222.786096 285.423878 
L 231.141176 285.423878 
L 232.334759 284.274068 
L 246.657754 284.274068 
L 247.851337 283.124259 
L 249.04492 283.124259 
L 250.238503 281.974449 
L 253.819251 281.974449 
L 255.012834 280.824639 
L 269.335829 280.824639 
L 270.529412 279.674829 
L 272.916578 279.674829 
L 275.303743 275.075589 
L 277.690909 275.075589 
L 280.078075 272.77597 
L 282.465241 272.77597 
L 283.658824 271.62616 
L 287.239572 271.62616 
L 288.433155 270.47635 
L 302.75615 270.47635 
L 303.949733 269.32654 
L 321.853476 269.32654 
L 323.047059 268.17673 
L 333.789305 268.17673 
L 334.982888 267.02692 
L 337.370053 267.02692 
L 338.563636 265.87711 
L 342.144385 265.87711 
L 344.531551 263.57749 
L 345.725134 263.57749 
L 346.918717 262.427681 
L 351.693048 262.427681 
L 354.080214 260.128061 
L 360.048128 260.128061 
L 361.241711 258.978251 
L 364.82246 258.978251 
L 366.016043 257.828441 
L 371.983957 257.828441 
L 373.17754 256.678631 
L 379.145455 256.678631 
L 380.339037 255.528821 
L 401.823529 255.528821 
L 403.017112 254.379011 
L 404.210695 254.379011 
L 405.404278 253.229202 
L 417.340107 253.229202 
L 418.53369 250.929582 
L 419.727273 250.929582 
L 420.920856 249.779772 
L 432.856684 249.779772 
L 434.050267 248.629962 
L 438.824599 248.629962 
L 440.018182 247.480152 
L 441.211765 247.480152 
L 442.405348 246.330342 
L 453.147594 246.330342 
L 454.341176 245.180532 
L 478.212834 245.180532 
L 479.406417 241.731103 
L 487.761497 241.731103 
L 488.95508 240.581293 
L 491.342246 240.581293 
L 492.535829 239.431483 
L 506.858824 239.431483 
L 508.052406 238.281673 
L 524.762567 238.281673 
L 525.95615 237.131863 
L 529.536898 237.131863 
L 530.730481 235.982053 
L 540.279144 235.982053 
L 541.472727 233.682433 
L 560.570053 233.682433 
L 561.763636 232.532624 
L 567.731551 232.532624 
L 568.925134 231.382814 
L 586.828877 231.382814 
L 588.02246 230.233004 
L 590.409626 230.233004 
L 591.603209 229.083194 
L 603.539037 229.083194 
L 604.73262 227.933384 
L 617.862032 227.933384 
L 619.055615 226.783574 
L 622.636364 226.783574 
L 622.636364 226.783574 
" clip-path="url(#p8dac969c24)" style="fill: none; stroke: #ff7f0e; stroke-width: 1.5; stroke-linecap: square"/>
   </g>
   <g id="patch_3">
    <path d="M 90 384.48 
L 90 51.84 
" style="fill: none; stroke: #000000; stroke-width: 0.8; stroke-linejoin: miter; stroke-linecap: square"/>
   </g>
   <g id="patch_4">
    <path d="M 648 384.48 
L 648 51.84 
" style="fill: none; stroke: #000000; stroke-width: 0.8; stroke-linejoin: miter; stroke-linecap: square"/>
   </g>
   <g id="patch_5">
    <path d="M 90 384.48 
L 648 384.48 
" style="fill: none; stroke: #000000; stroke-width: 0.8; stroke-linejoin: miter; stroke-linecap: square"/>
   </g>
   <g id="patch_6">
    <path d="M 90 51.84 
L 648 51.84 
" style="fill: none; stroke: #000000; stroke-width: 0.8; stroke-linejoin: miter; stroke-linecap: square"/>
   </g>
   <g id="text_16">
    <!-- Time Series of Votes for Each Keyword -->
    <g transform="translate(253.716563 45.84) scale(0.12 -0.12)">
     <defs>
      <path id="DejaVuSans-53" d="M 3425 4513 
L 3425 3897 
Q 3066 4069 2747 4153 
Q 2428 4238 2131 4238 
Q 1616 4238 1336 4038 
Q 1056 3838 1056 3469 
Q 1056 3159 1242 3001 
Q 1428 2844 1947 2747 
L 2328 2669 
Q 3034 2534 3370 2195 
Q 3706 1856 3706 1288 
Q 3706 609 3251 259 
Q 2797 -91 1919 -91 
Q 1588 -91 1214 -16 
Q 841 59 441 206 
L 441 856 
Q 825 641 1194 531 
Q 1563 422 1919 422 
Q 2459 422 2753 634 
Q 3047 847 3047 1241 
Q 3047 1584 2836 1778 
Q 2625 1972 2144 2069 
L 1759 2144 
Q 1053 2284 737 2584 
Q 422 2884 422 3419 
Q 422 4038 858 4394 
Q 1294 4750 2059 4750 
Q 2388 4750 2728 4690 
Q 3069 4631 3425 4513 
z
" transform="scale(0.015625)"/>
      <path id="DejaVuSans-72" d="M 2631 2963 
Q 2534 3019 2420 3045 
Q 2306 3072 2169 3072 
Q 1681 3072 1420 2755 
Q 1159 2438 1159 1844 
L 1159 0 
L 581 0 
L 581 3500 
L 1159 3500 
L 1159 2956 
Q 1341 3275 1631 3429 
Q 1922 3584 2338 3584 
Q 2397 3584 2469 3576 
Q 2541 3569 2628 3553 
L 2631 2963 
z
" transform="scale(0.015625)"/>
      <path id="DejaVuSans-66" d="M 2375 4863 
L 2375 4384 
L 1825 4384 
Q 1516 4384 1395 4259 
Q 1275 4134 1275 3809 
L 1275 3500 
L 2222 3500 
L 2222 3053 
L 1275 3053 
L 1275 0 
L 697 0 
L 697 3053 
L 147 3053 
L 147 3500 
L 697 3500 
L 697 3744 
Q 697 4328 969 4595 
Q 1241 4863 1831 4863 
L 2375 4863 
z
" transform="scale(0.015625)"/>
      <path id="DejaVuSans-45" d="M 628 4666 
L 3578 4666 
L 3578 4134 
L 1259 4134 
L 1259 2753 
L 3481 2753 
L 3481 2222 
L 1259 2222 
L 1259 531 
L 3634 531 
L 3634 0 
L 628 0 
L 628 4666 
z
" transform="scale(0.015625)"/>
      <path id="DejaVuSans-63" d="M 3122 3366 
L 3122 2828 
Q 2878 2963 2633 3030 
Q 2388 3097 2138 3097 
Q 1578 3097 1268 2742 
Q 959 2388 959 1747 
Q 959 1106 1268 751 
Q 1578 397 2138 397 
Q 2388 397 2633 464 
Q 2878 531 3122 666 
L 3122 134 
Q 2881 22 2623 -34 
Q 2366 -91 2075 -91 
Q 1284 -91 818 406 
Q 353 903 353 1747 
Q 353 2603 823 3093 
Q 1294 3584 2113 3584 
Q 2378 3584 2631 3529 
Q 2884 3475 3122 3366 
z
" transform="scale(0.015625)"/>
      <path id="DejaVuSans-68" d="M 3513 2113 
L 3513 0 
L 2938 0 
L 2938 2094 
Q 2938 2591 2744 2837 
Q 2550 3084 2163 3084 
Q 1697 3084 1428 2787 
Q 1159 2491 1159 1978 
L 1159 0 
L 581 0 
L 581 4863 
L 1159 4863 
L 1159 2956 
Q 1366 3272 1645 3428 
Q 1925 3584 2291 3584 
Q 2894 3584 3203 3211 
Q 3513 2838 3513 2113 
z
" transform="scale(0.015625)"/>
      <path id="DejaVuSans-4b" d="M 628 4666 
L 1259 4666 
L 1259 2694 
L 3353 4666 
L 4166 4666 
L 1850 2491 
L 4331 0 
L 3500 0 
L 1259 2247 
L 1259 0 
L 628 0 
L 628 4666 
z
" transform="scale(0.015625)"/>
      <path id="DejaVuSans-79" d="M 2059 -325 
Q 1816 -950 1584 -1140 
Q 1353 -1331 966 -1331 
L 506 -1331 
L 506 -850 
L 844 -850 
Q 1081 -850 1212 -737 
Q 1344 -625 1503 -206 
L 1606 56 
L 191 3500 
L 800 3500 
L 1894 763 
L 2988 3500 
L 3597 3500 
L 2059 -325 
z
" transform="scale(0.015625)"/>
      <path id="DejaVuSans-77" d="M 269 3500 
L 844 3500 
L 1563 769 
L 2278 3500 
L 2956 3500 
L 3675 769 
L 4391 3500 
L 4966 3500 
L 4050 0 
L 3372 0 
L 2619 2869 
L 1863 0 
L 1184 0 
L 269 3500 
z
" transform="scale(0.015625)"/>
     </defs>
     <use xlink:href="#DejaVuSans-54"/>
     <use xlink:href="#DejaVuSans-69" transform="translate(57.958984 0)"/>
     <use xlink:href="#DejaVuSans-6d" transform="translate(85.742188 0)"/>
     <use xlink:href="#DejaVuSans-65" transform="translate(183.154297 0)"/>
     <use xlink:href="#DejaVuSans-20" transform="translate(244.677734 0)"/>
     <use xlink:href="#DejaVuSans-53" transform="translate(276.464844 0)"/>
     <use xlink:href="#DejaVuSans-65" transform="translate(339.941406 0)"/>
     <use xlink:href="#DejaVuSans-72" transform="translate(401.464844 0)"/>
     <use xlink:href="#DejaVuSans-69" transform="translate(442.578125 0)"/>
     <use xlink:href="#DejaVuSans-65" transform="translate(470.361328 0)"/>
     <use xlink:href="#DejaVuSans-73" transform="translate(531.884766 0)"/>
     <use xlink:href="#DejaVuSans-20" transform="translate(583.984375 0)"/>
     <use xlink:href="#DejaVuSans-6f" transform="translate(615.771484 0)"/>
     <use xlink:href="#DejaVuSans-66" transform="translate(676.953125 0)"/>
     <use xlink:href="#DejaVuSans-20" transform="translate(712.158203 0)"/>
     <use xlink:href="#DejaVuSans-56" transform="translate(743.945312 0)"/>
     <use xlink:href="#DejaVuSans-6f" transform="translate(804.603516 0)"/>
     <use xlink:href="#DejaVuSans-74" transform="translate(865.785156 0)"/>
     <use xlink:href="#DejaVuSans-65" transform="translate(904.994141 0)"/>
     <use xlink:href="#DejaVuSans-73" transform="translate(966.517578 0)"/>
     <use xlink:href="#DejaVuSans-20" transform="translate(1018.617188 0)"/>
     <use xlink:href="#DejaVuSans-66" transform="translate(1050.404297 0)"/>
     <use xlink:href="#DejaVuSans-6f" transform="translate(1085.609375 0)"/>
     <use xlink:href="#DejaVuSans-72" transform="translate(1146.791016 0)"/>
     <use xlink:href="#DejaVuSans-20" transform="translate(1187.904297 0)"/>
     <use xlink:href="#DejaVuSans-45" transform="translate(1219.691406 0)"/>
     <use xlink:href="#DejaVuSans-61" transform="translate(1282.875 0)"/>
     <use xlink:href="#DejaVuSans-63" transform="translate(1344.154297 0)"/>
     <use xlink:href="#DejaVuSans-68" transform="translate(1399.134766 0)"/>
     <use xlink:href="#DejaVuSans-20" transform="translate(1462.513672 0)"/>
     <use xlink:href="#DejaVuSans-4b" transform="translate(1494.300781 0)"/>
     <use xlink:href="#DejaVuSans-65" transform="translate(1554.876953 0)"/>
     <use xlink:href="#DejaVuSans-79" transform="translate(1616.400391 0)"/>
     <use xlink:href="#DejaVuSans-77" transform="translate(1675.580078 0)"/>
     <use xlink:href="#DejaVuSans-6f" transform="translate(1757.367188 0)"/>
     <use xlink:href="#DejaVuSans-72" transform="translate(1818.548828 0)"/>
     <use xlink:href="#DejaVuSans-64" transform="translate(1857.912109 0)"/>
    </g>
   </g>
   <g id="legend_1">
    <g id="patch_7">
     <path d="M 97 235.9775 
L 149.245313 235.9775 
Q 151.245313 235.9775 151.245313 233.9775 
L 151.245313 58.84 
Q 151.245313 56.84 149.245313 56.84 
L 97 56.84 
Q 95 56.84 95 58.84 
L 95 233.9775 
Q 95 235.9775 97 235.9775 
z
" style="fill: #ffffff; opacity: 0.8; stroke: #cccccc; stroke-linejoin: miter"/>
    </g>
    <g id="line2d_39">
     <path d="M 99 64.938437 
L 109 64.938437 
L 119 64.938437 
" style="fill: none; stroke: #1f77b4; stroke-width: 1.5; stroke-linecap: square"/>
    </g>
    <g id="text_17">
     <!-- H01 -->
     <g transform="translate(127 68.438437) scale(0.1 -0.1)">
      <defs>
       <path id="DejaVuSans-48" d="M 628 4666 
L 1259 4666 
L 1259 2753 
L 3553 2753 
L 3553 4666 
L 4184 4666 
L 4184 0 
L 3553 0 
L 3553 2222 
L 1259 2222 
L 1259 0 
L 628 0 
L 628 4666 
z
" transform="scale(0.015625)"/>
      </defs>
      <use xlink:href="#DejaVuSans-48"/>
      <use xlink:href="#DejaVuSans-30" transform="translate(75.195312 0)"/>
      <use xlink:href="#DejaVuSans-31" transform="translate(138.818359 0)"/>
     </g>
    </g>
    <g id="line2d_40">
     <path d="M 99 79.616562 
L 109 79.616562 
L 119 79.616562 
" style="fill: none; stroke: #ff7f0e; stroke-width: 1.5; stroke-linecap: square"/>
    </g>
    <g id="text_18">
     <!-- H02 -->
     <g transform="translate(127 83.116562) scale(0.1 -0.1)">
      <use xlink:href="#DejaVuSans-48"/>
      <use xlink:href="#DejaVuSans-30" transform="translate(75.195312 0)"/>
      <use xlink:href="#DejaVuSans-32" transform="translate(138.818359 0)"/>
     </g>
    </g>
    <g id="line2d_41">
     <path d="M 99 94.294688 
L 109 94.294688 
L 119 94.294688 
" style="fill: none; stroke: #2ca02c; stroke-width: 1.5; stroke-linecap: square"/>
    </g>
    <g id="text_19">
     <!-- H03 -->
     <g transform="translate(127 97.794688) scale(0.1 -0.1)">
      <defs>
       <path id="DejaVuSans-33" d="M 2597 2516 
Q 3050 2419 3304 2112 
Q 3559 1806 3559 1356 
Q 3559 666 3084 287 
Q 2609 -91 1734 -91 
Q 1441 -91 1130 -33 
Q 819 25 488 141 
L 488 750 
Q 750 597 1062 519 
Q 1375 441 1716 441 
Q 2309 441 2620 675 
Q 2931 909 2931 1356 
Q 2931 1769 2642 2001 
Q 2353 2234 1838 2234 
L 1294 2234 
L 1294 2753 
L 1863 2753 
Q 2328 2753 2575 2939 
Q 2822 3125 2822 3475 
Q 2822 3834 2567 4026 
Q 2313 4219 1838 4219 
Q 1578 4219 1281 4162 
Q 984 4106 628 3988 
L 628 4550 
Q 988 4650 1302 4700 
Q 1616 4750 1894 4750 
Q 2613 4750 3031 4423 
Q 3450 4097 3450 3541 
Q 3450 3153 3228 2886 
Q 3006 2619 2597 2516 
z
" transform="scale(0.015625)"/>
      </defs>
      <use xlink:href="#DejaVuSans-48"/>
      <use xlink:href="#DejaVuSans-30" transform="translate(75.195312 0)"/>
      <use xlink:href="#DejaVuSans-33" transform="translate(138.818359 0)"/>
     </g>
    </g>
    <g id="line2d_42">
     <path d="M 99 108.972812 
L 109 108.972812 
L 119 108.972812 
" style="fill: none; stroke: #d62728; stroke-width: 1.5; stroke-linecap: square"/>
    </g>
    <g id="text_20">
     <!-- H04 -->
     <g transform="translate(127 112.472812) scale(0.1 -0.1)">
      <use xlink:href="#DejaVuSans-48"/>
      <use xlink:href="#DejaVuSans-30" transform="translate(75.195312 0)"/>
      <use xlink:href="#DejaVuSans-34" transform="translate(138.818359 0)"/>
     </g>
    </g>
    <g id="line2d_43">
     <path d="M 99 123.650937 
L 109 123.650937 
L 119 123.650937 
" style="fill: none; stroke: #9467bd; stroke-width: 1.5; stroke-linecap: square"/>
    </g>
    <g id="text_21">
     <!-- H05 -->
     <g transform="translate(127 127.150937) scale(0.1 -0.1)">
      <use xlink:href="#DejaVuSans-48"/>
      <use xlink:href="#DejaVuSans-30" transform="translate(75.195312 0)"/>
      <use xlink:href="#DejaVuSans-35" transform="translate(138.818359 0)"/>
     </g>
    </g>
    <g id="line2d_44">
     <path d="M 99 138.329062 
L 109 138.329062 
L 119 138.329062 
" style="fill: none; stroke: #8c564b; stroke-width: 1.5; stroke-linecap: square"/>
    </g>
    <g id="text_22">
     <!-- H06 -->
     <g transform="translate(127 141.829062) scale(0.1 -0.1)">
      <use xlink:href="#DejaVuSans-48"/>
      <use xlink:href="#DejaVuSans-30" transform="translate(75.195312 0)"/>
      <use xlink:href="#DejaVuSans-36" transform="translate(138.818359 0)"/>
     </g>
    </g>
    <g id="line2d_45">
     <path d="M 99 153.007187 
L 109 153.007187 
L 119 153.007187 
" style="fill: none; stroke: #e377c2; stroke-width: 1.5; stroke-linecap: square"/>
    </g>
    <g id="text_23">
     <!-- H07 -->
     <g transform="translate(127 156.507187) scale(0.1 -0.1)">
      <use xlink:href="#DejaVuSans-48"/>
      <use xlink:href="#DejaVuSans-30" transform="translate(75.195312 0)"/>
      <use xlink:href="#DejaVuSans-37" transform="translate(138.818359 0)"/>
     </g>
    </g>
    <g id="line2d_46">
     <path d="M 99 167.685312 
L 109 167.685312 
L 119 167.685312 
" style="fill: none; stroke: #7f7f7f; stroke-width: 1.5; stroke-linecap: square"/>
    </g>
    <g id="text_24">
     <!-- H08 -->
     <g transform="translate(127 171.185312) scale(0.1 -0.1)">
      <use xlink:href="#DejaVuSans-48"/>
      <use xlink:href="#DejaVuSans-30" transform="translate(75.195312 0)"/>
      <use xlink:href="#DejaVuSans-38" transform="translate(138.818359 0)"/>
     </g>
    </g>
    <g id="line2d_47">
     <path d="M 99 182.363437 
L 109 182.363437 
L 119 182.363437 
" style="fill: none; stroke: #bcbd22; stroke-width: 1.5; stroke-linecap: square"/>
    </g>
    <g id="text_25">
     <!-- H09 -->
     <g transform="translate(127 185.863437) scale(0.1 -0.1)">
      <use xlink:href="#DejaVuSans-48"/>
      <use xlink:href="#DejaVuSans-30" transform="translate(75.195312 0)"/>
      <use xlink:href="#DejaVuSans-39" transform="translate(138.818359 0)"/>
     </g>
    </g>
    <g id="line2d_48">
     <path d="M 99 197.041562 
L 109 197.041562 
L 119 197.041562 
" style="fill: none; stroke: #17becf; stroke-width: 1.5; stroke-linecap: square"/>
    </g>
    <g id="text_26">
     <!-- H10 -->
     <g transform="translate(127 200.541562) scale(0.1 -0.1)">
      <use xlink:href="#DejaVuSans-48"/>
      <use xlink:href="#DejaVuSans-31" transform="translate(75.195312 0)"/>
      <use xlink:href="#DejaVuSans-30" transform="translate(138.818359 0)"/>
     </g>
    </g>
    <g id="line2d_49">
     <path d="M 99 211.719687 
L 109 211.719687 
L 119 211.719687 
" style="fill: none; stroke: #1f77b4; stroke-width: 1.5; stroke-linecap: square"/>
    </g>
    <g id="text_27">
     <!-- H11 -->
     <g transform="translate(127 215.219687) scale(0.1 -0.1)">
      <use xlink:href="#DejaVuSans-48"/>
      <use xlink:href="#DejaVuSans-31" transform="translate(75.195312 0)"/>
      <use xlink:href="#DejaVuSans-31" transform="translate(138.818359 0)"/>
     </g>
    </g>
    <g id="line2d_50">
     <path d="M 99 226.397812 
L 109 226.397812 
L 119 226.397812 
" style="fill: none; stroke: #ff7f0e; stroke-width: 1.5; stroke-linecap: square"/>
    </g>
    <g id="text_28">
     <!-- H12 -->
     <g transform="translate(127 229.897812) scale(0.1 -0.1)">
      <use xlink:href="#DejaVuSans-48"/>
      <use xlink:href="#DejaVuSans-31" transform="translate(75.195312 0)"/>
      <use xlink:href="#DejaVuSans-32" transform="translate(138.818359 0)"/>
     </g>
    </g>
   </g>
  </g>
 </g>
 <defs>
  <clipPath id="p8dac969c24">
   <rect x="90" y="51.84" width="558" height="332.64"/>
  </clipPath>
 </defs>
</svg>
