<?xml version="1.0" encoding="utf-8" standalone="no"?>
<!DOCTYPE svg PUBLIC "-//W3C//DTD SVG 1.1//EN"
  "http://www.w3.org/Graphics/SVG/1.1/DTD/svg11.dtd">
<svg xmlns:xlink="http://www.w3.org/1999/xlink" width="720pt" height="432pt" viewBox="0 0 720 432" xmlns="http://www.w3.org/2000/svg" version="1.1">
 <metadata>
  <rdf:RDF xmlns:dc="http://purl.org/dc/elements/1.1/" xmlns:cc="http://creativecommons.org/ns#" xmlns:rdf="http://www.w3.org/1999/02/22-rdf-syntax-ns#">
   <cc:Work>
    <dc:type rdf:resource="http://purl.org/dc/dcmitype/StillImage"/>
    <dc:date>2025-01-15T11:53:46.197539</dc:date>
    <dc:format>image/svg+xml</dc:format>
    <dc:creator>
     <cc:Agent>
      <dc:title>Matplotlib v3.10.0, https://matplotlib.org/</dc:title>
     </cc:Agent>
    </dc:creator>
   </cc:Work>
  </rdf:RDF>
 </metadata>
 <defs>
  <style type="text/css">*{stroke-linejoin: round; stroke-linecap: butt}</style>
 </defs>
 <g id="figure_1">
  <g id="patch_1">
   <path d="M 0 432 
L 720 432 
L 720 0 
L 0 0 
z
" style="fill: #ffffff"/>
  </g>
  <g id="axes_1">
   <g id="patch_2">
    <path d="M 90 384.48 
L 648 384.48 
L 648 51.84 
L 90 51.84 
z
" style="fill: #ffffff"/>
   </g>
   <g id="matplotlib.axis_1">
    <g id="xtick_1">
     <g id="line2d_1">
      <path d="M 132.706294 384.48 
L 132.706294 51.84 
" clip-path="url(#p4d2d451742)" style="fill: none; stroke: #b0b0b0; stroke-width: 0.8; stroke-linecap: square"/>
     </g>
     <g id="line2d_2">
      <defs>
       <path id="m682ecfe3fe" d="M 0 0 
L 0 3.5 
" style="stroke: #000000; stroke-width: 0.8"/>
      </defs>
      <g>
       <use xlink:href="#m682ecfe3fe" x="132.706294" y="384.48" style="stroke: #000000; stroke-width: 0.8"/>
      </g>
     </g>
     <g id="text_1">
      <!-- 15 10:00 -->
      <g transform="translate(110.345356 399.078438) scale(0.1 -0.1)">
       <defs>
        <path id="DejaVuSans-31" d="M 794 531 
L 1825 531 
L 1825 4091 
L 703 3866 
L 703 4441 
L 1819 4666 
L 2450 4666 
L 2450 531 
L 3481 531 
L 3481 0 
L 794 0 
L 794 531 
z
" transform="scale(0.015625)"/>
        <path id="DejaVuSans-35" d="M 691 4666 
L 3169 4666 
L 3169 4134 
L 1269 4134 
L 1269 2991 
Q 1406 3038 1543 3061 
Q 1681 3084 1819 3084 
Q 2600 3084 3056 2656 
Q 3513 2228 3513 1497 
Q 3513 744 3044 326 
Q 2575 -91 1722 -91 
Q 1428 -91 1123 -41 
Q 819 9 494 109 
L 494 744 
Q 775 591 1075 516 
Q 1375 441 1709 441 
Q 2250 441 2565 725 
Q 2881 1009 2881 1497 
Q 2881 1984 2565 2268 
Q 2250 2553 1709 2553 
Q 1456 2553 1204 2497 
Q 953 2441 691 2322 
L 691 4666 
z
" transform="scale(0.015625)"/>
        <path id="DejaVuSans-20" transform="scale(0.015625)"/>
        <path id="DejaVuSans-30" d="M 2034 4250 
Q 1547 4250 1301 3770 
Q 1056 3291 1056 2328 
Q 1056 1369 1301 889 
Q 1547 409 2034 409 
Q 2525 409 2770 889 
Q 3016 1369 3016 2328 
Q 3016 3291 2770 3770 
Q 2525 4250 2034 4250 
z
M 2034 4750 
Q 2819 4750 3233 4129 
Q 3647 3509 3647 2328 
Q 3647 1150 3233 529 
Q 2819 -91 2034 -91 
Q 1250 -91 836 529 
Q 422 1150 422 2328 
Q 422 3509 836 4129 
Q 1250 4750 2034 4750 
z
" transform="scale(0.015625)"/>
        <path id="DejaVuSans-3a" d="M 750 794 
L 1409 794 
L 1409 0 
L 750 0 
L 750 794 
z
M 750 3309 
L 1409 3309 
L 1409 2516 
L 750 2516 
L 750 3309 
z
" transform="scale(0.015625)"/>
       </defs>
       <use xlink:href="#DejaVuSans-31"/>
       <use xlink:href="#DejaVuSans-35" transform="translate(63.623047 0)"/>
       <use xlink:href="#DejaVuSans-20" transform="translate(127.246094 0)"/>
       <use xlink:href="#DejaVuSans-31" transform="translate(159.033203 0)"/>
       <use xlink:href="#DejaVuSans-30" transform="translate(222.65625 0)"/>
       <use xlink:href="#DejaVuSans-3a" transform="translate(286.279297 0)"/>
       <use xlink:href="#DejaVuSans-30" transform="translate(319.970703 0)"/>
       <use xlink:href="#DejaVuSans-30" transform="translate(383.59375 0)"/>
      </g>
     </g>
    </g>
    <g id="xtick_2">
     <g id="line2d_3">
      <path d="M 197.741259 384.48 
L 197.741259 51.84 
" clip-path="url(#p4d2d451742)" style="fill: none; stroke: #b0b0b0; stroke-width: 0.8; stroke-linecap: square"/>
     </g>
     <g id="line2d_4">
      <g>
       <use xlink:href="#m682ecfe3fe" x="197.741259" y="384.48" style="stroke: #000000; stroke-width: 0.8"/>
      </g>
     </g>
     <g id="text_2">
      <!-- 15 10:15 -->
      <g transform="translate(175.380321 399.078438) scale(0.1 -0.1)">
       <use xlink:href="#DejaVuSans-31"/>
       <use xlink:href="#DejaVuSans-35" transform="translate(63.623047 0)"/>
       <use xlink:href="#DejaVuSans-20" transform="translate(127.246094 0)"/>
       <use xlink:href="#DejaVuSans-31" transform="translate(159.033203 0)"/>
       <use xlink:href="#DejaVuSans-30" transform="translate(222.65625 0)"/>
       <use xlink:href="#DejaVuSans-3a" transform="translate(286.279297 0)"/>
       <use xlink:href="#DejaVuSans-31" transform="translate(319.970703 0)"/>
       <use xlink:href="#DejaVuSans-35" transform="translate(383.59375 0)"/>
      </g>
     </g>
    </g>
    <g id="xtick_3">
     <g id="line2d_5">
      <path d="M 262.776224 384.48 
L 262.776224 51.84 
" clip-path="url(#p4d2d451742)" style="fill: none; stroke: #b0b0b0; stroke-width: 0.8; stroke-linecap: square"/>
     </g>
     <g id="line2d_6">
      <g>
       <use xlink:href="#m682ecfe3fe" x="262.776224" y="384.48" style="stroke: #000000; stroke-width: 0.8"/>
      </g>
     </g>
     <g id="text_3">
      <!-- 15 10:30 -->
      <g transform="translate(240.415286 399.078438) scale(0.1 -0.1)">
       <defs>
        <path id="DejaVuSans-33" d="M 2597 2516 
Q 3050 2419 3304 2112 
Q 3559 1806 3559 1356 
Q 3559 666 3084 287 
Q 2609 -91 1734 -91 
Q 1441 -91 1130 -33 
Q 819 25 488 141 
L 488 750 
Q 750 597 1062 519 
Q 1375 441 1716 441 
Q 2309 441 2620 675 
Q 2931 909 2931 1356 
Q 2931 1769 2642 2001 
Q 2353 2234 1838 2234 
L 1294 2234 
L 1294 2753 
L 1863 2753 
Q 2328 2753 2575 2939 
Q 2822 3125 2822 3475 
Q 2822 3834 2567 4026 
Q 2313 4219 1838 4219 
Q 1578 4219 1281 4162 
Q 984 4106 628 3988 
L 628 4550 
Q 988 4650 1302 4700 
Q 1616 4750 1894 4750 
Q 2613 4750 3031 4423 
Q 3450 4097 3450 3541 
Q 3450 3153 3228 2886 
Q 3006 2619 2597 2516 
z
" transform="scale(0.015625)"/>
       </defs>
       <use xlink:href="#DejaVuSans-31"/>
       <use xlink:href="#DejaVuSans-35" transform="translate(63.623047 0)"/>
       <use xlink:href="#DejaVuSans-20" transform="translate(127.246094 0)"/>
       <use xlink:href="#DejaVuSans-31" transform="translate(159.033203 0)"/>
       <use xlink:href="#DejaVuSans-30" transform="translate(222.65625 0)"/>
       <use xlink:href="#DejaVuSans-3a" transform="translate(286.279297 0)"/>
       <use xlink:href="#DejaVuSans-33" transform="translate(319.970703 0)"/>
       <use xlink:href="#DejaVuSans-30" transform="translate(383.59375 0)"/>
      </g>
     </g>
    </g>
    <g id="xtick_4">
     <g id="line2d_7">
      <path d="M 327.811189 384.48 
L 327.811189 51.84 
" clip-path="url(#p4d2d451742)" style="fill: none; stroke: #b0b0b0; stroke-width: 0.8; stroke-linecap: square"/>
     </g>
     <g id="line2d_8">
      <g>
       <use xlink:href="#m682ecfe3fe" x="327.811189" y="384.48" style="stroke: #000000; stroke-width: 0.8"/>
      </g>
     </g>
     <g id="text_4">
      <!-- 15 10:45 -->
      <g transform="translate(305.450251 399.078438) scale(0.1 -0.1)">
       <defs>
        <path id="DejaVuSans-34" d="M 2419 4116 
L 825 1625 
L 2419 1625 
L 2419 4116 
z
M 2253 4666 
L 3047 4666 
L 3047 1625 
L 3713 1625 
L 3713 1100 
L 3047 1100 
L 3047 0 
L 2419 0 
L 2419 1100 
L 313 1100 
L 313 1709 
L 2253 4666 
z
" transform="scale(0.015625)"/>
       </defs>
       <use xlink:href="#DejaVuSans-31"/>
       <use xlink:href="#DejaVuSans-35" transform="translate(63.623047 0)"/>
       <use xlink:href="#DejaVuSans-20" transform="translate(127.246094 0)"/>
       <use xlink:href="#DejaVuSans-31" transform="translate(159.033203 0)"/>
       <use xlink:href="#DejaVuSans-30" transform="translate(222.65625 0)"/>
       <use xlink:href="#DejaVuSans-3a" transform="translate(286.279297 0)"/>
       <use xlink:href="#DejaVuSans-34" transform="translate(319.970703 0)"/>
       <use xlink:href="#DejaVuSans-35" transform="translate(383.59375 0)"/>
      </g>
     </g>
    </g>
    <g id="xtick_5">
     <g id="line2d_9">
      <path d="M 392.846154 384.48 
L 392.846154 51.84 
" clip-path="url(#p4d2d451742)" style="fill: none; stroke: #b0b0b0; stroke-width: 0.8; stroke-linecap: square"/>
     </g>
     <g id="line2d_10">
      <g>
       <use xlink:href="#m682ecfe3fe" x="392.846154" y="384.48" style="stroke: #000000; stroke-width: 0.8"/>
      </g>
     </g>
     <g id="text_5">
      <!-- 15 11:00 -->
      <g transform="translate(370.485216 399.078438) scale(0.1 -0.1)">
       <use xlink:href="#DejaVuSans-31"/>
       <use xlink:href="#DejaVuSans-35" transform="translate(63.623047 0)"/>
       <use xlink:href="#DejaVuSans-20" transform="translate(127.246094 0)"/>
       <use xlink:href="#DejaVuSans-31" transform="translate(159.033203 0)"/>
       <use xlink:href="#DejaVuSans-31" transform="translate(222.65625 0)"/>
       <use xlink:href="#DejaVuSans-3a" transform="translate(286.279297 0)"/>
       <use xlink:href="#DejaVuSans-30" transform="translate(319.970703 0)"/>
       <use xlink:href="#DejaVuSans-30" transform="translate(383.59375 0)"/>
      </g>
     </g>
    </g>
    <g id="xtick_6">
     <g id="line2d_11">
      <path d="M 457.881119 384.48 
L 457.881119 51.84 
" clip-path="url(#p4d2d451742)" style="fill: none; stroke: #b0b0b0; stroke-width: 0.8; stroke-linecap: square"/>
     </g>
     <g id="line2d_12">
      <g>
       <use xlink:href="#m682ecfe3fe" x="457.881119" y="384.48" style="stroke: #000000; stroke-width: 0.8"/>
      </g>
     </g>
     <g id="text_6">
      <!-- 15 11:15 -->
      <g transform="translate(435.520181 399.078438) scale(0.1 -0.1)">
       <use xlink:href="#DejaVuSans-31"/>
       <use xlink:href="#DejaVuSans-35" transform="translate(63.623047 0)"/>
       <use xlink:href="#DejaVuSans-20" transform="translate(127.246094 0)"/>
       <use xlink:href="#DejaVuSans-31" transform="translate(159.033203 0)"/>
       <use xlink:href="#DejaVuSans-31" transform="translate(222.65625 0)"/>
       <use xlink:href="#DejaVuSans-3a" transform="translate(286.279297 0)"/>
       <use xlink:href="#DejaVuSans-31" transform="translate(319.970703 0)"/>
       <use xlink:href="#DejaVuSans-35" transform="translate(383.59375 0)"/>
      </g>
     </g>
    </g>
    <g id="xtick_7">
     <g id="line2d_13">
      <path d="M 522.916084 384.48 
L 522.916084 51.84 
" clip-path="url(#p4d2d451742)" style="fill: none; stroke: #b0b0b0; stroke-width: 0.8; stroke-linecap: square"/>
     </g>
     <g id="line2d_14">
      <g>
       <use xlink:href="#m682ecfe3fe" x="522.916084" y="384.48" style="stroke: #000000; stroke-width: 0.8"/>
      </g>
     </g>
     <g id="text_7">
      <!-- 15 11:30 -->
      <g transform="translate(500.555146 399.078438) scale(0.1 -0.1)">
       <use xlink:href="#DejaVuSans-31"/>
       <use xlink:href="#DejaVuSans-35" transform="translate(63.623047 0)"/>
       <use xlink:href="#DejaVuSans-20" transform="translate(127.246094 0)"/>
       <use xlink:href="#DejaVuSans-31" transform="translate(159.033203 0)"/>
       <use xlink:href="#DejaVuSans-31" transform="translate(222.65625 0)"/>
       <use xlink:href="#DejaVuSans-3a" transform="translate(286.279297 0)"/>
       <use xlink:href="#DejaVuSans-33" transform="translate(319.970703 0)"/>
       <use xlink:href="#DejaVuSans-30" transform="translate(383.59375 0)"/>
      </g>
     </g>
    </g>
    <g id="xtick_8">
     <g id="line2d_15">
      <path d="M 587.951049 384.48 
L 587.951049 51.84 
" clip-path="url(#p4d2d451742)" style="fill: none; stroke: #b0b0b0; stroke-width: 0.8; stroke-linecap: square"/>
     </g>
     <g id="line2d_16">
      <g>
       <use xlink:href="#m682ecfe3fe" x="587.951049" y="384.48" style="stroke: #000000; stroke-width: 0.8"/>
      </g>
     </g>
     <g id="text_8">
      <!-- 15 11:45 -->
      <g transform="translate(565.590111 399.078438) scale(0.1 -0.1)">
       <use xlink:href="#DejaVuSans-31"/>
       <use xlink:href="#DejaVuSans-35" transform="translate(63.623047 0)"/>
       <use xlink:href="#DejaVuSans-20" transform="translate(127.246094 0)"/>
       <use xlink:href="#DejaVuSans-31" transform="translate(159.033203 0)"/>
       <use xlink:href="#DejaVuSans-31" transform="translate(222.65625 0)"/>
       <use xlink:href="#DejaVuSans-3a" transform="translate(286.279297 0)"/>
       <use xlink:href="#DejaVuSans-34" transform="translate(319.970703 0)"/>
       <use xlink:href="#DejaVuSans-35" transform="translate(383.59375 0)"/>
      </g>
     </g>
    </g>
    <g id="text_9">
     <!-- Date and Time -->
     <g transform="translate(332.230469 412.756563) scale(0.1 -0.1)">
      <defs>
       <path id="DejaVuSans-44" d="M 1259 4147 
L 1259 519 
L 2022 519 
Q 2988 519 3436 956 
Q 3884 1394 3884 2338 
Q 3884 3275 3436 3711 
Q 2988 4147 2022 4147 
L 1259 4147 
z
M 628 4666 
L 1925 4666 
Q 3281 4666 3915 4102 
Q 4550 3538 4550 2338 
Q 4550 1131 3912 565 
Q 3275 0 1925 0 
L 628 0 
L 628 4666 
z
" transform="scale(0.015625)"/>
       <path id="DejaVuSans-61" d="M 2194 1759 
Q 1497 1759 1228 1600 
Q 959 1441 959 1056 
Q 959 750 1161 570 
Q 1363 391 1709 391 
Q 2188 391 2477 730 
Q 2766 1069 2766 1631 
L 2766 1759 
L 2194 1759 
z
M 3341 1997 
L 3341 0 
L 2766 0 
L 2766 531 
Q 2569 213 2275 61 
Q 1981 -91 1556 -91 
Q 1019 -91 701 211 
Q 384 513 384 1019 
Q 384 1609 779 1909 
Q 1175 2209 1959 2209 
L 2766 2209 
L 2766 2266 
Q 2766 2663 2505 2880 
Q 2244 3097 1772 3097 
Q 1472 3097 1187 3025 
Q 903 2953 641 2809 
L 641 3341 
Q 956 3463 1253 3523 
Q 1550 3584 1831 3584 
Q 2591 3584 2966 3190 
Q 3341 2797 3341 1997 
z
" transform="scale(0.015625)"/>
       <path id="DejaVuSans-74" d="M 1172 4494 
L 1172 3500 
L 2356 3500 
L 2356 3053 
L 1172 3053 
L 1172 1153 
Q 1172 725 1289 603 
Q 1406 481 1766 481 
L 2356 481 
L 2356 0 
L 1766 0 
Q 1100 0 847 248 
Q 594 497 594 1153 
L 594 3053 
L 172 3053 
L 172 3500 
L 594 3500 
L 594 4494 
L 1172 4494 
z
" transform="scale(0.015625)"/>
       <path id="DejaVuSans-65" d="M 3597 1894 
L 3597 1613 
L 953 1613 
Q 991 1019 1311 708 
Q 1631 397 2203 397 
Q 2534 397 2845 478 
Q 3156 559 3463 722 
L 3463 178 
Q 3153 47 2828 -22 
Q 2503 -91 2169 -91 
Q 1331 -91 842 396 
Q 353 884 353 1716 
Q 353 2575 817 3079 
Q 1281 3584 2069 3584 
Q 2775 3584 3186 3129 
Q 3597 2675 3597 1894 
z
M 3022 2063 
Q 3016 2534 2758 2815 
Q 2500 3097 2075 3097 
Q 1594 3097 1305 2825 
Q 1016 2553 972 2059 
L 3022 2063 
z
" transform="scale(0.015625)"/>
       <path id="DejaVuSans-6e" d="M 3513 2113 
L 3513 0 
L 2938 0 
L 2938 2094 
Q 2938 2591 2744 2837 
Q 2550 3084 2163 3084 
Q 1697 3084 1428 2787 
Q 1159 2491 1159 1978 
L 1159 0 
L 581 0 
L 581 3500 
L 1159 3500 
L 1159 2956 
Q 1366 3272 1645 3428 
Q 1925 3584 2291 3584 
Q 2894 3584 3203 3211 
Q 3513 2838 3513 2113 
z
" transform="scale(0.015625)"/>
       <path id="DejaVuSans-64" d="M 2906 2969 
L 2906 4863 
L 3481 4863 
L 3481 0 
L 2906 0 
L 2906 525 
Q 2725 213 2448 61 
Q 2172 -91 1784 -91 
Q 1150 -91 751 415 
Q 353 922 353 1747 
Q 353 2572 751 3078 
Q 1150 3584 1784 3584 
Q 2172 3584 2448 3432 
Q 2725 3281 2906 2969 
z
M 947 1747 
Q 947 1113 1208 752 
Q 1469 391 1925 391 
Q 2381 391 2643 752 
Q 2906 1113 2906 1747 
Q 2906 2381 2643 2742 
Q 2381 3103 1925 3103 
Q 1469 3103 1208 2742 
Q 947 2381 947 1747 
z
" transform="scale(0.015625)"/>
       <path id="DejaVuSans-54" d="M -19 4666 
L 3928 4666 
L 3928 4134 
L 2272 4134 
L 2272 0 
L 1638 0 
L 1638 4134 
L -19 4134 
L -19 4666 
z
" transform="scale(0.015625)"/>
       <path id="DejaVuSans-69" d="M 603 3500 
L 1178 3500 
L 1178 0 
L 603 0 
L 603 3500 
z
M 603 4863 
L 1178 4863 
L 1178 4134 
L 603 4134 
L 603 4863 
z
" transform="scale(0.015625)"/>
       <path id="DejaVuSans-6d" d="M 3328 2828 
Q 3544 3216 3844 3400 
Q 4144 3584 4550 3584 
Q 5097 3584 5394 3201 
Q 5691 2819 5691 2113 
L 5691 0 
L 5113 0 
L 5113 2094 
Q 5113 2597 4934 2840 
Q 4756 3084 4391 3084 
Q 3944 3084 3684 2787 
Q 3425 2491 3425 1978 
L 3425 0 
L 2847 0 
L 2847 2094 
Q 2847 2600 2669 2842 
Q 2491 3084 2119 3084 
Q 1678 3084 1418 2786 
Q 1159 2488 1159 1978 
L 1159 0 
L 581 0 
L 581 3500 
L 1159 3500 
L 1159 2956 
Q 1356 3278 1631 3431 
Q 1906 3584 2284 3584 
Q 2666 3584 2933 3390 
Q 3200 3197 3328 2828 
z
" transform="scale(0.015625)"/>
      </defs>
      <use xlink:href="#DejaVuSans-44"/>
      <use xlink:href="#DejaVuSans-61" transform="translate(77.001953 0)"/>
      <use xlink:href="#DejaVuSans-74" transform="translate(138.28125 0)"/>
      <use xlink:href="#DejaVuSans-65" transform="translate(177.490234 0)"/>
      <use xlink:href="#DejaVuSans-20" transform="translate(239.013672 0)"/>
      <use xlink:href="#DejaVuSans-61" transform="translate(270.800781 0)"/>
      <use xlink:href="#DejaVuSans-6e" transform="translate(332.080078 0)"/>
      <use xlink:href="#DejaVuSans-64" transform="translate(395.458984 0)"/>
      <use xlink:href="#DejaVuSans-20" transform="translate(458.935547 0)"/>
      <use xlink:href="#DejaVuSans-54" transform="translate(490.722656 0)"/>
      <use xlink:href="#DejaVuSans-69" transform="translate(548.681641 0)"/>
      <use xlink:href="#DejaVuSans-6d" transform="translate(576.464844 0)"/>
      <use xlink:href="#DejaVuSans-65" transform="translate(673.876953 0)"/>
     </g>
    </g>
   </g>
   <g id="matplotlib.axis_2">
    <g id="ytick_1">
     <g id="line2d_17">
      <path d="M 90 370.774737 
L 648 370.774737 
" clip-path="url(#p4d2d451742)" style="fill: none; stroke: #b0b0b0; stroke-width: 0.8; stroke-linecap: square"/>
     </g>
     <g id="line2d_18">
      <defs>
       <path id="m7f968ffc4d" d="M 0 0 
L -3.5 0 
" style="stroke: #000000; stroke-width: 0.8"/>
      </defs>
      <g>
       <use xlink:href="#m7f968ffc4d" x="90" y="370.774737" style="stroke: #000000; stroke-width: 0.8"/>
      </g>
     </g>
     <g id="text_10">
      <!-- 0 -->
      <g transform="translate(76.6375 374.573956) scale(0.1 -0.1)">
       <use xlink:href="#DejaVuSans-30"/>
      </g>
     </g>
    </g>
    <g id="ytick_2">
     <g id="line2d_19">
      <path d="M 90 300.037895 
L 648 300.037895 
" clip-path="url(#p4d2d451742)" style="fill: none; stroke: #b0b0b0; stroke-width: 0.8; stroke-linecap: square"/>
     </g>
     <g id="line2d_20">
      <g>
       <use xlink:href="#m7f968ffc4d" x="90" y="300.037895" style="stroke: #000000; stroke-width: 0.8"/>
      </g>
     </g>
     <g id="text_11">
      <!-- 200 -->
      <g transform="translate(63.9125 303.837113) scale(0.1 -0.1)">
       <defs>
        <path id="DejaVuSans-32" d="M 1228 531 
L 3431 531 
L 3431 0 
L 469 0 
L 469 531 
Q 828 903 1448 1529 
Q 2069 2156 2228 2338 
Q 2531 2678 2651 2914 
Q 2772 3150 2772 3378 
Q 2772 3750 2511 3984 
Q 2250 4219 1831 4219 
Q 1534 4219 1204 4116 
Q 875 4013 500 3803 
L 500 4441 
Q 881 4594 1212 4672 
Q 1544 4750 1819 4750 
Q 2544 4750 2975 4387 
Q 3406 4025 3406 3419 
Q 3406 3131 3298 2873 
Q 3191 2616 2906 2266 
Q 2828 2175 2409 1742 
Q 1991 1309 1228 531 
z
" transform="scale(0.015625)"/>
       </defs>
       <use xlink:href="#DejaVuSans-32"/>
       <use xlink:href="#DejaVuSans-30" transform="translate(63.623047 0)"/>
       <use xlink:href="#DejaVuSans-30" transform="translate(127.246094 0)"/>
      </g>
     </g>
    </g>
    <g id="ytick_3">
     <g id="line2d_21">
      <path d="M 90 229.301053 
L 648 229.301053 
" clip-path="url(#p4d2d451742)" style="fill: none; stroke: #b0b0b0; stroke-width: 0.8; stroke-linecap: square"/>
     </g>
     <g id="line2d_22">
      <g>
       <use xlink:href="#m7f968ffc4d" x="90" y="229.301053" style="stroke: #000000; stroke-width: 0.8"/>
      </g>
     </g>
     <g id="text_12">
      <!-- 400 -->
      <g transform="translate(63.9125 233.100271) scale(0.1 -0.1)">
       <use xlink:href="#DejaVuSans-34"/>
       <use xlink:href="#DejaVuSans-30" transform="translate(63.623047 0)"/>
       <use xlink:href="#DejaVuSans-30" transform="translate(127.246094 0)"/>
      </g>
     </g>
    </g>
    <g id="ytick_4">
     <g id="line2d_23">
      <path d="M 90 158.564211 
L 648 158.564211 
" clip-path="url(#p4d2d451742)" style="fill: none; stroke: #b0b0b0; stroke-width: 0.8; stroke-linecap: square"/>
     </g>
     <g id="line2d_24">
      <g>
       <use xlink:href="#m7f968ffc4d" x="90" y="158.564211" style="stroke: #000000; stroke-width: 0.8"/>
      </g>
     </g>
     <g id="text_13">
      <!-- 600 -->
      <g transform="translate(63.9125 162.363429) scale(0.1 -0.1)">
       <defs>
        <path id="DejaVuSans-36" d="M 2113 2584 
Q 1688 2584 1439 2293 
Q 1191 2003 1191 1497 
Q 1191 994 1439 701 
Q 1688 409 2113 409 
Q 2538 409 2786 701 
Q 3034 994 3034 1497 
Q 3034 2003 2786 2293 
Q 2538 2584 2113 2584 
z
M 3366 4563 
L 3366 3988 
Q 3128 4100 2886 4159 
Q 2644 4219 2406 4219 
Q 1781 4219 1451 3797 
Q 1122 3375 1075 2522 
Q 1259 2794 1537 2939 
Q 1816 3084 2150 3084 
Q 2853 3084 3261 2657 
Q 3669 2231 3669 1497 
Q 3669 778 3244 343 
Q 2819 -91 2113 -91 
Q 1303 -91 875 529 
Q 447 1150 447 2328 
Q 447 3434 972 4092 
Q 1497 4750 2381 4750 
Q 2619 4750 2861 4703 
Q 3103 4656 3366 4563 
z
" transform="scale(0.015625)"/>
       </defs>
       <use xlink:href="#DejaVuSans-36"/>
       <use xlink:href="#DejaVuSans-30" transform="translate(63.623047 0)"/>
       <use xlink:href="#DejaVuSans-30" transform="translate(127.246094 0)"/>
      </g>
     </g>
    </g>
    <g id="ytick_5">
     <g id="line2d_25">
      <path d="M 90 87.827368 
L 648 87.827368 
" clip-path="url(#p4d2d451742)" style="fill: none; stroke: #b0b0b0; stroke-width: 0.8; stroke-linecap: square"/>
     </g>
     <g id="line2d_26">
      <g>
       <use xlink:href="#m7f968ffc4d" x="90" y="87.827368" style="stroke: #000000; stroke-width: 0.8"/>
      </g>
     </g>
     <g id="text_14">
      <!-- 800 -->
      <g transform="translate(63.9125 91.626587) scale(0.1 -0.1)">
       <defs>
        <path id="DejaVuSans-38" d="M 2034 2216 
Q 1584 2216 1326 1975 
Q 1069 1734 1069 1313 
Q 1069 891 1326 650 
Q 1584 409 2034 409 
Q 2484 409 2743 651 
Q 3003 894 3003 1313 
Q 3003 1734 2745 1975 
Q 2488 2216 2034 2216 
z
M 1403 2484 
Q 997 2584 770 2862 
Q 544 3141 544 3541 
Q 544 4100 942 4425 
Q 1341 4750 2034 4750 
Q 2731 4750 3128 4425 
Q 3525 4100 3525 3541 
Q 3525 3141 3298 2862 
Q 3072 2584 2669 2484 
Q 3125 2378 3379 2068 
Q 3634 1759 3634 1313 
Q 3634 634 3220 271 
Q 2806 -91 2034 -91 
Q 1263 -91 848 271 
Q 434 634 434 1313 
Q 434 1759 690 2068 
Q 947 2378 1403 2484 
z
M 1172 3481 
Q 1172 3119 1398 2916 
Q 1625 2713 2034 2713 
Q 2441 2713 2670 2916 
Q 2900 3119 2900 3481 
Q 2900 3844 2670 4047 
Q 2441 4250 2034 4250 
Q 1625 4250 1398 4047 
Q 1172 3844 1172 3481 
z
" transform="scale(0.015625)"/>
       </defs>
       <use xlink:href="#DejaVuSans-38"/>
       <use xlink:href="#DejaVuSans-30" transform="translate(63.623047 0)"/>
       <use xlink:href="#DejaVuSans-30" transform="translate(127.246094 0)"/>
      </g>
     </g>
    </g>
    <g id="text_15">
     <!-- Votes -->
     <g transform="translate(57.832812 231.893594) rotate(-90) scale(0.1 -0.1)">
      <defs>
       <path id="DejaVuSans-56" d="M 1831 0 
L 50 4666 
L 709 4666 
L 2188 738 
L 3669 4666 
L 4325 4666 
L 2547 0 
L 1831 0 
z
" transform="scale(0.015625)"/>
       <path id="DejaVuSans-6f" d="M 1959 3097 
Q 1497 3097 1228 2736 
Q 959 2375 959 1747 
Q 959 1119 1226 758 
Q 1494 397 1959 397 
Q 2419 397 2687 759 
Q 2956 1122 2956 1747 
Q 2956 2369 2687 2733 
Q 2419 3097 1959 3097 
z
M 1959 3584 
Q 2709 3584 3137 3096 
Q 3566 2609 3566 1747 
Q 3566 888 3137 398 
Q 2709 -91 1959 -91 
Q 1206 -91 779 398 
Q 353 888 353 1747 
Q 353 2609 779 3096 
Q 1206 3584 1959 3584 
z
" transform="scale(0.015625)"/>
       <path id="DejaVuSans-73" d="M 2834 3397 
L 2834 2853 
Q 2591 2978 2328 3040 
Q 2066 3103 1784 3103 
Q 1356 3103 1142 2972 
Q 928 2841 928 2578 
Q 928 2378 1081 2264 
Q 1234 2150 1697 2047 
L 1894 2003 
Q 2506 1872 2764 1633 
Q 3022 1394 3022 966 
Q 3022 478 2636 193 
Q 2250 -91 1575 -91 
Q 1294 -91 989 -36 
Q 684 19 347 128 
L 347 722 
Q 666 556 975 473 
Q 1284 391 1588 391 
Q 1994 391 2212 530 
Q 2431 669 2431 922 
Q 2431 1156 2273 1281 
Q 2116 1406 1581 1522 
L 1381 1569 
Q 847 1681 609 1914 
Q 372 2147 372 2553 
Q 372 3047 722 3315 
Q 1072 3584 1716 3584 
Q 2034 3584 2315 3537 
Q 2597 3491 2834 3397 
z
" transform="scale(0.015625)"/>
      </defs>
      <use xlink:href="#DejaVuSans-56"/>
      <use xlink:href="#DejaVuSans-6f" transform="translate(60.658203 0)"/>
      <use xlink:href="#DejaVuSans-74" transform="translate(121.839844 0)"/>
      <use xlink:href="#DejaVuSans-65" transform="translate(161.048828 0)"/>
      <use xlink:href="#DejaVuSans-73" transform="translate(222.572266 0)"/>
     </g>
    </g>
   </g>
   <g id="line2d_27">
    <path d="M 115.363636 322.32 
L 119.699301 322.32 
L 124.034965 322.32 
L 128.370629 322.32 
L 132.706294 322.32 
L 137.041958 322.32 
L 141.377622 322.32 
L 145.713287 321.966316 
L 150.048951 321.966316 
L 154.384615 321.966316 
L 158.72028 321.966316 
L 163.055944 321.966316 
L 167.391608 321.966316 
L 171.727273 321.966316 
L 176.062937 321.966316 
L 180.398601 321.966316 
L 184.734266 321.966316 
L 189.06993 321.966316 
L 193.405594 321.966316 
L 197.741259 321.966316 
L 202.076923 321.966316 
L 206.412587 321.966316 
L 210.748252 321.966316 
L 215.083916 321.966316 
L 219.41958 321.966316 
L 223.755245 321.966316 
L 228.090909 321.966316 
L 232.426573 321.966316 
L 236.762238 321.966316 
L 241.097902 321.966316 
L 245.433566 321.966316 
L 249.769231 321.966316 
L 254.104895 321.966316 
L 258.440559 321.612632 
L 262.776224 321.612632 
L 267.111888 321.612632 
L 271.447552 321.612632 
L 275.783217 321.612632 
L 280.118881 321.612632 
L 284.454545 321.612632 
L 288.79021 321.612632 
L 293.125874 321.612632 
L 297.461538 321.612632 
L 301.797203 321.612632 
L 306.132867 321.258947 
L 310.468531 321.258947 
L 314.804196 320.905263 
L 319.13986 320.905263 
L 323.475524 320.905263 
L 327.811189 320.905263 
L 332.146853 320.551579 
L 336.482517 320.551579 
L 340.818182 320.551579 
L 345.153846 320.551579 
L 349.48951 320.197895 
L 353.825175 320.197895 
L 358.160839 320.197895 
L 362.496503 320.197895 
L 366.832168 320.197895 
L 371.167832 320.197895 
L 375.503496 320.197895 
L 379.839161 320.197895 
L 384.174825 320.197895 
L 388.51049 320.197895 
L 392.846154 320.197895 
L 397.181818 320.197895 
L 401.517483 319.844211 
L 405.853147 319.844211 
L 410.188811 319.844211 
L 414.524476 319.844211 
L 418.86014 319.844211 
L 423.195804 319.844211 
L 427.531469 319.844211 
L 431.867133 319.844211 
L 436.202797 319.844211 
L 440.538462 319.844211 
L 444.874126 319.844211 
L 449.20979 319.490526 
L 453.545455 319.490526 
L 457.881119 319.490526 
L 462.216783 319.490526 
L 466.552448 319.490526 
L 470.888112 318.783158 
L 475.223776 318.783158 
L 479.559441 318.783158 
L 483.895105 318.783158 
L 488.230769 318.783158 
L 492.566434 318.783158 
L 496.902098 318.783158 
L 501.237762 318.783158 
L 505.573427 318.783158 
L 509.909091 318.783158 
L 514.244755 318.783158 
L 518.58042 318.783158 
L 522.916084 318.783158 
L 527.251748 318.783158 
L 531.587413 318.783158 
L 535.923077 318.783158 
L 540.258741 318.429474 
L 544.594406 318.429474 
L 548.93007 318.429474 
L 553.265734 318.429474 
L 557.601399 318.429474 
L 561.937063 318.429474 
L 566.272727 318.429474 
L 570.608392 318.075789 
L 574.944056 318.075789 
L 579.27972 318.075789 
L 583.615385 318.075789 
L 587.951049 317.722105 
L 592.286713 317.722105 
L 596.622378 317.368421 
L 600.958042 317.368421 
L 605.293706 317.368421 
L 609.629371 317.368421 
L 613.965035 317.368421 
L 618.300699 317.368421 
L 622.636364 317.014737 
" clip-path="url(#p4d2d451742)" style="fill: none; stroke: #1f77b4; stroke-width: 1.5; stroke-linecap: square"/>
   </g>
   <g id="line2d_28">
    <path d="M 115.363636 213.385263 
L 119.699301 213.031579 
L 124.034965 212.324211 
L 128.370629 211.970526 
L 132.706294 211.616842 
L 137.041958 211.263158 
L 141.377622 211.616842 
L 145.713287 210.202105 
L 150.048951 209.848421 
L 154.384615 208.08 
L 158.72028 207.018947 
L 163.055944 205.957895 
L 167.391608 204.543158 
L 171.727273 204.543158 
L 176.062937 203.128421 
L 180.398601 202.421053 
L 184.734266 200.652632 
L 189.06993 195.701053 
L 193.405594 191.810526 
L 197.741259 188.627368 
L 202.076923 186.505263 
L 206.412587 185.090526 
L 210.748252 183.322105 
L 215.083916 182.261053 
L 219.41958 180.846316 
L 223.755245 178.724211 
L 228.090909 177.309474 
L 232.426573 176.248421 
L 236.762238 173.418947 
L 241.097902 170.943158 
L 245.433566 169.882105 
L 249.769231 167.76 
L 254.104895 165.284211 
L 258.440559 163.869474 
L 262.776224 163.515789 
L 267.111888 162.101053 
L 271.447552 159.978947 
L 275.783217 156.795789 
L 280.118881 152.905263 
L 284.454545 150.429474 
L 288.79021 148.661053 
L 293.125874 147.246316 
L 297.461538 145.831579 
L 301.797203 143.355789 
L 306.132867 142.294737 
L 310.468531 139.818947 
L 314.804196 138.757895 
L 319.13986 138.050526 
L 323.475524 136.989474 
L 327.811189 136.282105 
L 332.146853 135.574737 
L 336.482517 134.867368 
L 340.818182 134.513684 
L 345.153846 133.806316 
L 349.48951 132.745263 
L 353.825175 131.330526 
L 358.160839 130.976842 
L 362.496503 130.269474 
L 366.832168 129.562105 
L 371.167832 129.208421 
L 375.503496 128.147368 
L 379.839161 127.086316 
L 384.174825 126.732632 
L 388.51049 126.378947 
L 392.846154 124.964211 
L 397.181818 124.256842 
L 401.517483 122.134737 
L 405.853147 121.427368 
L 410.188811 120.366316 
L 414.524476 119.305263 
L 418.86014 118.951579 
L 423.195804 118.597895 
L 427.531469 117.536842 
L 431.867133 116.829474 
L 436.202797 116.475789 
L 440.538462 114.707368 
L 444.874126 114 
L 449.20979 114 
L 453.545455 114 
L 457.881119 112.938947 
L 462.216783 111.877895 
L 466.552448 110.816842 
L 470.888112 109.402105 
L 475.223776 109.402105 
L 479.559441 108.694737 
L 483.895105 108.694737 
L 488.230769 107.28 
L 492.566434 106.572632 
L 496.902098 106.218947 
L 501.237762 106.218947 
L 505.573427 106.218947 
L 509.909091 105.865263 
L 514.244755 105.511579 
L 518.58042 105.511579 
L 522.916084 104.804211 
L 527.251748 103.035789 
L 531.587413 101.621053 
L 535.923077 100.206316 
L 540.258741 99.145263 
L 544.594406 98.437895 
L 548.93007 97.023158 
L 553.265734 96.315789 
L 557.601399 95.608421 
L 561.937063 94.193684 
L 566.272727 93.84 
L 570.608392 93.132632 
L 574.944056 92.071579 
L 579.27972 91.010526 
L 583.615385 90.656842 
L 587.951049 89.242105 
L 592.286713 88.888421 
L 596.622378 87.12 
L 600.958042 86.058947 
L 605.293706 84.644211 
L 609.629371 82.522105 
L 613.965035 79.338947 
L 618.300699 76.863158 
L 622.636364 73.68 
" clip-path="url(#p4d2d451742)" style="fill: none; stroke: #ff7f0e; stroke-width: 1.5; stroke-linecap: square"/>
   </g>
   <g id="line2d_29">
    <path d="M 115.363636 313.124211 
L 119.699301 313.124211 
L 124.034965 312.770526 
L 128.370629 312.770526 
L 132.706294 312.770526 
L 137.041958 312.770526 
L 141.377622 312.770526 
L 145.713287 312.770526 
L 150.048951 312.770526 
L 154.384615 312.770526 
L 158.72028 312.770526 
L 163.055944 312.770526 
L 167.391608 312.770526 
L 171.727273 312.770526 
L 176.062937 312.770526 
L 180.398601 312.770526 
L 184.734266 312.770526 
L 189.06993 312.770526 
L 193.405594 312.770526 
L 197.741259 312.770526 
L 202.076923 312.770526 
L 206.412587 312.770526 
L 210.748252 312.770526 
L 215.083916 312.770526 
L 219.41958 312.770526 
L 223.755245 312.770526 
L 228.090909 312.063158 
L 232.426573 311.709474 
L 236.762238 311.002105 
L 241.097902 311.002105 
L 245.433566 310.648421 
L 249.769231 310.648421 
L 254.104895 310.648421 
L 258.440559 310.648421 
L 262.776224 310.648421 
L 267.111888 310.648421 
L 271.447552 310.648421 
L 275.783217 310.648421 
L 280.118881 310.648421 
L 284.454545 310.648421 
L 288.79021 310.648421 
L 293.125874 310.648421 
L 297.461538 310.648421 
L 301.797203 310.648421 
L 306.132867 310.294737 
L 310.468531 310.294737 
L 314.804196 309.587368 
L 319.13986 309.587368 
L 323.475524 309.587368 
L 327.811189 309.587368 
L 332.146853 309.587368 
L 336.482517 309.587368 
L 340.818182 309.587368 
L 345.153846 309.233684 
L 349.48951 309.233684 
L 353.825175 309.233684 
L 358.160839 309.233684 
L 362.496503 309.233684 
L 366.832168 309.233684 
L 371.167832 309.233684 
L 375.503496 309.233684 
L 379.839161 309.233684 
L 384.174825 309.233684 
L 388.51049 309.233684 
L 392.846154 309.233684 
L 397.181818 309.233684 
L 401.517483 309.233684 
L 405.853147 309.233684 
L 410.188811 309.233684 
L 414.524476 309.233684 
L 418.86014 309.233684 
L 423.195804 309.233684 
L 427.531469 309.233684 
L 431.867133 308.88 
L 436.202797 308.526316 
L 440.538462 308.526316 
L 444.874126 308.526316 
L 449.20979 308.526316 
L 453.545455 308.526316 
L 457.881119 308.526316 
L 462.216783 308.172632 
L 466.552448 308.172632 
L 470.888112 308.172632 
L 475.223776 308.172632 
L 479.559441 308.172632 
L 483.895105 308.172632 
L 488.230769 308.172632 
L 492.566434 308.172632 
L 496.902098 308.172632 
L 501.237762 308.172632 
L 505.573427 308.172632 
L 509.909091 308.172632 
L 514.244755 308.172632 
L 518.58042 308.172632 
L 522.916084 308.172632 
L 527.251748 308.172632 
L 531.587413 308.172632 
L 535.923077 308.172632 
L 540.258741 308.172632 
L 544.594406 308.172632 
L 548.93007 308.172632 
L 553.265734 308.172632 
L 557.601399 308.172632 
L 561.937063 308.172632 
L 566.272727 308.172632 
L 570.608392 307.818947 
L 574.944056 307.818947 
L 579.27972 307.818947 
L 583.615385 307.818947 
L 587.951049 307.818947 
L 592.286713 307.465263 
L 596.622378 307.465263 
L 600.958042 307.465263 
L 605.293706 307.465263 
L 609.629371 307.465263 
L 613.965035 307.465263 
L 618.300699 307.465263 
L 622.636364 307.465263 
" clip-path="url(#p4d2d451742)" style="fill: none; stroke: #2ca02c; stroke-width: 1.5; stroke-linecap: square"/>
   </g>
   <g id="line2d_30">
    <path d="M 115.363636 369.36 
L 119.699301 369.36 
L 124.034965 369.36 
L 128.370629 369.36 
L 132.706294 369.36 
L 137.041958 369.36 
L 141.377622 369.36 
L 145.713287 369.36 
L 150.048951 369.36 
L 154.384615 369.36 
L 158.72028 369.36 
L 163.055944 369.36 
L 167.391608 369.36 
L 171.727273 369.36 
L 176.062937 369.36 
L 180.398601 369.36 
L 184.734266 369.36 
L 189.06993 369.36 
L 193.405594 369.36 
L 197.741259 369.36 
L 202.076923 369.36 
L 206.412587 369.36 
L 210.748252 369.36 
L 215.083916 369.36 
L 219.41958 369.36 
L 223.755245 369.36 
L 228.090909 369.36 
L 232.426573 369.36 
L 236.762238 369.36 
L 241.097902 369.36 
L 245.433566 369.36 
L 249.769231 369.36 
L 254.104895 369.006316 
L 258.440559 368.652632 
L 262.776224 368.652632 
L 267.111888 368.652632 
L 271.447552 368.652632 
L 275.783217 368.652632 
L 280.118881 368.652632 
L 284.454545 368.652632 
L 288.79021 368.652632 
L 293.125874 368.652632 
L 297.461538 368.652632 
L 301.797203 368.652632 
L 306.132867 368.652632 
L 310.468531 368.652632 
L 314.804196 368.652632 
L 319.13986 368.652632 
L 323.475524 368.652632 
L 327.811189 368.652632 
L 332.146853 368.652632 
L 336.482517 368.652632 
L 340.818182 368.652632 
L 345.153846 368.652632 
L 349.48951 368.652632 
L 353.825175 368.652632 
L 358.160839 368.652632 
L 362.496503 368.652632 
L 366.832168 368.298947 
L 371.167832 368.298947 
L 375.503496 368.298947 
L 379.839161 368.298947 
L 384.174825 368.298947 
L 388.51049 368.298947 
L 392.846154 368.298947 
L 397.181818 368.298947 
L 401.517483 368.298947 
L 405.853147 368.298947 
L 410.188811 368.298947 
L 414.524476 368.298947 
L 418.86014 368.298947 
L 423.195804 368.298947 
L 427.531469 368.298947 
L 431.867133 368.298947 
L 436.202797 368.298947 
L 440.538462 368.298947 
L 444.874126 368.298947 
L 449.20979 368.298947 
L 453.545455 368.298947 
L 457.881119 368.298947 
L 462.216783 368.298947 
L 466.552448 368.298947 
L 470.888112 368.298947 
L 475.223776 368.298947 
L 479.559441 368.298947 
L 483.895105 368.298947 
L 488.230769 368.298947 
L 492.566434 368.298947 
L 496.902098 368.298947 
L 501.237762 368.298947 
L 505.573427 368.298947 
L 509.909091 368.298947 
L 514.244755 368.298947 
L 518.58042 368.298947 
L 522.916084 368.298947 
L 527.251748 368.298947 
L 531.587413 368.298947 
L 535.923077 368.298947 
L 540.258741 368.298947 
L 544.594406 368.298947 
L 548.93007 368.298947 
L 553.265734 368.298947 
L 557.601399 368.298947 
L 561.937063 368.298947 
L 566.272727 368.298947 
L 570.608392 368.298947 
L 574.944056 368.298947 
L 579.27972 368.298947 
L 583.615385 368.298947 
L 587.951049 368.298947 
L 592.286713 368.298947 
L 596.622378 368.298947 
L 600.958042 368.298947 
L 605.293706 368.298947 
L 609.629371 368.298947 
L 613.965035 368.298947 
L 618.300699 368.298947 
L 622.636364 368.298947 
" clip-path="url(#p4d2d451742)" style="fill: none; stroke: #d62728; stroke-width: 1.5; stroke-linecap: square"/>
   </g>
   <g id="line2d_31">
    <path d="M 115.363636 355.566316 
L 119.699301 355.566316 
L 124.034965 355.566316 
L 128.370629 355.566316 
L 132.706294 355.566316 
L 137.041958 355.566316 
L 141.377622 355.566316 
L 145.713287 355.566316 
L 150.048951 355.566316 
L 154.384615 355.566316 
L 158.72028 355.566316 
L 163.055944 355.566316 
L 167.391608 355.566316 
L 171.727273 355.566316 
L 176.062937 355.566316 
L 180.398601 355.566316 
L 184.734266 355.566316 
L 189.06993 355.566316 
L 193.405594 355.566316 
L 197.741259 355.566316 
L 202.076923 355.566316 
L 206.412587 355.566316 
L 210.748252 355.566316 
L 215.083916 355.566316 
L 219.41958 355.566316 
L 223.755245 355.566316 
L 228.090909 355.566316 
L 232.426573 355.566316 
L 236.762238 355.566316 
L 241.097902 355.566316 
L 245.433566 355.566316 
L 249.769231 355.566316 
L 254.104895 355.566316 
L 258.440559 355.566316 
L 262.776224 355.566316 
L 267.111888 355.566316 
L 271.447552 355.212632 
L 275.783217 355.212632 
L 280.118881 355.212632 
L 284.454545 355.212632 
L 288.79021 355.212632 
L 293.125874 355.212632 
L 297.461538 355.212632 
L 301.797203 355.212632 
L 306.132867 355.212632 
L 310.468531 355.212632 
L 314.804196 355.212632 
L 319.13986 355.212632 
L 323.475524 355.212632 
L 327.811189 355.212632 
L 332.146853 355.212632 
L 336.482517 355.212632 
L 340.818182 355.212632 
L 345.153846 355.212632 
L 349.48951 355.212632 
L 353.825175 355.212632 
L 358.160839 355.212632 
L 362.496503 355.212632 
L 366.832168 355.212632 
L 371.167832 355.212632 
L 375.503496 355.212632 
L 379.839161 355.212632 
L 384.174825 355.212632 
L 388.51049 355.212632 
L 392.846154 355.212632 
L 397.181818 355.212632 
L 401.517483 355.212632 
L 405.853147 355.212632 
L 410.188811 355.212632 
L 414.524476 355.212632 
L 418.86014 355.212632 
L 423.195804 355.212632 
L 427.531469 355.212632 
L 431.867133 355.212632 
L 436.202797 355.212632 
L 440.538462 355.212632 
L 444.874126 355.212632 
L 449.20979 354.505263 
L 453.545455 354.505263 
L 457.881119 354.505263 
L 462.216783 354.505263 
L 466.552448 354.505263 
L 470.888112 354.505263 
L 475.223776 354.505263 
L 479.559441 354.505263 
L 483.895105 354.505263 
L 488.230769 354.505263 
L 492.566434 354.505263 
L 496.902098 354.505263 
L 501.237762 354.151579 
L 505.573427 354.151579 
L 509.909091 354.151579 
L 514.244755 354.151579 
L 518.58042 354.151579 
L 522.916084 354.151579 
L 527.251748 354.151579 
L 531.587413 354.151579 
L 535.923077 354.151579 
L 540.258741 354.151579 
L 544.594406 354.151579 
L 548.93007 354.151579 
L 553.265734 354.151579 
L 557.601399 354.151579 
L 561.937063 354.151579 
L 566.272727 354.151579 
L 570.608392 354.151579 
L 574.944056 354.151579 
L 579.27972 354.151579 
L 583.615385 354.151579 
L 587.951049 354.151579 
L 592.286713 354.151579 
L 596.622378 354.151579 
L 600.958042 354.151579 
L 605.293706 354.151579 
L 609.629371 354.151579 
L 613.965035 354.151579 
L 618.300699 354.151579 
L 622.636364 354.151579 
" clip-path="url(#p4d2d451742)" style="fill: none; stroke: #9467bd; stroke-width: 1.5; stroke-linecap: square"/>
   </g>
   <g id="line2d_32">
    <path d="M 115.363636 357.334737 
L 119.699301 357.334737 
L 124.034965 357.334737 
L 128.370629 357.334737 
L 132.706294 357.334737 
L 137.041958 357.334737 
L 141.377622 357.334737 
L 145.713287 357.334737 
L 150.048951 357.334737 
L 154.384615 357.334737 
L 158.72028 357.334737 
L 163.055944 357.334737 
L 167.391608 357.334737 
L 171.727273 357.334737 
L 176.062937 357.334737 
L 180.398601 357.334737 
L 184.734266 357.334737 
L 189.06993 357.334737 
L 193.405594 357.334737 
L 197.741259 357.334737 
L 202.076923 357.334737 
L 206.412587 357.334737 
L 210.748252 357.334737 
L 215.083916 357.334737 
L 219.41958 357.334737 
L 223.755245 357.334737 
L 228.090909 357.334737 
L 232.426573 357.334737 
L 236.762238 357.334737 
L 241.097902 357.334737 
L 245.433566 357.334737 
L 249.769231 357.334737 
L 254.104895 357.334737 
L 258.440559 357.334737 
L 262.776224 356.981053 
L 267.111888 356.981053 
L 271.447552 356.981053 
L 275.783217 357.334737 
L 280.118881 356.981053 
L 284.454545 356.981053 
L 288.79021 356.981053 
L 293.125874 356.981053 
L 297.461538 356.981053 
L 301.797203 356.981053 
L 306.132867 356.981053 
L 310.468531 356.981053 
L 314.804196 356.981053 
L 319.13986 356.981053 
L 323.475524 356.981053 
L 327.811189 356.981053 
L 332.146853 356.981053 
L 336.482517 356.981053 
L 340.818182 356.981053 
L 345.153846 356.981053 
L 349.48951 356.981053 
L 353.825175 356.981053 
L 358.160839 356.981053 
L 362.496503 356.981053 
L 366.832168 356.981053 
L 371.167832 356.981053 
L 375.503496 356.981053 
L 379.839161 356.981053 
L 384.174825 356.981053 
L 388.51049 356.981053 
L 392.846154 356.981053 
L 397.181818 356.981053 
L 401.517483 356.981053 
L 405.853147 356.981053 
L 410.188811 356.981053 
L 414.524476 356.981053 
L 418.86014 356.981053 
L 423.195804 356.981053 
L 427.531469 356.981053 
L 431.867133 356.981053 
L 436.202797 356.627368 
L 440.538462 356.627368 
L 444.874126 356.981053 
L 449.20979 356.981053 
L 453.545455 356.981053 
L 457.881119 356.981053 
L 462.216783 356.981053 
L 466.552448 356.981053 
L 470.888112 356.981053 
L 475.223776 356.981053 
L 479.559441 356.981053 
L 483.895105 356.981053 
L 488.230769 356.981053 
L 492.566434 356.981053 
L 496.902098 356.981053 
L 501.237762 356.981053 
L 505.573427 356.981053 
L 509.909091 356.981053 
L 514.244755 356.981053 
L 518.58042 356.981053 
L 522.916084 356.981053 
L 527.251748 356.981053 
L 531.587413 356.627368 
L 535.923077 356.627368 
L 540.258741 356.627368 
L 544.594406 356.627368 
L 548.93007 356.627368 
L 553.265734 356.627368 
L 557.601399 356.627368 
L 561.937063 356.627368 
L 566.272727 356.627368 
L 570.608392 356.627368 
L 574.944056 356.627368 
L 579.27972 356.627368 
L 583.615385 356.627368 
L 587.951049 356.627368 
L 592.286713 356.627368 
L 596.622378 356.627368 
L 600.958042 356.627368 
L 605.293706 356.627368 
L 609.629371 356.627368 
L 613.965035 356.627368 
L 618.300699 356.627368 
L 622.636364 356.627368 
" clip-path="url(#p4d2d451742)" style="fill: none; stroke: #8c564b; stroke-width: 1.5; stroke-linecap: square"/>
   </g>
   <g id="line2d_33">
    <path d="M 115.363636 216.922105 
L 119.699301 216.214737 
L 124.034965 215.153684 
L 128.370629 214.446316 
L 132.706294 212.677895 
L 137.041958 211.616842 
L 141.377622 210.202105 
L 145.713287 208.787368 
L 150.048951 207.372632 
L 154.384615 205.604211 
L 158.72028 204.896842 
L 163.055944 204.189474 
L 167.391608 203.482105 
L 171.727273 202.421053 
L 176.062937 199.945263 
L 180.398601 198.530526 
L 184.734266 197.469474 
L 189.06993 195.701053 
L 193.405594 194.286316 
L 197.741259 191.810526 
L 202.076923 190.749474 
L 206.412587 189.688421 
L 210.748252 187.212632 
L 215.083916 186.151579 
L 219.41958 185.090526 
L 223.755245 184.383158 
L 228.090909 181.907368 
L 232.426573 179.431579 
L 236.762238 177.663158 
L 241.097902 177.663158 
L 245.433566 176.248421 
L 249.769231 174.126316 
L 254.104895 173.065263 
L 258.440559 171.650526 
L 262.776224 171.296842 
L 267.111888 169.528421 
L 271.447552 168.467368 
L 275.783217 167.052632 
L 280.118881 163.869474 
L 284.454545 162.454737 
L 288.79021 161.393684 
L 293.125874 159.978947 
L 297.461538 159.625263 
L 301.797203 158.564211 
L 306.132867 158.210526 
L 310.468531 157.503158 
L 314.804196 156.088421 
L 319.13986 155.381053 
L 323.475524 153.966316 
L 327.811189 153.258947 
L 332.146853 151.490526 
L 336.482517 151.490526 
L 340.818182 149.368421 
L 345.153846 148.661053 
L 349.48951 147.953684 
L 353.825175 146.538947 
L 358.160839 145.124211 
L 362.496503 144.063158 
L 366.832168 143.355789 
L 371.167832 142.648421 
L 375.503496 142.294737 
L 379.839161 141.587368 
L 384.174825 141.587368 
L 388.51049 141.587368 
L 392.846154 140.88 
L 397.181818 139.818947 
L 401.517483 139.465263 
L 405.853147 137.696842 
L 410.188811 137.343158 
L 414.524476 135.928421 
L 418.86014 134.867368 
L 423.195804 134.16 
L 427.531469 132.745263 
L 431.867133 131.330526 
L 436.202797 129.915789 
L 440.538462 129.562105 
L 444.874126 129.208421 
L 449.20979 128.854737 
L 453.545455 127.086316 
L 457.881119 126.025263 
L 462.216783 125.317895 
L 466.552448 124.256842 
L 470.888112 122.842105 
L 475.223776 121.781053 
L 479.559441 121.073684 
L 483.895105 121.073684 
L 488.230769 120.366316 
L 492.566434 120.366316 
L 496.902098 120.012632 
L 501.237762 120.012632 
L 505.573427 118.597895 
L 509.909091 116.122105 
L 514.244755 114.707368 
L 518.58042 112.585263 
L 522.916084 110.463158 
L 527.251748 108.694737 
L 531.587413 106.926316 
L 535.923077 105.511579 
L 540.258741 104.450526 
L 544.594406 103.389474 
L 548.93007 103.035789 
L 553.265734 102.682105 
L 557.601399 101.267368 
L 561.937063 100.56 
L 566.272727 99.145263 
L 570.608392 97.730526 
L 574.944056 95.962105 
L 579.27972 93.84 
L 583.615385 92.778947 
L 587.951049 89.595789 
L 592.286713 87.827368 
L 596.622378 85.705263 
L 600.958042 82.168421 
L 605.293706 79.338947 
L 609.629371 76.863158 
L 613.965035 72.972632 
L 618.300699 70.850526 
L 622.636364 66.96 
" clip-path="url(#p4d2d451742)" style="fill: none; stroke: #e377c2; stroke-width: 1.5; stroke-linecap: square"/>
   </g>
   <g id="line2d_34">
    <path d="M 115.363636 294.025263 
L 119.699301 294.025263 
L 124.034965 294.025263 
L 128.370629 294.025263 
L 132.706294 294.025263 
L 137.041958 293.317895 
L 141.377622 293.317895 
L 145.713287 293.317895 
L 150.048951 293.317895 
L 154.384615 293.317895 
L 158.72028 293.317895 
L 163.055944 293.317895 
L 167.391608 293.317895 
L 171.727273 293.317895 
L 176.062937 293.317895 
L 180.398601 292.964211 
L 184.734266 292.964211 
L 189.06993 292.964211 
L 193.405594 292.610526 
L 197.741259 292.610526 
L 202.076923 292.610526 
L 206.412587 292.610526 
L 210.748252 292.610526 
L 215.083916 292.610526 
L 219.41958 292.256842 
L 223.755245 289.781053 
L 228.090909 289.781053 
L 232.426573 289.781053 
L 236.762238 289.781053 
L 241.097902 289.781053 
L 245.433566 289.781053 
L 249.769231 289.781053 
L 254.104895 289.781053 
L 258.440559 289.427368 
L 262.776224 289.427368 
L 267.111888 289.427368 
L 271.447552 289.427368 
L 275.783217 289.427368 
L 280.118881 289.427368 
L 284.454545 289.073684 
L 288.79021 289.073684 
L 293.125874 288.72 
L 297.461538 288.72 
L 301.797203 288.72 
L 306.132867 288.366316 
L 310.468531 288.366316 
L 314.804196 288.366316 
L 319.13986 288.366316 
L 323.475524 288.366316 
L 327.811189 288.366316 
L 332.146853 288.366316 
L 336.482517 288.366316 
L 340.818182 288.012632 
L 345.153846 288.012632 
L 349.48951 288.012632 
L 353.825175 288.012632 
L 358.160839 287.658947 
L 362.496503 287.658947 
L 366.832168 287.658947 
L 371.167832 287.658947 
L 375.503496 287.658947 
L 379.839161 287.658947 
L 384.174825 287.658947 
L 388.51049 287.305263 
L 392.846154 286.951579 
L 397.181818 286.951579 
L 401.517483 286.951579 
L 405.853147 286.951579 
L 410.188811 286.597895 
L 414.524476 286.597895 
L 418.86014 286.597895 
L 423.195804 286.597895 
L 427.531469 286.597895 
L 431.867133 286.597895 
L 436.202797 286.597895 
L 440.538462 286.597895 
L 444.874126 286.597895 
L 449.20979 286.597895 
L 453.545455 286.597895 
L 457.881119 286.244211 
L 462.216783 286.244211 
L 466.552448 286.244211 
L 470.888112 286.244211 
L 475.223776 286.244211 
L 479.559441 286.244211 
L 483.895105 286.244211 
L 488.230769 286.244211 
L 492.566434 285.890526 
L 496.902098 285.890526 
L 501.237762 285.890526 
L 505.573427 285.890526 
L 509.909091 285.536842 
L 514.244755 285.183158 
L 518.58042 285.183158 
L 522.916084 285.183158 
L 527.251748 285.183158 
L 531.587413 285.183158 
L 535.923077 285.183158 
L 540.258741 285.183158 
L 544.594406 285.183158 
L 548.93007 284.829474 
L 553.265734 284.829474 
L 557.601399 284.475789 
L 561.937063 284.475789 
L 566.272727 284.475789 
L 570.608392 284.475789 
L 574.944056 284.475789 
L 579.27972 284.475789 
L 583.615385 284.475789 
L 587.951049 284.122105 
L 592.286713 284.122105 
L 596.622378 283.768421 
L 600.958042 283.768421 
L 605.293706 283.414737 
L 609.629371 283.414737 
L 613.965035 283.061053 
L 618.300699 283.061053 
L 622.636364 283.061053 
" clip-path="url(#p4d2d451742)" style="fill: none; stroke: #7f7f7f; stroke-width: 1.5; stroke-linecap: square"/>
   </g>
   <g id="line2d_35">
    <path d="M 115.363636 349.907368 
L 119.699301 349.907368 
L 124.034965 349.907368 
L 128.370629 349.907368 
L 132.706294 349.907368 
L 137.041958 349.907368 
L 141.377622 349.907368 
L 145.713287 349.907368 
L 150.048951 349.907368 
L 154.384615 349.907368 
L 158.72028 349.907368 
L 163.055944 349.907368 
L 167.391608 349.907368 
L 171.727273 349.907368 
L 176.062937 349.907368 
L 180.398601 349.907368 
L 184.734266 349.907368 
L 189.06993 349.907368 
L 193.405594 349.907368 
L 197.741259 349.907368 
L 202.076923 349.907368 
L 206.412587 349.907368 
L 210.748252 349.907368 
L 215.083916 349.907368 
L 219.41958 349.907368 
L 223.755245 349.907368 
L 228.090909 349.907368 
L 232.426573 349.907368 
L 236.762238 349.907368 
L 241.097902 349.907368 
L 245.433566 349.907368 
L 249.769231 349.907368 
L 254.104895 349.907368 
L 258.440559 349.907368 
L 262.776224 349.907368 
L 267.111888 349.907368 
L 271.447552 349.907368 
L 275.783217 349.907368 
L 280.118881 349.907368 
L 284.454545 349.907368 
L 288.79021 349.907368 
L 293.125874 349.907368 
L 297.461538 349.907368 
L 301.797203 349.907368 
L 306.132867 349.907368 
L 310.468531 349.907368 
L 314.804196 349.907368 
L 319.13986 349.907368 
L 323.475524 349.907368 
L 327.811189 349.907368 
L 332.146853 349.907368 
L 336.482517 349.907368 
L 340.818182 349.907368 
L 345.153846 349.907368 
L 349.48951 349.907368 
L 353.825175 349.907368 
L 358.160839 349.907368 
L 362.496503 349.907368 
L 366.832168 349.907368 
L 371.167832 349.907368 
L 375.503496 349.907368 
L 379.839161 349.907368 
L 384.174825 349.907368 
L 388.51049 349.907368 
L 392.846154 349.907368 
L 397.181818 349.907368 
L 401.517483 349.907368 
L 405.853147 349.907368 
L 410.188811 349.907368 
L 414.524476 349.907368 
L 418.86014 349.907368 
L 423.195804 349.907368 
L 427.531469 349.907368 
L 431.867133 349.907368 
L 436.202797 349.907368 
L 440.538462 349.907368 
L 444.874126 349.907368 
L 449.20979 349.907368 
L 453.545455 349.907368 
L 457.881119 349.907368 
L 462.216783 349.907368 
L 466.552448 349.907368 
L 470.888112 349.907368 
L 475.223776 349.907368 
L 479.559441 349.907368 
L 483.895105 349.907368 
L 488.230769 349.907368 
L 492.566434 349.907368 
L 496.902098 349.907368 
L 501.237762 349.907368 
L 505.573427 349.907368 
L 509.909091 349.907368 
L 514.244755 349.907368 
L 518.58042 349.907368 
L 522.916084 349.907368 
L 527.251748 349.907368 
L 531.587413 349.907368 
L 535.923077 349.907368 
L 540.258741 349.907368 
L 544.594406 349.907368 
L 548.93007 349.907368 
L 553.265734 349.907368 
L 557.601399 349.907368 
L 561.937063 349.907368 
L 566.272727 349.907368 
L 570.608392 349.907368 
L 574.944056 349.907368 
L 579.27972 349.907368 
L 583.615385 349.907368 
L 587.951049 349.907368 
L 592.286713 349.907368 
L 596.622378 349.907368 
L 600.958042 349.907368 
L 605.293706 349.907368 
L 609.629371 349.907368 
L 613.965035 349.907368 
L 618.300699 349.907368 
L 622.636364 349.907368 
" clip-path="url(#p4d2d451742)" style="fill: none; stroke: #bcbd22; stroke-width: 1.5; stroke-linecap: square"/>
   </g>
   <g id="line2d_36">
    <path d="M 115.363636 366.176842 
L 119.699301 366.176842 
L 124.034965 366.176842 
L 128.370629 366.176842 
L 132.706294 366.176842 
L 137.041958 366.176842 
L 141.377622 366.176842 
L 145.713287 366.176842 
L 150.048951 366.176842 
L 154.384615 366.176842 
L 158.72028 366.176842 
L 163.055944 366.176842 
L 167.391608 366.176842 
L 171.727273 366.176842 
L 176.062937 366.176842 
L 180.398601 366.176842 
L 184.734266 366.176842 
L 189.06993 366.176842 
L 193.405594 366.176842 
L 197.741259 366.176842 
L 202.076923 366.176842 
L 206.412587 366.176842 
L 210.748252 366.176842 
L 215.083916 366.176842 
L 219.41958 366.176842 
L 223.755245 366.176842 
L 228.090909 366.176842 
L 232.426573 366.176842 
L 236.762238 366.176842 
L 241.097902 366.176842 
L 245.433566 366.176842 
L 249.769231 366.176842 
L 254.104895 366.176842 
L 258.440559 366.176842 
L 262.776224 366.176842 
L 267.111888 366.176842 
L 271.447552 366.176842 
L 275.783217 366.176842 
L 280.118881 366.176842 
L 284.454545 366.176842 
L 288.79021 366.176842 
L 293.125874 366.176842 
L 297.461538 366.176842 
L 301.797203 366.176842 
L 306.132867 366.176842 
L 310.468531 366.176842 
L 314.804196 366.176842 
L 319.13986 366.176842 
L 323.475524 366.176842 
L 327.811189 366.176842 
L 332.146853 366.176842 
L 336.482517 366.176842 
L 340.818182 366.176842 
L 345.153846 366.176842 
L 349.48951 366.176842 
L 353.825175 366.176842 
L 358.160839 366.176842 
L 362.496503 366.176842 
L 366.832168 366.176842 
L 371.167832 366.176842 
L 375.503496 366.176842 
L 379.839161 366.176842 
L 384.174825 366.176842 
L 388.51049 366.176842 
L 392.846154 366.176842 
L 397.181818 366.176842 
L 401.517483 366.176842 
L 405.853147 366.176842 
L 410.188811 366.176842 
L 414.524476 366.176842 
L 418.86014 366.176842 
L 423.195804 366.176842 
L 427.531469 366.176842 
L 431.867133 366.176842 
L 436.202797 366.176842 
L 440.538462 366.176842 
L 444.874126 366.176842 
L 449.20979 366.176842 
L 453.545455 366.176842 
L 457.881119 366.176842 
L 462.216783 366.176842 
L 466.552448 366.176842 
L 470.888112 366.176842 
L 475.223776 366.176842 
L 479.559441 366.176842 
L 483.895105 366.176842 
L 488.230769 366.176842 
L 492.566434 366.176842 
L 496.902098 366.176842 
L 501.237762 366.176842 
L 505.573427 366.176842 
L 509.909091 366.176842 
L 514.244755 366.176842 
L 518.58042 366.176842 
L 522.916084 366.176842 
L 527.251748 366.176842 
L 531.587413 366.176842 
L 535.923077 366.176842 
L 540.258741 366.176842 
L 544.594406 366.176842 
L 548.93007 366.176842 
L 553.265734 366.176842 
L 557.601399 366.176842 
L 561.937063 366.176842 
L 566.272727 366.176842 
L 570.608392 366.176842 
L 574.944056 366.176842 
L 579.27972 366.176842 
L 583.615385 366.176842 
L 587.951049 366.176842 
L 592.286713 366.176842 
L 596.622378 366.176842 
L 600.958042 366.176842 
L 605.293706 366.176842 
L 609.629371 366.176842 
L 613.965035 366.176842 
L 618.300699 366.176842 
L 622.636364 366.176842 
" clip-path="url(#p4d2d451742)" style="fill: none; stroke: #17becf; stroke-width: 1.5; stroke-linecap: square"/>
   </g>
   <g id="line2d_37">
    <path d="M 115.363636 313.831579 
L 119.699301 313.831579 
L 124.034965 313.831579 
L 128.370629 313.831579 
L 132.706294 313.477895 
L 137.041958 313.124211 
L 141.377622 313.124211 
L 145.713287 313.124211 
L 150.048951 313.124211 
L 154.384615 313.124211 
L 158.72028 313.124211 
L 163.055944 313.124211 
L 167.391608 313.124211 
L 171.727273 313.124211 
L 176.062937 313.124211 
L 180.398601 313.124211 
L 184.734266 313.124211 
L 189.06993 313.124211 
L 193.405594 312.770526 
L 197.741259 312.770526 
L 202.076923 312.416842 
L 206.412587 312.063158 
L 210.748252 312.063158 
L 215.083916 311.709474 
L 219.41958 311.709474 
L 223.755245 311.709474 
L 228.090909 311.355789 
L 232.426573 311.355789 
L 236.762238 311.355789 
L 241.097902 311.355789 
L 245.433566 311.355789 
L 249.769231 311.355789 
L 254.104895 311.355789 
L 258.440559 311.355789 
L 262.776224 311.355789 
L 267.111888 311.355789 
L 271.447552 311.355789 
L 275.783217 311.355789 
L 280.118881 311.355789 
L 284.454545 311.355789 
L 288.79021 311.355789 
L 293.125874 311.355789 
L 297.461538 311.355789 
L 301.797203 311.355789 
L 306.132867 311.355789 
L 310.468531 311.355789 
L 314.804196 311.002105 
L 319.13986 311.002105 
L 323.475524 311.002105 
L 327.811189 310.648421 
L 332.146853 310.648421 
L 336.482517 310.648421 
L 340.818182 309.941053 
L 345.153846 309.941053 
L 349.48951 309.941053 
L 353.825175 309.941053 
L 358.160839 309.941053 
L 362.496503 309.941053 
L 366.832168 309.941053 
L 371.167832 309.587368 
L 375.503496 309.587368 
L 379.839161 309.587368 
L 384.174825 309.587368 
L 388.51049 309.587368 
L 392.846154 309.587368 
L 397.181818 309.587368 
L 401.517483 309.587368 
L 405.853147 309.587368 
L 410.188811 309.587368 
L 414.524476 309.587368 
L 418.86014 309.587368 
L 423.195804 309.587368 
L 427.531469 309.587368 
L 431.867133 309.587368 
L 436.202797 309.587368 
L 440.538462 309.587368 
L 444.874126 309.587368 
L 449.20979 309.587368 
L 453.545455 309.233684 
L 457.881119 309.233684 
L 462.216783 309.233684 
L 466.552448 309.233684 
L 470.888112 309.233684 
L 475.223776 309.233684 
L 479.559441 309.233684 
L 483.895105 309.233684 
L 488.230769 309.233684 
L 492.566434 309.233684 
L 496.902098 309.233684 
L 501.237762 309.233684 
L 505.573427 309.233684 
L 509.909091 309.233684 
L 514.244755 309.233684 
L 518.58042 309.233684 
L 522.916084 309.233684 
L 527.251748 308.88 
L 531.587413 308.88 
L 535.923077 308.88 
L 540.258741 308.88 
L 544.594406 308.88 
L 548.93007 308.88 
L 553.265734 308.88 
L 557.601399 308.88 
L 561.937063 308.88 
L 566.272727 308.88 
L 570.608392 308.88 
L 574.944056 308.172632 
L 579.27972 308.172632 
L 583.615385 308.172632 
L 587.951049 308.172632 
L 592.286713 308.172632 
L 596.622378 308.172632 
L 600.958042 308.172632 
L 605.293706 307.818947 
L 609.629371 307.818947 
L 613.965035 307.818947 
L 618.300699 307.818947 
L 622.636364 307.465263 
" clip-path="url(#p4d2d451742)" style="fill: none; stroke: #1f77b4; stroke-width: 1.5; stroke-linecap: square"/>
   </g>
   <g id="line2d_38">
    <path d="M 115.363636 312.416842 
L 119.699301 312.416842 
L 124.034965 312.416842 
L 128.370629 312.416842 
L 132.706294 312.416842 
L 137.041958 312.416842 
L 141.377622 312.416842 
L 145.713287 312.416842 
L 150.048951 312.416842 
L 154.384615 312.416842 
L 158.72028 312.416842 
L 163.055944 312.416842 
L 167.391608 312.416842 
L 171.727273 312.416842 
L 176.062937 312.416842 
L 180.398601 312.416842 
L 184.734266 312.416842 
L 189.06993 312.063158 
L 193.405594 312.063158 
L 197.741259 312.063158 
L 202.076923 312.063158 
L 206.412587 312.063158 
L 210.748252 312.063158 
L 215.083916 312.063158 
L 219.41958 312.063158 
L 223.755245 312.063158 
L 228.090909 312.063158 
L 232.426573 312.063158 
L 236.762238 311.709474 
L 241.097902 311.709474 
L 245.433566 311.709474 
L 249.769231 311.709474 
L 254.104895 311.709474 
L 258.440559 311.709474 
L 262.776224 311.709474 
L 267.111888 311.355789 
L 271.447552 311.355789 
L 275.783217 311.355789 
L 280.118881 311.355789 
L 284.454545 311.355789 
L 288.79021 311.355789 
L 293.125874 311.355789 
L 297.461538 311.355789 
L 301.797203 311.355789 
L 306.132867 311.355789 
L 310.468531 311.355789 
L 314.804196 311.355789 
L 319.13986 311.355789 
L 323.475524 311.355789 
L 327.811189 311.355789 
L 332.146853 311.355789 
L 336.482517 311.355789 
L 340.818182 311.002105 
L 345.153846 311.002105 
L 349.48951 311.002105 
L 353.825175 311.002105 
L 358.160839 311.002105 
L 362.496503 310.648421 
L 366.832168 310.648421 
L 371.167832 310.648421 
L 375.503496 310.648421 
L 379.839161 310.648421 
L 384.174825 310.648421 
L 388.51049 310.648421 
L 392.846154 310.648421 
L 397.181818 310.648421 
L 401.517483 310.648421 
L 405.853147 310.294737 
L 410.188811 310.294737 
L 414.524476 309.941053 
L 418.86014 309.941053 
L 423.195804 309.941053 
L 427.531469 309.941053 
L 431.867133 309.941053 
L 436.202797 309.941053 
L 440.538462 309.587368 
L 444.874126 309.587368 
L 449.20979 309.233684 
L 453.545455 309.233684 
L 457.881119 309.233684 
L 462.216783 309.233684 
L 466.552448 309.233684 
L 470.888112 309.233684 
L 475.223776 309.233684 
L 479.559441 309.233684 
L 483.895105 309.233684 
L 488.230769 309.233684 
L 492.566434 309.233684 
L 496.902098 309.233684 
L 501.237762 309.233684 
L 505.573427 309.233684 
L 509.909091 309.233684 
L 514.244755 309.233684 
L 518.58042 309.233684 
L 522.916084 308.88 
L 527.251748 308.88 
L 531.587413 308.88 
L 535.923077 308.88 
L 540.258741 308.88 
L 544.594406 308.88 
L 548.93007 308.88 
L 553.265734 308.88 
L 557.601399 308.88 
L 561.937063 308.88 
L 566.272727 308.88 
L 570.608392 308.88 
L 574.944056 308.88 
L 579.27972 308.88 
L 583.615385 308.88 
L 587.951049 308.88 
L 592.286713 308.88 
L 596.622378 308.88 
L 600.958042 308.88 
L 605.293706 308.526316 
L 609.629371 308.526316 
L 613.965035 308.172632 
L 618.300699 308.172632 
L 622.636364 308.172632 
" clip-path="url(#p4d2d451742)" style="fill: none; stroke: #ff7f0e; stroke-width: 1.5; stroke-linecap: square"/>
   </g>
   <g id="patch_3">
    <path d="M 90 384.48 
L 90 51.84 
" style="fill: none; stroke: #000000; stroke-width: 0.8; stroke-linejoin: miter; stroke-linecap: square"/>
   </g>
   <g id="patch_4">
    <path d="M 648 384.48 
L 648 51.84 
" style="fill: none; stroke: #000000; stroke-width: 0.8; stroke-linejoin: miter; stroke-linecap: square"/>
   </g>
   <g id="patch_5">
    <path d="M 90 384.48 
L 648 384.48 
" style="fill: none; stroke: #000000; stroke-width: 0.8; stroke-linejoin: miter; stroke-linecap: square"/>
   </g>
   <g id="patch_6">
    <path d="M 90 51.84 
L 648 51.84 
" style="fill: none; stroke: #000000; stroke-width: 0.8; stroke-linejoin: miter; stroke-linecap: square"/>
   </g>
   <g id="text_16">
    <!-- Time Series of Votes for Each Keyword -->
    <g transform="translate(253.716563 45.84) scale(0.12 -0.12)">
     <defs>
      <path id="DejaVuSans-53" d="M 3425 4513 
L 3425 3897 
Q 3066 4069 2747 4153 
Q 2428 4238 2131 4238 
Q 1616 4238 1336 4038 
Q 1056 3838 1056 3469 
Q 1056 3159 1242 3001 
Q 1428 2844 1947 2747 
L 2328 2669 
Q 3034 2534 3370 2195 
Q 3706 1856 3706 1288 
Q 3706 609 3251 259 
Q 2797 -91 1919 -91 
Q 1588 -91 1214 -16 
Q 841 59 441 206 
L 441 856 
Q 825 641 1194 531 
Q 1563 422 1919 422 
Q 2459 422 2753 634 
Q 3047 847 3047 1241 
Q 3047 1584 2836 1778 
Q 2625 1972 2144 2069 
L 1759 2144 
Q 1053 2284 737 2584 
Q 422 2884 422 3419 
Q 422 4038 858 4394 
Q 1294 4750 2059 4750 
Q 2388 4750 2728 4690 
Q 3069 4631 3425 4513 
z
" transform="scale(0.015625)"/>
      <path id="DejaVuSans-72" d="M 2631 2963 
Q 2534 3019 2420 3045 
Q 2306 3072 2169 3072 
Q 1681 3072 1420 2755 
Q 1159 2438 1159 1844 
L 1159 0 
L 581 0 
L 581 3500 
L 1159 3500 
L 1159 2956 
Q 1341 3275 1631 3429 
Q 1922 3584 2338 3584 
Q 2397 3584 2469 3576 
Q 2541 3569 2628 3553 
L 2631 2963 
z
" transform="scale(0.015625)"/>
      <path id="DejaVuSans-66" d="M 2375 4863 
L 2375 4384 
L 1825 4384 
Q 1516 4384 1395 4259 
Q 1275 4134 1275 3809 
L 1275 3500 
L 2222 3500 
L 2222 3053 
L 1275 3053 
L 1275 0 
L 697 0 
L 697 3053 
L 147 3053 
L 147 3500 
L 697 3500 
L 697 3744 
Q 697 4328 969 4595 
Q 1241 4863 1831 4863 
L 2375 4863 
z
" transform="scale(0.015625)"/>
      <path id="DejaVuSans-45" d="M 628 4666 
L 3578 4666 
L 3578 4134 
L 1259 4134 
L 1259 2753 
L 3481 2753 
L 3481 2222 
L 1259 2222 
L 1259 531 
L 3634 531 
L 3634 0 
L 628 0 
L 628 4666 
z
" transform="scale(0.015625)"/>
      <path id="DejaVuSans-63" d="M 3122 3366 
L 3122 2828 
Q 2878 2963 2633 3030 
Q 2388 3097 2138 3097 
Q 1578 3097 1268 2742 
Q 959 2388 959 1747 
Q 959 1106 1268 751 
Q 1578 397 2138 397 
Q 2388 397 2633 464 
Q 2878 531 3122 666 
L 3122 134 
Q 2881 22 2623 -34 
Q 2366 -91 2075 -91 
Q 1284 -91 818 406 
Q 353 903 353 1747 
Q 353 2603 823 3093 
Q 1294 3584 2113 3584 
Q 2378 3584 2631 3529 
Q 2884 3475 3122 3366 
z
" transform="scale(0.015625)"/>
      <path id="DejaVuSans-68" d="M 3513 2113 
L 3513 0 
L 2938 0 
L 2938 2094 
Q 2938 2591 2744 2837 
Q 2550 3084 2163 3084 
Q 1697 3084 1428 2787 
Q 1159 2491 1159 1978 
L 1159 0 
L 581 0 
L 581 4863 
L 1159 4863 
L 1159 2956 
Q 1366 3272 1645 3428 
Q 1925 3584 2291 3584 
Q 2894 3584 3203 3211 
Q 3513 2838 3513 2113 
z
" transform="scale(0.015625)"/>
      <path id="DejaVuSans-4b" d="M 628 4666 
L 1259 4666 
L 1259 2694 
L 3353 4666 
L 4166 4666 
L 1850 2491 
L 4331 0 
L 3500 0 
L 1259 2247 
L 1259 0 
L 628 0 
L 628 4666 
z
" transform="scale(0.015625)"/>
      <path id="DejaVuSans-79" d="M 2059 -325 
Q 1816 -950 1584 -1140 
Q 1353 -1331 966 -1331 
L 506 -1331 
L 506 -850 
L 844 -850 
Q 1081 -850 1212 -737 
Q 1344 -625 1503 -206 
L 1606 56 
L 191 3500 
L 800 3500 
L 1894 763 
L 2988 3500 
L 3597 3500 
L 2059 -325 
z
" transform="scale(0.015625)"/>
      <path id="DejaVuSans-77" d="M 269 3500 
L 844 3500 
L 1563 769 
L 2278 3500 
L 2956 3500 
L 3675 769 
L 4391 3500 
L 4966 3500 
L 4050 0 
L 3372 0 
L 2619 2869 
L 1863 0 
L 1184 0 
L 269 3500 
z
" transform="scale(0.015625)"/>
     </defs>
     <use xlink:href="#DejaVuSans-54"/>
     <use xlink:href="#DejaVuSans-69" transform="translate(57.958984 0)"/>
     <use xlink:href="#DejaVuSans-6d" transform="translate(85.742188 0)"/>
     <use xlink:href="#DejaVuSans-65" transform="translate(183.154297 0)"/>
     <use xlink:href="#DejaVuSans-20" transform="translate(244.677734 0)"/>
     <use xlink:href="#DejaVuSans-53" transform="translate(276.464844 0)"/>
     <use xlink:href="#DejaVuSans-65" transform="translate(339.941406 0)"/>
     <use xlink:href="#DejaVuSans-72" transform="translate(401.464844 0)"/>
     <use xlink:href="#DejaVuSans-69" transform="translate(442.578125 0)"/>
     <use xlink:href="#DejaVuSans-65" transform="translate(470.361328 0)"/>
     <use xlink:href="#DejaVuSans-73" transform="translate(531.884766 0)"/>
     <use xlink:href="#DejaVuSans-20" transform="translate(583.984375 0)"/>
     <use xlink:href="#DejaVuSans-6f" transform="translate(615.771484 0)"/>
     <use xlink:href="#DejaVuSans-66" transform="translate(676.953125 0)"/>
     <use xlink:href="#DejaVuSans-20" transform="translate(712.158203 0)"/>
     <use xlink:href="#DejaVuSans-56" transform="translate(743.945312 0)"/>
     <use xlink:href="#DejaVuSans-6f" transform="translate(804.603516 0)"/>
     <use xlink:href="#DejaVuSans-74" transform="translate(865.785156 0)"/>
     <use xlink:href="#DejaVuSans-65" transform="translate(904.994141 0)"/>
     <use xlink:href="#DejaVuSans-73" transform="translate(966.517578 0)"/>
     <use xlink:href="#DejaVuSans-20" transform="translate(1018.617188 0)"/>
     <use xlink:href="#DejaVuSans-66" transform="translate(1050.404297 0)"/>
     <use xlink:href="#DejaVuSans-6f" transform="translate(1085.609375 0)"/>
     <use xlink:href="#DejaVuSans-72" transform="translate(1146.791016 0)"/>
     <use xlink:href="#DejaVuSans-20" transform="translate(1187.904297 0)"/>
     <use xlink:href="#DejaVuSans-45" transform="translate(1219.691406 0)"/>
     <use xlink:href="#DejaVuSans-61" transform="translate(1282.875 0)"/>
     <use xlink:href="#DejaVuSans-63" transform="translate(1344.154297 0)"/>
     <use xlink:href="#DejaVuSans-68" transform="translate(1399.134766 0)"/>
     <use xlink:href="#DejaVuSans-20" transform="translate(1462.513672 0)"/>
     <use xlink:href="#DejaVuSans-4b" transform="translate(1494.300781 0)"/>
     <use xlink:href="#DejaVuSans-65" transform="translate(1554.876953 0)"/>
     <use xlink:href="#DejaVuSans-79" transform="translate(1616.400391 0)"/>
     <use xlink:href="#DejaVuSans-77" transform="translate(1675.580078 0)"/>
     <use xlink:href="#DejaVuSans-6f" transform="translate(1757.367188 0)"/>
     <use xlink:href="#DejaVuSans-72" transform="translate(1818.548828 0)"/>
     <use xlink:href="#DejaVuSans-64" transform="translate(1857.912109 0)"/>
    </g>
   </g>
   <g id="legend_1">
    <g id="patch_7">
     <path d="M 97 379.48 
L 149.245313 379.48 
Q 151.245313 379.48 151.245313 377.48 
L 151.245313 202.3425 
Q 151.245313 200.3425 149.245313 200.3425 
L 97 200.3425 
Q 95 200.3425 95 202.3425 
L 95 377.48 
Q 95 379.48 97 379.48 
z
" style="fill: #ffffff; opacity: 0.8; stroke: #cccccc; stroke-linejoin: miter"/>
    </g>
    <g id="line2d_39">
     <path d="M 99 208.440938 
L 109 208.440938 
L 119 208.440938 
" style="fill: none; stroke: #1f77b4; stroke-width: 1.5; stroke-linecap: square"/>
    </g>
    <g id="text_17">
     <!-- H01 -->
     <g transform="translate(127 211.940938) scale(0.1 -0.1)">
      <defs>
       <path id="DejaVuSans-48" d="M 628 4666 
L 1259 4666 
L 1259 2753 
L 3553 2753 
L 3553 4666 
L 4184 4666 
L 4184 0 
L 3553 0 
L 3553 2222 
L 1259 2222 
L 1259 0 
L 628 0 
L 628 4666 
z
" transform="scale(0.015625)"/>
      </defs>
      <use xlink:href="#DejaVuSans-48"/>
      <use xlink:href="#DejaVuSans-30" transform="translate(75.195312 0)"/>
      <use xlink:href="#DejaVuSans-31" transform="translate(138.818359 0)"/>
     </g>
    </g>
    <g id="line2d_40">
     <path d="M 99 223.119063 
L 109 223.119063 
L 119 223.119063 
" style="fill: none; stroke: #ff7f0e; stroke-width: 1.5; stroke-linecap: square"/>
    </g>
    <g id="text_18">
     <!-- H02 -->
     <g transform="translate(127 226.619063) scale(0.1 -0.1)">
      <use xlink:href="#DejaVuSans-48"/>
      <use xlink:href="#DejaVuSans-30" transform="translate(75.195312 0)"/>
      <use xlink:href="#DejaVuSans-32" transform="translate(138.818359 0)"/>
     </g>
    </g>
    <g id="line2d_41">
     <path d="M 99 237.797188 
L 109 237.797188 
L 119 237.797188 
" style="fill: none; stroke: #2ca02c; stroke-width: 1.5; stroke-linecap: square"/>
    </g>
    <g id="text_19">
     <!-- H03 -->
     <g transform="translate(127 241.297188) scale(0.1 -0.1)">
      <use xlink:href="#DejaVuSans-48"/>
      <use xlink:href="#DejaVuSans-30" transform="translate(75.195312 0)"/>
      <use xlink:href="#DejaVuSans-33" transform="translate(138.818359 0)"/>
     </g>
    </g>
    <g id="line2d_42">
     <path d="M 99 252.475313 
L 109 252.475313 
L 119 252.475313 
" style="fill: none; stroke: #d62728; stroke-width: 1.5; stroke-linecap: square"/>
    </g>
    <g id="text_20">
     <!-- H04 -->
     <g transform="translate(127 255.975313) scale(0.1 -0.1)">
      <use xlink:href="#DejaVuSans-48"/>
      <use xlink:href="#DejaVuSans-30" transform="translate(75.195312 0)"/>
      <use xlink:href="#DejaVuSans-34" transform="translate(138.818359 0)"/>
     </g>
    </g>
    <g id="line2d_43">
     <path d="M 99 267.153438 
L 109 267.153438 
L 119 267.153438 
" style="fill: none; stroke: #9467bd; stroke-width: 1.5; stroke-linecap: square"/>
    </g>
    <g id="text_21">
     <!-- H05 -->
     <g transform="translate(127 270.653438) scale(0.1 -0.1)">
      <use xlink:href="#DejaVuSans-48"/>
      <use xlink:href="#DejaVuSans-30" transform="translate(75.195312 0)"/>
      <use xlink:href="#DejaVuSans-35" transform="translate(138.818359 0)"/>
     </g>
    </g>
    <g id="line2d_44">
     <path d="M 99 281.831563 
L 109 281.831563 
L 119 281.831563 
" style="fill: none; stroke: #8c564b; stroke-width: 1.5; stroke-linecap: square"/>
    </g>
    <g id="text_22">
     <!-- H06 -->
     <g transform="translate(127 285.331563) scale(0.1 -0.1)">
      <use xlink:href="#DejaVuSans-48"/>
      <use xlink:href="#DejaVuSans-30" transform="translate(75.195312 0)"/>
      <use xlink:href="#DejaVuSans-36" transform="translate(138.818359 0)"/>
     </g>
    </g>
    <g id="line2d_45">
     <path d="M 99 296.509688 
L 109 296.509688 
L 119 296.509688 
" style="fill: none; stroke: #e377c2; stroke-width: 1.5; stroke-linecap: square"/>
    </g>
    <g id="text_23">
     <!-- H07 -->
     <g transform="translate(127 300.009688) scale(0.1 -0.1)">
      <defs>
       <path id="DejaVuSans-37" d="M 525 4666 
L 3525 4666 
L 3525 4397 
L 1831 0 
L 1172 0 
L 2766 4134 
L 525 4134 
L 525 4666 
z
" transform="scale(0.015625)"/>
      </defs>
      <use xlink:href="#DejaVuSans-48"/>
      <use xlink:href="#DejaVuSans-30" transform="translate(75.195312 0)"/>
      <use xlink:href="#DejaVuSans-37" transform="translate(138.818359 0)"/>
     </g>
    </g>
    <g id="line2d_46">
     <path d="M 99 311.187813 
L 109 311.187813 
L 119 311.187813 
" style="fill: none; stroke: #7f7f7f; stroke-width: 1.5; stroke-linecap: square"/>
    </g>
    <g id="text_24">
     <!-- H08 -->
     <g transform="translate(127 314.687813) scale(0.1 -0.1)">
      <use xlink:href="#DejaVuSans-48"/>
      <use xlink:href="#DejaVuSans-30" transform="translate(75.195312 0)"/>
      <use xlink:href="#DejaVuSans-38" transform="translate(138.818359 0)"/>
     </g>
    </g>
    <g id="line2d_47">
     <path d="M 99 325.865938 
L 109 325.865938 
L 119 325.865938 
" style="fill: none; stroke: #bcbd22; stroke-width: 1.5; stroke-linecap: square"/>
    </g>
    <g id="text_25">
     <!-- H09 -->
     <g transform="translate(127 329.365938) scale(0.1 -0.1)">
      <defs>
       <path id="DejaVuSans-39" d="M 703 97 
L 703 672 
Q 941 559 1184 500 
Q 1428 441 1663 441 
Q 2288 441 2617 861 
Q 2947 1281 2994 2138 
Q 2813 1869 2534 1725 
Q 2256 1581 1919 1581 
Q 1219 1581 811 2004 
Q 403 2428 403 3163 
Q 403 3881 828 4315 
Q 1253 4750 1959 4750 
Q 2769 4750 3195 4129 
Q 3622 3509 3622 2328 
Q 3622 1225 3098 567 
Q 2575 -91 1691 -91 
Q 1453 -91 1209 -44 
Q 966 3 703 97 
z
M 1959 2075 
Q 2384 2075 2632 2365 
Q 2881 2656 2881 3163 
Q 2881 3666 2632 3958 
Q 2384 4250 1959 4250 
Q 1534 4250 1286 3958 
Q 1038 3666 1038 3163 
Q 1038 2656 1286 2365 
Q 1534 2075 1959 2075 
z
" transform="scale(0.015625)"/>
      </defs>
      <use xlink:href="#DejaVuSans-48"/>
      <use xlink:href="#DejaVuSans-30" transform="translate(75.195312 0)"/>
      <use xlink:href="#DejaVuSans-39" transform="translate(138.818359 0)"/>
     </g>
    </g>
    <g id="line2d_48">
     <path d="M 99 340.544062 
L 109 340.544062 
L 119 340.544062 
" style="fill: none; stroke: #17becf; stroke-width: 1.5; stroke-linecap: square"/>
    </g>
    <g id="text_26">
     <!-- H10 -->
     <g transform="translate(127 344.044062) scale(0.1 -0.1)">
      <use xlink:href="#DejaVuSans-48"/>
      <use xlink:href="#DejaVuSans-31" transform="translate(75.195312 0)"/>
      <use xlink:href="#DejaVuSans-30" transform="translate(138.818359 0)"/>
     </g>
    </g>
    <g id="line2d_49">
     <path d="M 99 355.222188 
L 109 355.222188 
L 119 355.222188 
" style="fill: none; stroke: #1f77b4; stroke-width: 1.5; stroke-linecap: square"/>
    </g>
    <g id="text_27">
     <!-- H11 -->
     <g transform="translate(127 358.722188) scale(0.1 -0.1)">
      <use xlink:href="#DejaVuSans-48"/>
      <use xlink:href="#DejaVuSans-31" transform="translate(75.195312 0)"/>
      <use xlink:href="#DejaVuSans-31" transform="translate(138.818359 0)"/>
     </g>
    </g>
    <g id="line2d_50">
     <path d="M 99 369.900312 
L 109 369.900312 
L 119 369.900312 
" style="fill: none; stroke: #ff7f0e; stroke-width: 1.5; stroke-linecap: square"/>
    </g>
    <g id="text_28">
     <!-- H12 -->
     <g transform="translate(127 373.400312) scale(0.1 -0.1)">
      <use xlink:href="#DejaVuSans-48"/>
      <use xlink:href="#DejaVuSans-31" transform="translate(75.195312 0)"/>
      <use xlink:href="#DejaVuSans-32" transform="translate(138.818359 0)"/>
     </g>
    </g>
   </g>
  </g>
 </g>
 <defs>
  <clipPath id="p4d2d451742">
   <rect x="90" y="51.84" width="558" height="332.64"/>
  </clipPath>
 </defs>
</svg>
