<?xml version="1.0" encoding="utf-8" standalone="no"?>
<!DOCTYPE svg PUBLIC "-//W3C//DTD SVG 1.1//EN"
  "http://www.w3.org/Graphics/SVG/1.1/DTD/svg11.dtd">
<svg xmlns:xlink="http://www.w3.org/1999/xlink" width="720pt" height="432pt" viewBox="0 0 720 432" xmlns="http://www.w3.org/2000/svg" version="1.1">
 <metadata>
  <rdf:RDF xmlns:dc="http://purl.org/dc/elements/1.1/" xmlns:cc="http://creativecommons.org/ns#" xmlns:rdf="http://www.w3.org/1999/02/22-rdf-syntax-ns#">
   <cc:Work>
    <dc:type rdf:resource="http://purl.org/dc/dcmitype/StillImage"/>
    <dc:date>2025-01-14T17:53:08.914905</dc:date>
    <dc:format>image/svg+xml</dc:format>
    <dc:creator>
     <cc:Agent>
      <dc:title>Matplotlib v3.10.0, https://matplotlib.org/</dc:title>
     </cc:Agent>
    </dc:creator>
   </cc:Work>
  </rdf:RDF>
 </metadata>
 <defs>
  <style type="text/css">*{stroke-linejoin: round; stroke-linecap: butt}</style>
 </defs>
 <g id="figure_1">
  <g id="patch_1">
   <path d="M 0 432 
L 720 432 
L 720 0 
L 0 0 
z
" style="fill: #ffffff"/>
  </g>
  <g id="axes_1">
   <g id="patch_2">
    <path d="M 90 384.48 
L 648 384.48 
L 648 51.84 
L 90 51.84 
z
" style="fill: #ffffff"/>
   </g>
   <g id="matplotlib.axis_1">
    <g id="xtick_1">
     <g id="line2d_1">
      <path d="M 109.48789 384.48 
L 109.48789 51.84 
" clip-path="url(#pc97bf5bb9f)" style="fill: none; stroke: #b0b0b0; stroke-width: 0.8; stroke-linecap: square"/>
     </g>
     <g id="line2d_2">
      <defs>
       <path id="m4c46112029" d="M 0 0 
L 0 3.5 
" style="stroke: #000000; stroke-width: 0.8"/>
      </defs>
      <g>
       <use xlink:href="#m4c46112029" x="109.48789" y="384.48" style="stroke: #000000; stroke-width: 0.8"/>
      </g>
     </g>
     <g id="text_1">
      <!-- 14 13:30 -->
      <g transform="translate(87.126953 399.078438) scale(0.1 -0.1)">
       <defs>
        <path id="DejaVuSans-31" d="M 794 531 
L 1825 531 
L 1825 4091 
L 703 3866 
L 703 4441 
L 1819 4666 
L 2450 4666 
L 2450 531 
L 3481 531 
L 3481 0 
L 794 0 
L 794 531 
z
" transform="scale(0.015625)"/>
        <path id="DejaVuSans-34" d="M 2419 4116 
L 825 1625 
L 2419 1625 
L 2419 4116 
z
M 2253 4666 
L 3047 4666 
L 3047 1625 
L 3713 1625 
L 3713 1100 
L 3047 1100 
L 3047 0 
L 2419 0 
L 2419 1100 
L 313 1100 
L 313 1709 
L 2253 4666 
z
" transform="scale(0.015625)"/>
        <path id="DejaVuSans-20" transform="scale(0.015625)"/>
        <path id="DejaVuSans-33" d="M 2597 2516 
Q 3050 2419 3304 2112 
Q 3559 1806 3559 1356 
Q 3559 666 3084 287 
Q 2609 -91 1734 -91 
Q 1441 -91 1130 -33 
Q 819 25 488 141 
L 488 750 
Q 750 597 1062 519 
Q 1375 441 1716 441 
Q 2309 441 2620 675 
Q 2931 909 2931 1356 
Q 2931 1769 2642 2001 
Q 2353 2234 1838 2234 
L 1294 2234 
L 1294 2753 
L 1863 2753 
Q 2328 2753 2575 2939 
Q 2822 3125 2822 3475 
Q 2822 3834 2567 4026 
Q 2313 4219 1838 4219 
Q 1578 4219 1281 4162 
Q 984 4106 628 3988 
L 628 4550 
Q 988 4650 1302 4700 
Q 1616 4750 1894 4750 
Q 2613 4750 3031 4423 
Q 3450 4097 3450 3541 
Q 3450 3153 3228 2886 
Q 3006 2619 2597 2516 
z
" transform="scale(0.015625)"/>
        <path id="DejaVuSans-3a" d="M 750 794 
L 1409 794 
L 1409 0 
L 750 0 
L 750 794 
z
M 750 3309 
L 1409 3309 
L 1409 2516 
L 750 2516 
L 750 3309 
z
" transform="scale(0.015625)"/>
        <path id="DejaVuSans-30" d="M 2034 4250 
Q 1547 4250 1301 3770 
Q 1056 3291 1056 2328 
Q 1056 1369 1301 889 
Q 1547 409 2034 409 
Q 2525 409 2770 889 
Q 3016 1369 3016 2328 
Q 3016 3291 2770 3770 
Q 2525 4250 2034 4250 
z
M 2034 4750 
Q 2819 4750 3233 4129 
Q 3647 3509 3647 2328 
Q 3647 1150 3233 529 
Q 2819 -91 2034 -91 
Q 1250 -91 836 529 
Q 422 1150 422 2328 
Q 422 3509 836 4129 
Q 1250 4750 2034 4750 
z
" transform="scale(0.015625)"/>
       </defs>
       <use xlink:href="#DejaVuSans-31"/>
       <use xlink:href="#DejaVuSans-34" transform="translate(63.623047 0)"/>
       <use xlink:href="#DejaVuSans-20" transform="translate(127.246094 0)"/>
       <use xlink:href="#DejaVuSans-31" transform="translate(159.033203 0)"/>
       <use xlink:href="#DejaVuSans-33" transform="translate(222.65625 0)"/>
       <use xlink:href="#DejaVuSans-3a" transform="translate(286.279297 0)"/>
       <use xlink:href="#DejaVuSans-33" transform="translate(319.970703 0)"/>
       <use xlink:href="#DejaVuSans-30" transform="translate(383.59375 0)"/>
      </g>
     </g>
    </g>
    <g id="xtick_2">
     <g id="line2d_3">
      <path d="M 168.245349 384.48 
L 168.245349 51.84 
" clip-path="url(#pc97bf5bb9f)" style="fill: none; stroke: #b0b0b0; stroke-width: 0.8; stroke-linecap: square"/>
     </g>
     <g id="line2d_4">
      <g>
       <use xlink:href="#m4c46112029" x="168.245349" y="384.48" style="stroke: #000000; stroke-width: 0.8"/>
      </g>
     </g>
     <g id="text_2">
      <!-- 14 14:00 -->
      <g transform="translate(145.884412 399.078438) scale(0.1 -0.1)">
       <use xlink:href="#DejaVuSans-31"/>
       <use xlink:href="#DejaVuSans-34" transform="translate(63.623047 0)"/>
       <use xlink:href="#DejaVuSans-20" transform="translate(127.246094 0)"/>
       <use xlink:href="#DejaVuSans-31" transform="translate(159.033203 0)"/>
       <use xlink:href="#DejaVuSans-34" transform="translate(222.65625 0)"/>
       <use xlink:href="#DejaVuSans-3a" transform="translate(286.279297 0)"/>
       <use xlink:href="#DejaVuSans-30" transform="translate(319.970703 0)"/>
       <use xlink:href="#DejaVuSans-30" transform="translate(383.59375 0)"/>
      </g>
     </g>
    </g>
    <g id="xtick_3">
     <g id="line2d_5">
      <path d="M 227.002808 384.48 
L 227.002808 51.84 
" clip-path="url(#pc97bf5bb9f)" style="fill: none; stroke: #b0b0b0; stroke-width: 0.8; stroke-linecap: square"/>
     </g>
     <g id="line2d_6">
      <g>
       <use xlink:href="#m4c46112029" x="227.002808" y="384.48" style="stroke: #000000; stroke-width: 0.8"/>
      </g>
     </g>
     <g id="text_3">
      <!-- 14 14:30 -->
      <g transform="translate(204.641871 399.078438) scale(0.1 -0.1)">
       <use xlink:href="#DejaVuSans-31"/>
       <use xlink:href="#DejaVuSans-34" transform="translate(63.623047 0)"/>
       <use xlink:href="#DejaVuSans-20" transform="translate(127.246094 0)"/>
       <use xlink:href="#DejaVuSans-31" transform="translate(159.033203 0)"/>
       <use xlink:href="#DejaVuSans-34" transform="translate(222.65625 0)"/>
       <use xlink:href="#DejaVuSans-3a" transform="translate(286.279297 0)"/>
       <use xlink:href="#DejaVuSans-33" transform="translate(319.970703 0)"/>
       <use xlink:href="#DejaVuSans-30" transform="translate(383.59375 0)"/>
      </g>
     </g>
    </g>
    <g id="xtick_4">
     <g id="line2d_7">
      <path d="M 285.760267 384.48 
L 285.760267 51.84 
" clip-path="url(#pc97bf5bb9f)" style="fill: none; stroke: #b0b0b0; stroke-width: 0.8; stroke-linecap: square"/>
     </g>
     <g id="line2d_8">
      <g>
       <use xlink:href="#m4c46112029" x="285.760267" y="384.48" style="stroke: #000000; stroke-width: 0.8"/>
      </g>
     </g>
     <g id="text_4">
      <!-- 14 15:00 -->
      <g transform="translate(263.399329 399.078438) scale(0.1 -0.1)">
       <defs>
        <path id="DejaVuSans-35" d="M 691 4666 
L 3169 4666 
L 3169 4134 
L 1269 4134 
L 1269 2991 
Q 1406 3038 1543 3061 
Q 1681 3084 1819 3084 
Q 2600 3084 3056 2656 
Q 3513 2228 3513 1497 
Q 3513 744 3044 326 
Q 2575 -91 1722 -91 
Q 1428 -91 1123 -41 
Q 819 9 494 109 
L 494 744 
Q 775 591 1075 516 
Q 1375 441 1709 441 
Q 2250 441 2565 725 
Q 2881 1009 2881 1497 
Q 2881 1984 2565 2268 
Q 2250 2553 1709 2553 
Q 1456 2553 1204 2497 
Q 953 2441 691 2322 
L 691 4666 
z
" transform="scale(0.015625)"/>
       </defs>
       <use xlink:href="#DejaVuSans-31"/>
       <use xlink:href="#DejaVuSans-34" transform="translate(63.623047 0)"/>
       <use xlink:href="#DejaVuSans-20" transform="translate(127.246094 0)"/>
       <use xlink:href="#DejaVuSans-31" transform="translate(159.033203 0)"/>
       <use xlink:href="#DejaVuSans-35" transform="translate(222.65625 0)"/>
       <use xlink:href="#DejaVuSans-3a" transform="translate(286.279297 0)"/>
       <use xlink:href="#DejaVuSans-30" transform="translate(319.970703 0)"/>
       <use xlink:href="#DejaVuSans-30" transform="translate(383.59375 0)"/>
      </g>
     </g>
    </g>
    <g id="xtick_5">
     <g id="line2d_9">
      <path d="M 344.517726 384.48 
L 344.517726 51.84 
" clip-path="url(#pc97bf5bb9f)" style="fill: none; stroke: #b0b0b0; stroke-width: 0.8; stroke-linecap: square"/>
     </g>
     <g id="line2d_10">
      <g>
       <use xlink:href="#m4c46112029" x="344.517726" y="384.48" style="stroke: #000000; stroke-width: 0.8"/>
      </g>
     </g>
     <g id="text_5">
      <!-- 14 15:30 -->
      <g transform="translate(322.156788 399.078438) scale(0.1 -0.1)">
       <use xlink:href="#DejaVuSans-31"/>
       <use xlink:href="#DejaVuSans-34" transform="translate(63.623047 0)"/>
       <use xlink:href="#DejaVuSans-20" transform="translate(127.246094 0)"/>
       <use xlink:href="#DejaVuSans-31" transform="translate(159.033203 0)"/>
       <use xlink:href="#DejaVuSans-35" transform="translate(222.65625 0)"/>
       <use xlink:href="#DejaVuSans-3a" transform="translate(286.279297 0)"/>
       <use xlink:href="#DejaVuSans-33" transform="translate(319.970703 0)"/>
       <use xlink:href="#DejaVuSans-30" transform="translate(383.59375 0)"/>
      </g>
     </g>
    </g>
    <g id="xtick_6">
     <g id="line2d_11">
      <path d="M 403.275184 384.48 
L 403.275184 51.84 
" clip-path="url(#pc97bf5bb9f)" style="fill: none; stroke: #b0b0b0; stroke-width: 0.8; stroke-linecap: square"/>
     </g>
     <g id="line2d_12">
      <g>
       <use xlink:href="#m4c46112029" x="403.275184" y="384.48" style="stroke: #000000; stroke-width: 0.8"/>
      </g>
     </g>
     <g id="text_6">
      <!-- 14 16:00 -->
      <g transform="translate(380.914247 399.078438) scale(0.1 -0.1)">
       <defs>
        <path id="DejaVuSans-36" d="M 2113 2584 
Q 1688 2584 1439 2293 
Q 1191 2003 1191 1497 
Q 1191 994 1439 701 
Q 1688 409 2113 409 
Q 2538 409 2786 701 
Q 3034 994 3034 1497 
Q 3034 2003 2786 2293 
Q 2538 2584 2113 2584 
z
M 3366 4563 
L 3366 3988 
Q 3128 4100 2886 4159 
Q 2644 4219 2406 4219 
Q 1781 4219 1451 3797 
Q 1122 3375 1075 2522 
Q 1259 2794 1537 2939 
Q 1816 3084 2150 3084 
Q 2853 3084 3261 2657 
Q 3669 2231 3669 1497 
Q 3669 778 3244 343 
Q 2819 -91 2113 -91 
Q 1303 -91 875 529 
Q 447 1150 447 2328 
Q 447 3434 972 4092 
Q 1497 4750 2381 4750 
Q 2619 4750 2861 4703 
Q 3103 4656 3366 4563 
z
" transform="scale(0.015625)"/>
       </defs>
       <use xlink:href="#DejaVuSans-31"/>
       <use xlink:href="#DejaVuSans-34" transform="translate(63.623047 0)"/>
       <use xlink:href="#DejaVuSans-20" transform="translate(127.246094 0)"/>
       <use xlink:href="#DejaVuSans-31" transform="translate(159.033203 0)"/>
       <use xlink:href="#DejaVuSans-36" transform="translate(222.65625 0)"/>
       <use xlink:href="#DejaVuSans-3a" transform="translate(286.279297 0)"/>
       <use xlink:href="#DejaVuSans-30" transform="translate(319.970703 0)"/>
       <use xlink:href="#DejaVuSans-30" transform="translate(383.59375 0)"/>
      </g>
     </g>
    </g>
    <g id="xtick_7">
     <g id="line2d_13">
      <path d="M 462.032643 384.48 
L 462.032643 51.84 
" clip-path="url(#pc97bf5bb9f)" style="fill: none; stroke: #b0b0b0; stroke-width: 0.8; stroke-linecap: square"/>
     </g>
     <g id="line2d_14">
      <g>
       <use xlink:href="#m4c46112029" x="462.032643" y="384.48" style="stroke: #000000; stroke-width: 0.8"/>
      </g>
     </g>
     <g id="text_7">
      <!-- 14 16:30 -->
      <g transform="translate(439.671706 399.078438) scale(0.1 -0.1)">
       <use xlink:href="#DejaVuSans-31"/>
       <use xlink:href="#DejaVuSans-34" transform="translate(63.623047 0)"/>
       <use xlink:href="#DejaVuSans-20" transform="translate(127.246094 0)"/>
       <use xlink:href="#DejaVuSans-31" transform="translate(159.033203 0)"/>
       <use xlink:href="#DejaVuSans-36" transform="translate(222.65625 0)"/>
       <use xlink:href="#DejaVuSans-3a" transform="translate(286.279297 0)"/>
       <use xlink:href="#DejaVuSans-33" transform="translate(319.970703 0)"/>
       <use xlink:href="#DejaVuSans-30" transform="translate(383.59375 0)"/>
      </g>
     </g>
    </g>
    <g id="xtick_8">
     <g id="line2d_15">
      <path d="M 520.790102 384.48 
L 520.790102 51.84 
" clip-path="url(#pc97bf5bb9f)" style="fill: none; stroke: #b0b0b0; stroke-width: 0.8; stroke-linecap: square"/>
     </g>
     <g id="line2d_16">
      <g>
       <use xlink:href="#m4c46112029" x="520.790102" y="384.48" style="stroke: #000000; stroke-width: 0.8"/>
      </g>
     </g>
     <g id="text_8">
      <!-- 14 17:00 -->
      <g transform="translate(498.429164 399.078438) scale(0.1 -0.1)">
       <defs>
        <path id="DejaVuSans-37" d="M 525 4666 
L 3525 4666 
L 3525 4397 
L 1831 0 
L 1172 0 
L 2766 4134 
L 525 4134 
L 525 4666 
z
" transform="scale(0.015625)"/>
       </defs>
       <use xlink:href="#DejaVuSans-31"/>
       <use xlink:href="#DejaVuSans-34" transform="translate(63.623047 0)"/>
       <use xlink:href="#DejaVuSans-20" transform="translate(127.246094 0)"/>
       <use xlink:href="#DejaVuSans-31" transform="translate(159.033203 0)"/>
       <use xlink:href="#DejaVuSans-37" transform="translate(222.65625 0)"/>
       <use xlink:href="#DejaVuSans-3a" transform="translate(286.279297 0)"/>
       <use xlink:href="#DejaVuSans-30" transform="translate(319.970703 0)"/>
       <use xlink:href="#DejaVuSans-30" transform="translate(383.59375 0)"/>
      </g>
     </g>
    </g>
    <g id="xtick_9">
     <g id="line2d_17">
      <path d="M 579.547561 384.48 
L 579.547561 51.84 
" clip-path="url(#pc97bf5bb9f)" style="fill: none; stroke: #b0b0b0; stroke-width: 0.8; stroke-linecap: square"/>
     </g>
     <g id="line2d_18">
      <g>
       <use xlink:href="#m4c46112029" x="579.547561" y="384.48" style="stroke: #000000; stroke-width: 0.8"/>
      </g>
     </g>
     <g id="text_9">
      <!-- 14 17:30 -->
      <g transform="translate(557.186623 399.078438) scale(0.1 -0.1)">
       <use xlink:href="#DejaVuSans-31"/>
       <use xlink:href="#DejaVuSans-34" transform="translate(63.623047 0)"/>
       <use xlink:href="#DejaVuSans-20" transform="translate(127.246094 0)"/>
       <use xlink:href="#DejaVuSans-31" transform="translate(159.033203 0)"/>
       <use xlink:href="#DejaVuSans-37" transform="translate(222.65625 0)"/>
       <use xlink:href="#DejaVuSans-3a" transform="translate(286.279297 0)"/>
       <use xlink:href="#DejaVuSans-33" transform="translate(319.970703 0)"/>
       <use xlink:href="#DejaVuSans-30" transform="translate(383.59375 0)"/>
      </g>
     </g>
    </g>
    <g id="xtick_10">
     <g id="line2d_19">
      <path d="M 638.305019 384.48 
L 638.305019 51.84 
" clip-path="url(#pc97bf5bb9f)" style="fill: none; stroke: #b0b0b0; stroke-width: 0.8; stroke-linecap: square"/>
     </g>
     <g id="line2d_20">
      <g>
       <use xlink:href="#m4c46112029" x="638.305019" y="384.48" style="stroke: #000000; stroke-width: 0.8"/>
      </g>
     </g>
     <g id="text_10">
      <!-- 14 18:00 -->
      <g transform="translate(615.944082 399.078438) scale(0.1 -0.1)">
       <defs>
        <path id="DejaVuSans-38" d="M 2034 2216 
Q 1584 2216 1326 1975 
Q 1069 1734 1069 1313 
Q 1069 891 1326 650 
Q 1584 409 2034 409 
Q 2484 409 2743 651 
Q 3003 894 3003 1313 
Q 3003 1734 2745 1975 
Q 2488 2216 2034 2216 
z
M 1403 2484 
Q 997 2584 770 2862 
Q 544 3141 544 3541 
Q 544 4100 942 4425 
Q 1341 4750 2034 4750 
Q 2731 4750 3128 4425 
Q 3525 4100 3525 3541 
Q 3525 3141 3298 2862 
Q 3072 2584 2669 2484 
Q 3125 2378 3379 2068 
Q 3634 1759 3634 1313 
Q 3634 634 3220 271 
Q 2806 -91 2034 -91 
Q 1263 -91 848 271 
Q 434 634 434 1313 
Q 434 1759 690 2068 
Q 947 2378 1403 2484 
z
M 1172 3481 
Q 1172 3119 1398 2916 
Q 1625 2713 2034 2713 
Q 2441 2713 2670 2916 
Q 2900 3119 2900 3481 
Q 2900 3844 2670 4047 
Q 2441 4250 2034 4250 
Q 1625 4250 1398 4047 
Q 1172 3844 1172 3481 
z
" transform="scale(0.015625)"/>
       </defs>
       <use xlink:href="#DejaVuSans-31"/>
       <use xlink:href="#DejaVuSans-34" transform="translate(63.623047 0)"/>
       <use xlink:href="#DejaVuSans-20" transform="translate(127.246094 0)"/>
       <use xlink:href="#DejaVuSans-31" transform="translate(159.033203 0)"/>
       <use xlink:href="#DejaVuSans-38" transform="translate(222.65625 0)"/>
       <use xlink:href="#DejaVuSans-3a" transform="translate(286.279297 0)"/>
       <use xlink:href="#DejaVuSans-30" transform="translate(319.970703 0)"/>
       <use xlink:href="#DejaVuSans-30" transform="translate(383.59375 0)"/>
      </g>
     </g>
    </g>
    <g id="text_11">
     <!-- Date and Time -->
     <g transform="translate(332.230469 412.756563) scale(0.1 -0.1)">
      <defs>
       <path id="DejaVuSans-44" d="M 1259 4147 
L 1259 519 
L 2022 519 
Q 2988 519 3436 956 
Q 3884 1394 3884 2338 
Q 3884 3275 3436 3711 
Q 2988 4147 2022 4147 
L 1259 4147 
z
M 628 4666 
L 1925 4666 
Q 3281 4666 3915 4102 
Q 4550 3538 4550 2338 
Q 4550 1131 3912 565 
Q 3275 0 1925 0 
L 628 0 
L 628 4666 
z
" transform="scale(0.015625)"/>
       <path id="DejaVuSans-61" d="M 2194 1759 
Q 1497 1759 1228 1600 
Q 959 1441 959 1056 
Q 959 750 1161 570 
Q 1363 391 1709 391 
Q 2188 391 2477 730 
Q 2766 1069 2766 1631 
L 2766 1759 
L 2194 1759 
z
M 3341 1997 
L 3341 0 
L 2766 0 
L 2766 531 
Q 2569 213 2275 61 
Q 1981 -91 1556 -91 
Q 1019 -91 701 211 
Q 384 513 384 1019 
Q 384 1609 779 1909 
Q 1175 2209 1959 2209 
L 2766 2209 
L 2766 2266 
Q 2766 2663 2505 2880 
Q 2244 3097 1772 3097 
Q 1472 3097 1187 3025 
Q 903 2953 641 2809 
L 641 3341 
Q 956 3463 1253 3523 
Q 1550 3584 1831 3584 
Q 2591 3584 2966 3190 
Q 3341 2797 3341 1997 
z
" transform="scale(0.015625)"/>
       <path id="DejaVuSans-74" d="M 1172 4494 
L 1172 3500 
L 2356 3500 
L 2356 3053 
L 1172 3053 
L 1172 1153 
Q 1172 725 1289 603 
Q 1406 481 1766 481 
L 2356 481 
L 2356 0 
L 1766 0 
Q 1100 0 847 248 
Q 594 497 594 1153 
L 594 3053 
L 172 3053 
L 172 3500 
L 594 3500 
L 594 4494 
L 1172 4494 
z
" transform="scale(0.015625)"/>
       <path id="DejaVuSans-65" d="M 3597 1894 
L 3597 1613 
L 953 1613 
Q 991 1019 1311 708 
Q 1631 397 2203 397 
Q 2534 397 2845 478 
Q 3156 559 3463 722 
L 3463 178 
Q 3153 47 2828 -22 
Q 2503 -91 2169 -91 
Q 1331 -91 842 396 
Q 353 884 353 1716 
Q 353 2575 817 3079 
Q 1281 3584 2069 3584 
Q 2775 3584 3186 3129 
Q 3597 2675 3597 1894 
z
M 3022 2063 
Q 3016 2534 2758 2815 
Q 2500 3097 2075 3097 
Q 1594 3097 1305 2825 
Q 1016 2553 972 2059 
L 3022 2063 
z
" transform="scale(0.015625)"/>
       <path id="DejaVuSans-6e" d="M 3513 2113 
L 3513 0 
L 2938 0 
L 2938 2094 
Q 2938 2591 2744 2837 
Q 2550 3084 2163 3084 
Q 1697 3084 1428 2787 
Q 1159 2491 1159 1978 
L 1159 0 
L 581 0 
L 581 3500 
L 1159 3500 
L 1159 2956 
Q 1366 3272 1645 3428 
Q 1925 3584 2291 3584 
Q 2894 3584 3203 3211 
Q 3513 2838 3513 2113 
z
" transform="scale(0.015625)"/>
       <path id="DejaVuSans-64" d="M 2906 2969 
L 2906 4863 
L 3481 4863 
L 3481 0 
L 2906 0 
L 2906 525 
Q 2725 213 2448 61 
Q 2172 -91 1784 -91 
Q 1150 -91 751 415 
Q 353 922 353 1747 
Q 353 2572 751 3078 
Q 1150 3584 1784 3584 
Q 2172 3584 2448 3432 
Q 2725 3281 2906 2969 
z
M 947 1747 
Q 947 1113 1208 752 
Q 1469 391 1925 391 
Q 2381 391 2643 752 
Q 2906 1113 2906 1747 
Q 2906 2381 2643 2742 
Q 2381 3103 1925 3103 
Q 1469 3103 1208 2742 
Q 947 2381 947 1747 
z
" transform="scale(0.015625)"/>
       <path id="DejaVuSans-54" d="M -19 4666 
L 3928 4666 
L 3928 4134 
L 2272 4134 
L 2272 0 
L 1638 0 
L 1638 4134 
L -19 4134 
L -19 4666 
z
" transform="scale(0.015625)"/>
       <path id="DejaVuSans-69" d="M 603 3500 
L 1178 3500 
L 1178 0 
L 603 0 
L 603 3500 
z
M 603 4863 
L 1178 4863 
L 1178 4134 
L 603 4134 
L 603 4863 
z
" transform="scale(0.015625)"/>
       <path id="DejaVuSans-6d" d="M 3328 2828 
Q 3544 3216 3844 3400 
Q 4144 3584 4550 3584 
Q 5097 3584 5394 3201 
Q 5691 2819 5691 2113 
L 5691 0 
L 5113 0 
L 5113 2094 
Q 5113 2597 4934 2840 
Q 4756 3084 4391 3084 
Q 3944 3084 3684 2787 
Q 3425 2491 3425 1978 
L 3425 0 
L 2847 0 
L 2847 2094 
Q 2847 2600 2669 2842 
Q 2491 3084 2119 3084 
Q 1678 3084 1418 2786 
Q 1159 2488 1159 1978 
L 1159 0 
L 581 0 
L 581 3500 
L 1159 3500 
L 1159 2956 
Q 1356 3278 1631 3431 
Q 1906 3584 2284 3584 
Q 2666 3584 2933 3390 
Q 3200 3197 3328 2828 
z
" transform="scale(0.015625)"/>
      </defs>
      <use xlink:href="#DejaVuSans-44"/>
      <use xlink:href="#DejaVuSans-61" transform="translate(77.001953 0)"/>
      <use xlink:href="#DejaVuSans-74" transform="translate(138.28125 0)"/>
      <use xlink:href="#DejaVuSans-65" transform="translate(177.490234 0)"/>
      <use xlink:href="#DejaVuSans-20" transform="translate(239.013672 0)"/>
      <use xlink:href="#DejaVuSans-61" transform="translate(270.800781 0)"/>
      <use xlink:href="#DejaVuSans-6e" transform="translate(332.080078 0)"/>
      <use xlink:href="#DejaVuSans-64" transform="translate(395.458984 0)"/>
      <use xlink:href="#DejaVuSans-20" transform="translate(458.935547 0)"/>
      <use xlink:href="#DejaVuSans-54" transform="translate(490.722656 0)"/>
      <use xlink:href="#DejaVuSans-69" transform="translate(548.681641 0)"/>
      <use xlink:href="#DejaVuSans-6d" transform="translate(576.464844 0)"/>
      <use xlink:href="#DejaVuSans-65" transform="translate(673.876953 0)"/>
     </g>
    </g>
   </g>
   <g id="matplotlib.axis_2">
    <g id="ytick_1">
     <g id="line2d_21">
      <path d="M 90 370.740822 
L 648 370.740822 
" clip-path="url(#pc97bf5bb9f)" style="fill: none; stroke: #b0b0b0; stroke-width: 0.8; stroke-linecap: square"/>
     </g>
     <g id="line2d_22">
      <defs>
       <path id="m8be060dbf7" d="M 0 0 
L -3.5 0 
" style="stroke: #000000; stroke-width: 0.8"/>
      </defs>
      <g>
       <use xlink:href="#m8be060dbf7" x="90" y="370.740822" style="stroke: #000000; stroke-width: 0.8"/>
      </g>
     </g>
     <g id="text_12">
      <!-- 0 -->
      <g transform="translate(76.6375 374.540041) scale(0.1 -0.1)">
       <use xlink:href="#DejaVuSans-30"/>
      </g>
     </g>
    </g>
    <g id="ytick_2">
     <g id="line2d_23">
      <path d="M 90 301.699726 
L 648 301.699726 
" clip-path="url(#pc97bf5bb9f)" style="fill: none; stroke: #b0b0b0; stroke-width: 0.8; stroke-linecap: square"/>
     </g>
     <g id="line2d_24">
      <g>
       <use xlink:href="#m8be060dbf7" x="90" y="301.699726" style="stroke: #000000; stroke-width: 0.8"/>
      </g>
     </g>
     <g id="text_13">
      <!-- 50 -->
      <g transform="translate(70.275 305.498945) scale(0.1 -0.1)">
       <use xlink:href="#DejaVuSans-35"/>
       <use xlink:href="#DejaVuSans-30" transform="translate(63.623047 0)"/>
      </g>
     </g>
    </g>
    <g id="ytick_3">
     <g id="line2d_25">
      <path d="M 90 232.65863 
L 648 232.65863 
" clip-path="url(#pc97bf5bb9f)" style="fill: none; stroke: #b0b0b0; stroke-width: 0.8; stroke-linecap: square"/>
     </g>
     <g id="line2d_26">
      <g>
       <use xlink:href="#m8be060dbf7" x="90" y="232.65863" style="stroke: #000000; stroke-width: 0.8"/>
      </g>
     </g>
     <g id="text_14">
      <!-- 100 -->
      <g transform="translate(63.9125 236.457849) scale(0.1 -0.1)">
       <use xlink:href="#DejaVuSans-31"/>
       <use xlink:href="#DejaVuSans-30" transform="translate(63.623047 0)"/>
       <use xlink:href="#DejaVuSans-30" transform="translate(127.246094 0)"/>
      </g>
     </g>
    </g>
    <g id="ytick_4">
     <g id="line2d_27">
      <path d="M 90 163.617534 
L 648 163.617534 
" clip-path="url(#pc97bf5bb9f)" style="fill: none; stroke: #b0b0b0; stroke-width: 0.8; stroke-linecap: square"/>
     </g>
     <g id="line2d_28">
      <g>
       <use xlink:href="#m8be060dbf7" x="90" y="163.617534" style="stroke: #000000; stroke-width: 0.8"/>
      </g>
     </g>
     <g id="text_15">
      <!-- 150 -->
      <g transform="translate(63.9125 167.416753) scale(0.1 -0.1)">
       <use xlink:href="#DejaVuSans-31"/>
       <use xlink:href="#DejaVuSans-35" transform="translate(63.623047 0)"/>
       <use xlink:href="#DejaVuSans-30" transform="translate(127.246094 0)"/>
      </g>
     </g>
    </g>
    <g id="ytick_5">
     <g id="line2d_29">
      <path d="M 90 94.576438 
L 648 94.576438 
" clip-path="url(#pc97bf5bb9f)" style="fill: none; stroke: #b0b0b0; stroke-width: 0.8; stroke-linecap: square"/>
     </g>
     <g id="line2d_30">
      <g>
       <use xlink:href="#m8be060dbf7" x="90" y="94.576438" style="stroke: #000000; stroke-width: 0.8"/>
      </g>
     </g>
     <g id="text_16">
      <!-- 200 -->
      <g transform="translate(63.9125 98.375657) scale(0.1 -0.1)">
       <defs>
        <path id="DejaVuSans-32" d="M 1228 531 
L 3431 531 
L 3431 0 
L 469 0 
L 469 531 
Q 828 903 1448 1529 
Q 2069 2156 2228 2338 
Q 2531 2678 2651 2914 
Q 2772 3150 2772 3378 
Q 2772 3750 2511 3984 
Q 2250 4219 1831 4219 
Q 1534 4219 1204 4116 
Q 875 4013 500 3803 
L 500 4441 
Q 881 4594 1212 4672 
Q 1544 4750 1819 4750 
Q 2544 4750 2975 4387 
Q 3406 4025 3406 3419 
Q 3406 3131 3298 2873 
Q 3191 2616 2906 2266 
Q 2828 2175 2409 1742 
Q 1991 1309 1228 531 
z
" transform="scale(0.015625)"/>
       </defs>
       <use xlink:href="#DejaVuSans-32"/>
       <use xlink:href="#DejaVuSans-30" transform="translate(63.623047 0)"/>
       <use xlink:href="#DejaVuSans-30" transform="translate(127.246094 0)"/>
      </g>
     </g>
    </g>
    <g id="text_17">
     <!-- Votes -->
     <g transform="translate(57.832812 231.893594) rotate(-90) scale(0.1 -0.1)">
      <defs>
       <path id="DejaVuSans-56" d="M 1831 0 
L 50 4666 
L 709 4666 
L 2188 738 
L 3669 4666 
L 4325 4666 
L 2547 0 
L 1831 0 
z
" transform="scale(0.015625)"/>
       <path id="DejaVuSans-6f" d="M 1959 3097 
Q 1497 3097 1228 2736 
Q 959 2375 959 1747 
Q 959 1119 1226 758 
Q 1494 397 1959 397 
Q 2419 397 2687 759 
Q 2956 1122 2956 1747 
Q 2956 2369 2687 2733 
Q 2419 3097 1959 3097 
z
M 1959 3584 
Q 2709 3584 3137 3096 
Q 3566 2609 3566 1747 
Q 3566 888 3137 398 
Q 2709 -91 1959 -91 
Q 1206 -91 779 398 
Q 353 888 353 1747 
Q 353 2609 779 3096 
Q 1206 3584 1959 3584 
z
" transform="scale(0.015625)"/>
       <path id="DejaVuSans-73" d="M 2834 3397 
L 2834 2853 
Q 2591 2978 2328 3040 
Q 2066 3103 1784 3103 
Q 1356 3103 1142 2972 
Q 928 2841 928 2578 
Q 928 2378 1081 2264 
Q 1234 2150 1697 2047 
L 1894 2003 
Q 2506 1872 2764 1633 
Q 3022 1394 3022 966 
Q 3022 478 2636 193 
Q 2250 -91 1575 -91 
Q 1294 -91 989 -36 
Q 684 19 347 128 
L 347 722 
Q 666 556 975 473 
Q 1284 391 1588 391 
Q 1994 391 2212 530 
Q 2431 669 2431 922 
Q 2431 1156 2273 1281 
Q 2116 1406 1581 1522 
L 1381 1569 
Q 847 1681 609 1914 
Q 372 2147 372 2553 
Q 372 3047 722 3315 
Q 1072 3584 1716 3584 
Q 2034 3584 2315 3537 
Q 2597 3491 2834 3397 
z
" transform="scale(0.015625)"/>
      </defs>
      <use xlink:href="#DejaVuSans-56"/>
      <use xlink:href="#DejaVuSans-6f" transform="translate(60.658203 0)"/>
      <use xlink:href="#DejaVuSans-74" transform="translate(121.839844 0)"/>
      <use xlink:href="#DejaVuSans-65" transform="translate(161.048828 0)"/>
      <use xlink:href="#DejaVuSans-73" transform="translate(222.572266 0)"/>
     </g>
    </g>
   </g>
   <g id="line2d_31">
    <path d="M 115.363636 345.886027 
L 134.949456 345.886027 
L 136.908038 344.505205 
L 156.493857 344.505205 
L 158.452439 341.743562 
L 176.079677 341.743562 
L 178.038259 340.36274 
L 187.831169 340.36274 
L 189.789751 338.981918 
L 197.624079 338.981918 
L 199.582661 337.601096 
L 205.458406 337.601096 
L 207.416988 336.220274 
L 234.837136 336.220274 
L 236.795718 334.839452 
L 258.340119 334.839452 
L 262.257283 332.077808 
L 266.174447 332.077808 
L 268.133029 330.696986 
L 285.760267 330.696986 
L 289.677431 327.935342 
L 313.180414 327.935342 
L 315.138996 326.554521 
L 321.014742 326.554521 
L 322.973324 325.173699 
L 324.931906 325.173699 
L 326.890488 323.792877 
L 379.772201 323.792877 
L 381.730783 322.412055 
L 405.233766 322.412055 
L 407.192348 321.031233 
L 420.902422 321.031233 
L 422.861004 319.650411 
L 424.819586 316.888767 
L 426.778168 316.888767 
L 430.695332 314.127123 
L 462.032643 314.127123 
L 463.991225 312.746301 
L 475.742717 312.746301 
L 477.701299 311.365479 
L 485.535627 311.365479 
L 487.494208 309.984658 
L 507.080028 309.984658 
L 509.03861 308.603836 
L 512.955774 308.603836 
L 514.914356 307.223014 
L 520.790102 307.223014 
L 522.748684 305.842192 
L 538.417339 305.842192 
L 540.375921 304.46137 
L 542.334503 304.46137 
L 544.293085 303.080548 
L 563.878905 303.080548 
L 565.837487 301.699726 
L 579.547561 301.699726 
L 581.506143 300.318904 
L 583.464724 300.318904 
L 587.381888 297.55726 
L 622.636364 297.55726 
L 622.636364 297.55726 
" clip-path="url(#pc97bf5bb9f)" style="fill: none; stroke: #1f77b4; stroke-width: 1.5; stroke-linecap: square"/>
   </g>
   <g id="line2d_32">
    <path d="M 115.363636 257.513425 
L 117.322218 256.132603 
L 123.197964 256.132603 
L 125.156546 254.751781 
L 127.115128 254.751781 
L 129.07371 253.370959 
L 131.032292 253.370959 
L 134.949456 250.609315 
L 136.908038 247.847671 
L 138.86662 247.847671 
L 142.783784 245.086027 
L 144.742366 245.086027 
L 146.700948 239.56274 
L 148.65953 236.801096 
L 150.618112 231.277808 
L 152.576694 227.135342 
L 158.452439 227.135342 
L 160.411021 222.992877 
L 162.369603 220.231233 
L 166.286767 217.469589 
L 168.245349 214.707945 
L 172.162513 211.946301 
L 174.121095 209.184658 
L 179.996841 209.184658 
L 181.955423 202.280548 
L 183.914005 199.518904 
L 185.872587 198.138082 
L 187.831169 195.376438 
L 189.789751 193.995616 
L 191.748333 193.995616 
L 193.706915 189.853151 
L 195.665497 189.853151 
L 197.624079 187.091507 
L 199.582661 185.710685 
L 201.541243 185.710685 
L 203.499824 184.329863 
L 207.416988 184.329863 
L 209.37557 182.949041 
L 213.292734 182.949041 
L 215.251316 180.187397 
L 217.209898 180.187397 
L 219.16848 178.806575 
L 227.002808 178.806575 
L 228.96139 177.425753 
L 234.837136 177.425753 
L 236.795718 176.044932 
L 238.7543 176.044932 
L 240.712882 173.283288 
L 242.671464 173.283288 
L 244.630046 170.521644 
L 246.588628 169.140822 
L 252.464373 169.140822 
L 254.422955 166.379178 
L 256.381537 164.998356 
L 258.340119 160.85589 
L 262.257283 158.094247 
L 277.925939 158.094247 
L 279.884521 153.951781 
L 281.843103 153.951781 
L 285.760267 151.190137 
L 287.718849 151.190137 
L 293.594595 147.047671 
L 297.511759 147.047671 
L 299.47034 145.666849 
L 303.387504 145.666849 
L 309.26325 141.524384 
L 313.180414 141.524384 
L 315.138996 140.143562 
L 324.931906 140.143562 
L 326.890488 138.76274 
L 330.807652 138.76274 
L 332.766234 137.381918 
L 356.269217 137.381918 
L 358.227799 134.620274 
L 362.144963 134.620274 
L 366.062127 131.85863 
L 368.020709 131.85863 
L 369.979291 130.477808 
L 381.730783 130.477808 
L 387.606529 126.335342 
L 389.565111 126.335342 
L 391.523693 124.954521 
L 393.482274 122.192877 
L 395.440856 122.192877 
L 397.399438 120.812055 
L 399.35802 120.812055 
L 407.192348 115.288767 
L 411.109512 115.288767 
L 413.068094 112.527123 
L 418.94384 112.527123 
L 420.902422 111.146301 
L 426.778168 111.146301 
L 428.73675 109.765479 
L 430.695332 109.765479 
L 432.653914 105.623014 
L 438.52966 105.623014 
L 440.488241 104.242192 
L 442.446823 101.480548 
L 446.363987 101.480548 
L 448.322569 100.099726 
L 452.239733 100.099726 
L 454.198315 98.718904 
L 456.156897 98.718904 
L 465.949807 91.814795 
L 469.866971 91.814795 
L 475.742717 87.672329 
L 481.618463 87.672329 
L 483.577045 84.910685 
L 485.535627 84.910685 
L 487.494208 83.529863 
L 493.369954 83.529863 
L 495.328536 82.149041 
L 512.955774 82.149041 
L 514.914356 80.768219 
L 528.62443 80.768219 
L 530.583012 79.387397 
L 534.500175 79.387397 
L 538.417339 76.625753 
L 548.210249 76.625753 
L 550.168831 75.244932 
L 559.961741 75.244932 
L 565.837487 71.102466 
L 591.299052 71.102466 
L 593.257634 68.340822 
L 595.216216 66.96 
L 622.636364 66.96 
L 622.636364 66.96 
" clip-path="url(#pc97bf5bb9f)" style="fill: none; stroke: #ff7f0e; stroke-width: 1.5; stroke-linecap: square"/>
   </g>
   <g id="line2d_33">
    <path d="M 115.363636 327.935342 
L 123.197964 327.935342 
L 125.156546 325.173699 
L 129.07371 325.173699 
L 131.032292 323.792877 
L 132.990874 321.031233 
L 134.949456 319.650411 
L 136.908038 315.507945 
L 138.86662 312.746301 
L 140.825202 311.365479 
L 142.783784 311.365479 
L 144.742366 308.603836 
L 146.700948 304.46137 
L 154.535276 304.46137 
L 156.493857 303.080548 
L 158.452439 303.080548 
L 160.411021 300.318904 
L 166.286767 300.318904 
L 170.203931 297.55726 
L 178.038259 297.55726 
L 179.996841 296.176438 
L 187.831169 296.176438 
L 193.706915 292.033973 
L 203.499824 292.033973 
L 205.458406 290.653151 
L 211.334152 290.653151 
L 213.292734 289.272329 
L 217.209898 289.272329 
L 219.16848 286.510685 
L 234.837136 286.510685 
L 236.795718 285.129863 
L 238.7543 282.368219 
L 240.712882 280.987397 
L 242.671464 280.987397 
L 244.630046 279.606575 
L 248.54721 279.606575 
L 250.505792 278.225753 
L 254.422955 278.225753 
L 256.381537 276.844932 
L 268.133029 276.844932 
L 270.091611 275.46411 
L 272.050193 275.46411 
L 274.008775 274.083288 
L 275.967357 274.083288 
L 277.925939 272.702466 
L 283.801685 272.702466 
L 285.760267 271.321644 
L 287.718849 268.56 
L 297.511759 268.56 
L 303.387504 264.417534 
L 309.26325 264.417534 
L 311.221832 263.036712 
L 319.05616 263.036712 
L 321.014742 261.65589 
L 322.973324 261.65589 
L 324.931906 260.275068 
L 328.84907 260.275068 
L 330.807652 258.894247 
L 336.683398 258.894247 
L 340.600562 256.132603 
L 342.559144 256.132603 
L 344.517726 254.751781 
L 360.186381 254.751781 
L 362.144963 251.990137 
L 364.103545 250.609315 
L 379.772201 250.609315 
L 381.730783 249.228493 
L 387.606529 249.228493 
L 389.565111 247.847671 
L 395.440856 247.847671 
L 397.399438 246.466849 
L 416.985258 246.466849 
L 418.94384 245.086027 
L 426.778168 245.086027 
L 428.73675 243.705205 
L 440.488241 243.705205 
L 442.446823 242.324384 
L 446.363987 242.324384 
L 448.322569 240.943562 
L 456.156897 240.943562 
L 460.074061 238.181918 
L 497.287118 238.181918 
L 499.2457 236.801096 
L 501.204282 236.801096 
L 503.162864 235.420274 
L 509.03861 235.420274 
L 510.997192 234.039452 
L 520.790102 234.039452 
L 522.748684 232.65863 
L 526.665848 232.65863 
L 528.62443 231.277808 
L 540.375921 231.277808 
L 542.334503 232.65863 
L 544.293085 231.277808 
L 558.003159 231.277808 
L 559.961741 229.896986 
L 575.630397 229.896986 
L 577.588979 228.516164 
L 581.506143 228.516164 
L 583.464724 227.135342 
L 585.423306 227.135342 
L 587.381888 225.754521 
L 601.091962 225.754521 
L 603.050544 224.373699 
L 614.802036 224.373699 
L 616.760618 222.992877 
L 622.636364 222.992877 
L 622.636364 222.992877 
" clip-path="url(#pc97bf5bb9f)" style="fill: none; stroke: #2ca02c; stroke-width: 1.5; stroke-linecap: square"/>
   </g>
   <g id="line2d_34">
    <path d="M 115.363636 369.36 
L 599.13338 369.36 
L 601.091962 367.979178 
L 622.636364 367.979178 
L 622.636364 367.979178 
" clip-path="url(#pc97bf5bb9f)" style="fill: none; stroke: #d62728; stroke-width: 1.5; stroke-linecap: square"/>
   </g>
   <g id="line2d_35">
    <path d="M 115.363636 338.981918 
L 121.239382 338.981918 
L 123.197964 337.601096 
L 134.949456 337.601096 
L 136.908038 336.220274 
L 148.65953 336.220274 
L 150.618112 334.839452 
L 193.706915 334.839452 
L 195.665497 333.45863 
L 266.174447 333.45863 
L 270.091611 330.696986 
L 285.760267 330.696986 
L 287.718849 329.316164 
L 295.553177 329.316164 
L 297.511759 327.935342 
L 301.428922 327.935342 
L 303.387504 326.554521 
L 354.310635 326.554521 
L 356.269217 325.173699 
L 436.571078 325.173699 
L 438.52966 323.792877 
L 622.636364 323.792877 
L 622.636364 323.792877 
" clip-path="url(#pc97bf5bb9f)" style="fill: none; stroke: #9467bd; stroke-width: 1.5; stroke-linecap: square"/>
   </g>
   <g id="line2d_36">
    <path d="M 115.363636 350.028493 
L 117.322218 350.028493 
L 119.2808 348.647671 
L 146.700948 348.647671 
L 148.65953 347.266849 
L 172.162513 347.266849 
L 174.121095 345.886027 
L 203.499824 345.886027 
L 207.416988 343.124384 
L 228.96139 343.124384 
L 230.919972 341.743562 
L 289.677431 341.743562 
L 291.636013 340.36274 
L 309.26325 340.36274 
L 311.221832 338.981918 
L 344.517726 338.981918 
L 346.476307 337.601096 
L 377.813619 337.601096 
L 379.772201 336.220274 
L 387.606529 336.220274 
L 389.565111 334.839452 
L 407.192348 334.839452 
L 409.15093 333.45863 
L 456.156897 333.45863 
L 458.115479 332.077808 
L 469.866971 332.077808 
L 471.825553 330.696986 
L 483.577045 330.696986 
L 485.535627 329.316164 
L 493.369954 329.316164 
L 495.328536 327.935342 
L 567.796069 327.935342 
L 569.754651 326.554521 
L 622.636364 326.554521 
L 622.636364 326.554521 
" clip-path="url(#pc97bf5bb9f)" style="fill: none; stroke: #8c564b; stroke-width: 1.5; stroke-linecap: square"/>
   </g>
   <g id="line2d_37">
    <path d="M 115.363636 247.847671 
L 123.197964 247.847671 
L 125.156546 246.466849 
L 132.990874 246.466849 
L 136.908038 243.705205 
L 138.86662 243.705205 
L 140.825202 242.324384 
L 142.783784 242.324384 
L 144.742366 240.943562 
L 148.65953 240.943562 
L 150.618112 239.56274 
L 156.493857 239.56274 
L 158.452439 238.181918 
L 162.369603 238.181918 
L 164.328185 236.801096 
L 166.286767 236.801096 
L 168.245349 235.420274 
L 172.162513 235.420274 
L 176.079677 232.65863 
L 183.914005 232.65863 
L 185.872587 231.277808 
L 191.748333 231.277808 
L 195.665497 228.516164 
L 199.582661 228.516164 
L 201.541243 227.135342 
L 205.458406 227.135342 
L 207.416988 225.754521 
L 209.37557 222.992877 
L 211.334152 218.850411 
L 215.251316 218.850411 
L 217.209898 217.469589 
L 227.002808 217.469589 
L 230.919972 214.707945 
L 232.878554 211.946301 
L 234.837136 210.565479 
L 236.795718 210.565479 
L 238.7543 207.803836 
L 246.588628 207.803836 
L 248.54721 206.423014 
L 250.505792 206.423014 
L 254.422955 203.66137 
L 256.381537 203.66137 
L 258.340119 202.280548 
L 260.298701 202.280548 
L 264.215865 199.518904 
L 268.133029 199.518904 
L 270.091611 196.75726 
L 277.925939 196.75726 
L 281.843103 193.995616 
L 285.760267 193.995616 
L 287.718849 192.614795 
L 289.677431 189.853151 
L 295.553177 189.853151 
L 297.511759 188.472329 
L 299.47034 188.472329 
L 301.428922 185.710685 
L 303.387504 185.710685 
L 305.346086 184.329863 
L 307.304668 184.329863 
L 309.26325 182.949041 
L 317.097578 182.949041 
L 321.014742 180.187397 
L 322.973324 180.187397 
L 324.931906 177.425753 
L 326.890488 177.425753 
L 328.84907 176.044932 
L 330.807652 176.044932 
L 332.766234 174.66411 
L 338.64198 174.66411 
L 340.600562 173.283288 
L 342.559144 173.283288 
L 350.393471 167.76 
L 352.352053 164.998356 
L 356.269217 164.998356 
L 360.186381 159.475068 
L 364.103545 159.475068 
L 368.020709 156.713425 
L 369.979291 156.713425 
L 371.937873 153.951781 
L 373.896455 153.951781 
L 375.855037 152.570959 
L 377.813619 152.570959 
L 379.772201 151.190137 
L 383.689365 151.190137 
L 385.647947 149.809315 
L 387.606529 149.809315 
L 389.565111 148.428493 
L 397.399438 148.428493 
L 399.35802 141.524384 
L 401.316602 141.524384 
L 403.275184 140.143562 
L 409.15093 140.143562 
L 411.109512 138.76274 
L 428.73675 138.76274 
L 430.695332 136.001096 
L 438.52966 136.001096 
L 440.488241 134.620274 
L 460.074061 134.620274 
L 462.032643 131.85863 
L 463.991225 130.477808 
L 473.784135 130.477808 
L 475.742717 129.096986 
L 489.45279 129.096986 
L 491.411372 127.716164 
L 493.369954 127.716164 
L 495.328536 126.335342 
L 507.080028 126.335342 
L 510.997192 123.573699 
L 524.707266 123.573699 
L 528.62443 120.812055 
L 530.583012 120.812055 
L 532.541594 119.431233 
L 544.293085 119.431233 
L 546.251667 118.050411 
L 552.127413 118.050411 
L 554.085995 116.669589 
L 556.044577 113.907945 
L 561.920323 113.907945 
L 563.878905 112.527123 
L 565.837487 112.527123 
L 569.754651 109.765479 
L 577.588979 109.765479 
L 579.547561 108.384658 
L 587.381888 108.384658 
L 589.34047 107.003836 
L 595.216216 107.003836 
L 597.174798 105.623014 
L 612.843454 105.623014 
L 616.760618 102.86137 
L 622.636364 102.86137 
L 622.636364 102.86137 
" clip-path="url(#pc97bf5bb9f)" style="fill: none; stroke: #e377c2; stroke-width: 1.5; stroke-linecap: square"/>
   </g>
   <g id="line2d_38">
    <path d="M 115.363636 333.45863 
L 117.322218 333.45863 
L 121.239382 330.696986 
L 131.032292 330.696986 
L 132.990874 329.316164 
L 134.949456 329.316164 
L 138.86662 326.554521 
L 142.783784 326.554521 
L 144.742366 325.173699 
L 150.618112 325.173699 
L 152.576694 323.792877 
L 154.535276 323.792877 
L 156.493857 322.412055 
L 158.452439 322.412055 
L 162.369603 319.650411 
L 168.245349 319.650411 
L 170.203931 318.269589 
L 174.121095 318.269589 
L 178.038259 315.507945 
L 181.955423 315.507945 
L 185.872587 312.746301 
L 187.831169 312.746301 
L 189.789751 311.365479 
L 191.748333 307.223014 
L 199.582661 307.223014 
L 207.416988 301.699726 
L 209.37557 301.699726 
L 213.292734 298.938082 
L 215.251316 298.938082 
L 217.209898 297.55726 
L 219.16848 297.55726 
L 221.127062 296.176438 
L 238.7543 296.176438 
L 240.712882 294.795616 
L 260.298701 294.795616 
L 264.215865 292.033973 
L 270.091611 292.033973 
L 272.050193 290.653151 
L 275.967357 290.653151 
L 279.884521 287.891507 
L 283.801685 287.891507 
L 285.760267 285.129863 
L 291.636013 285.129863 
L 293.594595 282.368219 
L 295.553177 280.987397 
L 305.346086 280.987397 
L 307.304668 279.606575 
L 309.26325 279.606575 
L 313.180414 276.844932 
L 322.973324 276.844932 
L 324.931906 275.46411 
L 326.890488 275.46411 
L 328.84907 274.083288 
L 340.600562 274.083288 
L 342.559144 272.702466 
L 348.434889 272.702466 
L 350.393471 271.321644 
L 352.352053 271.321644 
L 354.310635 267.179178 
L 356.269217 267.179178 
L 358.227799 264.417534 
L 360.186381 263.036712 
L 362.144963 263.036712 
L 366.062127 260.275068 
L 369.979291 260.275068 
L 371.937873 258.894247 
L 375.855037 258.894247 
L 377.813619 257.513425 
L 379.772201 257.513425 
L 381.730783 254.751781 
L 383.689365 254.751781 
L 385.647947 253.370959 
L 389.565111 253.370959 
L 393.482274 250.609315 
L 395.440856 250.609315 
L 397.399438 247.847671 
L 399.35802 246.466849 
L 413.068094 246.466849 
L 415.026676 243.705205 
L 420.902422 243.705205 
L 422.861004 242.324384 
L 424.819586 242.324384 
L 426.778168 240.943562 
L 432.653914 240.943562 
L 434.612496 239.56274 
L 444.405405 239.56274 
L 446.363987 238.181918 
L 450.281151 238.181918 
L 452.239733 236.801096 
L 462.032643 236.801096 
L 463.991225 235.420274 
L 481.618463 235.420274 
L 485.535627 232.65863 
L 487.494208 232.65863 
L 489.45279 231.277808 
L 491.411372 231.277808 
L 493.369954 229.896986 
L 495.328536 229.896986 
L 497.287118 228.516164 
L 501.204282 228.516164 
L 503.162864 227.135342 
L 505.121446 227.135342 
L 509.03861 224.373699 
L 514.914356 224.373699 
L 516.872938 222.992877 
L 522.748684 222.992877 
L 524.707266 221.612055 
L 538.417339 221.612055 
L 540.375921 220.231233 
L 542.334503 220.231233 
L 544.293085 218.850411 
L 552.127413 218.850411 
L 554.085995 216.088767 
L 565.837487 216.088767 
L 567.796069 214.707945 
L 569.754651 214.707945 
L 571.713233 211.946301 
L 581.506143 211.946301 
L 583.464724 210.565479 
L 595.216216 210.565479 
L 597.174798 209.184658 
L 622.636364 209.184658 
L 622.636364 209.184658 
" clip-path="url(#pc97bf5bb9f)" style="fill: none; stroke: #7f7f7f; stroke-width: 1.5; stroke-linecap: square"/>
   </g>
   <g id="line2d_39">
    <path d="M 115.363636 341.743562 
L 123.197964 341.743562 
L 125.156546 340.36274 
L 144.742366 340.36274 
L 146.700948 338.981918 
L 156.493857 338.981918 
L 158.452439 337.601096 
L 178.038259 337.601096 
L 179.996841 336.220274 
L 199.582661 336.220274 
L 201.541243 334.839452 
L 307.304668 334.839452 
L 309.26325 333.45863 
L 319.05616 333.45863 
L 321.014742 332.077808 
L 334.724816 332.077808 
L 336.683398 330.696986 
L 338.64198 330.696986 
L 340.600562 326.554521 
L 342.559144 325.173699 
L 346.476307 325.173699 
L 348.434889 323.792877 
L 368.020709 323.792877 
L 369.979291 322.412055 
L 387.606529 322.412055 
L 389.565111 321.031233 
L 411.109512 321.031233 
L 413.068094 319.650411 
L 436.571078 319.650411 
L 438.52966 318.269589 
L 448.322569 318.269589 
L 450.281151 316.888767 
L 512.955774 316.888767 
L 514.914356 315.507945 
L 518.83152 315.507945 
L 520.790102 314.127123 
L 536.458757 314.127123 
L 538.417339 312.746301 
L 593.257634 312.746301 
L 599.13338 308.603836 
L 622.636364 308.603836 
L 622.636364 308.603836 
" clip-path="url(#pc97bf5bb9f)" style="fill: none; stroke: #bcbd22; stroke-width: 1.5; stroke-linecap: square"/>
   </g>
   <g id="line2d_40">
    <path d="M 115.363636 366.598356 
L 213.292734 366.598356 
L 215.251316 365.217534 
L 338.64198 365.217534 
L 340.600562 363.836712 
L 540.375921 363.836712 
L 542.334503 362.45589 
L 544.293085 363.836712 
L 622.636364 363.836712 
L 622.636364 363.836712 
" clip-path="url(#pc97bf5bb9f)" style="fill: none; stroke: #17becf; stroke-width: 1.5; stroke-linecap: square"/>
   </g>
   <g id="line2d_41">
    <path d="M 115.363636 369.36 
L 117.322218 367.979178 
L 121.239382 367.979178 
L 123.197964 366.598356 
L 136.908038 366.598356 
L 138.86662 365.217534 
L 144.742366 365.217534 
L 146.700948 363.836712 
L 148.65953 363.836712 
L 152.576694 361.075068 
L 162.369603 361.075068 
L 166.286767 358.313425 
L 168.245349 358.313425 
L 170.203931 356.932603 
L 183.914005 356.932603 
L 185.872587 355.551781 
L 187.831169 352.790137 
L 191.748333 352.790137 
L 193.706915 351.409315 
L 195.665497 351.409315 
L 197.624079 350.028493 
L 199.582661 350.028493 
L 201.541243 348.647671 
L 203.499824 348.647671 
L 207.416988 345.886027 
L 219.16848 345.886027 
L 223.085644 343.124384 
L 228.96139 343.124384 
L 230.919972 341.743562 
L 232.878554 341.743562 
L 234.837136 338.981918 
L 240.712882 338.981918 
L 244.630046 333.45863 
L 256.381537 333.45863 
L 258.340119 330.696986 
L 260.298701 329.316164 
L 266.174447 329.316164 
L 268.133029 327.935342 
L 270.091611 325.173699 
L 274.008775 325.173699 
L 275.967357 323.792877 
L 303.387504 323.792877 
L 305.346086 321.031233 
L 319.05616 311.365479 
L 338.64198 311.365479 
L 344.517726 307.223014 
L 348.434889 307.223014 
L 350.393471 304.46137 
L 354.310635 304.46137 
L 356.269217 303.080548 
L 362.144963 303.080548 
L 364.103545 301.699726 
L 366.062127 301.699726 
L 368.020709 300.318904 
L 369.979291 300.318904 
L 373.896455 297.55726 
L 399.35802 297.55726 
L 403.275184 294.795616 
L 418.94384 294.795616 
L 420.902422 293.414795 
L 426.778168 293.414795 
L 430.695332 290.653151 
L 436.571078 290.653151 
L 438.52966 289.272329 
L 442.446823 289.272329 
L 444.405405 287.891507 
L 454.198315 287.891507 
L 456.156897 286.510685 
L 458.115479 286.510685 
L 460.074061 283.749041 
L 462.032643 283.749041 
L 463.991225 282.368219 
L 473.784135 282.368219 
L 475.742717 280.987397 
L 479.659881 280.987397 
L 481.618463 279.606575 
L 483.577045 279.606575 
L 487.494208 276.844932 
L 501.204282 276.844932 
L 503.162864 275.46411 
L 505.121446 275.46411 
L 507.080028 274.083288 
L 516.872938 274.083288 
L 518.83152 271.321644 
L 520.790102 269.940822 
L 530.583012 269.940822 
L 532.541594 268.56 
L 540.375921 268.56 
L 542.334503 265.798356 
L 550.168831 265.798356 
L 554.085995 263.036712 
L 559.961741 263.036712 
L 561.920323 261.65589 
L 585.423306 261.65589 
L 587.381888 258.894247 
L 589.34047 257.513425 
L 605.009126 257.513425 
L 606.967708 256.132603 
L 622.636364 256.132603 
L 622.636364 256.132603 
" clip-path="url(#pc97bf5bb9f)" style="fill: none; stroke: #1f77b4; stroke-width: 1.5; stroke-linecap: square"/>
   </g>
   <g id="line2d_42">
    <path d="M 115.363636 318.269589 
L 129.07371 318.269589 
L 131.032292 316.888767 
L 136.908038 316.888767 
L 138.86662 315.507945 
L 146.700948 315.507945 
L 148.65953 314.127123 
L 154.535276 314.127123 
L 156.493857 312.746301 
L 158.452439 312.746301 
L 160.411021 311.365479 
L 166.286767 311.365479 
L 168.245349 309.984658 
L 172.162513 309.984658 
L 174.121095 308.603836 
L 176.079677 308.603836 
L 179.996841 305.842192 
L 191.748333 305.842192 
L 193.706915 304.46137 
L 195.665497 304.46137 
L 197.624079 303.080548 
L 199.582661 303.080548 
L 201.541243 300.318904 
L 203.499824 296.176438 
L 205.458406 294.795616 
L 213.292734 294.795616 
L 219.16848 290.653151 
L 225.044226 290.653151 
L 228.96139 287.891507 
L 250.505792 287.891507 
L 252.464373 283.749041 
L 254.422955 283.749041 
L 258.340119 278.225753 
L 262.257283 275.46411 
L 264.215865 275.46411 
L 266.174447 272.702466 
L 281.843103 272.702466 
L 283.801685 269.940822 
L 289.677431 269.940822 
L 291.636013 268.56 
L 305.346086 268.56 
L 307.304668 267.179178 
L 330.807652 267.179178 
L 332.766234 265.798356 
L 334.724816 265.798356 
L 336.683398 264.417534 
L 342.559144 264.417534 
L 344.517726 263.036712 
L 368.020709 263.036712 
L 369.979291 261.65589 
L 373.896455 261.65589 
L 377.813619 256.132603 
L 381.730783 256.132603 
L 385.647947 253.370959 
L 389.565111 253.370959 
L 391.523693 251.990137 
L 397.399438 251.990137 
L 399.35802 250.609315 
L 422.861004 250.609315 
L 424.819586 249.228493 
L 454.198315 249.228493 
L 456.156897 247.847671 
L 473.784135 247.847671 
L 475.742717 246.466849 
L 479.659881 246.466849 
L 481.618463 245.086027 
L 487.494208 245.086027 
L 491.411372 242.324384 
L 493.369954 242.324384 
L 495.328536 240.943562 
L 503.162864 240.943562 
L 507.080028 238.181918 
L 516.872938 238.181918 
L 518.83152 236.801096 
L 524.707266 236.801096 
L 526.665848 235.420274 
L 536.458757 235.420274 
L 538.417339 234.039452 
L 548.210249 234.039452 
L 550.168831 232.65863 
L 585.423306 232.65863 
L 587.381888 231.277808 
L 589.34047 231.277808 
L 591.299052 229.896986 
L 610.884872 229.896986 
L 612.843454 227.135342 
L 614.802036 227.135342 
L 616.760618 225.754521 
L 622.636364 225.754521 
L 622.636364 225.754521 
" clip-path="url(#pc97bf5bb9f)" style="fill: none; stroke: #ff7f0e; stroke-width: 1.5; stroke-linecap: square"/>
   </g>
   <g id="patch_3">
    <path d="M 90 384.48 
L 90 51.84 
" style="fill: none; stroke: #000000; stroke-width: 0.8; stroke-linejoin: miter; stroke-linecap: square"/>
   </g>
   <g id="patch_4">
    <path d="M 648 384.48 
L 648 51.84 
" style="fill: none; stroke: #000000; stroke-width: 0.8; stroke-linejoin: miter; stroke-linecap: square"/>
   </g>
   <g id="patch_5">
    <path d="M 90 384.48 
L 648 384.48 
" style="fill: none; stroke: #000000; stroke-width: 0.8; stroke-linejoin: miter; stroke-linecap: square"/>
   </g>
   <g id="patch_6">
    <path d="M 90 51.84 
L 648 51.84 
" style="fill: none; stroke: #000000; stroke-width: 0.8; stroke-linejoin: miter; stroke-linecap: square"/>
   </g>
   <g id="text_18">
    <!-- Time Series of Votes for Each Keyword -->
    <g transform="translate(253.716563 45.84) scale(0.12 -0.12)">
     <defs>
      <path id="DejaVuSans-53" d="M 3425 4513 
L 3425 3897 
Q 3066 4069 2747 4153 
Q 2428 4238 2131 4238 
Q 1616 4238 1336 4038 
Q 1056 3838 1056 3469 
Q 1056 3159 1242 3001 
Q 1428 2844 1947 2747 
L 2328 2669 
Q 3034 2534 3370 2195 
Q 3706 1856 3706 1288 
Q 3706 609 3251 259 
Q 2797 -91 1919 -91 
Q 1588 -91 1214 -16 
Q 841 59 441 206 
L 441 856 
Q 825 641 1194 531 
Q 1563 422 1919 422 
Q 2459 422 2753 634 
Q 3047 847 3047 1241 
Q 3047 1584 2836 1778 
Q 2625 1972 2144 2069 
L 1759 2144 
Q 1053 2284 737 2584 
Q 422 2884 422 3419 
Q 422 4038 858 4394 
Q 1294 4750 2059 4750 
Q 2388 4750 2728 4690 
Q 3069 4631 3425 4513 
z
" transform="scale(0.015625)"/>
      <path id="DejaVuSans-72" d="M 2631 2963 
Q 2534 3019 2420 3045 
Q 2306 3072 2169 3072 
Q 1681 3072 1420 2755 
Q 1159 2438 1159 1844 
L 1159 0 
L 581 0 
L 581 3500 
L 1159 3500 
L 1159 2956 
Q 1341 3275 1631 3429 
Q 1922 3584 2338 3584 
Q 2397 3584 2469 3576 
Q 2541 3569 2628 3553 
L 2631 2963 
z
" transform="scale(0.015625)"/>
      <path id="DejaVuSans-66" d="M 2375 4863 
L 2375 4384 
L 1825 4384 
Q 1516 4384 1395 4259 
Q 1275 4134 1275 3809 
L 1275 3500 
L 2222 3500 
L 2222 3053 
L 1275 3053 
L 1275 0 
L 697 0 
L 697 3053 
L 147 3053 
L 147 3500 
L 697 3500 
L 697 3744 
Q 697 4328 969 4595 
Q 1241 4863 1831 4863 
L 2375 4863 
z
" transform="scale(0.015625)"/>
      <path id="DejaVuSans-45" d="M 628 4666 
L 3578 4666 
L 3578 4134 
L 1259 4134 
L 1259 2753 
L 3481 2753 
L 3481 2222 
L 1259 2222 
L 1259 531 
L 3634 531 
L 3634 0 
L 628 0 
L 628 4666 
z
" transform="scale(0.015625)"/>
      <path id="DejaVuSans-63" d="M 3122 3366 
L 3122 2828 
Q 2878 2963 2633 3030 
Q 2388 3097 2138 3097 
Q 1578 3097 1268 2742 
Q 959 2388 959 1747 
Q 959 1106 1268 751 
Q 1578 397 2138 397 
Q 2388 397 2633 464 
Q 2878 531 3122 666 
L 3122 134 
Q 2881 22 2623 -34 
Q 2366 -91 2075 -91 
Q 1284 -91 818 406 
Q 353 903 353 1747 
Q 353 2603 823 3093 
Q 1294 3584 2113 3584 
Q 2378 3584 2631 3529 
Q 2884 3475 3122 3366 
z
" transform="scale(0.015625)"/>
      <path id="DejaVuSans-68" d="M 3513 2113 
L 3513 0 
L 2938 0 
L 2938 2094 
Q 2938 2591 2744 2837 
Q 2550 3084 2163 3084 
Q 1697 3084 1428 2787 
Q 1159 2491 1159 1978 
L 1159 0 
L 581 0 
L 581 4863 
L 1159 4863 
L 1159 2956 
Q 1366 3272 1645 3428 
Q 1925 3584 2291 3584 
Q 2894 3584 3203 3211 
Q 3513 2838 3513 2113 
z
" transform="scale(0.015625)"/>
      <path id="DejaVuSans-4b" d="M 628 4666 
L 1259 4666 
L 1259 2694 
L 3353 4666 
L 4166 4666 
L 1850 2491 
L 4331 0 
L 3500 0 
L 1259 2247 
L 1259 0 
L 628 0 
L 628 4666 
z
" transform="scale(0.015625)"/>
      <path id="DejaVuSans-79" d="M 2059 -325 
Q 1816 -950 1584 -1140 
Q 1353 -1331 966 -1331 
L 506 -1331 
L 506 -850 
L 844 -850 
Q 1081 -850 1212 -737 
Q 1344 -625 1503 -206 
L 1606 56 
L 191 3500 
L 800 3500 
L 1894 763 
L 2988 3500 
L 3597 3500 
L 2059 -325 
z
" transform="scale(0.015625)"/>
      <path id="DejaVuSans-77" d="M 269 3500 
L 844 3500 
L 1563 769 
L 2278 3500 
L 2956 3500 
L 3675 769 
L 4391 3500 
L 4966 3500 
L 4050 0 
L 3372 0 
L 2619 2869 
L 1863 0 
L 1184 0 
L 269 3500 
z
" transform="scale(0.015625)"/>
     </defs>
     <use xlink:href="#DejaVuSans-54"/>
     <use xlink:href="#DejaVuSans-69" transform="translate(57.958984 0)"/>
     <use xlink:href="#DejaVuSans-6d" transform="translate(85.742188 0)"/>
     <use xlink:href="#DejaVuSans-65" transform="translate(183.154297 0)"/>
     <use xlink:href="#DejaVuSans-20" transform="translate(244.677734 0)"/>
     <use xlink:href="#DejaVuSans-53" transform="translate(276.464844 0)"/>
     <use xlink:href="#DejaVuSans-65" transform="translate(339.941406 0)"/>
     <use xlink:href="#DejaVuSans-72" transform="translate(401.464844 0)"/>
     <use xlink:href="#DejaVuSans-69" transform="translate(442.578125 0)"/>
     <use xlink:href="#DejaVuSans-65" transform="translate(470.361328 0)"/>
     <use xlink:href="#DejaVuSans-73" transform="translate(531.884766 0)"/>
     <use xlink:href="#DejaVuSans-20" transform="translate(583.984375 0)"/>
     <use xlink:href="#DejaVuSans-6f" transform="translate(615.771484 0)"/>
     <use xlink:href="#DejaVuSans-66" transform="translate(676.953125 0)"/>
     <use xlink:href="#DejaVuSans-20" transform="translate(712.158203 0)"/>
     <use xlink:href="#DejaVuSans-56" transform="translate(743.945312 0)"/>
     <use xlink:href="#DejaVuSans-6f" transform="translate(804.603516 0)"/>
     <use xlink:href="#DejaVuSans-74" transform="translate(865.785156 0)"/>
     <use xlink:href="#DejaVuSans-65" transform="translate(904.994141 0)"/>
     <use xlink:href="#DejaVuSans-73" transform="translate(966.517578 0)"/>
     <use xlink:href="#DejaVuSans-20" transform="translate(1018.617188 0)"/>
     <use xlink:href="#DejaVuSans-66" transform="translate(1050.404297 0)"/>
     <use xlink:href="#DejaVuSans-6f" transform="translate(1085.609375 0)"/>
     <use xlink:href="#DejaVuSans-72" transform="translate(1146.791016 0)"/>
     <use xlink:href="#DejaVuSans-20" transform="translate(1187.904297 0)"/>
     <use xlink:href="#DejaVuSans-45" transform="translate(1219.691406 0)"/>
     <use xlink:href="#DejaVuSans-61" transform="translate(1282.875 0)"/>
     <use xlink:href="#DejaVuSans-63" transform="translate(1344.154297 0)"/>
     <use xlink:href="#DejaVuSans-68" transform="translate(1399.134766 0)"/>
     <use xlink:href="#DejaVuSans-20" transform="translate(1462.513672 0)"/>
     <use xlink:href="#DejaVuSans-4b" transform="translate(1494.300781 0)"/>
     <use xlink:href="#DejaVuSans-65" transform="translate(1554.876953 0)"/>
     <use xlink:href="#DejaVuSans-79" transform="translate(1616.400391 0)"/>
     <use xlink:href="#DejaVuSans-77" transform="translate(1675.580078 0)"/>
     <use xlink:href="#DejaVuSans-6f" transform="translate(1757.367188 0)"/>
     <use xlink:href="#DejaVuSans-72" transform="translate(1818.548828 0)"/>
     <use xlink:href="#DejaVuSans-64" transform="translate(1857.912109 0)"/>
    </g>
   </g>
   <g id="legend_1">
    <g id="patch_7">
     <path d="M 97 235.9775 
L 149.245313 235.9775 
Q 151.245313 235.9775 151.245313 233.9775 
L 151.245313 58.84 
Q 151.245313 56.84 149.245313 56.84 
L 97 56.84 
Q 95 56.84 95 58.84 
L 95 233.9775 
Q 95 235.9775 97 235.9775 
z
" style="fill: #ffffff; opacity: 0.8; stroke: #cccccc; stroke-linejoin: miter"/>
    </g>
    <g id="line2d_43">
     <path d="M 99 64.938437 
L 109 64.938437 
L 119 64.938437 
" style="fill: none; stroke: #1f77b4; stroke-width: 1.5; stroke-linecap: square"/>
    </g>
    <g id="text_19">
     <!-- H01 -->
     <g transform="translate(127 68.438437) scale(0.1 -0.1)">
      <defs>
       <path id="DejaVuSans-48" d="M 628 4666 
L 1259 4666 
L 1259 2753 
L 3553 2753 
L 3553 4666 
L 4184 4666 
L 4184 0 
L 3553 0 
L 3553 2222 
L 1259 2222 
L 1259 0 
L 628 0 
L 628 4666 
z
" transform="scale(0.015625)"/>
      </defs>
      <use xlink:href="#DejaVuSans-48"/>
      <use xlink:href="#DejaVuSans-30" transform="translate(75.195312 0)"/>
      <use xlink:href="#DejaVuSans-31" transform="translate(138.818359 0)"/>
     </g>
    </g>
    <g id="line2d_44">
     <path d="M 99 79.616562 
L 109 79.616562 
L 119 79.616562 
" style="fill: none; stroke: #ff7f0e; stroke-width: 1.5; stroke-linecap: square"/>
    </g>
    <g id="text_20">
     <!-- H02 -->
     <g transform="translate(127 83.116562) scale(0.1 -0.1)">
      <use xlink:href="#DejaVuSans-48"/>
      <use xlink:href="#DejaVuSans-30" transform="translate(75.195312 0)"/>
      <use xlink:href="#DejaVuSans-32" transform="translate(138.818359 0)"/>
     </g>
    </g>
    <g id="line2d_45">
     <path d="M 99 94.294688 
L 109 94.294688 
L 119 94.294688 
" style="fill: none; stroke: #2ca02c; stroke-width: 1.5; stroke-linecap: square"/>
    </g>
    <g id="text_21">
     <!-- H03 -->
     <g transform="translate(127 97.794688) scale(0.1 -0.1)">
      <use xlink:href="#DejaVuSans-48"/>
      <use xlink:href="#DejaVuSans-30" transform="translate(75.195312 0)"/>
      <use xlink:href="#DejaVuSans-33" transform="translate(138.818359 0)"/>
     </g>
    </g>
    <g id="line2d_46">
     <path d="M 99 108.972812 
L 109 108.972812 
L 119 108.972812 
" style="fill: none; stroke: #d62728; stroke-width: 1.5; stroke-linecap: square"/>
    </g>
    <g id="text_22">
     <!-- H04 -->
     <g transform="translate(127 112.472812) scale(0.1 -0.1)">
      <use xlink:href="#DejaVuSans-48"/>
      <use xlink:href="#DejaVuSans-30" transform="translate(75.195312 0)"/>
      <use xlink:href="#DejaVuSans-34" transform="translate(138.818359 0)"/>
     </g>
    </g>
    <g id="line2d_47">
     <path d="M 99 123.650937 
L 109 123.650937 
L 119 123.650937 
" style="fill: none; stroke: #9467bd; stroke-width: 1.5; stroke-linecap: square"/>
    </g>
    <g id="text_23">
     <!-- H05 -->
     <g transform="translate(127 127.150937) scale(0.1 -0.1)">
      <use xlink:href="#DejaVuSans-48"/>
      <use xlink:href="#DejaVuSans-30" transform="translate(75.195312 0)"/>
      <use xlink:href="#DejaVuSans-35" transform="translate(138.818359 0)"/>
     </g>
    </g>
    <g id="line2d_48">
     <path d="M 99 138.329062 
L 109 138.329062 
L 119 138.329062 
" style="fill: none; stroke: #8c564b; stroke-width: 1.5; stroke-linecap: square"/>
    </g>
    <g id="text_24">
     <!-- H06 -->
     <g transform="translate(127 141.829062) scale(0.1 -0.1)">
      <use xlink:href="#DejaVuSans-48"/>
      <use xlink:href="#DejaVuSans-30" transform="translate(75.195312 0)"/>
      <use xlink:href="#DejaVuSans-36" transform="translate(138.818359 0)"/>
     </g>
    </g>
    <g id="line2d_49">
     <path d="M 99 153.007187 
L 109 153.007187 
L 119 153.007187 
" style="fill: none; stroke: #e377c2; stroke-width: 1.5; stroke-linecap: square"/>
    </g>
    <g id="text_25">
     <!-- H07 -->
     <g transform="translate(127 156.507187) scale(0.1 -0.1)">
      <use xlink:href="#DejaVuSans-48"/>
      <use xlink:href="#DejaVuSans-30" transform="translate(75.195312 0)"/>
      <use xlink:href="#DejaVuSans-37" transform="translate(138.818359 0)"/>
     </g>
    </g>
    <g id="line2d_50">
     <path d="M 99 167.685312 
L 109 167.685312 
L 119 167.685312 
" style="fill: none; stroke: #7f7f7f; stroke-width: 1.5; stroke-linecap: square"/>
    </g>
    <g id="text_26">
     <!-- H08 -->
     <g transform="translate(127 171.185312) scale(0.1 -0.1)">
      <use xlink:href="#DejaVuSans-48"/>
      <use xlink:href="#DejaVuSans-30" transform="translate(75.195312 0)"/>
      <use xlink:href="#DejaVuSans-38" transform="translate(138.818359 0)"/>
     </g>
    </g>
    <g id="line2d_51">
     <path d="M 99 182.363437 
L 109 182.363437 
L 119 182.363437 
" style="fill: none; stroke: #bcbd22; stroke-width: 1.5; stroke-linecap: square"/>
    </g>
    <g id="text_27">
     <!-- H09 -->
     <g transform="translate(127 185.863437) scale(0.1 -0.1)">
      <defs>
       <path id="DejaVuSans-39" d="M 703 97 
L 703 672 
Q 941 559 1184 500 
Q 1428 441 1663 441 
Q 2288 441 2617 861 
Q 2947 1281 2994 2138 
Q 2813 1869 2534 1725 
Q 2256 1581 1919 1581 
Q 1219 1581 811 2004 
Q 403 2428 403 3163 
Q 403 3881 828 4315 
Q 1253 4750 1959 4750 
Q 2769 4750 3195 4129 
Q 3622 3509 3622 2328 
Q 3622 1225 3098 567 
Q 2575 -91 1691 -91 
Q 1453 -91 1209 -44 
Q 966 3 703 97 
z
M 1959 2075 
Q 2384 2075 2632 2365 
Q 2881 2656 2881 3163 
Q 2881 3666 2632 3958 
Q 2384 4250 1959 4250 
Q 1534 4250 1286 3958 
Q 1038 3666 1038 3163 
Q 1038 2656 1286 2365 
Q 1534 2075 1959 2075 
z
" transform="scale(0.015625)"/>
      </defs>
      <use xlink:href="#DejaVuSans-48"/>
      <use xlink:href="#DejaVuSans-30" transform="translate(75.195312 0)"/>
      <use xlink:href="#DejaVuSans-39" transform="translate(138.818359 0)"/>
     </g>
    </g>
    <g id="line2d_52">
     <path d="M 99 197.041562 
L 109 197.041562 
L 119 197.041562 
" style="fill: none; stroke: #17becf; stroke-width: 1.5; stroke-linecap: square"/>
    </g>
    <g id="text_28">
     <!-- H10 -->
     <g transform="translate(127 200.541562) scale(0.1 -0.1)">
      <use xlink:href="#DejaVuSans-48"/>
      <use xlink:href="#DejaVuSans-31" transform="translate(75.195312 0)"/>
      <use xlink:href="#DejaVuSans-30" transform="translate(138.818359 0)"/>
     </g>
    </g>
    <g id="line2d_53">
     <path d="M 99 211.719687 
L 109 211.719687 
L 119 211.719687 
" style="fill: none; stroke: #1f77b4; stroke-width: 1.5; stroke-linecap: square"/>
    </g>
    <g id="text_29">
     <!-- H11 -->
     <g transform="translate(127 215.219687) scale(0.1 -0.1)">
      <use xlink:href="#DejaVuSans-48"/>
      <use xlink:href="#DejaVuSans-31" transform="translate(75.195312 0)"/>
      <use xlink:href="#DejaVuSans-31" transform="translate(138.818359 0)"/>
     </g>
    </g>
    <g id="line2d_54">
     <path d="M 99 226.397812 
L 109 226.397812 
L 119 226.397812 
" style="fill: none; stroke: #ff7f0e; stroke-width: 1.5; stroke-linecap: square"/>
    </g>
    <g id="text_30">
     <!-- H12 -->
     <g transform="translate(127 229.897812) scale(0.1 -0.1)">
      <use xlink:href="#DejaVuSans-48"/>
      <use xlink:href="#DejaVuSans-31" transform="translate(75.195312 0)"/>
      <use xlink:href="#DejaVuSans-32" transform="translate(138.818359 0)"/>
     </g>
    </g>
   </g>
  </g>
 </g>
 <defs>
  <clipPath id="pc97bf5bb9f">
   <rect x="90" y="51.84" width="558" height="332.64"/>
  </clipPath>
 </defs>
</svg>
