<?xml version="1.0" encoding="utf-8" standalone="no"?>
<!DOCTYPE svg PUBLIC "-//W3C//DTD SVG 1.1//EN"
  "http://www.w3.org/Graphics/SVG/1.1/DTD/svg11.dtd">
<svg xmlns:xlink="http://www.w3.org/1999/xlink" width="720pt" height="432pt" viewBox="0 0 720 432" xmlns="http://www.w3.org/2000/svg" version="1.1">
 <metadata>
  <rdf:RDF xmlns:dc="http://purl.org/dc/elements/1.1/" xmlns:cc="http://creativecommons.org/ns#" xmlns:rdf="http://www.w3.org/1999/02/22-rdf-syntax-ns#">
   <cc:Work>
    <dc:type rdf:resource="http://purl.org/dc/dcmitype/StillImage"/>
    <dc:date>2025-01-14T19:47:01.763396</dc:date>
    <dc:format>image/svg+xml</dc:format>
    <dc:creator>
     <cc:Agent>
      <dc:title>Matplotlib v3.10.0, https://matplotlib.org/</dc:title>
     </cc:Agent>
    </dc:creator>
   </cc:Work>
  </rdf:RDF>
 </metadata>
 <defs>
  <style type="text/css">*{stroke-linejoin: round; stroke-linecap: butt}</style>
 </defs>
 <g id="figure_1">
  <g id="patch_1">
   <path d="M 0 432 
L 720 432 
L 720 0 
L 0 0 
z
" style="fill: #ffffff"/>
  </g>
  <g id="axes_1">
   <g id="patch_2">
    <path d="M 90 384.48 
L 648 384.48 
L 648 51.84 
L 90 51.84 
z
" style="fill: #ffffff"/>
   </g>
   <g id="matplotlib.axis_1">
    <g id="xtick_1">
     <g id="line2d_1">
      <path d="M 152.08311 384.48 
L 152.08311 51.84 
" clip-path="url(#pfdc733b2e6)" style="fill: none; stroke: #b0b0b0; stroke-width: 0.8; stroke-linecap: square"/>
     </g>
     <g id="line2d_2">
      <defs>
       <path id="m2fd2ae726e" d="M 0 0 
L 0 3.5 
" style="stroke: #000000; stroke-width: 0.8"/>
      </defs>
      <g>
       <use xlink:href="#m2fd2ae726e" x="152.08311" y="384.48" style="stroke: #000000; stroke-width: 0.8"/>
      </g>
     </g>
     <g id="text_1">
      <!-- 01-14 14 -->
      <g transform="translate(129.602641 399.078438) scale(0.1 -0.1)">
       <defs>
        <path id="DejaVuSans-30" d="M 2034 4250 
Q 1547 4250 1301 3770 
Q 1056 3291 1056 2328 
Q 1056 1369 1301 889 
Q 1547 409 2034 409 
Q 2525 409 2770 889 
Q 3016 1369 3016 2328 
Q 3016 3291 2770 3770 
Q 2525 4250 2034 4250 
z
M 2034 4750 
Q 2819 4750 3233 4129 
Q 3647 3509 3647 2328 
Q 3647 1150 3233 529 
Q 2819 -91 2034 -91 
Q 1250 -91 836 529 
Q 422 1150 422 2328 
Q 422 3509 836 4129 
Q 1250 4750 2034 4750 
z
" transform="scale(0.015625)"/>
        <path id="DejaVuSans-31" d="M 794 531 
L 1825 531 
L 1825 4091 
L 703 3866 
L 703 4441 
L 1819 4666 
L 2450 4666 
L 2450 531 
L 3481 531 
L 3481 0 
L 794 0 
L 794 531 
z
" transform="scale(0.015625)"/>
        <path id="DejaVuSans-2d" d="M 313 2009 
L 1997 2009 
L 1997 1497 
L 313 1497 
L 313 2009 
z
" transform="scale(0.015625)"/>
        <path id="DejaVuSans-34" d="M 2419 4116 
L 825 1625 
L 2419 1625 
L 2419 4116 
z
M 2253 4666 
L 3047 4666 
L 3047 1625 
L 3713 1625 
L 3713 1100 
L 3047 1100 
L 3047 0 
L 2419 0 
L 2419 1100 
L 313 1100 
L 313 1709 
L 2253 4666 
z
" transform="scale(0.015625)"/>
        <path id="DejaVuSans-20" transform="scale(0.015625)"/>
       </defs>
       <use xlink:href="#DejaVuSans-30"/>
       <use xlink:href="#DejaVuSans-31" transform="translate(63.623047 0)"/>
       <use xlink:href="#DejaVuSans-2d" transform="translate(127.246094 0)"/>
       <use xlink:href="#DejaVuSans-31" transform="translate(163.330078 0)"/>
       <use xlink:href="#DejaVuSans-34" transform="translate(226.953125 0)"/>
       <use xlink:href="#DejaVuSans-20" transform="translate(290.576172 0)"/>
       <use xlink:href="#DejaVuSans-31" transform="translate(322.363281 0)"/>
       <use xlink:href="#DejaVuSans-34" transform="translate(385.986328 0)"/>
      </g>
     </g>
    </g>
    <g id="xtick_2">
     <g id="line2d_3">
      <path d="M 233.68194 384.48 
L 233.68194 51.84 
" clip-path="url(#pfdc733b2e6)" style="fill: none; stroke: #b0b0b0; stroke-width: 0.8; stroke-linecap: square"/>
     </g>
     <g id="line2d_4">
      <g>
       <use xlink:href="#m2fd2ae726e" x="233.68194" y="384.48" style="stroke: #000000; stroke-width: 0.8"/>
      </g>
     </g>
     <g id="text_2">
      <!-- 01-14 15 -->
      <g transform="translate(211.201471 399.078438) scale(0.1 -0.1)">
       <defs>
        <path id="DejaVuSans-35" d="M 691 4666 
L 3169 4666 
L 3169 4134 
L 1269 4134 
L 1269 2991 
Q 1406 3038 1543 3061 
Q 1681 3084 1819 3084 
Q 2600 3084 3056 2656 
Q 3513 2228 3513 1497 
Q 3513 744 3044 326 
Q 2575 -91 1722 -91 
Q 1428 -91 1123 -41 
Q 819 9 494 109 
L 494 744 
Q 775 591 1075 516 
Q 1375 441 1709 441 
Q 2250 441 2565 725 
Q 2881 1009 2881 1497 
Q 2881 1984 2565 2268 
Q 2250 2553 1709 2553 
Q 1456 2553 1204 2497 
Q 953 2441 691 2322 
L 691 4666 
z
" transform="scale(0.015625)"/>
       </defs>
       <use xlink:href="#DejaVuSans-30"/>
       <use xlink:href="#DejaVuSans-31" transform="translate(63.623047 0)"/>
       <use xlink:href="#DejaVuSans-2d" transform="translate(127.246094 0)"/>
       <use xlink:href="#DejaVuSans-31" transform="translate(163.330078 0)"/>
       <use xlink:href="#DejaVuSans-34" transform="translate(226.953125 0)"/>
       <use xlink:href="#DejaVuSans-20" transform="translate(290.576172 0)"/>
       <use xlink:href="#DejaVuSans-31" transform="translate(322.363281 0)"/>
       <use xlink:href="#DejaVuSans-35" transform="translate(385.986328 0)"/>
      </g>
     </g>
    </g>
    <g id="xtick_3">
     <g id="line2d_5">
      <path d="M 315.28077 384.48 
L 315.28077 51.84 
" clip-path="url(#pfdc733b2e6)" style="fill: none; stroke: #b0b0b0; stroke-width: 0.8; stroke-linecap: square"/>
     </g>
     <g id="line2d_6">
      <g>
       <use xlink:href="#m2fd2ae726e" x="315.28077" y="384.48" style="stroke: #000000; stroke-width: 0.8"/>
      </g>
     </g>
     <g id="text_3">
      <!-- 01-14 16 -->
      <g transform="translate(292.800301 399.078438) scale(0.1 -0.1)">
       <defs>
        <path id="DejaVuSans-36" d="M 2113 2584 
Q 1688 2584 1439 2293 
Q 1191 2003 1191 1497 
Q 1191 994 1439 701 
Q 1688 409 2113 409 
Q 2538 409 2786 701 
Q 3034 994 3034 1497 
Q 3034 2003 2786 2293 
Q 2538 2584 2113 2584 
z
M 3366 4563 
L 3366 3988 
Q 3128 4100 2886 4159 
Q 2644 4219 2406 4219 
Q 1781 4219 1451 3797 
Q 1122 3375 1075 2522 
Q 1259 2794 1537 2939 
Q 1816 3084 2150 3084 
Q 2853 3084 3261 2657 
Q 3669 2231 3669 1497 
Q 3669 778 3244 343 
Q 2819 -91 2113 -91 
Q 1303 -91 875 529 
Q 447 1150 447 2328 
Q 447 3434 972 4092 
Q 1497 4750 2381 4750 
Q 2619 4750 2861 4703 
Q 3103 4656 3366 4563 
z
" transform="scale(0.015625)"/>
       </defs>
       <use xlink:href="#DejaVuSans-30"/>
       <use xlink:href="#DejaVuSans-31" transform="translate(63.623047 0)"/>
       <use xlink:href="#DejaVuSans-2d" transform="translate(127.246094 0)"/>
       <use xlink:href="#DejaVuSans-31" transform="translate(163.330078 0)"/>
       <use xlink:href="#DejaVuSans-34" transform="translate(226.953125 0)"/>
       <use xlink:href="#DejaVuSans-20" transform="translate(290.576172 0)"/>
       <use xlink:href="#DejaVuSans-31" transform="translate(322.363281 0)"/>
       <use xlink:href="#DejaVuSans-36" transform="translate(385.986328 0)"/>
      </g>
     </g>
    </g>
    <g id="xtick_4">
     <g id="line2d_7">
      <path d="M 396.8796 384.48 
L 396.8796 51.84 
" clip-path="url(#pfdc733b2e6)" style="fill: none; stroke: #b0b0b0; stroke-width: 0.8; stroke-linecap: square"/>
     </g>
     <g id="line2d_8">
      <g>
       <use xlink:href="#m2fd2ae726e" x="396.8796" y="384.48" style="stroke: #000000; stroke-width: 0.8"/>
      </g>
     </g>
     <g id="text_4">
      <!-- 01-14 17 -->
      <g transform="translate(374.399132 399.078438) scale(0.1 -0.1)">
       <defs>
        <path id="DejaVuSans-37" d="M 525 4666 
L 3525 4666 
L 3525 4397 
L 1831 0 
L 1172 0 
L 2766 4134 
L 525 4134 
L 525 4666 
z
" transform="scale(0.015625)"/>
       </defs>
       <use xlink:href="#DejaVuSans-30"/>
       <use xlink:href="#DejaVuSans-31" transform="translate(63.623047 0)"/>
       <use xlink:href="#DejaVuSans-2d" transform="translate(127.246094 0)"/>
       <use xlink:href="#DejaVuSans-31" transform="translate(163.330078 0)"/>
       <use xlink:href="#DejaVuSans-34" transform="translate(226.953125 0)"/>
       <use xlink:href="#DejaVuSans-20" transform="translate(290.576172 0)"/>
       <use xlink:href="#DejaVuSans-31" transform="translate(322.363281 0)"/>
       <use xlink:href="#DejaVuSans-37" transform="translate(385.986328 0)"/>
      </g>
     </g>
    </g>
    <g id="xtick_5">
     <g id="line2d_9">
      <path d="M 478.47843 384.48 
L 478.47843 51.84 
" clip-path="url(#pfdc733b2e6)" style="fill: none; stroke: #b0b0b0; stroke-width: 0.8; stroke-linecap: square"/>
     </g>
     <g id="line2d_10">
      <g>
       <use xlink:href="#m2fd2ae726e" x="478.47843" y="384.48" style="stroke: #000000; stroke-width: 0.8"/>
      </g>
     </g>
     <g id="text_5">
      <!-- 01-14 18 -->
      <g transform="translate(455.997962 399.078438) scale(0.1 -0.1)">
       <defs>
        <path id="DejaVuSans-38" d="M 2034 2216 
Q 1584 2216 1326 1975 
Q 1069 1734 1069 1313 
Q 1069 891 1326 650 
Q 1584 409 2034 409 
Q 2484 409 2743 651 
Q 3003 894 3003 1313 
Q 3003 1734 2745 1975 
Q 2488 2216 2034 2216 
z
M 1403 2484 
Q 997 2584 770 2862 
Q 544 3141 544 3541 
Q 544 4100 942 4425 
Q 1341 4750 2034 4750 
Q 2731 4750 3128 4425 
Q 3525 4100 3525 3541 
Q 3525 3141 3298 2862 
Q 3072 2584 2669 2484 
Q 3125 2378 3379 2068 
Q 3634 1759 3634 1313 
Q 3634 634 3220 271 
Q 2806 -91 2034 -91 
Q 1263 -91 848 271 
Q 434 634 434 1313 
Q 434 1759 690 2068 
Q 947 2378 1403 2484 
z
M 1172 3481 
Q 1172 3119 1398 2916 
Q 1625 2713 2034 2713 
Q 2441 2713 2670 2916 
Q 2900 3119 2900 3481 
Q 2900 3844 2670 4047 
Q 2441 4250 2034 4250 
Q 1625 4250 1398 4047 
Q 1172 3844 1172 3481 
z
" transform="scale(0.015625)"/>
       </defs>
       <use xlink:href="#DejaVuSans-30"/>
       <use xlink:href="#DejaVuSans-31" transform="translate(63.623047 0)"/>
       <use xlink:href="#DejaVuSans-2d" transform="translate(127.246094 0)"/>
       <use xlink:href="#DejaVuSans-31" transform="translate(163.330078 0)"/>
       <use xlink:href="#DejaVuSans-34" transform="translate(226.953125 0)"/>
       <use xlink:href="#DejaVuSans-20" transform="translate(290.576172 0)"/>
       <use xlink:href="#DejaVuSans-31" transform="translate(322.363281 0)"/>
       <use xlink:href="#DejaVuSans-38" transform="translate(385.986328 0)"/>
      </g>
     </g>
    </g>
    <g id="xtick_6">
     <g id="line2d_11">
      <path d="M 560.077261 384.48 
L 560.077261 51.84 
" clip-path="url(#pfdc733b2e6)" style="fill: none; stroke: #b0b0b0; stroke-width: 0.8; stroke-linecap: square"/>
     </g>
     <g id="line2d_12">
      <g>
       <use xlink:href="#m2fd2ae726e" x="560.077261" y="384.48" style="stroke: #000000; stroke-width: 0.8"/>
      </g>
     </g>
     <g id="text_6">
      <!-- 01-14 19 -->
      <g transform="translate(537.596792 399.078438) scale(0.1 -0.1)">
       <defs>
        <path id="DejaVuSans-39" d="M 703 97 
L 703 672 
Q 941 559 1184 500 
Q 1428 441 1663 441 
Q 2288 441 2617 861 
Q 2947 1281 2994 2138 
Q 2813 1869 2534 1725 
Q 2256 1581 1919 1581 
Q 1219 1581 811 2004 
Q 403 2428 403 3163 
Q 403 3881 828 4315 
Q 1253 4750 1959 4750 
Q 2769 4750 3195 4129 
Q 3622 3509 3622 2328 
Q 3622 1225 3098 567 
Q 2575 -91 1691 -91 
Q 1453 -91 1209 -44 
Q 966 3 703 97 
z
M 1959 2075 
Q 2384 2075 2632 2365 
Q 2881 2656 2881 3163 
Q 2881 3666 2632 3958 
Q 2384 4250 1959 4250 
Q 1534 4250 1286 3958 
Q 1038 3666 1038 3163 
Q 1038 2656 1286 2365 
Q 1534 2075 1959 2075 
z
" transform="scale(0.015625)"/>
       </defs>
       <use xlink:href="#DejaVuSans-30"/>
       <use xlink:href="#DejaVuSans-31" transform="translate(63.623047 0)"/>
       <use xlink:href="#DejaVuSans-2d" transform="translate(127.246094 0)"/>
       <use xlink:href="#DejaVuSans-31" transform="translate(163.330078 0)"/>
       <use xlink:href="#DejaVuSans-34" transform="translate(226.953125 0)"/>
       <use xlink:href="#DejaVuSans-20" transform="translate(290.576172 0)"/>
       <use xlink:href="#DejaVuSans-31" transform="translate(322.363281 0)"/>
       <use xlink:href="#DejaVuSans-39" transform="translate(385.986328 0)"/>
      </g>
     </g>
    </g>
    <g id="xtick_7">
     <g id="line2d_13">
      <path d="M 641.676091 384.48 
L 641.676091 51.84 
" clip-path="url(#pfdc733b2e6)" style="fill: none; stroke: #b0b0b0; stroke-width: 0.8; stroke-linecap: square"/>
     </g>
     <g id="line2d_14">
      <g>
       <use xlink:href="#m2fd2ae726e" x="641.676091" y="384.48" style="stroke: #000000; stroke-width: 0.8"/>
      </g>
     </g>
     <g id="text_7">
      <!-- 01-14 20 -->
      <g transform="translate(619.195622 399.078438) scale(0.1 -0.1)">
       <defs>
        <path id="DejaVuSans-32" d="M 1228 531 
L 3431 531 
L 3431 0 
L 469 0 
L 469 531 
Q 828 903 1448 1529 
Q 2069 2156 2228 2338 
Q 2531 2678 2651 2914 
Q 2772 3150 2772 3378 
Q 2772 3750 2511 3984 
Q 2250 4219 1831 4219 
Q 1534 4219 1204 4116 
Q 875 4013 500 3803 
L 500 4441 
Q 881 4594 1212 4672 
Q 1544 4750 1819 4750 
Q 2544 4750 2975 4387 
Q 3406 4025 3406 3419 
Q 3406 3131 3298 2873 
Q 3191 2616 2906 2266 
Q 2828 2175 2409 1742 
Q 1991 1309 1228 531 
z
" transform="scale(0.015625)"/>
       </defs>
       <use xlink:href="#DejaVuSans-30"/>
       <use xlink:href="#DejaVuSans-31" transform="translate(63.623047 0)"/>
       <use xlink:href="#DejaVuSans-2d" transform="translate(127.246094 0)"/>
       <use xlink:href="#DejaVuSans-31" transform="translate(163.330078 0)"/>
       <use xlink:href="#DejaVuSans-34" transform="translate(226.953125 0)"/>
       <use xlink:href="#DejaVuSans-20" transform="translate(290.576172 0)"/>
       <use xlink:href="#DejaVuSans-32" transform="translate(322.363281 0)"/>
       <use xlink:href="#DejaVuSans-30" transform="translate(385.986328 0)"/>
      </g>
     </g>
    </g>
    <g id="text_8">
     <!-- Date and Time -->
     <g transform="translate(332.230469 412.756563) scale(0.1 -0.1)">
      <defs>
       <path id="DejaVuSans-44" d="M 1259 4147 
L 1259 519 
L 2022 519 
Q 2988 519 3436 956 
Q 3884 1394 3884 2338 
Q 3884 3275 3436 3711 
Q 2988 4147 2022 4147 
L 1259 4147 
z
M 628 4666 
L 1925 4666 
Q 3281 4666 3915 4102 
Q 4550 3538 4550 2338 
Q 4550 1131 3912 565 
Q 3275 0 1925 0 
L 628 0 
L 628 4666 
z
" transform="scale(0.015625)"/>
       <path id="DejaVuSans-61" d="M 2194 1759 
Q 1497 1759 1228 1600 
Q 959 1441 959 1056 
Q 959 750 1161 570 
Q 1363 391 1709 391 
Q 2188 391 2477 730 
Q 2766 1069 2766 1631 
L 2766 1759 
L 2194 1759 
z
M 3341 1997 
L 3341 0 
L 2766 0 
L 2766 531 
Q 2569 213 2275 61 
Q 1981 -91 1556 -91 
Q 1019 -91 701 211 
Q 384 513 384 1019 
Q 384 1609 779 1909 
Q 1175 2209 1959 2209 
L 2766 2209 
L 2766 2266 
Q 2766 2663 2505 2880 
Q 2244 3097 1772 3097 
Q 1472 3097 1187 3025 
Q 903 2953 641 2809 
L 641 3341 
Q 956 3463 1253 3523 
Q 1550 3584 1831 3584 
Q 2591 3584 2966 3190 
Q 3341 2797 3341 1997 
z
" transform="scale(0.015625)"/>
       <path id="DejaVuSans-74" d="M 1172 4494 
L 1172 3500 
L 2356 3500 
L 2356 3053 
L 1172 3053 
L 1172 1153 
Q 1172 725 1289 603 
Q 1406 481 1766 481 
L 2356 481 
L 2356 0 
L 1766 0 
Q 1100 0 847 248 
Q 594 497 594 1153 
L 594 3053 
L 172 3053 
L 172 3500 
L 594 3500 
L 594 4494 
L 1172 4494 
z
" transform="scale(0.015625)"/>
       <path id="DejaVuSans-65" d="M 3597 1894 
L 3597 1613 
L 953 1613 
Q 991 1019 1311 708 
Q 1631 397 2203 397 
Q 2534 397 2845 478 
Q 3156 559 3463 722 
L 3463 178 
Q 3153 47 2828 -22 
Q 2503 -91 2169 -91 
Q 1331 -91 842 396 
Q 353 884 353 1716 
Q 353 2575 817 3079 
Q 1281 3584 2069 3584 
Q 2775 3584 3186 3129 
Q 3597 2675 3597 1894 
z
M 3022 2063 
Q 3016 2534 2758 2815 
Q 2500 3097 2075 3097 
Q 1594 3097 1305 2825 
Q 1016 2553 972 2059 
L 3022 2063 
z
" transform="scale(0.015625)"/>
       <path id="DejaVuSans-6e" d="M 3513 2113 
L 3513 0 
L 2938 0 
L 2938 2094 
Q 2938 2591 2744 2837 
Q 2550 3084 2163 3084 
Q 1697 3084 1428 2787 
Q 1159 2491 1159 1978 
L 1159 0 
L 581 0 
L 581 3500 
L 1159 3500 
L 1159 2956 
Q 1366 3272 1645 3428 
Q 1925 3584 2291 3584 
Q 2894 3584 3203 3211 
Q 3513 2838 3513 2113 
z
" transform="scale(0.015625)"/>
       <path id="DejaVuSans-64" d="M 2906 2969 
L 2906 4863 
L 3481 4863 
L 3481 0 
L 2906 0 
L 2906 525 
Q 2725 213 2448 61 
Q 2172 -91 1784 -91 
Q 1150 -91 751 415 
Q 353 922 353 1747 
Q 353 2572 751 3078 
Q 1150 3584 1784 3584 
Q 2172 3584 2448 3432 
Q 2725 3281 2906 2969 
z
M 947 1747 
Q 947 1113 1208 752 
Q 1469 391 1925 391 
Q 2381 391 2643 752 
Q 2906 1113 2906 1747 
Q 2906 2381 2643 2742 
Q 2381 3103 1925 3103 
Q 1469 3103 1208 2742 
Q 947 2381 947 1747 
z
" transform="scale(0.015625)"/>
       <path id="DejaVuSans-54" d="M -19 4666 
L 3928 4666 
L 3928 4134 
L 2272 4134 
L 2272 0 
L 1638 0 
L 1638 4134 
L -19 4134 
L -19 4666 
z
" transform="scale(0.015625)"/>
       <path id="DejaVuSans-69" d="M 603 3500 
L 1178 3500 
L 1178 0 
L 603 0 
L 603 3500 
z
M 603 4863 
L 1178 4863 
L 1178 4134 
L 603 4134 
L 603 4863 
z
" transform="scale(0.015625)"/>
       <path id="DejaVuSans-6d" d="M 3328 2828 
Q 3544 3216 3844 3400 
Q 4144 3584 4550 3584 
Q 5097 3584 5394 3201 
Q 5691 2819 5691 2113 
L 5691 0 
L 5113 0 
L 5113 2094 
Q 5113 2597 4934 2840 
Q 4756 3084 4391 3084 
Q 3944 3084 3684 2787 
Q 3425 2491 3425 1978 
L 3425 0 
L 2847 0 
L 2847 2094 
Q 2847 2600 2669 2842 
Q 2491 3084 2119 3084 
Q 1678 3084 1418 2786 
Q 1159 2488 1159 1978 
L 1159 0 
L 581 0 
L 581 3500 
L 1159 3500 
L 1159 2956 
Q 1356 3278 1631 3431 
Q 1906 3584 2284 3584 
Q 2666 3584 2933 3390 
Q 3200 3197 3328 2828 
z
" transform="scale(0.015625)"/>
      </defs>
      <use xlink:href="#DejaVuSans-44"/>
      <use xlink:href="#DejaVuSans-61" transform="translate(77.001953 0)"/>
      <use xlink:href="#DejaVuSans-74" transform="translate(138.28125 0)"/>
      <use xlink:href="#DejaVuSans-65" transform="translate(177.490234 0)"/>
      <use xlink:href="#DejaVuSans-20" transform="translate(239.013672 0)"/>
      <use xlink:href="#DejaVuSans-61" transform="translate(270.800781 0)"/>
      <use xlink:href="#DejaVuSans-6e" transform="translate(332.080078 0)"/>
      <use xlink:href="#DejaVuSans-64" transform="translate(395.458984 0)"/>
      <use xlink:href="#DejaVuSans-20" transform="translate(458.935547 0)"/>
      <use xlink:href="#DejaVuSans-54" transform="translate(490.722656 0)"/>
      <use xlink:href="#DejaVuSans-69" transform="translate(548.681641 0)"/>
      <use xlink:href="#DejaVuSans-6d" transform="translate(576.464844 0)"/>
      <use xlink:href="#DejaVuSans-65" transform="translate(673.876953 0)"/>
     </g>
    </g>
   </g>
   <g id="matplotlib.axis_2">
    <g id="ytick_1">
     <g id="line2d_15">
      <path d="M 90 370.536654 
L 648 370.536654 
" clip-path="url(#pfdc733b2e6)" style="fill: none; stroke: #b0b0b0; stroke-width: 0.8; stroke-linecap: square"/>
     </g>
     <g id="line2d_16">
      <defs>
       <path id="m8bd8d28b24" d="M 0 0 
L -3.5 0 
" style="stroke: #000000; stroke-width: 0.8"/>
      </defs>
      <g>
       <use xlink:href="#m8bd8d28b24" x="90" y="370.536654" style="stroke: #000000; stroke-width: 0.8"/>
      </g>
     </g>
     <g id="text_9">
      <!-- 0 -->
      <g transform="translate(76.6375 374.335872) scale(0.1 -0.1)">
       <use xlink:href="#DejaVuSans-30"/>
      </g>
     </g>
    </g>
    <g id="ytick_2">
     <g id="line2d_17">
      <path d="M 90 311.703969 
L 648 311.703969 
" clip-path="url(#pfdc733b2e6)" style="fill: none; stroke: #b0b0b0; stroke-width: 0.8; stroke-linecap: square"/>
     </g>
     <g id="line2d_18">
      <g>
       <use xlink:href="#m8bd8d28b24" x="90" y="311.703969" style="stroke: #000000; stroke-width: 0.8"/>
      </g>
     </g>
     <g id="text_10">
      <!-- 50 -->
      <g transform="translate(70.275 315.503188) scale(0.1 -0.1)">
       <use xlink:href="#DejaVuSans-35"/>
       <use xlink:href="#DejaVuSans-30" transform="translate(63.623047 0)"/>
      </g>
     </g>
    </g>
    <g id="ytick_3">
     <g id="line2d_19">
      <path d="M 90 252.871284 
L 648 252.871284 
" clip-path="url(#pfdc733b2e6)" style="fill: none; stroke: #b0b0b0; stroke-width: 0.8; stroke-linecap: square"/>
     </g>
     <g id="line2d_20">
      <g>
       <use xlink:href="#m8bd8d28b24" x="90" y="252.871284" style="stroke: #000000; stroke-width: 0.8"/>
      </g>
     </g>
     <g id="text_11">
      <!-- 100 -->
      <g transform="translate(63.9125 256.670503) scale(0.1 -0.1)">
       <use xlink:href="#DejaVuSans-31"/>
       <use xlink:href="#DejaVuSans-30" transform="translate(63.623047 0)"/>
       <use xlink:href="#DejaVuSans-30" transform="translate(127.246094 0)"/>
      </g>
     </g>
    </g>
    <g id="ytick_4">
     <g id="line2d_21">
      <path d="M 90 194.038599 
L 648 194.038599 
" clip-path="url(#pfdc733b2e6)" style="fill: none; stroke: #b0b0b0; stroke-width: 0.8; stroke-linecap: square"/>
     </g>
     <g id="line2d_22">
      <g>
       <use xlink:href="#m8bd8d28b24" x="90" y="194.038599" style="stroke: #000000; stroke-width: 0.8"/>
      </g>
     </g>
     <g id="text_12">
      <!-- 150 -->
      <g transform="translate(63.9125 197.837818) scale(0.1 -0.1)">
       <use xlink:href="#DejaVuSans-31"/>
       <use xlink:href="#DejaVuSans-35" transform="translate(63.623047 0)"/>
       <use xlink:href="#DejaVuSans-30" transform="translate(127.246094 0)"/>
      </g>
     </g>
    </g>
    <g id="ytick_5">
     <g id="line2d_23">
      <path d="M 90 135.205914 
L 648 135.205914 
" clip-path="url(#pfdc733b2e6)" style="fill: none; stroke: #b0b0b0; stroke-width: 0.8; stroke-linecap: square"/>
     </g>
     <g id="line2d_24">
      <g>
       <use xlink:href="#m8bd8d28b24" x="90" y="135.205914" style="stroke: #000000; stroke-width: 0.8"/>
      </g>
     </g>
     <g id="text_13">
      <!-- 200 -->
      <g transform="translate(63.9125 139.005133) scale(0.1 -0.1)">
       <use xlink:href="#DejaVuSans-32"/>
       <use xlink:href="#DejaVuSans-30" transform="translate(63.623047 0)"/>
       <use xlink:href="#DejaVuSans-30" transform="translate(127.246094 0)"/>
      </g>
     </g>
    </g>
    <g id="ytick_6">
     <g id="line2d_25">
      <path d="M 90 76.37323 
L 648 76.37323 
" clip-path="url(#pfdc733b2e6)" style="fill: none; stroke: #b0b0b0; stroke-width: 0.8; stroke-linecap: square"/>
     </g>
     <g id="line2d_26">
      <g>
       <use xlink:href="#m8bd8d28b24" x="90" y="76.37323" style="stroke: #000000; stroke-width: 0.8"/>
      </g>
     </g>
     <g id="text_14">
      <!-- 250 -->
      <g transform="translate(63.9125 80.172448) scale(0.1 -0.1)">
       <use xlink:href="#DejaVuSans-32"/>
       <use xlink:href="#DejaVuSans-35" transform="translate(63.623047 0)"/>
       <use xlink:href="#DejaVuSans-30" transform="translate(127.246094 0)"/>
      </g>
     </g>
    </g>
    <g id="text_15">
     <!-- Votes -->
     <g transform="translate(57.832812 231.893594) rotate(-90) scale(0.1 -0.1)">
      <defs>
       <path id="DejaVuSans-56" d="M 1831 0 
L 50 4666 
L 709 4666 
L 2188 738 
L 3669 4666 
L 4325 4666 
L 2547 0 
L 1831 0 
z
" transform="scale(0.015625)"/>
       <path id="DejaVuSans-6f" d="M 1959 3097 
Q 1497 3097 1228 2736 
Q 959 2375 959 1747 
Q 959 1119 1226 758 
Q 1494 397 1959 397 
Q 2419 397 2687 759 
Q 2956 1122 2956 1747 
Q 2956 2369 2687 2733 
Q 2419 3097 1959 3097 
z
M 1959 3584 
Q 2709 3584 3137 3096 
Q 3566 2609 3566 1747 
Q 3566 888 3137 398 
Q 2709 -91 1959 -91 
Q 1206 -91 779 398 
Q 353 888 353 1747 
Q 353 2609 779 3096 
Q 1206 3584 1959 3584 
z
" transform="scale(0.015625)"/>
       <path id="DejaVuSans-73" d="M 2834 3397 
L 2834 2853 
Q 2591 2978 2328 3040 
Q 2066 3103 1784 3103 
Q 1356 3103 1142 2972 
Q 928 2841 928 2578 
Q 928 2378 1081 2264 
Q 1234 2150 1697 2047 
L 1894 2003 
Q 2506 1872 2764 1633 
Q 3022 1394 3022 966 
Q 3022 478 2636 193 
Q 2250 -91 1575 -91 
Q 1294 -91 989 -36 
Q 684 19 347 128 
L 347 722 
Q 666 556 975 473 
Q 1284 391 1588 391 
Q 1994 391 2212 530 
Q 2431 669 2431 922 
Q 2431 1156 2273 1281 
Q 2116 1406 1581 1522 
L 1381 1569 
Q 847 1681 609 1914 
Q 372 2147 372 2553 
Q 372 3047 722 3315 
Q 1072 3584 1716 3584 
Q 2034 3584 2315 3537 
Q 2597 3491 2834 3397 
z
" transform="scale(0.015625)"/>
      </defs>
      <use xlink:href="#DejaVuSans-56"/>
      <use xlink:href="#DejaVuSans-6f" transform="translate(60.658203 0)"/>
      <use xlink:href="#DejaVuSans-74" transform="translate(121.839844 0)"/>
      <use xlink:href="#DejaVuSans-65" transform="translate(161.048828 0)"/>
      <use xlink:href="#DejaVuSans-73" transform="translate(222.572266 0)"/>
     </g>
    </g>
   </g>
   <g id="line2d_27">
    <path d="M 115.363636 349.356887 
L 128.963441 349.356887 
L 130.323422 348.180233 
L 143.923227 348.180233 
L 145.283207 345.826926 
L 157.523032 345.826926 
L 158.883012 344.650272 
L 165.682915 344.650272 
L 167.042895 343.473619 
L 172.482817 343.473619 
L 173.842798 342.296965 
L 177.922739 342.296965 
L 179.28272 341.120311 
L 198.322447 341.120311 
L 199.682427 339.943658 
L 214.642213 339.943658 
L 217.362174 337.59035 
L 220.082135 337.59035 
L 221.442116 336.413696 
L 233.68194 336.413696 
L 236.401901 334.060389 
L 252.721667 334.060389 
L 254.081648 332.883735 
L 258.161589 332.883735 
L 259.52157 331.707082 
L 260.88155 331.707082 
L 262.241531 330.530428 
L 298.961004 330.530428 
L 300.320985 329.353774 
L 316.640751 329.353774 
L 318.000731 328.177121 
L 327.520595 328.177121 
L 328.880575 327.000467 
L 330.240556 324.64716 
L 331.600536 324.64716 
L 334.320497 322.293852 
L 356.080185 322.293852 
L 357.440166 321.117198 
L 365.600049 321.117198 
L 366.960029 319.940545 
L 372.399951 319.940545 
L 373.759932 318.763891 
L 387.359737 318.763891 
L 388.719717 317.587237 
L 391.439678 317.587237 
L 392.799659 316.410584 
L 396.8796 316.410584 
L 398.239581 315.23393 
L 409.119425 315.23393 
L 410.479405 314.057276 
L 411.839386 314.057276 
L 413.199366 312.880623 
L 426.799171 312.880623 
L 428.159152 311.703969 
L 437.679015 311.703969 
L 439.038996 310.527315 
L 440.398976 310.527315 
L 443.118937 308.174008 
L 473.038508 308.174008 
L 474.398489 306.997354 
L 496.158177 306.997354 
L 497.518157 305.8207 
L 498.878138 305.8207 
L 500.238118 304.644047 
L 512.477943 304.644047 
L 513.837923 303.467393 
L 515.197904 303.467393 
L 516.557884 302.290739 
L 523.357787 302.290739 
L 524.717767 301.114086 
L 528.797709 301.114086 
L 531.51767 298.760778 
L 532.87765 298.760778 
L 534.237631 297.584125 
L 536.957592 297.584125 
L 538.317573 296.407471 
L 541.037534 296.407471 
L 542.397514 295.230817 
L 545.117475 295.230817 
L 546.477456 294.054163 
L 579.116988 294.054163 
L 580.476968 292.87751 
L 594.076773 292.87751 
L 595.436754 291.700856 
L 603.596637 291.700856 
L 604.956617 290.524202 
L 606.316598 290.524202 
L 607.676578 289.347549 
L 609.036559 289.347549 
L 614.476481 284.640934 
L 617.196442 284.640934 
L 618.556422 282.287626 
L 622.636364 282.287626 
L 622.636364 282.287626 
" clip-path="url(#pfdc733b2e6)" style="fill: none; stroke: #1f77b4; stroke-width: 1.5; stroke-linecap: square"/>
   </g>
   <g id="line2d_28">
    <path d="M 115.363636 274.051051 
L 116.723617 272.874397 
L 120.803558 272.874397 
L 122.163539 271.697743 
L 123.523519 271.697743 
L 124.8835 270.521089 
L 126.24348 270.521089 
L 128.963441 268.167782 
L 130.323422 265.814475 
L 131.683402 265.814475 
L 134.403363 263.461167 
L 135.763344 263.461167 
L 137.123324 258.754553 
L 138.483305 256.401245 
L 139.843285 251.69463 
L 141.203266 248.164669 
L 145.283207 248.164669 
L 146.643188 244.634708 
L 148.003168 242.281401 
L 150.723129 239.928093 
L 152.08311 237.574786 
L 154.803071 235.221479 
L 156.163051 232.868171 
L 160.242993 232.868171 
L 161.602973 226.984903 
L 162.962954 224.631595 
L 164.322934 223.454942 
L 165.682915 221.101634 
L 167.042895 219.924981 
L 168.402876 219.924981 
L 169.762856 216.395019 
L 171.122837 216.395019 
L 172.482817 214.041712 
L 173.842798 212.865058 
L 175.202778 212.865058 
L 176.562759 211.688405 
L 179.28272 211.688405 
L 180.6427 210.511751 
L 183.362661 210.511751 
L 184.722642 208.158444 
L 186.082622 208.158444 
L 187.442603 206.98179 
L 192.882525 206.98179 
L 194.242505 205.805136 
L 198.322447 205.805136 
L 199.682427 204.628482 
L 201.042408 204.628482 
L 202.402388 202.275175 
L 203.762369 202.275175 
L 205.122349 199.921868 
L 206.48233 198.745214 
L 210.562272 198.745214 
L 211.922252 196.391907 
L 213.282233 195.215253 
L 214.642213 191.685292 
L 217.362174 189.331984 
L 228.242018 189.331984 
L 229.601999 185.802023 
L 230.961979 185.802023 
L 233.68194 183.448716 
L 235.041921 183.448716 
L 239.121862 179.918755 
L 241.841823 179.918755 
L 243.201804 178.742101 
L 245.921765 178.742101 
L 250.001706 175.21214 
L 252.721667 175.21214 
L 254.081648 174.035486 
L 260.88155 174.035486 
L 262.241531 172.858833 
L 264.961492 172.858833 
L 266.321472 171.682179 
L 282.641238 171.682179 
L 284.001219 169.328872 
L 286.72118 169.328872 
L 289.441141 166.975564 
L 290.801121 166.975564 
L 292.161102 165.798911 
L 300.320985 165.798911 
L 304.400926 162.268949 
L 305.760907 162.268949 
L 307.120887 161.092296 
L 308.480868 158.738988 
L 309.840848 158.738988 
L 311.200829 157.562335 
L 312.560809 157.562335 
L 318.000731 152.85572 
L 320.720692 152.85572 
L 322.080673 150.502412 
L 326.160614 150.502412 
L 327.520595 149.325759 
L 331.600536 149.325759 
L 332.960517 148.149105 
L 334.320497 148.149105 
L 335.680478 144.619144 
L 339.760419 144.619144 
L 341.1204 143.44249 
L 342.48038 141.089183 
L 345.200341 141.089183 
L 346.560322 139.912529 
L 349.280283 139.912529 
L 350.640263 138.735875 
L 352.000244 138.735875 
L 358.800146 132.852607 
L 361.520107 132.852607 
L 365.600049 129.322646 
L 369.67999 129.322646 
L 371.039971 126.969339 
L 372.399951 126.969339 
L 373.759932 125.792685 
L 377.839873 125.792685 
L 379.199854 124.616031 
L 391.439678 124.616031 
L 392.799659 123.439377 
L 402.319522 123.439377 
L 403.679503 122.262724 
L 406.399464 122.262724 
L 409.119425 119.909416 
L 415.919327 119.909416 
L 417.279308 118.732763 
L 424.07921 118.732763 
L 428.159152 115.202802 
L 445.838898 115.202802 
L 447.198879 112.849494 
L 448.558859 111.67284 
L 481.198391 111.67284 
L 482.558372 110.496187 
L 490.718255 110.496187 
L 493.438216 108.142879 
L 496.158177 108.142879 
L 497.518157 106.966226 
L 498.878138 106.966226 
L 501.598099 104.612918 
L 502.958079 104.612918 
L 504.31806 103.436265 
L 505.67804 103.436265 
L 508.398001 98.72965 
L 509.757982 97.552996 
L 516.557884 97.552996 
L 517.917865 94.023035 
L 519.277845 91.669728 
L 521.997806 91.669728 
L 524.717767 89.31642 
L 531.51767 89.31642 
L 534.237631 86.963113 
L 536.957592 86.963113 
L 538.317573 85.786459 
L 541.037534 85.786459 
L 542.397514 84.609805 
L 543.757495 84.609805 
L 545.117475 83.433152 
L 546.477456 83.433152 
L 547.837436 82.256498 
L 549.197417 82.256498 
L 550.557397 81.079844 
L 553.277358 81.079844 
L 554.637339 78.726537 
L 561.437241 78.726537 
L 564.157202 76.37323 
L 577.757007 76.37323 
L 579.116988 75.196576 
L 580.476968 75.196576 
L 581.836949 74.019922 
L 583.196929 74.019922 
L 587.276871 70.489961 
L 589.996832 70.489961 
L 591.356812 69.313307 
L 618.556422 69.313307 
L 621.276383 66.96 
L 622.636364 66.96 
L 622.636364 66.96 
" clip-path="url(#pfdc733b2e6)" style="fill: none; stroke: #ff7f0e; stroke-width: 1.5; stroke-linecap: square"/>
   </g>
   <g id="line2d_29">
    <path d="M 115.363636 334.060389 
L 120.803558 334.060389 
L 122.163539 331.707082 
L 124.8835 331.707082 
L 126.24348 330.530428 
L 127.603461 328.177121 
L 128.963441 327.000467 
L 130.323422 323.470506 
L 131.683402 321.117198 
L 133.043383 319.940545 
L 134.403363 319.940545 
L 135.763344 317.587237 
L 137.123324 314.057276 
L 142.563246 314.057276 
L 143.923227 312.880623 
L 145.283207 312.880623 
L 146.643188 310.527315 
L 150.723129 310.527315 
L 153.44309 308.174008 
L 158.883012 308.174008 
L 160.242993 306.997354 
L 165.682915 306.997354 
L 169.762856 303.467393 
L 176.562759 303.467393 
L 177.922739 302.290739 
L 182.002681 302.290739 
L 183.362661 301.114086 
L 186.082622 301.114086 
L 187.442603 298.760778 
L 198.322447 298.760778 
L 199.682427 297.584125 
L 201.042408 295.230817 
L 202.402388 294.054163 
L 203.762369 294.054163 
L 205.122349 292.87751 
L 207.842311 292.87751 
L 209.202291 291.700856 
L 211.922252 291.700856 
L 213.282233 290.524202 
L 221.442116 290.524202 
L 222.802096 289.347549 
L 224.162077 289.347549 
L 225.522057 288.170895 
L 226.882038 288.170895 
L 228.242018 286.994241 
L 232.32196 286.994241 
L 233.68194 285.817588 
L 235.041921 283.46428 
L 241.841823 283.46428 
L 245.921765 279.934319 
L 250.001706 279.934319 
L 251.361687 278.757665 
L 256.801609 278.757665 
L 258.161589 277.581012 
L 259.52157 277.581012 
L 260.88155 276.404358 
L 263.601511 276.404358 
L 264.961492 275.227704 
L 269.041433 275.227704 
L 271.761394 272.874397 
L 273.121375 272.874397 
L 274.481355 271.697743 
L 285.361199 271.697743 
L 286.72118 269.344436 
L 288.08116 268.167782 
L 298.961004 268.167782 
L 300.320985 266.991128 
L 304.400926 266.991128 
L 305.760907 265.814475 
L 309.840848 265.814475 
L 311.200829 264.637821 
L 324.800634 264.637821 
L 326.160614 263.461167 
L 331.600536 263.461167 
L 332.960517 262.284514 
L 341.1204 262.284514 
L 342.48038 261.10786 
L 345.200341 261.10786 
L 346.560322 259.931206 
L 352.000244 259.931206 
L 354.720205 257.577899 
L 380.559834 257.577899 
L 381.919815 256.401245 
L 383.279795 256.401245 
L 384.639776 255.224591 
L 388.719717 255.224591 
L 390.079698 254.047938 
L 396.8796 254.047938 
L 398.239581 252.871284 
L 400.959542 252.871284 
L 402.319522 251.69463 
L 410.479405 251.69463 
L 411.839386 252.871284 
L 413.199366 251.69463 
L 422.71923 251.69463 
L 424.07921 250.517977 
L 434.959054 250.517977 
L 436.319035 249.341323 
L 439.038996 249.341323 
L 440.398976 248.164669 
L 441.758957 248.164669 
L 443.118937 246.988016 
L 452.638801 246.988016 
L 453.998781 245.811362 
L 462.158664 245.811362 
L 463.518645 244.634708 
L 483.918352 244.634708 
L 485.278333 243.458054 
L 515.197904 243.458054 
L 516.557884 242.281401 
L 530.157689 242.281401 
L 531.51767 241.104747 
L 553.277358 241.104747 
L 555.997319 238.75144 
L 580.476968 238.75144 
L 581.836949 237.574786 
L 583.196929 235.221479 
L 610.396539 235.221479 
L 611.75652 234.044825 
L 614.476481 234.044825 
L 615.836461 232.868171 
L 622.636364 232.868171 
L 622.636364 232.868171 
" clip-path="url(#pfdc733b2e6)" style="fill: none; stroke: #2ca02c; stroke-width: 1.5; stroke-linecap: square"/>
   </g>
   <g id="line2d_30">
    <path d="M 115.363636 369.36 
L 451.27882 369.36 
L 452.638801 368.183346 
L 622.636364 368.183346 
L 622.636364 368.183346 
" clip-path="url(#pfdc733b2e6)" style="fill: none; stroke: #d62728; stroke-width: 1.5; stroke-linecap: square"/>
   </g>
   <g id="line2d_31">
    <path d="M 115.363636 343.473619 
L 119.443578 343.473619 
L 120.803558 342.296965 
L 128.963441 342.296965 
L 130.323422 341.120311 
L 138.483305 341.120311 
L 139.843285 339.943658 
L 169.762856 339.943658 
L 171.122837 338.767004 
L 220.082135 338.767004 
L 222.802096 336.413696 
L 233.68194 336.413696 
L 235.041921 335.237043 
L 240.481843 335.237043 
L 241.841823 334.060389 
L 244.561784 334.060389 
L 245.921765 332.883735 
L 281.281258 332.883735 
L 282.641238 331.707082 
L 338.400439 331.707082 
L 339.760419 330.530428 
L 516.557884 330.530428 
L 517.917865 329.353774 
L 519.277845 329.353774 
L 520.637826 328.177121 
L 606.316598 328.177121 
L 607.676578 327.000467 
L 622.636364 327.000467 
L 622.636364 327.000467 
" clip-path="url(#pfdc733b2e6)" style="fill: none; stroke: #9467bd; stroke-width: 1.5; stroke-linecap: square"/>
   </g>
   <g id="line2d_32">
    <path d="M 115.363636 352.886848 
L 116.723617 352.886848 
L 118.083597 351.710195 
L 137.123324 351.710195 
L 138.483305 350.533541 
L 154.803071 350.533541 
L 156.163051 349.356887 
L 176.562759 349.356887 
L 179.28272 347.00358 
L 194.242505 347.00358 
L 195.602486 345.826926 
L 236.401901 345.826926 
L 237.761882 344.650272 
L 250.001706 344.650272 
L 251.361687 343.473619 
L 274.481355 343.473619 
L 275.841336 342.296965 
L 297.601024 342.296965 
L 298.961004 341.120311 
L 304.400926 341.120311 
L 305.760907 339.943658 
L 318.000731 339.943658 
L 319.360712 338.767004 
L 352.000244 338.767004 
L 353.360224 337.59035 
L 361.520107 337.59035 
L 362.880088 336.413696 
L 371.039971 336.413696 
L 372.399951 335.237043 
L 377.839873 335.237043 
L 379.199854 334.060389 
L 429.519132 334.060389 
L 430.879113 332.883735 
L 470.318547 332.883735 
L 471.678528 331.707082 
L 550.557397 331.707082 
L 551.917378 330.530428 
L 589.996832 330.530428 
L 591.356812 329.353774 
L 609.036559 329.353774 
L 610.396539 328.177121 
L 622.636364 328.177121 
L 622.636364 328.177121 
" clip-path="url(#pfdc733b2e6)" style="fill: none; stroke: #8c564b; stroke-width: 1.5; stroke-linecap: square"/>
   </g>
   <g id="line2d_33">
    <path d="M 115.363636 265.814475 
L 120.803558 265.814475 
L 122.163539 264.637821 
L 127.603461 264.637821 
L 130.323422 262.284514 
L 131.683402 262.284514 
L 133.043383 261.10786 
L 134.403363 261.10786 
L 135.763344 259.931206 
L 138.483305 259.931206 
L 139.843285 258.754553 
L 143.923227 258.754553 
L 145.283207 257.577899 
L 148.003168 257.577899 
L 149.363149 256.401245 
L 150.723129 256.401245 
L 152.08311 255.224591 
L 154.803071 255.224591 
L 157.523032 252.871284 
L 162.962954 252.871284 
L 164.322934 251.69463 
L 168.402876 251.69463 
L 171.122837 249.341323 
L 173.842798 249.341323 
L 175.202778 248.164669 
L 177.922739 248.164669 
L 179.28272 246.988016 
L 180.6427 244.634708 
L 182.002681 241.104747 
L 184.722642 241.104747 
L 186.082622 239.928093 
L 192.882525 239.928093 
L 195.602486 237.574786 
L 196.962466 235.221479 
L 198.322447 234.044825 
L 199.682427 234.044825 
L 201.042408 231.691518 
L 206.48233 231.691518 
L 207.842311 230.514864 
L 209.202291 230.514864 
L 211.922252 228.161556 
L 213.282233 228.161556 
L 214.642213 226.984903 
L 216.002194 226.984903 
L 218.722155 224.631595 
L 221.442116 224.631595 
L 222.802096 222.278288 
L 228.242018 222.278288 
L 230.961979 219.924981 
L 233.68194 219.924981 
L 235.041921 218.748327 
L 236.401901 216.395019 
L 240.481843 216.395019 
L 241.841823 215.218366 
L 243.201804 215.218366 
L 244.561784 212.865058 
L 245.921765 212.865058 
L 247.281745 211.688405 
L 248.641726 211.688405 
L 250.001706 210.511751 
L 255.441628 210.511751 
L 258.161589 208.158444 
L 259.52157 208.158444 
L 260.88155 205.805136 
L 262.241531 205.805136 
L 263.601511 204.628482 
L 264.961492 204.628482 
L 266.321472 203.451829 
L 270.401414 203.451829 
L 271.761394 202.275175 
L 273.121375 202.275175 
L 278.561297 197.56856 
L 279.921277 195.215253 
L 282.641238 195.215253 
L 285.361199 190.508638 
L 288.08116 190.508638 
L 290.801121 188.155331 
L 292.161102 188.155331 
L 293.521082 185.802023 
L 294.881063 185.802023 
L 296.241043 184.62537 
L 297.601024 184.62537 
L 298.961004 183.448716 
L 301.680965 183.448716 
L 303.040946 182.272062 
L 304.400926 182.272062 
L 305.760907 181.095409 
L 311.200829 181.095409 
L 312.560809 175.21214 
L 313.92079 175.21214 
L 315.28077 174.035486 
L 319.360712 174.035486 
L 320.720692 172.858833 
L 332.960517 172.858833 
L 334.320497 170.505525 
L 339.760419 170.505525 
L 341.1204 169.328872 
L 354.720205 169.328872 
L 356.080185 166.975564 
L 357.440166 165.798911 
L 364.240068 165.798911 
L 365.600049 164.622257 
L 375.119912 164.622257 
L 376.479893 163.445603 
L 377.839873 163.445603 
L 379.199854 162.268949 
L 387.359737 162.268949 
L 390.079698 159.915642 
L 399.599561 159.915642 
L 402.319522 157.562335 
L 403.679503 157.562335 
L 405.039483 156.385681 
L 413.199366 156.385681 
L 414.559347 155.209027 
L 418.639288 155.209027 
L 419.999269 154.032374 
L 421.359249 151.679066 
L 425.439191 151.679066 
L 426.799171 150.502412 
L 428.159152 150.502412 
L 430.879113 148.149105 
L 436.319035 148.149105 
L 437.679015 146.972451 
L 443.118937 146.972451 
L 444.478918 145.795798 
L 448.558859 145.795798 
L 449.91884 144.619144 
L 460.798684 144.619144 
L 463.518645 142.265837 
L 470.318547 142.265837 
L 471.678528 141.089183 
L 477.11845 141.089183 
L 483.918352 135.205914 
L 486.638313 135.205914 
L 487.998294 134.029261 
L 489.358274 134.029261 
L 490.718255 131.675953 
L 493.438216 129.322646 
L 496.158177 124.616031 
L 498.878138 124.616031 
L 501.598099 119.909416 
L 504.31806 119.909416 
L 505.67804 117.556109 
L 508.398001 115.202802 
L 512.477943 115.202802 
L 513.837923 114.026148 
L 515.197904 114.026148 
L 517.917865 111.67284 
L 523.357787 111.67284 
L 524.717767 110.496187 
L 527.437728 110.496187 
L 528.797709 109.319533 
L 535.597612 109.319533 
L 536.957592 106.966226 
L 538.317573 105.789572 
L 539.677553 105.789572 
L 541.037534 104.612918 
L 543.757495 104.612918 
L 545.117475 103.436265 
L 547.837436 103.436265 
L 549.197417 101.082957 
L 551.917378 101.082957 
L 553.277358 99.906304 
L 554.637339 99.906304 
L 555.997319 98.72965 
L 562.797222 98.72965 
L 564.157202 97.552996 
L 570.957105 97.552996 
L 572.317085 96.376342 
L 573.677066 96.376342 
L 575.037046 94.023035 
L 577.757007 91.669728 
L 579.116988 88.139767 
L 580.476968 86.963113 
L 581.836949 86.963113 
L 583.196929 85.786459 
L 584.55691 85.786459 
L 585.91689 84.609805 
L 591.356812 84.609805 
L 592.716793 83.433152 
L 595.436754 83.433152 
L 596.796734 82.256498 
L 599.516695 82.256498 
L 602.236656 79.903191 
L 606.316598 79.903191 
L 607.676578 78.726537 
L 614.476481 78.726537 
L 615.836461 76.37323 
L 622.636364 76.37323 
L 622.636364 76.37323 
" clip-path="url(#pfdc733b2e6)" style="fill: none; stroke: #e377c2; stroke-width: 1.5; stroke-linecap: square"/>
   </g>
   <g id="line2d_34">
    <path d="M 115.363636 338.767004 
L 116.723617 338.767004 
L 119.443578 336.413696 
L 126.24348 336.413696 
L 127.603461 335.237043 
L 128.963441 335.237043 
L 131.683402 332.883735 
L 134.403363 332.883735 
L 135.763344 331.707082 
L 139.843285 331.707082 
L 141.203266 330.530428 
L 142.563246 330.530428 
L 143.923227 329.353774 
L 145.283207 329.353774 
L 148.003168 327.000467 
L 152.08311 327.000467 
L 153.44309 325.823813 
L 156.163051 325.823813 
L 158.883012 323.470506 
L 161.602973 323.470506 
L 164.322934 321.117198 
L 165.682915 321.117198 
L 167.042895 319.940545 
L 168.402876 316.410584 
L 173.842798 316.410584 
L 179.28272 311.703969 
L 180.6427 311.703969 
L 183.362661 309.350661 
L 184.722642 309.350661 
L 186.082622 308.174008 
L 187.442603 308.174008 
L 188.802583 306.997354 
L 201.042408 306.997354 
L 202.402388 305.8207 
L 216.002194 305.8207 
L 218.722155 303.467393 
L 222.802096 303.467393 
L 224.162077 302.290739 
L 226.882038 302.290739 
L 229.601999 299.937432 
L 232.32196 299.937432 
L 233.68194 297.584125 
L 237.761882 297.584125 
L 239.121862 295.230817 
L 240.481843 294.054163 
L 247.281745 294.054163 
L 248.641726 292.87751 
L 250.001706 292.87751 
L 252.721667 290.524202 
L 259.52157 290.524202 
L 260.88155 289.347549 
L 262.241531 289.347549 
L 263.601511 288.170895 
L 271.761394 288.170895 
L 273.121375 286.994241 
L 277.201316 286.994241 
L 278.561297 285.817588 
L 279.921277 285.817588 
L 281.281258 282.287626 
L 282.641238 282.287626 
L 284.001219 279.934319 
L 285.361199 278.757665 
L 286.72118 278.757665 
L 289.441141 276.404358 
L 292.161102 276.404358 
L 293.521082 275.227704 
L 296.241043 275.227704 
L 297.601024 274.051051 
L 298.961004 274.051051 
L 300.320985 271.697743 
L 301.680965 271.697743 
L 303.040946 270.521089 
L 305.760907 270.521089 
L 308.480868 268.167782 
L 309.840848 268.167782 
L 311.200829 265.814475 
L 312.560809 264.637821 
L 322.080673 264.637821 
L 323.440653 262.284514 
L 327.520595 262.284514 
L 328.880575 261.10786 
L 330.240556 261.10786 
L 331.600536 259.931206 
L 335.680478 259.931206 
L 337.040458 258.754553 
L 343.840361 258.754553 
L 345.200341 257.577899 
L 347.920302 257.577899 
L 349.280283 256.401245 
L 356.080185 256.401245 
L 357.440166 255.224591 
L 369.67999 255.224591 
L 372.399951 252.871284 
L 373.759932 252.871284 
L 375.119912 251.69463 
L 376.479893 251.69463 
L 377.839873 250.517977 
L 379.199854 250.517977 
L 380.559834 249.341323 
L 383.279795 249.341323 
L 384.639776 248.164669 
L 385.999756 248.164669 
L 388.719717 245.811362 
L 392.799659 245.811362 
L 394.159639 244.634708 
L 398.239581 244.634708 
L 399.599561 243.458054 
L 409.119425 243.458054 
L 410.479405 242.281401 
L 411.839386 242.281401 
L 413.199366 241.104747 
L 418.639288 241.104747 
L 419.999269 238.75144 
L 428.159152 238.75144 
L 429.519132 237.574786 
L 430.879113 237.574786 
L 432.239093 235.221479 
L 439.038996 235.221479 
L 440.398976 234.044825 
L 448.558859 234.044825 
L 449.91884 232.868171 
L 467.598586 232.868171 
L 468.958567 231.691518 
L 489.358274 231.691518 
L 490.718255 230.514864 
L 497.518157 230.514864 
L 498.878138 229.33821 
L 500.238118 229.33821 
L 501.598099 228.161556 
L 502.958079 228.161556 
L 504.31806 225.808249 
L 505.67804 225.808249 
L 508.398001 223.454942 
L 517.917865 223.454942 
L 519.277845 222.278288 
L 520.637826 222.278288 
L 521.997806 221.101634 
L 523.357787 221.101634 
L 524.717767 219.924981 
L 531.51767 219.924981 
L 532.87765 218.748327 
L 545.117475 218.748327 
L 546.477456 217.571673 
L 553.277358 217.571673 
L 554.637339 216.395019 
L 561.437241 216.395019 
L 562.797222 215.218366 
L 565.517183 215.218366 
L 569.597124 211.688405 
L 572.317085 211.688405 
L 573.677066 209.335097 
L 580.476968 209.335097 
L 583.196929 206.98179 
L 585.91689 206.98179 
L 587.276871 205.805136 
L 588.636851 205.805136 
L 591.356812 203.451829 
L 600.876676 203.451829 
L 602.236656 202.275175 
L 604.956617 202.275175 
L 606.316598 201.098521 
L 617.196442 201.098521 
L 619.916403 198.745214 
L 622.636364 198.745214 
L 622.636364 198.745214 
" clip-path="url(#pfdc733b2e6)" style="fill: none; stroke: #7f7f7f; stroke-width: 1.5; stroke-linecap: square"/>
   </g>
   <g id="line2d_35">
    <path d="M 115.363636 345.826926 
L 120.803558 345.826926 
L 122.163539 344.650272 
L 135.763344 344.650272 
L 137.123324 343.473619 
L 143.923227 343.473619 
L 145.283207 342.296965 
L 158.883012 342.296965 
L 160.242993 341.120311 
L 173.842798 341.120311 
L 175.202778 339.943658 
L 248.641726 339.943658 
L 250.001706 338.767004 
L 256.801609 338.767004 
L 258.161589 337.59035 
L 267.681453 337.59035 
L 269.041433 336.413696 
L 270.401414 336.413696 
L 271.761394 332.883735 
L 273.121375 331.707082 
L 275.841336 331.707082 
L 277.201316 330.530428 
L 290.801121 330.530428 
L 292.161102 329.353774 
L 304.400926 329.353774 
L 305.760907 328.177121 
L 320.720692 328.177121 
L 322.080673 327.000467 
L 338.400439 327.000467 
L 339.760419 325.823813 
L 346.560322 325.823813 
L 347.920302 324.64716 
L 391.439678 324.64716 
L 392.799659 323.470506 
L 395.51962 323.470506 
L 396.8796 322.293852 
L 407.759444 322.293852 
L 409.119425 321.117198 
L 447.198879 321.117198 
L 451.27882 317.587237 
L 490.718255 317.587237 
L 492.078235 316.410584 
L 493.438216 316.410584 
L 496.158177 314.057276 
L 498.878138 314.057276 
L 500.238118 312.880623 
L 569.597124 312.880623 
L 570.957105 311.703969 
L 622.636364 311.703969 
L 622.636364 311.703969 
" clip-path="url(#pfdc733b2e6)" style="fill: none; stroke: #bcbd22; stroke-width: 1.5; stroke-linecap: square"/>
   </g>
   <g id="line2d_36">
    <path d="M 115.363636 367.006693 
L 183.362661 367.006693 
L 184.722642 365.830039 
L 270.401414 365.830039 
L 271.761394 364.653385 
L 410.479405 364.653385 
L 411.839386 363.476732 
L 413.199366 364.653385 
L 577.757007 364.653385 
L 579.116988 363.476732 
L 588.636851 363.476732 
L 589.996832 362.300078 
L 622.636364 362.300078 
L 622.636364 362.300078 
" clip-path="url(#pfdc733b2e6)" style="fill: none; stroke: #17becf; stroke-width: 1.5; stroke-linecap: square"/>
   </g>
   <g id="line2d_37">
    <path d="M 115.363636 369.36 
L 116.723617 368.183346 
L 119.443578 368.183346 
L 120.803558 367.006693 
L 130.323422 367.006693 
L 131.683402 365.830039 
L 135.763344 365.830039 
L 137.123324 364.653385 
L 138.483305 364.653385 
L 141.203266 362.300078 
L 148.003168 362.300078 
L 150.723129 359.94677 
L 152.08311 359.94677 
L 153.44309 358.770117 
L 162.962954 358.770117 
L 164.322934 357.593463 
L 165.682915 355.240156 
L 168.402876 355.240156 
L 169.762856 354.063502 
L 171.122837 354.063502 
L 172.482817 352.886848 
L 173.842798 352.886848 
L 175.202778 351.710195 
L 176.562759 351.710195 
L 179.28272 349.356887 
L 187.442603 349.356887 
L 190.162564 347.00358 
L 194.242505 347.00358 
L 195.602486 345.826926 
L 196.962466 345.826926 
L 198.322447 343.473619 
L 202.402388 343.473619 
L 205.122349 338.767004 
L 213.282233 338.767004 
L 214.642213 336.413696 
L 216.002194 335.237043 
L 220.082135 335.237043 
L 221.442116 334.060389 
L 222.802096 331.707082 
L 225.522057 331.707082 
L 226.882038 330.530428 
L 245.921765 330.530428 
L 247.281745 328.177121 
L 256.801609 319.940545 
L 270.401414 319.940545 
L 274.481355 316.410584 
L 277.201316 316.410584 
L 278.561297 314.057276 
L 281.281258 314.057276 
L 282.641238 312.880623 
L 286.72118 312.880623 
L 288.08116 311.703969 
L 289.441141 311.703969 
L 290.801121 310.527315 
L 292.161102 310.527315 
L 294.881063 308.174008 
L 312.560809 308.174008 
L 315.28077 305.8207 
L 326.160614 305.8207 
L 327.520595 304.644047 
L 331.600536 304.644047 
L 334.320497 302.290739 
L 338.400439 302.290739 
L 339.760419 301.114086 
L 342.48038 301.114086 
L 343.840361 299.937432 
L 350.640263 299.937432 
L 352.000244 298.760778 
L 353.360224 298.760778 
L 354.720205 296.407471 
L 356.080185 296.407471 
L 357.440166 295.230817 
L 364.240068 295.230817 
L 365.600049 294.054163 
L 368.32001 294.054163 
L 369.67999 292.87751 
L 371.039971 292.87751 
L 373.759932 290.524202 
L 383.279795 290.524202 
L 384.639776 289.347549 
L 385.999756 289.347549 
L 387.359737 288.170895 
L 394.159639 288.170895 
L 395.51962 285.817588 
L 396.8796 284.640934 
L 403.679503 284.640934 
L 405.039483 283.46428 
L 410.479405 283.46428 
L 411.839386 281.110973 
L 417.279308 281.110973 
L 419.999269 278.757665 
L 424.07921 278.757665 
L 425.439191 277.581012 
L 441.758957 277.581012 
L 443.118937 275.227704 
L 444.478918 274.051051 
L 455.358762 274.051051 
L 456.718742 272.874397 
L 481.198391 272.874397 
L 482.558372 271.697743 
L 485.278333 271.697743 
L 486.638313 270.521089 
L 490.718255 270.521089 
L 492.078235 269.344436 
L 509.757982 269.344436 
L 511.117962 266.991128 
L 513.837923 266.991128 
L 515.197904 265.814475 
L 516.557884 265.814475 
L 517.917865 264.637821 
L 523.357787 264.637821 
L 524.717767 263.461167 
L 534.237631 263.461167 
L 535.597612 261.10786 
L 536.957592 261.10786 
L 538.317573 259.931206 
L 545.117475 259.931206 
L 546.477456 258.754553 
L 553.277358 258.754553 
L 555.997319 256.401245 
L 558.71728 256.401245 
L 560.077261 255.224591 
L 562.797222 255.224591 
L 564.157202 254.047938 
L 565.517183 254.047938 
L 566.877163 252.871284 
L 576.397027 252.871284 
L 577.757007 251.69463 
L 609.036559 251.69463 
L 610.396539 250.517977 
L 617.196442 250.517977 
L 618.556422 249.341323 
L 622.636364 249.341323 
L 622.636364 249.341323 
" clip-path="url(#pfdc733b2e6)" style="fill: none; stroke: #1f77b4; stroke-width: 1.5; stroke-linecap: square"/>
   </g>
   <g id="line2d_38">
    <path d="M 115.363636 325.823813 
L 124.8835 325.823813 
L 126.24348 324.64716 
L 130.323422 324.64716 
L 131.683402 323.470506 
L 137.123324 323.470506 
L 138.483305 322.293852 
L 142.563246 322.293852 
L 143.923227 321.117198 
L 145.283207 321.117198 
L 146.643188 319.940545 
L 150.723129 319.940545 
L 152.08311 318.763891 
L 154.803071 318.763891 
L 156.163051 317.587237 
L 157.523032 317.587237 
L 160.242993 315.23393 
L 168.402876 315.23393 
L 169.762856 314.057276 
L 171.122837 314.057276 
L 172.482817 312.880623 
L 173.842798 312.880623 
L 175.202778 310.527315 
L 176.562759 306.997354 
L 177.922739 305.8207 
L 183.362661 305.8207 
L 187.442603 302.290739 
L 191.522544 302.290739 
L 194.242505 299.937432 
L 209.202291 299.937432 
L 210.562272 296.407471 
L 211.922252 296.407471 
L 214.642213 291.700856 
L 217.362174 289.347549 
L 218.722155 289.347549 
L 220.082135 286.994241 
L 230.961979 286.994241 
L 232.32196 284.640934 
L 236.401901 284.640934 
L 237.761882 283.46428 
L 247.281745 283.46428 
L 248.641726 282.287626 
L 264.961492 282.287626 
L 266.321472 281.110973 
L 267.681453 281.110973 
L 269.041433 279.934319 
L 273.121375 279.934319 
L 274.481355 278.757665 
L 290.801121 278.757665 
L 292.161102 277.581012 
L 294.881063 277.581012 
L 297.601024 272.874397 
L 300.320985 272.874397 
L 303.040946 270.521089 
L 305.760907 270.521089 
L 307.120887 269.344436 
L 311.200829 269.344436 
L 312.560809 268.167782 
L 328.880575 268.167782 
L 330.240556 266.991128 
L 350.640263 266.991128 
L 352.000244 265.814475 
L 364.240068 265.814475 
L 365.600049 264.637821 
L 368.32001 264.637821 
L 369.67999 263.461167 
L 373.759932 263.461167 
L 376.479893 261.10786 
L 377.839873 261.10786 
L 379.199854 259.931206 
L 384.639776 259.931206 
L 387.359737 257.577899 
L 394.159639 257.577899 
L 395.51962 256.401245 
L 399.599561 256.401245 
L 400.959542 255.224591 
L 407.759444 255.224591 
L 409.119425 254.047938 
L 415.919327 254.047938 
L 417.279308 252.871284 
L 441.758957 252.871284 
L 443.118937 251.69463 
L 444.478918 251.69463 
L 445.838898 250.517977 
L 459.438703 250.517977 
L 460.798684 248.164669 
L 462.158664 248.164669 
L 463.518645 246.988016 
L 477.11845 246.988016 
L 478.47843 245.811362 
L 483.918352 245.811362 
L 485.278333 244.634708 
L 486.638313 244.634708 
L 487.998294 243.458054 
L 500.238118 243.458054 
L 501.598099 242.281401 
L 528.797709 242.281401 
L 530.157689 238.75144 
L 539.677553 238.75144 
L 541.037534 237.574786 
L 543.757495 237.574786 
L 545.117475 236.398132 
L 561.437241 236.398132 
L 562.797222 235.221479 
L 581.836949 235.221479 
L 583.196929 234.044825 
L 587.276871 234.044825 
L 588.636851 232.868171 
L 599.516695 232.868171 
L 600.876676 230.514864 
L 622.636364 230.514864 
L 622.636364 230.514864 
" clip-path="url(#pfdc733b2e6)" style="fill: none; stroke: #ff7f0e; stroke-width: 1.5; stroke-linecap: square"/>
   </g>
   <g id="patch_3">
    <path d="M 90 384.48 
L 90 51.84 
" style="fill: none; stroke: #000000; stroke-width: 0.8; stroke-linejoin: miter; stroke-linecap: square"/>
   </g>
   <g id="patch_4">
    <path d="M 648 384.48 
L 648 51.84 
" style="fill: none; stroke: #000000; stroke-width: 0.8; stroke-linejoin: miter; stroke-linecap: square"/>
   </g>
   <g id="patch_5">
    <path d="M 90 384.48 
L 648 384.48 
" style="fill: none; stroke: #000000; stroke-width: 0.8; stroke-linejoin: miter; stroke-linecap: square"/>
   </g>
   <g id="patch_6">
    <path d="M 90 51.84 
L 648 51.84 
" style="fill: none; stroke: #000000; stroke-width: 0.8; stroke-linejoin: miter; stroke-linecap: square"/>
   </g>
   <g id="text_16">
    <!-- Time Series of Votes for Each Keyword -->
    <g transform="translate(253.716563 45.84) scale(0.12 -0.12)">
     <defs>
      <path id="DejaVuSans-53" d="M 3425 4513 
L 3425 3897 
Q 3066 4069 2747 4153 
Q 2428 4238 2131 4238 
Q 1616 4238 1336 4038 
Q 1056 3838 1056 3469 
Q 1056 3159 1242 3001 
Q 1428 2844 1947 2747 
L 2328 2669 
Q 3034 2534 3370 2195 
Q 3706 1856 3706 1288 
Q 3706 609 3251 259 
Q 2797 -91 1919 -91 
Q 1588 -91 1214 -16 
Q 841 59 441 206 
L 441 856 
Q 825 641 1194 531 
Q 1563 422 1919 422 
Q 2459 422 2753 634 
Q 3047 847 3047 1241 
Q 3047 1584 2836 1778 
Q 2625 1972 2144 2069 
L 1759 2144 
Q 1053 2284 737 2584 
Q 422 2884 422 3419 
Q 422 4038 858 4394 
Q 1294 4750 2059 4750 
Q 2388 4750 2728 4690 
Q 3069 4631 3425 4513 
z
" transform="scale(0.015625)"/>
      <path id="DejaVuSans-72" d="M 2631 2963 
Q 2534 3019 2420 3045 
Q 2306 3072 2169 3072 
Q 1681 3072 1420 2755 
Q 1159 2438 1159 1844 
L 1159 0 
L 581 0 
L 581 3500 
L 1159 3500 
L 1159 2956 
Q 1341 3275 1631 3429 
Q 1922 3584 2338 3584 
Q 2397 3584 2469 3576 
Q 2541 3569 2628 3553 
L 2631 2963 
z
" transform="scale(0.015625)"/>
      <path id="DejaVuSans-66" d="M 2375 4863 
L 2375 4384 
L 1825 4384 
Q 1516 4384 1395 4259 
Q 1275 4134 1275 3809 
L 1275 3500 
L 2222 3500 
L 2222 3053 
L 1275 3053 
L 1275 0 
L 697 0 
L 697 3053 
L 147 3053 
L 147 3500 
L 697 3500 
L 697 3744 
Q 697 4328 969 4595 
Q 1241 4863 1831 4863 
L 2375 4863 
z
" transform="scale(0.015625)"/>
      <path id="DejaVuSans-45" d="M 628 4666 
L 3578 4666 
L 3578 4134 
L 1259 4134 
L 1259 2753 
L 3481 2753 
L 3481 2222 
L 1259 2222 
L 1259 531 
L 3634 531 
L 3634 0 
L 628 0 
L 628 4666 
z
" transform="scale(0.015625)"/>
      <path id="DejaVuSans-63" d="M 3122 3366 
L 3122 2828 
Q 2878 2963 2633 3030 
Q 2388 3097 2138 3097 
Q 1578 3097 1268 2742 
Q 959 2388 959 1747 
Q 959 1106 1268 751 
Q 1578 397 2138 397 
Q 2388 397 2633 464 
Q 2878 531 3122 666 
L 3122 134 
Q 2881 22 2623 -34 
Q 2366 -91 2075 -91 
Q 1284 -91 818 406 
Q 353 903 353 1747 
Q 353 2603 823 3093 
Q 1294 3584 2113 3584 
Q 2378 3584 2631 3529 
Q 2884 3475 3122 3366 
z
" transform="scale(0.015625)"/>
      <path id="DejaVuSans-68" d="M 3513 2113 
L 3513 0 
L 2938 0 
L 2938 2094 
Q 2938 2591 2744 2837 
Q 2550 3084 2163 3084 
Q 1697 3084 1428 2787 
Q 1159 2491 1159 1978 
L 1159 0 
L 581 0 
L 581 4863 
L 1159 4863 
L 1159 2956 
Q 1366 3272 1645 3428 
Q 1925 3584 2291 3584 
Q 2894 3584 3203 3211 
Q 3513 2838 3513 2113 
z
" transform="scale(0.015625)"/>
      <path id="DejaVuSans-4b" d="M 628 4666 
L 1259 4666 
L 1259 2694 
L 3353 4666 
L 4166 4666 
L 1850 2491 
L 4331 0 
L 3500 0 
L 1259 2247 
L 1259 0 
L 628 0 
L 628 4666 
z
" transform="scale(0.015625)"/>
      <path id="DejaVuSans-79" d="M 2059 -325 
Q 1816 -950 1584 -1140 
Q 1353 -1331 966 -1331 
L 506 -1331 
L 506 -850 
L 844 -850 
Q 1081 -850 1212 -737 
Q 1344 -625 1503 -206 
L 1606 56 
L 191 3500 
L 800 3500 
L 1894 763 
L 2988 3500 
L 3597 3500 
L 2059 -325 
z
" transform="scale(0.015625)"/>
      <path id="DejaVuSans-77" d="M 269 3500 
L 844 3500 
L 1563 769 
L 2278 3500 
L 2956 3500 
L 3675 769 
L 4391 3500 
L 4966 3500 
L 4050 0 
L 3372 0 
L 2619 2869 
L 1863 0 
L 1184 0 
L 269 3500 
z
" transform="scale(0.015625)"/>
     </defs>
     <use xlink:href="#DejaVuSans-54"/>
     <use xlink:href="#DejaVuSans-69" transform="translate(57.958984 0)"/>
     <use xlink:href="#DejaVuSans-6d" transform="translate(85.742188 0)"/>
     <use xlink:href="#DejaVuSans-65" transform="translate(183.154297 0)"/>
     <use xlink:href="#DejaVuSans-20" transform="translate(244.677734 0)"/>
     <use xlink:href="#DejaVuSans-53" transform="translate(276.464844 0)"/>
     <use xlink:href="#DejaVuSans-65" transform="translate(339.941406 0)"/>
     <use xlink:href="#DejaVuSans-72" transform="translate(401.464844 0)"/>
     <use xlink:href="#DejaVuSans-69" transform="translate(442.578125 0)"/>
     <use xlink:href="#DejaVuSans-65" transform="translate(470.361328 0)"/>
     <use xlink:href="#DejaVuSans-73" transform="translate(531.884766 0)"/>
     <use xlink:href="#DejaVuSans-20" transform="translate(583.984375 0)"/>
     <use xlink:href="#DejaVuSans-6f" transform="translate(615.771484 0)"/>
     <use xlink:href="#DejaVuSans-66" transform="translate(676.953125 0)"/>
     <use xlink:href="#DejaVuSans-20" transform="translate(712.158203 0)"/>
     <use xlink:href="#DejaVuSans-56" transform="translate(743.945312 0)"/>
     <use xlink:href="#DejaVuSans-6f" transform="translate(804.603516 0)"/>
     <use xlink:href="#DejaVuSans-74" transform="translate(865.785156 0)"/>
     <use xlink:href="#DejaVuSans-65" transform="translate(904.994141 0)"/>
     <use xlink:href="#DejaVuSans-73" transform="translate(966.517578 0)"/>
     <use xlink:href="#DejaVuSans-20" transform="translate(1018.617188 0)"/>
     <use xlink:href="#DejaVuSans-66" transform="translate(1050.404297 0)"/>
     <use xlink:href="#DejaVuSans-6f" transform="translate(1085.609375 0)"/>
     <use xlink:href="#DejaVuSans-72" transform="translate(1146.791016 0)"/>
     <use xlink:href="#DejaVuSans-20" transform="translate(1187.904297 0)"/>
     <use xlink:href="#DejaVuSans-45" transform="translate(1219.691406 0)"/>
     <use xlink:href="#DejaVuSans-61" transform="translate(1282.875 0)"/>
     <use xlink:href="#DejaVuSans-63" transform="translate(1344.154297 0)"/>
     <use xlink:href="#DejaVuSans-68" transform="translate(1399.134766 0)"/>
     <use xlink:href="#DejaVuSans-20" transform="translate(1462.513672 0)"/>
     <use xlink:href="#DejaVuSans-4b" transform="translate(1494.300781 0)"/>
     <use xlink:href="#DejaVuSans-65" transform="translate(1554.876953 0)"/>
     <use xlink:href="#DejaVuSans-79" transform="translate(1616.400391 0)"/>
     <use xlink:href="#DejaVuSans-77" transform="translate(1675.580078 0)"/>
     <use xlink:href="#DejaVuSans-6f" transform="translate(1757.367188 0)"/>
     <use xlink:href="#DejaVuSans-72" transform="translate(1818.548828 0)"/>
     <use xlink:href="#DejaVuSans-64" transform="translate(1857.912109 0)"/>
    </g>
   </g>
   <g id="legend_1">
    <g id="patch_7">
     <path d="M 97 235.9775 
L 149.245313 235.9775 
Q 151.245313 235.9775 151.245313 233.9775 
L 151.245313 58.84 
Q 151.245313 56.84 149.245313 56.84 
L 97 56.84 
Q 95 56.84 95 58.84 
L 95 233.9775 
Q 95 235.9775 97 235.9775 
z
" style="fill: #ffffff; opacity: 0.8; stroke: #cccccc; stroke-linejoin: miter"/>
    </g>
    <g id="line2d_39">
     <path d="M 99 64.938437 
L 109 64.938437 
L 119 64.938437 
" style="fill: none; stroke: #1f77b4; stroke-width: 1.5; stroke-linecap: square"/>
    </g>
    <g id="text_17">
     <!-- H01 -->
     <g transform="translate(127 68.438437) scale(0.1 -0.1)">
      <defs>
       <path id="DejaVuSans-48" d="M 628 4666 
L 1259 4666 
L 1259 2753 
L 3553 2753 
L 3553 4666 
L 4184 4666 
L 4184 0 
L 3553 0 
L 3553 2222 
L 1259 2222 
L 1259 0 
L 628 0 
L 628 4666 
z
" transform="scale(0.015625)"/>
      </defs>
      <use xlink:href="#DejaVuSans-48"/>
      <use xlink:href="#DejaVuSans-30" transform="translate(75.195312 0)"/>
      <use xlink:href="#DejaVuSans-31" transform="translate(138.818359 0)"/>
     </g>
    </g>
    <g id="line2d_40">
     <path d="M 99 79.616562 
L 109 79.616562 
L 119 79.616562 
" style="fill: none; stroke: #ff7f0e; stroke-width: 1.5; stroke-linecap: square"/>
    </g>
    <g id="text_18">
     <!-- H02 -->
     <g transform="translate(127 83.116562) scale(0.1 -0.1)">
      <use xlink:href="#DejaVuSans-48"/>
      <use xlink:href="#DejaVuSans-30" transform="translate(75.195312 0)"/>
      <use xlink:href="#DejaVuSans-32" transform="translate(138.818359 0)"/>
     </g>
    </g>
    <g id="line2d_41">
     <path d="M 99 94.294688 
L 109 94.294688 
L 119 94.294688 
" style="fill: none; stroke: #2ca02c; stroke-width: 1.5; stroke-linecap: square"/>
    </g>
    <g id="text_19">
     <!-- H03 -->
     <g transform="translate(127 97.794688) scale(0.1 -0.1)">
      <defs>
       <path id="DejaVuSans-33" d="M 2597 2516 
Q 3050 2419 3304 2112 
Q 3559 1806 3559 1356 
Q 3559 666 3084 287 
Q 2609 -91 1734 -91 
Q 1441 -91 1130 -33 
Q 819 25 488 141 
L 488 750 
Q 750 597 1062 519 
Q 1375 441 1716 441 
Q 2309 441 2620 675 
Q 2931 909 2931 1356 
Q 2931 1769 2642 2001 
Q 2353 2234 1838 2234 
L 1294 2234 
L 1294 2753 
L 1863 2753 
Q 2328 2753 2575 2939 
Q 2822 3125 2822 3475 
Q 2822 3834 2567 4026 
Q 2313 4219 1838 4219 
Q 1578 4219 1281 4162 
Q 984 4106 628 3988 
L 628 4550 
Q 988 4650 1302 4700 
Q 1616 4750 1894 4750 
Q 2613 4750 3031 4423 
Q 3450 4097 3450 3541 
Q 3450 3153 3228 2886 
Q 3006 2619 2597 2516 
z
" transform="scale(0.015625)"/>
      </defs>
      <use xlink:href="#DejaVuSans-48"/>
      <use xlink:href="#DejaVuSans-30" transform="translate(75.195312 0)"/>
      <use xlink:href="#DejaVuSans-33" transform="translate(138.818359 0)"/>
     </g>
    </g>
    <g id="line2d_42">
     <path d="M 99 108.972812 
L 109 108.972812 
L 119 108.972812 
" style="fill: none; stroke: #d62728; stroke-width: 1.5; stroke-linecap: square"/>
    </g>
    <g id="text_20">
     <!-- H04 -->
     <g transform="translate(127 112.472812) scale(0.1 -0.1)">
      <use xlink:href="#DejaVuSans-48"/>
      <use xlink:href="#DejaVuSans-30" transform="translate(75.195312 0)"/>
      <use xlink:href="#DejaVuSans-34" transform="translate(138.818359 0)"/>
     </g>
    </g>
    <g id="line2d_43">
     <path d="M 99 123.650937 
L 109 123.650937 
L 119 123.650937 
" style="fill: none; stroke: #9467bd; stroke-width: 1.5; stroke-linecap: square"/>
    </g>
    <g id="text_21">
     <!-- H05 -->
     <g transform="translate(127 127.150937) scale(0.1 -0.1)">
      <use xlink:href="#DejaVuSans-48"/>
      <use xlink:href="#DejaVuSans-30" transform="translate(75.195312 0)"/>
      <use xlink:href="#DejaVuSans-35" transform="translate(138.818359 0)"/>
     </g>
    </g>
    <g id="line2d_44">
     <path d="M 99 138.329062 
L 109 138.329062 
L 119 138.329062 
" style="fill: none; stroke: #8c564b; stroke-width: 1.5; stroke-linecap: square"/>
    </g>
    <g id="text_22">
     <!-- H06 -->
     <g transform="translate(127 141.829062) scale(0.1 -0.1)">
      <use xlink:href="#DejaVuSans-48"/>
      <use xlink:href="#DejaVuSans-30" transform="translate(75.195312 0)"/>
      <use xlink:href="#DejaVuSans-36" transform="translate(138.818359 0)"/>
     </g>
    </g>
    <g id="line2d_45">
     <path d="M 99 153.007187 
L 109 153.007187 
L 119 153.007187 
" style="fill: none; stroke: #e377c2; stroke-width: 1.5; stroke-linecap: square"/>
    </g>
    <g id="text_23">
     <!-- H07 -->
     <g transform="translate(127 156.507187) scale(0.1 -0.1)">
      <use xlink:href="#DejaVuSans-48"/>
      <use xlink:href="#DejaVuSans-30" transform="translate(75.195312 0)"/>
      <use xlink:href="#DejaVuSans-37" transform="translate(138.818359 0)"/>
     </g>
    </g>
    <g id="line2d_46">
     <path d="M 99 167.685312 
L 109 167.685312 
L 119 167.685312 
" style="fill: none; stroke: #7f7f7f; stroke-width: 1.5; stroke-linecap: square"/>
    </g>
    <g id="text_24">
     <!-- H08 -->
     <g transform="translate(127 171.185312) scale(0.1 -0.1)">
      <use xlink:href="#DejaVuSans-48"/>
      <use xlink:href="#DejaVuSans-30" transform="translate(75.195312 0)"/>
      <use xlink:href="#DejaVuSans-38" transform="translate(138.818359 0)"/>
     </g>
    </g>
    <g id="line2d_47">
     <path d="M 99 182.363437 
L 109 182.363437 
L 119 182.363437 
" style="fill: none; stroke: #bcbd22; stroke-width: 1.5; stroke-linecap: square"/>
    </g>
    <g id="text_25">
     <!-- H09 -->
     <g transform="translate(127 185.863437) scale(0.1 -0.1)">
      <use xlink:href="#DejaVuSans-48"/>
      <use xlink:href="#DejaVuSans-30" transform="translate(75.195312 0)"/>
      <use xlink:href="#DejaVuSans-39" transform="translate(138.818359 0)"/>
     </g>
    </g>
    <g id="line2d_48">
     <path d="M 99 197.041562 
L 109 197.041562 
L 119 197.041562 
" style="fill: none; stroke: #17becf; stroke-width: 1.5; stroke-linecap: square"/>
    </g>
    <g id="text_26">
     <!-- H10 -->
     <g transform="translate(127 200.541562) scale(0.1 -0.1)">
      <use xlink:href="#DejaVuSans-48"/>
      <use xlink:href="#DejaVuSans-31" transform="translate(75.195312 0)"/>
      <use xlink:href="#DejaVuSans-30" transform="translate(138.818359 0)"/>
     </g>
    </g>
    <g id="line2d_49">
     <path d="M 99 211.719687 
L 109 211.719687 
L 119 211.719687 
" style="fill: none; stroke: #1f77b4; stroke-width: 1.5; stroke-linecap: square"/>
    </g>
    <g id="text_27">
     <!-- H11 -->
     <g transform="translate(127 215.219687) scale(0.1 -0.1)">
      <use xlink:href="#DejaVuSans-48"/>
      <use xlink:href="#DejaVuSans-31" transform="translate(75.195312 0)"/>
      <use xlink:href="#DejaVuSans-31" transform="translate(138.818359 0)"/>
     </g>
    </g>
    <g id="line2d_50">
     <path d="M 99 226.397812 
L 109 226.397812 
L 119 226.397812 
" style="fill: none; stroke: #ff7f0e; stroke-width: 1.5; stroke-linecap: square"/>
    </g>
    <g id="text_28">
     <!-- H12 -->
     <g transform="translate(127 229.897812) scale(0.1 -0.1)">
      <use xlink:href="#DejaVuSans-48"/>
      <use xlink:href="#DejaVuSans-31" transform="translate(75.195312 0)"/>
      <use xlink:href="#DejaVuSans-32" transform="translate(138.818359 0)"/>
     </g>
    </g>
   </g>
  </g>
 </g>
 <defs>
  <clipPath id="pfdc733b2e6">
   <rect x="90" y="51.84" width="558" height="332.64"/>
  </clipPath>
 </defs>
</svg>
