<?xml version="1.0" encoding="utf-8" standalone="no"?>
<!DOCTYPE svg PUBLIC "-//W3C//DTD SVG 1.1//EN"
  "http://www.w3.org/Graphics/SVG/1.1/DTD/svg11.dtd">
<svg xmlns:xlink="http://www.w3.org/1999/xlink" width="720pt" height="432pt" viewBox="0 0 720 432" xmlns="http://www.w3.org/2000/svg" version="1.1">
 <metadata>
  <rdf:RDF xmlns:dc="http://purl.org/dc/elements/1.1/" xmlns:cc="http://creativecommons.org/ns#" xmlns:rdf="http://www.w3.org/1999/02/22-rdf-syntax-ns#">
   <cc:Work>
    <dc:type rdf:resource="http://purl.org/dc/dcmitype/StillImage"/>
    <dc:date>2025-01-14T19:24:49.925986</dc:date>
    <dc:format>image/svg+xml</dc:format>
    <dc:creator>
     <cc:Agent>
      <dc:title>Matplotlib v3.10.0, https://matplotlib.org/</dc:title>
     </cc:Agent>
    </dc:creator>
   </cc:Work>
  </rdf:RDF>
 </metadata>
 <defs>
  <style type="text/css">*{stroke-linejoin: round; stroke-linecap: butt}</style>
 </defs>
 <g id="figure_1">
  <g id="patch_1">
   <path d="M 0 432 
L 720 432 
L 720 0 
L 0 0 
z
" style="fill: #ffffff"/>
  </g>
  <g id="axes_1">
   <g id="patch_2">
    <path d="M 90 384.48 
L 648 384.48 
L 648 51.84 
L 90 51.84 
z
" style="fill: #ffffff"/>
   </g>
   <g id="matplotlib.axis_1">
    <g id="xtick_1">
     <g id="line2d_1">
      <path d="M 154.384615 384.48 
L 154.384615 51.84 
" clip-path="url(#pb6948ac858)" style="fill: none; stroke: #b0b0b0; stroke-width: 0.8; stroke-linecap: square"/>
     </g>
     <g id="line2d_2">
      <defs>
       <path id="m80b07fc339" d="M 0 0 
L 0 3.5 
" style="stroke: #000000; stroke-width: 0.8"/>
      </defs>
      <g>
       <use xlink:href="#m80b07fc339" x="154.384615" y="384.48" style="stroke: #000000; stroke-width: 0.8"/>
      </g>
     </g>
     <g id="text_1">
      <!-- 01-14 14 -->
      <g transform="translate(131.904147 399.078438) scale(0.1 -0.1)">
       <defs>
        <path id="DejaVuSans-30" d="M 2034 4250 
Q 1547 4250 1301 3770 
Q 1056 3291 1056 2328 
Q 1056 1369 1301 889 
Q 1547 409 2034 409 
Q 2525 409 2770 889 
Q 3016 1369 3016 2328 
Q 3016 3291 2770 3770 
Q 2525 4250 2034 4250 
z
M 2034 4750 
Q 2819 4750 3233 4129 
Q 3647 3509 3647 2328 
Q 3647 1150 3233 529 
Q 2819 -91 2034 -91 
Q 1250 -91 836 529 
Q 422 1150 422 2328 
Q 422 3509 836 4129 
Q 1250 4750 2034 4750 
z
" transform="scale(0.015625)"/>
        <path id="DejaVuSans-31" d="M 794 531 
L 1825 531 
L 1825 4091 
L 703 3866 
L 703 4441 
L 1819 4666 
L 2450 4666 
L 2450 531 
L 3481 531 
L 3481 0 
L 794 0 
L 794 531 
z
" transform="scale(0.015625)"/>
        <path id="DejaVuSans-2d" d="M 313 2009 
L 1997 2009 
L 1997 1497 
L 313 1497 
L 313 2009 
z
" transform="scale(0.015625)"/>
        <path id="DejaVuSans-34" d="M 2419 4116 
L 825 1625 
L 2419 1625 
L 2419 4116 
z
M 2253 4666 
L 3047 4666 
L 3047 1625 
L 3713 1625 
L 3713 1100 
L 3047 1100 
L 3047 0 
L 2419 0 
L 2419 1100 
L 313 1100 
L 313 1709 
L 2253 4666 
z
" transform="scale(0.015625)"/>
        <path id="DejaVuSans-20" transform="scale(0.015625)"/>
       </defs>
       <use xlink:href="#DejaVuSans-30"/>
       <use xlink:href="#DejaVuSans-31" transform="translate(63.623047 0)"/>
       <use xlink:href="#DejaVuSans-2d" transform="translate(127.246094 0)"/>
       <use xlink:href="#DejaVuSans-31" transform="translate(163.330078 0)"/>
       <use xlink:href="#DejaVuSans-34" transform="translate(226.953125 0)"/>
       <use xlink:href="#DejaVuSans-20" transform="translate(290.576172 0)"/>
       <use xlink:href="#DejaVuSans-31" transform="translate(322.363281 0)"/>
       <use xlink:href="#DejaVuSans-34" transform="translate(385.986328 0)"/>
      </g>
     </g>
    </g>
    <g id="xtick_2">
     <g id="line2d_3">
      <path d="M 241.097902 384.48 
L 241.097902 51.84 
" clip-path="url(#pb6948ac858)" style="fill: none; stroke: #b0b0b0; stroke-width: 0.8; stroke-linecap: square"/>
     </g>
     <g id="line2d_4">
      <g>
       <use xlink:href="#m80b07fc339" x="241.097902" y="384.48" style="stroke: #000000; stroke-width: 0.8"/>
      </g>
     </g>
     <g id="text_2">
      <!-- 01-14 15 -->
      <g transform="translate(218.617433 399.078438) scale(0.1 -0.1)">
       <defs>
        <path id="DejaVuSans-35" d="M 691 4666 
L 3169 4666 
L 3169 4134 
L 1269 4134 
L 1269 2991 
Q 1406 3038 1543 3061 
Q 1681 3084 1819 3084 
Q 2600 3084 3056 2656 
Q 3513 2228 3513 1497 
Q 3513 744 3044 326 
Q 2575 -91 1722 -91 
Q 1428 -91 1123 -41 
Q 819 9 494 109 
L 494 744 
Q 775 591 1075 516 
Q 1375 441 1709 441 
Q 2250 441 2565 725 
Q 2881 1009 2881 1497 
Q 2881 1984 2565 2268 
Q 2250 2553 1709 2553 
Q 1456 2553 1204 2497 
Q 953 2441 691 2322 
L 691 4666 
z
" transform="scale(0.015625)"/>
       </defs>
       <use xlink:href="#DejaVuSans-30"/>
       <use xlink:href="#DejaVuSans-31" transform="translate(63.623047 0)"/>
       <use xlink:href="#DejaVuSans-2d" transform="translate(127.246094 0)"/>
       <use xlink:href="#DejaVuSans-31" transform="translate(163.330078 0)"/>
       <use xlink:href="#DejaVuSans-34" transform="translate(226.953125 0)"/>
       <use xlink:href="#DejaVuSans-20" transform="translate(290.576172 0)"/>
       <use xlink:href="#DejaVuSans-31" transform="translate(322.363281 0)"/>
       <use xlink:href="#DejaVuSans-35" transform="translate(385.986328 0)"/>
      </g>
     </g>
    </g>
    <g id="xtick_3">
     <g id="line2d_5">
      <path d="M 327.811189 384.48 
L 327.811189 51.84 
" clip-path="url(#pb6948ac858)" style="fill: none; stroke: #b0b0b0; stroke-width: 0.8; stroke-linecap: square"/>
     </g>
     <g id="line2d_6">
      <g>
       <use xlink:href="#m80b07fc339" x="327.811189" y="384.48" style="stroke: #000000; stroke-width: 0.8"/>
      </g>
     </g>
     <g id="text_3">
      <!-- 01-14 16 -->
      <g transform="translate(305.33072 399.078438) scale(0.1 -0.1)">
       <defs>
        <path id="DejaVuSans-36" d="M 2113 2584 
Q 1688 2584 1439 2293 
Q 1191 2003 1191 1497 
Q 1191 994 1439 701 
Q 1688 409 2113 409 
Q 2538 409 2786 701 
Q 3034 994 3034 1497 
Q 3034 2003 2786 2293 
Q 2538 2584 2113 2584 
z
M 3366 4563 
L 3366 3988 
Q 3128 4100 2886 4159 
Q 2644 4219 2406 4219 
Q 1781 4219 1451 3797 
Q 1122 3375 1075 2522 
Q 1259 2794 1537 2939 
Q 1816 3084 2150 3084 
Q 2853 3084 3261 2657 
Q 3669 2231 3669 1497 
Q 3669 778 3244 343 
Q 2819 -91 2113 -91 
Q 1303 -91 875 529 
Q 447 1150 447 2328 
Q 447 3434 972 4092 
Q 1497 4750 2381 4750 
Q 2619 4750 2861 4703 
Q 3103 4656 3366 4563 
z
" transform="scale(0.015625)"/>
       </defs>
       <use xlink:href="#DejaVuSans-30"/>
       <use xlink:href="#DejaVuSans-31" transform="translate(63.623047 0)"/>
       <use xlink:href="#DejaVuSans-2d" transform="translate(127.246094 0)"/>
       <use xlink:href="#DejaVuSans-31" transform="translate(163.330078 0)"/>
       <use xlink:href="#DejaVuSans-34" transform="translate(226.953125 0)"/>
       <use xlink:href="#DejaVuSans-20" transform="translate(290.576172 0)"/>
       <use xlink:href="#DejaVuSans-31" transform="translate(322.363281 0)"/>
       <use xlink:href="#DejaVuSans-36" transform="translate(385.986328 0)"/>
      </g>
     </g>
    </g>
    <g id="xtick_4">
     <g id="line2d_7">
      <path d="M 414.524476 384.48 
L 414.524476 51.84 
" clip-path="url(#pb6948ac858)" style="fill: none; stroke: #b0b0b0; stroke-width: 0.8; stroke-linecap: square"/>
     </g>
     <g id="line2d_8">
      <g>
       <use xlink:href="#m80b07fc339" x="414.524476" y="384.48" style="stroke: #000000; stroke-width: 0.8"/>
      </g>
     </g>
     <g id="text_4">
      <!-- 01-14 17 -->
      <g transform="translate(392.044007 399.078438) scale(0.1 -0.1)">
       <defs>
        <path id="DejaVuSans-37" d="M 525 4666 
L 3525 4666 
L 3525 4397 
L 1831 0 
L 1172 0 
L 2766 4134 
L 525 4134 
L 525 4666 
z
" transform="scale(0.015625)"/>
       </defs>
       <use xlink:href="#DejaVuSans-30"/>
       <use xlink:href="#DejaVuSans-31" transform="translate(63.623047 0)"/>
       <use xlink:href="#DejaVuSans-2d" transform="translate(127.246094 0)"/>
       <use xlink:href="#DejaVuSans-31" transform="translate(163.330078 0)"/>
       <use xlink:href="#DejaVuSans-34" transform="translate(226.953125 0)"/>
       <use xlink:href="#DejaVuSans-20" transform="translate(290.576172 0)"/>
       <use xlink:href="#DejaVuSans-31" transform="translate(322.363281 0)"/>
       <use xlink:href="#DejaVuSans-37" transform="translate(385.986328 0)"/>
      </g>
     </g>
    </g>
    <g id="xtick_5">
     <g id="line2d_9">
      <path d="M 501.237762 384.48 
L 501.237762 51.84 
" clip-path="url(#pb6948ac858)" style="fill: none; stroke: #b0b0b0; stroke-width: 0.8; stroke-linecap: square"/>
     </g>
     <g id="line2d_10">
      <g>
       <use xlink:href="#m80b07fc339" x="501.237762" y="384.48" style="stroke: #000000; stroke-width: 0.8"/>
      </g>
     </g>
     <g id="text_5">
      <!-- 01-14 18 -->
      <g transform="translate(478.757293 399.078438) scale(0.1 -0.1)">
       <defs>
        <path id="DejaVuSans-38" d="M 2034 2216 
Q 1584 2216 1326 1975 
Q 1069 1734 1069 1313 
Q 1069 891 1326 650 
Q 1584 409 2034 409 
Q 2484 409 2743 651 
Q 3003 894 3003 1313 
Q 3003 1734 2745 1975 
Q 2488 2216 2034 2216 
z
M 1403 2484 
Q 997 2584 770 2862 
Q 544 3141 544 3541 
Q 544 4100 942 4425 
Q 1341 4750 2034 4750 
Q 2731 4750 3128 4425 
Q 3525 4100 3525 3541 
Q 3525 3141 3298 2862 
Q 3072 2584 2669 2484 
Q 3125 2378 3379 2068 
Q 3634 1759 3634 1313 
Q 3634 634 3220 271 
Q 2806 -91 2034 -91 
Q 1263 -91 848 271 
Q 434 634 434 1313 
Q 434 1759 690 2068 
Q 947 2378 1403 2484 
z
M 1172 3481 
Q 1172 3119 1398 2916 
Q 1625 2713 2034 2713 
Q 2441 2713 2670 2916 
Q 2900 3119 2900 3481 
Q 2900 3844 2670 4047 
Q 2441 4250 2034 4250 
Q 1625 4250 1398 4047 
Q 1172 3844 1172 3481 
z
" transform="scale(0.015625)"/>
       </defs>
       <use xlink:href="#DejaVuSans-30"/>
       <use xlink:href="#DejaVuSans-31" transform="translate(63.623047 0)"/>
       <use xlink:href="#DejaVuSans-2d" transform="translate(127.246094 0)"/>
       <use xlink:href="#DejaVuSans-31" transform="translate(163.330078 0)"/>
       <use xlink:href="#DejaVuSans-34" transform="translate(226.953125 0)"/>
       <use xlink:href="#DejaVuSans-20" transform="translate(290.576172 0)"/>
       <use xlink:href="#DejaVuSans-31" transform="translate(322.363281 0)"/>
       <use xlink:href="#DejaVuSans-38" transform="translate(385.986328 0)"/>
      </g>
     </g>
    </g>
    <g id="xtick_6">
     <g id="line2d_11">
      <path d="M 587.951049 384.48 
L 587.951049 51.84 
" clip-path="url(#pb6948ac858)" style="fill: none; stroke: #b0b0b0; stroke-width: 0.8; stroke-linecap: square"/>
     </g>
     <g id="line2d_12">
      <g>
       <use xlink:href="#m80b07fc339" x="587.951049" y="384.48" style="stroke: #000000; stroke-width: 0.8"/>
      </g>
     </g>
     <g id="text_6">
      <!-- 01-14 19 -->
      <g transform="translate(565.47058 399.078438) scale(0.1 -0.1)">
       <defs>
        <path id="DejaVuSans-39" d="M 703 97 
L 703 672 
Q 941 559 1184 500 
Q 1428 441 1663 441 
Q 2288 441 2617 861 
Q 2947 1281 2994 2138 
Q 2813 1869 2534 1725 
Q 2256 1581 1919 1581 
Q 1219 1581 811 2004 
Q 403 2428 403 3163 
Q 403 3881 828 4315 
Q 1253 4750 1959 4750 
Q 2769 4750 3195 4129 
Q 3622 3509 3622 2328 
Q 3622 1225 3098 567 
Q 2575 -91 1691 -91 
Q 1453 -91 1209 -44 
Q 966 3 703 97 
z
M 1959 2075 
Q 2384 2075 2632 2365 
Q 2881 2656 2881 3163 
Q 2881 3666 2632 3958 
Q 2384 4250 1959 4250 
Q 1534 4250 1286 3958 
Q 1038 3666 1038 3163 
Q 1038 2656 1286 2365 
Q 1534 2075 1959 2075 
z
" transform="scale(0.015625)"/>
       </defs>
       <use xlink:href="#DejaVuSans-30"/>
       <use xlink:href="#DejaVuSans-31" transform="translate(63.623047 0)"/>
       <use xlink:href="#DejaVuSans-2d" transform="translate(127.246094 0)"/>
       <use xlink:href="#DejaVuSans-31" transform="translate(163.330078 0)"/>
       <use xlink:href="#DejaVuSans-34" transform="translate(226.953125 0)"/>
       <use xlink:href="#DejaVuSans-20" transform="translate(290.576172 0)"/>
       <use xlink:href="#DejaVuSans-31" transform="translate(322.363281 0)"/>
       <use xlink:href="#DejaVuSans-39" transform="translate(385.986328 0)"/>
      </g>
     </g>
    </g>
    <g id="text_7">
     <!-- Date and Time -->
     <g transform="translate(332.230469 412.756563) scale(0.1 -0.1)">
      <defs>
       <path id="DejaVuSans-44" d="M 1259 4147 
L 1259 519 
L 2022 519 
Q 2988 519 3436 956 
Q 3884 1394 3884 2338 
Q 3884 3275 3436 3711 
Q 2988 4147 2022 4147 
L 1259 4147 
z
M 628 4666 
L 1925 4666 
Q 3281 4666 3915 4102 
Q 4550 3538 4550 2338 
Q 4550 1131 3912 565 
Q 3275 0 1925 0 
L 628 0 
L 628 4666 
z
" transform="scale(0.015625)"/>
       <path id="DejaVuSans-61" d="M 2194 1759 
Q 1497 1759 1228 1600 
Q 959 1441 959 1056 
Q 959 750 1161 570 
Q 1363 391 1709 391 
Q 2188 391 2477 730 
Q 2766 1069 2766 1631 
L 2766 1759 
L 2194 1759 
z
M 3341 1997 
L 3341 0 
L 2766 0 
L 2766 531 
Q 2569 213 2275 61 
Q 1981 -91 1556 -91 
Q 1019 -91 701 211 
Q 384 513 384 1019 
Q 384 1609 779 1909 
Q 1175 2209 1959 2209 
L 2766 2209 
L 2766 2266 
Q 2766 2663 2505 2880 
Q 2244 3097 1772 3097 
Q 1472 3097 1187 3025 
Q 903 2953 641 2809 
L 641 3341 
Q 956 3463 1253 3523 
Q 1550 3584 1831 3584 
Q 2591 3584 2966 3190 
Q 3341 2797 3341 1997 
z
" transform="scale(0.015625)"/>
       <path id="DejaVuSans-74" d="M 1172 4494 
L 1172 3500 
L 2356 3500 
L 2356 3053 
L 1172 3053 
L 1172 1153 
Q 1172 725 1289 603 
Q 1406 481 1766 481 
L 2356 481 
L 2356 0 
L 1766 0 
Q 1100 0 847 248 
Q 594 497 594 1153 
L 594 3053 
L 172 3053 
L 172 3500 
L 594 3500 
L 594 4494 
L 1172 4494 
z
" transform="scale(0.015625)"/>
       <path id="DejaVuSans-65" d="M 3597 1894 
L 3597 1613 
L 953 1613 
Q 991 1019 1311 708 
Q 1631 397 2203 397 
Q 2534 397 2845 478 
Q 3156 559 3463 722 
L 3463 178 
Q 3153 47 2828 -22 
Q 2503 -91 2169 -91 
Q 1331 -91 842 396 
Q 353 884 353 1716 
Q 353 2575 817 3079 
Q 1281 3584 2069 3584 
Q 2775 3584 3186 3129 
Q 3597 2675 3597 1894 
z
M 3022 2063 
Q 3016 2534 2758 2815 
Q 2500 3097 2075 3097 
Q 1594 3097 1305 2825 
Q 1016 2553 972 2059 
L 3022 2063 
z
" transform="scale(0.015625)"/>
       <path id="DejaVuSans-6e" d="M 3513 2113 
L 3513 0 
L 2938 0 
L 2938 2094 
Q 2938 2591 2744 2837 
Q 2550 3084 2163 3084 
Q 1697 3084 1428 2787 
Q 1159 2491 1159 1978 
L 1159 0 
L 581 0 
L 581 3500 
L 1159 3500 
L 1159 2956 
Q 1366 3272 1645 3428 
Q 1925 3584 2291 3584 
Q 2894 3584 3203 3211 
Q 3513 2838 3513 2113 
z
" transform="scale(0.015625)"/>
       <path id="DejaVuSans-64" d="M 2906 2969 
L 2906 4863 
L 3481 4863 
L 3481 0 
L 2906 0 
L 2906 525 
Q 2725 213 2448 61 
Q 2172 -91 1784 -91 
Q 1150 -91 751 415 
Q 353 922 353 1747 
Q 353 2572 751 3078 
Q 1150 3584 1784 3584 
Q 2172 3584 2448 3432 
Q 2725 3281 2906 2969 
z
M 947 1747 
Q 947 1113 1208 752 
Q 1469 391 1925 391 
Q 2381 391 2643 752 
Q 2906 1113 2906 1747 
Q 2906 2381 2643 2742 
Q 2381 3103 1925 3103 
Q 1469 3103 1208 2742 
Q 947 2381 947 1747 
z
" transform="scale(0.015625)"/>
       <path id="DejaVuSans-54" d="M -19 4666 
L 3928 4666 
L 3928 4134 
L 2272 4134 
L 2272 0 
L 1638 0 
L 1638 4134 
L -19 4134 
L -19 4666 
z
" transform="scale(0.015625)"/>
       <path id="DejaVuSans-69" d="M 603 3500 
L 1178 3500 
L 1178 0 
L 603 0 
L 603 3500 
z
M 603 4863 
L 1178 4863 
L 1178 4134 
L 603 4134 
L 603 4863 
z
" transform="scale(0.015625)"/>
       <path id="DejaVuSans-6d" d="M 3328 2828 
Q 3544 3216 3844 3400 
Q 4144 3584 4550 3584 
Q 5097 3584 5394 3201 
Q 5691 2819 5691 2113 
L 5691 0 
L 5113 0 
L 5113 2094 
Q 5113 2597 4934 2840 
Q 4756 3084 4391 3084 
Q 3944 3084 3684 2787 
Q 3425 2491 3425 1978 
L 3425 0 
L 2847 0 
L 2847 2094 
Q 2847 2600 2669 2842 
Q 2491 3084 2119 3084 
Q 1678 3084 1418 2786 
Q 1159 2488 1159 1978 
L 1159 0 
L 581 0 
L 581 3500 
L 1159 3500 
L 1159 2956 
Q 1356 3278 1631 3431 
Q 1906 3584 2284 3584 
Q 2666 3584 2933 3390 
Q 3200 3197 3328 2828 
z
" transform="scale(0.015625)"/>
      </defs>
      <use xlink:href="#DejaVuSans-44"/>
      <use xlink:href="#DejaVuSans-61" transform="translate(77.001953 0)"/>
      <use xlink:href="#DejaVuSans-74" transform="translate(138.28125 0)"/>
      <use xlink:href="#DejaVuSans-65" transform="translate(177.490234 0)"/>
      <use xlink:href="#DejaVuSans-20" transform="translate(239.013672 0)"/>
      <use xlink:href="#DejaVuSans-61" transform="translate(270.800781 0)"/>
      <use xlink:href="#DejaVuSans-6e" transform="translate(332.080078 0)"/>
      <use xlink:href="#DejaVuSans-64" transform="translate(395.458984 0)"/>
      <use xlink:href="#DejaVuSans-20" transform="translate(458.935547 0)"/>
      <use xlink:href="#DejaVuSans-54" transform="translate(490.722656 0)"/>
      <use xlink:href="#DejaVuSans-69" transform="translate(548.681641 0)"/>
      <use xlink:href="#DejaVuSans-6d" transform="translate(576.464844 0)"/>
      <use xlink:href="#DejaVuSans-65" transform="translate(673.876953 0)"/>
     </g>
    </g>
   </g>
   <g id="matplotlib.axis_2">
    <g id="ytick_1">
     <g id="line2d_13">
      <path d="M 90 370.545882 
L 648 370.545882 
" clip-path="url(#pb6948ac858)" style="fill: none; stroke: #b0b0b0; stroke-width: 0.8; stroke-linecap: square"/>
     </g>
     <g id="line2d_14">
      <defs>
       <path id="m6c526cf74a" d="M 0 0 
L -3.5 0 
" style="stroke: #000000; stroke-width: 0.8"/>
      </defs>
      <g>
       <use xlink:href="#m6c526cf74a" x="90" y="370.545882" style="stroke: #000000; stroke-width: 0.8"/>
      </g>
     </g>
     <g id="text_8">
      <!-- 0 -->
      <g transform="translate(76.6375 374.345101) scale(0.1 -0.1)">
       <use xlink:href="#DejaVuSans-30"/>
      </g>
     </g>
    </g>
    <g id="ytick_2">
     <g id="line2d_15">
      <path d="M 90 311.251765 
L 648 311.251765 
" clip-path="url(#pb6948ac858)" style="fill: none; stroke: #b0b0b0; stroke-width: 0.8; stroke-linecap: square"/>
     </g>
     <g id="line2d_16">
      <g>
       <use xlink:href="#m6c526cf74a" x="90" y="311.251765" style="stroke: #000000; stroke-width: 0.8"/>
      </g>
     </g>
     <g id="text_9">
      <!-- 50 -->
      <g transform="translate(70.275 315.050983) scale(0.1 -0.1)">
       <use xlink:href="#DejaVuSans-35"/>
       <use xlink:href="#DejaVuSans-30" transform="translate(63.623047 0)"/>
      </g>
     </g>
    </g>
    <g id="ytick_3">
     <g id="line2d_17">
      <path d="M 90 251.957647 
L 648 251.957647 
" clip-path="url(#pb6948ac858)" style="fill: none; stroke: #b0b0b0; stroke-width: 0.8; stroke-linecap: square"/>
     </g>
     <g id="line2d_18">
      <g>
       <use xlink:href="#m6c526cf74a" x="90" y="251.957647" style="stroke: #000000; stroke-width: 0.8"/>
      </g>
     </g>
     <g id="text_10">
      <!-- 100 -->
      <g transform="translate(63.9125 255.756866) scale(0.1 -0.1)">
       <use xlink:href="#DejaVuSans-31"/>
       <use xlink:href="#DejaVuSans-30" transform="translate(63.623047 0)"/>
       <use xlink:href="#DejaVuSans-30" transform="translate(127.246094 0)"/>
      </g>
     </g>
    </g>
    <g id="ytick_4">
     <g id="line2d_19">
      <path d="M 90 192.663529 
L 648 192.663529 
" clip-path="url(#pb6948ac858)" style="fill: none; stroke: #b0b0b0; stroke-width: 0.8; stroke-linecap: square"/>
     </g>
     <g id="line2d_20">
      <g>
       <use xlink:href="#m6c526cf74a" x="90" y="192.663529" style="stroke: #000000; stroke-width: 0.8"/>
      </g>
     </g>
     <g id="text_11">
      <!-- 150 -->
      <g transform="translate(63.9125 196.462748) scale(0.1 -0.1)">
       <use xlink:href="#DejaVuSans-31"/>
       <use xlink:href="#DejaVuSans-35" transform="translate(63.623047 0)"/>
       <use xlink:href="#DejaVuSans-30" transform="translate(127.246094 0)"/>
      </g>
     </g>
    </g>
    <g id="ytick_5">
     <g id="line2d_21">
      <path d="M 90 133.369412 
L 648 133.369412 
" clip-path="url(#pb6948ac858)" style="fill: none; stroke: #b0b0b0; stroke-width: 0.8; stroke-linecap: square"/>
     </g>
     <g id="line2d_22">
      <g>
       <use xlink:href="#m6c526cf74a" x="90" y="133.369412" style="stroke: #000000; stroke-width: 0.8"/>
      </g>
     </g>
     <g id="text_12">
      <!-- 200 -->
      <g transform="translate(63.9125 137.168631) scale(0.1 -0.1)">
       <defs>
        <path id="DejaVuSans-32" d="M 1228 531 
L 3431 531 
L 3431 0 
L 469 0 
L 469 531 
Q 828 903 1448 1529 
Q 2069 2156 2228 2338 
Q 2531 2678 2651 2914 
Q 2772 3150 2772 3378 
Q 2772 3750 2511 3984 
Q 2250 4219 1831 4219 
Q 1534 4219 1204 4116 
Q 875 4013 500 3803 
L 500 4441 
Q 881 4594 1212 4672 
Q 1544 4750 1819 4750 
Q 2544 4750 2975 4387 
Q 3406 4025 3406 3419 
Q 3406 3131 3298 2873 
Q 3191 2616 2906 2266 
Q 2828 2175 2409 1742 
Q 1991 1309 1228 531 
z
" transform="scale(0.015625)"/>
       </defs>
       <use xlink:href="#DejaVuSans-32"/>
       <use xlink:href="#DejaVuSans-30" transform="translate(63.623047 0)"/>
       <use xlink:href="#DejaVuSans-30" transform="translate(127.246094 0)"/>
      </g>
     </g>
    </g>
    <g id="ytick_6">
     <g id="line2d_23">
      <path d="M 90 74.075294 
L 648 74.075294 
" clip-path="url(#pb6948ac858)" style="fill: none; stroke: #b0b0b0; stroke-width: 0.8; stroke-linecap: square"/>
     </g>
     <g id="line2d_24">
      <g>
       <use xlink:href="#m6c526cf74a" x="90" y="74.075294" style="stroke: #000000; stroke-width: 0.8"/>
      </g>
     </g>
     <g id="text_13">
      <!-- 250 -->
      <g transform="translate(63.9125 77.874513) scale(0.1 -0.1)">
       <use xlink:href="#DejaVuSans-32"/>
       <use xlink:href="#DejaVuSans-35" transform="translate(63.623047 0)"/>
       <use xlink:href="#DejaVuSans-30" transform="translate(127.246094 0)"/>
      </g>
     </g>
    </g>
    <g id="text_14">
     <!-- Votes -->
     <g transform="translate(57.832812 231.893594) rotate(-90) scale(0.1 -0.1)">
      <defs>
       <path id="DejaVuSans-56" d="M 1831 0 
L 50 4666 
L 709 4666 
L 2188 738 
L 3669 4666 
L 4325 4666 
L 2547 0 
L 1831 0 
z
" transform="scale(0.015625)"/>
       <path id="DejaVuSans-6f" d="M 1959 3097 
Q 1497 3097 1228 2736 
Q 959 2375 959 1747 
Q 959 1119 1226 758 
Q 1494 397 1959 397 
Q 2419 397 2687 759 
Q 2956 1122 2956 1747 
Q 2956 2369 2687 2733 
Q 2419 3097 1959 3097 
z
M 1959 3584 
Q 2709 3584 3137 3096 
Q 3566 2609 3566 1747 
Q 3566 888 3137 398 
Q 2709 -91 1959 -91 
Q 1206 -91 779 398 
Q 353 888 353 1747 
Q 353 2609 779 3096 
Q 1206 3584 1959 3584 
z
" transform="scale(0.015625)"/>
       <path id="DejaVuSans-73" d="M 2834 3397 
L 2834 2853 
Q 2591 2978 2328 3040 
Q 2066 3103 1784 3103 
Q 1356 3103 1142 2972 
Q 928 2841 928 2578 
Q 928 2378 1081 2264 
Q 1234 2150 1697 2047 
L 1894 2003 
Q 2506 1872 2764 1633 
Q 3022 1394 3022 966 
Q 3022 478 2636 193 
Q 2250 -91 1575 -91 
Q 1294 -91 989 -36 
Q 684 19 347 128 
L 347 722 
Q 666 556 975 473 
Q 1284 391 1588 391 
Q 1994 391 2212 530 
Q 2431 669 2431 922 
Q 2431 1156 2273 1281 
Q 2116 1406 1581 1522 
L 1381 1569 
Q 847 1681 609 1914 
Q 372 2147 372 2553 
Q 372 3047 722 3315 
Q 1072 3584 1716 3584 
Q 2034 3584 2315 3537 
Q 2597 3491 2834 3397 
z
" transform="scale(0.015625)"/>
      </defs>
      <use xlink:href="#DejaVuSans-56"/>
      <use xlink:href="#DejaVuSans-6f" transform="translate(60.658203 0)"/>
      <use xlink:href="#DejaVuSans-74" transform="translate(121.839844 0)"/>
      <use xlink:href="#DejaVuSans-65" transform="translate(161.048828 0)"/>
      <use xlink:href="#DejaVuSans-73" transform="translate(222.572266 0)"/>
     </g>
    </g>
   </g>
   <g id="line2d_25">
    <path d="M 115.363636 349.2 
L 129.815851 349.2 
L 131.261072 348.014118 
L 145.713287 348.014118 
L 147.158508 345.642353 
L 160.165501 345.642353 
L 161.610723 344.456471 
L 168.83683 344.456471 
L 170.282051 343.270588 
L 176.062937 343.270588 
L 177.508158 342.084706 
L 181.843823 342.084706 
L 183.289044 340.898824 
L 203.522145 340.898824 
L 204.967366 339.712941 
L 220.864802 339.712941 
L 223.755245 337.341176 
L 226.645688 337.341176 
L 228.090909 336.155294 
L 241.097902 336.155294 
L 243.988345 333.783529 
L 261.331002 333.783529 
L 262.776224 332.597647 
L 267.111888 332.597647 
L 268.55711 331.411765 
L 270.002331 331.411765 
L 271.447552 330.225882 
L 310.468531 330.225882 
L 311.913753 329.04 
L 329.25641 329.04 
L 330.701632 327.854118 
L 340.818182 327.854118 
L 342.263403 326.668235 
L 343.708625 324.296471 
L 345.153846 324.296471 
L 348.044289 321.924706 
L 371.167832 321.924706 
L 372.613054 320.738824 
L 381.284382 320.738824 
L 382.729604 319.552941 
L 388.51049 319.552941 
L 389.955711 318.367059 
L 404.407925 318.367059 
L 405.853147 317.181176 
L 408.74359 317.181176 
L 410.188811 315.995294 
L 414.524476 315.995294 
L 415.969697 314.809412 
L 427.531469 314.809412 
L 428.97669 313.623529 
L 430.421911 313.623529 
L 431.867133 312.437647 
L 446.319347 312.437647 
L 447.764569 311.251765 
L 457.881119 311.251765 
L 459.32634 310.065882 
L 460.771562 310.065882 
L 463.662005 307.694118 
L 495.456876 307.694118 
L 496.902098 306.508235 
L 520.025641 306.508235 
L 521.470862 305.322353 
L 522.916084 305.322353 
L 524.361305 304.136471 
L 537.368298 304.136471 
L 538.81352 302.950588 
L 540.258741 302.950588 
L 541.703963 301.764706 
L 548.93007 301.764706 
L 550.375291 300.578824 
L 554.710956 300.578824 
L 557.601399 298.207059 
L 559.04662 298.207059 
L 560.491841 297.021176 
L 563.382284 297.021176 
L 564.827506 295.835294 
L 567.717949 295.835294 
L 569.16317 294.649412 
L 572.053613 294.649412 
L 573.498834 293.463529 
L 608.184149 293.463529 
L 609.629371 292.277647 
L 622.636364 292.277647 
L 622.636364 292.277647 
" clip-path="url(#pb6948ac858)" style="fill: none; stroke: #1f77b4; stroke-width: 1.5; stroke-linecap: square"/>
   </g>
   <g id="line2d_26">
    <path d="M 115.363636 273.303529 
L 116.808858 272.117647 
L 121.144522 272.117647 
L 122.589744 270.931765 
L 124.034965 270.931765 
L 125.480186 269.745882 
L 126.925408 269.745882 
L 129.815851 267.374118 
L 131.261072 265.002353 
L 132.706294 265.002353 
L 135.596737 262.630588 
L 137.041958 262.630588 
L 138.487179 257.887059 
L 139.932401 255.515294 
L 141.377622 250.771765 
L 142.822844 247.214118 
L 147.158508 247.214118 
L 148.60373 243.656471 
L 150.048951 241.284706 
L 152.939394 238.912941 
L 154.384615 236.541176 
L 157.275058 234.169412 
L 158.72028 231.797647 
L 163.055944 231.797647 
L 164.501165 225.868235 
L 165.946387 223.496471 
L 167.391608 222.310588 
L 168.83683 219.938824 
L 170.282051 218.752941 
L 171.727273 218.752941 
L 173.172494 215.195294 
L 174.617716 215.195294 
L 176.062937 212.823529 
L 177.508158 211.637647 
L 178.95338 211.637647 
L 180.398601 210.451765 
L 183.289044 210.451765 
L 184.734266 209.265882 
L 187.624709 209.265882 
L 189.06993 206.894118 
L 190.515152 206.894118 
L 191.960373 205.708235 
L 197.741259 205.708235 
L 199.18648 204.522353 
L 203.522145 204.522353 
L 204.967366 203.336471 
L 206.412587 203.336471 
L 207.857809 200.964706 
L 209.30303 200.964706 
L 210.748252 198.592941 
L 212.193473 197.407059 
L 216.529138 197.407059 
L 217.974359 195.035294 
L 219.41958 193.849412 
L 220.864802 190.291765 
L 223.755245 187.92 
L 235.317016 187.92 
L 236.762238 184.362353 
L 238.207459 184.362353 
L 241.097902 181.990588 
L 242.543124 181.990588 
L 246.878788 178.432941 
L 249.769231 178.432941 
L 251.214452 177.247059 
L 254.104895 177.247059 
L 258.440559 173.689412 
L 261.331002 173.689412 
L 262.776224 172.503529 
L 270.002331 172.503529 
L 271.447552 171.317647 
L 274.337995 171.317647 
L 275.783217 170.131765 
L 293.125874 170.131765 
L 294.571096 167.76 
L 297.461538 167.76 
L 300.351981 165.388235 
L 301.797203 165.388235 
L 303.242424 164.202353 
L 311.913753 164.202353 
L 316.249417 160.644706 
L 317.694639 160.644706 
L 319.13986 159.458824 
L 320.585082 157.087059 
L 322.030303 157.087059 
L 323.475524 155.901176 
L 324.920746 155.901176 
L 330.701632 151.157647 
L 333.592075 151.157647 
L 335.037296 148.785882 
L 339.37296 148.785882 
L 340.818182 147.6 
L 345.153846 147.6 
L 346.599068 146.414118 
L 348.044289 146.414118 
L 349.48951 142.856471 
L 353.825175 142.856471 
L 355.270396 141.670588 
L 356.715618 139.298824 
L 359.606061 139.298824 
L 361.051282 138.112941 
L 363.941725 138.112941 
L 365.386946 136.927059 
L 366.832168 136.927059 
L 374.058275 130.997647 
L 376.948718 130.997647 
L 381.284382 127.44 
L 385.620047 127.44 
L 387.065268 125.068235 
L 388.51049 125.068235 
L 389.955711 123.882353 
L 394.291375 123.882353 
L 395.736597 122.696471 
L 408.74359 122.696471 
L 410.188811 121.510588 
L 420.305361 121.510588 
L 421.750583 120.324706 
L 424.641026 120.324706 
L 427.531469 117.952941 
L 434.757576 117.952941 
L 436.202797 116.767059 
L 443.428904 116.767059 
L 447.764569 113.209412 
L 466.552448 113.209412 
L 467.997669 110.837647 
L 469.44289 109.651765 
L 504.128205 109.651765 
L 505.573427 108.465882 
L 514.244755 108.465882 
L 517.135198 106.094118 
L 520.025641 106.094118 
L 521.470862 104.908235 
L 522.916084 104.908235 
L 525.806527 102.536471 
L 527.251748 102.536471 
L 528.69697 101.350588 
L 530.142191 101.350588 
L 533.032634 96.607059 
L 534.477855 95.421176 
L 541.703963 95.421176 
L 543.149184 91.863529 
L 544.594406 89.491765 
L 547.484848 89.491765 
L 550.375291 87.12 
L 557.601399 87.12 
L 560.491841 84.748235 
L 563.382284 84.748235 
L 564.827506 83.562353 
L 567.717949 83.562353 
L 569.16317 82.376471 
L 570.608392 82.376471 
L 572.053613 81.190588 
L 573.498834 81.190588 
L 574.944056 80.004706 
L 576.389277 80.004706 
L 577.834499 78.818824 
L 580.724942 78.818824 
L 582.170163 76.447059 
L 589.39627 76.447059 
L 592.286713 74.075294 
L 606.738928 74.075294 
L 608.184149 72.889412 
L 609.629371 72.889412 
L 611.074592 71.703529 
L 612.519814 71.703529 
L 616.855478 68.145882 
L 619.745921 68.145882 
L 621.191142 66.96 
L 622.636364 66.96 
L 622.636364 66.96 
" clip-path="url(#pb6948ac858)" style="fill: none; stroke: #ff7f0e; stroke-width: 1.5; stroke-linecap: square"/>
   </g>
   <g id="line2d_27">
    <path d="M 115.363636 333.783529 
L 121.144522 333.783529 
L 122.589744 331.411765 
L 125.480186 331.411765 
L 126.925408 330.225882 
L 128.370629 327.854118 
L 129.815851 326.668235 
L 131.261072 323.110588 
L 132.706294 320.738824 
L 134.151515 319.552941 
L 135.596737 319.552941 
L 137.041958 317.181176 
L 138.487179 313.623529 
L 144.268065 313.623529 
L 145.713287 312.437647 
L 147.158508 312.437647 
L 148.60373 310.065882 
L 152.939394 310.065882 
L 155.829837 307.694118 
L 161.610723 307.694118 
L 163.055944 306.508235 
L 168.83683 306.508235 
L 173.172494 302.950588 
L 180.398601 302.950588 
L 181.843823 301.764706 
L 186.179487 301.764706 
L 187.624709 300.578824 
L 190.515152 300.578824 
L 191.960373 298.207059 
L 203.522145 298.207059 
L 204.967366 297.021176 
L 206.412587 294.649412 
L 207.857809 293.463529 
L 209.30303 293.463529 
L 210.748252 292.277647 
L 213.638695 292.277647 
L 215.083916 291.091765 
L 217.974359 291.091765 
L 219.41958 289.905882 
L 228.090909 289.905882 
L 229.536131 288.72 
L 230.981352 288.72 
L 232.426573 287.534118 
L 233.871795 287.534118 
L 235.317016 286.348235 
L 239.652681 286.348235 
L 241.097902 285.162353 
L 242.543124 282.790588 
L 249.769231 282.790588 
L 254.104895 279.232941 
L 258.440559 279.232941 
L 259.885781 278.047059 
L 265.666667 278.047059 
L 267.111888 276.861176 
L 268.55711 276.861176 
L 270.002331 275.675294 
L 272.892774 275.675294 
L 274.337995 274.489412 
L 278.67366 274.489412 
L 281.564103 272.117647 
L 283.009324 272.117647 
L 284.454545 270.931765 
L 296.016317 270.931765 
L 297.461538 268.56 
L 298.90676 267.374118 
L 310.468531 267.374118 
L 311.913753 266.188235 
L 316.249417 266.188235 
L 317.694639 265.002353 
L 322.030303 265.002353 
L 323.475524 263.816471 
L 337.927739 263.816471 
L 339.37296 262.630588 
L 345.153846 262.630588 
L 346.599068 261.444706 
L 355.270396 261.444706 
L 356.715618 260.258824 
L 359.606061 260.258824 
L 361.051282 259.072941 
L 366.832168 259.072941 
L 369.722611 256.701176 
L 397.181818 256.701176 
L 398.62704 255.515294 
L 400.072261 255.515294 
L 401.517483 254.329412 
L 405.853147 254.329412 
L 407.298368 253.143529 
L 414.524476 253.143529 
L 415.969697 251.957647 
L 418.86014 251.957647 
L 420.305361 250.771765 
L 428.97669 250.771765 
L 430.421911 251.957647 
L 431.867133 250.771765 
L 441.983683 250.771765 
L 443.428904 249.585882 
L 454.990676 249.585882 
L 456.435897 248.4 
L 459.32634 248.4 
L 460.771562 247.214118 
L 462.216783 247.214118 
L 463.662005 246.028235 
L 473.778555 246.028235 
L 475.223776 244.842353 
L 483.895105 244.842353 
L 485.340326 243.656471 
L 507.018648 243.656471 
L 508.463869 242.470588 
L 540.258741 242.470588 
L 541.703963 241.284706 
L 556.156177 241.284706 
L 557.601399 240.098824 
L 580.724942 240.098824 
L 583.615385 237.727059 
L 609.629371 237.727059 
L 611.074592 236.541176 
L 612.519814 234.169412 
L 622.636364 234.169412 
L 622.636364 234.169412 
" clip-path="url(#pb6948ac858)" style="fill: none; stroke: #2ca02c; stroke-width: 1.5; stroke-linecap: square"/>
   </g>
   <g id="line2d_28">
    <path d="M 115.363636 369.36 
L 472.333333 369.36 
L 473.778555 368.174118 
L 622.636364 368.174118 
L 622.636364 368.174118 
" clip-path="url(#pb6948ac858)" style="fill: none; stroke: #d62728; stroke-width: 1.5; stroke-linecap: square"/>
   </g>
   <g id="line2d_29">
    <path d="M 115.363636 343.270588 
L 119.699301 343.270588 
L 121.144522 342.084706 
L 129.815851 342.084706 
L 131.261072 340.898824 
L 139.932401 340.898824 
L 141.377622 339.712941 
L 173.172494 339.712941 
L 174.617716 338.527059 
L 226.645688 338.527059 
L 229.536131 336.155294 
L 241.097902 336.155294 
L 242.543124 334.969412 
L 248.324009 334.969412 
L 249.769231 333.783529 
L 252.659674 333.783529 
L 254.104895 332.597647 
L 291.680653 332.597647 
L 293.125874 331.411765 
L 352.379953 331.411765 
L 353.825175 330.225882 
L 541.703963 330.225882 
L 543.149184 329.04 
L 544.594406 329.04 
L 546.039627 327.854118 
L 622.636364 327.854118 
L 622.636364 327.854118 
" clip-path="url(#pb6948ac858)" style="fill: none; stroke: #9467bd; stroke-width: 1.5; stroke-linecap: square"/>
   </g>
   <g id="line2d_30">
    <path d="M 115.363636 352.757647 
L 116.808858 352.757647 
L 118.254079 351.571765 
L 138.487179 351.571765 
L 139.932401 350.385882 
L 157.275058 350.385882 
L 158.72028 349.2 
L 180.398601 349.2 
L 183.289044 346.828235 
L 199.18648 346.828235 
L 200.631702 345.642353 
L 243.988345 345.642353 
L 245.433566 344.456471 
L 258.440559 344.456471 
L 259.885781 343.270588 
L 284.454545 343.270588 
L 285.899767 342.084706 
L 309.02331 342.084706 
L 310.468531 340.898824 
L 316.249417 340.898824 
L 317.694639 339.712941 
L 330.701632 339.712941 
L 332.146853 338.527059 
L 366.832168 338.527059 
L 368.277389 337.341176 
L 376.948718 337.341176 
L 378.393939 336.155294 
L 387.065268 336.155294 
L 388.51049 334.969412 
L 394.291375 334.969412 
L 395.736597 333.783529 
L 449.20979 333.783529 
L 450.655012 332.597647 
L 492.566434 332.597647 
L 494.011655 331.411765 
L 577.834499 331.411765 
L 579.27972 330.225882 
L 619.745921 330.225882 
L 621.191142 329.04 
L 622.636364 329.04 
L 622.636364 329.04 
" clip-path="url(#pb6948ac858)" style="fill: none; stroke: #8c564b; stroke-width: 1.5; stroke-linecap: square"/>
   </g>
   <g id="line2d_31">
    <path d="M 115.363636 265.002353 
L 121.144522 265.002353 
L 122.589744 263.816471 
L 128.370629 263.816471 
L 131.261072 261.444706 
L 132.706294 261.444706 
L 134.151515 260.258824 
L 135.596737 260.258824 
L 137.041958 259.072941 
L 139.932401 259.072941 
L 141.377622 257.887059 
L 145.713287 257.887059 
L 147.158508 256.701176 
L 150.048951 256.701176 
L 151.494172 255.515294 
L 152.939394 255.515294 
L 154.384615 254.329412 
L 157.275058 254.329412 
L 160.165501 251.957647 
L 165.946387 251.957647 
L 167.391608 250.771765 
L 171.727273 250.771765 
L 174.617716 248.4 
L 177.508158 248.4 
L 178.95338 247.214118 
L 181.843823 247.214118 
L 183.289044 246.028235 
L 184.734266 243.656471 
L 186.179487 240.098824 
L 189.06993 240.098824 
L 190.515152 238.912941 
L 197.741259 238.912941 
L 200.631702 236.541176 
L 202.076923 234.169412 
L 203.522145 232.983529 
L 204.967366 232.983529 
L 206.412587 230.611765 
L 212.193473 230.611765 
L 213.638695 229.425882 
L 215.083916 229.425882 
L 217.974359 227.054118 
L 219.41958 227.054118 
L 220.864802 225.868235 
L 222.310023 225.868235 
L 225.200466 223.496471 
L 228.090909 223.496471 
L 229.536131 221.124706 
L 235.317016 221.124706 
L 238.207459 218.752941 
L 241.097902 218.752941 
L 242.543124 217.567059 
L 243.988345 215.195294 
L 248.324009 215.195294 
L 249.769231 214.009412 
L 251.214452 214.009412 
L 252.659674 211.637647 
L 254.104895 211.637647 
L 255.550117 210.451765 
L 256.995338 210.451765 
L 258.440559 209.265882 
L 264.221445 209.265882 
L 267.111888 206.894118 
L 268.55711 206.894118 
L 270.002331 204.522353 
L 271.447552 204.522353 
L 272.892774 203.336471 
L 274.337995 203.336471 
L 275.783217 202.150588 
L 280.118881 202.150588 
L 281.564103 200.964706 
L 283.009324 200.964706 
L 288.79021 196.221176 
L 290.235431 193.849412 
L 293.125874 193.849412 
L 296.016317 189.105882 
L 298.90676 189.105882 
L 301.797203 186.734118 
L 303.242424 186.734118 
L 304.687646 184.362353 
L 306.132867 184.362353 
L 307.578089 183.176471 
L 309.02331 183.176471 
L 310.468531 181.990588 
L 313.358974 181.990588 
L 314.804196 180.804706 
L 316.249417 180.804706 
L 317.694639 179.618824 
L 323.475524 179.618824 
L 324.920746 173.689412 
L 326.365967 173.689412 
L 327.811189 172.503529 
L 332.146853 172.503529 
L 333.592075 171.317647 
L 346.599068 171.317647 
L 348.044289 168.945882 
L 353.825175 168.945882 
L 355.270396 167.76 
L 369.722611 167.76 
L 371.167832 165.388235 
L 372.613054 164.202353 
L 379.839161 164.202353 
L 381.284382 163.016471 
L 391.400932 163.016471 
L 392.846154 161.830588 
L 394.291375 161.830588 
L 395.736597 160.644706 
L 404.407925 160.644706 
L 407.298368 158.272941 
L 417.414918 158.272941 
L 420.305361 155.901176 
L 421.750583 155.901176 
L 423.195804 154.715294 
L 431.867133 154.715294 
L 433.312354 153.529412 
L 437.648019 153.529412 
L 439.09324 152.343529 
L 440.538462 149.971765 
L 444.874126 149.971765 
L 446.319347 148.785882 
L 447.764569 148.785882 
L 450.655012 146.414118 
L 456.435897 146.414118 
L 457.881119 145.228235 
L 463.662005 145.228235 
L 465.107226 144.042353 
L 469.44289 144.042353 
L 470.888112 142.856471 
L 482.449883 142.856471 
L 485.340326 140.484706 
L 492.566434 140.484706 
L 494.011655 139.298824 
L 499.792541 139.298824 
L 507.018648 133.369412 
L 509.909091 133.369412 
L 511.354312 132.183529 
L 512.799534 132.183529 
L 514.244755 129.811765 
L 517.135198 127.44 
L 520.025641 122.696471 
L 522.916084 122.696471 
L 525.806527 117.952941 
L 528.69697 117.952941 
L 530.142191 115.581176 
L 533.032634 113.209412 
L 537.368298 113.209412 
L 538.81352 112.023529 
L 540.258741 112.023529 
L 543.149184 109.651765 
L 548.93007 109.651765 
L 550.375291 108.465882 
L 553.265734 108.465882 
L 554.710956 107.28 
L 561.937063 107.28 
L 563.382284 104.908235 
L 564.827506 103.722353 
L 566.272727 103.722353 
L 567.717949 102.536471 
L 570.608392 102.536471 
L 572.053613 101.350588 
L 574.944056 101.350588 
L 576.389277 98.978824 
L 579.27972 98.978824 
L 580.724942 97.792941 
L 582.170163 97.792941 
L 583.615385 96.607059 
L 590.841492 96.607059 
L 592.286713 95.421176 
L 599.512821 95.421176 
L 600.958042 94.235294 
L 602.403263 94.235294 
L 603.848485 91.863529 
L 606.738928 89.491765 
L 608.184149 85.934118 
L 609.629371 84.748235 
L 611.074592 84.748235 
L 612.519814 83.562353 
L 613.965035 83.562353 
L 615.410256 82.376471 
L 621.191142 82.376471 
L 622.636364 81.190588 
L 622.636364 81.190588 
" clip-path="url(#pb6948ac858)" style="fill: none; stroke: #e377c2; stroke-width: 1.5; stroke-linecap: square"/>
   </g>
   <g id="line2d_32">
    <path d="M 115.363636 338.527059 
L 116.808858 338.527059 
L 119.699301 336.155294 
L 126.925408 336.155294 
L 128.370629 334.969412 
L 129.815851 334.969412 
L 132.706294 332.597647 
L 135.596737 332.597647 
L 137.041958 331.411765 
L 141.377622 331.411765 
L 142.822844 330.225882 
L 144.268065 330.225882 
L 145.713287 329.04 
L 147.158508 329.04 
L 150.048951 326.668235 
L 154.384615 326.668235 
L 155.829837 325.482353 
L 158.72028 325.482353 
L 161.610723 323.110588 
L 164.501165 323.110588 
L 167.391608 320.738824 
L 168.83683 320.738824 
L 170.282051 319.552941 
L 171.727273 315.995294 
L 177.508158 315.995294 
L 183.289044 311.251765 
L 184.734266 311.251765 
L 187.624709 308.88 
L 189.06993 308.88 
L 190.515152 307.694118 
L 191.960373 307.694118 
L 193.405594 306.508235 
L 206.412587 306.508235 
L 207.857809 305.322353 
L 222.310023 305.322353 
L 225.200466 302.950588 
L 229.536131 302.950588 
L 230.981352 301.764706 
L 233.871795 301.764706 
L 236.762238 299.392941 
L 239.652681 299.392941 
L 241.097902 297.021176 
L 245.433566 297.021176 
L 246.878788 294.649412 
L 248.324009 293.463529 
L 255.550117 293.463529 
L 256.995338 292.277647 
L 258.440559 292.277647 
L 261.331002 289.905882 
L 268.55711 289.905882 
L 270.002331 288.72 
L 271.447552 288.72 
L 272.892774 287.534118 
L 281.564103 287.534118 
L 283.009324 286.348235 
L 287.344988 286.348235 
L 288.79021 285.162353 
L 290.235431 285.162353 
L 291.680653 281.604706 
L 293.125874 281.604706 
L 294.571096 279.232941 
L 296.016317 278.047059 
L 297.461538 278.047059 
L 300.351981 275.675294 
L 303.242424 275.675294 
L 304.687646 274.489412 
L 307.578089 274.489412 
L 309.02331 273.303529 
L 310.468531 273.303529 
L 311.913753 270.931765 
L 313.358974 270.931765 
L 314.804196 269.745882 
L 317.694639 269.745882 
L 320.585082 267.374118 
L 322.030303 267.374118 
L 323.475524 265.002353 
L 324.920746 263.816471 
L 335.037296 263.816471 
L 336.482517 261.444706 
L 340.818182 261.444706 
L 342.263403 260.258824 
L 343.708625 260.258824 
L 345.153846 259.072941 
L 349.48951 259.072941 
L 350.934732 257.887059 
L 358.160839 257.887059 
L 359.606061 256.701176 
L 362.496503 256.701176 
L 363.941725 255.515294 
L 371.167832 255.515294 
L 372.613054 254.329412 
L 385.620047 254.329412 
L 388.51049 251.957647 
L 389.955711 251.957647 
L 391.400932 250.771765 
L 392.846154 250.771765 
L 394.291375 249.585882 
L 395.736597 249.585882 
L 397.181818 248.4 
L 400.072261 248.4 
L 401.517483 247.214118 
L 402.962704 247.214118 
L 405.853147 244.842353 
L 410.188811 244.842353 
L 411.634033 243.656471 
L 415.969697 243.656471 
L 417.414918 242.470588 
L 427.531469 242.470588 
L 428.97669 241.284706 
L 430.421911 241.284706 
L 431.867133 240.098824 
L 437.648019 240.098824 
L 439.09324 237.727059 
L 447.764569 237.727059 
L 449.20979 236.541176 
L 450.655012 236.541176 
L 452.100233 234.169412 
L 459.32634 234.169412 
L 460.771562 232.983529 
L 469.44289 232.983529 
L 470.888112 231.797647 
L 489.675991 231.797647 
L 491.121212 230.611765 
L 512.799534 230.611765 
L 514.244755 229.425882 
L 521.470862 229.425882 
L 522.916084 228.24 
L 524.361305 228.24 
L 525.806527 227.054118 
L 527.251748 227.054118 
L 528.69697 224.682353 
L 530.142191 224.682353 
L 533.032634 222.310588 
L 543.149184 222.310588 
L 544.594406 221.124706 
L 546.039627 221.124706 
L 547.484848 219.938824 
L 548.93007 219.938824 
L 550.375291 218.752941 
L 557.601399 218.752941 
L 559.04662 217.567059 
L 572.053613 217.567059 
L 573.498834 216.381176 
L 580.724942 216.381176 
L 582.170163 215.195294 
L 589.39627 215.195294 
L 590.841492 214.009412 
L 593.731935 214.009412 
L 598.067599 210.451765 
L 600.958042 210.451765 
L 602.403263 208.08 
L 609.629371 208.08 
L 612.519814 205.708235 
L 615.410256 205.708235 
L 616.855478 204.522353 
L 618.300699 204.522353 
L 621.191142 202.150588 
L 622.636364 202.150588 
L 622.636364 202.150588 
" clip-path="url(#pb6948ac858)" style="fill: none; stroke: #7f7f7f; stroke-width: 1.5; stroke-linecap: square"/>
   </g>
   <g id="line2d_33">
    <path d="M 115.363636 345.642353 
L 121.144522 345.642353 
L 122.589744 344.456471 
L 137.041958 344.456471 
L 138.487179 343.270588 
L 145.713287 343.270588 
L 147.158508 342.084706 
L 161.610723 342.084706 
L 163.055944 340.898824 
L 177.508158 340.898824 
L 178.95338 339.712941 
L 256.995338 339.712941 
L 258.440559 338.527059 
L 265.666667 338.527059 
L 267.111888 337.341176 
L 277.228438 337.341176 
L 278.67366 336.155294 
L 280.118881 336.155294 
L 281.564103 332.597647 
L 283.009324 331.411765 
L 285.899767 331.411765 
L 287.344988 330.225882 
L 301.797203 330.225882 
L 303.242424 329.04 
L 316.249417 329.04 
L 317.694639 327.854118 
L 333.592075 327.854118 
L 335.037296 326.668235 
L 352.379953 326.668235 
L 353.825175 325.482353 
L 361.051282 325.482353 
L 362.496503 324.296471 
L 408.74359 324.296471 
L 410.188811 323.110588 
L 413.079254 323.110588 
L 414.524476 321.924706 
L 426.086247 321.924706 
L 427.531469 320.738824 
L 467.997669 320.738824 
L 472.333333 317.181176 
L 514.244755 317.181176 
L 515.689977 315.995294 
L 517.135198 315.995294 
L 520.025641 313.623529 
L 522.916084 313.623529 
L 524.361305 312.437647 
L 598.067599 312.437647 
L 599.512821 311.251765 
L 622.636364 311.251765 
L 622.636364 311.251765 
" clip-path="url(#pb6948ac858)" style="fill: none; stroke: #bcbd22; stroke-width: 1.5; stroke-linecap: square"/>
   </g>
   <g id="line2d_34">
    <path d="M 115.363636 366.988235 
L 187.624709 366.988235 
L 189.06993 365.802353 
L 280.118881 365.802353 
L 281.564103 364.616471 
L 428.97669 364.616471 
L 430.421911 363.430588 
L 431.867133 364.616471 
L 606.738928 364.616471 
L 608.184149 363.430588 
L 618.300699 363.430588 
L 619.745921 362.244706 
L 622.636364 362.244706 
L 622.636364 362.244706 
" clip-path="url(#pb6948ac858)" style="fill: none; stroke: #17becf; stroke-width: 1.5; stroke-linecap: square"/>
   </g>
   <g id="line2d_35">
    <path d="M 115.363636 369.36 
L 116.808858 368.174118 
L 119.699301 368.174118 
L 121.144522 366.988235 
L 131.261072 366.988235 
L 132.706294 365.802353 
L 137.041958 365.802353 
L 138.487179 364.616471 
L 139.932401 364.616471 
L 142.822844 362.244706 
L 150.048951 362.244706 
L 152.939394 359.872941 
L 154.384615 359.872941 
L 155.829837 358.687059 
L 165.946387 358.687059 
L 167.391608 357.501176 
L 168.83683 355.129412 
L 171.727273 355.129412 
L 173.172494 353.943529 
L 174.617716 353.943529 
L 176.062937 352.757647 
L 177.508158 352.757647 
L 178.95338 351.571765 
L 180.398601 351.571765 
L 183.289044 349.2 
L 191.960373 349.2 
L 194.850816 346.828235 
L 199.18648 346.828235 
L 200.631702 345.642353 
L 202.076923 345.642353 
L 203.522145 343.270588 
L 207.857809 343.270588 
L 210.748252 338.527059 
L 219.41958 338.527059 
L 220.864802 336.155294 
L 222.310023 334.969412 
L 226.645688 334.969412 
L 228.090909 333.783529 
L 229.536131 331.411765 
L 232.426573 331.411765 
L 233.871795 330.225882 
L 254.104895 330.225882 
L 255.550117 327.854118 
L 265.666667 319.552941 
L 280.118881 319.552941 
L 284.454545 315.995294 
L 287.344988 315.995294 
L 288.79021 313.623529 
L 291.680653 313.623529 
L 293.125874 312.437647 
L 297.461538 312.437647 
L 298.90676 311.251765 
L 300.351981 311.251765 
L 301.797203 310.065882 
L 303.242424 310.065882 
L 306.132867 307.694118 
L 324.920746 307.694118 
L 327.811189 305.322353 
L 339.37296 305.322353 
L 340.818182 304.136471 
L 345.153846 304.136471 
L 348.044289 301.764706 
L 352.379953 301.764706 
L 353.825175 300.578824 
L 356.715618 300.578824 
L 358.160839 299.392941 
L 365.386946 299.392941 
L 366.832168 298.207059 
L 368.277389 298.207059 
L 369.722611 295.835294 
L 371.167832 295.835294 
L 372.613054 294.649412 
L 379.839161 294.649412 
L 381.284382 293.463529 
L 384.174825 293.463529 
L 385.620047 292.277647 
L 387.065268 292.277647 
L 389.955711 289.905882 
L 400.072261 289.905882 
L 401.517483 288.72 
L 402.962704 288.72 
L 404.407925 287.534118 
L 411.634033 287.534118 
L 413.079254 285.162353 
L 414.524476 283.976471 
L 421.750583 283.976471 
L 423.195804 282.790588 
L 428.97669 282.790588 
L 430.421911 280.418824 
L 436.202797 280.418824 
L 439.09324 278.047059 
L 443.428904 278.047059 
L 444.874126 276.861176 
L 462.216783 276.861176 
L 463.662005 274.489412 
L 465.107226 273.303529 
L 476.668998 273.303529 
L 478.114219 272.117647 
L 504.128205 272.117647 
L 505.573427 270.931765 
L 508.463869 270.931765 
L 509.909091 269.745882 
L 514.244755 269.745882 
L 515.689977 268.56 
L 534.477855 268.56 
L 535.923077 266.188235 
L 538.81352 266.188235 
L 540.258741 265.002353 
L 541.703963 265.002353 
L 543.149184 263.816471 
L 548.93007 263.816471 
L 550.375291 262.630588 
L 560.491841 262.630588 
L 561.937063 260.258824 
L 563.382284 260.258824 
L 564.827506 259.072941 
L 572.053613 259.072941 
L 573.498834 257.887059 
L 580.724942 257.887059 
L 583.615385 255.515294 
L 586.505827 255.515294 
L 587.951049 254.329412 
L 590.841492 254.329412 
L 592.286713 253.143529 
L 593.731935 253.143529 
L 595.177156 251.957647 
L 605.293706 251.957647 
L 606.738928 250.771765 
L 622.636364 250.771765 
L 622.636364 250.771765 
" clip-path="url(#pb6948ac858)" style="fill: none; stroke: #1f77b4; stroke-width: 1.5; stroke-linecap: square"/>
   </g>
   <g id="line2d_36">
    <path d="M 115.363636 325.482353 
L 125.480186 325.482353 
L 126.925408 324.296471 
L 131.261072 324.296471 
L 132.706294 323.110588 
L 138.487179 323.110588 
L 139.932401 321.924706 
L 144.268065 321.924706 
L 145.713287 320.738824 
L 147.158508 320.738824 
L 148.60373 319.552941 
L 152.939394 319.552941 
L 154.384615 318.367059 
L 157.275058 318.367059 
L 158.72028 317.181176 
L 160.165501 317.181176 
L 163.055944 314.809412 
L 171.727273 314.809412 
L 173.172494 313.623529 
L 174.617716 313.623529 
L 176.062937 312.437647 
L 177.508158 312.437647 
L 178.95338 310.065882 
L 180.398601 306.508235 
L 181.843823 305.322353 
L 187.624709 305.322353 
L 191.960373 301.764706 
L 196.296037 301.764706 
L 199.18648 299.392941 
L 215.083916 299.392941 
L 216.529138 295.835294 
L 217.974359 295.835294 
L 220.864802 291.091765 
L 223.755245 288.72 
L 225.200466 288.72 
L 226.645688 286.348235 
L 238.207459 286.348235 
L 239.652681 283.976471 
L 243.988345 283.976471 
L 245.433566 282.790588 
L 255.550117 282.790588 
L 256.995338 281.604706 
L 274.337995 281.604706 
L 275.783217 280.418824 
L 277.228438 280.418824 
L 278.67366 279.232941 
L 283.009324 279.232941 
L 284.454545 278.047059 
L 301.797203 278.047059 
L 303.242424 276.861176 
L 306.132867 276.861176 
L 309.02331 272.117647 
L 311.913753 272.117647 
L 314.804196 269.745882 
L 317.694639 269.745882 
L 319.13986 268.56 
L 323.475524 268.56 
L 324.920746 267.374118 
L 342.263403 267.374118 
L 343.708625 266.188235 
L 365.386946 266.188235 
L 366.832168 265.002353 
L 379.839161 265.002353 
L 381.284382 263.816471 
L 384.174825 263.816471 
L 385.620047 262.630588 
L 389.955711 262.630588 
L 392.846154 260.258824 
L 394.291375 260.258824 
L 395.736597 259.072941 
L 401.517483 259.072941 
L 404.407925 256.701176 
L 411.634033 256.701176 
L 413.079254 255.515294 
L 417.414918 255.515294 
L 418.86014 254.329412 
L 426.086247 254.329412 
L 427.531469 253.143529 
L 434.757576 253.143529 
L 436.202797 251.957647 
L 462.216783 251.957647 
L 463.662005 250.771765 
L 465.107226 250.771765 
L 466.552448 249.585882 
L 481.004662 249.585882 
L 482.449883 247.214118 
L 483.895105 247.214118 
L 485.340326 246.028235 
L 499.792541 246.028235 
L 501.237762 244.842353 
L 507.018648 244.842353 
L 508.463869 243.656471 
L 509.909091 243.656471 
L 511.354312 242.470588 
L 524.361305 242.470588 
L 525.806527 241.284706 
L 554.710956 241.284706 
L 556.156177 237.727059 
L 566.272727 237.727059 
L 567.717949 236.541176 
L 570.608392 236.541176 
L 572.053613 235.355294 
L 589.39627 235.355294 
L 590.841492 234.169412 
L 611.074592 234.169412 
L 612.519814 232.983529 
L 616.855478 232.983529 
L 618.300699 231.797647 
L 622.636364 231.797647 
L 622.636364 231.797647 
" clip-path="url(#pb6948ac858)" style="fill: none; stroke: #ff7f0e; stroke-width: 1.5; stroke-linecap: square"/>
   </g>
   <g id="patch_3">
    <path d="M 90 384.48 
L 90 51.84 
" style="fill: none; stroke: #000000; stroke-width: 0.8; stroke-linejoin: miter; stroke-linecap: square"/>
   </g>
   <g id="patch_4">
    <path d="M 648 384.48 
L 648 51.84 
" style="fill: none; stroke: #000000; stroke-width: 0.8; stroke-linejoin: miter; stroke-linecap: square"/>
   </g>
   <g id="patch_5">
    <path d="M 90 384.48 
L 648 384.48 
" style="fill: none; stroke: #000000; stroke-width: 0.8; stroke-linejoin: miter; stroke-linecap: square"/>
   </g>
   <g id="patch_6">
    <path d="M 90 51.84 
L 648 51.84 
" style="fill: none; stroke: #000000; stroke-width: 0.8; stroke-linejoin: miter; stroke-linecap: square"/>
   </g>
   <g id="text_15">
    <!-- Time Series of Votes for Each Keyword -->
    <g transform="translate(253.716563 45.84) scale(0.12 -0.12)">
     <defs>
      <path id="DejaVuSans-53" d="M 3425 4513 
L 3425 3897 
Q 3066 4069 2747 4153 
Q 2428 4238 2131 4238 
Q 1616 4238 1336 4038 
Q 1056 3838 1056 3469 
Q 1056 3159 1242 3001 
Q 1428 2844 1947 2747 
L 2328 2669 
Q 3034 2534 3370 2195 
Q 3706 1856 3706 1288 
Q 3706 609 3251 259 
Q 2797 -91 1919 -91 
Q 1588 -91 1214 -16 
Q 841 59 441 206 
L 441 856 
Q 825 641 1194 531 
Q 1563 422 1919 422 
Q 2459 422 2753 634 
Q 3047 847 3047 1241 
Q 3047 1584 2836 1778 
Q 2625 1972 2144 2069 
L 1759 2144 
Q 1053 2284 737 2584 
Q 422 2884 422 3419 
Q 422 4038 858 4394 
Q 1294 4750 2059 4750 
Q 2388 4750 2728 4690 
Q 3069 4631 3425 4513 
z
" transform="scale(0.015625)"/>
      <path id="DejaVuSans-72" d="M 2631 2963 
Q 2534 3019 2420 3045 
Q 2306 3072 2169 3072 
Q 1681 3072 1420 2755 
Q 1159 2438 1159 1844 
L 1159 0 
L 581 0 
L 581 3500 
L 1159 3500 
L 1159 2956 
Q 1341 3275 1631 3429 
Q 1922 3584 2338 3584 
Q 2397 3584 2469 3576 
Q 2541 3569 2628 3553 
L 2631 2963 
z
" transform="scale(0.015625)"/>
      <path id="DejaVuSans-66" d="M 2375 4863 
L 2375 4384 
L 1825 4384 
Q 1516 4384 1395 4259 
Q 1275 4134 1275 3809 
L 1275 3500 
L 2222 3500 
L 2222 3053 
L 1275 3053 
L 1275 0 
L 697 0 
L 697 3053 
L 147 3053 
L 147 3500 
L 697 3500 
L 697 3744 
Q 697 4328 969 4595 
Q 1241 4863 1831 4863 
L 2375 4863 
z
" transform="scale(0.015625)"/>
      <path id="DejaVuSans-45" d="M 628 4666 
L 3578 4666 
L 3578 4134 
L 1259 4134 
L 1259 2753 
L 3481 2753 
L 3481 2222 
L 1259 2222 
L 1259 531 
L 3634 531 
L 3634 0 
L 628 0 
L 628 4666 
z
" transform="scale(0.015625)"/>
      <path id="DejaVuSans-63" d="M 3122 3366 
L 3122 2828 
Q 2878 2963 2633 3030 
Q 2388 3097 2138 3097 
Q 1578 3097 1268 2742 
Q 959 2388 959 1747 
Q 959 1106 1268 751 
Q 1578 397 2138 397 
Q 2388 397 2633 464 
Q 2878 531 3122 666 
L 3122 134 
Q 2881 22 2623 -34 
Q 2366 -91 2075 -91 
Q 1284 -91 818 406 
Q 353 903 353 1747 
Q 353 2603 823 3093 
Q 1294 3584 2113 3584 
Q 2378 3584 2631 3529 
Q 2884 3475 3122 3366 
z
" transform="scale(0.015625)"/>
      <path id="DejaVuSans-68" d="M 3513 2113 
L 3513 0 
L 2938 0 
L 2938 2094 
Q 2938 2591 2744 2837 
Q 2550 3084 2163 3084 
Q 1697 3084 1428 2787 
Q 1159 2491 1159 1978 
L 1159 0 
L 581 0 
L 581 4863 
L 1159 4863 
L 1159 2956 
Q 1366 3272 1645 3428 
Q 1925 3584 2291 3584 
Q 2894 3584 3203 3211 
Q 3513 2838 3513 2113 
z
" transform="scale(0.015625)"/>
      <path id="DejaVuSans-4b" d="M 628 4666 
L 1259 4666 
L 1259 2694 
L 3353 4666 
L 4166 4666 
L 1850 2491 
L 4331 0 
L 3500 0 
L 1259 2247 
L 1259 0 
L 628 0 
L 628 4666 
z
" transform="scale(0.015625)"/>
      <path id="DejaVuSans-79" d="M 2059 -325 
Q 1816 -950 1584 -1140 
Q 1353 -1331 966 -1331 
L 506 -1331 
L 506 -850 
L 844 -850 
Q 1081 -850 1212 -737 
Q 1344 -625 1503 -206 
L 1606 56 
L 191 3500 
L 800 3500 
L 1894 763 
L 2988 3500 
L 3597 3500 
L 2059 -325 
z
" transform="scale(0.015625)"/>
      <path id="DejaVuSans-77" d="M 269 3500 
L 844 3500 
L 1563 769 
L 2278 3500 
L 2956 3500 
L 3675 769 
L 4391 3500 
L 4966 3500 
L 4050 0 
L 3372 0 
L 2619 2869 
L 1863 0 
L 1184 0 
L 269 3500 
z
" transform="scale(0.015625)"/>
     </defs>
     <use xlink:href="#DejaVuSans-54"/>
     <use xlink:href="#DejaVuSans-69" transform="translate(57.958984 0)"/>
     <use xlink:href="#DejaVuSans-6d" transform="translate(85.742188 0)"/>
     <use xlink:href="#DejaVuSans-65" transform="translate(183.154297 0)"/>
     <use xlink:href="#DejaVuSans-20" transform="translate(244.677734 0)"/>
     <use xlink:href="#DejaVuSans-53" transform="translate(276.464844 0)"/>
     <use xlink:href="#DejaVuSans-65" transform="translate(339.941406 0)"/>
     <use xlink:href="#DejaVuSans-72" transform="translate(401.464844 0)"/>
     <use xlink:href="#DejaVuSans-69" transform="translate(442.578125 0)"/>
     <use xlink:href="#DejaVuSans-65" transform="translate(470.361328 0)"/>
     <use xlink:href="#DejaVuSans-73" transform="translate(531.884766 0)"/>
     <use xlink:href="#DejaVuSans-20" transform="translate(583.984375 0)"/>
     <use xlink:href="#DejaVuSans-6f" transform="translate(615.771484 0)"/>
     <use xlink:href="#DejaVuSans-66" transform="translate(676.953125 0)"/>
     <use xlink:href="#DejaVuSans-20" transform="translate(712.158203 0)"/>
     <use xlink:href="#DejaVuSans-56" transform="translate(743.945312 0)"/>
     <use xlink:href="#DejaVuSans-6f" transform="translate(804.603516 0)"/>
     <use xlink:href="#DejaVuSans-74" transform="translate(865.785156 0)"/>
     <use xlink:href="#DejaVuSans-65" transform="translate(904.994141 0)"/>
     <use xlink:href="#DejaVuSans-73" transform="translate(966.517578 0)"/>
     <use xlink:href="#DejaVuSans-20" transform="translate(1018.617188 0)"/>
     <use xlink:href="#DejaVuSans-66" transform="translate(1050.404297 0)"/>
     <use xlink:href="#DejaVuSans-6f" transform="translate(1085.609375 0)"/>
     <use xlink:href="#DejaVuSans-72" transform="translate(1146.791016 0)"/>
     <use xlink:href="#DejaVuSans-20" transform="translate(1187.904297 0)"/>
     <use xlink:href="#DejaVuSans-45" transform="translate(1219.691406 0)"/>
     <use xlink:href="#DejaVuSans-61" transform="translate(1282.875 0)"/>
     <use xlink:href="#DejaVuSans-63" transform="translate(1344.154297 0)"/>
     <use xlink:href="#DejaVuSans-68" transform="translate(1399.134766 0)"/>
     <use xlink:href="#DejaVuSans-20" transform="translate(1462.513672 0)"/>
     <use xlink:href="#DejaVuSans-4b" transform="translate(1494.300781 0)"/>
     <use xlink:href="#DejaVuSans-65" transform="translate(1554.876953 0)"/>
     <use xlink:href="#DejaVuSans-79" transform="translate(1616.400391 0)"/>
     <use xlink:href="#DejaVuSans-77" transform="translate(1675.580078 0)"/>
     <use xlink:href="#DejaVuSans-6f" transform="translate(1757.367188 0)"/>
     <use xlink:href="#DejaVuSans-72" transform="translate(1818.548828 0)"/>
     <use xlink:href="#DejaVuSans-64" transform="translate(1857.912109 0)"/>
    </g>
   </g>
   <g id="legend_1">
    <g id="patch_7">
     <path d="M 97 235.9775 
L 149.245313 235.9775 
Q 151.245313 235.9775 151.245313 233.9775 
L 151.245313 58.84 
Q 151.245313 56.84 149.245313 56.84 
L 97 56.84 
Q 95 56.84 95 58.84 
L 95 233.9775 
Q 95 235.9775 97 235.9775 
z
" style="fill: #ffffff; opacity: 0.8; stroke: #cccccc; stroke-linejoin: miter"/>
    </g>
    <g id="line2d_37">
     <path d="M 99 64.938437 
L 109 64.938437 
L 119 64.938437 
" style="fill: none; stroke: #1f77b4; stroke-width: 1.5; stroke-linecap: square"/>
    </g>
    <g id="text_16">
     <!-- H01 -->
     <g transform="translate(127 68.438437) scale(0.1 -0.1)">
      <defs>
       <path id="DejaVuSans-48" d="M 628 4666 
L 1259 4666 
L 1259 2753 
L 3553 2753 
L 3553 4666 
L 4184 4666 
L 4184 0 
L 3553 0 
L 3553 2222 
L 1259 2222 
L 1259 0 
L 628 0 
L 628 4666 
z
" transform="scale(0.015625)"/>
      </defs>
      <use xlink:href="#DejaVuSans-48"/>
      <use xlink:href="#DejaVuSans-30" transform="translate(75.195312 0)"/>
      <use xlink:href="#DejaVuSans-31" transform="translate(138.818359 0)"/>
     </g>
    </g>
    <g id="line2d_38">
     <path d="M 99 79.616562 
L 109 79.616562 
L 119 79.616562 
" style="fill: none; stroke: #ff7f0e; stroke-width: 1.5; stroke-linecap: square"/>
    </g>
    <g id="text_17">
     <!-- H02 -->
     <g transform="translate(127 83.116562) scale(0.1 -0.1)">
      <use xlink:href="#DejaVuSans-48"/>
      <use xlink:href="#DejaVuSans-30" transform="translate(75.195312 0)"/>
      <use xlink:href="#DejaVuSans-32" transform="translate(138.818359 0)"/>
     </g>
    </g>
    <g id="line2d_39">
     <path d="M 99 94.294688 
L 109 94.294688 
L 119 94.294688 
" style="fill: none; stroke: #2ca02c; stroke-width: 1.5; stroke-linecap: square"/>
    </g>
    <g id="text_18">
     <!-- H03 -->
     <g transform="translate(127 97.794688) scale(0.1 -0.1)">
      <defs>
       <path id="DejaVuSans-33" d="M 2597 2516 
Q 3050 2419 3304 2112 
Q 3559 1806 3559 1356 
Q 3559 666 3084 287 
Q 2609 -91 1734 -91 
Q 1441 -91 1130 -33 
Q 819 25 488 141 
L 488 750 
Q 750 597 1062 519 
Q 1375 441 1716 441 
Q 2309 441 2620 675 
Q 2931 909 2931 1356 
Q 2931 1769 2642 2001 
Q 2353 2234 1838 2234 
L 1294 2234 
L 1294 2753 
L 1863 2753 
Q 2328 2753 2575 2939 
Q 2822 3125 2822 3475 
Q 2822 3834 2567 4026 
Q 2313 4219 1838 4219 
Q 1578 4219 1281 4162 
Q 984 4106 628 3988 
L 628 4550 
Q 988 4650 1302 4700 
Q 1616 4750 1894 4750 
Q 2613 4750 3031 4423 
Q 3450 4097 3450 3541 
Q 3450 3153 3228 2886 
Q 3006 2619 2597 2516 
z
" transform="scale(0.015625)"/>
      </defs>
      <use xlink:href="#DejaVuSans-48"/>
      <use xlink:href="#DejaVuSans-30" transform="translate(75.195312 0)"/>
      <use xlink:href="#DejaVuSans-33" transform="translate(138.818359 0)"/>
     </g>
    </g>
    <g id="line2d_40">
     <path d="M 99 108.972812 
L 109 108.972812 
L 119 108.972812 
" style="fill: none; stroke: #d62728; stroke-width: 1.5; stroke-linecap: square"/>
    </g>
    <g id="text_19">
     <!-- H04 -->
     <g transform="translate(127 112.472812) scale(0.1 -0.1)">
      <use xlink:href="#DejaVuSans-48"/>
      <use xlink:href="#DejaVuSans-30" transform="translate(75.195312 0)"/>
      <use xlink:href="#DejaVuSans-34" transform="translate(138.818359 0)"/>
     </g>
    </g>
    <g id="line2d_41">
     <path d="M 99 123.650937 
L 109 123.650937 
L 119 123.650937 
" style="fill: none; stroke: #9467bd; stroke-width: 1.5; stroke-linecap: square"/>
    </g>
    <g id="text_20">
     <!-- H05 -->
     <g transform="translate(127 127.150937) scale(0.1 -0.1)">
      <use xlink:href="#DejaVuSans-48"/>
      <use xlink:href="#DejaVuSans-30" transform="translate(75.195312 0)"/>
      <use xlink:href="#DejaVuSans-35" transform="translate(138.818359 0)"/>
     </g>
    </g>
    <g id="line2d_42">
     <path d="M 99 138.329062 
L 109 138.329062 
L 119 138.329062 
" style="fill: none; stroke: #8c564b; stroke-width: 1.5; stroke-linecap: square"/>
    </g>
    <g id="text_21">
     <!-- H06 -->
     <g transform="translate(127 141.829062) scale(0.1 -0.1)">
      <use xlink:href="#DejaVuSans-48"/>
      <use xlink:href="#DejaVuSans-30" transform="translate(75.195312 0)"/>
      <use xlink:href="#DejaVuSans-36" transform="translate(138.818359 0)"/>
     </g>
    </g>
    <g id="line2d_43">
     <path d="M 99 153.007187 
L 109 153.007187 
L 119 153.007187 
" style="fill: none; stroke: #e377c2; stroke-width: 1.5; stroke-linecap: square"/>
    </g>
    <g id="text_22">
     <!-- H07 -->
     <g transform="translate(127 156.507187) scale(0.1 -0.1)">
      <use xlink:href="#DejaVuSans-48"/>
      <use xlink:href="#DejaVuSans-30" transform="translate(75.195312 0)"/>
      <use xlink:href="#DejaVuSans-37" transform="translate(138.818359 0)"/>
     </g>
    </g>
    <g id="line2d_44">
     <path d="M 99 167.685312 
L 109 167.685312 
L 119 167.685312 
" style="fill: none; stroke: #7f7f7f; stroke-width: 1.5; stroke-linecap: square"/>
    </g>
    <g id="text_23">
     <!-- H08 -->
     <g transform="translate(127 171.185312) scale(0.1 -0.1)">
      <use xlink:href="#DejaVuSans-48"/>
      <use xlink:href="#DejaVuSans-30" transform="translate(75.195312 0)"/>
      <use xlink:href="#DejaVuSans-38" transform="translate(138.818359 0)"/>
     </g>
    </g>
    <g id="line2d_45">
     <path d="M 99 182.363437 
L 109 182.363437 
L 119 182.363437 
" style="fill: none; stroke: #bcbd22; stroke-width: 1.5; stroke-linecap: square"/>
    </g>
    <g id="text_24">
     <!-- H09 -->
     <g transform="translate(127 185.863437) scale(0.1 -0.1)">
      <use xlink:href="#DejaVuSans-48"/>
      <use xlink:href="#DejaVuSans-30" transform="translate(75.195312 0)"/>
      <use xlink:href="#DejaVuSans-39" transform="translate(138.818359 0)"/>
     </g>
    </g>
    <g id="line2d_46">
     <path d="M 99 197.041562 
L 109 197.041562 
L 119 197.041562 
" style="fill: none; stroke: #17becf; stroke-width: 1.5; stroke-linecap: square"/>
    </g>
    <g id="text_25">
     <!-- H10 -->
     <g transform="translate(127 200.541562) scale(0.1 -0.1)">
      <use xlink:href="#DejaVuSans-48"/>
      <use xlink:href="#DejaVuSans-31" transform="translate(75.195312 0)"/>
      <use xlink:href="#DejaVuSans-30" transform="translate(138.818359 0)"/>
     </g>
    </g>
    <g id="line2d_47">
     <path d="M 99 211.719687 
L 109 211.719687 
L 119 211.719687 
" style="fill: none; stroke: #1f77b4; stroke-width: 1.5; stroke-linecap: square"/>
    </g>
    <g id="text_26">
     <!-- H11 -->
     <g transform="translate(127 215.219687) scale(0.1 -0.1)">
      <use xlink:href="#DejaVuSans-48"/>
      <use xlink:href="#DejaVuSans-31" transform="translate(75.195312 0)"/>
      <use xlink:href="#DejaVuSans-31" transform="translate(138.818359 0)"/>
     </g>
    </g>
    <g id="line2d_48">
     <path d="M 99 226.397812 
L 109 226.397812 
L 119 226.397812 
" style="fill: none; stroke: #ff7f0e; stroke-width: 1.5; stroke-linecap: square"/>
    </g>
    <g id="text_27">
     <!-- H12 -->
     <g transform="translate(127 229.897812) scale(0.1 -0.1)">
      <use xlink:href="#DejaVuSans-48"/>
      <use xlink:href="#DejaVuSans-31" transform="translate(75.195312 0)"/>
      <use xlink:href="#DejaVuSans-32" transform="translate(138.818359 0)"/>
     </g>
    </g>
   </g>
  </g>
 </g>
 <defs>
  <clipPath id="pb6948ac858">
   <rect x="90" y="51.84" width="558" height="332.64"/>
  </clipPath>
 </defs>
</svg>
