<?xml version="1.0" encoding="utf-8" standalone="no"?>
<!DOCTYPE svg PUBLIC "-//W3C//DTD SVG 1.1//EN"
  "http://www.w3.org/Graphics/SVG/1.1/DTD/svg11.dtd">
<svg xmlns:xlink="http://www.w3.org/1999/xlink" width="720pt" height="432pt" viewBox="0 0 720 432" xmlns="http://www.w3.org/2000/svg" version="1.1">
 <metadata>
  <rdf:RDF xmlns:dc="http://purl.org/dc/elements/1.1/" xmlns:cc="http://creativecommons.org/ns#" xmlns:rdf="http://www.w3.org/1999/02/22-rdf-syntax-ns#">
   <cc:Work>
    <dc:type rdf:resource="http://purl.org/dc/dcmitype/StillImage"/>
    <dc:date>2025-01-14T16:29:38.116839</dc:date>
    <dc:format>image/svg+xml</dc:format>
    <dc:creator>
     <cc:Agent>
      <dc:title>Matplotlib v3.10.0, https://matplotlib.org/</dc:title>
     </cc:Agent>
    </dc:creator>
   </cc:Work>
  </rdf:RDF>
 </metadata>
 <defs>
  <style type="text/css">*{stroke-linejoin: round; stroke-linecap: butt}</style>
 </defs>
 <g id="figure_1">
  <g id="patch_1">
   <path d="M 0 432 
L 720 432 
L 720 0 
L 0 0 
z
" style="fill: #ffffff"/>
  </g>
  <g id="axes_1">
   <g id="patch_2">
    <path d="M 90 384.48 
L 648 384.48 
L 648 51.84 
L 90 51.84 
z
" style="fill: #ffffff"/>
   </g>
   <g id="matplotlib.axis_1">
    <g id="xtick_1">
     <g id="line2d_1">
      <path d="M 106.667532 384.48 
L 106.667532 51.84 
" clip-path="url(#pa17b4d5c5e)" style="fill: none; stroke: #b0b0b0; stroke-width: 0.8; stroke-linecap: square"/>
     </g>
     <g id="line2d_2">
      <defs>
       <path id="m0ee5e07020" d="M 0 0 
L 0 3.5 
" style="stroke: #000000; stroke-width: 0.8"/>
      </defs>
      <g>
       <use xlink:href="#m0ee5e07020" x="106.667532" y="384.48" style="stroke: #000000; stroke-width: 0.8"/>
      </g>
     </g>
     <g id="text_1">
      <!-- 14 13:30 -->
      <g transform="translate(84.306595 399.078438) scale(0.1 -0.1)">
       <defs>
        <path id="DejaVuSans-31" d="M 794 531 
L 1825 531 
L 1825 4091 
L 703 3866 
L 703 4441 
L 1819 4666 
L 2450 4666 
L 2450 531 
L 3481 531 
L 3481 0 
L 794 0 
L 794 531 
z
" transform="scale(0.015625)"/>
        <path id="DejaVuSans-34" d="M 2419 4116 
L 825 1625 
L 2419 1625 
L 2419 4116 
z
M 2253 4666 
L 3047 4666 
L 3047 1625 
L 3713 1625 
L 3713 1100 
L 3047 1100 
L 3047 0 
L 2419 0 
L 2419 1100 
L 313 1100 
L 313 1709 
L 2253 4666 
z
" transform="scale(0.015625)"/>
        <path id="DejaVuSans-20" transform="scale(0.015625)"/>
        <path id="DejaVuSans-33" d="M 2597 2516 
Q 3050 2419 3304 2112 
Q 3559 1806 3559 1356 
Q 3559 666 3084 287 
Q 2609 -91 1734 -91 
Q 1441 -91 1130 -33 
Q 819 25 488 141 
L 488 750 
Q 750 597 1062 519 
Q 1375 441 1716 441 
Q 2309 441 2620 675 
Q 2931 909 2931 1356 
Q 2931 1769 2642 2001 
Q 2353 2234 1838 2234 
L 1294 2234 
L 1294 2753 
L 1863 2753 
Q 2328 2753 2575 2939 
Q 2822 3125 2822 3475 
Q 2822 3834 2567 4026 
Q 2313 4219 1838 4219 
Q 1578 4219 1281 4162 
Q 984 4106 628 3988 
L 628 4550 
Q 988 4650 1302 4700 
Q 1616 4750 1894 4750 
Q 2613 4750 3031 4423 
Q 3450 4097 3450 3541 
Q 3450 3153 3228 2886 
Q 3006 2619 2597 2516 
z
" transform="scale(0.015625)"/>
        <path id="DejaVuSans-3a" d="M 750 794 
L 1409 794 
L 1409 0 
L 750 0 
L 750 794 
z
M 750 3309 
L 1409 3309 
L 1409 2516 
L 750 2516 
L 750 3309 
z
" transform="scale(0.015625)"/>
        <path id="DejaVuSans-30" d="M 2034 4250 
Q 1547 4250 1301 3770 
Q 1056 3291 1056 2328 
Q 1056 1369 1301 889 
Q 1547 409 2034 409 
Q 2525 409 2770 889 
Q 3016 1369 3016 2328 
Q 3016 3291 2770 3770 
Q 2525 4250 2034 4250 
z
M 2034 4750 
Q 2819 4750 3233 4129 
Q 3647 3509 3647 2328 
Q 3647 1150 3233 529 
Q 2819 -91 2034 -91 
Q 1250 -91 836 529 
Q 422 1150 422 2328 
Q 422 3509 836 4129 
Q 1250 4750 2034 4750 
z
" transform="scale(0.015625)"/>
       </defs>
       <use xlink:href="#DejaVuSans-31"/>
       <use xlink:href="#DejaVuSans-34" transform="translate(63.623047 0)"/>
       <use xlink:href="#DejaVuSans-20" transform="translate(127.246094 0)"/>
       <use xlink:href="#DejaVuSans-31" transform="translate(159.033203 0)"/>
       <use xlink:href="#DejaVuSans-33" transform="translate(222.65625 0)"/>
       <use xlink:href="#DejaVuSans-3a" transform="translate(286.279297 0)"/>
       <use xlink:href="#DejaVuSans-33" transform="translate(319.970703 0)"/>
       <use xlink:href="#DejaVuSans-30" transform="translate(383.59375 0)"/>
      </g>
     </g>
    </g>
    <g id="xtick_2">
     <g id="line2d_3">
      <path d="M 193.628571 384.48 
L 193.628571 51.84 
" clip-path="url(#pa17b4d5c5e)" style="fill: none; stroke: #b0b0b0; stroke-width: 0.8; stroke-linecap: square"/>
     </g>
     <g id="line2d_4">
      <g>
       <use xlink:href="#m0ee5e07020" x="193.628571" y="384.48" style="stroke: #000000; stroke-width: 0.8"/>
      </g>
     </g>
     <g id="text_2">
      <!-- 14 14:00 -->
      <g transform="translate(171.267634 399.078438) scale(0.1 -0.1)">
       <use xlink:href="#DejaVuSans-31"/>
       <use xlink:href="#DejaVuSans-34" transform="translate(63.623047 0)"/>
       <use xlink:href="#DejaVuSans-20" transform="translate(127.246094 0)"/>
       <use xlink:href="#DejaVuSans-31" transform="translate(159.033203 0)"/>
       <use xlink:href="#DejaVuSans-34" transform="translate(222.65625 0)"/>
       <use xlink:href="#DejaVuSans-3a" transform="translate(286.279297 0)"/>
       <use xlink:href="#DejaVuSans-30" transform="translate(319.970703 0)"/>
       <use xlink:href="#DejaVuSans-30" transform="translate(383.59375 0)"/>
      </g>
     </g>
    </g>
    <g id="xtick_3">
     <g id="line2d_5">
      <path d="M 280.58961 384.48 
L 280.58961 51.84 
" clip-path="url(#pa17b4d5c5e)" style="fill: none; stroke: #b0b0b0; stroke-width: 0.8; stroke-linecap: square"/>
     </g>
     <g id="line2d_6">
      <g>
       <use xlink:href="#m0ee5e07020" x="280.58961" y="384.48" style="stroke: #000000; stroke-width: 0.8"/>
      </g>
     </g>
     <g id="text_3">
      <!-- 14 14:30 -->
      <g transform="translate(258.228673 399.078438) scale(0.1 -0.1)">
       <use xlink:href="#DejaVuSans-31"/>
       <use xlink:href="#DejaVuSans-34" transform="translate(63.623047 0)"/>
       <use xlink:href="#DejaVuSans-20" transform="translate(127.246094 0)"/>
       <use xlink:href="#DejaVuSans-31" transform="translate(159.033203 0)"/>
       <use xlink:href="#DejaVuSans-34" transform="translate(222.65625 0)"/>
       <use xlink:href="#DejaVuSans-3a" transform="translate(286.279297 0)"/>
       <use xlink:href="#DejaVuSans-33" transform="translate(319.970703 0)"/>
       <use xlink:href="#DejaVuSans-30" transform="translate(383.59375 0)"/>
      </g>
     </g>
    </g>
    <g id="xtick_4">
     <g id="line2d_7">
      <path d="M 367.550649 384.48 
L 367.550649 51.84 
" clip-path="url(#pa17b4d5c5e)" style="fill: none; stroke: #b0b0b0; stroke-width: 0.8; stroke-linecap: square"/>
     </g>
     <g id="line2d_8">
      <g>
       <use xlink:href="#m0ee5e07020" x="367.550649" y="384.48" style="stroke: #000000; stroke-width: 0.8"/>
      </g>
     </g>
     <g id="text_4">
      <!-- 14 15:00 -->
      <g transform="translate(345.189712 399.078438) scale(0.1 -0.1)">
       <defs>
        <path id="DejaVuSans-35" d="M 691 4666 
L 3169 4666 
L 3169 4134 
L 1269 4134 
L 1269 2991 
Q 1406 3038 1543 3061 
Q 1681 3084 1819 3084 
Q 2600 3084 3056 2656 
Q 3513 2228 3513 1497 
Q 3513 744 3044 326 
Q 2575 -91 1722 -91 
Q 1428 -91 1123 -41 
Q 819 9 494 109 
L 494 744 
Q 775 591 1075 516 
Q 1375 441 1709 441 
Q 2250 441 2565 725 
Q 2881 1009 2881 1497 
Q 2881 1984 2565 2268 
Q 2250 2553 1709 2553 
Q 1456 2553 1204 2497 
Q 953 2441 691 2322 
L 691 4666 
z
" transform="scale(0.015625)"/>
       </defs>
       <use xlink:href="#DejaVuSans-31"/>
       <use xlink:href="#DejaVuSans-34" transform="translate(63.623047 0)"/>
       <use xlink:href="#DejaVuSans-20" transform="translate(127.246094 0)"/>
       <use xlink:href="#DejaVuSans-31" transform="translate(159.033203 0)"/>
       <use xlink:href="#DejaVuSans-35" transform="translate(222.65625 0)"/>
       <use xlink:href="#DejaVuSans-3a" transform="translate(286.279297 0)"/>
       <use xlink:href="#DejaVuSans-30" transform="translate(319.970703 0)"/>
       <use xlink:href="#DejaVuSans-30" transform="translate(383.59375 0)"/>
      </g>
     </g>
    </g>
    <g id="xtick_5">
     <g id="line2d_9">
      <path d="M 454.511688 384.48 
L 454.511688 51.84 
" clip-path="url(#pa17b4d5c5e)" style="fill: none; stroke: #b0b0b0; stroke-width: 0.8; stroke-linecap: square"/>
     </g>
     <g id="line2d_10">
      <g>
       <use xlink:href="#m0ee5e07020" x="454.511688" y="384.48" style="stroke: #000000; stroke-width: 0.8"/>
      </g>
     </g>
     <g id="text_5">
      <!-- 14 15:30 -->
      <g transform="translate(432.150751 399.078438) scale(0.1 -0.1)">
       <use xlink:href="#DejaVuSans-31"/>
       <use xlink:href="#DejaVuSans-34" transform="translate(63.623047 0)"/>
       <use xlink:href="#DejaVuSans-20" transform="translate(127.246094 0)"/>
       <use xlink:href="#DejaVuSans-31" transform="translate(159.033203 0)"/>
       <use xlink:href="#DejaVuSans-35" transform="translate(222.65625 0)"/>
       <use xlink:href="#DejaVuSans-3a" transform="translate(286.279297 0)"/>
       <use xlink:href="#DejaVuSans-33" transform="translate(319.970703 0)"/>
       <use xlink:href="#DejaVuSans-30" transform="translate(383.59375 0)"/>
      </g>
     </g>
    </g>
    <g id="xtick_6">
     <g id="line2d_11">
      <path d="M 541.472727 384.48 
L 541.472727 51.84 
" clip-path="url(#pa17b4d5c5e)" style="fill: none; stroke: #b0b0b0; stroke-width: 0.8; stroke-linecap: square"/>
     </g>
     <g id="line2d_12">
      <g>
       <use xlink:href="#m0ee5e07020" x="541.472727" y="384.48" style="stroke: #000000; stroke-width: 0.8"/>
      </g>
     </g>
     <g id="text_6">
      <!-- 14 16:00 -->
      <g transform="translate(519.11179 399.078438) scale(0.1 -0.1)">
       <defs>
        <path id="DejaVuSans-36" d="M 2113 2584 
Q 1688 2584 1439 2293 
Q 1191 2003 1191 1497 
Q 1191 994 1439 701 
Q 1688 409 2113 409 
Q 2538 409 2786 701 
Q 3034 994 3034 1497 
Q 3034 2003 2786 2293 
Q 2538 2584 2113 2584 
z
M 3366 4563 
L 3366 3988 
Q 3128 4100 2886 4159 
Q 2644 4219 2406 4219 
Q 1781 4219 1451 3797 
Q 1122 3375 1075 2522 
Q 1259 2794 1537 2939 
Q 1816 3084 2150 3084 
Q 2853 3084 3261 2657 
Q 3669 2231 3669 1497 
Q 3669 778 3244 343 
Q 2819 -91 2113 -91 
Q 1303 -91 875 529 
Q 447 1150 447 2328 
Q 447 3434 972 4092 
Q 1497 4750 2381 4750 
Q 2619 4750 2861 4703 
Q 3103 4656 3366 4563 
z
" transform="scale(0.015625)"/>
       </defs>
       <use xlink:href="#DejaVuSans-31"/>
       <use xlink:href="#DejaVuSans-34" transform="translate(63.623047 0)"/>
       <use xlink:href="#DejaVuSans-20" transform="translate(127.246094 0)"/>
       <use xlink:href="#DejaVuSans-31" transform="translate(159.033203 0)"/>
       <use xlink:href="#DejaVuSans-36" transform="translate(222.65625 0)"/>
       <use xlink:href="#DejaVuSans-3a" transform="translate(286.279297 0)"/>
       <use xlink:href="#DejaVuSans-30" transform="translate(319.970703 0)"/>
       <use xlink:href="#DejaVuSans-30" transform="translate(383.59375 0)"/>
      </g>
     </g>
    </g>
    <g id="xtick_7">
     <g id="line2d_13">
      <path d="M 628.433766 384.48 
L 628.433766 51.84 
" clip-path="url(#pa17b4d5c5e)" style="fill: none; stroke: #b0b0b0; stroke-width: 0.8; stroke-linecap: square"/>
     </g>
     <g id="line2d_14">
      <g>
       <use xlink:href="#m0ee5e07020" x="628.433766" y="384.48" style="stroke: #000000; stroke-width: 0.8"/>
      </g>
     </g>
     <g id="text_7">
      <!-- 14 16:30 -->
      <g transform="translate(606.072829 399.078438) scale(0.1 -0.1)">
       <use xlink:href="#DejaVuSans-31"/>
       <use xlink:href="#DejaVuSans-34" transform="translate(63.623047 0)"/>
       <use xlink:href="#DejaVuSans-20" transform="translate(127.246094 0)"/>
       <use xlink:href="#DejaVuSans-31" transform="translate(159.033203 0)"/>
       <use xlink:href="#DejaVuSans-36" transform="translate(222.65625 0)"/>
       <use xlink:href="#DejaVuSans-3a" transform="translate(286.279297 0)"/>
       <use xlink:href="#DejaVuSans-33" transform="translate(319.970703 0)"/>
       <use xlink:href="#DejaVuSans-30" transform="translate(383.59375 0)"/>
      </g>
     </g>
    </g>
    <g id="text_8">
     <!-- Date and Time -->
     <g transform="translate(332.230469 412.756563) scale(0.1 -0.1)">
      <defs>
       <path id="DejaVuSans-44" d="M 1259 4147 
L 1259 519 
L 2022 519 
Q 2988 519 3436 956 
Q 3884 1394 3884 2338 
Q 3884 3275 3436 3711 
Q 2988 4147 2022 4147 
L 1259 4147 
z
M 628 4666 
L 1925 4666 
Q 3281 4666 3915 4102 
Q 4550 3538 4550 2338 
Q 4550 1131 3912 565 
Q 3275 0 1925 0 
L 628 0 
L 628 4666 
z
" transform="scale(0.015625)"/>
       <path id="DejaVuSans-61" d="M 2194 1759 
Q 1497 1759 1228 1600 
Q 959 1441 959 1056 
Q 959 750 1161 570 
Q 1363 391 1709 391 
Q 2188 391 2477 730 
Q 2766 1069 2766 1631 
L 2766 1759 
L 2194 1759 
z
M 3341 1997 
L 3341 0 
L 2766 0 
L 2766 531 
Q 2569 213 2275 61 
Q 1981 -91 1556 -91 
Q 1019 -91 701 211 
Q 384 513 384 1019 
Q 384 1609 779 1909 
Q 1175 2209 1959 2209 
L 2766 2209 
L 2766 2266 
Q 2766 2663 2505 2880 
Q 2244 3097 1772 3097 
Q 1472 3097 1187 3025 
Q 903 2953 641 2809 
L 641 3341 
Q 956 3463 1253 3523 
Q 1550 3584 1831 3584 
Q 2591 3584 2966 3190 
Q 3341 2797 3341 1997 
z
" transform="scale(0.015625)"/>
       <path id="DejaVuSans-74" d="M 1172 4494 
L 1172 3500 
L 2356 3500 
L 2356 3053 
L 1172 3053 
L 1172 1153 
Q 1172 725 1289 603 
Q 1406 481 1766 481 
L 2356 481 
L 2356 0 
L 1766 0 
Q 1100 0 847 248 
Q 594 497 594 1153 
L 594 3053 
L 172 3053 
L 172 3500 
L 594 3500 
L 594 4494 
L 1172 4494 
z
" transform="scale(0.015625)"/>
       <path id="DejaVuSans-65" d="M 3597 1894 
L 3597 1613 
L 953 1613 
Q 991 1019 1311 708 
Q 1631 397 2203 397 
Q 2534 397 2845 478 
Q 3156 559 3463 722 
L 3463 178 
Q 3153 47 2828 -22 
Q 2503 -91 2169 -91 
Q 1331 -91 842 396 
Q 353 884 353 1716 
Q 353 2575 817 3079 
Q 1281 3584 2069 3584 
Q 2775 3584 3186 3129 
Q 3597 2675 3597 1894 
z
M 3022 2063 
Q 3016 2534 2758 2815 
Q 2500 3097 2075 3097 
Q 1594 3097 1305 2825 
Q 1016 2553 972 2059 
L 3022 2063 
z
" transform="scale(0.015625)"/>
       <path id="DejaVuSans-6e" d="M 3513 2113 
L 3513 0 
L 2938 0 
L 2938 2094 
Q 2938 2591 2744 2837 
Q 2550 3084 2163 3084 
Q 1697 3084 1428 2787 
Q 1159 2491 1159 1978 
L 1159 0 
L 581 0 
L 581 3500 
L 1159 3500 
L 1159 2956 
Q 1366 3272 1645 3428 
Q 1925 3584 2291 3584 
Q 2894 3584 3203 3211 
Q 3513 2838 3513 2113 
z
" transform="scale(0.015625)"/>
       <path id="DejaVuSans-64" d="M 2906 2969 
L 2906 4863 
L 3481 4863 
L 3481 0 
L 2906 0 
L 2906 525 
Q 2725 213 2448 61 
Q 2172 -91 1784 -91 
Q 1150 -91 751 415 
Q 353 922 353 1747 
Q 353 2572 751 3078 
Q 1150 3584 1784 3584 
Q 2172 3584 2448 3432 
Q 2725 3281 2906 2969 
z
M 947 1747 
Q 947 1113 1208 752 
Q 1469 391 1925 391 
Q 2381 391 2643 752 
Q 2906 1113 2906 1747 
Q 2906 2381 2643 2742 
Q 2381 3103 1925 3103 
Q 1469 3103 1208 2742 
Q 947 2381 947 1747 
z
" transform="scale(0.015625)"/>
       <path id="DejaVuSans-54" d="M -19 4666 
L 3928 4666 
L 3928 4134 
L 2272 4134 
L 2272 0 
L 1638 0 
L 1638 4134 
L -19 4134 
L -19 4666 
z
" transform="scale(0.015625)"/>
       <path id="DejaVuSans-69" d="M 603 3500 
L 1178 3500 
L 1178 0 
L 603 0 
L 603 3500 
z
M 603 4863 
L 1178 4863 
L 1178 4134 
L 603 4134 
L 603 4863 
z
" transform="scale(0.015625)"/>
       <path id="DejaVuSans-6d" d="M 3328 2828 
Q 3544 3216 3844 3400 
Q 4144 3584 4550 3584 
Q 5097 3584 5394 3201 
Q 5691 2819 5691 2113 
L 5691 0 
L 5113 0 
L 5113 2094 
Q 5113 2597 4934 2840 
Q 4756 3084 4391 3084 
Q 3944 3084 3684 2787 
Q 3425 2491 3425 1978 
L 3425 0 
L 2847 0 
L 2847 2094 
Q 2847 2600 2669 2842 
Q 2491 3084 2119 3084 
Q 1678 3084 1418 2786 
Q 1159 2488 1159 1978 
L 1159 0 
L 581 0 
L 581 3500 
L 1159 3500 
L 1159 2956 
Q 1356 3278 1631 3431 
Q 1906 3584 2284 3584 
Q 2666 3584 2933 3390 
Q 3200 3197 3328 2828 
z
" transform="scale(0.015625)"/>
      </defs>
      <use xlink:href="#DejaVuSans-44"/>
      <use xlink:href="#DejaVuSans-61" transform="translate(77.001953 0)"/>
      <use xlink:href="#DejaVuSans-74" transform="translate(138.28125 0)"/>
      <use xlink:href="#DejaVuSans-65" transform="translate(177.490234 0)"/>
      <use xlink:href="#DejaVuSans-20" transform="translate(239.013672 0)"/>
      <use xlink:href="#DejaVuSans-61" transform="translate(270.800781 0)"/>
      <use xlink:href="#DejaVuSans-6e" transform="translate(332.080078 0)"/>
      <use xlink:href="#DejaVuSans-64" transform="translate(395.458984 0)"/>
      <use xlink:href="#DejaVuSans-20" transform="translate(458.935547 0)"/>
      <use xlink:href="#DejaVuSans-54" transform="translate(490.722656 0)"/>
      <use xlink:href="#DejaVuSans-69" transform="translate(548.681641 0)"/>
      <use xlink:href="#DejaVuSans-6d" transform="translate(576.464844 0)"/>
      <use xlink:href="#DejaVuSans-65" transform="translate(673.876953 0)"/>
     </g>
    </g>
   </g>
   <g id="matplotlib.axis_2">
    <g id="ytick_1">
     <g id="line2d_15">
      <path d="M 90 370.895025 
L 648 370.895025 
" clip-path="url(#pa17b4d5c5e)" style="fill: none; stroke: #b0b0b0; stroke-width: 0.8; stroke-linecap: square"/>
     </g>
     <g id="line2d_16">
      <defs>
       <path id="m343de141c3" d="M 0 0 
L -3.5 0 
" style="stroke: #000000; stroke-width: 0.8"/>
      </defs>
      <g>
       <use xlink:href="#m343de141c3" x="90" y="370.895025" style="stroke: #000000; stroke-width: 0.8"/>
      </g>
     </g>
     <g id="text_9">
      <!-- 0 -->
      <g transform="translate(76.6375 374.694244) scale(0.1 -0.1)">
       <use xlink:href="#DejaVuSans-30"/>
      </g>
     </g>
    </g>
    <g id="ytick_2">
     <g id="line2d_17">
      <path d="M 90 332.519391 
L 648 332.519391 
" clip-path="url(#pa17b4d5c5e)" style="fill: none; stroke: #b0b0b0; stroke-width: 0.8; stroke-linecap: square"/>
     </g>
     <g id="line2d_18">
      <g>
       <use xlink:href="#m343de141c3" x="90" y="332.519391" style="stroke: #000000; stroke-width: 0.8"/>
      </g>
     </g>
     <g id="text_10">
      <!-- 25 -->
      <g transform="translate(70.275 336.31861) scale(0.1 -0.1)">
       <defs>
        <path id="DejaVuSans-32" d="M 1228 531 
L 3431 531 
L 3431 0 
L 469 0 
L 469 531 
Q 828 903 1448 1529 
Q 2069 2156 2228 2338 
Q 2531 2678 2651 2914 
Q 2772 3150 2772 3378 
Q 2772 3750 2511 3984 
Q 2250 4219 1831 4219 
Q 1534 4219 1204 4116 
Q 875 4013 500 3803 
L 500 4441 
Q 881 4594 1212 4672 
Q 1544 4750 1819 4750 
Q 2544 4750 2975 4387 
Q 3406 4025 3406 3419 
Q 3406 3131 3298 2873 
Q 3191 2616 2906 2266 
Q 2828 2175 2409 1742 
Q 1991 1309 1228 531 
z
" transform="scale(0.015625)"/>
       </defs>
       <use xlink:href="#DejaVuSans-32"/>
       <use xlink:href="#DejaVuSans-35" transform="translate(63.623047 0)"/>
      </g>
     </g>
    </g>
    <g id="ytick_3">
     <g id="line2d_19">
      <path d="M 90 294.143756 
L 648 294.143756 
" clip-path="url(#pa17b4d5c5e)" style="fill: none; stroke: #b0b0b0; stroke-width: 0.8; stroke-linecap: square"/>
     </g>
     <g id="line2d_20">
      <g>
       <use xlink:href="#m343de141c3" x="90" y="294.143756" style="stroke: #000000; stroke-width: 0.8"/>
      </g>
     </g>
     <g id="text_11">
      <!-- 50 -->
      <g transform="translate(70.275 297.942975) scale(0.1 -0.1)">
       <use xlink:href="#DejaVuSans-35"/>
       <use xlink:href="#DejaVuSans-30" transform="translate(63.623047 0)"/>
      </g>
     </g>
    </g>
    <g id="ytick_4">
     <g id="line2d_21">
      <path d="M 90 255.768122 
L 648 255.768122 
" clip-path="url(#pa17b4d5c5e)" style="fill: none; stroke: #b0b0b0; stroke-width: 0.8; stroke-linecap: square"/>
     </g>
     <g id="line2d_22">
      <g>
       <use xlink:href="#m343de141c3" x="90" y="255.768122" style="stroke: #000000; stroke-width: 0.8"/>
      </g>
     </g>
     <g id="text_12">
      <!-- 75 -->
      <g transform="translate(70.275 259.567341) scale(0.1 -0.1)">
       <defs>
        <path id="DejaVuSans-37" d="M 525 4666 
L 3525 4666 
L 3525 4397 
L 1831 0 
L 1172 0 
L 2766 4134 
L 525 4134 
L 525 4666 
z
" transform="scale(0.015625)"/>
       </defs>
       <use xlink:href="#DejaVuSans-37"/>
       <use xlink:href="#DejaVuSans-35" transform="translate(63.623047 0)"/>
      </g>
     </g>
    </g>
    <g id="ytick_5">
     <g id="line2d_23">
      <path d="M 90 217.392487 
L 648 217.392487 
" clip-path="url(#pa17b4d5c5e)" style="fill: none; stroke: #b0b0b0; stroke-width: 0.8; stroke-linecap: square"/>
     </g>
     <g id="line2d_24">
      <g>
       <use xlink:href="#m343de141c3" x="90" y="217.392487" style="stroke: #000000; stroke-width: 0.8"/>
      </g>
     </g>
     <g id="text_13">
      <!-- 100 -->
      <g transform="translate(63.9125 221.191706) scale(0.1 -0.1)">
       <use xlink:href="#DejaVuSans-31"/>
       <use xlink:href="#DejaVuSans-30" transform="translate(63.623047 0)"/>
       <use xlink:href="#DejaVuSans-30" transform="translate(127.246094 0)"/>
      </g>
     </g>
    </g>
    <g id="ytick_6">
     <g id="line2d_25">
      <path d="M 90 179.016853 
L 648 179.016853 
" clip-path="url(#pa17b4d5c5e)" style="fill: none; stroke: #b0b0b0; stroke-width: 0.8; stroke-linecap: square"/>
     </g>
     <g id="line2d_26">
      <g>
       <use xlink:href="#m343de141c3" x="90" y="179.016853" style="stroke: #000000; stroke-width: 0.8"/>
      </g>
     </g>
     <g id="text_14">
      <!-- 125 -->
      <g transform="translate(63.9125 182.816072) scale(0.1 -0.1)">
       <use xlink:href="#DejaVuSans-31"/>
       <use xlink:href="#DejaVuSans-32" transform="translate(63.623047 0)"/>
       <use xlink:href="#DejaVuSans-35" transform="translate(127.246094 0)"/>
      </g>
     </g>
    </g>
    <g id="ytick_7">
     <g id="line2d_27">
      <path d="M 90 140.641218 
L 648 140.641218 
" clip-path="url(#pa17b4d5c5e)" style="fill: none; stroke: #b0b0b0; stroke-width: 0.8; stroke-linecap: square"/>
     </g>
     <g id="line2d_28">
      <g>
       <use xlink:href="#m343de141c3" x="90" y="140.641218" style="stroke: #000000; stroke-width: 0.8"/>
      </g>
     </g>
     <g id="text_15">
      <!-- 150 -->
      <g transform="translate(63.9125 144.440437) scale(0.1 -0.1)">
       <use xlink:href="#DejaVuSans-31"/>
       <use xlink:href="#DejaVuSans-35" transform="translate(63.623047 0)"/>
       <use xlink:href="#DejaVuSans-30" transform="translate(127.246094 0)"/>
      </g>
     </g>
    </g>
    <g id="ytick_8">
     <g id="line2d_29">
      <path d="M 90 102.265584 
L 648 102.265584 
" clip-path="url(#pa17b4d5c5e)" style="fill: none; stroke: #b0b0b0; stroke-width: 0.8; stroke-linecap: square"/>
     </g>
     <g id="line2d_30">
      <g>
       <use xlink:href="#m343de141c3" x="90" y="102.265584" style="stroke: #000000; stroke-width: 0.8"/>
      </g>
     </g>
     <g id="text_16">
      <!-- 175 -->
      <g transform="translate(63.9125 106.064803) scale(0.1 -0.1)">
       <use xlink:href="#DejaVuSans-31"/>
       <use xlink:href="#DejaVuSans-37" transform="translate(63.623047 0)"/>
       <use xlink:href="#DejaVuSans-35" transform="translate(127.246094 0)"/>
      </g>
     </g>
    </g>
    <g id="ytick_9">
     <g id="line2d_31">
      <path d="M 90 63.889949 
L 648 63.889949 
" clip-path="url(#pa17b4d5c5e)" style="fill: none; stroke: #b0b0b0; stroke-width: 0.8; stroke-linecap: square"/>
     </g>
     <g id="line2d_32">
      <g>
       <use xlink:href="#m343de141c3" x="90" y="63.889949" style="stroke: #000000; stroke-width: 0.8"/>
      </g>
     </g>
     <g id="text_17">
      <!-- 200 -->
      <g transform="translate(63.9125 67.689168) scale(0.1 -0.1)">
       <use xlink:href="#DejaVuSans-32"/>
       <use xlink:href="#DejaVuSans-30" transform="translate(63.623047 0)"/>
       <use xlink:href="#DejaVuSans-30" transform="translate(127.246094 0)"/>
      </g>
     </g>
    </g>
    <g id="text_18">
     <!-- Votes -->
     <g transform="translate(57.832812 231.893594) rotate(-90) scale(0.1 -0.1)">
      <defs>
       <path id="DejaVuSans-56" d="M 1831 0 
L 50 4666 
L 709 4666 
L 2188 738 
L 3669 4666 
L 4325 4666 
L 2547 0 
L 1831 0 
z
" transform="scale(0.015625)"/>
       <path id="DejaVuSans-6f" d="M 1959 3097 
Q 1497 3097 1228 2736 
Q 959 2375 959 1747 
Q 959 1119 1226 758 
Q 1494 397 1959 397 
Q 2419 397 2687 759 
Q 2956 1122 2956 1747 
Q 2956 2369 2687 2733 
Q 2419 3097 1959 3097 
z
M 1959 3584 
Q 2709 3584 3137 3096 
Q 3566 2609 3566 1747 
Q 3566 888 3137 398 
Q 2709 -91 1959 -91 
Q 1206 -91 779 398 
Q 353 888 353 1747 
Q 353 2609 779 3096 
Q 1206 3584 1959 3584 
z
" transform="scale(0.015625)"/>
       <path id="DejaVuSans-73" d="M 2834 3397 
L 2834 2853 
Q 2591 2978 2328 3040 
Q 2066 3103 1784 3103 
Q 1356 3103 1142 2972 
Q 928 2841 928 2578 
Q 928 2378 1081 2264 
Q 1234 2150 1697 2047 
L 1894 2003 
Q 2506 1872 2764 1633 
Q 3022 1394 3022 966 
Q 3022 478 2636 193 
Q 2250 -91 1575 -91 
Q 1294 -91 989 -36 
Q 684 19 347 128 
L 347 722 
Q 666 556 975 473 
Q 1284 391 1588 391 
Q 1994 391 2212 530 
Q 2431 669 2431 922 
Q 2431 1156 2273 1281 
Q 2116 1406 1581 1522 
L 1381 1569 
Q 847 1681 609 1914 
Q 372 2147 372 2553 
Q 372 3047 722 3315 
Q 1072 3584 1716 3584 
Q 2034 3584 2315 3537 
Q 2597 3491 2834 3397 
z
" transform="scale(0.015625)"/>
      </defs>
      <use xlink:href="#DejaVuSans-56"/>
      <use xlink:href="#DejaVuSans-6f" transform="translate(60.658203 0)"/>
      <use xlink:href="#DejaVuSans-74" transform="translate(121.839844 0)"/>
      <use xlink:href="#DejaVuSans-65" transform="translate(161.048828 0)"/>
      <use xlink:href="#DejaVuSans-73" transform="translate(222.572266 0)"/>
     </g>
    </g>
   </g>
   <g id="line2d_33">
    <path d="M 115.363636 343.264569 
L 144.350649 343.264569 
L 147.249351 341.729543 
L 176.236364 341.729543 
L 179.135065 338.659492 
L 205.223377 338.659492 
L 208.122078 337.124467 
L 222.615584 337.124467 
L 225.514286 335.589442 
L 237.109091 335.589442 
L 240.007792 334.054416 
L 248.703896 334.054416 
L 251.602597 332.519391 
L 292.184416 332.519391 
L 295.083117 330.984365 
L 326.968831 330.984365 
L 332.766234 327.914315 
L 338.563636 327.914315 
L 341.462338 326.379289 
L 367.550649 326.379289 
L 373.348052 323.309239 
L 408.132468 323.309239 
L 411.031169 321.774213 
L 419.727273 321.774213 
L 422.625974 320.239188 
L 425.524675 320.239188 
L 428.423377 318.704162 
L 506.688312 318.704162 
L 509.587013 317.169137 
L 544.371429 317.169137 
L 547.27013 315.634112 
L 567.561039 315.634112 
L 570.45974 314.099086 
L 573.358442 311.029036 
L 576.257143 311.029036 
L 582.054545 307.958985 
L 622.636364 307.958985 
L 622.636364 307.958985 
" clip-path="url(#pa17b4d5c5e)" style="fill: none; stroke: #1f77b4; stroke-width: 1.5; stroke-linecap: square"/>
   </g>
   <g id="line2d_34">
    <path d="M 115.363636 245.022944 
L 118.262338 243.487919 
L 126.958442 243.487919 
L 129.857143 241.952893 
L 132.755844 241.952893 
L 135.654545 240.417868 
L 138.553247 240.417868 
L 144.350649 237.347817 
L 147.249351 234.277766 
L 150.148052 234.277766 
L 155.945455 231.207716 
L 158.844156 231.207716 
L 161.742857 225.067614 
L 164.641558 221.997563 
L 167.54026 215.857462 
L 170.438961 211.252386 
L 179.135065 211.252386 
L 182.033766 206.64731 
L 184.932468 203.577259 
L 190.72987 200.507208 
L 193.628571 197.437157 
L 199.425974 194.367107 
L 202.324675 191.297056 
L 211.020779 191.297056 
L 213.919481 183.621929 
L 216.818182 180.551878 
L 219.716883 179.016853 
L 222.615584 175.946802 
L 225.514286 174.411777 
L 228.412987 174.411777 
L 231.311688 169.806701 
L 234.21039 169.806701 
L 237.109091 166.73665 
L 240.007792 165.201624 
L 242.906494 165.201624 
L 245.805195 163.666599 
L 251.602597 163.666599 
L 254.501299 162.131574 
L 260.298701 162.131574 
L 263.197403 159.061523 
L 266.096104 159.061523 
L 268.994805 157.526497 
L 280.58961 157.526497 
L 283.488312 155.991472 
L 292.184416 155.991472 
L 295.083117 154.456447 
L 297.981818 154.456447 
L 300.880519 151.386396 
L 303.779221 151.386396 
L 306.677922 148.316345 
L 309.576623 146.78132 
L 318.272727 146.78132 
L 321.171429 143.711269 
L 324.07013 142.176244 
L 326.968831 137.571168 
L 332.766234 134.501117 
L 355.955844 134.501117 
L 358.854545 129.896041 
L 361.753247 129.896041 
L 367.550649 126.82599 
L 370.449351 126.82599 
L 379.145455 122.220914 
L 384.942857 122.220914 
L 387.841558 120.685888 
L 393.638961 120.685888 
L 402.335065 116.080812 
L 408.132468 116.080812 
L 411.031169 114.545787 
L 425.524675 114.545787 
L 428.423377 113.010761 
L 434.220779 113.010761 
L 437.119481 111.475736 
L 471.903896 111.475736 
L 474.802597 108.405685 
L 480.6 108.405685 
L 486.397403 105.335635 
L 489.296104 105.335635 
L 492.194805 103.800609 
L 509.587013 103.800609 
L 518.283117 99.195533 
L 521.181818 99.195533 
L 524.080519 97.660508 
L 526.979221 94.590457 
L 529.877922 94.590457 
L 532.776623 93.055431 
L 535.675325 93.055431 
L 547.27013 86.91533 
L 553.067532 86.91533 
L 555.966234 83.845279 
L 564.662338 83.845279 
L 567.561039 82.310254 
L 576.257143 82.310254 
L 579.155844 80.775228 
L 582.054545 80.775228 
L 584.953247 76.170152 
L 593.649351 76.170152 
L 596.548052 74.635127 
L 599.446753 71.565076 
L 605.244156 71.565076 
L 608.142857 70.030051 
L 613.94026 70.030051 
L 616.838961 68.495025 
L 619.737662 68.495025 
L 622.636364 66.96 
L 622.636364 66.96 
" clip-path="url(#pa17b4d5c5e)" style="fill: none; stroke: #ff7f0e; stroke-width: 1.5; stroke-linecap: square"/>
   </g>
   <g id="line2d_35">
    <path d="M 115.363636 323.309239 
L 126.958442 323.309239 
L 129.857143 320.239188 
L 135.654545 320.239188 
L 138.553247 318.704162 
L 141.451948 315.634112 
L 144.350649 314.099086 
L 147.249351 309.49401 
L 150.148052 306.423959 
L 153.046753 304.888934 
L 155.945455 304.888934 
L 158.844156 301.818883 
L 161.742857 297.213807 
L 173.337662 297.213807 
L 176.236364 295.678782 
L 179.135065 295.678782 
L 182.033766 292.608731 
L 190.72987 292.608731 
L 196.527273 289.53868 
L 208.122078 289.53868 
L 211.020779 288.003655 
L 222.615584 288.003655 
L 231.311688 283.398579 
L 245.805195 283.398579 
L 248.703896 281.863553 
L 257.4 281.863553 
L 260.298701 280.328528 
L 266.096104 280.328528 
L 268.994805 277.258477 
L 292.184416 277.258477 
L 295.083117 275.723452 
L 297.981818 272.653401 
L 300.880519 271.118376 
L 303.779221 271.118376 
L 306.677922 269.58335 
L 312.475325 269.58335 
L 315.374026 268.048325 
L 321.171429 268.048325 
L 324.07013 266.513299 
L 341.462338 266.513299 
L 344.361039 264.978274 
L 347.25974 264.978274 
L 350.158442 263.443249 
L 353.057143 263.443249 
L 355.955844 261.908223 
L 364.651948 261.908223 
L 367.550649 260.373198 
L 370.449351 257.303147 
L 384.942857 257.303147 
L 393.638961 252.698071 
L 402.335065 252.698071 
L 405.233766 251.163046 
L 416.828571 251.163046 
L 419.727273 249.62802 
L 422.625974 249.62802 
L 425.524675 248.092995 
L 431.322078 248.092995 
L 434.220779 246.55797 
L 442.916883 246.55797 
L 448.714286 243.487919 
L 451.612987 243.487919 
L 454.511688 241.952893 
L 477.701299 241.952893 
L 480.6 238.882843 
L 483.498701 237.347817 
L 506.688312 237.347817 
L 509.587013 235.812792 
L 518.283117 235.812792 
L 521.181818 234.277766 
L 529.877922 234.277766 
L 532.776623 232.742741 
L 561.763636 232.742741 
L 564.662338 231.207716 
L 576.257143 231.207716 
L 579.155844 229.67269 
L 596.548052 229.67269 
L 599.446753 228.137665 
L 605.244156 228.137665 
L 608.142857 226.60264 
L 619.737662 226.60264 
L 622.636364 225.067614 
L 622.636364 225.067614 
" clip-path="url(#pa17b4d5c5e)" style="fill: none; stroke: #2ca02c; stroke-width: 1.5; stroke-linecap: square"/>
   </g>
   <g id="line2d_36">
    <path d="M 115.363636 369.36 
L 622.636364 369.36 
L 622.636364 369.36 
" clip-path="url(#pa17b4d5c5e)" style="fill: none; stroke: #d62728; stroke-width: 1.5; stroke-linecap: square"/>
   </g>
   <g id="line2d_37">
    <path d="M 115.363636 335.589442 
L 124.05974 335.589442 
L 126.958442 334.054416 
L 144.350649 334.054416 
L 147.249351 332.519391 
L 164.641558 332.519391 
L 167.54026 330.984365 
L 231.311688 330.984365 
L 234.21039 329.44934 
L 338.563636 329.44934 
L 344.361039 326.379289 
L 367.550649 326.379289 
L 370.449351 324.844264 
L 382.044156 324.844264 
L 384.942857 323.309239 
L 390.74026 323.309239 
L 393.638961 321.774213 
L 469.005195 321.774213 
L 471.903896 320.239188 
L 590.750649 320.239188 
L 593.649351 318.704162 
L 622.636364 318.704162 
L 622.636364 318.704162 
" clip-path="url(#pa17b4d5c5e)" style="fill: none; stroke: #9467bd; stroke-width: 1.5; stroke-linecap: square"/>
   </g>
   <g id="line2d_38">
    <path d="M 115.363636 347.869645 
L 118.262338 347.869645 
L 121.161039 346.334619 
L 161.742857 346.334619 
L 164.641558 344.799594 
L 199.425974 344.799594 
L 202.324675 343.264569 
L 245.805195 343.264569 
L 251.602597 340.194518 
L 283.488312 340.194518 
L 286.387013 338.659492 
L 373.348052 338.659492 
L 376.246753 337.124467 
L 402.335065 337.124467 
L 405.233766 335.589442 
L 454.511688 335.589442 
L 457.41039 334.054416 
L 503.78961 334.054416 
L 506.688312 332.519391 
L 518.283117 332.519391 
L 521.181818 330.984365 
L 547.27013 330.984365 
L 550.168831 329.44934 
L 619.737662 329.44934 
L 622.636364 327.914315 
L 622.636364 327.914315 
" clip-path="url(#pa17b4d5c5e)" style="fill: none; stroke: #8c564b; stroke-width: 1.5; stroke-linecap: square"/>
   </g>
   <g id="line2d_39">
    <path d="M 115.363636 234.277766 
L 126.958442 234.277766 
L 129.857143 232.742741 
L 141.451948 232.742741 
L 147.249351 229.67269 
L 150.148052 229.67269 
L 153.046753 228.137665 
L 155.945455 228.137665 
L 158.844156 226.60264 
L 164.641558 226.60264 
L 167.54026 225.067614 
L 176.236364 225.067614 
L 179.135065 223.532589 
L 184.932468 223.532589 
L 187.831169 221.997563 
L 190.72987 221.997563 
L 193.628571 220.462538 
L 199.425974 220.462538 
L 205.223377 217.392487 
L 216.818182 217.392487 
L 219.716883 215.857462 
L 228.412987 215.857462 
L 234.21039 212.787411 
L 240.007792 212.787411 
L 242.906494 211.252386 
L 248.703896 211.252386 
L 251.602597 209.71736 
L 254.501299 206.64731 
L 257.4 202.042234 
L 263.197403 202.042234 
L 266.096104 200.507208 
L 280.58961 200.507208 
L 286.387013 197.437157 
L 289.285714 194.367107 
L 292.184416 192.832081 
L 295.083117 192.832081 
L 297.981818 189.76203 
L 309.576623 189.76203 
L 312.475325 188.227005 
L 315.374026 188.227005 
L 321.171429 185.156954 
L 324.07013 185.156954 
L 326.968831 183.621929 
L 329.867532 183.621929 
L 335.664935 180.551878 
L 341.462338 180.551878 
L 344.361039 177.481827 
L 355.955844 177.481827 
L 361.753247 174.411777 
L 367.550649 174.411777 
L 370.449351 172.876751 
L 373.348052 169.806701 
L 382.044156 169.806701 
L 384.942857 168.271675 
L 387.841558 168.271675 
L 390.74026 165.201624 
L 393.638961 165.201624 
L 396.537662 163.666599 
L 399.436364 163.666599 
L 402.335065 162.131574 
L 413.92987 162.131574 
L 419.727273 159.061523 
L 422.625974 159.061523 
L 425.524675 155.991472 
L 428.423377 155.991472 
L 431.322078 154.456447 
L 434.220779 154.456447 
L 437.119481 152.921421 
L 445.815584 152.921421 
L 448.714286 151.386396 
L 451.612987 151.386396 
L 463.207792 145.246294 
L 466.106494 142.176244 
L 471.903896 142.176244 
L 477.701299 136.036142 
L 483.498701 136.036142 
L 489.296104 132.966091 
L 492.194805 132.966091 
L 495.093507 129.896041 
L 497.992208 129.896041 
L 500.890909 128.361015 
L 503.78961 128.361015 
L 506.688312 126.82599 
L 512.485714 126.82599 
L 515.384416 125.290964 
L 518.283117 125.290964 
L 521.181818 123.755939 
L 532.776623 123.755939 
L 535.675325 116.080812 
L 538.574026 116.080812 
L 541.472727 114.545787 
L 550.168831 114.545787 
L 553.067532 113.010761 
L 579.155844 113.010761 
L 582.054545 109.940711 
L 593.649351 109.940711 
L 596.548052 108.405685 
L 622.636364 108.405685 
L 622.636364 108.405685 
" clip-path="url(#pa17b4d5c5e)" style="fill: none; stroke: #e377c2; stroke-width: 1.5; stroke-linecap: square"/>
   </g>
   <g id="line2d_40">
    <path d="M 115.363636 329.44934 
L 118.262338 329.44934 
L 124.05974 326.379289 
L 138.553247 326.379289 
L 141.451948 324.844264 
L 144.350649 324.844264 
L 150.148052 321.774213 
L 155.945455 321.774213 
L 158.844156 320.239188 
L 167.54026 320.239188 
L 170.438961 318.704162 
L 173.337662 318.704162 
L 176.236364 317.169137 
L 179.135065 317.169137 
L 184.932468 314.099086 
L 193.628571 314.099086 
L 196.527273 312.564061 
L 202.324675 312.564061 
L 208.122078 309.49401 
L 213.919481 309.49401 
L 219.716883 306.423959 
L 222.615584 306.423959 
L 225.514286 304.888934 
L 228.412987 300.283858 
L 240.007792 300.283858 
L 251.602597 294.143756 
L 254.501299 294.143756 
L 260.298701 291.073706 
L 263.197403 291.073706 
L 266.096104 289.53868 
L 268.994805 289.53868 
L 271.893507 288.003655 
L 297.981818 288.003655 
L 300.880519 286.468629 
L 329.867532 286.468629 
L 335.664935 283.398579 
L 344.361039 283.398579 
L 347.25974 281.863553 
L 353.057143 281.863553 
L 358.854545 278.793503 
L 364.651948 278.793503 
L 367.550649 275.723452 
L 376.246753 275.723452 
L 379.145455 272.653401 
L 382.044156 271.118376 
L 396.537662 271.118376 
L 399.436364 269.58335 
L 402.335065 269.58335 
L 408.132468 266.513299 
L 422.625974 266.513299 
L 425.524675 264.978274 
L 428.423377 264.978274 
L 431.322078 263.443249 
L 448.714286 263.443249 
L 451.612987 261.908223 
L 460.309091 261.908223 
L 463.207792 260.373198 
L 466.106494 260.373198 
L 469.005195 255.768122 
L 471.903896 255.768122 
L 474.802597 252.698071 
L 477.701299 251.163046 
L 480.6 251.163046 
L 486.397403 248.092995 
L 492.194805 248.092995 
L 495.093507 246.55797 
L 500.890909 246.55797 
L 503.78961 245.022944 
L 506.688312 245.022944 
L 509.587013 241.952893 
L 512.485714 241.952893 
L 515.384416 240.417868 
L 521.181818 240.417868 
L 526.979221 237.347817 
L 529.877922 237.347817 
L 532.776623 234.277766 
L 535.675325 232.742741 
L 555.966234 232.742741 
L 558.864935 229.67269 
L 567.561039 229.67269 
L 570.45974 228.137665 
L 573.358442 228.137665 
L 576.257143 226.60264 
L 584.953247 226.60264 
L 587.851948 225.067614 
L 602.345455 225.067614 
L 605.244156 223.532589 
L 611.041558 223.532589 
L 613.94026 221.997563 
L 622.636364 221.997563 
L 622.636364 221.997563 
" clip-path="url(#pa17b4d5c5e)" style="fill: none; stroke: #7f7f7f; stroke-width: 1.5; stroke-linecap: square"/>
   </g>
   <g id="line2d_41">
    <path d="M 115.363636 338.659492 
L 126.958442 338.659492 
L 129.857143 337.124467 
L 158.844156 337.124467 
L 161.742857 335.589442 
L 176.236364 335.589442 
L 179.135065 334.054416 
L 208.122078 334.054416 
L 211.020779 332.519391 
L 240.007792 332.519391 
L 242.906494 330.984365 
L 399.436364 330.984365 
L 402.335065 329.44934 
L 416.828571 329.44934 
L 419.727273 327.914315 
L 440.018182 327.914315 
L 442.916883 326.379289 
L 445.815584 326.379289 
L 448.714286 321.774213 
L 451.612987 320.239188 
L 457.41039 320.239188 
L 460.309091 318.704162 
L 489.296104 318.704162 
L 492.194805 317.169137 
L 518.283117 317.169137 
L 521.181818 315.634112 
L 553.067532 315.634112 
L 555.966234 314.099086 
L 590.750649 314.099086 
L 593.649351 312.564061 
L 608.142857 312.564061 
L 611.041558 311.029036 
L 622.636364 311.029036 
L 622.636364 311.029036 
" clip-path="url(#pa17b4d5c5e)" style="fill: none; stroke: #bcbd22; stroke-width: 1.5; stroke-linecap: square"/>
   </g>
   <g id="line2d_42">
    <path d="M 115.363636 366.289949 
L 260.298701 366.289949 
L 263.197403 364.754924 
L 445.815584 364.754924 
L 448.714286 363.219898 
L 622.636364 363.219898 
L 622.636364 363.219898 
" clip-path="url(#pa17b4d5c5e)" style="fill: none; stroke: #17becf; stroke-width: 1.5; stroke-linecap: square"/>
   </g>
   <g id="line2d_43">
    <path d="M 115.363636 369.36 
L 118.262338 367.824975 
L 124.05974 367.824975 
L 126.958442 366.289949 
L 147.249351 366.289949 
L 150.148052 364.754924 
L 158.844156 364.754924 
L 161.742857 363.219898 
L 164.641558 363.219898 
L 170.438961 360.149848 
L 184.932468 360.149848 
L 190.72987 357.079797 
L 193.628571 357.079797 
L 196.527273 355.544772 
L 216.818182 355.544772 
L 219.716883 354.009746 
L 222.615584 350.939695 
L 228.412987 350.939695 
L 231.311688 349.40467 
L 234.21039 349.40467 
L 237.109091 347.869645 
L 240.007792 347.869645 
L 242.906494 346.334619 
L 245.805195 346.334619 
L 251.602597 343.264569 
L 268.994805 343.264569 
L 274.792208 340.194518 
L 283.488312 340.194518 
L 286.387013 338.659492 
L 289.285714 338.659492 
L 292.184416 335.589442 
L 300.880519 335.589442 
L 306.677922 329.44934 
L 324.07013 329.44934 
L 326.968831 326.379289 
L 329.867532 324.844264 
L 338.563636 324.844264 
L 341.462338 323.309239 
L 344.361039 320.239188 
L 350.158442 320.239188 
L 353.057143 318.704162 
L 393.638961 318.704162 
L 396.537662 315.634112 
L 416.828571 304.888934 
L 445.815584 304.888934 
L 454.511688 300.283858 
L 460.309091 300.283858 
L 463.207792 297.213807 
L 469.005195 297.213807 
L 471.903896 295.678782 
L 480.6 295.678782 
L 483.498701 294.143756 
L 486.397403 294.143756 
L 489.296104 292.608731 
L 492.194805 292.608731 
L 497.992208 289.53868 
L 535.675325 289.53868 
L 541.472727 286.468629 
L 564.662338 286.468629 
L 567.561039 284.933604 
L 576.257143 284.933604 
L 582.054545 281.863553 
L 590.750649 281.863553 
L 593.649351 280.328528 
L 599.446753 280.328528 
L 602.345455 278.793503 
L 616.838961 278.793503 
L 619.737662 277.258477 
L 622.636364 277.258477 
L 622.636364 277.258477 
" clip-path="url(#pa17b4d5c5e)" style="fill: none; stroke: #1f77b4; stroke-width: 1.5; stroke-linecap: square"/>
   </g>
   <g id="line2d_44">
    <path d="M 115.363636 312.564061 
L 135.654545 312.564061 
L 138.553247 311.029036 
L 147.249351 311.029036 
L 150.148052 309.49401 
L 161.742857 309.49401 
L 164.641558 307.958985 
L 173.337662 307.958985 
L 176.236364 306.423959 
L 179.135065 306.423959 
L 182.033766 304.888934 
L 190.72987 304.888934 
L 193.628571 303.353909 
L 199.425974 303.353909 
L 202.324675 301.818883 
L 205.223377 301.818883 
L 211.020779 298.748832 
L 228.412987 298.748832 
L 231.311688 297.213807 
L 234.21039 297.213807 
L 237.109091 295.678782 
L 240.007792 295.678782 
L 242.906494 292.608731 
L 245.805195 288.003655 
L 248.703896 286.468629 
L 260.298701 286.468629 
L 268.994805 281.863553 
L 277.690909 281.863553 
L 283.488312 278.793503 
L 315.374026 278.793503 
L 318.272727 274.188426 
L 321.171429 274.188426 
L 326.968831 268.048325 
L 332.766234 264.978274 
L 335.664935 264.978274 
L 338.563636 261.908223 
L 361.753247 261.908223 
L 364.651948 258.838173 
L 373.348052 258.838173 
L 376.246753 257.303147 
L 396.537662 257.303147 
L 399.436364 255.768122 
L 434.220779 255.768122 
L 437.119481 254.233096 
L 440.018182 254.233096 
L 442.916883 252.698071 
L 451.612987 252.698071 
L 454.511688 251.163046 
L 489.296104 251.163046 
L 492.194805 249.62802 
L 497.992208 249.62802 
L 503.78961 243.487919 
L 509.587013 243.487919 
L 515.384416 240.417868 
L 521.181818 240.417868 
L 524.080519 238.882843 
L 532.776623 238.882843 
L 535.675325 237.347817 
L 570.45974 237.347817 
L 573.358442 235.812792 
L 616.838961 235.812792 
L 619.737662 234.277766 
L 622.636364 234.277766 
L 622.636364 234.277766 
" clip-path="url(#pa17b4d5c5e)" style="fill: none; stroke: #ff7f0e; stroke-width: 1.5; stroke-linecap: square"/>
   </g>
   <g id="patch_3">
    <path d="M 90 384.48 
L 90 51.84 
" style="fill: none; stroke: #000000; stroke-width: 0.8; stroke-linejoin: miter; stroke-linecap: square"/>
   </g>
   <g id="patch_4">
    <path d="M 648 384.48 
L 648 51.84 
" style="fill: none; stroke: #000000; stroke-width: 0.8; stroke-linejoin: miter; stroke-linecap: square"/>
   </g>
   <g id="patch_5">
    <path d="M 90 384.48 
L 648 384.48 
" style="fill: none; stroke: #000000; stroke-width: 0.8; stroke-linejoin: miter; stroke-linecap: square"/>
   </g>
   <g id="patch_6">
    <path d="M 90 51.84 
L 648 51.84 
" style="fill: none; stroke: #000000; stroke-width: 0.8; stroke-linejoin: miter; stroke-linecap: square"/>
   </g>
   <g id="text_19">
    <!-- Time Series of Votes for Each Keyword -->
    <g transform="translate(253.716563 45.84) scale(0.12 -0.12)">
     <defs>
      <path id="DejaVuSans-53" d="M 3425 4513 
L 3425 3897 
Q 3066 4069 2747 4153 
Q 2428 4238 2131 4238 
Q 1616 4238 1336 4038 
Q 1056 3838 1056 3469 
Q 1056 3159 1242 3001 
Q 1428 2844 1947 2747 
L 2328 2669 
Q 3034 2534 3370 2195 
Q 3706 1856 3706 1288 
Q 3706 609 3251 259 
Q 2797 -91 1919 -91 
Q 1588 -91 1214 -16 
Q 841 59 441 206 
L 441 856 
Q 825 641 1194 531 
Q 1563 422 1919 422 
Q 2459 422 2753 634 
Q 3047 847 3047 1241 
Q 3047 1584 2836 1778 
Q 2625 1972 2144 2069 
L 1759 2144 
Q 1053 2284 737 2584 
Q 422 2884 422 3419 
Q 422 4038 858 4394 
Q 1294 4750 2059 4750 
Q 2388 4750 2728 4690 
Q 3069 4631 3425 4513 
z
" transform="scale(0.015625)"/>
      <path id="DejaVuSans-72" d="M 2631 2963 
Q 2534 3019 2420 3045 
Q 2306 3072 2169 3072 
Q 1681 3072 1420 2755 
Q 1159 2438 1159 1844 
L 1159 0 
L 581 0 
L 581 3500 
L 1159 3500 
L 1159 2956 
Q 1341 3275 1631 3429 
Q 1922 3584 2338 3584 
Q 2397 3584 2469 3576 
Q 2541 3569 2628 3553 
L 2631 2963 
z
" transform="scale(0.015625)"/>
      <path id="DejaVuSans-66" d="M 2375 4863 
L 2375 4384 
L 1825 4384 
Q 1516 4384 1395 4259 
Q 1275 4134 1275 3809 
L 1275 3500 
L 2222 3500 
L 2222 3053 
L 1275 3053 
L 1275 0 
L 697 0 
L 697 3053 
L 147 3053 
L 147 3500 
L 697 3500 
L 697 3744 
Q 697 4328 969 4595 
Q 1241 4863 1831 4863 
L 2375 4863 
z
" transform="scale(0.015625)"/>
      <path id="DejaVuSans-45" d="M 628 4666 
L 3578 4666 
L 3578 4134 
L 1259 4134 
L 1259 2753 
L 3481 2753 
L 3481 2222 
L 1259 2222 
L 1259 531 
L 3634 531 
L 3634 0 
L 628 0 
L 628 4666 
z
" transform="scale(0.015625)"/>
      <path id="DejaVuSans-63" d="M 3122 3366 
L 3122 2828 
Q 2878 2963 2633 3030 
Q 2388 3097 2138 3097 
Q 1578 3097 1268 2742 
Q 959 2388 959 1747 
Q 959 1106 1268 751 
Q 1578 397 2138 397 
Q 2388 397 2633 464 
Q 2878 531 3122 666 
L 3122 134 
Q 2881 22 2623 -34 
Q 2366 -91 2075 -91 
Q 1284 -91 818 406 
Q 353 903 353 1747 
Q 353 2603 823 3093 
Q 1294 3584 2113 3584 
Q 2378 3584 2631 3529 
Q 2884 3475 3122 3366 
z
" transform="scale(0.015625)"/>
      <path id="DejaVuSans-68" d="M 3513 2113 
L 3513 0 
L 2938 0 
L 2938 2094 
Q 2938 2591 2744 2837 
Q 2550 3084 2163 3084 
Q 1697 3084 1428 2787 
Q 1159 2491 1159 1978 
L 1159 0 
L 581 0 
L 581 4863 
L 1159 4863 
L 1159 2956 
Q 1366 3272 1645 3428 
Q 1925 3584 2291 3584 
Q 2894 3584 3203 3211 
Q 3513 2838 3513 2113 
z
" transform="scale(0.015625)"/>
      <path id="DejaVuSans-4b" d="M 628 4666 
L 1259 4666 
L 1259 2694 
L 3353 4666 
L 4166 4666 
L 1850 2491 
L 4331 0 
L 3500 0 
L 1259 2247 
L 1259 0 
L 628 0 
L 628 4666 
z
" transform="scale(0.015625)"/>
      <path id="DejaVuSans-79" d="M 2059 -325 
Q 1816 -950 1584 -1140 
Q 1353 -1331 966 -1331 
L 506 -1331 
L 506 -850 
L 844 -850 
Q 1081 -850 1212 -737 
Q 1344 -625 1503 -206 
L 1606 56 
L 191 3500 
L 800 3500 
L 1894 763 
L 2988 3500 
L 3597 3500 
L 2059 -325 
z
" transform="scale(0.015625)"/>
      <path id="DejaVuSans-77" d="M 269 3500 
L 844 3500 
L 1563 769 
L 2278 3500 
L 2956 3500 
L 3675 769 
L 4391 3500 
L 4966 3500 
L 4050 0 
L 3372 0 
L 2619 2869 
L 1863 0 
L 1184 0 
L 269 3500 
z
" transform="scale(0.015625)"/>
     </defs>
     <use xlink:href="#DejaVuSans-54"/>
     <use xlink:href="#DejaVuSans-69" transform="translate(57.958984 0)"/>
     <use xlink:href="#DejaVuSans-6d" transform="translate(85.742188 0)"/>
     <use xlink:href="#DejaVuSans-65" transform="translate(183.154297 0)"/>
     <use xlink:href="#DejaVuSans-20" transform="translate(244.677734 0)"/>
     <use xlink:href="#DejaVuSans-53" transform="translate(276.464844 0)"/>
     <use xlink:href="#DejaVuSans-65" transform="translate(339.941406 0)"/>
     <use xlink:href="#DejaVuSans-72" transform="translate(401.464844 0)"/>
     <use xlink:href="#DejaVuSans-69" transform="translate(442.578125 0)"/>
     <use xlink:href="#DejaVuSans-65" transform="translate(470.361328 0)"/>
     <use xlink:href="#DejaVuSans-73" transform="translate(531.884766 0)"/>
     <use xlink:href="#DejaVuSans-20" transform="translate(583.984375 0)"/>
     <use xlink:href="#DejaVuSans-6f" transform="translate(615.771484 0)"/>
     <use xlink:href="#DejaVuSans-66" transform="translate(676.953125 0)"/>
     <use xlink:href="#DejaVuSans-20" transform="translate(712.158203 0)"/>
     <use xlink:href="#DejaVuSans-56" transform="translate(743.945312 0)"/>
     <use xlink:href="#DejaVuSans-6f" transform="translate(804.603516 0)"/>
     <use xlink:href="#DejaVuSans-74" transform="translate(865.785156 0)"/>
     <use xlink:href="#DejaVuSans-65" transform="translate(904.994141 0)"/>
     <use xlink:href="#DejaVuSans-73" transform="translate(966.517578 0)"/>
     <use xlink:href="#DejaVuSans-20" transform="translate(1018.617188 0)"/>
     <use xlink:href="#DejaVuSans-66" transform="translate(1050.404297 0)"/>
     <use xlink:href="#DejaVuSans-6f" transform="translate(1085.609375 0)"/>
     <use xlink:href="#DejaVuSans-72" transform="translate(1146.791016 0)"/>
     <use xlink:href="#DejaVuSans-20" transform="translate(1187.904297 0)"/>
     <use xlink:href="#DejaVuSans-45" transform="translate(1219.691406 0)"/>
     <use xlink:href="#DejaVuSans-61" transform="translate(1282.875 0)"/>
     <use xlink:href="#DejaVuSans-63" transform="translate(1344.154297 0)"/>
     <use xlink:href="#DejaVuSans-68" transform="translate(1399.134766 0)"/>
     <use xlink:href="#DejaVuSans-20" transform="translate(1462.513672 0)"/>
     <use xlink:href="#DejaVuSans-4b" transform="translate(1494.300781 0)"/>
     <use xlink:href="#DejaVuSans-65" transform="translate(1554.876953 0)"/>
     <use xlink:href="#DejaVuSans-79" transform="translate(1616.400391 0)"/>
     <use xlink:href="#DejaVuSans-77" transform="translate(1675.580078 0)"/>
     <use xlink:href="#DejaVuSans-6f" transform="translate(1757.367188 0)"/>
     <use xlink:href="#DejaVuSans-72" transform="translate(1818.548828 0)"/>
     <use xlink:href="#DejaVuSans-64" transform="translate(1857.912109 0)"/>
    </g>
   </g>
   <g id="legend_1">
    <g id="patch_7">
     <path d="M 97 235.9775 
L 149.245313 235.9775 
Q 151.245313 235.9775 151.245313 233.9775 
L 151.245313 58.84 
Q 151.245313 56.84 149.245313 56.84 
L 97 56.84 
Q 95 56.84 95 58.84 
L 95 233.9775 
Q 95 235.9775 97 235.9775 
z
" style="fill: #ffffff; opacity: 0.8; stroke: #cccccc; stroke-linejoin: miter"/>
    </g>
    <g id="line2d_45">
     <path d="M 99 64.938437 
L 109 64.938437 
L 119 64.938437 
" style="fill: none; stroke: #1f77b4; stroke-width: 1.5; stroke-linecap: square"/>
    </g>
    <g id="text_20">
     <!-- H01 -->
     <g transform="translate(127 68.438437) scale(0.1 -0.1)">
      <defs>
       <path id="DejaVuSans-48" d="M 628 4666 
L 1259 4666 
L 1259 2753 
L 3553 2753 
L 3553 4666 
L 4184 4666 
L 4184 0 
L 3553 0 
L 3553 2222 
L 1259 2222 
L 1259 0 
L 628 0 
L 628 4666 
z
" transform="scale(0.015625)"/>
      </defs>
      <use xlink:href="#DejaVuSans-48"/>
      <use xlink:href="#DejaVuSans-30" transform="translate(75.195312 0)"/>
      <use xlink:href="#DejaVuSans-31" transform="translate(138.818359 0)"/>
     </g>
    </g>
    <g id="line2d_46">
     <path d="M 99 79.616562 
L 109 79.616562 
L 119 79.616562 
" style="fill: none; stroke: #ff7f0e; stroke-width: 1.5; stroke-linecap: square"/>
    </g>
    <g id="text_21">
     <!-- H02 -->
     <g transform="translate(127 83.116562) scale(0.1 -0.1)">
      <use xlink:href="#DejaVuSans-48"/>
      <use xlink:href="#DejaVuSans-30" transform="translate(75.195312 0)"/>
      <use xlink:href="#DejaVuSans-32" transform="translate(138.818359 0)"/>
     </g>
    </g>
    <g id="line2d_47">
     <path d="M 99 94.294688 
L 109 94.294688 
L 119 94.294688 
" style="fill: none; stroke: #2ca02c; stroke-width: 1.5; stroke-linecap: square"/>
    </g>
    <g id="text_22">
     <!-- H03 -->
     <g transform="translate(127 97.794688) scale(0.1 -0.1)">
      <use xlink:href="#DejaVuSans-48"/>
      <use xlink:href="#DejaVuSans-30" transform="translate(75.195312 0)"/>
      <use xlink:href="#DejaVuSans-33" transform="translate(138.818359 0)"/>
     </g>
    </g>
    <g id="line2d_48">
     <path d="M 99 108.972812 
L 109 108.972812 
L 119 108.972812 
" style="fill: none; stroke: #d62728; stroke-width: 1.5; stroke-linecap: square"/>
    </g>
    <g id="text_23">
     <!-- H04 -->
     <g transform="translate(127 112.472812) scale(0.1 -0.1)">
      <use xlink:href="#DejaVuSans-48"/>
      <use xlink:href="#DejaVuSans-30" transform="translate(75.195312 0)"/>
      <use xlink:href="#DejaVuSans-34" transform="translate(138.818359 0)"/>
     </g>
    </g>
    <g id="line2d_49">
     <path d="M 99 123.650937 
L 109 123.650937 
L 119 123.650937 
" style="fill: none; stroke: #9467bd; stroke-width: 1.5; stroke-linecap: square"/>
    </g>
    <g id="text_24">
     <!-- H05 -->
     <g transform="translate(127 127.150937) scale(0.1 -0.1)">
      <use xlink:href="#DejaVuSans-48"/>
      <use xlink:href="#DejaVuSans-30" transform="translate(75.195312 0)"/>
      <use xlink:href="#DejaVuSans-35" transform="translate(138.818359 0)"/>
     </g>
    </g>
    <g id="line2d_50">
     <path d="M 99 138.329062 
L 109 138.329062 
L 119 138.329062 
" style="fill: none; stroke: #8c564b; stroke-width: 1.5; stroke-linecap: square"/>
    </g>
    <g id="text_25">
     <!-- H06 -->
     <g transform="translate(127 141.829062) scale(0.1 -0.1)">
      <use xlink:href="#DejaVuSans-48"/>
      <use xlink:href="#DejaVuSans-30" transform="translate(75.195312 0)"/>
      <use xlink:href="#DejaVuSans-36" transform="translate(138.818359 0)"/>
     </g>
    </g>
    <g id="line2d_51">
     <path d="M 99 153.007187 
L 109 153.007187 
L 119 153.007187 
" style="fill: none; stroke: #e377c2; stroke-width: 1.5; stroke-linecap: square"/>
    </g>
    <g id="text_26">
     <!-- H07 -->
     <g transform="translate(127 156.507187) scale(0.1 -0.1)">
      <use xlink:href="#DejaVuSans-48"/>
      <use xlink:href="#DejaVuSans-30" transform="translate(75.195312 0)"/>
      <use xlink:href="#DejaVuSans-37" transform="translate(138.818359 0)"/>
     </g>
    </g>
    <g id="line2d_52">
     <path d="M 99 167.685312 
L 109 167.685312 
L 119 167.685312 
" style="fill: none; stroke: #7f7f7f; stroke-width: 1.5; stroke-linecap: square"/>
    </g>
    <g id="text_27">
     <!-- H08 -->
     <g transform="translate(127 171.185312) scale(0.1 -0.1)">
      <defs>
       <path id="DejaVuSans-38" d="M 2034 2216 
Q 1584 2216 1326 1975 
Q 1069 1734 1069 1313 
Q 1069 891 1326 650 
Q 1584 409 2034 409 
Q 2484 409 2743 651 
Q 3003 894 3003 1313 
Q 3003 1734 2745 1975 
Q 2488 2216 2034 2216 
z
M 1403 2484 
Q 997 2584 770 2862 
Q 544 3141 544 3541 
Q 544 4100 942 4425 
Q 1341 4750 2034 4750 
Q 2731 4750 3128 4425 
Q 3525 4100 3525 3541 
Q 3525 3141 3298 2862 
Q 3072 2584 2669 2484 
Q 3125 2378 3379 2068 
Q 3634 1759 3634 1313 
Q 3634 634 3220 271 
Q 2806 -91 2034 -91 
Q 1263 -91 848 271 
Q 434 634 434 1313 
Q 434 1759 690 2068 
Q 947 2378 1403 2484 
z
M 1172 3481 
Q 1172 3119 1398 2916 
Q 1625 2713 2034 2713 
Q 2441 2713 2670 2916 
Q 2900 3119 2900 3481 
Q 2900 3844 2670 4047 
Q 2441 4250 2034 4250 
Q 1625 4250 1398 4047 
Q 1172 3844 1172 3481 
z
" transform="scale(0.015625)"/>
      </defs>
      <use xlink:href="#DejaVuSans-48"/>
      <use xlink:href="#DejaVuSans-30" transform="translate(75.195312 0)"/>
      <use xlink:href="#DejaVuSans-38" transform="translate(138.818359 0)"/>
     </g>
    </g>
    <g id="line2d_53">
     <path d="M 99 182.363437 
L 109 182.363437 
L 119 182.363437 
" style="fill: none; stroke: #bcbd22; stroke-width: 1.5; stroke-linecap: square"/>
    </g>
    <g id="text_28">
     <!-- H09 -->
     <g transform="translate(127 185.863437) scale(0.1 -0.1)">
      <defs>
       <path id="DejaVuSans-39" d="M 703 97 
L 703 672 
Q 941 559 1184 500 
Q 1428 441 1663 441 
Q 2288 441 2617 861 
Q 2947 1281 2994 2138 
Q 2813 1869 2534 1725 
Q 2256 1581 1919 1581 
Q 1219 1581 811 2004 
Q 403 2428 403 3163 
Q 403 3881 828 4315 
Q 1253 4750 1959 4750 
Q 2769 4750 3195 4129 
Q 3622 3509 3622 2328 
Q 3622 1225 3098 567 
Q 2575 -91 1691 -91 
Q 1453 -91 1209 -44 
Q 966 3 703 97 
z
M 1959 2075 
Q 2384 2075 2632 2365 
Q 2881 2656 2881 3163 
Q 2881 3666 2632 3958 
Q 2384 4250 1959 4250 
Q 1534 4250 1286 3958 
Q 1038 3666 1038 3163 
Q 1038 2656 1286 2365 
Q 1534 2075 1959 2075 
z
" transform="scale(0.015625)"/>
      </defs>
      <use xlink:href="#DejaVuSans-48"/>
      <use xlink:href="#DejaVuSans-30" transform="translate(75.195312 0)"/>
      <use xlink:href="#DejaVuSans-39" transform="translate(138.818359 0)"/>
     </g>
    </g>
    <g id="line2d_54">
     <path d="M 99 197.041562 
L 109 197.041562 
L 119 197.041562 
" style="fill: none; stroke: #17becf; stroke-width: 1.5; stroke-linecap: square"/>
    </g>
    <g id="text_29">
     <!-- H10 -->
     <g transform="translate(127 200.541562) scale(0.1 -0.1)">
      <use xlink:href="#DejaVuSans-48"/>
      <use xlink:href="#DejaVuSans-31" transform="translate(75.195312 0)"/>
      <use xlink:href="#DejaVuSans-30" transform="translate(138.818359 0)"/>
     </g>
    </g>
    <g id="line2d_55">
     <path d="M 99 211.719687 
L 109 211.719687 
L 119 211.719687 
" style="fill: none; stroke: #1f77b4; stroke-width: 1.5; stroke-linecap: square"/>
    </g>
    <g id="text_30">
     <!-- H11 -->
     <g transform="translate(127 215.219687) scale(0.1 -0.1)">
      <use xlink:href="#DejaVuSans-48"/>
      <use xlink:href="#DejaVuSans-31" transform="translate(75.195312 0)"/>
      <use xlink:href="#DejaVuSans-31" transform="translate(138.818359 0)"/>
     </g>
    </g>
    <g id="line2d_56">
     <path d="M 99 226.397812 
L 109 226.397812 
L 119 226.397812 
" style="fill: none; stroke: #ff7f0e; stroke-width: 1.5; stroke-linecap: square"/>
    </g>
    <g id="text_31">
     <!-- H12 -->
     <g transform="translate(127 229.897812) scale(0.1 -0.1)">
      <use xlink:href="#DejaVuSans-48"/>
      <use xlink:href="#DejaVuSans-31" transform="translate(75.195312 0)"/>
      <use xlink:href="#DejaVuSans-32" transform="translate(138.818359 0)"/>
     </g>
    </g>
   </g>
  </g>
 </g>
 <defs>
  <clipPath id="pa17b4d5c5e">
   <rect x="90" y="51.84" width="558" height="332.64"/>
  </clipPath>
 </defs>
</svg>
