<?xml version="1.0" encoding="utf-8" standalone="no"?>
<!DOCTYPE svg PUBLIC "-//W3C//DTD SVG 1.1//EN"
  "http://www.w3.org/Graphics/SVG/1.1/DTD/svg11.dtd">
<svg xmlns:xlink="http://www.w3.org/1999/xlink" width="720pt" height="432pt" viewBox="0 0 720 432" xmlns="http://www.w3.org/2000/svg" version="1.1">
 <metadata>
  <rdf:RDF xmlns:dc="http://purl.org/dc/elements/1.1/" xmlns:cc="http://creativecommons.org/ns#" xmlns:rdf="http://www.w3.org/1999/02/22-rdf-syntax-ns#">
   <cc:Work>
    <dc:type rdf:resource="http://purl.org/dc/dcmitype/StillImage"/>
    <dc:date>2025-01-15T11:03:19.693200</dc:date>
    <dc:format>image/svg+xml</dc:format>
    <dc:creator>
     <cc:Agent>
      <dc:title>Matplotlib v3.10.0, https://matplotlib.org/</dc:title>
     </cc:Agent>
    </dc:creator>
   </cc:Work>
  </rdf:RDF>
 </metadata>
 <defs>
  <style type="text/css">*{stroke-linejoin: round; stroke-linecap: butt}</style>
 </defs>
 <g id="figure_1">
  <g id="patch_1">
   <path d="M 0 432 
L 720 432 
L 720 0 
L 0 0 
z
" style="fill: #ffffff"/>
  </g>
  <g id="axes_1">
   <g id="patch_2">
    <path d="M 90 384.48 
L 648 384.48 
L 648 51.84 
L 90 51.84 
z
" style="fill: #ffffff"/>
   </g>
   <g id="matplotlib.axis_1">
    <g id="xtick_1">
     <g id="line2d_1">
      <path d="M 146.107438 384.48 
L 146.107438 51.84 
" clip-path="url(#p6f90f0f2f8)" style="fill: none; stroke: #b0b0b0; stroke-width: 0.8; stroke-linecap: square"/>
     </g>
     <g id="line2d_2">
      <defs>
       <path id="md6c0f4c2e9" d="M 0 0 
L 0 3.5 
" style="stroke: #000000; stroke-width: 0.8"/>
      </defs>
      <g>
       <use xlink:href="#md6c0f4c2e9" x="146.107438" y="384.48" style="stroke: #000000; stroke-width: 0.8"/>
      </g>
     </g>
     <g id="text_1">
      <!-- 15 10:00 -->
      <g transform="translate(123.746501 399.078438) scale(0.1 -0.1)">
       <defs>
        <path id="DejaVuSans-31" d="M 794 531 
L 1825 531 
L 1825 4091 
L 703 3866 
L 703 4441 
L 1819 4666 
L 2450 4666 
L 2450 531 
L 3481 531 
L 3481 0 
L 794 0 
L 794 531 
z
" transform="scale(0.015625)"/>
        <path id="DejaVuSans-35" d="M 691 4666 
L 3169 4666 
L 3169 4134 
L 1269 4134 
L 1269 2991 
Q 1406 3038 1543 3061 
Q 1681 3084 1819 3084 
Q 2600 3084 3056 2656 
Q 3513 2228 3513 1497 
Q 3513 744 3044 326 
Q 2575 -91 1722 -91 
Q 1428 -91 1123 -41 
Q 819 9 494 109 
L 494 744 
Q 775 591 1075 516 
Q 1375 441 1709 441 
Q 2250 441 2565 725 
Q 2881 1009 2881 1497 
Q 2881 1984 2565 2268 
Q 2250 2553 1709 2553 
Q 1456 2553 1204 2497 
Q 953 2441 691 2322 
L 691 4666 
z
" transform="scale(0.015625)"/>
        <path id="DejaVuSans-20" transform="scale(0.015625)"/>
        <path id="DejaVuSans-30" d="M 2034 4250 
Q 1547 4250 1301 3770 
Q 1056 3291 1056 2328 
Q 1056 1369 1301 889 
Q 1547 409 2034 409 
Q 2525 409 2770 889 
Q 3016 1369 3016 2328 
Q 3016 3291 2770 3770 
Q 2525 4250 2034 4250 
z
M 2034 4750 
Q 2819 4750 3233 4129 
Q 3647 3509 3647 2328 
Q 3647 1150 3233 529 
Q 2819 -91 2034 -91 
Q 1250 -91 836 529 
Q 422 1150 422 2328 
Q 422 3509 836 4129 
Q 1250 4750 2034 4750 
z
" transform="scale(0.015625)"/>
        <path id="DejaVuSans-3a" d="M 750 794 
L 1409 794 
L 1409 0 
L 750 0 
L 750 794 
z
M 750 3309 
L 1409 3309 
L 1409 2516 
L 750 2516 
L 750 3309 
z
" transform="scale(0.015625)"/>
       </defs>
       <use xlink:href="#DejaVuSans-31"/>
       <use xlink:href="#DejaVuSans-35" transform="translate(63.623047 0)"/>
       <use xlink:href="#DejaVuSans-20" transform="translate(127.246094 0)"/>
       <use xlink:href="#DejaVuSans-31" transform="translate(159.033203 0)"/>
       <use xlink:href="#DejaVuSans-30" transform="translate(222.65625 0)"/>
       <use xlink:href="#DejaVuSans-3a" transform="translate(286.279297 0)"/>
       <use xlink:href="#DejaVuSans-30" transform="translate(319.970703 0)"/>
       <use xlink:href="#DejaVuSans-30" transform="translate(383.59375 0)"/>
      </g>
     </g>
    </g>
    <g id="xtick_2">
     <g id="line2d_3">
      <path d="M 222.966942 384.48 
L 222.966942 51.84 
" clip-path="url(#p6f90f0f2f8)" style="fill: none; stroke: #b0b0b0; stroke-width: 0.8; stroke-linecap: square"/>
     </g>
     <g id="line2d_4">
      <g>
       <use xlink:href="#md6c0f4c2e9" x="222.966942" y="384.48" style="stroke: #000000; stroke-width: 0.8"/>
      </g>
     </g>
     <g id="text_2">
      <!-- 15 10:10 -->
      <g transform="translate(200.606005 399.078438) scale(0.1 -0.1)">
       <use xlink:href="#DejaVuSans-31"/>
       <use xlink:href="#DejaVuSans-35" transform="translate(63.623047 0)"/>
       <use xlink:href="#DejaVuSans-20" transform="translate(127.246094 0)"/>
       <use xlink:href="#DejaVuSans-31" transform="translate(159.033203 0)"/>
       <use xlink:href="#DejaVuSans-30" transform="translate(222.65625 0)"/>
       <use xlink:href="#DejaVuSans-3a" transform="translate(286.279297 0)"/>
       <use xlink:href="#DejaVuSans-31" transform="translate(319.970703 0)"/>
       <use xlink:href="#DejaVuSans-30" transform="translate(383.59375 0)"/>
      </g>
     </g>
    </g>
    <g id="xtick_3">
     <g id="line2d_5">
      <path d="M 299.826446 384.48 
L 299.826446 51.84 
" clip-path="url(#p6f90f0f2f8)" style="fill: none; stroke: #b0b0b0; stroke-width: 0.8; stroke-linecap: square"/>
     </g>
     <g id="line2d_6">
      <g>
       <use xlink:href="#md6c0f4c2e9" x="299.826446" y="384.48" style="stroke: #000000; stroke-width: 0.8"/>
      </g>
     </g>
     <g id="text_3">
      <!-- 15 10:20 -->
      <g transform="translate(277.465509 399.078438) scale(0.1 -0.1)">
       <defs>
        <path id="DejaVuSans-32" d="M 1228 531 
L 3431 531 
L 3431 0 
L 469 0 
L 469 531 
Q 828 903 1448 1529 
Q 2069 2156 2228 2338 
Q 2531 2678 2651 2914 
Q 2772 3150 2772 3378 
Q 2772 3750 2511 3984 
Q 2250 4219 1831 4219 
Q 1534 4219 1204 4116 
Q 875 4013 500 3803 
L 500 4441 
Q 881 4594 1212 4672 
Q 1544 4750 1819 4750 
Q 2544 4750 2975 4387 
Q 3406 4025 3406 3419 
Q 3406 3131 3298 2873 
Q 3191 2616 2906 2266 
Q 2828 2175 2409 1742 
Q 1991 1309 1228 531 
z
" transform="scale(0.015625)"/>
       </defs>
       <use xlink:href="#DejaVuSans-31"/>
       <use xlink:href="#DejaVuSans-35" transform="translate(63.623047 0)"/>
       <use xlink:href="#DejaVuSans-20" transform="translate(127.246094 0)"/>
       <use xlink:href="#DejaVuSans-31" transform="translate(159.033203 0)"/>
       <use xlink:href="#DejaVuSans-30" transform="translate(222.65625 0)"/>
       <use xlink:href="#DejaVuSans-3a" transform="translate(286.279297 0)"/>
       <use xlink:href="#DejaVuSans-32" transform="translate(319.970703 0)"/>
       <use xlink:href="#DejaVuSans-30" transform="translate(383.59375 0)"/>
      </g>
     </g>
    </g>
    <g id="xtick_4">
     <g id="line2d_7">
      <path d="M 376.68595 384.48 
L 376.68595 51.84 
" clip-path="url(#p6f90f0f2f8)" style="fill: none; stroke: #b0b0b0; stroke-width: 0.8; stroke-linecap: square"/>
     </g>
     <g id="line2d_8">
      <g>
       <use xlink:href="#md6c0f4c2e9" x="376.68595" y="384.48" style="stroke: #000000; stroke-width: 0.8"/>
      </g>
     </g>
     <g id="text_4">
      <!-- 15 10:30 -->
      <g transform="translate(354.325013 399.078438) scale(0.1 -0.1)">
       <defs>
        <path id="DejaVuSans-33" d="M 2597 2516 
Q 3050 2419 3304 2112 
Q 3559 1806 3559 1356 
Q 3559 666 3084 287 
Q 2609 -91 1734 -91 
Q 1441 -91 1130 -33 
Q 819 25 488 141 
L 488 750 
Q 750 597 1062 519 
Q 1375 441 1716 441 
Q 2309 441 2620 675 
Q 2931 909 2931 1356 
Q 2931 1769 2642 2001 
Q 2353 2234 1838 2234 
L 1294 2234 
L 1294 2753 
L 1863 2753 
Q 2328 2753 2575 2939 
Q 2822 3125 2822 3475 
Q 2822 3834 2567 4026 
Q 2313 4219 1838 4219 
Q 1578 4219 1281 4162 
Q 984 4106 628 3988 
L 628 4550 
Q 988 4650 1302 4700 
Q 1616 4750 1894 4750 
Q 2613 4750 3031 4423 
Q 3450 4097 3450 3541 
Q 3450 3153 3228 2886 
Q 3006 2619 2597 2516 
z
" transform="scale(0.015625)"/>
       </defs>
       <use xlink:href="#DejaVuSans-31"/>
       <use xlink:href="#DejaVuSans-35" transform="translate(63.623047 0)"/>
       <use xlink:href="#DejaVuSans-20" transform="translate(127.246094 0)"/>
       <use xlink:href="#DejaVuSans-31" transform="translate(159.033203 0)"/>
       <use xlink:href="#DejaVuSans-30" transform="translate(222.65625 0)"/>
       <use xlink:href="#DejaVuSans-3a" transform="translate(286.279297 0)"/>
       <use xlink:href="#DejaVuSans-33" transform="translate(319.970703 0)"/>
       <use xlink:href="#DejaVuSans-30" transform="translate(383.59375 0)"/>
      </g>
     </g>
    </g>
    <g id="xtick_5">
     <g id="line2d_9">
      <path d="M 453.545455 384.48 
L 453.545455 51.84 
" clip-path="url(#p6f90f0f2f8)" style="fill: none; stroke: #b0b0b0; stroke-width: 0.8; stroke-linecap: square"/>
     </g>
     <g id="line2d_10">
      <g>
       <use xlink:href="#md6c0f4c2e9" x="453.545455" y="384.48" style="stroke: #000000; stroke-width: 0.8"/>
      </g>
     </g>
     <g id="text_5">
      <!-- 15 10:40 -->
      <g transform="translate(431.184517 399.078438) scale(0.1 -0.1)">
       <defs>
        <path id="DejaVuSans-34" d="M 2419 4116 
L 825 1625 
L 2419 1625 
L 2419 4116 
z
M 2253 4666 
L 3047 4666 
L 3047 1625 
L 3713 1625 
L 3713 1100 
L 3047 1100 
L 3047 0 
L 2419 0 
L 2419 1100 
L 313 1100 
L 313 1709 
L 2253 4666 
z
" transform="scale(0.015625)"/>
       </defs>
       <use xlink:href="#DejaVuSans-31"/>
       <use xlink:href="#DejaVuSans-35" transform="translate(63.623047 0)"/>
       <use xlink:href="#DejaVuSans-20" transform="translate(127.246094 0)"/>
       <use xlink:href="#DejaVuSans-31" transform="translate(159.033203 0)"/>
       <use xlink:href="#DejaVuSans-30" transform="translate(222.65625 0)"/>
       <use xlink:href="#DejaVuSans-3a" transform="translate(286.279297 0)"/>
       <use xlink:href="#DejaVuSans-34" transform="translate(319.970703 0)"/>
       <use xlink:href="#DejaVuSans-30" transform="translate(383.59375 0)"/>
      </g>
     </g>
    </g>
    <g id="xtick_6">
     <g id="line2d_11">
      <path d="M 530.404959 384.48 
L 530.404959 51.84 
" clip-path="url(#p6f90f0f2f8)" style="fill: none; stroke: #b0b0b0; stroke-width: 0.8; stroke-linecap: square"/>
     </g>
     <g id="line2d_12">
      <g>
       <use xlink:href="#md6c0f4c2e9" x="530.404959" y="384.48" style="stroke: #000000; stroke-width: 0.8"/>
      </g>
     </g>
     <g id="text_6">
      <!-- 15 10:50 -->
      <g transform="translate(508.044021 399.078438) scale(0.1 -0.1)">
       <use xlink:href="#DejaVuSans-31"/>
       <use xlink:href="#DejaVuSans-35" transform="translate(63.623047 0)"/>
       <use xlink:href="#DejaVuSans-20" transform="translate(127.246094 0)"/>
       <use xlink:href="#DejaVuSans-31" transform="translate(159.033203 0)"/>
       <use xlink:href="#DejaVuSans-30" transform="translate(222.65625 0)"/>
       <use xlink:href="#DejaVuSans-3a" transform="translate(286.279297 0)"/>
       <use xlink:href="#DejaVuSans-35" transform="translate(319.970703 0)"/>
       <use xlink:href="#DejaVuSans-30" transform="translate(383.59375 0)"/>
      </g>
     </g>
    </g>
    <g id="xtick_7">
     <g id="line2d_13">
      <path d="M 607.264463 384.48 
L 607.264463 51.84 
" clip-path="url(#p6f90f0f2f8)" style="fill: none; stroke: #b0b0b0; stroke-width: 0.8; stroke-linecap: square"/>
     </g>
     <g id="line2d_14">
      <g>
       <use xlink:href="#md6c0f4c2e9" x="607.264463" y="384.48" style="stroke: #000000; stroke-width: 0.8"/>
      </g>
     </g>
     <g id="text_7">
      <!-- 15 11:00 -->
      <g transform="translate(584.903525 399.078438) scale(0.1 -0.1)">
       <use xlink:href="#DejaVuSans-31"/>
       <use xlink:href="#DejaVuSans-35" transform="translate(63.623047 0)"/>
       <use xlink:href="#DejaVuSans-20" transform="translate(127.246094 0)"/>
       <use xlink:href="#DejaVuSans-31" transform="translate(159.033203 0)"/>
       <use xlink:href="#DejaVuSans-31" transform="translate(222.65625 0)"/>
       <use xlink:href="#DejaVuSans-3a" transform="translate(286.279297 0)"/>
       <use xlink:href="#DejaVuSans-30" transform="translate(319.970703 0)"/>
       <use xlink:href="#DejaVuSans-30" transform="translate(383.59375 0)"/>
      </g>
     </g>
    </g>
    <g id="text_8">
     <!-- Date and Time -->
     <g transform="translate(332.230469 412.756563) scale(0.1 -0.1)">
      <defs>
       <path id="DejaVuSans-44" d="M 1259 4147 
L 1259 519 
L 2022 519 
Q 2988 519 3436 956 
Q 3884 1394 3884 2338 
Q 3884 3275 3436 3711 
Q 2988 4147 2022 4147 
L 1259 4147 
z
M 628 4666 
L 1925 4666 
Q 3281 4666 3915 4102 
Q 4550 3538 4550 2338 
Q 4550 1131 3912 565 
Q 3275 0 1925 0 
L 628 0 
L 628 4666 
z
" transform="scale(0.015625)"/>
       <path id="DejaVuSans-61" d="M 2194 1759 
Q 1497 1759 1228 1600 
Q 959 1441 959 1056 
Q 959 750 1161 570 
Q 1363 391 1709 391 
Q 2188 391 2477 730 
Q 2766 1069 2766 1631 
L 2766 1759 
L 2194 1759 
z
M 3341 1997 
L 3341 0 
L 2766 0 
L 2766 531 
Q 2569 213 2275 61 
Q 1981 -91 1556 -91 
Q 1019 -91 701 211 
Q 384 513 384 1019 
Q 384 1609 779 1909 
Q 1175 2209 1959 2209 
L 2766 2209 
L 2766 2266 
Q 2766 2663 2505 2880 
Q 2244 3097 1772 3097 
Q 1472 3097 1187 3025 
Q 903 2953 641 2809 
L 641 3341 
Q 956 3463 1253 3523 
Q 1550 3584 1831 3584 
Q 2591 3584 2966 3190 
Q 3341 2797 3341 1997 
z
" transform="scale(0.015625)"/>
       <path id="DejaVuSans-74" d="M 1172 4494 
L 1172 3500 
L 2356 3500 
L 2356 3053 
L 1172 3053 
L 1172 1153 
Q 1172 725 1289 603 
Q 1406 481 1766 481 
L 2356 481 
L 2356 0 
L 1766 0 
Q 1100 0 847 248 
Q 594 497 594 1153 
L 594 3053 
L 172 3053 
L 172 3500 
L 594 3500 
L 594 4494 
L 1172 4494 
z
" transform="scale(0.015625)"/>
       <path id="DejaVuSans-65" d="M 3597 1894 
L 3597 1613 
L 953 1613 
Q 991 1019 1311 708 
Q 1631 397 2203 397 
Q 2534 397 2845 478 
Q 3156 559 3463 722 
L 3463 178 
Q 3153 47 2828 -22 
Q 2503 -91 2169 -91 
Q 1331 -91 842 396 
Q 353 884 353 1716 
Q 353 2575 817 3079 
Q 1281 3584 2069 3584 
Q 2775 3584 3186 3129 
Q 3597 2675 3597 1894 
z
M 3022 2063 
Q 3016 2534 2758 2815 
Q 2500 3097 2075 3097 
Q 1594 3097 1305 2825 
Q 1016 2553 972 2059 
L 3022 2063 
z
" transform="scale(0.015625)"/>
       <path id="DejaVuSans-6e" d="M 3513 2113 
L 3513 0 
L 2938 0 
L 2938 2094 
Q 2938 2591 2744 2837 
Q 2550 3084 2163 3084 
Q 1697 3084 1428 2787 
Q 1159 2491 1159 1978 
L 1159 0 
L 581 0 
L 581 3500 
L 1159 3500 
L 1159 2956 
Q 1366 3272 1645 3428 
Q 1925 3584 2291 3584 
Q 2894 3584 3203 3211 
Q 3513 2838 3513 2113 
z
" transform="scale(0.015625)"/>
       <path id="DejaVuSans-64" d="M 2906 2969 
L 2906 4863 
L 3481 4863 
L 3481 0 
L 2906 0 
L 2906 525 
Q 2725 213 2448 61 
Q 2172 -91 1784 -91 
Q 1150 -91 751 415 
Q 353 922 353 1747 
Q 353 2572 751 3078 
Q 1150 3584 1784 3584 
Q 2172 3584 2448 3432 
Q 2725 3281 2906 2969 
z
M 947 1747 
Q 947 1113 1208 752 
Q 1469 391 1925 391 
Q 2381 391 2643 752 
Q 2906 1113 2906 1747 
Q 2906 2381 2643 2742 
Q 2381 3103 1925 3103 
Q 1469 3103 1208 2742 
Q 947 2381 947 1747 
z
" transform="scale(0.015625)"/>
       <path id="DejaVuSans-54" d="M -19 4666 
L 3928 4666 
L 3928 4134 
L 2272 4134 
L 2272 0 
L 1638 0 
L 1638 4134 
L -19 4134 
L -19 4666 
z
" transform="scale(0.015625)"/>
       <path id="DejaVuSans-69" d="M 603 3500 
L 1178 3500 
L 1178 0 
L 603 0 
L 603 3500 
z
M 603 4863 
L 1178 4863 
L 1178 4134 
L 603 4134 
L 603 4863 
z
" transform="scale(0.015625)"/>
       <path id="DejaVuSans-6d" d="M 3328 2828 
Q 3544 3216 3844 3400 
Q 4144 3584 4550 3584 
Q 5097 3584 5394 3201 
Q 5691 2819 5691 2113 
L 5691 0 
L 5113 0 
L 5113 2094 
Q 5113 2597 4934 2840 
Q 4756 3084 4391 3084 
Q 3944 3084 3684 2787 
Q 3425 2491 3425 1978 
L 3425 0 
L 2847 0 
L 2847 2094 
Q 2847 2600 2669 2842 
Q 2491 3084 2119 3084 
Q 1678 3084 1418 2786 
Q 1159 2488 1159 1978 
L 1159 0 
L 581 0 
L 581 3500 
L 1159 3500 
L 1159 2956 
Q 1356 3278 1631 3431 
Q 1906 3584 2284 3584 
Q 2666 3584 2933 3390 
Q 3200 3197 3328 2828 
z
" transform="scale(0.015625)"/>
      </defs>
      <use xlink:href="#DejaVuSans-44"/>
      <use xlink:href="#DejaVuSans-61" transform="translate(77.001953 0)"/>
      <use xlink:href="#DejaVuSans-74" transform="translate(138.28125 0)"/>
      <use xlink:href="#DejaVuSans-65" transform="translate(177.490234 0)"/>
      <use xlink:href="#DejaVuSans-20" transform="translate(239.013672 0)"/>
      <use xlink:href="#DejaVuSans-61" transform="translate(270.800781 0)"/>
      <use xlink:href="#DejaVuSans-6e" transform="translate(332.080078 0)"/>
      <use xlink:href="#DejaVuSans-64" transform="translate(395.458984 0)"/>
      <use xlink:href="#DejaVuSans-20" transform="translate(458.935547 0)"/>
      <use xlink:href="#DejaVuSans-54" transform="translate(490.722656 0)"/>
      <use xlink:href="#DejaVuSans-69" transform="translate(548.681641 0)"/>
      <use xlink:href="#DejaVuSans-6d" transform="translate(576.464844 0)"/>
      <use xlink:href="#DejaVuSans-65" transform="translate(673.876953 0)"/>
     </g>
    </g>
   </g>
   <g id="matplotlib.axis_2">
    <g id="ytick_1">
     <g id="line2d_15">
      <path d="M 90 371.090472 
L 648 371.090472 
" clip-path="url(#p6f90f0f2f8)" style="fill: none; stroke: #b0b0b0; stroke-width: 0.8; stroke-linecap: square"/>
     </g>
     <g id="line2d_16">
      <defs>
       <path id="m05f9297921" d="M 0 0 
L -3.5 0 
" style="stroke: #000000; stroke-width: 0.8"/>
      </defs>
      <g>
       <use xlink:href="#m05f9297921" x="90" y="371.090472" style="stroke: #000000; stroke-width: 0.8"/>
      </g>
     </g>
     <g id="text_9">
      <!-- 0 -->
      <g transform="translate(76.6375 374.889691) scale(0.1 -0.1)">
       <use xlink:href="#DejaVuSans-30"/>
      </g>
     </g>
    </g>
    <g id="ytick_2">
     <g id="line2d_17">
      <path d="M 90 327.82867 
L 648 327.82867 
" clip-path="url(#p6f90f0f2f8)" style="fill: none; stroke: #b0b0b0; stroke-width: 0.8; stroke-linecap: square"/>
     </g>
     <g id="line2d_18">
      <g>
       <use xlink:href="#m05f9297921" x="90" y="327.82867" style="stroke: #000000; stroke-width: 0.8"/>
      </g>
     </g>
     <g id="text_10">
      <!-- 100 -->
      <g transform="translate(63.9125 331.627888) scale(0.1 -0.1)">
       <use xlink:href="#DejaVuSans-31"/>
       <use xlink:href="#DejaVuSans-30" transform="translate(63.623047 0)"/>
       <use xlink:href="#DejaVuSans-30" transform="translate(127.246094 0)"/>
      </g>
     </g>
    </g>
    <g id="ytick_3">
     <g id="line2d_19">
      <path d="M 90 284.566867 
L 648 284.566867 
" clip-path="url(#p6f90f0f2f8)" style="fill: none; stroke: #b0b0b0; stroke-width: 0.8; stroke-linecap: square"/>
     </g>
     <g id="line2d_20">
      <g>
       <use xlink:href="#m05f9297921" x="90" y="284.566867" style="stroke: #000000; stroke-width: 0.8"/>
      </g>
     </g>
     <g id="text_11">
      <!-- 200 -->
      <g transform="translate(63.9125 288.366086) scale(0.1 -0.1)">
       <use xlink:href="#DejaVuSans-32"/>
       <use xlink:href="#DejaVuSans-30" transform="translate(63.623047 0)"/>
       <use xlink:href="#DejaVuSans-30" transform="translate(127.246094 0)"/>
      </g>
     </g>
    </g>
    <g id="ytick_4">
     <g id="line2d_21">
      <path d="M 90 241.305064 
L 648 241.305064 
" clip-path="url(#p6f90f0f2f8)" style="fill: none; stroke: #b0b0b0; stroke-width: 0.8; stroke-linecap: square"/>
     </g>
     <g id="line2d_22">
      <g>
       <use xlink:href="#m05f9297921" x="90" y="241.305064" style="stroke: #000000; stroke-width: 0.8"/>
      </g>
     </g>
     <g id="text_12">
      <!-- 300 -->
      <g transform="translate(63.9125 245.104283) scale(0.1 -0.1)">
       <use xlink:href="#DejaVuSans-33"/>
       <use xlink:href="#DejaVuSans-30" transform="translate(63.623047 0)"/>
       <use xlink:href="#DejaVuSans-30" transform="translate(127.246094 0)"/>
      </g>
     </g>
    </g>
    <g id="ytick_5">
     <g id="line2d_23">
      <path d="M 90 198.043262 
L 648 198.043262 
" clip-path="url(#p6f90f0f2f8)" style="fill: none; stroke: #b0b0b0; stroke-width: 0.8; stroke-linecap: square"/>
     </g>
     <g id="line2d_24">
      <g>
       <use xlink:href="#m05f9297921" x="90" y="198.043262" style="stroke: #000000; stroke-width: 0.8"/>
      </g>
     </g>
     <g id="text_13">
      <!-- 400 -->
      <g transform="translate(63.9125 201.842481) scale(0.1 -0.1)">
       <use xlink:href="#DejaVuSans-34"/>
       <use xlink:href="#DejaVuSans-30" transform="translate(63.623047 0)"/>
       <use xlink:href="#DejaVuSans-30" transform="translate(127.246094 0)"/>
      </g>
     </g>
    </g>
    <g id="ytick_6">
     <g id="line2d_25">
      <path d="M 90 154.781459 
L 648 154.781459 
" clip-path="url(#p6f90f0f2f8)" style="fill: none; stroke: #b0b0b0; stroke-width: 0.8; stroke-linecap: square"/>
     </g>
     <g id="line2d_26">
      <g>
       <use xlink:href="#m05f9297921" x="90" y="154.781459" style="stroke: #000000; stroke-width: 0.8"/>
      </g>
     </g>
     <g id="text_14">
      <!-- 500 -->
      <g transform="translate(63.9125 158.580678) scale(0.1 -0.1)">
       <use xlink:href="#DejaVuSans-35"/>
       <use xlink:href="#DejaVuSans-30" transform="translate(63.623047 0)"/>
       <use xlink:href="#DejaVuSans-30" transform="translate(127.246094 0)"/>
      </g>
     </g>
    </g>
    <g id="ytick_7">
     <g id="line2d_27">
      <path d="M 90 111.519657 
L 648 111.519657 
" clip-path="url(#p6f90f0f2f8)" style="fill: none; stroke: #b0b0b0; stroke-width: 0.8; stroke-linecap: square"/>
     </g>
     <g id="line2d_28">
      <g>
       <use xlink:href="#m05f9297921" x="90" y="111.519657" style="stroke: #000000; stroke-width: 0.8"/>
      </g>
     </g>
     <g id="text_15">
      <!-- 600 -->
      <g transform="translate(63.9125 115.318875) scale(0.1 -0.1)">
       <defs>
        <path id="DejaVuSans-36" d="M 2113 2584 
Q 1688 2584 1439 2293 
Q 1191 2003 1191 1497 
Q 1191 994 1439 701 
Q 1688 409 2113 409 
Q 2538 409 2786 701 
Q 3034 994 3034 1497 
Q 3034 2003 2786 2293 
Q 2538 2584 2113 2584 
z
M 3366 4563 
L 3366 3988 
Q 3128 4100 2886 4159 
Q 2644 4219 2406 4219 
Q 1781 4219 1451 3797 
Q 1122 3375 1075 2522 
Q 1259 2794 1537 2939 
Q 1816 3084 2150 3084 
Q 2853 3084 3261 2657 
Q 3669 2231 3669 1497 
Q 3669 778 3244 343 
Q 2819 -91 2113 -91 
Q 1303 -91 875 529 
Q 447 1150 447 2328 
Q 447 3434 972 4092 
Q 1497 4750 2381 4750 
Q 2619 4750 2861 4703 
Q 3103 4656 3366 4563 
z
" transform="scale(0.015625)"/>
       </defs>
       <use xlink:href="#DejaVuSans-36"/>
       <use xlink:href="#DejaVuSans-30" transform="translate(63.623047 0)"/>
       <use xlink:href="#DejaVuSans-30" transform="translate(127.246094 0)"/>
      </g>
     </g>
    </g>
    <g id="ytick_8">
     <g id="line2d_29">
      <path d="M 90 68.257854 
L 648 68.257854 
" clip-path="url(#p6f90f0f2f8)" style="fill: none; stroke: #b0b0b0; stroke-width: 0.8; stroke-linecap: square"/>
     </g>
     <g id="line2d_30">
      <g>
       <use xlink:href="#m05f9297921" x="90" y="68.257854" style="stroke: #000000; stroke-width: 0.8"/>
      </g>
     </g>
     <g id="text_16">
      <!-- 700 -->
      <g transform="translate(63.9125 72.057073) scale(0.1 -0.1)">
       <defs>
        <path id="DejaVuSans-37" d="M 525 4666 
L 3525 4666 
L 3525 4397 
L 1831 0 
L 1172 0 
L 2766 4134 
L 525 4134 
L 525 4666 
z
" transform="scale(0.015625)"/>
       </defs>
       <use xlink:href="#DejaVuSans-37"/>
       <use xlink:href="#DejaVuSans-30" transform="translate(63.623047 0)"/>
       <use xlink:href="#DejaVuSans-30" transform="translate(127.246094 0)"/>
      </g>
     </g>
    </g>
    <g id="text_17">
     <!-- Votes -->
     <g transform="translate(57.832812 231.893594) rotate(-90) scale(0.1 -0.1)">
      <defs>
       <path id="DejaVuSans-56" d="M 1831 0 
L 50 4666 
L 709 4666 
L 2188 738 
L 3669 4666 
L 4325 4666 
L 2547 0 
L 1831 0 
z
" transform="scale(0.015625)"/>
       <path id="DejaVuSans-6f" d="M 1959 3097 
Q 1497 3097 1228 2736 
Q 959 2375 959 1747 
Q 959 1119 1226 758 
Q 1494 397 1959 397 
Q 2419 397 2687 759 
Q 2956 1122 2956 1747 
Q 2956 2369 2687 2733 
Q 2419 3097 1959 3097 
z
M 1959 3584 
Q 2709 3584 3137 3096 
Q 3566 2609 3566 1747 
Q 3566 888 3137 398 
Q 2709 -91 1959 -91 
Q 1206 -91 779 398 
Q 353 888 353 1747 
Q 353 2609 779 3096 
Q 1206 3584 1959 3584 
z
" transform="scale(0.015625)"/>
       <path id="DejaVuSans-73" d="M 2834 3397 
L 2834 2853 
Q 2591 2978 2328 3040 
Q 2066 3103 1784 3103 
Q 1356 3103 1142 2972 
Q 928 2841 928 2578 
Q 928 2378 1081 2264 
Q 1234 2150 1697 2047 
L 1894 2003 
Q 2506 1872 2764 1633 
Q 3022 1394 3022 966 
Q 3022 478 2636 193 
Q 2250 -91 1575 -91 
Q 1294 -91 989 -36 
Q 684 19 347 128 
L 347 722 
Q 666 556 975 473 
Q 1284 391 1588 391 
Q 1994 391 2212 530 
Q 2431 669 2431 922 
Q 2431 1156 2273 1281 
Q 2116 1406 1581 1522 
L 1381 1569 
Q 847 1681 609 1914 
Q 372 2147 372 2553 
Q 372 3047 722 3315 
Q 1072 3584 1716 3584 
Q 2034 3584 2315 3537 
Q 2597 3491 2834 3397 
z
" transform="scale(0.015625)"/>
      </defs>
      <use xlink:href="#DejaVuSans-56"/>
      <use xlink:href="#DejaVuSans-6f" transform="translate(60.658203 0)"/>
      <use xlink:href="#DejaVuSans-74" transform="translate(121.839844 0)"/>
      <use xlink:href="#DejaVuSans-65" transform="translate(161.048828 0)"/>
      <use xlink:href="#DejaVuSans-73" transform="translate(222.572266 0)"/>
     </g>
    </g>
   </g>
   <g id="line2d_31">
    <path d="M 115.363636 311.821803 
L 123.049587 311.821803 
L 130.735537 311.821803 
L 138.421488 311.821803 
L 146.107438 311.821803 
L 153.793388 311.821803 
L 161.479339 311.821803 
L 169.165289 311.389185 
L 176.85124 311.389185 
L 184.53719 311.389185 
L 192.223141 311.389185 
L 199.909091 311.389185 
L 207.595041 311.389185 
L 215.280992 311.389185 
L 222.966942 311.389185 
L 230.652893 311.389185 
L 238.338843 311.389185 
L 246.024793 311.389185 
L 253.710744 311.389185 
L 261.396694 311.389185 
L 269.082645 311.389185 
L 276.768595 311.389185 
L 284.454545 311.389185 
L 292.140496 311.389185 
L 299.826446 311.389185 
L 307.512397 311.389185 
L 315.198347 311.389185 
L 322.884298 311.389185 
L 330.570248 311.389185 
L 338.256198 311.389185 
L 345.942149 311.389185 
L 353.628099 311.389185 
L 361.31405 311.389185 
L 369 310.956567 
L 376.68595 310.956567 
L 384.371901 310.956567 
L 392.057851 310.956567 
L 399.743802 310.956567 
L 407.429752 310.956567 
L 415.115702 310.956567 
L 422.801653 310.956567 
L 430.487603 310.956567 
L 438.173554 310.956567 
L 445.859504 310.956567 
L 453.545455 310.523948 
L 461.231405 310.523948 
L 468.917355 310.09133 
L 476.603306 310.09133 
L 484.289256 310.09133 
L 491.975207 310.09133 
L 499.661157 309.658712 
L 507.347107 309.658712 
L 515.033058 309.658712 
L 522.719008 309.658712 
L 530.404959 309.226094 
L 538.090909 309.226094 
L 545.776859 309.226094 
L 553.46281 309.226094 
L 561.14876 309.226094 
L 568.834711 309.226094 
L 576.520661 309.226094 
L 584.206612 309.226094 
L 591.892562 309.226094 
L 599.578512 309.226094 
L 607.264463 309.226094 
L 614.950413 309.226094 
L 622.636364 308.793476 
" clip-path="url(#p6f90f0f2f8)" style="fill: none; stroke: #1f77b4; stroke-width: 1.5; stroke-linecap: square"/>
   </g>
   <g id="line2d_32">
    <path d="M 115.363636 178.575451 
L 123.049587 178.142833 
L 130.735537 177.277597 
L 138.421488 176.844979 
L 146.107438 176.412361 
L 153.793388 175.979742 
L 161.479339 176.412361 
L 169.165289 174.681888 
L 176.85124 174.24927 
L 184.53719 172.08618 
L 192.223141 170.788326 
L 199.909091 169.490472 
L 207.595041 167.76 
L 215.280992 167.76 
L 222.966942 166.029528 
L 230.652893 165.164292 
L 238.338843 163.001202 
L 246.024793 156.944549 
L 253.710744 152.185751 
L 261.396694 148.292189 
L 269.082645 145.696481 
L 276.768595 143.966009 
L 284.454545 141.802918 
L 292.140496 140.505064 
L 299.826446 138.774592 
L 307.512397 136.178884 
L 315.198347 134.448412 
L 322.884298 133.150558 
L 330.570248 129.689614 
L 338.256198 126.661288 
L 345.942149 125.363433 
L 353.628099 122.767725 
L 361.31405 119.739399 
L 369 118.008927 
L 376.68595 117.576309 
L 384.371901 115.845837 
L 392.057851 113.250129 
L 399.743802 109.356567 
L 407.429752 104.597768 
L 415.115702 101.569442 
L 422.801653 99.406352 
L 430.487603 97.67588 
L 438.173554 95.945408 
L 445.859504 92.917082 
L 453.545455 91.619227 
L 461.231405 88.590901 
L 468.917355 87.293047 
L 476.603306 86.427811 
L 484.289256 85.129957 
L 491.975207 84.264721 
L 499.661157 83.399485 
L 507.347107 82.534249 
L 515.033058 82.101631 
L 522.719008 81.236395 
L 530.404959 79.938541 
L 538.090909 78.208069 
L 545.776859 77.775451 
L 553.46281 76.910215 
L 561.14876 76.044979 
L 568.834711 75.612361 
L 576.520661 74.314506 
L 584.206612 73.016652 
L 591.892562 72.584034 
L 599.578512 72.151416 
L 607.264463 70.420944 
L 614.950413 69.555708 
L 622.636364 66.96 
" clip-path="url(#p6f90f0f2f8)" style="fill: none; stroke: #ff7f0e; stroke-width: 1.5; stroke-linecap: square"/>
   </g>
   <g id="line2d_33">
    <path d="M 115.363636 300.573734 
L 123.049587 300.573734 
L 130.735537 300.141116 
L 138.421488 300.141116 
L 146.107438 300.141116 
L 153.793388 300.141116 
L 161.479339 300.141116 
L 169.165289 300.141116 
L 176.85124 300.141116 
L 184.53719 300.141116 
L 192.223141 300.141116 
L 199.909091 300.141116 
L 207.595041 300.141116 
L 215.280992 300.141116 
L 222.966942 300.141116 
L 230.652893 300.141116 
L 238.338843 300.141116 
L 246.024793 300.141116 
L 253.710744 300.141116 
L 261.396694 300.141116 
L 269.082645 300.141116 
L 276.768595 300.141116 
L 284.454545 300.141116 
L 292.140496 300.141116 
L 299.826446 300.141116 
L 307.512397 300.141116 
L 315.198347 299.27588 
L 322.884298 298.843262 
L 330.570248 297.978026 
L 338.256198 297.978026 
L 345.942149 297.545408 
L 353.628099 297.545408 
L 361.31405 297.545408 
L 369 297.545408 
L 376.68595 297.545408 
L 384.371901 297.545408 
L 392.057851 297.545408 
L 399.743802 297.545408 
L 407.429752 297.545408 
L 415.115702 297.545408 
L 422.801653 297.545408 
L 430.487603 297.545408 
L 438.173554 297.545408 
L 445.859504 297.545408 
L 453.545455 297.11279 
L 461.231405 297.11279 
L 468.917355 296.247554 
L 476.603306 296.247554 
L 484.289256 296.247554 
L 491.975207 296.247554 
L 499.661157 296.247554 
L 507.347107 296.247554 
L 515.033058 296.247554 
L 522.719008 295.814936 
L 530.404959 295.814936 
L 538.090909 295.814936 
L 545.776859 295.814936 
L 553.46281 295.814936 
L 561.14876 295.814936 
L 568.834711 295.814936 
L 576.520661 295.814936 
L 584.206612 295.814936 
L 591.892562 295.814936 
L 599.578512 295.814936 
L 607.264463 295.814936 
L 614.950413 295.814936 
L 622.636364 295.814936 
" clip-path="url(#p6f90f0f2f8)" style="fill: none; stroke: #2ca02c; stroke-width: 1.5; stroke-linecap: square"/>
   </g>
   <g id="line2d_34">
    <path d="M 115.363636 369.36 
L 123.049587 369.36 
L 130.735537 369.36 
L 138.421488 369.36 
L 146.107438 369.36 
L 153.793388 369.36 
L 161.479339 369.36 
L 169.165289 369.36 
L 176.85124 369.36 
L 184.53719 369.36 
L 192.223141 369.36 
L 199.909091 369.36 
L 207.595041 369.36 
L 215.280992 369.36 
L 222.966942 369.36 
L 230.652893 369.36 
L 238.338843 369.36 
L 246.024793 369.36 
L 253.710744 369.36 
L 261.396694 369.36 
L 269.082645 369.36 
L 276.768595 369.36 
L 284.454545 369.36 
L 292.140496 369.36 
L 299.826446 369.36 
L 307.512397 369.36 
L 315.198347 369.36 
L 322.884298 369.36 
L 330.570248 369.36 
L 338.256198 369.36 
L 345.942149 369.36 
L 353.628099 369.36 
L 361.31405 368.927382 
L 369 368.494764 
L 376.68595 368.494764 
L 384.371901 368.494764 
L 392.057851 368.494764 
L 399.743802 368.494764 
L 407.429752 368.494764 
L 415.115702 368.494764 
L 422.801653 368.494764 
L 430.487603 368.494764 
L 438.173554 368.494764 
L 445.859504 368.494764 
L 453.545455 368.494764 
L 461.231405 368.494764 
L 468.917355 368.494764 
L 476.603306 368.494764 
L 484.289256 368.494764 
L 491.975207 368.494764 
L 499.661157 368.494764 
L 507.347107 368.494764 
L 515.033058 368.494764 
L 522.719008 368.494764 
L 530.404959 368.494764 
L 538.090909 368.494764 
L 545.776859 368.494764 
L 553.46281 368.494764 
L 561.14876 368.062146 
L 568.834711 368.062146 
L 576.520661 368.062146 
L 584.206612 368.062146 
L 591.892562 368.062146 
L 599.578512 368.062146 
L 607.264463 368.062146 
L 614.950413 368.062146 
L 622.636364 368.062146 
" clip-path="url(#p6f90f0f2f8)" style="fill: none; stroke: #d62728; stroke-width: 1.5; stroke-linecap: square"/>
   </g>
   <g id="line2d_35">
    <path d="M 115.363636 352.487897 
L 123.049587 352.487897 
L 130.735537 352.487897 
L 138.421488 352.487897 
L 146.107438 352.487897 
L 153.793388 352.487897 
L 161.479339 352.487897 
L 169.165289 352.487897 
L 176.85124 352.487897 
L 184.53719 352.487897 
L 192.223141 352.487897 
L 199.909091 352.487897 
L 207.595041 352.487897 
L 215.280992 352.487897 
L 222.966942 352.487897 
L 230.652893 352.487897 
L 238.338843 352.487897 
L 246.024793 352.487897 
L 253.710744 352.487897 
L 261.396694 352.487897 
L 269.082645 352.487897 
L 276.768595 352.487897 
L 284.454545 352.487897 
L 292.140496 352.487897 
L 299.826446 352.487897 
L 307.512397 352.487897 
L 315.198347 352.487897 
L 322.884298 352.487897 
L 330.570248 352.487897 
L 338.256198 352.487897 
L 345.942149 352.487897 
L 353.628099 352.487897 
L 361.31405 352.487897 
L 369 352.487897 
L 376.68595 352.487897 
L 384.371901 352.487897 
L 392.057851 352.055279 
L 399.743802 352.055279 
L 407.429752 352.055279 
L 415.115702 352.055279 
L 422.801653 352.055279 
L 430.487603 352.055279 
L 438.173554 352.055279 
L 445.859504 352.055279 
L 453.545455 352.055279 
L 461.231405 352.055279 
L 468.917355 352.055279 
L 476.603306 352.055279 
L 484.289256 352.055279 
L 491.975207 352.055279 
L 499.661157 352.055279 
L 507.347107 352.055279 
L 515.033058 352.055279 
L 522.719008 352.055279 
L 530.404959 352.055279 
L 538.090909 352.055279 
L 545.776859 352.055279 
L 553.46281 352.055279 
L 561.14876 352.055279 
L 568.834711 352.055279 
L 576.520661 352.055279 
L 584.206612 352.055279 
L 591.892562 352.055279 
L 599.578512 352.055279 
L 607.264463 352.055279 
L 614.950413 352.055279 
L 622.636364 352.055279 
" clip-path="url(#p6f90f0f2f8)" style="fill: none; stroke: #9467bd; stroke-width: 1.5; stroke-linecap: square"/>
   </g>
   <g id="line2d_36">
    <path d="M 115.363636 354.650987 
L 123.049587 354.650987 
L 130.735537 354.650987 
L 138.421488 354.650987 
L 146.107438 354.650987 
L 153.793388 354.650987 
L 161.479339 354.650987 
L 169.165289 354.650987 
L 176.85124 354.650987 
L 184.53719 354.650987 
L 192.223141 354.650987 
L 199.909091 354.650987 
L 207.595041 354.650987 
L 215.280992 354.650987 
L 222.966942 354.650987 
L 230.652893 354.650987 
L 238.338843 354.650987 
L 246.024793 354.650987 
L 253.710744 354.650987 
L 261.396694 354.650987 
L 269.082645 354.650987 
L 276.768595 354.650987 
L 284.454545 354.650987 
L 292.140496 354.650987 
L 299.826446 354.650987 
L 307.512397 354.650987 
L 315.198347 354.650987 
L 322.884298 354.650987 
L 330.570248 354.650987 
L 338.256198 354.650987 
L 345.942149 354.650987 
L 353.628099 354.650987 
L 361.31405 354.650987 
L 369 354.650987 
L 376.68595 354.218369 
L 384.371901 354.218369 
L 392.057851 354.218369 
L 399.743802 354.650987 
L 407.429752 354.218369 
L 415.115702 354.218369 
L 422.801653 354.218369 
L 430.487603 354.218369 
L 438.173554 354.218369 
L 445.859504 354.218369 
L 453.545455 354.218369 
L 461.231405 354.218369 
L 468.917355 354.218369 
L 476.603306 354.218369 
L 484.289256 354.218369 
L 491.975207 354.218369 
L 499.661157 354.218369 
L 507.347107 354.218369 
L 515.033058 354.218369 
L 522.719008 354.218369 
L 530.404959 354.218369 
L 538.090909 354.218369 
L 545.776859 354.218369 
L 553.46281 354.218369 
L 561.14876 354.218369 
L 568.834711 354.218369 
L 576.520661 354.218369 
L 584.206612 354.218369 
L 591.892562 354.218369 
L 599.578512 354.218369 
L 607.264463 354.218369 
L 614.950413 354.218369 
L 622.636364 354.218369 
" clip-path="url(#p6f90f0f2f8)" style="fill: none; stroke: #8c564b; stroke-width: 1.5; stroke-linecap: square"/>
   </g>
   <g id="line2d_37">
    <path d="M 115.363636 182.901631 
L 123.049587 182.036395 
L 130.735537 180.738541 
L 138.421488 179.873305 
L 146.107438 177.710215 
L 153.793388 176.412361 
L 161.479339 174.681888 
L 169.165289 172.951416 
L 176.85124 171.220944 
L 184.53719 169.057854 
L 192.223141 168.192618 
L 199.909091 167.327382 
L 207.595041 166.462146 
L 215.280992 165.164292 
L 222.966942 162.135966 
L 230.652893 160.405494 
L 238.338843 159.107639 
L 246.024793 156.944549 
L 253.710744 155.214077 
L 261.396694 152.185751 
L 269.082645 150.887897 
L 276.768595 149.590043 
L 284.454545 146.561717 
L 292.140496 145.263863 
L 299.826446 143.966009 
L 307.512397 143.100773 
L 315.198347 140.072446 
L 322.884298 137.04412 
L 330.570248 134.88103 
L 338.256198 134.88103 
L 345.942149 133.150558 
L 353.628099 130.55485 
L 361.31405 129.256996 
L 369 127.526524 
L 376.68595 127.093906 
L 384.371901 124.930815 
L 392.057851 123.632961 
L 399.743802 121.902489 
L 407.429752 118.008927 
L 415.115702 116.278455 
L 422.801653 114.980601 
L 430.487603 113.250129 
L 438.173554 112.817511 
L 445.859504 111.519657 
L 453.545455 111.087039 
L 461.231405 110.221803 
L 468.917355 108.49133 
L 476.603306 107.626094 
L 484.289256 105.895622 
L 491.975207 105.030386 
L 499.661157 102.867296 
L 507.347107 102.867296 
L 515.033058 100.271588 
L 522.719008 99.406352 
L 530.404959 98.541116 
L 538.090909 96.810644 
L 545.776859 95.080172 
L 553.46281 93.782318 
L 561.14876 92.917082 
L 568.834711 92.051845 
L 576.520661 91.619227 
L 584.206612 90.753991 
L 591.892562 90.753991 
L 599.578512 90.753991 
L 607.264463 89.888755 
L 614.950413 88.590901 
L 622.636364 88.158283 
" clip-path="url(#p6f90f0f2f8)" style="fill: none; stroke: #e377c2; stroke-width: 1.5; stroke-linecap: square"/>
   </g>
   <g id="line2d_38">
    <path d="M 115.363636 277.212361 
L 123.049587 277.212361 
L 130.735537 277.212361 
L 138.421488 277.212361 
L 146.107438 277.212361 
L 153.793388 276.347124 
L 161.479339 276.347124 
L 169.165289 276.347124 
L 176.85124 276.347124 
L 184.53719 276.347124 
L 192.223141 276.347124 
L 199.909091 276.347124 
L 207.595041 276.347124 
L 215.280992 276.347124 
L 222.966942 276.347124 
L 230.652893 275.914506 
L 238.338843 275.914506 
L 246.024793 275.914506 
L 253.710744 275.481888 
L 261.396694 275.481888 
L 269.082645 275.481888 
L 276.768595 275.481888 
L 284.454545 275.481888 
L 292.140496 275.481888 
L 299.826446 275.04927 
L 307.512397 272.020944 
L 315.198347 272.020944 
L 322.884298 272.020944 
L 330.570248 272.020944 
L 338.256198 272.020944 
L 345.942149 272.020944 
L 353.628099 272.020944 
L 361.31405 272.020944 
L 369 271.588326 
L 376.68595 271.588326 
L 384.371901 271.588326 
L 392.057851 271.588326 
L 399.743802 271.588326 
L 407.429752 271.588326 
L 415.115702 271.155708 
L 422.801653 271.155708 
L 430.487603 270.72309 
L 438.173554 270.72309 
L 445.859504 270.72309 
L 453.545455 270.290472 
L 461.231405 270.290472 
L 468.917355 270.290472 
L 476.603306 270.290472 
L 484.289256 270.290472 
L 491.975207 270.290472 
L 499.661157 270.290472 
L 507.347107 270.290472 
L 515.033058 269.857854 
L 522.719008 269.857854 
L 530.404959 269.857854 
L 538.090909 269.857854 
L 545.776859 269.425236 
L 553.46281 269.425236 
L 561.14876 269.425236 
L 568.834711 269.425236 
L 576.520661 269.425236 
L 584.206612 269.425236 
L 591.892562 269.425236 
L 599.578512 268.992618 
L 607.264463 268.56 
L 614.950413 268.56 
L 622.636364 268.56 
" clip-path="url(#p6f90f0f2f8)" style="fill: none; stroke: #7f7f7f; stroke-width: 1.5; stroke-linecap: square"/>
   </g>
   <g id="line2d_39">
    <path d="M 115.363636 345.566009 
L 123.049587 345.566009 
L 130.735537 345.566009 
L 138.421488 345.566009 
L 146.107438 345.566009 
L 153.793388 345.566009 
L 161.479339 345.566009 
L 169.165289 345.566009 
L 176.85124 345.566009 
L 184.53719 345.566009 
L 192.223141 345.566009 
L 199.909091 345.566009 
L 207.595041 345.566009 
L 215.280992 345.566009 
L 222.966942 345.566009 
L 230.652893 345.566009 
L 238.338843 345.566009 
L 246.024793 345.566009 
L 253.710744 345.566009 
L 261.396694 345.566009 
L 269.082645 345.566009 
L 276.768595 345.566009 
L 284.454545 345.566009 
L 292.140496 345.566009 
L 299.826446 345.566009 
L 307.512397 345.566009 
L 315.198347 345.566009 
L 322.884298 345.566009 
L 330.570248 345.566009 
L 338.256198 345.566009 
L 345.942149 345.566009 
L 353.628099 345.566009 
L 361.31405 345.566009 
L 369 345.566009 
L 376.68595 345.566009 
L 384.371901 345.566009 
L 392.057851 345.566009 
L 399.743802 345.566009 
L 407.429752 345.566009 
L 415.115702 345.566009 
L 422.801653 345.566009 
L 430.487603 345.566009 
L 438.173554 345.566009 
L 445.859504 345.566009 
L 453.545455 345.566009 
L 461.231405 345.566009 
L 468.917355 345.566009 
L 476.603306 345.566009 
L 484.289256 345.566009 
L 491.975207 345.566009 
L 499.661157 345.566009 
L 507.347107 345.566009 
L 515.033058 345.566009 
L 522.719008 345.566009 
L 530.404959 345.566009 
L 538.090909 345.566009 
L 545.776859 345.566009 
L 553.46281 345.566009 
L 561.14876 345.566009 
L 568.834711 345.566009 
L 576.520661 345.566009 
L 584.206612 345.566009 
L 591.892562 345.566009 
L 599.578512 345.566009 
L 607.264463 345.566009 
L 614.950413 345.566009 
L 622.636364 345.566009 
" clip-path="url(#p6f90f0f2f8)" style="fill: none; stroke: #bcbd22; stroke-width: 1.5; stroke-linecap: square"/>
   </g>
   <g id="line2d_40">
    <path d="M 115.363636 365.466438 
L 123.049587 365.466438 
L 130.735537 365.466438 
L 138.421488 365.466438 
L 146.107438 365.466438 
L 153.793388 365.466438 
L 161.479339 365.466438 
L 169.165289 365.466438 
L 176.85124 365.466438 
L 184.53719 365.466438 
L 192.223141 365.466438 
L 199.909091 365.466438 
L 207.595041 365.466438 
L 215.280992 365.466438 
L 222.966942 365.466438 
L 230.652893 365.466438 
L 238.338843 365.466438 
L 246.024793 365.466438 
L 253.710744 365.466438 
L 261.396694 365.466438 
L 269.082645 365.466438 
L 276.768595 365.466438 
L 284.454545 365.466438 
L 292.140496 365.466438 
L 299.826446 365.466438 
L 307.512397 365.466438 
L 315.198347 365.466438 
L 322.884298 365.466438 
L 330.570248 365.466438 
L 338.256198 365.466438 
L 345.942149 365.466438 
L 353.628099 365.466438 
L 361.31405 365.466438 
L 369 365.466438 
L 376.68595 365.466438 
L 384.371901 365.466438 
L 392.057851 365.466438 
L 399.743802 365.466438 
L 407.429752 365.466438 
L 415.115702 365.466438 
L 422.801653 365.466438 
L 430.487603 365.466438 
L 438.173554 365.466438 
L 445.859504 365.466438 
L 453.545455 365.466438 
L 461.231405 365.466438 
L 468.917355 365.466438 
L 476.603306 365.466438 
L 484.289256 365.466438 
L 491.975207 365.466438 
L 499.661157 365.466438 
L 507.347107 365.466438 
L 515.033058 365.466438 
L 522.719008 365.466438 
L 530.404959 365.466438 
L 538.090909 365.466438 
L 545.776859 365.466438 
L 553.46281 365.466438 
L 561.14876 365.466438 
L 568.834711 365.466438 
L 576.520661 365.466438 
L 584.206612 365.466438 
L 591.892562 365.466438 
L 599.578512 365.466438 
L 607.264463 365.466438 
L 614.950413 365.466438 
L 622.636364 365.466438 
" clip-path="url(#p6f90f0f2f8)" style="fill: none; stroke: #17becf; stroke-width: 1.5; stroke-linecap: square"/>
   </g>
   <g id="line2d_41">
    <path d="M 115.363636 301.43897 
L 123.049587 301.43897 
L 130.735537 301.43897 
L 138.421488 301.43897 
L 146.107438 301.006352 
L 153.793388 300.573734 
L 161.479339 300.573734 
L 169.165289 300.573734 
L 176.85124 300.573734 
L 184.53719 300.573734 
L 192.223141 300.573734 
L 199.909091 300.573734 
L 207.595041 300.573734 
L 215.280992 300.573734 
L 222.966942 300.573734 
L 230.652893 300.573734 
L 238.338843 300.573734 
L 246.024793 300.573734 
L 253.710744 300.141116 
L 261.396694 300.141116 
L 269.082645 299.708498 
L 276.768595 299.27588 
L 284.454545 299.27588 
L 292.140496 298.843262 
L 299.826446 298.843262 
L 307.512397 298.843262 
L 315.198347 298.410644 
L 322.884298 298.410644 
L 330.570248 298.410644 
L 338.256198 298.410644 
L 345.942149 298.410644 
L 353.628099 298.410644 
L 361.31405 298.410644 
L 369 298.410644 
L 376.68595 298.410644 
L 384.371901 298.410644 
L 392.057851 298.410644 
L 399.743802 298.410644 
L 407.429752 298.410644 
L 415.115702 298.410644 
L 422.801653 298.410644 
L 430.487603 298.410644 
L 438.173554 298.410644 
L 445.859504 298.410644 
L 453.545455 298.410644 
L 461.231405 298.410644 
L 468.917355 297.978026 
L 476.603306 297.978026 
L 484.289256 297.978026 
L 491.975207 297.545408 
L 499.661157 297.545408 
L 507.347107 297.545408 
L 515.033058 296.680172 
L 522.719008 296.680172 
L 530.404959 296.680172 
L 538.090909 296.680172 
L 545.776859 296.680172 
L 553.46281 296.680172 
L 561.14876 296.680172 
L 568.834711 296.247554 
L 576.520661 296.247554 
L 584.206612 296.247554 
L 591.892562 296.247554 
L 599.578512 296.247554 
L 607.264463 296.247554 
L 614.950413 296.247554 
L 622.636364 296.247554 
" clip-path="url(#p6f90f0f2f8)" style="fill: none; stroke: #1f77b4; stroke-width: 1.5; stroke-linecap: square"/>
   </g>
   <g id="line2d_42">
    <path d="M 115.363636 299.708498 
L 123.049587 299.708498 
L 130.735537 299.708498 
L 138.421488 299.708498 
L 146.107438 299.708498 
L 153.793388 299.708498 
L 161.479339 299.708498 
L 169.165289 299.708498 
L 176.85124 299.708498 
L 184.53719 299.708498 
L 192.223141 299.708498 
L 199.909091 299.708498 
L 207.595041 299.708498 
L 215.280992 299.708498 
L 222.966942 299.708498 
L 230.652893 299.708498 
L 238.338843 299.708498 
L 246.024793 299.27588 
L 253.710744 299.27588 
L 261.396694 299.27588 
L 269.082645 299.27588 
L 276.768595 299.27588 
L 284.454545 299.27588 
L 292.140496 299.27588 
L 299.826446 299.27588 
L 307.512397 299.27588 
L 315.198347 299.27588 
L 322.884298 299.27588 
L 330.570248 298.843262 
L 338.256198 298.843262 
L 345.942149 298.843262 
L 353.628099 298.843262 
L 361.31405 298.843262 
L 369 298.843262 
L 376.68595 298.843262 
L 384.371901 298.410644 
L 392.057851 298.410644 
L 399.743802 298.410644 
L 407.429752 298.410644 
L 415.115702 298.410644 
L 422.801653 298.410644 
L 430.487603 298.410644 
L 438.173554 298.410644 
L 445.859504 298.410644 
L 453.545455 298.410644 
L 461.231405 298.410644 
L 468.917355 298.410644 
L 476.603306 298.410644 
L 484.289256 298.410644 
L 491.975207 298.410644 
L 499.661157 298.410644 
L 507.347107 298.410644 
L 515.033058 297.978026 
L 522.719008 297.978026 
L 530.404959 297.978026 
L 538.090909 297.978026 
L 545.776859 297.978026 
L 553.46281 297.545408 
L 561.14876 297.545408 
L 568.834711 297.545408 
L 576.520661 297.545408 
L 584.206612 297.545408 
L 591.892562 297.545408 
L 599.578512 297.545408 
L 607.264463 297.545408 
L 614.950413 297.545408 
L 622.636364 297.545408 
" clip-path="url(#p6f90f0f2f8)" style="fill: none; stroke: #ff7f0e; stroke-width: 1.5; stroke-linecap: square"/>
   </g>
   <g id="patch_3">
    <path d="M 90 384.48 
L 90 51.84 
" style="fill: none; stroke: #000000; stroke-width: 0.8; stroke-linejoin: miter; stroke-linecap: square"/>
   </g>
   <g id="patch_4">
    <path d="M 648 384.48 
L 648 51.84 
" style="fill: none; stroke: #000000; stroke-width: 0.8; stroke-linejoin: miter; stroke-linecap: square"/>
   </g>
   <g id="patch_5">
    <path d="M 90 384.48 
L 648 384.48 
" style="fill: none; stroke: #000000; stroke-width: 0.8; stroke-linejoin: miter; stroke-linecap: square"/>
   </g>
   <g id="patch_6">
    <path d="M 90 51.84 
L 648 51.84 
" style="fill: none; stroke: #000000; stroke-width: 0.8; stroke-linejoin: miter; stroke-linecap: square"/>
   </g>
   <g id="text_18">
    <!-- Time Series of Votes for Each Keyword -->
    <g transform="translate(253.716563 45.84) scale(0.12 -0.12)">
     <defs>
      <path id="DejaVuSans-53" d="M 3425 4513 
L 3425 3897 
Q 3066 4069 2747 4153 
Q 2428 4238 2131 4238 
Q 1616 4238 1336 4038 
Q 1056 3838 1056 3469 
Q 1056 3159 1242 3001 
Q 1428 2844 1947 2747 
L 2328 2669 
Q 3034 2534 3370 2195 
Q 3706 1856 3706 1288 
Q 3706 609 3251 259 
Q 2797 -91 1919 -91 
Q 1588 -91 1214 -16 
Q 841 59 441 206 
L 441 856 
Q 825 641 1194 531 
Q 1563 422 1919 422 
Q 2459 422 2753 634 
Q 3047 847 3047 1241 
Q 3047 1584 2836 1778 
Q 2625 1972 2144 2069 
L 1759 2144 
Q 1053 2284 737 2584 
Q 422 2884 422 3419 
Q 422 4038 858 4394 
Q 1294 4750 2059 4750 
Q 2388 4750 2728 4690 
Q 3069 4631 3425 4513 
z
" transform="scale(0.015625)"/>
      <path id="DejaVuSans-72" d="M 2631 2963 
Q 2534 3019 2420 3045 
Q 2306 3072 2169 3072 
Q 1681 3072 1420 2755 
Q 1159 2438 1159 1844 
L 1159 0 
L 581 0 
L 581 3500 
L 1159 3500 
L 1159 2956 
Q 1341 3275 1631 3429 
Q 1922 3584 2338 3584 
Q 2397 3584 2469 3576 
Q 2541 3569 2628 3553 
L 2631 2963 
z
" transform="scale(0.015625)"/>
      <path id="DejaVuSans-66" d="M 2375 4863 
L 2375 4384 
L 1825 4384 
Q 1516 4384 1395 4259 
Q 1275 4134 1275 3809 
L 1275 3500 
L 2222 3500 
L 2222 3053 
L 1275 3053 
L 1275 0 
L 697 0 
L 697 3053 
L 147 3053 
L 147 3500 
L 697 3500 
L 697 3744 
Q 697 4328 969 4595 
Q 1241 4863 1831 4863 
L 2375 4863 
z
" transform="scale(0.015625)"/>
      <path id="DejaVuSans-45" d="M 628 4666 
L 3578 4666 
L 3578 4134 
L 1259 4134 
L 1259 2753 
L 3481 2753 
L 3481 2222 
L 1259 2222 
L 1259 531 
L 3634 531 
L 3634 0 
L 628 0 
L 628 4666 
z
" transform="scale(0.015625)"/>
      <path id="DejaVuSans-63" d="M 3122 3366 
L 3122 2828 
Q 2878 2963 2633 3030 
Q 2388 3097 2138 3097 
Q 1578 3097 1268 2742 
Q 959 2388 959 1747 
Q 959 1106 1268 751 
Q 1578 397 2138 397 
Q 2388 397 2633 464 
Q 2878 531 3122 666 
L 3122 134 
Q 2881 22 2623 -34 
Q 2366 -91 2075 -91 
Q 1284 -91 818 406 
Q 353 903 353 1747 
Q 353 2603 823 3093 
Q 1294 3584 2113 3584 
Q 2378 3584 2631 3529 
Q 2884 3475 3122 3366 
z
" transform="scale(0.015625)"/>
      <path id="DejaVuSans-68" d="M 3513 2113 
L 3513 0 
L 2938 0 
L 2938 2094 
Q 2938 2591 2744 2837 
Q 2550 3084 2163 3084 
Q 1697 3084 1428 2787 
Q 1159 2491 1159 1978 
L 1159 0 
L 581 0 
L 581 4863 
L 1159 4863 
L 1159 2956 
Q 1366 3272 1645 3428 
Q 1925 3584 2291 3584 
Q 2894 3584 3203 3211 
Q 3513 2838 3513 2113 
z
" transform="scale(0.015625)"/>
      <path id="DejaVuSans-4b" d="M 628 4666 
L 1259 4666 
L 1259 2694 
L 3353 4666 
L 4166 4666 
L 1850 2491 
L 4331 0 
L 3500 0 
L 1259 2247 
L 1259 0 
L 628 0 
L 628 4666 
z
" transform="scale(0.015625)"/>
      <path id="DejaVuSans-79" d="M 2059 -325 
Q 1816 -950 1584 -1140 
Q 1353 -1331 966 -1331 
L 506 -1331 
L 506 -850 
L 844 -850 
Q 1081 -850 1212 -737 
Q 1344 -625 1503 -206 
L 1606 56 
L 191 3500 
L 800 3500 
L 1894 763 
L 2988 3500 
L 3597 3500 
L 2059 -325 
z
" transform="scale(0.015625)"/>
      <path id="DejaVuSans-77" d="M 269 3500 
L 844 3500 
L 1563 769 
L 2278 3500 
L 2956 3500 
L 3675 769 
L 4391 3500 
L 4966 3500 
L 4050 0 
L 3372 0 
L 2619 2869 
L 1863 0 
L 1184 0 
L 269 3500 
z
" transform="scale(0.015625)"/>
     </defs>
     <use xlink:href="#DejaVuSans-54"/>
     <use xlink:href="#DejaVuSans-69" transform="translate(57.958984 0)"/>
     <use xlink:href="#DejaVuSans-6d" transform="translate(85.742188 0)"/>
     <use xlink:href="#DejaVuSans-65" transform="translate(183.154297 0)"/>
     <use xlink:href="#DejaVuSans-20" transform="translate(244.677734 0)"/>
     <use xlink:href="#DejaVuSans-53" transform="translate(276.464844 0)"/>
     <use xlink:href="#DejaVuSans-65" transform="translate(339.941406 0)"/>
     <use xlink:href="#DejaVuSans-72" transform="translate(401.464844 0)"/>
     <use xlink:href="#DejaVuSans-69" transform="translate(442.578125 0)"/>
     <use xlink:href="#DejaVuSans-65" transform="translate(470.361328 0)"/>
     <use xlink:href="#DejaVuSans-73" transform="translate(531.884766 0)"/>
     <use xlink:href="#DejaVuSans-20" transform="translate(583.984375 0)"/>
     <use xlink:href="#DejaVuSans-6f" transform="translate(615.771484 0)"/>
     <use xlink:href="#DejaVuSans-66" transform="translate(676.953125 0)"/>
     <use xlink:href="#DejaVuSans-20" transform="translate(712.158203 0)"/>
     <use xlink:href="#DejaVuSans-56" transform="translate(743.945312 0)"/>
     <use xlink:href="#DejaVuSans-6f" transform="translate(804.603516 0)"/>
     <use xlink:href="#DejaVuSans-74" transform="translate(865.785156 0)"/>
     <use xlink:href="#DejaVuSans-65" transform="translate(904.994141 0)"/>
     <use xlink:href="#DejaVuSans-73" transform="translate(966.517578 0)"/>
     <use xlink:href="#DejaVuSans-20" transform="translate(1018.617188 0)"/>
     <use xlink:href="#DejaVuSans-66" transform="translate(1050.404297 0)"/>
     <use xlink:href="#DejaVuSans-6f" transform="translate(1085.609375 0)"/>
     <use xlink:href="#DejaVuSans-72" transform="translate(1146.791016 0)"/>
     <use xlink:href="#DejaVuSans-20" transform="translate(1187.904297 0)"/>
     <use xlink:href="#DejaVuSans-45" transform="translate(1219.691406 0)"/>
     <use xlink:href="#DejaVuSans-61" transform="translate(1282.875 0)"/>
     <use xlink:href="#DejaVuSans-63" transform="translate(1344.154297 0)"/>
     <use xlink:href="#DejaVuSans-68" transform="translate(1399.134766 0)"/>
     <use xlink:href="#DejaVuSans-20" transform="translate(1462.513672 0)"/>
     <use xlink:href="#DejaVuSans-4b" transform="translate(1494.300781 0)"/>
     <use xlink:href="#DejaVuSans-65" transform="translate(1554.876953 0)"/>
     <use xlink:href="#DejaVuSans-79" transform="translate(1616.400391 0)"/>
     <use xlink:href="#DejaVuSans-77" transform="translate(1675.580078 0)"/>
     <use xlink:href="#DejaVuSans-6f" transform="translate(1757.367188 0)"/>
     <use xlink:href="#DejaVuSans-72" transform="translate(1818.548828 0)"/>
     <use xlink:href="#DejaVuSans-64" transform="translate(1857.912109 0)"/>
    </g>
   </g>
   <g id="legend_1">
    <g id="patch_7">
     <path d="M 97 379.48 
L 149.245313 379.48 
Q 151.245313 379.48 151.245313 377.48 
L 151.245313 202.3425 
Q 151.245313 200.3425 149.245313 200.3425 
L 97 200.3425 
Q 95 200.3425 95 202.3425 
L 95 377.48 
Q 95 379.48 97 379.48 
z
" style="fill: #ffffff; opacity: 0.8; stroke: #cccccc; stroke-linejoin: miter"/>
    </g>
    <g id="line2d_43">
     <path d="M 99 208.440938 
L 109 208.440938 
L 119 208.440938 
" style="fill: none; stroke: #1f77b4; stroke-width: 1.5; stroke-linecap: square"/>
    </g>
    <g id="text_19">
     <!-- H01 -->
     <g transform="translate(127 211.940938) scale(0.1 -0.1)">
      <defs>
       <path id="DejaVuSans-48" d="M 628 4666 
L 1259 4666 
L 1259 2753 
L 3553 2753 
L 3553 4666 
L 4184 4666 
L 4184 0 
L 3553 0 
L 3553 2222 
L 1259 2222 
L 1259 0 
L 628 0 
L 628 4666 
z
" transform="scale(0.015625)"/>
      </defs>
      <use xlink:href="#DejaVuSans-48"/>
      <use xlink:href="#DejaVuSans-30" transform="translate(75.195312 0)"/>
      <use xlink:href="#DejaVuSans-31" transform="translate(138.818359 0)"/>
     </g>
    </g>
    <g id="line2d_44">
     <path d="M 99 223.119063 
L 109 223.119063 
L 119 223.119063 
" style="fill: none; stroke: #ff7f0e; stroke-width: 1.5; stroke-linecap: square"/>
    </g>
    <g id="text_20">
     <!-- H02 -->
     <g transform="translate(127 226.619063) scale(0.1 -0.1)">
      <use xlink:href="#DejaVuSans-48"/>
      <use xlink:href="#DejaVuSans-30" transform="translate(75.195312 0)"/>
      <use xlink:href="#DejaVuSans-32" transform="translate(138.818359 0)"/>
     </g>
    </g>
    <g id="line2d_45">
     <path d="M 99 237.797188 
L 109 237.797188 
L 119 237.797188 
" style="fill: none; stroke: #2ca02c; stroke-width: 1.5; stroke-linecap: square"/>
    </g>
    <g id="text_21">
     <!-- H03 -->
     <g transform="translate(127 241.297188) scale(0.1 -0.1)">
      <use xlink:href="#DejaVuSans-48"/>
      <use xlink:href="#DejaVuSans-30" transform="translate(75.195312 0)"/>
      <use xlink:href="#DejaVuSans-33" transform="translate(138.818359 0)"/>
     </g>
    </g>
    <g id="line2d_46">
     <path d="M 99 252.475313 
L 109 252.475313 
L 119 252.475313 
" style="fill: none; stroke: #d62728; stroke-width: 1.5; stroke-linecap: square"/>
    </g>
    <g id="text_22">
     <!-- H04 -->
     <g transform="translate(127 255.975313) scale(0.1 -0.1)">
      <use xlink:href="#DejaVuSans-48"/>
      <use xlink:href="#DejaVuSans-30" transform="translate(75.195312 0)"/>
      <use xlink:href="#DejaVuSans-34" transform="translate(138.818359 0)"/>
     </g>
    </g>
    <g id="line2d_47">
     <path d="M 99 267.153438 
L 109 267.153438 
L 119 267.153438 
" style="fill: none; stroke: #9467bd; stroke-width: 1.5; stroke-linecap: square"/>
    </g>
    <g id="text_23">
     <!-- H05 -->
     <g transform="translate(127 270.653438) scale(0.1 -0.1)">
      <use xlink:href="#DejaVuSans-48"/>
      <use xlink:href="#DejaVuSans-30" transform="translate(75.195312 0)"/>
      <use xlink:href="#DejaVuSans-35" transform="translate(138.818359 0)"/>
     </g>
    </g>
    <g id="line2d_48">
     <path d="M 99 281.831563 
L 109 281.831563 
L 119 281.831563 
" style="fill: none; stroke: #8c564b; stroke-width: 1.5; stroke-linecap: square"/>
    </g>
    <g id="text_24">
     <!-- H06 -->
     <g transform="translate(127 285.331563) scale(0.1 -0.1)">
      <use xlink:href="#DejaVuSans-48"/>
      <use xlink:href="#DejaVuSans-30" transform="translate(75.195312 0)"/>
      <use xlink:href="#DejaVuSans-36" transform="translate(138.818359 0)"/>
     </g>
    </g>
    <g id="line2d_49">
     <path d="M 99 296.509688 
L 109 296.509688 
L 119 296.509688 
" style="fill: none; stroke: #e377c2; stroke-width: 1.5; stroke-linecap: square"/>
    </g>
    <g id="text_25">
     <!-- H07 -->
     <g transform="translate(127 300.009688) scale(0.1 -0.1)">
      <use xlink:href="#DejaVuSans-48"/>
      <use xlink:href="#DejaVuSans-30" transform="translate(75.195312 0)"/>
      <use xlink:href="#DejaVuSans-37" transform="translate(138.818359 0)"/>
     </g>
    </g>
    <g id="line2d_50">
     <path d="M 99 311.187813 
L 109 311.187813 
L 119 311.187813 
" style="fill: none; stroke: #7f7f7f; stroke-width: 1.5; stroke-linecap: square"/>
    </g>
    <g id="text_26">
     <!-- H08 -->
     <g transform="translate(127 314.687813) scale(0.1 -0.1)">
      <defs>
       <path id="DejaVuSans-38" d="M 2034 2216 
Q 1584 2216 1326 1975 
Q 1069 1734 1069 1313 
Q 1069 891 1326 650 
Q 1584 409 2034 409 
Q 2484 409 2743 651 
Q 3003 894 3003 1313 
Q 3003 1734 2745 1975 
Q 2488 2216 2034 2216 
z
M 1403 2484 
Q 997 2584 770 2862 
Q 544 3141 544 3541 
Q 544 4100 942 4425 
Q 1341 4750 2034 4750 
Q 2731 4750 3128 4425 
Q 3525 4100 3525 3541 
Q 3525 3141 3298 2862 
Q 3072 2584 2669 2484 
Q 3125 2378 3379 2068 
Q 3634 1759 3634 1313 
Q 3634 634 3220 271 
Q 2806 -91 2034 -91 
Q 1263 -91 848 271 
Q 434 634 434 1313 
Q 434 1759 690 2068 
Q 947 2378 1403 2484 
z
M 1172 3481 
Q 1172 3119 1398 2916 
Q 1625 2713 2034 2713 
Q 2441 2713 2670 2916 
Q 2900 3119 2900 3481 
Q 2900 3844 2670 4047 
Q 2441 4250 2034 4250 
Q 1625 4250 1398 4047 
Q 1172 3844 1172 3481 
z
" transform="scale(0.015625)"/>
      </defs>
      <use xlink:href="#DejaVuSans-48"/>
      <use xlink:href="#DejaVuSans-30" transform="translate(75.195312 0)"/>
      <use xlink:href="#DejaVuSans-38" transform="translate(138.818359 0)"/>
     </g>
    </g>
    <g id="line2d_51">
     <path d="M 99 325.865938 
L 109 325.865938 
L 119 325.865938 
" style="fill: none; stroke: #bcbd22; stroke-width: 1.5; stroke-linecap: square"/>
    </g>
    <g id="text_27">
     <!-- H09 -->
     <g transform="translate(127 329.365938) scale(0.1 -0.1)">
      <defs>
       <path id="DejaVuSans-39" d="M 703 97 
L 703 672 
Q 941 559 1184 500 
Q 1428 441 1663 441 
Q 2288 441 2617 861 
Q 2947 1281 2994 2138 
Q 2813 1869 2534 1725 
Q 2256 1581 1919 1581 
Q 1219 1581 811 2004 
Q 403 2428 403 3163 
Q 403 3881 828 4315 
Q 1253 4750 1959 4750 
Q 2769 4750 3195 4129 
Q 3622 3509 3622 2328 
Q 3622 1225 3098 567 
Q 2575 -91 1691 -91 
Q 1453 -91 1209 -44 
Q 966 3 703 97 
z
M 1959 2075 
Q 2384 2075 2632 2365 
Q 2881 2656 2881 3163 
Q 2881 3666 2632 3958 
Q 2384 4250 1959 4250 
Q 1534 4250 1286 3958 
Q 1038 3666 1038 3163 
Q 1038 2656 1286 2365 
Q 1534 2075 1959 2075 
z
" transform="scale(0.015625)"/>
      </defs>
      <use xlink:href="#DejaVuSans-48"/>
      <use xlink:href="#DejaVuSans-30" transform="translate(75.195312 0)"/>
      <use xlink:href="#DejaVuSans-39" transform="translate(138.818359 0)"/>
     </g>
    </g>
    <g id="line2d_52">
     <path d="M 99 340.544062 
L 109 340.544062 
L 119 340.544062 
" style="fill: none; stroke: #17becf; stroke-width: 1.5; stroke-linecap: square"/>
    </g>
    <g id="text_28">
     <!-- H10 -->
     <g transform="translate(127 344.044062) scale(0.1 -0.1)">
      <use xlink:href="#DejaVuSans-48"/>
      <use xlink:href="#DejaVuSans-31" transform="translate(75.195312 0)"/>
      <use xlink:href="#DejaVuSans-30" transform="translate(138.818359 0)"/>
     </g>
    </g>
    <g id="line2d_53">
     <path d="M 99 355.222188 
L 109 355.222188 
L 119 355.222188 
" style="fill: none; stroke: #1f77b4; stroke-width: 1.5; stroke-linecap: square"/>
    </g>
    <g id="text_29">
     <!-- H11 -->
     <g transform="translate(127 358.722188) scale(0.1 -0.1)">
      <use xlink:href="#DejaVuSans-48"/>
      <use xlink:href="#DejaVuSans-31" transform="translate(75.195312 0)"/>
      <use xlink:href="#DejaVuSans-31" transform="translate(138.818359 0)"/>
     </g>
    </g>
    <g id="line2d_54">
     <path d="M 99 369.900312 
L 109 369.900312 
L 119 369.900312 
" style="fill: none; stroke: #ff7f0e; stroke-width: 1.5; stroke-linecap: square"/>
    </g>
    <g id="text_30">
     <!-- H12 -->
     <g transform="translate(127 373.400312) scale(0.1 -0.1)">
      <use xlink:href="#DejaVuSans-48"/>
      <use xlink:href="#DejaVuSans-31" transform="translate(75.195312 0)"/>
      <use xlink:href="#DejaVuSans-32" transform="translate(138.818359 0)"/>
     </g>
    </g>
   </g>
  </g>
 </g>
 <defs>
  <clipPath id="p6f90f0f2f8">
   <rect x="90" y="51.84" width="558" height="332.64"/>
  </clipPath>
 </defs>
</svg>
