<?xml version="1.0" encoding="utf-8" standalone="no"?>
<!DOCTYPE svg PUBLIC "-//W3C//DTD SVG 1.1//EN"
  "http://www.w3.org/Graphics/SVG/1.1/DTD/svg11.dtd">
<svg xmlns:xlink="http://www.w3.org/1999/xlink" width="720pt" height="432pt" viewBox="0 0 720 432" xmlns="http://www.w3.org/2000/svg" version="1.1">
 <metadata>
  <rdf:RDF xmlns:dc="http://purl.org/dc/elements/1.1/" xmlns:cc="http://creativecommons.org/ns#" xmlns:rdf="http://www.w3.org/1999/02/22-rdf-syntax-ns#">
   <cc:Work>
    <dc:type rdf:resource="http://purl.org/dc/dcmitype/StillImage"/>
    <dc:date>2025-01-14T20:48:20.952548</dc:date>
    <dc:format>image/svg+xml</dc:format>
    <dc:creator>
     <cc:Agent>
      <dc:title>Matplotlib v3.10.0, https://matplotlib.org/</dc:title>
     </cc:Agent>
    </dc:creator>
   </cc:Work>
  </rdf:RDF>
 </metadata>
 <defs>
  <style type="text/css">*{stroke-linejoin: round; stroke-linecap: butt}</style>
 </defs>
 <g id="figure_1">
  <g id="patch_1">
   <path d="M 0 432 
L 720 432 
L 720 0 
L 0 0 
z
" style="fill: #ffffff"/>
  </g>
  <g id="axes_1">
   <g id="patch_2">
    <path d="M 90 384.48 
L 648 384.48 
L 648 51.84 
L 90 51.84 
z
" style="fill: #ffffff"/>
   </g>
   <g id="matplotlib.axis_1">
    <g id="xtick_1">
     <g id="line2d_1">
      <path d="M 146.84953 384.48 
L 146.84953 51.84 
" clip-path="url(#p124d0f4c34)" style="fill: none; stroke: #b0b0b0; stroke-width: 0.8; stroke-linecap: square"/>
     </g>
     <g id="line2d_2">
      <defs>
       <path id="mf412dafde1" d="M 0 0 
L 0 3.5 
" style="stroke: #000000; stroke-width: 0.8"/>
      </defs>
      <g>
       <use xlink:href="#mf412dafde1" x="146.84953" y="384.48" style="stroke: #000000; stroke-width: 0.8"/>
      </g>
     </g>
     <g id="text_1">
      <!-- 01-14 14 -->
      <g transform="translate(124.369061 399.078438) scale(0.1 -0.1)">
       <defs>
        <path id="DejaVuSans-30" d="M 2034 4250 
Q 1547 4250 1301 3770 
Q 1056 3291 1056 2328 
Q 1056 1369 1301 889 
Q 1547 409 2034 409 
Q 2525 409 2770 889 
Q 3016 1369 3016 2328 
Q 3016 3291 2770 3770 
Q 2525 4250 2034 4250 
z
M 2034 4750 
Q 2819 4750 3233 4129 
Q 3647 3509 3647 2328 
Q 3647 1150 3233 529 
Q 2819 -91 2034 -91 
Q 1250 -91 836 529 
Q 422 1150 422 2328 
Q 422 3509 836 4129 
Q 1250 4750 2034 4750 
z
" transform="scale(0.015625)"/>
        <path id="DejaVuSans-31" d="M 794 531 
L 1825 531 
L 1825 4091 
L 703 3866 
L 703 4441 
L 1819 4666 
L 2450 4666 
L 2450 531 
L 3481 531 
L 3481 0 
L 794 0 
L 794 531 
z
" transform="scale(0.015625)"/>
        <path id="DejaVuSans-2d" d="M 313 2009 
L 1997 2009 
L 1997 1497 
L 313 1497 
L 313 2009 
z
" transform="scale(0.015625)"/>
        <path id="DejaVuSans-34" d="M 2419 4116 
L 825 1625 
L 2419 1625 
L 2419 4116 
z
M 2253 4666 
L 3047 4666 
L 3047 1625 
L 3713 1625 
L 3713 1100 
L 3047 1100 
L 3047 0 
L 2419 0 
L 2419 1100 
L 313 1100 
L 313 1709 
L 2253 4666 
z
" transform="scale(0.015625)"/>
        <path id="DejaVuSans-20" transform="scale(0.015625)"/>
       </defs>
       <use xlink:href="#DejaVuSans-30"/>
       <use xlink:href="#DejaVuSans-31" transform="translate(63.623047 0)"/>
       <use xlink:href="#DejaVuSans-2d" transform="translate(127.246094 0)"/>
       <use xlink:href="#DejaVuSans-31" transform="translate(163.330078 0)"/>
       <use xlink:href="#DejaVuSans-34" transform="translate(226.953125 0)"/>
       <use xlink:href="#DejaVuSans-20" transform="translate(290.576172 0)"/>
       <use xlink:href="#DejaVuSans-31" transform="translate(322.363281 0)"/>
       <use xlink:href="#DejaVuSans-34" transform="translate(385.986328 0)"/>
      </g>
     </g>
    </g>
    <g id="xtick_2">
     <g id="line2d_3">
      <path d="M 216.818182 384.48 
L 216.818182 51.84 
" clip-path="url(#p124d0f4c34)" style="fill: none; stroke: #b0b0b0; stroke-width: 0.8; stroke-linecap: square"/>
     </g>
     <g id="line2d_4">
      <g>
       <use xlink:href="#mf412dafde1" x="216.818182" y="384.48" style="stroke: #000000; stroke-width: 0.8"/>
      </g>
     </g>
     <g id="text_2">
      <!-- 01-14 15 -->
      <g transform="translate(194.337713 399.078438) scale(0.1 -0.1)">
       <defs>
        <path id="DejaVuSans-35" d="M 691 4666 
L 3169 4666 
L 3169 4134 
L 1269 4134 
L 1269 2991 
Q 1406 3038 1543 3061 
Q 1681 3084 1819 3084 
Q 2600 3084 3056 2656 
Q 3513 2228 3513 1497 
Q 3513 744 3044 326 
Q 2575 -91 1722 -91 
Q 1428 -91 1123 -41 
Q 819 9 494 109 
L 494 744 
Q 775 591 1075 516 
Q 1375 441 1709 441 
Q 2250 441 2565 725 
Q 2881 1009 2881 1497 
Q 2881 1984 2565 2268 
Q 2250 2553 1709 2553 
Q 1456 2553 1204 2497 
Q 953 2441 691 2322 
L 691 4666 
z
" transform="scale(0.015625)"/>
       </defs>
       <use xlink:href="#DejaVuSans-30"/>
       <use xlink:href="#DejaVuSans-31" transform="translate(63.623047 0)"/>
       <use xlink:href="#DejaVuSans-2d" transform="translate(127.246094 0)"/>
       <use xlink:href="#DejaVuSans-31" transform="translate(163.330078 0)"/>
       <use xlink:href="#DejaVuSans-34" transform="translate(226.953125 0)"/>
       <use xlink:href="#DejaVuSans-20" transform="translate(290.576172 0)"/>
       <use xlink:href="#DejaVuSans-31" transform="translate(322.363281 0)"/>
       <use xlink:href="#DejaVuSans-35" transform="translate(385.986328 0)"/>
      </g>
     </g>
    </g>
    <g id="xtick_3">
     <g id="line2d_5">
      <path d="M 286.786834 384.48 
L 286.786834 51.84 
" clip-path="url(#p124d0f4c34)" style="fill: none; stroke: #b0b0b0; stroke-width: 0.8; stroke-linecap: square"/>
     </g>
     <g id="line2d_6">
      <g>
       <use xlink:href="#mf412dafde1" x="286.786834" y="384.48" style="stroke: #000000; stroke-width: 0.8"/>
      </g>
     </g>
     <g id="text_3">
      <!-- 01-14 16 -->
      <g transform="translate(264.306365 399.078438) scale(0.1 -0.1)">
       <defs>
        <path id="DejaVuSans-36" d="M 2113 2584 
Q 1688 2584 1439 2293 
Q 1191 2003 1191 1497 
Q 1191 994 1439 701 
Q 1688 409 2113 409 
Q 2538 409 2786 701 
Q 3034 994 3034 1497 
Q 3034 2003 2786 2293 
Q 2538 2584 2113 2584 
z
M 3366 4563 
L 3366 3988 
Q 3128 4100 2886 4159 
Q 2644 4219 2406 4219 
Q 1781 4219 1451 3797 
Q 1122 3375 1075 2522 
Q 1259 2794 1537 2939 
Q 1816 3084 2150 3084 
Q 2853 3084 3261 2657 
Q 3669 2231 3669 1497 
Q 3669 778 3244 343 
Q 2819 -91 2113 -91 
Q 1303 -91 875 529 
Q 447 1150 447 2328 
Q 447 3434 972 4092 
Q 1497 4750 2381 4750 
Q 2619 4750 2861 4703 
Q 3103 4656 3366 4563 
z
" transform="scale(0.015625)"/>
       </defs>
       <use xlink:href="#DejaVuSans-30"/>
       <use xlink:href="#DejaVuSans-31" transform="translate(63.623047 0)"/>
       <use xlink:href="#DejaVuSans-2d" transform="translate(127.246094 0)"/>
       <use xlink:href="#DejaVuSans-31" transform="translate(163.330078 0)"/>
       <use xlink:href="#DejaVuSans-34" transform="translate(226.953125 0)"/>
       <use xlink:href="#DejaVuSans-20" transform="translate(290.576172 0)"/>
       <use xlink:href="#DejaVuSans-31" transform="translate(322.363281 0)"/>
       <use xlink:href="#DejaVuSans-36" transform="translate(385.986328 0)"/>
      </g>
     </g>
    </g>
    <g id="xtick_4">
     <g id="line2d_7">
      <path d="M 356.755486 384.48 
L 356.755486 51.84 
" clip-path="url(#p124d0f4c34)" style="fill: none; stroke: #b0b0b0; stroke-width: 0.8; stroke-linecap: square"/>
     </g>
     <g id="line2d_8">
      <g>
       <use xlink:href="#mf412dafde1" x="356.755486" y="384.48" style="stroke: #000000; stroke-width: 0.8"/>
      </g>
     </g>
     <g id="text_4">
      <!-- 01-14 17 -->
      <g transform="translate(334.275017 399.078438) scale(0.1 -0.1)">
       <defs>
        <path id="DejaVuSans-37" d="M 525 4666 
L 3525 4666 
L 3525 4397 
L 1831 0 
L 1172 0 
L 2766 4134 
L 525 4134 
L 525 4666 
z
" transform="scale(0.015625)"/>
       </defs>
       <use xlink:href="#DejaVuSans-30"/>
       <use xlink:href="#DejaVuSans-31" transform="translate(63.623047 0)"/>
       <use xlink:href="#DejaVuSans-2d" transform="translate(127.246094 0)"/>
       <use xlink:href="#DejaVuSans-31" transform="translate(163.330078 0)"/>
       <use xlink:href="#DejaVuSans-34" transform="translate(226.953125 0)"/>
       <use xlink:href="#DejaVuSans-20" transform="translate(290.576172 0)"/>
       <use xlink:href="#DejaVuSans-31" transform="translate(322.363281 0)"/>
       <use xlink:href="#DejaVuSans-37" transform="translate(385.986328 0)"/>
      </g>
     </g>
    </g>
    <g id="xtick_5">
     <g id="line2d_9">
      <path d="M 426.724138 384.48 
L 426.724138 51.84 
" clip-path="url(#p124d0f4c34)" style="fill: none; stroke: #b0b0b0; stroke-width: 0.8; stroke-linecap: square"/>
     </g>
     <g id="line2d_10">
      <g>
       <use xlink:href="#mf412dafde1" x="426.724138" y="384.48" style="stroke: #000000; stroke-width: 0.8"/>
      </g>
     </g>
     <g id="text_5">
      <!-- 01-14 18 -->
      <g transform="translate(404.243669 399.078438) scale(0.1 -0.1)">
       <defs>
        <path id="DejaVuSans-38" d="M 2034 2216 
Q 1584 2216 1326 1975 
Q 1069 1734 1069 1313 
Q 1069 891 1326 650 
Q 1584 409 2034 409 
Q 2484 409 2743 651 
Q 3003 894 3003 1313 
Q 3003 1734 2745 1975 
Q 2488 2216 2034 2216 
z
M 1403 2484 
Q 997 2584 770 2862 
Q 544 3141 544 3541 
Q 544 4100 942 4425 
Q 1341 4750 2034 4750 
Q 2731 4750 3128 4425 
Q 3525 4100 3525 3541 
Q 3525 3141 3298 2862 
Q 3072 2584 2669 2484 
Q 3125 2378 3379 2068 
Q 3634 1759 3634 1313 
Q 3634 634 3220 271 
Q 2806 -91 2034 -91 
Q 1263 -91 848 271 
Q 434 634 434 1313 
Q 434 1759 690 2068 
Q 947 2378 1403 2484 
z
M 1172 3481 
Q 1172 3119 1398 2916 
Q 1625 2713 2034 2713 
Q 2441 2713 2670 2916 
Q 2900 3119 2900 3481 
Q 2900 3844 2670 4047 
Q 2441 4250 2034 4250 
Q 1625 4250 1398 4047 
Q 1172 3844 1172 3481 
z
" transform="scale(0.015625)"/>
       </defs>
       <use xlink:href="#DejaVuSans-30"/>
       <use xlink:href="#DejaVuSans-31" transform="translate(63.623047 0)"/>
       <use xlink:href="#DejaVuSans-2d" transform="translate(127.246094 0)"/>
       <use xlink:href="#DejaVuSans-31" transform="translate(163.330078 0)"/>
       <use xlink:href="#DejaVuSans-34" transform="translate(226.953125 0)"/>
       <use xlink:href="#DejaVuSans-20" transform="translate(290.576172 0)"/>
       <use xlink:href="#DejaVuSans-31" transform="translate(322.363281 0)"/>
       <use xlink:href="#DejaVuSans-38" transform="translate(385.986328 0)"/>
      </g>
     </g>
    </g>
    <g id="xtick_6">
     <g id="line2d_11">
      <path d="M 496.69279 384.48 
L 496.69279 51.84 
" clip-path="url(#p124d0f4c34)" style="fill: none; stroke: #b0b0b0; stroke-width: 0.8; stroke-linecap: square"/>
     </g>
     <g id="line2d_12">
      <g>
       <use xlink:href="#mf412dafde1" x="496.69279" y="384.48" style="stroke: #000000; stroke-width: 0.8"/>
      </g>
     </g>
     <g id="text_6">
      <!-- 01-14 19 -->
      <g transform="translate(474.212321 399.078438) scale(0.1 -0.1)">
       <defs>
        <path id="DejaVuSans-39" d="M 703 97 
L 703 672 
Q 941 559 1184 500 
Q 1428 441 1663 441 
Q 2288 441 2617 861 
Q 2947 1281 2994 2138 
Q 2813 1869 2534 1725 
Q 2256 1581 1919 1581 
Q 1219 1581 811 2004 
Q 403 2428 403 3163 
Q 403 3881 828 4315 
Q 1253 4750 1959 4750 
Q 2769 4750 3195 4129 
Q 3622 3509 3622 2328 
Q 3622 1225 3098 567 
Q 2575 -91 1691 -91 
Q 1453 -91 1209 -44 
Q 966 3 703 97 
z
M 1959 2075 
Q 2384 2075 2632 2365 
Q 2881 2656 2881 3163 
Q 2881 3666 2632 3958 
Q 2384 4250 1959 4250 
Q 1534 4250 1286 3958 
Q 1038 3666 1038 3163 
Q 1038 2656 1286 2365 
Q 1534 2075 1959 2075 
z
" transform="scale(0.015625)"/>
       </defs>
       <use xlink:href="#DejaVuSans-30"/>
       <use xlink:href="#DejaVuSans-31" transform="translate(63.623047 0)"/>
       <use xlink:href="#DejaVuSans-2d" transform="translate(127.246094 0)"/>
       <use xlink:href="#DejaVuSans-31" transform="translate(163.330078 0)"/>
       <use xlink:href="#DejaVuSans-34" transform="translate(226.953125 0)"/>
       <use xlink:href="#DejaVuSans-20" transform="translate(290.576172 0)"/>
       <use xlink:href="#DejaVuSans-31" transform="translate(322.363281 0)"/>
       <use xlink:href="#DejaVuSans-39" transform="translate(385.986328 0)"/>
      </g>
     </g>
    </g>
    <g id="xtick_7">
     <g id="line2d_13">
      <path d="M 566.661442 384.48 
L 566.661442 51.84 
" clip-path="url(#p124d0f4c34)" style="fill: none; stroke: #b0b0b0; stroke-width: 0.8; stroke-linecap: square"/>
     </g>
     <g id="line2d_14">
      <g>
       <use xlink:href="#mf412dafde1" x="566.661442" y="384.48" style="stroke: #000000; stroke-width: 0.8"/>
      </g>
     </g>
     <g id="text_7">
      <!-- 01-14 20 -->
      <g transform="translate(544.180973 399.078438) scale(0.1 -0.1)">
       <defs>
        <path id="DejaVuSans-32" d="M 1228 531 
L 3431 531 
L 3431 0 
L 469 0 
L 469 531 
Q 828 903 1448 1529 
Q 2069 2156 2228 2338 
Q 2531 2678 2651 2914 
Q 2772 3150 2772 3378 
Q 2772 3750 2511 3984 
Q 2250 4219 1831 4219 
Q 1534 4219 1204 4116 
Q 875 4013 500 3803 
L 500 4441 
Q 881 4594 1212 4672 
Q 1544 4750 1819 4750 
Q 2544 4750 2975 4387 
Q 3406 4025 3406 3419 
Q 3406 3131 3298 2873 
Q 3191 2616 2906 2266 
Q 2828 2175 2409 1742 
Q 1991 1309 1228 531 
z
" transform="scale(0.015625)"/>
       </defs>
       <use xlink:href="#DejaVuSans-30"/>
       <use xlink:href="#DejaVuSans-31" transform="translate(63.623047 0)"/>
       <use xlink:href="#DejaVuSans-2d" transform="translate(127.246094 0)"/>
       <use xlink:href="#DejaVuSans-31" transform="translate(163.330078 0)"/>
       <use xlink:href="#DejaVuSans-34" transform="translate(226.953125 0)"/>
       <use xlink:href="#DejaVuSans-20" transform="translate(290.576172 0)"/>
       <use xlink:href="#DejaVuSans-32" transform="translate(322.363281 0)"/>
       <use xlink:href="#DejaVuSans-30" transform="translate(385.986328 0)"/>
      </g>
     </g>
    </g>
    <g id="xtick_8">
     <g id="line2d_15">
      <path d="M 636.630094 384.48 
L 636.630094 51.84 
" clip-path="url(#p124d0f4c34)" style="fill: none; stroke: #b0b0b0; stroke-width: 0.8; stroke-linecap: square"/>
     </g>
     <g id="line2d_16">
      <g>
       <use xlink:href="#mf412dafde1" x="636.630094" y="384.48" style="stroke: #000000; stroke-width: 0.8"/>
      </g>
     </g>
     <g id="text_8">
      <!-- 01-14 21 -->
      <g transform="translate(614.149625 399.078438) scale(0.1 -0.1)">
       <use xlink:href="#DejaVuSans-30"/>
       <use xlink:href="#DejaVuSans-31" transform="translate(63.623047 0)"/>
       <use xlink:href="#DejaVuSans-2d" transform="translate(127.246094 0)"/>
       <use xlink:href="#DejaVuSans-31" transform="translate(163.330078 0)"/>
       <use xlink:href="#DejaVuSans-34" transform="translate(226.953125 0)"/>
       <use xlink:href="#DejaVuSans-20" transform="translate(290.576172 0)"/>
       <use xlink:href="#DejaVuSans-32" transform="translate(322.363281 0)"/>
       <use xlink:href="#DejaVuSans-31" transform="translate(385.986328 0)"/>
      </g>
     </g>
    </g>
    <g id="text_9">
     <!-- Date and Time -->
     <g transform="translate(332.230469 412.756563) scale(0.1 -0.1)">
      <defs>
       <path id="DejaVuSans-44" d="M 1259 4147 
L 1259 519 
L 2022 519 
Q 2988 519 3436 956 
Q 3884 1394 3884 2338 
Q 3884 3275 3436 3711 
Q 2988 4147 2022 4147 
L 1259 4147 
z
M 628 4666 
L 1925 4666 
Q 3281 4666 3915 4102 
Q 4550 3538 4550 2338 
Q 4550 1131 3912 565 
Q 3275 0 1925 0 
L 628 0 
L 628 4666 
z
" transform="scale(0.015625)"/>
       <path id="DejaVuSans-61" d="M 2194 1759 
Q 1497 1759 1228 1600 
Q 959 1441 959 1056 
Q 959 750 1161 570 
Q 1363 391 1709 391 
Q 2188 391 2477 730 
Q 2766 1069 2766 1631 
L 2766 1759 
L 2194 1759 
z
M 3341 1997 
L 3341 0 
L 2766 0 
L 2766 531 
Q 2569 213 2275 61 
Q 1981 -91 1556 -91 
Q 1019 -91 701 211 
Q 384 513 384 1019 
Q 384 1609 779 1909 
Q 1175 2209 1959 2209 
L 2766 2209 
L 2766 2266 
Q 2766 2663 2505 2880 
Q 2244 3097 1772 3097 
Q 1472 3097 1187 3025 
Q 903 2953 641 2809 
L 641 3341 
Q 956 3463 1253 3523 
Q 1550 3584 1831 3584 
Q 2591 3584 2966 3190 
Q 3341 2797 3341 1997 
z
" transform="scale(0.015625)"/>
       <path id="DejaVuSans-74" d="M 1172 4494 
L 1172 3500 
L 2356 3500 
L 2356 3053 
L 1172 3053 
L 1172 1153 
Q 1172 725 1289 603 
Q 1406 481 1766 481 
L 2356 481 
L 2356 0 
L 1766 0 
Q 1100 0 847 248 
Q 594 497 594 1153 
L 594 3053 
L 172 3053 
L 172 3500 
L 594 3500 
L 594 4494 
L 1172 4494 
z
" transform="scale(0.015625)"/>
       <path id="DejaVuSans-65" d="M 3597 1894 
L 3597 1613 
L 953 1613 
Q 991 1019 1311 708 
Q 1631 397 2203 397 
Q 2534 397 2845 478 
Q 3156 559 3463 722 
L 3463 178 
Q 3153 47 2828 -22 
Q 2503 -91 2169 -91 
Q 1331 -91 842 396 
Q 353 884 353 1716 
Q 353 2575 817 3079 
Q 1281 3584 2069 3584 
Q 2775 3584 3186 3129 
Q 3597 2675 3597 1894 
z
M 3022 2063 
Q 3016 2534 2758 2815 
Q 2500 3097 2075 3097 
Q 1594 3097 1305 2825 
Q 1016 2553 972 2059 
L 3022 2063 
z
" transform="scale(0.015625)"/>
       <path id="DejaVuSans-6e" d="M 3513 2113 
L 3513 0 
L 2938 0 
L 2938 2094 
Q 2938 2591 2744 2837 
Q 2550 3084 2163 3084 
Q 1697 3084 1428 2787 
Q 1159 2491 1159 1978 
L 1159 0 
L 581 0 
L 581 3500 
L 1159 3500 
L 1159 2956 
Q 1366 3272 1645 3428 
Q 1925 3584 2291 3584 
Q 2894 3584 3203 3211 
Q 3513 2838 3513 2113 
z
" transform="scale(0.015625)"/>
       <path id="DejaVuSans-64" d="M 2906 2969 
L 2906 4863 
L 3481 4863 
L 3481 0 
L 2906 0 
L 2906 525 
Q 2725 213 2448 61 
Q 2172 -91 1784 -91 
Q 1150 -91 751 415 
Q 353 922 353 1747 
Q 353 2572 751 3078 
Q 1150 3584 1784 3584 
Q 2172 3584 2448 3432 
Q 2725 3281 2906 2969 
z
M 947 1747 
Q 947 1113 1208 752 
Q 1469 391 1925 391 
Q 2381 391 2643 752 
Q 2906 1113 2906 1747 
Q 2906 2381 2643 2742 
Q 2381 3103 1925 3103 
Q 1469 3103 1208 2742 
Q 947 2381 947 1747 
z
" transform="scale(0.015625)"/>
       <path id="DejaVuSans-54" d="M -19 4666 
L 3928 4666 
L 3928 4134 
L 2272 4134 
L 2272 0 
L 1638 0 
L 1638 4134 
L -19 4134 
L -19 4666 
z
" transform="scale(0.015625)"/>
       <path id="DejaVuSans-69" d="M 603 3500 
L 1178 3500 
L 1178 0 
L 603 0 
L 603 3500 
z
M 603 4863 
L 1178 4863 
L 1178 4134 
L 603 4134 
L 603 4863 
z
" transform="scale(0.015625)"/>
       <path id="DejaVuSans-6d" d="M 3328 2828 
Q 3544 3216 3844 3400 
Q 4144 3584 4550 3584 
Q 5097 3584 5394 3201 
Q 5691 2819 5691 2113 
L 5691 0 
L 5113 0 
L 5113 2094 
Q 5113 2597 4934 2840 
Q 4756 3084 4391 3084 
Q 3944 3084 3684 2787 
Q 3425 2491 3425 1978 
L 3425 0 
L 2847 0 
L 2847 2094 
Q 2847 2600 2669 2842 
Q 2491 3084 2119 3084 
Q 1678 3084 1418 2786 
Q 1159 2488 1159 1978 
L 1159 0 
L 581 0 
L 581 3500 
L 1159 3500 
L 1159 2956 
Q 1356 3278 1631 3431 
Q 1906 3584 2284 3584 
Q 2666 3584 2933 3390 
Q 3200 3197 3328 2828 
z
" transform="scale(0.015625)"/>
      </defs>
      <use xlink:href="#DejaVuSans-44"/>
      <use xlink:href="#DejaVuSans-61" transform="translate(77.001953 0)"/>
      <use xlink:href="#DejaVuSans-74" transform="translate(138.28125 0)"/>
      <use xlink:href="#DejaVuSans-65" transform="translate(177.490234 0)"/>
      <use xlink:href="#DejaVuSans-20" transform="translate(239.013672 0)"/>
      <use xlink:href="#DejaVuSans-61" transform="translate(270.800781 0)"/>
      <use xlink:href="#DejaVuSans-6e" transform="translate(332.080078 0)"/>
      <use xlink:href="#DejaVuSans-64" transform="translate(395.458984 0)"/>
      <use xlink:href="#DejaVuSans-20" transform="translate(458.935547 0)"/>
      <use xlink:href="#DejaVuSans-54" transform="translate(490.722656 0)"/>
      <use xlink:href="#DejaVuSans-69" transform="translate(548.681641 0)"/>
      <use xlink:href="#DejaVuSans-6d" transform="translate(576.464844 0)"/>
      <use xlink:href="#DejaVuSans-65" transform="translate(673.876953 0)"/>
     </g>
    </g>
   </g>
   <g id="matplotlib.axis_2">
    <g id="ytick_1">
     <g id="line2d_17">
      <path d="M 90 370.501132 
L 648 370.501132 
" clip-path="url(#p124d0f4c34)" style="fill: none; stroke: #b0b0b0; stroke-width: 0.8; stroke-linecap: square"/>
     </g>
     <g id="line2d_18">
      <defs>
       <path id="m1d28e2d5d7" d="M 0 0 
L -3.5 0 
" style="stroke: #000000; stroke-width: 0.8"/>
      </defs>
      <g>
       <use xlink:href="#m1d28e2d5d7" x="90" y="370.501132" style="stroke: #000000; stroke-width: 0.8"/>
      </g>
     </g>
     <g id="text_10">
      <!-- 0 -->
      <g transform="translate(76.6375 374.300351) scale(0.1 -0.1)">
       <use xlink:href="#DejaVuSans-30"/>
      </g>
     </g>
    </g>
    <g id="ytick_2">
     <g id="line2d_19">
      <path d="M 90 313.444528 
L 648 313.444528 
" clip-path="url(#p124d0f4c34)" style="fill: none; stroke: #b0b0b0; stroke-width: 0.8; stroke-linecap: square"/>
     </g>
     <g id="line2d_20">
      <g>
       <use xlink:href="#m1d28e2d5d7" x="90" y="313.444528" style="stroke: #000000; stroke-width: 0.8"/>
      </g>
     </g>
     <g id="text_11">
      <!-- 50 -->
      <g transform="translate(70.275 317.243747) scale(0.1 -0.1)">
       <use xlink:href="#DejaVuSans-35"/>
       <use xlink:href="#DejaVuSans-30" transform="translate(63.623047 0)"/>
      </g>
     </g>
    </g>
    <g id="ytick_3">
     <g id="line2d_21">
      <path d="M 90 256.387925 
L 648 256.387925 
" clip-path="url(#p124d0f4c34)" style="fill: none; stroke: #b0b0b0; stroke-width: 0.8; stroke-linecap: square"/>
     </g>
     <g id="line2d_22">
      <g>
       <use xlink:href="#m1d28e2d5d7" x="90" y="256.387925" style="stroke: #000000; stroke-width: 0.8"/>
      </g>
     </g>
     <g id="text_12">
      <!-- 100 -->
      <g transform="translate(63.9125 260.187143) scale(0.1 -0.1)">
       <use xlink:href="#DejaVuSans-31"/>
       <use xlink:href="#DejaVuSans-30" transform="translate(63.623047 0)"/>
       <use xlink:href="#DejaVuSans-30" transform="translate(127.246094 0)"/>
      </g>
     </g>
    </g>
    <g id="ytick_4">
     <g id="line2d_23">
      <path d="M 90 199.331321 
L 648 199.331321 
" clip-path="url(#p124d0f4c34)" style="fill: none; stroke: #b0b0b0; stroke-width: 0.8; stroke-linecap: square"/>
     </g>
     <g id="line2d_24">
      <g>
       <use xlink:href="#m1d28e2d5d7" x="90" y="199.331321" style="stroke: #000000; stroke-width: 0.8"/>
      </g>
     </g>
     <g id="text_13">
      <!-- 150 -->
      <g transform="translate(63.9125 203.13054) scale(0.1 -0.1)">
       <use xlink:href="#DejaVuSans-31"/>
       <use xlink:href="#DejaVuSans-35" transform="translate(63.623047 0)"/>
       <use xlink:href="#DejaVuSans-30" transform="translate(127.246094 0)"/>
      </g>
     </g>
    </g>
    <g id="ytick_5">
     <g id="line2d_25">
      <path d="M 90 142.274717 
L 648 142.274717 
" clip-path="url(#p124d0f4c34)" style="fill: none; stroke: #b0b0b0; stroke-width: 0.8; stroke-linecap: square"/>
     </g>
     <g id="line2d_26">
      <g>
       <use xlink:href="#m1d28e2d5d7" x="90" y="142.274717" style="stroke: #000000; stroke-width: 0.8"/>
      </g>
     </g>
     <g id="text_14">
      <!-- 200 -->
      <g transform="translate(63.9125 146.073936) scale(0.1 -0.1)">
       <use xlink:href="#DejaVuSans-32"/>
       <use xlink:href="#DejaVuSans-30" transform="translate(63.623047 0)"/>
       <use xlink:href="#DejaVuSans-30" transform="translate(127.246094 0)"/>
      </g>
     </g>
    </g>
    <g id="ytick_6">
     <g id="line2d_27">
      <path d="M 90 85.218113 
L 648 85.218113 
" clip-path="url(#p124d0f4c34)" style="fill: none; stroke: #b0b0b0; stroke-width: 0.8; stroke-linecap: square"/>
     </g>
     <g id="line2d_28">
      <g>
       <use xlink:href="#m1d28e2d5d7" x="90" y="85.218113" style="stroke: #000000; stroke-width: 0.8"/>
      </g>
     </g>
     <g id="text_15">
      <!-- 250 -->
      <g transform="translate(63.9125 89.017332) scale(0.1 -0.1)">
       <use xlink:href="#DejaVuSans-32"/>
       <use xlink:href="#DejaVuSans-35" transform="translate(63.623047 0)"/>
       <use xlink:href="#DejaVuSans-30" transform="translate(127.246094 0)"/>
      </g>
     </g>
    </g>
    <g id="text_16">
     <!-- Votes -->
     <g transform="translate(57.832812 231.893594) rotate(-90) scale(0.1 -0.1)">
      <defs>
       <path id="DejaVuSans-56" d="M 1831 0 
L 50 4666 
L 709 4666 
L 2188 738 
L 3669 4666 
L 4325 4666 
L 2547 0 
L 1831 0 
z
" transform="scale(0.015625)"/>
       <path id="DejaVuSans-6f" d="M 1959 3097 
Q 1497 3097 1228 2736 
Q 959 2375 959 1747 
Q 959 1119 1226 758 
Q 1494 397 1959 397 
Q 2419 397 2687 759 
Q 2956 1122 2956 1747 
Q 2956 2369 2687 2733 
Q 2419 3097 1959 3097 
z
M 1959 3584 
Q 2709 3584 3137 3096 
Q 3566 2609 3566 1747 
Q 3566 888 3137 398 
Q 2709 -91 1959 -91 
Q 1206 -91 779 398 
Q 353 888 353 1747 
Q 353 2609 779 3096 
Q 1206 3584 1959 3584 
z
" transform="scale(0.015625)"/>
       <path id="DejaVuSans-73" d="M 2834 3397 
L 2834 2853 
Q 2591 2978 2328 3040 
Q 2066 3103 1784 3103 
Q 1356 3103 1142 2972 
Q 928 2841 928 2578 
Q 928 2378 1081 2264 
Q 1234 2150 1697 2047 
L 1894 2003 
Q 2506 1872 2764 1633 
Q 3022 1394 3022 966 
Q 3022 478 2636 193 
Q 2250 -91 1575 -91 
Q 1294 -91 989 -36 
Q 684 19 347 128 
L 347 722 
Q 666 556 975 473 
Q 1284 391 1588 391 
Q 1994 391 2212 530 
Q 2431 669 2431 922 
Q 2431 1156 2273 1281 
Q 2116 1406 1581 1522 
L 1381 1569 
Q 847 1681 609 1914 
Q 372 2147 372 2553 
Q 372 3047 722 3315 
Q 1072 3584 1716 3584 
Q 2034 3584 2315 3537 
Q 2597 3491 2834 3397 
z
" transform="scale(0.015625)"/>
      </defs>
      <use xlink:href="#DejaVuSans-56"/>
      <use xlink:href="#DejaVuSans-6f" transform="translate(60.658203 0)"/>
      <use xlink:href="#DejaVuSans-74" transform="translate(121.839844 0)"/>
      <use xlink:href="#DejaVuSans-65" transform="translate(161.048828 0)"/>
      <use xlink:href="#DejaVuSans-73" transform="translate(222.572266 0)"/>
     </g>
    </g>
   </g>
   <g id="line2d_29">
    <path d="M 115.363636 349.960755 
L 127.025078 349.960755 
L 128.191223 348.819623 
L 139.852665 348.819623 
L 141.018809 346.537358 
L 151.514107 346.537358 
L 152.680251 345.396226 
L 158.510972 345.396226 
L 159.677116 344.255094 
L 164.341693 344.255094 
L 165.507837 343.113962 
L 169.00627 343.113962 
L 170.172414 341.97283 
L 186.498433 341.97283 
L 187.664577 340.831698 
L 200.492163 340.831698 
L 202.824451 338.549434 
L 205.15674 338.549434 
L 206.322884 337.408302 
L 216.818182 337.408302 
L 219.15047 335.126038 
L 233.144201 335.126038 
L 234.310345 333.984906 
L 237.808777 333.984906 
L 238.974922 332.843774 
L 240.141066 332.843774 
L 241.30721 331.702642 
L 272.793103 331.702642 
L 273.959248 330.561509 
L 287.952978 330.561509 
L 289.119122 329.420377 
L 297.282132 329.420377 
L 298.448276 328.279245 
L 299.61442 325.996981 
L 300.780564 325.996981 
L 303.112853 323.714717 
L 321.77116 323.714717 
L 322.937304 322.573585 
L 329.934169 322.573585 
L 331.100313 321.432453 
L 335.76489 321.432453 
L 336.931034 320.291321 
L 348.592476 320.291321 
L 349.758621 319.150189 
L 352.090909 319.150189 
L 353.257053 318.009057 
L 356.755486 318.009057 
L 357.92163 316.867925 
L 367.250784 316.867925 
L 368.416928 315.726792 
L 369.583072 315.726792 
L 370.749216 314.58566 
L 382.410658 314.58566 
L 383.576803 313.444528 
L 391.739812 313.444528 
L 392.905956 312.303396 
L 394.0721 312.303396 
L 396.404389 310.021132 
L 422.059561 310.021132 
L 423.225705 308.88 
L 441.884013 308.88 
L 443.050157 307.738868 
L 444.216301 307.738868 
L 445.382445 306.597736 
L 455.877743 306.597736 
L 457.043887 305.456604 
L 458.210031 305.456604 
L 459.376176 304.315472 
L 465.206897 304.315472 
L 466.373041 303.17434 
L 469.871473 303.17434 
L 472.203762 300.892075 
L 473.369906 300.892075 
L 474.53605 299.750943 
L 476.868339 299.750943 
L 478.034483 298.609811 
L 480.366771 298.609811 
L 481.532915 297.468679 
L 483.865204 297.468679 
L 485.031348 296.327547 
L 513.018809 296.327547 
L 514.184953 295.186415 
L 525.846395 295.186415 
L 527.012539 294.045283 
L 534.009404 294.045283 
L 535.175549 292.904151 
L 536.341693 292.904151 
L 537.507837 291.763019 
L 538.673981 291.763019 
L 543.338558 287.198491 
L 545.670846 287.198491 
L 546.836991 284.916226 
L 556.166144 284.916226 
L 558.498433 282.633962 
L 560.830721 282.633962 
L 561.996865 281.49283 
L 566.661442 281.49283 
L 567.827586 280.351698 
L 575.990596 280.351698 
L 577.15674 279.210566 
L 579.489028 279.210566 
L 580.655172 278.069434 
L 587.652038 278.069434 
L 589.984326 275.78717 
L 598.147335 275.78717 
L 599.31348 274.646038 
L 602.811912 274.646038 
L 603.978056 273.504906 
L 606.310345 273.504906 
L 607.476489 271.222642 
L 612.141066 271.222642 
L 613.30721 268.940377 
L 614.473354 267.799245 
L 619.137931 267.799245 
L 620.304075 265.516981 
L 622.636364 265.516981 
L 622.636364 265.516981 
" clip-path="url(#p124d0f4c34)" style="fill: none; stroke: #1f77b4; stroke-width: 1.5; stroke-linecap: square"/>
   </g>
   <g id="line2d_30">
    <path d="M 115.363636 276.928302 
L 116.529781 275.78717 
L 120.028213 275.78717 
L 121.194357 274.646038 
L 122.360502 274.646038 
L 123.526646 273.504906 
L 124.69279 273.504906 
L 127.025078 271.222642 
L 128.191223 268.940377 
L 129.357367 268.940377 
L 131.689655 266.658113 
L 132.855799 266.658113 
L 134.021944 262.093585 
L 135.188088 259.811321 
L 136.354232 255.246792 
L 137.520376 251.823396 
L 141.018809 251.823396 
L 142.184953 248.4 
L 143.351097 246.117736 
L 145.683386 243.835472 
L 146.84953 241.553208 
L 149.181818 239.270943 
L 150.347962 236.988679 
L 153.846395 236.988679 
L 155.012539 231.283019 
L 156.178683 229.000755 
L 157.344828 227.859623 
L 158.510972 225.577358 
L 159.677116 224.436226 
L 160.84326 224.436226 
L 162.009404 221.01283 
L 163.175549 221.01283 
L 164.341693 218.730566 
L 165.507837 217.589434 
L 166.673981 217.589434 
L 167.840125 216.448302 
L 170.172414 216.448302 
L 171.338558 215.30717 
L 173.670846 215.30717 
L 174.836991 213.024906 
L 176.003135 213.024906 
L 177.169279 211.883774 
L 181.833856 211.883774 
L 183 210.742642 
L 186.498433 210.742642 
L 187.664577 209.601509 
L 188.830721 209.601509 
L 189.996865 207.319245 
L 191.163009 207.319245 
L 192.329154 205.036981 
L 193.495298 203.895849 
L 196.99373 203.895849 
L 198.159875 201.613585 
L 199.326019 200.472453 
L 200.492163 197.049057 
L 202.824451 194.766792 
L 212.153605 194.766792 
L 213.319749 191.343396 
L 214.485893 191.343396 
L 216.818182 189.061132 
L 217.984326 189.061132 
L 221.482759 185.637736 
L 223.815047 185.637736 
L 224.981191 184.496604 
L 227.31348 184.496604 
L 230.811912 181.073208 
L 233.144201 181.073208 
L 234.310345 179.932075 
L 240.141066 179.932075 
L 241.30721 178.790943 
L 243.639498 178.790943 
L 244.805643 177.649811 
L 258.799373 177.649811 
L 259.965517 175.367547 
L 262.297806 175.367547 
L 264.630094 173.085283 
L 265.796238 173.085283 
L 266.962382 171.944151 
L 273.959248 171.944151 
L 277.45768 168.520755 
L 278.623824 168.520755 
L 279.789969 167.379623 
L 280.956113 165.097358 
L 282.122257 165.097358 
L 283.288401 163.956226 
L 284.454545 163.956226 
L 289.119122 159.391698 
L 291.451411 159.391698 
L 292.617555 157.109434 
L 296.115987 157.109434 
L 297.282132 155.968302 
L 300.780564 155.968302 
L 301.946708 154.82717 
L 303.112853 154.82717 
L 304.278997 151.403774 
L 307.777429 151.403774 
L 308.943574 150.262642 
L 310.109718 147.980377 
L 312.442006 147.980377 
L 313.60815 146.839245 
L 315.940439 146.839245 
L 317.106583 145.698113 
L 318.272727 145.698113 
L 324.103448 139.992453 
L 326.435737 139.992453 
L 329.934169 136.569057 
L 333.432602 136.569057 
L 334.598746 134.286792 
L 335.76489 134.286792 
L 336.931034 133.14566 
L 340.429467 133.14566 
L 341.595611 132.004528 
L 352.090909 132.004528 
L 353.257053 130.863396 
L 361.420063 130.863396 
L 362.586207 129.722264 
L 364.918495 129.722264 
L 367.250784 127.44 
L 373.081505 127.44 
L 374.247649 126.298868 
L 380.07837 126.298868 
L 383.576803 122.875472 
L 398.736677 122.875472 
L 399.902821 120.593208 
L 401.068966 119.452075 
L 429.056426 119.452075 
L 430.222571 118.310943 
L 437.219436 118.310943 
L 439.551724 116.028679 
L 441.884013 116.028679 
L 443.050157 114.887547 
L 444.216301 114.887547 
L 446.548589 112.605283 
L 447.714734 112.605283 
L 448.880878 111.464151 
L 450.047022 111.464151 
L 452.37931 106.899623 
L 453.545455 105.758491 
L 459.376176 105.758491 
L 460.54232 102.335094 
L 461.708464 100.05283 
L 464.040752 100.05283 
L 466.373041 97.770566 
L 472.203762 97.770566 
L 474.53605 95.488302 
L 476.868339 95.488302 
L 478.034483 94.34717 
L 480.366771 94.34717 
L 481.532915 93.206038 
L 482.69906 93.206038 
L 483.865204 92.064906 
L 485.031348 92.064906 
L 486.197492 90.923774 
L 487.363636 90.923774 
L 488.529781 89.782642 
L 490.862069 89.782642 
L 492.028213 87.500377 
L 497.858934 87.500377 
L 500.191223 85.218113 
L 511.852665 85.218113 
L 513.018809 84.076981 
L 514.184953 84.076981 
L 515.351097 82.935849 
L 516.517241 82.935849 
L 520.015674 79.512453 
L 522.347962 79.512453 
L 523.514107 78.371321 
L 546.836991 78.371321 
L 549.169279 76.089057 
L 553.833856 76.089057 
L 555 74.947925 
L 556.166144 74.947925 
L 557.332288 73.806792 
L 558.498433 73.806792 
L 559.664577 72.66566 
L 585.319749 72.66566 
L 586.485893 71.524528 
L 609.808777 71.524528 
L 610.974922 69.242264 
L 619.137931 69.242264 
L 621.470219 66.96 
L 622.636364 66.96 
L 622.636364 66.96 
" clip-path="url(#p124d0f4c34)" style="fill: none; stroke: #ff7f0e; stroke-width: 1.5; stroke-linecap: square"/>
   </g>
   <g id="line2d_31">
    <path d="M 115.363636 335.126038 
L 120.028213 335.126038 
L 121.194357 332.843774 
L 123.526646 332.843774 
L 124.69279 331.702642 
L 125.858934 329.420377 
L 127.025078 328.279245 
L 128.191223 324.855849 
L 129.357367 322.573585 
L 130.523511 321.432453 
L 131.689655 321.432453 
L 132.855799 319.150189 
L 134.021944 315.726792 
L 138.68652 315.726792 
L 139.852665 314.58566 
L 141.018809 314.58566 
L 142.184953 312.303396 
L 145.683386 312.303396 
L 148.015674 310.021132 
L 152.680251 310.021132 
L 153.846395 308.88 
L 158.510972 308.88 
L 162.009404 305.456604 
L 167.840125 305.456604 
L 169.00627 304.315472 
L 172.504702 304.315472 
L 173.670846 303.17434 
L 176.003135 303.17434 
L 177.169279 300.892075 
L 186.498433 300.892075 
L 187.664577 299.750943 
L 188.830721 297.468679 
L 189.996865 296.327547 
L 191.163009 296.327547 
L 192.329154 295.186415 
L 194.661442 295.186415 
L 195.827586 294.045283 
L 198.159875 294.045283 
L 199.326019 292.904151 
L 206.322884 292.904151 
L 207.489028 291.763019 
L 208.655172 291.763019 
L 209.821317 290.621887 
L 210.987461 290.621887 
L 212.153605 289.480755 
L 215.652038 289.480755 
L 216.818182 288.339623 
L 217.984326 286.057358 
L 223.815047 286.057358 
L 227.31348 282.633962 
L 230.811912 282.633962 
L 231.978056 281.49283 
L 236.642633 281.49283 
L 237.808777 280.351698 
L 238.974922 280.351698 
L 240.141066 279.210566 
L 242.473354 279.210566 
L 243.639498 278.069434 
L 247.137931 278.069434 
L 249.470219 275.78717 
L 250.636364 275.78717 
L 251.802508 274.646038 
L 261.131661 274.646038 
L 262.297806 272.363774 
L 263.46395 271.222642 
L 272.793103 271.222642 
L 273.959248 270.081509 
L 277.45768 270.081509 
L 278.623824 268.940377 
L 282.122257 268.940377 
L 283.288401 267.799245 
L 294.949843 267.799245 
L 296.115987 266.658113 
L 300.780564 266.658113 
L 301.946708 265.516981 
L 308.943574 265.516981 
L 310.109718 264.375849 
L 312.442006 264.375849 
L 313.60815 263.234717 
L 318.272727 263.234717 
L 320.605016 260.952453 
L 342.761755 260.952453 
L 343.9279 259.811321 
L 345.094044 259.811321 
L 346.260188 258.670189 
L 349.758621 258.670189 
L 350.924765 257.529057 
L 356.755486 257.529057 
L 357.92163 256.387925 
L 360.253918 256.387925 
L 361.420063 255.246792 
L 368.416928 255.246792 
L 369.583072 256.387925 
L 370.749216 255.246792 
L 378.912226 255.246792 
L 380.07837 254.10566 
L 389.407524 254.10566 
L 390.573668 252.964528 
L 392.905956 252.964528 
L 394.0721 251.823396 
L 395.238245 251.823396 
L 396.404389 250.682264 
L 404.567398 250.682264 
L 405.733542 249.541132 
L 412.730408 249.541132 
L 413.896552 248.4 
L 431.388715 248.4 
L 432.554859 247.258868 
L 458.210031 247.258868 
L 459.376176 246.117736 
L 471.037618 246.117736 
L 472.203762 244.976604 
L 490.862069 244.976604 
L 493.194357 242.69434 
L 514.184953 242.69434 
L 515.351097 241.553208 
L 516.517241 239.270943 
L 539.840125 239.270943 
L 541.00627 238.129811 
L 543.338558 238.129811 
L 544.504702 236.988679 
L 551.501567 236.988679 
L 552.667712 235.847547 
L 556.166144 235.847547 
L 558.498433 233.565283 
L 560.830721 233.565283 
L 561.996865 232.424151 
L 566.661442 232.424151 
L 567.827586 230.141887 
L 571.326019 230.141887 
L 572.492163 229.000755 
L 573.658307 229.000755 
L 575.990596 226.718491 
L 591.15047 226.718491 
L 592.316614 225.577358 
L 606.310345 225.577358 
L 607.476489 223.295094 
L 616.805643 223.295094 
L 619.137931 221.01283 
L 622.636364 221.01283 
L 622.636364 221.01283 
" clip-path="url(#p124d0f4c34)" style="fill: none; stroke: #2ca02c; stroke-width: 1.5; stroke-linecap: square"/>
   </g>
   <g id="line2d_32">
    <path d="M 115.363636 369.36 
L 403.401254 369.36 
L 404.567398 368.218868 
L 622.636364 368.218868 
L 622.636364 368.218868 
" clip-path="url(#p124d0f4c34)" style="fill: none; stroke: #d62728; stroke-width: 1.5; stroke-linecap: square"/>
   </g>
   <g id="line2d_33">
    <path d="M 115.363636 344.255094 
L 118.862069 344.255094 
L 120.028213 343.113962 
L 127.025078 343.113962 
L 128.191223 341.97283 
L 135.188088 341.97283 
L 136.354232 340.831698 
L 162.009404 340.831698 
L 163.175549 339.690566 
L 205.15674 339.690566 
L 207.489028 337.408302 
L 216.818182 337.408302 
L 217.984326 336.26717 
L 222.648903 336.26717 
L 223.815047 335.126038 
L 226.147335 335.126038 
L 227.31348 333.984906 
L 257.633229 333.984906 
L 258.799373 332.843774 
L 306.611285 332.843774 
L 307.777429 331.702642 
L 459.376176 331.702642 
L 460.54232 330.561509 
L 461.708464 330.561509 
L 462.874608 329.420377 
L 536.341693 329.420377 
L 537.507837 328.279245 
L 622.636364 328.279245 
L 622.636364 328.279245 
" clip-path="url(#p124d0f4c34)" style="fill: none; stroke: #9467bd; stroke-width: 1.5; stroke-linecap: square"/>
   </g>
   <g id="line2d_34">
    <path d="M 115.363636 353.384151 
L 116.529781 353.384151 
L 117.695925 352.243019 
L 134.021944 352.243019 
L 135.188088 351.101887 
L 149.181818 351.101887 
L 150.347962 349.960755 
L 167.840125 349.960755 
L 170.172414 347.678491 
L 183 347.678491 
L 184.166144 346.537358 
L 219.15047 346.537358 
L 220.316614 345.396226 
L 230.811912 345.396226 
L 231.978056 344.255094 
L 251.802508 344.255094 
L 252.968652 343.113962 
L 271.626959 343.113962 
L 272.793103 341.97283 
L 277.45768 341.97283 
L 278.623824 340.831698 
L 289.119122 340.831698 
L 290.285266 339.690566 
L 318.272727 339.690566 
L 319.438871 338.549434 
L 326.435737 338.549434 
L 327.601881 337.408302 
L 334.598746 337.408302 
L 335.76489 336.26717 
L 340.429467 336.26717 
L 341.595611 335.126038 
L 384.742947 335.126038 
L 385.909091 333.984906 
L 419.727273 333.984906 
L 420.893417 332.843774 
L 488.529781 332.843774 
L 489.695925 331.702642 
L 522.347962 331.702642 
L 523.514107 330.561509 
L 538.673981 330.561509 
L 539.840125 329.420377 
L 622.636364 329.420377 
L 622.636364 329.420377 
" clip-path="url(#p124d0f4c34)" style="fill: none; stroke: #8c564b; stroke-width: 1.5; stroke-linecap: square"/>
   </g>
   <g id="line2d_35">
    <path d="M 115.363636 268.940377 
L 120.028213 268.940377 
L 121.194357 267.799245 
L 125.858934 267.799245 
L 128.191223 265.516981 
L 129.357367 265.516981 
L 130.523511 264.375849 
L 131.689655 264.375849 
L 132.855799 263.234717 
L 135.188088 263.234717 
L 136.354232 262.093585 
L 139.852665 262.093585 
L 141.018809 260.952453 
L 143.351097 260.952453 
L 144.517241 259.811321 
L 145.683386 259.811321 
L 146.84953 258.670189 
L 149.181818 258.670189 
L 151.514107 256.387925 
L 156.178683 256.387925 
L 157.344828 255.246792 
L 160.84326 255.246792 
L 163.175549 252.964528 
L 165.507837 252.964528 
L 166.673981 251.823396 
L 169.00627 251.823396 
L 170.172414 250.682264 
L 171.338558 248.4 
L 172.504702 244.976604 
L 174.836991 244.976604 
L 176.003135 243.835472 
L 181.833856 243.835472 
L 184.166144 241.553208 
L 185.332288 239.270943 
L 186.498433 238.129811 
L 187.664577 238.129811 
L 188.830721 235.847547 
L 193.495298 235.847547 
L 194.661442 234.706415 
L 195.827586 234.706415 
L 198.159875 232.424151 
L 199.326019 232.424151 
L 200.492163 231.283019 
L 201.658307 231.283019 
L 203.990596 229.000755 
L 206.322884 229.000755 
L 207.489028 226.718491 
L 212.153605 226.718491 
L 214.485893 224.436226 
L 216.818182 224.436226 
L 217.984326 223.295094 
L 219.15047 221.01283 
L 222.648903 221.01283 
L 223.815047 219.871698 
L 224.981191 219.871698 
L 226.147335 217.589434 
L 227.31348 217.589434 
L 228.479624 216.448302 
L 229.645768 216.448302 
L 230.811912 215.30717 
L 235.476489 215.30717 
L 237.808777 213.024906 
L 238.974922 213.024906 
L 240.141066 210.742642 
L 241.30721 210.742642 
L 242.473354 209.601509 
L 243.639498 209.601509 
L 244.805643 208.460377 
L 248.304075 208.460377 
L 249.470219 207.319245 
L 250.636364 207.319245 
L 255.30094 202.754717 
L 256.467085 200.472453 
L 258.799373 200.472453 
L 261.131661 195.907925 
L 263.46395 195.907925 
L 265.796238 193.62566 
L 266.962382 193.62566 
L 268.128527 191.343396 
L 269.294671 191.343396 
L 270.460815 190.202264 
L 271.626959 190.202264 
L 272.793103 189.061132 
L 275.125392 189.061132 
L 276.291536 187.92 
L 277.45768 187.92 
L 278.623824 186.778868 
L 283.288401 186.778868 
L 284.454545 181.073208 
L 285.62069 181.073208 
L 286.786834 179.932075 
L 290.285266 179.932075 
L 291.451411 178.790943 
L 301.946708 178.790943 
L 303.112853 176.508679 
L 307.777429 176.508679 
L 308.943574 175.367547 
L 320.605016 175.367547 
L 321.77116 173.085283 
L 322.937304 171.944151 
L 328.768025 171.944151 
L 329.934169 170.803019 
L 338.097179 170.803019 
L 339.263323 169.661887 
L 340.429467 169.661887 
L 341.595611 168.520755 
L 348.592476 168.520755 
L 350.924765 166.238491 
L 359.087774 166.238491 
L 361.420063 163.956226 
L 362.586207 163.956226 
L 363.752351 162.815094 
L 370.749216 162.815094 
L 371.915361 161.673962 
L 375.413793 161.673962 
L 376.579937 160.53283 
L 377.746082 158.250566 
L 381.244514 158.250566 
L 382.410658 157.109434 
L 383.576803 157.109434 
L 385.909091 154.82717 
L 390.573668 154.82717 
L 391.739812 153.686038 
L 396.404389 153.686038 
L 397.570533 152.544906 
L 401.068966 152.544906 
L 402.23511 151.403774 
L 411.564263 151.403774 
L 413.896552 149.121509 
L 419.727273 149.121509 
L 420.893417 147.980377 
L 425.557994 147.980377 
L 431.388715 142.274717 
L 433.721003 142.274717 
L 434.887147 141.133585 
L 436.053292 141.133585 
L 437.219436 138.851321 
L 439.551724 136.569057 
L 441.884013 132.004528 
L 444.216301 132.004528 
L 446.548589 127.44 
L 448.880878 127.44 
L 450.047022 125.157736 
L 452.37931 122.875472 
L 455.877743 122.875472 
L 457.043887 121.73434 
L 458.210031 121.73434 
L 460.54232 119.452075 
L 465.206897 119.452075 
L 466.373041 118.310943 
L 468.705329 118.310943 
L 469.871473 117.169811 
L 475.702194 117.169811 
L 476.868339 114.887547 
L 478.034483 113.746415 
L 479.200627 113.746415 
L 480.366771 112.605283 
L 482.69906 112.605283 
L 483.865204 111.464151 
L 486.197492 111.464151 
L 487.363636 109.181887 
L 489.695925 109.181887 
L 490.862069 108.040755 
L 492.028213 108.040755 
L 493.194357 106.899623 
L 499.025078 106.899623 
L 500.191223 105.758491 
L 506.021944 105.758491 
L 507.188088 104.617358 
L 508.354232 104.617358 
L 509.520376 102.335094 
L 511.852665 100.05283 
L 513.018809 96.629434 
L 514.184953 95.488302 
L 515.351097 95.488302 
L 516.517241 94.34717 
L 517.683386 94.34717 
L 518.84953 93.206038 
L 523.514107 93.206038 
L 524.680251 92.064906 
L 527.012539 92.064906 
L 528.178683 90.923774 
L 530.510972 90.923774 
L 532.84326 88.641509 
L 536.341693 88.641509 
L 537.507837 87.500377 
L 543.338558 87.500377 
L 544.504702 85.218113 
L 550.335423 85.218113 
L 551.501567 84.076981 
L 555 84.076981 
L 556.166144 81.794717 
L 560.830721 81.794717 
L 561.996865 80.653585 
L 572.492163 80.653585 
L 573.658307 79.512453 
L 575.990596 79.512453 
L 577.15674 78.371321 
L 585.319749 78.371321 
L 586.485893 77.230189 
L 587.652038 77.230189 
L 588.818182 76.089057 
L 589.984326 76.089057 
L 591.15047 74.947925 
L 598.147335 74.947925 
L 600.479624 72.66566 
L 616.805643 72.66566 
L 617.971787 71.524528 
L 619.137931 71.524528 
L 621.470219 69.242264 
L 622.636364 69.242264 
L 622.636364 69.242264 
" clip-path="url(#p124d0f4c34)" style="fill: none; stroke: #e377c2; stroke-width: 1.5; stroke-linecap: square"/>
   </g>
   <g id="line2d_36">
    <path d="M 115.363636 339.690566 
L 116.529781 339.690566 
L 118.862069 337.408302 
L 124.69279 337.408302 
L 125.858934 336.26717 
L 127.025078 336.26717 
L 129.357367 333.984906 
L 131.689655 333.984906 
L 132.855799 332.843774 
L 136.354232 332.843774 
L 137.520376 331.702642 
L 138.68652 331.702642 
L 139.852665 330.561509 
L 141.018809 330.561509 
L 143.351097 328.279245 
L 146.84953 328.279245 
L 148.015674 327.138113 
L 150.347962 327.138113 
L 152.680251 324.855849 
L 155.012539 324.855849 
L 157.344828 322.573585 
L 158.510972 322.573585 
L 159.677116 321.432453 
L 160.84326 318.009057 
L 165.507837 318.009057 
L 170.172414 313.444528 
L 171.338558 313.444528 
L 173.670846 311.162264 
L 174.836991 311.162264 
L 176.003135 310.021132 
L 177.169279 310.021132 
L 178.335423 308.88 
L 188.830721 308.88 
L 189.996865 307.738868 
L 201.658307 307.738868 
L 203.990596 305.456604 
L 207.489028 305.456604 
L 208.655172 304.315472 
L 210.987461 304.315472 
L 213.319749 302.033208 
L 215.652038 302.033208 
L 216.818182 299.750943 
L 220.316614 299.750943 
L 221.482759 297.468679 
L 222.648903 296.327547 
L 228.479624 296.327547 
L 229.645768 295.186415 
L 230.811912 295.186415 
L 233.144201 292.904151 
L 238.974922 292.904151 
L 240.141066 291.763019 
L 241.30721 291.763019 
L 242.473354 290.621887 
L 249.470219 290.621887 
L 250.636364 289.480755 
L 254.134796 289.480755 
L 255.30094 288.339623 
L 256.467085 288.339623 
L 257.633229 284.916226 
L 258.799373 284.916226 
L 259.965517 282.633962 
L 261.131661 281.49283 
L 262.297806 281.49283 
L 264.630094 279.210566 
L 266.962382 279.210566 
L 268.128527 278.069434 
L 270.460815 278.069434 
L 271.626959 276.928302 
L 272.793103 276.928302 
L 273.959248 274.646038 
L 275.125392 274.646038 
L 276.291536 273.504906 
L 278.623824 273.504906 
L 280.956113 271.222642 
L 282.122257 271.222642 
L 283.288401 268.940377 
L 284.454545 267.799245 
L 292.617555 267.799245 
L 293.783699 265.516981 
L 297.282132 265.516981 
L 298.448276 264.375849 
L 299.61442 264.375849 
L 300.780564 263.234717 
L 304.278997 263.234717 
L 305.445141 262.093585 
L 311.275862 262.093585 
L 312.442006 260.952453 
L 314.774295 260.952453 
L 315.940439 259.811321 
L 321.77116 259.811321 
L 322.937304 258.670189 
L 333.432602 258.670189 
L 335.76489 256.387925 
L 336.931034 256.387925 
L 338.097179 255.246792 
L 339.263323 255.246792 
L 340.429467 254.10566 
L 341.595611 254.10566 
L 342.761755 252.964528 
L 345.094044 252.964528 
L 346.260188 251.823396 
L 347.426332 251.823396 
L 349.758621 249.541132 
L 353.257053 249.541132 
L 354.423198 248.4 
L 357.92163 248.4 
L 359.087774 247.258868 
L 367.250784 247.258868 
L 368.416928 246.117736 
L 369.583072 246.117736 
L 370.749216 244.976604 
L 375.413793 244.976604 
L 376.579937 242.69434 
L 383.576803 242.69434 
L 384.742947 241.553208 
L 385.909091 241.553208 
L 387.075235 239.270943 
L 392.905956 239.270943 
L 394.0721 238.129811 
L 401.068966 238.129811 
L 402.23511 236.988679 
L 417.394984 236.988679 
L 418.561129 235.847547 
L 436.053292 235.847547 
L 437.219436 234.706415 
L 443.050157 234.706415 
L 444.216301 233.565283 
L 445.382445 233.565283 
L 446.548589 232.424151 
L 447.714734 232.424151 
L 448.880878 230.141887 
L 450.047022 230.141887 
L 452.37931 227.859623 
L 460.54232 227.859623 
L 461.708464 226.718491 
L 462.874608 226.718491 
L 464.040752 225.577358 
L 465.206897 225.577358 
L 466.373041 224.436226 
L 472.203762 224.436226 
L 473.369906 223.295094 
L 483.865204 223.295094 
L 485.031348 222.153962 
L 490.862069 222.153962 
L 492.028213 221.01283 
L 497.858934 221.01283 
L 499.025078 219.871698 
L 501.357367 219.871698 
L 504.855799 216.448302 
L 507.188088 216.448302 
L 508.354232 214.166038 
L 514.184953 214.166038 
L 516.517241 211.883774 
L 518.84953 211.883774 
L 520.015674 210.742642 
L 521.181818 210.742642 
L 523.514107 208.460377 
L 531.677116 208.460377 
L 532.84326 207.319245 
L 535.175549 207.319245 
L 536.341693 206.178113 
L 545.670846 206.178113 
L 548.003135 203.895849 
L 551.501567 203.895849 
L 552.667712 202.754717 
L 553.833856 202.754717 
L 555 199.331321 
L 556.166144 198.190189 
L 560.830721 198.190189 
L 561.996865 195.907925 
L 565.495298 195.907925 
L 566.661442 194.766792 
L 578.322884 194.766792 
L 579.489028 193.62566 
L 591.15047 193.62566 
L 593.482759 191.343396 
L 601.645768 191.343396 
L 602.811912 190.202264 
L 622.636364 190.202264 
L 622.636364 190.202264 
" clip-path="url(#p124d0f4c34)" style="fill: none; stroke: #7f7f7f; stroke-width: 1.5; stroke-linecap: square"/>
   </g>
   <g id="line2d_37">
    <path d="M 115.363636 346.537358 
L 120.028213 346.537358 
L 121.194357 345.396226 
L 132.855799 345.396226 
L 134.021944 344.255094 
L 139.852665 344.255094 
L 141.018809 343.113962 
L 152.680251 343.113962 
L 153.846395 341.97283 
L 165.507837 341.97283 
L 166.673981 340.831698 
L 229.645768 340.831698 
L 230.811912 339.690566 
L 236.642633 339.690566 
L 237.808777 338.549434 
L 245.971787 338.549434 
L 247.137931 337.408302 
L 248.304075 337.408302 
L 249.470219 333.984906 
L 250.636364 332.843774 
L 252.968652 332.843774 
L 254.134796 331.702642 
L 265.796238 331.702642 
L 266.962382 330.561509 
L 277.45768 330.561509 
L 278.623824 329.420377 
L 291.451411 329.420377 
L 292.617555 328.279245 
L 306.611285 328.279245 
L 307.777429 327.138113 
L 313.60815 327.138113 
L 314.774295 325.996981 
L 352.090909 325.996981 
L 353.257053 324.855849 
L 355.589342 324.855849 
L 356.755486 323.714717 
L 366.084639 323.714717 
L 367.250784 322.573585 
L 399.902821 322.573585 
L 403.401254 319.150189 
L 437.219436 319.150189 
L 438.38558 318.009057 
L 439.551724 318.009057 
L 441.884013 315.726792 
L 444.216301 315.726792 
L 445.382445 314.58566 
L 504.855799 314.58566 
L 506.021944 313.444528 
L 573.658307 313.444528 
L 574.824451 312.303396 
L 622.636364 312.303396 
L 622.636364 312.303396 
" clip-path="url(#p124d0f4c34)" style="fill: none; stroke: #bcbd22; stroke-width: 1.5; stroke-linecap: square"/>
   </g>
   <g id="line2d_38">
    <path d="M 115.363636 367.077736 
L 173.670846 367.077736 
L 174.836991 365.936604 
L 248.304075 365.936604 
L 249.470219 364.795472 
L 368.416928 364.795472 
L 369.583072 363.65434 
L 370.749216 364.795472 
L 511.852665 364.795472 
L 513.018809 363.65434 
L 521.181818 363.65434 
L 522.347962 362.513208 
L 551.501567 362.513208 
L 552.667712 361.372075 
L 622.636364 361.372075 
L 622.636364 361.372075 
" clip-path="url(#p124d0f4c34)" style="fill: none; stroke: #17becf; stroke-width: 1.5; stroke-linecap: square"/>
   </g>
   <g id="line2d_39">
    <path d="M 115.363636 369.36 
L 116.529781 368.218868 
L 118.862069 368.218868 
L 120.028213 367.077736 
L 128.191223 367.077736 
L 129.357367 365.936604 
L 132.855799 365.936604 
L 134.021944 364.795472 
L 135.188088 364.795472 
L 137.520376 362.513208 
L 143.351097 362.513208 
L 145.683386 360.230943 
L 146.84953 360.230943 
L 148.015674 359.089811 
L 156.178683 359.089811 
L 157.344828 357.948679 
L 158.510972 355.666415 
L 160.84326 355.666415 
L 162.009404 354.525283 
L 163.175549 354.525283 
L 164.341693 353.384151 
L 165.507837 353.384151 
L 166.673981 352.243019 
L 167.840125 352.243019 
L 170.172414 349.960755 
L 177.169279 349.960755 
L 179.501567 347.678491 
L 183 347.678491 
L 184.166144 346.537358 
L 185.332288 346.537358 
L 186.498433 344.255094 
L 189.996865 344.255094 
L 192.329154 339.690566 
L 199.326019 339.690566 
L 200.492163 337.408302 
L 201.658307 336.26717 
L 205.15674 336.26717 
L 206.322884 335.126038 
L 207.489028 332.843774 
L 209.821317 332.843774 
L 210.987461 331.702642 
L 227.31348 331.702642 
L 228.479624 329.420377 
L 236.642633 321.432453 
L 248.304075 321.432453 
L 251.802508 318.009057 
L 254.134796 318.009057 
L 255.30094 315.726792 
L 257.633229 315.726792 
L 258.799373 314.58566 
L 262.297806 314.58566 
L 263.46395 313.444528 
L 264.630094 313.444528 
L 265.796238 312.303396 
L 266.962382 312.303396 
L 269.294671 310.021132 
L 284.454545 310.021132 
L 286.786834 307.738868 
L 296.115987 307.738868 
L 297.282132 306.597736 
L 300.780564 306.597736 
L 303.112853 304.315472 
L 306.611285 304.315472 
L 307.777429 303.17434 
L 310.109718 303.17434 
L 311.275862 302.033208 
L 317.106583 302.033208 
L 318.272727 300.892075 
L 319.438871 300.892075 
L 320.605016 298.609811 
L 321.77116 298.609811 
L 322.937304 297.468679 
L 328.768025 297.468679 
L 329.934169 296.327547 
L 332.266458 296.327547 
L 333.432602 295.186415 
L 334.598746 295.186415 
L 336.931034 292.904151 
L 345.094044 292.904151 
L 346.260188 291.763019 
L 347.426332 291.763019 
L 348.592476 290.621887 
L 354.423198 290.621887 
L 355.589342 288.339623 
L 356.755486 287.198491 
L 362.586207 287.198491 
L 363.752351 286.057358 
L 368.416928 286.057358 
L 369.583072 283.775094 
L 374.247649 283.775094 
L 376.579937 281.49283 
L 380.07837 281.49283 
L 381.244514 280.351698 
L 395.238245 280.351698 
L 396.404389 278.069434 
L 397.570533 276.928302 
L 406.899687 276.928302 
L 408.065831 275.78717 
L 429.056426 275.78717 
L 430.222571 274.646038 
L 432.554859 274.646038 
L 433.721003 273.504906 
L 437.219436 273.504906 
L 438.38558 272.363774 
L 453.545455 272.363774 
L 454.711599 270.081509 
L 457.043887 270.081509 
L 458.210031 268.940377 
L 459.376176 268.940377 
L 460.54232 267.799245 
L 465.206897 267.799245 
L 466.373041 266.658113 
L 474.53605 266.658113 
L 475.702194 264.375849 
L 476.868339 264.375849 
L 478.034483 263.234717 
L 483.865204 263.234717 
L 485.031348 262.093585 
L 490.862069 262.093585 
L 493.194357 259.811321 
L 495.526646 259.811321 
L 496.69279 258.670189 
L 499.025078 258.670189 
L 500.191223 257.529057 
L 501.357367 257.529057 
L 502.523511 256.387925 
L 510.68652 256.387925 
L 511.852665 255.246792 
L 538.673981 255.246792 
L 539.840125 254.10566 
L 545.670846 254.10566 
L 546.836991 252.964528 
L 559.664577 252.964528 
L 560.830721 251.823396 
L 612.141066 251.823396 
L 613.30721 250.682264 
L 620.304075 250.682264 
L 621.470219 249.541132 
L 622.636364 249.541132 
L 622.636364 249.541132 
" clip-path="url(#p124d0f4c34)" style="fill: none; stroke: #1f77b4; stroke-width: 1.5; stroke-linecap: square"/>
   </g>
   <g id="line2d_40">
    <path d="M 115.363636 327.138113 
L 123.526646 327.138113 
L 124.69279 325.996981 
L 128.191223 325.996981 
L 129.357367 324.855849 
L 134.021944 324.855849 
L 135.188088 323.714717 
L 138.68652 323.714717 
L 139.852665 322.573585 
L 141.018809 322.573585 
L 142.184953 321.432453 
L 145.683386 321.432453 
L 146.84953 320.291321 
L 149.181818 320.291321 
L 150.347962 319.150189 
L 151.514107 319.150189 
L 153.846395 316.867925 
L 160.84326 316.867925 
L 162.009404 315.726792 
L 163.175549 315.726792 
L 164.341693 314.58566 
L 165.507837 314.58566 
L 166.673981 312.303396 
L 167.840125 308.88 
L 169.00627 307.738868 
L 173.670846 307.738868 
L 177.169279 304.315472 
L 180.667712 304.315472 
L 183 302.033208 
L 195.827586 302.033208 
L 196.99373 298.609811 
L 198.159875 298.609811 
L 200.492163 294.045283 
L 202.824451 291.763019 
L 203.990596 291.763019 
L 205.15674 289.480755 
L 214.485893 289.480755 
L 215.652038 287.198491 
L 219.15047 287.198491 
L 220.316614 286.057358 
L 228.479624 286.057358 
L 229.645768 284.916226 
L 243.639498 284.916226 
L 244.805643 283.775094 
L 245.971787 283.775094 
L 247.137931 282.633962 
L 250.636364 282.633962 
L 251.802508 281.49283 
L 265.796238 281.49283 
L 266.962382 280.351698 
L 269.294671 280.351698 
L 271.626959 275.78717 
L 273.959248 275.78717 
L 276.291536 273.504906 
L 278.623824 273.504906 
L 279.789969 272.363774 
L 283.288401 272.363774 
L 284.454545 271.222642 
L 298.448276 271.222642 
L 299.61442 270.081509 
L 317.106583 270.081509 
L 318.272727 268.940377 
L 328.768025 268.940377 
L 329.934169 267.799245 
L 332.266458 267.799245 
L 333.432602 266.658113 
L 336.931034 266.658113 
L 339.263323 264.375849 
L 340.429467 264.375849 
L 341.595611 263.234717 
L 346.260188 263.234717 
L 348.592476 260.952453 
L 354.423198 260.952453 
L 355.589342 259.811321 
L 359.087774 259.811321 
L 360.253918 258.670189 
L 366.084639 258.670189 
L 367.250784 257.529057 
L 373.081505 257.529057 
L 374.247649 256.387925 
L 395.238245 256.387925 
L 396.404389 255.246792 
L 397.570533 255.246792 
L 398.736677 254.10566 
L 410.398119 254.10566 
L 411.564263 251.823396 
L 412.730408 251.823396 
L 413.896552 250.682264 
L 425.557994 250.682264 
L 426.724138 249.541132 
L 431.388715 249.541132 
L 432.554859 248.4 
L 433.721003 248.4 
L 434.887147 247.258868 
L 445.382445 247.258868 
L 446.548589 246.117736 
L 469.871473 246.117736 
L 471.037618 242.69434 
L 479.200627 242.69434 
L 480.366771 241.553208 
L 482.69906 241.553208 
L 483.865204 240.412075 
L 497.858934 240.412075 
L 499.025078 239.270943 
L 515.351097 239.270943 
L 516.517241 238.129811 
L 520.015674 238.129811 
L 521.181818 236.988679 
L 530.510972 236.988679 
L 531.677116 234.706415 
L 550.335423 234.706415 
L 551.501567 233.565283 
L 557.332288 233.565283 
L 558.498433 232.424151 
L 575.990596 232.424151 
L 577.15674 231.283019 
L 579.489028 231.283019 
L 580.655172 230.141887 
L 592.316614 230.141887 
L 593.482759 229.000755 
L 606.310345 229.000755 
L 607.476489 227.859623 
L 622.636364 227.859623 
L 622.636364 227.859623 
" clip-path="url(#p124d0f4c34)" style="fill: none; stroke: #ff7f0e; stroke-width: 1.5; stroke-linecap: square"/>
   </g>
   <g id="patch_3">
    <path d="M 90 384.48 
L 90 51.84 
" style="fill: none; stroke: #000000; stroke-width: 0.8; stroke-linejoin: miter; stroke-linecap: square"/>
   </g>
   <g id="patch_4">
    <path d="M 648 384.48 
L 648 51.84 
" style="fill: none; stroke: #000000; stroke-width: 0.8; stroke-linejoin: miter; stroke-linecap: square"/>
   </g>
   <g id="patch_5">
    <path d="M 90 384.48 
L 648 384.48 
" style="fill: none; stroke: #000000; stroke-width: 0.8; stroke-linejoin: miter; stroke-linecap: square"/>
   </g>
   <g id="patch_6">
    <path d="M 90 51.84 
L 648 51.84 
" style="fill: none; stroke: #000000; stroke-width: 0.8; stroke-linejoin: miter; stroke-linecap: square"/>
   </g>
   <g id="text_17">
    <!-- Time Series of Votes for Each Keyword -->
    <g transform="translate(253.716563 45.84) scale(0.12 -0.12)">
     <defs>
      <path id="DejaVuSans-53" d="M 3425 4513 
L 3425 3897 
Q 3066 4069 2747 4153 
Q 2428 4238 2131 4238 
Q 1616 4238 1336 4038 
Q 1056 3838 1056 3469 
Q 1056 3159 1242 3001 
Q 1428 2844 1947 2747 
L 2328 2669 
Q 3034 2534 3370 2195 
Q 3706 1856 3706 1288 
Q 3706 609 3251 259 
Q 2797 -91 1919 -91 
Q 1588 -91 1214 -16 
Q 841 59 441 206 
L 441 856 
Q 825 641 1194 531 
Q 1563 422 1919 422 
Q 2459 422 2753 634 
Q 3047 847 3047 1241 
Q 3047 1584 2836 1778 
Q 2625 1972 2144 2069 
L 1759 2144 
Q 1053 2284 737 2584 
Q 422 2884 422 3419 
Q 422 4038 858 4394 
Q 1294 4750 2059 4750 
Q 2388 4750 2728 4690 
Q 3069 4631 3425 4513 
z
" transform="scale(0.015625)"/>
      <path id="DejaVuSans-72" d="M 2631 2963 
Q 2534 3019 2420 3045 
Q 2306 3072 2169 3072 
Q 1681 3072 1420 2755 
Q 1159 2438 1159 1844 
L 1159 0 
L 581 0 
L 581 3500 
L 1159 3500 
L 1159 2956 
Q 1341 3275 1631 3429 
Q 1922 3584 2338 3584 
Q 2397 3584 2469 3576 
Q 2541 3569 2628 3553 
L 2631 2963 
z
" transform="scale(0.015625)"/>
      <path id="DejaVuSans-66" d="M 2375 4863 
L 2375 4384 
L 1825 4384 
Q 1516 4384 1395 4259 
Q 1275 4134 1275 3809 
L 1275 3500 
L 2222 3500 
L 2222 3053 
L 1275 3053 
L 1275 0 
L 697 0 
L 697 3053 
L 147 3053 
L 147 3500 
L 697 3500 
L 697 3744 
Q 697 4328 969 4595 
Q 1241 4863 1831 4863 
L 2375 4863 
z
" transform="scale(0.015625)"/>
      <path id="DejaVuSans-45" d="M 628 4666 
L 3578 4666 
L 3578 4134 
L 1259 4134 
L 1259 2753 
L 3481 2753 
L 3481 2222 
L 1259 2222 
L 1259 531 
L 3634 531 
L 3634 0 
L 628 0 
L 628 4666 
z
" transform="scale(0.015625)"/>
      <path id="DejaVuSans-63" d="M 3122 3366 
L 3122 2828 
Q 2878 2963 2633 3030 
Q 2388 3097 2138 3097 
Q 1578 3097 1268 2742 
Q 959 2388 959 1747 
Q 959 1106 1268 751 
Q 1578 397 2138 397 
Q 2388 397 2633 464 
Q 2878 531 3122 666 
L 3122 134 
Q 2881 22 2623 -34 
Q 2366 -91 2075 -91 
Q 1284 -91 818 406 
Q 353 903 353 1747 
Q 353 2603 823 3093 
Q 1294 3584 2113 3584 
Q 2378 3584 2631 3529 
Q 2884 3475 3122 3366 
z
" transform="scale(0.015625)"/>
      <path id="DejaVuSans-68" d="M 3513 2113 
L 3513 0 
L 2938 0 
L 2938 2094 
Q 2938 2591 2744 2837 
Q 2550 3084 2163 3084 
Q 1697 3084 1428 2787 
Q 1159 2491 1159 1978 
L 1159 0 
L 581 0 
L 581 4863 
L 1159 4863 
L 1159 2956 
Q 1366 3272 1645 3428 
Q 1925 3584 2291 3584 
Q 2894 3584 3203 3211 
Q 3513 2838 3513 2113 
z
" transform="scale(0.015625)"/>
      <path id="DejaVuSans-4b" d="M 628 4666 
L 1259 4666 
L 1259 2694 
L 3353 4666 
L 4166 4666 
L 1850 2491 
L 4331 0 
L 3500 0 
L 1259 2247 
L 1259 0 
L 628 0 
L 628 4666 
z
" transform="scale(0.015625)"/>
      <path id="DejaVuSans-79" d="M 2059 -325 
Q 1816 -950 1584 -1140 
Q 1353 -1331 966 -1331 
L 506 -1331 
L 506 -850 
L 844 -850 
Q 1081 -850 1212 -737 
Q 1344 -625 1503 -206 
L 1606 56 
L 191 3500 
L 800 3500 
L 1894 763 
L 2988 3500 
L 3597 3500 
L 2059 -325 
z
" transform="scale(0.015625)"/>
      <path id="DejaVuSans-77" d="M 269 3500 
L 844 3500 
L 1563 769 
L 2278 3500 
L 2956 3500 
L 3675 769 
L 4391 3500 
L 4966 3500 
L 4050 0 
L 3372 0 
L 2619 2869 
L 1863 0 
L 1184 0 
L 269 3500 
z
" transform="scale(0.015625)"/>
     </defs>
     <use xlink:href="#DejaVuSans-54"/>
     <use xlink:href="#DejaVuSans-69" transform="translate(57.958984 0)"/>
     <use xlink:href="#DejaVuSans-6d" transform="translate(85.742188 0)"/>
     <use xlink:href="#DejaVuSans-65" transform="translate(183.154297 0)"/>
     <use xlink:href="#DejaVuSans-20" transform="translate(244.677734 0)"/>
     <use xlink:href="#DejaVuSans-53" transform="translate(276.464844 0)"/>
     <use xlink:href="#DejaVuSans-65" transform="translate(339.941406 0)"/>
     <use xlink:href="#DejaVuSans-72" transform="translate(401.464844 0)"/>
     <use xlink:href="#DejaVuSans-69" transform="translate(442.578125 0)"/>
     <use xlink:href="#DejaVuSans-65" transform="translate(470.361328 0)"/>
     <use xlink:href="#DejaVuSans-73" transform="translate(531.884766 0)"/>
     <use xlink:href="#DejaVuSans-20" transform="translate(583.984375 0)"/>
     <use xlink:href="#DejaVuSans-6f" transform="translate(615.771484 0)"/>
     <use xlink:href="#DejaVuSans-66" transform="translate(676.953125 0)"/>
     <use xlink:href="#DejaVuSans-20" transform="translate(712.158203 0)"/>
     <use xlink:href="#DejaVuSans-56" transform="translate(743.945312 0)"/>
     <use xlink:href="#DejaVuSans-6f" transform="translate(804.603516 0)"/>
     <use xlink:href="#DejaVuSans-74" transform="translate(865.785156 0)"/>
     <use xlink:href="#DejaVuSans-65" transform="translate(904.994141 0)"/>
     <use xlink:href="#DejaVuSans-73" transform="translate(966.517578 0)"/>
     <use xlink:href="#DejaVuSans-20" transform="translate(1018.617188 0)"/>
     <use xlink:href="#DejaVuSans-66" transform="translate(1050.404297 0)"/>
     <use xlink:href="#DejaVuSans-6f" transform="translate(1085.609375 0)"/>
     <use xlink:href="#DejaVuSans-72" transform="translate(1146.791016 0)"/>
     <use xlink:href="#DejaVuSans-20" transform="translate(1187.904297 0)"/>
     <use xlink:href="#DejaVuSans-45" transform="translate(1219.691406 0)"/>
     <use xlink:href="#DejaVuSans-61" transform="translate(1282.875 0)"/>
     <use xlink:href="#DejaVuSans-63" transform="translate(1344.154297 0)"/>
     <use xlink:href="#DejaVuSans-68" transform="translate(1399.134766 0)"/>
     <use xlink:href="#DejaVuSans-20" transform="translate(1462.513672 0)"/>
     <use xlink:href="#DejaVuSans-4b" transform="translate(1494.300781 0)"/>
     <use xlink:href="#DejaVuSans-65" transform="translate(1554.876953 0)"/>
     <use xlink:href="#DejaVuSans-79" transform="translate(1616.400391 0)"/>
     <use xlink:href="#DejaVuSans-77" transform="translate(1675.580078 0)"/>
     <use xlink:href="#DejaVuSans-6f" transform="translate(1757.367188 0)"/>
     <use xlink:href="#DejaVuSans-72" transform="translate(1818.548828 0)"/>
     <use xlink:href="#DejaVuSans-64" transform="translate(1857.912109 0)"/>
    </g>
   </g>
   <g id="legend_1">
    <g id="patch_7">
     <path d="M 97 235.9775 
L 149.245313 235.9775 
Q 151.245313 235.9775 151.245313 233.9775 
L 151.245313 58.84 
Q 151.245313 56.84 149.245313 56.84 
L 97 56.84 
Q 95 56.84 95 58.84 
L 95 233.9775 
Q 95 235.9775 97 235.9775 
z
" style="fill: #ffffff; opacity: 0.8; stroke: #cccccc; stroke-linejoin: miter"/>
    </g>
    <g id="line2d_41">
     <path d="M 99 64.938437 
L 109 64.938437 
L 119 64.938437 
" style="fill: none; stroke: #1f77b4; stroke-width: 1.5; stroke-linecap: square"/>
    </g>
    <g id="text_18">
     <!-- H01 -->
     <g transform="translate(127 68.438437) scale(0.1 -0.1)">
      <defs>
       <path id="DejaVuSans-48" d="M 628 4666 
L 1259 4666 
L 1259 2753 
L 3553 2753 
L 3553 4666 
L 4184 4666 
L 4184 0 
L 3553 0 
L 3553 2222 
L 1259 2222 
L 1259 0 
L 628 0 
L 628 4666 
z
" transform="scale(0.015625)"/>
      </defs>
      <use xlink:href="#DejaVuSans-48"/>
      <use xlink:href="#DejaVuSans-30" transform="translate(75.195312 0)"/>
      <use xlink:href="#DejaVuSans-31" transform="translate(138.818359 0)"/>
     </g>
    </g>
    <g id="line2d_42">
     <path d="M 99 79.616562 
L 109 79.616562 
L 119 79.616562 
" style="fill: none; stroke: #ff7f0e; stroke-width: 1.5; stroke-linecap: square"/>
    </g>
    <g id="text_19">
     <!-- H02 -->
     <g transform="translate(127 83.116562) scale(0.1 -0.1)">
      <use xlink:href="#DejaVuSans-48"/>
      <use xlink:href="#DejaVuSans-30" transform="translate(75.195312 0)"/>
      <use xlink:href="#DejaVuSans-32" transform="translate(138.818359 0)"/>
     </g>
    </g>
    <g id="line2d_43">
     <path d="M 99 94.294688 
L 109 94.294688 
L 119 94.294688 
" style="fill: none; stroke: #2ca02c; stroke-width: 1.5; stroke-linecap: square"/>
    </g>
    <g id="text_20">
     <!-- H03 -->
     <g transform="translate(127 97.794688) scale(0.1 -0.1)">
      <defs>
       <path id="DejaVuSans-33" d="M 2597 2516 
Q 3050 2419 3304 2112 
Q 3559 1806 3559 1356 
Q 3559 666 3084 287 
Q 2609 -91 1734 -91 
Q 1441 -91 1130 -33 
Q 819 25 488 141 
L 488 750 
Q 750 597 1062 519 
Q 1375 441 1716 441 
Q 2309 441 2620 675 
Q 2931 909 2931 1356 
Q 2931 1769 2642 2001 
Q 2353 2234 1838 2234 
L 1294 2234 
L 1294 2753 
L 1863 2753 
Q 2328 2753 2575 2939 
Q 2822 3125 2822 3475 
Q 2822 3834 2567 4026 
Q 2313 4219 1838 4219 
Q 1578 4219 1281 4162 
Q 984 4106 628 3988 
L 628 4550 
Q 988 4650 1302 4700 
Q 1616 4750 1894 4750 
Q 2613 4750 3031 4423 
Q 3450 4097 3450 3541 
Q 3450 3153 3228 2886 
Q 3006 2619 2597 2516 
z
" transform="scale(0.015625)"/>
      </defs>
      <use xlink:href="#DejaVuSans-48"/>
      <use xlink:href="#DejaVuSans-30" transform="translate(75.195312 0)"/>
      <use xlink:href="#DejaVuSans-33" transform="translate(138.818359 0)"/>
     </g>
    </g>
    <g id="line2d_44">
     <path d="M 99 108.972812 
L 109 108.972812 
L 119 108.972812 
" style="fill: none; stroke: #d62728; stroke-width: 1.5; stroke-linecap: square"/>
    </g>
    <g id="text_21">
     <!-- H04 -->
     <g transform="translate(127 112.472812) scale(0.1 -0.1)">
      <use xlink:href="#DejaVuSans-48"/>
      <use xlink:href="#DejaVuSans-30" transform="translate(75.195312 0)"/>
      <use xlink:href="#DejaVuSans-34" transform="translate(138.818359 0)"/>
     </g>
    </g>
    <g id="line2d_45">
     <path d="M 99 123.650937 
L 109 123.650937 
L 119 123.650937 
" style="fill: none; stroke: #9467bd; stroke-width: 1.5; stroke-linecap: square"/>
    </g>
    <g id="text_22">
     <!-- H05 -->
     <g transform="translate(127 127.150937) scale(0.1 -0.1)">
      <use xlink:href="#DejaVuSans-48"/>
      <use xlink:href="#DejaVuSans-30" transform="translate(75.195312 0)"/>
      <use xlink:href="#DejaVuSans-35" transform="translate(138.818359 0)"/>
     </g>
    </g>
    <g id="line2d_46">
     <path d="M 99 138.329062 
L 109 138.329062 
L 119 138.329062 
" style="fill: none; stroke: #8c564b; stroke-width: 1.5; stroke-linecap: square"/>
    </g>
    <g id="text_23">
     <!-- H06 -->
     <g transform="translate(127 141.829062) scale(0.1 -0.1)">
      <use xlink:href="#DejaVuSans-48"/>
      <use xlink:href="#DejaVuSans-30" transform="translate(75.195312 0)"/>
      <use xlink:href="#DejaVuSans-36" transform="translate(138.818359 0)"/>
     </g>
    </g>
    <g id="line2d_47">
     <path d="M 99 153.007187 
L 109 153.007187 
L 119 153.007187 
" style="fill: none; stroke: #e377c2; stroke-width: 1.5; stroke-linecap: square"/>
    </g>
    <g id="text_24">
     <!-- H07 -->
     <g transform="translate(127 156.507187) scale(0.1 -0.1)">
      <use xlink:href="#DejaVuSans-48"/>
      <use xlink:href="#DejaVuSans-30" transform="translate(75.195312 0)"/>
      <use xlink:href="#DejaVuSans-37" transform="translate(138.818359 0)"/>
     </g>
    </g>
    <g id="line2d_48">
     <path d="M 99 167.685312 
L 109 167.685312 
L 119 167.685312 
" style="fill: none; stroke: #7f7f7f; stroke-width: 1.5; stroke-linecap: square"/>
    </g>
    <g id="text_25">
     <!-- H08 -->
     <g transform="translate(127 171.185312) scale(0.1 -0.1)">
      <use xlink:href="#DejaVuSans-48"/>
      <use xlink:href="#DejaVuSans-30" transform="translate(75.195312 0)"/>
      <use xlink:href="#DejaVuSans-38" transform="translate(138.818359 0)"/>
     </g>
    </g>
    <g id="line2d_49">
     <path d="M 99 182.363437 
L 109 182.363437 
L 119 182.363437 
" style="fill: none; stroke: #bcbd22; stroke-width: 1.5; stroke-linecap: square"/>
    </g>
    <g id="text_26">
     <!-- H09 -->
     <g transform="translate(127 185.863437) scale(0.1 -0.1)">
      <use xlink:href="#DejaVuSans-48"/>
      <use xlink:href="#DejaVuSans-30" transform="translate(75.195312 0)"/>
      <use xlink:href="#DejaVuSans-39" transform="translate(138.818359 0)"/>
     </g>
    </g>
    <g id="line2d_50">
     <path d="M 99 197.041562 
L 109 197.041562 
L 119 197.041562 
" style="fill: none; stroke: #17becf; stroke-width: 1.5; stroke-linecap: square"/>
    </g>
    <g id="text_27">
     <!-- H10 -->
     <g transform="translate(127 200.541562) scale(0.1 -0.1)">
      <use xlink:href="#DejaVuSans-48"/>
      <use xlink:href="#DejaVuSans-31" transform="translate(75.195312 0)"/>
      <use xlink:href="#DejaVuSans-30" transform="translate(138.818359 0)"/>
     </g>
    </g>
    <g id="line2d_51">
     <path d="M 99 211.719687 
L 109 211.719687 
L 119 211.719687 
" style="fill: none; stroke: #1f77b4; stroke-width: 1.5; stroke-linecap: square"/>
    </g>
    <g id="text_28">
     <!-- H11 -->
     <g transform="translate(127 215.219687) scale(0.1 -0.1)">
      <use xlink:href="#DejaVuSans-48"/>
      <use xlink:href="#DejaVuSans-31" transform="translate(75.195312 0)"/>
      <use xlink:href="#DejaVuSans-31" transform="translate(138.818359 0)"/>
     </g>
    </g>
    <g id="line2d_52">
     <path d="M 99 226.397812 
L 109 226.397812 
L 119 226.397812 
" style="fill: none; stroke: #ff7f0e; stroke-width: 1.5; stroke-linecap: square"/>
    </g>
    <g id="text_29">
     <!-- H12 -->
     <g transform="translate(127 229.897812) scale(0.1 -0.1)">
      <use xlink:href="#DejaVuSans-48"/>
      <use xlink:href="#DejaVuSans-31" transform="translate(75.195312 0)"/>
      <use xlink:href="#DejaVuSans-32" transform="translate(138.818359 0)"/>
     </g>
    </g>
   </g>
  </g>
 </g>
 <defs>
  <clipPath id="p124d0f4c34">
   <rect x="90" y="51.84" width="558" height="332.64"/>
  </clipPath>
 </defs>
</svg>
