<?xml version="1.0" encoding="utf-8" standalone="no"?>
<!DOCTYPE svg PUBLIC "-//W3C//DTD SVG 1.1//EN"
  "http://www.w3.org/Graphics/SVG/1.1/DTD/svg11.dtd">
<svg xmlns:xlink="http://www.w3.org/1999/xlink" width="720pt" height="432pt" viewBox="0 0 720 432" xmlns="http://www.w3.org/2000/svg" version="1.1">
 <metadata>
  <rdf:RDF xmlns:dc="http://purl.org/dc/elements/1.1/" xmlns:cc="http://creativecommons.org/ns#" xmlns:rdf="http://www.w3.org/1999/02/22-rdf-syntax-ns#">
   <cc:Work>
    <dc:type rdf:resource="http://purl.org/dc/dcmitype/StillImage"/>
    <dc:date>2025-01-14T23:08:54.252828</dc:date>
    <dc:format>image/svg+xml</dc:format>
    <dc:creator>
     <cc:Agent>
      <dc:title>Matplotlib v3.10.0, https://matplotlib.org/</dc:title>
     </cc:Agent>
    </dc:creator>
   </cc:Work>
  </rdf:RDF>
 </metadata>
 <defs>
  <style type="text/css">*{stroke-linejoin: round; stroke-linecap: butt}</style>
 </defs>
 <g id="figure_1">
  <g id="patch_1">
   <path d="M 0 432 
L 720 432 
L 720 0 
L 0 0 
z
" style="fill: #ffffff"/>
  </g>
  <g id="axes_1">
   <g id="patch_2">
    <path d="M 90 384.48 
L 648 384.48 
L 648 51.84 
L 90 51.84 
z
" style="fill: #ffffff"/>
   </g>
   <g id="matplotlib.axis_1">
    <g id="xtick_1">
     <g id="line2d_1">
      <path d="M 139.183399 384.48 
L 139.183399 51.84 
" clip-path="url(#pa9e4d13f98)" style="fill: none; stroke: #b0b0b0; stroke-width: 0.8; stroke-linecap: square"/>
     </g>
     <g id="line2d_2">
      <defs>
       <path id="me9c2611ba8" d="M 0 0 
L 0 3.5 
" style="stroke: #000000; stroke-width: 0.8"/>
      </defs>
      <g>
       <use xlink:href="#me9c2611ba8" x="139.183399" y="384.48" style="stroke: #000000; stroke-width: 0.8"/>
      </g>
     </g>
     <g id="text_1">
      <!-- 01-14 14 -->
      <g transform="translate(116.70293 399.078438) scale(0.1 -0.1)">
       <defs>
        <path id="DejaVuSans-30" d="M 2034 4250 
Q 1547 4250 1301 3770 
Q 1056 3291 1056 2328 
Q 1056 1369 1301 889 
Q 1547 409 2034 409 
Q 2525 409 2770 889 
Q 3016 1369 3016 2328 
Q 3016 3291 2770 3770 
Q 2525 4250 2034 4250 
z
M 2034 4750 
Q 2819 4750 3233 4129 
Q 3647 3509 3647 2328 
Q 3647 1150 3233 529 
Q 2819 -91 2034 -91 
Q 1250 -91 836 529 
Q 422 1150 422 2328 
Q 422 3509 836 4129 
Q 1250 4750 2034 4750 
z
" transform="scale(0.015625)"/>
        <path id="DejaVuSans-31" d="M 794 531 
L 1825 531 
L 1825 4091 
L 703 3866 
L 703 4441 
L 1819 4666 
L 2450 4666 
L 2450 531 
L 3481 531 
L 3481 0 
L 794 0 
L 794 531 
z
" transform="scale(0.015625)"/>
        <path id="DejaVuSans-2d" d="M 313 2009 
L 1997 2009 
L 1997 1497 
L 313 1497 
L 313 2009 
z
" transform="scale(0.015625)"/>
        <path id="DejaVuSans-34" d="M 2419 4116 
L 825 1625 
L 2419 1625 
L 2419 4116 
z
M 2253 4666 
L 3047 4666 
L 3047 1625 
L 3713 1625 
L 3713 1100 
L 3047 1100 
L 3047 0 
L 2419 0 
L 2419 1100 
L 313 1100 
L 313 1709 
L 2253 4666 
z
" transform="scale(0.015625)"/>
        <path id="DejaVuSans-20" transform="scale(0.015625)"/>
       </defs>
       <use xlink:href="#DejaVuSans-30"/>
       <use xlink:href="#DejaVuSans-31" transform="translate(63.623047 0)"/>
       <use xlink:href="#DejaVuSans-2d" transform="translate(127.246094 0)"/>
       <use xlink:href="#DejaVuSans-31" transform="translate(163.330078 0)"/>
       <use xlink:href="#DejaVuSans-34" transform="translate(226.953125 0)"/>
       <use xlink:href="#DejaVuSans-20" transform="translate(290.576172 0)"/>
       <use xlink:href="#DejaVuSans-31" transform="translate(322.363281 0)"/>
       <use xlink:href="#DejaVuSans-34" transform="translate(385.986328 0)"/>
      </g>
     </g>
    </g>
    <g id="xtick_2">
     <g id="line2d_3">
      <path d="M 192.116206 384.48 
L 192.116206 51.84 
" clip-path="url(#pa9e4d13f98)" style="fill: none; stroke: #b0b0b0; stroke-width: 0.8; stroke-linecap: square"/>
     </g>
     <g id="line2d_4">
      <g>
       <use xlink:href="#me9c2611ba8" x="192.116206" y="384.48" style="stroke: #000000; stroke-width: 0.8"/>
      </g>
     </g>
     <g id="text_2">
      <!-- 01-14 15 -->
      <g transform="translate(169.635737 399.078438) scale(0.1 -0.1)">
       <defs>
        <path id="DejaVuSans-35" d="M 691 4666 
L 3169 4666 
L 3169 4134 
L 1269 4134 
L 1269 2991 
Q 1406 3038 1543 3061 
Q 1681 3084 1819 3084 
Q 2600 3084 3056 2656 
Q 3513 2228 3513 1497 
Q 3513 744 3044 326 
Q 2575 -91 1722 -91 
Q 1428 -91 1123 -41 
Q 819 9 494 109 
L 494 744 
Q 775 591 1075 516 
Q 1375 441 1709 441 
Q 2250 441 2565 725 
Q 2881 1009 2881 1497 
Q 2881 1984 2565 2268 
Q 2250 2553 1709 2553 
Q 1456 2553 1204 2497 
Q 953 2441 691 2322 
L 691 4666 
z
" transform="scale(0.015625)"/>
       </defs>
       <use xlink:href="#DejaVuSans-30"/>
       <use xlink:href="#DejaVuSans-31" transform="translate(63.623047 0)"/>
       <use xlink:href="#DejaVuSans-2d" transform="translate(127.246094 0)"/>
       <use xlink:href="#DejaVuSans-31" transform="translate(163.330078 0)"/>
       <use xlink:href="#DejaVuSans-34" transform="translate(226.953125 0)"/>
       <use xlink:href="#DejaVuSans-20" transform="translate(290.576172 0)"/>
       <use xlink:href="#DejaVuSans-31" transform="translate(322.363281 0)"/>
       <use xlink:href="#DejaVuSans-35" transform="translate(385.986328 0)"/>
      </g>
     </g>
    </g>
    <g id="xtick_3">
     <g id="line2d_5">
      <path d="M 245.049012 384.48 
L 245.049012 51.84 
" clip-path="url(#pa9e4d13f98)" style="fill: none; stroke: #b0b0b0; stroke-width: 0.8; stroke-linecap: square"/>
     </g>
     <g id="line2d_6">
      <g>
       <use xlink:href="#me9c2611ba8" x="245.049012" y="384.48" style="stroke: #000000; stroke-width: 0.8"/>
      </g>
     </g>
     <g id="text_3">
      <!-- 01-14 16 -->
      <g transform="translate(222.568543 399.078438) scale(0.1 -0.1)">
       <defs>
        <path id="DejaVuSans-36" d="M 2113 2584 
Q 1688 2584 1439 2293 
Q 1191 2003 1191 1497 
Q 1191 994 1439 701 
Q 1688 409 2113 409 
Q 2538 409 2786 701 
Q 3034 994 3034 1497 
Q 3034 2003 2786 2293 
Q 2538 2584 2113 2584 
z
M 3366 4563 
L 3366 3988 
Q 3128 4100 2886 4159 
Q 2644 4219 2406 4219 
Q 1781 4219 1451 3797 
Q 1122 3375 1075 2522 
Q 1259 2794 1537 2939 
Q 1816 3084 2150 3084 
Q 2853 3084 3261 2657 
Q 3669 2231 3669 1497 
Q 3669 778 3244 343 
Q 2819 -91 2113 -91 
Q 1303 -91 875 529 
Q 447 1150 447 2328 
Q 447 3434 972 4092 
Q 1497 4750 2381 4750 
Q 2619 4750 2861 4703 
Q 3103 4656 3366 4563 
z
" transform="scale(0.015625)"/>
       </defs>
       <use xlink:href="#DejaVuSans-30"/>
       <use xlink:href="#DejaVuSans-31" transform="translate(63.623047 0)"/>
       <use xlink:href="#DejaVuSans-2d" transform="translate(127.246094 0)"/>
       <use xlink:href="#DejaVuSans-31" transform="translate(163.330078 0)"/>
       <use xlink:href="#DejaVuSans-34" transform="translate(226.953125 0)"/>
       <use xlink:href="#DejaVuSans-20" transform="translate(290.576172 0)"/>
       <use xlink:href="#DejaVuSans-31" transform="translate(322.363281 0)"/>
       <use xlink:href="#DejaVuSans-36" transform="translate(385.986328 0)"/>
      </g>
     </g>
    </g>
    <g id="xtick_4">
     <g id="line2d_7">
      <path d="M 297.981818 384.48 
L 297.981818 51.84 
" clip-path="url(#pa9e4d13f98)" style="fill: none; stroke: #b0b0b0; stroke-width: 0.8; stroke-linecap: square"/>
     </g>
     <g id="line2d_8">
      <g>
       <use xlink:href="#me9c2611ba8" x="297.981818" y="384.48" style="stroke: #000000; stroke-width: 0.8"/>
      </g>
     </g>
     <g id="text_4">
      <!-- 01-14 17 -->
      <g transform="translate(275.501349 399.078438) scale(0.1 -0.1)">
       <defs>
        <path id="DejaVuSans-37" d="M 525 4666 
L 3525 4666 
L 3525 4397 
L 1831 0 
L 1172 0 
L 2766 4134 
L 525 4134 
L 525 4666 
z
" transform="scale(0.015625)"/>
       </defs>
       <use xlink:href="#DejaVuSans-30"/>
       <use xlink:href="#DejaVuSans-31" transform="translate(63.623047 0)"/>
       <use xlink:href="#DejaVuSans-2d" transform="translate(127.246094 0)"/>
       <use xlink:href="#DejaVuSans-31" transform="translate(163.330078 0)"/>
       <use xlink:href="#DejaVuSans-34" transform="translate(226.953125 0)"/>
       <use xlink:href="#DejaVuSans-20" transform="translate(290.576172 0)"/>
       <use xlink:href="#DejaVuSans-31" transform="translate(322.363281 0)"/>
       <use xlink:href="#DejaVuSans-37" transform="translate(385.986328 0)"/>
      </g>
     </g>
    </g>
    <g id="xtick_5">
     <g id="line2d_9">
      <path d="M 350.914625 384.48 
L 350.914625 51.84 
" clip-path="url(#pa9e4d13f98)" style="fill: none; stroke: #b0b0b0; stroke-width: 0.8; stroke-linecap: square"/>
     </g>
     <g id="line2d_10">
      <g>
       <use xlink:href="#me9c2611ba8" x="350.914625" y="384.48" style="stroke: #000000; stroke-width: 0.8"/>
      </g>
     </g>
     <g id="text_5">
      <!-- 01-14 18 -->
      <g transform="translate(328.434156 399.078438) scale(0.1 -0.1)">
       <defs>
        <path id="DejaVuSans-38" d="M 2034 2216 
Q 1584 2216 1326 1975 
Q 1069 1734 1069 1313 
Q 1069 891 1326 650 
Q 1584 409 2034 409 
Q 2484 409 2743 651 
Q 3003 894 3003 1313 
Q 3003 1734 2745 1975 
Q 2488 2216 2034 2216 
z
M 1403 2484 
Q 997 2584 770 2862 
Q 544 3141 544 3541 
Q 544 4100 942 4425 
Q 1341 4750 2034 4750 
Q 2731 4750 3128 4425 
Q 3525 4100 3525 3541 
Q 3525 3141 3298 2862 
Q 3072 2584 2669 2484 
Q 3125 2378 3379 2068 
Q 3634 1759 3634 1313 
Q 3634 634 3220 271 
Q 2806 -91 2034 -91 
Q 1263 -91 848 271 
Q 434 634 434 1313 
Q 434 1759 690 2068 
Q 947 2378 1403 2484 
z
M 1172 3481 
Q 1172 3119 1398 2916 
Q 1625 2713 2034 2713 
Q 2441 2713 2670 2916 
Q 2900 3119 2900 3481 
Q 2900 3844 2670 4047 
Q 2441 4250 2034 4250 
Q 1625 4250 1398 4047 
Q 1172 3844 1172 3481 
z
" transform="scale(0.015625)"/>
       </defs>
       <use xlink:href="#DejaVuSans-30"/>
       <use xlink:href="#DejaVuSans-31" transform="translate(63.623047 0)"/>
       <use xlink:href="#DejaVuSans-2d" transform="translate(127.246094 0)"/>
       <use xlink:href="#DejaVuSans-31" transform="translate(163.330078 0)"/>
       <use xlink:href="#DejaVuSans-34" transform="translate(226.953125 0)"/>
       <use xlink:href="#DejaVuSans-20" transform="translate(290.576172 0)"/>
       <use xlink:href="#DejaVuSans-31" transform="translate(322.363281 0)"/>
       <use xlink:href="#DejaVuSans-38" transform="translate(385.986328 0)"/>
      </g>
     </g>
    </g>
    <g id="xtick_6">
     <g id="line2d_11">
      <path d="M 403.847431 384.48 
L 403.847431 51.84 
" clip-path="url(#pa9e4d13f98)" style="fill: none; stroke: #b0b0b0; stroke-width: 0.8; stroke-linecap: square"/>
     </g>
     <g id="line2d_12">
      <g>
       <use xlink:href="#me9c2611ba8" x="403.847431" y="384.48" style="stroke: #000000; stroke-width: 0.8"/>
      </g>
     </g>
     <g id="text_6">
      <!-- 01-14 19 -->
      <g transform="translate(381.366962 399.078438) scale(0.1 -0.1)">
       <defs>
        <path id="DejaVuSans-39" d="M 703 97 
L 703 672 
Q 941 559 1184 500 
Q 1428 441 1663 441 
Q 2288 441 2617 861 
Q 2947 1281 2994 2138 
Q 2813 1869 2534 1725 
Q 2256 1581 1919 1581 
Q 1219 1581 811 2004 
Q 403 2428 403 3163 
Q 403 3881 828 4315 
Q 1253 4750 1959 4750 
Q 2769 4750 3195 4129 
Q 3622 3509 3622 2328 
Q 3622 1225 3098 567 
Q 2575 -91 1691 -91 
Q 1453 -91 1209 -44 
Q 966 3 703 97 
z
M 1959 2075 
Q 2384 2075 2632 2365 
Q 2881 2656 2881 3163 
Q 2881 3666 2632 3958 
Q 2384 4250 1959 4250 
Q 1534 4250 1286 3958 
Q 1038 3666 1038 3163 
Q 1038 2656 1286 2365 
Q 1534 2075 1959 2075 
z
" transform="scale(0.015625)"/>
       </defs>
       <use xlink:href="#DejaVuSans-30"/>
       <use xlink:href="#DejaVuSans-31" transform="translate(63.623047 0)"/>
       <use xlink:href="#DejaVuSans-2d" transform="translate(127.246094 0)"/>
       <use xlink:href="#DejaVuSans-31" transform="translate(163.330078 0)"/>
       <use xlink:href="#DejaVuSans-34" transform="translate(226.953125 0)"/>
       <use xlink:href="#DejaVuSans-20" transform="translate(290.576172 0)"/>
       <use xlink:href="#DejaVuSans-31" transform="translate(322.363281 0)"/>
       <use xlink:href="#DejaVuSans-39" transform="translate(385.986328 0)"/>
      </g>
     </g>
    </g>
    <g id="xtick_7">
     <g id="line2d_13">
      <path d="M 456.780237 384.48 
L 456.780237 51.84 
" clip-path="url(#pa9e4d13f98)" style="fill: none; stroke: #b0b0b0; stroke-width: 0.8; stroke-linecap: square"/>
     </g>
     <g id="line2d_14">
      <g>
       <use xlink:href="#me9c2611ba8" x="456.780237" y="384.48" style="stroke: #000000; stroke-width: 0.8"/>
      </g>
     </g>
     <g id="text_7">
      <!-- 01-14 20 -->
      <g transform="translate(434.299768 399.078438) scale(0.1 -0.1)">
       <defs>
        <path id="DejaVuSans-32" d="M 1228 531 
L 3431 531 
L 3431 0 
L 469 0 
L 469 531 
Q 828 903 1448 1529 
Q 2069 2156 2228 2338 
Q 2531 2678 2651 2914 
Q 2772 3150 2772 3378 
Q 2772 3750 2511 3984 
Q 2250 4219 1831 4219 
Q 1534 4219 1204 4116 
Q 875 4013 500 3803 
L 500 4441 
Q 881 4594 1212 4672 
Q 1544 4750 1819 4750 
Q 2544 4750 2975 4387 
Q 3406 4025 3406 3419 
Q 3406 3131 3298 2873 
Q 3191 2616 2906 2266 
Q 2828 2175 2409 1742 
Q 1991 1309 1228 531 
z
" transform="scale(0.015625)"/>
       </defs>
       <use xlink:href="#DejaVuSans-30"/>
       <use xlink:href="#DejaVuSans-31" transform="translate(63.623047 0)"/>
       <use xlink:href="#DejaVuSans-2d" transform="translate(127.246094 0)"/>
       <use xlink:href="#DejaVuSans-31" transform="translate(163.330078 0)"/>
       <use xlink:href="#DejaVuSans-34" transform="translate(226.953125 0)"/>
       <use xlink:href="#DejaVuSans-20" transform="translate(290.576172 0)"/>
       <use xlink:href="#DejaVuSans-32" transform="translate(322.363281 0)"/>
       <use xlink:href="#DejaVuSans-30" transform="translate(385.986328 0)"/>
      </g>
     </g>
    </g>
    <g id="xtick_8">
     <g id="line2d_15">
      <path d="M 509.713043 384.48 
L 509.713043 51.84 
" clip-path="url(#pa9e4d13f98)" style="fill: none; stroke: #b0b0b0; stroke-width: 0.8; stroke-linecap: square"/>
     </g>
     <g id="line2d_16">
      <g>
       <use xlink:href="#me9c2611ba8" x="509.713043" y="384.48" style="stroke: #000000; stroke-width: 0.8"/>
      </g>
     </g>
     <g id="text_8">
      <!-- 01-14 21 -->
      <g transform="translate(487.232575 399.078438) scale(0.1 -0.1)">
       <use xlink:href="#DejaVuSans-30"/>
       <use xlink:href="#DejaVuSans-31" transform="translate(63.623047 0)"/>
       <use xlink:href="#DejaVuSans-2d" transform="translate(127.246094 0)"/>
       <use xlink:href="#DejaVuSans-31" transform="translate(163.330078 0)"/>
       <use xlink:href="#DejaVuSans-34" transform="translate(226.953125 0)"/>
       <use xlink:href="#DejaVuSans-20" transform="translate(290.576172 0)"/>
       <use xlink:href="#DejaVuSans-32" transform="translate(322.363281 0)"/>
       <use xlink:href="#DejaVuSans-31" transform="translate(385.986328 0)"/>
      </g>
     </g>
    </g>
    <g id="xtick_9">
     <g id="line2d_17">
      <path d="M 562.64585 384.48 
L 562.64585 51.84 
" clip-path="url(#pa9e4d13f98)" style="fill: none; stroke: #b0b0b0; stroke-width: 0.8; stroke-linecap: square"/>
     </g>
     <g id="line2d_18">
      <g>
       <use xlink:href="#me9c2611ba8" x="562.64585" y="384.48" style="stroke: #000000; stroke-width: 0.8"/>
      </g>
     </g>
     <g id="text_9">
      <!-- 01-14 22 -->
      <g transform="translate(540.165381 399.078438) scale(0.1 -0.1)">
       <use xlink:href="#DejaVuSans-30"/>
       <use xlink:href="#DejaVuSans-31" transform="translate(63.623047 0)"/>
       <use xlink:href="#DejaVuSans-2d" transform="translate(127.246094 0)"/>
       <use xlink:href="#DejaVuSans-31" transform="translate(163.330078 0)"/>
       <use xlink:href="#DejaVuSans-34" transform="translate(226.953125 0)"/>
       <use xlink:href="#DejaVuSans-20" transform="translate(290.576172 0)"/>
       <use xlink:href="#DejaVuSans-32" transform="translate(322.363281 0)"/>
       <use xlink:href="#DejaVuSans-32" transform="translate(385.986328 0)"/>
      </g>
     </g>
    </g>
    <g id="xtick_10">
     <g id="line2d_19">
      <path d="M 615.578656 384.48 
L 615.578656 51.84 
" clip-path="url(#pa9e4d13f98)" style="fill: none; stroke: #b0b0b0; stroke-width: 0.8; stroke-linecap: square"/>
     </g>
     <g id="line2d_20">
      <g>
       <use xlink:href="#me9c2611ba8" x="615.578656" y="384.48" style="stroke: #000000; stroke-width: 0.8"/>
      </g>
     </g>
     <g id="text_10">
      <!-- 01-14 23 -->
      <g transform="translate(593.098187 399.078438) scale(0.1 -0.1)">
       <defs>
        <path id="DejaVuSans-33" d="M 2597 2516 
Q 3050 2419 3304 2112 
Q 3559 1806 3559 1356 
Q 3559 666 3084 287 
Q 2609 -91 1734 -91 
Q 1441 -91 1130 -33 
Q 819 25 488 141 
L 488 750 
Q 750 597 1062 519 
Q 1375 441 1716 441 
Q 2309 441 2620 675 
Q 2931 909 2931 1356 
Q 2931 1769 2642 2001 
Q 2353 2234 1838 2234 
L 1294 2234 
L 1294 2753 
L 1863 2753 
Q 2328 2753 2575 2939 
Q 2822 3125 2822 3475 
Q 2822 3834 2567 4026 
Q 2313 4219 1838 4219 
Q 1578 4219 1281 4162 
Q 984 4106 628 3988 
L 628 4550 
Q 988 4650 1302 4700 
Q 1616 4750 1894 4750 
Q 2613 4750 3031 4423 
Q 3450 4097 3450 3541 
Q 3450 3153 3228 2886 
Q 3006 2619 2597 2516 
z
" transform="scale(0.015625)"/>
       </defs>
       <use xlink:href="#DejaVuSans-30"/>
       <use xlink:href="#DejaVuSans-31" transform="translate(63.623047 0)"/>
       <use xlink:href="#DejaVuSans-2d" transform="translate(127.246094 0)"/>
       <use xlink:href="#DejaVuSans-31" transform="translate(163.330078 0)"/>
       <use xlink:href="#DejaVuSans-34" transform="translate(226.953125 0)"/>
       <use xlink:href="#DejaVuSans-20" transform="translate(290.576172 0)"/>
       <use xlink:href="#DejaVuSans-32" transform="translate(322.363281 0)"/>
       <use xlink:href="#DejaVuSans-33" transform="translate(385.986328 0)"/>
      </g>
     </g>
    </g>
    <g id="text_11">
     <!-- Date and Time -->
     <g transform="translate(332.230469 412.756563) scale(0.1 -0.1)">
      <defs>
       <path id="DejaVuSans-44" d="M 1259 4147 
L 1259 519 
L 2022 519 
Q 2988 519 3436 956 
Q 3884 1394 3884 2338 
Q 3884 3275 3436 3711 
Q 2988 4147 2022 4147 
L 1259 4147 
z
M 628 4666 
L 1925 4666 
Q 3281 4666 3915 4102 
Q 4550 3538 4550 2338 
Q 4550 1131 3912 565 
Q 3275 0 1925 0 
L 628 0 
L 628 4666 
z
" transform="scale(0.015625)"/>
       <path id="DejaVuSans-61" d="M 2194 1759 
Q 1497 1759 1228 1600 
Q 959 1441 959 1056 
Q 959 750 1161 570 
Q 1363 391 1709 391 
Q 2188 391 2477 730 
Q 2766 1069 2766 1631 
L 2766 1759 
L 2194 1759 
z
M 3341 1997 
L 3341 0 
L 2766 0 
L 2766 531 
Q 2569 213 2275 61 
Q 1981 -91 1556 -91 
Q 1019 -91 701 211 
Q 384 513 384 1019 
Q 384 1609 779 1909 
Q 1175 2209 1959 2209 
L 2766 2209 
L 2766 2266 
Q 2766 2663 2505 2880 
Q 2244 3097 1772 3097 
Q 1472 3097 1187 3025 
Q 903 2953 641 2809 
L 641 3341 
Q 956 3463 1253 3523 
Q 1550 3584 1831 3584 
Q 2591 3584 2966 3190 
Q 3341 2797 3341 1997 
z
" transform="scale(0.015625)"/>
       <path id="DejaVuSans-74" d="M 1172 4494 
L 1172 3500 
L 2356 3500 
L 2356 3053 
L 1172 3053 
L 1172 1153 
Q 1172 725 1289 603 
Q 1406 481 1766 481 
L 2356 481 
L 2356 0 
L 1766 0 
Q 1100 0 847 248 
Q 594 497 594 1153 
L 594 3053 
L 172 3053 
L 172 3500 
L 594 3500 
L 594 4494 
L 1172 4494 
z
" transform="scale(0.015625)"/>
       <path id="DejaVuSans-65" d="M 3597 1894 
L 3597 1613 
L 953 1613 
Q 991 1019 1311 708 
Q 1631 397 2203 397 
Q 2534 397 2845 478 
Q 3156 559 3463 722 
L 3463 178 
Q 3153 47 2828 -22 
Q 2503 -91 2169 -91 
Q 1331 -91 842 396 
Q 353 884 353 1716 
Q 353 2575 817 3079 
Q 1281 3584 2069 3584 
Q 2775 3584 3186 3129 
Q 3597 2675 3597 1894 
z
M 3022 2063 
Q 3016 2534 2758 2815 
Q 2500 3097 2075 3097 
Q 1594 3097 1305 2825 
Q 1016 2553 972 2059 
L 3022 2063 
z
" transform="scale(0.015625)"/>
       <path id="DejaVuSans-6e" d="M 3513 2113 
L 3513 0 
L 2938 0 
L 2938 2094 
Q 2938 2591 2744 2837 
Q 2550 3084 2163 3084 
Q 1697 3084 1428 2787 
Q 1159 2491 1159 1978 
L 1159 0 
L 581 0 
L 581 3500 
L 1159 3500 
L 1159 2956 
Q 1366 3272 1645 3428 
Q 1925 3584 2291 3584 
Q 2894 3584 3203 3211 
Q 3513 2838 3513 2113 
z
" transform="scale(0.015625)"/>
       <path id="DejaVuSans-64" d="M 2906 2969 
L 2906 4863 
L 3481 4863 
L 3481 0 
L 2906 0 
L 2906 525 
Q 2725 213 2448 61 
Q 2172 -91 1784 -91 
Q 1150 -91 751 415 
Q 353 922 353 1747 
Q 353 2572 751 3078 
Q 1150 3584 1784 3584 
Q 2172 3584 2448 3432 
Q 2725 3281 2906 2969 
z
M 947 1747 
Q 947 1113 1208 752 
Q 1469 391 1925 391 
Q 2381 391 2643 752 
Q 2906 1113 2906 1747 
Q 2906 2381 2643 2742 
Q 2381 3103 1925 3103 
Q 1469 3103 1208 2742 
Q 947 2381 947 1747 
z
" transform="scale(0.015625)"/>
       <path id="DejaVuSans-54" d="M -19 4666 
L 3928 4666 
L 3928 4134 
L 2272 4134 
L 2272 0 
L 1638 0 
L 1638 4134 
L -19 4134 
L -19 4666 
z
" transform="scale(0.015625)"/>
       <path id="DejaVuSans-69" d="M 603 3500 
L 1178 3500 
L 1178 0 
L 603 0 
L 603 3500 
z
M 603 4863 
L 1178 4863 
L 1178 4134 
L 603 4134 
L 603 4863 
z
" transform="scale(0.015625)"/>
       <path id="DejaVuSans-6d" d="M 3328 2828 
Q 3544 3216 3844 3400 
Q 4144 3584 4550 3584 
Q 5097 3584 5394 3201 
Q 5691 2819 5691 2113 
L 5691 0 
L 5113 0 
L 5113 2094 
Q 5113 2597 4934 2840 
Q 4756 3084 4391 3084 
Q 3944 3084 3684 2787 
Q 3425 2491 3425 1978 
L 3425 0 
L 2847 0 
L 2847 2094 
Q 2847 2600 2669 2842 
Q 2491 3084 2119 3084 
Q 1678 3084 1418 2786 
Q 1159 2488 1159 1978 
L 1159 0 
L 581 0 
L 581 3500 
L 1159 3500 
L 1159 2956 
Q 1356 3278 1631 3431 
Q 1906 3584 2284 3584 
Q 2666 3584 2933 3390 
Q 3200 3197 3328 2828 
z
" transform="scale(0.015625)"/>
      </defs>
      <use xlink:href="#DejaVuSans-44"/>
      <use xlink:href="#DejaVuSans-61" transform="translate(77.001953 0)"/>
      <use xlink:href="#DejaVuSans-74" transform="translate(138.28125 0)"/>
      <use xlink:href="#DejaVuSans-65" transform="translate(177.490234 0)"/>
      <use xlink:href="#DejaVuSans-20" transform="translate(239.013672 0)"/>
      <use xlink:href="#DejaVuSans-61" transform="translate(270.800781 0)"/>
      <use xlink:href="#DejaVuSans-6e" transform="translate(332.080078 0)"/>
      <use xlink:href="#DejaVuSans-64" transform="translate(395.458984 0)"/>
      <use xlink:href="#DejaVuSans-20" transform="translate(458.935547 0)"/>
      <use xlink:href="#DejaVuSans-54" transform="translate(490.722656 0)"/>
      <use xlink:href="#DejaVuSans-69" transform="translate(548.681641 0)"/>
      <use xlink:href="#DejaVuSans-6d" transform="translate(576.464844 0)"/>
      <use xlink:href="#DejaVuSans-65" transform="translate(673.876953 0)"/>
     </g>
    </g>
   </g>
   <g id="matplotlib.axis_2">
    <g id="ytick_1">
     <g id="line2d_21">
      <path d="M 90 370.310943 
L 648 370.310943 
" clip-path="url(#pa9e4d13f98)" style="fill: none; stroke: #b0b0b0; stroke-width: 0.8; stroke-linecap: square"/>
     </g>
     <g id="line2d_22">
      <defs>
       <path id="me1ba8fadca" d="M 0 0 
L -3.5 0 
" style="stroke: #000000; stroke-width: 0.8"/>
      </defs>
      <g>
       <use xlink:href="#me1ba8fadca" x="90" y="370.310943" style="stroke: #000000; stroke-width: 0.8"/>
      </g>
     </g>
     <g id="text_12">
      <!-- 0 -->
      <g transform="translate(76.6375 374.110162) scale(0.1 -0.1)">
       <use xlink:href="#DejaVuSans-30"/>
      </g>
     </g>
    </g>
    <g id="ytick_2">
     <g id="line2d_23">
      <path d="M 90 322.763774 
L 648 322.763774 
" clip-path="url(#pa9e4d13f98)" style="fill: none; stroke: #b0b0b0; stroke-width: 0.8; stroke-linecap: square"/>
     </g>
     <g id="line2d_24">
      <g>
       <use xlink:href="#me1ba8fadca" x="90" y="322.763774" style="stroke: #000000; stroke-width: 0.8"/>
      </g>
     </g>
     <g id="text_13">
      <!-- 50 -->
      <g transform="translate(70.275 326.562992) scale(0.1 -0.1)">
       <use xlink:href="#DejaVuSans-35"/>
       <use xlink:href="#DejaVuSans-30" transform="translate(63.623047 0)"/>
      </g>
     </g>
    </g>
    <g id="ytick_3">
     <g id="line2d_25">
      <path d="M 90 275.216604 
L 648 275.216604 
" clip-path="url(#pa9e4d13f98)" style="fill: none; stroke: #b0b0b0; stroke-width: 0.8; stroke-linecap: square"/>
     </g>
     <g id="line2d_26">
      <g>
       <use xlink:href="#me1ba8fadca" x="90" y="275.216604" style="stroke: #000000; stroke-width: 0.8"/>
      </g>
     </g>
     <g id="text_14">
      <!-- 100 -->
      <g transform="translate(63.9125 279.015823) scale(0.1 -0.1)">
       <use xlink:href="#DejaVuSans-31"/>
       <use xlink:href="#DejaVuSans-30" transform="translate(63.623047 0)"/>
       <use xlink:href="#DejaVuSans-30" transform="translate(127.246094 0)"/>
      </g>
     </g>
    </g>
    <g id="ytick_4">
     <g id="line2d_27">
      <path d="M 90 227.669434 
L 648 227.669434 
" clip-path="url(#pa9e4d13f98)" style="fill: none; stroke: #b0b0b0; stroke-width: 0.8; stroke-linecap: square"/>
     </g>
     <g id="line2d_28">
      <g>
       <use xlink:href="#me1ba8fadca" x="90" y="227.669434" style="stroke: #000000; stroke-width: 0.8"/>
      </g>
     </g>
     <g id="text_15">
      <!-- 150 -->
      <g transform="translate(63.9125 231.468653) scale(0.1 -0.1)">
       <use xlink:href="#DejaVuSans-31"/>
       <use xlink:href="#DejaVuSans-35" transform="translate(63.623047 0)"/>
       <use xlink:href="#DejaVuSans-30" transform="translate(127.246094 0)"/>
      </g>
     </g>
    </g>
    <g id="ytick_5">
     <g id="line2d_29">
      <path d="M 90 180.122264 
L 648 180.122264 
" clip-path="url(#pa9e4d13f98)" style="fill: none; stroke: #b0b0b0; stroke-width: 0.8; stroke-linecap: square"/>
     </g>
     <g id="line2d_30">
      <g>
       <use xlink:href="#me1ba8fadca" x="90" y="180.122264" style="stroke: #000000; stroke-width: 0.8"/>
      </g>
     </g>
     <g id="text_16">
      <!-- 200 -->
      <g transform="translate(63.9125 183.921483) scale(0.1 -0.1)">
       <use xlink:href="#DejaVuSans-32"/>
       <use xlink:href="#DejaVuSans-30" transform="translate(63.623047 0)"/>
       <use xlink:href="#DejaVuSans-30" transform="translate(127.246094 0)"/>
      </g>
     </g>
    </g>
    <g id="ytick_6">
     <g id="line2d_31">
      <path d="M 90 132.575094 
L 648 132.575094 
" clip-path="url(#pa9e4d13f98)" style="fill: none; stroke: #b0b0b0; stroke-width: 0.8; stroke-linecap: square"/>
     </g>
     <g id="line2d_32">
      <g>
       <use xlink:href="#me1ba8fadca" x="90" y="132.575094" style="stroke: #000000; stroke-width: 0.8"/>
      </g>
     </g>
     <g id="text_17">
      <!-- 250 -->
      <g transform="translate(63.9125 136.374313) scale(0.1 -0.1)">
       <use xlink:href="#DejaVuSans-32"/>
       <use xlink:href="#DejaVuSans-35" transform="translate(63.623047 0)"/>
       <use xlink:href="#DejaVuSans-30" transform="translate(127.246094 0)"/>
      </g>
     </g>
    </g>
    <g id="ytick_7">
     <g id="line2d_33">
      <path d="M 90 85.027925 
L 648 85.027925 
" clip-path="url(#pa9e4d13f98)" style="fill: none; stroke: #b0b0b0; stroke-width: 0.8; stroke-linecap: square"/>
     </g>
     <g id="line2d_34">
      <g>
       <use xlink:href="#me1ba8fadca" x="90" y="85.027925" style="stroke: #000000; stroke-width: 0.8"/>
      </g>
     </g>
     <g id="text_18">
      <!-- 300 -->
      <g transform="translate(63.9125 88.827143) scale(0.1 -0.1)">
       <use xlink:href="#DejaVuSans-33"/>
       <use xlink:href="#DejaVuSans-30" transform="translate(63.623047 0)"/>
       <use xlink:href="#DejaVuSans-30" transform="translate(127.246094 0)"/>
      </g>
     </g>
    </g>
    <g id="text_19">
     <!-- Votes -->
     <g transform="translate(57.832812 231.893594) rotate(-90) scale(0.1 -0.1)">
      <defs>
       <path id="DejaVuSans-56" d="M 1831 0 
L 50 4666 
L 709 4666 
L 2188 738 
L 3669 4666 
L 4325 4666 
L 2547 0 
L 1831 0 
z
" transform="scale(0.015625)"/>
       <path id="DejaVuSans-6f" d="M 1959 3097 
Q 1497 3097 1228 2736 
Q 959 2375 959 1747 
Q 959 1119 1226 758 
Q 1494 397 1959 397 
Q 2419 397 2687 759 
Q 2956 1122 2956 1747 
Q 2956 2369 2687 2733 
Q 2419 3097 1959 3097 
z
M 1959 3584 
Q 2709 3584 3137 3096 
Q 3566 2609 3566 1747 
Q 3566 888 3137 398 
Q 2709 -91 1959 -91 
Q 1206 -91 779 398 
Q 353 888 353 1747 
Q 353 2609 779 3096 
Q 1206 3584 1959 3584 
z
" transform="scale(0.015625)"/>
       <path id="DejaVuSans-73" d="M 2834 3397 
L 2834 2853 
Q 2591 2978 2328 3040 
Q 2066 3103 1784 3103 
Q 1356 3103 1142 2972 
Q 928 2841 928 2578 
Q 928 2378 1081 2264 
Q 1234 2150 1697 2047 
L 1894 2003 
Q 2506 1872 2764 1633 
Q 3022 1394 3022 966 
Q 3022 478 2636 193 
Q 2250 -91 1575 -91 
Q 1294 -91 989 -36 
Q 684 19 347 128 
L 347 722 
Q 666 556 975 473 
Q 1284 391 1588 391 
Q 1994 391 2212 530 
Q 2431 669 2431 922 
Q 2431 1156 2273 1281 
Q 2116 1406 1581 1522 
L 1381 1569 
Q 847 1681 609 1914 
Q 372 2147 372 2553 
Q 372 3047 722 3315 
Q 1072 3584 1716 3584 
Q 2034 3584 2315 3537 
Q 2597 3491 2834 3397 
z
" transform="scale(0.015625)"/>
      </defs>
      <use xlink:href="#DejaVuSans-56"/>
      <use xlink:href="#DejaVuSans-6f" transform="translate(60.658203 0)"/>
      <use xlink:href="#DejaVuSans-74" transform="translate(121.839844 0)"/>
      <use xlink:href="#DejaVuSans-65" transform="translate(161.048828 0)"/>
      <use xlink:href="#DejaVuSans-73" transform="translate(222.572266 0)"/>
     </g>
    </g>
   </g>
   <g id="line2d_35">
    <path d="M 115.363636 353.193962 
L 124.185771 353.193962 
L 125.067984 352.243019 
L 133.890119 352.243019 
L 134.772332 350.341132 
L 142.712253 350.341132 
L 143.594466 349.390189 
L 148.005534 349.390189 
L 148.887747 348.439245 
L 152.416601 348.439245 
L 153.298814 347.488302 
L 155.945455 347.488302 
L 156.827668 346.537358 
L 169.178656 346.537358 
L 170.06087 345.586415 
L 179.765217 345.586415 
L 181.529644 343.684528 
L 183.294071 343.684528 
L 184.176285 342.733585 
L 192.116206 342.733585 
L 193.880632 340.831698 
L 204.467194 340.831698 
L 205.349407 339.880755 
L 207.996047 339.880755 
L 208.878261 338.929811 
L 209.760474 338.929811 
L 210.642688 337.978868 
L 234.462451 337.978868 
L 235.344664 337.027925 
L 245.931225 337.027925 
L 246.813439 336.076981 
L 252.988933 336.076981 
L 253.871146 335.126038 
L 254.75336 333.224151 
L 255.635573 333.224151 
L 257.4 331.322264 
L 271.515415 331.322264 
L 272.397628 330.371321 
L 277.690909 330.371321 
L 278.573123 329.420377 
L 282.101976 329.420377 
L 282.98419 328.469434 
L 291.806324 328.469434 
L 292.688538 327.518491 
L 294.452964 327.518491 
L 295.335178 326.567547 
L 297.981818 326.567547 
L 298.864032 325.616604 
L 305.921739 325.616604 
L 306.803953 324.66566 
L 307.686166 324.66566 
L 308.568379 323.714717 
L 317.390514 323.714717 
L 318.272727 322.763774 
L 324.448221 322.763774 
L 325.330435 321.81283 
L 326.212648 321.81283 
L 327.977075 319.910943 
L 347.385771 319.910943 
L 348.267984 318.96 
L 362.383399 318.96 
L 363.265613 318.009057 
L 364.147826 318.009057 
L 365.03004 317.058113 
L 372.96996 317.058113 
L 373.852174 316.10717 
L 374.734387 316.10717 
L 375.616601 315.156226 
L 380.027668 315.156226 
L 380.909881 314.205283 
L 383.556522 314.205283 
L 385.320949 312.303396 
L 386.203162 312.303396 
L 387.085375 311.352453 
L 388.849802 311.352453 
L 389.732016 310.401509 
L 391.496443 310.401509 
L 392.378656 309.450566 
L 394.143083 309.450566 
L 395.025296 308.499623 
L 416.198419 308.499623 
L 417.080632 307.548679 
L 425.902767 307.548679 
L 426.78498 306.597736 
L 432.078261 306.597736 
L 432.960474 305.646792 
L 433.842688 305.646792 
L 434.724901 304.695849 
L 435.607115 304.695849 
L 439.135968 300.892075 
L 440.900395 300.892075 
L 441.782609 298.990189 
L 448.840316 298.990189 
L 450.604743 297.088302 
L 452.36917 297.088302 
L 453.251383 296.137358 
L 456.780237 296.137358 
L 457.662451 295.186415 
L 463.837945 295.186415 
L 464.720158 294.235472 
L 466.484585 294.235472 
L 467.366798 293.284528 
L 472.660079 293.284528 
L 474.424506 291.382642 
L 480.6 291.382642 
L 481.482213 290.431698 
L 484.128854 290.431698 
L 485.011067 289.480755 
L 486.775494 289.480755 
L 487.657708 287.578868 
L 491.186561 287.578868 
L 492.068775 285.676981 
L 492.950988 284.726038 
L 496.479842 284.726038 
L 497.362055 282.824151 
L 503.537549 282.824151 
L 504.419763 281.873208 
L 507.948617 281.873208 
L 508.83083 280.922264 
L 511.47747 280.922264 
L 512.359684 279.971321 
L 513.241897 278.069434 
L 515.006324 278.069434 
L 515.888538 277.118491 
L 530.003953 277.118491 
L 531.768379 275.216604 
L 544.119368 275.216604 
L 545.001581 274.26566 
L 550.294862 274.26566 
L 551.177075 273.314717 
L 562.64585 273.314717 
L 563.528063 272.363774 
L 571.467984 272.363774 
L 572.350198 271.41283 
L 595.287747 271.41283 
L 596.16996 270.461887 
L 622.636364 270.461887 
L 622.636364 270.461887 
" clip-path="url(#pa9e4d13f98)" style="fill: none; stroke: #1f77b4; stroke-width: 1.5; stroke-linecap: square"/>
   </g>
   <g id="line2d_36">
    <path d="M 115.363636 292.333585 
L 116.24585 291.382642 
L 118.89249 291.382642 
L 119.774704 290.431698 
L 120.656917 290.431698 
L 121.53913 289.480755 
L 122.421344 289.480755 
L 124.185771 287.578868 
L 125.067984 285.676981 
L 125.950198 285.676981 
L 127.714625 283.775094 
L 128.596838 283.775094 
L 129.479051 279.971321 
L 130.361265 278.069434 
L 131.243478 274.26566 
L 132.125692 271.41283 
L 134.772332 271.41283 
L 135.654545 268.56 
L 136.536759 266.658113 
L 138.301186 264.756226 
L 139.183399 262.85434 
L 140.947826 260.952453 
L 141.83004 259.050566 
L 144.47668 259.050566 
L 145.358893 254.295849 
L 146.241107 252.393962 
L 147.12332 251.443019 
L 148.005534 249.541132 
L 148.887747 248.590189 
L 149.76996 248.590189 
L 150.652174 245.737358 
L 151.534387 245.737358 
L 152.416601 243.835472 
L 153.298814 242.884528 
L 154.181028 242.884528 
L 155.063241 241.933585 
L 156.827668 241.933585 
L 157.709881 240.982642 
L 159.474308 240.982642 
L 160.356522 239.080755 
L 161.238735 239.080755 
L 162.120949 238.129811 
L 165.649802 238.129811 
L 166.532016 237.178868 
L 169.178656 237.178868 
L 170.06087 236.227925 
L 170.943083 236.227925 
L 171.825296 234.326038 
L 172.70751 234.326038 
L 173.589723 232.424151 
L 174.471937 231.473208 
L 177.118577 231.473208 
L 178.000791 229.571321 
L 178.883004 228.620377 
L 179.765217 225.767547 
L 181.529644 223.86566 
L 188.587352 223.86566 
L 189.469565 221.01283 
L 190.351779 221.01283 
L 192.116206 219.110943 
L 192.998419 219.110943 
L 195.645059 216.258113 
L 197.409486 216.258113 
L 198.2917 215.30717 
L 200.056126 215.30717 
L 202.702767 212.45434 
L 204.467194 212.45434 
L 205.349407 211.503396 
L 209.760474 211.503396 
L 210.642688 210.552453 
L 212.407115 210.552453 
L 213.289328 209.601509 
L 223.875889 209.601509 
L 224.758103 207.699623 
L 226.52253 207.699623 
L 228.286957 205.797736 
L 229.16917 205.797736 
L 230.051383 204.846792 
L 235.344664 204.846792 
L 237.991304 201.993962 
L 238.873518 201.993962 
L 239.755731 201.043019 
L 240.637945 199.141132 
L 241.520158 199.141132 
L 242.402372 198.190189 
L 243.284585 198.190189 
L 246.813439 194.386415 
L 248.577866 194.386415 
L 249.460079 192.484528 
L 252.106719 192.484528 
L 252.988933 191.533585 
L 255.635573 191.533585 
L 256.517787 190.582642 
L 257.4 190.582642 
L 258.282213 187.729811 
L 260.928854 187.729811 
L 261.811067 186.778868 
L 262.693281 184.876981 
L 264.457708 184.876981 
L 265.339921 183.926038 
L 267.104348 183.926038 
L 267.986561 182.975094 
L 268.868775 182.975094 
L 273.279842 178.220377 
L 275.044269 178.220377 
L 277.690909 175.367547 
L 280.337549 175.367547 
L 281.219763 173.46566 
L 282.101976 173.46566 
L 282.98419 172.514717 
L 285.63083 172.514717 
L 286.513043 171.563774 
L 294.452964 171.563774 
L 295.335178 170.61283 
L 301.510672 170.61283 
L 302.392885 169.661887 
L 304.157312 169.661887 
L 305.921739 167.76 
L 310.332806 167.76 
L 311.21502 166.809057 
L 315.626087 166.809057 
L 318.272727 163.956226 
L 329.741502 163.956226 
L 330.623715 162.05434 
L 331.505929 161.103396 
L 352.679051 161.103396 
L 353.561265 160.152453 
L 358.854545 160.152453 
L 360.618972 158.250566 
L 362.383399 158.250566 
L 363.265613 157.299623 
L 364.147826 157.299623 
L 365.912253 155.397736 
L 366.794466 155.397736 
L 367.67668 154.446792 
L 368.558893 154.446792 
L 370.32332 150.643019 
L 371.205534 149.692075 
L 375.616601 149.692075 
L 376.498814 146.839245 
L 377.381028 144.937358 
L 379.145455 144.937358 
L 380.909881 143.035472 
L 385.320949 143.035472 
L 387.085375 141.133585 
L 388.849802 141.133585 
L 389.732016 140.182642 
L 391.496443 140.182642 
L 392.378656 139.231698 
L 393.26087 139.231698 
L 394.143083 138.280755 
L 395.025296 138.280755 
L 395.90751 137.329811 
L 396.789723 137.329811 
L 397.671937 136.378868 
L 399.436364 136.378868 
L 400.318577 134.476981 
L 404.729644 134.476981 
L 406.494071 132.575094 
L 415.316206 132.575094 
L 416.198419 131.624151 
L 417.080632 131.624151 
L 417.962846 130.673208 
L 418.845059 130.673208 
L 421.4917 127.820377 
L 423.256126 127.820377 
L 424.13834 126.869434 
L 441.782609 126.869434 
L 443.547036 124.967547 
L 447.075889 124.967547 
L 447.958103 124.016604 
L 448.840316 124.016604 
L 449.72253 123.06566 
L 450.604743 123.06566 
L 451.486957 122.114717 
L 470.895652 122.114717 
L 471.777866 121.163774 
L 489.422134 121.163774 
L 490.304348 119.261887 
L 496.479842 119.261887 
L 498.244269 117.36 
L 500.008696 117.36 
L 500.890909 116.409057 
L 502.655336 116.409057 
L 504.419763 114.50717 
L 506.18419 114.50717 
L 507.066403 112.605283 
L 514.124111 112.605283 
L 515.006324 111.65434 
L 519.417391 111.65434 
L 520.299605 110.703396 
L 525.592885 110.703396 
L 526.475099 109.752453 
L 532.650593 109.752453 
L 534.41502 107.850566 
L 535.297233 107.850566 
L 536.179447 106.899623 
L 541.472727 106.899623 
L 542.354941 105.948679 
L 545.883794 105.948679 
L 546.766008 104.997736 
L 547.648221 104.997736 
L 548.530435 104.046792 
L 561.763636 104.046792 
L 564.410277 101.193962 
L 574.114625 101.193962 
L 574.996838 100.243019 
L 578.525692 100.243019 
L 579.407905 98.341132 
L 589.112253 98.341132 
L 589.994466 96.439245 
L 602.345455 96.439245 
L 603.227668 95.488302 
L 616.46087 95.488302 
L 617.343083 93.586415 
L 622.636364 93.586415 
L 622.636364 93.586415 
" clip-path="url(#pa9e4d13f98)" style="fill: none; stroke: #ff7f0e; stroke-width: 1.5; stroke-linecap: square"/>
   </g>
   <g id="line2d_37">
    <path d="M 115.363636 340.831698 
L 118.89249 340.831698 
L 119.774704 338.929811 
L 121.53913 338.929811 
L 122.421344 337.978868 
L 123.303557 336.076981 
L 124.185771 335.126038 
L 125.067984 332.273208 
L 125.950198 330.371321 
L 126.832411 329.420377 
L 127.714625 329.420377 
L 128.596838 327.518491 
L 129.479051 324.66566 
L 133.007905 324.66566 
L 133.890119 323.714717 
L 134.772332 323.714717 
L 135.654545 321.81283 
L 138.301186 321.81283 
L 140.065613 319.910943 
L 143.594466 319.910943 
L 144.47668 318.96 
L 148.005534 318.96 
L 150.652174 316.10717 
L 155.063241 316.10717 
L 155.945455 315.156226 
L 158.592095 315.156226 
L 159.474308 314.205283 
L 161.238735 314.205283 
L 162.120949 312.303396 
L 169.178656 312.303396 
L 170.06087 311.352453 
L 170.943083 309.450566 
L 171.825296 308.499623 
L 172.70751 308.499623 
L 173.589723 307.548679 
L 175.35415 307.548679 
L 176.236364 306.597736 
L 178.000791 306.597736 
L 178.883004 305.646792 
L 184.176285 305.646792 
L 185.058498 304.695849 
L 185.940711 304.695849 
L 186.822925 303.744906 
L 187.705138 303.744906 
L 188.587352 302.793962 
L 191.233992 302.793962 
L 192.116206 301.843019 
L 192.998419 299.941132 
L 197.409486 299.941132 
L 200.056126 297.088302 
L 202.702767 297.088302 
L 203.58498 296.137358 
L 207.113834 296.137358 
L 207.996047 295.186415 
L 208.878261 295.186415 
L 209.760474 294.235472 
L 211.524901 294.235472 
L 212.407115 293.284528 
L 215.053755 293.284528 
L 216.818182 291.382642 
L 217.700395 291.382642 
L 218.582609 290.431698 
L 225.640316 290.431698 
L 226.52253 288.529811 
L 227.404743 287.578868 
L 234.462451 287.578868 
L 235.344664 286.627925 
L 237.991304 286.627925 
L 238.873518 285.676981 
L 241.520158 285.676981 
L 242.402372 284.726038 
L 251.224506 284.726038 
L 252.106719 283.775094 
L 255.635573 283.775094 
L 256.517787 282.824151 
L 261.811067 282.824151 
L 262.693281 281.873208 
L 264.457708 281.873208 
L 265.339921 280.922264 
L 268.868775 280.922264 
L 270.633202 279.020377 
L 287.395257 279.020377 
L 288.27747 278.069434 
L 289.159684 278.069434 
L 290.041897 277.118491 
L 292.688538 277.118491 
L 293.570751 276.167547 
L 297.981818 276.167547 
L 298.864032 275.216604 
L 300.628458 275.216604 
L 301.510672 274.26566 
L 306.803953 274.26566 
L 307.686166 275.216604 
L 308.568379 274.26566 
L 314.743874 274.26566 
L 315.626087 273.314717 
L 322.683794 273.314717 
L 323.566008 272.363774 
L 325.330435 272.363774 
L 326.212648 271.41283 
L 327.094862 271.41283 
L 327.977075 270.461887 
L 334.152569 270.461887 
L 335.034783 269.510943 
L 340.328063 269.510943 
L 341.210277 268.56 
L 354.443478 268.56 
L 355.325692 267.609057 
L 374.734387 267.609057 
L 375.616601 266.658113 
L 384.438735 266.658113 
L 385.320949 265.70717 
L 399.436364 265.70717 
L 401.200791 263.805283 
L 417.080632 263.805283 
L 417.962846 262.85434 
L 418.845059 260.952453 
L 436.489328 260.952453 
L 437.371542 260.001509 
L 439.135968 260.001509 
L 440.018182 259.050566 
L 445.311462 259.050566 
L 446.193676 258.099623 
L 448.840316 258.099623 
L 450.604743 256.197736 
L 452.36917 256.197736 
L 453.251383 255.246792 
L 456.780237 255.246792 
L 457.662451 253.344906 
L 460.309091 253.344906 
L 461.191304 252.393962 
L 462.073518 252.393962 
L 463.837945 250.492075 
L 475.306719 250.492075 
L 476.188933 249.541132 
L 486.775494 249.541132 
L 487.657708 247.639245 
L 494.715415 247.639245 
L 496.479842 245.737358 
L 505.301976 245.737358 
L 507.948617 242.884528 
L 510.595257 242.884528 
L 511.47747 241.933585 
L 513.241897 241.933585 
L 514.124111 240.982642 
L 522.064032 240.982642 
L 522.946245 240.031698 
L 530.886166 240.031698 
L 531.768379 239.080755 
L 537.943874 239.080755 
L 539.7083 237.178868 
L 545.883794 237.178868 
L 546.766008 236.227925 
L 555.588142 236.227925 
L 556.470356 235.276981 
L 557.352569 235.276981 
L 558.234783 234.326038 
L 568.821344 234.326038 
L 569.703557 233.375094 
L 572.350198 233.375094 
L 573.232411 232.424151 
L 585.583399 232.424151 
L 586.465613 231.473208 
L 600.581028 231.473208 
L 601.463241 229.571321 
L 614.696443 229.571321 
L 615.578656 227.669434 
L 622.636364 227.669434 
L 622.636364 227.669434 
" clip-path="url(#pa9e4d13f98)" style="fill: none; stroke: #2ca02c; stroke-width: 1.5; stroke-linecap: square"/>
   </g>
   <g id="line2d_38">
    <path d="M 115.363636 369.36 
L 333.270356 369.36 
L 334.152569 368.409057 
L 521.181818 368.409057 
L 522.064032 367.458113 
L 622.636364 367.458113 
L 622.636364 367.458113 
" clip-path="url(#pa9e4d13f98)" style="fill: none; stroke: #d62728; stroke-width: 1.5; stroke-linecap: square"/>
   </g>
   <g id="line2d_39">
    <path d="M 115.363636 348.439245 
L 118.010277 348.439245 
L 118.89249 347.488302 
L 124.185771 347.488302 
L 125.067984 346.537358 
L 130.361265 346.537358 
L 131.243478 345.586415 
L 150.652174 345.586415 
L 151.534387 344.635472 
L 183.294071 344.635472 
L 185.058498 342.733585 
L 192.116206 342.733585 
L 192.998419 341.782642 
L 196.527273 341.782642 
L 197.409486 340.831698 
L 199.173913 340.831698 
L 200.056126 339.880755 
L 222.993676 339.880755 
L 223.875889 338.929811 
L 260.04664 338.929811 
L 260.928854 337.978868 
L 375.616601 337.978868 
L 376.498814 337.027925 
L 377.381028 337.027925 
L 378.263241 336.076981 
L 433.842688 336.076981 
L 434.724901 335.126038 
L 575.879051 335.126038 
L 576.761265 334.175094 
L 617.343083 334.175094 
L 618.225296 333.224151 
L 622.636364 333.224151 
L 622.636364 333.224151 
" clip-path="url(#pa9e4d13f98)" style="fill: none; stroke: #9467bd; stroke-width: 1.5; stroke-linecap: square"/>
   </g>
   <g id="line2d_40">
    <path d="M 115.363636 356.046792 
L 116.24585 356.046792 
L 117.128063 355.095849 
L 129.479051 355.095849 
L 130.361265 354.144906 
L 140.947826 354.144906 
L 141.83004 353.193962 
L 155.063241 353.193962 
L 156.827668 351.292075 
L 166.532016 351.292075 
L 167.414229 350.341132 
L 193.880632 350.341132 
L 194.762846 349.390189 
L 202.702767 349.390189 
L 203.58498 348.439245 
L 218.582609 348.439245 
L 219.464822 347.488302 
L 233.580237 347.488302 
L 234.462451 346.537358 
L 237.991304 346.537358 
L 238.873518 345.586415 
L 246.813439 345.586415 
L 247.695652 344.635472 
L 268.868775 344.635472 
L 269.750988 343.684528 
L 275.044269 343.684528 
L 275.926482 342.733585 
L 281.219763 342.733585 
L 282.101976 341.782642 
L 285.63083 341.782642 
L 286.513043 340.831698 
L 319.154941 340.831698 
L 320.037154 339.880755 
L 345.621344 339.880755 
L 346.503557 338.929811 
L 397.671937 338.929811 
L 398.55415 337.978868 
L 423.256126 337.978868 
L 424.13834 337.027925 
L 435.607115 337.027925 
L 436.489328 336.076981 
L 622.636364 336.076981 
L 622.636364 336.076981 
" clip-path="url(#pa9e4d13f98)" style="fill: none; stroke: #8c564b; stroke-width: 1.5; stroke-linecap: square"/>
   </g>
   <g id="line2d_41">
    <path d="M 115.363636 285.676981 
L 118.89249 285.676981 
L 119.774704 284.726038 
L 123.303557 284.726038 
L 125.067984 282.824151 
L 125.950198 282.824151 
L 126.832411 281.873208 
L 127.714625 281.873208 
L 128.596838 280.922264 
L 130.361265 280.922264 
L 131.243478 279.971321 
L 133.890119 279.971321 
L 134.772332 279.020377 
L 136.536759 279.020377 
L 137.418972 278.069434 
L 138.301186 278.069434 
L 139.183399 277.118491 
L 140.947826 277.118491 
L 142.712253 275.216604 
L 146.241107 275.216604 
L 147.12332 274.26566 
L 149.76996 274.26566 
L 151.534387 272.363774 
L 153.298814 272.363774 
L 154.181028 271.41283 
L 155.945455 271.41283 
L 156.827668 270.461887 
L 157.709881 268.56 
L 158.592095 265.70717 
L 160.356522 265.70717 
L 161.238735 264.756226 
L 165.649802 264.756226 
L 167.414229 262.85434 
L 168.296443 260.952453 
L 169.178656 260.001509 
L 170.06087 260.001509 
L 170.943083 258.099623 
L 174.471937 258.099623 
L 175.35415 257.148679 
L 176.236364 257.148679 
L 178.000791 255.246792 
L 178.883004 255.246792 
L 179.765217 254.295849 
L 180.647431 254.295849 
L 182.411858 252.393962 
L 184.176285 252.393962 
L 185.058498 250.492075 
L 188.587352 250.492075 
L 190.351779 248.590189 
L 192.116206 248.590189 
L 192.998419 247.639245 
L 193.880632 245.737358 
L 196.527273 245.737358 
L 197.409486 244.786415 
L 198.2917 244.786415 
L 199.173913 242.884528 
L 200.056126 242.884528 
L 200.93834 241.933585 
L 201.820553 241.933585 
L 202.702767 240.982642 
L 206.231621 240.982642 
L 207.996047 239.080755 
L 208.878261 239.080755 
L 209.760474 237.178868 
L 210.642688 237.178868 
L 211.524901 236.227925 
L 212.407115 236.227925 
L 213.289328 235.276981 
L 215.935968 235.276981 
L 216.818182 234.326038 
L 217.700395 234.326038 
L 221.229249 230.522264 
L 222.111462 228.620377 
L 223.875889 228.620377 
L 225.640316 224.816604 
L 227.404743 224.816604 
L 229.16917 222.914717 
L 230.051383 222.914717 
L 230.933597 221.01283 
L 231.81581 221.01283 
L 232.698024 220.061887 
L 233.580237 220.061887 
L 234.462451 219.110943 
L 236.226877 219.110943 
L 237.109091 218.16 
L 237.991304 218.16 
L 238.873518 217.209057 
L 242.402372 217.209057 
L 243.284585 212.45434 
L 244.166798 212.45434 
L 245.049012 211.503396 
L 247.695652 211.503396 
L 248.577866 210.552453 
L 256.517787 210.552453 
L 257.4 208.650566 
L 260.928854 208.650566 
L 261.811067 207.699623 
L 270.633202 207.699623 
L 271.515415 205.797736 
L 272.397628 204.846792 
L 276.808696 204.846792 
L 277.690909 203.895849 
L 283.866403 203.895849 
L 284.748617 202.944906 
L 285.63083 202.944906 
L 286.513043 201.993962 
L 291.806324 201.993962 
L 293.570751 200.092075 
L 299.746245 200.092075 
L 301.510672 198.190189 
L 302.392885 198.190189 
L 303.275099 197.239245 
L 308.568379 197.239245 
L 309.450593 196.288302 
L 312.097233 196.288302 
L 312.979447 195.337358 
L 313.86166 193.435472 
L 316.5083 193.435472 
L 317.390514 192.484528 
L 318.272727 192.484528 
L 320.037154 190.582642 
L 323.566008 190.582642 
L 324.448221 189.631698 
L 327.977075 189.631698 
L 328.859289 188.680755 
L 331.505929 188.680755 
L 332.388142 187.729811 
L 339.44585 187.729811 
L 341.210277 185.827925 
L 345.621344 185.827925 
L 346.503557 184.876981 
L 350.032411 184.876981 
L 354.443478 180.122264 
L 356.207905 180.122264 
L 357.090119 179.171321 
L 357.972332 179.171321 
L 358.854545 177.269434 
L 360.618972 175.367547 
L 362.383399 171.563774 
L 364.147826 171.563774 
L 365.912253 167.76 
L 367.67668 167.76 
L 368.558893 165.858113 
L 370.32332 163.956226 
L 372.96996 163.956226 
L 373.852174 163.005283 
L 374.734387 163.005283 
L 376.498814 161.103396 
L 380.027668 161.103396 
L 380.909881 160.152453 
L 382.674308 160.152453 
L 383.556522 159.201509 
L 387.967589 159.201509 
L 388.849802 157.299623 
L 389.732016 156.348679 
L 390.614229 156.348679 
L 391.496443 155.397736 
L 393.26087 155.397736 
L 394.143083 154.446792 
L 395.90751 154.446792 
L 396.789723 152.544906 
L 398.55415 152.544906 
L 399.436364 151.593962 
L 400.318577 151.593962 
L 401.200791 150.643019 
L 405.611858 150.643019 
L 406.494071 149.692075 
L 410.905138 149.692075 
L 411.787352 148.741132 
L 412.669565 148.741132 
L 413.551779 146.839245 
L 415.316206 144.937358 
L 416.198419 142.084528 
L 417.080632 141.133585 
L 417.962846 141.133585 
L 418.845059 140.182642 
L 419.727273 140.182642 
L 420.609486 139.231698 
L 424.13834 139.231698 
L 425.020553 138.280755 
L 426.78498 138.280755 
L 427.667194 137.329811 
L 429.431621 137.329811 
L 431.196047 135.427925 
L 433.842688 135.427925 
L 434.724901 134.476981 
L 439.135968 134.476981 
L 440.018182 132.575094 
L 444.429249 132.575094 
L 445.311462 131.624151 
L 447.958103 131.624151 
L 448.840316 129.722264 
L 452.36917 129.722264 
L 453.251383 128.771321 
L 461.191304 128.771321 
L 462.073518 127.820377 
L 463.837945 127.820377 
L 464.720158 126.869434 
L 470.895652 126.869434 
L 471.777866 125.918491 
L 472.660079 125.918491 
L 473.542292 124.967547 
L 474.424506 124.967547 
L 475.306719 124.016604 
L 480.6 124.016604 
L 482.364427 122.114717 
L 494.715415 122.114717 
L 495.597628 121.163774 
L 496.479842 121.163774 
L 498.244269 119.261887 
L 499.126482 119.261887 
L 500.008696 118.310943 
L 510.595257 118.310943 
L 511.47747 117.36 
L 512.359684 115.458113 
L 514.124111 115.458113 
L 515.006324 114.50717 
L 519.417391 114.50717 
L 520.299605 113.556226 
L 521.181818 113.556226 
L 522.946245 111.65434 
L 527.357312 111.65434 
L 528.239526 110.703396 
L 530.886166 110.703396 
L 531.768379 109.752453 
L 533.532806 109.752453 
L 534.41502 108.801509 
L 536.179447 108.801509 
L 537.06166 107.850566 
L 537.943874 107.850566 
L 538.826087 105.948679 
L 545.001581 105.948679 
L 545.883794 103.095849 
L 546.766008 101.193962 
L 547.648221 101.193962 
L 551.177075 97.390189 
L 552.059289 95.488302 
L 553.823715 95.488302 
L 554.705929 93.586415 
L 561.763636 93.586415 
L 563.528063 91.684528 
L 564.410277 89.782642 
L 565.29249 88.831698 
L 567.93913 88.831698 
L 568.821344 86.929811 
L 569.703557 85.978868 
L 570.585771 85.978868 
L 571.467984 83.126038 
L 572.350198 82.175094 
L 576.761265 82.175094 
L 577.643478 80.273208 
L 578.525692 80.273208 
L 579.407905 79.322264 
L 582.054545 79.322264 
L 582.936759 77.420377 
L 584.701186 77.420377 
L 585.583399 76.469434 
L 586.465613 76.469434 
L 587.347826 75.518491 
L 588.23004 72.66566 
L 589.994466 72.66566 
L 591.758893 70.763774 
L 602.345455 70.763774 
L 603.227668 69.81283 
L 604.109881 69.81283 
L 605.874308 67.910943 
L 612.049802 67.910943 
L 612.932016 66.96 
L 622.636364 66.96 
L 622.636364 66.96 
" clip-path="url(#pa9e4d13f98)" style="fill: none; stroke: #e377c2; stroke-width: 1.5; stroke-linecap: square"/>
   </g>
   <g id="line2d_42">
    <path d="M 115.363636 344.635472 
L 116.24585 344.635472 
L 118.010277 342.733585 
L 122.421344 342.733585 
L 123.303557 341.782642 
L 124.185771 341.782642 
L 125.950198 339.880755 
L 127.714625 339.880755 
L 128.596838 338.929811 
L 131.243478 338.929811 
L 132.125692 337.978868 
L 133.007905 337.978868 
L 133.890119 337.027925 
L 134.772332 337.027925 
L 136.536759 335.126038 
L 139.183399 335.126038 
L 140.065613 334.175094 
L 141.83004 334.175094 
L 143.594466 332.273208 
L 145.358893 332.273208 
L 147.12332 330.371321 
L 148.005534 330.371321 
L 148.887747 329.420377 
L 149.76996 326.567547 
L 153.298814 326.567547 
L 156.827668 322.763774 
L 157.709881 322.763774 
L 159.474308 320.861887 
L 160.356522 320.861887 
L 161.238735 319.910943 
L 162.120949 319.910943 
L 163.003162 318.96 
L 170.943083 318.96 
L 171.825296 318.009057 
L 180.647431 318.009057 
L 182.411858 316.10717 
L 185.058498 316.10717 
L 185.940711 315.156226 
L 187.705138 315.156226 
L 189.469565 313.25434 
L 191.233992 313.25434 
L 192.116206 311.352453 
L 194.762846 311.352453 
L 195.645059 309.450566 
L 196.527273 308.499623 
L 200.93834 308.499623 
L 201.820553 307.548679 
L 202.702767 307.548679 
L 204.467194 305.646792 
L 208.878261 305.646792 
L 209.760474 304.695849 
L 210.642688 304.695849 
L 211.524901 303.744906 
L 216.818182 303.744906 
L 217.700395 302.793962 
L 220.347036 302.793962 
L 221.229249 301.843019 
L 222.111462 301.843019 
L 222.993676 298.990189 
L 223.875889 298.990189 
L 224.758103 297.088302 
L 225.640316 296.137358 
L 226.52253 296.137358 
L 228.286957 294.235472 
L 230.051383 294.235472 
L 230.933597 293.284528 
L 232.698024 293.284528 
L 233.580237 292.333585 
L 234.462451 292.333585 
L 235.344664 290.431698 
L 236.226877 290.431698 
L 237.109091 289.480755 
L 238.873518 289.480755 
L 240.637945 287.578868 
L 241.520158 287.578868 
L 242.402372 285.676981 
L 243.284585 284.726038 
L 249.460079 284.726038 
L 250.342292 282.824151 
L 252.988933 282.824151 
L 253.871146 281.873208 
L 254.75336 281.873208 
L 255.635573 280.922264 
L 258.282213 280.922264 
L 259.164427 279.971321 
L 263.575494 279.971321 
L 264.457708 279.020377 
L 266.222134 279.020377 
L 267.104348 278.069434 
L 271.515415 278.069434 
L 272.397628 277.118491 
L 280.337549 277.118491 
L 282.101976 275.216604 
L 282.98419 275.216604 
L 283.866403 274.26566 
L 284.748617 274.26566 
L 285.63083 273.314717 
L 286.513043 273.314717 
L 287.395257 272.363774 
L 289.159684 272.363774 
L 290.041897 271.41283 
L 290.924111 271.41283 
L 292.688538 269.510943 
L 295.335178 269.510943 
L 296.217391 268.56 
L 298.864032 268.56 
L 299.746245 267.609057 
L 305.921739 267.609057 
L 306.803953 266.658113 
L 307.686166 266.658113 
L 308.568379 265.70717 
L 312.097233 265.70717 
L 312.979447 263.805283 
L 318.272727 263.805283 
L 319.154941 262.85434 
L 320.037154 262.85434 
L 320.919368 260.952453 
L 325.330435 260.952453 
L 326.212648 260.001509 
L 331.505929 260.001509 
L 332.388142 259.050566 
L 343.856917 259.050566 
L 344.73913 258.099623 
L 357.972332 258.099623 
L 358.854545 257.148679 
L 363.265613 257.148679 
L 364.147826 256.197736 
L 365.03004 256.197736 
L 365.912253 255.246792 
L 366.794466 255.246792 
L 367.67668 253.344906 
L 368.558893 253.344906 
L 370.32332 251.443019 
L 376.498814 251.443019 
L 377.381028 250.492075 
L 378.263241 250.492075 
L 379.145455 249.541132 
L 380.027668 249.541132 
L 380.909881 248.590189 
L 385.320949 248.590189 
L 386.203162 247.639245 
L 394.143083 247.639245 
L 395.025296 246.688302 
L 399.436364 246.688302 
L 400.318577 245.737358 
L 404.729644 245.737358 
L 405.611858 244.786415 
L 407.376285 244.786415 
L 410.022925 241.933585 
L 411.787352 241.933585 
L 412.669565 240.031698 
L 417.080632 240.031698 
L 418.845059 238.129811 
L 420.609486 238.129811 
L 421.4917 237.178868 
L 422.373913 237.178868 
L 424.13834 235.276981 
L 430.313834 235.276981 
L 431.196047 234.326038 
L 432.960474 234.326038 
L 433.842688 233.375094 
L 440.900395 233.375094 
L 442.664822 231.473208 
L 445.311462 231.473208 
L 446.193676 230.522264 
L 447.075889 230.522264 
L 447.958103 227.669434 
L 448.840316 226.718491 
L 452.36917 226.718491 
L 453.251383 224.816604 
L 455.898024 224.816604 
L 456.780237 223.86566 
L 465.602372 223.86566 
L 466.484585 222.914717 
L 475.306719 222.914717 
L 477.071146 221.01283 
L 483.24664 221.01283 
L 484.128854 220.061887 
L 499.126482 220.061887 
L 502.655336 216.258113 
L 506.18419 216.258113 
L 507.066403 215.30717 
L 514.124111 215.30717 
L 515.006324 214.356226 
L 517.652964 214.356226 
L 518.535178 213.405283 
L 519.417391 213.405283 
L 520.299605 212.45434 
L 525.592885 212.45434 
L 527.357312 210.552453 
L 529.121739 210.552453 
L 530.003953 209.601509 
L 534.41502 209.601509 
L 535.297233 208.650566 
L 536.179447 208.650566 
L 537.06166 206.748679 
L 546.766008 206.748679 
L 548.530435 204.846792 
L 551.177075 204.846792 
L 552.059289 203.895849 
L 556.470356 203.895849 
L 557.352569 202.944906 
L 563.528063 202.944906 
L 564.410277 201.993962 
L 578.525692 201.993962 
L 579.407905 201.043019 
L 580.290119 201.043019 
L 581.172332 199.141132 
L 612.049802 199.141132 
L 612.932016 197.239245 
L 616.46087 197.239245 
L 617.343083 196.288302 
L 619.989723 196.288302 
L 620.871937 195.337358 
L 622.636364 195.337358 
L 622.636364 195.337358 
" clip-path="url(#pa9e4d13f98)" style="fill: none; stroke: #7f7f7f; stroke-width: 1.5; stroke-linecap: square"/>
   </g>
   <g id="line2d_43">
    <path d="M 115.363636 350.341132 
L 118.89249 350.341132 
L 119.774704 349.390189 
L 128.596838 349.390189 
L 129.479051 348.439245 
L 133.890119 348.439245 
L 134.772332 347.488302 
L 143.594466 347.488302 
L 144.47668 346.537358 
L 153.298814 346.537358 
L 154.181028 345.586415 
L 201.820553 345.586415 
L 202.702767 344.635472 
L 207.113834 344.635472 
L 207.996047 343.684528 
L 214.171542 343.684528 
L 215.053755 342.733585 
L 215.935968 342.733585 
L 216.818182 339.880755 
L 217.700395 338.929811 
L 219.464822 338.929811 
L 220.347036 337.978868 
L 229.16917 337.978868 
L 230.051383 337.027925 
L 237.991304 337.027925 
L 238.873518 336.076981 
L 248.577866 336.076981 
L 249.460079 335.126038 
L 260.04664 335.126038 
L 260.928854 334.175094 
L 265.339921 334.175094 
L 266.222134 333.224151 
L 294.452964 333.224151 
L 295.335178 332.273208 
L 297.099605 332.273208 
L 297.981818 331.322264 
L 305.039526 331.322264 
L 305.921739 330.371321 
L 330.623715 330.371321 
L 333.270356 327.518491 
L 358.854545 327.518491 
L 359.736759 326.567547 
L 360.618972 326.567547 
L 362.383399 324.66566 
L 364.147826 324.66566 
L 365.03004 323.714717 
L 410.022925 323.714717 
L 410.905138 322.763774 
L 462.073518 322.763774 
L 462.955731 321.81283 
L 500.008696 321.81283 
L 500.890909 320.861887 
L 505.301976 320.861887 
L 506.18419 319.910943 
L 518.535178 319.910943 
L 519.417391 318.96 
L 537.06166 318.96 
L 537.943874 318.009057 
L 622.636364 318.009057 
L 622.636364 318.009057 
" clip-path="url(#pa9e4d13f98)" style="fill: none; stroke: #bcbd22; stroke-width: 1.5; stroke-linecap: square"/>
   </g>
   <g id="line2d_44">
    <path d="M 115.363636 367.458113 
L 159.474308 367.458113 
L 160.356522 366.50717 
L 215.935968 366.50717 
L 216.818182 365.556226 
L 306.803953 365.556226 
L 307.686166 364.605283 
L 308.568379 365.556226 
L 415.316206 365.556226 
L 416.198419 364.605283 
L 422.373913 364.605283 
L 423.256126 363.65434 
L 445.311462 363.65434 
L 446.193676 362.703396 
L 622.636364 362.703396 
L 622.636364 362.703396 
" clip-path="url(#pa9e4d13f98)" style="fill: none; stroke: #17becf; stroke-width: 1.5; stroke-linecap: square"/>
   </g>
   <g id="line2d_45">
    <path d="M 115.363636 369.36 
L 116.24585 368.409057 
L 118.010277 368.409057 
L 118.89249 367.458113 
L 125.067984 367.458113 
L 125.950198 366.50717 
L 128.596838 366.50717 
L 129.479051 365.556226 
L 130.361265 365.556226 
L 132.125692 363.65434 
L 136.536759 363.65434 
L 138.301186 361.752453 
L 139.183399 361.752453 
L 140.065613 360.801509 
L 146.241107 360.801509 
L 147.12332 359.850566 
L 148.005534 357.948679 
L 149.76996 357.948679 
L 150.652174 356.997736 
L 151.534387 356.997736 
L 152.416601 356.046792 
L 153.298814 356.046792 
L 154.181028 355.095849 
L 155.063241 355.095849 
L 156.827668 353.193962 
L 162.120949 353.193962 
L 163.885375 351.292075 
L 166.532016 351.292075 
L 167.414229 350.341132 
L 168.296443 350.341132 
L 169.178656 348.439245 
L 171.825296 348.439245 
L 173.589723 344.635472 
L 178.883004 344.635472 
L 179.765217 342.733585 
L 180.647431 341.782642 
L 183.294071 341.782642 
L 184.176285 340.831698 
L 185.058498 338.929811 
L 186.822925 338.929811 
L 187.705138 337.978868 
L 200.056126 337.978868 
L 200.93834 336.076981 
L 207.113834 329.420377 
L 215.935968 329.420377 
L 218.582609 326.567547 
L 220.347036 326.567547 
L 221.229249 324.66566 
L 222.993676 324.66566 
L 223.875889 323.714717 
L 226.52253 323.714717 
L 227.404743 322.763774 
L 228.286957 322.763774 
L 229.16917 321.81283 
L 230.051383 321.81283 
L 231.81581 319.910943 
L 243.284585 319.910943 
L 245.049012 318.009057 
L 252.106719 318.009057 
L 252.988933 317.058113 
L 255.635573 317.058113 
L 257.4 315.156226 
L 260.04664 315.156226 
L 260.928854 314.205283 
L 262.693281 314.205283 
L 263.575494 313.25434 
L 267.986561 313.25434 
L 268.868775 312.303396 
L 269.750988 312.303396 
L 270.633202 310.401509 
L 271.515415 310.401509 
L 272.397628 309.450566 
L 276.808696 309.450566 
L 277.690909 308.499623 
L 279.455336 308.499623 
L 280.337549 307.548679 
L 281.219763 307.548679 
L 282.98419 305.646792 
L 289.159684 305.646792 
L 290.041897 304.695849 
L 290.924111 304.695849 
L 291.806324 303.744906 
L 296.217391 303.744906 
L 297.099605 301.843019 
L 297.981818 300.892075 
L 302.392885 300.892075 
L 303.275099 299.941132 
L 306.803953 299.941132 
L 307.686166 298.039245 
L 311.21502 298.039245 
L 312.979447 296.137358 
L 315.626087 296.137358 
L 316.5083 295.186415 
L 327.094862 295.186415 
L 327.977075 293.284528 
L 328.859289 292.333585 
L 335.916996 292.333585 
L 336.799209 291.382642 
L 352.679051 291.382642 
L 353.561265 290.431698 
L 355.325692 290.431698 
L 356.207905 289.480755 
L 358.854545 289.480755 
L 359.736759 288.529811 
L 371.205534 288.529811 
L 372.087747 286.627925 
L 373.852174 286.627925 
L 374.734387 285.676981 
L 375.616601 285.676981 
L 376.498814 284.726038 
L 380.027668 284.726038 
L 380.909881 283.775094 
L 387.085375 283.775094 
L 387.967589 281.873208 
L 388.849802 281.873208 
L 389.732016 280.922264 
L 394.143083 280.922264 
L 395.025296 279.971321 
L 399.436364 279.971321 
L 401.200791 278.069434 
L 402.965217 278.069434 
L 403.847431 277.118491 
L 405.611858 277.118491 
L 406.494071 276.167547 
L 407.376285 276.167547 
L 408.258498 275.216604 
L 414.433992 275.216604 
L 415.316206 274.26566 
L 435.607115 274.26566 
L 436.489328 273.314717 
L 440.900395 273.314717 
L 441.782609 272.363774 
L 451.486957 272.363774 
L 452.36917 271.41283 
L 491.186561 271.41283 
L 492.068775 270.461887 
L 497.362055 270.461887 
L 498.244269 269.510943 
L 499.126482 269.510943 
L 500.008696 268.56 
L 511.47747 268.56 
L 512.359684 267.609057 
L 529.121739 267.609057 
L 530.003953 266.658113 
L 533.532806 266.658113 
L 534.41502 265.70717 
L 538.826087 265.70717 
L 539.7083 264.756226 
L 545.001581 264.756226 
L 545.883794 263.805283 
L 551.177075 263.805283 
L 552.059289 262.85434 
L 557.352569 262.85434 
L 558.234783 260.001509 
L 559.116996 259.050566 
L 565.29249 259.050566 
L 566.174704 258.099623 
L 570.585771 258.099623 
L 571.467984 257.148679 
L 575.879051 257.148679 
L 576.761265 256.197736 
L 582.054545 256.197736 
L 582.936759 255.246792 
L 597.052174 255.246792 
L 597.934387 253.344906 
L 598.816601 253.344906 
L 599.698814 252.393962 
L 600.581028 252.393962 
L 601.463241 251.443019 
L 602.345455 251.443019 
L 603.227668 250.492075 
L 616.46087 250.492075 
L 617.343083 249.541132 
L 621.75415 249.541132 
L 622.636364 248.590189 
L 622.636364 248.590189 
" clip-path="url(#pa9e4d13f98)" style="fill: none; stroke: #1f77b4; stroke-width: 1.5; stroke-linecap: square"/>
   </g>
   <g id="line2d_46">
    <path d="M 115.363636 334.175094 
L 121.53913 334.175094 
L 122.421344 333.224151 
L 125.067984 333.224151 
L 125.950198 332.273208 
L 129.479051 332.273208 
L 130.361265 331.322264 
L 133.007905 331.322264 
L 133.890119 330.371321 
L 134.772332 330.371321 
L 135.654545 329.420377 
L 138.301186 329.420377 
L 139.183399 328.469434 
L 140.947826 328.469434 
L 141.83004 327.518491 
L 142.712253 327.518491 
L 144.47668 325.616604 
L 149.76996 325.616604 
L 150.652174 324.66566 
L 151.534387 324.66566 
L 152.416601 323.714717 
L 153.298814 323.714717 
L 154.181028 321.81283 
L 155.063241 318.96 
L 155.945455 318.009057 
L 159.474308 318.009057 
L 162.120949 315.156226 
L 164.767589 315.156226 
L 166.532016 313.25434 
L 176.236364 313.25434 
L 177.118577 310.401509 
L 178.000791 310.401509 
L 179.765217 306.597736 
L 181.529644 304.695849 
L 182.411858 304.695849 
L 183.294071 302.793962 
L 190.351779 302.793962 
L 191.233992 300.892075 
L 193.880632 300.892075 
L 194.762846 299.941132 
L 200.93834 299.941132 
L 201.820553 298.990189 
L 212.407115 298.990189 
L 213.289328 298.039245 
L 214.171542 298.039245 
L 215.053755 297.088302 
L 217.700395 297.088302 
L 218.582609 296.137358 
L 229.16917 296.137358 
L 230.051383 295.186415 
L 231.81581 295.186415 
L 233.580237 291.382642 
L 235.344664 291.382642 
L 237.109091 289.480755 
L 238.873518 289.480755 
L 239.755731 288.529811 
L 242.402372 288.529811 
L 243.284585 287.578868 
L 253.871146 287.578868 
L 254.75336 286.627925 
L 267.986561 286.627925 
L 268.868775 285.676981 
L 276.808696 285.676981 
L 277.690909 284.726038 
L 279.455336 284.726038 
L 280.337549 283.775094 
L 282.98419 283.775094 
L 284.748617 281.873208 
L 285.63083 281.873208 
L 286.513043 280.922264 
L 290.041897 280.922264 
L 291.806324 279.020377 
L 296.217391 279.020377 
L 297.099605 278.069434 
L 299.746245 278.069434 
L 300.628458 277.118491 
L 305.039526 277.118491 
L 305.921739 276.167547 
L 310.332806 276.167547 
L 311.21502 275.216604 
L 327.094862 275.216604 
L 327.977075 274.26566 
L 328.859289 274.26566 
L 329.741502 273.314717 
L 338.563636 273.314717 
L 339.44585 271.41283 
L 340.328063 271.41283 
L 341.210277 270.461887 
L 350.032411 270.461887 
L 350.914625 269.510943 
L 354.443478 269.510943 
L 355.325692 268.56 
L 356.207905 268.56 
L 357.090119 267.609057 
L 365.03004 267.609057 
L 365.912253 266.658113 
L 383.556522 266.658113 
L 384.438735 263.805283 
L 390.614229 263.805283 
L 391.496443 262.85434 
L 393.26087 262.85434 
L 394.143083 261.903396 
L 404.729644 261.903396 
L 405.611858 260.952453 
L 417.962846 260.952453 
L 418.845059 260.001509 
L 421.4917 260.001509 
L 422.373913 259.050566 
L 429.431621 259.050566 
L 430.313834 257.148679 
L 444.429249 257.148679 
L 445.311462 256.197736 
L 449.72253 256.197736 
L 450.604743 255.246792 
L 463.837945 255.246792 
L 464.720158 254.295849 
L 466.484585 254.295849 
L 467.366798 253.344906 
L 476.188933 253.344906 
L 477.071146 252.393962 
L 486.775494 252.393962 
L 487.657708 251.443019 
L 499.126482 251.443019 
L 500.008696 250.492075 
L 510.595257 250.492075 
L 511.47747 249.541132 
L 517.652964 249.541132 
L 518.535178 248.590189 
L 527.357312 248.590189 
L 530.003953 245.737358 
L 531.768379 245.737358 
L 532.650593 244.786415 
L 533.532806 244.786415 
L 535.297233 242.884528 
L 538.826087 242.884528 
L 539.7083 241.933585 
L 541.472727 241.933585 
L 542.354941 240.031698 
L 543.237154 239.080755 
L 553.823715 239.080755 
L 554.705929 238.129811 
L 562.64585 238.129811 
L 563.528063 237.178868 
L 572.350198 237.178868 
L 573.232411 236.227925 
L 577.643478 236.227925 
L 578.525692 234.326038 
L 599.698814 234.326038 
L 600.581028 233.375094 
L 622.636364 233.375094 
L 622.636364 233.375094 
" clip-path="url(#pa9e4d13f98)" style="fill: none; stroke: #ff7f0e; stroke-width: 1.5; stroke-linecap: square"/>
   </g>
   <g id="patch_3">
    <path d="M 90 384.48 
L 90 51.84 
" style="fill: none; stroke: #000000; stroke-width: 0.8; stroke-linejoin: miter; stroke-linecap: square"/>
   </g>
   <g id="patch_4">
    <path d="M 648 384.48 
L 648 51.84 
" style="fill: none; stroke: #000000; stroke-width: 0.8; stroke-linejoin: miter; stroke-linecap: square"/>
   </g>
   <g id="patch_5">
    <path d="M 90 384.48 
L 648 384.48 
" style="fill: none; stroke: #000000; stroke-width: 0.8; stroke-linejoin: miter; stroke-linecap: square"/>
   </g>
   <g id="patch_6">
    <path d="M 90 51.84 
L 648 51.84 
" style="fill: none; stroke: #000000; stroke-width: 0.8; stroke-linejoin: miter; stroke-linecap: square"/>
   </g>
   <g id="text_20">
    <!-- Time Series of Votes for Each Keyword -->
    <g transform="translate(253.716563 45.84) scale(0.12 -0.12)">
     <defs>
      <path id="DejaVuSans-53" d="M 3425 4513 
L 3425 3897 
Q 3066 4069 2747 4153 
Q 2428 4238 2131 4238 
Q 1616 4238 1336 4038 
Q 1056 3838 1056 3469 
Q 1056 3159 1242 3001 
Q 1428 2844 1947 2747 
L 2328 2669 
Q 3034 2534 3370 2195 
Q 3706 1856 3706 1288 
Q 3706 609 3251 259 
Q 2797 -91 1919 -91 
Q 1588 -91 1214 -16 
Q 841 59 441 206 
L 441 856 
Q 825 641 1194 531 
Q 1563 422 1919 422 
Q 2459 422 2753 634 
Q 3047 847 3047 1241 
Q 3047 1584 2836 1778 
Q 2625 1972 2144 2069 
L 1759 2144 
Q 1053 2284 737 2584 
Q 422 2884 422 3419 
Q 422 4038 858 4394 
Q 1294 4750 2059 4750 
Q 2388 4750 2728 4690 
Q 3069 4631 3425 4513 
z
" transform="scale(0.015625)"/>
      <path id="DejaVuSans-72" d="M 2631 2963 
Q 2534 3019 2420 3045 
Q 2306 3072 2169 3072 
Q 1681 3072 1420 2755 
Q 1159 2438 1159 1844 
L 1159 0 
L 581 0 
L 581 3500 
L 1159 3500 
L 1159 2956 
Q 1341 3275 1631 3429 
Q 1922 3584 2338 3584 
Q 2397 3584 2469 3576 
Q 2541 3569 2628 3553 
L 2631 2963 
z
" transform="scale(0.015625)"/>
      <path id="DejaVuSans-66" d="M 2375 4863 
L 2375 4384 
L 1825 4384 
Q 1516 4384 1395 4259 
Q 1275 4134 1275 3809 
L 1275 3500 
L 2222 3500 
L 2222 3053 
L 1275 3053 
L 1275 0 
L 697 0 
L 697 3053 
L 147 3053 
L 147 3500 
L 697 3500 
L 697 3744 
Q 697 4328 969 4595 
Q 1241 4863 1831 4863 
L 2375 4863 
z
" transform="scale(0.015625)"/>
      <path id="DejaVuSans-45" d="M 628 4666 
L 3578 4666 
L 3578 4134 
L 1259 4134 
L 1259 2753 
L 3481 2753 
L 3481 2222 
L 1259 2222 
L 1259 531 
L 3634 531 
L 3634 0 
L 628 0 
L 628 4666 
z
" transform="scale(0.015625)"/>
      <path id="DejaVuSans-63" d="M 3122 3366 
L 3122 2828 
Q 2878 2963 2633 3030 
Q 2388 3097 2138 3097 
Q 1578 3097 1268 2742 
Q 959 2388 959 1747 
Q 959 1106 1268 751 
Q 1578 397 2138 397 
Q 2388 397 2633 464 
Q 2878 531 3122 666 
L 3122 134 
Q 2881 22 2623 -34 
Q 2366 -91 2075 -91 
Q 1284 -91 818 406 
Q 353 903 353 1747 
Q 353 2603 823 3093 
Q 1294 3584 2113 3584 
Q 2378 3584 2631 3529 
Q 2884 3475 3122 3366 
z
" transform="scale(0.015625)"/>
      <path id="DejaVuSans-68" d="M 3513 2113 
L 3513 0 
L 2938 0 
L 2938 2094 
Q 2938 2591 2744 2837 
Q 2550 3084 2163 3084 
Q 1697 3084 1428 2787 
Q 1159 2491 1159 1978 
L 1159 0 
L 581 0 
L 581 4863 
L 1159 4863 
L 1159 2956 
Q 1366 3272 1645 3428 
Q 1925 3584 2291 3584 
Q 2894 3584 3203 3211 
Q 3513 2838 3513 2113 
z
" transform="scale(0.015625)"/>
      <path id="DejaVuSans-4b" d="M 628 4666 
L 1259 4666 
L 1259 2694 
L 3353 4666 
L 4166 4666 
L 1850 2491 
L 4331 0 
L 3500 0 
L 1259 2247 
L 1259 0 
L 628 0 
L 628 4666 
z
" transform="scale(0.015625)"/>
      <path id="DejaVuSans-79" d="M 2059 -325 
Q 1816 -950 1584 -1140 
Q 1353 -1331 966 -1331 
L 506 -1331 
L 506 -850 
L 844 -850 
Q 1081 -850 1212 -737 
Q 1344 -625 1503 -206 
L 1606 56 
L 191 3500 
L 800 3500 
L 1894 763 
L 2988 3500 
L 3597 3500 
L 2059 -325 
z
" transform="scale(0.015625)"/>
      <path id="DejaVuSans-77" d="M 269 3500 
L 844 3500 
L 1563 769 
L 2278 3500 
L 2956 3500 
L 3675 769 
L 4391 3500 
L 4966 3500 
L 4050 0 
L 3372 0 
L 2619 2869 
L 1863 0 
L 1184 0 
L 269 3500 
z
" transform="scale(0.015625)"/>
     </defs>
     <use xlink:href="#DejaVuSans-54"/>
     <use xlink:href="#DejaVuSans-69" transform="translate(57.958984 0)"/>
     <use xlink:href="#DejaVuSans-6d" transform="translate(85.742188 0)"/>
     <use xlink:href="#DejaVuSans-65" transform="translate(183.154297 0)"/>
     <use xlink:href="#DejaVuSans-20" transform="translate(244.677734 0)"/>
     <use xlink:href="#DejaVuSans-53" transform="translate(276.464844 0)"/>
     <use xlink:href="#DejaVuSans-65" transform="translate(339.941406 0)"/>
     <use xlink:href="#DejaVuSans-72" transform="translate(401.464844 0)"/>
     <use xlink:href="#DejaVuSans-69" transform="translate(442.578125 0)"/>
     <use xlink:href="#DejaVuSans-65" transform="translate(470.361328 0)"/>
     <use xlink:href="#DejaVuSans-73" transform="translate(531.884766 0)"/>
     <use xlink:href="#DejaVuSans-20" transform="translate(583.984375 0)"/>
     <use xlink:href="#DejaVuSans-6f" transform="translate(615.771484 0)"/>
     <use xlink:href="#DejaVuSans-66" transform="translate(676.953125 0)"/>
     <use xlink:href="#DejaVuSans-20" transform="translate(712.158203 0)"/>
     <use xlink:href="#DejaVuSans-56" transform="translate(743.945312 0)"/>
     <use xlink:href="#DejaVuSans-6f" transform="translate(804.603516 0)"/>
     <use xlink:href="#DejaVuSans-74" transform="translate(865.785156 0)"/>
     <use xlink:href="#DejaVuSans-65" transform="translate(904.994141 0)"/>
     <use xlink:href="#DejaVuSans-73" transform="translate(966.517578 0)"/>
     <use xlink:href="#DejaVuSans-20" transform="translate(1018.617188 0)"/>
     <use xlink:href="#DejaVuSans-66" transform="translate(1050.404297 0)"/>
     <use xlink:href="#DejaVuSans-6f" transform="translate(1085.609375 0)"/>
     <use xlink:href="#DejaVuSans-72" transform="translate(1146.791016 0)"/>
     <use xlink:href="#DejaVuSans-20" transform="translate(1187.904297 0)"/>
     <use xlink:href="#DejaVuSans-45" transform="translate(1219.691406 0)"/>
     <use xlink:href="#DejaVuSans-61" transform="translate(1282.875 0)"/>
     <use xlink:href="#DejaVuSans-63" transform="translate(1344.154297 0)"/>
     <use xlink:href="#DejaVuSans-68" transform="translate(1399.134766 0)"/>
     <use xlink:href="#DejaVuSans-20" transform="translate(1462.513672 0)"/>
     <use xlink:href="#DejaVuSans-4b" transform="translate(1494.300781 0)"/>
     <use xlink:href="#DejaVuSans-65" transform="translate(1554.876953 0)"/>
     <use xlink:href="#DejaVuSans-79" transform="translate(1616.400391 0)"/>
     <use xlink:href="#DejaVuSans-77" transform="translate(1675.580078 0)"/>
     <use xlink:href="#DejaVuSans-6f" transform="translate(1757.367188 0)"/>
     <use xlink:href="#DejaVuSans-72" transform="translate(1818.548828 0)"/>
     <use xlink:href="#DejaVuSans-64" transform="translate(1857.912109 0)"/>
    </g>
   </g>
   <g id="legend_1">
    <g id="patch_7">
     <path d="M 97 235.9775 
L 149.245313 235.9775 
Q 151.245313 235.9775 151.245313 233.9775 
L 151.245313 58.84 
Q 151.245313 56.84 149.245313 56.84 
L 97 56.84 
Q 95 56.84 95 58.84 
L 95 233.9775 
Q 95 235.9775 97 235.9775 
z
" style="fill: #ffffff; opacity: 0.8; stroke: #cccccc; stroke-linejoin: miter"/>
    </g>
    <g id="line2d_47">
     <path d="M 99 64.938437 
L 109 64.938437 
L 119 64.938437 
" style="fill: none; stroke: #1f77b4; stroke-width: 1.5; stroke-linecap: square"/>
    </g>
    <g id="text_21">
     <!-- H01 -->
     <g transform="translate(127 68.438437) scale(0.1 -0.1)">
      <defs>
       <path id="DejaVuSans-48" d="M 628 4666 
L 1259 4666 
L 1259 2753 
L 3553 2753 
L 3553 4666 
L 4184 4666 
L 4184 0 
L 3553 0 
L 3553 2222 
L 1259 2222 
L 1259 0 
L 628 0 
L 628 4666 
z
" transform="scale(0.015625)"/>
      </defs>
      <use xlink:href="#DejaVuSans-48"/>
      <use xlink:href="#DejaVuSans-30" transform="translate(75.195312 0)"/>
      <use xlink:href="#DejaVuSans-31" transform="translate(138.818359 0)"/>
     </g>
    </g>
    <g id="line2d_48">
     <path d="M 99 79.616562 
L 109 79.616562 
L 119 79.616562 
" style="fill: none; stroke: #ff7f0e; stroke-width: 1.5; stroke-linecap: square"/>
    </g>
    <g id="text_22">
     <!-- H02 -->
     <g transform="translate(127 83.116562) scale(0.1 -0.1)">
      <use xlink:href="#DejaVuSans-48"/>
      <use xlink:href="#DejaVuSans-30" transform="translate(75.195312 0)"/>
      <use xlink:href="#DejaVuSans-32" transform="translate(138.818359 0)"/>
     </g>
    </g>
    <g id="line2d_49">
     <path d="M 99 94.294688 
L 109 94.294688 
L 119 94.294688 
" style="fill: none; stroke: #2ca02c; stroke-width: 1.5; stroke-linecap: square"/>
    </g>
    <g id="text_23">
     <!-- H03 -->
     <g transform="translate(127 97.794688) scale(0.1 -0.1)">
      <use xlink:href="#DejaVuSans-48"/>
      <use xlink:href="#DejaVuSans-30" transform="translate(75.195312 0)"/>
      <use xlink:href="#DejaVuSans-33" transform="translate(138.818359 0)"/>
     </g>
    </g>
    <g id="line2d_50">
     <path d="M 99 108.972812 
L 109 108.972812 
L 119 108.972812 
" style="fill: none; stroke: #d62728; stroke-width: 1.5; stroke-linecap: square"/>
    </g>
    <g id="text_24">
     <!-- H04 -->
     <g transform="translate(127 112.472812) scale(0.1 -0.1)">
      <use xlink:href="#DejaVuSans-48"/>
      <use xlink:href="#DejaVuSans-30" transform="translate(75.195312 0)"/>
      <use xlink:href="#DejaVuSans-34" transform="translate(138.818359 0)"/>
     </g>
    </g>
    <g id="line2d_51">
     <path d="M 99 123.650937 
L 109 123.650937 
L 119 123.650937 
" style="fill: none; stroke: #9467bd; stroke-width: 1.5; stroke-linecap: square"/>
    </g>
    <g id="text_25">
     <!-- H05 -->
     <g transform="translate(127 127.150937) scale(0.1 -0.1)">
      <use xlink:href="#DejaVuSans-48"/>
      <use xlink:href="#DejaVuSans-30" transform="translate(75.195312 0)"/>
      <use xlink:href="#DejaVuSans-35" transform="translate(138.818359 0)"/>
     </g>
    </g>
    <g id="line2d_52">
     <path d="M 99 138.329062 
L 109 138.329062 
L 119 138.329062 
" style="fill: none; stroke: #8c564b; stroke-width: 1.5; stroke-linecap: square"/>
    </g>
    <g id="text_26">
     <!-- H06 -->
     <g transform="translate(127 141.829062) scale(0.1 -0.1)">
      <use xlink:href="#DejaVuSans-48"/>
      <use xlink:href="#DejaVuSans-30" transform="translate(75.195312 0)"/>
      <use xlink:href="#DejaVuSans-36" transform="translate(138.818359 0)"/>
     </g>
    </g>
    <g id="line2d_53">
     <path d="M 99 153.007187 
L 109 153.007187 
L 119 153.007187 
" style="fill: none; stroke: #e377c2; stroke-width: 1.5; stroke-linecap: square"/>
    </g>
    <g id="text_27">
     <!-- H07 -->
     <g transform="translate(127 156.507187) scale(0.1 -0.1)">
      <use xlink:href="#DejaVuSans-48"/>
      <use xlink:href="#DejaVuSans-30" transform="translate(75.195312 0)"/>
      <use xlink:href="#DejaVuSans-37" transform="translate(138.818359 0)"/>
     </g>
    </g>
    <g id="line2d_54">
     <path d="M 99 167.685312 
L 109 167.685312 
L 119 167.685312 
" style="fill: none; stroke: #7f7f7f; stroke-width: 1.5; stroke-linecap: square"/>
    </g>
    <g id="text_28">
     <!-- H08 -->
     <g transform="translate(127 171.185312) scale(0.1 -0.1)">
      <use xlink:href="#DejaVuSans-48"/>
      <use xlink:href="#DejaVuSans-30" transform="translate(75.195312 0)"/>
      <use xlink:href="#DejaVuSans-38" transform="translate(138.818359 0)"/>
     </g>
    </g>
    <g id="line2d_55">
     <path d="M 99 182.363437 
L 109 182.363437 
L 119 182.363437 
" style="fill: none; stroke: #bcbd22; stroke-width: 1.5; stroke-linecap: square"/>
    </g>
    <g id="text_29">
     <!-- H09 -->
     <g transform="translate(127 185.863437) scale(0.1 -0.1)">
      <use xlink:href="#DejaVuSans-48"/>
      <use xlink:href="#DejaVuSans-30" transform="translate(75.195312 0)"/>
      <use xlink:href="#DejaVuSans-39" transform="translate(138.818359 0)"/>
     </g>
    </g>
    <g id="line2d_56">
     <path d="M 99 197.041562 
L 109 197.041562 
L 119 197.041562 
" style="fill: none; stroke: #17becf; stroke-width: 1.5; stroke-linecap: square"/>
    </g>
    <g id="text_30">
     <!-- H10 -->
     <g transform="translate(127 200.541562) scale(0.1 -0.1)">
      <use xlink:href="#DejaVuSans-48"/>
      <use xlink:href="#DejaVuSans-31" transform="translate(75.195312 0)"/>
      <use xlink:href="#DejaVuSans-30" transform="translate(138.818359 0)"/>
     </g>
    </g>
    <g id="line2d_57">
     <path d="M 99 211.719687 
L 109 211.719687 
L 119 211.719687 
" style="fill: none; stroke: #1f77b4; stroke-width: 1.5; stroke-linecap: square"/>
    </g>
    <g id="text_31">
     <!-- H11 -->
     <g transform="translate(127 215.219687) scale(0.1 -0.1)">
      <use xlink:href="#DejaVuSans-48"/>
      <use xlink:href="#DejaVuSans-31" transform="translate(75.195312 0)"/>
      <use xlink:href="#DejaVuSans-31" transform="translate(138.818359 0)"/>
     </g>
    </g>
    <g id="line2d_58">
     <path d="M 99 226.397812 
L 109 226.397812 
L 119 226.397812 
" style="fill: none; stroke: #ff7f0e; stroke-width: 1.5; stroke-linecap: square"/>
    </g>
    <g id="text_32">
     <!-- H12 -->
     <g transform="translate(127 229.897812) scale(0.1 -0.1)">
      <use xlink:href="#DejaVuSans-48"/>
      <use xlink:href="#DejaVuSans-31" transform="translate(75.195312 0)"/>
      <use xlink:href="#DejaVuSans-32" transform="translate(138.818359 0)"/>
     </g>
    </g>
   </g>
  </g>
 </g>
 <defs>
  <clipPath id="pa9e4d13f98">
   <rect x="90" y="51.84" width="558" height="332.64"/>
  </clipPath>
 </defs>
</svg>
