<?xml version="1.0" encoding="utf-8" standalone="no"?>
<!DOCTYPE svg PUBLIC "-//W3C//DTD SVG 1.1//EN"
  "http://www.w3.org/Graphics/SVG/1.1/DTD/svg11.dtd">
<svg xmlns:xlink="http://www.w3.org/1999/xlink" width="720pt" height="432pt" viewBox="0 0 720 432" xmlns="http://www.w3.org/2000/svg" version="1.1">
 <metadata>
  <rdf:RDF xmlns:dc="http://purl.org/dc/elements/1.1/" xmlns:cc="http://creativecommons.org/ns#" xmlns:rdf="http://www.w3.org/1999/02/22-rdf-syntax-ns#">
   <cc:Work>
    <dc:type rdf:resource="http://purl.org/dc/dcmitype/StillImage"/>
    <dc:date>2025-01-14T21:37:51.587576</dc:date>
    <dc:format>image/svg+xml</dc:format>
    <dc:creator>
     <cc:Agent>
      <dc:title>Matplotlib v3.10.0, https://matplotlib.org/</dc:title>
     </cc:Agent>
    </dc:creator>
   </cc:Work>
  </rdf:RDF>
 </metadata>
 <defs>
  <style type="text/css">*{stroke-linejoin: round; stroke-linecap: butt}</style>
 </defs>
 <g id="figure_1">
  <g id="patch_1">
   <path d="M 0 432 
L 720 432 
L 720 0 
L 0 0 
z
" style="fill: #ffffff"/>
  </g>
  <g id="axes_1">
   <g id="patch_2">
    <path d="M 90 384.48 
L 648 384.48 
L 648 51.84 
L 90 51.84 
z
" style="fill: #ffffff"/>
   </g>
   <g id="matplotlib.axis_1">
    <g id="xtick_1">
     <g id="line2d_1">
      <path d="M 143.661908 384.48 
L 143.661908 51.84 
" clip-path="url(#p661bebb623)" style="fill: none; stroke: #b0b0b0; stroke-width: 0.8; stroke-linecap: square"/>
     </g>
     <g id="line2d_2">
      <defs>
       <path id="m16ecd6a9d5" d="M 0 0 
L 0 3.5 
" style="stroke: #000000; stroke-width: 0.8"/>
      </defs>
      <g>
       <use xlink:href="#m16ecd6a9d5" x="143.661908" y="384.48" style="stroke: #000000; stroke-width: 0.8"/>
      </g>
     </g>
     <g id="text_1">
      <!-- 01-14 14 -->
      <g transform="translate(121.18144 399.078438) scale(0.1 -0.1)">
       <defs>
        <path id="DejaVuSans-30" d="M 2034 4250 
Q 1547 4250 1301 3770 
Q 1056 3291 1056 2328 
Q 1056 1369 1301 889 
Q 1547 409 2034 409 
Q 2525 409 2770 889 
Q 3016 1369 3016 2328 
Q 3016 3291 2770 3770 
Q 2525 4250 2034 4250 
z
M 2034 4750 
Q 2819 4750 3233 4129 
Q 3647 3509 3647 2328 
Q 3647 1150 3233 529 
Q 2819 -91 2034 -91 
Q 1250 -91 836 529 
Q 422 1150 422 2328 
Q 422 3509 836 4129 
Q 1250 4750 2034 4750 
z
" transform="scale(0.015625)"/>
        <path id="DejaVuSans-31" d="M 794 531 
L 1825 531 
L 1825 4091 
L 703 3866 
L 703 4441 
L 1819 4666 
L 2450 4666 
L 2450 531 
L 3481 531 
L 3481 0 
L 794 0 
L 794 531 
z
" transform="scale(0.015625)"/>
        <path id="DejaVuSans-2d" d="M 313 2009 
L 1997 2009 
L 1997 1497 
L 313 1497 
L 313 2009 
z
" transform="scale(0.015625)"/>
        <path id="DejaVuSans-34" d="M 2419 4116 
L 825 1625 
L 2419 1625 
L 2419 4116 
z
M 2253 4666 
L 3047 4666 
L 3047 1625 
L 3713 1625 
L 3713 1100 
L 3047 1100 
L 3047 0 
L 2419 0 
L 2419 1100 
L 313 1100 
L 313 1709 
L 2253 4666 
z
" transform="scale(0.015625)"/>
        <path id="DejaVuSans-20" transform="scale(0.015625)"/>
       </defs>
       <use xlink:href="#DejaVuSans-30"/>
       <use xlink:href="#DejaVuSans-31" transform="translate(63.623047 0)"/>
       <use xlink:href="#DejaVuSans-2d" transform="translate(127.246094 0)"/>
       <use xlink:href="#DejaVuSans-31" transform="translate(163.330078 0)"/>
       <use xlink:href="#DejaVuSans-34" transform="translate(226.953125 0)"/>
       <use xlink:href="#DejaVuSans-20" transform="translate(290.576172 0)"/>
       <use xlink:href="#DejaVuSans-31" transform="translate(322.363281 0)"/>
       <use xlink:href="#DejaVuSans-34" transform="translate(385.986328 0)"/>
      </g>
     </g>
    </g>
    <g id="xtick_2">
     <g id="line2d_3">
      <path d="M 206.546957 384.48 
L 206.546957 51.84 
" clip-path="url(#p661bebb623)" style="fill: none; stroke: #b0b0b0; stroke-width: 0.8; stroke-linecap: square"/>
     </g>
     <g id="line2d_4">
      <g>
       <use xlink:href="#m16ecd6a9d5" x="206.546957" y="384.48" style="stroke: #000000; stroke-width: 0.8"/>
      </g>
     </g>
     <g id="text_2">
      <!-- 01-14 15 -->
      <g transform="translate(184.066488 399.078438) scale(0.1 -0.1)">
       <defs>
        <path id="DejaVuSans-35" d="M 691 4666 
L 3169 4666 
L 3169 4134 
L 1269 4134 
L 1269 2991 
Q 1406 3038 1543 3061 
Q 1681 3084 1819 3084 
Q 2600 3084 3056 2656 
Q 3513 2228 3513 1497 
Q 3513 744 3044 326 
Q 2575 -91 1722 -91 
Q 1428 -91 1123 -41 
Q 819 9 494 109 
L 494 744 
Q 775 591 1075 516 
Q 1375 441 1709 441 
Q 2250 441 2565 725 
Q 2881 1009 2881 1497 
Q 2881 1984 2565 2268 
Q 2250 2553 1709 2553 
Q 1456 2553 1204 2497 
Q 953 2441 691 2322 
L 691 4666 
z
" transform="scale(0.015625)"/>
       </defs>
       <use xlink:href="#DejaVuSans-30"/>
       <use xlink:href="#DejaVuSans-31" transform="translate(63.623047 0)"/>
       <use xlink:href="#DejaVuSans-2d" transform="translate(127.246094 0)"/>
       <use xlink:href="#DejaVuSans-31" transform="translate(163.330078 0)"/>
       <use xlink:href="#DejaVuSans-34" transform="translate(226.953125 0)"/>
       <use xlink:href="#DejaVuSans-20" transform="translate(290.576172 0)"/>
       <use xlink:href="#DejaVuSans-31" transform="translate(322.363281 0)"/>
       <use xlink:href="#DejaVuSans-35" transform="translate(385.986328 0)"/>
      </g>
     </g>
    </g>
    <g id="xtick_3">
     <g id="line2d_5">
      <path d="M 269.432006 384.48 
L 269.432006 51.84 
" clip-path="url(#p661bebb623)" style="fill: none; stroke: #b0b0b0; stroke-width: 0.8; stroke-linecap: square"/>
     </g>
     <g id="line2d_6">
      <g>
       <use xlink:href="#m16ecd6a9d5" x="269.432006" y="384.48" style="stroke: #000000; stroke-width: 0.8"/>
      </g>
     </g>
     <g id="text_3">
      <!-- 01-14 16 -->
      <g transform="translate(246.951537 399.078438) scale(0.1 -0.1)">
       <defs>
        <path id="DejaVuSans-36" d="M 2113 2584 
Q 1688 2584 1439 2293 
Q 1191 2003 1191 1497 
Q 1191 994 1439 701 
Q 1688 409 2113 409 
Q 2538 409 2786 701 
Q 3034 994 3034 1497 
Q 3034 2003 2786 2293 
Q 2538 2584 2113 2584 
z
M 3366 4563 
L 3366 3988 
Q 3128 4100 2886 4159 
Q 2644 4219 2406 4219 
Q 1781 4219 1451 3797 
Q 1122 3375 1075 2522 
Q 1259 2794 1537 2939 
Q 1816 3084 2150 3084 
Q 2853 3084 3261 2657 
Q 3669 2231 3669 1497 
Q 3669 778 3244 343 
Q 2819 -91 2113 -91 
Q 1303 -91 875 529 
Q 447 1150 447 2328 
Q 447 3434 972 4092 
Q 1497 4750 2381 4750 
Q 2619 4750 2861 4703 
Q 3103 4656 3366 4563 
z
" transform="scale(0.015625)"/>
       </defs>
       <use xlink:href="#DejaVuSans-30"/>
       <use xlink:href="#DejaVuSans-31" transform="translate(63.623047 0)"/>
       <use xlink:href="#DejaVuSans-2d" transform="translate(127.246094 0)"/>
       <use xlink:href="#DejaVuSans-31" transform="translate(163.330078 0)"/>
       <use xlink:href="#DejaVuSans-34" transform="translate(226.953125 0)"/>
       <use xlink:href="#DejaVuSans-20" transform="translate(290.576172 0)"/>
       <use xlink:href="#DejaVuSans-31" transform="translate(322.363281 0)"/>
       <use xlink:href="#DejaVuSans-36" transform="translate(385.986328 0)"/>
      </g>
     </g>
    </g>
    <g id="xtick_4">
     <g id="line2d_7">
      <path d="M 332.317055 384.48 
L 332.317055 51.84 
" clip-path="url(#p661bebb623)" style="fill: none; stroke: #b0b0b0; stroke-width: 0.8; stroke-linecap: square"/>
     </g>
     <g id="line2d_8">
      <g>
       <use xlink:href="#m16ecd6a9d5" x="332.317055" y="384.48" style="stroke: #000000; stroke-width: 0.8"/>
      </g>
     </g>
     <g id="text_4">
      <!-- 01-14 17 -->
      <g transform="translate(309.836586 399.078438) scale(0.1 -0.1)">
       <defs>
        <path id="DejaVuSans-37" d="M 525 4666 
L 3525 4666 
L 3525 4397 
L 1831 0 
L 1172 0 
L 2766 4134 
L 525 4134 
L 525 4666 
z
" transform="scale(0.015625)"/>
       </defs>
       <use xlink:href="#DejaVuSans-30"/>
       <use xlink:href="#DejaVuSans-31" transform="translate(63.623047 0)"/>
       <use xlink:href="#DejaVuSans-2d" transform="translate(127.246094 0)"/>
       <use xlink:href="#DejaVuSans-31" transform="translate(163.330078 0)"/>
       <use xlink:href="#DejaVuSans-34" transform="translate(226.953125 0)"/>
       <use xlink:href="#DejaVuSans-20" transform="translate(290.576172 0)"/>
       <use xlink:href="#DejaVuSans-31" transform="translate(322.363281 0)"/>
       <use xlink:href="#DejaVuSans-37" transform="translate(385.986328 0)"/>
      </g>
     </g>
    </g>
    <g id="xtick_5">
     <g id="line2d_9">
      <path d="M 395.202104 384.48 
L 395.202104 51.84 
" clip-path="url(#p661bebb623)" style="fill: none; stroke: #b0b0b0; stroke-width: 0.8; stroke-linecap: square"/>
     </g>
     <g id="line2d_10">
      <g>
       <use xlink:href="#m16ecd6a9d5" x="395.202104" y="384.48" style="stroke: #000000; stroke-width: 0.8"/>
      </g>
     </g>
     <g id="text_5">
      <!-- 01-14 18 -->
      <g transform="translate(372.721635 399.078438) scale(0.1 -0.1)">
       <defs>
        <path id="DejaVuSans-38" d="M 2034 2216 
Q 1584 2216 1326 1975 
Q 1069 1734 1069 1313 
Q 1069 891 1326 650 
Q 1584 409 2034 409 
Q 2484 409 2743 651 
Q 3003 894 3003 1313 
Q 3003 1734 2745 1975 
Q 2488 2216 2034 2216 
z
M 1403 2484 
Q 997 2584 770 2862 
Q 544 3141 544 3541 
Q 544 4100 942 4425 
Q 1341 4750 2034 4750 
Q 2731 4750 3128 4425 
Q 3525 4100 3525 3541 
Q 3525 3141 3298 2862 
Q 3072 2584 2669 2484 
Q 3125 2378 3379 2068 
Q 3634 1759 3634 1313 
Q 3634 634 3220 271 
Q 2806 -91 2034 -91 
Q 1263 -91 848 271 
Q 434 634 434 1313 
Q 434 1759 690 2068 
Q 947 2378 1403 2484 
z
M 1172 3481 
Q 1172 3119 1398 2916 
Q 1625 2713 2034 2713 
Q 2441 2713 2670 2916 
Q 2900 3119 2900 3481 
Q 2900 3844 2670 4047 
Q 2441 4250 2034 4250 
Q 1625 4250 1398 4047 
Q 1172 3844 1172 3481 
z
" transform="scale(0.015625)"/>
       </defs>
       <use xlink:href="#DejaVuSans-30"/>
       <use xlink:href="#DejaVuSans-31" transform="translate(63.623047 0)"/>
       <use xlink:href="#DejaVuSans-2d" transform="translate(127.246094 0)"/>
       <use xlink:href="#DejaVuSans-31" transform="translate(163.330078 0)"/>
       <use xlink:href="#DejaVuSans-34" transform="translate(226.953125 0)"/>
       <use xlink:href="#DejaVuSans-20" transform="translate(290.576172 0)"/>
       <use xlink:href="#DejaVuSans-31" transform="translate(322.363281 0)"/>
       <use xlink:href="#DejaVuSans-38" transform="translate(385.986328 0)"/>
      </g>
     </g>
    </g>
    <g id="xtick_6">
     <g id="line2d_11">
      <path d="M 458.087153 384.48 
L 458.087153 51.84 
" clip-path="url(#p661bebb623)" style="fill: none; stroke: #b0b0b0; stroke-width: 0.8; stroke-linecap: square"/>
     </g>
     <g id="line2d_12">
      <g>
       <use xlink:href="#m16ecd6a9d5" x="458.087153" y="384.48" style="stroke: #000000; stroke-width: 0.8"/>
      </g>
     </g>
     <g id="text_6">
      <!-- 01-14 19 -->
      <g transform="translate(435.606684 399.078438) scale(0.1 -0.1)">
       <defs>
        <path id="DejaVuSans-39" d="M 703 97 
L 703 672 
Q 941 559 1184 500 
Q 1428 441 1663 441 
Q 2288 441 2617 861 
Q 2947 1281 2994 2138 
Q 2813 1869 2534 1725 
Q 2256 1581 1919 1581 
Q 1219 1581 811 2004 
Q 403 2428 403 3163 
Q 403 3881 828 4315 
Q 1253 4750 1959 4750 
Q 2769 4750 3195 4129 
Q 3622 3509 3622 2328 
Q 3622 1225 3098 567 
Q 2575 -91 1691 -91 
Q 1453 -91 1209 -44 
Q 966 3 703 97 
z
M 1959 2075 
Q 2384 2075 2632 2365 
Q 2881 2656 2881 3163 
Q 2881 3666 2632 3958 
Q 2384 4250 1959 4250 
Q 1534 4250 1286 3958 
Q 1038 3666 1038 3163 
Q 1038 2656 1286 2365 
Q 1534 2075 1959 2075 
z
" transform="scale(0.015625)"/>
       </defs>
       <use xlink:href="#DejaVuSans-30"/>
       <use xlink:href="#DejaVuSans-31" transform="translate(63.623047 0)"/>
       <use xlink:href="#DejaVuSans-2d" transform="translate(127.246094 0)"/>
       <use xlink:href="#DejaVuSans-31" transform="translate(163.330078 0)"/>
       <use xlink:href="#DejaVuSans-34" transform="translate(226.953125 0)"/>
       <use xlink:href="#DejaVuSans-20" transform="translate(290.576172 0)"/>
       <use xlink:href="#DejaVuSans-31" transform="translate(322.363281 0)"/>
       <use xlink:href="#DejaVuSans-39" transform="translate(385.986328 0)"/>
      </g>
     </g>
    </g>
    <g id="xtick_7">
     <g id="line2d_13">
      <path d="M 520.972201 384.48 
L 520.972201 51.84 
" clip-path="url(#p661bebb623)" style="fill: none; stroke: #b0b0b0; stroke-width: 0.8; stroke-linecap: square"/>
     </g>
     <g id="line2d_14">
      <g>
       <use xlink:href="#m16ecd6a9d5" x="520.972201" y="384.48" style="stroke: #000000; stroke-width: 0.8"/>
      </g>
     </g>
     <g id="text_7">
      <!-- 01-14 20 -->
      <g transform="translate(498.491733 399.078438) scale(0.1 -0.1)">
       <defs>
        <path id="DejaVuSans-32" d="M 1228 531 
L 3431 531 
L 3431 0 
L 469 0 
L 469 531 
Q 828 903 1448 1529 
Q 2069 2156 2228 2338 
Q 2531 2678 2651 2914 
Q 2772 3150 2772 3378 
Q 2772 3750 2511 3984 
Q 2250 4219 1831 4219 
Q 1534 4219 1204 4116 
Q 875 4013 500 3803 
L 500 4441 
Q 881 4594 1212 4672 
Q 1544 4750 1819 4750 
Q 2544 4750 2975 4387 
Q 3406 4025 3406 3419 
Q 3406 3131 3298 2873 
Q 3191 2616 2906 2266 
Q 2828 2175 2409 1742 
Q 1991 1309 1228 531 
z
" transform="scale(0.015625)"/>
       </defs>
       <use xlink:href="#DejaVuSans-30"/>
       <use xlink:href="#DejaVuSans-31" transform="translate(63.623047 0)"/>
       <use xlink:href="#DejaVuSans-2d" transform="translate(127.246094 0)"/>
       <use xlink:href="#DejaVuSans-31" transform="translate(163.330078 0)"/>
       <use xlink:href="#DejaVuSans-34" transform="translate(226.953125 0)"/>
       <use xlink:href="#DejaVuSans-20" transform="translate(290.576172 0)"/>
       <use xlink:href="#DejaVuSans-32" transform="translate(322.363281 0)"/>
       <use xlink:href="#DejaVuSans-30" transform="translate(385.986328 0)"/>
      </g>
     </g>
    </g>
    <g id="xtick_8">
     <g id="line2d_15">
      <path d="M 583.85725 384.48 
L 583.85725 51.84 
" clip-path="url(#p661bebb623)" style="fill: none; stroke: #b0b0b0; stroke-width: 0.8; stroke-linecap: square"/>
     </g>
     <g id="line2d_16">
      <g>
       <use xlink:href="#m16ecd6a9d5" x="583.85725" y="384.48" style="stroke: #000000; stroke-width: 0.8"/>
      </g>
     </g>
     <g id="text_8">
      <!-- 01-14 21 -->
      <g transform="translate(561.376781 399.078438) scale(0.1 -0.1)">
       <use xlink:href="#DejaVuSans-30"/>
       <use xlink:href="#DejaVuSans-31" transform="translate(63.623047 0)"/>
       <use xlink:href="#DejaVuSans-2d" transform="translate(127.246094 0)"/>
       <use xlink:href="#DejaVuSans-31" transform="translate(163.330078 0)"/>
       <use xlink:href="#DejaVuSans-34" transform="translate(226.953125 0)"/>
       <use xlink:href="#DejaVuSans-20" transform="translate(290.576172 0)"/>
       <use xlink:href="#DejaVuSans-32" transform="translate(322.363281 0)"/>
       <use xlink:href="#DejaVuSans-31" transform="translate(385.986328 0)"/>
      </g>
     </g>
    </g>
    <g id="xtick_9">
     <g id="line2d_17">
      <path d="M 646.742299 384.48 
L 646.742299 51.84 
" clip-path="url(#p661bebb623)" style="fill: none; stroke: #b0b0b0; stroke-width: 0.8; stroke-linecap: square"/>
     </g>
     <g id="line2d_18">
      <g>
       <use xlink:href="#m16ecd6a9d5" x="646.742299" y="384.48" style="stroke: #000000; stroke-width: 0.8"/>
      </g>
     </g>
     <g id="text_9">
      <!-- 01-14 22 -->
      <g transform="translate(624.26183 399.078438) scale(0.1 -0.1)">
       <use xlink:href="#DejaVuSans-30"/>
       <use xlink:href="#DejaVuSans-31" transform="translate(63.623047 0)"/>
       <use xlink:href="#DejaVuSans-2d" transform="translate(127.246094 0)"/>
       <use xlink:href="#DejaVuSans-31" transform="translate(163.330078 0)"/>
       <use xlink:href="#DejaVuSans-34" transform="translate(226.953125 0)"/>
       <use xlink:href="#DejaVuSans-20" transform="translate(290.576172 0)"/>
       <use xlink:href="#DejaVuSans-32" transform="translate(322.363281 0)"/>
       <use xlink:href="#DejaVuSans-32" transform="translate(385.986328 0)"/>
      </g>
     </g>
    </g>
    <g id="text_10">
     <!-- Date and Time -->
     <g transform="translate(332.230469 412.756563) scale(0.1 -0.1)">
      <defs>
       <path id="DejaVuSans-44" d="M 1259 4147 
L 1259 519 
L 2022 519 
Q 2988 519 3436 956 
Q 3884 1394 3884 2338 
Q 3884 3275 3436 3711 
Q 2988 4147 2022 4147 
L 1259 4147 
z
M 628 4666 
L 1925 4666 
Q 3281 4666 3915 4102 
Q 4550 3538 4550 2338 
Q 4550 1131 3912 565 
Q 3275 0 1925 0 
L 628 0 
L 628 4666 
z
" transform="scale(0.015625)"/>
       <path id="DejaVuSans-61" d="M 2194 1759 
Q 1497 1759 1228 1600 
Q 959 1441 959 1056 
Q 959 750 1161 570 
Q 1363 391 1709 391 
Q 2188 391 2477 730 
Q 2766 1069 2766 1631 
L 2766 1759 
L 2194 1759 
z
M 3341 1997 
L 3341 0 
L 2766 0 
L 2766 531 
Q 2569 213 2275 61 
Q 1981 -91 1556 -91 
Q 1019 -91 701 211 
Q 384 513 384 1019 
Q 384 1609 779 1909 
Q 1175 2209 1959 2209 
L 2766 2209 
L 2766 2266 
Q 2766 2663 2505 2880 
Q 2244 3097 1772 3097 
Q 1472 3097 1187 3025 
Q 903 2953 641 2809 
L 641 3341 
Q 956 3463 1253 3523 
Q 1550 3584 1831 3584 
Q 2591 3584 2966 3190 
Q 3341 2797 3341 1997 
z
" transform="scale(0.015625)"/>
       <path id="DejaVuSans-74" d="M 1172 4494 
L 1172 3500 
L 2356 3500 
L 2356 3053 
L 1172 3053 
L 1172 1153 
Q 1172 725 1289 603 
Q 1406 481 1766 481 
L 2356 481 
L 2356 0 
L 1766 0 
Q 1100 0 847 248 
Q 594 497 594 1153 
L 594 3053 
L 172 3053 
L 172 3500 
L 594 3500 
L 594 4494 
L 1172 4494 
z
" transform="scale(0.015625)"/>
       <path id="DejaVuSans-65" d="M 3597 1894 
L 3597 1613 
L 953 1613 
Q 991 1019 1311 708 
Q 1631 397 2203 397 
Q 2534 397 2845 478 
Q 3156 559 3463 722 
L 3463 178 
Q 3153 47 2828 -22 
Q 2503 -91 2169 -91 
Q 1331 -91 842 396 
Q 353 884 353 1716 
Q 353 2575 817 3079 
Q 1281 3584 2069 3584 
Q 2775 3584 3186 3129 
Q 3597 2675 3597 1894 
z
M 3022 2063 
Q 3016 2534 2758 2815 
Q 2500 3097 2075 3097 
Q 1594 3097 1305 2825 
Q 1016 2553 972 2059 
L 3022 2063 
z
" transform="scale(0.015625)"/>
       <path id="DejaVuSans-6e" d="M 3513 2113 
L 3513 0 
L 2938 0 
L 2938 2094 
Q 2938 2591 2744 2837 
Q 2550 3084 2163 3084 
Q 1697 3084 1428 2787 
Q 1159 2491 1159 1978 
L 1159 0 
L 581 0 
L 581 3500 
L 1159 3500 
L 1159 2956 
Q 1366 3272 1645 3428 
Q 1925 3584 2291 3584 
Q 2894 3584 3203 3211 
Q 3513 2838 3513 2113 
z
" transform="scale(0.015625)"/>
       <path id="DejaVuSans-64" d="M 2906 2969 
L 2906 4863 
L 3481 4863 
L 3481 0 
L 2906 0 
L 2906 525 
Q 2725 213 2448 61 
Q 2172 -91 1784 -91 
Q 1150 -91 751 415 
Q 353 922 353 1747 
Q 353 2572 751 3078 
Q 1150 3584 1784 3584 
Q 2172 3584 2448 3432 
Q 2725 3281 2906 2969 
z
M 947 1747 
Q 947 1113 1208 752 
Q 1469 391 1925 391 
Q 2381 391 2643 752 
Q 2906 1113 2906 1747 
Q 2906 2381 2643 2742 
Q 2381 3103 1925 3103 
Q 1469 3103 1208 2742 
Q 947 2381 947 1747 
z
" transform="scale(0.015625)"/>
       <path id="DejaVuSans-54" d="M -19 4666 
L 3928 4666 
L 3928 4134 
L 2272 4134 
L 2272 0 
L 1638 0 
L 1638 4134 
L -19 4134 
L -19 4666 
z
" transform="scale(0.015625)"/>
       <path id="DejaVuSans-69" d="M 603 3500 
L 1178 3500 
L 1178 0 
L 603 0 
L 603 3500 
z
M 603 4863 
L 1178 4863 
L 1178 4134 
L 603 4134 
L 603 4863 
z
" transform="scale(0.015625)"/>
       <path id="DejaVuSans-6d" d="M 3328 2828 
Q 3544 3216 3844 3400 
Q 4144 3584 4550 3584 
Q 5097 3584 5394 3201 
Q 5691 2819 5691 2113 
L 5691 0 
L 5113 0 
L 5113 2094 
Q 5113 2597 4934 2840 
Q 4756 3084 4391 3084 
Q 3944 3084 3684 2787 
Q 3425 2491 3425 1978 
L 3425 0 
L 2847 0 
L 2847 2094 
Q 2847 2600 2669 2842 
Q 2491 3084 2119 3084 
Q 1678 3084 1418 2786 
Q 1159 2488 1159 1978 
L 1159 0 
L 581 0 
L 581 3500 
L 1159 3500 
L 1159 2956 
Q 1356 3278 1631 3431 
Q 1906 3584 2284 3584 
Q 2666 3584 2933 3390 
Q 3200 3197 3328 2828 
z
" transform="scale(0.015625)"/>
      </defs>
      <use xlink:href="#DejaVuSans-44"/>
      <use xlink:href="#DejaVuSans-61" transform="translate(77.001953 0)"/>
      <use xlink:href="#DejaVuSans-74" transform="translate(138.28125 0)"/>
      <use xlink:href="#DejaVuSans-65" transform="translate(177.490234 0)"/>
      <use xlink:href="#DejaVuSans-20" transform="translate(239.013672 0)"/>
      <use xlink:href="#DejaVuSans-61" transform="translate(270.800781 0)"/>
      <use xlink:href="#DejaVuSans-6e" transform="translate(332.080078 0)"/>
      <use xlink:href="#DejaVuSans-64" transform="translate(395.458984 0)"/>
      <use xlink:href="#DejaVuSans-20" transform="translate(458.935547 0)"/>
      <use xlink:href="#DejaVuSans-54" transform="translate(490.722656 0)"/>
      <use xlink:href="#DejaVuSans-69" transform="translate(548.681641 0)"/>
      <use xlink:href="#DejaVuSans-6d" transform="translate(576.464844 0)"/>
      <use xlink:href="#DejaVuSans-65" transform="translate(673.876953 0)"/>
     </g>
    </g>
   </g>
   <g id="matplotlib.axis_2">
    <g id="ytick_1">
     <g id="line2d_19">
      <path d="M 90 370.451697 
L 648 370.451697 
" clip-path="url(#p661bebb623)" style="fill: none; stroke: #b0b0b0; stroke-width: 0.8; stroke-linecap: square"/>
     </g>
     <g id="line2d_20">
      <defs>
       <path id="mbd607b9970" d="M 0 0 
L -3.5 0 
" style="stroke: #000000; stroke-width: 0.8"/>
      </defs>
      <g>
       <use xlink:href="#mbd607b9970" x="90" y="370.451697" style="stroke: #000000; stroke-width: 0.8"/>
      </g>
     </g>
     <g id="text_11">
      <!-- 0 -->
      <g transform="translate(76.6375 374.250916) scale(0.1 -0.1)">
       <use xlink:href="#DejaVuSans-30"/>
      </g>
     </g>
    </g>
    <g id="ytick_2">
     <g id="line2d_21">
      <path d="M 90 315.866859 
L 648 315.866859 
" clip-path="url(#p661bebb623)" style="fill: none; stroke: #b0b0b0; stroke-width: 0.8; stroke-linecap: square"/>
     </g>
     <g id="line2d_22">
      <g>
       <use xlink:href="#mbd607b9970" x="90" y="315.866859" style="stroke: #000000; stroke-width: 0.8"/>
      </g>
     </g>
     <g id="text_12">
      <!-- 50 -->
      <g transform="translate(70.275 319.666078) scale(0.1 -0.1)">
       <use xlink:href="#DejaVuSans-35"/>
       <use xlink:href="#DejaVuSans-30" transform="translate(63.623047 0)"/>
      </g>
     </g>
    </g>
    <g id="ytick_3">
     <g id="line2d_23">
      <path d="M 90 261.282022 
L 648 261.282022 
" clip-path="url(#p661bebb623)" style="fill: none; stroke: #b0b0b0; stroke-width: 0.8; stroke-linecap: square"/>
     </g>
     <g id="line2d_24">
      <g>
       <use xlink:href="#mbd607b9970" x="90" y="261.282022" style="stroke: #000000; stroke-width: 0.8"/>
      </g>
     </g>
     <g id="text_13">
      <!-- 100 -->
      <g transform="translate(63.9125 265.08124) scale(0.1 -0.1)">
       <use xlink:href="#DejaVuSans-31"/>
       <use xlink:href="#DejaVuSans-30" transform="translate(63.623047 0)"/>
       <use xlink:href="#DejaVuSans-30" transform="translate(127.246094 0)"/>
      </g>
     </g>
    </g>
    <g id="ytick_4">
     <g id="line2d_25">
      <path d="M 90 206.697184 
L 648 206.697184 
" clip-path="url(#p661bebb623)" style="fill: none; stroke: #b0b0b0; stroke-width: 0.8; stroke-linecap: square"/>
     </g>
     <g id="line2d_26">
      <g>
       <use xlink:href="#mbd607b9970" x="90" y="206.697184" style="stroke: #000000; stroke-width: 0.8"/>
      </g>
     </g>
     <g id="text_14">
      <!-- 150 -->
      <g transform="translate(63.9125 210.496403) scale(0.1 -0.1)">
       <use xlink:href="#DejaVuSans-31"/>
       <use xlink:href="#DejaVuSans-35" transform="translate(63.623047 0)"/>
       <use xlink:href="#DejaVuSans-30" transform="translate(127.246094 0)"/>
      </g>
     </g>
    </g>
    <g id="ytick_5">
     <g id="line2d_27">
      <path d="M 90 152.112347 
L 648 152.112347 
" clip-path="url(#p661bebb623)" style="fill: none; stroke: #b0b0b0; stroke-width: 0.8; stroke-linecap: square"/>
     </g>
     <g id="line2d_28">
      <g>
       <use xlink:href="#mbd607b9970" x="90" y="152.112347" style="stroke: #000000; stroke-width: 0.8"/>
      </g>
     </g>
     <g id="text_15">
      <!-- 200 -->
      <g transform="translate(63.9125 155.911565) scale(0.1 -0.1)">
       <use xlink:href="#DejaVuSans-32"/>
       <use xlink:href="#DejaVuSans-30" transform="translate(63.623047 0)"/>
       <use xlink:href="#DejaVuSans-30" transform="translate(127.246094 0)"/>
      </g>
     </g>
    </g>
    <g id="ytick_6">
     <g id="line2d_29">
      <path d="M 90 97.527509 
L 648 97.527509 
" clip-path="url(#p661bebb623)" style="fill: none; stroke: #b0b0b0; stroke-width: 0.8; stroke-linecap: square"/>
     </g>
     <g id="line2d_30">
      <g>
       <use xlink:href="#mbd607b9970" x="90" y="97.527509" style="stroke: #000000; stroke-width: 0.8"/>
      </g>
     </g>
     <g id="text_16">
      <!-- 250 -->
      <g transform="translate(63.9125 101.326728) scale(0.1 -0.1)">
       <use xlink:href="#DejaVuSans-32"/>
       <use xlink:href="#DejaVuSans-35" transform="translate(63.623047 0)"/>
       <use xlink:href="#DejaVuSans-30" transform="translate(127.246094 0)"/>
      </g>
     </g>
    </g>
    <g id="text_17">
     <!-- Votes -->
     <g transform="translate(57.832812 231.893594) rotate(-90) scale(0.1 -0.1)">
      <defs>
       <path id="DejaVuSans-56" d="M 1831 0 
L 50 4666 
L 709 4666 
L 2188 738 
L 3669 4666 
L 4325 4666 
L 2547 0 
L 1831 0 
z
" transform="scale(0.015625)"/>
       <path id="DejaVuSans-6f" d="M 1959 3097 
Q 1497 3097 1228 2736 
Q 959 2375 959 1747 
Q 959 1119 1226 758 
Q 1494 397 1959 397 
Q 2419 397 2687 759 
Q 2956 1122 2956 1747 
Q 2956 2369 2687 2733 
Q 2419 3097 1959 3097 
z
M 1959 3584 
Q 2709 3584 3137 3096 
Q 3566 2609 3566 1747 
Q 3566 888 3137 398 
Q 2709 -91 1959 -91 
Q 1206 -91 779 398 
Q 353 888 353 1747 
Q 353 2609 779 3096 
Q 1206 3584 1959 3584 
z
" transform="scale(0.015625)"/>
       <path id="DejaVuSans-73" d="M 2834 3397 
L 2834 2853 
Q 2591 2978 2328 3040 
Q 2066 3103 1784 3103 
Q 1356 3103 1142 2972 
Q 928 2841 928 2578 
Q 928 2378 1081 2264 
Q 1234 2150 1697 2047 
L 1894 2003 
Q 2506 1872 2764 1633 
Q 3022 1394 3022 966 
Q 3022 478 2636 193 
Q 2250 -91 1575 -91 
Q 1294 -91 989 -36 
Q 684 19 347 128 
L 347 722 
Q 666 556 975 473 
Q 1284 391 1588 391 
Q 1994 391 2212 530 
Q 2431 669 2431 922 
Q 2431 1156 2273 1281 
Q 2116 1406 1581 1522 
L 1381 1569 
Q 847 1681 609 1914 
Q 372 2147 372 2553 
Q 372 3047 722 3315 
Q 1072 3584 1716 3584 
Q 2034 3584 2315 3537 
Q 2597 3491 2834 3397 
z
" transform="scale(0.015625)"/>
      </defs>
      <use xlink:href="#DejaVuSans-56"/>
      <use xlink:href="#DejaVuSans-6f" transform="translate(60.658203 0)"/>
      <use xlink:href="#DejaVuSans-74" transform="translate(121.839844 0)"/>
      <use xlink:href="#DejaVuSans-65" transform="translate(161.048828 0)"/>
      <use xlink:href="#DejaVuSans-73" transform="translate(222.572266 0)"/>
     </g>
    </g>
   </g>
   <g id="line2d_31">
    <path d="M 115.363636 350.801155 
L 125.844478 350.801155 
L 126.892562 349.709458 
L 137.373403 349.709458 
L 138.421488 347.526065 
L 147.854245 347.526065 
L 148.902329 346.434368 
L 154.14275 346.434368 
L 155.190834 345.342671 
L 159.383171 345.342671 
L 160.431255 344.250975 
L 163.575507 344.250975 
L 164.623591 343.159278 
L 179.296769 343.159278 
L 180.344853 342.067581 
L 191.873779 342.067581 
L 193.969947 339.884188 
L 196.066116 339.884188 
L 197.1142 338.792491 
L 206.546957 338.792491 
L 208.643125 336.609097 
L 221.220135 336.609097 
L 222.268219 335.517401 
L 225.412472 335.517401 
L 226.460556 334.425704 
L 227.50864 334.425704 
L 228.556724 333.334007 
L 256.854996 333.334007 
L 257.90308 332.24231 
L 270.48009 332.24231 
L 271.528174 331.150614 
L 278.864763 331.150614 
L 279.912847 330.058917 
L 280.960932 327.875523 
L 282.009016 327.875523 
L 284.105184 325.69213 
L 300.87453 325.69213 
L 301.922615 324.600433 
L 308.211119 324.600433 
L 309.259204 323.508736 
L 313.45154 323.508736 
L 314.499624 322.41704 
L 324.980466 322.41704 
L 326.02855 321.325343 
L 328.124718 321.325343 
L 329.172802 320.233646 
L 332.317055 320.233646 
L 333.365139 319.141949 
L 341.749812 319.141949 
L 342.797896 318.050253 
L 343.84598 318.050253 
L 344.894065 316.958556 
L 355.374906 316.958556 
L 356.42299 315.866859 
L 363.759579 315.866859 
L 364.807663 314.775162 
L 365.855748 314.775162 
L 367.951916 312.591769 
L 391.009767 312.591769 
L 392.057851 311.500072 
L 408.827198 311.500072 
L 409.875282 310.408375 
L 410.923366 310.408375 
L 411.97145 309.316679 
L 421.404207 309.316679 
L 422.452292 308.224982 
L 423.500376 308.224982 
L 424.54846 307.133285 
L 429.788881 307.133285 
L 430.836965 306.041588 
L 433.981217 306.041588 
L 436.077385 303.858195 
L 437.12547 303.858195 
L 438.173554 302.766498 
L 440.269722 302.766498 
L 441.317806 301.674801 
L 443.413974 301.674801 
L 444.462059 300.583105 
L 446.558227 300.583105 
L 447.606311 299.491408 
L 472.760331 299.491408 
L 473.808415 298.399711 
L 484.289256 298.399711 
L 485.33734 297.308014 
L 491.625845 297.308014 
L 492.673929 296.216318 
L 493.722014 296.216318 
L 494.770098 295.124621 
L 495.818182 295.124621 
L 500.010518 290.757834 
L 502.106687 290.757834 
L 503.154771 288.57444 
L 511.539444 288.57444 
L 513.635612 286.391047 
L 515.731781 286.391047 
L 516.779865 285.29935 
L 520.972201 285.29935 
L 522.020286 284.207653 
L 529.356875 284.207653 
L 530.404959 283.115957 
L 532.501127 283.115957 
L 533.549211 282.02426 
L 539.837716 282.02426 
L 541.933884 279.840866 
L 549.270473 279.840866 
L 550.318557 278.74917 
L 553.46281 278.74917 
L 554.510894 277.657473 
L 556.607062 277.657473 
L 557.655147 275.474079 
L 561.847483 275.474079 
L 562.895567 273.290686 
L 563.943651 272.198989 
L 568.135988 272.198989 
L 569.184072 270.015596 
L 576.520661 270.015596 
L 577.568745 268.923899 
L 581.761082 268.923899 
L 582.809166 267.832202 
L 585.953418 267.832202 
L 587.001503 266.740505 
L 588.049587 264.557112 
L 590.145755 264.557112 
L 591.193839 263.465415 
L 607.963186 263.465415 
L 610.059354 261.282022 
L 622.636364 261.282022 
L 622.636364 261.282022 
" clip-path="url(#p661bebb623)" style="fill: none; stroke: #1f77b4; stroke-width: 1.5; stroke-linecap: square"/>
   </g>
   <g id="line2d_32">
    <path d="M 115.363636 280.932563 
L 116.411721 279.840866 
L 119.555973 279.840866 
L 120.604057 278.74917 
L 121.652141 278.74917 
L 122.700225 277.657473 
L 123.74831 277.657473 
L 125.844478 275.474079 
L 126.892562 273.290686 
L 127.940646 273.290686 
L 130.036814 271.107292 
L 131.084899 271.107292 
L 132.132983 266.740505 
L 133.181067 264.557112 
L 134.229151 260.190325 
L 135.277235 256.915235 
L 138.421488 256.915235 
L 139.469572 253.640144 
L 140.517656 251.456751 
L 142.613824 249.273357 
L 143.661908 247.089964 
L 145.758077 244.90657 
L 146.806161 242.723177 
L 149.950413 242.723177 
L 150.998497 237.264693 
L 152.046582 235.0813 
L 153.094666 233.989603 
L 154.14275 231.806209 
L 155.190834 230.714513 
L 156.238918 230.714513 
L 157.287002 227.439422 
L 158.335086 227.439422 
L 159.383171 225.256029 
L 160.431255 224.164332 
L 161.479339 224.164332 
L 162.527423 223.072635 
L 164.623591 223.072635 
L 165.671675 221.980939 
L 167.767844 221.980939 
L 168.815928 219.797545 
L 169.864012 219.797545 
L 170.912096 218.705848 
L 175.104433 218.705848 
L 176.152517 217.614152 
L 179.296769 217.614152 
L 180.344853 216.522455 
L 181.392938 216.522455 
L 182.441022 214.339061 
L 183.489106 214.339061 
L 184.53719 212.155668 
L 185.585274 211.063971 
L 188.729527 211.063971 
L 189.777611 208.880578 
L 190.825695 207.788881 
L 191.873779 204.513791 
L 193.969947 202.330397 
L 202.354621 202.330397 
L 203.402705 199.055307 
L 204.450789 199.055307 
L 206.546957 196.871913 
L 207.595041 196.871913 
L 210.739294 193.596823 
L 212.835462 193.596823 
L 213.883546 192.505126 
L 215.979714 192.505126 
L 219.123967 189.230036 
L 221.220135 189.230036 
L 222.268219 188.138339 
L 227.50864 188.138339 
L 228.556724 187.046643 
L 230.652893 187.046643 
L 231.700977 185.954946 
L 244.277986 185.954946 
L 245.326071 183.771552 
L 247.422239 183.771552 
L 249.518407 181.588159 
L 250.566491 181.588159 
L 251.614576 180.496462 
L 257.90308 180.496462 
L 261.047333 177.221372 
L 262.095417 177.221372 
L 263.143501 176.129675 
L 264.191585 173.946282 
L 265.239669 173.946282 
L 266.287754 172.854585 
L 267.335838 172.854585 
L 271.528174 168.487798 
L 273.624343 168.487798 
L 274.672427 166.304404 
L 277.816679 166.304404 
L 278.864763 165.212708 
L 282.009016 165.212708 
L 283.0571 164.121011 
L 284.105184 164.121011 
L 285.153268 160.845921 
L 288.297521 160.845921 
L 289.345605 159.754224 
L 290.393689 157.57083 
L 292.489857 157.57083 
L 293.537941 156.479134 
L 295.63411 156.479134 
L 296.682194 155.387437 
L 297.730278 155.387437 
L 302.970699 149.928953 
L 305.066867 149.928953 
L 308.211119 146.653863 
L 311.355372 146.653863 
L 312.403456 144.470469 
L 313.45154 144.470469 
L 314.499624 143.378773 
L 317.643877 143.378773 
L 318.691961 142.287076 
L 328.124718 142.287076 
L 329.172802 141.195379 
L 336.509391 141.195379 
L 337.557476 140.103682 
L 339.653644 140.103682 
L 341.749812 137.920289 
L 346.990233 137.920289 
L 348.038317 136.828592 
L 353.278738 136.828592 
L 356.42299 133.553502 
L 370.048084 133.553502 
L 371.096168 131.370108 
L 372.144252 130.278412 
L 397.298272 130.278412 
L 398.346356 129.186715 
L 404.634861 129.186715 
L 406.731029 127.003321 
L 408.827198 127.003321 
L 409.875282 125.911625 
L 410.923366 125.911625 
L 413.019534 123.728231 
L 414.067618 123.728231 
L 415.115702 122.636534 
L 416.163787 122.636534 
L 418.259955 118.269747 
L 419.308039 117.178051 
L 424.54846 117.178051 
L 425.596544 113.90296 
L 426.644628 111.719567 
L 428.740796 111.719567 
L 430.836965 109.536173 
L 436.077385 109.536173 
L 438.173554 107.35278 
L 440.269722 107.35278 
L 441.317806 106.261083 
L 443.413974 106.261083 
L 444.462059 105.169386 
L 445.510143 105.169386 
L 446.558227 104.07769 
L 447.606311 104.07769 
L 448.654395 102.985993 
L 449.702479 102.985993 
L 450.750563 101.894296 
L 452.846732 101.894296 
L 453.894816 99.710903 
L 459.135237 99.710903 
L 461.231405 97.527509 
L 471.712246 97.527509 
L 472.760331 96.435812 
L 473.808415 96.435812 
L 474.856499 95.344116 
L 475.904583 95.344116 
L 479.048835 92.069025 
L 481.145004 92.069025 
L 482.193088 90.977329 
L 503.154771 90.977329 
L 505.250939 88.793935 
L 509.443276 88.793935 
L 510.49136 87.702238 
L 511.539444 87.702238 
L 512.587528 86.610542 
L 513.635612 86.610542 
L 514.683696 85.518845 
L 537.741548 85.518845 
L 538.789632 84.427148 
L 559.751315 84.427148 
L 560.799399 82.243755 
L 568.135988 82.243755 
L 570.232156 80.060361 
L 572.328325 80.060361 
L 573.376409 78.968664 
L 575.472577 78.968664 
L 577.568745 76.785271 
L 579.664914 76.785271 
L 580.712998 74.601877 
L 589.097671 74.601877 
L 590.145755 73.510181 
L 595.386176 73.510181 
L 596.43426 72.418484 
L 602.722765 72.418484 
L 603.770849 71.326787 
L 611.107438 71.326787 
L 613.203606 69.143394 
L 614.25169 69.143394 
L 615.299775 68.051697 
L 621.588279 68.051697 
L 622.636364 66.96 
L 622.636364 66.96 
" clip-path="url(#p661bebb623)" style="fill: none; stroke: #ff7f0e; stroke-width: 1.5; stroke-linecap: square"/>
   </g>
   <g id="line2d_33">
    <path d="M 115.363636 336.609097 
L 119.555973 336.609097 
L 120.604057 334.425704 
L 122.700225 334.425704 
L 123.74831 333.334007 
L 124.796394 331.150614 
L 125.844478 330.058917 
L 126.892562 326.783827 
L 127.940646 324.600433 
L 128.98873 323.508736 
L 130.036814 323.508736 
L 131.084899 321.325343 
L 132.132983 318.050253 
L 136.325319 318.050253 
L 137.373403 316.958556 
L 138.421488 316.958556 
L 139.469572 314.775162 
L 142.613824 314.775162 
L 144.709992 312.591769 
L 148.902329 312.591769 
L 149.950413 311.500072 
L 154.14275 311.500072 
L 157.287002 308.224982 
L 162.527423 308.224982 
L 163.575507 307.133285 
L 166.71976 307.133285 
L 167.767844 306.041588 
L 169.864012 306.041588 
L 170.912096 303.858195 
L 179.296769 303.858195 
L 180.344853 302.766498 
L 181.392938 300.583105 
L 182.441022 299.491408 
L 183.489106 299.491408 
L 184.53719 298.399711 
L 186.633358 298.399711 
L 187.681443 297.308014 
L 189.777611 297.308014 
L 190.825695 296.216318 
L 197.1142 296.216318 
L 198.162284 295.124621 
L 199.210368 295.124621 
L 200.258452 294.032924 
L 201.306536 294.032924 
L 202.354621 292.941227 
L 205.498873 292.941227 
L 206.546957 291.849531 
L 207.595041 289.666137 
L 212.835462 289.666137 
L 215.979714 286.391047 
L 219.123967 286.391047 
L 220.172051 285.29935 
L 224.364388 285.29935 
L 225.412472 284.207653 
L 226.460556 284.207653 
L 227.50864 283.115957 
L 229.604808 283.115957 
L 230.652893 282.02426 
L 233.797145 282.02426 
L 235.893313 279.840866 
L 236.941397 279.840866 
L 237.989482 278.74917 
L 246.374155 278.74917 
L 247.422239 276.565776 
L 248.470323 275.474079 
L 256.854996 275.474079 
L 257.90308 274.382383 
L 261.047333 274.382383 
L 262.095417 273.290686 
L 265.239669 273.290686 
L 266.287754 272.198989 
L 276.768595 272.198989 
L 277.816679 271.107292 
L 282.009016 271.107292 
L 283.0571 270.015596 
L 289.345605 270.015596 
L 290.393689 268.923899 
L 292.489857 268.923899 
L 293.537941 267.832202 
L 297.730278 267.832202 
L 299.826446 265.648809 
L 319.740045 265.648809 
L 320.788129 264.557112 
L 321.836213 264.557112 
L 322.884298 263.465415 
L 326.02855 263.465415 
L 327.076634 262.373718 
L 332.317055 262.373718 
L 333.365139 261.282022 
L 335.461307 261.282022 
L 336.509391 260.190325 
L 342.797896 260.190325 
L 343.84598 261.282022 
L 344.894065 260.190325 
L 352.230654 260.190325 
L 353.278738 259.098628 
L 361.663411 259.098628 
L 362.711495 258.006931 
L 364.807663 258.006931 
L 365.855748 256.915235 
L 366.903832 256.915235 
L 367.951916 255.823538 
L 375.288505 255.823538 
L 376.336589 254.731841 
L 382.625094 254.731841 
L 383.673178 253.640144 
L 399.39444 253.640144 
L 400.442524 252.548448 
L 423.500376 252.548448 
L 424.54846 251.456751 
L 435.029301 251.456751 
L 436.077385 250.365054 
L 452.846732 250.365054 
L 454.9429 248.181661 
L 473.808415 248.181661 
L 474.856499 247.089964 
L 475.904583 244.90657 
L 496.866266 244.90657 
L 497.91435 243.814874 
L 500.010518 243.814874 
L 501.058603 242.723177 
L 507.347107 242.723177 
L 508.395192 241.63148 
L 511.539444 241.63148 
L 513.635612 239.448087 
L 515.731781 239.448087 
L 516.779865 238.35639 
L 520.972201 238.35639 
L 522.020286 236.172996 
L 525.164538 236.172996 
L 526.212622 235.0813 
L 527.260706 235.0813 
L 529.356875 232.897906 
L 542.981968 232.897906 
L 544.030053 231.806209 
L 556.607062 231.806209 
L 557.655147 229.622816 
L 566.03982 229.622816 
L 568.135988 227.439422 
L 578.616829 227.439422 
L 581.761082 224.164332 
L 584.905334 224.164332 
L 585.953418 223.072635 
L 588.049587 223.072635 
L 589.097671 221.980939 
L 598.530428 221.980939 
L 599.578512 220.889242 
L 609.01127 220.889242 
L 610.059354 219.797545 
L 617.395943 219.797545 
L 619.492111 217.614152 
L 622.636364 217.614152 
L 622.636364 217.614152 
" clip-path="url(#p661bebb623)" style="fill: none; stroke: #2ca02c; stroke-width: 1.5; stroke-linecap: square"/>
   </g>
   <g id="line2d_34">
    <path d="M 115.363636 369.36 
L 374.240421 369.36 
L 375.288505 368.268303 
L 597.482344 368.268303 
L 598.530428 367.176606 
L 622.636364 367.176606 
L 622.636364 367.176606 
" clip-path="url(#p661bebb623)" style="fill: none; stroke: #d62728; stroke-width: 1.5; stroke-linecap: square"/>
   </g>
   <g id="line2d_35">
    <path d="M 115.363636 345.342671 
L 118.507889 345.342671 
L 119.555973 344.250975 
L 125.844478 344.250975 
L 126.892562 343.159278 
L 133.181067 343.159278 
L 134.229151 342.067581 
L 157.287002 342.067581 
L 158.335086 340.975884 
L 196.066116 340.975884 
L 198.162284 338.792491 
L 206.546957 338.792491 
L 207.595041 337.700794 
L 211.787378 337.700794 
L 212.835462 336.609097 
L 214.93163 336.609097 
L 215.979714 335.517401 
L 243.229902 335.517401 
L 244.277986 334.425704 
L 287.249437 334.425704 
L 288.297521 333.334007 
L 424.54846 333.334007 
L 425.596544 332.24231 
L 426.644628 332.24231 
L 427.692712 331.150614 
L 493.722014 331.150614 
L 494.770098 330.058917 
L 622.636364 330.058917 
L 622.636364 330.058917 
" clip-path="url(#p661bebb623)" style="fill: none; stroke: #9467bd; stroke-width: 1.5; stroke-linecap: square"/>
   </g>
   <g id="line2d_36">
    <path d="M 115.363636 354.076245 
L 116.411721 354.076245 
L 117.459805 352.984549 
L 132.132983 352.984549 
L 133.181067 351.892852 
L 145.758077 351.892852 
L 146.806161 350.801155 
L 162.527423 350.801155 
L 164.623591 348.617762 
L 176.152517 348.617762 
L 177.200601 347.526065 
L 208.643125 347.526065 
L 209.69121 346.434368 
L 219.123967 346.434368 
L 220.172051 345.342671 
L 237.989482 345.342671 
L 239.037566 344.250975 
L 255.806912 344.250975 
L 256.854996 343.159278 
L 261.047333 343.159278 
L 262.095417 342.067581 
L 271.528174 342.067581 
L 272.576258 340.975884 
L 297.730278 340.975884 
L 298.778362 339.884188 
L 305.066867 339.884188 
L 306.114951 338.792491 
L 312.403456 338.792491 
L 313.45154 337.700794 
L 317.643877 337.700794 
L 318.691961 336.609097 
L 357.471074 336.609097 
L 358.519159 335.517401 
L 388.913599 335.517401 
L 389.961683 334.425704 
L 450.750563 334.425704 
L 451.798648 333.334007 
L 481.145004 333.334007 
L 482.193088 332.24231 
L 495.818182 332.24231 
L 496.866266 331.150614 
L 622.636364 331.150614 
L 622.636364 331.150614 
" clip-path="url(#p661bebb623)" style="fill: none; stroke: #8c564b; stroke-width: 1.5; stroke-linecap: square"/>
   </g>
   <g id="line2d_37">
    <path d="M 115.363636 273.290686 
L 119.555973 273.290686 
L 120.604057 272.198989 
L 124.796394 272.198989 
L 126.892562 270.015596 
L 127.940646 270.015596 
L 128.98873 268.923899 
L 130.036814 268.923899 
L 131.084899 267.832202 
L 133.181067 267.832202 
L 134.229151 266.740505 
L 137.373403 266.740505 
L 138.421488 265.648809 
L 140.517656 265.648809 
L 141.56574 264.557112 
L 142.613824 264.557112 
L 143.661908 263.465415 
L 145.758077 263.465415 
L 147.854245 261.282022 
L 152.046582 261.282022 
L 153.094666 260.190325 
L 156.238918 260.190325 
L 158.335086 258.006931 
L 160.431255 258.006931 
L 161.479339 256.915235 
L 163.575507 256.915235 
L 164.623591 255.823538 
L 165.671675 253.640144 
L 166.71976 250.365054 
L 168.815928 250.365054 
L 169.864012 249.273357 
L 175.104433 249.273357 
L 177.200601 247.089964 
L 178.248685 244.90657 
L 179.296769 243.814874 
L 180.344853 243.814874 
L 181.392938 241.63148 
L 185.585274 241.63148 
L 186.633358 240.539783 
L 187.681443 240.539783 
L 189.777611 238.35639 
L 190.825695 238.35639 
L 191.873779 237.264693 
L 192.921863 237.264693 
L 195.018032 235.0813 
L 197.1142 235.0813 
L 198.162284 232.897906 
L 202.354621 232.897906 
L 204.450789 230.714513 
L 206.546957 230.714513 
L 207.595041 229.622816 
L 208.643125 227.439422 
L 211.787378 227.439422 
L 212.835462 226.347726 
L 213.883546 226.347726 
L 214.93163 224.164332 
L 215.979714 224.164332 
L 217.027799 223.072635 
L 218.075883 223.072635 
L 219.123967 221.980939 
L 223.316304 221.980939 
L 225.412472 219.797545 
L 226.460556 219.797545 
L 227.50864 217.614152 
L 228.556724 217.614152 
L 229.604808 216.522455 
L 230.652893 216.522455 
L 231.700977 215.430758 
L 234.845229 215.430758 
L 235.893313 214.339061 
L 236.941397 214.339061 
L 241.133734 209.972274 
L 242.181818 207.788881 
L 244.277986 207.788881 
L 246.374155 203.422094 
L 248.470323 203.422094 
L 250.566491 201.2387 
L 251.614576 201.2387 
L 252.66266 199.055307 
L 253.710744 199.055307 
L 254.758828 197.96361 
L 255.806912 197.96361 
L 256.854996 196.871913 
L 258.951165 196.871913 
L 259.999249 195.780217 
L 261.047333 195.780217 
L 262.095417 194.68852 
L 266.287754 194.68852 
L 267.335838 189.230036 
L 268.383922 189.230036 
L 269.432006 188.138339 
L 272.576258 188.138339 
L 273.624343 187.046643 
L 283.0571 187.046643 
L 284.105184 184.863249 
L 288.297521 184.863249 
L 289.345605 183.771552 
L 299.826446 183.771552 
L 300.87453 181.588159 
L 301.922615 180.496462 
L 307.163035 180.496462 
L 308.211119 179.404765 
L 315.547708 179.404765 
L 316.595793 178.313069 
L 317.643877 178.313069 
L 318.691961 177.221372 
L 324.980466 177.221372 
L 327.076634 175.037978 
L 334.413223 175.037978 
L 336.509391 172.854585 
L 337.557476 172.854585 
L 338.60556 171.762888 
L 344.894065 171.762888 
L 345.942149 170.671191 
L 349.086401 170.671191 
L 350.134485 169.579495 
L 351.182569 167.396101 
L 354.326822 167.396101 
L 355.374906 166.304404 
L 356.42299 166.304404 
L 358.519159 164.121011 
L 362.711495 164.121011 
L 363.759579 163.029314 
L 367.951916 163.029314 
L 369 161.937617 
L 372.144252 161.937617 
L 373.192337 160.845921 
L 381.57701 160.845921 
L 383.673178 158.662527 
L 388.913599 158.662527 
L 389.961683 157.57083 
L 394.15402 157.57083 
L 399.39444 152.112347 
L 401.490609 152.112347 
L 402.538693 151.02065 
L 403.586777 151.02065 
L 404.634861 148.837256 
L 406.731029 146.653863 
L 408.827198 142.287076 
L 410.923366 142.287076 
L 413.019534 137.920289 
L 415.115702 137.920289 
L 416.163787 135.736895 
L 418.259955 133.553502 
L 421.404207 133.553502 
L 422.452292 132.461805 
L 423.500376 132.461805 
L 425.596544 130.278412 
L 429.788881 130.278412 
L 430.836965 129.186715 
L 432.933133 129.186715 
L 433.981217 128.095018 
L 439.221638 128.095018 
L 440.269722 125.911625 
L 441.317806 124.819928 
L 442.36589 124.819928 
L 443.413974 123.728231 
L 445.510143 123.728231 
L 446.558227 122.636534 
L 448.654395 122.636534 
L 449.702479 120.453141 
L 451.798648 120.453141 
L 452.846732 119.361444 
L 453.894816 119.361444 
L 454.9429 118.269747 
L 460.183321 118.269747 
L 461.231405 117.178051 
L 466.471826 117.178051 
L 467.51991 116.086354 
L 468.567994 116.086354 
L 469.616078 113.90296 
L 471.712246 111.719567 
L 472.760331 108.444477 
L 473.808415 107.35278 
L 474.856499 107.35278 
L 475.904583 106.261083 
L 476.952667 106.261083 
L 478.000751 105.169386 
L 482.193088 105.169386 
L 483.241172 104.07769 
L 485.33734 104.07769 
L 486.385424 102.985993 
L 488.481593 102.985993 
L 490.577761 100.802599 
L 493.722014 100.802599 
L 494.770098 99.710903 
L 500.010518 99.710903 
L 501.058603 97.527509 
L 506.299023 97.527509 
L 507.347107 96.435812 
L 510.49136 96.435812 
L 511.539444 94.252419 
L 515.731781 94.252419 
L 516.779865 93.160722 
L 526.212622 93.160722 
L 527.260706 92.069025 
L 529.356875 92.069025 
L 530.404959 90.977329 
L 537.741548 90.977329 
L 538.789632 89.885632 
L 539.837716 89.885632 
L 540.8858 88.793935 
L 541.933884 88.793935 
L 542.981968 87.702238 
L 549.270473 87.702238 
L 551.366642 85.518845 
L 566.03982 85.518845 
L 567.087904 84.427148 
L 568.135988 84.427148 
L 570.232156 82.243755 
L 571.28024 82.243755 
L 572.328325 81.152058 
L 584.905334 81.152058 
L 585.953418 80.060361 
L 587.001503 77.876968 
L 589.097671 77.876968 
L 590.145755 76.785271 
L 595.386176 76.785271 
L 596.43426 75.693574 
L 597.482344 75.693574 
L 599.578512 73.510181 
L 604.818933 73.510181 
L 605.867017 72.418484 
L 609.01127 72.418484 
L 610.059354 71.326787 
L 612.155522 71.326787 
L 613.203606 70.23509 
L 615.299775 70.23509 
L 616.347859 69.143394 
L 617.395943 69.143394 
L 618.444027 66.96 
L 622.636364 66.96 
L 622.636364 66.96 
" clip-path="url(#p661bebb623)" style="fill: none; stroke: #e377c2; stroke-width: 1.5; stroke-linecap: square"/>
   </g>
   <g id="line2d_38">
    <path d="M 115.363636 340.975884 
L 116.411721 340.975884 
L 118.507889 338.792491 
L 123.74831 338.792491 
L 124.796394 337.700794 
L 125.844478 337.700794 
L 127.940646 335.517401 
L 130.036814 335.517401 
L 131.084899 334.425704 
L 134.229151 334.425704 
L 135.277235 333.334007 
L 136.325319 333.334007 
L 137.373403 332.24231 
L 138.421488 332.24231 
L 140.517656 330.058917 
L 143.661908 330.058917 
L 144.709992 328.96722 
L 146.806161 328.96722 
L 148.902329 326.783827 
L 150.998497 326.783827 
L 153.094666 324.600433 
L 154.14275 324.600433 
L 155.190834 323.508736 
L 156.238918 320.233646 
L 160.431255 320.233646 
L 164.623591 315.866859 
L 165.671675 315.866859 
L 167.767844 313.683466 
L 168.815928 313.683466 
L 169.864012 312.591769 
L 170.912096 312.591769 
L 171.96018 311.500072 
L 181.392938 311.500072 
L 182.441022 310.408375 
L 192.921863 310.408375 
L 195.018032 308.224982 
L 198.162284 308.224982 
L 199.210368 307.133285 
L 201.306536 307.133285 
L 203.402705 304.949892 
L 205.498873 304.949892 
L 206.546957 302.766498 
L 209.69121 302.766498 
L 210.739294 300.583105 
L 211.787378 299.491408 
L 217.027799 299.491408 
L 218.075883 298.399711 
L 219.123967 298.399711 
L 221.220135 296.216318 
L 226.460556 296.216318 
L 227.50864 295.124621 
L 228.556724 295.124621 
L 229.604808 294.032924 
L 235.893313 294.032924 
L 236.941397 292.941227 
L 240.08565 292.941227 
L 241.133734 291.849531 
L 242.181818 291.849531 
L 243.229902 288.57444 
L 244.277986 288.57444 
L 245.326071 286.391047 
L 246.374155 285.29935 
L 247.422239 285.29935 
L 249.518407 283.115957 
L 251.614576 283.115957 
L 252.66266 282.02426 
L 254.758828 282.02426 
L 255.806912 280.932563 
L 256.854996 280.932563 
L 257.90308 278.74917 
L 258.951165 278.74917 
L 259.999249 277.657473 
L 262.095417 277.657473 
L 264.191585 275.474079 
L 265.239669 275.474079 
L 266.287754 273.290686 
L 267.335838 272.198989 
L 274.672427 272.198989 
L 275.720511 270.015596 
L 278.864763 270.015596 
L 279.912847 268.923899 
L 280.960932 268.923899 
L 282.009016 267.832202 
L 285.153268 267.832202 
L 286.201352 266.740505 
L 291.441773 266.740505 
L 292.489857 265.648809 
L 294.586026 265.648809 
L 295.63411 264.557112 
L 300.87453 264.557112 
L 301.922615 263.465415 
L 311.355372 263.465415 
L 313.45154 261.282022 
L 314.499624 261.282022 
L 315.547708 260.190325 
L 316.595793 260.190325 
L 317.643877 259.098628 
L 318.691961 259.098628 
L 319.740045 258.006931 
L 321.836213 258.006931 
L 322.884298 256.915235 
L 323.932382 256.915235 
L 326.02855 254.731841 
L 329.172802 254.731841 
L 330.220887 253.640144 
L 333.365139 253.640144 
L 334.413223 252.548448 
L 341.749812 252.548448 
L 342.797896 251.456751 
L 343.84598 251.456751 
L 344.894065 250.365054 
L 349.086401 250.365054 
L 350.134485 248.181661 
L 356.42299 248.181661 
L 357.471074 247.089964 
L 358.519159 247.089964 
L 359.567243 244.90657 
L 364.807663 244.90657 
L 365.855748 243.814874 
L 372.144252 243.814874 
L 373.192337 242.723177 
L 386.817431 242.723177 
L 387.865515 241.63148 
L 403.586777 241.63148 
L 404.634861 240.539783 
L 409.875282 240.539783 
L 410.923366 239.448087 
L 411.97145 239.448087 
L 413.019534 238.35639 
L 414.067618 238.35639 
L 415.115702 236.172996 
L 416.163787 236.172996 
L 418.259955 233.989603 
L 425.596544 233.989603 
L 426.644628 232.897906 
L 427.692712 232.897906 
L 428.740796 231.806209 
L 429.788881 231.806209 
L 430.836965 230.714513 
L 436.077385 230.714513 
L 437.12547 229.622816 
L 446.558227 229.622816 
L 447.606311 228.531119 
L 452.846732 228.531119 
L 453.894816 227.439422 
L 459.135237 227.439422 
L 460.183321 226.347726 
L 462.279489 226.347726 
L 465.423742 223.072635 
L 467.51991 223.072635 
L 468.567994 220.889242 
L 473.808415 220.889242 
L 475.904583 218.705848 
L 478.000751 218.705848 
L 479.048835 217.614152 
L 480.09692 217.614152 
L 482.193088 215.430758 
L 489.529677 215.430758 
L 490.577761 214.339061 
L 492.673929 214.339061 
L 493.722014 213.247365 
L 502.106687 213.247365 
L 504.202855 211.063971 
L 507.347107 211.063971 
L 508.395192 209.972274 
L 509.443276 209.972274 
L 510.49136 206.697184 
L 511.539444 205.605487 
L 515.731781 205.605487 
L 516.779865 203.422094 
L 519.924117 203.422094 
L 520.972201 202.330397 
L 531.453043 202.330397 
L 532.501127 201.2387 
L 542.981968 201.2387 
L 545.078137 199.055307 
L 552.414726 199.055307 
L 553.46281 197.96361 
L 571.28024 197.96361 
L 575.472577 193.596823 
L 579.664914 193.596823 
L 580.712998 192.505126 
L 589.097671 192.505126 
L 590.145755 191.41343 
L 593.290008 191.41343 
L 594.338092 190.321733 
L 595.386176 190.321733 
L 596.43426 189.230036 
L 602.722765 189.230036 
L 604.818933 187.046643 
L 606.915101 187.046643 
L 607.963186 185.954946 
L 613.203606 185.954946 
L 614.25169 184.863249 
L 615.299775 184.863249 
L 616.347859 182.679856 
L 622.636364 182.679856 
L 622.636364 182.679856 
" clip-path="url(#p661bebb623)" style="fill: none; stroke: #7f7f7f; stroke-width: 1.5; stroke-linecap: square"/>
   </g>
   <g id="line2d_39">
    <path d="M 115.363636 347.526065 
L 119.555973 347.526065 
L 120.604057 346.434368 
L 131.084899 346.434368 
L 132.132983 345.342671 
L 137.373403 345.342671 
L 138.421488 344.250975 
L 148.902329 344.250975 
L 149.950413 343.159278 
L 160.431255 343.159278 
L 161.479339 342.067581 
L 218.075883 342.067581 
L 219.123967 340.975884 
L 224.364388 340.975884 
L 225.412472 339.884188 
L 232.749061 339.884188 
L 233.797145 338.792491 
L 234.845229 338.792491 
L 235.893313 335.517401 
L 236.941397 334.425704 
L 239.037566 334.425704 
L 240.08565 333.334007 
L 250.566491 333.334007 
L 251.614576 332.24231 
L 261.047333 332.24231 
L 262.095417 331.150614 
L 273.624343 331.150614 
L 274.672427 330.058917 
L 287.249437 330.058917 
L 288.297521 328.96722 
L 293.537941 328.96722 
L 294.586026 327.875523 
L 328.124718 327.875523 
L 329.172802 326.783827 
L 331.268971 326.783827 
L 332.317055 325.69213 
L 340.701728 325.69213 
L 341.749812 324.600433 
L 371.096168 324.600433 
L 374.240421 321.325343 
L 404.634861 321.325343 
L 405.682945 320.233646 
L 406.731029 320.233646 
L 408.827198 318.050253 
L 410.923366 318.050253 
L 411.97145 316.958556 
L 465.423742 316.958556 
L 466.471826 315.866859 
L 527.260706 315.866859 
L 528.30879 314.775162 
L 572.328325 314.775162 
L 573.376409 313.683466 
L 578.616829 313.683466 
L 579.664914 312.591769 
L 594.338092 312.591769 
L 595.386176 311.500072 
L 616.347859 311.500072 
L 617.395943 310.408375 
L 622.636364 310.408375 
L 622.636364 310.408375 
" clip-path="url(#p661bebb623)" style="fill: none; stroke: #bcbd22; stroke-width: 1.5; stroke-linecap: square"/>
   </g>
   <g id="line2d_40">
    <path d="M 115.363636 367.176606 
L 167.767844 367.176606 
L 168.815928 366.08491 
L 234.845229 366.08491 
L 235.893313 364.993213 
L 342.797896 364.993213 
L 343.84598 363.901516 
L 344.894065 364.993213 
L 471.712246 364.993213 
L 472.760331 363.901516 
L 480.09692 363.901516 
L 481.145004 362.809819 
L 507.347107 362.809819 
L 508.395192 361.718123 
L 622.636364 361.718123 
L 622.636364 361.718123 
" clip-path="url(#p661bebb623)" style="fill: none; stroke: #17becf; stroke-width: 1.5; stroke-linecap: square"/>
   </g>
   <g id="line2d_41">
    <path d="M 115.363636 369.36 
L 116.411721 368.268303 
L 118.507889 368.268303 
L 119.555973 367.176606 
L 126.892562 367.176606 
L 127.940646 366.08491 
L 131.084899 366.08491 
L 132.132983 364.993213 
L 133.181067 364.993213 
L 135.277235 362.809819 
L 140.517656 362.809819 
L 142.613824 360.626426 
L 143.661908 360.626426 
L 144.709992 359.534729 
L 152.046582 359.534729 
L 153.094666 358.443032 
L 154.14275 356.259639 
L 156.238918 356.259639 
L 157.287002 355.167942 
L 158.335086 355.167942 
L 159.383171 354.076245 
L 160.431255 354.076245 
L 161.479339 352.984549 
L 162.527423 352.984549 
L 164.623591 350.801155 
L 170.912096 350.801155 
L 173.008264 348.617762 
L 176.152517 348.617762 
L 177.200601 347.526065 
L 178.248685 347.526065 
L 179.296769 345.342671 
L 182.441022 345.342671 
L 184.53719 340.975884 
L 190.825695 340.975884 
L 191.873779 338.792491 
L 192.921863 337.700794 
L 196.066116 337.700794 
L 197.1142 336.609097 
L 198.162284 334.425704 
L 200.258452 334.425704 
L 201.306536 333.334007 
L 215.979714 333.334007 
L 217.027799 331.150614 
L 224.364388 323.508736 
L 234.845229 323.508736 
L 237.989482 320.233646 
L 240.08565 320.233646 
L 241.133734 318.050253 
L 243.229902 318.050253 
L 244.277986 316.958556 
L 247.422239 316.958556 
L 248.470323 315.866859 
L 249.518407 315.866859 
L 250.566491 314.775162 
L 251.614576 314.775162 
L 253.710744 312.591769 
L 267.335838 312.591769 
L 269.432006 310.408375 
L 277.816679 310.408375 
L 278.864763 309.316679 
L 282.009016 309.316679 
L 284.105184 307.133285 
L 287.249437 307.133285 
L 288.297521 306.041588 
L 290.393689 306.041588 
L 291.441773 304.949892 
L 296.682194 304.949892 
L 297.730278 303.858195 
L 298.778362 303.858195 
L 299.826446 301.674801 
L 300.87453 301.674801 
L 301.922615 300.583105 
L 307.163035 300.583105 
L 308.211119 299.491408 
L 310.307288 299.491408 
L 311.355372 298.399711 
L 312.403456 298.399711 
L 314.499624 296.216318 
L 321.836213 296.216318 
L 322.884298 295.124621 
L 323.932382 295.124621 
L 324.980466 294.032924 
L 330.220887 294.032924 
L 331.268971 291.849531 
L 332.317055 290.757834 
L 337.557476 290.757834 
L 338.60556 289.666137 
L 342.797896 289.666137 
L 343.84598 287.482744 
L 348.038317 287.482744 
L 350.134485 285.29935 
L 353.278738 285.29935 
L 354.326822 284.207653 
L 366.903832 284.207653 
L 367.951916 282.02426 
L 369 280.932563 
L 377.384673 280.932563 
L 378.432757 279.840866 
L 397.298272 279.840866 
L 398.346356 278.74917 
L 400.442524 278.74917 
L 401.490609 277.657473 
L 404.634861 277.657473 
L 405.682945 276.565776 
L 419.308039 276.565776 
L 420.356123 274.382383 
L 422.452292 274.382383 
L 423.500376 273.290686 
L 424.54846 273.290686 
L 425.596544 272.198989 
L 429.788881 272.198989 
L 430.836965 271.107292 
L 438.173554 271.107292 
L 439.221638 268.923899 
L 440.269722 268.923899 
L 441.317806 267.832202 
L 446.558227 267.832202 
L 447.606311 266.740505 
L 452.846732 266.740505 
L 454.9429 264.557112 
L 457.039068 264.557112 
L 458.087153 263.465415 
L 460.183321 263.465415 
L 461.231405 262.373718 
L 462.279489 262.373718 
L 463.327573 261.282022 
L 470.664162 261.282022 
L 471.712246 260.190325 
L 495.818182 260.190325 
L 496.866266 259.098628 
L 502.106687 259.098628 
L 503.154771 258.006931 
L 514.683696 258.006931 
L 515.731781 256.915235 
L 561.847483 256.915235 
L 562.895567 255.823538 
L 569.184072 255.823538 
L 570.232156 254.731841 
L 571.28024 254.731841 
L 572.328325 253.640144 
L 585.953418 253.640144 
L 587.001503 252.548448 
L 606.915101 252.548448 
L 607.963186 251.456751 
L 612.155522 251.456751 
L 613.203606 250.365054 
L 618.444027 250.365054 
L 619.492111 249.273357 
L 622.636364 249.273357 
L 622.636364 249.273357 
" clip-path="url(#p661bebb623)" style="fill: none; stroke: #1f77b4; stroke-width: 1.5; stroke-linecap: square"/>
   </g>
   <g id="line2d_42">
    <path d="M 115.363636 328.96722 
L 122.700225 328.96722 
L 123.74831 327.875523 
L 126.892562 327.875523 
L 127.940646 326.783827 
L 132.132983 326.783827 
L 133.181067 325.69213 
L 136.325319 325.69213 
L 137.373403 324.600433 
L 138.421488 324.600433 
L 139.469572 323.508736 
L 142.613824 323.508736 
L 143.661908 322.41704 
L 145.758077 322.41704 
L 146.806161 321.325343 
L 147.854245 321.325343 
L 149.950413 319.141949 
L 156.238918 319.141949 
L 157.287002 318.050253 
L 158.335086 318.050253 
L 159.383171 316.958556 
L 160.431255 316.958556 
L 161.479339 314.775162 
L 162.527423 311.500072 
L 163.575507 310.408375 
L 167.767844 310.408375 
L 170.912096 307.133285 
L 174.056349 307.133285 
L 176.152517 304.949892 
L 187.681443 304.949892 
L 188.729527 301.674801 
L 189.777611 301.674801 
L 191.873779 297.308014 
L 193.969947 295.124621 
L 195.018032 295.124621 
L 196.066116 292.941227 
L 204.450789 292.941227 
L 205.498873 290.757834 
L 208.643125 290.757834 
L 209.69121 289.666137 
L 217.027799 289.666137 
L 218.075883 288.57444 
L 230.652893 288.57444 
L 231.700977 287.482744 
L 232.749061 287.482744 
L 233.797145 286.391047 
L 236.941397 286.391047 
L 237.989482 285.29935 
L 250.566491 285.29935 
L 251.614576 284.207653 
L 253.710744 284.207653 
L 255.806912 279.840866 
L 257.90308 279.840866 
L 259.999249 277.657473 
L 262.095417 277.657473 
L 263.143501 276.565776 
L 266.287754 276.565776 
L 267.335838 275.474079 
L 279.912847 275.474079 
L 280.960932 274.382383 
L 296.682194 274.382383 
L 297.730278 273.290686 
L 307.163035 273.290686 
L 308.211119 272.198989 
L 310.307288 272.198989 
L 311.355372 271.107292 
L 314.499624 271.107292 
L 316.595793 268.923899 
L 317.643877 268.923899 
L 318.691961 267.832202 
L 322.884298 267.832202 
L 324.980466 265.648809 
L 330.220887 265.648809 
L 331.268971 264.557112 
L 334.413223 264.557112 
L 335.461307 263.465415 
L 340.701728 263.465415 
L 341.749812 262.373718 
L 346.990233 262.373718 
L 348.038317 261.282022 
L 366.903832 261.282022 
L 367.951916 260.190325 
L 369 260.190325 
L 370.048084 259.098628 
L 380.528926 259.098628 
L 381.57701 256.915235 
L 382.625094 256.915235 
L 383.673178 255.823538 
L 394.15402 255.823538 
L 395.202104 254.731841 
L 399.39444 254.731841 
L 400.442524 253.640144 
L 401.490609 253.640144 
L 402.538693 252.548448 
L 411.97145 252.548448 
L 413.019534 251.456751 
L 433.981217 251.456751 
L 435.029301 248.181661 
L 442.36589 248.181661 
L 443.413974 247.089964 
L 445.510143 247.089964 
L 446.558227 245.998267 
L 459.135237 245.998267 
L 460.183321 244.90657 
L 474.856499 244.90657 
L 475.904583 243.814874 
L 479.048835 243.814874 
L 480.09692 242.723177 
L 488.481593 242.723177 
L 489.529677 240.539783 
L 506.299023 240.539783 
L 507.347107 239.448087 
L 512.587528 239.448087 
L 513.635612 238.35639 
L 529.356875 238.35639 
L 530.404959 237.264693 
L 532.501127 237.264693 
L 533.549211 236.172996 
L 544.030053 236.172996 
L 545.078137 235.0813 
L 556.607062 235.0813 
L 557.655147 233.989603 
L 571.28024 233.989603 
L 572.328325 232.897906 
L 584.905334 232.897906 
L 585.953418 231.806209 
L 593.290008 231.806209 
L 594.338092 230.714513 
L 604.818933 230.714513 
L 607.963186 227.439422 
L 610.059354 227.439422 
L 611.107438 226.347726 
L 612.155522 226.347726 
L 614.25169 224.164332 
L 618.444027 224.164332 
L 619.492111 223.072635 
L 621.588279 223.072635 
L 622.636364 220.889242 
L 622.636364 220.889242 
" clip-path="url(#p661bebb623)" style="fill: none; stroke: #ff7f0e; stroke-width: 1.5; stroke-linecap: square"/>
   </g>
   <g id="patch_3">
    <path d="M 90 384.48 
L 90 51.84 
" style="fill: none; stroke: #000000; stroke-width: 0.8; stroke-linejoin: miter; stroke-linecap: square"/>
   </g>
   <g id="patch_4">
    <path d="M 648 384.48 
L 648 51.84 
" style="fill: none; stroke: #000000; stroke-width: 0.8; stroke-linejoin: miter; stroke-linecap: square"/>
   </g>
   <g id="patch_5">
    <path d="M 90 384.48 
L 648 384.48 
" style="fill: none; stroke: #000000; stroke-width: 0.8; stroke-linejoin: miter; stroke-linecap: square"/>
   </g>
   <g id="patch_6">
    <path d="M 90 51.84 
L 648 51.84 
" style="fill: none; stroke: #000000; stroke-width: 0.8; stroke-linejoin: miter; stroke-linecap: square"/>
   </g>
   <g id="text_18">
    <!-- Time Series of Votes for Each Keyword -->
    <g transform="translate(253.716563 45.84) scale(0.12 -0.12)">
     <defs>
      <path id="DejaVuSans-53" d="M 3425 4513 
L 3425 3897 
Q 3066 4069 2747 4153 
Q 2428 4238 2131 4238 
Q 1616 4238 1336 4038 
Q 1056 3838 1056 3469 
Q 1056 3159 1242 3001 
Q 1428 2844 1947 2747 
L 2328 2669 
Q 3034 2534 3370 2195 
Q 3706 1856 3706 1288 
Q 3706 609 3251 259 
Q 2797 -91 1919 -91 
Q 1588 -91 1214 -16 
Q 841 59 441 206 
L 441 856 
Q 825 641 1194 531 
Q 1563 422 1919 422 
Q 2459 422 2753 634 
Q 3047 847 3047 1241 
Q 3047 1584 2836 1778 
Q 2625 1972 2144 2069 
L 1759 2144 
Q 1053 2284 737 2584 
Q 422 2884 422 3419 
Q 422 4038 858 4394 
Q 1294 4750 2059 4750 
Q 2388 4750 2728 4690 
Q 3069 4631 3425 4513 
z
" transform="scale(0.015625)"/>
      <path id="DejaVuSans-72" d="M 2631 2963 
Q 2534 3019 2420 3045 
Q 2306 3072 2169 3072 
Q 1681 3072 1420 2755 
Q 1159 2438 1159 1844 
L 1159 0 
L 581 0 
L 581 3500 
L 1159 3500 
L 1159 2956 
Q 1341 3275 1631 3429 
Q 1922 3584 2338 3584 
Q 2397 3584 2469 3576 
Q 2541 3569 2628 3553 
L 2631 2963 
z
" transform="scale(0.015625)"/>
      <path id="DejaVuSans-66" d="M 2375 4863 
L 2375 4384 
L 1825 4384 
Q 1516 4384 1395 4259 
Q 1275 4134 1275 3809 
L 1275 3500 
L 2222 3500 
L 2222 3053 
L 1275 3053 
L 1275 0 
L 697 0 
L 697 3053 
L 147 3053 
L 147 3500 
L 697 3500 
L 697 3744 
Q 697 4328 969 4595 
Q 1241 4863 1831 4863 
L 2375 4863 
z
" transform="scale(0.015625)"/>
      <path id="DejaVuSans-45" d="M 628 4666 
L 3578 4666 
L 3578 4134 
L 1259 4134 
L 1259 2753 
L 3481 2753 
L 3481 2222 
L 1259 2222 
L 1259 531 
L 3634 531 
L 3634 0 
L 628 0 
L 628 4666 
z
" transform="scale(0.015625)"/>
      <path id="DejaVuSans-63" d="M 3122 3366 
L 3122 2828 
Q 2878 2963 2633 3030 
Q 2388 3097 2138 3097 
Q 1578 3097 1268 2742 
Q 959 2388 959 1747 
Q 959 1106 1268 751 
Q 1578 397 2138 397 
Q 2388 397 2633 464 
Q 2878 531 3122 666 
L 3122 134 
Q 2881 22 2623 -34 
Q 2366 -91 2075 -91 
Q 1284 -91 818 406 
Q 353 903 353 1747 
Q 353 2603 823 3093 
Q 1294 3584 2113 3584 
Q 2378 3584 2631 3529 
Q 2884 3475 3122 3366 
z
" transform="scale(0.015625)"/>
      <path id="DejaVuSans-68" d="M 3513 2113 
L 3513 0 
L 2938 0 
L 2938 2094 
Q 2938 2591 2744 2837 
Q 2550 3084 2163 3084 
Q 1697 3084 1428 2787 
Q 1159 2491 1159 1978 
L 1159 0 
L 581 0 
L 581 4863 
L 1159 4863 
L 1159 2956 
Q 1366 3272 1645 3428 
Q 1925 3584 2291 3584 
Q 2894 3584 3203 3211 
Q 3513 2838 3513 2113 
z
" transform="scale(0.015625)"/>
      <path id="DejaVuSans-4b" d="M 628 4666 
L 1259 4666 
L 1259 2694 
L 3353 4666 
L 4166 4666 
L 1850 2491 
L 4331 0 
L 3500 0 
L 1259 2247 
L 1259 0 
L 628 0 
L 628 4666 
z
" transform="scale(0.015625)"/>
      <path id="DejaVuSans-79" d="M 2059 -325 
Q 1816 -950 1584 -1140 
Q 1353 -1331 966 -1331 
L 506 -1331 
L 506 -850 
L 844 -850 
Q 1081 -850 1212 -737 
Q 1344 -625 1503 -206 
L 1606 56 
L 191 3500 
L 800 3500 
L 1894 763 
L 2988 3500 
L 3597 3500 
L 2059 -325 
z
" transform="scale(0.015625)"/>
      <path id="DejaVuSans-77" d="M 269 3500 
L 844 3500 
L 1563 769 
L 2278 3500 
L 2956 3500 
L 3675 769 
L 4391 3500 
L 4966 3500 
L 4050 0 
L 3372 0 
L 2619 2869 
L 1863 0 
L 1184 0 
L 269 3500 
z
" transform="scale(0.015625)"/>
     </defs>
     <use xlink:href="#DejaVuSans-54"/>
     <use xlink:href="#DejaVuSans-69" transform="translate(57.958984 0)"/>
     <use xlink:href="#DejaVuSans-6d" transform="translate(85.742188 0)"/>
     <use xlink:href="#DejaVuSans-65" transform="translate(183.154297 0)"/>
     <use xlink:href="#DejaVuSans-20" transform="translate(244.677734 0)"/>
     <use xlink:href="#DejaVuSans-53" transform="translate(276.464844 0)"/>
     <use xlink:href="#DejaVuSans-65" transform="translate(339.941406 0)"/>
     <use xlink:href="#DejaVuSans-72" transform="translate(401.464844 0)"/>
     <use xlink:href="#DejaVuSans-69" transform="translate(442.578125 0)"/>
     <use xlink:href="#DejaVuSans-65" transform="translate(470.361328 0)"/>
     <use xlink:href="#DejaVuSans-73" transform="translate(531.884766 0)"/>
     <use xlink:href="#DejaVuSans-20" transform="translate(583.984375 0)"/>
     <use xlink:href="#DejaVuSans-6f" transform="translate(615.771484 0)"/>
     <use xlink:href="#DejaVuSans-66" transform="translate(676.953125 0)"/>
     <use xlink:href="#DejaVuSans-20" transform="translate(712.158203 0)"/>
     <use xlink:href="#DejaVuSans-56" transform="translate(743.945312 0)"/>
     <use xlink:href="#DejaVuSans-6f" transform="translate(804.603516 0)"/>
     <use xlink:href="#DejaVuSans-74" transform="translate(865.785156 0)"/>
     <use xlink:href="#DejaVuSans-65" transform="translate(904.994141 0)"/>
     <use xlink:href="#DejaVuSans-73" transform="translate(966.517578 0)"/>
     <use xlink:href="#DejaVuSans-20" transform="translate(1018.617188 0)"/>
     <use xlink:href="#DejaVuSans-66" transform="translate(1050.404297 0)"/>
     <use xlink:href="#DejaVuSans-6f" transform="translate(1085.609375 0)"/>
     <use xlink:href="#DejaVuSans-72" transform="translate(1146.791016 0)"/>
     <use xlink:href="#DejaVuSans-20" transform="translate(1187.904297 0)"/>
     <use xlink:href="#DejaVuSans-45" transform="translate(1219.691406 0)"/>
     <use xlink:href="#DejaVuSans-61" transform="translate(1282.875 0)"/>
     <use xlink:href="#DejaVuSans-63" transform="translate(1344.154297 0)"/>
     <use xlink:href="#DejaVuSans-68" transform="translate(1399.134766 0)"/>
     <use xlink:href="#DejaVuSans-20" transform="translate(1462.513672 0)"/>
     <use xlink:href="#DejaVuSans-4b" transform="translate(1494.300781 0)"/>
     <use xlink:href="#DejaVuSans-65" transform="translate(1554.876953 0)"/>
     <use xlink:href="#DejaVuSans-79" transform="translate(1616.400391 0)"/>
     <use xlink:href="#DejaVuSans-77" transform="translate(1675.580078 0)"/>
     <use xlink:href="#DejaVuSans-6f" transform="translate(1757.367188 0)"/>
     <use xlink:href="#DejaVuSans-72" transform="translate(1818.548828 0)"/>
     <use xlink:href="#DejaVuSans-64" transform="translate(1857.912109 0)"/>
    </g>
   </g>
   <g id="legend_1">
    <g id="patch_7">
     <path d="M 97 235.9775 
L 149.245313 235.9775 
Q 151.245313 235.9775 151.245313 233.9775 
L 151.245313 58.84 
Q 151.245313 56.84 149.245313 56.84 
L 97 56.84 
Q 95 56.84 95 58.84 
L 95 233.9775 
Q 95 235.9775 97 235.9775 
z
" style="fill: #ffffff; opacity: 0.8; stroke: #cccccc; stroke-linejoin: miter"/>
    </g>
    <g id="line2d_43">
     <path d="M 99 64.938437 
L 109 64.938437 
L 119 64.938437 
" style="fill: none; stroke: #1f77b4; stroke-width: 1.5; stroke-linecap: square"/>
    </g>
    <g id="text_19">
     <!-- H01 -->
     <g transform="translate(127 68.438437) scale(0.1 -0.1)">
      <defs>
       <path id="DejaVuSans-48" d="M 628 4666 
L 1259 4666 
L 1259 2753 
L 3553 2753 
L 3553 4666 
L 4184 4666 
L 4184 0 
L 3553 0 
L 3553 2222 
L 1259 2222 
L 1259 0 
L 628 0 
L 628 4666 
z
" transform="scale(0.015625)"/>
      </defs>
      <use xlink:href="#DejaVuSans-48"/>
      <use xlink:href="#DejaVuSans-30" transform="translate(75.195312 0)"/>
      <use xlink:href="#DejaVuSans-31" transform="translate(138.818359 0)"/>
     </g>
    </g>
    <g id="line2d_44">
     <path d="M 99 79.616562 
L 109 79.616562 
L 119 79.616562 
" style="fill: none; stroke: #ff7f0e; stroke-width: 1.5; stroke-linecap: square"/>
    </g>
    <g id="text_20">
     <!-- H02 -->
     <g transform="translate(127 83.116562) scale(0.1 -0.1)">
      <use xlink:href="#DejaVuSans-48"/>
      <use xlink:href="#DejaVuSans-30" transform="translate(75.195312 0)"/>
      <use xlink:href="#DejaVuSans-32" transform="translate(138.818359 0)"/>
     </g>
    </g>
    <g id="line2d_45">
     <path d="M 99 94.294688 
L 109 94.294688 
L 119 94.294688 
" style="fill: none; stroke: #2ca02c; stroke-width: 1.5; stroke-linecap: square"/>
    </g>
    <g id="text_21">
     <!-- H03 -->
     <g transform="translate(127 97.794688) scale(0.1 -0.1)">
      <defs>
       <path id="DejaVuSans-33" d="M 2597 2516 
Q 3050 2419 3304 2112 
Q 3559 1806 3559 1356 
Q 3559 666 3084 287 
Q 2609 -91 1734 -91 
Q 1441 -91 1130 -33 
Q 819 25 488 141 
L 488 750 
Q 750 597 1062 519 
Q 1375 441 1716 441 
Q 2309 441 2620 675 
Q 2931 909 2931 1356 
Q 2931 1769 2642 2001 
Q 2353 2234 1838 2234 
L 1294 2234 
L 1294 2753 
L 1863 2753 
Q 2328 2753 2575 2939 
Q 2822 3125 2822 3475 
Q 2822 3834 2567 4026 
Q 2313 4219 1838 4219 
Q 1578 4219 1281 4162 
Q 984 4106 628 3988 
L 628 4550 
Q 988 4650 1302 4700 
Q 1616 4750 1894 4750 
Q 2613 4750 3031 4423 
Q 3450 4097 3450 3541 
Q 3450 3153 3228 2886 
Q 3006 2619 2597 2516 
z
" transform="scale(0.015625)"/>
      </defs>
      <use xlink:href="#DejaVuSans-48"/>
      <use xlink:href="#DejaVuSans-30" transform="translate(75.195312 0)"/>
      <use xlink:href="#DejaVuSans-33" transform="translate(138.818359 0)"/>
     </g>
    </g>
    <g id="line2d_46">
     <path d="M 99 108.972812 
L 109 108.972812 
L 119 108.972812 
" style="fill: none; stroke: #d62728; stroke-width: 1.5; stroke-linecap: square"/>
    </g>
    <g id="text_22">
     <!-- H04 -->
     <g transform="translate(127 112.472812) scale(0.1 -0.1)">
      <use xlink:href="#DejaVuSans-48"/>
      <use xlink:href="#DejaVuSans-30" transform="translate(75.195312 0)"/>
      <use xlink:href="#DejaVuSans-34" transform="translate(138.818359 0)"/>
     </g>
    </g>
    <g id="line2d_47">
     <path d="M 99 123.650937 
L 109 123.650937 
L 119 123.650937 
" style="fill: none; stroke: #9467bd; stroke-width: 1.5; stroke-linecap: square"/>
    </g>
    <g id="text_23">
     <!-- H05 -->
     <g transform="translate(127 127.150937) scale(0.1 -0.1)">
      <use xlink:href="#DejaVuSans-48"/>
      <use xlink:href="#DejaVuSans-30" transform="translate(75.195312 0)"/>
      <use xlink:href="#DejaVuSans-35" transform="translate(138.818359 0)"/>
     </g>
    </g>
    <g id="line2d_48">
     <path d="M 99 138.329062 
L 109 138.329062 
L 119 138.329062 
" style="fill: none; stroke: #8c564b; stroke-width: 1.5; stroke-linecap: square"/>
    </g>
    <g id="text_24">
     <!-- H06 -->
     <g transform="translate(127 141.829062) scale(0.1 -0.1)">
      <use xlink:href="#DejaVuSans-48"/>
      <use xlink:href="#DejaVuSans-30" transform="translate(75.195312 0)"/>
      <use xlink:href="#DejaVuSans-36" transform="translate(138.818359 0)"/>
     </g>
    </g>
    <g id="line2d_49">
     <path d="M 99 153.007187 
L 109 153.007187 
L 119 153.007187 
" style="fill: none; stroke: #e377c2; stroke-width: 1.5; stroke-linecap: square"/>
    </g>
    <g id="text_25">
     <!-- H07 -->
     <g transform="translate(127 156.507187) scale(0.1 -0.1)">
      <use xlink:href="#DejaVuSans-48"/>
      <use xlink:href="#DejaVuSans-30" transform="translate(75.195312 0)"/>
      <use xlink:href="#DejaVuSans-37" transform="translate(138.818359 0)"/>
     </g>
    </g>
    <g id="line2d_50">
     <path d="M 99 167.685312 
L 109 167.685312 
L 119 167.685312 
" style="fill: none; stroke: #7f7f7f; stroke-width: 1.5; stroke-linecap: square"/>
    </g>
    <g id="text_26">
     <!-- H08 -->
     <g transform="translate(127 171.185312) scale(0.1 -0.1)">
      <use xlink:href="#DejaVuSans-48"/>
      <use xlink:href="#DejaVuSans-30" transform="translate(75.195312 0)"/>
      <use xlink:href="#DejaVuSans-38" transform="translate(138.818359 0)"/>
     </g>
    </g>
    <g id="line2d_51">
     <path d="M 99 182.363437 
L 109 182.363437 
L 119 182.363437 
" style="fill: none; stroke: #bcbd22; stroke-width: 1.5; stroke-linecap: square"/>
    </g>
    <g id="text_27">
     <!-- H09 -->
     <g transform="translate(127 185.863437) scale(0.1 -0.1)">
      <use xlink:href="#DejaVuSans-48"/>
      <use xlink:href="#DejaVuSans-30" transform="translate(75.195312 0)"/>
      <use xlink:href="#DejaVuSans-39" transform="translate(138.818359 0)"/>
     </g>
    </g>
    <g id="line2d_52">
     <path d="M 99 197.041562 
L 109 197.041562 
L 119 197.041562 
" style="fill: none; stroke: #17becf; stroke-width: 1.5; stroke-linecap: square"/>
    </g>
    <g id="text_28">
     <!-- H10 -->
     <g transform="translate(127 200.541562) scale(0.1 -0.1)">
      <use xlink:href="#DejaVuSans-48"/>
      <use xlink:href="#DejaVuSans-31" transform="translate(75.195312 0)"/>
      <use xlink:href="#DejaVuSans-30" transform="translate(138.818359 0)"/>
     </g>
    </g>
    <g id="line2d_53">
     <path d="M 99 211.719687 
L 109 211.719687 
L 119 211.719687 
" style="fill: none; stroke: #1f77b4; stroke-width: 1.5; stroke-linecap: square"/>
    </g>
    <g id="text_29">
     <!-- H11 -->
     <g transform="translate(127 215.219687) scale(0.1 -0.1)">
      <use xlink:href="#DejaVuSans-48"/>
      <use xlink:href="#DejaVuSans-31" transform="translate(75.195312 0)"/>
      <use xlink:href="#DejaVuSans-31" transform="translate(138.818359 0)"/>
     </g>
    </g>
    <g id="line2d_54">
     <path d="M 99 226.397812 
L 109 226.397812 
L 119 226.397812 
" style="fill: none; stroke: #ff7f0e; stroke-width: 1.5; stroke-linecap: square"/>
    </g>
    <g id="text_30">
     <!-- H12 -->
     <g transform="translate(127 229.897812) scale(0.1 -0.1)">
      <use xlink:href="#DejaVuSans-48"/>
      <use xlink:href="#DejaVuSans-31" transform="translate(75.195312 0)"/>
      <use xlink:href="#DejaVuSans-32" transform="translate(138.818359 0)"/>
     </g>
    </g>
   </g>
  </g>
 </g>
 <defs>
  <clipPath id="p661bebb623">
   <rect x="90" y="51.84" width="558" height="332.64"/>
  </clipPath>
 </defs>
</svg>
