<?xml version="1.0" encoding="utf-8" standalone="no"?>
<!DOCTYPE svg PUBLIC "-//W3C//DTD SVG 1.1//EN"
  "http://www.w3.org/Graphics/SVG/1.1/DTD/svg11.dtd">
<svg xmlns:xlink="http://www.w3.org/1999/xlink" width="720pt" height="432pt" viewBox="0 0 720 432" xmlns="http://www.w3.org/2000/svg" version="1.1">
 <metadata>
  <rdf:RDF xmlns:dc="http://purl.org/dc/elements/1.1/" xmlns:cc="http://creativecommons.org/ns#" xmlns:rdf="http://www.w3.org/1999/02/22-rdf-syntax-ns#">
   <cc:Work>
    <dc:type rdf:resource="http://purl.org/dc/dcmitype/StillImage"/>
    <dc:date>2025-01-14T22:19:21.139894</dc:date>
    <dc:format>image/svg+xml</dc:format>
    <dc:creator>
     <cc:Agent>
      <dc:title>Matplotlib v3.10.0, https://matplotlib.org/</dc:title>
     </cc:Agent>
    </dc:creator>
   </cc:Work>
  </rdf:RDF>
 </metadata>
 <defs>
  <style type="text/css">*{stroke-linejoin: round; stroke-linecap: butt}</style>
 </defs>
 <g id="figure_1">
  <g id="patch_1">
   <path d="M 0 432 
L 720 432 
L 720 0 
L 0 0 
z
" style="fill: #ffffff"/>
  </g>
  <g id="axes_1">
   <g id="patch_2">
    <path d="M 90 384.48 
L 648 384.48 
L 648 51.84 
L 90 51.84 
z
" style="fill: #ffffff"/>
   </g>
   <g id="matplotlib.axis_1">
    <g id="xtick_1">
     <g id="line2d_1">
      <path d="M 141.451948 384.48 
L 141.451948 51.84 
" clip-path="url(#p18f29ec874)" style="fill: none; stroke: #b0b0b0; stroke-width: 0.8; stroke-linecap: square"/>
     </g>
     <g id="line2d_2">
      <defs>
       <path id="m1850cd2ebe" d="M 0 0 
L 0 3.5 
" style="stroke: #000000; stroke-width: 0.8"/>
      </defs>
      <g>
       <use xlink:href="#m1850cd2ebe" x="141.451948" y="384.48" style="stroke: #000000; stroke-width: 0.8"/>
      </g>
     </g>
     <g id="text_1">
      <!-- 01-14 14 -->
      <g transform="translate(118.971479 399.078438) scale(0.1 -0.1)">
       <defs>
        <path id="DejaVuSans-30" d="M 2034 4250 
Q 1547 4250 1301 3770 
Q 1056 3291 1056 2328 
Q 1056 1369 1301 889 
Q 1547 409 2034 409 
Q 2525 409 2770 889 
Q 3016 1369 3016 2328 
Q 3016 3291 2770 3770 
Q 2525 4250 2034 4250 
z
M 2034 4750 
Q 2819 4750 3233 4129 
Q 3647 3509 3647 2328 
Q 3647 1150 3233 529 
Q 2819 -91 2034 -91 
Q 1250 -91 836 529 
Q 422 1150 422 2328 
Q 422 3509 836 4129 
Q 1250 4750 2034 4750 
z
" transform="scale(0.015625)"/>
        <path id="DejaVuSans-31" d="M 794 531 
L 1825 531 
L 1825 4091 
L 703 3866 
L 703 4441 
L 1819 4666 
L 2450 4666 
L 2450 531 
L 3481 531 
L 3481 0 
L 794 0 
L 794 531 
z
" transform="scale(0.015625)"/>
        <path id="DejaVuSans-2d" d="M 313 2009 
L 1997 2009 
L 1997 1497 
L 313 1497 
L 313 2009 
z
" transform="scale(0.015625)"/>
        <path id="DejaVuSans-34" d="M 2419 4116 
L 825 1625 
L 2419 1625 
L 2419 4116 
z
M 2253 4666 
L 3047 4666 
L 3047 1625 
L 3713 1625 
L 3713 1100 
L 3047 1100 
L 3047 0 
L 2419 0 
L 2419 1100 
L 313 1100 
L 313 1709 
L 2253 4666 
z
" transform="scale(0.015625)"/>
        <path id="DejaVuSans-20" transform="scale(0.015625)"/>
       </defs>
       <use xlink:href="#DejaVuSans-30"/>
       <use xlink:href="#DejaVuSans-31" transform="translate(63.623047 0)"/>
       <use xlink:href="#DejaVuSans-2d" transform="translate(127.246094 0)"/>
       <use xlink:href="#DejaVuSans-31" transform="translate(163.330078 0)"/>
       <use xlink:href="#DejaVuSans-34" transform="translate(226.953125 0)"/>
       <use xlink:href="#DejaVuSans-20" transform="translate(290.576172 0)"/>
       <use xlink:href="#DejaVuSans-31" transform="translate(322.363281 0)"/>
       <use xlink:href="#DejaVuSans-34" transform="translate(385.986328 0)"/>
      </g>
     </g>
    </g>
    <g id="xtick_2">
     <g id="line2d_3">
      <path d="M 199.425974 384.48 
L 199.425974 51.84 
" clip-path="url(#p18f29ec874)" style="fill: none; stroke: #b0b0b0; stroke-width: 0.8; stroke-linecap: square"/>
     </g>
     <g id="line2d_4">
      <g>
       <use xlink:href="#m1850cd2ebe" x="199.425974" y="384.48" style="stroke: #000000; stroke-width: 0.8"/>
      </g>
     </g>
     <g id="text_2">
      <!-- 01-14 15 -->
      <g transform="translate(176.945505 399.078438) scale(0.1 -0.1)">
       <defs>
        <path id="DejaVuSans-35" d="M 691 4666 
L 3169 4666 
L 3169 4134 
L 1269 4134 
L 1269 2991 
Q 1406 3038 1543 3061 
Q 1681 3084 1819 3084 
Q 2600 3084 3056 2656 
Q 3513 2228 3513 1497 
Q 3513 744 3044 326 
Q 2575 -91 1722 -91 
Q 1428 -91 1123 -41 
Q 819 9 494 109 
L 494 744 
Q 775 591 1075 516 
Q 1375 441 1709 441 
Q 2250 441 2565 725 
Q 2881 1009 2881 1497 
Q 2881 1984 2565 2268 
Q 2250 2553 1709 2553 
Q 1456 2553 1204 2497 
Q 953 2441 691 2322 
L 691 4666 
z
" transform="scale(0.015625)"/>
       </defs>
       <use xlink:href="#DejaVuSans-30"/>
       <use xlink:href="#DejaVuSans-31" transform="translate(63.623047 0)"/>
       <use xlink:href="#DejaVuSans-2d" transform="translate(127.246094 0)"/>
       <use xlink:href="#DejaVuSans-31" transform="translate(163.330078 0)"/>
       <use xlink:href="#DejaVuSans-34" transform="translate(226.953125 0)"/>
       <use xlink:href="#DejaVuSans-20" transform="translate(290.576172 0)"/>
       <use xlink:href="#DejaVuSans-31" transform="translate(322.363281 0)"/>
       <use xlink:href="#DejaVuSans-35" transform="translate(385.986328 0)"/>
      </g>
     </g>
    </g>
    <g id="xtick_3">
     <g id="line2d_5">
      <path d="M 257.4 384.48 
L 257.4 51.84 
" clip-path="url(#p18f29ec874)" style="fill: none; stroke: #b0b0b0; stroke-width: 0.8; stroke-linecap: square"/>
     </g>
     <g id="line2d_6">
      <g>
       <use xlink:href="#m1850cd2ebe" x="257.4" y="384.48" style="stroke: #000000; stroke-width: 0.8"/>
      </g>
     </g>
     <g id="text_3">
      <!-- 01-14 16 -->
      <g transform="translate(234.919531 399.078438) scale(0.1 -0.1)">
       <defs>
        <path id="DejaVuSans-36" d="M 2113 2584 
Q 1688 2584 1439 2293 
Q 1191 2003 1191 1497 
Q 1191 994 1439 701 
Q 1688 409 2113 409 
Q 2538 409 2786 701 
Q 3034 994 3034 1497 
Q 3034 2003 2786 2293 
Q 2538 2584 2113 2584 
z
M 3366 4563 
L 3366 3988 
Q 3128 4100 2886 4159 
Q 2644 4219 2406 4219 
Q 1781 4219 1451 3797 
Q 1122 3375 1075 2522 
Q 1259 2794 1537 2939 
Q 1816 3084 2150 3084 
Q 2853 3084 3261 2657 
Q 3669 2231 3669 1497 
Q 3669 778 3244 343 
Q 2819 -91 2113 -91 
Q 1303 -91 875 529 
Q 447 1150 447 2328 
Q 447 3434 972 4092 
Q 1497 4750 2381 4750 
Q 2619 4750 2861 4703 
Q 3103 4656 3366 4563 
z
" transform="scale(0.015625)"/>
       </defs>
       <use xlink:href="#DejaVuSans-30"/>
       <use xlink:href="#DejaVuSans-31" transform="translate(63.623047 0)"/>
       <use xlink:href="#DejaVuSans-2d" transform="translate(127.246094 0)"/>
       <use xlink:href="#DejaVuSans-31" transform="translate(163.330078 0)"/>
       <use xlink:href="#DejaVuSans-34" transform="translate(226.953125 0)"/>
       <use xlink:href="#DejaVuSans-20" transform="translate(290.576172 0)"/>
       <use xlink:href="#DejaVuSans-31" transform="translate(322.363281 0)"/>
       <use xlink:href="#DejaVuSans-36" transform="translate(385.986328 0)"/>
      </g>
     </g>
    </g>
    <g id="xtick_4">
     <g id="line2d_7">
      <path d="M 315.374026 384.48 
L 315.374026 51.84 
" clip-path="url(#p18f29ec874)" style="fill: none; stroke: #b0b0b0; stroke-width: 0.8; stroke-linecap: square"/>
     </g>
     <g id="line2d_8">
      <g>
       <use xlink:href="#m1850cd2ebe" x="315.374026" y="384.48" style="stroke: #000000; stroke-width: 0.8"/>
      </g>
     </g>
     <g id="text_4">
      <!-- 01-14 17 -->
      <g transform="translate(292.893557 399.078438) scale(0.1 -0.1)">
       <defs>
        <path id="DejaVuSans-37" d="M 525 4666 
L 3525 4666 
L 3525 4397 
L 1831 0 
L 1172 0 
L 2766 4134 
L 525 4134 
L 525 4666 
z
" transform="scale(0.015625)"/>
       </defs>
       <use xlink:href="#DejaVuSans-30"/>
       <use xlink:href="#DejaVuSans-31" transform="translate(63.623047 0)"/>
       <use xlink:href="#DejaVuSans-2d" transform="translate(127.246094 0)"/>
       <use xlink:href="#DejaVuSans-31" transform="translate(163.330078 0)"/>
       <use xlink:href="#DejaVuSans-34" transform="translate(226.953125 0)"/>
       <use xlink:href="#DejaVuSans-20" transform="translate(290.576172 0)"/>
       <use xlink:href="#DejaVuSans-31" transform="translate(322.363281 0)"/>
       <use xlink:href="#DejaVuSans-37" transform="translate(385.986328 0)"/>
      </g>
     </g>
    </g>
    <g id="xtick_5">
     <g id="line2d_9">
      <path d="M 373.348052 384.48 
L 373.348052 51.84 
" clip-path="url(#p18f29ec874)" style="fill: none; stroke: #b0b0b0; stroke-width: 0.8; stroke-linecap: square"/>
     </g>
     <g id="line2d_10">
      <g>
       <use xlink:href="#m1850cd2ebe" x="373.348052" y="384.48" style="stroke: #000000; stroke-width: 0.8"/>
      </g>
     </g>
     <g id="text_5">
      <!-- 01-14 18 -->
      <g transform="translate(350.867583 399.078438) scale(0.1 -0.1)">
       <defs>
        <path id="DejaVuSans-38" d="M 2034 2216 
Q 1584 2216 1326 1975 
Q 1069 1734 1069 1313 
Q 1069 891 1326 650 
Q 1584 409 2034 409 
Q 2484 409 2743 651 
Q 3003 894 3003 1313 
Q 3003 1734 2745 1975 
Q 2488 2216 2034 2216 
z
M 1403 2484 
Q 997 2584 770 2862 
Q 544 3141 544 3541 
Q 544 4100 942 4425 
Q 1341 4750 2034 4750 
Q 2731 4750 3128 4425 
Q 3525 4100 3525 3541 
Q 3525 3141 3298 2862 
Q 3072 2584 2669 2484 
Q 3125 2378 3379 2068 
Q 3634 1759 3634 1313 
Q 3634 634 3220 271 
Q 2806 -91 2034 -91 
Q 1263 -91 848 271 
Q 434 634 434 1313 
Q 434 1759 690 2068 
Q 947 2378 1403 2484 
z
M 1172 3481 
Q 1172 3119 1398 2916 
Q 1625 2713 2034 2713 
Q 2441 2713 2670 2916 
Q 2900 3119 2900 3481 
Q 2900 3844 2670 4047 
Q 2441 4250 2034 4250 
Q 1625 4250 1398 4047 
Q 1172 3844 1172 3481 
z
" transform="scale(0.015625)"/>
       </defs>
       <use xlink:href="#DejaVuSans-30"/>
       <use xlink:href="#DejaVuSans-31" transform="translate(63.623047 0)"/>
       <use xlink:href="#DejaVuSans-2d" transform="translate(127.246094 0)"/>
       <use xlink:href="#DejaVuSans-31" transform="translate(163.330078 0)"/>
       <use xlink:href="#DejaVuSans-34" transform="translate(226.953125 0)"/>
       <use xlink:href="#DejaVuSans-20" transform="translate(290.576172 0)"/>
       <use xlink:href="#DejaVuSans-31" transform="translate(322.363281 0)"/>
       <use xlink:href="#DejaVuSans-38" transform="translate(385.986328 0)"/>
      </g>
     </g>
    </g>
    <g id="xtick_6">
     <g id="line2d_11">
      <path d="M 431.322078 384.48 
L 431.322078 51.84 
" clip-path="url(#p18f29ec874)" style="fill: none; stroke: #b0b0b0; stroke-width: 0.8; stroke-linecap: square"/>
     </g>
     <g id="line2d_12">
      <g>
       <use xlink:href="#m1850cd2ebe" x="431.322078" y="384.48" style="stroke: #000000; stroke-width: 0.8"/>
      </g>
     </g>
     <g id="text_6">
      <!-- 01-14 19 -->
      <g transform="translate(408.841609 399.078438) scale(0.1 -0.1)">
       <defs>
        <path id="DejaVuSans-39" d="M 703 97 
L 703 672 
Q 941 559 1184 500 
Q 1428 441 1663 441 
Q 2288 441 2617 861 
Q 2947 1281 2994 2138 
Q 2813 1869 2534 1725 
Q 2256 1581 1919 1581 
Q 1219 1581 811 2004 
Q 403 2428 403 3163 
Q 403 3881 828 4315 
Q 1253 4750 1959 4750 
Q 2769 4750 3195 4129 
Q 3622 3509 3622 2328 
Q 3622 1225 3098 567 
Q 2575 -91 1691 -91 
Q 1453 -91 1209 -44 
Q 966 3 703 97 
z
M 1959 2075 
Q 2384 2075 2632 2365 
Q 2881 2656 2881 3163 
Q 2881 3666 2632 3958 
Q 2384 4250 1959 4250 
Q 1534 4250 1286 3958 
Q 1038 3666 1038 3163 
Q 1038 2656 1286 2365 
Q 1534 2075 1959 2075 
z
" transform="scale(0.015625)"/>
       </defs>
       <use xlink:href="#DejaVuSans-30"/>
       <use xlink:href="#DejaVuSans-31" transform="translate(63.623047 0)"/>
       <use xlink:href="#DejaVuSans-2d" transform="translate(127.246094 0)"/>
       <use xlink:href="#DejaVuSans-31" transform="translate(163.330078 0)"/>
       <use xlink:href="#DejaVuSans-34" transform="translate(226.953125 0)"/>
       <use xlink:href="#DejaVuSans-20" transform="translate(290.576172 0)"/>
       <use xlink:href="#DejaVuSans-31" transform="translate(322.363281 0)"/>
       <use xlink:href="#DejaVuSans-39" transform="translate(385.986328 0)"/>
      </g>
     </g>
    </g>
    <g id="xtick_7">
     <g id="line2d_13">
      <path d="M 489.296104 384.48 
L 489.296104 51.84 
" clip-path="url(#p18f29ec874)" style="fill: none; stroke: #b0b0b0; stroke-width: 0.8; stroke-linecap: square"/>
     </g>
     <g id="line2d_14">
      <g>
       <use xlink:href="#m1850cd2ebe" x="489.296104" y="384.48" style="stroke: #000000; stroke-width: 0.8"/>
      </g>
     </g>
     <g id="text_7">
      <!-- 01-14 20 -->
      <g transform="translate(466.815635 399.078438) scale(0.1 -0.1)">
       <defs>
        <path id="DejaVuSans-32" d="M 1228 531 
L 3431 531 
L 3431 0 
L 469 0 
L 469 531 
Q 828 903 1448 1529 
Q 2069 2156 2228 2338 
Q 2531 2678 2651 2914 
Q 2772 3150 2772 3378 
Q 2772 3750 2511 3984 
Q 2250 4219 1831 4219 
Q 1534 4219 1204 4116 
Q 875 4013 500 3803 
L 500 4441 
Q 881 4594 1212 4672 
Q 1544 4750 1819 4750 
Q 2544 4750 2975 4387 
Q 3406 4025 3406 3419 
Q 3406 3131 3298 2873 
Q 3191 2616 2906 2266 
Q 2828 2175 2409 1742 
Q 1991 1309 1228 531 
z
" transform="scale(0.015625)"/>
       </defs>
       <use xlink:href="#DejaVuSans-30"/>
       <use xlink:href="#DejaVuSans-31" transform="translate(63.623047 0)"/>
       <use xlink:href="#DejaVuSans-2d" transform="translate(127.246094 0)"/>
       <use xlink:href="#DejaVuSans-31" transform="translate(163.330078 0)"/>
       <use xlink:href="#DejaVuSans-34" transform="translate(226.953125 0)"/>
       <use xlink:href="#DejaVuSans-20" transform="translate(290.576172 0)"/>
       <use xlink:href="#DejaVuSans-32" transform="translate(322.363281 0)"/>
       <use xlink:href="#DejaVuSans-30" transform="translate(385.986328 0)"/>
      </g>
     </g>
    </g>
    <g id="xtick_8">
     <g id="line2d_15">
      <path d="M 547.27013 384.48 
L 547.27013 51.84 
" clip-path="url(#p18f29ec874)" style="fill: none; stroke: #b0b0b0; stroke-width: 0.8; stroke-linecap: square"/>
     </g>
     <g id="line2d_16">
      <g>
       <use xlink:href="#m1850cd2ebe" x="547.27013" y="384.48" style="stroke: #000000; stroke-width: 0.8"/>
      </g>
     </g>
     <g id="text_8">
      <!-- 01-14 21 -->
      <g transform="translate(524.789661 399.078438) scale(0.1 -0.1)">
       <use xlink:href="#DejaVuSans-30"/>
       <use xlink:href="#DejaVuSans-31" transform="translate(63.623047 0)"/>
       <use xlink:href="#DejaVuSans-2d" transform="translate(127.246094 0)"/>
       <use xlink:href="#DejaVuSans-31" transform="translate(163.330078 0)"/>
       <use xlink:href="#DejaVuSans-34" transform="translate(226.953125 0)"/>
       <use xlink:href="#DejaVuSans-20" transform="translate(290.576172 0)"/>
       <use xlink:href="#DejaVuSans-32" transform="translate(322.363281 0)"/>
       <use xlink:href="#DejaVuSans-31" transform="translate(385.986328 0)"/>
      </g>
     </g>
    </g>
    <g id="xtick_9">
     <g id="line2d_17">
      <path d="M 605.244156 384.48 
L 605.244156 51.84 
" clip-path="url(#p18f29ec874)" style="fill: none; stroke: #b0b0b0; stroke-width: 0.8; stroke-linecap: square"/>
     </g>
     <g id="line2d_18">
      <g>
       <use xlink:href="#m1850cd2ebe" x="605.244156" y="384.48" style="stroke: #000000; stroke-width: 0.8"/>
      </g>
     </g>
     <g id="text_9">
      <!-- 01-14 22 -->
      <g transform="translate(582.763687 399.078438) scale(0.1 -0.1)">
       <use xlink:href="#DejaVuSans-30"/>
       <use xlink:href="#DejaVuSans-31" transform="translate(63.623047 0)"/>
       <use xlink:href="#DejaVuSans-2d" transform="translate(127.246094 0)"/>
       <use xlink:href="#DejaVuSans-31" transform="translate(163.330078 0)"/>
       <use xlink:href="#DejaVuSans-34" transform="translate(226.953125 0)"/>
       <use xlink:href="#DejaVuSans-20" transform="translate(290.576172 0)"/>
       <use xlink:href="#DejaVuSans-32" transform="translate(322.363281 0)"/>
       <use xlink:href="#DejaVuSans-32" transform="translate(385.986328 0)"/>
      </g>
     </g>
    </g>
    <g id="text_10">
     <!-- Date and Time -->
     <g transform="translate(332.230469 412.756563) scale(0.1 -0.1)">
      <defs>
       <path id="DejaVuSans-44" d="M 1259 4147 
L 1259 519 
L 2022 519 
Q 2988 519 3436 956 
Q 3884 1394 3884 2338 
Q 3884 3275 3436 3711 
Q 2988 4147 2022 4147 
L 1259 4147 
z
M 628 4666 
L 1925 4666 
Q 3281 4666 3915 4102 
Q 4550 3538 4550 2338 
Q 4550 1131 3912 565 
Q 3275 0 1925 0 
L 628 0 
L 628 4666 
z
" transform="scale(0.015625)"/>
       <path id="DejaVuSans-61" d="M 2194 1759 
Q 1497 1759 1228 1600 
Q 959 1441 959 1056 
Q 959 750 1161 570 
Q 1363 391 1709 391 
Q 2188 391 2477 730 
Q 2766 1069 2766 1631 
L 2766 1759 
L 2194 1759 
z
M 3341 1997 
L 3341 0 
L 2766 0 
L 2766 531 
Q 2569 213 2275 61 
Q 1981 -91 1556 -91 
Q 1019 -91 701 211 
Q 384 513 384 1019 
Q 384 1609 779 1909 
Q 1175 2209 1959 2209 
L 2766 2209 
L 2766 2266 
Q 2766 2663 2505 2880 
Q 2244 3097 1772 3097 
Q 1472 3097 1187 3025 
Q 903 2953 641 2809 
L 641 3341 
Q 956 3463 1253 3523 
Q 1550 3584 1831 3584 
Q 2591 3584 2966 3190 
Q 3341 2797 3341 1997 
z
" transform="scale(0.015625)"/>
       <path id="DejaVuSans-74" d="M 1172 4494 
L 1172 3500 
L 2356 3500 
L 2356 3053 
L 1172 3053 
L 1172 1153 
Q 1172 725 1289 603 
Q 1406 481 1766 481 
L 2356 481 
L 2356 0 
L 1766 0 
Q 1100 0 847 248 
Q 594 497 594 1153 
L 594 3053 
L 172 3053 
L 172 3500 
L 594 3500 
L 594 4494 
L 1172 4494 
z
" transform="scale(0.015625)"/>
       <path id="DejaVuSans-65" d="M 3597 1894 
L 3597 1613 
L 953 1613 
Q 991 1019 1311 708 
Q 1631 397 2203 397 
Q 2534 397 2845 478 
Q 3156 559 3463 722 
L 3463 178 
Q 3153 47 2828 -22 
Q 2503 -91 2169 -91 
Q 1331 -91 842 396 
Q 353 884 353 1716 
Q 353 2575 817 3079 
Q 1281 3584 2069 3584 
Q 2775 3584 3186 3129 
Q 3597 2675 3597 1894 
z
M 3022 2063 
Q 3016 2534 2758 2815 
Q 2500 3097 2075 3097 
Q 1594 3097 1305 2825 
Q 1016 2553 972 2059 
L 3022 2063 
z
" transform="scale(0.015625)"/>
       <path id="DejaVuSans-6e" d="M 3513 2113 
L 3513 0 
L 2938 0 
L 2938 2094 
Q 2938 2591 2744 2837 
Q 2550 3084 2163 3084 
Q 1697 3084 1428 2787 
Q 1159 2491 1159 1978 
L 1159 0 
L 581 0 
L 581 3500 
L 1159 3500 
L 1159 2956 
Q 1366 3272 1645 3428 
Q 1925 3584 2291 3584 
Q 2894 3584 3203 3211 
Q 3513 2838 3513 2113 
z
" transform="scale(0.015625)"/>
       <path id="DejaVuSans-64" d="M 2906 2969 
L 2906 4863 
L 3481 4863 
L 3481 0 
L 2906 0 
L 2906 525 
Q 2725 213 2448 61 
Q 2172 -91 1784 -91 
Q 1150 -91 751 415 
Q 353 922 353 1747 
Q 353 2572 751 3078 
Q 1150 3584 1784 3584 
Q 2172 3584 2448 3432 
Q 2725 3281 2906 2969 
z
M 947 1747 
Q 947 1113 1208 752 
Q 1469 391 1925 391 
Q 2381 391 2643 752 
Q 2906 1113 2906 1747 
Q 2906 2381 2643 2742 
Q 2381 3103 1925 3103 
Q 1469 3103 1208 2742 
Q 947 2381 947 1747 
z
" transform="scale(0.015625)"/>
       <path id="DejaVuSans-54" d="M -19 4666 
L 3928 4666 
L 3928 4134 
L 2272 4134 
L 2272 0 
L 1638 0 
L 1638 4134 
L -19 4134 
L -19 4666 
z
" transform="scale(0.015625)"/>
       <path id="DejaVuSans-69" d="M 603 3500 
L 1178 3500 
L 1178 0 
L 603 0 
L 603 3500 
z
M 603 4863 
L 1178 4863 
L 1178 4134 
L 603 4134 
L 603 4863 
z
" transform="scale(0.015625)"/>
       <path id="DejaVuSans-6d" d="M 3328 2828 
Q 3544 3216 3844 3400 
Q 4144 3584 4550 3584 
Q 5097 3584 5394 3201 
Q 5691 2819 5691 2113 
L 5691 0 
L 5113 0 
L 5113 2094 
Q 5113 2597 4934 2840 
Q 4756 3084 4391 3084 
Q 3944 3084 3684 2787 
Q 3425 2491 3425 1978 
L 3425 0 
L 2847 0 
L 2847 2094 
Q 2847 2600 2669 2842 
Q 2491 3084 2119 3084 
Q 1678 3084 1418 2786 
Q 1159 2488 1159 1978 
L 1159 0 
L 581 0 
L 581 3500 
L 1159 3500 
L 1159 2956 
Q 1356 3278 1631 3431 
Q 1906 3584 2284 3584 
Q 2666 3584 2933 3390 
Q 3200 3197 3328 2828 
z
" transform="scale(0.015625)"/>
      </defs>
      <use xlink:href="#DejaVuSans-44"/>
      <use xlink:href="#DejaVuSans-61" transform="translate(77.001953 0)"/>
      <use xlink:href="#DejaVuSans-74" transform="translate(138.28125 0)"/>
      <use xlink:href="#DejaVuSans-65" transform="translate(177.490234 0)"/>
      <use xlink:href="#DejaVuSans-20" transform="translate(239.013672 0)"/>
      <use xlink:href="#DejaVuSans-61" transform="translate(270.800781 0)"/>
      <use xlink:href="#DejaVuSans-6e" transform="translate(332.080078 0)"/>
      <use xlink:href="#DejaVuSans-64" transform="translate(395.458984 0)"/>
      <use xlink:href="#DejaVuSans-20" transform="translate(458.935547 0)"/>
      <use xlink:href="#DejaVuSans-54" transform="translate(490.722656 0)"/>
      <use xlink:href="#DejaVuSans-69" transform="translate(548.681641 0)"/>
      <use xlink:href="#DejaVuSans-6d" transform="translate(576.464844 0)"/>
      <use xlink:href="#DejaVuSans-65" transform="translate(673.876953 0)"/>
     </g>
    </g>
   </g>
   <g id="matplotlib.axis_2">
    <g id="ytick_1">
     <g id="line2d_19">
      <path d="M 90 370.354737 
L 648 370.354737 
" clip-path="url(#p18f29ec874)" style="fill: none; stroke: #b0b0b0; stroke-width: 0.8; stroke-linecap: square"/>
     </g>
     <g id="line2d_20">
      <defs>
       <path id="meef5da52b2" d="M 0 0 
L -3.5 0 
" style="stroke: #000000; stroke-width: 0.8"/>
      </defs>
      <g>
       <use xlink:href="#meef5da52b2" x="90" y="370.354737" style="stroke: #000000; stroke-width: 0.8"/>
      </g>
     </g>
     <g id="text_11">
      <!-- 0 -->
      <g transform="translate(76.6375 374.153956) scale(0.1 -0.1)">
       <use xlink:href="#DejaVuSans-30"/>
      </g>
     </g>
    </g>
    <g id="ytick_2">
     <g id="line2d_21">
      <path d="M 90 320.617895 
L 648 320.617895 
" clip-path="url(#p18f29ec874)" style="fill: none; stroke: #b0b0b0; stroke-width: 0.8; stroke-linecap: square"/>
     </g>
     <g id="line2d_22">
      <g>
       <use xlink:href="#meef5da52b2" x="90" y="320.617895" style="stroke: #000000; stroke-width: 0.8"/>
      </g>
     </g>
     <g id="text_12">
      <!-- 50 -->
      <g transform="translate(70.275 324.417113) scale(0.1 -0.1)">
       <use xlink:href="#DejaVuSans-35"/>
       <use xlink:href="#DejaVuSans-30" transform="translate(63.623047 0)"/>
      </g>
     </g>
    </g>
    <g id="ytick_3">
     <g id="line2d_23">
      <path d="M 90 270.881053 
L 648 270.881053 
" clip-path="url(#p18f29ec874)" style="fill: none; stroke: #b0b0b0; stroke-width: 0.8; stroke-linecap: square"/>
     </g>
     <g id="line2d_24">
      <g>
       <use xlink:href="#meef5da52b2" x="90" y="270.881053" style="stroke: #000000; stroke-width: 0.8"/>
      </g>
     </g>
     <g id="text_13">
      <!-- 100 -->
      <g transform="translate(63.9125 274.680271) scale(0.1 -0.1)">
       <use xlink:href="#DejaVuSans-31"/>
       <use xlink:href="#DejaVuSans-30" transform="translate(63.623047 0)"/>
       <use xlink:href="#DejaVuSans-30" transform="translate(127.246094 0)"/>
      </g>
     </g>
    </g>
    <g id="ytick_4">
     <g id="line2d_25">
      <path d="M 90 221.144211 
L 648 221.144211 
" clip-path="url(#p18f29ec874)" style="fill: none; stroke: #b0b0b0; stroke-width: 0.8; stroke-linecap: square"/>
     </g>
     <g id="line2d_26">
      <g>
       <use xlink:href="#meef5da52b2" x="90" y="221.144211" style="stroke: #000000; stroke-width: 0.8"/>
      </g>
     </g>
     <g id="text_14">
      <!-- 150 -->
      <g transform="translate(63.9125 224.943429) scale(0.1 -0.1)">
       <use xlink:href="#DejaVuSans-31"/>
       <use xlink:href="#DejaVuSans-35" transform="translate(63.623047 0)"/>
       <use xlink:href="#DejaVuSans-30" transform="translate(127.246094 0)"/>
      </g>
     </g>
    </g>
    <g id="ytick_5">
     <g id="line2d_27">
      <path d="M 90 171.407368 
L 648 171.407368 
" clip-path="url(#p18f29ec874)" style="fill: none; stroke: #b0b0b0; stroke-width: 0.8; stroke-linecap: square"/>
     </g>
     <g id="line2d_28">
      <g>
       <use xlink:href="#meef5da52b2" x="90" y="171.407368" style="stroke: #000000; stroke-width: 0.8"/>
      </g>
     </g>
     <g id="text_15">
      <!-- 200 -->
      <g transform="translate(63.9125 175.206587) scale(0.1 -0.1)">
       <use xlink:href="#DejaVuSans-32"/>
       <use xlink:href="#DejaVuSans-30" transform="translate(63.623047 0)"/>
       <use xlink:href="#DejaVuSans-30" transform="translate(127.246094 0)"/>
      </g>
     </g>
    </g>
    <g id="ytick_6">
     <g id="line2d_29">
      <path d="M 90 121.670526 
L 648 121.670526 
" clip-path="url(#p18f29ec874)" style="fill: none; stroke: #b0b0b0; stroke-width: 0.8; stroke-linecap: square"/>
     </g>
     <g id="line2d_30">
      <g>
       <use xlink:href="#meef5da52b2" x="90" y="121.670526" style="stroke: #000000; stroke-width: 0.8"/>
      </g>
     </g>
     <g id="text_16">
      <!-- 250 -->
      <g transform="translate(63.9125 125.469745) scale(0.1 -0.1)">
       <use xlink:href="#DejaVuSans-32"/>
       <use xlink:href="#DejaVuSans-35" transform="translate(63.623047 0)"/>
       <use xlink:href="#DejaVuSans-30" transform="translate(127.246094 0)"/>
      </g>
     </g>
    </g>
    <g id="ytick_7">
     <g id="line2d_31">
      <path d="M 90 71.933684 
L 648 71.933684 
" clip-path="url(#p18f29ec874)" style="fill: none; stroke: #b0b0b0; stroke-width: 0.8; stroke-linecap: square"/>
     </g>
     <g id="line2d_32">
      <g>
       <use xlink:href="#meef5da52b2" x="90" y="71.933684" style="stroke: #000000; stroke-width: 0.8"/>
      </g>
     </g>
     <g id="text_17">
      <!-- 300 -->
      <g transform="translate(63.9125 75.732903) scale(0.1 -0.1)">
       <defs>
        <path id="DejaVuSans-33" d="M 2597 2516 
Q 3050 2419 3304 2112 
Q 3559 1806 3559 1356 
Q 3559 666 3084 287 
Q 2609 -91 1734 -91 
Q 1441 -91 1130 -33 
Q 819 25 488 141 
L 488 750 
Q 750 597 1062 519 
Q 1375 441 1716 441 
Q 2309 441 2620 675 
Q 2931 909 2931 1356 
Q 2931 1769 2642 2001 
Q 2353 2234 1838 2234 
L 1294 2234 
L 1294 2753 
L 1863 2753 
Q 2328 2753 2575 2939 
Q 2822 3125 2822 3475 
Q 2822 3834 2567 4026 
Q 2313 4219 1838 4219 
Q 1578 4219 1281 4162 
Q 984 4106 628 3988 
L 628 4550 
Q 988 4650 1302 4700 
Q 1616 4750 1894 4750 
Q 2613 4750 3031 4423 
Q 3450 4097 3450 3541 
Q 3450 3153 3228 2886 
Q 3006 2619 2597 2516 
z
" transform="scale(0.015625)"/>
       </defs>
       <use xlink:href="#DejaVuSans-33"/>
       <use xlink:href="#DejaVuSans-30" transform="translate(63.623047 0)"/>
       <use xlink:href="#DejaVuSans-30" transform="translate(127.246094 0)"/>
      </g>
     </g>
    </g>
    <g id="text_18">
     <!-- Votes -->
     <g transform="translate(57.832812 231.893594) rotate(-90) scale(0.1 -0.1)">
      <defs>
       <path id="DejaVuSans-56" d="M 1831 0 
L 50 4666 
L 709 4666 
L 2188 738 
L 3669 4666 
L 4325 4666 
L 2547 0 
L 1831 0 
z
" transform="scale(0.015625)"/>
       <path id="DejaVuSans-6f" d="M 1959 3097 
Q 1497 3097 1228 2736 
Q 959 2375 959 1747 
Q 959 1119 1226 758 
Q 1494 397 1959 397 
Q 2419 397 2687 759 
Q 2956 1122 2956 1747 
Q 2956 2369 2687 2733 
Q 2419 3097 1959 3097 
z
M 1959 3584 
Q 2709 3584 3137 3096 
Q 3566 2609 3566 1747 
Q 3566 888 3137 398 
Q 2709 -91 1959 -91 
Q 1206 -91 779 398 
Q 353 888 353 1747 
Q 353 2609 779 3096 
Q 1206 3584 1959 3584 
z
" transform="scale(0.015625)"/>
       <path id="DejaVuSans-73" d="M 2834 3397 
L 2834 2853 
Q 2591 2978 2328 3040 
Q 2066 3103 1784 3103 
Q 1356 3103 1142 2972 
Q 928 2841 928 2578 
Q 928 2378 1081 2264 
Q 1234 2150 1697 2047 
L 1894 2003 
Q 2506 1872 2764 1633 
Q 3022 1394 3022 966 
Q 3022 478 2636 193 
Q 2250 -91 1575 -91 
Q 1294 -91 989 -36 
Q 684 19 347 128 
L 347 722 
Q 666 556 975 473 
Q 1284 391 1588 391 
Q 1994 391 2212 530 
Q 2431 669 2431 922 
Q 2431 1156 2273 1281 
Q 2116 1406 1581 1522 
L 1381 1569 
Q 847 1681 609 1914 
Q 372 2147 372 2553 
Q 372 3047 722 3315 
Q 1072 3584 1716 3584 
Q 2034 3584 2315 3537 
Q 2597 3491 2834 3397 
z
" transform="scale(0.015625)"/>
      </defs>
      <use xlink:href="#DejaVuSans-56"/>
      <use xlink:href="#DejaVuSans-6f" transform="translate(60.658203 0)"/>
      <use xlink:href="#DejaVuSans-74" transform="translate(121.839844 0)"/>
      <use xlink:href="#DejaVuSans-65" transform="translate(161.048828 0)"/>
      <use xlink:href="#DejaVuSans-73" transform="translate(222.572266 0)"/>
     </g>
    </g>
   </g>
   <g id="line2d_33">
    <path d="M 115.363636 352.449474 
L 125.025974 352.449474 
L 125.992208 351.454737 
L 135.654545 351.454737 
L 136.620779 349.465263 
L 145.316883 349.465263 
L 146.283117 348.470526 
L 151.114286 348.470526 
L 152.080519 347.475789 
L 155.945455 347.475789 
L 156.911688 346.481053 
L 159.81039 346.481053 
L 160.776623 345.486316 
L 174.303896 345.486316 
L 175.27013 344.491579 
L 185.898701 344.491579 
L 187.831169 342.502105 
L 189.763636 342.502105 
L 190.72987 341.507368 
L 199.425974 341.507368 
L 201.358442 339.517895 
L 212.953247 339.517895 
L 213.919481 338.523158 
L 216.818182 338.523158 
L 217.784416 337.528421 
L 218.750649 337.528421 
L 219.716883 336.533684 
L 245.805195 336.533684 
L 246.771429 335.538947 
L 258.366234 335.538947 
L 259.332468 334.544211 
L 266.096104 334.544211 
L 267.062338 333.549474 
L 268.028571 331.56 
L 268.994805 331.56 
L 270.927273 329.570526 
L 286.387013 329.570526 
L 287.353247 328.575789 
L 293.150649 328.575789 
L 294.116883 327.581053 
L 297.981818 327.581053 
L 298.948052 326.586316 
L 308.61039 326.586316 
L 309.576623 325.591579 
L 311.509091 325.591579 
L 312.475325 324.596842 
L 315.374026 324.596842 
L 316.34026 323.602105 
L 324.07013 323.602105 
L 325.036364 322.607368 
L 326.002597 322.607368 
L 326.968831 321.612632 
L 336.631169 321.612632 
L 337.597403 320.617895 
L 344.361039 320.617895 
L 345.327273 319.623158 
L 346.293506 319.623158 
L 348.225974 317.633684 
L 369.483117 317.633684 
L 370.449351 316.638947 
L 385.909091 316.638947 
L 386.875325 315.644211 
L 387.841558 315.644211 
L 388.807792 314.649474 
L 397.503896 314.649474 
L 398.47013 313.654737 
L 399.436364 313.654737 
L 400.402597 312.66 
L 405.233766 312.66 
L 406.2 311.665263 
L 409.098701 311.665263 
L 411.031169 309.675789 
L 411.997403 309.675789 
L 412.963636 308.681053 
L 414.896104 308.681053 
L 415.862338 307.686316 
L 417.794805 307.686316 
L 418.761039 306.691579 
L 420.693506 306.691579 
L 421.65974 305.696842 
L 444.849351 305.696842 
L 445.815584 304.702105 
L 455.477922 304.702105 
L 456.444156 303.707368 
L 462.241558 303.707368 
L 463.207792 302.712632 
L 464.174026 302.712632 
L 465.14026 301.717895 
L 466.106494 301.717895 
L 469.971429 297.738947 
L 471.903896 297.738947 
L 472.87013 295.749474 
L 480.6 295.749474 
L 482.532468 293.76 
L 484.464935 293.76 
L 485.431169 292.765263 
L 489.296104 292.765263 
L 490.262338 291.770526 
L 497.025974 291.770526 
L 497.992208 290.775789 
L 499.924675 290.775789 
L 500.890909 289.781053 
L 506.688312 289.781053 
L 508.620779 287.791579 
L 515.384416 287.791579 
L 516.350649 286.796842 
L 519.249351 286.796842 
L 520.215584 285.802105 
L 522.148052 285.802105 
L 523.114286 283.812632 
L 526.979221 283.812632 
L 527.945455 281.823158 
L 528.911688 280.828421 
L 532.776623 280.828421 
L 533.742857 278.838947 
L 540.506494 278.838947 
L 541.472727 277.844211 
L 545.337662 277.844211 
L 546.303896 276.849474 
L 549.202597 276.849474 
L 550.168831 275.854737 
L 551.135065 273.865263 
L 553.067532 273.865263 
L 554.033766 272.870526 
L 569.493506 272.870526 
L 571.425974 270.881053 
L 584.953247 270.881053 
L 585.919481 269.886316 
L 591.716883 269.886316 
L 592.683117 268.891579 
L 605.244156 268.891579 
L 606.21039 267.896842 
L 614.906494 267.896842 
L 615.872727 266.902105 
L 622.636364 266.902105 
L 622.636364 266.902105 
" clip-path="url(#p18f29ec874)" style="fill: none; stroke: #1f77b4; stroke-width: 1.5; stroke-linecap: square"/>
   </g>
   <g id="line2d_34">
    <path d="M 115.363636 288.786316 
L 116.32987 287.791579 
L 119.228571 287.791579 
L 120.194805 286.796842 
L 121.161039 286.796842 
L 122.127273 285.802105 
L 123.093506 285.802105 
L 125.025974 283.812632 
L 125.992208 281.823158 
L 126.958442 281.823158 
L 128.890909 279.833684 
L 129.857143 279.833684 
L 130.823377 275.854737 
L 131.78961 273.865263 
L 132.755844 269.886316 
L 133.722078 266.902105 
L 136.620779 266.902105 
L 137.587013 263.917895 
L 138.553247 261.928421 
L 140.485714 259.938947 
L 141.451948 257.949474 
L 143.384416 255.96 
L 144.350649 253.970526 
L 147.249351 253.970526 
L 148.215584 248.996842 
L 149.181818 247.007368 
L 150.148052 246.012632 
L 151.114286 244.023158 
L 152.080519 243.028421 
L 153.046753 243.028421 
L 154.012987 240.044211 
L 154.979221 240.044211 
L 155.945455 238.054737 
L 156.911688 237.06 
L 157.877922 237.06 
L 158.844156 236.065263 
L 160.776623 236.065263 
L 161.742857 235.070526 
L 163.675325 235.070526 
L 164.641558 233.081053 
L 165.607792 233.081053 
L 166.574026 232.086316 
L 170.438961 232.086316 
L 171.405195 231.091579 
L 174.303896 231.091579 
L 175.27013 230.096842 
L 176.236364 230.096842 
L 177.202597 228.107368 
L 178.168831 228.107368 
L 179.135065 226.117895 
L 180.101299 225.123158 
L 183 225.123158 
L 183.966234 223.133684 
L 184.932468 222.138947 
L 185.898701 219.154737 
L 187.831169 217.165263 
L 195.561039 217.165263 
L 196.527273 214.181053 
L 197.493506 214.181053 
L 199.425974 212.191579 
L 200.392208 212.191579 
L 203.290909 209.207368 
L 205.223377 209.207368 
L 206.18961 208.212632 
L 208.122078 208.212632 
L 211.020779 205.228421 
L 212.953247 205.228421 
L 213.919481 204.233684 
L 218.750649 204.233684 
L 219.716883 203.238947 
L 221.649351 203.238947 
L 222.615584 202.244211 
L 234.21039 202.244211 
L 235.176623 200.254737 
L 237.109091 200.254737 
L 239.041558 198.265263 
L 240.007792 198.265263 
L 240.974026 197.270526 
L 246.771429 197.270526 
L 249.67013 194.286316 
L 250.636364 194.286316 
L 251.602597 193.291579 
L 252.568831 191.302105 
L 253.535065 191.302105 
L 254.501299 190.307368 
L 255.467532 190.307368 
L 259.332468 186.328421 
L 261.264935 186.328421 
L 262.231169 184.338947 
L 265.12987 184.338947 
L 266.096104 183.344211 
L 268.994805 183.344211 
L 269.961039 182.349474 
L 270.927273 182.349474 
L 271.893506 179.365263 
L 274.792208 179.365263 
L 275.758442 178.370526 
L 276.724675 176.381053 
L 278.657143 176.381053 
L 279.623377 175.386316 
L 281.555844 175.386316 
L 282.522078 174.391579 
L 283.488312 174.391579 
L 288.319481 169.417895 
L 290.251948 169.417895 
L 293.150649 166.433684 
L 296.049351 166.433684 
L 297.015584 164.444211 
L 297.981818 164.444211 
L 298.948052 163.449474 
L 301.846753 163.449474 
L 302.812987 162.454737 
L 311.509091 162.454737 
L 312.475325 161.46 
L 319.238961 161.46 
L 320.205195 160.465263 
L 322.137662 160.465263 
L 324.07013 158.475789 
L 328.901299 158.475789 
L 329.867532 157.481053 
L 334.698701 157.481053 
L 337.597403 154.496842 
L 350.158442 154.496842 
L 351.124675 152.507368 
L 352.090909 151.512632 
L 375.280519 151.512632 
L 376.246753 150.517895 
L 382.044156 150.517895 
L 383.976623 148.528421 
L 385.909091 148.528421 
L 386.875325 147.533684 
L 387.841558 147.533684 
L 389.774026 145.544211 
L 390.74026 145.544211 
L 391.706494 144.549474 
L 392.672727 144.549474 
L 394.605195 140.570526 
L 395.571429 139.575789 
L 400.402597 139.575789 
L 401.368831 136.591579 
L 402.335065 134.602105 
L 404.267532 134.602105 
L 406.2 132.612632 
L 411.031169 132.612632 
L 412.963636 130.623158 
L 414.896104 130.623158 
L 415.862338 129.628421 
L 417.794805 129.628421 
L 418.761039 128.633684 
L 419.727273 128.633684 
L 420.693506 127.638947 
L 421.65974 127.638947 
L 422.625974 126.644211 
L 423.592208 126.644211 
L 424.558442 125.649474 
L 426.490909 125.649474 
L 427.457143 123.66 
L 432.288312 123.66 
L 434.220779 121.670526 
L 443.883117 121.670526 
L 444.849351 120.675789 
L 445.815584 120.675789 
L 446.781818 119.681053 
L 447.748052 119.681053 
L 450.646753 116.696842 
L 452.579221 116.696842 
L 453.545455 115.702105 
L 472.87013 115.702105 
L 474.802597 113.712632 
L 478.667532 113.712632 
L 479.633766 112.717895 
L 480.6 112.717895 
L 481.566234 111.723158 
L 482.532468 111.723158 
L 483.498701 110.728421 
L 504.755844 110.728421 
L 505.722078 109.733684 
L 525.046753 109.733684 
L 526.012987 107.744211 
L 532.776623 107.744211 
L 534.709091 105.754737 
L 536.641558 105.754737 
L 537.607792 104.76 
L 539.54026 104.76 
L 541.472727 102.770526 
L 543.405195 102.770526 
L 544.371429 100.781053 
L 552.101299 100.781053 
L 553.067532 99.786316 
L 557.898701 99.786316 
L 558.864935 98.791579 
L 564.662338 98.791579 
L 565.628571 97.796842 
L 572.392208 97.796842 
L 574.324675 95.807368 
L 575.290909 95.807368 
L 576.257143 94.812632 
L 582.054545 94.812632 
L 583.020779 93.817895 
L 586.885714 93.817895 
L 587.851948 92.823158 
L 588.818182 92.823158 
L 589.784416 91.828421 
L 604.277922 91.828421 
L 607.176623 88.844211 
L 617.805195 88.844211 
L 618.771429 87.849474 
L 622.636364 87.849474 
L 622.636364 87.849474 
" clip-path="url(#p18f29ec874)" style="fill: none; stroke: #ff7f0e; stroke-width: 1.5; stroke-linecap: square"/>
   </g>
   <g id="line2d_35">
    <path d="M 115.363636 339.517895 
L 119.228571 339.517895 
L 120.194805 337.528421 
L 122.127273 337.528421 
L 123.093506 336.533684 
L 124.05974 334.544211 
L 125.025974 333.549474 
L 125.992208 330.565263 
L 126.958442 328.575789 
L 127.924675 327.581053 
L 128.890909 327.581053 
L 129.857143 325.591579 
L 130.823377 322.607368 
L 134.688312 322.607368 
L 135.654545 321.612632 
L 136.620779 321.612632 
L 137.587013 319.623158 
L 140.485714 319.623158 
L 142.418182 317.633684 
L 146.283117 317.633684 
L 147.249351 316.638947 
L 151.114286 316.638947 
L 154.012987 313.654737 
L 158.844156 313.654737 
L 159.81039 312.66 
L 162.709091 312.66 
L 163.675325 311.665263 
L 165.607792 311.665263 
L 166.574026 309.675789 
L 174.303896 309.675789 
L 175.27013 308.681053 
L 176.236364 306.691579 
L 177.202597 305.696842 
L 178.168831 305.696842 
L 179.135065 304.702105 
L 181.067532 304.702105 
L 182.033766 303.707368 
L 183.966234 303.707368 
L 184.932468 302.712632 
L 190.72987 302.712632 
L 191.696104 301.717895 
L 192.662338 301.717895 
L 193.628571 300.723158 
L 194.594805 300.723158 
L 195.561039 299.728421 
L 198.45974 299.728421 
L 199.425974 298.733684 
L 200.392208 296.744211 
L 205.223377 296.744211 
L 208.122078 293.76 
L 211.020779 293.76 
L 211.987013 292.765263 
L 215.851948 292.765263 
L 216.818182 291.770526 
L 217.784416 291.770526 
L 218.750649 290.775789 
L 220.683117 290.775789 
L 221.649351 289.781053 
L 224.548052 289.781053 
L 226.480519 287.791579 
L 227.446753 287.791579 
L 228.412987 286.796842 
L 236.142857 286.796842 
L 237.109091 284.807368 
L 238.075325 283.812632 
L 245.805195 283.812632 
L 246.771429 282.817895 
L 249.67013 282.817895 
L 250.636364 281.823158 
L 253.535065 281.823158 
L 254.501299 280.828421 
L 264.163636 280.828421 
L 265.12987 279.833684 
L 268.994805 279.833684 
L 269.961039 278.838947 
L 275.758442 278.838947 
L 276.724675 277.844211 
L 278.657143 277.844211 
L 279.623377 276.849474 
L 283.488312 276.849474 
L 285.420779 274.86 
L 303.779221 274.86 
L 304.745455 273.865263 
L 305.711688 273.865263 
L 306.677922 272.870526 
L 309.576623 272.870526 
L 310.542857 271.875789 
L 315.374026 271.875789 
L 316.34026 270.881053 
L 318.272727 270.881053 
L 319.238961 269.886316 
L 325.036364 269.886316 
L 326.002597 270.881053 
L 326.968831 269.886316 
L 333.732468 269.886316 
L 334.698701 268.891579 
L 342.428571 268.891579 
L 343.394805 267.896842 
L 345.327273 267.896842 
L 346.293506 266.902105 
L 347.25974 266.902105 
L 348.225974 265.907368 
L 354.98961 265.907368 
L 355.955844 264.912632 
L 361.753247 264.912632 
L 362.719481 263.917895 
L 377.212987 263.917895 
L 378.179221 262.923158 
L 399.436364 262.923158 
L 400.402597 261.928421 
L 410.064935 261.928421 
L 411.031169 260.933684 
L 426.490909 260.933684 
L 428.423377 258.944211 
L 445.815584 258.944211 
L 446.781818 257.949474 
L 447.748052 255.96 
L 467.072727 255.96 
L 468.038961 254.965263 
L 469.971429 254.965263 
L 470.937662 253.970526 
L 476.735065 253.970526 
L 477.701299 252.975789 
L 480.6 252.975789 
L 482.532468 250.986316 
L 484.464935 250.986316 
L 485.431169 249.991579 
L 489.296104 249.991579 
L 490.262338 248.002105 
L 493.161039 248.002105 
L 494.127273 247.007368 
L 495.093506 247.007368 
L 497.025974 245.017895 
L 509.587013 245.017895 
L 510.553247 244.023158 
L 522.148052 244.023158 
L 523.114286 242.033684 
L 530.844156 242.033684 
L 532.776623 240.044211 
L 542.438961 240.044211 
L 545.337662 237.06 
L 548.236364 237.06 
L 549.202597 236.065263 
L 551.135065 236.065263 
L 552.101299 235.070526 
L 560.797403 235.070526 
L 561.763636 234.075789 
L 570.45974 234.075789 
L 571.425974 233.081053 
L 578.18961 233.081053 
L 580.122078 231.091579 
L 586.885714 231.091579 
L 587.851948 230.096842 
L 597.514286 230.096842 
L 598.480519 229.102105 
L 599.446753 229.102105 
L 600.412987 228.107368 
L 612.007792 228.107368 
L 612.974026 227.112632 
L 615.872727 227.112632 
L 616.838961 226.117895 
L 622.636364 226.117895 
L 622.636364 226.117895 
" clip-path="url(#p18f29ec874)" style="fill: none; stroke: #2ca02c; stroke-width: 1.5; stroke-linecap: square"/>
   </g>
   <g id="line2d_36">
    <path d="M 115.363636 369.36 
L 354.023377 369.36 
L 354.98961 368.365263 
L 559.831169 368.365263 
L 560.797403 367.370526 
L 622.636364 367.370526 
L 622.636364 367.370526 
" clip-path="url(#p18f29ec874)" style="fill: none; stroke: #d62728; stroke-width: 1.5; stroke-linecap: square"/>
   </g>
   <g id="line2d_37">
    <path d="M 115.363636 347.475789 
L 118.262338 347.475789 
L 119.228571 346.481053 
L 125.025974 346.481053 
L 125.992208 345.486316 
L 131.78961 345.486316 
L 132.755844 344.491579 
L 154.012987 344.491579 
L 154.979221 343.496842 
L 189.763636 343.496842 
L 191.696104 341.507368 
L 199.425974 341.507368 
L 200.392208 340.512632 
L 204.257143 340.512632 
L 205.223377 339.517895 
L 207.155844 339.517895 
L 208.122078 338.523158 
L 233.244156 338.523158 
L 234.21039 337.528421 
L 273.825974 337.528421 
L 274.792208 336.533684 
L 400.402597 336.533684 
L 401.368831 335.538947 
L 402.335065 335.538947 
L 403.301299 334.544211 
L 464.174026 334.544211 
L 465.14026 333.549474 
L 619.737662 333.549474 
L 620.703896 332.554737 
L 622.636364 332.554737 
L 622.636364 332.554737 
" clip-path="url(#p18f29ec874)" style="fill: none; stroke: #9467bd; stroke-width: 1.5; stroke-linecap: square"/>
   </g>
   <g id="line2d_38">
    <path d="M 115.363636 355.433684 
L 116.32987 355.433684 
L 117.296104 354.438947 
L 130.823377 354.438947 
L 131.78961 353.444211 
L 143.384416 353.444211 
L 144.350649 352.449474 
L 158.844156 352.449474 
L 160.776623 350.46 
L 171.405195 350.46 
L 172.371429 349.465263 
L 201.358442 349.465263 
L 202.324675 348.470526 
L 211.020779 348.470526 
L 211.987013 347.475789 
L 228.412987 347.475789 
L 229.379221 346.481053 
L 244.838961 346.481053 
L 245.805195 345.486316 
L 249.67013 345.486316 
L 250.636364 344.491579 
L 259.332468 344.491579 
L 260.298701 343.496842 
L 283.488312 343.496842 
L 284.454545 342.502105 
L 290.251948 342.502105 
L 291.218182 341.507368 
L 297.015584 341.507368 
L 297.981818 340.512632 
L 301.846753 340.512632 
L 302.812987 339.517895 
L 338.563636 339.517895 
L 339.52987 338.523158 
L 367.550649 338.523158 
L 368.516883 337.528421 
L 424.558442 337.528421 
L 425.524675 336.533684 
L 452.579221 336.533684 
L 453.545455 335.538947 
L 466.106494 335.538947 
L 467.072727 334.544211 
L 622.636364 334.544211 
L 622.636364 334.544211 
" clip-path="url(#p18f29ec874)" style="fill: none; stroke: #8c564b; stroke-width: 1.5; stroke-linecap: square"/>
   </g>
   <g id="line2d_39">
    <path d="M 115.363636 281.823158 
L 119.228571 281.823158 
L 120.194805 280.828421 
L 124.05974 280.828421 
L 125.992208 278.838947 
L 126.958442 278.838947 
L 127.924675 277.844211 
L 128.890909 277.844211 
L 129.857143 276.849474 
L 131.78961 276.849474 
L 132.755844 275.854737 
L 135.654545 275.854737 
L 136.620779 274.86 
L 138.553247 274.86 
L 139.519481 273.865263 
L 140.485714 273.865263 
L 141.451948 272.870526 
L 143.384416 272.870526 
L 145.316883 270.881053 
L 149.181818 270.881053 
L 150.148052 269.886316 
L 153.046753 269.886316 
L 154.979221 267.896842 
L 156.911688 267.896842 
L 157.877922 266.902105 
L 159.81039 266.902105 
L 160.776623 265.907368 
L 161.742857 263.917895 
L 162.709091 260.933684 
L 164.641558 260.933684 
L 165.607792 259.938947 
L 170.438961 259.938947 
L 172.371429 257.949474 
L 173.337662 255.96 
L 174.303896 254.965263 
L 175.27013 254.965263 
L 176.236364 252.975789 
L 180.101299 252.975789 
L 181.067532 251.981053 
L 182.033766 251.981053 
L 183.966234 249.991579 
L 184.932468 249.991579 
L 185.898701 248.996842 
L 186.864935 248.996842 
L 188.797403 247.007368 
L 190.72987 247.007368 
L 191.696104 245.017895 
L 195.561039 245.017895 
L 197.493506 243.028421 
L 199.425974 243.028421 
L 200.392208 242.033684 
L 201.358442 240.044211 
L 204.257143 240.044211 
L 205.223377 239.049474 
L 206.18961 239.049474 
L 207.155844 237.06 
L 208.122078 237.06 
L 209.088312 236.065263 
L 210.054545 236.065263 
L 211.020779 235.070526 
L 214.885714 235.070526 
L 216.818182 233.081053 
L 217.784416 233.081053 
L 218.750649 231.091579 
L 219.716883 231.091579 
L 220.683117 230.096842 
L 221.649351 230.096842 
L 222.615584 229.102105 
L 225.514286 229.102105 
L 226.480519 228.107368 
L 227.446753 228.107368 
L 231.311688 224.128421 
L 232.277922 222.138947 
L 234.21039 222.138947 
L 236.142857 218.16 
L 238.075325 218.16 
L 240.007792 216.170526 
L 240.974026 216.170526 
L 241.94026 214.181053 
L 242.906494 214.181053 
L 243.872727 213.186316 
L 244.838961 213.186316 
L 245.805195 212.191579 
L 247.737662 212.191579 
L 248.703896 211.196842 
L 249.67013 211.196842 
L 250.636364 210.202105 
L 254.501299 210.202105 
L 255.467532 205.228421 
L 256.433766 205.228421 
L 257.4 204.233684 
L 260.298701 204.233684 
L 261.264935 203.238947 
L 269.961039 203.238947 
L 270.927273 201.249474 
L 274.792208 201.249474 
L 275.758442 200.254737 
L 285.420779 200.254737 
L 286.387013 198.265263 
L 287.353247 197.270526 
L 292.184416 197.270526 
L 293.150649 196.275789 
L 299.914286 196.275789 
L 300.880519 195.281053 
L 301.846753 195.281053 
L 302.812987 194.286316 
L 308.61039 194.286316 
L 310.542857 192.296842 
L 317.306494 192.296842 
L 319.238961 190.307368 
L 320.205195 190.307368 
L 321.171429 189.312632 
L 326.968831 189.312632 
L 327.935065 188.317895 
L 330.833766 188.317895 
L 331.8 187.323158 
L 332.766234 185.333684 
L 335.664935 185.333684 
L 336.631169 184.338947 
L 337.597403 184.338947 
L 339.52987 182.349474 
L 343.394805 182.349474 
L 344.361039 181.354737 
L 348.225974 181.354737 
L 349.192208 180.36 
L 352.090909 180.36 
L 353.057143 179.365263 
L 360.787013 179.365263 
L 362.719481 177.375789 
L 367.550649 177.375789 
L 368.516883 176.381053 
L 372.381818 176.381053 
L 377.212987 171.407368 
L 379.145455 171.407368 
L 380.111688 170.412632 
L 381.077922 170.412632 
L 382.044156 168.423158 
L 383.976623 166.433684 
L 385.909091 162.454737 
L 387.841558 162.454737 
L 389.774026 158.475789 
L 391.706494 158.475789 
L 392.672727 156.486316 
L 394.605195 154.496842 
L 397.503896 154.496842 
L 398.47013 153.502105 
L 399.436364 153.502105 
L 401.368831 151.512632 
L 405.233766 151.512632 
L 406.2 150.517895 
L 408.132468 150.517895 
L 409.098701 149.523158 
L 413.92987 149.523158 
L 414.896104 147.533684 
L 415.862338 146.538947 
L 416.828571 146.538947 
L 417.794805 145.544211 
L 419.727273 145.544211 
L 420.693506 144.549474 
L 422.625974 144.549474 
L 423.592208 142.56 
L 425.524675 142.56 
L 426.490909 141.565263 
L 427.457143 141.565263 
L 428.423377 140.570526 
L 433.254545 140.570526 
L 434.220779 139.575789 
L 439.051948 139.575789 
L 440.018182 138.581053 
L 440.984416 138.581053 
L 441.950649 136.591579 
L 443.883117 134.602105 
L 444.849351 131.617895 
L 445.815584 130.623158 
L 446.781818 130.623158 
L 447.748052 129.628421 
L 448.714286 129.628421 
L 449.680519 128.633684 
L 453.545455 128.633684 
L 454.511688 127.638947 
L 456.444156 127.638947 
L 457.41039 126.644211 
L 459.342857 126.644211 
L 461.275325 124.654737 
L 464.174026 124.654737 
L 465.14026 123.66 
L 469.971429 123.66 
L 470.937662 121.670526 
L 475.768831 121.670526 
L 476.735065 120.675789 
L 479.633766 120.675789 
L 480.6 118.686316 
L 484.464935 118.686316 
L 485.431169 117.691579 
L 494.127273 117.691579 
L 495.093506 116.696842 
L 497.025974 116.696842 
L 497.992208 115.702105 
L 504.755844 115.702105 
L 505.722078 114.707368 
L 506.688312 114.707368 
L 507.654545 113.712632 
L 508.620779 113.712632 
L 509.587013 112.717895 
L 515.384416 112.717895 
L 517.316883 110.728421 
L 530.844156 110.728421 
L 531.81039 109.733684 
L 532.776623 109.733684 
L 534.709091 107.744211 
L 535.675325 107.744211 
L 536.641558 106.749474 
L 548.236364 106.749474 
L 549.202597 105.754737 
L 550.168831 103.765263 
L 552.101299 103.765263 
L 553.067532 102.770526 
L 557.898701 102.770526 
L 558.864935 101.775789 
L 559.831169 101.775789 
L 561.763636 99.786316 
L 566.594805 99.786316 
L 567.561039 98.791579 
L 570.45974 98.791579 
L 571.425974 97.796842 
L 573.358442 97.796842 
L 574.324675 96.802105 
L 576.257143 96.802105 
L 577.223377 95.807368 
L 578.18961 95.807368 
L 579.155844 93.817895 
L 585.919481 93.817895 
L 586.885714 90.833684 
L 587.851948 88.844211 
L 588.818182 88.844211 
L 592.683117 84.865263 
L 593.649351 82.875789 
L 595.581818 82.875789 
L 596.548052 80.886316 
L 604.277922 80.886316 
L 606.21039 78.896842 
L 607.176623 76.907368 
L 608.142857 75.912632 
L 611.041558 75.912632 
L 612.007792 73.923158 
L 612.974026 72.928421 
L 613.94026 72.928421 
L 614.906494 69.944211 
L 615.872727 68.949474 
L 620.703896 68.949474 
L 621.67013 66.96 
L 622.636364 66.96 
L 622.636364 66.96 
" clip-path="url(#p18f29ec874)" style="fill: none; stroke: #e377c2; stroke-width: 1.5; stroke-linecap: square"/>
   </g>
   <g id="line2d_40">
    <path d="M 115.363636 343.496842 
L 116.32987 343.496842 
L 118.262338 341.507368 
L 123.093506 341.507368 
L 124.05974 340.512632 
L 125.025974 340.512632 
L 126.958442 338.523158 
L 128.890909 338.523158 
L 129.857143 337.528421 
L 132.755844 337.528421 
L 133.722078 336.533684 
L 134.688312 336.533684 
L 135.654545 335.538947 
L 136.620779 335.538947 
L 138.553247 333.549474 
L 141.451948 333.549474 
L 142.418182 332.554737 
L 144.350649 332.554737 
L 146.283117 330.565263 
L 148.215584 330.565263 
L 150.148052 328.575789 
L 151.114286 328.575789 
L 152.080519 327.581053 
L 153.046753 324.596842 
L 156.911688 324.596842 
L 160.776623 320.617895 
L 161.742857 320.617895 
L 163.675325 318.628421 
L 164.641558 318.628421 
L 165.607792 317.633684 
L 166.574026 317.633684 
L 167.54026 316.638947 
L 176.236364 316.638947 
L 177.202597 315.644211 
L 186.864935 315.644211 
L 188.797403 313.654737 
L 191.696104 313.654737 
L 192.662338 312.66 
L 194.594805 312.66 
L 196.527273 310.670526 
L 198.45974 310.670526 
L 199.425974 308.681053 
L 202.324675 308.681053 
L 203.290909 306.691579 
L 204.257143 305.696842 
L 209.088312 305.696842 
L 210.054545 304.702105 
L 211.020779 304.702105 
L 212.953247 302.712632 
L 217.784416 302.712632 
L 218.750649 301.717895 
L 219.716883 301.717895 
L 220.683117 300.723158 
L 226.480519 300.723158 
L 227.446753 299.728421 
L 230.345455 299.728421 
L 231.311688 298.733684 
L 232.277922 298.733684 
L 233.244156 295.749474 
L 234.21039 295.749474 
L 235.176623 293.76 
L 236.142857 292.765263 
L 237.109091 292.765263 
L 239.041558 290.775789 
L 240.974026 290.775789 
L 241.94026 289.781053 
L 243.872727 289.781053 
L 244.838961 288.786316 
L 245.805195 288.786316 
L 246.771429 286.796842 
L 247.737662 286.796842 
L 248.703896 285.802105 
L 250.636364 285.802105 
L 252.568831 283.812632 
L 253.535065 283.812632 
L 254.501299 281.823158 
L 255.467532 280.828421 
L 262.231169 280.828421 
L 263.197403 278.838947 
L 266.096104 278.838947 
L 267.062338 277.844211 
L 268.028571 277.844211 
L 268.994805 276.849474 
L 271.893506 276.849474 
L 272.85974 275.854737 
L 277.690909 275.854737 
L 278.657143 274.86 
L 280.58961 274.86 
L 281.555844 273.865263 
L 286.387013 273.865263 
L 287.353247 272.870526 
L 296.049351 272.870526 
L 297.981818 270.881053 
L 298.948052 270.881053 
L 299.914286 269.886316 
L 300.880519 269.886316 
L 301.846753 268.891579 
L 302.812987 268.891579 
L 303.779221 267.896842 
L 305.711688 267.896842 
L 306.677922 266.902105 
L 307.644156 266.902105 
L 309.576623 264.912632 
L 312.475325 264.912632 
L 313.441558 263.917895 
L 316.34026 263.917895 
L 317.306494 262.923158 
L 324.07013 262.923158 
L 325.036364 261.928421 
L 326.002597 261.928421 
L 326.968831 260.933684 
L 330.833766 260.933684 
L 331.8 258.944211 
L 337.597403 258.944211 
L 338.563636 257.949474 
L 339.52987 257.949474 
L 340.496104 255.96 
L 345.327273 255.96 
L 346.293506 254.965263 
L 352.090909 254.965263 
L 353.057143 253.970526 
L 365.618182 253.970526 
L 366.584416 252.975789 
L 381.077922 252.975789 
L 382.044156 251.981053 
L 386.875325 251.981053 
L 387.841558 250.986316 
L 388.807792 250.986316 
L 389.774026 249.991579 
L 390.74026 249.991579 
L 391.706494 248.002105 
L 392.672727 248.002105 
L 394.605195 246.012632 
L 401.368831 246.012632 
L 402.335065 245.017895 
L 403.301299 245.017895 
L 404.267532 244.023158 
L 405.233766 244.023158 
L 406.2 243.028421 
L 411.031169 243.028421 
L 411.997403 242.033684 
L 420.693506 242.033684 
L 421.65974 241.038947 
L 426.490909 241.038947 
L 427.457143 240.044211 
L 432.288312 240.044211 
L 433.254545 239.049474 
L 435.187013 239.049474 
L 438.085714 236.065263 
L 440.018182 236.065263 
L 440.984416 234.075789 
L 445.815584 234.075789 
L 447.748052 232.086316 
L 449.680519 232.086316 
L 450.646753 231.091579 
L 451.612987 231.091579 
L 453.545455 229.102105 
L 460.309091 229.102105 
L 461.275325 228.107368 
L 463.207792 228.107368 
L 464.174026 227.112632 
L 471.903896 227.112632 
L 473.836364 225.123158 
L 476.735065 225.123158 
L 477.701299 224.128421 
L 478.667532 224.128421 
L 479.633766 221.144211 
L 480.6 220.149474 
L 484.464935 220.149474 
L 485.431169 218.16 
L 488.32987 218.16 
L 489.296104 217.165263 
L 498.958442 217.165263 
L 499.924675 216.170526 
L 509.587013 216.170526 
L 511.519481 214.181053 
L 518.283117 214.181053 
L 519.249351 213.186316 
L 535.675325 213.186316 
L 539.54026 209.207368 
L 543.405195 209.207368 
L 544.371429 208.212632 
L 552.101299 208.212632 
L 553.067532 207.217895 
L 555.966234 207.217895 
L 556.932468 206.223158 
L 557.898701 206.223158 
L 558.864935 205.228421 
L 564.662338 205.228421 
L 566.594805 203.238947 
L 568.527273 203.238947 
L 569.493506 202.244211 
L 574.324675 202.244211 
L 575.290909 201.249474 
L 576.257143 201.249474 
L 577.223377 199.26 
L 587.851948 199.26 
L 589.784416 197.270526 
L 592.683117 197.270526 
L 593.649351 196.275789 
L 598.480519 196.275789 
L 599.446753 195.281053 
L 606.21039 195.281053 
L 607.176623 194.286316 
L 622.636364 194.286316 
L 622.636364 194.286316 
" clip-path="url(#p18f29ec874)" style="fill: none; stroke: #7f7f7f; stroke-width: 1.5; stroke-linecap: square"/>
   </g>
   <g id="line2d_41">
    <path d="M 115.363636 349.465263 
L 119.228571 349.465263 
L 120.194805 348.470526 
L 129.857143 348.470526 
L 130.823377 347.475789 
L 135.654545 347.475789 
L 136.620779 346.481053 
L 146.283117 346.481053 
L 147.249351 345.486316 
L 156.911688 345.486316 
L 157.877922 344.491579 
L 210.054545 344.491579 
L 211.020779 343.496842 
L 215.851948 343.496842 
L 216.818182 342.502105 
L 223.581818 342.502105 
L 224.548052 341.507368 
L 225.514286 341.507368 
L 226.480519 338.523158 
L 227.446753 337.528421 
L 229.379221 337.528421 
L 230.345455 336.533684 
L 240.007792 336.533684 
L 240.974026 335.538947 
L 249.67013 335.538947 
L 250.636364 334.544211 
L 261.264935 334.544211 
L 262.231169 333.549474 
L 273.825974 333.549474 
L 274.792208 332.554737 
L 279.623377 332.554737 
L 280.58961 331.56 
L 311.509091 331.56 
L 312.475325 330.565263 
L 314.407792 330.565263 
L 315.374026 329.570526 
L 323.103896 329.570526 
L 324.07013 328.575789 
L 351.124675 328.575789 
L 354.023377 325.591579 
L 382.044156 325.591579 
L 383.01039 324.596842 
L 383.976623 324.596842 
L 385.909091 322.607368 
L 387.841558 322.607368 
L 388.807792 321.612632 
L 438.085714 321.612632 
L 439.051948 320.617895 
L 495.093506 320.617895 
L 496.05974 319.623158 
L 536.641558 319.623158 
L 537.607792 318.628421 
L 542.438961 318.628421 
L 543.405195 317.633684 
L 556.932468 317.633684 
L 557.898701 316.638947 
L 577.223377 316.638947 
L 578.18961 315.644211 
L 622.636364 315.644211 
L 622.636364 315.644211 
" clip-path="url(#p18f29ec874)" style="fill: none; stroke: #bcbd22; stroke-width: 1.5; stroke-linecap: square"/>
   </g>
   <g id="line2d_42">
    <path d="M 115.363636 367.370526 
L 163.675325 367.370526 
L 164.641558 366.375789 
L 225.514286 366.375789 
L 226.480519 365.381053 
L 325.036364 365.381053 
L 326.002597 364.386316 
L 326.968831 365.381053 
L 443.883117 365.381053 
L 444.849351 364.386316 
L 451.612987 364.386316 
L 452.579221 363.391579 
L 476.735065 363.391579 
L 477.701299 362.396842 
L 622.636364 362.396842 
L 622.636364 362.396842 
" clip-path="url(#p18f29ec874)" style="fill: none; stroke: #17becf; stroke-width: 1.5; stroke-linecap: square"/>
   </g>
   <g id="line2d_43">
    <path d="M 115.363636 369.36 
L 116.32987 368.365263 
L 118.262338 368.365263 
L 119.228571 367.370526 
L 125.992208 367.370526 
L 126.958442 366.375789 
L 129.857143 366.375789 
L 130.823377 365.381053 
L 131.78961 365.381053 
L 133.722078 363.391579 
L 138.553247 363.391579 
L 140.485714 361.402105 
L 141.451948 361.402105 
L 142.418182 360.407368 
L 149.181818 360.407368 
L 150.148052 359.412632 
L 151.114286 357.423158 
L 153.046753 357.423158 
L 154.012987 356.428421 
L 154.979221 356.428421 
L 155.945455 355.433684 
L 156.911688 355.433684 
L 157.877922 354.438947 
L 158.844156 354.438947 
L 160.776623 352.449474 
L 166.574026 352.449474 
L 168.506494 350.46 
L 171.405195 350.46 
L 172.371429 349.465263 
L 173.337662 349.465263 
L 174.303896 347.475789 
L 177.202597 347.475789 
L 179.135065 343.496842 
L 184.932468 343.496842 
L 185.898701 341.507368 
L 186.864935 340.512632 
L 189.763636 340.512632 
L 190.72987 339.517895 
L 191.696104 337.528421 
L 193.628571 337.528421 
L 194.594805 336.533684 
L 208.122078 336.533684 
L 209.088312 334.544211 
L 215.851948 327.581053 
L 225.514286 327.581053 
L 228.412987 324.596842 
L 230.345455 324.596842 
L 231.311688 322.607368 
L 233.244156 322.607368 
L 234.21039 321.612632 
L 237.109091 321.612632 
L 238.075325 320.617895 
L 239.041558 320.617895 
L 240.007792 319.623158 
L 240.974026 319.623158 
L 242.906494 317.633684 
L 255.467532 317.633684 
L 257.4 315.644211 
L 265.12987 315.644211 
L 266.096104 314.649474 
L 268.994805 314.649474 
L 270.927273 312.66 
L 273.825974 312.66 
L 274.792208 311.665263 
L 276.724675 311.665263 
L 277.690909 310.670526 
L 282.522078 310.670526 
L 283.488312 309.675789 
L 284.454545 309.675789 
L 285.420779 307.686316 
L 286.387013 307.686316 
L 287.353247 306.691579 
L 292.184416 306.691579 
L 293.150649 305.696842 
L 295.083117 305.696842 
L 296.049351 304.702105 
L 297.015584 304.702105 
L 298.948052 302.712632 
L 305.711688 302.712632 
L 306.677922 301.717895 
L 307.644156 301.717895 
L 308.61039 300.723158 
L 313.441558 300.723158 
L 314.407792 298.733684 
L 315.374026 297.738947 
L 320.205195 297.738947 
L 321.171429 296.744211 
L 325.036364 296.744211 
L 326.002597 294.754737 
L 329.867532 294.754737 
L 331.8 292.765263 
L 334.698701 292.765263 
L 335.664935 291.770526 
L 347.25974 291.770526 
L 348.225974 289.781053 
L 349.192208 288.786316 
L 356.922078 288.786316 
L 357.888312 287.791579 
L 375.280519 287.791579 
L 376.246753 286.796842 
L 378.179221 286.796842 
L 379.145455 285.802105 
L 382.044156 285.802105 
L 383.01039 284.807368 
L 395.571429 284.807368 
L 396.537662 282.817895 
L 398.47013 282.817895 
L 399.436364 281.823158 
L 400.402597 281.823158 
L 401.368831 280.828421 
L 405.233766 280.828421 
L 406.2 279.833684 
L 412.963636 279.833684 
L 413.92987 277.844211 
L 414.896104 277.844211 
L 415.862338 276.849474 
L 420.693506 276.849474 
L 421.65974 275.854737 
L 426.490909 275.854737 
L 428.423377 273.865263 
L 430.355844 273.865263 
L 431.322078 272.870526 
L 433.254545 272.870526 
L 434.220779 271.875789 
L 435.187013 271.875789 
L 436.153247 270.881053 
L 442.916883 270.881053 
L 443.883117 269.886316 
L 466.106494 269.886316 
L 467.072727 268.891579 
L 471.903896 268.891579 
L 472.87013 267.896842 
L 483.498701 267.896842 
L 484.464935 266.902105 
L 526.979221 266.902105 
L 527.945455 265.907368 
L 533.742857 265.907368 
L 534.709091 264.912632 
L 535.675325 264.912632 
L 536.641558 263.917895 
L 549.202597 263.917895 
L 550.168831 262.923158 
L 568.527273 262.923158 
L 569.493506 261.928421 
L 573.358442 261.928421 
L 574.324675 260.933684 
L 579.155844 260.933684 
L 580.122078 259.938947 
L 585.919481 259.938947 
L 586.885714 258.944211 
L 592.683117 258.944211 
L 593.649351 257.949474 
L 599.446753 257.949474 
L 600.412987 254.965263 
L 601.379221 253.970526 
L 608.142857 253.970526 
L 609.109091 252.975789 
L 613.94026 252.975789 
L 614.906494 251.981053 
L 619.737662 251.981053 
L 620.703896 250.986316 
L 622.636364 250.986316 
L 622.636364 250.986316 
" clip-path="url(#p18f29ec874)" style="fill: none; stroke: #1f77b4; stroke-width: 1.5; stroke-linecap: square"/>
   </g>
   <g id="line2d_44">
    <path d="M 115.363636 332.554737 
L 122.127273 332.554737 
L 123.093506 331.56 
L 125.992208 331.56 
L 126.958442 330.565263 
L 130.823377 330.565263 
L 131.78961 329.570526 
L 134.688312 329.570526 
L 135.654545 328.575789 
L 136.620779 328.575789 
L 137.587013 327.581053 
L 140.485714 327.581053 
L 141.451948 326.586316 
L 143.384416 326.586316 
L 144.350649 325.591579 
L 145.316883 325.591579 
L 147.249351 323.602105 
L 153.046753 323.602105 
L 154.012987 322.607368 
L 154.979221 322.607368 
L 155.945455 321.612632 
L 156.911688 321.612632 
L 157.877922 319.623158 
L 158.844156 316.638947 
L 159.81039 315.644211 
L 163.675325 315.644211 
L 166.574026 312.66 
L 169.472727 312.66 
L 171.405195 310.670526 
L 182.033766 310.670526 
L 183 307.686316 
L 183.966234 307.686316 
L 185.898701 303.707368 
L 187.831169 301.717895 
L 188.797403 301.717895 
L 189.763636 299.728421 
L 197.493506 299.728421 
L 198.45974 297.738947 
L 201.358442 297.738947 
L 202.324675 296.744211 
L 209.088312 296.744211 
L 210.054545 295.749474 
L 221.649351 295.749474 
L 222.615584 294.754737 
L 223.581818 294.754737 
L 224.548052 293.76 
L 227.446753 293.76 
L 228.412987 292.765263 
L 240.007792 292.765263 
L 240.974026 291.770526 
L 242.906494 291.770526 
L 244.838961 287.791579 
L 246.771429 287.791579 
L 248.703896 285.802105 
L 250.636364 285.802105 
L 251.602597 284.807368 
L 254.501299 284.807368 
L 255.467532 283.812632 
L 267.062338 283.812632 
L 268.028571 282.817895 
L 282.522078 282.817895 
L 283.488312 281.823158 
L 292.184416 281.823158 
L 293.150649 280.828421 
L 295.083117 280.828421 
L 296.049351 279.833684 
L 298.948052 279.833684 
L 300.880519 277.844211 
L 301.846753 277.844211 
L 302.812987 276.849474 
L 306.677922 276.849474 
L 308.61039 274.86 
L 313.441558 274.86 
L 314.407792 273.865263 
L 317.306494 273.865263 
L 318.272727 272.870526 
L 323.103896 272.870526 
L 324.07013 271.875789 
L 328.901299 271.875789 
L 329.867532 270.881053 
L 347.25974 270.881053 
L 348.225974 269.886316 
L 349.192208 269.886316 
L 350.158442 268.891579 
L 359.820779 268.891579 
L 360.787013 266.902105 
L 361.753247 266.902105 
L 362.719481 265.907368 
L 372.381818 265.907368 
L 373.348052 264.912632 
L 377.212987 264.912632 
L 378.179221 263.917895 
L 379.145455 263.917895 
L 380.111688 262.923158 
L 388.807792 262.923158 
L 389.774026 261.928421 
L 409.098701 261.928421 
L 410.064935 258.944211 
L 416.828571 258.944211 
L 417.794805 257.949474 
L 419.727273 257.949474 
L 420.693506 256.954737 
L 432.288312 256.954737 
L 433.254545 255.96 
L 446.781818 255.96 
L 447.748052 254.965263 
L 450.646753 254.965263 
L 451.612987 253.970526 
L 459.342857 253.970526 
L 460.309091 251.981053 
L 475.768831 251.981053 
L 476.735065 250.986316 
L 481.566234 250.986316 
L 482.532468 249.991579 
L 497.025974 249.991579 
L 497.992208 248.996842 
L 499.924675 248.996842 
L 500.890909 248.002105 
L 510.553247 248.002105 
L 511.519481 247.007368 
L 522.148052 247.007368 
L 523.114286 246.012632 
L 535.675325 246.012632 
L 536.641558 245.017895 
L 548.236364 245.017895 
L 549.202597 244.023158 
L 555.966234 244.023158 
L 556.932468 243.028421 
L 566.594805 243.028421 
L 569.493506 240.044211 
L 571.425974 240.044211 
L 572.392208 239.049474 
L 573.358442 239.049474 
L 575.290909 237.06 
L 579.155844 237.06 
L 580.122078 236.065263 
L 582.054545 236.065263 
L 583.020779 234.075789 
L 583.987013 233.081053 
L 595.581818 233.081053 
L 596.548052 232.086316 
L 605.244156 232.086316 
L 606.21039 231.091579 
L 615.872727 231.091579 
L 616.838961 230.096842 
L 621.67013 230.096842 
L 622.636364 228.107368 
L 622.636364 228.107368 
" clip-path="url(#p18f29ec874)" style="fill: none; stroke: #ff7f0e; stroke-width: 1.5; stroke-linecap: square"/>
   </g>
   <g id="patch_3">
    <path d="M 90 384.48 
L 90 51.84 
" style="fill: none; stroke: #000000; stroke-width: 0.8; stroke-linejoin: miter; stroke-linecap: square"/>
   </g>
   <g id="patch_4">
    <path d="M 648 384.48 
L 648 51.84 
" style="fill: none; stroke: #000000; stroke-width: 0.8; stroke-linejoin: miter; stroke-linecap: square"/>
   </g>
   <g id="patch_5">
    <path d="M 90 384.48 
L 648 384.48 
" style="fill: none; stroke: #000000; stroke-width: 0.8; stroke-linejoin: miter; stroke-linecap: square"/>
   </g>
   <g id="patch_6">
    <path d="M 90 51.84 
L 648 51.84 
" style="fill: none; stroke: #000000; stroke-width: 0.8; stroke-linejoin: miter; stroke-linecap: square"/>
   </g>
   <g id="text_19">
    <!-- Time Series of Votes for Each Keyword -->
    <g transform="translate(253.716563 45.84) scale(0.12 -0.12)">
     <defs>
      <path id="DejaVuSans-53" d="M 3425 4513 
L 3425 3897 
Q 3066 4069 2747 4153 
Q 2428 4238 2131 4238 
Q 1616 4238 1336 4038 
Q 1056 3838 1056 3469 
Q 1056 3159 1242 3001 
Q 1428 2844 1947 2747 
L 2328 2669 
Q 3034 2534 3370 2195 
Q 3706 1856 3706 1288 
Q 3706 609 3251 259 
Q 2797 -91 1919 -91 
Q 1588 -91 1214 -16 
Q 841 59 441 206 
L 441 856 
Q 825 641 1194 531 
Q 1563 422 1919 422 
Q 2459 422 2753 634 
Q 3047 847 3047 1241 
Q 3047 1584 2836 1778 
Q 2625 1972 2144 2069 
L 1759 2144 
Q 1053 2284 737 2584 
Q 422 2884 422 3419 
Q 422 4038 858 4394 
Q 1294 4750 2059 4750 
Q 2388 4750 2728 4690 
Q 3069 4631 3425 4513 
z
" transform="scale(0.015625)"/>
      <path id="DejaVuSans-72" d="M 2631 2963 
Q 2534 3019 2420 3045 
Q 2306 3072 2169 3072 
Q 1681 3072 1420 2755 
Q 1159 2438 1159 1844 
L 1159 0 
L 581 0 
L 581 3500 
L 1159 3500 
L 1159 2956 
Q 1341 3275 1631 3429 
Q 1922 3584 2338 3584 
Q 2397 3584 2469 3576 
Q 2541 3569 2628 3553 
L 2631 2963 
z
" transform="scale(0.015625)"/>
      <path id="DejaVuSans-66" d="M 2375 4863 
L 2375 4384 
L 1825 4384 
Q 1516 4384 1395 4259 
Q 1275 4134 1275 3809 
L 1275 3500 
L 2222 3500 
L 2222 3053 
L 1275 3053 
L 1275 0 
L 697 0 
L 697 3053 
L 147 3053 
L 147 3500 
L 697 3500 
L 697 3744 
Q 697 4328 969 4595 
Q 1241 4863 1831 4863 
L 2375 4863 
z
" transform="scale(0.015625)"/>
      <path id="DejaVuSans-45" d="M 628 4666 
L 3578 4666 
L 3578 4134 
L 1259 4134 
L 1259 2753 
L 3481 2753 
L 3481 2222 
L 1259 2222 
L 1259 531 
L 3634 531 
L 3634 0 
L 628 0 
L 628 4666 
z
" transform="scale(0.015625)"/>
      <path id="DejaVuSans-63" d="M 3122 3366 
L 3122 2828 
Q 2878 2963 2633 3030 
Q 2388 3097 2138 3097 
Q 1578 3097 1268 2742 
Q 959 2388 959 1747 
Q 959 1106 1268 751 
Q 1578 397 2138 397 
Q 2388 397 2633 464 
Q 2878 531 3122 666 
L 3122 134 
Q 2881 22 2623 -34 
Q 2366 -91 2075 -91 
Q 1284 -91 818 406 
Q 353 903 353 1747 
Q 353 2603 823 3093 
Q 1294 3584 2113 3584 
Q 2378 3584 2631 3529 
Q 2884 3475 3122 3366 
z
" transform="scale(0.015625)"/>
      <path id="DejaVuSans-68" d="M 3513 2113 
L 3513 0 
L 2938 0 
L 2938 2094 
Q 2938 2591 2744 2837 
Q 2550 3084 2163 3084 
Q 1697 3084 1428 2787 
Q 1159 2491 1159 1978 
L 1159 0 
L 581 0 
L 581 4863 
L 1159 4863 
L 1159 2956 
Q 1366 3272 1645 3428 
Q 1925 3584 2291 3584 
Q 2894 3584 3203 3211 
Q 3513 2838 3513 2113 
z
" transform="scale(0.015625)"/>
      <path id="DejaVuSans-4b" d="M 628 4666 
L 1259 4666 
L 1259 2694 
L 3353 4666 
L 4166 4666 
L 1850 2491 
L 4331 0 
L 3500 0 
L 1259 2247 
L 1259 0 
L 628 0 
L 628 4666 
z
" transform="scale(0.015625)"/>
      <path id="DejaVuSans-79" d="M 2059 -325 
Q 1816 -950 1584 -1140 
Q 1353 -1331 966 -1331 
L 506 -1331 
L 506 -850 
L 844 -850 
Q 1081 -850 1212 -737 
Q 1344 -625 1503 -206 
L 1606 56 
L 191 3500 
L 800 3500 
L 1894 763 
L 2988 3500 
L 3597 3500 
L 2059 -325 
z
" transform="scale(0.015625)"/>
      <path id="DejaVuSans-77" d="M 269 3500 
L 844 3500 
L 1563 769 
L 2278 3500 
L 2956 3500 
L 3675 769 
L 4391 3500 
L 4966 3500 
L 4050 0 
L 3372 0 
L 2619 2869 
L 1863 0 
L 1184 0 
L 269 3500 
z
" transform="scale(0.015625)"/>
     </defs>
     <use xlink:href="#DejaVuSans-54"/>
     <use xlink:href="#DejaVuSans-69" transform="translate(57.958984 0)"/>
     <use xlink:href="#DejaVuSans-6d" transform="translate(85.742188 0)"/>
     <use xlink:href="#DejaVuSans-65" transform="translate(183.154297 0)"/>
     <use xlink:href="#DejaVuSans-20" transform="translate(244.677734 0)"/>
     <use xlink:href="#DejaVuSans-53" transform="translate(276.464844 0)"/>
     <use xlink:href="#DejaVuSans-65" transform="translate(339.941406 0)"/>
     <use xlink:href="#DejaVuSans-72" transform="translate(401.464844 0)"/>
     <use xlink:href="#DejaVuSans-69" transform="translate(442.578125 0)"/>
     <use xlink:href="#DejaVuSans-65" transform="translate(470.361328 0)"/>
     <use xlink:href="#DejaVuSans-73" transform="translate(531.884766 0)"/>
     <use xlink:href="#DejaVuSans-20" transform="translate(583.984375 0)"/>
     <use xlink:href="#DejaVuSans-6f" transform="translate(615.771484 0)"/>
     <use xlink:href="#DejaVuSans-66" transform="translate(676.953125 0)"/>
     <use xlink:href="#DejaVuSans-20" transform="translate(712.158203 0)"/>
     <use xlink:href="#DejaVuSans-56" transform="translate(743.945312 0)"/>
     <use xlink:href="#DejaVuSans-6f" transform="translate(804.603516 0)"/>
     <use xlink:href="#DejaVuSans-74" transform="translate(865.785156 0)"/>
     <use xlink:href="#DejaVuSans-65" transform="translate(904.994141 0)"/>
     <use xlink:href="#DejaVuSans-73" transform="translate(966.517578 0)"/>
     <use xlink:href="#DejaVuSans-20" transform="translate(1018.617188 0)"/>
     <use xlink:href="#DejaVuSans-66" transform="translate(1050.404297 0)"/>
     <use xlink:href="#DejaVuSans-6f" transform="translate(1085.609375 0)"/>
     <use xlink:href="#DejaVuSans-72" transform="translate(1146.791016 0)"/>
     <use xlink:href="#DejaVuSans-20" transform="translate(1187.904297 0)"/>
     <use xlink:href="#DejaVuSans-45" transform="translate(1219.691406 0)"/>
     <use xlink:href="#DejaVuSans-61" transform="translate(1282.875 0)"/>
     <use xlink:href="#DejaVuSans-63" transform="translate(1344.154297 0)"/>
     <use xlink:href="#DejaVuSans-68" transform="translate(1399.134766 0)"/>
     <use xlink:href="#DejaVuSans-20" transform="translate(1462.513672 0)"/>
     <use xlink:href="#DejaVuSans-4b" transform="translate(1494.300781 0)"/>
     <use xlink:href="#DejaVuSans-65" transform="translate(1554.876953 0)"/>
     <use xlink:href="#DejaVuSans-79" transform="translate(1616.400391 0)"/>
     <use xlink:href="#DejaVuSans-77" transform="translate(1675.580078 0)"/>
     <use xlink:href="#DejaVuSans-6f" transform="translate(1757.367188 0)"/>
     <use xlink:href="#DejaVuSans-72" transform="translate(1818.548828 0)"/>
     <use xlink:href="#DejaVuSans-64" transform="translate(1857.912109 0)"/>
    </g>
   </g>
   <g id="legend_1">
    <g id="patch_7">
     <path d="M 97 235.9775 
L 149.245313 235.9775 
Q 151.245313 235.9775 151.245313 233.9775 
L 151.245313 58.84 
Q 151.245313 56.84 149.245313 56.84 
L 97 56.84 
Q 95 56.84 95 58.84 
L 95 233.9775 
Q 95 235.9775 97 235.9775 
z
" style="fill: #ffffff; opacity: 0.8; stroke: #cccccc; stroke-linejoin: miter"/>
    </g>
    <g id="line2d_45">
     <path d="M 99 64.938437 
L 109 64.938437 
L 119 64.938437 
" style="fill: none; stroke: #1f77b4; stroke-width: 1.5; stroke-linecap: square"/>
    </g>
    <g id="text_20">
     <!-- H01 -->
     <g transform="translate(127 68.438437) scale(0.1 -0.1)">
      <defs>
       <path id="DejaVuSans-48" d="M 628 4666 
L 1259 4666 
L 1259 2753 
L 3553 2753 
L 3553 4666 
L 4184 4666 
L 4184 0 
L 3553 0 
L 3553 2222 
L 1259 2222 
L 1259 0 
L 628 0 
L 628 4666 
z
" transform="scale(0.015625)"/>
      </defs>
      <use xlink:href="#DejaVuSans-48"/>
      <use xlink:href="#DejaVuSans-30" transform="translate(75.195312 0)"/>
      <use xlink:href="#DejaVuSans-31" transform="translate(138.818359 0)"/>
     </g>
    </g>
    <g id="line2d_46">
     <path d="M 99 79.616562 
L 109 79.616562 
L 119 79.616562 
" style="fill: none; stroke: #ff7f0e; stroke-width: 1.5; stroke-linecap: square"/>
    </g>
    <g id="text_21">
     <!-- H02 -->
     <g transform="translate(127 83.116562) scale(0.1 -0.1)">
      <use xlink:href="#DejaVuSans-48"/>
      <use xlink:href="#DejaVuSans-30" transform="translate(75.195312 0)"/>
      <use xlink:href="#DejaVuSans-32" transform="translate(138.818359 0)"/>
     </g>
    </g>
    <g id="line2d_47">
     <path d="M 99 94.294688 
L 109 94.294688 
L 119 94.294688 
" style="fill: none; stroke: #2ca02c; stroke-width: 1.5; stroke-linecap: square"/>
    </g>
    <g id="text_22">
     <!-- H03 -->
     <g transform="translate(127 97.794688) scale(0.1 -0.1)">
      <use xlink:href="#DejaVuSans-48"/>
      <use xlink:href="#DejaVuSans-30" transform="translate(75.195312 0)"/>
      <use xlink:href="#DejaVuSans-33" transform="translate(138.818359 0)"/>
     </g>
    </g>
    <g id="line2d_48">
     <path d="M 99 108.972812 
L 109 108.972812 
L 119 108.972812 
" style="fill: none; stroke: #d62728; stroke-width: 1.5; stroke-linecap: square"/>
    </g>
    <g id="text_23">
     <!-- H04 -->
     <g transform="translate(127 112.472812) scale(0.1 -0.1)">
      <use xlink:href="#DejaVuSans-48"/>
      <use xlink:href="#DejaVuSans-30" transform="translate(75.195312 0)"/>
      <use xlink:href="#DejaVuSans-34" transform="translate(138.818359 0)"/>
     </g>
    </g>
    <g id="line2d_49">
     <path d="M 99 123.650937 
L 109 123.650937 
L 119 123.650937 
" style="fill: none; stroke: #9467bd; stroke-width: 1.5; stroke-linecap: square"/>
    </g>
    <g id="text_24">
     <!-- H05 -->
     <g transform="translate(127 127.150937) scale(0.1 -0.1)">
      <use xlink:href="#DejaVuSans-48"/>
      <use xlink:href="#DejaVuSans-30" transform="translate(75.195312 0)"/>
      <use xlink:href="#DejaVuSans-35" transform="translate(138.818359 0)"/>
     </g>
    </g>
    <g id="line2d_50">
     <path d="M 99 138.329062 
L 109 138.329062 
L 119 138.329062 
" style="fill: none; stroke: #8c564b; stroke-width: 1.5; stroke-linecap: square"/>
    </g>
    <g id="text_25">
     <!-- H06 -->
     <g transform="translate(127 141.829062) scale(0.1 -0.1)">
      <use xlink:href="#DejaVuSans-48"/>
      <use xlink:href="#DejaVuSans-30" transform="translate(75.195312 0)"/>
      <use xlink:href="#DejaVuSans-36" transform="translate(138.818359 0)"/>
     </g>
    </g>
    <g id="line2d_51">
     <path d="M 99 153.007187 
L 109 153.007187 
L 119 153.007187 
" style="fill: none; stroke: #e377c2; stroke-width: 1.5; stroke-linecap: square"/>
    </g>
    <g id="text_26">
     <!-- H07 -->
     <g transform="translate(127 156.507187) scale(0.1 -0.1)">
      <use xlink:href="#DejaVuSans-48"/>
      <use xlink:href="#DejaVuSans-30" transform="translate(75.195312 0)"/>
      <use xlink:href="#DejaVuSans-37" transform="translate(138.818359 0)"/>
     </g>
    </g>
    <g id="line2d_52">
     <path d="M 99 167.685312 
L 109 167.685312 
L 119 167.685312 
" style="fill: none; stroke: #7f7f7f; stroke-width: 1.5; stroke-linecap: square"/>
    </g>
    <g id="text_27">
     <!-- H08 -->
     <g transform="translate(127 171.185312) scale(0.1 -0.1)">
      <use xlink:href="#DejaVuSans-48"/>
      <use xlink:href="#DejaVuSans-30" transform="translate(75.195312 0)"/>
      <use xlink:href="#DejaVuSans-38" transform="translate(138.818359 0)"/>
     </g>
    </g>
    <g id="line2d_53">
     <path d="M 99 182.363437 
L 109 182.363437 
L 119 182.363437 
" style="fill: none; stroke: #bcbd22; stroke-width: 1.5; stroke-linecap: square"/>
    </g>
    <g id="text_28">
     <!-- H09 -->
     <g transform="translate(127 185.863437) scale(0.1 -0.1)">
      <use xlink:href="#DejaVuSans-48"/>
      <use xlink:href="#DejaVuSans-30" transform="translate(75.195312 0)"/>
      <use xlink:href="#DejaVuSans-39" transform="translate(138.818359 0)"/>
     </g>
    </g>
    <g id="line2d_54">
     <path d="M 99 197.041562 
L 109 197.041562 
L 119 197.041562 
" style="fill: none; stroke: #17becf; stroke-width: 1.5; stroke-linecap: square"/>
    </g>
    <g id="text_29">
     <!-- H10 -->
     <g transform="translate(127 200.541562) scale(0.1 -0.1)">
      <use xlink:href="#DejaVuSans-48"/>
      <use xlink:href="#DejaVuSans-31" transform="translate(75.195312 0)"/>
      <use xlink:href="#DejaVuSans-30" transform="translate(138.818359 0)"/>
     </g>
    </g>
    <g id="line2d_55">
     <path d="M 99 211.719687 
L 109 211.719687 
L 119 211.719687 
" style="fill: none; stroke: #1f77b4; stroke-width: 1.5; stroke-linecap: square"/>
    </g>
    <g id="text_30">
     <!-- H11 -->
     <g transform="translate(127 215.219687) scale(0.1 -0.1)">
      <use xlink:href="#DejaVuSans-48"/>
      <use xlink:href="#DejaVuSans-31" transform="translate(75.195312 0)"/>
      <use xlink:href="#DejaVuSans-31" transform="translate(138.818359 0)"/>
     </g>
    </g>
    <g id="line2d_56">
     <path d="M 99 226.397812 
L 109 226.397812 
L 119 226.397812 
" style="fill: none; stroke: #ff7f0e; stroke-width: 1.5; stroke-linecap: square"/>
    </g>
    <g id="text_31">
     <!-- H12 -->
     <g transform="translate(127 229.897812) scale(0.1 -0.1)">
      <use xlink:href="#DejaVuSans-48"/>
      <use xlink:href="#DejaVuSans-31" transform="translate(75.195312 0)"/>
      <use xlink:href="#DejaVuSans-32" transform="translate(138.818359 0)"/>
     </g>
    </g>
   </g>
  </g>
 </g>
 <defs>
  <clipPath id="p18f29ec874">
   <rect x="90" y="51.84" width="558" height="332.64"/>
  </clipPath>
 </defs>
</svg>
