<?xml version="1.0" encoding="utf-8" standalone="no"?>
<!DOCTYPE svg PUBLIC "-//W3C//DTD SVG 1.1//EN"
  "http://www.w3.org/Graphics/SVG/1.1/DTD/svg11.dtd">
<svg xmlns:xlink="http://www.w3.org/1999/xlink" width="720pt" height="432pt" viewBox="0 0 720 432" xmlns="http://www.w3.org/2000/svg" version="1.1">
 <metadata>
  <rdf:RDF xmlns:dc="http://purl.org/dc/elements/1.1/" xmlns:cc="http://creativecommons.org/ns#" xmlns:rdf="http://www.w3.org/1999/02/22-rdf-syntax-ns#">
   <cc:Work>
    <dc:type rdf:resource="http://purl.org/dc/dcmitype/StillImage"/>
    <dc:date>2025-01-14T22:38:35.289339</dc:date>
    <dc:format>image/svg+xml</dc:format>
    <dc:creator>
     <cc:Agent>
      <dc:title>Matplotlib v3.10.0, https://matplotlib.org/</dc:title>
     </cc:Agent>
    </dc:creator>
   </cc:Work>
  </rdf:RDF>
 </metadata>
 <defs>
  <style type="text/css">*{stroke-linejoin: round; stroke-linecap: butt}</style>
 </defs>
 <g id="figure_1">
  <g id="patch_1">
   <path d="M 0 432 
L 720 432 
L 720 0 
L 0 0 
z
" style="fill: #ffffff"/>
  </g>
  <g id="axes_1">
   <g id="patch_2">
    <path d="M 90 384.48 
L 648 384.48 
L 648 51.84 
L 90 51.84 
z
" style="fill: #ffffff"/>
   </g>
   <g id="matplotlib.axis_1">
    <g id="xtick_1">
     <g id="line2d_1">
      <path d="M 140.494579 384.48 
L 140.494579 51.84 
" clip-path="url(#pc41df297d7)" style="fill: none; stroke: #b0b0b0; stroke-width: 0.8; stroke-linecap: square"/>
     </g>
     <g id="line2d_2">
      <defs>
       <path id="m2b626dcf57" d="M 0 0 
L 0 3.5 
" style="stroke: #000000; stroke-width: 0.8"/>
      </defs>
      <g>
       <use xlink:href="#m2b626dcf57" x="140.494579" y="384.48" style="stroke: #000000; stroke-width: 0.8"/>
      </g>
     </g>
     <g id="text_1">
      <!-- 01-14 14 -->
      <g transform="translate(118.01411 399.078438) scale(0.1 -0.1)">
       <defs>
        <path id="DejaVuSans-30" d="M 2034 4250 
Q 1547 4250 1301 3770 
Q 1056 3291 1056 2328 
Q 1056 1369 1301 889 
Q 1547 409 2034 409 
Q 2525 409 2770 889 
Q 3016 1369 3016 2328 
Q 3016 3291 2770 3770 
Q 2525 4250 2034 4250 
z
M 2034 4750 
Q 2819 4750 3233 4129 
Q 3647 3509 3647 2328 
Q 3647 1150 3233 529 
Q 2819 -91 2034 -91 
Q 1250 -91 836 529 
Q 422 1150 422 2328 
Q 422 3509 836 4129 
Q 1250 4750 2034 4750 
z
" transform="scale(0.015625)"/>
        <path id="DejaVuSans-31" d="M 794 531 
L 1825 531 
L 1825 4091 
L 703 3866 
L 703 4441 
L 1819 4666 
L 2450 4666 
L 2450 531 
L 3481 531 
L 3481 0 
L 794 0 
L 794 531 
z
" transform="scale(0.015625)"/>
        <path id="DejaVuSans-2d" d="M 313 2009 
L 1997 2009 
L 1997 1497 
L 313 1497 
L 313 2009 
z
" transform="scale(0.015625)"/>
        <path id="DejaVuSans-34" d="M 2419 4116 
L 825 1625 
L 2419 1625 
L 2419 4116 
z
M 2253 4666 
L 3047 4666 
L 3047 1625 
L 3713 1625 
L 3713 1100 
L 3047 1100 
L 3047 0 
L 2419 0 
L 2419 1100 
L 313 1100 
L 313 1709 
L 2253 4666 
z
" transform="scale(0.015625)"/>
        <path id="DejaVuSans-20" transform="scale(0.015625)"/>
       </defs>
       <use xlink:href="#DejaVuSans-30"/>
       <use xlink:href="#DejaVuSans-31" transform="translate(63.623047 0)"/>
       <use xlink:href="#DejaVuSans-2d" transform="translate(127.246094 0)"/>
       <use xlink:href="#DejaVuSans-31" transform="translate(163.330078 0)"/>
       <use xlink:href="#DejaVuSans-34" transform="translate(226.953125 0)"/>
       <use xlink:href="#DejaVuSans-20" transform="translate(290.576172 0)"/>
       <use xlink:href="#DejaVuSans-31" transform="translate(322.363281 0)"/>
       <use xlink:href="#DejaVuSans-34" transform="translate(385.986328 0)"/>
      </g>
     </g>
    </g>
    <g id="xtick_2">
     <g id="line2d_3">
      <path d="M 196.341118 384.48 
L 196.341118 51.84 
" clip-path="url(#pc41df297d7)" style="fill: none; stroke: #b0b0b0; stroke-width: 0.8; stroke-linecap: square"/>
     </g>
     <g id="line2d_4">
      <g>
       <use xlink:href="#m2b626dcf57" x="196.341118" y="384.48" style="stroke: #000000; stroke-width: 0.8"/>
      </g>
     </g>
     <g id="text_2">
      <!-- 01-14 15 -->
      <g transform="translate(173.860649 399.078438) scale(0.1 -0.1)">
       <defs>
        <path id="DejaVuSans-35" d="M 691 4666 
L 3169 4666 
L 3169 4134 
L 1269 4134 
L 1269 2991 
Q 1406 3038 1543 3061 
Q 1681 3084 1819 3084 
Q 2600 3084 3056 2656 
Q 3513 2228 3513 1497 
Q 3513 744 3044 326 
Q 2575 -91 1722 -91 
Q 1428 -91 1123 -41 
Q 819 9 494 109 
L 494 744 
Q 775 591 1075 516 
Q 1375 441 1709 441 
Q 2250 441 2565 725 
Q 2881 1009 2881 1497 
Q 2881 1984 2565 2268 
Q 2250 2553 1709 2553 
Q 1456 2553 1204 2497 
Q 953 2441 691 2322 
L 691 4666 
z
" transform="scale(0.015625)"/>
       </defs>
       <use xlink:href="#DejaVuSans-30"/>
       <use xlink:href="#DejaVuSans-31" transform="translate(63.623047 0)"/>
       <use xlink:href="#DejaVuSans-2d" transform="translate(127.246094 0)"/>
       <use xlink:href="#DejaVuSans-31" transform="translate(163.330078 0)"/>
       <use xlink:href="#DejaVuSans-34" transform="translate(226.953125 0)"/>
       <use xlink:href="#DejaVuSans-20" transform="translate(290.576172 0)"/>
       <use xlink:href="#DejaVuSans-31" transform="translate(322.363281 0)"/>
       <use xlink:href="#DejaVuSans-35" transform="translate(385.986328 0)"/>
      </g>
     </g>
    </g>
    <g id="xtick_3">
     <g id="line2d_5">
      <path d="M 252.187656 384.48 
L 252.187656 51.84 
" clip-path="url(#pc41df297d7)" style="fill: none; stroke: #b0b0b0; stroke-width: 0.8; stroke-linecap: square"/>
     </g>
     <g id="line2d_6">
      <g>
       <use xlink:href="#m2b626dcf57" x="252.187656" y="384.48" style="stroke: #000000; stroke-width: 0.8"/>
      </g>
     </g>
     <g id="text_3">
      <!-- 01-14 16 -->
      <g transform="translate(229.707188 399.078438) scale(0.1 -0.1)">
       <defs>
        <path id="DejaVuSans-36" d="M 2113 2584 
Q 1688 2584 1439 2293 
Q 1191 2003 1191 1497 
Q 1191 994 1439 701 
Q 1688 409 2113 409 
Q 2538 409 2786 701 
Q 3034 994 3034 1497 
Q 3034 2003 2786 2293 
Q 2538 2584 2113 2584 
z
M 3366 4563 
L 3366 3988 
Q 3128 4100 2886 4159 
Q 2644 4219 2406 4219 
Q 1781 4219 1451 3797 
Q 1122 3375 1075 2522 
Q 1259 2794 1537 2939 
Q 1816 3084 2150 3084 
Q 2853 3084 3261 2657 
Q 3669 2231 3669 1497 
Q 3669 778 3244 343 
Q 2819 -91 2113 -91 
Q 1303 -91 875 529 
Q 447 1150 447 2328 
Q 447 3434 972 4092 
Q 1497 4750 2381 4750 
Q 2619 4750 2861 4703 
Q 3103 4656 3366 4563 
z
" transform="scale(0.015625)"/>
       </defs>
       <use xlink:href="#DejaVuSans-30"/>
       <use xlink:href="#DejaVuSans-31" transform="translate(63.623047 0)"/>
       <use xlink:href="#DejaVuSans-2d" transform="translate(127.246094 0)"/>
       <use xlink:href="#DejaVuSans-31" transform="translate(163.330078 0)"/>
       <use xlink:href="#DejaVuSans-34" transform="translate(226.953125 0)"/>
       <use xlink:href="#DejaVuSans-20" transform="translate(290.576172 0)"/>
       <use xlink:href="#DejaVuSans-31" transform="translate(322.363281 0)"/>
       <use xlink:href="#DejaVuSans-36" transform="translate(385.986328 0)"/>
      </g>
     </g>
    </g>
    <g id="xtick_4">
     <g id="line2d_7">
      <path d="M 308.034195 384.48 
L 308.034195 51.84 
" clip-path="url(#pc41df297d7)" style="fill: none; stroke: #b0b0b0; stroke-width: 0.8; stroke-linecap: square"/>
     </g>
     <g id="line2d_8">
      <g>
       <use xlink:href="#m2b626dcf57" x="308.034195" y="384.48" style="stroke: #000000; stroke-width: 0.8"/>
      </g>
     </g>
     <g id="text_4">
      <!-- 01-14 17 -->
      <g transform="translate(285.553726 399.078438) scale(0.1 -0.1)">
       <defs>
        <path id="DejaVuSans-37" d="M 525 4666 
L 3525 4666 
L 3525 4397 
L 1831 0 
L 1172 0 
L 2766 4134 
L 525 4134 
L 525 4666 
z
" transform="scale(0.015625)"/>
       </defs>
       <use xlink:href="#DejaVuSans-30"/>
       <use xlink:href="#DejaVuSans-31" transform="translate(63.623047 0)"/>
       <use xlink:href="#DejaVuSans-2d" transform="translate(127.246094 0)"/>
       <use xlink:href="#DejaVuSans-31" transform="translate(163.330078 0)"/>
       <use xlink:href="#DejaVuSans-34" transform="translate(226.953125 0)"/>
       <use xlink:href="#DejaVuSans-20" transform="translate(290.576172 0)"/>
       <use xlink:href="#DejaVuSans-31" transform="translate(322.363281 0)"/>
       <use xlink:href="#DejaVuSans-37" transform="translate(385.986328 0)"/>
      </g>
     </g>
    </g>
    <g id="xtick_5">
     <g id="line2d_9">
      <path d="M 363.880734 384.48 
L 363.880734 51.84 
" clip-path="url(#pc41df297d7)" style="fill: none; stroke: #b0b0b0; stroke-width: 0.8; stroke-linecap: square"/>
     </g>
     <g id="line2d_10">
      <g>
       <use xlink:href="#m2b626dcf57" x="363.880734" y="384.48" style="stroke: #000000; stroke-width: 0.8"/>
      </g>
     </g>
     <g id="text_5">
      <!-- 01-14 18 -->
      <g transform="translate(341.400265 399.078438) scale(0.1 -0.1)">
       <defs>
        <path id="DejaVuSans-38" d="M 2034 2216 
Q 1584 2216 1326 1975 
Q 1069 1734 1069 1313 
Q 1069 891 1326 650 
Q 1584 409 2034 409 
Q 2484 409 2743 651 
Q 3003 894 3003 1313 
Q 3003 1734 2745 1975 
Q 2488 2216 2034 2216 
z
M 1403 2484 
Q 997 2584 770 2862 
Q 544 3141 544 3541 
Q 544 4100 942 4425 
Q 1341 4750 2034 4750 
Q 2731 4750 3128 4425 
Q 3525 4100 3525 3541 
Q 3525 3141 3298 2862 
Q 3072 2584 2669 2484 
Q 3125 2378 3379 2068 
Q 3634 1759 3634 1313 
Q 3634 634 3220 271 
Q 2806 -91 2034 -91 
Q 1263 -91 848 271 
Q 434 634 434 1313 
Q 434 1759 690 2068 
Q 947 2378 1403 2484 
z
M 1172 3481 
Q 1172 3119 1398 2916 
Q 1625 2713 2034 2713 
Q 2441 2713 2670 2916 
Q 2900 3119 2900 3481 
Q 2900 3844 2670 4047 
Q 2441 4250 2034 4250 
Q 1625 4250 1398 4047 
Q 1172 3844 1172 3481 
z
" transform="scale(0.015625)"/>
       </defs>
       <use xlink:href="#DejaVuSans-30"/>
       <use xlink:href="#DejaVuSans-31" transform="translate(63.623047 0)"/>
       <use xlink:href="#DejaVuSans-2d" transform="translate(127.246094 0)"/>
       <use xlink:href="#DejaVuSans-31" transform="translate(163.330078 0)"/>
       <use xlink:href="#DejaVuSans-34" transform="translate(226.953125 0)"/>
       <use xlink:href="#DejaVuSans-20" transform="translate(290.576172 0)"/>
       <use xlink:href="#DejaVuSans-31" transform="translate(322.363281 0)"/>
       <use xlink:href="#DejaVuSans-38" transform="translate(385.986328 0)"/>
      </g>
     </g>
    </g>
    <g id="xtick_6">
     <g id="line2d_11">
      <path d="M 419.727273 384.48 
L 419.727273 51.84 
" clip-path="url(#pc41df297d7)" style="fill: none; stroke: #b0b0b0; stroke-width: 0.8; stroke-linecap: square"/>
     </g>
     <g id="line2d_12">
      <g>
       <use xlink:href="#m2b626dcf57" x="419.727273" y="384.48" style="stroke: #000000; stroke-width: 0.8"/>
      </g>
     </g>
     <g id="text_6">
      <!-- 01-14 19 -->
      <g transform="translate(397.246804 399.078438) scale(0.1 -0.1)">
       <defs>
        <path id="DejaVuSans-39" d="M 703 97 
L 703 672 
Q 941 559 1184 500 
Q 1428 441 1663 441 
Q 2288 441 2617 861 
Q 2947 1281 2994 2138 
Q 2813 1869 2534 1725 
Q 2256 1581 1919 1581 
Q 1219 1581 811 2004 
Q 403 2428 403 3163 
Q 403 3881 828 4315 
Q 1253 4750 1959 4750 
Q 2769 4750 3195 4129 
Q 3622 3509 3622 2328 
Q 3622 1225 3098 567 
Q 2575 -91 1691 -91 
Q 1453 -91 1209 -44 
Q 966 3 703 97 
z
M 1959 2075 
Q 2384 2075 2632 2365 
Q 2881 2656 2881 3163 
Q 2881 3666 2632 3958 
Q 2384 4250 1959 4250 
Q 1534 4250 1286 3958 
Q 1038 3666 1038 3163 
Q 1038 2656 1286 2365 
Q 1534 2075 1959 2075 
z
" transform="scale(0.015625)"/>
       </defs>
       <use xlink:href="#DejaVuSans-30"/>
       <use xlink:href="#DejaVuSans-31" transform="translate(63.623047 0)"/>
       <use xlink:href="#DejaVuSans-2d" transform="translate(127.246094 0)"/>
       <use xlink:href="#DejaVuSans-31" transform="translate(163.330078 0)"/>
       <use xlink:href="#DejaVuSans-34" transform="translate(226.953125 0)"/>
       <use xlink:href="#DejaVuSans-20" transform="translate(290.576172 0)"/>
       <use xlink:href="#DejaVuSans-31" transform="translate(322.363281 0)"/>
       <use xlink:href="#DejaVuSans-39" transform="translate(385.986328 0)"/>
      </g>
     </g>
    </g>
    <g id="xtick_7">
     <g id="line2d_13">
      <path d="M 475.573812 384.48 
L 475.573812 51.84 
" clip-path="url(#pc41df297d7)" style="fill: none; stroke: #b0b0b0; stroke-width: 0.8; stroke-linecap: square"/>
     </g>
     <g id="line2d_14">
      <g>
       <use xlink:href="#m2b626dcf57" x="475.573812" y="384.48" style="stroke: #000000; stroke-width: 0.8"/>
      </g>
     </g>
     <g id="text_7">
      <!-- 01-14 20 -->
      <g transform="translate(453.093343 399.078438) scale(0.1 -0.1)">
       <defs>
        <path id="DejaVuSans-32" d="M 1228 531 
L 3431 531 
L 3431 0 
L 469 0 
L 469 531 
Q 828 903 1448 1529 
Q 2069 2156 2228 2338 
Q 2531 2678 2651 2914 
Q 2772 3150 2772 3378 
Q 2772 3750 2511 3984 
Q 2250 4219 1831 4219 
Q 1534 4219 1204 4116 
Q 875 4013 500 3803 
L 500 4441 
Q 881 4594 1212 4672 
Q 1544 4750 1819 4750 
Q 2544 4750 2975 4387 
Q 3406 4025 3406 3419 
Q 3406 3131 3298 2873 
Q 3191 2616 2906 2266 
Q 2828 2175 2409 1742 
Q 1991 1309 1228 531 
z
" transform="scale(0.015625)"/>
       </defs>
       <use xlink:href="#DejaVuSans-30"/>
       <use xlink:href="#DejaVuSans-31" transform="translate(63.623047 0)"/>
       <use xlink:href="#DejaVuSans-2d" transform="translate(127.246094 0)"/>
       <use xlink:href="#DejaVuSans-31" transform="translate(163.330078 0)"/>
       <use xlink:href="#DejaVuSans-34" transform="translate(226.953125 0)"/>
       <use xlink:href="#DejaVuSans-20" transform="translate(290.576172 0)"/>
       <use xlink:href="#DejaVuSans-32" transform="translate(322.363281 0)"/>
       <use xlink:href="#DejaVuSans-30" transform="translate(385.986328 0)"/>
      </g>
     </g>
    </g>
    <g id="xtick_8">
     <g id="line2d_15">
      <path d="M 531.42035 384.48 
L 531.42035 51.84 
" clip-path="url(#pc41df297d7)" style="fill: none; stroke: #b0b0b0; stroke-width: 0.8; stroke-linecap: square"/>
     </g>
     <g id="line2d_16">
      <g>
       <use xlink:href="#m2b626dcf57" x="531.42035" y="384.48" style="stroke: #000000; stroke-width: 0.8"/>
      </g>
     </g>
     <g id="text_8">
      <!-- 01-14 21 -->
      <g transform="translate(508.939882 399.078438) scale(0.1 -0.1)">
       <use xlink:href="#DejaVuSans-30"/>
       <use xlink:href="#DejaVuSans-31" transform="translate(63.623047 0)"/>
       <use xlink:href="#DejaVuSans-2d" transform="translate(127.246094 0)"/>
       <use xlink:href="#DejaVuSans-31" transform="translate(163.330078 0)"/>
       <use xlink:href="#DejaVuSans-34" transform="translate(226.953125 0)"/>
       <use xlink:href="#DejaVuSans-20" transform="translate(290.576172 0)"/>
       <use xlink:href="#DejaVuSans-32" transform="translate(322.363281 0)"/>
       <use xlink:href="#DejaVuSans-31" transform="translate(385.986328 0)"/>
      </g>
     </g>
    </g>
    <g id="xtick_9">
     <g id="line2d_17">
      <path d="M 587.266889 384.48 
L 587.266889 51.84 
" clip-path="url(#pc41df297d7)" style="fill: none; stroke: #b0b0b0; stroke-width: 0.8; stroke-linecap: square"/>
     </g>
     <g id="line2d_18">
      <g>
       <use xlink:href="#m2b626dcf57" x="587.266889" y="384.48" style="stroke: #000000; stroke-width: 0.8"/>
      </g>
     </g>
     <g id="text_9">
      <!-- 01-14 22 -->
      <g transform="translate(564.78642 399.078438) scale(0.1 -0.1)">
       <use xlink:href="#DejaVuSans-30"/>
       <use xlink:href="#DejaVuSans-31" transform="translate(63.623047 0)"/>
       <use xlink:href="#DejaVuSans-2d" transform="translate(127.246094 0)"/>
       <use xlink:href="#DejaVuSans-31" transform="translate(163.330078 0)"/>
       <use xlink:href="#DejaVuSans-34" transform="translate(226.953125 0)"/>
       <use xlink:href="#DejaVuSans-20" transform="translate(290.576172 0)"/>
       <use xlink:href="#DejaVuSans-32" transform="translate(322.363281 0)"/>
       <use xlink:href="#DejaVuSans-32" transform="translate(385.986328 0)"/>
      </g>
     </g>
    </g>
    <g id="xtick_10">
     <g id="line2d_19">
      <path d="M 643.113428 384.48 
L 643.113428 51.84 
" clip-path="url(#pc41df297d7)" style="fill: none; stroke: #b0b0b0; stroke-width: 0.8; stroke-linecap: square"/>
     </g>
     <g id="line2d_20">
      <g>
       <use xlink:href="#m2b626dcf57" x="643.113428" y="384.48" style="stroke: #000000; stroke-width: 0.8"/>
      </g>
     </g>
     <g id="text_10">
      <!-- 01-14 23 -->
      <g transform="translate(620.632959 399.078438) scale(0.1 -0.1)">
       <defs>
        <path id="DejaVuSans-33" d="M 2597 2516 
Q 3050 2419 3304 2112 
Q 3559 1806 3559 1356 
Q 3559 666 3084 287 
Q 2609 -91 1734 -91 
Q 1441 -91 1130 -33 
Q 819 25 488 141 
L 488 750 
Q 750 597 1062 519 
Q 1375 441 1716 441 
Q 2309 441 2620 675 
Q 2931 909 2931 1356 
Q 2931 1769 2642 2001 
Q 2353 2234 1838 2234 
L 1294 2234 
L 1294 2753 
L 1863 2753 
Q 2328 2753 2575 2939 
Q 2822 3125 2822 3475 
Q 2822 3834 2567 4026 
Q 2313 4219 1838 4219 
Q 1578 4219 1281 4162 
Q 984 4106 628 3988 
L 628 4550 
Q 988 4650 1302 4700 
Q 1616 4750 1894 4750 
Q 2613 4750 3031 4423 
Q 3450 4097 3450 3541 
Q 3450 3153 3228 2886 
Q 3006 2619 2597 2516 
z
" transform="scale(0.015625)"/>
       </defs>
       <use xlink:href="#DejaVuSans-30"/>
       <use xlink:href="#DejaVuSans-31" transform="translate(63.623047 0)"/>
       <use xlink:href="#DejaVuSans-2d" transform="translate(127.246094 0)"/>
       <use xlink:href="#DejaVuSans-31" transform="translate(163.330078 0)"/>
       <use xlink:href="#DejaVuSans-34" transform="translate(226.953125 0)"/>
       <use xlink:href="#DejaVuSans-20" transform="translate(290.576172 0)"/>
       <use xlink:href="#DejaVuSans-32" transform="translate(322.363281 0)"/>
       <use xlink:href="#DejaVuSans-33" transform="translate(385.986328 0)"/>
      </g>
     </g>
    </g>
    <g id="text_11">
     <!-- Date and Time -->
     <g transform="translate(332.230469 412.756563) scale(0.1 -0.1)">
      <defs>
       <path id="DejaVuSans-44" d="M 1259 4147 
L 1259 519 
L 2022 519 
Q 2988 519 3436 956 
Q 3884 1394 3884 2338 
Q 3884 3275 3436 3711 
Q 2988 4147 2022 4147 
L 1259 4147 
z
M 628 4666 
L 1925 4666 
Q 3281 4666 3915 4102 
Q 4550 3538 4550 2338 
Q 4550 1131 3912 565 
Q 3275 0 1925 0 
L 628 0 
L 628 4666 
z
" transform="scale(0.015625)"/>
       <path id="DejaVuSans-61" d="M 2194 1759 
Q 1497 1759 1228 1600 
Q 959 1441 959 1056 
Q 959 750 1161 570 
Q 1363 391 1709 391 
Q 2188 391 2477 730 
Q 2766 1069 2766 1631 
L 2766 1759 
L 2194 1759 
z
M 3341 1997 
L 3341 0 
L 2766 0 
L 2766 531 
Q 2569 213 2275 61 
Q 1981 -91 1556 -91 
Q 1019 -91 701 211 
Q 384 513 384 1019 
Q 384 1609 779 1909 
Q 1175 2209 1959 2209 
L 2766 2209 
L 2766 2266 
Q 2766 2663 2505 2880 
Q 2244 3097 1772 3097 
Q 1472 3097 1187 3025 
Q 903 2953 641 2809 
L 641 3341 
Q 956 3463 1253 3523 
Q 1550 3584 1831 3584 
Q 2591 3584 2966 3190 
Q 3341 2797 3341 1997 
z
" transform="scale(0.015625)"/>
       <path id="DejaVuSans-74" d="M 1172 4494 
L 1172 3500 
L 2356 3500 
L 2356 3053 
L 1172 3053 
L 1172 1153 
Q 1172 725 1289 603 
Q 1406 481 1766 481 
L 2356 481 
L 2356 0 
L 1766 0 
Q 1100 0 847 248 
Q 594 497 594 1153 
L 594 3053 
L 172 3053 
L 172 3500 
L 594 3500 
L 594 4494 
L 1172 4494 
z
" transform="scale(0.015625)"/>
       <path id="DejaVuSans-65" d="M 3597 1894 
L 3597 1613 
L 953 1613 
Q 991 1019 1311 708 
Q 1631 397 2203 397 
Q 2534 397 2845 478 
Q 3156 559 3463 722 
L 3463 178 
Q 3153 47 2828 -22 
Q 2503 -91 2169 -91 
Q 1331 -91 842 396 
Q 353 884 353 1716 
Q 353 2575 817 3079 
Q 1281 3584 2069 3584 
Q 2775 3584 3186 3129 
Q 3597 2675 3597 1894 
z
M 3022 2063 
Q 3016 2534 2758 2815 
Q 2500 3097 2075 3097 
Q 1594 3097 1305 2825 
Q 1016 2553 972 2059 
L 3022 2063 
z
" transform="scale(0.015625)"/>
       <path id="DejaVuSans-6e" d="M 3513 2113 
L 3513 0 
L 2938 0 
L 2938 2094 
Q 2938 2591 2744 2837 
Q 2550 3084 2163 3084 
Q 1697 3084 1428 2787 
Q 1159 2491 1159 1978 
L 1159 0 
L 581 0 
L 581 3500 
L 1159 3500 
L 1159 2956 
Q 1366 3272 1645 3428 
Q 1925 3584 2291 3584 
Q 2894 3584 3203 3211 
Q 3513 2838 3513 2113 
z
" transform="scale(0.015625)"/>
       <path id="DejaVuSans-64" d="M 2906 2969 
L 2906 4863 
L 3481 4863 
L 3481 0 
L 2906 0 
L 2906 525 
Q 2725 213 2448 61 
Q 2172 -91 1784 -91 
Q 1150 -91 751 415 
Q 353 922 353 1747 
Q 353 2572 751 3078 
Q 1150 3584 1784 3584 
Q 2172 3584 2448 3432 
Q 2725 3281 2906 2969 
z
M 947 1747 
Q 947 1113 1208 752 
Q 1469 391 1925 391 
Q 2381 391 2643 752 
Q 2906 1113 2906 1747 
Q 2906 2381 2643 2742 
Q 2381 3103 1925 3103 
Q 1469 3103 1208 2742 
Q 947 2381 947 1747 
z
" transform="scale(0.015625)"/>
       <path id="DejaVuSans-54" d="M -19 4666 
L 3928 4666 
L 3928 4134 
L 2272 4134 
L 2272 0 
L 1638 0 
L 1638 4134 
L -19 4134 
L -19 4666 
z
" transform="scale(0.015625)"/>
       <path id="DejaVuSans-69" d="M 603 3500 
L 1178 3500 
L 1178 0 
L 603 0 
L 603 3500 
z
M 603 4863 
L 1178 4863 
L 1178 4134 
L 603 4134 
L 603 4863 
z
" transform="scale(0.015625)"/>
       <path id="DejaVuSans-6d" d="M 3328 2828 
Q 3544 3216 3844 3400 
Q 4144 3584 4550 3584 
Q 5097 3584 5394 3201 
Q 5691 2819 5691 2113 
L 5691 0 
L 5113 0 
L 5113 2094 
Q 5113 2597 4934 2840 
Q 4756 3084 4391 3084 
Q 3944 3084 3684 2787 
Q 3425 2491 3425 1978 
L 3425 0 
L 2847 0 
L 2847 2094 
Q 2847 2600 2669 2842 
Q 2491 3084 2119 3084 
Q 1678 3084 1418 2786 
Q 1159 2488 1159 1978 
L 1159 0 
L 581 0 
L 581 3500 
L 1159 3500 
L 1159 2956 
Q 1356 3278 1631 3431 
Q 1906 3584 2284 3584 
Q 2666 3584 2933 3390 
Q 3200 3197 3328 2828 
z
" transform="scale(0.015625)"/>
      </defs>
      <use xlink:href="#DejaVuSans-44"/>
      <use xlink:href="#DejaVuSans-61" transform="translate(77.001953 0)"/>
      <use xlink:href="#DejaVuSans-74" transform="translate(138.28125 0)"/>
      <use xlink:href="#DejaVuSans-65" transform="translate(177.490234 0)"/>
      <use xlink:href="#DejaVuSans-20" transform="translate(239.013672 0)"/>
      <use xlink:href="#DejaVuSans-61" transform="translate(270.800781 0)"/>
      <use xlink:href="#DejaVuSans-6e" transform="translate(332.080078 0)"/>
      <use xlink:href="#DejaVuSans-64" transform="translate(395.458984 0)"/>
      <use xlink:href="#DejaVuSans-20" transform="translate(458.935547 0)"/>
      <use xlink:href="#DejaVuSans-54" transform="translate(490.722656 0)"/>
      <use xlink:href="#DejaVuSans-69" transform="translate(548.681641 0)"/>
      <use xlink:href="#DejaVuSans-6d" transform="translate(576.464844 0)"/>
      <use xlink:href="#DejaVuSans-65" transform="translate(673.876953 0)"/>
     </g>
    </g>
   </g>
   <g id="matplotlib.axis_2">
    <g id="ytick_1">
     <g id="line2d_21">
      <path d="M 90 370.323057 
L 648 370.323057 
" clip-path="url(#pc41df297d7)" style="fill: none; stroke: #b0b0b0; stroke-width: 0.8; stroke-linecap: square"/>
     </g>
     <g id="line2d_22">
      <defs>
       <path id="m0b9ee54476" d="M 0 0 
L -3.5 0 
" style="stroke: #000000; stroke-width: 0.8"/>
      </defs>
      <g>
       <use xlink:href="#m0b9ee54476" x="90" y="370.323057" style="stroke: #000000; stroke-width: 0.8"/>
      </g>
     </g>
     <g id="text_12">
      <!-- 0 -->
      <g transform="translate(76.6375 374.122276) scale(0.1 -0.1)">
       <use xlink:href="#DejaVuSans-30"/>
      </g>
     </g>
    </g>
    <g id="ytick_2">
     <g id="line2d_23">
      <path d="M 90 322.170191 
L 648 322.170191 
" clip-path="url(#pc41df297d7)" style="fill: none; stroke: #b0b0b0; stroke-width: 0.8; stroke-linecap: square"/>
     </g>
     <g id="line2d_24">
      <g>
       <use xlink:href="#m0b9ee54476" x="90" y="322.170191" style="stroke: #000000; stroke-width: 0.8"/>
      </g>
     </g>
     <g id="text_13">
      <!-- 50 -->
      <g transform="translate(70.275 325.96941) scale(0.1 -0.1)">
       <use xlink:href="#DejaVuSans-35"/>
       <use xlink:href="#DejaVuSans-30" transform="translate(63.623047 0)"/>
      </g>
     </g>
    </g>
    <g id="ytick_3">
     <g id="line2d_25">
      <path d="M 90 274.017325 
L 648 274.017325 
" clip-path="url(#pc41df297d7)" style="fill: none; stroke: #b0b0b0; stroke-width: 0.8; stroke-linecap: square"/>
     </g>
     <g id="line2d_26">
      <g>
       <use xlink:href="#m0b9ee54476" x="90" y="274.017325" style="stroke: #000000; stroke-width: 0.8"/>
      </g>
     </g>
     <g id="text_14">
      <!-- 100 -->
      <g transform="translate(63.9125 277.816544) scale(0.1 -0.1)">
       <use xlink:href="#DejaVuSans-31"/>
       <use xlink:href="#DejaVuSans-30" transform="translate(63.623047 0)"/>
       <use xlink:href="#DejaVuSans-30" transform="translate(127.246094 0)"/>
      </g>
     </g>
    </g>
    <g id="ytick_4">
     <g id="line2d_27">
      <path d="M 90 225.864459 
L 648 225.864459 
" clip-path="url(#pc41df297d7)" style="fill: none; stroke: #b0b0b0; stroke-width: 0.8; stroke-linecap: square"/>
     </g>
     <g id="line2d_28">
      <g>
       <use xlink:href="#m0b9ee54476" x="90" y="225.864459" style="stroke: #000000; stroke-width: 0.8"/>
      </g>
     </g>
     <g id="text_15">
      <!-- 150 -->
      <g transform="translate(63.9125 229.663677) scale(0.1 -0.1)">
       <use xlink:href="#DejaVuSans-31"/>
       <use xlink:href="#DejaVuSans-35" transform="translate(63.623047 0)"/>
       <use xlink:href="#DejaVuSans-30" transform="translate(127.246094 0)"/>
      </g>
     </g>
    </g>
    <g id="ytick_5">
     <g id="line2d_29">
      <path d="M 90 177.711592 
L 648 177.711592 
" clip-path="url(#pc41df297d7)" style="fill: none; stroke: #b0b0b0; stroke-width: 0.8; stroke-linecap: square"/>
     </g>
     <g id="line2d_30">
      <g>
       <use xlink:href="#m0b9ee54476" x="90" y="177.711592" style="stroke: #000000; stroke-width: 0.8"/>
      </g>
     </g>
     <g id="text_16">
      <!-- 200 -->
      <g transform="translate(63.9125 181.510811) scale(0.1 -0.1)">
       <use xlink:href="#DejaVuSans-32"/>
       <use xlink:href="#DejaVuSans-30" transform="translate(63.623047 0)"/>
       <use xlink:href="#DejaVuSans-30" transform="translate(127.246094 0)"/>
      </g>
     </g>
    </g>
    <g id="ytick_6">
     <g id="line2d_31">
      <path d="M 90 129.558726 
L 648 129.558726 
" clip-path="url(#pc41df297d7)" style="fill: none; stroke: #b0b0b0; stroke-width: 0.8; stroke-linecap: square"/>
     </g>
     <g id="line2d_32">
      <g>
       <use xlink:href="#m0b9ee54476" x="90" y="129.558726" style="stroke: #000000; stroke-width: 0.8"/>
      </g>
     </g>
     <g id="text_17">
      <!-- 250 -->
      <g transform="translate(63.9125 133.357945) scale(0.1 -0.1)">
       <use xlink:href="#DejaVuSans-32"/>
       <use xlink:href="#DejaVuSans-35" transform="translate(63.623047 0)"/>
       <use xlink:href="#DejaVuSans-30" transform="translate(127.246094 0)"/>
      </g>
     </g>
    </g>
    <g id="ytick_7">
     <g id="line2d_33">
      <path d="M 90 81.40586 
L 648 81.40586 
" clip-path="url(#pc41df297d7)" style="fill: none; stroke: #b0b0b0; stroke-width: 0.8; stroke-linecap: square"/>
     </g>
     <g id="line2d_34">
      <g>
       <use xlink:href="#m0b9ee54476" x="90" y="81.40586" style="stroke: #000000; stroke-width: 0.8"/>
      </g>
     </g>
     <g id="text_18">
      <!-- 300 -->
      <g transform="translate(63.9125 85.205079) scale(0.1 -0.1)">
       <use xlink:href="#DejaVuSans-33"/>
       <use xlink:href="#DejaVuSans-30" transform="translate(63.623047 0)"/>
       <use xlink:href="#DejaVuSans-30" transform="translate(127.246094 0)"/>
      </g>
     </g>
    </g>
    <g id="text_19">
     <!-- Votes -->
     <g transform="translate(57.832812 231.893594) rotate(-90) scale(0.1 -0.1)">
      <defs>
       <path id="DejaVuSans-56" d="M 1831 0 
L 50 4666 
L 709 4666 
L 2188 738 
L 3669 4666 
L 4325 4666 
L 2547 0 
L 1831 0 
z
" transform="scale(0.015625)"/>
       <path id="DejaVuSans-6f" d="M 1959 3097 
Q 1497 3097 1228 2736 
Q 959 2375 959 1747 
Q 959 1119 1226 758 
Q 1494 397 1959 397 
Q 2419 397 2687 759 
Q 2956 1122 2956 1747 
Q 2956 2369 2687 2733 
Q 2419 3097 1959 3097 
z
M 1959 3584 
Q 2709 3584 3137 3096 
Q 3566 2609 3566 1747 
Q 3566 888 3137 398 
Q 2709 -91 1959 -91 
Q 1206 -91 779 398 
Q 353 888 353 1747 
Q 353 2609 779 3096 
Q 1206 3584 1959 3584 
z
" transform="scale(0.015625)"/>
       <path id="DejaVuSans-73" d="M 2834 3397 
L 2834 2853 
Q 2591 2978 2328 3040 
Q 2066 3103 1784 3103 
Q 1356 3103 1142 2972 
Q 928 2841 928 2578 
Q 928 2378 1081 2264 
Q 1234 2150 1697 2047 
L 1894 2003 
Q 2506 1872 2764 1633 
Q 3022 1394 3022 966 
Q 3022 478 2636 193 
Q 2250 -91 1575 -91 
Q 1294 -91 989 -36 
Q 684 19 347 128 
L 347 722 
Q 666 556 975 473 
Q 1284 391 1588 391 
Q 1994 391 2212 530 
Q 2431 669 2431 922 
Q 2431 1156 2273 1281 
Q 2116 1406 1581 1522 
L 1381 1569 
Q 847 1681 609 1914 
Q 372 2147 372 2553 
Q 372 3047 722 3315 
Q 1072 3584 1716 3584 
Q 2034 3584 2315 3537 
Q 2597 3491 2834 3397 
z
" transform="scale(0.015625)"/>
      </defs>
      <use xlink:href="#DejaVuSans-56"/>
      <use xlink:href="#DejaVuSans-6f" transform="translate(60.658203 0)"/>
      <use xlink:href="#DejaVuSans-74" transform="translate(121.839844 0)"/>
      <use xlink:href="#DejaVuSans-65" transform="translate(161.048828 0)"/>
      <use xlink:href="#DejaVuSans-73" transform="translate(222.572266 0)"/>
     </g>
    </g>
   </g>
   <g id="line2d_35">
    <path d="M 115.363636 352.988025 
L 124.671393 352.988025 
L 125.602168 352.024968 
L 134.909925 352.024968 
L 135.840701 350.098854 
L 144.217681 350.098854 
L 145.148457 349.135796 
L 149.802335 349.135796 
L 150.733111 348.172739 
L 154.456214 348.172739 
L 155.386989 347.209682 
L 158.179316 347.209682 
L 159.110092 346.246624 
L 172.140951 346.246624 
L 173.071726 345.283567 
L 183.310259 345.283567 
L 185.17181 343.357452 
L 187.033361 343.357452 
L 187.964137 342.394395 
L 196.341118 342.394395 
L 198.202669 340.46828 
L 209.371977 340.46828 
L 210.302752 339.505223 
L 213.095079 339.505223 
L 214.025855 338.542166 
L 214.956631 338.542166 
L 215.887406 337.579108 
L 241.018349 337.579108 
L 241.949124 336.616051 
L 253.118432 336.616051 
L 254.049208 335.652994 
L 260.564637 335.652994 
L 261.495413 334.689936 
L 262.426188 332.763822 
L 263.356964 332.763822 
L 265.218515 330.837707 
L 280.110926 330.837707 
L 281.041701 329.87465 
L 286.626355 329.87465 
L 287.557131 328.911592 
L 291.280234 328.911592 
L 292.211009 327.948535 
L 301.518766 327.948535 
L 302.449541 326.985478 
L 304.311093 326.985478 
L 305.241868 326.02242 
L 308.034195 326.02242 
L 308.964971 325.059363 
L 316.411176 325.059363 
L 317.341952 324.096306 
L 318.272727 324.096306 
L 319.203503 323.133248 
L 328.511259 323.133248 
L 329.442035 322.170191 
L 335.957465 322.170191 
L 336.88824 321.207134 
L 337.819016 321.207134 
L 339.680567 319.281019 
L 360.157631 319.281019 
L 361.088407 318.317962 
L 375.980817 318.317962 
L 376.911593 317.354904 
L 377.842369 317.354904 
L 378.773144 316.391847 
L 387.150125 316.391847 
L 388.080901 315.42879 
L 389.011676 315.42879 
L 389.942452 314.465732 
L 394.59633 314.465732 
L 395.527106 313.502675 
L 398.319433 313.502675 
L 400.180984 311.576561 
L 401.11176 311.576561 
L 402.042535 310.613503 
L 403.904087 310.613503 
L 404.834862 309.650446 
L 406.696414 309.650446 
L 407.627189 308.687389 
L 409.488741 308.687389 
L 410.419516 307.724331 
L 432.758132 307.724331 
L 433.688907 306.761274 
L 442.996664 306.761274 
L 443.92744 305.798217 
L 449.512093 305.798217 
L 450.442869 304.835159 
L 451.373645 304.835159 
L 452.30442 303.872102 
L 453.235196 303.872102 
L 456.958299 300.019873 
L 458.81985 300.019873 
L 459.750626 298.093758 
L 467.196831 298.093758 
L 469.058382 296.167643 
L 470.919933 296.167643 
L 471.850709 295.204586 
L 475.573812 295.204586 
L 476.504587 294.241529 
L 483.020017 294.241529 
L 483.950792 293.278471 
L 485.812344 293.278471 
L 486.743119 292.315414 
L 492.327773 292.315414 
L 494.189324 290.389299 
L 500.704754 290.389299 
L 501.63553 289.426242 
L 504.427857 289.426242 
L 505.358632 288.463185 
L 507.220183 288.463185 
L 508.150959 286.53707 
L 511.874062 286.53707 
L 512.804837 284.610955 
L 513.735613 283.647898 
L 517.458716 283.647898 
L 518.389491 281.721783 
L 524.904921 281.721783 
L 525.835696 280.758726 
L 529.558799 280.758726 
L 530.489575 279.795669 
L 533.281902 279.795669 
L 534.212677 278.832611 
L 535.143453 276.906497 
L 537.005004 276.906497 
L 537.93578 275.943439 
L 552.82819 275.943439 
L 554.689741 274.017325 
L 567.7206 274.017325 
L 568.651376 273.054268 
L 574.23603 273.054268 
L 575.166806 272.09121 
L 587.266889 272.09121 
L 588.197665 271.128153 
L 596.574646 271.128153 
L 597.505421 270.165096 
L 621.705588 270.165096 
L 622.636364 269.202038 
L 622.636364 269.202038 
" clip-path="url(#pc41df297d7)" style="fill: none; stroke: #1f77b4; stroke-width: 1.5; stroke-linecap: square"/>
   </g>
   <g id="line2d_36">
    <path d="M 115.363636 291.352357 
L 116.294412 290.389299 
L 119.086739 290.389299 
L 120.017515 289.426242 
L 120.94829 289.426242 
L 121.879066 288.463185 
L 122.809842 288.463185 
L 124.671393 286.53707 
L 125.602168 284.610955 
L 126.532944 284.610955 
L 128.394495 282.684841 
L 129.325271 282.684841 
L 130.256047 278.832611 
L 131.186822 276.906497 
L 132.117598 273.054268 
L 133.048374 270.165096 
L 135.840701 270.165096 
L 136.771476 267.275924 
L 137.702252 265.349809 
L 139.563803 263.423694 
L 140.494579 261.49758 
L 142.35613 259.571465 
L 143.286906 257.64535 
L 146.079233 257.64535 
L 147.010008 252.830064 
L 147.940784 250.903949 
L 148.87156 249.940892 
L 149.802335 248.014777 
L 150.733111 247.05172 
L 151.663887 247.05172 
L 152.594662 244.162548 
L 153.525438 244.162548 
L 154.456214 242.236433 
L 155.386989 241.273376 
L 156.317765 241.273376 
L 157.24854 240.310318 
L 159.110092 240.310318 
L 160.040867 239.347261 
L 161.902419 239.347261 
L 162.833194 237.421146 
L 163.76397 237.421146 
L 164.694746 236.458089 
L 168.417848 236.458089 
L 169.348624 235.495032 
L 172.140951 235.495032 
L 173.071726 234.531975 
L 174.002502 234.531975 
L 174.933278 232.60586 
L 175.864053 232.60586 
L 176.794829 230.679745 
L 177.725605 229.716688 
L 180.517932 229.716688 
L 181.448707 227.790573 
L 182.379483 226.827516 
L 183.310259 223.938344 
L 185.17181 222.012229 
L 192.618015 222.012229 
L 193.548791 219.123057 
L 194.479566 219.123057 
L 196.341118 217.196943 
L 197.271893 217.196943 
L 200.06422 214.307771 
L 201.925771 214.307771 
L 202.856547 213.344713 
L 204.718098 213.344713 
L 207.510425 210.455541 
L 209.371977 210.455541 
L 210.302752 209.492484 
L 214.956631 209.492484 
L 215.887406 208.529427 
L 217.748957 208.529427 
L 218.679733 207.566369 
L 229.849041 207.566369 
L 230.779817 205.640255 
L 232.641368 205.640255 
L 234.502919 203.71414 
L 235.433695 203.71414 
L 236.36447 202.751083 
L 241.949124 202.751083 
L 244.741451 199.861911 
L 245.672227 199.861911 
L 246.603002 198.898854 
L 247.533778 196.972739 
L 248.464554 196.972739 
L 249.395329 196.009682 
L 250.326105 196.009682 
L 254.049208 192.157452 
L 255.910759 192.157452 
L 256.841535 190.231338 
L 259.633862 190.231338 
L 260.564637 189.26828 
L 263.356964 189.26828 
L 264.28774 188.305223 
L 265.218515 188.305223 
L 266.149291 185.416051 
L 268.941618 185.416051 
L 269.872394 184.452994 
L 270.803169 182.526879 
L 272.664721 182.526879 
L 273.595496 181.563822 
L 275.457048 181.563822 
L 276.387823 180.600764 
L 277.318599 180.600764 
L 281.972477 175.785478 
L 283.834028 175.785478 
L 286.626355 172.896306 
L 289.418682 172.896306 
L 290.349458 170.970191 
L 291.280234 170.970191 
L 292.211009 170.007134 
L 295.003336 170.007134 
L 295.934112 169.044076 
L 304.311093 169.044076 
L 305.241868 168.081019 
L 311.757298 168.081019 
L 312.688073 167.117962 
L 314.549625 167.117962 
L 316.411176 165.191847 
L 321.065054 165.191847 
L 321.99583 164.22879 
L 326.649708 164.22879 
L 329.442035 161.339618 
L 341.542118 161.339618 
L 342.472894 159.413503 
L 343.40367 158.450446 
L 365.742285 158.450446 
L 366.673061 157.487389 
L 372.257715 157.487389 
L 374.119266 155.561274 
L 375.980817 155.561274 
L 376.911593 154.598217 
L 377.842369 154.598217 
L 379.70392 152.672102 
L 380.634696 152.672102 
L 381.565471 151.709045 
L 382.496247 151.709045 
L 384.357798 147.856815 
L 385.288574 146.893758 
L 389.942452 146.893758 
L 390.873228 144.004586 
L 391.804003 142.078471 
L 393.665555 142.078471 
L 395.527106 140.152357 
L 400.180984 140.152357 
L 402.042535 138.226242 
L 403.904087 138.226242 
L 404.834862 137.263185 
L 406.696414 137.263185 
L 407.627189 136.300127 
L 408.557965 136.300127 
L 409.488741 135.33707 
L 410.419516 135.33707 
L 411.350292 134.374013 
L 412.281068 134.374013 
L 413.211843 133.410955 
L 415.073394 133.410955 
L 416.00417 131.484841 
L 420.658048 131.484841 
L 422.5196 129.558726 
L 431.827356 129.558726 
L 432.758132 128.595669 
L 433.688907 128.595669 
L 434.619683 127.632611 
L 435.550459 127.632611 
L 438.342786 124.743439 
L 440.204337 124.743439 
L 441.135113 123.780382 
L 459.750626 123.780382 
L 461.612177 121.854268 
L 465.335279 121.854268 
L 466.266055 120.89121 
L 467.196831 120.89121 
L 468.127606 119.928153 
L 469.058382 119.928153 
L 469.989158 118.965096 
L 490.466222 118.965096 
L 491.396997 118.002038 
L 510.01251 118.002038 
L 510.943286 116.075924 
L 517.458716 116.075924 
L 519.320267 114.149809 
L 521.181818 114.149809 
L 522.112594 113.186752 
L 523.974145 113.186752 
L 525.835696 111.260637 
L 527.697248 111.260637 
L 528.628023 109.334522 
L 536.074229 109.334522 
L 537.005004 108.371465 
L 541.658882 108.371465 
L 542.589658 107.408408 
L 548.174312 107.408408 
L 549.105088 106.44535 
L 555.620517 106.44535 
L 557.482068 104.519236 
L 558.412844 104.519236 
L 559.34362 103.556178 
L 564.928274 103.556178 
L 565.859049 102.593121 
L 569.582152 102.593121 
L 570.512927 101.630064 
L 571.443703 101.630064 
L 572.374479 100.667006 
L 586.336113 100.667006 
L 589.12844 97.777834 
L 599.366972 97.777834 
L 600.297748 96.814777 
L 604.020851 96.814777 
L 604.951626 94.888662 
L 615.190158 94.888662 
L 616.120934 92.962548 
L 622.636364 92.962548 
L 622.636364 92.962548 
" clip-path="url(#pc41df297d7)" style="fill: none; stroke: #ff7f0e; stroke-width: 1.5; stroke-linecap: square"/>
   </g>
   <g id="line2d_37">
    <path d="M 115.363636 340.46828 
L 119.086739 340.46828 
L 120.017515 338.542166 
L 121.879066 338.542166 
L 122.809842 337.579108 
L 123.740617 335.652994 
L 124.671393 334.689936 
L 125.602168 331.800764 
L 126.532944 329.87465 
L 127.46372 328.911592 
L 128.394495 328.911592 
L 129.325271 326.985478 
L 130.256047 324.096306 
L 133.979149 324.096306 
L 134.909925 323.133248 
L 135.840701 323.133248 
L 136.771476 321.207134 
L 139.563803 321.207134 
L 141.425354 319.281019 
L 145.148457 319.281019 
L 146.079233 318.317962 
L 149.802335 318.317962 
L 152.594662 315.42879 
L 157.24854 315.42879 
L 158.179316 314.465732 
L 160.971643 314.465732 
L 161.902419 313.502675 
L 163.76397 313.502675 
L 164.694746 311.576561 
L 172.140951 311.576561 
L 173.071726 310.613503 
L 174.002502 308.687389 
L 174.933278 307.724331 
L 175.864053 307.724331 
L 176.794829 306.761274 
L 178.65638 306.761274 
L 179.587156 305.798217 
L 181.448707 305.798217 
L 182.379483 304.835159 
L 187.964137 304.835159 
L 188.894912 303.872102 
L 189.825688 303.872102 
L 190.756464 302.909045 
L 191.687239 302.909045 
L 192.618015 301.945987 
L 195.410342 301.945987 
L 196.341118 300.98293 
L 197.271893 299.056815 
L 201.925771 299.056815 
L 204.718098 296.167643 
L 207.510425 296.167643 
L 208.441201 295.204586 
L 212.164304 295.204586 
L 213.095079 294.241529 
L 214.025855 294.241529 
L 214.956631 293.278471 
L 216.818182 293.278471 
L 217.748957 292.315414 
L 220.541284 292.315414 
L 222.402836 290.389299 
L 223.333611 290.389299 
L 224.264387 289.426242 
L 231.710592 289.426242 
L 232.641368 287.500127 
L 233.572143 286.53707 
L 241.018349 286.53707 
L 241.949124 285.574013 
L 244.741451 285.574013 
L 245.672227 284.610955 
L 248.464554 284.610955 
L 249.395329 283.647898 
L 258.703086 283.647898 
L 259.633862 282.684841 
L 263.356964 282.684841 
L 264.28774 281.721783 
L 269.872394 281.721783 
L 270.803169 280.758726 
L 272.664721 280.758726 
L 273.595496 279.795669 
L 277.318599 279.795669 
L 279.18015 277.869554 
L 296.864887 277.869554 
L 297.795663 276.906497 
L 298.726439 276.906497 
L 299.657214 275.943439 
L 302.449541 275.943439 
L 303.380317 274.980382 
L 308.034195 274.980382 
L 308.964971 274.017325 
L 310.826522 274.017325 
L 311.757298 273.054268 
L 317.341952 273.054268 
L 318.272727 274.017325 
L 319.203503 273.054268 
L 325.718932 273.054268 
L 326.649708 272.09121 
L 334.095913 272.09121 
L 335.026689 271.128153 
L 336.88824 271.128153 
L 337.819016 270.165096 
L 338.749791 270.165096 
L 339.680567 269.202038 
L 346.195997 269.202038 
L 347.126772 268.238981 
L 352.711426 268.238981 
L 353.642202 267.275924 
L 367.603837 267.275924 
L 368.534612 266.312866 
L 389.011676 266.312866 
L 389.942452 265.349809 
L 399.250209 265.349809 
L 400.180984 264.386752 
L 415.073394 264.386752 
L 416.934946 262.460637 
L 433.688907 262.460637 
L 434.619683 261.49758 
L 435.550459 259.571465 
L 454.165972 259.571465 
L 455.096747 258.608408 
L 456.958299 258.608408 
L 457.889074 257.64535 
L 463.473728 257.64535 
L 464.404504 256.682293 
L 467.196831 256.682293 
L 469.058382 254.756178 
L 470.919933 254.756178 
L 471.850709 253.793121 
L 475.573812 253.793121 
L 476.504587 251.867006 
L 479.296914 251.867006 
L 480.22769 250.903949 
L 481.158465 250.903949 
L 483.020017 248.977834 
L 495.1201 248.977834 
L 496.050876 248.014777 
L 507.220183 248.014777 
L 508.150959 246.088662 
L 515.597164 246.088662 
L 517.458716 244.162548 
L 526.766472 244.162548 
L 529.558799 241.273376 
L 532.351126 241.273376 
L 533.281902 240.310318 
L 535.143453 240.310318 
L 536.074229 239.347261 
L 544.451209 239.347261 
L 545.381985 238.384204 
L 553.758966 238.384204 
L 554.689741 237.421146 
L 561.205171 237.421146 
L 563.066722 235.495032 
L 569.582152 235.495032 
L 570.512927 234.531975 
L 579.820684 234.531975 
L 580.75146 233.568917 
L 581.682235 233.568917 
L 582.613011 232.60586 
L 593.782319 232.60586 
L 594.713094 231.642803 
L 597.505421 231.642803 
L 598.436197 230.679745 
L 611.467056 230.679745 
L 612.397832 229.716688 
L 622.636364 229.716688 
L 622.636364 229.716688 
" clip-path="url(#pc41df297d7)" style="fill: none; stroke: #2ca02c; stroke-width: 1.5; stroke-linecap: square"/>
   </g>
   <g id="line2d_38">
    <path d="M 115.363636 369.36 
L 345.265221 369.36 
L 346.195997 368.396943 
L 543.520434 368.396943 
L 544.451209 367.433885 
L 622.636364 367.433885 
L 622.636364 367.433885 
" clip-path="url(#pc41df297d7)" style="fill: none; stroke: #d62728; stroke-width: 1.5; stroke-linecap: square"/>
   </g>
   <g id="line2d_39">
    <path d="M 115.363636 348.172739 
L 118.155963 348.172739 
L 119.086739 347.209682 
L 124.671393 347.209682 
L 125.602168 346.246624 
L 131.186822 346.246624 
L 132.117598 345.283567 
L 152.594662 345.283567 
L 153.525438 344.32051 
L 187.033361 344.32051 
L 188.894912 342.394395 
L 196.341118 342.394395 
L 197.271893 341.431338 
L 200.994996 341.431338 
L 201.925771 340.46828 
L 203.787323 340.46828 
L 204.718098 339.505223 
L 228.918265 339.505223 
L 229.849041 338.542166 
L 268.010842 338.542166 
L 268.941618 337.579108 
L 389.942452 337.579108 
L 390.873228 336.616051 
L 391.804003 336.616051 
L 392.734779 335.652994 
L 451.373645 335.652994 
L 452.30442 334.689936 
L 601.228524 334.689936 
L 602.159299 333.726879 
L 622.636364 333.726879 
L 622.636364 333.726879 
" clip-path="url(#pc41df297d7)" style="fill: none; stroke: #9467bd; stroke-width: 1.5; stroke-linecap: square"/>
   </g>
   <g id="line2d_40">
    <path d="M 115.363636 355.877197 
L 116.294412 355.877197 
L 117.225188 354.91414 
L 130.256047 354.91414 
L 131.186822 353.951083 
L 142.35613 353.951083 
L 143.286906 352.988025 
L 157.24854 352.988025 
L 159.110092 351.061911 
L 169.348624 351.061911 
L 170.279399 350.098854 
L 198.202669 350.098854 
L 199.133445 349.135796 
L 207.510425 349.135796 
L 208.441201 348.172739 
L 224.264387 348.172739 
L 225.195163 347.209682 
L 240.087573 347.209682 
L 241.018349 346.246624 
L 244.741451 346.246624 
L 245.672227 345.283567 
L 254.049208 345.283567 
L 254.979983 344.32051 
L 277.318599 344.32051 
L 278.249374 343.357452 
L 283.834028 343.357452 
L 284.764804 342.394395 
L 290.349458 342.394395 
L 291.280234 341.431338 
L 295.003336 341.431338 
L 295.934112 340.46828 
L 330.372811 340.46828 
L 331.303586 339.505223 
L 358.29608 339.505223 
L 359.226856 338.542166 
L 413.211843 338.542166 
L 414.142619 337.579108 
L 440.204337 337.579108 
L 441.135113 336.616051 
L 453.235196 336.616051 
L 454.165972 335.652994 
L 622.636364 335.652994 
L 622.636364 335.652994 
" clip-path="url(#pc41df297d7)" style="fill: none; stroke: #8c564b; stroke-width: 1.5; stroke-linecap: square"/>
   </g>
   <g id="line2d_41">
    <path d="M 115.363636 284.610955 
L 119.086739 284.610955 
L 120.017515 283.647898 
L 123.740617 283.647898 
L 125.602168 281.721783 
L 126.532944 281.721783 
L 127.46372 280.758726 
L 128.394495 280.758726 
L 129.325271 279.795669 
L 131.186822 279.795669 
L 132.117598 278.832611 
L 134.909925 278.832611 
L 135.840701 277.869554 
L 137.702252 277.869554 
L 138.633028 276.906497 
L 139.563803 276.906497 
L 140.494579 275.943439 
L 142.35613 275.943439 
L 144.217681 274.017325 
L 147.940784 274.017325 
L 148.87156 273.054268 
L 151.663887 273.054268 
L 153.525438 271.128153 
L 155.386989 271.128153 
L 156.317765 270.165096 
L 158.179316 270.165096 
L 159.110092 269.202038 
L 160.040867 267.275924 
L 160.971643 264.386752 
L 162.833194 264.386752 
L 163.76397 263.423694 
L 168.417848 263.423694 
L 170.279399 261.49758 
L 171.210175 259.571465 
L 172.140951 258.608408 
L 173.071726 258.608408 
L 174.002502 256.682293 
L 177.725605 256.682293 
L 178.65638 255.719236 
L 179.587156 255.719236 
L 181.448707 253.793121 
L 182.379483 253.793121 
L 183.310259 252.830064 
L 184.241034 252.830064 
L 186.102585 250.903949 
L 187.964137 250.903949 
L 188.894912 248.977834 
L 192.618015 248.977834 
L 194.479566 247.05172 
L 196.341118 247.05172 
L 197.271893 246.088662 
L 198.202669 244.162548 
L 200.994996 244.162548 
L 201.925771 243.19949 
L 202.856547 243.19949 
L 203.787323 241.273376 
L 204.718098 241.273376 
L 205.648874 240.310318 
L 206.57965 240.310318 
L 207.510425 239.347261 
L 211.233528 239.347261 
L 213.095079 237.421146 
L 214.025855 237.421146 
L 214.956631 235.495032 
L 215.887406 235.495032 
L 216.818182 234.531975 
L 217.748957 234.531975 
L 218.679733 233.568917 
L 221.47206 233.568917 
L 222.402836 232.60586 
L 223.333611 232.60586 
L 227.056714 228.753631 
L 227.98749 226.827516 
L 229.849041 226.827516 
L 231.710592 222.975287 
L 233.572143 222.975287 
L 235.433695 221.049172 
L 236.36447 221.049172 
L 237.295246 219.123057 
L 238.226022 219.123057 
L 239.156797 218.16 
L 240.087573 218.16 
L 241.018349 217.196943 
L 242.8799 217.196943 
L 243.810676 216.233885 
L 244.741451 216.233885 
L 245.672227 215.270828 
L 249.395329 215.270828 
L 250.326105 210.455541 
L 251.256881 210.455541 
L 252.187656 209.492484 
L 254.979983 209.492484 
L 255.910759 208.529427 
L 264.28774 208.529427 
L 265.218515 206.603312 
L 268.941618 206.603312 
L 269.872394 205.640255 
L 279.18015 205.640255 
L 280.110926 203.71414 
L 281.041701 202.751083 
L 285.69558 202.751083 
L 286.626355 201.788025 
L 293.141785 201.788025 
L 294.07256 200.824968 
L 295.003336 200.824968 
L 295.934112 199.861911 
L 301.518766 199.861911 
L 303.380317 197.935796 
L 309.895746 197.935796 
L 311.757298 196.009682 
L 312.688073 196.009682 
L 313.618849 195.046624 
L 319.203503 195.046624 
L 320.134279 194.083567 
L 322.926606 194.083567 
L 323.857381 193.12051 
L 324.788157 191.194395 
L 327.580484 191.194395 
L 328.511259 190.231338 
L 329.442035 190.231338 
L 331.303586 188.305223 
L 335.026689 188.305223 
L 335.957465 187.342166 
L 339.680567 187.342166 
L 340.611343 186.379108 
L 343.40367 186.379108 
L 344.334445 185.416051 
L 351.780651 185.416051 
L 353.642202 183.489936 
L 358.29608 183.489936 
L 359.226856 182.526879 
L 362.949958 182.526879 
L 367.603837 177.711592 
L 369.465388 177.711592 
L 370.396163 176.748535 
L 371.326939 176.748535 
L 372.257715 174.82242 
L 374.119266 172.896306 
L 375.980817 169.044076 
L 377.842369 169.044076 
L 379.70392 165.191847 
L 381.565471 165.191847 
L 382.496247 163.265732 
L 384.357798 161.339618 
L 387.150125 161.339618 
L 388.080901 160.376561 
L 389.011676 160.376561 
L 390.873228 158.450446 
L 394.59633 158.450446 
L 395.527106 157.487389 
L 397.388657 157.487389 
L 398.319433 156.524331 
L 402.973311 156.524331 
L 403.904087 154.598217 
L 404.834862 153.635159 
L 405.765638 153.635159 
L 406.696414 152.672102 
L 408.557965 152.672102 
L 409.488741 151.709045 
L 411.350292 151.709045 
L 412.281068 149.78293 
L 414.142619 149.78293 
L 415.073394 148.819873 
L 416.00417 148.819873 
L 416.934946 147.856815 
L 421.588824 147.856815 
L 422.5196 146.893758 
L 427.173478 146.893758 
L 428.104254 145.930701 
L 429.035029 145.930701 
L 429.965805 144.004586 
L 431.827356 142.078471 
L 432.758132 139.189299 
L 433.688907 138.226242 
L 434.619683 138.226242 
L 435.550459 137.263185 
L 436.481234 137.263185 
L 437.41201 136.300127 
L 441.135113 136.300127 
L 442.065888 135.33707 
L 443.92744 135.33707 
L 444.858215 134.374013 
L 446.719766 134.374013 
L 448.581318 132.447898 
L 451.373645 132.447898 
L 452.30442 131.484841 
L 456.958299 131.484841 
L 457.889074 129.558726 
L 462.542952 129.558726 
L 463.473728 128.595669 
L 466.266055 128.595669 
L 467.196831 126.669554 
L 470.919933 126.669554 
L 471.850709 125.706497 
L 480.22769 125.706497 
L 481.158465 124.743439 
L 483.020017 124.743439 
L 483.950792 123.780382 
L 490.466222 123.780382 
L 491.396997 122.817325 
L 492.327773 122.817325 
L 493.258549 121.854268 
L 494.189324 121.854268 
L 495.1201 120.89121 
L 500.704754 120.89121 
L 502.566305 118.965096 
L 515.597164 118.965096 
L 516.52794 118.002038 
L 517.458716 118.002038 
L 519.320267 116.075924 
L 520.251043 116.075924 
L 521.181818 115.112866 
L 532.351126 115.112866 
L 533.281902 114.149809 
L 534.212677 112.223694 
L 536.074229 112.223694 
L 537.005004 111.260637 
L 541.658882 111.260637 
L 542.589658 110.29758 
L 543.520434 110.29758 
L 545.381985 108.371465 
L 550.035863 108.371465 
L 550.966639 107.408408 
L 553.758966 107.408408 
L 554.689741 106.44535 
L 556.551293 106.44535 
L 557.482068 105.482293 
L 559.34362 105.482293 
L 560.274395 104.519236 
L 561.205171 104.519236 
L 562.135947 102.593121 
L 568.651376 102.593121 
L 569.582152 99.703949 
L 570.512927 97.777834 
L 571.443703 97.777834 
L 575.166806 93.925605 
L 576.097581 91.99949 
L 577.959133 91.99949 
L 578.889908 90.073376 
L 586.336113 90.073376 
L 588.197665 88.147261 
L 589.12844 86.221146 
L 590.059216 85.258089 
L 592.851543 85.258089 
L 593.782319 83.331975 
L 594.713094 82.368917 
L 595.64387 82.368917 
L 596.574646 79.479745 
L 597.505421 78.516688 
L 602.159299 78.516688 
L 603.090075 76.590573 
L 604.020851 76.590573 
L 604.951626 75.627516 
L 607.743953 75.627516 
L 608.674729 73.701401 
L 610.53628 73.701401 
L 611.467056 72.738344 
L 612.397832 72.738344 
L 613.328607 71.775287 
L 614.259383 68.886115 
L 616.120934 68.886115 
L 617.982485 66.96 
L 622.636364 66.96 
L 622.636364 66.96 
" clip-path="url(#pc41df297d7)" style="fill: none; stroke: #e377c2; stroke-width: 1.5; stroke-linecap: square"/>
   </g>
   <g id="line2d_42">
    <path d="M 115.363636 344.32051 
L 116.294412 344.32051 
L 118.155963 342.394395 
L 122.809842 342.394395 
L 123.740617 341.431338 
L 124.671393 341.431338 
L 126.532944 339.505223 
L 128.394495 339.505223 
L 129.325271 338.542166 
L 132.117598 338.542166 
L 133.048374 337.579108 
L 133.979149 337.579108 
L 134.909925 336.616051 
L 135.840701 336.616051 
L 137.702252 334.689936 
L 140.494579 334.689936 
L 141.425354 333.726879 
L 143.286906 333.726879 
L 145.148457 331.800764 
L 147.010008 331.800764 
L 148.87156 329.87465 
L 149.802335 329.87465 
L 150.733111 328.911592 
L 151.663887 326.02242 
L 155.386989 326.02242 
L 159.110092 322.170191 
L 160.040867 322.170191 
L 161.902419 320.244076 
L 162.833194 320.244076 
L 163.76397 319.281019 
L 164.694746 319.281019 
L 165.625521 318.317962 
L 174.002502 318.317962 
L 174.933278 317.354904 
L 184.241034 317.354904 
L 186.102585 315.42879 
L 188.894912 315.42879 
L 189.825688 314.465732 
L 191.687239 314.465732 
L 193.548791 312.539618 
L 195.410342 312.539618 
L 196.341118 310.613503 
L 199.133445 310.613503 
L 200.06422 308.687389 
L 200.994996 307.724331 
L 205.648874 307.724331 
L 206.57965 306.761274 
L 207.510425 306.761274 
L 209.371977 304.835159 
L 214.025855 304.835159 
L 214.956631 303.872102 
L 215.887406 303.872102 
L 216.818182 302.909045 
L 222.402836 302.909045 
L 223.333611 301.945987 
L 226.125938 301.945987 
L 227.056714 300.98293 
L 227.98749 300.98293 
L 228.918265 298.093758 
L 229.849041 298.093758 
L 230.779817 296.167643 
L 231.710592 295.204586 
L 232.641368 295.204586 
L 234.502919 293.278471 
L 236.36447 293.278471 
L 237.295246 292.315414 
L 239.156797 292.315414 
L 240.087573 291.352357 
L 241.018349 291.352357 
L 241.949124 289.426242 
L 242.8799 289.426242 
L 243.810676 288.463185 
L 245.672227 288.463185 
L 247.533778 286.53707 
L 248.464554 286.53707 
L 249.395329 284.610955 
L 250.326105 283.647898 
L 256.841535 283.647898 
L 257.77231 281.721783 
L 260.564637 281.721783 
L 261.495413 280.758726 
L 262.426188 280.758726 
L 263.356964 279.795669 
L 266.149291 279.795669 
L 267.080067 278.832611 
L 271.733945 278.832611 
L 272.664721 277.869554 
L 274.526272 277.869554 
L 275.457048 276.906497 
L 280.110926 276.906497 
L 281.041701 275.943439 
L 289.418682 275.943439 
L 291.280234 274.017325 
L 292.211009 274.017325 
L 293.141785 273.054268 
L 294.07256 273.054268 
L 295.003336 272.09121 
L 295.934112 272.09121 
L 296.864887 271.128153 
L 298.726439 271.128153 
L 299.657214 270.165096 
L 300.58799 270.165096 
L 302.449541 268.238981 
L 305.241868 268.238981 
L 306.172644 267.275924 
L 308.964971 267.275924 
L 309.895746 266.312866 
L 316.411176 266.312866 
L 317.341952 265.349809 
L 318.272727 265.349809 
L 319.203503 264.386752 
L 322.926606 264.386752 
L 323.857381 262.460637 
L 329.442035 262.460637 
L 330.372811 261.49758 
L 331.303586 261.49758 
L 332.234362 259.571465 
L 336.88824 259.571465 
L 337.819016 258.608408 
L 343.40367 258.608408 
L 344.334445 257.64535 
L 356.434529 257.64535 
L 357.365304 256.682293 
L 371.326939 256.682293 
L 372.257715 255.719236 
L 376.911593 255.719236 
L 377.842369 254.756178 
L 378.773144 254.756178 
L 379.70392 253.793121 
L 380.634696 253.793121 
L 381.565471 251.867006 
L 382.496247 251.867006 
L 384.357798 249.940892 
L 390.873228 249.940892 
L 391.804003 248.977834 
L 392.734779 248.977834 
L 393.665555 248.014777 
L 394.59633 248.014777 
L 395.527106 247.05172 
L 400.180984 247.05172 
L 401.11176 246.088662 
L 409.488741 246.088662 
L 410.419516 245.125605 
L 415.073394 245.125605 
L 416.00417 244.162548 
L 420.658048 244.162548 
L 421.588824 243.19949 
L 423.450375 243.19949 
L 426.242702 240.310318 
L 428.104254 240.310318 
L 429.035029 238.384204 
L 433.688907 238.384204 
L 435.550459 236.458089 
L 437.41201 236.458089 
L 438.342786 235.495032 
L 439.273561 235.495032 
L 441.135113 233.568917 
L 447.650542 233.568917 
L 448.581318 232.60586 
L 450.442869 232.60586 
L 451.373645 231.642803 
L 458.81985 231.642803 
L 460.681401 229.716688 
L 463.473728 229.716688 
L 464.404504 228.753631 
L 465.335279 228.753631 
L 466.266055 225.864459 
L 467.196831 224.901401 
L 470.919933 224.901401 
L 471.850709 222.975287 
L 474.643036 222.975287 
L 475.573812 222.012229 
L 484.881568 222.012229 
L 485.812344 221.049172 
L 495.1201 221.049172 
L 496.981651 219.123057 
L 503.497081 219.123057 
L 504.427857 218.16 
L 520.251043 218.16 
L 523.974145 214.307771 
L 527.697248 214.307771 
L 528.628023 213.344713 
L 536.074229 213.344713 
L 537.005004 212.381656 
L 539.797331 212.381656 
L 540.728107 211.418599 
L 541.658882 211.418599 
L 542.589658 210.455541 
L 548.174312 210.455541 
L 550.035863 208.529427 
L 551.897415 208.529427 
L 552.82819 207.566369 
L 557.482068 207.566369 
L 558.412844 206.603312 
L 559.34362 206.603312 
L 560.274395 204.677197 
L 570.512927 204.677197 
L 572.374479 202.751083 
L 575.166806 202.751083 
L 576.097581 201.788025 
L 580.75146 201.788025 
L 581.682235 200.824968 
L 588.197665 200.824968 
L 589.12844 199.861911 
L 604.020851 199.861911 
L 604.951626 198.898854 
L 605.882402 198.898854 
L 606.813178 196.972739 
L 622.636364 196.972739 
L 622.636364 196.972739 
" clip-path="url(#pc41df297d7)" style="fill: none; stroke: #7f7f7f; stroke-width: 1.5; stroke-linecap: square"/>
   </g>
   <g id="line2d_43">
    <path d="M 115.363636 350.098854 
L 119.086739 350.098854 
L 120.017515 349.135796 
L 129.325271 349.135796 
L 130.256047 348.172739 
L 134.909925 348.172739 
L 135.840701 347.209682 
L 145.148457 347.209682 
L 146.079233 346.246624 
L 155.386989 346.246624 
L 156.317765 345.283567 
L 206.57965 345.283567 
L 207.510425 344.32051 
L 212.164304 344.32051 
L 213.095079 343.357452 
L 219.610509 343.357452 
L 220.541284 342.394395 
L 221.47206 342.394395 
L 222.402836 339.505223 
L 223.333611 338.542166 
L 225.195163 338.542166 
L 226.125938 337.579108 
L 235.433695 337.579108 
L 236.36447 336.616051 
L 244.741451 336.616051 
L 245.672227 335.652994 
L 255.910759 335.652994 
L 256.841535 334.689936 
L 268.010842 334.689936 
L 268.941618 333.726879 
L 273.595496 333.726879 
L 274.526272 332.763822 
L 304.311093 332.763822 
L 305.241868 331.800764 
L 307.10342 331.800764 
L 308.034195 330.837707 
L 315.4804 330.837707 
L 316.411176 329.87465 
L 342.472894 329.87465 
L 345.265221 326.985478 
L 372.257715 326.985478 
L 373.18849 326.02242 
L 374.119266 326.02242 
L 375.980817 324.096306 
L 377.842369 324.096306 
L 378.773144 323.133248 
L 426.242702 323.133248 
L 427.173478 322.170191 
L 481.158465 322.170191 
L 482.089241 321.207134 
L 521.181818 321.207134 
L 522.112594 320.244076 
L 526.766472 320.244076 
L 527.697248 319.281019 
L 540.728107 319.281019 
L 541.658882 318.317962 
L 560.274395 318.317962 
L 561.205171 317.354904 
L 622.636364 317.354904 
L 622.636364 317.354904 
" clip-path="url(#pc41df297d7)" style="fill: none; stroke: #bcbd22; stroke-width: 1.5; stroke-linecap: square"/>
   </g>
   <g id="line2d_44">
    <path d="M 115.363636 367.433885 
L 161.902419 367.433885 
L 162.833194 366.470828 
L 221.47206 366.470828 
L 222.402836 365.507771 
L 317.341952 365.507771 
L 318.272727 364.544713 
L 319.203503 365.507771 
L 431.827356 365.507771 
L 432.758132 364.544713 
L 439.273561 364.544713 
L 440.204337 363.581656 
L 463.473728 363.581656 
L 464.404504 362.618599 
L 622.636364 362.618599 
L 622.636364 362.618599 
" clip-path="url(#pc41df297d7)" style="fill: none; stroke: #17becf; stroke-width: 1.5; stroke-linecap: square"/>
   </g>
   <g id="line2d_45">
    <path d="M 115.363636 369.36 
L 116.294412 368.396943 
L 118.155963 368.396943 
L 119.086739 367.433885 
L 125.602168 367.433885 
L 126.532944 366.470828 
L 129.325271 366.470828 
L 130.256047 365.507771 
L 131.186822 365.507771 
L 133.048374 363.581656 
L 137.702252 363.581656 
L 139.563803 361.655541 
L 140.494579 361.655541 
L 141.425354 360.692484 
L 147.940784 360.692484 
L 148.87156 359.729427 
L 149.802335 357.803312 
L 151.663887 357.803312 
L 152.594662 356.840255 
L 153.525438 356.840255 
L 154.456214 355.877197 
L 155.386989 355.877197 
L 156.317765 354.91414 
L 157.24854 354.91414 
L 159.110092 352.988025 
L 164.694746 352.988025 
L 166.556297 351.061911 
L 169.348624 351.061911 
L 170.279399 350.098854 
L 171.210175 350.098854 
L 172.140951 348.172739 
L 174.933278 348.172739 
L 176.794829 344.32051 
L 182.379483 344.32051 
L 183.310259 342.394395 
L 184.241034 341.431338 
L 187.033361 341.431338 
L 187.964137 340.46828 
L 188.894912 338.542166 
L 190.756464 338.542166 
L 191.687239 337.579108 
L 204.718098 337.579108 
L 205.648874 335.652994 
L 212.164304 328.911592 
L 221.47206 328.911592 
L 224.264387 326.02242 
L 226.125938 326.02242 
L 227.056714 324.096306 
L 228.918265 324.096306 
L 229.849041 323.133248 
L 232.641368 323.133248 
L 233.572143 322.170191 
L 234.502919 322.170191 
L 235.433695 321.207134 
L 236.36447 321.207134 
L 238.226022 319.281019 
L 250.326105 319.281019 
L 252.187656 317.354904 
L 259.633862 317.354904 
L 260.564637 316.391847 
L 263.356964 316.391847 
L 265.218515 314.465732 
L 268.010842 314.465732 
L 268.941618 313.502675 
L 270.803169 313.502675 
L 271.733945 312.539618 
L 276.387823 312.539618 
L 277.318599 311.576561 
L 278.249374 311.576561 
L 279.18015 309.650446 
L 280.110926 309.650446 
L 281.041701 308.687389 
L 285.69558 308.687389 
L 286.626355 307.724331 
L 288.487907 307.724331 
L 289.418682 306.761274 
L 290.349458 306.761274 
L 292.211009 304.835159 
L 298.726439 304.835159 
L 299.657214 303.872102 
L 300.58799 303.872102 
L 301.518766 302.909045 
L 306.172644 302.909045 
L 307.10342 300.98293 
L 308.034195 300.019873 
L 312.688073 300.019873 
L 313.618849 299.056815 
L 317.341952 299.056815 
L 318.272727 297.130701 
L 321.99583 297.130701 
L 323.857381 295.204586 
L 326.649708 295.204586 
L 327.580484 294.241529 
L 338.749791 294.241529 
L 339.680567 292.315414 
L 340.611343 291.352357 
L 348.057548 291.352357 
L 348.988324 290.389299 
L 365.742285 290.389299 
L 366.673061 289.426242 
L 368.534612 289.426242 
L 369.465388 288.463185 
L 372.257715 288.463185 
L 373.18849 287.500127 
L 385.288574 287.500127 
L 386.219349 285.574013 
L 388.080901 285.574013 
L 389.011676 284.610955 
L 389.942452 284.610955 
L 390.873228 283.647898 
L 394.59633 283.647898 
L 395.527106 282.684841 
L 402.042535 282.684841 
L 402.973311 280.758726 
L 403.904087 280.758726 
L 404.834862 279.795669 
L 409.488741 279.795669 
L 410.419516 278.832611 
L 415.073394 278.832611 
L 416.934946 276.906497 
L 418.796497 276.906497 
L 419.727273 275.943439 
L 421.588824 275.943439 
L 422.5196 274.980382 
L 423.450375 274.980382 
L 424.381151 274.017325 
L 430.89658 274.017325 
L 431.827356 273.054268 
L 453.235196 273.054268 
L 454.165972 272.09121 
L 458.81985 272.09121 
L 459.750626 271.128153 
L 469.989158 271.128153 
L 470.919933 270.165096 
L 511.874062 270.165096 
L 512.804837 269.202038 
L 518.389491 269.202038 
L 519.320267 268.238981 
L 520.251043 268.238981 
L 521.181818 267.275924 
L 533.281902 267.275924 
L 534.212677 266.312866 
L 551.897415 266.312866 
L 552.82819 265.349809 
L 556.551293 265.349809 
L 557.482068 264.386752 
L 562.135947 264.386752 
L 563.066722 263.423694 
L 568.651376 263.423694 
L 569.582152 262.460637 
L 575.166806 262.460637 
L 576.097581 261.49758 
L 581.682235 261.49758 
L 582.613011 258.608408 
L 583.543786 257.64535 
L 590.059216 257.64535 
L 590.989992 256.682293 
L 595.64387 256.682293 
L 596.574646 255.719236 
L 601.228524 255.719236 
L 602.159299 254.756178 
L 607.743953 254.756178 
L 608.674729 253.793121 
L 622.636364 253.793121 
L 622.636364 253.793121 
" clip-path="url(#pc41df297d7)" style="fill: none; stroke: #1f77b4; stroke-width: 1.5; stroke-linecap: square"/>
   </g>
   <g id="line2d_46">
    <path d="M 115.363636 333.726879 
L 121.879066 333.726879 
L 122.809842 332.763822 
L 125.602168 332.763822 
L 126.532944 331.800764 
L 130.256047 331.800764 
L 131.186822 330.837707 
L 133.979149 330.837707 
L 134.909925 329.87465 
L 135.840701 329.87465 
L 136.771476 328.911592 
L 139.563803 328.911592 
L 140.494579 327.948535 
L 142.35613 327.948535 
L 143.286906 326.985478 
L 144.217681 326.985478 
L 146.079233 325.059363 
L 151.663887 325.059363 
L 152.594662 324.096306 
L 153.525438 324.096306 
L 154.456214 323.133248 
L 155.386989 323.133248 
L 156.317765 321.207134 
L 157.24854 318.317962 
L 158.179316 317.354904 
L 161.902419 317.354904 
L 164.694746 314.465732 
L 167.487073 314.465732 
L 169.348624 312.539618 
L 179.587156 312.539618 
L 180.517932 309.650446 
L 181.448707 309.650446 
L 183.310259 305.798217 
L 185.17181 303.872102 
L 186.102585 303.872102 
L 187.033361 301.945987 
L 194.479566 301.945987 
L 195.410342 300.019873 
L 198.202669 300.019873 
L 199.133445 299.056815 
L 205.648874 299.056815 
L 206.57965 298.093758 
L 217.748957 298.093758 
L 218.679733 297.130701 
L 219.610509 297.130701 
L 220.541284 296.167643 
L 223.333611 296.167643 
L 224.264387 295.204586 
L 235.433695 295.204586 
L 236.36447 294.241529 
L 238.226022 294.241529 
L 240.087573 290.389299 
L 241.949124 290.389299 
L 243.810676 288.463185 
L 245.672227 288.463185 
L 246.603002 287.500127 
L 249.395329 287.500127 
L 250.326105 286.53707 
L 261.495413 286.53707 
L 262.426188 285.574013 
L 276.387823 285.574013 
L 277.318599 284.610955 
L 285.69558 284.610955 
L 286.626355 283.647898 
L 288.487907 283.647898 
L 289.418682 282.684841 
L 292.211009 282.684841 
L 294.07256 280.758726 
L 295.003336 280.758726 
L 295.934112 279.795669 
L 299.657214 279.795669 
L 301.518766 277.869554 
L 306.172644 277.869554 
L 307.10342 276.906497 
L 309.895746 276.906497 
L 310.826522 275.943439 
L 315.4804 275.943439 
L 316.411176 274.980382 
L 321.065054 274.980382 
L 321.99583 274.017325 
L 338.749791 274.017325 
L 339.680567 273.054268 
L 340.611343 273.054268 
L 341.542118 272.09121 
L 350.849875 272.09121 
L 351.780651 270.165096 
L 352.711426 270.165096 
L 353.642202 269.202038 
L 362.949958 269.202038 
L 363.880734 268.238981 
L 367.603837 268.238981 
L 368.534612 267.275924 
L 369.465388 267.275924 
L 370.396163 266.312866 
L 378.773144 266.312866 
L 379.70392 265.349809 
L 398.319433 265.349809 
L 399.250209 262.460637 
L 405.765638 262.460637 
L 406.696414 261.49758 
L 408.557965 261.49758 
L 409.488741 260.534522 
L 420.658048 260.534522 
L 421.588824 259.571465 
L 434.619683 259.571465 
L 435.550459 258.608408 
L 438.342786 258.608408 
L 439.273561 257.64535 
L 446.719766 257.64535 
L 447.650542 255.719236 
L 462.542952 255.719236 
L 463.473728 254.756178 
L 468.127606 254.756178 
L 469.058382 253.793121 
L 483.020017 253.793121 
L 483.950792 252.830064 
L 485.812344 252.830064 
L 486.743119 251.867006 
L 496.050876 251.867006 
L 496.981651 250.903949 
L 507.220183 250.903949 
L 508.150959 249.940892 
L 520.251043 249.940892 
L 521.181818 248.977834 
L 532.351126 248.977834 
L 533.281902 248.014777 
L 539.797331 248.014777 
L 540.728107 247.05172 
L 550.035863 247.05172 
L 552.82819 244.162548 
L 554.689741 244.162548 
L 555.620517 243.19949 
L 556.551293 243.19949 
L 558.412844 241.273376 
L 562.135947 241.273376 
L 563.066722 240.310318 
L 564.928274 240.310318 
L 565.859049 238.384204 
L 566.789825 237.421146 
L 577.959133 237.421146 
L 578.889908 236.458089 
L 587.266889 236.458089 
L 588.197665 235.495032 
L 597.505421 235.495032 
L 598.436197 234.531975 
L 603.090075 234.531975 
L 604.020851 232.60586 
L 622.636364 232.60586 
L 622.636364 232.60586 
" clip-path="url(#pc41df297d7)" style="fill: none; stroke: #ff7f0e; stroke-width: 1.5; stroke-linecap: square"/>
   </g>
   <g id="patch_3">
    <path d="M 90 384.48 
L 90 51.84 
" style="fill: none; stroke: #000000; stroke-width: 0.8; stroke-linejoin: miter; stroke-linecap: square"/>
   </g>
   <g id="patch_4">
    <path d="M 648 384.48 
L 648 51.84 
" style="fill: none; stroke: #000000; stroke-width: 0.8; stroke-linejoin: miter; stroke-linecap: square"/>
   </g>
   <g id="patch_5">
    <path d="M 90 384.48 
L 648 384.48 
" style="fill: none; stroke: #000000; stroke-width: 0.8; stroke-linejoin: miter; stroke-linecap: square"/>
   </g>
   <g id="patch_6">
    <path d="M 90 51.84 
L 648 51.84 
" style="fill: none; stroke: #000000; stroke-width: 0.8; stroke-linejoin: miter; stroke-linecap: square"/>
   </g>
   <g id="text_20">
    <!-- Time Series of Votes for Each Keyword -->
    <g transform="translate(253.716563 45.84) scale(0.12 -0.12)">
     <defs>
      <path id="DejaVuSans-53" d="M 3425 4513 
L 3425 3897 
Q 3066 4069 2747 4153 
Q 2428 4238 2131 4238 
Q 1616 4238 1336 4038 
Q 1056 3838 1056 3469 
Q 1056 3159 1242 3001 
Q 1428 2844 1947 2747 
L 2328 2669 
Q 3034 2534 3370 2195 
Q 3706 1856 3706 1288 
Q 3706 609 3251 259 
Q 2797 -91 1919 -91 
Q 1588 -91 1214 -16 
Q 841 59 441 206 
L 441 856 
Q 825 641 1194 531 
Q 1563 422 1919 422 
Q 2459 422 2753 634 
Q 3047 847 3047 1241 
Q 3047 1584 2836 1778 
Q 2625 1972 2144 2069 
L 1759 2144 
Q 1053 2284 737 2584 
Q 422 2884 422 3419 
Q 422 4038 858 4394 
Q 1294 4750 2059 4750 
Q 2388 4750 2728 4690 
Q 3069 4631 3425 4513 
z
" transform="scale(0.015625)"/>
      <path id="DejaVuSans-72" d="M 2631 2963 
Q 2534 3019 2420 3045 
Q 2306 3072 2169 3072 
Q 1681 3072 1420 2755 
Q 1159 2438 1159 1844 
L 1159 0 
L 581 0 
L 581 3500 
L 1159 3500 
L 1159 2956 
Q 1341 3275 1631 3429 
Q 1922 3584 2338 3584 
Q 2397 3584 2469 3576 
Q 2541 3569 2628 3553 
L 2631 2963 
z
" transform="scale(0.015625)"/>
      <path id="DejaVuSans-66" d="M 2375 4863 
L 2375 4384 
L 1825 4384 
Q 1516 4384 1395 4259 
Q 1275 4134 1275 3809 
L 1275 3500 
L 2222 3500 
L 2222 3053 
L 1275 3053 
L 1275 0 
L 697 0 
L 697 3053 
L 147 3053 
L 147 3500 
L 697 3500 
L 697 3744 
Q 697 4328 969 4595 
Q 1241 4863 1831 4863 
L 2375 4863 
z
" transform="scale(0.015625)"/>
      <path id="DejaVuSans-45" d="M 628 4666 
L 3578 4666 
L 3578 4134 
L 1259 4134 
L 1259 2753 
L 3481 2753 
L 3481 2222 
L 1259 2222 
L 1259 531 
L 3634 531 
L 3634 0 
L 628 0 
L 628 4666 
z
" transform="scale(0.015625)"/>
      <path id="DejaVuSans-63" d="M 3122 3366 
L 3122 2828 
Q 2878 2963 2633 3030 
Q 2388 3097 2138 3097 
Q 1578 3097 1268 2742 
Q 959 2388 959 1747 
Q 959 1106 1268 751 
Q 1578 397 2138 397 
Q 2388 397 2633 464 
Q 2878 531 3122 666 
L 3122 134 
Q 2881 22 2623 -34 
Q 2366 -91 2075 -91 
Q 1284 -91 818 406 
Q 353 903 353 1747 
Q 353 2603 823 3093 
Q 1294 3584 2113 3584 
Q 2378 3584 2631 3529 
Q 2884 3475 3122 3366 
z
" transform="scale(0.015625)"/>
      <path id="DejaVuSans-68" d="M 3513 2113 
L 3513 0 
L 2938 0 
L 2938 2094 
Q 2938 2591 2744 2837 
Q 2550 3084 2163 3084 
Q 1697 3084 1428 2787 
Q 1159 2491 1159 1978 
L 1159 0 
L 581 0 
L 581 4863 
L 1159 4863 
L 1159 2956 
Q 1366 3272 1645 3428 
Q 1925 3584 2291 3584 
Q 2894 3584 3203 3211 
Q 3513 2838 3513 2113 
z
" transform="scale(0.015625)"/>
      <path id="DejaVuSans-4b" d="M 628 4666 
L 1259 4666 
L 1259 2694 
L 3353 4666 
L 4166 4666 
L 1850 2491 
L 4331 0 
L 3500 0 
L 1259 2247 
L 1259 0 
L 628 0 
L 628 4666 
z
" transform="scale(0.015625)"/>
      <path id="DejaVuSans-79" d="M 2059 -325 
Q 1816 -950 1584 -1140 
Q 1353 -1331 966 -1331 
L 506 -1331 
L 506 -850 
L 844 -850 
Q 1081 -850 1212 -737 
Q 1344 -625 1503 -206 
L 1606 56 
L 191 3500 
L 800 3500 
L 1894 763 
L 2988 3500 
L 3597 3500 
L 2059 -325 
z
" transform="scale(0.015625)"/>
      <path id="DejaVuSans-77" d="M 269 3500 
L 844 3500 
L 1563 769 
L 2278 3500 
L 2956 3500 
L 3675 769 
L 4391 3500 
L 4966 3500 
L 4050 0 
L 3372 0 
L 2619 2869 
L 1863 0 
L 1184 0 
L 269 3500 
z
" transform="scale(0.015625)"/>
     </defs>
     <use xlink:href="#DejaVuSans-54"/>
     <use xlink:href="#DejaVuSans-69" transform="translate(57.958984 0)"/>
     <use xlink:href="#DejaVuSans-6d" transform="translate(85.742188 0)"/>
     <use xlink:href="#DejaVuSans-65" transform="translate(183.154297 0)"/>
     <use xlink:href="#DejaVuSans-20" transform="translate(244.677734 0)"/>
     <use xlink:href="#DejaVuSans-53" transform="translate(276.464844 0)"/>
     <use xlink:href="#DejaVuSans-65" transform="translate(339.941406 0)"/>
     <use xlink:href="#DejaVuSans-72" transform="translate(401.464844 0)"/>
     <use xlink:href="#DejaVuSans-69" transform="translate(442.578125 0)"/>
     <use xlink:href="#DejaVuSans-65" transform="translate(470.361328 0)"/>
     <use xlink:href="#DejaVuSans-73" transform="translate(531.884766 0)"/>
     <use xlink:href="#DejaVuSans-20" transform="translate(583.984375 0)"/>
     <use xlink:href="#DejaVuSans-6f" transform="translate(615.771484 0)"/>
     <use xlink:href="#DejaVuSans-66" transform="translate(676.953125 0)"/>
     <use xlink:href="#DejaVuSans-20" transform="translate(712.158203 0)"/>
     <use xlink:href="#DejaVuSans-56" transform="translate(743.945312 0)"/>
     <use xlink:href="#DejaVuSans-6f" transform="translate(804.603516 0)"/>
     <use xlink:href="#DejaVuSans-74" transform="translate(865.785156 0)"/>
     <use xlink:href="#DejaVuSans-65" transform="translate(904.994141 0)"/>
     <use xlink:href="#DejaVuSans-73" transform="translate(966.517578 0)"/>
     <use xlink:href="#DejaVuSans-20" transform="translate(1018.617188 0)"/>
     <use xlink:href="#DejaVuSans-66" transform="translate(1050.404297 0)"/>
     <use xlink:href="#DejaVuSans-6f" transform="translate(1085.609375 0)"/>
     <use xlink:href="#DejaVuSans-72" transform="translate(1146.791016 0)"/>
     <use xlink:href="#DejaVuSans-20" transform="translate(1187.904297 0)"/>
     <use xlink:href="#DejaVuSans-45" transform="translate(1219.691406 0)"/>
     <use xlink:href="#DejaVuSans-61" transform="translate(1282.875 0)"/>
     <use xlink:href="#DejaVuSans-63" transform="translate(1344.154297 0)"/>
     <use xlink:href="#DejaVuSans-68" transform="translate(1399.134766 0)"/>
     <use xlink:href="#DejaVuSans-20" transform="translate(1462.513672 0)"/>
     <use xlink:href="#DejaVuSans-4b" transform="translate(1494.300781 0)"/>
     <use xlink:href="#DejaVuSans-65" transform="translate(1554.876953 0)"/>
     <use xlink:href="#DejaVuSans-79" transform="translate(1616.400391 0)"/>
     <use xlink:href="#DejaVuSans-77" transform="translate(1675.580078 0)"/>
     <use xlink:href="#DejaVuSans-6f" transform="translate(1757.367188 0)"/>
     <use xlink:href="#DejaVuSans-72" transform="translate(1818.548828 0)"/>
     <use xlink:href="#DejaVuSans-64" transform="translate(1857.912109 0)"/>
    </g>
   </g>
   <g id="legend_1">
    <g id="patch_7">
     <path d="M 97 235.9775 
L 149.245313 235.9775 
Q 151.245313 235.9775 151.245313 233.9775 
L 151.245313 58.84 
Q 151.245313 56.84 149.245313 56.84 
L 97 56.84 
Q 95 56.84 95 58.84 
L 95 233.9775 
Q 95 235.9775 97 235.9775 
z
" style="fill: #ffffff; opacity: 0.8; stroke: #cccccc; stroke-linejoin: miter"/>
    </g>
    <g id="line2d_47">
     <path d="M 99 64.938437 
L 109 64.938437 
L 119 64.938437 
" style="fill: none; stroke: #1f77b4; stroke-width: 1.5; stroke-linecap: square"/>
    </g>
    <g id="text_21">
     <!-- H01 -->
     <g transform="translate(127 68.438437) scale(0.1 -0.1)">
      <defs>
       <path id="DejaVuSans-48" d="M 628 4666 
L 1259 4666 
L 1259 2753 
L 3553 2753 
L 3553 4666 
L 4184 4666 
L 4184 0 
L 3553 0 
L 3553 2222 
L 1259 2222 
L 1259 0 
L 628 0 
L 628 4666 
z
" transform="scale(0.015625)"/>
      </defs>
      <use xlink:href="#DejaVuSans-48"/>
      <use xlink:href="#DejaVuSans-30" transform="translate(75.195312 0)"/>
      <use xlink:href="#DejaVuSans-31" transform="translate(138.818359 0)"/>
     </g>
    </g>
    <g id="line2d_48">
     <path d="M 99 79.616562 
L 109 79.616562 
L 119 79.616562 
" style="fill: none; stroke: #ff7f0e; stroke-width: 1.5; stroke-linecap: square"/>
    </g>
    <g id="text_22">
     <!-- H02 -->
     <g transform="translate(127 83.116562) scale(0.1 -0.1)">
      <use xlink:href="#DejaVuSans-48"/>
      <use xlink:href="#DejaVuSans-30" transform="translate(75.195312 0)"/>
      <use xlink:href="#DejaVuSans-32" transform="translate(138.818359 0)"/>
     </g>
    </g>
    <g id="line2d_49">
     <path d="M 99 94.294688 
L 109 94.294688 
L 119 94.294688 
" style="fill: none; stroke: #2ca02c; stroke-width: 1.5; stroke-linecap: square"/>
    </g>
    <g id="text_23">
     <!-- H03 -->
     <g transform="translate(127 97.794688) scale(0.1 -0.1)">
      <use xlink:href="#DejaVuSans-48"/>
      <use xlink:href="#DejaVuSans-30" transform="translate(75.195312 0)"/>
      <use xlink:href="#DejaVuSans-33" transform="translate(138.818359 0)"/>
     </g>
    </g>
    <g id="line2d_50">
     <path d="M 99 108.972812 
L 109 108.972812 
L 119 108.972812 
" style="fill: none; stroke: #d62728; stroke-width: 1.5; stroke-linecap: square"/>
    </g>
    <g id="text_24">
     <!-- H04 -->
     <g transform="translate(127 112.472812) scale(0.1 -0.1)">
      <use xlink:href="#DejaVuSans-48"/>
      <use xlink:href="#DejaVuSans-30" transform="translate(75.195312 0)"/>
      <use xlink:href="#DejaVuSans-34" transform="translate(138.818359 0)"/>
     </g>
    </g>
    <g id="line2d_51">
     <path d="M 99 123.650937 
L 109 123.650937 
L 119 123.650937 
" style="fill: none; stroke: #9467bd; stroke-width: 1.5; stroke-linecap: square"/>
    </g>
    <g id="text_25">
     <!-- H05 -->
     <g transform="translate(127 127.150937) scale(0.1 -0.1)">
      <use xlink:href="#DejaVuSans-48"/>
      <use xlink:href="#DejaVuSans-30" transform="translate(75.195312 0)"/>
      <use xlink:href="#DejaVuSans-35" transform="translate(138.818359 0)"/>
     </g>
    </g>
    <g id="line2d_52">
     <path d="M 99 138.329062 
L 109 138.329062 
L 119 138.329062 
" style="fill: none; stroke: #8c564b; stroke-width: 1.5; stroke-linecap: square"/>
    </g>
    <g id="text_26">
     <!-- H06 -->
     <g transform="translate(127 141.829062) scale(0.1 -0.1)">
      <use xlink:href="#DejaVuSans-48"/>
      <use xlink:href="#DejaVuSans-30" transform="translate(75.195312 0)"/>
      <use xlink:href="#DejaVuSans-36" transform="translate(138.818359 0)"/>
     </g>
    </g>
    <g id="line2d_53">
     <path d="M 99 153.007187 
L 109 153.007187 
L 119 153.007187 
" style="fill: none; stroke: #e377c2; stroke-width: 1.5; stroke-linecap: square"/>
    </g>
    <g id="text_27">
     <!-- H07 -->
     <g transform="translate(127 156.507187) scale(0.1 -0.1)">
      <use xlink:href="#DejaVuSans-48"/>
      <use xlink:href="#DejaVuSans-30" transform="translate(75.195312 0)"/>
      <use xlink:href="#DejaVuSans-37" transform="translate(138.818359 0)"/>
     </g>
    </g>
    <g id="line2d_54">
     <path d="M 99 167.685312 
L 109 167.685312 
L 119 167.685312 
" style="fill: none; stroke: #7f7f7f; stroke-width: 1.5; stroke-linecap: square"/>
    </g>
    <g id="text_28">
     <!-- H08 -->
     <g transform="translate(127 171.185312) scale(0.1 -0.1)">
      <use xlink:href="#DejaVuSans-48"/>
      <use xlink:href="#DejaVuSans-30" transform="translate(75.195312 0)"/>
      <use xlink:href="#DejaVuSans-38" transform="translate(138.818359 0)"/>
     </g>
    </g>
    <g id="line2d_55">
     <path d="M 99 182.363437 
L 109 182.363437 
L 119 182.363437 
" style="fill: none; stroke: #bcbd22; stroke-width: 1.5; stroke-linecap: square"/>
    </g>
    <g id="text_29">
     <!-- H09 -->
     <g transform="translate(127 185.863437) scale(0.1 -0.1)">
      <use xlink:href="#DejaVuSans-48"/>
      <use xlink:href="#DejaVuSans-30" transform="translate(75.195312 0)"/>
      <use xlink:href="#DejaVuSans-39" transform="translate(138.818359 0)"/>
     </g>
    </g>
    <g id="line2d_56">
     <path d="M 99 197.041562 
L 109 197.041562 
L 119 197.041562 
" style="fill: none; stroke: #17becf; stroke-width: 1.5; stroke-linecap: square"/>
    </g>
    <g id="text_30">
     <!-- H10 -->
     <g transform="translate(127 200.541562) scale(0.1 -0.1)">
      <use xlink:href="#DejaVuSans-48"/>
      <use xlink:href="#DejaVuSans-31" transform="translate(75.195312 0)"/>
      <use xlink:href="#DejaVuSans-30" transform="translate(138.818359 0)"/>
     </g>
    </g>
    <g id="line2d_57">
     <path d="M 99 211.719687 
L 109 211.719687 
L 119 211.719687 
" style="fill: none; stroke: #1f77b4; stroke-width: 1.5; stroke-linecap: square"/>
    </g>
    <g id="text_31">
     <!-- H11 -->
     <g transform="translate(127 215.219687) scale(0.1 -0.1)">
      <use xlink:href="#DejaVuSans-48"/>
      <use xlink:href="#DejaVuSans-31" transform="translate(75.195312 0)"/>
      <use xlink:href="#DejaVuSans-31" transform="translate(138.818359 0)"/>
     </g>
    </g>
    <g id="line2d_58">
     <path d="M 99 226.397812 
L 109 226.397812 
L 119 226.397812 
" style="fill: none; stroke: #ff7f0e; stroke-width: 1.5; stroke-linecap: square"/>
    </g>
    <g id="text_32">
     <!-- H12 -->
     <g transform="translate(127 229.897812) scale(0.1 -0.1)">
      <use xlink:href="#DejaVuSans-48"/>
      <use xlink:href="#DejaVuSans-31" transform="translate(75.195312 0)"/>
      <use xlink:href="#DejaVuSans-32" transform="translate(138.818359 0)"/>
     </g>
    </g>
   </g>
  </g>
 </g>
 <defs>
  <clipPath id="pc41df297d7">
   <rect x="90" y="51.84" width="558" height="332.64"/>
  </clipPath>
 </defs>
</svg>
