<?xml version="1.0" encoding="utf-8" standalone="no"?>
<!DOCTYPE svg PUBLIC "-//W3C//DTD SVG 1.1//EN"
  "http://www.w3.org/Graphics/SVG/1.1/DTD/svg11.dtd">
<svg xmlns:xlink="http://www.w3.org/1999/xlink" width="720pt" height="432pt" viewBox="0 0 720 432" xmlns="http://www.w3.org/2000/svg" version="1.1">
 <metadata>
  <rdf:RDF xmlns:dc="http://purl.org/dc/elements/1.1/" xmlns:cc="http://creativecommons.org/ns#" xmlns:rdf="http://www.w3.org/1999/02/22-rdf-syntax-ns#">
   <cc:Work>
    <dc:type rdf:resource="http://purl.org/dc/dcmitype/StillImage"/>
    <dc:date>2025-01-14T18:32:25.561067</dc:date>
    <dc:format>image/svg+xml</dc:format>
    <dc:creator>
     <cc:Agent>
      <dc:title>Matplotlib v3.10.0, https://matplotlib.org/</dc:title>
     </cc:Agent>
    </dc:creator>
   </cc:Work>
  </rdf:RDF>
 </metadata>
 <defs>
  <style type="text/css">*{stroke-linejoin: round; stroke-linecap: butt}</style>
 </defs>
 <g id="figure_1">
  <g id="patch_1">
   <path d="M 0 432 
L 720 432 
L 720 0 
L 0 0 
z
" style="fill: #ffffff"/>
  </g>
  <g id="axes_1">
   <g id="patch_2">
    <path d="M 90 384.48 
L 648 384.48 
L 648 51.84 
L 90 51.84 
z
" style="fill: #ffffff"/>
   </g>
   <g id="matplotlib.axis_1">
    <g id="xtick_1">
     <g id="line2d_1">
      <path d="M 161.324588 384.48 
L 161.324588 51.84 
" clip-path="url(#pb47b2e871b)" style="fill: none; stroke: #b0b0b0; stroke-width: 0.8; stroke-linecap: square"/>
     </g>
     <g id="line2d_2">
      <defs>
       <path id="m76b296281e" d="M 0 0 
L 0 3.5 
" style="stroke: #000000; stroke-width: 0.8"/>
      </defs>
      <g>
       <use xlink:href="#m76b296281e" x="161.324588" y="384.48" style="stroke: #000000; stroke-width: 0.8"/>
      </g>
     </g>
     <g id="text_1">
      <!-- 01-14 14 -->
      <g transform="translate(138.844119 399.078438) scale(0.1 -0.1)">
       <defs>
        <path id="DejaVuSans-30" d="M 2034 4250 
Q 1547 4250 1301 3770 
Q 1056 3291 1056 2328 
Q 1056 1369 1301 889 
Q 1547 409 2034 409 
Q 2525 409 2770 889 
Q 3016 1369 3016 2328 
Q 3016 3291 2770 3770 
Q 2525 4250 2034 4250 
z
M 2034 4750 
Q 2819 4750 3233 4129 
Q 3647 3509 3647 2328 
Q 3647 1150 3233 529 
Q 2819 -91 2034 -91 
Q 1250 -91 836 529 
Q 422 1150 422 2328 
Q 422 3509 836 4129 
Q 1250 4750 2034 4750 
z
" transform="scale(0.015625)"/>
        <path id="DejaVuSans-31" d="M 794 531 
L 1825 531 
L 1825 4091 
L 703 3866 
L 703 4441 
L 1819 4666 
L 2450 4666 
L 2450 531 
L 3481 531 
L 3481 0 
L 794 0 
L 794 531 
z
" transform="scale(0.015625)"/>
        <path id="DejaVuSans-2d" d="M 313 2009 
L 1997 2009 
L 1997 1497 
L 313 1497 
L 313 2009 
z
" transform="scale(0.015625)"/>
        <path id="DejaVuSans-34" d="M 2419 4116 
L 825 1625 
L 2419 1625 
L 2419 4116 
z
M 2253 4666 
L 3047 4666 
L 3047 1625 
L 3713 1625 
L 3713 1100 
L 3047 1100 
L 3047 0 
L 2419 0 
L 2419 1100 
L 313 1100 
L 313 1709 
L 2253 4666 
z
" transform="scale(0.015625)"/>
        <path id="DejaVuSans-20" transform="scale(0.015625)"/>
       </defs>
       <use xlink:href="#DejaVuSans-30"/>
       <use xlink:href="#DejaVuSans-31" transform="translate(63.623047 0)"/>
       <use xlink:href="#DejaVuSans-2d" transform="translate(127.246094 0)"/>
       <use xlink:href="#DejaVuSans-31" transform="translate(163.330078 0)"/>
       <use xlink:href="#DejaVuSans-34" transform="translate(226.953125 0)"/>
       <use xlink:href="#DejaVuSans-20" transform="translate(290.576172 0)"/>
       <use xlink:href="#DejaVuSans-31" transform="translate(322.363281 0)"/>
       <use xlink:href="#DejaVuSans-34" transform="translate(385.986328 0)"/>
      </g>
     </g>
    </g>
    <g id="xtick_2">
     <g id="line2d_3">
      <path d="M 263.460037 384.48 
L 263.460037 51.84 
" clip-path="url(#pb47b2e871b)" style="fill: none; stroke: #b0b0b0; stroke-width: 0.8; stroke-linecap: square"/>
     </g>
     <g id="line2d_4">
      <g>
       <use xlink:href="#m76b296281e" x="263.460037" y="384.48" style="stroke: #000000; stroke-width: 0.8"/>
      </g>
     </g>
     <g id="text_2">
      <!-- 01-14 15 -->
      <g transform="translate(240.979568 399.078438) scale(0.1 -0.1)">
       <defs>
        <path id="DejaVuSans-35" d="M 691 4666 
L 3169 4666 
L 3169 4134 
L 1269 4134 
L 1269 2991 
Q 1406 3038 1543 3061 
Q 1681 3084 1819 3084 
Q 2600 3084 3056 2656 
Q 3513 2228 3513 1497 
Q 3513 744 3044 326 
Q 2575 -91 1722 -91 
Q 1428 -91 1123 -41 
Q 819 9 494 109 
L 494 744 
Q 775 591 1075 516 
Q 1375 441 1709 441 
Q 2250 441 2565 725 
Q 2881 1009 2881 1497 
Q 2881 1984 2565 2268 
Q 2250 2553 1709 2553 
Q 1456 2553 1204 2497 
Q 953 2441 691 2322 
L 691 4666 
z
" transform="scale(0.015625)"/>
       </defs>
       <use xlink:href="#DejaVuSans-30"/>
       <use xlink:href="#DejaVuSans-31" transform="translate(63.623047 0)"/>
       <use xlink:href="#DejaVuSans-2d" transform="translate(127.246094 0)"/>
       <use xlink:href="#DejaVuSans-31" transform="translate(163.330078 0)"/>
       <use xlink:href="#DejaVuSans-34" transform="translate(226.953125 0)"/>
       <use xlink:href="#DejaVuSans-20" transform="translate(290.576172 0)"/>
       <use xlink:href="#DejaVuSans-31" transform="translate(322.363281 0)"/>
       <use xlink:href="#DejaVuSans-35" transform="translate(385.986328 0)"/>
      </g>
     </g>
    </g>
    <g id="xtick_3">
     <g id="line2d_5">
      <path d="M 365.595485 384.48 
L 365.595485 51.84 
" clip-path="url(#pb47b2e871b)" style="fill: none; stroke: #b0b0b0; stroke-width: 0.8; stroke-linecap: square"/>
     </g>
     <g id="line2d_6">
      <g>
       <use xlink:href="#m76b296281e" x="365.595485" y="384.48" style="stroke: #000000; stroke-width: 0.8"/>
      </g>
     </g>
     <g id="text_3">
      <!-- 01-14 16 -->
      <g transform="translate(343.115016 399.078438) scale(0.1 -0.1)">
       <defs>
        <path id="DejaVuSans-36" d="M 2113 2584 
Q 1688 2584 1439 2293 
Q 1191 2003 1191 1497 
Q 1191 994 1439 701 
Q 1688 409 2113 409 
Q 2538 409 2786 701 
Q 3034 994 3034 1497 
Q 3034 2003 2786 2293 
Q 2538 2584 2113 2584 
z
M 3366 4563 
L 3366 3988 
Q 3128 4100 2886 4159 
Q 2644 4219 2406 4219 
Q 1781 4219 1451 3797 
Q 1122 3375 1075 2522 
Q 1259 2794 1537 2939 
Q 1816 3084 2150 3084 
Q 2853 3084 3261 2657 
Q 3669 2231 3669 1497 
Q 3669 778 3244 343 
Q 2819 -91 2113 -91 
Q 1303 -91 875 529 
Q 447 1150 447 2328 
Q 447 3434 972 4092 
Q 1497 4750 2381 4750 
Q 2619 4750 2861 4703 
Q 3103 4656 3366 4563 
z
" transform="scale(0.015625)"/>
       </defs>
       <use xlink:href="#DejaVuSans-30"/>
       <use xlink:href="#DejaVuSans-31" transform="translate(63.623047 0)"/>
       <use xlink:href="#DejaVuSans-2d" transform="translate(127.246094 0)"/>
       <use xlink:href="#DejaVuSans-31" transform="translate(163.330078 0)"/>
       <use xlink:href="#DejaVuSans-34" transform="translate(226.953125 0)"/>
       <use xlink:href="#DejaVuSans-20" transform="translate(290.576172 0)"/>
       <use xlink:href="#DejaVuSans-31" transform="translate(322.363281 0)"/>
       <use xlink:href="#DejaVuSans-36" transform="translate(385.986328 0)"/>
      </g>
     </g>
    </g>
    <g id="xtick_4">
     <g id="line2d_7">
      <path d="M 467.730933 384.48 
L 467.730933 51.84 
" clip-path="url(#pb47b2e871b)" style="fill: none; stroke: #b0b0b0; stroke-width: 0.8; stroke-linecap: square"/>
     </g>
     <g id="line2d_8">
      <g>
       <use xlink:href="#m76b296281e" x="467.730933" y="384.48" style="stroke: #000000; stroke-width: 0.8"/>
      </g>
     </g>
     <g id="text_4">
      <!-- 01-14 17 -->
      <g transform="translate(445.250465 399.078438) scale(0.1 -0.1)">
       <defs>
        <path id="DejaVuSans-37" d="M 525 4666 
L 3525 4666 
L 3525 4397 
L 1831 0 
L 1172 0 
L 2766 4134 
L 525 4134 
L 525 4666 
z
" transform="scale(0.015625)"/>
       </defs>
       <use xlink:href="#DejaVuSans-30"/>
       <use xlink:href="#DejaVuSans-31" transform="translate(63.623047 0)"/>
       <use xlink:href="#DejaVuSans-2d" transform="translate(127.246094 0)"/>
       <use xlink:href="#DejaVuSans-31" transform="translate(163.330078 0)"/>
       <use xlink:href="#DejaVuSans-34" transform="translate(226.953125 0)"/>
       <use xlink:href="#DejaVuSans-20" transform="translate(290.576172 0)"/>
       <use xlink:href="#DejaVuSans-31" transform="translate(322.363281 0)"/>
       <use xlink:href="#DejaVuSans-37" transform="translate(385.986328 0)"/>
      </g>
     </g>
    </g>
    <g id="xtick_5">
     <g id="line2d_9">
      <path d="M 569.866382 384.48 
L 569.866382 51.84 
" clip-path="url(#pb47b2e871b)" style="fill: none; stroke: #b0b0b0; stroke-width: 0.8; stroke-linecap: square"/>
     </g>
     <g id="line2d_10">
      <g>
       <use xlink:href="#m76b296281e" x="569.866382" y="384.48" style="stroke: #000000; stroke-width: 0.8"/>
      </g>
     </g>
     <g id="text_5">
      <!-- 01-14 18 -->
      <g transform="translate(547.385913 399.078438) scale(0.1 -0.1)">
       <defs>
        <path id="DejaVuSans-38" d="M 2034 2216 
Q 1584 2216 1326 1975 
Q 1069 1734 1069 1313 
Q 1069 891 1326 650 
Q 1584 409 2034 409 
Q 2484 409 2743 651 
Q 3003 894 3003 1313 
Q 3003 1734 2745 1975 
Q 2488 2216 2034 2216 
z
M 1403 2484 
Q 997 2584 770 2862 
Q 544 3141 544 3541 
Q 544 4100 942 4425 
Q 1341 4750 2034 4750 
Q 2731 4750 3128 4425 
Q 3525 4100 3525 3541 
Q 3525 3141 3298 2862 
Q 3072 2584 2669 2484 
Q 3125 2378 3379 2068 
Q 3634 1759 3634 1313 
Q 3634 634 3220 271 
Q 2806 -91 2034 -91 
Q 1263 -91 848 271 
Q 434 634 434 1313 
Q 434 1759 690 2068 
Q 947 2378 1403 2484 
z
M 1172 3481 
Q 1172 3119 1398 2916 
Q 1625 2713 2034 2713 
Q 2441 2713 2670 2916 
Q 2900 3119 2900 3481 
Q 2900 3844 2670 4047 
Q 2441 4250 2034 4250 
Q 1625 4250 1398 4047 
Q 1172 3844 1172 3481 
z
" transform="scale(0.015625)"/>
       </defs>
       <use xlink:href="#DejaVuSans-30"/>
       <use xlink:href="#DejaVuSans-31" transform="translate(63.623047 0)"/>
       <use xlink:href="#DejaVuSans-2d" transform="translate(127.246094 0)"/>
       <use xlink:href="#DejaVuSans-31" transform="translate(163.330078 0)"/>
       <use xlink:href="#DejaVuSans-34" transform="translate(226.953125 0)"/>
       <use xlink:href="#DejaVuSans-20" transform="translate(290.576172 0)"/>
       <use xlink:href="#DejaVuSans-31" transform="translate(322.363281 0)"/>
       <use xlink:href="#DejaVuSans-38" transform="translate(385.986328 0)"/>
      </g>
     </g>
    </g>
    <g id="text_6">
     <!-- Date and Time -->
     <g transform="translate(332.230469 412.756563) scale(0.1 -0.1)">
      <defs>
       <path id="DejaVuSans-44" d="M 1259 4147 
L 1259 519 
L 2022 519 
Q 2988 519 3436 956 
Q 3884 1394 3884 2338 
Q 3884 3275 3436 3711 
Q 2988 4147 2022 4147 
L 1259 4147 
z
M 628 4666 
L 1925 4666 
Q 3281 4666 3915 4102 
Q 4550 3538 4550 2338 
Q 4550 1131 3912 565 
Q 3275 0 1925 0 
L 628 0 
L 628 4666 
z
" transform="scale(0.015625)"/>
       <path id="DejaVuSans-61" d="M 2194 1759 
Q 1497 1759 1228 1600 
Q 959 1441 959 1056 
Q 959 750 1161 570 
Q 1363 391 1709 391 
Q 2188 391 2477 730 
Q 2766 1069 2766 1631 
L 2766 1759 
L 2194 1759 
z
M 3341 1997 
L 3341 0 
L 2766 0 
L 2766 531 
Q 2569 213 2275 61 
Q 1981 -91 1556 -91 
Q 1019 -91 701 211 
Q 384 513 384 1019 
Q 384 1609 779 1909 
Q 1175 2209 1959 2209 
L 2766 2209 
L 2766 2266 
Q 2766 2663 2505 2880 
Q 2244 3097 1772 3097 
Q 1472 3097 1187 3025 
Q 903 2953 641 2809 
L 641 3341 
Q 956 3463 1253 3523 
Q 1550 3584 1831 3584 
Q 2591 3584 2966 3190 
Q 3341 2797 3341 1997 
z
" transform="scale(0.015625)"/>
       <path id="DejaVuSans-74" d="M 1172 4494 
L 1172 3500 
L 2356 3500 
L 2356 3053 
L 1172 3053 
L 1172 1153 
Q 1172 725 1289 603 
Q 1406 481 1766 481 
L 2356 481 
L 2356 0 
L 1766 0 
Q 1100 0 847 248 
Q 594 497 594 1153 
L 594 3053 
L 172 3053 
L 172 3500 
L 594 3500 
L 594 4494 
L 1172 4494 
z
" transform="scale(0.015625)"/>
       <path id="DejaVuSans-65" d="M 3597 1894 
L 3597 1613 
L 953 1613 
Q 991 1019 1311 708 
Q 1631 397 2203 397 
Q 2534 397 2845 478 
Q 3156 559 3463 722 
L 3463 178 
Q 3153 47 2828 -22 
Q 2503 -91 2169 -91 
Q 1331 -91 842 396 
Q 353 884 353 1716 
Q 353 2575 817 3079 
Q 1281 3584 2069 3584 
Q 2775 3584 3186 3129 
Q 3597 2675 3597 1894 
z
M 3022 2063 
Q 3016 2534 2758 2815 
Q 2500 3097 2075 3097 
Q 1594 3097 1305 2825 
Q 1016 2553 972 2059 
L 3022 2063 
z
" transform="scale(0.015625)"/>
       <path id="DejaVuSans-6e" d="M 3513 2113 
L 3513 0 
L 2938 0 
L 2938 2094 
Q 2938 2591 2744 2837 
Q 2550 3084 2163 3084 
Q 1697 3084 1428 2787 
Q 1159 2491 1159 1978 
L 1159 0 
L 581 0 
L 581 3500 
L 1159 3500 
L 1159 2956 
Q 1366 3272 1645 3428 
Q 1925 3584 2291 3584 
Q 2894 3584 3203 3211 
Q 3513 2838 3513 2113 
z
" transform="scale(0.015625)"/>
       <path id="DejaVuSans-64" d="M 2906 2969 
L 2906 4863 
L 3481 4863 
L 3481 0 
L 2906 0 
L 2906 525 
Q 2725 213 2448 61 
Q 2172 -91 1784 -91 
Q 1150 -91 751 415 
Q 353 922 353 1747 
Q 353 2572 751 3078 
Q 1150 3584 1784 3584 
Q 2172 3584 2448 3432 
Q 2725 3281 2906 2969 
z
M 947 1747 
Q 947 1113 1208 752 
Q 1469 391 1925 391 
Q 2381 391 2643 752 
Q 2906 1113 2906 1747 
Q 2906 2381 2643 2742 
Q 2381 3103 1925 3103 
Q 1469 3103 1208 2742 
Q 947 2381 947 1747 
z
" transform="scale(0.015625)"/>
       <path id="DejaVuSans-54" d="M -19 4666 
L 3928 4666 
L 3928 4134 
L 2272 4134 
L 2272 0 
L 1638 0 
L 1638 4134 
L -19 4134 
L -19 4666 
z
" transform="scale(0.015625)"/>
       <path id="DejaVuSans-69" d="M 603 3500 
L 1178 3500 
L 1178 0 
L 603 0 
L 603 3500 
z
M 603 4863 
L 1178 4863 
L 1178 4134 
L 603 4134 
L 603 4863 
z
" transform="scale(0.015625)"/>
       <path id="DejaVuSans-6d" d="M 3328 2828 
Q 3544 3216 3844 3400 
Q 4144 3584 4550 3584 
Q 5097 3584 5394 3201 
Q 5691 2819 5691 2113 
L 5691 0 
L 5113 0 
L 5113 2094 
Q 5113 2597 4934 2840 
Q 4756 3084 4391 3084 
Q 3944 3084 3684 2787 
Q 3425 2491 3425 1978 
L 3425 0 
L 2847 0 
L 2847 2094 
Q 2847 2600 2669 2842 
Q 2491 3084 2119 3084 
Q 1678 3084 1418 2786 
Q 1159 2488 1159 1978 
L 1159 0 
L 581 0 
L 581 3500 
L 1159 3500 
L 1159 2956 
Q 1356 3278 1631 3431 
Q 1906 3584 2284 3584 
Q 2666 3584 2933 3390 
Q 3200 3197 3328 2828 
z
" transform="scale(0.015625)"/>
      </defs>
      <use xlink:href="#DejaVuSans-44"/>
      <use xlink:href="#DejaVuSans-61" transform="translate(77.001953 0)"/>
      <use xlink:href="#DejaVuSans-74" transform="translate(138.28125 0)"/>
      <use xlink:href="#DejaVuSans-65" transform="translate(177.490234 0)"/>
      <use xlink:href="#DejaVuSans-20" transform="translate(239.013672 0)"/>
      <use xlink:href="#DejaVuSans-61" transform="translate(270.800781 0)"/>
      <use xlink:href="#DejaVuSans-6e" transform="translate(332.080078 0)"/>
      <use xlink:href="#DejaVuSans-64" transform="translate(395.458984 0)"/>
      <use xlink:href="#DejaVuSans-20" transform="translate(458.935547 0)"/>
      <use xlink:href="#DejaVuSans-54" transform="translate(490.722656 0)"/>
      <use xlink:href="#DejaVuSans-69" transform="translate(548.681641 0)"/>
      <use xlink:href="#DejaVuSans-6d" transform="translate(576.464844 0)"/>
      <use xlink:href="#DejaVuSans-65" transform="translate(673.876953 0)"/>
     </g>
    </g>
   </g>
   <g id="matplotlib.axis_2">
    <g id="ytick_1">
     <g id="line2d_11">
      <path d="M 90 370.641356 
L 648 370.641356 
" clip-path="url(#pb47b2e871b)" style="fill: none; stroke: #b0b0b0; stroke-width: 0.8; stroke-linecap: square"/>
     </g>
     <g id="line2d_12">
      <defs>
       <path id="mbdc2d6a99a" d="M 0 0 
L -3.5 0 
" style="stroke: #000000; stroke-width: 0.8"/>
      </defs>
      <g>
       <use xlink:href="#mbdc2d6a99a" x="90" y="370.641356" style="stroke: #000000; stroke-width: 0.8"/>
      </g>
     </g>
     <g id="text_7">
      <!-- 0 -->
      <g transform="translate(76.6375 374.440575) scale(0.1 -0.1)">
       <use xlink:href="#DejaVuSans-30"/>
      </g>
     </g>
    </g>
    <g id="ytick_2">
     <g id="line2d_13">
      <path d="M 90 306.573559 
L 648 306.573559 
" clip-path="url(#pb47b2e871b)" style="fill: none; stroke: #b0b0b0; stroke-width: 0.8; stroke-linecap: square"/>
     </g>
     <g id="line2d_14">
      <g>
       <use xlink:href="#mbdc2d6a99a" x="90" y="306.573559" style="stroke: #000000; stroke-width: 0.8"/>
      </g>
     </g>
     <g id="text_8">
      <!-- 50 -->
      <g transform="translate(70.275 310.372778) scale(0.1 -0.1)">
       <use xlink:href="#DejaVuSans-35"/>
       <use xlink:href="#DejaVuSans-30" transform="translate(63.623047 0)"/>
      </g>
     </g>
    </g>
    <g id="ytick_3">
     <g id="line2d_15">
      <path d="M 90 242.505763 
L 648 242.505763 
" clip-path="url(#pb47b2e871b)" style="fill: none; stroke: #b0b0b0; stroke-width: 0.8; stroke-linecap: square"/>
     </g>
     <g id="line2d_16">
      <g>
       <use xlink:href="#mbdc2d6a99a" x="90" y="242.505763" style="stroke: #000000; stroke-width: 0.8"/>
      </g>
     </g>
     <g id="text_9">
      <!-- 100 -->
      <g transform="translate(63.9125 246.304981) scale(0.1 -0.1)">
       <use xlink:href="#DejaVuSans-31"/>
       <use xlink:href="#DejaVuSans-30" transform="translate(63.623047 0)"/>
       <use xlink:href="#DejaVuSans-30" transform="translate(127.246094 0)"/>
      </g>
     </g>
    </g>
    <g id="ytick_4">
     <g id="line2d_17">
      <path d="M 90 178.437966 
L 648 178.437966 
" clip-path="url(#pb47b2e871b)" style="fill: none; stroke: #b0b0b0; stroke-width: 0.8; stroke-linecap: square"/>
     </g>
     <g id="line2d_18">
      <g>
       <use xlink:href="#mbdc2d6a99a" x="90" y="178.437966" style="stroke: #000000; stroke-width: 0.8"/>
      </g>
     </g>
     <g id="text_10">
      <!-- 150 -->
      <g transform="translate(63.9125 182.237185) scale(0.1 -0.1)">
       <use xlink:href="#DejaVuSans-31"/>
       <use xlink:href="#DejaVuSans-35" transform="translate(63.623047 0)"/>
       <use xlink:href="#DejaVuSans-30" transform="translate(127.246094 0)"/>
      </g>
     </g>
    </g>
    <g id="ytick_5">
     <g id="line2d_19">
      <path d="M 90 114.370169 
L 648 114.370169 
" clip-path="url(#pb47b2e871b)" style="fill: none; stroke: #b0b0b0; stroke-width: 0.8; stroke-linecap: square"/>
     </g>
     <g id="line2d_20">
      <g>
       <use xlink:href="#mbdc2d6a99a" x="90" y="114.370169" style="stroke: #000000; stroke-width: 0.8"/>
      </g>
     </g>
     <g id="text_11">
      <!-- 200 -->
      <g transform="translate(63.9125 118.169388) scale(0.1 -0.1)">
       <defs>
        <path id="DejaVuSans-32" d="M 1228 531 
L 3431 531 
L 3431 0 
L 469 0 
L 469 531 
Q 828 903 1448 1529 
Q 2069 2156 2228 2338 
Q 2531 2678 2651 2914 
Q 2772 3150 2772 3378 
Q 2772 3750 2511 3984 
Q 2250 4219 1831 4219 
Q 1534 4219 1204 4116 
Q 875 4013 500 3803 
L 500 4441 
Q 881 4594 1212 4672 
Q 1544 4750 1819 4750 
Q 2544 4750 2975 4387 
Q 3406 4025 3406 3419 
Q 3406 3131 3298 2873 
Q 3191 2616 2906 2266 
Q 2828 2175 2409 1742 
Q 1991 1309 1228 531 
z
" transform="scale(0.015625)"/>
       </defs>
       <use xlink:href="#DejaVuSans-32"/>
       <use xlink:href="#DejaVuSans-30" transform="translate(63.623047 0)"/>
       <use xlink:href="#DejaVuSans-30" transform="translate(127.246094 0)"/>
      </g>
     </g>
    </g>
    <g id="text_12">
     <!-- Votes -->
     <g transform="translate(57.832812 231.893594) rotate(-90) scale(0.1 -0.1)">
      <defs>
       <path id="DejaVuSans-56" d="M 1831 0 
L 50 4666 
L 709 4666 
L 2188 738 
L 3669 4666 
L 4325 4666 
L 2547 0 
L 1831 0 
z
" transform="scale(0.015625)"/>
       <path id="DejaVuSans-6f" d="M 1959 3097 
Q 1497 3097 1228 2736 
Q 959 2375 959 1747 
Q 959 1119 1226 758 
Q 1494 397 1959 397 
Q 2419 397 2687 759 
Q 2956 1122 2956 1747 
Q 2956 2369 2687 2733 
Q 2419 3097 1959 3097 
z
M 1959 3584 
Q 2709 3584 3137 3096 
Q 3566 2609 3566 1747 
Q 3566 888 3137 398 
Q 2709 -91 1959 -91 
Q 1206 -91 779 398 
Q 353 888 353 1747 
Q 353 2609 779 3096 
Q 1206 3584 1959 3584 
z
" transform="scale(0.015625)"/>
       <path id="DejaVuSans-73" d="M 2834 3397 
L 2834 2853 
Q 2591 2978 2328 3040 
Q 2066 3103 1784 3103 
Q 1356 3103 1142 2972 
Q 928 2841 928 2578 
Q 928 2378 1081 2264 
Q 1234 2150 1697 2047 
L 1894 2003 
Q 2506 1872 2764 1633 
Q 3022 1394 3022 966 
Q 3022 478 2636 193 
Q 2250 -91 1575 -91 
Q 1294 -91 989 -36 
Q 684 19 347 128 
L 347 722 
Q 666 556 975 473 
Q 1284 391 1588 391 
Q 1994 391 2212 530 
Q 2431 669 2431 922 
Q 2431 1156 2273 1281 
Q 2116 1406 1581 1522 
L 1381 1569 
Q 847 1681 609 1914 
Q 372 2147 372 2553 
Q 372 3047 722 3315 
Q 1072 3584 1716 3584 
Q 2034 3584 2315 3537 
Q 2597 3491 2834 3397 
z
" transform="scale(0.015625)"/>
      </defs>
      <use xlink:href="#DejaVuSans-56"/>
      <use xlink:href="#DejaVuSans-6f" transform="translate(60.658203 0)"/>
      <use xlink:href="#DejaVuSans-74" transform="translate(121.839844 0)"/>
      <use xlink:href="#DejaVuSans-65" transform="translate(161.048828 0)"/>
      <use xlink:href="#DejaVuSans-73" transform="translate(222.572266 0)"/>
     </g>
    </g>
   </g>
   <g id="line2d_21">
    <path d="M 115.363636 347.576949 
L 132.386211 347.576949 
L 134.088469 346.295593 
L 151.111043 346.295593 
L 152.813301 343.732881 
L 168.133618 343.732881 
L 169.835876 342.451525 
L 178.347163 342.451525 
L 180.04942 341.170169 
L 186.85845 341.170169 
L 188.560708 339.888814 
L 193.66748 339.888814 
L 195.369738 338.607458 
L 219.201342 338.607458 
L 220.9036 337.326102 
L 239.628432 337.326102 
L 243.032947 334.76339 
L 246.437462 334.76339 
L 248.139719 333.482034 
L 263.460037 333.482034 
L 266.864552 330.919322 
L 287.291641 330.919322 
L 288.993899 329.637966 
L 294.100671 329.637966 
L 295.802929 328.35661 
L 297.505186 328.35661 
L 299.207444 327.075254 
L 345.168395 327.075254 
L 346.870653 325.793898 
L 367.297743 325.793898 
L 369 324.512542 
L 380.915802 324.512542 
L 382.61806 323.231186 
L 384.320317 320.668475 
L 386.022575 320.668475 
L 389.42709 318.105763 
L 416.663209 318.105763 
L 418.365467 316.824407 
L 428.579012 316.824407 
L 430.281269 315.543051 
L 437.090299 315.543051 
L 438.792556 314.261695 
L 455.815131 314.261695 
L 457.517389 312.980339 
L 460.921904 312.980339 
L 462.624161 311.698983 
L 467.730933 311.698983 
L 469.433191 310.417627 
L 483.051251 310.417627 
L 484.753508 309.136271 
L 486.455766 309.136271 
L 488.158023 307.854915 
L 505.180598 307.854915 
L 506.882855 306.573559 
L 518.798658 306.573559 
L 520.500915 305.292203 
L 522.203173 305.292203 
L 525.607688 302.729492 
L 563.057352 302.729492 
L 564.75961 301.448136 
L 591.995729 301.448136 
L 593.697987 300.16678 
L 595.400244 300.16678 
L 597.102502 298.885424 
L 612.422819 298.885424 
L 614.125076 297.604068 
L 615.827334 297.604068 
L 617.529591 296.322712 
L 622.636364 296.322712 
L 622.636364 296.322712 
" clip-path="url(#pb47b2e871b)" style="fill: none; stroke: #1f77b4; stroke-width: 1.5; stroke-linecap: square"/>
   </g>
   <g id="line2d_22">
    <path d="M 115.363636 265.570169 
L 117.065894 264.288814 
L 122.172666 264.288814 
L 123.874924 263.007458 
L 125.577181 263.007458 
L 127.279439 261.726102 
L 128.981696 261.726102 
L 132.386211 259.16339 
L 134.088469 256.600678 
L 135.790726 256.600678 
L 139.195241 254.037966 
L 140.897498 254.037966 
L 142.599756 248.912542 
L 144.302013 246.349831 
L 146.004271 241.224407 
L 147.706528 237.380339 
L 152.813301 237.380339 
L 154.515558 233.536271 
L 156.217816 230.973559 
L 159.622331 228.410847 
L 161.324588 225.848136 
L 164.729103 223.285424 
L 166.431361 220.722712 
L 171.538133 220.722712 
L 173.24039 214.315932 
L 174.942648 211.75322 
L 176.644905 210.471864 
L 178.347163 207.909153 
L 180.04942 206.627797 
L 181.751678 206.627797 
L 183.453935 202.783729 
L 185.156193 202.783729 
L 186.85845 200.221017 
L 188.560708 198.939661 
L 190.262965 198.939661 
L 191.965223 197.658305 
L 195.369738 197.658305 
L 197.071995 196.376949 
L 200.47651 196.376949 
L 202.178768 193.814237 
L 203.881025 193.814237 
L 205.583282 192.532881 
L 212.392312 192.532881 
L 214.09457 191.251525 
L 219.201342 191.251525 
L 220.9036 189.970169 
L 222.605857 189.970169 
L 224.308115 187.407458 
L 226.010372 187.407458 
L 227.71263 184.844746 
L 229.414887 183.56339 
L 234.52166 183.56339 
L 236.223917 181.000678 
L 237.926174 179.719322 
L 239.628432 175.875254 
L 243.032947 173.312542 
L 256.651007 173.312542 
L 258.353264 169.468475 
L 260.055522 169.468475 
L 263.460037 166.905763 
L 265.162294 166.905763 
L 270.269067 163.061695 
L 273.673581 163.061695 
L 275.375839 161.780339 
L 278.780354 161.780339 
L 283.887126 157.936271 
L 287.291641 157.936271 
L 288.993899 156.654915 
L 297.505186 156.654915 
L 299.207444 155.373559 
L 302.611959 155.373559 
L 304.314216 154.092203 
L 324.741306 154.092203 
L 326.443563 151.529492 
L 329.848078 151.529492 
L 333.252593 148.96678 
L 334.954851 148.96678 
L 336.657108 147.685424 
L 346.870653 147.685424 
L 351.977425 143.841356 
L 353.679683 143.841356 
L 355.38194 142.56 
L 357.084198 139.997288 
L 358.786455 139.997288 
L 360.488713 138.715932 
L 362.19097 138.715932 
L 369 133.590508 
L 372.404515 133.590508 
L 374.106772 131.027797 
L 379.213545 131.027797 
L 380.915802 129.746441 
L 386.022575 129.746441 
L 387.724832 128.465085 
L 389.42709 128.465085 
L 391.129347 124.621017 
L 396.23612 124.621017 
L 397.938377 123.339661 
L 399.640635 120.776949 
L 403.045149 120.776949 
L 404.747407 119.495593 
L 408.151922 119.495593 
L 409.854179 118.214237 
L 411.556437 118.214237 
L 420.067724 111.807458 
L 423.472239 111.807458 
L 428.579012 107.96339 
L 433.685784 107.96339 
L 435.388041 105.400678 
L 437.090299 105.400678 
L 438.792556 104.119322 
L 443.899329 104.119322 
L 445.601586 102.837966 
L 460.921904 102.837966 
L 462.624161 101.55661 
L 474.539963 101.55661 
L 476.242221 100.275254 
L 479.646736 100.275254 
L 483.051251 97.712542 
L 491.562538 97.712542 
L 493.264796 96.431186 
L 501.776083 96.431186 
L 506.882855 92.587119 
L 529.012203 92.587119 
L 530.71446 90.024407 
L 532.416718 88.743051 
L 573.270897 88.743051 
L 574.973154 87.461695 
L 585.186699 87.461695 
L 588.591214 84.898983 
L 591.995729 84.898983 
L 593.697987 83.617627 
L 595.400244 83.617627 
L 598.804759 81.054915 
L 600.507016 81.054915 
L 602.209274 79.773559 
L 603.911531 79.773559 
L 607.316046 74.648136 
L 609.018304 73.36678 
L 617.529591 73.36678 
L 619.231849 69.522712 
L 620.934106 66.96 
L 622.636364 66.96 
L 622.636364 66.96 
" clip-path="url(#pb47b2e871b)" style="fill: none; stroke: #ff7f0e; stroke-width: 1.5; stroke-linecap: square"/>
   </g>
   <g id="line2d_23">
    <path d="M 115.363636 330.919322 
L 122.172666 330.919322 
L 123.874924 328.35661 
L 127.279439 328.35661 
L 128.981696 327.075254 
L 130.683954 324.512542 
L 132.386211 323.231186 
L 134.088469 319.387119 
L 135.790726 316.824407 
L 137.492984 315.543051 
L 139.195241 315.543051 
L 140.897498 312.980339 
L 142.599756 309.136271 
L 149.408786 309.136271 
L 151.111043 307.854915 
L 152.813301 307.854915 
L 154.515558 305.292203 
L 159.622331 305.292203 
L 163.026846 302.729492 
L 169.835876 302.729492 
L 171.538133 301.448136 
L 178.347163 301.448136 
L 183.453935 297.604068 
L 191.965223 297.604068 
L 193.66748 296.322712 
L 198.774253 296.322712 
L 200.47651 295.041356 
L 203.881025 295.041356 
L 205.583282 292.478644 
L 219.201342 292.478644 
L 220.9036 291.197288 
L 222.605857 288.634576 
L 224.308115 287.35322 
L 226.010372 287.35322 
L 227.71263 286.071864 
L 231.117145 286.071864 
L 232.819402 284.790508 
L 236.223917 284.790508 
L 237.926174 283.509153 
L 248.139719 283.509153 
L 249.841977 282.227797 
L 251.544234 282.227797 
L 253.246492 280.946441 
L 254.948749 280.946441 
L 256.651007 279.665085 
L 261.757779 279.665085 
L 263.460037 278.383729 
L 265.162294 275.821017 
L 273.673581 275.821017 
L 278.780354 271.976949 
L 283.887126 271.976949 
L 285.589384 270.695593 
L 292.398414 270.695593 
L 294.100671 269.414237 
L 295.802929 269.414237 
L 297.505186 268.132881 
L 300.909701 268.132881 
L 302.611959 266.851525 
L 307.718731 266.851525 
L 311.123246 264.288814 
L 312.825503 264.288814 
L 314.527761 263.007458 
L 328.145821 263.007458 
L 329.848078 260.444746 
L 331.550336 259.16339 
L 345.168395 259.16339 
L 346.870653 257.882034 
L 351.977425 257.882034 
L 353.679683 256.600678 
L 358.786455 256.600678 
L 360.488713 255.319322 
L 377.511287 255.319322 
L 379.213545 254.037966 
L 386.022575 254.037966 
L 387.724832 252.75661 
L 397.938377 252.75661 
L 399.640635 251.475254 
L 403.045149 251.475254 
L 404.747407 250.193898 
L 411.556437 250.193898 
L 414.960952 247.631186 
L 447.303844 247.631186 
L 449.006101 246.349831 
L 450.708359 246.349831 
L 452.410616 245.068475 
L 457.517389 245.068475 
L 459.219646 243.787119 
L 467.730933 243.787119 
L 469.433191 242.505763 
L 472.837706 242.505763 
L 474.539963 241.224407 
L 484.753508 241.224407 
L 486.455766 242.505763 
L 488.158023 241.224407 
L 500.073826 241.224407 
L 501.776083 239.943051 
L 515.394143 239.943051 
L 517.0964 238.661695 
L 520.500915 238.661695 
L 522.203173 237.380339 
L 523.90543 237.380339 
L 525.607688 236.098983 
L 537.52349 236.098983 
L 539.225747 234.817627 
L 549.439292 234.817627 
L 551.14155 233.536271 
L 576.675412 233.536271 
L 578.377669 232.254915 
L 615.827334 232.254915 
L 617.529591 230.973559 
L 622.636364 230.973559 
L 622.636364 230.973559 
" clip-path="url(#pb47b2e871b)" style="fill: none; stroke: #2ca02c; stroke-width: 1.5; stroke-linecap: square"/>
   </g>
   <g id="line2d_24">
    <path d="M 115.363636 369.36 
L 535.821232 369.36 
L 537.52349 368.078644 
L 622.636364 368.078644 
L 622.636364 368.078644 
" clip-path="url(#pb47b2e871b)" style="fill: none; stroke: #d62728; stroke-width: 1.5; stroke-linecap: square"/>
   </g>
   <g id="line2d_25">
    <path d="M 115.363636 341.170169 
L 120.470409 341.170169 
L 122.172666 339.888814 
L 132.386211 339.888814 
L 134.088469 338.607458 
L 144.302013 338.607458 
L 146.004271 337.326102 
L 183.453935 337.326102 
L 185.156193 336.044746 
L 246.437462 336.044746 
L 249.841977 333.482034 
L 263.460037 333.482034 
L 265.162294 332.200678 
L 271.971324 332.200678 
L 273.673581 330.919322 
L 277.078096 330.919322 
L 278.780354 329.637966 
L 323.039048 329.637966 
L 324.741306 328.35661 
L 394.533862 328.35661 
L 396.23612 327.075254 
L 617.529591 327.075254 
L 619.231849 325.793898 
L 620.934106 325.793898 
L 622.636364 324.512542 
L 622.636364 324.512542 
" clip-path="url(#pb47b2e871b)" style="fill: none; stroke: #9467bd; stroke-width: 1.5; stroke-linecap: square"/>
   </g>
   <g id="line2d_26">
    <path d="M 115.363636 351.421017 
L 117.065894 351.421017 
L 118.768151 350.139661 
L 142.599756 350.139661 
L 144.302013 348.858305 
L 164.729103 348.858305 
L 166.431361 347.576949 
L 191.965223 347.576949 
L 195.369738 345.014237 
L 214.09457 345.014237 
L 215.796827 343.732881 
L 266.864552 343.732881 
L 268.566809 342.451525 
L 283.887126 342.451525 
L 285.589384 341.170169 
L 314.527761 341.170169 
L 316.230018 339.888814 
L 343.466138 339.888814 
L 345.168395 338.607458 
L 351.977425 338.607458 
L 353.679683 337.326102 
L 369 337.326102 
L 370.702257 336.044746 
L 411.556437 336.044746 
L 413.258694 334.76339 
L 423.472239 334.76339 
L 425.174497 333.482034 
L 435.388041 333.482034 
L 437.090299 332.200678 
L 443.899329 332.200678 
L 445.601586 330.919322 
L 508.585113 330.919322 
L 510.28737 329.637966 
L 559.652837 329.637966 
L 561.355095 328.35661 
L 622.636364 328.35661 
L 622.636364 328.35661 
" clip-path="url(#pb47b2e871b)" style="fill: none; stroke: #8c564b; stroke-width: 1.5; stroke-linecap: square"/>
   </g>
   <g id="line2d_27">
    <path d="M 115.363636 256.600678 
L 122.172666 256.600678 
L 123.874924 255.319322 
L 130.683954 255.319322 
L 134.088469 252.75661 
L 135.790726 252.75661 
L 137.492984 251.475254 
L 139.195241 251.475254 
L 140.897498 250.193898 
L 144.302013 250.193898 
L 146.004271 248.912542 
L 151.111043 248.912542 
L 152.813301 247.631186 
L 156.217816 247.631186 
L 157.920073 246.349831 
L 159.622331 246.349831 
L 161.324588 245.068475 
L 164.729103 245.068475 
L 168.133618 242.505763 
L 174.942648 242.505763 
L 176.644905 241.224407 
L 181.751678 241.224407 
L 185.156193 238.661695 
L 188.560708 238.661695 
L 190.262965 237.380339 
L 193.66748 237.380339 
L 195.369738 236.098983 
L 197.071995 233.536271 
L 198.774253 229.692203 
L 202.178768 229.692203 
L 203.881025 228.410847 
L 212.392312 228.410847 
L 215.796827 225.848136 
L 217.499085 223.285424 
L 219.201342 222.004068 
L 220.9036 222.004068 
L 222.605857 219.441356 
L 229.414887 219.441356 
L 231.117145 218.16 
L 232.819402 218.16 
L 236.223917 215.597288 
L 237.926174 215.597288 
L 239.628432 214.315932 
L 241.330689 214.315932 
L 244.735204 211.75322 
L 248.139719 211.75322 
L 249.841977 209.190508 
L 256.651007 209.190508 
L 260.055522 206.627797 
L 263.460037 206.627797 
L 265.162294 205.346441 
L 266.864552 202.783729 
L 271.971324 202.783729 
L 273.673581 201.502373 
L 275.375839 201.502373 
L 277.078096 198.939661 
L 278.780354 198.939661 
L 280.482611 197.658305 
L 282.184869 197.658305 
L 283.887126 196.376949 
L 290.696156 196.376949 
L 294.100671 193.814237 
L 295.802929 193.814237 
L 297.505186 191.251525 
L 299.207444 191.251525 
L 300.909701 189.970169 
L 302.611959 189.970169 
L 304.314216 188.688814 
L 309.420988 188.688814 
L 311.123246 187.407458 
L 312.825503 187.407458 
L 319.634533 182.282034 
L 321.336791 179.719322 
L 324.741306 179.719322 
L 328.145821 174.593898 
L 331.550336 174.593898 
L 334.954851 172.031186 
L 336.657108 172.031186 
L 338.359365 169.468475 
L 340.061623 169.468475 
L 341.76388 168.187119 
L 343.466138 168.187119 
L 345.168395 166.905763 
L 348.57291 166.905763 
L 350.275168 165.624407 
L 351.977425 165.624407 
L 353.679683 164.343051 
L 360.488713 164.343051 
L 362.19097 157.936271 
L 363.893228 157.936271 
L 365.595485 156.654915 
L 370.702257 156.654915 
L 372.404515 155.373559 
L 387.724832 155.373559 
L 389.42709 152.810847 
L 396.23612 152.810847 
L 397.938377 151.529492 
L 414.960952 151.529492 
L 416.663209 148.96678 
L 418.365467 147.685424 
L 426.876754 147.685424 
L 428.579012 146.404068 
L 440.494814 146.404068 
L 442.197071 145.122712 
L 443.899329 145.122712 
L 445.601586 143.841356 
L 455.815131 143.841356 
L 459.219646 141.278644 
L 471.135448 141.278644 
L 474.539963 138.715932 
L 476.242221 138.715932 
L 477.944478 137.434576 
L 488.158023 137.434576 
L 489.860281 136.15322 
L 494.967053 136.15322 
L 496.669311 134.871864 
L 498.371568 132.309153 
L 503.47834 132.309153 
L 505.180598 131.027797 
L 506.882855 131.027797 
L 510.28737 128.465085 
L 517.0964 128.465085 
L 518.798658 127.183729 
L 525.607688 127.183729 
L 527.309945 125.902373 
L 532.416718 125.902373 
L 534.118975 124.621017 
L 547.737035 124.621017 
L 551.14155 122.058305 
L 559.652837 122.058305 
L 561.355095 120.776949 
L 568.164124 120.776949 
L 576.675412 114.370169 
L 580.079927 114.370169 
L 581.782184 113.088814 
L 583.484442 113.088814 
L 585.186699 110.526102 
L 588.591214 107.96339 
L 591.995729 102.837966 
L 595.400244 102.837966 
L 598.804759 97.712542 
L 602.209274 97.712542 
L 603.911531 95.149831 
L 607.316046 92.587119 
L 612.422819 92.587119 
L 614.125076 91.305763 
L 615.827334 91.305763 
L 619.231849 88.743051 
L 622.636364 88.743051 
L 622.636364 88.743051 
" clip-path="url(#pb47b2e871b)" style="fill: none; stroke: #e377c2; stroke-width: 1.5; stroke-linecap: square"/>
   </g>
   <g id="line2d_28">
    <path d="M 115.363636 336.044746 
L 117.065894 336.044746 
L 120.470409 333.482034 
L 128.981696 333.482034 
L 130.683954 332.200678 
L 132.386211 332.200678 
L 135.790726 329.637966 
L 139.195241 329.637966 
L 140.897498 328.35661 
L 146.004271 328.35661 
L 147.706528 327.075254 
L 149.408786 327.075254 
L 151.111043 325.793898 
L 152.813301 325.793898 
L 156.217816 323.231186 
L 161.324588 323.231186 
L 163.026846 321.949831 
L 166.431361 321.949831 
L 169.835876 319.387119 
L 173.24039 319.387119 
L 176.644905 316.824407 
L 178.347163 316.824407 
L 180.04942 315.543051 
L 181.751678 311.698983 
L 188.560708 311.698983 
L 195.369738 306.573559 
L 197.071995 306.573559 
L 200.47651 304.010847 
L 202.178768 304.010847 
L 203.881025 302.729492 
L 205.583282 302.729492 
L 207.28554 301.448136 
L 222.605857 301.448136 
L 224.308115 300.16678 
L 241.330689 300.16678 
L 244.735204 297.604068 
L 249.841977 297.604068 
L 251.544234 296.322712 
L 254.948749 296.322712 
L 258.353264 293.76 
L 261.757779 293.76 
L 263.460037 291.197288 
L 268.566809 291.197288 
L 270.269067 288.634576 
L 271.971324 287.35322 
L 280.482611 287.35322 
L 282.184869 286.071864 
L 283.887126 286.071864 
L 287.291641 283.509153 
L 295.802929 283.509153 
L 297.505186 282.227797 
L 299.207444 282.227797 
L 300.909701 280.946441 
L 311.123246 280.946441 
L 312.825503 279.665085 
L 317.932276 279.665085 
L 319.634533 278.383729 
L 321.336791 278.383729 
L 323.039048 274.539661 
L 324.741306 274.539661 
L 326.443563 271.976949 
L 328.145821 270.695593 
L 329.848078 270.695593 
L 333.252593 268.132881 
L 336.657108 268.132881 
L 338.359365 266.851525 
L 341.76388 266.851525 
L 343.466138 265.570169 
L 345.168395 265.570169 
L 346.870653 263.007458 
L 348.57291 263.007458 
L 350.275168 261.726102 
L 353.679683 261.726102 
L 357.084198 259.16339 
L 358.786455 259.16339 
L 360.488713 256.600678 
L 362.19097 255.319322 
L 374.106772 255.319322 
L 375.80903 252.75661 
L 380.915802 252.75661 
L 382.61806 251.475254 
L 384.320317 251.475254 
L 386.022575 250.193898 
L 391.129347 250.193898 
L 392.831605 248.912542 
L 401.342892 248.912542 
L 403.045149 247.631186 
L 406.449664 247.631186 
L 408.151922 246.349831 
L 416.663209 246.349831 
L 418.365467 245.068475 
L 433.685784 245.068475 
L 437.090299 242.505763 
L 438.792556 242.505763 
L 440.494814 241.224407 
L 442.197071 241.224407 
L 443.899329 239.943051 
L 445.601586 239.943051 
L 447.303844 238.661695 
L 450.708359 238.661695 
L 452.410616 237.380339 
L 454.112874 237.380339 
L 457.517389 234.817627 
L 462.624161 234.817627 
L 464.326419 233.536271 
L 469.433191 233.536271 
L 471.135448 232.254915 
L 483.051251 232.254915 
L 484.753508 230.973559 
L 486.455766 230.973559 
L 488.158023 229.692203 
L 494.967053 229.692203 
L 496.669311 227.129492 
L 506.882855 227.129492 
L 508.585113 225.848136 
L 510.28737 225.848136 
L 511.989628 223.285424 
L 520.500915 223.285424 
L 522.203173 222.004068 
L 532.416718 222.004068 
L 534.118975 220.722712 
L 556.248322 220.722712 
L 557.95058 219.441356 
L 583.484442 219.441356 
L 585.186699 218.16 
L 593.697987 218.16 
L 595.400244 216.878644 
L 597.102502 216.878644 
L 598.804759 215.597288 
L 600.507016 215.597288 
L 602.209274 213.034576 
L 603.911531 213.034576 
L 607.316046 210.471864 
L 619.231849 210.471864 
L 620.934106 209.190508 
L 622.636364 209.190508 
L 622.636364 209.190508 
" clip-path="url(#pb47b2e871b)" style="fill: none; stroke: #7f7f7f; stroke-width: 1.5; stroke-linecap: square"/>
   </g>
   <g id="line2d_29">
    <path d="M 115.363636 343.732881 
L 122.172666 343.732881 
L 123.874924 342.451525 
L 140.897498 342.451525 
L 142.599756 341.170169 
L 151.111043 341.170169 
L 152.813301 339.888814 
L 169.835876 339.888814 
L 171.538133 338.607458 
L 188.560708 338.607458 
L 190.262965 337.326102 
L 282.184869 337.326102 
L 283.887126 336.044746 
L 292.398414 336.044746 
L 294.100671 334.76339 
L 306.016473 334.76339 
L 307.718731 333.482034 
L 309.420988 333.482034 
L 311.123246 329.637966 
L 312.825503 328.35661 
L 316.230018 328.35661 
L 317.932276 327.075254 
L 334.954851 327.075254 
L 336.657108 325.793898 
L 351.977425 325.793898 
L 353.679683 324.512542 
L 372.404515 324.512542 
L 374.106772 323.231186 
L 394.533862 323.231186 
L 396.23612 321.949831 
L 404.747407 321.949831 
L 406.449664 320.668475 
L 460.921904 320.668475 
L 462.624161 319.387119 
L 466.028676 319.387119 
L 467.730933 318.105763 
L 481.348993 318.105763 
L 483.051251 316.824407 
L 530.71446 316.824407 
L 535.821232 312.980339 
L 585.186699 312.980339 
L 586.888957 311.698983 
L 588.591214 311.698983 
L 591.995729 309.136271 
L 595.400244 309.136271 
L 597.102502 307.854915 
L 622.636364 307.854915 
L 622.636364 307.854915 
" clip-path="url(#pb47b2e871b)" style="fill: none; stroke: #bcbd22; stroke-width: 1.5; stroke-linecap: square"/>
   </g>
   <g id="line2d_30">
    <path d="M 115.363636 366.797288 
L 200.47651 366.797288 
L 202.178768 365.515932 
L 309.420988 365.515932 
L 311.123246 364.234576 
L 484.753508 364.234576 
L 486.455766 362.95322 
L 488.158023 364.234576 
L 622.636364 364.234576 
L 622.636364 364.234576 
" clip-path="url(#pb47b2e871b)" style="fill: none; stroke: #17becf; stroke-width: 1.5; stroke-linecap: square"/>
   </g>
   <g id="line2d_31">
    <path d="M 115.363636 369.36 
L 117.065894 368.078644 
L 120.470409 368.078644 
L 122.172666 366.797288 
L 134.088469 366.797288 
L 135.790726 365.515932 
L 140.897498 365.515932 
L 142.599756 364.234576 
L 144.302013 364.234576 
L 147.706528 361.671864 
L 156.217816 361.671864 
L 159.622331 359.109153 
L 161.324588 359.109153 
L 163.026846 357.827797 
L 174.942648 357.827797 
L 176.644905 356.546441 
L 178.347163 353.983729 
L 181.751678 353.983729 
L 183.453935 352.702373 
L 185.156193 352.702373 
L 186.85845 351.421017 
L 188.560708 351.421017 
L 190.262965 350.139661 
L 191.965223 350.139661 
L 195.369738 347.576949 
L 205.583282 347.576949 
L 208.987797 345.014237 
L 214.09457 345.014237 
L 215.796827 343.732881 
L 217.499085 343.732881 
L 219.201342 341.170169 
L 224.308115 341.170169 
L 227.71263 336.044746 
L 237.926174 336.044746 
L 239.628432 333.482034 
L 241.330689 332.200678 
L 246.437462 332.200678 
L 248.139719 330.919322 
L 249.841977 328.35661 
L 253.246492 328.35661 
L 254.948749 327.075254 
L 278.780354 327.075254 
L 280.482611 324.512542 
L 292.398414 315.543051 
L 309.420988 315.543051 
L 314.527761 311.698983 
L 317.932276 311.698983 
L 319.634533 309.136271 
L 323.039048 309.136271 
L 324.741306 307.854915 
L 329.848078 307.854915 
L 331.550336 306.573559 
L 333.252593 306.573559 
L 334.954851 305.292203 
L 336.657108 305.292203 
L 340.061623 302.729492 
L 362.19097 302.729492 
L 365.595485 300.16678 
L 379.213545 300.16678 
L 380.915802 298.885424 
L 386.022575 298.885424 
L 389.42709 296.322712 
L 394.533862 296.322712 
L 396.23612 295.041356 
L 399.640635 295.041356 
L 401.342892 293.76 
L 409.854179 293.76 
L 411.556437 292.478644 
L 413.258694 292.478644 
L 414.960952 289.915932 
L 416.663209 289.915932 
L 418.365467 288.634576 
L 426.876754 288.634576 
L 428.579012 287.35322 
L 431.983527 287.35322 
L 433.685784 286.071864 
L 435.388041 286.071864 
L 438.792556 283.509153 
L 450.708359 283.509153 
L 452.410616 282.227797 
L 454.112874 282.227797 
L 455.815131 280.946441 
L 464.326419 280.946441 
L 466.028676 278.383729 
L 467.730933 277.102373 
L 476.242221 277.102373 
L 477.944478 275.821017 
L 484.753508 275.821017 
L 486.455766 273.258305 
L 493.264796 273.258305 
L 496.669311 270.695593 
L 501.776083 270.695593 
L 503.47834 269.414237 
L 523.90543 269.414237 
L 525.607688 266.851525 
L 527.309945 265.570169 
L 540.928005 265.570169 
L 542.630262 264.288814 
L 573.270897 264.288814 
L 574.973154 263.007458 
L 578.377669 263.007458 
L 580.079927 261.726102 
L 585.186699 261.726102 
L 586.888957 260.444746 
L 609.018304 260.444746 
L 610.720561 257.882034 
L 614.125076 257.882034 
L 615.827334 256.600678 
L 617.529591 256.600678 
L 619.231849 255.319322 
L 622.636364 255.319322 
L 622.636364 255.319322 
" clip-path="url(#pb47b2e871b)" style="fill: none; stroke: #1f77b4; stroke-width: 1.5; stroke-linecap: square"/>
   </g>
   <g id="line2d_32">
    <path d="M 115.363636 321.949831 
L 127.279439 321.949831 
L 128.981696 320.668475 
L 134.088469 320.668475 
L 135.790726 319.387119 
L 142.599756 319.387119 
L 144.302013 318.105763 
L 149.408786 318.105763 
L 151.111043 316.824407 
L 152.813301 316.824407 
L 154.515558 315.543051 
L 159.622331 315.543051 
L 161.324588 314.261695 
L 164.729103 314.261695 
L 166.431361 312.980339 
L 168.133618 312.980339 
L 171.538133 310.417627 
L 181.751678 310.417627 
L 183.453935 309.136271 
L 185.156193 309.136271 
L 186.85845 307.854915 
L 188.560708 307.854915 
L 190.262965 305.292203 
L 191.965223 301.448136 
L 193.66748 300.16678 
L 200.47651 300.16678 
L 205.583282 296.322712 
L 210.690055 296.322712 
L 214.09457 293.76 
L 232.819402 293.76 
L 234.52166 289.915932 
L 236.223917 289.915932 
L 239.628432 284.790508 
L 243.032947 282.227797 
L 244.735204 282.227797 
L 246.437462 279.665085 
L 260.055522 279.665085 
L 261.757779 277.102373 
L 266.864552 277.102373 
L 268.566809 275.821017 
L 280.482611 275.821017 
L 282.184869 274.539661 
L 302.611959 274.539661 
L 304.314216 273.258305 
L 306.016473 273.258305 
L 307.718731 271.976949 
L 312.825503 271.976949 
L 314.527761 270.695593 
L 334.954851 270.695593 
L 336.657108 269.414237 
L 340.061623 269.414237 
L 343.466138 264.288814 
L 346.870653 264.288814 
L 350.275168 261.726102 
L 353.679683 261.726102 
L 355.38194 260.444746 
L 360.488713 260.444746 
L 362.19097 259.16339 
L 382.61806 259.16339 
L 384.320317 257.882034 
L 409.854179 257.882034 
L 411.556437 256.600678 
L 426.876754 256.600678 
L 428.579012 255.319322 
L 431.983527 255.319322 
L 433.685784 254.037966 
L 438.792556 254.037966 
L 442.197071 251.475254 
L 443.899329 251.475254 
L 445.601586 250.193898 
L 452.410616 250.193898 
L 455.815131 247.631186 
L 464.326419 247.631186 
L 466.028676 246.349831 
L 471.135448 246.349831 
L 472.837706 245.068475 
L 481.348993 245.068475 
L 483.051251 243.787119 
L 491.562538 243.787119 
L 493.264796 242.505763 
L 523.90543 242.505763 
L 525.607688 241.224407 
L 527.309945 241.224407 
L 529.012203 239.943051 
L 546.034777 239.943051 
L 547.737035 237.380339 
L 549.439292 237.380339 
L 551.14155 236.098983 
L 568.164124 236.098983 
L 569.866382 234.817627 
L 576.675412 234.817627 
L 578.377669 233.536271 
L 580.079927 233.536271 
L 581.782184 232.254915 
L 597.102502 232.254915 
L 598.804759 230.973559 
L 622.636364 230.973559 
L 622.636364 230.973559 
" clip-path="url(#pb47b2e871b)" style="fill: none; stroke: #ff7f0e; stroke-width: 1.5; stroke-linecap: square"/>
   </g>
   <g id="patch_3">
    <path d="M 90 384.48 
L 90 51.84 
" style="fill: none; stroke: #000000; stroke-width: 0.8; stroke-linejoin: miter; stroke-linecap: square"/>
   </g>
   <g id="patch_4">
    <path d="M 648 384.48 
L 648 51.84 
" style="fill: none; stroke: #000000; stroke-width: 0.8; stroke-linejoin: miter; stroke-linecap: square"/>
   </g>
   <g id="patch_5">
    <path d="M 90 384.48 
L 648 384.48 
" style="fill: none; stroke: #000000; stroke-width: 0.8; stroke-linejoin: miter; stroke-linecap: square"/>
   </g>
   <g id="patch_6">
    <path d="M 90 51.84 
L 648 51.84 
" style="fill: none; stroke: #000000; stroke-width: 0.8; stroke-linejoin: miter; stroke-linecap: square"/>
   </g>
   <g id="text_13">
    <!-- Time Series of Votes for Each Keyword -->
    <g transform="translate(253.716563 45.84) scale(0.12 -0.12)">
     <defs>
      <path id="DejaVuSans-53" d="M 3425 4513 
L 3425 3897 
Q 3066 4069 2747 4153 
Q 2428 4238 2131 4238 
Q 1616 4238 1336 4038 
Q 1056 3838 1056 3469 
Q 1056 3159 1242 3001 
Q 1428 2844 1947 2747 
L 2328 2669 
Q 3034 2534 3370 2195 
Q 3706 1856 3706 1288 
Q 3706 609 3251 259 
Q 2797 -91 1919 -91 
Q 1588 -91 1214 -16 
Q 841 59 441 206 
L 441 856 
Q 825 641 1194 531 
Q 1563 422 1919 422 
Q 2459 422 2753 634 
Q 3047 847 3047 1241 
Q 3047 1584 2836 1778 
Q 2625 1972 2144 2069 
L 1759 2144 
Q 1053 2284 737 2584 
Q 422 2884 422 3419 
Q 422 4038 858 4394 
Q 1294 4750 2059 4750 
Q 2388 4750 2728 4690 
Q 3069 4631 3425 4513 
z
" transform="scale(0.015625)"/>
      <path id="DejaVuSans-72" d="M 2631 2963 
Q 2534 3019 2420 3045 
Q 2306 3072 2169 3072 
Q 1681 3072 1420 2755 
Q 1159 2438 1159 1844 
L 1159 0 
L 581 0 
L 581 3500 
L 1159 3500 
L 1159 2956 
Q 1341 3275 1631 3429 
Q 1922 3584 2338 3584 
Q 2397 3584 2469 3576 
Q 2541 3569 2628 3553 
L 2631 2963 
z
" transform="scale(0.015625)"/>
      <path id="DejaVuSans-66" d="M 2375 4863 
L 2375 4384 
L 1825 4384 
Q 1516 4384 1395 4259 
Q 1275 4134 1275 3809 
L 1275 3500 
L 2222 3500 
L 2222 3053 
L 1275 3053 
L 1275 0 
L 697 0 
L 697 3053 
L 147 3053 
L 147 3500 
L 697 3500 
L 697 3744 
Q 697 4328 969 4595 
Q 1241 4863 1831 4863 
L 2375 4863 
z
" transform="scale(0.015625)"/>
      <path id="DejaVuSans-45" d="M 628 4666 
L 3578 4666 
L 3578 4134 
L 1259 4134 
L 1259 2753 
L 3481 2753 
L 3481 2222 
L 1259 2222 
L 1259 531 
L 3634 531 
L 3634 0 
L 628 0 
L 628 4666 
z
" transform="scale(0.015625)"/>
      <path id="DejaVuSans-63" d="M 3122 3366 
L 3122 2828 
Q 2878 2963 2633 3030 
Q 2388 3097 2138 3097 
Q 1578 3097 1268 2742 
Q 959 2388 959 1747 
Q 959 1106 1268 751 
Q 1578 397 2138 397 
Q 2388 397 2633 464 
Q 2878 531 3122 666 
L 3122 134 
Q 2881 22 2623 -34 
Q 2366 -91 2075 -91 
Q 1284 -91 818 406 
Q 353 903 353 1747 
Q 353 2603 823 3093 
Q 1294 3584 2113 3584 
Q 2378 3584 2631 3529 
Q 2884 3475 3122 3366 
z
" transform="scale(0.015625)"/>
      <path id="DejaVuSans-68" d="M 3513 2113 
L 3513 0 
L 2938 0 
L 2938 2094 
Q 2938 2591 2744 2837 
Q 2550 3084 2163 3084 
Q 1697 3084 1428 2787 
Q 1159 2491 1159 1978 
L 1159 0 
L 581 0 
L 581 4863 
L 1159 4863 
L 1159 2956 
Q 1366 3272 1645 3428 
Q 1925 3584 2291 3584 
Q 2894 3584 3203 3211 
Q 3513 2838 3513 2113 
z
" transform="scale(0.015625)"/>
      <path id="DejaVuSans-4b" d="M 628 4666 
L 1259 4666 
L 1259 2694 
L 3353 4666 
L 4166 4666 
L 1850 2491 
L 4331 0 
L 3500 0 
L 1259 2247 
L 1259 0 
L 628 0 
L 628 4666 
z
" transform="scale(0.015625)"/>
      <path id="DejaVuSans-79" d="M 2059 -325 
Q 1816 -950 1584 -1140 
Q 1353 -1331 966 -1331 
L 506 -1331 
L 506 -850 
L 844 -850 
Q 1081 -850 1212 -737 
Q 1344 -625 1503 -206 
L 1606 56 
L 191 3500 
L 800 3500 
L 1894 763 
L 2988 3500 
L 3597 3500 
L 2059 -325 
z
" transform="scale(0.015625)"/>
      <path id="DejaVuSans-77" d="M 269 3500 
L 844 3500 
L 1563 769 
L 2278 3500 
L 2956 3500 
L 3675 769 
L 4391 3500 
L 4966 3500 
L 4050 0 
L 3372 0 
L 2619 2869 
L 1863 0 
L 1184 0 
L 269 3500 
z
" transform="scale(0.015625)"/>
     </defs>
     <use xlink:href="#DejaVuSans-54"/>
     <use xlink:href="#DejaVuSans-69" transform="translate(57.958984 0)"/>
     <use xlink:href="#DejaVuSans-6d" transform="translate(85.742188 0)"/>
     <use xlink:href="#DejaVuSans-65" transform="translate(183.154297 0)"/>
     <use xlink:href="#DejaVuSans-20" transform="translate(244.677734 0)"/>
     <use xlink:href="#DejaVuSans-53" transform="translate(276.464844 0)"/>
     <use xlink:href="#DejaVuSans-65" transform="translate(339.941406 0)"/>
     <use xlink:href="#DejaVuSans-72" transform="translate(401.464844 0)"/>
     <use xlink:href="#DejaVuSans-69" transform="translate(442.578125 0)"/>
     <use xlink:href="#DejaVuSans-65" transform="translate(470.361328 0)"/>
     <use xlink:href="#DejaVuSans-73" transform="translate(531.884766 0)"/>
     <use xlink:href="#DejaVuSans-20" transform="translate(583.984375 0)"/>
     <use xlink:href="#DejaVuSans-6f" transform="translate(615.771484 0)"/>
     <use xlink:href="#DejaVuSans-66" transform="translate(676.953125 0)"/>
     <use xlink:href="#DejaVuSans-20" transform="translate(712.158203 0)"/>
     <use xlink:href="#DejaVuSans-56" transform="translate(743.945312 0)"/>
     <use xlink:href="#DejaVuSans-6f" transform="translate(804.603516 0)"/>
     <use xlink:href="#DejaVuSans-74" transform="translate(865.785156 0)"/>
     <use xlink:href="#DejaVuSans-65" transform="translate(904.994141 0)"/>
     <use xlink:href="#DejaVuSans-73" transform="translate(966.517578 0)"/>
     <use xlink:href="#DejaVuSans-20" transform="translate(1018.617188 0)"/>
     <use xlink:href="#DejaVuSans-66" transform="translate(1050.404297 0)"/>
     <use xlink:href="#DejaVuSans-6f" transform="translate(1085.609375 0)"/>
     <use xlink:href="#DejaVuSans-72" transform="translate(1146.791016 0)"/>
     <use xlink:href="#DejaVuSans-20" transform="translate(1187.904297 0)"/>
     <use xlink:href="#DejaVuSans-45" transform="translate(1219.691406 0)"/>
     <use xlink:href="#DejaVuSans-61" transform="translate(1282.875 0)"/>
     <use xlink:href="#DejaVuSans-63" transform="translate(1344.154297 0)"/>
     <use xlink:href="#DejaVuSans-68" transform="translate(1399.134766 0)"/>
     <use xlink:href="#DejaVuSans-20" transform="translate(1462.513672 0)"/>
     <use xlink:href="#DejaVuSans-4b" transform="translate(1494.300781 0)"/>
     <use xlink:href="#DejaVuSans-65" transform="translate(1554.876953 0)"/>
     <use xlink:href="#DejaVuSans-79" transform="translate(1616.400391 0)"/>
     <use xlink:href="#DejaVuSans-77" transform="translate(1675.580078 0)"/>
     <use xlink:href="#DejaVuSans-6f" transform="translate(1757.367188 0)"/>
     <use xlink:href="#DejaVuSans-72" transform="translate(1818.548828 0)"/>
     <use xlink:href="#DejaVuSans-64" transform="translate(1857.912109 0)"/>
    </g>
   </g>
   <g id="legend_1">
    <g id="patch_7">
     <path d="M 97 235.9775 
L 149.245313 235.9775 
Q 151.245313 235.9775 151.245313 233.9775 
L 151.245313 58.84 
Q 151.245313 56.84 149.245313 56.84 
L 97 56.84 
Q 95 56.84 95 58.84 
L 95 233.9775 
Q 95 235.9775 97 235.9775 
z
" style="fill: #ffffff; opacity: 0.8; stroke: #cccccc; stroke-linejoin: miter"/>
    </g>
    <g id="line2d_33">
     <path d="M 99 64.938437 
L 109 64.938437 
L 119 64.938437 
" style="fill: none; stroke: #1f77b4; stroke-width: 1.5; stroke-linecap: square"/>
    </g>
    <g id="text_14">
     <!-- H01 -->
     <g transform="translate(127 68.438437) scale(0.1 -0.1)">
      <defs>
       <path id="DejaVuSans-48" d="M 628 4666 
L 1259 4666 
L 1259 2753 
L 3553 2753 
L 3553 4666 
L 4184 4666 
L 4184 0 
L 3553 0 
L 3553 2222 
L 1259 2222 
L 1259 0 
L 628 0 
L 628 4666 
z
" transform="scale(0.015625)"/>
      </defs>
      <use xlink:href="#DejaVuSans-48"/>
      <use xlink:href="#DejaVuSans-30" transform="translate(75.195312 0)"/>
      <use xlink:href="#DejaVuSans-31" transform="translate(138.818359 0)"/>
     </g>
    </g>
    <g id="line2d_34">
     <path d="M 99 79.616562 
L 109 79.616562 
L 119 79.616562 
" style="fill: none; stroke: #ff7f0e; stroke-width: 1.5; stroke-linecap: square"/>
    </g>
    <g id="text_15">
     <!-- H02 -->
     <g transform="translate(127 83.116562) scale(0.1 -0.1)">
      <use xlink:href="#DejaVuSans-48"/>
      <use xlink:href="#DejaVuSans-30" transform="translate(75.195312 0)"/>
      <use xlink:href="#DejaVuSans-32" transform="translate(138.818359 0)"/>
     </g>
    </g>
    <g id="line2d_35">
     <path d="M 99 94.294688 
L 109 94.294688 
L 119 94.294688 
" style="fill: none; stroke: #2ca02c; stroke-width: 1.5; stroke-linecap: square"/>
    </g>
    <g id="text_16">
     <!-- H03 -->
     <g transform="translate(127 97.794688) scale(0.1 -0.1)">
      <defs>
       <path id="DejaVuSans-33" d="M 2597 2516 
Q 3050 2419 3304 2112 
Q 3559 1806 3559 1356 
Q 3559 666 3084 287 
Q 2609 -91 1734 -91 
Q 1441 -91 1130 -33 
Q 819 25 488 141 
L 488 750 
Q 750 597 1062 519 
Q 1375 441 1716 441 
Q 2309 441 2620 675 
Q 2931 909 2931 1356 
Q 2931 1769 2642 2001 
Q 2353 2234 1838 2234 
L 1294 2234 
L 1294 2753 
L 1863 2753 
Q 2328 2753 2575 2939 
Q 2822 3125 2822 3475 
Q 2822 3834 2567 4026 
Q 2313 4219 1838 4219 
Q 1578 4219 1281 4162 
Q 984 4106 628 3988 
L 628 4550 
Q 988 4650 1302 4700 
Q 1616 4750 1894 4750 
Q 2613 4750 3031 4423 
Q 3450 4097 3450 3541 
Q 3450 3153 3228 2886 
Q 3006 2619 2597 2516 
z
" transform="scale(0.015625)"/>
      </defs>
      <use xlink:href="#DejaVuSans-48"/>
      <use xlink:href="#DejaVuSans-30" transform="translate(75.195312 0)"/>
      <use xlink:href="#DejaVuSans-33" transform="translate(138.818359 0)"/>
     </g>
    </g>
    <g id="line2d_36">
     <path d="M 99 108.972812 
L 109 108.972812 
L 119 108.972812 
" style="fill: none; stroke: #d62728; stroke-width: 1.5; stroke-linecap: square"/>
    </g>
    <g id="text_17">
     <!-- H04 -->
     <g transform="translate(127 112.472812) scale(0.1 -0.1)">
      <use xlink:href="#DejaVuSans-48"/>
      <use xlink:href="#DejaVuSans-30" transform="translate(75.195312 0)"/>
      <use xlink:href="#DejaVuSans-34" transform="translate(138.818359 0)"/>
     </g>
    </g>
    <g id="line2d_37">
     <path d="M 99 123.650937 
L 109 123.650937 
L 119 123.650937 
" style="fill: none; stroke: #9467bd; stroke-width: 1.5; stroke-linecap: square"/>
    </g>
    <g id="text_18">
     <!-- H05 -->
     <g transform="translate(127 127.150937) scale(0.1 -0.1)">
      <use xlink:href="#DejaVuSans-48"/>
      <use xlink:href="#DejaVuSans-30" transform="translate(75.195312 0)"/>
      <use xlink:href="#DejaVuSans-35" transform="translate(138.818359 0)"/>
     </g>
    </g>
    <g id="line2d_38">
     <path d="M 99 138.329062 
L 109 138.329062 
L 119 138.329062 
" style="fill: none; stroke: #8c564b; stroke-width: 1.5; stroke-linecap: square"/>
    </g>
    <g id="text_19">
     <!-- H06 -->
     <g transform="translate(127 141.829062) scale(0.1 -0.1)">
      <use xlink:href="#DejaVuSans-48"/>
      <use xlink:href="#DejaVuSans-30" transform="translate(75.195312 0)"/>
      <use xlink:href="#DejaVuSans-36" transform="translate(138.818359 0)"/>
     </g>
    </g>
    <g id="line2d_39">
     <path d="M 99 153.007187 
L 109 153.007187 
L 119 153.007187 
" style="fill: none; stroke: #e377c2; stroke-width: 1.5; stroke-linecap: square"/>
    </g>
    <g id="text_20">
     <!-- H07 -->
     <g transform="translate(127 156.507187) scale(0.1 -0.1)">
      <use xlink:href="#DejaVuSans-48"/>
      <use xlink:href="#DejaVuSans-30" transform="translate(75.195312 0)"/>
      <use xlink:href="#DejaVuSans-37" transform="translate(138.818359 0)"/>
     </g>
    </g>
    <g id="line2d_40">
     <path d="M 99 167.685312 
L 109 167.685312 
L 119 167.685312 
" style="fill: none; stroke: #7f7f7f; stroke-width: 1.5; stroke-linecap: square"/>
    </g>
    <g id="text_21">
     <!-- H08 -->
     <g transform="translate(127 171.185312) scale(0.1 -0.1)">
      <use xlink:href="#DejaVuSans-48"/>
      <use xlink:href="#DejaVuSans-30" transform="translate(75.195312 0)"/>
      <use xlink:href="#DejaVuSans-38" transform="translate(138.818359 0)"/>
     </g>
    </g>
    <g id="line2d_41">
     <path d="M 99 182.363437 
L 109 182.363437 
L 119 182.363437 
" style="fill: none; stroke: #bcbd22; stroke-width: 1.5; stroke-linecap: square"/>
    </g>
    <g id="text_22">
     <!-- H09 -->
     <g transform="translate(127 185.863437) scale(0.1 -0.1)">
      <defs>
       <path id="DejaVuSans-39" d="M 703 97 
L 703 672 
Q 941 559 1184 500 
Q 1428 441 1663 441 
Q 2288 441 2617 861 
Q 2947 1281 2994 2138 
Q 2813 1869 2534 1725 
Q 2256 1581 1919 1581 
Q 1219 1581 811 2004 
Q 403 2428 403 3163 
Q 403 3881 828 4315 
Q 1253 4750 1959 4750 
Q 2769 4750 3195 4129 
Q 3622 3509 3622 2328 
Q 3622 1225 3098 567 
Q 2575 -91 1691 -91 
Q 1453 -91 1209 -44 
Q 966 3 703 97 
z
M 1959 2075 
Q 2384 2075 2632 2365 
Q 2881 2656 2881 3163 
Q 2881 3666 2632 3958 
Q 2384 4250 1959 4250 
Q 1534 4250 1286 3958 
Q 1038 3666 1038 3163 
Q 1038 2656 1286 2365 
Q 1534 2075 1959 2075 
z
" transform="scale(0.015625)"/>
      </defs>
      <use xlink:href="#DejaVuSans-48"/>
      <use xlink:href="#DejaVuSans-30" transform="translate(75.195312 0)"/>
      <use xlink:href="#DejaVuSans-39" transform="translate(138.818359 0)"/>
     </g>
    </g>
    <g id="line2d_42">
     <path d="M 99 197.041562 
L 109 197.041562 
L 119 197.041562 
" style="fill: none; stroke: #17becf; stroke-width: 1.5; stroke-linecap: square"/>
    </g>
    <g id="text_23">
     <!-- H10 -->
     <g transform="translate(127 200.541562) scale(0.1 -0.1)">
      <use xlink:href="#DejaVuSans-48"/>
      <use xlink:href="#DejaVuSans-31" transform="translate(75.195312 0)"/>
      <use xlink:href="#DejaVuSans-30" transform="translate(138.818359 0)"/>
     </g>
    </g>
    <g id="line2d_43">
     <path d="M 99 211.719687 
L 109 211.719687 
L 119 211.719687 
" style="fill: none; stroke: #1f77b4; stroke-width: 1.5; stroke-linecap: square"/>
    </g>
    <g id="text_24">
     <!-- H11 -->
     <g transform="translate(127 215.219687) scale(0.1 -0.1)">
      <use xlink:href="#DejaVuSans-48"/>
      <use xlink:href="#DejaVuSans-31" transform="translate(75.195312 0)"/>
      <use xlink:href="#DejaVuSans-31" transform="translate(138.818359 0)"/>
     </g>
    </g>
    <g id="line2d_44">
     <path d="M 99 226.397812 
L 109 226.397812 
L 119 226.397812 
" style="fill: none; stroke: #ff7f0e; stroke-width: 1.5; stroke-linecap: square"/>
    </g>
    <g id="text_25">
     <!-- H12 -->
     <g transform="translate(127 229.897812) scale(0.1 -0.1)">
      <use xlink:href="#DejaVuSans-48"/>
      <use xlink:href="#DejaVuSans-31" transform="translate(75.195312 0)"/>
      <use xlink:href="#DejaVuSans-32" transform="translate(138.818359 0)"/>
     </g>
    </g>
   </g>
  </g>
 </g>
 <defs>
  <clipPath id="pb47b2e871b">
   <rect x="90" y="51.84" width="558" height="332.64"/>
  </clipPath>
 </defs>
</svg>
