<?xml version="1.0" encoding="utf-8" standalone="no"?>
<!DOCTYPE svg PUBLIC "-//W3C//DTD SVG 1.1//EN"
  "http://www.w3.org/Graphics/SVG/1.1/DTD/svg11.dtd">
<svg xmlns:xlink="http://www.w3.org/1999/xlink" width="720pt" height="432pt" viewBox="0 0 720 432" xmlns="http://www.w3.org/2000/svg" version="1.1">
 <metadata>
  <rdf:RDF xmlns:dc="http://purl.org/dc/elements/1.1/" xmlns:cc="http://creativecommons.org/ns#" xmlns:rdf="http://www.w3.org/1999/02/22-rdf-syntax-ns#">
   <cc:Work>
    <dc:type rdf:resource="http://purl.org/dc/dcmitype/StillImage"/>
    <dc:date>2025-01-14T17:22:56.788432</dc:date>
    <dc:format>image/svg+xml</dc:format>
    <dc:creator>
     <cc:Agent>
      <dc:title>Matplotlib v3.10.0, https://matplotlib.org/</dc:title>
     </cc:Agent>
    </dc:creator>
   </cc:Work>
  </rdf:RDF>
 </metadata>
 <defs>
  <style type="text/css">*{stroke-linejoin: round; stroke-linecap: butt}</style>
 </defs>
 <g id="figure_1">
  <g id="patch_1">
   <path d="M 0 432 
L 720 432 
L 720 0 
L 0 0 
z
" style="fill: #ffffff"/>
  </g>
  <g id="axes_1">
   <g id="patch_2">
    <path d="M 90 384.48 
L 648 384.48 
L 648 51.84 
L 90 51.84 
z
" style="fill: #ffffff"/>
   </g>
   <g id="matplotlib.axis_1">
    <g id="xtick_1">
     <g id="line2d_1">
      <path d="M 108.718142 384.48 
L 108.718142 51.84 
" clip-path="url(#paa5bf834cd)" style="fill: none; stroke: #b0b0b0; stroke-width: 0.8; stroke-linecap: square"/>
     </g>
     <g id="line2d_2">
      <defs>
       <path id="m2ad32b2dff" d="M 0 0 
L 0 3.5 
" style="stroke: #000000; stroke-width: 0.8"/>
      </defs>
      <g>
       <use xlink:href="#m2ad32b2dff" x="108.718142" y="384.48" style="stroke: #000000; stroke-width: 0.8"/>
      </g>
     </g>
     <g id="text_1">
      <!-- 14 13:30 -->
      <g transform="translate(86.357205 399.078438) scale(0.1 -0.1)">
       <defs>
        <path id="DejaVuSans-31" d="M 794 531 
L 1825 531 
L 1825 4091 
L 703 3866 
L 703 4441 
L 1819 4666 
L 2450 4666 
L 2450 531 
L 3481 531 
L 3481 0 
L 794 0 
L 794 531 
z
" transform="scale(0.015625)"/>
        <path id="DejaVuSans-34" d="M 2419 4116 
L 825 1625 
L 2419 1625 
L 2419 4116 
z
M 2253 4666 
L 3047 4666 
L 3047 1625 
L 3713 1625 
L 3713 1100 
L 3047 1100 
L 3047 0 
L 2419 0 
L 2419 1100 
L 313 1100 
L 313 1709 
L 2253 4666 
z
" transform="scale(0.015625)"/>
        <path id="DejaVuSans-20" transform="scale(0.015625)"/>
        <path id="DejaVuSans-33" d="M 2597 2516 
Q 3050 2419 3304 2112 
Q 3559 1806 3559 1356 
Q 3559 666 3084 287 
Q 2609 -91 1734 -91 
Q 1441 -91 1130 -33 
Q 819 25 488 141 
L 488 750 
Q 750 597 1062 519 
Q 1375 441 1716 441 
Q 2309 441 2620 675 
Q 2931 909 2931 1356 
Q 2931 1769 2642 2001 
Q 2353 2234 1838 2234 
L 1294 2234 
L 1294 2753 
L 1863 2753 
Q 2328 2753 2575 2939 
Q 2822 3125 2822 3475 
Q 2822 3834 2567 4026 
Q 2313 4219 1838 4219 
Q 1578 4219 1281 4162 
Q 984 4106 628 3988 
L 628 4550 
Q 988 4650 1302 4700 
Q 1616 4750 1894 4750 
Q 2613 4750 3031 4423 
Q 3450 4097 3450 3541 
Q 3450 3153 3228 2886 
Q 3006 2619 2597 2516 
z
" transform="scale(0.015625)"/>
        <path id="DejaVuSans-3a" d="M 750 794 
L 1409 794 
L 1409 0 
L 750 0 
L 750 794 
z
M 750 3309 
L 1409 3309 
L 1409 2516 
L 750 2516 
L 750 3309 
z
" transform="scale(0.015625)"/>
        <path id="DejaVuSans-30" d="M 2034 4250 
Q 1547 4250 1301 3770 
Q 1056 3291 1056 2328 
Q 1056 1369 1301 889 
Q 1547 409 2034 409 
Q 2525 409 2770 889 
Q 3016 1369 3016 2328 
Q 3016 3291 2770 3770 
Q 2525 4250 2034 4250 
z
M 2034 4750 
Q 2819 4750 3233 4129 
Q 3647 3509 3647 2328 
Q 3647 1150 3233 529 
Q 2819 -91 2034 -91 
Q 1250 -91 836 529 
Q 422 1150 422 2328 
Q 422 3509 836 4129 
Q 1250 4750 2034 4750 
z
" transform="scale(0.015625)"/>
       </defs>
       <use xlink:href="#DejaVuSans-31"/>
       <use xlink:href="#DejaVuSans-34" transform="translate(63.623047 0)"/>
       <use xlink:href="#DejaVuSans-20" transform="translate(127.246094 0)"/>
       <use xlink:href="#DejaVuSans-31" transform="translate(159.033203 0)"/>
       <use xlink:href="#DejaVuSans-33" transform="translate(222.65625 0)"/>
       <use xlink:href="#DejaVuSans-3a" transform="translate(286.279297 0)"/>
       <use xlink:href="#DejaVuSans-33" transform="translate(319.970703 0)"/>
       <use xlink:href="#DejaVuSans-30" transform="translate(383.59375 0)"/>
      </g>
     </g>
    </g>
    <g id="xtick_2">
     <g id="line2d_3">
      <path d="M 175.173085 384.48 
L 175.173085 51.84 
" clip-path="url(#paa5bf834cd)" style="fill: none; stroke: #b0b0b0; stroke-width: 0.8; stroke-linecap: square"/>
     </g>
     <g id="line2d_4">
      <g>
       <use xlink:href="#m2ad32b2dff" x="175.173085" y="384.48" style="stroke: #000000; stroke-width: 0.8"/>
      </g>
     </g>
     <g id="text_2">
      <!-- 14 14:00 -->
      <g transform="translate(152.812147 399.078438) scale(0.1 -0.1)">
       <use xlink:href="#DejaVuSans-31"/>
       <use xlink:href="#DejaVuSans-34" transform="translate(63.623047 0)"/>
       <use xlink:href="#DejaVuSans-20" transform="translate(127.246094 0)"/>
       <use xlink:href="#DejaVuSans-31" transform="translate(159.033203 0)"/>
       <use xlink:href="#DejaVuSans-34" transform="translate(222.65625 0)"/>
       <use xlink:href="#DejaVuSans-3a" transform="translate(286.279297 0)"/>
       <use xlink:href="#DejaVuSans-30" transform="translate(319.970703 0)"/>
       <use xlink:href="#DejaVuSans-30" transform="translate(383.59375 0)"/>
      </g>
     </g>
    </g>
    <g id="xtick_3">
     <g id="line2d_5">
      <path d="M 241.628027 384.48 
L 241.628027 51.84 
" clip-path="url(#paa5bf834cd)" style="fill: none; stroke: #b0b0b0; stroke-width: 0.8; stroke-linecap: square"/>
     </g>
     <g id="line2d_6">
      <g>
       <use xlink:href="#m2ad32b2dff" x="241.628027" y="384.48" style="stroke: #000000; stroke-width: 0.8"/>
      </g>
     </g>
     <g id="text_3">
      <!-- 14 14:30 -->
      <g transform="translate(219.267089 399.078438) scale(0.1 -0.1)">
       <use xlink:href="#DejaVuSans-31"/>
       <use xlink:href="#DejaVuSans-34" transform="translate(63.623047 0)"/>
       <use xlink:href="#DejaVuSans-20" transform="translate(127.246094 0)"/>
       <use xlink:href="#DejaVuSans-31" transform="translate(159.033203 0)"/>
       <use xlink:href="#DejaVuSans-34" transform="translate(222.65625 0)"/>
       <use xlink:href="#DejaVuSans-3a" transform="translate(286.279297 0)"/>
       <use xlink:href="#DejaVuSans-33" transform="translate(319.970703 0)"/>
       <use xlink:href="#DejaVuSans-30" transform="translate(383.59375 0)"/>
      </g>
     </g>
    </g>
    <g id="xtick_4">
     <g id="line2d_7">
      <path d="M 308.082969 384.48 
L 308.082969 51.84 
" clip-path="url(#paa5bf834cd)" style="fill: none; stroke: #b0b0b0; stroke-width: 0.8; stroke-linecap: square"/>
     </g>
     <g id="line2d_8">
      <g>
       <use xlink:href="#m2ad32b2dff" x="308.082969" y="384.48" style="stroke: #000000; stroke-width: 0.8"/>
      </g>
     </g>
     <g id="text_4">
      <!-- 14 15:00 -->
      <g transform="translate(285.722032 399.078438) scale(0.1 -0.1)">
       <defs>
        <path id="DejaVuSans-35" d="M 691 4666 
L 3169 4666 
L 3169 4134 
L 1269 4134 
L 1269 2991 
Q 1406 3038 1543 3061 
Q 1681 3084 1819 3084 
Q 2600 3084 3056 2656 
Q 3513 2228 3513 1497 
Q 3513 744 3044 326 
Q 2575 -91 1722 -91 
Q 1428 -91 1123 -41 
Q 819 9 494 109 
L 494 744 
Q 775 591 1075 516 
Q 1375 441 1709 441 
Q 2250 441 2565 725 
Q 2881 1009 2881 1497 
Q 2881 1984 2565 2268 
Q 2250 2553 1709 2553 
Q 1456 2553 1204 2497 
Q 953 2441 691 2322 
L 691 4666 
z
" transform="scale(0.015625)"/>
       </defs>
       <use xlink:href="#DejaVuSans-31"/>
       <use xlink:href="#DejaVuSans-34" transform="translate(63.623047 0)"/>
       <use xlink:href="#DejaVuSans-20" transform="translate(127.246094 0)"/>
       <use xlink:href="#DejaVuSans-31" transform="translate(159.033203 0)"/>
       <use xlink:href="#DejaVuSans-35" transform="translate(222.65625 0)"/>
       <use xlink:href="#DejaVuSans-3a" transform="translate(286.279297 0)"/>
       <use xlink:href="#DejaVuSans-30" transform="translate(319.970703 0)"/>
       <use xlink:href="#DejaVuSans-30" transform="translate(383.59375 0)"/>
      </g>
     </g>
    </g>
    <g id="xtick_5">
     <g id="line2d_9">
      <path d="M 374.537912 384.48 
L 374.537912 51.84 
" clip-path="url(#paa5bf834cd)" style="fill: none; stroke: #b0b0b0; stroke-width: 0.8; stroke-linecap: square"/>
     </g>
     <g id="line2d_10">
      <g>
       <use xlink:href="#m2ad32b2dff" x="374.537912" y="384.48" style="stroke: #000000; stroke-width: 0.8"/>
      </g>
     </g>
     <g id="text_5">
      <!-- 14 15:30 -->
      <g transform="translate(352.176974 399.078438) scale(0.1 -0.1)">
       <use xlink:href="#DejaVuSans-31"/>
       <use xlink:href="#DejaVuSans-34" transform="translate(63.623047 0)"/>
       <use xlink:href="#DejaVuSans-20" transform="translate(127.246094 0)"/>
       <use xlink:href="#DejaVuSans-31" transform="translate(159.033203 0)"/>
       <use xlink:href="#DejaVuSans-35" transform="translate(222.65625 0)"/>
       <use xlink:href="#DejaVuSans-3a" transform="translate(286.279297 0)"/>
       <use xlink:href="#DejaVuSans-33" transform="translate(319.970703 0)"/>
       <use xlink:href="#DejaVuSans-30" transform="translate(383.59375 0)"/>
      </g>
     </g>
    </g>
    <g id="xtick_6">
     <g id="line2d_11">
      <path d="M 440.992854 384.48 
L 440.992854 51.84 
" clip-path="url(#paa5bf834cd)" style="fill: none; stroke: #b0b0b0; stroke-width: 0.8; stroke-linecap: square"/>
     </g>
     <g id="line2d_12">
      <g>
       <use xlink:href="#m2ad32b2dff" x="440.992854" y="384.48" style="stroke: #000000; stroke-width: 0.8"/>
      </g>
     </g>
     <g id="text_6">
      <!-- 14 16:00 -->
      <g transform="translate(418.631917 399.078438) scale(0.1 -0.1)">
       <defs>
        <path id="DejaVuSans-36" d="M 2113 2584 
Q 1688 2584 1439 2293 
Q 1191 2003 1191 1497 
Q 1191 994 1439 701 
Q 1688 409 2113 409 
Q 2538 409 2786 701 
Q 3034 994 3034 1497 
Q 3034 2003 2786 2293 
Q 2538 2584 2113 2584 
z
M 3366 4563 
L 3366 3988 
Q 3128 4100 2886 4159 
Q 2644 4219 2406 4219 
Q 1781 4219 1451 3797 
Q 1122 3375 1075 2522 
Q 1259 2794 1537 2939 
Q 1816 3084 2150 3084 
Q 2853 3084 3261 2657 
Q 3669 2231 3669 1497 
Q 3669 778 3244 343 
Q 2819 -91 2113 -91 
Q 1303 -91 875 529 
Q 447 1150 447 2328 
Q 447 3434 972 4092 
Q 1497 4750 2381 4750 
Q 2619 4750 2861 4703 
Q 3103 4656 3366 4563 
z
" transform="scale(0.015625)"/>
       </defs>
       <use xlink:href="#DejaVuSans-31"/>
       <use xlink:href="#DejaVuSans-34" transform="translate(63.623047 0)"/>
       <use xlink:href="#DejaVuSans-20" transform="translate(127.246094 0)"/>
       <use xlink:href="#DejaVuSans-31" transform="translate(159.033203 0)"/>
       <use xlink:href="#DejaVuSans-36" transform="translate(222.65625 0)"/>
       <use xlink:href="#DejaVuSans-3a" transform="translate(286.279297 0)"/>
       <use xlink:href="#DejaVuSans-30" transform="translate(319.970703 0)"/>
       <use xlink:href="#DejaVuSans-30" transform="translate(383.59375 0)"/>
      </g>
     </g>
    </g>
    <g id="xtick_7">
     <g id="line2d_13">
      <path d="M 507.447797 384.48 
L 507.447797 51.84 
" clip-path="url(#paa5bf834cd)" style="fill: none; stroke: #b0b0b0; stroke-width: 0.8; stroke-linecap: square"/>
     </g>
     <g id="line2d_14">
      <g>
       <use xlink:href="#m2ad32b2dff" x="507.447797" y="384.48" style="stroke: #000000; stroke-width: 0.8"/>
      </g>
     </g>
     <g id="text_7">
      <!-- 14 16:30 -->
      <g transform="translate(485.086859 399.078438) scale(0.1 -0.1)">
       <use xlink:href="#DejaVuSans-31"/>
       <use xlink:href="#DejaVuSans-34" transform="translate(63.623047 0)"/>
       <use xlink:href="#DejaVuSans-20" transform="translate(127.246094 0)"/>
       <use xlink:href="#DejaVuSans-31" transform="translate(159.033203 0)"/>
       <use xlink:href="#DejaVuSans-36" transform="translate(222.65625 0)"/>
       <use xlink:href="#DejaVuSans-3a" transform="translate(286.279297 0)"/>
       <use xlink:href="#DejaVuSans-33" transform="translate(319.970703 0)"/>
       <use xlink:href="#DejaVuSans-30" transform="translate(383.59375 0)"/>
      </g>
     </g>
    </g>
    <g id="xtick_8">
     <g id="line2d_15">
      <path d="M 573.902739 384.48 
L 573.902739 51.84 
" clip-path="url(#paa5bf834cd)" style="fill: none; stroke: #b0b0b0; stroke-width: 0.8; stroke-linecap: square"/>
     </g>
     <g id="line2d_16">
      <g>
       <use xlink:href="#m2ad32b2dff" x="573.902739" y="384.48" style="stroke: #000000; stroke-width: 0.8"/>
      </g>
     </g>
     <g id="text_8">
      <!-- 14 17:00 -->
      <g transform="translate(551.541802 399.078438) scale(0.1 -0.1)">
       <defs>
        <path id="DejaVuSans-37" d="M 525 4666 
L 3525 4666 
L 3525 4397 
L 1831 0 
L 1172 0 
L 2766 4134 
L 525 4134 
L 525 4666 
z
" transform="scale(0.015625)"/>
       </defs>
       <use xlink:href="#DejaVuSans-31"/>
       <use xlink:href="#DejaVuSans-34" transform="translate(63.623047 0)"/>
       <use xlink:href="#DejaVuSans-20" transform="translate(127.246094 0)"/>
       <use xlink:href="#DejaVuSans-31" transform="translate(159.033203 0)"/>
       <use xlink:href="#DejaVuSans-37" transform="translate(222.65625 0)"/>
       <use xlink:href="#DejaVuSans-3a" transform="translate(286.279297 0)"/>
       <use xlink:href="#DejaVuSans-30" transform="translate(319.970703 0)"/>
       <use xlink:href="#DejaVuSans-30" transform="translate(383.59375 0)"/>
      </g>
     </g>
    </g>
    <g id="xtick_9">
     <g id="line2d_17">
      <path d="M 640.357682 384.48 
L 640.357682 51.84 
" clip-path="url(#paa5bf834cd)" style="fill: none; stroke: #b0b0b0; stroke-width: 0.8; stroke-linecap: square"/>
     </g>
     <g id="line2d_18">
      <g>
       <use xlink:href="#m2ad32b2dff" x="640.357682" y="384.48" style="stroke: #000000; stroke-width: 0.8"/>
      </g>
     </g>
     <g id="text_9">
      <!-- 14 17:30 -->
      <g transform="translate(617.996744 399.078438) scale(0.1 -0.1)">
       <use xlink:href="#DejaVuSans-31"/>
       <use xlink:href="#DejaVuSans-34" transform="translate(63.623047 0)"/>
       <use xlink:href="#DejaVuSans-20" transform="translate(127.246094 0)"/>
       <use xlink:href="#DejaVuSans-31" transform="translate(159.033203 0)"/>
       <use xlink:href="#DejaVuSans-37" transform="translate(222.65625 0)"/>
       <use xlink:href="#DejaVuSans-3a" transform="translate(286.279297 0)"/>
       <use xlink:href="#DejaVuSans-33" transform="translate(319.970703 0)"/>
       <use xlink:href="#DejaVuSans-30" transform="translate(383.59375 0)"/>
      </g>
     </g>
    </g>
    <g id="text_10">
     <!-- Date and Time -->
     <g transform="translate(332.230469 412.756563) scale(0.1 -0.1)">
      <defs>
       <path id="DejaVuSans-44" d="M 1259 4147 
L 1259 519 
L 2022 519 
Q 2988 519 3436 956 
Q 3884 1394 3884 2338 
Q 3884 3275 3436 3711 
Q 2988 4147 2022 4147 
L 1259 4147 
z
M 628 4666 
L 1925 4666 
Q 3281 4666 3915 4102 
Q 4550 3538 4550 2338 
Q 4550 1131 3912 565 
Q 3275 0 1925 0 
L 628 0 
L 628 4666 
z
" transform="scale(0.015625)"/>
       <path id="DejaVuSans-61" d="M 2194 1759 
Q 1497 1759 1228 1600 
Q 959 1441 959 1056 
Q 959 750 1161 570 
Q 1363 391 1709 391 
Q 2188 391 2477 730 
Q 2766 1069 2766 1631 
L 2766 1759 
L 2194 1759 
z
M 3341 1997 
L 3341 0 
L 2766 0 
L 2766 531 
Q 2569 213 2275 61 
Q 1981 -91 1556 -91 
Q 1019 -91 701 211 
Q 384 513 384 1019 
Q 384 1609 779 1909 
Q 1175 2209 1959 2209 
L 2766 2209 
L 2766 2266 
Q 2766 2663 2505 2880 
Q 2244 3097 1772 3097 
Q 1472 3097 1187 3025 
Q 903 2953 641 2809 
L 641 3341 
Q 956 3463 1253 3523 
Q 1550 3584 1831 3584 
Q 2591 3584 2966 3190 
Q 3341 2797 3341 1997 
z
" transform="scale(0.015625)"/>
       <path id="DejaVuSans-74" d="M 1172 4494 
L 1172 3500 
L 2356 3500 
L 2356 3053 
L 1172 3053 
L 1172 1153 
Q 1172 725 1289 603 
Q 1406 481 1766 481 
L 2356 481 
L 2356 0 
L 1766 0 
Q 1100 0 847 248 
Q 594 497 594 1153 
L 594 3053 
L 172 3053 
L 172 3500 
L 594 3500 
L 594 4494 
L 1172 4494 
z
" transform="scale(0.015625)"/>
       <path id="DejaVuSans-65" d="M 3597 1894 
L 3597 1613 
L 953 1613 
Q 991 1019 1311 708 
Q 1631 397 2203 397 
Q 2534 397 2845 478 
Q 3156 559 3463 722 
L 3463 178 
Q 3153 47 2828 -22 
Q 2503 -91 2169 -91 
Q 1331 -91 842 396 
Q 353 884 353 1716 
Q 353 2575 817 3079 
Q 1281 3584 2069 3584 
Q 2775 3584 3186 3129 
Q 3597 2675 3597 1894 
z
M 3022 2063 
Q 3016 2534 2758 2815 
Q 2500 3097 2075 3097 
Q 1594 3097 1305 2825 
Q 1016 2553 972 2059 
L 3022 2063 
z
" transform="scale(0.015625)"/>
       <path id="DejaVuSans-6e" d="M 3513 2113 
L 3513 0 
L 2938 0 
L 2938 2094 
Q 2938 2591 2744 2837 
Q 2550 3084 2163 3084 
Q 1697 3084 1428 2787 
Q 1159 2491 1159 1978 
L 1159 0 
L 581 0 
L 581 3500 
L 1159 3500 
L 1159 2956 
Q 1366 3272 1645 3428 
Q 1925 3584 2291 3584 
Q 2894 3584 3203 3211 
Q 3513 2838 3513 2113 
z
" transform="scale(0.015625)"/>
       <path id="DejaVuSans-64" d="M 2906 2969 
L 2906 4863 
L 3481 4863 
L 3481 0 
L 2906 0 
L 2906 525 
Q 2725 213 2448 61 
Q 2172 -91 1784 -91 
Q 1150 -91 751 415 
Q 353 922 353 1747 
Q 353 2572 751 3078 
Q 1150 3584 1784 3584 
Q 2172 3584 2448 3432 
Q 2725 3281 2906 2969 
z
M 947 1747 
Q 947 1113 1208 752 
Q 1469 391 1925 391 
Q 2381 391 2643 752 
Q 2906 1113 2906 1747 
Q 2906 2381 2643 2742 
Q 2381 3103 1925 3103 
Q 1469 3103 1208 2742 
Q 947 2381 947 1747 
z
" transform="scale(0.015625)"/>
       <path id="DejaVuSans-54" d="M -19 4666 
L 3928 4666 
L 3928 4134 
L 2272 4134 
L 2272 0 
L 1638 0 
L 1638 4134 
L -19 4134 
L -19 4666 
z
" transform="scale(0.015625)"/>
       <path id="DejaVuSans-69" d="M 603 3500 
L 1178 3500 
L 1178 0 
L 603 0 
L 603 3500 
z
M 603 4863 
L 1178 4863 
L 1178 4134 
L 603 4134 
L 603 4863 
z
" transform="scale(0.015625)"/>
       <path id="DejaVuSans-6d" d="M 3328 2828 
Q 3544 3216 3844 3400 
Q 4144 3584 4550 3584 
Q 5097 3584 5394 3201 
Q 5691 2819 5691 2113 
L 5691 0 
L 5113 0 
L 5113 2094 
Q 5113 2597 4934 2840 
Q 4756 3084 4391 3084 
Q 3944 3084 3684 2787 
Q 3425 2491 3425 1978 
L 3425 0 
L 2847 0 
L 2847 2094 
Q 2847 2600 2669 2842 
Q 2491 3084 2119 3084 
Q 1678 3084 1418 2786 
Q 1159 2488 1159 1978 
L 1159 0 
L 581 0 
L 581 3500 
L 1159 3500 
L 1159 2956 
Q 1356 3278 1631 3431 
Q 1906 3584 2284 3584 
Q 2666 3584 2933 3390 
Q 3200 3197 3328 2828 
z
" transform="scale(0.015625)"/>
      </defs>
      <use xlink:href="#DejaVuSans-44"/>
      <use xlink:href="#DejaVuSans-61" transform="translate(77.001953 0)"/>
      <use xlink:href="#DejaVuSans-74" transform="translate(138.28125 0)"/>
      <use xlink:href="#DejaVuSans-65" transform="translate(177.490234 0)"/>
      <use xlink:href="#DejaVuSans-20" transform="translate(239.013672 0)"/>
      <use xlink:href="#DejaVuSans-61" transform="translate(270.800781 0)"/>
      <use xlink:href="#DejaVuSans-6e" transform="translate(332.080078 0)"/>
      <use xlink:href="#DejaVuSans-64" transform="translate(395.458984 0)"/>
      <use xlink:href="#DejaVuSans-20" transform="translate(458.935547 0)"/>
      <use xlink:href="#DejaVuSans-54" transform="translate(490.722656 0)"/>
      <use xlink:href="#DejaVuSans-69" transform="translate(548.681641 0)"/>
      <use xlink:href="#DejaVuSans-6d" transform="translate(576.464844 0)"/>
      <use xlink:href="#DejaVuSans-65" transform="translate(673.876953 0)"/>
     </g>
    </g>
   </g>
   <g id="matplotlib.axis_2">
    <g id="ytick_1">
     <g id="line2d_19">
      <path d="M 90 370.773084 
L 648 370.773084 
" clip-path="url(#paa5bf834cd)" style="fill: none; stroke: #b0b0b0; stroke-width: 0.8; stroke-linecap: square"/>
     </g>
     <g id="line2d_20">
      <defs>
       <path id="m28f95ca7d6" d="M 0 0 
L -3.5 0 
" style="stroke: #000000; stroke-width: 0.8"/>
      </defs>
      <g>
       <use xlink:href="#m28f95ca7d6" x="90" y="370.773084" style="stroke: #000000; stroke-width: 0.8"/>
      </g>
     </g>
     <g id="text_11">
      <!-- 0 -->
      <g transform="translate(76.6375 374.572303) scale(0.1 -0.1)">
       <use xlink:href="#DejaVuSans-30"/>
      </g>
     </g>
    </g>
    <g id="ytick_2">
     <g id="line2d_21">
      <path d="M 90 300.118879 
L 648 300.118879 
" clip-path="url(#paa5bf834cd)" style="fill: none; stroke: #b0b0b0; stroke-width: 0.8; stroke-linecap: square"/>
     </g>
     <g id="line2d_22">
      <g>
       <use xlink:href="#m28f95ca7d6" x="90" y="300.118879" style="stroke: #000000; stroke-width: 0.8"/>
      </g>
     </g>
     <g id="text_12">
      <!-- 50 -->
      <g transform="translate(70.275 303.918097) scale(0.1 -0.1)">
       <use xlink:href="#DejaVuSans-35"/>
       <use xlink:href="#DejaVuSans-30" transform="translate(63.623047 0)"/>
      </g>
     </g>
    </g>
    <g id="ytick_3">
     <g id="line2d_23">
      <path d="M 90 229.464673 
L 648 229.464673 
" clip-path="url(#paa5bf834cd)" style="fill: none; stroke: #b0b0b0; stroke-width: 0.8; stroke-linecap: square"/>
     </g>
     <g id="line2d_24">
      <g>
       <use xlink:href="#m28f95ca7d6" x="90" y="229.464673" style="stroke: #000000; stroke-width: 0.8"/>
      </g>
     </g>
     <g id="text_13">
      <!-- 100 -->
      <g transform="translate(63.9125 233.263892) scale(0.1 -0.1)">
       <use xlink:href="#DejaVuSans-31"/>
       <use xlink:href="#DejaVuSans-30" transform="translate(63.623047 0)"/>
       <use xlink:href="#DejaVuSans-30" transform="translate(127.246094 0)"/>
      </g>
     </g>
    </g>
    <g id="ytick_4">
     <g id="line2d_25">
      <path d="M 90 158.810467 
L 648 158.810467 
" clip-path="url(#paa5bf834cd)" style="fill: none; stroke: #b0b0b0; stroke-width: 0.8; stroke-linecap: square"/>
     </g>
     <g id="line2d_26">
      <g>
       <use xlink:href="#m28f95ca7d6" x="90" y="158.810467" style="stroke: #000000; stroke-width: 0.8"/>
      </g>
     </g>
     <g id="text_14">
      <!-- 150 -->
      <g transform="translate(63.9125 162.609686) scale(0.1 -0.1)">
       <use xlink:href="#DejaVuSans-31"/>
       <use xlink:href="#DejaVuSans-35" transform="translate(63.623047 0)"/>
       <use xlink:href="#DejaVuSans-30" transform="translate(127.246094 0)"/>
      </g>
     </g>
    </g>
    <g id="ytick_5">
     <g id="line2d_27">
      <path d="M 90 88.156262 
L 648 88.156262 
" clip-path="url(#paa5bf834cd)" style="fill: none; stroke: #b0b0b0; stroke-width: 0.8; stroke-linecap: square"/>
     </g>
     <g id="line2d_28">
      <g>
       <use xlink:href="#m28f95ca7d6" x="90" y="88.156262" style="stroke: #000000; stroke-width: 0.8"/>
      </g>
     </g>
     <g id="text_15">
      <!-- 200 -->
      <g transform="translate(63.9125 91.95548) scale(0.1 -0.1)">
       <defs>
        <path id="DejaVuSans-32" d="M 1228 531 
L 3431 531 
L 3431 0 
L 469 0 
L 469 531 
Q 828 903 1448 1529 
Q 2069 2156 2228 2338 
Q 2531 2678 2651 2914 
Q 2772 3150 2772 3378 
Q 2772 3750 2511 3984 
Q 2250 4219 1831 4219 
Q 1534 4219 1204 4116 
Q 875 4013 500 3803 
L 500 4441 
Q 881 4594 1212 4672 
Q 1544 4750 1819 4750 
Q 2544 4750 2975 4387 
Q 3406 4025 3406 3419 
Q 3406 3131 3298 2873 
Q 3191 2616 2906 2266 
Q 2828 2175 2409 1742 
Q 1991 1309 1228 531 
z
" transform="scale(0.015625)"/>
       </defs>
       <use xlink:href="#DejaVuSans-32"/>
       <use xlink:href="#DejaVuSans-30" transform="translate(63.623047 0)"/>
       <use xlink:href="#DejaVuSans-30" transform="translate(127.246094 0)"/>
      </g>
     </g>
    </g>
    <g id="text_16">
     <!-- Votes -->
     <g transform="translate(57.832812 231.893594) rotate(-90) scale(0.1 -0.1)">
      <defs>
       <path id="DejaVuSans-56" d="M 1831 0 
L 50 4666 
L 709 4666 
L 2188 738 
L 3669 4666 
L 4325 4666 
L 2547 0 
L 1831 0 
z
" transform="scale(0.015625)"/>
       <path id="DejaVuSans-6f" d="M 1959 3097 
Q 1497 3097 1228 2736 
Q 959 2375 959 1747 
Q 959 1119 1226 758 
Q 1494 397 1959 397 
Q 2419 397 2687 759 
Q 2956 1122 2956 1747 
Q 2956 2369 2687 2733 
Q 2419 3097 1959 3097 
z
M 1959 3584 
Q 2709 3584 3137 3096 
Q 3566 2609 3566 1747 
Q 3566 888 3137 398 
Q 2709 -91 1959 -91 
Q 1206 -91 779 398 
Q 353 888 353 1747 
Q 353 2609 779 3096 
Q 1206 3584 1959 3584 
z
" transform="scale(0.015625)"/>
       <path id="DejaVuSans-73" d="M 2834 3397 
L 2834 2853 
Q 2591 2978 2328 3040 
Q 2066 3103 1784 3103 
Q 1356 3103 1142 2972 
Q 928 2841 928 2578 
Q 928 2378 1081 2264 
Q 1234 2150 1697 2047 
L 1894 2003 
Q 2506 1872 2764 1633 
Q 3022 1394 3022 966 
Q 3022 478 2636 193 
Q 2250 -91 1575 -91 
Q 1294 -91 989 -36 
Q 684 19 347 128 
L 347 722 
Q 666 556 975 473 
Q 1284 391 1588 391 
Q 1994 391 2212 530 
Q 2431 669 2431 922 
Q 2431 1156 2273 1281 
Q 2116 1406 1581 1522 
L 1381 1569 
Q 847 1681 609 1914 
Q 372 2147 372 2553 
Q 372 3047 722 3315 
Q 1072 3584 1716 3584 
Q 2034 3584 2315 3537 
Q 2597 3491 2834 3397 
z
" transform="scale(0.015625)"/>
      </defs>
      <use xlink:href="#DejaVuSans-56"/>
      <use xlink:href="#DejaVuSans-6f" transform="translate(60.658203 0)"/>
      <use xlink:href="#DejaVuSans-74" transform="translate(121.839844 0)"/>
      <use xlink:href="#DejaVuSans-65" transform="translate(161.048828 0)"/>
      <use xlink:href="#DejaVuSans-73" transform="translate(222.572266 0)"/>
     </g>
    </g>
   </g>
   <g id="line2d_29">
    <path d="M 115.363636 345.33757 
L 137.515284 345.33757 
L 139.730449 343.924486 
L 161.882096 343.924486 
L 164.097261 341.098318 
L 184.033744 341.098318 
L 186.248908 339.685234 
L 197.324732 339.685234 
L 199.539897 338.27215 
L 208.400556 338.27215 
L 210.615721 336.859065 
L 217.261215 336.859065 
L 219.47638 335.445981 
L 250.488686 335.445981 
L 252.703851 334.032897 
L 277.070663 334.032897 
L 281.500992 331.206729 
L 285.931322 331.206729 
L 288.146487 329.793645 
L 308.082969 329.793645 
L 312.513299 326.967477 
L 339.095276 326.967477 
L 341.310441 325.554393 
L 347.955935 325.554393 
L 350.1711 324.141308 
L 352.386264 324.141308 
L 354.601429 322.728224 
L 414.410877 322.728224 
L 416.626042 321.31514 
L 443.208019 321.31514 
L 445.423184 319.902056 
L 460.929337 319.902056 
L 463.144502 318.488972 
L 465.359667 315.662804 
L 467.574831 315.662804 
L 472.005161 312.836636 
L 507.447797 312.836636 
L 509.662961 311.423551 
L 522.95395 311.423551 
L 525.169115 310.010467 
L 534.029774 310.010467 
L 536.244938 308.597383 
L 558.396586 308.597383 
L 560.611751 307.184299 
L 565.04208 307.184299 
L 567.257245 305.771215 
L 573.902739 305.771215 
L 576.117904 304.358131 
L 593.839222 304.358131 
L 596.054387 302.945047 
L 598.269551 302.945047 
L 600.484716 301.531963 
L 622.636364 301.531963 
L 622.636364 301.531963 
" clip-path="url(#paa5bf834cd)" style="fill: none; stroke: #1f77b4; stroke-width: 1.5; stroke-linecap: square"/>
   </g>
   <g id="line2d_30">
    <path d="M 115.363636 254.900187 
L 117.578801 253.487103 
L 124.224295 253.487103 
L 126.43946 252.074019 
L 128.654625 252.074019 
L 130.86979 250.660935 
L 133.084954 250.660935 
L 137.515284 247.834766 
L 139.730449 245.008598 
L 141.945613 245.008598 
L 146.375943 242.18243 
L 148.591108 242.18243 
L 150.806272 236.530093 
L 153.021437 233.703925 
L 155.236602 228.051589 
L 157.451767 223.812336 
L 164.097261 223.812336 
L 166.312426 219.573084 
L 168.52759 216.746916 
L 172.95792 213.920748 
L 175.173085 211.094579 
L 179.603414 208.268411 
L 181.818579 205.442243 
L 188.464073 205.442243 
L 190.679238 198.376822 
L 192.894403 195.550654 
L 195.109567 194.13757 
L 197.324732 191.311402 
L 199.539897 189.898318 
L 201.755062 189.898318 
L 203.970226 185.659065 
L 206.185391 185.659065 
L 208.400556 182.832897 
L 210.615721 181.419813 
L 212.830885 181.419813 
L 215.04605 180.006729 
L 219.47638 180.006729 
L 221.691544 178.593645 
L 226.121874 178.593645 
L 228.337039 175.767477 
L 230.552203 175.767477 
L 232.767368 174.354393 
L 241.628027 174.354393 
L 243.843192 172.941308 
L 250.488686 172.941308 
L 252.703851 171.528224 
L 254.919015 171.528224 
L 257.13418 168.702056 
L 259.349345 168.702056 
L 261.56451 165.875888 
L 263.779674 164.462804 
L 270.425169 164.462804 
L 272.640333 161.636636 
L 274.855498 160.223551 
L 277.070663 155.984299 
L 281.500992 153.158131 
L 299.22231 153.158131 
L 301.437475 148.918879 
L 303.65264 148.918879 
L 308.082969 146.09271 
L 310.298134 146.09271 
L 316.943628 141.853458 
L 321.373958 141.853458 
L 323.589123 140.440374 
L 328.019452 140.440374 
L 334.664946 136.201121 
L 339.095276 136.201121 
L 341.310441 134.788037 
L 352.386264 134.788037 
L 354.601429 133.374953 
L 359.031759 133.374953 
L 361.246923 131.961869 
L 387.8289 131.961869 
L 390.044065 129.135701 
L 394.474395 129.135701 
L 398.904724 126.309533 
L 401.119889 126.309533 
L 403.335054 124.896449 
L 416.626042 124.896449 
L 423.271536 120.657196 
L 425.486701 120.657196 
L 427.701866 119.244112 
L 429.917031 116.417944 
L 432.132195 116.417944 
L 434.34736 115.00486 
L 436.562525 115.00486 
L 445.423184 109.352523 
L 449.853513 109.352523 
L 452.068678 106.526355 
L 458.714172 106.526355 
L 460.929337 105.113271 
L 467.574831 105.113271 
L 469.789996 103.700187 
L 472.005161 103.700187 
L 474.220326 99.460935 
L 480.86582 99.460935 
L 483.080985 98.04785 
L 485.296149 95.221682 
L 489.726479 95.221682 
L 491.941644 93.808598 
L 496.371973 93.808598 
L 498.587138 92.395514 
L 500.802303 92.395514 
L 511.878126 85.330093 
L 516.308456 85.330093 
L 522.95395 81.090841 
L 529.599444 81.090841 
L 531.814609 78.264673 
L 534.029774 78.264673 
L 536.244938 76.851589 
L 542.890433 76.851589 
L 545.105597 75.438505 
L 565.04208 75.438505 
L 567.257245 74.025421 
L 582.763398 74.025421 
L 584.978563 72.612336 
L 589.408892 72.612336 
L 593.839222 69.786168 
L 604.915046 69.786168 
L 607.13021 68.373084 
L 618.206034 68.373084 
L 620.421199 66.96 
L 622.636364 66.96 
L 622.636364 66.96 
" clip-path="url(#paa5bf834cd)" style="fill: none; stroke: #ff7f0e; stroke-width: 1.5; stroke-linecap: square"/>
   </g>
   <g id="line2d_31">
    <path d="M 115.363636 326.967477 
L 124.224295 326.967477 
L 126.43946 324.141308 
L 130.86979 324.141308 
L 133.084954 322.728224 
L 135.300119 319.902056 
L 137.515284 318.488972 
L 139.730449 314.24972 
L 141.945613 311.423551 
L 144.160778 310.010467 
L 146.375943 310.010467 
L 148.591108 307.184299 
L 150.806272 302.945047 
L 159.666931 302.945047 
L 161.882096 301.531963 
L 164.097261 301.531963 
L 166.312426 298.705794 
L 172.95792 298.705794 
L 177.388249 295.879626 
L 186.248908 295.879626 
L 188.464073 294.466542 
L 197.324732 294.466542 
L 203.970226 290.22729 
L 215.04605 290.22729 
L 217.261215 288.814206 
L 223.906709 288.814206 
L 226.121874 287.401121 
L 230.552203 287.401121 
L 232.767368 284.574953 
L 250.488686 284.574953 
L 252.703851 283.161869 
L 254.919015 280.335701 
L 257.13418 278.922617 
L 259.349345 278.922617 
L 261.56451 277.509533 
L 265.994839 277.509533 
L 268.210004 276.096449 
L 272.640333 276.096449 
L 274.855498 274.683364 
L 288.146487 274.683364 
L 290.361651 273.27028 
L 292.576816 273.27028 
L 294.791981 271.857196 
L 297.007146 271.857196 
L 299.22231 270.444112 
L 305.867805 270.444112 
L 308.082969 269.031028 
L 310.298134 266.20486 
L 321.373958 266.20486 
L 328.019452 261.965607 
L 334.664946 261.965607 
L 336.880111 260.552523 
L 345.74077 260.552523 
L 347.955935 259.139439 
L 350.1711 259.139439 
L 352.386264 257.726355 
L 356.816594 257.726355 
L 359.031759 256.313271 
L 365.677253 256.313271 
L 370.107582 253.487103 
L 372.322747 253.487103 
L 374.537912 252.074019 
L 392.25923 252.074019 
L 394.474395 249.24785 
L 396.689559 247.834766 
L 414.410877 247.834766 
L 416.626042 246.421682 
L 423.271536 246.421682 
L 425.486701 245.008598 
L 432.132195 245.008598 
L 434.34736 243.595514 
L 456.499008 243.595514 
L 458.714172 242.18243 
L 467.574831 242.18243 
L 469.789996 240.769346 
L 483.080985 240.769346 
L 485.296149 239.356262 
L 489.726479 239.356262 
L 491.941644 237.943178 
L 500.802303 237.943178 
L 505.232632 235.117009 
L 547.320762 235.117009 
L 549.535927 233.703925 
L 551.751092 233.703925 
L 553.966256 232.290841 
L 560.611751 232.290841 
L 562.826915 230.877757 
L 573.902739 230.877757 
L 576.117904 229.464673 
L 580.548233 229.464673 
L 582.763398 228.051589 
L 596.054387 228.051589 
L 598.269551 229.464673 
L 600.484716 228.051589 
L 615.990869 228.051589 
L 618.206034 226.638505 
L 622.636364 226.638505 
L 622.636364 226.638505 
" clip-path="url(#paa5bf834cd)" style="fill: none; stroke: #2ca02c; stroke-width: 1.5; stroke-linecap: square"/>
   </g>
   <g id="line2d_32">
    <path d="M 115.363636 369.36 
L 622.636364 369.36 
L 622.636364 369.36 
" clip-path="url(#paa5bf834cd)" style="fill: none; stroke: #d62728; stroke-width: 1.5; stroke-linecap: square"/>
   </g>
   <g id="line2d_33">
    <path d="M 115.363636 338.27215 
L 122.009131 338.27215 
L 124.224295 336.859065 
L 137.515284 336.859065 
L 139.730449 335.445981 
L 153.021437 335.445981 
L 155.236602 334.032897 
L 203.970226 334.032897 
L 206.185391 332.619813 
L 285.931322 332.619813 
L 290.361651 329.793645 
L 308.082969 329.793645 
L 310.298134 328.380561 
L 319.158793 328.380561 
L 321.373958 326.967477 
L 325.804287 326.967477 
L 328.019452 325.554393 
L 385.613736 325.554393 
L 387.8289 324.141308 
L 478.650655 324.141308 
L 480.86582 322.728224 
L 622.636364 322.728224 
L 622.636364 322.728224 
" clip-path="url(#paa5bf834cd)" style="fill: none; stroke: #9467bd; stroke-width: 1.5; stroke-linecap: square"/>
   </g>
   <g id="line2d_34">
    <path d="M 115.363636 349.576822 
L 117.578801 349.576822 
L 119.793966 348.163738 
L 150.806272 348.163738 
L 153.021437 346.750654 
L 179.603414 346.750654 
L 181.818579 345.33757 
L 215.04605 345.33757 
L 219.47638 342.511402 
L 243.843192 342.511402 
L 246.058356 341.098318 
L 312.513299 341.098318 
L 314.728464 339.685234 
L 334.664946 339.685234 
L 336.880111 338.27215 
L 374.537912 338.27215 
L 376.753077 336.859065 
L 412.195713 336.859065 
L 414.410877 335.445981 
L 423.271536 335.445981 
L 425.486701 334.032897 
L 445.423184 334.032897 
L 447.638349 332.619813 
L 500.802303 332.619813 
L 503.017467 331.206729 
L 516.308456 331.206729 
L 518.52362 329.793645 
L 531.814609 329.793645 
L 534.029774 328.380561 
L 542.890433 328.380561 
L 545.105597 326.967477 
L 622.636364 326.967477 
L 622.636364 326.967477 
" clip-path="url(#paa5bf834cd)" style="fill: none; stroke: #8c564b; stroke-width: 1.5; stroke-linecap: square"/>
   </g>
   <g id="line2d_35">
    <path d="M 115.363636 245.008598 
L 124.224295 245.008598 
L 126.43946 243.595514 
L 135.300119 243.595514 
L 139.730449 240.769346 
L 141.945613 240.769346 
L 144.160778 239.356262 
L 146.375943 239.356262 
L 148.591108 237.943178 
L 153.021437 237.943178 
L 155.236602 236.530093 
L 161.882096 236.530093 
L 164.097261 235.117009 
L 168.52759 235.117009 
L 170.742755 233.703925 
L 172.95792 233.703925 
L 175.173085 232.290841 
L 179.603414 232.290841 
L 184.033744 229.464673 
L 192.894403 229.464673 
L 195.109567 228.051589 
L 201.755062 228.051589 
L 206.185391 225.225421 
L 210.615721 225.225421 
L 212.830885 223.812336 
L 217.261215 223.812336 
L 219.47638 222.399252 
L 221.691544 219.573084 
L 223.906709 215.333832 
L 228.337039 215.333832 
L 230.552203 213.920748 
L 241.628027 213.920748 
L 246.058356 211.094579 
L 248.273521 208.268411 
L 250.488686 206.855327 
L 252.703851 206.855327 
L 254.919015 204.029159 
L 263.779674 204.029159 
L 265.994839 202.616075 
L 268.210004 202.616075 
L 272.640333 199.789907 
L 274.855498 199.789907 
L 277.070663 198.376822 
L 279.285828 198.376822 
L 283.716157 195.550654 
L 288.146487 195.550654 
L 290.361651 192.724486 
L 299.22231 192.724486 
L 303.65264 189.898318 
L 308.082969 189.898318 
L 310.298134 188.485234 
L 312.513299 185.659065 
L 319.158793 185.659065 
L 321.373958 184.245981 
L 323.589123 184.245981 
L 325.804287 181.419813 
L 328.019452 181.419813 
L 330.234617 180.006729 
L 332.449782 180.006729 
L 334.664946 178.593645 
L 343.525605 178.593645 
L 347.955935 175.767477 
L 350.1711 175.767477 
L 352.386264 172.941308 
L 354.601429 172.941308 
L 356.816594 171.528224 
L 359.031759 171.528224 
L 361.246923 170.11514 
L 367.892418 170.11514 
L 370.107582 168.702056 
L 372.322747 168.702056 
L 381.183406 163.04972 
L 383.398571 160.223551 
L 387.8289 160.223551 
L 392.25923 154.571215 
L 396.689559 154.571215 
L 401.119889 151.745047 
L 403.335054 151.745047 
L 405.550218 148.918879 
L 407.765383 148.918879 
L 409.980548 147.505794 
L 412.195713 147.505794 
L 414.410877 146.09271 
L 418.841207 146.09271 
L 421.056372 144.679626 
L 423.271536 144.679626 
L 425.486701 143.266542 
L 434.34736 143.266542 
L 436.562525 136.201121 
L 438.77769 136.201121 
L 440.992854 134.788037 
L 447.638349 134.788037 
L 449.853513 133.374953 
L 469.789996 133.374953 
L 472.005161 130.548785 
L 480.86582 130.548785 
L 483.080985 129.135701 
L 505.232632 129.135701 
L 507.447797 126.309533 
L 509.662961 124.896449 
L 520.738785 124.896449 
L 522.95395 123.483364 
L 538.460103 123.483364 
L 540.675268 122.07028 
L 542.890433 122.07028 
L 545.105597 120.657196 
L 558.396586 120.657196 
L 562.826915 117.831028 
L 578.333069 117.831028 
L 582.763398 115.00486 
L 584.978563 115.00486 
L 587.193728 113.591776 
L 600.484716 113.591776 
L 602.699881 112.178692 
L 609.345375 112.178692 
L 611.56054 110.765607 
L 613.775705 107.939439 
L 622.636364 107.939439 
L 622.636364 107.939439 
" clip-path="url(#paa5bf834cd)" style="fill: none; stroke: #e377c2; stroke-width: 1.5; stroke-linecap: square"/>
   </g>
   <g id="line2d_36">
    <path d="M 115.363636 332.619813 
L 117.578801 332.619813 
L 122.009131 329.793645 
L 133.084954 329.793645 
L 135.300119 328.380561 
L 137.515284 328.380561 
L 141.945613 325.554393 
L 146.375943 325.554393 
L 148.591108 324.141308 
L 155.236602 324.141308 
L 157.451767 322.728224 
L 159.666931 322.728224 
L 161.882096 321.31514 
L 164.097261 321.31514 
L 168.52759 318.488972 
L 175.173085 318.488972 
L 177.388249 317.075888 
L 181.818579 317.075888 
L 186.248908 314.24972 
L 190.679238 314.24972 
L 195.109567 311.423551 
L 197.324732 311.423551 
L 199.539897 310.010467 
L 201.755062 305.771215 
L 210.615721 305.771215 
L 219.47638 300.118879 
L 221.691544 300.118879 
L 226.121874 297.29271 
L 228.337039 297.29271 
L 230.552203 295.879626 
L 232.767368 295.879626 
L 234.982533 294.466542 
L 254.919015 294.466542 
L 257.13418 293.053458 
L 279.285828 293.053458 
L 283.716157 290.22729 
L 290.361651 290.22729 
L 292.576816 288.814206 
L 297.007146 288.814206 
L 301.437475 285.988037 
L 305.867805 285.988037 
L 308.082969 283.161869 
L 314.728464 283.161869 
L 316.943628 280.335701 
L 319.158793 278.922617 
L 330.234617 278.922617 
L 332.449782 277.509533 
L 334.664946 277.509533 
L 339.095276 274.683364 
L 350.1711 274.683364 
L 352.386264 273.27028 
L 354.601429 273.27028 
L 356.816594 271.857196 
L 370.107582 271.857196 
L 372.322747 270.444112 
L 378.968241 270.444112 
L 381.183406 269.031028 
L 383.398571 269.031028 
L 385.613736 264.791776 
L 387.8289 264.791776 
L 390.044065 261.965607 
L 392.25923 260.552523 
L 394.474395 260.552523 
L 398.904724 257.726355 
L 403.335054 257.726355 
L 405.550218 256.313271 
L 409.980548 256.313271 
L 412.195713 254.900187 
L 414.410877 254.900187 
L 416.626042 252.074019 
L 418.841207 252.074019 
L 421.056372 250.660935 
L 425.486701 250.660935 
L 429.917031 247.834766 
L 432.132195 247.834766 
L 434.34736 245.008598 
L 436.562525 243.595514 
L 452.068678 243.595514 
L 454.283843 240.769346 
L 460.929337 240.769346 
L 463.144502 239.356262 
L 465.359667 239.356262 
L 467.574831 237.943178 
L 474.220326 237.943178 
L 476.43549 236.530093 
L 487.511314 236.530093 
L 489.726479 235.117009 
L 494.156808 235.117009 
L 496.371973 233.703925 
L 507.447797 233.703925 
L 509.662961 232.290841 
L 529.599444 232.290841 
L 534.029774 229.464673 
L 536.244938 229.464673 
L 538.460103 228.051589 
L 540.675268 228.051589 
L 542.890433 226.638505 
L 545.105597 226.638505 
L 547.320762 225.225421 
L 551.751092 225.225421 
L 553.966256 223.812336 
L 556.181421 223.812336 
L 560.611751 220.986168 
L 567.257245 220.986168 
L 569.47241 219.573084 
L 576.117904 219.573084 
L 578.333069 218.16 
L 593.839222 218.16 
L 596.054387 216.746916 
L 598.269551 216.746916 
L 600.484716 215.333832 
L 609.345375 215.333832 
L 611.56054 212.507664 
L 622.636364 212.507664 
L 622.636364 212.507664 
" clip-path="url(#paa5bf834cd)" style="fill: none; stroke: #7f7f7f; stroke-width: 1.5; stroke-linecap: square"/>
   </g>
   <g id="line2d_37">
    <path d="M 115.363636 341.098318 
L 124.224295 341.098318 
L 126.43946 339.685234 
L 148.591108 339.685234 
L 150.806272 338.27215 
L 161.882096 338.27215 
L 164.097261 336.859065 
L 186.248908 336.859065 
L 188.464073 335.445981 
L 210.615721 335.445981 
L 212.830885 334.032897 
L 332.449782 334.032897 
L 334.664946 332.619813 
L 345.74077 332.619813 
L 347.955935 331.206729 
L 363.462088 331.206729 
L 365.677253 329.793645 
L 367.892418 329.793645 
L 370.107582 325.554393 
L 372.322747 324.141308 
L 376.753077 324.141308 
L 378.968241 322.728224 
L 401.119889 322.728224 
L 403.335054 321.31514 
L 423.271536 321.31514 
L 425.486701 319.902056 
L 449.853513 319.902056 
L 452.068678 318.488972 
L 478.650655 318.488972 
L 480.86582 317.075888 
L 491.941644 317.075888 
L 494.156808 315.662804 
L 565.04208 315.662804 
L 567.257245 314.24972 
L 571.687574 314.24972 
L 573.902739 312.836636 
L 591.624057 312.836636 
L 593.839222 311.423551 
L 622.636364 311.423551 
L 622.636364 311.423551 
" clip-path="url(#paa5bf834cd)" style="fill: none; stroke: #bcbd22; stroke-width: 1.5; stroke-linecap: square"/>
   </g>
   <g id="line2d_38">
    <path d="M 115.363636 366.533832 
L 226.121874 366.533832 
L 228.337039 365.120748 
L 367.892418 365.120748 
L 370.107582 363.707664 
L 596.054387 363.707664 
L 598.269551 362.294579 
L 600.484716 363.707664 
L 622.636364 363.707664 
L 622.636364 363.707664 
" clip-path="url(#paa5bf834cd)" style="fill: none; stroke: #17becf; stroke-width: 1.5; stroke-linecap: square"/>
   </g>
   <g id="line2d_39">
    <path d="M 115.363636 369.36 
L 117.578801 367.946916 
L 122.009131 367.946916 
L 124.224295 366.533832 
L 139.730449 366.533832 
L 141.945613 365.120748 
L 148.591108 365.120748 
L 150.806272 363.707664 
L 153.021437 363.707664 
L 157.451767 360.881495 
L 168.52759 360.881495 
L 172.95792 358.055327 
L 175.173085 358.055327 
L 177.388249 356.642243 
L 192.894403 356.642243 
L 195.109567 355.229159 
L 197.324732 352.402991 
L 201.755062 352.402991 
L 203.970226 350.989907 
L 206.185391 350.989907 
L 208.400556 349.576822 
L 210.615721 349.576822 
L 212.830885 348.163738 
L 215.04605 348.163738 
L 219.47638 345.33757 
L 232.767368 345.33757 
L 237.197697 342.511402 
L 243.843192 342.511402 
L 246.058356 341.098318 
L 248.273521 341.098318 
L 250.488686 338.27215 
L 257.13418 338.27215 
L 261.56451 332.619813 
L 274.855498 332.619813 
L 277.070663 329.793645 
L 279.285828 328.380561 
L 285.931322 328.380561 
L 288.146487 326.967477 
L 290.361651 324.141308 
L 294.791981 324.141308 
L 297.007146 322.728224 
L 328.019452 322.728224 
L 330.234617 319.902056 
L 345.74077 310.010467 
L 367.892418 310.010467 
L 374.537912 305.771215 
L 378.968241 305.771215 
L 381.183406 302.945047 
L 385.613736 302.945047 
L 387.8289 301.531963 
L 394.474395 301.531963 
L 396.689559 300.118879 
L 398.904724 300.118879 
L 401.119889 298.705794 
L 403.335054 298.705794 
L 407.765383 295.879626 
L 436.562525 295.879626 
L 440.992854 293.053458 
L 458.714172 293.053458 
L 460.929337 291.640374 
L 467.574831 291.640374 
L 472.005161 288.814206 
L 478.650655 288.814206 
L 480.86582 287.401121 
L 485.296149 287.401121 
L 487.511314 285.988037 
L 498.587138 285.988037 
L 500.802303 284.574953 
L 503.017467 284.574953 
L 505.232632 281.748785 
L 507.447797 281.748785 
L 509.662961 280.335701 
L 520.738785 280.335701 
L 522.95395 278.922617 
L 527.384279 278.922617 
L 529.599444 277.509533 
L 531.814609 277.509533 
L 536.244938 274.683364 
L 551.751092 274.683364 
L 553.966256 273.27028 
L 556.181421 273.27028 
L 558.396586 271.857196 
L 569.47241 271.857196 
L 571.687574 269.031028 
L 573.902739 267.617944 
L 584.978563 267.617944 
L 587.193728 266.20486 
L 596.054387 266.20486 
L 598.269551 263.378692 
L 607.13021 263.378692 
L 611.56054 260.552523 
L 618.206034 260.552523 
L 620.421199 259.139439 
L 622.636364 259.139439 
L 622.636364 259.139439 
" clip-path="url(#paa5bf834cd)" style="fill: none; stroke: #1f77b4; stroke-width: 1.5; stroke-linecap: square"/>
   </g>
   <g id="line2d_40">
    <path d="M 115.363636 317.075888 
L 130.86979 317.075888 
L 133.084954 315.662804 
L 139.730449 315.662804 
L 141.945613 314.24972 
L 150.806272 314.24972 
L 153.021437 312.836636 
L 159.666931 312.836636 
L 161.882096 311.423551 
L 164.097261 311.423551 
L 166.312426 310.010467 
L 172.95792 310.010467 
L 175.173085 308.597383 
L 179.603414 308.597383 
L 181.818579 307.184299 
L 184.033744 307.184299 
L 188.464073 304.358131 
L 201.755062 304.358131 
L 203.970226 302.945047 
L 206.185391 302.945047 
L 208.400556 301.531963 
L 210.615721 301.531963 
L 212.830885 298.705794 
L 215.04605 294.466542 
L 217.261215 293.053458 
L 226.121874 293.053458 
L 232.767368 288.814206 
L 239.412862 288.814206 
L 243.843192 285.988037 
L 268.210004 285.988037 
L 270.425169 281.748785 
L 272.640333 281.748785 
L 277.070663 276.096449 
L 281.500992 273.27028 
L 283.716157 273.27028 
L 285.931322 270.444112 
L 303.65264 270.444112 
L 305.867805 267.617944 
L 312.513299 267.617944 
L 314.728464 266.20486 
L 330.234617 266.20486 
L 332.449782 264.791776 
L 359.031759 264.791776 
L 361.246923 263.378692 
L 363.462088 263.378692 
L 365.677253 261.965607 
L 372.322747 261.965607 
L 374.537912 260.552523 
L 401.119889 260.552523 
L 403.335054 259.139439 
L 407.765383 259.139439 
L 412.195713 253.487103 
L 416.626042 253.487103 
L 421.056372 250.660935 
L 425.486701 250.660935 
L 427.701866 249.24785 
L 434.34736 249.24785 
L 436.562525 247.834766 
L 463.144502 247.834766 
L 465.359667 246.421682 
L 498.587138 246.421682 
L 500.802303 245.008598 
L 520.738785 245.008598 
L 522.95395 243.595514 
L 527.384279 243.595514 
L 529.599444 242.18243 
L 536.244938 242.18243 
L 540.675268 239.356262 
L 542.890433 239.356262 
L 545.105597 237.943178 
L 553.966256 237.943178 
L 558.396586 235.117009 
L 569.47241 235.117009 
L 571.687574 233.703925 
L 578.333069 233.703925 
L 580.548233 232.290841 
L 591.624057 232.290841 
L 593.839222 230.877757 
L 604.915046 230.877757 
L 607.13021 229.464673 
L 622.636364 229.464673 
L 622.636364 229.464673 
" clip-path="url(#paa5bf834cd)" style="fill: none; stroke: #ff7f0e; stroke-width: 1.5; stroke-linecap: square"/>
   </g>
   <g id="patch_3">
    <path d="M 90 384.48 
L 90 51.84 
" style="fill: none; stroke: #000000; stroke-width: 0.8; stroke-linejoin: miter; stroke-linecap: square"/>
   </g>
   <g id="patch_4">
    <path d="M 648 384.48 
L 648 51.84 
" style="fill: none; stroke: #000000; stroke-width: 0.8; stroke-linejoin: miter; stroke-linecap: square"/>
   </g>
   <g id="patch_5">
    <path d="M 90 384.48 
L 648 384.48 
" style="fill: none; stroke: #000000; stroke-width: 0.8; stroke-linejoin: miter; stroke-linecap: square"/>
   </g>
   <g id="patch_6">
    <path d="M 90 51.84 
L 648 51.84 
" style="fill: none; stroke: #000000; stroke-width: 0.8; stroke-linejoin: miter; stroke-linecap: square"/>
   </g>
   <g id="text_17">
    <!-- Time Series of Votes for Each Keyword -->
    <g transform="translate(253.716563 45.84) scale(0.12 -0.12)">
     <defs>
      <path id="DejaVuSans-53" d="M 3425 4513 
L 3425 3897 
Q 3066 4069 2747 4153 
Q 2428 4238 2131 4238 
Q 1616 4238 1336 4038 
Q 1056 3838 1056 3469 
Q 1056 3159 1242 3001 
Q 1428 2844 1947 2747 
L 2328 2669 
Q 3034 2534 3370 2195 
Q 3706 1856 3706 1288 
Q 3706 609 3251 259 
Q 2797 -91 1919 -91 
Q 1588 -91 1214 -16 
Q 841 59 441 206 
L 441 856 
Q 825 641 1194 531 
Q 1563 422 1919 422 
Q 2459 422 2753 634 
Q 3047 847 3047 1241 
Q 3047 1584 2836 1778 
Q 2625 1972 2144 2069 
L 1759 2144 
Q 1053 2284 737 2584 
Q 422 2884 422 3419 
Q 422 4038 858 4394 
Q 1294 4750 2059 4750 
Q 2388 4750 2728 4690 
Q 3069 4631 3425 4513 
z
" transform="scale(0.015625)"/>
      <path id="DejaVuSans-72" d="M 2631 2963 
Q 2534 3019 2420 3045 
Q 2306 3072 2169 3072 
Q 1681 3072 1420 2755 
Q 1159 2438 1159 1844 
L 1159 0 
L 581 0 
L 581 3500 
L 1159 3500 
L 1159 2956 
Q 1341 3275 1631 3429 
Q 1922 3584 2338 3584 
Q 2397 3584 2469 3576 
Q 2541 3569 2628 3553 
L 2631 2963 
z
" transform="scale(0.015625)"/>
      <path id="DejaVuSans-66" d="M 2375 4863 
L 2375 4384 
L 1825 4384 
Q 1516 4384 1395 4259 
Q 1275 4134 1275 3809 
L 1275 3500 
L 2222 3500 
L 2222 3053 
L 1275 3053 
L 1275 0 
L 697 0 
L 697 3053 
L 147 3053 
L 147 3500 
L 697 3500 
L 697 3744 
Q 697 4328 969 4595 
Q 1241 4863 1831 4863 
L 2375 4863 
z
" transform="scale(0.015625)"/>
      <path id="DejaVuSans-45" d="M 628 4666 
L 3578 4666 
L 3578 4134 
L 1259 4134 
L 1259 2753 
L 3481 2753 
L 3481 2222 
L 1259 2222 
L 1259 531 
L 3634 531 
L 3634 0 
L 628 0 
L 628 4666 
z
" transform="scale(0.015625)"/>
      <path id="DejaVuSans-63" d="M 3122 3366 
L 3122 2828 
Q 2878 2963 2633 3030 
Q 2388 3097 2138 3097 
Q 1578 3097 1268 2742 
Q 959 2388 959 1747 
Q 959 1106 1268 751 
Q 1578 397 2138 397 
Q 2388 397 2633 464 
Q 2878 531 3122 666 
L 3122 134 
Q 2881 22 2623 -34 
Q 2366 -91 2075 -91 
Q 1284 -91 818 406 
Q 353 903 353 1747 
Q 353 2603 823 3093 
Q 1294 3584 2113 3584 
Q 2378 3584 2631 3529 
Q 2884 3475 3122 3366 
z
" transform="scale(0.015625)"/>
      <path id="DejaVuSans-68" d="M 3513 2113 
L 3513 0 
L 2938 0 
L 2938 2094 
Q 2938 2591 2744 2837 
Q 2550 3084 2163 3084 
Q 1697 3084 1428 2787 
Q 1159 2491 1159 1978 
L 1159 0 
L 581 0 
L 581 4863 
L 1159 4863 
L 1159 2956 
Q 1366 3272 1645 3428 
Q 1925 3584 2291 3584 
Q 2894 3584 3203 3211 
Q 3513 2838 3513 2113 
z
" transform="scale(0.015625)"/>
      <path id="DejaVuSans-4b" d="M 628 4666 
L 1259 4666 
L 1259 2694 
L 3353 4666 
L 4166 4666 
L 1850 2491 
L 4331 0 
L 3500 0 
L 1259 2247 
L 1259 0 
L 628 0 
L 628 4666 
z
" transform="scale(0.015625)"/>
      <path id="DejaVuSans-79" d="M 2059 -325 
Q 1816 -950 1584 -1140 
Q 1353 -1331 966 -1331 
L 506 -1331 
L 506 -850 
L 844 -850 
Q 1081 -850 1212 -737 
Q 1344 -625 1503 -206 
L 1606 56 
L 191 3500 
L 800 3500 
L 1894 763 
L 2988 3500 
L 3597 3500 
L 2059 -325 
z
" transform="scale(0.015625)"/>
      <path id="DejaVuSans-77" d="M 269 3500 
L 844 3500 
L 1563 769 
L 2278 3500 
L 2956 3500 
L 3675 769 
L 4391 3500 
L 4966 3500 
L 4050 0 
L 3372 0 
L 2619 2869 
L 1863 0 
L 1184 0 
L 269 3500 
z
" transform="scale(0.015625)"/>
     </defs>
     <use xlink:href="#DejaVuSans-54"/>
     <use xlink:href="#DejaVuSans-69" transform="translate(57.958984 0)"/>
     <use xlink:href="#DejaVuSans-6d" transform="translate(85.742188 0)"/>
     <use xlink:href="#DejaVuSans-65" transform="translate(183.154297 0)"/>
     <use xlink:href="#DejaVuSans-20" transform="translate(244.677734 0)"/>
     <use xlink:href="#DejaVuSans-53" transform="translate(276.464844 0)"/>
     <use xlink:href="#DejaVuSans-65" transform="translate(339.941406 0)"/>
     <use xlink:href="#DejaVuSans-72" transform="translate(401.464844 0)"/>
     <use xlink:href="#DejaVuSans-69" transform="translate(442.578125 0)"/>
     <use xlink:href="#DejaVuSans-65" transform="translate(470.361328 0)"/>
     <use xlink:href="#DejaVuSans-73" transform="translate(531.884766 0)"/>
     <use xlink:href="#DejaVuSans-20" transform="translate(583.984375 0)"/>
     <use xlink:href="#DejaVuSans-6f" transform="translate(615.771484 0)"/>
     <use xlink:href="#DejaVuSans-66" transform="translate(676.953125 0)"/>
     <use xlink:href="#DejaVuSans-20" transform="translate(712.158203 0)"/>
     <use xlink:href="#DejaVuSans-56" transform="translate(743.945312 0)"/>
     <use xlink:href="#DejaVuSans-6f" transform="translate(804.603516 0)"/>
     <use xlink:href="#DejaVuSans-74" transform="translate(865.785156 0)"/>
     <use xlink:href="#DejaVuSans-65" transform="translate(904.994141 0)"/>
     <use xlink:href="#DejaVuSans-73" transform="translate(966.517578 0)"/>
     <use xlink:href="#DejaVuSans-20" transform="translate(1018.617188 0)"/>
     <use xlink:href="#DejaVuSans-66" transform="translate(1050.404297 0)"/>
     <use xlink:href="#DejaVuSans-6f" transform="translate(1085.609375 0)"/>
     <use xlink:href="#DejaVuSans-72" transform="translate(1146.791016 0)"/>
     <use xlink:href="#DejaVuSans-20" transform="translate(1187.904297 0)"/>
     <use xlink:href="#DejaVuSans-45" transform="translate(1219.691406 0)"/>
     <use xlink:href="#DejaVuSans-61" transform="translate(1282.875 0)"/>
     <use xlink:href="#DejaVuSans-63" transform="translate(1344.154297 0)"/>
     <use xlink:href="#DejaVuSans-68" transform="translate(1399.134766 0)"/>
     <use xlink:href="#DejaVuSans-20" transform="translate(1462.513672 0)"/>
     <use xlink:href="#DejaVuSans-4b" transform="translate(1494.300781 0)"/>
     <use xlink:href="#DejaVuSans-65" transform="translate(1554.876953 0)"/>
     <use xlink:href="#DejaVuSans-79" transform="translate(1616.400391 0)"/>
     <use xlink:href="#DejaVuSans-77" transform="translate(1675.580078 0)"/>
     <use xlink:href="#DejaVuSans-6f" transform="translate(1757.367188 0)"/>
     <use xlink:href="#DejaVuSans-72" transform="translate(1818.548828 0)"/>
     <use xlink:href="#DejaVuSans-64" transform="translate(1857.912109 0)"/>
    </g>
   </g>
   <g id="legend_1">
    <g id="patch_7">
     <path d="M 97 235.9775 
L 149.245313 235.9775 
Q 151.245313 235.9775 151.245313 233.9775 
L 151.245313 58.84 
Q 151.245313 56.84 149.245313 56.84 
L 97 56.84 
Q 95 56.84 95 58.84 
L 95 233.9775 
Q 95 235.9775 97 235.9775 
z
" style="fill: #ffffff; opacity: 0.8; stroke: #cccccc; stroke-linejoin: miter"/>
    </g>
    <g id="line2d_41">
     <path d="M 99 64.938437 
L 109 64.938437 
L 119 64.938437 
" style="fill: none; stroke: #1f77b4; stroke-width: 1.5; stroke-linecap: square"/>
    </g>
    <g id="text_18">
     <!-- H01 -->
     <g transform="translate(127 68.438437) scale(0.1 -0.1)">
      <defs>
       <path id="DejaVuSans-48" d="M 628 4666 
L 1259 4666 
L 1259 2753 
L 3553 2753 
L 3553 4666 
L 4184 4666 
L 4184 0 
L 3553 0 
L 3553 2222 
L 1259 2222 
L 1259 0 
L 628 0 
L 628 4666 
z
" transform="scale(0.015625)"/>
      </defs>
      <use xlink:href="#DejaVuSans-48"/>
      <use xlink:href="#DejaVuSans-30" transform="translate(75.195312 0)"/>
      <use xlink:href="#DejaVuSans-31" transform="translate(138.818359 0)"/>
     </g>
    </g>
    <g id="line2d_42">
     <path d="M 99 79.616562 
L 109 79.616562 
L 119 79.616562 
" style="fill: none; stroke: #ff7f0e; stroke-width: 1.5; stroke-linecap: square"/>
    </g>
    <g id="text_19">
     <!-- H02 -->
     <g transform="translate(127 83.116562) scale(0.1 -0.1)">
      <use xlink:href="#DejaVuSans-48"/>
      <use xlink:href="#DejaVuSans-30" transform="translate(75.195312 0)"/>
      <use xlink:href="#DejaVuSans-32" transform="translate(138.818359 0)"/>
     </g>
    </g>
    <g id="line2d_43">
     <path d="M 99 94.294688 
L 109 94.294688 
L 119 94.294688 
" style="fill: none; stroke: #2ca02c; stroke-width: 1.5; stroke-linecap: square"/>
    </g>
    <g id="text_20">
     <!-- H03 -->
     <g transform="translate(127 97.794688) scale(0.1 -0.1)">
      <use xlink:href="#DejaVuSans-48"/>
      <use xlink:href="#DejaVuSans-30" transform="translate(75.195312 0)"/>
      <use xlink:href="#DejaVuSans-33" transform="translate(138.818359 0)"/>
     </g>
    </g>
    <g id="line2d_44">
     <path d="M 99 108.972812 
L 109 108.972812 
L 119 108.972812 
" style="fill: none; stroke: #d62728; stroke-width: 1.5; stroke-linecap: square"/>
    </g>
    <g id="text_21">
     <!-- H04 -->
     <g transform="translate(127 112.472812) scale(0.1 -0.1)">
      <use xlink:href="#DejaVuSans-48"/>
      <use xlink:href="#DejaVuSans-30" transform="translate(75.195312 0)"/>
      <use xlink:href="#DejaVuSans-34" transform="translate(138.818359 0)"/>
     </g>
    </g>
    <g id="line2d_45">
     <path d="M 99 123.650937 
L 109 123.650937 
L 119 123.650937 
" style="fill: none; stroke: #9467bd; stroke-width: 1.5; stroke-linecap: square"/>
    </g>
    <g id="text_22">
     <!-- H05 -->
     <g transform="translate(127 127.150937) scale(0.1 -0.1)">
      <use xlink:href="#DejaVuSans-48"/>
      <use xlink:href="#DejaVuSans-30" transform="translate(75.195312 0)"/>
      <use xlink:href="#DejaVuSans-35" transform="translate(138.818359 0)"/>
     </g>
    </g>
    <g id="line2d_46">
     <path d="M 99 138.329062 
L 109 138.329062 
L 119 138.329062 
" style="fill: none; stroke: #8c564b; stroke-width: 1.5; stroke-linecap: square"/>
    </g>
    <g id="text_23">
     <!-- H06 -->
     <g transform="translate(127 141.829062) scale(0.1 -0.1)">
      <use xlink:href="#DejaVuSans-48"/>
      <use xlink:href="#DejaVuSans-30" transform="translate(75.195312 0)"/>
      <use xlink:href="#DejaVuSans-36" transform="translate(138.818359 0)"/>
     </g>
    </g>
    <g id="line2d_47">
     <path d="M 99 153.007187 
L 109 153.007187 
L 119 153.007187 
" style="fill: none; stroke: #e377c2; stroke-width: 1.5; stroke-linecap: square"/>
    </g>
    <g id="text_24">
     <!-- H07 -->
     <g transform="translate(127 156.507187) scale(0.1 -0.1)">
      <use xlink:href="#DejaVuSans-48"/>
      <use xlink:href="#DejaVuSans-30" transform="translate(75.195312 0)"/>
      <use xlink:href="#DejaVuSans-37" transform="translate(138.818359 0)"/>
     </g>
    </g>
    <g id="line2d_48">
     <path d="M 99 167.685312 
L 109 167.685312 
L 119 167.685312 
" style="fill: none; stroke: #7f7f7f; stroke-width: 1.5; stroke-linecap: square"/>
    </g>
    <g id="text_25">
     <!-- H08 -->
     <g transform="translate(127 171.185312) scale(0.1 -0.1)">
      <defs>
       <path id="DejaVuSans-38" d="M 2034 2216 
Q 1584 2216 1326 1975 
Q 1069 1734 1069 1313 
Q 1069 891 1326 650 
Q 1584 409 2034 409 
Q 2484 409 2743 651 
Q 3003 894 3003 1313 
Q 3003 1734 2745 1975 
Q 2488 2216 2034 2216 
z
M 1403 2484 
Q 997 2584 770 2862 
Q 544 3141 544 3541 
Q 544 4100 942 4425 
Q 1341 4750 2034 4750 
Q 2731 4750 3128 4425 
Q 3525 4100 3525 3541 
Q 3525 3141 3298 2862 
Q 3072 2584 2669 2484 
Q 3125 2378 3379 2068 
Q 3634 1759 3634 1313 
Q 3634 634 3220 271 
Q 2806 -91 2034 -91 
Q 1263 -91 848 271 
Q 434 634 434 1313 
Q 434 1759 690 2068 
Q 947 2378 1403 2484 
z
M 1172 3481 
Q 1172 3119 1398 2916 
Q 1625 2713 2034 2713 
Q 2441 2713 2670 2916 
Q 2900 3119 2900 3481 
Q 2900 3844 2670 4047 
Q 2441 4250 2034 4250 
Q 1625 4250 1398 4047 
Q 1172 3844 1172 3481 
z
" transform="scale(0.015625)"/>
      </defs>
      <use xlink:href="#DejaVuSans-48"/>
      <use xlink:href="#DejaVuSans-30" transform="translate(75.195312 0)"/>
      <use xlink:href="#DejaVuSans-38" transform="translate(138.818359 0)"/>
     </g>
    </g>
    <g id="line2d_49">
     <path d="M 99 182.363437 
L 109 182.363437 
L 119 182.363437 
" style="fill: none; stroke: #bcbd22; stroke-width: 1.5; stroke-linecap: square"/>
    </g>
    <g id="text_26">
     <!-- H09 -->
     <g transform="translate(127 185.863437) scale(0.1 -0.1)">
      <defs>
       <path id="DejaVuSans-39" d="M 703 97 
L 703 672 
Q 941 559 1184 500 
Q 1428 441 1663 441 
Q 2288 441 2617 861 
Q 2947 1281 2994 2138 
Q 2813 1869 2534 1725 
Q 2256 1581 1919 1581 
Q 1219 1581 811 2004 
Q 403 2428 403 3163 
Q 403 3881 828 4315 
Q 1253 4750 1959 4750 
Q 2769 4750 3195 4129 
Q 3622 3509 3622 2328 
Q 3622 1225 3098 567 
Q 2575 -91 1691 -91 
Q 1453 -91 1209 -44 
Q 966 3 703 97 
z
M 1959 2075 
Q 2384 2075 2632 2365 
Q 2881 2656 2881 3163 
Q 2881 3666 2632 3958 
Q 2384 4250 1959 4250 
Q 1534 4250 1286 3958 
Q 1038 3666 1038 3163 
Q 1038 2656 1286 2365 
Q 1534 2075 1959 2075 
z
" transform="scale(0.015625)"/>
      </defs>
      <use xlink:href="#DejaVuSans-48"/>
      <use xlink:href="#DejaVuSans-30" transform="translate(75.195312 0)"/>
      <use xlink:href="#DejaVuSans-39" transform="translate(138.818359 0)"/>
     </g>
    </g>
    <g id="line2d_50">
     <path d="M 99 197.041562 
L 109 197.041562 
L 119 197.041562 
" style="fill: none; stroke: #17becf; stroke-width: 1.5; stroke-linecap: square"/>
    </g>
    <g id="text_27">
     <!-- H10 -->
     <g transform="translate(127 200.541562) scale(0.1 -0.1)">
      <use xlink:href="#DejaVuSans-48"/>
      <use xlink:href="#DejaVuSans-31" transform="translate(75.195312 0)"/>
      <use xlink:href="#DejaVuSans-30" transform="translate(138.818359 0)"/>
     </g>
    </g>
    <g id="line2d_51">
     <path d="M 99 211.719687 
L 109 211.719687 
L 119 211.719687 
" style="fill: none; stroke: #1f77b4; stroke-width: 1.5; stroke-linecap: square"/>
    </g>
    <g id="text_28">
     <!-- H11 -->
     <g transform="translate(127 215.219687) scale(0.1 -0.1)">
      <use xlink:href="#DejaVuSans-48"/>
      <use xlink:href="#DejaVuSans-31" transform="translate(75.195312 0)"/>
      <use xlink:href="#DejaVuSans-31" transform="translate(138.818359 0)"/>
     </g>
    </g>
    <g id="line2d_52">
     <path d="M 99 226.397812 
L 109 226.397812 
L 119 226.397812 
" style="fill: none; stroke: #ff7f0e; stroke-width: 1.5; stroke-linecap: square"/>
    </g>
    <g id="text_29">
     <!-- H12 -->
     <g transform="translate(127 229.897812) scale(0.1 -0.1)">
      <use xlink:href="#DejaVuSans-48"/>
      <use xlink:href="#DejaVuSans-31" transform="translate(75.195312 0)"/>
      <use xlink:href="#DejaVuSans-32" transform="translate(138.818359 0)"/>
     </g>
    </g>
   </g>
  </g>
 </g>
 <defs>
  <clipPath id="paa5bf834cd">
   <rect x="90" y="51.84" width="558" height="332.64"/>
  </clipPath>
 </defs>
</svg>
