<?xml version="1.0" encoding="utf-8" standalone="no"?>
<!DOCTYPE svg PUBLIC "-//W3C//DTD SVG 1.1//EN"
  "http://www.w3.org/Graphics/SVG/1.1/DTD/svg11.dtd">
<svg xmlns:xlink="http://www.w3.org/1999/xlink" width="720pt" height="432pt" viewBox="0 0 720 432" xmlns="http://www.w3.org/2000/svg" version="1.1">
 <metadata>
  <rdf:RDF xmlns:dc="http://purl.org/dc/elements/1.1/" xmlns:cc="http://creativecommons.org/ns#" xmlns:rdf="http://www.w3.org/1999/02/22-rdf-syntax-ns#">
   <cc:Work>
    <dc:type rdf:resource="http://purl.org/dc/dcmitype/StillImage"/>
    <dc:date>2025-01-14T22:14:17.870334</dc:date>
    <dc:format>image/svg+xml</dc:format>
    <dc:creator>
     <cc:Agent>
      <dc:title>Matplotlib v3.10.0, https://matplotlib.org/</dc:title>
     </cc:Agent>
    </dc:creator>
   </cc:Work>
  </rdf:RDF>
 </metadata>
 <defs>
  <style type="text/css">*{stroke-linejoin: round; stroke-linecap: butt}</style>
 </defs>
 <g id="figure_1">
  <g id="patch_1">
   <path d="M 0 432 
L 720 432 
L 720 0 
L 0 0 
z
" style="fill: #ffffff"/>
  </g>
  <g id="axes_1">
   <g id="patch_2">
    <path d="M 90 384.48 
L 648 384.48 
L 648 51.84 
L 90 51.84 
z
" style="fill: #ffffff"/>
   </g>
   <g id="matplotlib.axis_1">
    <g id="xtick_1">
     <g id="line2d_1">
      <path d="M 141.652242 384.48 
L 141.652242 51.84 
" clip-path="url(#p851bfaa2d1)" style="fill: none; stroke: #b0b0b0; stroke-width: 0.8; stroke-linecap: square"/>
     </g>
     <g id="line2d_2">
      <defs>
       <path id="mcf36fde11a" d="M 0 0 
L 0 3.5 
" style="stroke: #000000; stroke-width: 0.8"/>
      </defs>
      <g>
       <use xlink:href="#mcf36fde11a" x="141.652242" y="384.48" style="stroke: #000000; stroke-width: 0.8"/>
      </g>
     </g>
     <g id="text_1">
      <!-- 01-14 14 -->
      <g transform="translate(119.171773 399.078438) scale(0.1 -0.1)">
       <defs>
        <path id="DejaVuSans-30" d="M 2034 4250 
Q 1547 4250 1301 3770 
Q 1056 3291 1056 2328 
Q 1056 1369 1301 889 
Q 1547 409 2034 409 
Q 2525 409 2770 889 
Q 3016 1369 3016 2328 
Q 3016 3291 2770 3770 
Q 2525 4250 2034 4250 
z
M 2034 4750 
Q 2819 4750 3233 4129 
Q 3647 3509 3647 2328 
Q 3647 1150 3233 529 
Q 2819 -91 2034 -91 
Q 1250 -91 836 529 
Q 422 1150 422 2328 
Q 422 3509 836 4129 
Q 1250 4750 2034 4750 
z
" transform="scale(0.015625)"/>
        <path id="DejaVuSans-31" d="M 794 531 
L 1825 531 
L 1825 4091 
L 703 3866 
L 703 4441 
L 1819 4666 
L 2450 4666 
L 2450 531 
L 3481 531 
L 3481 0 
L 794 0 
L 794 531 
z
" transform="scale(0.015625)"/>
        <path id="DejaVuSans-2d" d="M 313 2009 
L 1997 2009 
L 1997 1497 
L 313 1497 
L 313 2009 
z
" transform="scale(0.015625)"/>
        <path id="DejaVuSans-34" d="M 2419 4116 
L 825 1625 
L 2419 1625 
L 2419 4116 
z
M 2253 4666 
L 3047 4666 
L 3047 1625 
L 3713 1625 
L 3713 1100 
L 3047 1100 
L 3047 0 
L 2419 0 
L 2419 1100 
L 313 1100 
L 313 1709 
L 2253 4666 
z
" transform="scale(0.015625)"/>
        <path id="DejaVuSans-20" transform="scale(0.015625)"/>
       </defs>
       <use xlink:href="#DejaVuSans-30"/>
       <use xlink:href="#DejaVuSans-31" transform="translate(63.623047 0)"/>
       <use xlink:href="#DejaVuSans-2d" transform="translate(127.246094 0)"/>
       <use xlink:href="#DejaVuSans-31" transform="translate(163.330078 0)"/>
       <use xlink:href="#DejaVuSans-34" transform="translate(226.953125 0)"/>
       <use xlink:href="#DejaVuSans-20" transform="translate(290.576172 0)"/>
       <use xlink:href="#DejaVuSans-31" transform="translate(322.363281 0)"/>
       <use xlink:href="#DejaVuSans-34" transform="translate(385.986328 0)"/>
      </g>
     </g>
    </g>
    <g id="xtick_2">
     <g id="line2d_3">
      <path d="M 200.071366 384.48 
L 200.071366 51.84 
" clip-path="url(#p851bfaa2d1)" style="fill: none; stroke: #b0b0b0; stroke-width: 0.8; stroke-linecap: square"/>
     </g>
     <g id="line2d_4">
      <g>
       <use xlink:href="#mcf36fde11a" x="200.071366" y="384.48" style="stroke: #000000; stroke-width: 0.8"/>
      </g>
     </g>
     <g id="text_2">
      <!-- 01-14 15 -->
      <g transform="translate(177.590898 399.078438) scale(0.1 -0.1)">
       <defs>
        <path id="DejaVuSans-35" d="M 691 4666 
L 3169 4666 
L 3169 4134 
L 1269 4134 
L 1269 2991 
Q 1406 3038 1543 3061 
Q 1681 3084 1819 3084 
Q 2600 3084 3056 2656 
Q 3513 2228 3513 1497 
Q 3513 744 3044 326 
Q 2575 -91 1722 -91 
Q 1428 -91 1123 -41 
Q 819 9 494 109 
L 494 744 
Q 775 591 1075 516 
Q 1375 441 1709 441 
Q 2250 441 2565 725 
Q 2881 1009 2881 1497 
Q 2881 1984 2565 2268 
Q 2250 2553 1709 2553 
Q 1456 2553 1204 2497 
Q 953 2441 691 2322 
L 691 4666 
z
" transform="scale(0.015625)"/>
       </defs>
       <use xlink:href="#DejaVuSans-30"/>
       <use xlink:href="#DejaVuSans-31" transform="translate(63.623047 0)"/>
       <use xlink:href="#DejaVuSans-2d" transform="translate(127.246094 0)"/>
       <use xlink:href="#DejaVuSans-31" transform="translate(163.330078 0)"/>
       <use xlink:href="#DejaVuSans-34" transform="translate(226.953125 0)"/>
       <use xlink:href="#DejaVuSans-20" transform="translate(290.576172 0)"/>
       <use xlink:href="#DejaVuSans-31" transform="translate(322.363281 0)"/>
       <use xlink:href="#DejaVuSans-35" transform="translate(385.986328 0)"/>
      </g>
     </g>
    </g>
    <g id="xtick_3">
     <g id="line2d_5">
      <path d="M 258.49049 384.48 
L 258.49049 51.84 
" clip-path="url(#p851bfaa2d1)" style="fill: none; stroke: #b0b0b0; stroke-width: 0.8; stroke-linecap: square"/>
     </g>
     <g id="line2d_6">
      <g>
       <use xlink:href="#mcf36fde11a" x="258.49049" y="384.48" style="stroke: #000000; stroke-width: 0.8"/>
      </g>
     </g>
     <g id="text_3">
      <!-- 01-14 16 -->
      <g transform="translate(236.010022 399.078438) scale(0.1 -0.1)">
       <defs>
        <path id="DejaVuSans-36" d="M 2113 2584 
Q 1688 2584 1439 2293 
Q 1191 2003 1191 1497 
Q 1191 994 1439 701 
Q 1688 409 2113 409 
Q 2538 409 2786 701 
Q 3034 994 3034 1497 
Q 3034 2003 2786 2293 
Q 2538 2584 2113 2584 
z
M 3366 4563 
L 3366 3988 
Q 3128 4100 2886 4159 
Q 2644 4219 2406 4219 
Q 1781 4219 1451 3797 
Q 1122 3375 1075 2522 
Q 1259 2794 1537 2939 
Q 1816 3084 2150 3084 
Q 2853 3084 3261 2657 
Q 3669 2231 3669 1497 
Q 3669 778 3244 343 
Q 2819 -91 2113 -91 
Q 1303 -91 875 529 
Q 447 1150 447 2328 
Q 447 3434 972 4092 
Q 1497 4750 2381 4750 
Q 2619 4750 2861 4703 
Q 3103 4656 3366 4563 
z
" transform="scale(0.015625)"/>
       </defs>
       <use xlink:href="#DejaVuSans-30"/>
       <use xlink:href="#DejaVuSans-31" transform="translate(63.623047 0)"/>
       <use xlink:href="#DejaVuSans-2d" transform="translate(127.246094 0)"/>
       <use xlink:href="#DejaVuSans-31" transform="translate(163.330078 0)"/>
       <use xlink:href="#DejaVuSans-34" transform="translate(226.953125 0)"/>
       <use xlink:href="#DejaVuSans-20" transform="translate(290.576172 0)"/>
       <use xlink:href="#DejaVuSans-31" transform="translate(322.363281 0)"/>
       <use xlink:href="#DejaVuSans-36" transform="translate(385.986328 0)"/>
      </g>
     </g>
    </g>
    <g id="xtick_4">
     <g id="line2d_7">
      <path d="M 316.909614 384.48 
L 316.909614 51.84 
" clip-path="url(#p851bfaa2d1)" style="fill: none; stroke: #b0b0b0; stroke-width: 0.8; stroke-linecap: square"/>
     </g>
     <g id="line2d_8">
      <g>
       <use xlink:href="#mcf36fde11a" x="316.909614" y="384.48" style="stroke: #000000; stroke-width: 0.8"/>
      </g>
     </g>
     <g id="text_4">
      <!-- 01-14 17 -->
      <g transform="translate(294.429146 399.078438) scale(0.1 -0.1)">
       <defs>
        <path id="DejaVuSans-37" d="M 525 4666 
L 3525 4666 
L 3525 4397 
L 1831 0 
L 1172 0 
L 2766 4134 
L 525 4134 
L 525 4666 
z
" transform="scale(0.015625)"/>
       </defs>
       <use xlink:href="#DejaVuSans-30"/>
       <use xlink:href="#DejaVuSans-31" transform="translate(63.623047 0)"/>
       <use xlink:href="#DejaVuSans-2d" transform="translate(127.246094 0)"/>
       <use xlink:href="#DejaVuSans-31" transform="translate(163.330078 0)"/>
       <use xlink:href="#DejaVuSans-34" transform="translate(226.953125 0)"/>
       <use xlink:href="#DejaVuSans-20" transform="translate(290.576172 0)"/>
       <use xlink:href="#DejaVuSans-31" transform="translate(322.363281 0)"/>
       <use xlink:href="#DejaVuSans-37" transform="translate(385.986328 0)"/>
      </g>
     </g>
    </g>
    <g id="xtick_5">
     <g id="line2d_9">
      <path d="M 375.328738 384.48 
L 375.328738 51.84 
" clip-path="url(#p851bfaa2d1)" style="fill: none; stroke: #b0b0b0; stroke-width: 0.8; stroke-linecap: square"/>
     </g>
     <g id="line2d_10">
      <g>
       <use xlink:href="#mcf36fde11a" x="375.328738" y="384.48" style="stroke: #000000; stroke-width: 0.8"/>
      </g>
     </g>
     <g id="text_5">
      <!-- 01-14 18 -->
      <g transform="translate(352.84827 399.078438) scale(0.1 -0.1)">
       <defs>
        <path id="DejaVuSans-38" d="M 2034 2216 
Q 1584 2216 1326 1975 
Q 1069 1734 1069 1313 
Q 1069 891 1326 650 
Q 1584 409 2034 409 
Q 2484 409 2743 651 
Q 3003 894 3003 1313 
Q 3003 1734 2745 1975 
Q 2488 2216 2034 2216 
z
M 1403 2484 
Q 997 2584 770 2862 
Q 544 3141 544 3541 
Q 544 4100 942 4425 
Q 1341 4750 2034 4750 
Q 2731 4750 3128 4425 
Q 3525 4100 3525 3541 
Q 3525 3141 3298 2862 
Q 3072 2584 2669 2484 
Q 3125 2378 3379 2068 
Q 3634 1759 3634 1313 
Q 3634 634 3220 271 
Q 2806 -91 2034 -91 
Q 1263 -91 848 271 
Q 434 634 434 1313 
Q 434 1759 690 2068 
Q 947 2378 1403 2484 
z
M 1172 3481 
Q 1172 3119 1398 2916 
Q 1625 2713 2034 2713 
Q 2441 2713 2670 2916 
Q 2900 3119 2900 3481 
Q 2900 3844 2670 4047 
Q 2441 4250 2034 4250 
Q 1625 4250 1398 4047 
Q 1172 3844 1172 3481 
z
" transform="scale(0.015625)"/>
       </defs>
       <use xlink:href="#DejaVuSans-30"/>
       <use xlink:href="#DejaVuSans-31" transform="translate(63.623047 0)"/>
       <use xlink:href="#DejaVuSans-2d" transform="translate(127.246094 0)"/>
       <use xlink:href="#DejaVuSans-31" transform="translate(163.330078 0)"/>
       <use xlink:href="#DejaVuSans-34" transform="translate(226.953125 0)"/>
       <use xlink:href="#DejaVuSans-20" transform="translate(290.576172 0)"/>
       <use xlink:href="#DejaVuSans-31" transform="translate(322.363281 0)"/>
       <use xlink:href="#DejaVuSans-38" transform="translate(385.986328 0)"/>
      </g>
     </g>
    </g>
    <g id="xtick_6">
     <g id="line2d_11">
      <path d="M 433.747863 384.48 
L 433.747863 51.84 
" clip-path="url(#p851bfaa2d1)" style="fill: none; stroke: #b0b0b0; stroke-width: 0.8; stroke-linecap: square"/>
     </g>
     <g id="line2d_12">
      <g>
       <use xlink:href="#mcf36fde11a" x="433.747863" y="384.48" style="stroke: #000000; stroke-width: 0.8"/>
      </g>
     </g>
     <g id="text_6">
      <!-- 01-14 19 -->
      <g transform="translate(411.267394 399.078438) scale(0.1 -0.1)">
       <defs>
        <path id="DejaVuSans-39" d="M 703 97 
L 703 672 
Q 941 559 1184 500 
Q 1428 441 1663 441 
Q 2288 441 2617 861 
Q 2947 1281 2994 2138 
Q 2813 1869 2534 1725 
Q 2256 1581 1919 1581 
Q 1219 1581 811 2004 
Q 403 2428 403 3163 
Q 403 3881 828 4315 
Q 1253 4750 1959 4750 
Q 2769 4750 3195 4129 
Q 3622 3509 3622 2328 
Q 3622 1225 3098 567 
Q 2575 -91 1691 -91 
Q 1453 -91 1209 -44 
Q 966 3 703 97 
z
M 1959 2075 
Q 2384 2075 2632 2365 
Q 2881 2656 2881 3163 
Q 2881 3666 2632 3958 
Q 2384 4250 1959 4250 
Q 1534 4250 1286 3958 
Q 1038 3666 1038 3163 
Q 1038 2656 1286 2365 
Q 1534 2075 1959 2075 
z
" transform="scale(0.015625)"/>
       </defs>
       <use xlink:href="#DejaVuSans-30"/>
       <use xlink:href="#DejaVuSans-31" transform="translate(63.623047 0)"/>
       <use xlink:href="#DejaVuSans-2d" transform="translate(127.246094 0)"/>
       <use xlink:href="#DejaVuSans-31" transform="translate(163.330078 0)"/>
       <use xlink:href="#DejaVuSans-34" transform="translate(226.953125 0)"/>
       <use xlink:href="#DejaVuSans-20" transform="translate(290.576172 0)"/>
       <use xlink:href="#DejaVuSans-31" transform="translate(322.363281 0)"/>
       <use xlink:href="#DejaVuSans-39" transform="translate(385.986328 0)"/>
      </g>
     </g>
    </g>
    <g id="xtick_7">
     <g id="line2d_13">
      <path d="M 492.166987 384.48 
L 492.166987 51.84 
" clip-path="url(#p851bfaa2d1)" style="fill: none; stroke: #b0b0b0; stroke-width: 0.8; stroke-linecap: square"/>
     </g>
     <g id="line2d_14">
      <g>
       <use xlink:href="#mcf36fde11a" x="492.166987" y="384.48" style="stroke: #000000; stroke-width: 0.8"/>
      </g>
     </g>
     <g id="text_7">
      <!-- 01-14 20 -->
      <g transform="translate(469.686518 399.078438) scale(0.1 -0.1)">
       <defs>
        <path id="DejaVuSans-32" d="M 1228 531 
L 3431 531 
L 3431 0 
L 469 0 
L 469 531 
Q 828 903 1448 1529 
Q 2069 2156 2228 2338 
Q 2531 2678 2651 2914 
Q 2772 3150 2772 3378 
Q 2772 3750 2511 3984 
Q 2250 4219 1831 4219 
Q 1534 4219 1204 4116 
Q 875 4013 500 3803 
L 500 4441 
Q 881 4594 1212 4672 
Q 1544 4750 1819 4750 
Q 2544 4750 2975 4387 
Q 3406 4025 3406 3419 
Q 3406 3131 3298 2873 
Q 3191 2616 2906 2266 
Q 2828 2175 2409 1742 
Q 1991 1309 1228 531 
z
" transform="scale(0.015625)"/>
       </defs>
       <use xlink:href="#DejaVuSans-30"/>
       <use xlink:href="#DejaVuSans-31" transform="translate(63.623047 0)"/>
       <use xlink:href="#DejaVuSans-2d" transform="translate(127.246094 0)"/>
       <use xlink:href="#DejaVuSans-31" transform="translate(163.330078 0)"/>
       <use xlink:href="#DejaVuSans-34" transform="translate(226.953125 0)"/>
       <use xlink:href="#DejaVuSans-20" transform="translate(290.576172 0)"/>
       <use xlink:href="#DejaVuSans-32" transform="translate(322.363281 0)"/>
       <use xlink:href="#DejaVuSans-30" transform="translate(385.986328 0)"/>
      </g>
     </g>
    </g>
    <g id="xtick_8">
     <g id="line2d_15">
      <path d="M 550.586111 384.48 
L 550.586111 51.84 
" clip-path="url(#p851bfaa2d1)" style="fill: none; stroke: #b0b0b0; stroke-width: 0.8; stroke-linecap: square"/>
     </g>
     <g id="line2d_16">
      <g>
       <use xlink:href="#mcf36fde11a" x="550.586111" y="384.48" style="stroke: #000000; stroke-width: 0.8"/>
      </g>
     </g>
     <g id="text_8">
      <!-- 01-14 21 -->
      <g transform="translate(528.105642 399.078438) scale(0.1 -0.1)">
       <use xlink:href="#DejaVuSans-30"/>
       <use xlink:href="#DejaVuSans-31" transform="translate(63.623047 0)"/>
       <use xlink:href="#DejaVuSans-2d" transform="translate(127.246094 0)"/>
       <use xlink:href="#DejaVuSans-31" transform="translate(163.330078 0)"/>
       <use xlink:href="#DejaVuSans-34" transform="translate(226.953125 0)"/>
       <use xlink:href="#DejaVuSans-20" transform="translate(290.576172 0)"/>
       <use xlink:href="#DejaVuSans-32" transform="translate(322.363281 0)"/>
       <use xlink:href="#DejaVuSans-31" transform="translate(385.986328 0)"/>
      </g>
     </g>
    </g>
    <g id="xtick_9">
     <g id="line2d_17">
      <path d="M 609.005235 384.48 
L 609.005235 51.84 
" clip-path="url(#p851bfaa2d1)" style="fill: none; stroke: #b0b0b0; stroke-width: 0.8; stroke-linecap: square"/>
     </g>
     <g id="line2d_18">
      <g>
       <use xlink:href="#mcf36fde11a" x="609.005235" y="384.48" style="stroke: #000000; stroke-width: 0.8"/>
      </g>
     </g>
     <g id="text_9">
      <!-- 01-14 22 -->
      <g transform="translate(586.524766 399.078438) scale(0.1 -0.1)">
       <use xlink:href="#DejaVuSans-30"/>
       <use xlink:href="#DejaVuSans-31" transform="translate(63.623047 0)"/>
       <use xlink:href="#DejaVuSans-2d" transform="translate(127.246094 0)"/>
       <use xlink:href="#DejaVuSans-31" transform="translate(163.330078 0)"/>
       <use xlink:href="#DejaVuSans-34" transform="translate(226.953125 0)"/>
       <use xlink:href="#DejaVuSans-20" transform="translate(290.576172 0)"/>
       <use xlink:href="#DejaVuSans-32" transform="translate(322.363281 0)"/>
       <use xlink:href="#DejaVuSans-32" transform="translate(385.986328 0)"/>
      </g>
     </g>
    </g>
    <g id="text_10">
     <!-- Date and Time -->
     <g transform="translate(332.230469 412.756563) scale(0.1 -0.1)">
      <defs>
       <path id="DejaVuSans-44" d="M 1259 4147 
L 1259 519 
L 2022 519 
Q 2988 519 3436 956 
Q 3884 1394 3884 2338 
Q 3884 3275 3436 3711 
Q 2988 4147 2022 4147 
L 1259 4147 
z
M 628 4666 
L 1925 4666 
Q 3281 4666 3915 4102 
Q 4550 3538 4550 2338 
Q 4550 1131 3912 565 
Q 3275 0 1925 0 
L 628 0 
L 628 4666 
z
" transform="scale(0.015625)"/>
       <path id="DejaVuSans-61" d="M 2194 1759 
Q 1497 1759 1228 1600 
Q 959 1441 959 1056 
Q 959 750 1161 570 
Q 1363 391 1709 391 
Q 2188 391 2477 730 
Q 2766 1069 2766 1631 
L 2766 1759 
L 2194 1759 
z
M 3341 1997 
L 3341 0 
L 2766 0 
L 2766 531 
Q 2569 213 2275 61 
Q 1981 -91 1556 -91 
Q 1019 -91 701 211 
Q 384 513 384 1019 
Q 384 1609 779 1909 
Q 1175 2209 1959 2209 
L 2766 2209 
L 2766 2266 
Q 2766 2663 2505 2880 
Q 2244 3097 1772 3097 
Q 1472 3097 1187 3025 
Q 903 2953 641 2809 
L 641 3341 
Q 956 3463 1253 3523 
Q 1550 3584 1831 3584 
Q 2591 3584 2966 3190 
Q 3341 2797 3341 1997 
z
" transform="scale(0.015625)"/>
       <path id="DejaVuSans-74" d="M 1172 4494 
L 1172 3500 
L 2356 3500 
L 2356 3053 
L 1172 3053 
L 1172 1153 
Q 1172 725 1289 603 
Q 1406 481 1766 481 
L 2356 481 
L 2356 0 
L 1766 0 
Q 1100 0 847 248 
Q 594 497 594 1153 
L 594 3053 
L 172 3053 
L 172 3500 
L 594 3500 
L 594 4494 
L 1172 4494 
z
" transform="scale(0.015625)"/>
       <path id="DejaVuSans-65" d="M 3597 1894 
L 3597 1613 
L 953 1613 
Q 991 1019 1311 708 
Q 1631 397 2203 397 
Q 2534 397 2845 478 
Q 3156 559 3463 722 
L 3463 178 
Q 3153 47 2828 -22 
Q 2503 -91 2169 -91 
Q 1331 -91 842 396 
Q 353 884 353 1716 
Q 353 2575 817 3079 
Q 1281 3584 2069 3584 
Q 2775 3584 3186 3129 
Q 3597 2675 3597 1894 
z
M 3022 2063 
Q 3016 2534 2758 2815 
Q 2500 3097 2075 3097 
Q 1594 3097 1305 2825 
Q 1016 2553 972 2059 
L 3022 2063 
z
" transform="scale(0.015625)"/>
       <path id="DejaVuSans-6e" d="M 3513 2113 
L 3513 0 
L 2938 0 
L 2938 2094 
Q 2938 2591 2744 2837 
Q 2550 3084 2163 3084 
Q 1697 3084 1428 2787 
Q 1159 2491 1159 1978 
L 1159 0 
L 581 0 
L 581 3500 
L 1159 3500 
L 1159 2956 
Q 1366 3272 1645 3428 
Q 1925 3584 2291 3584 
Q 2894 3584 3203 3211 
Q 3513 2838 3513 2113 
z
" transform="scale(0.015625)"/>
       <path id="DejaVuSans-64" d="M 2906 2969 
L 2906 4863 
L 3481 4863 
L 3481 0 
L 2906 0 
L 2906 525 
Q 2725 213 2448 61 
Q 2172 -91 1784 -91 
Q 1150 -91 751 415 
Q 353 922 353 1747 
Q 353 2572 751 3078 
Q 1150 3584 1784 3584 
Q 2172 3584 2448 3432 
Q 2725 3281 2906 2969 
z
M 947 1747 
Q 947 1113 1208 752 
Q 1469 391 1925 391 
Q 2381 391 2643 752 
Q 2906 1113 2906 1747 
Q 2906 2381 2643 2742 
Q 2381 3103 1925 3103 
Q 1469 3103 1208 2742 
Q 947 2381 947 1747 
z
" transform="scale(0.015625)"/>
       <path id="DejaVuSans-54" d="M -19 4666 
L 3928 4666 
L 3928 4134 
L 2272 4134 
L 2272 0 
L 1638 0 
L 1638 4134 
L -19 4134 
L -19 4666 
z
" transform="scale(0.015625)"/>
       <path id="DejaVuSans-69" d="M 603 3500 
L 1178 3500 
L 1178 0 
L 603 0 
L 603 3500 
z
M 603 4863 
L 1178 4863 
L 1178 4134 
L 603 4134 
L 603 4863 
z
" transform="scale(0.015625)"/>
       <path id="DejaVuSans-6d" d="M 3328 2828 
Q 3544 3216 3844 3400 
Q 4144 3584 4550 3584 
Q 5097 3584 5394 3201 
Q 5691 2819 5691 2113 
L 5691 0 
L 5113 0 
L 5113 2094 
Q 5113 2597 4934 2840 
Q 4756 3084 4391 3084 
Q 3944 3084 3684 2787 
Q 3425 2491 3425 1978 
L 3425 0 
L 2847 0 
L 2847 2094 
Q 2847 2600 2669 2842 
Q 2491 3084 2119 3084 
Q 1678 3084 1418 2786 
Q 1159 2488 1159 1978 
L 1159 0 
L 581 0 
L 581 3500 
L 1159 3500 
L 1159 2956 
Q 1356 3278 1631 3431 
Q 1906 3584 2284 3584 
Q 2666 3584 2933 3390 
Q 3200 3197 3328 2828 
z
" transform="scale(0.015625)"/>
      </defs>
      <use xlink:href="#DejaVuSans-44"/>
      <use xlink:href="#DejaVuSans-61" transform="translate(77.001953 0)"/>
      <use xlink:href="#DejaVuSans-74" transform="translate(138.28125 0)"/>
      <use xlink:href="#DejaVuSans-65" transform="translate(177.490234 0)"/>
      <use xlink:href="#DejaVuSans-20" transform="translate(239.013672 0)"/>
      <use xlink:href="#DejaVuSans-61" transform="translate(270.800781 0)"/>
      <use xlink:href="#DejaVuSans-6e" transform="translate(332.080078 0)"/>
      <use xlink:href="#DejaVuSans-64" transform="translate(395.458984 0)"/>
      <use xlink:href="#DejaVuSans-20" transform="translate(458.935547 0)"/>
      <use xlink:href="#DejaVuSans-54" transform="translate(490.722656 0)"/>
      <use xlink:href="#DejaVuSans-69" transform="translate(548.681641 0)"/>
      <use xlink:href="#DejaVuSans-6d" transform="translate(576.464844 0)"/>
      <use xlink:href="#DejaVuSans-65" transform="translate(673.876953 0)"/>
     </g>
    </g>
   </g>
   <g id="matplotlib.axis_2">
    <g id="ytick_1">
     <g id="line2d_19">
      <path d="M 90 370.361325 
L 648 370.361325 
" clip-path="url(#p851bfaa2d1)" style="fill: none; stroke: #b0b0b0; stroke-width: 0.8; stroke-linecap: square"/>
     </g>
     <g id="line2d_20">
      <defs>
       <path id="m6ab960ea0b" d="M 0 0 
L -3.5 0 
" style="stroke: #000000; stroke-width: 0.8"/>
      </defs>
      <g>
       <use xlink:href="#m6ab960ea0b" x="90" y="370.361325" style="stroke: #000000; stroke-width: 0.8"/>
      </g>
     </g>
     <g id="text_11">
      <!-- 0 -->
      <g transform="translate(76.6375 374.160543) scale(0.1 -0.1)">
       <use xlink:href="#DejaVuSans-30"/>
      </g>
     </g>
    </g>
    <g id="ytick_2">
     <g id="line2d_21">
      <path d="M 90 320.295099 
L 648 320.295099 
" clip-path="url(#p851bfaa2d1)" style="fill: none; stroke: #b0b0b0; stroke-width: 0.8; stroke-linecap: square"/>
     </g>
     <g id="line2d_22">
      <g>
       <use xlink:href="#m6ab960ea0b" x="90" y="320.295099" style="stroke: #000000; stroke-width: 0.8"/>
      </g>
     </g>
     <g id="text_12">
      <!-- 50 -->
      <g transform="translate(70.275 324.094318) scale(0.1 -0.1)">
       <use xlink:href="#DejaVuSans-35"/>
       <use xlink:href="#DejaVuSans-30" transform="translate(63.623047 0)"/>
      </g>
     </g>
    </g>
    <g id="ytick_3">
     <g id="line2d_23">
      <path d="M 90 270.228874 
L 648 270.228874 
" clip-path="url(#p851bfaa2d1)" style="fill: none; stroke: #b0b0b0; stroke-width: 0.8; stroke-linecap: square"/>
     </g>
     <g id="line2d_24">
      <g>
       <use xlink:href="#m6ab960ea0b" x="90" y="270.228874" style="stroke: #000000; stroke-width: 0.8"/>
      </g>
     </g>
     <g id="text_13">
      <!-- 100 -->
      <g transform="translate(63.9125 274.028093) scale(0.1 -0.1)">
       <use xlink:href="#DejaVuSans-31"/>
       <use xlink:href="#DejaVuSans-30" transform="translate(63.623047 0)"/>
       <use xlink:href="#DejaVuSans-30" transform="translate(127.246094 0)"/>
      </g>
     </g>
    </g>
    <g id="ytick_4">
     <g id="line2d_25">
      <path d="M 90 220.162649 
L 648 220.162649 
" clip-path="url(#p851bfaa2d1)" style="fill: none; stroke: #b0b0b0; stroke-width: 0.8; stroke-linecap: square"/>
     </g>
     <g id="line2d_26">
      <g>
       <use xlink:href="#m6ab960ea0b" x="90" y="220.162649" style="stroke: #000000; stroke-width: 0.8"/>
      </g>
     </g>
     <g id="text_14">
      <!-- 150 -->
      <g transform="translate(63.9125 223.961868) scale(0.1 -0.1)">
       <use xlink:href="#DejaVuSans-31"/>
       <use xlink:href="#DejaVuSans-35" transform="translate(63.623047 0)"/>
       <use xlink:href="#DejaVuSans-30" transform="translate(127.246094 0)"/>
      </g>
     </g>
    </g>
    <g id="ytick_5">
     <g id="line2d_27">
      <path d="M 90 170.096424 
L 648 170.096424 
" clip-path="url(#p851bfaa2d1)" style="fill: none; stroke: #b0b0b0; stroke-width: 0.8; stroke-linecap: square"/>
     </g>
     <g id="line2d_28">
      <g>
       <use xlink:href="#m6ab960ea0b" x="90" y="170.096424" style="stroke: #000000; stroke-width: 0.8"/>
      </g>
     </g>
     <g id="text_15">
      <!-- 200 -->
      <g transform="translate(63.9125 173.895643) scale(0.1 -0.1)">
       <use xlink:href="#DejaVuSans-32"/>
       <use xlink:href="#DejaVuSans-30" transform="translate(63.623047 0)"/>
       <use xlink:href="#DejaVuSans-30" transform="translate(127.246094 0)"/>
      </g>
     </g>
    </g>
    <g id="ytick_6">
     <g id="line2d_29">
      <path d="M 90 120.030199 
L 648 120.030199 
" clip-path="url(#p851bfaa2d1)" style="fill: none; stroke: #b0b0b0; stroke-width: 0.8; stroke-linecap: square"/>
     </g>
     <g id="line2d_30">
      <g>
       <use xlink:href="#m6ab960ea0b" x="90" y="120.030199" style="stroke: #000000; stroke-width: 0.8"/>
      </g>
     </g>
     <g id="text_16">
      <!-- 250 -->
      <g transform="translate(63.9125 123.829417) scale(0.1 -0.1)">
       <use xlink:href="#DejaVuSans-32"/>
       <use xlink:href="#DejaVuSans-35" transform="translate(63.623047 0)"/>
       <use xlink:href="#DejaVuSans-30" transform="translate(127.246094 0)"/>
      </g>
     </g>
    </g>
    <g id="ytick_7">
     <g id="line2d_31">
      <path d="M 90 69.963974 
L 648 69.963974 
" clip-path="url(#p851bfaa2d1)" style="fill: none; stroke: #b0b0b0; stroke-width: 0.8; stroke-linecap: square"/>
     </g>
     <g id="line2d_32">
      <g>
       <use xlink:href="#m6ab960ea0b" x="90" y="69.963974" style="stroke: #000000; stroke-width: 0.8"/>
      </g>
     </g>
     <g id="text_17">
      <!-- 300 -->
      <g transform="translate(63.9125 73.763192) scale(0.1 -0.1)">
       <defs>
        <path id="DejaVuSans-33" d="M 2597 2516 
Q 3050 2419 3304 2112 
Q 3559 1806 3559 1356 
Q 3559 666 3084 287 
Q 2609 -91 1734 -91 
Q 1441 -91 1130 -33 
Q 819 25 488 141 
L 488 750 
Q 750 597 1062 519 
Q 1375 441 1716 441 
Q 2309 441 2620 675 
Q 2931 909 2931 1356 
Q 2931 1769 2642 2001 
Q 2353 2234 1838 2234 
L 1294 2234 
L 1294 2753 
L 1863 2753 
Q 2328 2753 2575 2939 
Q 2822 3125 2822 3475 
Q 2822 3834 2567 4026 
Q 2313 4219 1838 4219 
Q 1578 4219 1281 4162 
Q 984 4106 628 3988 
L 628 4550 
Q 988 4650 1302 4700 
Q 1616 4750 1894 4750 
Q 2613 4750 3031 4423 
Q 3450 4097 3450 3541 
Q 3450 3153 3228 2886 
Q 3006 2619 2597 2516 
z
" transform="scale(0.015625)"/>
       </defs>
       <use xlink:href="#DejaVuSans-33"/>
       <use xlink:href="#DejaVuSans-30" transform="translate(63.623047 0)"/>
       <use xlink:href="#DejaVuSans-30" transform="translate(127.246094 0)"/>
      </g>
     </g>
    </g>
    <g id="text_18">
     <!-- Votes -->
     <g transform="translate(57.832812 231.893594) rotate(-90) scale(0.1 -0.1)">
      <defs>
       <path id="DejaVuSans-56" d="M 1831 0 
L 50 4666 
L 709 4666 
L 2188 738 
L 3669 4666 
L 4325 4666 
L 2547 0 
L 1831 0 
z
" transform="scale(0.015625)"/>
       <path id="DejaVuSans-6f" d="M 1959 3097 
Q 1497 3097 1228 2736 
Q 959 2375 959 1747 
Q 959 1119 1226 758 
Q 1494 397 1959 397 
Q 2419 397 2687 759 
Q 2956 1122 2956 1747 
Q 2956 2369 2687 2733 
Q 2419 3097 1959 3097 
z
M 1959 3584 
Q 2709 3584 3137 3096 
Q 3566 2609 3566 1747 
Q 3566 888 3137 398 
Q 2709 -91 1959 -91 
Q 1206 -91 779 398 
Q 353 888 353 1747 
Q 353 2609 779 3096 
Q 1206 3584 1959 3584 
z
" transform="scale(0.015625)"/>
       <path id="DejaVuSans-73" d="M 2834 3397 
L 2834 2853 
Q 2591 2978 2328 3040 
Q 2066 3103 1784 3103 
Q 1356 3103 1142 2972 
Q 928 2841 928 2578 
Q 928 2378 1081 2264 
Q 1234 2150 1697 2047 
L 1894 2003 
Q 2506 1872 2764 1633 
Q 3022 1394 3022 966 
Q 3022 478 2636 193 
Q 2250 -91 1575 -91 
Q 1294 -91 989 -36 
Q 684 19 347 128 
L 347 722 
Q 666 556 975 473 
Q 1284 391 1588 391 
Q 1994 391 2212 530 
Q 2431 669 2431 922 
Q 2431 1156 2273 1281 
Q 2116 1406 1581 1522 
L 1381 1569 
Q 847 1681 609 1914 
Q 372 2147 372 2553 
Q 372 3047 722 3315 
Q 1072 3584 1716 3584 
Q 2034 3584 2315 3537 
Q 2597 3491 2834 3397 
z
" transform="scale(0.015625)"/>
      </defs>
      <use xlink:href="#DejaVuSans-56"/>
      <use xlink:href="#DejaVuSans-6f" transform="translate(60.658203 0)"/>
      <use xlink:href="#DejaVuSans-74" transform="translate(121.839844 0)"/>
      <use xlink:href="#DejaVuSans-65" transform="translate(161.048828 0)"/>
      <use xlink:href="#DejaVuSans-73" transform="translate(222.572266 0)"/>
     </g>
    </g>
   </g>
   <g id="line2d_33">
    <path d="M 115.363636 352.337483 
L 125.100157 352.337483 
L 126.073809 351.336159 
L 135.81033 351.336159 
L 136.783982 349.33351 
L 145.54685 349.33351 
L 146.520503 348.332185 
L 151.388763 348.332185 
L 152.362415 347.330861 
L 156.257023 347.330861 
L 157.230675 346.329536 
L 160.151631 346.329536 
L 161.125284 345.328212 
L 174.756412 345.328212 
L 175.730065 344.326887 
L 186.440237 344.326887 
L 188.387541 342.324238 
L 190.334846 342.324238 
L 191.308498 341.322914 
L 200.071366 341.322914 
L 202.01867 339.320265 
L 213.702495 339.320265 
L 214.676147 338.31894 
L 217.597103 338.31894 
L 218.570756 337.317616 
L 219.544408 337.317616 
L 220.51806 336.316291 
L 246.806666 336.316291 
L 247.780318 335.314967 
L 259.464142 335.314967 
L 260.437794 334.313642 
L 267.253359 334.313642 
L 268.227011 333.312318 
L 269.200663 331.309669 
L 270.174315 331.309669 
L 272.121619 329.30702 
L 287.700052 329.30702 
L 288.673704 328.305695 
L 294.515617 328.305695 
L 295.489269 327.304371 
L 299.383877 327.304371 
L 300.357529 326.303046 
L 310.09405 326.303046 
L 311.067702 325.301722 
L 313.015006 325.301722 
L 313.988658 324.300397 
L 316.909614 324.300397 
L 317.883266 323.299073 
L 325.672483 323.299073 
L 326.646135 322.297748 
L 327.619787 322.297748 
L 328.593439 321.296424 
L 338.32996 321.296424 
L 339.303612 320.295099 
L 346.119176 320.295099 
L 347.092828 319.293775 
L 348.066481 319.293775 
L 350.013785 317.291126 
L 371.43413 317.291126 
L 372.407782 316.289801 
L 387.986215 316.289801 
L 388.959867 315.288477 
L 389.933519 315.288477 
L 390.907172 314.287152 
L 399.67004 314.287152 
L 400.643692 313.285828 
L 401.617344 313.285828 
L 402.590996 312.284503 
L 407.459257 312.284503 
L 408.432909 311.283179 
L 411.353865 311.283179 
L 413.301169 309.28053 
L 414.274821 309.28053 
L 415.248473 308.279205 
L 417.195777 308.279205 
L 418.169429 307.277881 
L 420.116734 307.277881 
L 421.090386 306.276556 
L 423.03769 306.276556 
L 424.011342 305.275232 
L 447.378991 305.275232 
L 448.352644 304.273907 
L 458.089164 304.273907 
L 459.062816 303.272583 
L 464.904729 303.272583 
L 465.878381 302.271258 
L 466.852033 302.271258 
L 467.825685 301.269934 
L 468.799337 301.269934 
L 472.693945 297.264636 
L 474.641249 297.264636 
L 475.614901 295.261987 
L 483.404118 295.261987 
L 485.351422 293.259338 
L 487.298726 293.259338 
L 488.272378 292.258013 
L 492.166987 292.258013 
L 493.140639 291.256689 
L 499.956203 291.256689 
L 500.929855 290.255364 
L 502.877159 290.255364 
L 503.850811 289.25404 
L 509.692724 289.25404 
L 511.640028 287.251391 
L 518.455592 287.251391 
L 519.429244 286.250066 
L 522.350201 286.250066 
L 523.323853 285.248742 
L 525.271157 285.248742 
L 526.244809 283.246093 
L 530.139417 283.246093 
L 531.113069 281.243444 
L 532.086721 280.242119 
L 535.98133 280.242119 
L 536.954982 278.23947 
L 543.770546 278.23947 
L 544.744198 277.238146 
L 548.638806 277.238146 
L 549.612459 276.236821 
L 552.533415 276.236821 
L 553.507067 275.235497 
L 554.480719 273.232848 
L 556.428023 273.232848 
L 557.401675 272.231523 
L 572.980108 272.231523 
L 574.927412 270.228874 
L 588.558541 270.228874 
L 589.532193 269.22755 
L 595.374106 269.22755 
L 596.347758 268.226225 
L 609.005235 268.226225 
L 609.978887 267.224901 
L 618.741755 267.224901 
L 619.715407 266.223576 
L 622.636364 266.223576 
L 622.636364 266.223576 
" clip-path="url(#p851bfaa2d1)" style="fill: none; stroke: #1f77b4; stroke-width: 1.5; stroke-linecap: square"/>
   </g>
   <g id="line2d_34">
    <path d="M 115.363636 288.252715 
L 116.337288 287.251391 
L 119.258245 287.251391 
L 120.231897 286.250066 
L 121.205549 286.250066 
L 122.179201 285.248742 
L 123.152853 285.248742 
L 125.100157 283.246093 
L 126.073809 281.243444 
L 127.047461 281.243444 
L 128.994765 279.240795 
L 129.968417 279.240795 
L 130.942069 275.235497 
L 131.915722 273.232848 
L 132.889374 269.22755 
L 133.863026 266.223576 
L 136.783982 266.223576 
L 137.757634 263.219603 
L 138.731286 261.216954 
L 140.67859 259.214305 
L 141.652242 257.211656 
L 143.599546 255.209007 
L 144.573198 253.206358 
L 147.494155 253.206358 
L 148.467807 248.199735 
L 149.441459 246.197086 
L 150.415111 245.195762 
L 151.388763 243.193113 
L 152.362415 242.191788 
L 153.336067 242.191788 
L 154.309719 239.187815 
L 155.283371 239.187815 
L 156.257023 237.185166 
L 157.230675 236.183841 
L 158.204327 236.183841 
L 159.177979 235.182517 
L 161.125284 235.182517 
L 162.098936 234.181192 
L 164.04624 234.181192 
L 165.019892 232.178543 
L 165.993544 232.178543 
L 166.967196 231.177219 
L 170.861804 231.177219 
L 171.835456 230.175894 
L 174.756412 230.175894 
L 175.730065 229.17457 
L 176.703717 229.17457 
L 177.677369 227.171921 
L 178.651021 227.171921 
L 179.624673 225.169272 
L 180.598325 224.167947 
L 183.519281 224.167947 
L 184.492933 222.165298 
L 185.466585 221.163974 
L 186.440237 218.16 
L 188.387541 216.157351 
L 196.176758 216.157351 
L 197.15041 213.153377 
L 198.124062 213.153377 
L 200.071366 211.150728 
L 201.045018 211.150728 
L 203.965975 208.146755 
L 205.913279 208.146755 
L 206.886931 207.14543 
L 208.834235 207.14543 
L 211.755191 204.141457 
L 213.702495 204.141457 
L 214.676147 203.140132 
L 219.544408 203.140132 
L 220.51806 202.138808 
L 222.465364 202.138808 
L 223.439016 201.137483 
L 235.122841 201.137483 
L 236.096493 199.134834 
L 238.043797 199.134834 
L 239.991101 197.132185 
L 240.964753 197.132185 
L 241.938405 196.130861 
L 247.780318 196.130861 
L 250.701274 193.126887 
L 251.674926 193.126887 
L 252.648578 192.125563 
L 253.62223 190.122914 
L 254.595882 190.122914 
L 255.569534 189.121589 
L 256.543186 189.121589 
L 260.437794 185.116291 
L 262.385099 185.116291 
L 263.358751 183.113642 
L 266.279707 183.113642 
L 267.253359 182.112318 
L 270.174315 182.112318 
L 271.147967 181.110993 
L 272.121619 181.110993 
L 273.095271 178.10702 
L 276.016228 178.10702 
L 276.98988 177.105695 
L 277.963532 175.103046 
L 279.910836 175.103046 
L 280.884488 174.101722 
L 282.831792 174.101722 
L 283.805444 173.100397 
L 284.779096 173.100397 
L 289.647356 168.093775 
L 291.594661 168.093775 
L 294.515617 165.089801 
L 297.436573 165.089801 
L 298.410225 163.087152 
L 299.383877 163.087152 
L 300.357529 162.085828 
L 303.278485 162.085828 
L 304.252137 161.084503 
L 313.015006 161.084503 
L 313.988658 160.083179 
L 320.804223 160.083179 
L 321.777875 159.081854 
L 323.725179 159.081854 
L 325.672483 157.079205 
L 330.540743 157.079205 
L 331.514395 156.077881 
L 336.382656 156.077881 
L 339.303612 153.073907 
L 351.961089 153.073907 
L 352.934741 151.071258 
L 353.908393 150.069934 
L 377.276043 150.069934 
L 378.249695 149.068609 
L 384.091607 149.068609 
L 386.038911 147.06596 
L 387.986215 147.06596 
L 388.959867 146.064636 
L 389.933519 146.064636 
L 391.880824 144.061987 
L 392.854476 144.061987 
L 393.828128 143.060662 
L 394.80178 143.060662 
L 396.749084 139.055364 
L 397.722736 138.05404 
L 402.590996 138.05404 
L 403.564648 135.050066 
L 404.5383 133.047417 
L 406.485605 133.047417 
L 408.432909 131.044768 
L 413.301169 131.044768 
L 415.248473 129.042119 
L 417.195777 129.042119 
L 418.169429 128.040795 
L 420.116734 128.040795 
L 421.090386 127.03947 
L 422.064038 127.03947 
L 423.03769 126.038146 
L 424.011342 126.038146 
L 424.984994 125.036821 
L 425.958646 125.036821 
L 426.932298 124.035497 
L 428.879602 124.035497 
L 429.853254 122.032848 
L 434.721515 122.032848 
L 436.668819 120.030199 
L 446.405339 120.030199 
L 447.378991 119.028874 
L 448.352644 119.028874 
L 449.326296 118.02755 
L 450.299948 118.02755 
L 453.220904 115.023576 
L 455.168208 115.023576 
L 456.14186 114.022252 
L 475.614901 114.022252 
L 477.562206 112.019603 
L 481.456814 112.019603 
L 482.430466 111.018278 
L 483.404118 111.018278 
L 484.37777 110.016954 
L 485.351422 110.016954 
L 486.325074 109.015629 
L 507.74542 109.015629 
L 508.719072 108.014305 
L 528.192113 108.014305 
L 529.165765 106.011656 
L 535.98133 106.011656 
L 537.928634 104.009007 
L 539.875938 104.009007 
L 540.84959 103.007682 
L 542.796894 103.007682 
L 544.744198 101.005033 
L 546.691502 101.005033 
L 547.665154 99.002384 
L 555.454371 99.002384 
L 556.428023 98.00106 
L 561.296283 98.00106 
L 562.269935 96.999735 
L 568.111848 96.999735 
L 569.0855 95.998411 
L 575.901064 95.998411 
L 577.848369 93.995762 
L 578.822021 93.995762 
L 579.795673 92.994437 
L 585.637585 92.994437 
L 586.611237 91.993113 
L 590.505845 91.993113 
L 591.479497 90.991788 
L 592.45315 90.991788 
L 593.426802 89.990464 
L 608.031583 89.990464 
L 610.952539 86.98649 
L 621.662712 86.98649 
L 622.636364 85.985166 
L 622.636364 85.985166 
" clip-path="url(#p851bfaa2d1)" style="fill: none; stroke: #ff7f0e; stroke-width: 1.5; stroke-linecap: square"/>
   </g>
   <g id="line2d_35">
    <path d="M 115.363636 339.320265 
L 119.258245 339.320265 
L 120.231897 337.317616 
L 122.179201 337.317616 
L 123.152853 336.316291 
L 124.126505 334.313642 
L 125.100157 333.312318 
L 126.073809 330.308344 
L 127.047461 328.305695 
L 128.021113 327.304371 
L 128.994765 327.304371 
L 129.968417 325.301722 
L 130.942069 322.297748 
L 134.836678 322.297748 
L 135.81033 321.296424 
L 136.783982 321.296424 
L 137.757634 319.293775 
L 140.67859 319.293775 
L 142.625894 317.291126 
L 146.520503 317.291126 
L 147.494155 316.289801 
L 151.388763 316.289801 
L 154.309719 313.285828 
L 159.177979 313.285828 
L 160.151631 312.284503 
L 163.072588 312.284503 
L 164.04624 311.283179 
L 165.993544 311.283179 
L 166.967196 309.28053 
L 174.756412 309.28053 
L 175.730065 308.279205 
L 176.703717 306.276556 
L 177.677369 305.275232 
L 178.651021 305.275232 
L 179.624673 304.273907 
L 181.571977 304.273907 
L 182.545629 303.272583 
L 184.492933 303.272583 
L 185.466585 302.271258 
L 191.308498 302.271258 
L 192.28215 301.269934 
L 193.255802 301.269934 
L 194.229454 300.268609 
L 195.203106 300.268609 
L 196.176758 299.267285 
L 199.097714 299.267285 
L 200.071366 298.26596 
L 201.045018 296.263311 
L 205.913279 296.263311 
L 208.834235 293.259338 
L 211.755191 293.259338 
L 212.728843 292.258013 
L 216.623451 292.258013 
L 217.597103 291.256689 
L 218.570756 291.256689 
L 219.544408 290.255364 
L 221.491712 290.255364 
L 222.465364 289.25404 
L 225.38632 289.25404 
L 227.333624 287.251391 
L 228.307276 287.251391 
L 229.280928 286.250066 
L 237.070145 286.250066 
L 238.043797 284.247417 
L 239.017449 283.246093 
L 246.806666 283.246093 
L 247.780318 282.244768 
L 250.701274 282.244768 
L 251.674926 281.243444 
L 254.595882 281.243444 
L 255.569534 280.242119 
L 265.306055 280.242119 
L 266.279707 279.240795 
L 270.174315 279.240795 
L 271.147967 278.23947 
L 276.98988 278.23947 
L 277.963532 277.238146 
L 279.910836 277.238146 
L 280.884488 276.236821 
L 284.779096 276.236821 
L 286.7264 274.234172 
L 305.22579 274.234172 
L 306.199442 273.232848 
L 307.173094 273.232848 
L 308.146746 272.231523 
L 311.067702 272.231523 
L 312.041354 271.230199 
L 316.909614 271.230199 
L 317.883266 270.228874 
L 319.830571 270.228874 
L 320.804223 269.22755 
L 326.646135 269.22755 
L 327.619787 270.228874 
L 328.593439 269.22755 
L 335.409004 269.22755 
L 336.382656 268.226225 
L 344.171872 268.226225 
L 345.145524 267.224901 
L 347.092828 267.224901 
L 348.066481 266.223576 
L 349.040133 266.223576 
L 350.013785 265.222252 
L 356.829349 265.222252 
L 357.803001 264.220927 
L 363.644914 264.220927 
L 364.618566 263.219603 
L 379.223347 263.219603 
L 380.196999 262.218278 
L 401.617344 262.218278 
L 402.590996 261.216954 
L 412.327517 261.216954 
L 413.301169 260.215629 
L 428.879602 260.215629 
L 430.826906 258.21298 
L 448.352644 258.21298 
L 449.326296 257.211656 
L 450.299948 255.209007 
L 469.772989 255.209007 
L 470.746641 254.207682 
L 472.693945 254.207682 
L 473.667597 253.206358 
L 479.50951 253.206358 
L 480.483162 252.205033 
L 483.404118 252.205033 
L 485.351422 250.202384 
L 487.298726 250.202384 
L 488.272378 249.20106 
L 492.166987 249.20106 
L 493.140639 247.198411 
L 496.061595 247.198411 
L 497.035247 246.197086 
L 498.008899 246.197086 
L 499.956203 244.194437 
L 512.61368 244.194437 
L 513.587332 243.193113 
L 525.271157 243.193113 
L 526.244809 241.190464 
L 534.034025 241.190464 
L 535.98133 239.187815 
L 545.71785 239.187815 
L 548.638806 236.183841 
L 551.559763 236.183841 
L 552.533415 235.182517 
L 554.480719 235.182517 
L 555.454371 234.181192 
L 564.21724 234.181192 
L 565.190892 233.179868 
L 573.95376 233.179868 
L 574.927412 232.178543 
L 581.742977 232.178543 
L 583.690281 230.175894 
L 590.505845 230.175894 
L 591.479497 229.17457 
L 601.216018 229.17457 
L 602.18967 228.173245 
L 603.163322 228.173245 
L 604.136974 227.171921 
L 615.820799 227.171921 
L 616.794451 226.170596 
L 619.715407 226.170596 
L 620.689059 225.169272 
L 622.636364 225.169272 
L 622.636364 225.169272 
" clip-path="url(#p851bfaa2d1)" style="fill: none; stroke: #2ca02c; stroke-width: 1.5; stroke-linecap: square"/>
   </g>
   <g id="line2d_36">
    <path d="M 115.363636 369.36 
L 355.855697 369.36 
L 356.829349 368.358675 
L 563.243588 368.358675 
L 564.21724 367.357351 
L 622.636364 367.357351 
L 622.636364 367.357351 
" clip-path="url(#p851bfaa2d1)" style="fill: none; stroke: #d62728; stroke-width: 1.5; stroke-linecap: square"/>
   </g>
   <g id="line2d_37">
    <path d="M 115.363636 347.330861 
L 118.284593 347.330861 
L 119.258245 346.329536 
L 125.100157 346.329536 
L 126.073809 345.328212 
L 131.915722 345.328212 
L 132.889374 344.326887 
L 154.309719 344.326887 
L 155.283371 343.325563 
L 190.334846 343.325563 
L 192.28215 341.322914 
L 200.071366 341.322914 
L 201.045018 340.321589 
L 204.939627 340.321589 
L 205.913279 339.320265 
L 207.860583 339.320265 
L 208.834235 338.31894 
L 234.149189 338.31894 
L 235.122841 337.317616 
L 275.042575 337.317616 
L 276.016228 336.316291 
L 402.590996 336.316291 
L 403.564648 335.314967 
L 404.5383 335.314967 
L 405.511953 334.313642 
L 466.852033 334.313642 
L 467.825685 333.312318 
L 622.636364 333.312318 
L 622.636364 333.312318 
" clip-path="url(#p851bfaa2d1)" style="fill: none; stroke: #9467bd; stroke-width: 1.5; stroke-linecap: square"/>
   </g>
   <g id="line2d_38">
    <path d="M 115.363636 355.341457 
L 116.337288 355.341457 
L 117.310941 354.340132 
L 130.942069 354.340132 
L 131.915722 353.338808 
L 143.599546 353.338808 
L 144.573198 352.337483 
L 159.177979 352.337483 
L 161.125284 350.334834 
L 171.835456 350.334834 
L 172.809108 349.33351 
L 202.01867 349.33351 
L 202.992322 348.332185 
L 211.755191 348.332185 
L 212.728843 347.330861 
L 229.280928 347.330861 
L 230.25458 346.329536 
L 245.833013 346.329536 
L 246.806666 345.328212 
L 250.701274 345.328212 
L 251.674926 344.326887 
L 260.437794 344.326887 
L 261.411447 343.325563 
L 284.779096 343.325563 
L 285.752748 342.324238 
L 291.594661 342.324238 
L 292.568313 341.322914 
L 298.410225 341.322914 
L 299.383877 340.321589 
L 303.278485 340.321589 
L 304.252137 339.320265 
L 340.277264 339.320265 
L 341.250916 338.31894 
L 369.486826 338.31894 
L 370.460478 337.317616 
L 426.932298 337.317616 
L 427.90595 336.316291 
L 455.168208 336.316291 
L 456.14186 335.314967 
L 468.799337 335.314967 
L 469.772989 334.313642 
L 622.636364 334.313642 
L 622.636364 334.313642 
" clip-path="url(#p851bfaa2d1)" style="fill: none; stroke: #8c564b; stroke-width: 1.5; stroke-linecap: square"/>
   </g>
   <g id="line2d_39">
    <path d="M 115.363636 281.243444 
L 119.258245 281.243444 
L 120.231897 280.242119 
L 124.126505 280.242119 
L 126.073809 278.23947 
L 127.047461 278.23947 
L 128.021113 277.238146 
L 128.994765 277.238146 
L 129.968417 276.236821 
L 131.915722 276.236821 
L 132.889374 275.235497 
L 135.81033 275.235497 
L 136.783982 274.234172 
L 138.731286 274.234172 
L 139.704938 273.232848 
L 140.67859 273.232848 
L 141.652242 272.231523 
L 143.599546 272.231523 
L 145.54685 270.228874 
L 149.441459 270.228874 
L 150.415111 269.22755 
L 153.336067 269.22755 
L 155.283371 267.224901 
L 157.230675 267.224901 
L 158.204327 266.223576 
L 160.151631 266.223576 
L 161.125284 265.222252 
L 162.098936 263.219603 
L 163.072588 260.215629 
L 165.019892 260.215629 
L 165.993544 259.214305 
L 170.861804 259.214305 
L 172.809108 257.211656 
L 173.78276 255.209007 
L 174.756412 254.207682 
L 175.730065 254.207682 
L 176.703717 252.205033 
L 180.598325 252.205033 
L 181.571977 251.203709 
L 182.545629 251.203709 
L 184.492933 249.20106 
L 185.466585 249.20106 
L 186.440237 248.199735 
L 187.413889 248.199735 
L 189.361194 246.197086 
L 191.308498 246.197086 
L 192.28215 244.194437 
L 196.176758 244.194437 
L 198.124062 242.191788 
L 200.071366 242.191788 
L 201.045018 241.190464 
L 202.01867 239.187815 
L 204.939627 239.187815 
L 205.913279 238.18649 
L 206.886931 238.18649 
L 207.860583 236.183841 
L 208.834235 236.183841 
L 209.807887 235.182517 
L 210.781539 235.182517 
L 211.755191 234.181192 
L 215.649799 234.181192 
L 217.597103 232.178543 
L 218.570756 232.178543 
L 219.544408 230.175894 
L 220.51806 230.175894 
L 221.491712 229.17457 
L 222.465364 229.17457 
L 223.439016 228.173245 
L 226.359972 228.173245 
L 227.333624 227.171921 
L 228.307276 227.171921 
L 232.201884 223.166623 
L 233.175537 221.163974 
L 235.122841 221.163974 
L 237.070145 217.158675 
L 239.017449 217.158675 
L 240.964753 215.156026 
L 241.938405 215.156026 
L 242.912057 213.153377 
L 243.885709 213.153377 
L 244.859361 212.152053 
L 245.833013 212.152053 
L 246.806666 211.150728 
L 248.75397 211.150728 
L 249.727622 210.149404 
L 250.701274 210.149404 
L 251.674926 209.148079 
L 255.569534 209.148079 
L 256.543186 204.141457 
L 257.516838 204.141457 
L 258.49049 203.140132 
L 261.411447 203.140132 
L 262.385099 202.138808 
L 271.147967 202.138808 
L 272.121619 200.136159 
L 276.016228 200.136159 
L 276.98988 199.134834 
L 286.7264 199.134834 
L 287.700052 197.132185 
L 288.673704 196.130861 
L 293.541965 196.130861 
L 294.515617 195.129536 
L 301.331181 195.129536 
L 302.304833 194.128212 
L 303.278485 194.128212 
L 304.252137 193.126887 
L 310.09405 193.126887 
L 312.041354 191.124238 
L 318.856919 191.124238 
L 320.804223 189.121589 
L 321.777875 189.121589 
L 322.751527 188.120265 
L 328.593439 188.120265 
L 329.567091 187.11894 
L 332.488047 187.11894 
L 333.4617 186.117616 
L 334.435352 184.114967 
L 337.356308 184.114967 
L 338.32996 183.113642 
L 339.303612 183.113642 
L 341.250916 181.110993 
L 345.145524 181.110993 
L 346.119176 180.109669 
L 350.013785 180.109669 
L 350.987437 179.108344 
L 353.908393 179.108344 
L 354.882045 178.10702 
L 362.671262 178.10702 
L 364.618566 176.104371 
L 369.486826 176.104371 
L 370.460478 175.103046 
L 374.355086 175.103046 
L 379.223347 170.096424 
L 381.170651 170.096424 
L 382.144303 169.095099 
L 383.117955 169.095099 
L 384.091607 167.09245 
L 386.038911 165.089801 
L 387.986215 161.084503 
L 389.933519 161.084503 
L 391.880824 157.079205 
L 393.828128 157.079205 
L 394.80178 155.076556 
L 396.749084 153.073907 
L 399.67004 153.073907 
L 400.643692 152.072583 
L 401.617344 152.072583 
L 403.564648 150.069934 
L 407.459257 150.069934 
L 408.432909 149.068609 
L 410.380213 149.068609 
L 411.353865 148.067285 
L 416.222125 148.067285 
L 417.195777 146.064636 
L 418.169429 145.063311 
L 419.143081 145.063311 
L 420.116734 144.061987 
L 422.064038 144.061987 
L 423.03769 143.060662 
L 424.984994 143.060662 
L 425.958646 141.058013 
L 427.90595 141.058013 
L 428.879602 140.056689 
L 429.853254 140.056689 
L 430.826906 139.055364 
L 435.695167 139.055364 
L 436.668819 138.05404 
L 441.537079 138.05404 
L 442.510731 137.052715 
L 443.484383 137.052715 
L 444.458035 135.050066 
L 446.405339 133.047417 
L 447.378991 130.043444 
L 448.352644 129.042119 
L 449.326296 129.042119 
L 450.299948 128.040795 
L 451.2736 128.040795 
L 452.247252 127.03947 
L 456.14186 127.03947 
L 457.115512 126.038146 
L 459.062816 126.038146 
L 460.036468 125.036821 
L 461.983772 125.036821 
L 463.931077 123.034172 
L 466.852033 123.034172 
L 467.825685 122.032848 
L 472.693945 122.032848 
L 473.667597 120.030199 
L 478.535858 120.030199 
L 479.50951 119.028874 
L 482.430466 119.028874 
L 483.404118 117.026225 
L 487.298726 117.026225 
L 488.272378 116.024901 
L 497.035247 116.024901 
L 498.008899 115.023576 
L 499.956203 115.023576 
L 500.929855 114.022252 
L 507.74542 114.022252 
L 508.719072 113.020927 
L 509.692724 113.020927 
L 510.666376 112.019603 
L 511.640028 112.019603 
L 512.61368 111.018278 
L 518.455592 111.018278 
L 520.402897 109.015629 
L 534.034025 109.015629 
L 535.007678 108.014305 
L 535.98133 108.014305 
L 537.928634 106.011656 
L 538.902286 106.011656 
L 539.875938 105.010331 
L 551.559763 105.010331 
L 552.533415 104.009007 
L 553.507067 102.006358 
L 555.454371 102.006358 
L 556.428023 101.005033 
L 561.296283 101.005033 
L 562.269935 100.003709 
L 563.243588 100.003709 
L 565.190892 98.00106 
L 570.059152 98.00106 
L 571.032804 96.999735 
L 573.95376 96.999735 
L 574.927412 95.998411 
L 576.874716 95.998411 
L 577.848369 94.997086 
L 579.795673 94.997086 
L 580.769325 93.995762 
L 581.742977 93.995762 
L 582.716629 91.993113 
L 589.532193 91.993113 
L 590.505845 88.989139 
L 591.479497 86.98649 
L 592.45315 86.98649 
L 596.347758 82.981192 
L 597.32141 80.978543 
L 599.268714 80.978543 
L 600.242366 78.975894 
L 608.031583 78.975894 
L 609.978887 76.973245 
L 610.952539 74.970596 
L 611.926191 73.969272 
L 614.847147 73.969272 
L 615.820799 71.966623 
L 616.794451 70.965298 
L 617.768103 70.965298 
L 618.741755 67.961325 
L 619.715407 66.96 
L 622.636364 66.96 
L 622.636364 66.96 
" clip-path="url(#p851bfaa2d1)" style="fill: none; stroke: #e377c2; stroke-width: 1.5; stroke-linecap: square"/>
   </g>
   <g id="line2d_40">
    <path d="M 115.363636 343.325563 
L 116.337288 343.325563 
L 118.284593 341.322914 
L 123.152853 341.322914 
L 124.126505 340.321589 
L 125.100157 340.321589 
L 127.047461 338.31894 
L 128.994765 338.31894 
L 129.968417 337.317616 
L 132.889374 337.317616 
L 133.863026 336.316291 
L 134.836678 336.316291 
L 135.81033 335.314967 
L 136.783982 335.314967 
L 138.731286 333.312318 
L 141.652242 333.312318 
L 142.625894 332.310993 
L 144.573198 332.310993 
L 146.520503 330.308344 
L 148.467807 330.308344 
L 150.415111 328.305695 
L 151.388763 328.305695 
L 152.362415 327.304371 
L 153.336067 324.300397 
L 157.230675 324.300397 
L 161.125284 320.295099 
L 162.098936 320.295099 
L 164.04624 318.29245 
L 165.019892 318.29245 
L 165.993544 317.291126 
L 166.967196 317.291126 
L 167.940848 316.289801 
L 176.703717 316.289801 
L 177.677369 315.288477 
L 187.413889 315.288477 
L 189.361194 313.285828 
L 192.28215 313.285828 
L 193.255802 312.284503 
L 195.203106 312.284503 
L 197.15041 310.281854 
L 199.097714 310.281854 
L 200.071366 308.279205 
L 202.992322 308.279205 
L 203.965975 306.276556 
L 204.939627 305.275232 
L 209.807887 305.275232 
L 210.781539 304.273907 
L 211.755191 304.273907 
L 213.702495 302.271258 
L 218.570756 302.271258 
L 219.544408 301.269934 
L 220.51806 301.269934 
L 221.491712 300.268609 
L 227.333624 300.268609 
L 228.307276 299.267285 
L 231.228232 299.267285 
L 232.201884 298.26596 
L 233.175537 298.26596 
L 234.149189 295.261987 
L 235.122841 295.261987 
L 236.096493 293.259338 
L 237.070145 292.258013 
L 238.043797 292.258013 
L 239.991101 290.255364 
L 241.938405 290.255364 
L 242.912057 289.25404 
L 244.859361 289.25404 
L 245.833013 288.252715 
L 246.806666 288.252715 
L 247.780318 286.250066 
L 248.75397 286.250066 
L 249.727622 285.248742 
L 251.674926 285.248742 
L 253.62223 283.246093 
L 254.595882 283.246093 
L 255.569534 281.243444 
L 256.543186 280.242119 
L 263.358751 280.242119 
L 264.332403 278.23947 
L 267.253359 278.23947 
L 268.227011 277.238146 
L 269.200663 277.238146 
L 270.174315 276.236821 
L 273.095271 276.236821 
L 274.068923 275.235497 
L 278.937184 275.235497 
L 279.910836 274.234172 
L 281.85814 274.234172 
L 282.831792 273.232848 
L 287.700052 273.232848 
L 288.673704 272.231523 
L 297.436573 272.231523 
L 299.383877 270.228874 
L 300.357529 270.228874 
L 301.331181 269.22755 
L 302.304833 269.22755 
L 303.278485 268.226225 
L 304.252137 268.226225 
L 305.22579 267.224901 
L 307.173094 267.224901 
L 308.146746 266.223576 
L 309.120398 266.223576 
L 311.067702 264.220927 
L 313.988658 264.220927 
L 314.96231 263.219603 
L 317.883266 263.219603 
L 318.856919 262.218278 
L 325.672483 262.218278 
L 326.646135 261.216954 
L 327.619787 261.216954 
L 328.593439 260.215629 
L 332.488047 260.215629 
L 333.4617 258.21298 
L 339.303612 258.21298 
L 340.277264 257.211656 
L 341.250916 257.211656 
L 342.224568 255.209007 
L 347.092828 255.209007 
L 348.066481 254.207682 
L 353.908393 254.207682 
L 354.882045 253.206358 
L 367.539522 253.206358 
L 368.513174 252.205033 
L 383.117955 252.205033 
L 384.091607 251.203709 
L 388.959867 251.203709 
L 389.933519 250.202384 
L 390.907172 250.202384 
L 391.880824 249.20106 
L 392.854476 249.20106 
L 393.828128 247.198411 
L 394.80178 247.198411 
L 396.749084 245.195762 
L 403.564648 245.195762 
L 404.5383 244.194437 
L 405.511953 244.194437 
L 406.485605 243.193113 
L 407.459257 243.193113 
L 408.432909 242.191788 
L 413.301169 242.191788 
L 414.274821 241.190464 
L 423.03769 241.190464 
L 424.011342 240.189139 
L 428.879602 240.189139 
L 429.853254 239.187815 
L 434.721515 239.187815 
L 435.695167 238.18649 
L 437.642471 238.18649 
L 440.563427 235.182517 
L 442.510731 235.182517 
L 443.484383 233.179868 
L 448.352644 233.179868 
L 450.299948 231.177219 
L 452.247252 231.177219 
L 453.220904 230.175894 
L 454.194556 230.175894 
L 456.14186 228.173245 
L 462.957425 228.173245 
L 463.931077 227.171921 
L 465.878381 227.171921 
L 466.852033 226.170596 
L 474.641249 226.170596 
L 476.588553 224.167947 
L 479.50951 224.167947 
L 480.483162 223.166623 
L 481.456814 223.166623 
L 482.430466 220.162649 
L 483.404118 219.161325 
L 487.298726 219.161325 
L 488.272378 217.158675 
L 491.193334 217.158675 
L 492.166987 216.157351 
L 501.903507 216.157351 
L 502.877159 215.156026 
L 512.61368 215.156026 
L 514.560984 213.153377 
L 521.376549 213.153377 
L 522.350201 212.152053 
L 538.902286 212.152053 
L 542.796894 208.146755 
L 546.691502 208.146755 
L 547.665154 207.14543 
L 555.454371 207.14543 
L 556.428023 206.144106 
L 559.348979 206.144106 
L 560.322631 205.142781 
L 561.296283 205.142781 
L 562.269935 204.141457 
L 568.111848 204.141457 
L 570.059152 202.138808 
L 572.006456 202.138808 
L 572.980108 201.137483 
L 577.848369 201.137483 
L 578.822021 200.136159 
L 579.795673 200.136159 
L 580.769325 198.13351 
L 591.479497 198.13351 
L 593.426802 196.130861 
L 596.347758 196.130861 
L 597.32141 195.129536 
L 602.18967 195.129536 
L 603.163322 194.128212 
L 609.978887 194.128212 
L 610.952539 193.126887 
L 622.636364 193.126887 
L 622.636364 193.126887 
" clip-path="url(#p851bfaa2d1)" style="fill: none; stroke: #7f7f7f; stroke-width: 1.5; stroke-linecap: square"/>
   </g>
   <g id="line2d_41">
    <path d="M 115.363636 349.33351 
L 119.258245 349.33351 
L 120.231897 348.332185 
L 129.968417 348.332185 
L 130.942069 347.330861 
L 135.81033 347.330861 
L 136.783982 346.329536 
L 146.520503 346.329536 
L 147.494155 345.328212 
L 157.230675 345.328212 
L 158.204327 344.326887 
L 210.781539 344.326887 
L 211.755191 343.325563 
L 216.623451 343.325563 
L 217.597103 342.324238 
L 224.412668 342.324238 
L 225.38632 341.322914 
L 226.359972 341.322914 
L 227.333624 338.31894 
L 228.307276 337.317616 
L 230.25458 337.317616 
L 231.228232 336.316291 
L 240.964753 336.316291 
L 241.938405 335.314967 
L 250.701274 335.314967 
L 251.674926 334.313642 
L 262.385099 334.313642 
L 263.358751 333.312318 
L 275.042575 333.312318 
L 276.016228 332.310993 
L 280.884488 332.310993 
L 281.85814 331.309669 
L 313.015006 331.309669 
L 313.988658 330.308344 
L 315.935962 330.308344 
L 316.909614 329.30702 
L 324.698831 329.30702 
L 325.672483 328.305695 
L 352.934741 328.305695 
L 355.855697 325.301722 
L 384.091607 325.301722 
L 385.065259 324.300397 
L 386.038911 324.300397 
L 387.986215 322.297748 
L 389.933519 322.297748 
L 390.907172 321.296424 
L 440.563427 321.296424 
L 441.537079 320.295099 
L 498.008899 320.295099 
L 498.982551 319.293775 
L 539.875938 319.293775 
L 540.84959 318.29245 
L 545.71785 318.29245 
L 546.691502 317.291126 
L 560.322631 317.291126 
L 561.296283 316.289801 
L 580.769325 316.289801 
L 581.742977 315.288477 
L 622.636364 315.288477 
L 622.636364 315.288477 
" clip-path="url(#p851bfaa2d1)" style="fill: none; stroke: #bcbd22; stroke-width: 1.5; stroke-linecap: square"/>
   </g>
   <g id="line2d_42">
    <path d="M 115.363636 367.357351 
L 164.04624 367.357351 
L 165.019892 366.356026 
L 226.359972 366.356026 
L 227.333624 365.354702 
L 326.646135 365.354702 
L 327.619787 364.353377 
L 328.593439 365.354702 
L 446.405339 365.354702 
L 447.378991 364.353377 
L 454.194556 364.353377 
L 455.168208 363.352053 
L 479.50951 363.352053 
L 480.483162 362.350728 
L 622.636364 362.350728 
L 622.636364 362.350728 
" clip-path="url(#p851bfaa2d1)" style="fill: none; stroke: #17becf; stroke-width: 1.5; stroke-linecap: square"/>
   </g>
   <g id="line2d_43">
    <path d="M 115.363636 369.36 
L 116.337288 368.358675 
L 118.284593 368.358675 
L 119.258245 367.357351 
L 126.073809 367.357351 
L 127.047461 366.356026 
L 129.968417 366.356026 
L 130.942069 365.354702 
L 131.915722 365.354702 
L 133.863026 363.352053 
L 138.731286 363.352053 
L 140.67859 361.349404 
L 141.652242 361.349404 
L 142.625894 360.348079 
L 149.441459 360.348079 
L 150.415111 359.346755 
L 151.388763 357.344106 
L 153.336067 357.344106 
L 154.309719 356.342781 
L 155.283371 356.342781 
L 156.257023 355.341457 
L 157.230675 355.341457 
L 158.204327 354.340132 
L 159.177979 354.340132 
L 161.125284 352.337483 
L 166.967196 352.337483 
L 168.9145 350.334834 
L 171.835456 350.334834 
L 172.809108 349.33351 
L 173.78276 349.33351 
L 174.756412 347.330861 
L 177.677369 347.330861 
L 179.624673 343.325563 
L 185.466585 343.325563 
L 186.440237 341.322914 
L 187.413889 340.321589 
L 190.334846 340.321589 
L 191.308498 339.320265 
L 192.28215 337.317616 
L 194.229454 337.317616 
L 195.203106 336.316291 
L 208.834235 336.316291 
L 209.807887 334.313642 
L 216.623451 327.304371 
L 226.359972 327.304371 
L 229.280928 324.300397 
L 231.228232 324.300397 
L 232.201884 322.297748 
L 234.149189 322.297748 
L 235.122841 321.296424 
L 238.043797 321.296424 
L 239.017449 320.295099 
L 239.991101 320.295099 
L 240.964753 319.293775 
L 241.938405 319.293775 
L 243.885709 317.291126 
L 256.543186 317.291126 
L 258.49049 315.288477 
L 266.279707 315.288477 
L 267.253359 314.287152 
L 270.174315 314.287152 
L 272.121619 312.284503 
L 275.042575 312.284503 
L 276.016228 311.283179 
L 277.963532 311.283179 
L 278.937184 310.281854 
L 283.805444 310.281854 
L 284.779096 309.28053 
L 285.752748 309.28053 
L 286.7264 307.277881 
L 287.700052 307.277881 
L 288.673704 306.276556 
L 293.541965 306.276556 
L 294.515617 305.275232 
L 296.462921 305.275232 
L 297.436573 304.273907 
L 298.410225 304.273907 
L 300.357529 302.271258 
L 307.173094 302.271258 
L 308.146746 301.269934 
L 309.120398 301.269934 
L 310.09405 300.268609 
L 314.96231 300.268609 
L 315.935962 298.26596 
L 316.909614 297.264636 
L 321.777875 297.264636 
L 322.751527 296.263311 
L 326.646135 296.263311 
L 327.619787 294.260662 
L 331.514395 294.260662 
L 333.4617 292.258013 
L 336.382656 292.258013 
L 337.356308 291.256689 
L 349.040133 291.256689 
L 350.013785 289.25404 
L 350.987437 288.252715 
L 358.776653 288.252715 
L 359.750305 287.251391 
L 377.276043 287.251391 
L 378.249695 286.250066 
L 380.196999 286.250066 
L 381.170651 285.248742 
L 384.091607 285.248742 
L 385.065259 284.247417 
L 397.722736 284.247417 
L 398.696388 282.244768 
L 400.643692 282.244768 
L 401.617344 281.243444 
L 402.590996 281.243444 
L 403.564648 280.242119 
L 407.459257 280.242119 
L 408.432909 279.240795 
L 415.248473 279.240795 
L 416.222125 277.238146 
L 417.195777 277.238146 
L 418.169429 276.236821 
L 423.03769 276.236821 
L 424.011342 275.235497 
L 428.879602 275.235497 
L 430.826906 273.232848 
L 432.77421 273.232848 
L 433.747863 272.231523 
L 435.695167 272.231523 
L 436.668819 271.230199 
L 437.642471 271.230199 
L 438.616123 270.228874 
L 445.431687 270.228874 
L 446.405339 269.22755 
L 468.799337 269.22755 
L 469.772989 268.226225 
L 474.641249 268.226225 
L 475.614901 267.224901 
L 486.325074 267.224901 
L 487.298726 266.223576 
L 530.139417 266.223576 
L 531.113069 265.222252 
L 536.954982 265.222252 
L 537.928634 264.220927 
L 538.902286 264.220927 
L 539.875938 263.219603 
L 552.533415 263.219603 
L 553.507067 262.218278 
L 572.006456 262.218278 
L 572.980108 261.216954 
L 576.874716 261.216954 
L 577.848369 260.215629 
L 582.716629 260.215629 
L 583.690281 259.214305 
L 589.532193 259.214305 
L 590.505845 258.21298 
L 596.347758 258.21298 
L 597.32141 257.211656 
L 603.163322 257.211656 
L 604.136974 254.207682 
L 605.110626 253.206358 
L 611.926191 253.206358 
L 612.899843 252.205033 
L 617.768103 252.205033 
L 618.741755 251.203709 
L 622.636364 251.203709 
L 622.636364 251.203709 
" clip-path="url(#p851bfaa2d1)" style="fill: none; stroke: #1f77b4; stroke-width: 1.5; stroke-linecap: square"/>
   </g>
   <g id="line2d_44">
    <path d="M 115.363636 332.310993 
L 122.179201 332.310993 
L 123.152853 331.309669 
L 126.073809 331.309669 
L 127.047461 330.308344 
L 130.942069 330.308344 
L 131.915722 329.30702 
L 134.836678 329.30702 
L 135.81033 328.305695 
L 136.783982 328.305695 
L 137.757634 327.304371 
L 140.67859 327.304371 
L 141.652242 326.303046 
L 143.599546 326.303046 
L 144.573198 325.301722 
L 145.54685 325.301722 
L 147.494155 323.299073 
L 153.336067 323.299073 
L 154.309719 322.297748 
L 155.283371 322.297748 
L 156.257023 321.296424 
L 157.230675 321.296424 
L 158.204327 319.293775 
L 159.177979 316.289801 
L 160.151631 315.288477 
L 164.04624 315.288477 
L 166.967196 312.284503 
L 169.888152 312.284503 
L 171.835456 310.281854 
L 182.545629 310.281854 
L 183.519281 307.277881 
L 184.492933 307.277881 
L 186.440237 303.272583 
L 188.387541 301.269934 
L 189.361194 301.269934 
L 190.334846 299.267285 
L 198.124062 299.267285 
L 199.097714 297.264636 
L 202.01867 297.264636 
L 202.992322 296.263311 
L 209.807887 296.263311 
L 210.781539 295.261987 
L 222.465364 295.261987 
L 223.439016 294.260662 
L 224.412668 294.260662 
L 225.38632 293.259338 
L 228.307276 293.259338 
L 229.280928 292.258013 
L 240.964753 292.258013 
L 241.938405 291.256689 
L 243.885709 291.256689 
L 245.833013 287.251391 
L 247.780318 287.251391 
L 249.727622 285.248742 
L 251.674926 285.248742 
L 252.648578 284.247417 
L 255.569534 284.247417 
L 256.543186 283.246093 
L 268.227011 283.246093 
L 269.200663 282.244768 
L 283.805444 282.244768 
L 284.779096 281.243444 
L 293.541965 281.243444 
L 294.515617 280.242119 
L 296.462921 280.242119 
L 297.436573 279.240795 
L 300.357529 279.240795 
L 302.304833 277.238146 
L 303.278485 277.238146 
L 304.252137 276.236821 
L 308.146746 276.236821 
L 310.09405 274.234172 
L 314.96231 274.234172 
L 315.935962 273.232848 
L 318.856919 273.232848 
L 319.830571 272.231523 
L 324.698831 272.231523 
L 325.672483 271.230199 
L 330.540743 271.230199 
L 331.514395 270.228874 
L 349.040133 270.228874 
L 350.013785 269.22755 
L 350.987437 269.22755 
L 351.961089 268.226225 
L 361.697609 268.226225 
L 362.671262 266.223576 
L 363.644914 266.223576 
L 364.618566 265.222252 
L 374.355086 265.222252 
L 375.328738 264.220927 
L 379.223347 264.220927 
L 380.196999 263.219603 
L 381.170651 263.219603 
L 382.144303 262.218278 
L 390.907172 262.218278 
L 391.880824 261.216954 
L 411.353865 261.216954 
L 412.327517 258.21298 
L 419.143081 258.21298 
L 420.116734 257.211656 
L 422.064038 257.211656 
L 423.03769 256.210331 
L 434.721515 256.210331 
L 435.695167 255.209007 
L 449.326296 255.209007 
L 450.299948 254.207682 
L 453.220904 254.207682 
L 454.194556 253.206358 
L 461.983772 253.206358 
L 462.957425 251.203709 
L 478.535858 251.203709 
L 479.50951 250.202384 
L 484.37777 250.202384 
L 485.351422 249.20106 
L 499.956203 249.20106 
L 500.929855 248.199735 
L 502.877159 248.199735 
L 503.850811 247.198411 
L 513.587332 247.198411 
L 514.560984 246.197086 
L 525.271157 246.197086 
L 526.244809 245.195762 
L 538.902286 245.195762 
L 539.875938 244.194437 
L 551.559763 244.194437 
L 552.533415 243.193113 
L 559.348979 243.193113 
L 560.322631 242.191788 
L 570.059152 242.191788 
L 572.980108 239.187815 
L 574.927412 239.187815 
L 575.901064 238.18649 
L 576.874716 238.18649 
L 578.822021 236.183841 
L 582.716629 236.183841 
L 583.690281 235.182517 
L 585.637585 235.182517 
L 586.611237 233.179868 
L 587.584889 232.178543 
L 599.268714 232.178543 
L 600.242366 231.177219 
L 609.005235 231.177219 
L 609.978887 230.175894 
L 619.715407 230.175894 
L 620.689059 229.17457 
L 622.636364 229.17457 
L 622.636364 229.17457 
" clip-path="url(#p851bfaa2d1)" style="fill: none; stroke: #ff7f0e; stroke-width: 1.5; stroke-linecap: square"/>
   </g>
   <g id="patch_3">
    <path d="M 90 384.48 
L 90 51.84 
" style="fill: none; stroke: #000000; stroke-width: 0.8; stroke-linejoin: miter; stroke-linecap: square"/>
   </g>
   <g id="patch_4">
    <path d="M 648 384.48 
L 648 51.84 
" style="fill: none; stroke: #000000; stroke-width: 0.8; stroke-linejoin: miter; stroke-linecap: square"/>
   </g>
   <g id="patch_5">
    <path d="M 90 384.48 
L 648 384.48 
" style="fill: none; stroke: #000000; stroke-width: 0.8; stroke-linejoin: miter; stroke-linecap: square"/>
   </g>
   <g id="patch_6">
    <path d="M 90 51.84 
L 648 51.84 
" style="fill: none; stroke: #000000; stroke-width: 0.8; stroke-linejoin: miter; stroke-linecap: square"/>
   </g>
   <g id="text_19">
    <!-- Time Series of Votes for Each Keyword -->
    <g transform="translate(253.716563 45.84) scale(0.12 -0.12)">
     <defs>
      <path id="DejaVuSans-53" d="M 3425 4513 
L 3425 3897 
Q 3066 4069 2747 4153 
Q 2428 4238 2131 4238 
Q 1616 4238 1336 4038 
Q 1056 3838 1056 3469 
Q 1056 3159 1242 3001 
Q 1428 2844 1947 2747 
L 2328 2669 
Q 3034 2534 3370 2195 
Q 3706 1856 3706 1288 
Q 3706 609 3251 259 
Q 2797 -91 1919 -91 
Q 1588 -91 1214 -16 
Q 841 59 441 206 
L 441 856 
Q 825 641 1194 531 
Q 1563 422 1919 422 
Q 2459 422 2753 634 
Q 3047 847 3047 1241 
Q 3047 1584 2836 1778 
Q 2625 1972 2144 2069 
L 1759 2144 
Q 1053 2284 737 2584 
Q 422 2884 422 3419 
Q 422 4038 858 4394 
Q 1294 4750 2059 4750 
Q 2388 4750 2728 4690 
Q 3069 4631 3425 4513 
z
" transform="scale(0.015625)"/>
      <path id="DejaVuSans-72" d="M 2631 2963 
Q 2534 3019 2420 3045 
Q 2306 3072 2169 3072 
Q 1681 3072 1420 2755 
Q 1159 2438 1159 1844 
L 1159 0 
L 581 0 
L 581 3500 
L 1159 3500 
L 1159 2956 
Q 1341 3275 1631 3429 
Q 1922 3584 2338 3584 
Q 2397 3584 2469 3576 
Q 2541 3569 2628 3553 
L 2631 2963 
z
" transform="scale(0.015625)"/>
      <path id="DejaVuSans-66" d="M 2375 4863 
L 2375 4384 
L 1825 4384 
Q 1516 4384 1395 4259 
Q 1275 4134 1275 3809 
L 1275 3500 
L 2222 3500 
L 2222 3053 
L 1275 3053 
L 1275 0 
L 697 0 
L 697 3053 
L 147 3053 
L 147 3500 
L 697 3500 
L 697 3744 
Q 697 4328 969 4595 
Q 1241 4863 1831 4863 
L 2375 4863 
z
" transform="scale(0.015625)"/>
      <path id="DejaVuSans-45" d="M 628 4666 
L 3578 4666 
L 3578 4134 
L 1259 4134 
L 1259 2753 
L 3481 2753 
L 3481 2222 
L 1259 2222 
L 1259 531 
L 3634 531 
L 3634 0 
L 628 0 
L 628 4666 
z
" transform="scale(0.015625)"/>
      <path id="DejaVuSans-63" d="M 3122 3366 
L 3122 2828 
Q 2878 2963 2633 3030 
Q 2388 3097 2138 3097 
Q 1578 3097 1268 2742 
Q 959 2388 959 1747 
Q 959 1106 1268 751 
Q 1578 397 2138 397 
Q 2388 397 2633 464 
Q 2878 531 3122 666 
L 3122 134 
Q 2881 22 2623 -34 
Q 2366 -91 2075 -91 
Q 1284 -91 818 406 
Q 353 903 353 1747 
Q 353 2603 823 3093 
Q 1294 3584 2113 3584 
Q 2378 3584 2631 3529 
Q 2884 3475 3122 3366 
z
" transform="scale(0.015625)"/>
      <path id="DejaVuSans-68" d="M 3513 2113 
L 3513 0 
L 2938 0 
L 2938 2094 
Q 2938 2591 2744 2837 
Q 2550 3084 2163 3084 
Q 1697 3084 1428 2787 
Q 1159 2491 1159 1978 
L 1159 0 
L 581 0 
L 581 4863 
L 1159 4863 
L 1159 2956 
Q 1366 3272 1645 3428 
Q 1925 3584 2291 3584 
Q 2894 3584 3203 3211 
Q 3513 2838 3513 2113 
z
" transform="scale(0.015625)"/>
      <path id="DejaVuSans-4b" d="M 628 4666 
L 1259 4666 
L 1259 2694 
L 3353 4666 
L 4166 4666 
L 1850 2491 
L 4331 0 
L 3500 0 
L 1259 2247 
L 1259 0 
L 628 0 
L 628 4666 
z
" transform="scale(0.015625)"/>
      <path id="DejaVuSans-79" d="M 2059 -325 
Q 1816 -950 1584 -1140 
Q 1353 -1331 966 -1331 
L 506 -1331 
L 506 -850 
L 844 -850 
Q 1081 -850 1212 -737 
Q 1344 -625 1503 -206 
L 1606 56 
L 191 3500 
L 800 3500 
L 1894 763 
L 2988 3500 
L 3597 3500 
L 2059 -325 
z
" transform="scale(0.015625)"/>
      <path id="DejaVuSans-77" d="M 269 3500 
L 844 3500 
L 1563 769 
L 2278 3500 
L 2956 3500 
L 3675 769 
L 4391 3500 
L 4966 3500 
L 4050 0 
L 3372 0 
L 2619 2869 
L 1863 0 
L 1184 0 
L 269 3500 
z
" transform="scale(0.015625)"/>
     </defs>
     <use xlink:href="#DejaVuSans-54"/>
     <use xlink:href="#DejaVuSans-69" transform="translate(57.958984 0)"/>
     <use xlink:href="#DejaVuSans-6d" transform="translate(85.742188 0)"/>
     <use xlink:href="#DejaVuSans-65" transform="translate(183.154297 0)"/>
     <use xlink:href="#DejaVuSans-20" transform="translate(244.677734 0)"/>
     <use xlink:href="#DejaVuSans-53" transform="translate(276.464844 0)"/>
     <use xlink:href="#DejaVuSans-65" transform="translate(339.941406 0)"/>
     <use xlink:href="#DejaVuSans-72" transform="translate(401.464844 0)"/>
     <use xlink:href="#DejaVuSans-69" transform="translate(442.578125 0)"/>
     <use xlink:href="#DejaVuSans-65" transform="translate(470.361328 0)"/>
     <use xlink:href="#DejaVuSans-73" transform="translate(531.884766 0)"/>
     <use xlink:href="#DejaVuSans-20" transform="translate(583.984375 0)"/>
     <use xlink:href="#DejaVuSans-6f" transform="translate(615.771484 0)"/>
     <use xlink:href="#DejaVuSans-66" transform="translate(676.953125 0)"/>
     <use xlink:href="#DejaVuSans-20" transform="translate(712.158203 0)"/>
     <use xlink:href="#DejaVuSans-56" transform="translate(743.945312 0)"/>
     <use xlink:href="#DejaVuSans-6f" transform="translate(804.603516 0)"/>
     <use xlink:href="#DejaVuSans-74" transform="translate(865.785156 0)"/>
     <use xlink:href="#DejaVuSans-65" transform="translate(904.994141 0)"/>
     <use xlink:href="#DejaVuSans-73" transform="translate(966.517578 0)"/>
     <use xlink:href="#DejaVuSans-20" transform="translate(1018.617188 0)"/>
     <use xlink:href="#DejaVuSans-66" transform="translate(1050.404297 0)"/>
     <use xlink:href="#DejaVuSans-6f" transform="translate(1085.609375 0)"/>
     <use xlink:href="#DejaVuSans-72" transform="translate(1146.791016 0)"/>
     <use xlink:href="#DejaVuSans-20" transform="translate(1187.904297 0)"/>
     <use xlink:href="#DejaVuSans-45" transform="translate(1219.691406 0)"/>
     <use xlink:href="#DejaVuSans-61" transform="translate(1282.875 0)"/>
     <use xlink:href="#DejaVuSans-63" transform="translate(1344.154297 0)"/>
     <use xlink:href="#DejaVuSans-68" transform="translate(1399.134766 0)"/>
     <use xlink:href="#DejaVuSans-20" transform="translate(1462.513672 0)"/>
     <use xlink:href="#DejaVuSans-4b" transform="translate(1494.300781 0)"/>
     <use xlink:href="#DejaVuSans-65" transform="translate(1554.876953 0)"/>
     <use xlink:href="#DejaVuSans-79" transform="translate(1616.400391 0)"/>
     <use xlink:href="#DejaVuSans-77" transform="translate(1675.580078 0)"/>
     <use xlink:href="#DejaVuSans-6f" transform="translate(1757.367188 0)"/>
     <use xlink:href="#DejaVuSans-72" transform="translate(1818.548828 0)"/>
     <use xlink:href="#DejaVuSans-64" transform="translate(1857.912109 0)"/>
    </g>
   </g>
   <g id="legend_1">
    <g id="patch_7">
     <path d="M 97 235.9775 
L 149.245313 235.9775 
Q 151.245313 235.9775 151.245313 233.9775 
L 151.245313 58.84 
Q 151.245313 56.84 149.245313 56.84 
L 97 56.84 
Q 95 56.84 95 58.84 
L 95 233.9775 
Q 95 235.9775 97 235.9775 
z
" style="fill: #ffffff; opacity: 0.8; stroke: #cccccc; stroke-linejoin: miter"/>
    </g>
    <g id="line2d_45">
     <path d="M 99 64.938437 
L 109 64.938437 
L 119 64.938437 
" style="fill: none; stroke: #1f77b4; stroke-width: 1.5; stroke-linecap: square"/>
    </g>
    <g id="text_20">
     <!-- H01 -->
     <g transform="translate(127 68.438437) scale(0.1 -0.1)">
      <defs>
       <path id="DejaVuSans-48" d="M 628 4666 
L 1259 4666 
L 1259 2753 
L 3553 2753 
L 3553 4666 
L 4184 4666 
L 4184 0 
L 3553 0 
L 3553 2222 
L 1259 2222 
L 1259 0 
L 628 0 
L 628 4666 
z
" transform="scale(0.015625)"/>
      </defs>
      <use xlink:href="#DejaVuSans-48"/>
      <use xlink:href="#DejaVuSans-30" transform="translate(75.195312 0)"/>
      <use xlink:href="#DejaVuSans-31" transform="translate(138.818359 0)"/>
     </g>
    </g>
    <g id="line2d_46">
     <path d="M 99 79.616562 
L 109 79.616562 
L 119 79.616562 
" style="fill: none; stroke: #ff7f0e; stroke-width: 1.5; stroke-linecap: square"/>
    </g>
    <g id="text_21">
     <!-- H02 -->
     <g transform="translate(127 83.116562) scale(0.1 -0.1)">
      <use xlink:href="#DejaVuSans-48"/>
      <use xlink:href="#DejaVuSans-30" transform="translate(75.195312 0)"/>
      <use xlink:href="#DejaVuSans-32" transform="translate(138.818359 0)"/>
     </g>
    </g>
    <g id="line2d_47">
     <path d="M 99 94.294688 
L 109 94.294688 
L 119 94.294688 
" style="fill: none; stroke: #2ca02c; stroke-width: 1.5; stroke-linecap: square"/>
    </g>
    <g id="text_22">
     <!-- H03 -->
     <g transform="translate(127 97.794688) scale(0.1 -0.1)">
      <use xlink:href="#DejaVuSans-48"/>
      <use xlink:href="#DejaVuSans-30" transform="translate(75.195312 0)"/>
      <use xlink:href="#DejaVuSans-33" transform="translate(138.818359 0)"/>
     </g>
    </g>
    <g id="line2d_48">
     <path d="M 99 108.972812 
L 109 108.972812 
L 119 108.972812 
" style="fill: none; stroke: #d62728; stroke-width: 1.5; stroke-linecap: square"/>
    </g>
    <g id="text_23">
     <!-- H04 -->
     <g transform="translate(127 112.472812) scale(0.1 -0.1)">
      <use xlink:href="#DejaVuSans-48"/>
      <use xlink:href="#DejaVuSans-30" transform="translate(75.195312 0)"/>
      <use xlink:href="#DejaVuSans-34" transform="translate(138.818359 0)"/>
     </g>
    </g>
    <g id="line2d_49">
     <path d="M 99 123.650937 
L 109 123.650937 
L 119 123.650937 
" style="fill: none; stroke: #9467bd; stroke-width: 1.5; stroke-linecap: square"/>
    </g>
    <g id="text_24">
     <!-- H05 -->
     <g transform="translate(127 127.150937) scale(0.1 -0.1)">
      <use xlink:href="#DejaVuSans-48"/>
      <use xlink:href="#DejaVuSans-30" transform="translate(75.195312 0)"/>
      <use xlink:href="#DejaVuSans-35" transform="translate(138.818359 0)"/>
     </g>
    </g>
    <g id="line2d_50">
     <path d="M 99 138.329062 
L 109 138.329062 
L 119 138.329062 
" style="fill: none; stroke: #8c564b; stroke-width: 1.5; stroke-linecap: square"/>
    </g>
    <g id="text_25">
     <!-- H06 -->
     <g transform="translate(127 141.829062) scale(0.1 -0.1)">
      <use xlink:href="#DejaVuSans-48"/>
      <use xlink:href="#DejaVuSans-30" transform="translate(75.195312 0)"/>
      <use xlink:href="#DejaVuSans-36" transform="translate(138.818359 0)"/>
     </g>
    </g>
    <g id="line2d_51">
     <path d="M 99 153.007187 
L 109 153.007187 
L 119 153.007187 
" style="fill: none; stroke: #e377c2; stroke-width: 1.5; stroke-linecap: square"/>
    </g>
    <g id="text_26">
     <!-- H07 -->
     <g transform="translate(127 156.507187) scale(0.1 -0.1)">
      <use xlink:href="#DejaVuSans-48"/>
      <use xlink:href="#DejaVuSans-30" transform="translate(75.195312 0)"/>
      <use xlink:href="#DejaVuSans-37" transform="translate(138.818359 0)"/>
     </g>
    </g>
    <g id="line2d_52">
     <path d="M 99 167.685312 
L 109 167.685312 
L 119 167.685312 
" style="fill: none; stroke: #7f7f7f; stroke-width: 1.5; stroke-linecap: square"/>
    </g>
    <g id="text_27">
     <!-- H08 -->
     <g transform="translate(127 171.185312) scale(0.1 -0.1)">
      <use xlink:href="#DejaVuSans-48"/>
      <use xlink:href="#DejaVuSans-30" transform="translate(75.195312 0)"/>
      <use xlink:href="#DejaVuSans-38" transform="translate(138.818359 0)"/>
     </g>
    </g>
    <g id="line2d_53">
     <path d="M 99 182.363437 
L 109 182.363437 
L 119 182.363437 
" style="fill: none; stroke: #bcbd22; stroke-width: 1.5; stroke-linecap: square"/>
    </g>
    <g id="text_28">
     <!-- H09 -->
     <g transform="translate(127 185.863437) scale(0.1 -0.1)">
      <use xlink:href="#DejaVuSans-48"/>
      <use xlink:href="#DejaVuSans-30" transform="translate(75.195312 0)"/>
      <use xlink:href="#DejaVuSans-39" transform="translate(138.818359 0)"/>
     </g>
    </g>
    <g id="line2d_54">
     <path d="M 99 197.041562 
L 109 197.041562 
L 119 197.041562 
" style="fill: none; stroke: #17becf; stroke-width: 1.5; stroke-linecap: square"/>
    </g>
    <g id="text_29">
     <!-- H10 -->
     <g transform="translate(127 200.541562) scale(0.1 -0.1)">
      <use xlink:href="#DejaVuSans-48"/>
      <use xlink:href="#DejaVuSans-31" transform="translate(75.195312 0)"/>
      <use xlink:href="#DejaVuSans-30" transform="translate(138.818359 0)"/>
     </g>
    </g>
    <g id="line2d_55">
     <path d="M 99 211.719687 
L 109 211.719687 
L 119 211.719687 
" style="fill: none; stroke: #1f77b4; stroke-width: 1.5; stroke-linecap: square"/>
    </g>
    <g id="text_30">
     <!-- H11 -->
     <g transform="translate(127 215.219687) scale(0.1 -0.1)">
      <use xlink:href="#DejaVuSans-48"/>
      <use xlink:href="#DejaVuSans-31" transform="translate(75.195312 0)"/>
      <use xlink:href="#DejaVuSans-31" transform="translate(138.818359 0)"/>
     </g>
    </g>
    <g id="line2d_56">
     <path d="M 99 226.397812 
L 109 226.397812 
L 119 226.397812 
" style="fill: none; stroke: #ff7f0e; stroke-width: 1.5; stroke-linecap: square"/>
    </g>
    <g id="text_31">
     <!-- H12 -->
     <g transform="translate(127 229.897812) scale(0.1 -0.1)">
      <use xlink:href="#DejaVuSans-48"/>
      <use xlink:href="#DejaVuSans-31" transform="translate(75.195312 0)"/>
      <use xlink:href="#DejaVuSans-32" transform="translate(138.818359 0)"/>
     </g>
    </g>
   </g>
  </g>
 </g>
 <defs>
  <clipPath id="p851bfaa2d1">
   <rect x="90" y="51.84" width="558" height="332.64"/>
  </clipPath>
 </defs>
</svg>
