<?xml version="1.0" encoding="utf-8" standalone="no"?>
<!DOCTYPE svg PUBLIC "-//W3C//DTD SVG 1.1//EN"
  "http://www.w3.org/Graphics/SVG/1.1/DTD/svg11.dtd">
<svg xmlns:xlink="http://www.w3.org/1999/xlink" width="720pt" height="432pt" viewBox="0 0 720 432" xmlns="http://www.w3.org/2000/svg" version="1.1">
 <metadata>
  <rdf:RDF xmlns:dc="http://purl.org/dc/elements/1.1/" xmlns:cc="http://creativecommons.org/ns#" xmlns:rdf="http://www.w3.org/1999/02/22-rdf-syntax-ns#">
   <cc:Work>
    <dc:type rdf:resource="http://purl.org/dc/dcmitype/StillImage"/>
    <dc:date>2025-01-14T22:03:10.644849</dc:date>
    <dc:format>image/svg+xml</dc:format>
    <dc:creator>
     <cc:Agent>
      <dc:title>Matplotlib v3.10.0, https://matplotlib.org/</dc:title>
     </cc:Agent>
    </dc:creator>
   </cc:Work>
  </rdf:RDF>
 </metadata>
 <defs>
  <style type="text/css">*{stroke-linejoin: round; stroke-linecap: butt}</style>
 </defs>
 <g id="figure_1">
  <g id="patch_1">
   <path d="M 0 432 
L 720 432 
L 720 0 
L 0 0 
z
" style="fill: #ffffff"/>
  </g>
  <g id="axes_1">
   <g id="patch_2">
    <path d="M 90 384.48 
L 648 384.48 
L 648 51.84 
L 90 51.84 
z
" style="fill: #ffffff"/>
   </g>
   <g id="matplotlib.axis_1">
    <g id="xtick_1">
     <g id="line2d_1">
      <path d="M 142.272013 384.48 
L 142.272013 51.84 
" clip-path="url(#pe2110e96ba)" style="fill: none; stroke: #b0b0b0; stroke-width: 0.8; stroke-linecap: square"/>
     </g>
     <g id="line2d_2">
      <defs>
       <path id="m943c3efdc4" d="M 0 0 
L 0 3.5 
" style="stroke: #000000; stroke-width: 0.8"/>
      </defs>
      <g>
       <use xlink:href="#m943c3efdc4" x="142.272013" y="384.48" style="stroke: #000000; stroke-width: 0.8"/>
      </g>
     </g>
     <g id="text_1">
      <!-- 01-14 14 -->
      <g transform="translate(119.791544 399.078438) scale(0.1 -0.1)">
       <defs>
        <path id="DejaVuSans-30" d="M 2034 4250 
Q 1547 4250 1301 3770 
Q 1056 3291 1056 2328 
Q 1056 1369 1301 889 
Q 1547 409 2034 409 
Q 2525 409 2770 889 
Q 3016 1369 3016 2328 
Q 3016 3291 2770 3770 
Q 2525 4250 2034 4250 
z
M 2034 4750 
Q 2819 4750 3233 4129 
Q 3647 3509 3647 2328 
Q 3647 1150 3233 529 
Q 2819 -91 2034 -91 
Q 1250 -91 836 529 
Q 422 1150 422 2328 
Q 422 3509 836 4129 
Q 1250 4750 2034 4750 
z
" transform="scale(0.015625)"/>
        <path id="DejaVuSans-31" d="M 794 531 
L 1825 531 
L 1825 4091 
L 703 3866 
L 703 4441 
L 1819 4666 
L 2450 4666 
L 2450 531 
L 3481 531 
L 3481 0 
L 794 0 
L 794 531 
z
" transform="scale(0.015625)"/>
        <path id="DejaVuSans-2d" d="M 313 2009 
L 1997 2009 
L 1997 1497 
L 313 1497 
L 313 2009 
z
" transform="scale(0.015625)"/>
        <path id="DejaVuSans-34" d="M 2419 4116 
L 825 1625 
L 2419 1625 
L 2419 4116 
z
M 2253 4666 
L 3047 4666 
L 3047 1625 
L 3713 1625 
L 3713 1100 
L 3047 1100 
L 3047 0 
L 2419 0 
L 2419 1100 
L 313 1100 
L 313 1709 
L 2253 4666 
z
" transform="scale(0.015625)"/>
        <path id="DejaVuSans-20" transform="scale(0.015625)"/>
       </defs>
       <use xlink:href="#DejaVuSans-30"/>
       <use xlink:href="#DejaVuSans-31" transform="translate(63.623047 0)"/>
       <use xlink:href="#DejaVuSans-2d" transform="translate(127.246094 0)"/>
       <use xlink:href="#DejaVuSans-31" transform="translate(163.330078 0)"/>
       <use xlink:href="#DejaVuSans-34" transform="translate(226.953125 0)"/>
       <use xlink:href="#DejaVuSans-20" transform="translate(290.576172 0)"/>
       <use xlink:href="#DejaVuSans-31" transform="translate(322.363281 0)"/>
       <use xlink:href="#DejaVuSans-34" transform="translate(385.986328 0)"/>
      </g>
     </g>
    </g>
    <g id="xtick_2">
     <g id="line2d_3">
      <path d="M 202.068405 384.48 
L 202.068405 51.84 
" clip-path="url(#pe2110e96ba)" style="fill: none; stroke: #b0b0b0; stroke-width: 0.8; stroke-linecap: square"/>
     </g>
     <g id="line2d_4">
      <g>
       <use xlink:href="#m943c3efdc4" x="202.068405" y="384.48" style="stroke: #000000; stroke-width: 0.8"/>
      </g>
     </g>
     <g id="text_2">
      <!-- 01-14 15 -->
      <g transform="translate(179.587936 399.078438) scale(0.1 -0.1)">
       <defs>
        <path id="DejaVuSans-35" d="M 691 4666 
L 3169 4666 
L 3169 4134 
L 1269 4134 
L 1269 2991 
Q 1406 3038 1543 3061 
Q 1681 3084 1819 3084 
Q 2600 3084 3056 2656 
Q 3513 2228 3513 1497 
Q 3513 744 3044 326 
Q 2575 -91 1722 -91 
Q 1428 -91 1123 -41 
Q 819 9 494 109 
L 494 744 
Q 775 591 1075 516 
Q 1375 441 1709 441 
Q 2250 441 2565 725 
Q 2881 1009 2881 1497 
Q 2881 1984 2565 2268 
Q 2250 2553 1709 2553 
Q 1456 2553 1204 2497 
Q 953 2441 691 2322 
L 691 4666 
z
" transform="scale(0.015625)"/>
       </defs>
       <use xlink:href="#DejaVuSans-30"/>
       <use xlink:href="#DejaVuSans-31" transform="translate(63.623047 0)"/>
       <use xlink:href="#DejaVuSans-2d" transform="translate(127.246094 0)"/>
       <use xlink:href="#DejaVuSans-31" transform="translate(163.330078 0)"/>
       <use xlink:href="#DejaVuSans-34" transform="translate(226.953125 0)"/>
       <use xlink:href="#DejaVuSans-20" transform="translate(290.576172 0)"/>
       <use xlink:href="#DejaVuSans-31" transform="translate(322.363281 0)"/>
       <use xlink:href="#DejaVuSans-35" transform="translate(385.986328 0)"/>
      </g>
     </g>
    </g>
    <g id="xtick_3">
     <g id="line2d_5">
      <path d="M 261.864797 384.48 
L 261.864797 51.84 
" clip-path="url(#pe2110e96ba)" style="fill: none; stroke: #b0b0b0; stroke-width: 0.8; stroke-linecap: square"/>
     </g>
     <g id="line2d_6">
      <g>
       <use xlink:href="#m943c3efdc4" x="261.864797" y="384.48" style="stroke: #000000; stroke-width: 0.8"/>
      </g>
     </g>
     <g id="text_3">
      <!-- 01-14 16 -->
      <g transform="translate(239.384329 399.078438) scale(0.1 -0.1)">
       <defs>
        <path id="DejaVuSans-36" d="M 2113 2584 
Q 1688 2584 1439 2293 
Q 1191 2003 1191 1497 
Q 1191 994 1439 701 
Q 1688 409 2113 409 
Q 2538 409 2786 701 
Q 3034 994 3034 1497 
Q 3034 2003 2786 2293 
Q 2538 2584 2113 2584 
z
M 3366 4563 
L 3366 3988 
Q 3128 4100 2886 4159 
Q 2644 4219 2406 4219 
Q 1781 4219 1451 3797 
Q 1122 3375 1075 2522 
Q 1259 2794 1537 2939 
Q 1816 3084 2150 3084 
Q 2853 3084 3261 2657 
Q 3669 2231 3669 1497 
Q 3669 778 3244 343 
Q 2819 -91 2113 -91 
Q 1303 -91 875 529 
Q 447 1150 447 2328 
Q 447 3434 972 4092 
Q 1497 4750 2381 4750 
Q 2619 4750 2861 4703 
Q 3103 4656 3366 4563 
z
" transform="scale(0.015625)"/>
       </defs>
       <use xlink:href="#DejaVuSans-30"/>
       <use xlink:href="#DejaVuSans-31" transform="translate(63.623047 0)"/>
       <use xlink:href="#DejaVuSans-2d" transform="translate(127.246094 0)"/>
       <use xlink:href="#DejaVuSans-31" transform="translate(163.330078 0)"/>
       <use xlink:href="#DejaVuSans-34" transform="translate(226.953125 0)"/>
       <use xlink:href="#DejaVuSans-20" transform="translate(290.576172 0)"/>
       <use xlink:href="#DejaVuSans-31" transform="translate(322.363281 0)"/>
       <use xlink:href="#DejaVuSans-36" transform="translate(385.986328 0)"/>
      </g>
     </g>
    </g>
    <g id="xtick_4">
     <g id="line2d_7">
      <path d="M 321.661189 384.48 
L 321.661189 51.84 
" clip-path="url(#pe2110e96ba)" style="fill: none; stroke: #b0b0b0; stroke-width: 0.8; stroke-linecap: square"/>
     </g>
     <g id="line2d_8">
      <g>
       <use xlink:href="#m943c3efdc4" x="321.661189" y="384.48" style="stroke: #000000; stroke-width: 0.8"/>
      </g>
     </g>
     <g id="text_4">
      <!-- 01-14 17 -->
      <g transform="translate(299.180721 399.078438) scale(0.1 -0.1)">
       <defs>
        <path id="DejaVuSans-37" d="M 525 4666 
L 3525 4666 
L 3525 4397 
L 1831 0 
L 1172 0 
L 2766 4134 
L 525 4134 
L 525 4666 
z
" transform="scale(0.015625)"/>
       </defs>
       <use xlink:href="#DejaVuSans-30"/>
       <use xlink:href="#DejaVuSans-31" transform="translate(63.623047 0)"/>
       <use xlink:href="#DejaVuSans-2d" transform="translate(127.246094 0)"/>
       <use xlink:href="#DejaVuSans-31" transform="translate(163.330078 0)"/>
       <use xlink:href="#DejaVuSans-34" transform="translate(226.953125 0)"/>
       <use xlink:href="#DejaVuSans-20" transform="translate(290.576172 0)"/>
       <use xlink:href="#DejaVuSans-31" transform="translate(322.363281 0)"/>
       <use xlink:href="#DejaVuSans-37" transform="translate(385.986328 0)"/>
      </g>
     </g>
    </g>
    <g id="xtick_5">
     <g id="line2d_9">
      <path d="M 381.457582 384.48 
L 381.457582 51.84 
" clip-path="url(#pe2110e96ba)" style="fill: none; stroke: #b0b0b0; stroke-width: 0.8; stroke-linecap: square"/>
     </g>
     <g id="line2d_10">
      <g>
       <use xlink:href="#m943c3efdc4" x="381.457582" y="384.48" style="stroke: #000000; stroke-width: 0.8"/>
      </g>
     </g>
     <g id="text_5">
      <!-- 01-14 18 -->
      <g transform="translate(358.977113 399.078438) scale(0.1 -0.1)">
       <defs>
        <path id="DejaVuSans-38" d="M 2034 2216 
Q 1584 2216 1326 1975 
Q 1069 1734 1069 1313 
Q 1069 891 1326 650 
Q 1584 409 2034 409 
Q 2484 409 2743 651 
Q 3003 894 3003 1313 
Q 3003 1734 2745 1975 
Q 2488 2216 2034 2216 
z
M 1403 2484 
Q 997 2584 770 2862 
Q 544 3141 544 3541 
Q 544 4100 942 4425 
Q 1341 4750 2034 4750 
Q 2731 4750 3128 4425 
Q 3525 4100 3525 3541 
Q 3525 3141 3298 2862 
Q 3072 2584 2669 2484 
Q 3125 2378 3379 2068 
Q 3634 1759 3634 1313 
Q 3634 634 3220 271 
Q 2806 -91 2034 -91 
Q 1263 -91 848 271 
Q 434 634 434 1313 
Q 434 1759 690 2068 
Q 947 2378 1403 2484 
z
M 1172 3481 
Q 1172 3119 1398 2916 
Q 1625 2713 2034 2713 
Q 2441 2713 2670 2916 
Q 2900 3119 2900 3481 
Q 2900 3844 2670 4047 
Q 2441 4250 2034 4250 
Q 1625 4250 1398 4047 
Q 1172 3844 1172 3481 
z
" transform="scale(0.015625)"/>
       </defs>
       <use xlink:href="#DejaVuSans-30"/>
       <use xlink:href="#DejaVuSans-31" transform="translate(63.623047 0)"/>
       <use xlink:href="#DejaVuSans-2d" transform="translate(127.246094 0)"/>
       <use xlink:href="#DejaVuSans-31" transform="translate(163.330078 0)"/>
       <use xlink:href="#DejaVuSans-34" transform="translate(226.953125 0)"/>
       <use xlink:href="#DejaVuSans-20" transform="translate(290.576172 0)"/>
       <use xlink:href="#DejaVuSans-31" transform="translate(322.363281 0)"/>
       <use xlink:href="#DejaVuSans-38" transform="translate(385.986328 0)"/>
      </g>
     </g>
    </g>
    <g id="xtick_6">
     <g id="line2d_11">
      <path d="M 441.253974 384.48 
L 441.253974 51.84 
" clip-path="url(#pe2110e96ba)" style="fill: none; stroke: #b0b0b0; stroke-width: 0.8; stroke-linecap: square"/>
     </g>
     <g id="line2d_12">
      <g>
       <use xlink:href="#m943c3efdc4" x="441.253974" y="384.48" style="stroke: #000000; stroke-width: 0.8"/>
      </g>
     </g>
     <g id="text_6">
      <!-- 01-14 19 -->
      <g transform="translate(418.773505 399.078438) scale(0.1 -0.1)">
       <defs>
        <path id="DejaVuSans-39" d="M 703 97 
L 703 672 
Q 941 559 1184 500 
Q 1428 441 1663 441 
Q 2288 441 2617 861 
Q 2947 1281 2994 2138 
Q 2813 1869 2534 1725 
Q 2256 1581 1919 1581 
Q 1219 1581 811 2004 
Q 403 2428 403 3163 
Q 403 3881 828 4315 
Q 1253 4750 1959 4750 
Q 2769 4750 3195 4129 
Q 3622 3509 3622 2328 
Q 3622 1225 3098 567 
Q 2575 -91 1691 -91 
Q 1453 -91 1209 -44 
Q 966 3 703 97 
z
M 1959 2075 
Q 2384 2075 2632 2365 
Q 2881 2656 2881 3163 
Q 2881 3666 2632 3958 
Q 2384 4250 1959 4250 
Q 1534 4250 1286 3958 
Q 1038 3666 1038 3163 
Q 1038 2656 1286 2365 
Q 1534 2075 1959 2075 
z
" transform="scale(0.015625)"/>
       </defs>
       <use xlink:href="#DejaVuSans-30"/>
       <use xlink:href="#DejaVuSans-31" transform="translate(63.623047 0)"/>
       <use xlink:href="#DejaVuSans-2d" transform="translate(127.246094 0)"/>
       <use xlink:href="#DejaVuSans-31" transform="translate(163.330078 0)"/>
       <use xlink:href="#DejaVuSans-34" transform="translate(226.953125 0)"/>
       <use xlink:href="#DejaVuSans-20" transform="translate(290.576172 0)"/>
       <use xlink:href="#DejaVuSans-31" transform="translate(322.363281 0)"/>
       <use xlink:href="#DejaVuSans-39" transform="translate(385.986328 0)"/>
      </g>
     </g>
    </g>
    <g id="xtick_7">
     <g id="line2d_13">
      <path d="M 501.050366 384.48 
L 501.050366 51.84 
" clip-path="url(#pe2110e96ba)" style="fill: none; stroke: #b0b0b0; stroke-width: 0.8; stroke-linecap: square"/>
     </g>
     <g id="line2d_14">
      <g>
       <use xlink:href="#m943c3efdc4" x="501.050366" y="384.48" style="stroke: #000000; stroke-width: 0.8"/>
      </g>
     </g>
     <g id="text_7">
      <!-- 01-14 20 -->
      <g transform="translate(478.569897 399.078438) scale(0.1 -0.1)">
       <defs>
        <path id="DejaVuSans-32" d="M 1228 531 
L 3431 531 
L 3431 0 
L 469 0 
L 469 531 
Q 828 903 1448 1529 
Q 2069 2156 2228 2338 
Q 2531 2678 2651 2914 
Q 2772 3150 2772 3378 
Q 2772 3750 2511 3984 
Q 2250 4219 1831 4219 
Q 1534 4219 1204 4116 
Q 875 4013 500 3803 
L 500 4441 
Q 881 4594 1212 4672 
Q 1544 4750 1819 4750 
Q 2544 4750 2975 4387 
Q 3406 4025 3406 3419 
Q 3406 3131 3298 2873 
Q 3191 2616 2906 2266 
Q 2828 2175 2409 1742 
Q 1991 1309 1228 531 
z
" transform="scale(0.015625)"/>
       </defs>
       <use xlink:href="#DejaVuSans-30"/>
       <use xlink:href="#DejaVuSans-31" transform="translate(63.623047 0)"/>
       <use xlink:href="#DejaVuSans-2d" transform="translate(127.246094 0)"/>
       <use xlink:href="#DejaVuSans-31" transform="translate(163.330078 0)"/>
       <use xlink:href="#DejaVuSans-34" transform="translate(226.953125 0)"/>
       <use xlink:href="#DejaVuSans-20" transform="translate(290.576172 0)"/>
       <use xlink:href="#DejaVuSans-32" transform="translate(322.363281 0)"/>
       <use xlink:href="#DejaVuSans-30" transform="translate(385.986328 0)"/>
      </g>
     </g>
    </g>
    <g id="xtick_8">
     <g id="line2d_15">
      <path d="M 560.846758 384.48 
L 560.846758 51.84 
" clip-path="url(#pe2110e96ba)" style="fill: none; stroke: #b0b0b0; stroke-width: 0.8; stroke-linecap: square"/>
     </g>
     <g id="line2d_16">
      <g>
       <use xlink:href="#m943c3efdc4" x="560.846758" y="384.48" style="stroke: #000000; stroke-width: 0.8"/>
      </g>
     </g>
     <g id="text_8">
      <!-- 01-14 21 -->
      <g transform="translate(538.36629 399.078438) scale(0.1 -0.1)">
       <use xlink:href="#DejaVuSans-30"/>
       <use xlink:href="#DejaVuSans-31" transform="translate(63.623047 0)"/>
       <use xlink:href="#DejaVuSans-2d" transform="translate(127.246094 0)"/>
       <use xlink:href="#DejaVuSans-31" transform="translate(163.330078 0)"/>
       <use xlink:href="#DejaVuSans-34" transform="translate(226.953125 0)"/>
       <use xlink:href="#DejaVuSans-20" transform="translate(290.576172 0)"/>
       <use xlink:href="#DejaVuSans-32" transform="translate(322.363281 0)"/>
       <use xlink:href="#DejaVuSans-31" transform="translate(385.986328 0)"/>
      </g>
     </g>
    </g>
    <g id="xtick_9">
     <g id="line2d_17">
      <path d="M 620.643151 384.48 
L 620.643151 51.84 
" clip-path="url(#pe2110e96ba)" style="fill: none; stroke: #b0b0b0; stroke-width: 0.8; stroke-linecap: square"/>
     </g>
     <g id="line2d_18">
      <g>
       <use xlink:href="#m943c3efdc4" x="620.643151" y="384.48" style="stroke: #000000; stroke-width: 0.8"/>
      </g>
     </g>
     <g id="text_9">
      <!-- 01-14 22 -->
      <g transform="translate(598.162682 399.078438) scale(0.1 -0.1)">
       <use xlink:href="#DejaVuSans-30"/>
       <use xlink:href="#DejaVuSans-31" transform="translate(63.623047 0)"/>
       <use xlink:href="#DejaVuSans-2d" transform="translate(127.246094 0)"/>
       <use xlink:href="#DejaVuSans-31" transform="translate(163.330078 0)"/>
       <use xlink:href="#DejaVuSans-34" transform="translate(226.953125 0)"/>
       <use xlink:href="#DejaVuSans-20" transform="translate(290.576172 0)"/>
       <use xlink:href="#DejaVuSans-32" transform="translate(322.363281 0)"/>
       <use xlink:href="#DejaVuSans-32" transform="translate(385.986328 0)"/>
      </g>
     </g>
    </g>
    <g id="text_10">
     <!-- Date and Time -->
     <g transform="translate(332.230469 412.756563) scale(0.1 -0.1)">
      <defs>
       <path id="DejaVuSans-44" d="M 1259 4147 
L 1259 519 
L 2022 519 
Q 2988 519 3436 956 
Q 3884 1394 3884 2338 
Q 3884 3275 3436 3711 
Q 2988 4147 2022 4147 
L 1259 4147 
z
M 628 4666 
L 1925 4666 
Q 3281 4666 3915 4102 
Q 4550 3538 4550 2338 
Q 4550 1131 3912 565 
Q 3275 0 1925 0 
L 628 0 
L 628 4666 
z
" transform="scale(0.015625)"/>
       <path id="DejaVuSans-61" d="M 2194 1759 
Q 1497 1759 1228 1600 
Q 959 1441 959 1056 
Q 959 750 1161 570 
Q 1363 391 1709 391 
Q 2188 391 2477 730 
Q 2766 1069 2766 1631 
L 2766 1759 
L 2194 1759 
z
M 3341 1997 
L 3341 0 
L 2766 0 
L 2766 531 
Q 2569 213 2275 61 
Q 1981 -91 1556 -91 
Q 1019 -91 701 211 
Q 384 513 384 1019 
Q 384 1609 779 1909 
Q 1175 2209 1959 2209 
L 2766 2209 
L 2766 2266 
Q 2766 2663 2505 2880 
Q 2244 3097 1772 3097 
Q 1472 3097 1187 3025 
Q 903 2953 641 2809 
L 641 3341 
Q 956 3463 1253 3523 
Q 1550 3584 1831 3584 
Q 2591 3584 2966 3190 
Q 3341 2797 3341 1997 
z
" transform="scale(0.015625)"/>
       <path id="DejaVuSans-74" d="M 1172 4494 
L 1172 3500 
L 2356 3500 
L 2356 3053 
L 1172 3053 
L 1172 1153 
Q 1172 725 1289 603 
Q 1406 481 1766 481 
L 2356 481 
L 2356 0 
L 1766 0 
Q 1100 0 847 248 
Q 594 497 594 1153 
L 594 3053 
L 172 3053 
L 172 3500 
L 594 3500 
L 594 4494 
L 1172 4494 
z
" transform="scale(0.015625)"/>
       <path id="DejaVuSans-65" d="M 3597 1894 
L 3597 1613 
L 953 1613 
Q 991 1019 1311 708 
Q 1631 397 2203 397 
Q 2534 397 2845 478 
Q 3156 559 3463 722 
L 3463 178 
Q 3153 47 2828 -22 
Q 2503 -91 2169 -91 
Q 1331 -91 842 396 
Q 353 884 353 1716 
Q 353 2575 817 3079 
Q 1281 3584 2069 3584 
Q 2775 3584 3186 3129 
Q 3597 2675 3597 1894 
z
M 3022 2063 
Q 3016 2534 2758 2815 
Q 2500 3097 2075 3097 
Q 1594 3097 1305 2825 
Q 1016 2553 972 2059 
L 3022 2063 
z
" transform="scale(0.015625)"/>
       <path id="DejaVuSans-6e" d="M 3513 2113 
L 3513 0 
L 2938 0 
L 2938 2094 
Q 2938 2591 2744 2837 
Q 2550 3084 2163 3084 
Q 1697 3084 1428 2787 
Q 1159 2491 1159 1978 
L 1159 0 
L 581 0 
L 581 3500 
L 1159 3500 
L 1159 2956 
Q 1366 3272 1645 3428 
Q 1925 3584 2291 3584 
Q 2894 3584 3203 3211 
Q 3513 2838 3513 2113 
z
" transform="scale(0.015625)"/>
       <path id="DejaVuSans-64" d="M 2906 2969 
L 2906 4863 
L 3481 4863 
L 3481 0 
L 2906 0 
L 2906 525 
Q 2725 213 2448 61 
Q 2172 -91 1784 -91 
Q 1150 -91 751 415 
Q 353 922 353 1747 
Q 353 2572 751 3078 
Q 1150 3584 1784 3584 
Q 2172 3584 2448 3432 
Q 2725 3281 2906 2969 
z
M 947 1747 
Q 947 1113 1208 752 
Q 1469 391 1925 391 
Q 2381 391 2643 752 
Q 2906 1113 2906 1747 
Q 2906 2381 2643 2742 
Q 2381 3103 1925 3103 
Q 1469 3103 1208 2742 
Q 947 2381 947 1747 
z
" transform="scale(0.015625)"/>
       <path id="DejaVuSans-54" d="M -19 4666 
L 3928 4666 
L 3928 4134 
L 2272 4134 
L 2272 0 
L 1638 0 
L 1638 4134 
L -19 4134 
L -19 4666 
z
" transform="scale(0.015625)"/>
       <path id="DejaVuSans-69" d="M 603 3500 
L 1178 3500 
L 1178 0 
L 603 0 
L 603 3500 
z
M 603 4863 
L 1178 4863 
L 1178 4134 
L 603 4134 
L 603 4863 
z
" transform="scale(0.015625)"/>
       <path id="DejaVuSans-6d" d="M 3328 2828 
Q 3544 3216 3844 3400 
Q 4144 3584 4550 3584 
Q 5097 3584 5394 3201 
Q 5691 2819 5691 2113 
L 5691 0 
L 5113 0 
L 5113 2094 
Q 5113 2597 4934 2840 
Q 4756 3084 4391 3084 
Q 3944 3084 3684 2787 
Q 3425 2491 3425 1978 
L 3425 0 
L 2847 0 
L 2847 2094 
Q 2847 2600 2669 2842 
Q 2491 3084 2119 3084 
Q 1678 3084 1418 2786 
Q 1159 2488 1159 1978 
L 1159 0 
L 581 0 
L 581 3500 
L 1159 3500 
L 1159 2956 
Q 1356 3278 1631 3431 
Q 1906 3584 2284 3584 
Q 2666 3584 2933 3390 
Q 3200 3197 3328 2828 
z
" transform="scale(0.015625)"/>
      </defs>
      <use xlink:href="#DejaVuSans-44"/>
      <use xlink:href="#DejaVuSans-61" transform="translate(77.001953 0)"/>
      <use xlink:href="#DejaVuSans-74" transform="translate(138.28125 0)"/>
      <use xlink:href="#DejaVuSans-65" transform="translate(177.490234 0)"/>
      <use xlink:href="#DejaVuSans-20" transform="translate(239.013672 0)"/>
      <use xlink:href="#DejaVuSans-61" transform="translate(270.800781 0)"/>
      <use xlink:href="#DejaVuSans-6e" transform="translate(332.080078 0)"/>
      <use xlink:href="#DejaVuSans-64" transform="translate(395.458984 0)"/>
      <use xlink:href="#DejaVuSans-20" transform="translate(458.935547 0)"/>
      <use xlink:href="#DejaVuSans-54" transform="translate(490.722656 0)"/>
      <use xlink:href="#DejaVuSans-69" transform="translate(548.681641 0)"/>
      <use xlink:href="#DejaVuSans-6d" transform="translate(576.464844 0)"/>
      <use xlink:href="#DejaVuSans-65" transform="translate(673.876953 0)"/>
     </g>
    </g>
   </g>
   <g id="matplotlib.axis_2">
    <g id="ytick_1">
     <g id="line2d_19">
      <path d="M 90 370.388571 
L 648 370.388571 
" clip-path="url(#pe2110e96ba)" style="fill: none; stroke: #b0b0b0; stroke-width: 0.8; stroke-linecap: square"/>
     </g>
     <g id="line2d_20">
      <defs>
       <path id="m462cd58a9e" d="M 0 0 
L -3.5 0 
" style="stroke: #000000; stroke-width: 0.8"/>
      </defs>
      <g>
       <use xlink:href="#m462cd58a9e" x="90" y="370.388571" style="stroke: #000000; stroke-width: 0.8"/>
      </g>
     </g>
     <g id="text_11">
      <!-- 0 -->
      <g transform="translate(76.6375 374.18779) scale(0.1 -0.1)">
       <use xlink:href="#DejaVuSans-30"/>
      </g>
     </g>
    </g>
    <g id="ytick_2">
     <g id="line2d_21">
      <path d="M 90 318.96 
L 648 318.96 
" clip-path="url(#pe2110e96ba)" style="fill: none; stroke: #b0b0b0; stroke-width: 0.8; stroke-linecap: square"/>
     </g>
     <g id="line2d_22">
      <g>
       <use xlink:href="#m462cd58a9e" x="90" y="318.96" style="stroke: #000000; stroke-width: 0.8"/>
      </g>
     </g>
     <g id="text_12">
      <!-- 50 -->
      <g transform="translate(70.275 322.759219) scale(0.1 -0.1)">
       <use xlink:href="#DejaVuSans-35"/>
       <use xlink:href="#DejaVuSans-30" transform="translate(63.623047 0)"/>
      </g>
     </g>
    </g>
    <g id="ytick_3">
     <g id="line2d_23">
      <path d="M 90 267.531429 
L 648 267.531429 
" clip-path="url(#pe2110e96ba)" style="fill: none; stroke: #b0b0b0; stroke-width: 0.8; stroke-linecap: square"/>
     </g>
     <g id="line2d_24">
      <g>
       <use xlink:href="#m462cd58a9e" x="90" y="267.531429" style="stroke: #000000; stroke-width: 0.8"/>
      </g>
     </g>
     <g id="text_13">
      <!-- 100 -->
      <g transform="translate(63.9125 271.330647) scale(0.1 -0.1)">
       <use xlink:href="#DejaVuSans-31"/>
       <use xlink:href="#DejaVuSans-30" transform="translate(63.623047 0)"/>
       <use xlink:href="#DejaVuSans-30" transform="translate(127.246094 0)"/>
      </g>
     </g>
    </g>
    <g id="ytick_4">
     <g id="line2d_25">
      <path d="M 90 216.102857 
L 648 216.102857 
" clip-path="url(#pe2110e96ba)" style="fill: none; stroke: #b0b0b0; stroke-width: 0.8; stroke-linecap: square"/>
     </g>
     <g id="line2d_26">
      <g>
       <use xlink:href="#m462cd58a9e" x="90" y="216.102857" style="stroke: #000000; stroke-width: 0.8"/>
      </g>
     </g>
     <g id="text_14">
      <!-- 150 -->
      <g transform="translate(63.9125 219.902076) scale(0.1 -0.1)">
       <use xlink:href="#DejaVuSans-31"/>
       <use xlink:href="#DejaVuSans-35" transform="translate(63.623047 0)"/>
       <use xlink:href="#DejaVuSans-30" transform="translate(127.246094 0)"/>
      </g>
     </g>
    </g>
    <g id="ytick_5">
     <g id="line2d_27">
      <path d="M 90 164.674286 
L 648 164.674286 
" clip-path="url(#pe2110e96ba)" style="fill: none; stroke: #b0b0b0; stroke-width: 0.8; stroke-linecap: square"/>
     </g>
     <g id="line2d_28">
      <g>
       <use xlink:href="#m462cd58a9e" x="90" y="164.674286" style="stroke: #000000; stroke-width: 0.8"/>
      </g>
     </g>
     <g id="text_15">
      <!-- 200 -->
      <g transform="translate(63.9125 168.473504) scale(0.1 -0.1)">
       <use xlink:href="#DejaVuSans-32"/>
       <use xlink:href="#DejaVuSans-30" transform="translate(63.623047 0)"/>
       <use xlink:href="#DejaVuSans-30" transform="translate(127.246094 0)"/>
      </g>
     </g>
    </g>
    <g id="ytick_6">
     <g id="line2d_29">
      <path d="M 90 113.245714 
L 648 113.245714 
" clip-path="url(#pe2110e96ba)" style="fill: none; stroke: #b0b0b0; stroke-width: 0.8; stroke-linecap: square"/>
     </g>
     <g id="line2d_30">
      <g>
       <use xlink:href="#m462cd58a9e" x="90" y="113.245714" style="stroke: #000000; stroke-width: 0.8"/>
      </g>
     </g>
     <g id="text_16">
      <!-- 250 -->
      <g transform="translate(63.9125 117.044933) scale(0.1 -0.1)">
       <use xlink:href="#DejaVuSans-32"/>
       <use xlink:href="#DejaVuSans-35" transform="translate(63.623047 0)"/>
       <use xlink:href="#DejaVuSans-30" transform="translate(127.246094 0)"/>
      </g>
     </g>
    </g>
    <g id="ytick_7">
     <g id="line2d_31">
      <path d="M 90 61.817143 
L 648 61.817143 
" clip-path="url(#pe2110e96ba)" style="fill: none; stroke: #b0b0b0; stroke-width: 0.8; stroke-linecap: square"/>
     </g>
     <g id="line2d_32">
      <g>
       <use xlink:href="#m462cd58a9e" x="90" y="61.817143" style="stroke: #000000; stroke-width: 0.8"/>
      </g>
     </g>
     <g id="text_17">
      <!-- 300 -->
      <g transform="translate(63.9125 65.616362) scale(0.1 -0.1)">
       <defs>
        <path id="DejaVuSans-33" d="M 2597 2516 
Q 3050 2419 3304 2112 
Q 3559 1806 3559 1356 
Q 3559 666 3084 287 
Q 2609 -91 1734 -91 
Q 1441 -91 1130 -33 
Q 819 25 488 141 
L 488 750 
Q 750 597 1062 519 
Q 1375 441 1716 441 
Q 2309 441 2620 675 
Q 2931 909 2931 1356 
Q 2931 1769 2642 2001 
Q 2353 2234 1838 2234 
L 1294 2234 
L 1294 2753 
L 1863 2753 
Q 2328 2753 2575 2939 
Q 2822 3125 2822 3475 
Q 2822 3834 2567 4026 
Q 2313 4219 1838 4219 
Q 1578 4219 1281 4162 
Q 984 4106 628 3988 
L 628 4550 
Q 988 4650 1302 4700 
Q 1616 4750 1894 4750 
Q 2613 4750 3031 4423 
Q 3450 4097 3450 3541 
Q 3450 3153 3228 2886 
Q 3006 2619 2597 2516 
z
" transform="scale(0.015625)"/>
       </defs>
       <use xlink:href="#DejaVuSans-33"/>
       <use xlink:href="#DejaVuSans-30" transform="translate(63.623047 0)"/>
       <use xlink:href="#DejaVuSans-30" transform="translate(127.246094 0)"/>
      </g>
     </g>
    </g>
    <g id="text_18">
     <!-- Votes -->
     <g transform="translate(57.832812 231.893594) rotate(-90) scale(0.1 -0.1)">
      <defs>
       <path id="DejaVuSans-56" d="M 1831 0 
L 50 4666 
L 709 4666 
L 2188 738 
L 3669 4666 
L 4325 4666 
L 2547 0 
L 1831 0 
z
" transform="scale(0.015625)"/>
       <path id="DejaVuSans-6f" d="M 1959 3097 
Q 1497 3097 1228 2736 
Q 959 2375 959 1747 
Q 959 1119 1226 758 
Q 1494 397 1959 397 
Q 2419 397 2687 759 
Q 2956 1122 2956 1747 
Q 2956 2369 2687 2733 
Q 2419 3097 1959 3097 
z
M 1959 3584 
Q 2709 3584 3137 3096 
Q 3566 2609 3566 1747 
Q 3566 888 3137 398 
Q 2709 -91 1959 -91 
Q 1206 -91 779 398 
Q 353 888 353 1747 
Q 353 2609 779 3096 
Q 1206 3584 1959 3584 
z
" transform="scale(0.015625)"/>
       <path id="DejaVuSans-73" d="M 2834 3397 
L 2834 2853 
Q 2591 2978 2328 3040 
Q 2066 3103 1784 3103 
Q 1356 3103 1142 2972 
Q 928 2841 928 2578 
Q 928 2378 1081 2264 
Q 1234 2150 1697 2047 
L 1894 2003 
Q 2506 1872 2764 1633 
Q 3022 1394 3022 966 
Q 3022 478 2636 193 
Q 2250 -91 1575 -91 
Q 1294 -91 989 -36 
Q 684 19 347 128 
L 347 722 
Q 666 556 975 473 
Q 1284 391 1588 391 
Q 1994 391 2212 530 
Q 2431 669 2431 922 
Q 2431 1156 2273 1281 
Q 2116 1406 1581 1522 
L 1381 1569 
Q 847 1681 609 1914 
Q 372 2147 372 2553 
Q 372 3047 722 3315 
Q 1072 3584 1716 3584 
Q 2034 3584 2315 3537 
Q 2597 3491 2834 3397 
z
" transform="scale(0.015625)"/>
      </defs>
      <use xlink:href="#DejaVuSans-56"/>
      <use xlink:href="#DejaVuSans-6f" transform="translate(60.658203 0)"/>
      <use xlink:href="#DejaVuSans-74" transform="translate(121.839844 0)"/>
      <use xlink:href="#DejaVuSans-65" transform="translate(161.048828 0)"/>
      <use xlink:href="#DejaVuSans-73" transform="translate(222.572266 0)"/>
     </g>
    </g>
   </g>
   <g id="line2d_33">
    <path d="M 115.363636 351.874286 
L 125.329702 351.874286 
L 126.326308 350.845714 
L 136.292374 350.845714 
L 137.28898 348.788571 
L 146.258439 348.788571 
L 147.255046 347.76 
L 152.238078 347.76 
L 153.234685 346.731429 
L 157.221111 346.731429 
L 158.217717 345.702857 
L 161.207537 345.702857 
L 162.204144 344.674286 
L 176.156635 344.674286 
L 177.153242 343.645714 
L 188.115914 343.645714 
L 190.109127 341.588571 
L 192.10234 341.588571 
L 193.098946 340.56 
L 202.068405 340.56 
L 204.061618 338.502857 
L 216.020897 338.502857 
L 217.017503 337.474286 
L 220.007323 337.474286 
L 221.003929 336.445714 
L 222.000536 336.445714 
L 222.997142 335.417143 
L 249.905519 335.417143 
L 250.902125 334.388571 
L 262.861404 334.388571 
L 263.85801 333.36 
L 270.834256 333.36 
L 271.830863 332.331429 
L 272.827469 330.274286 
L 273.824076 330.274286 
L 275.817289 328.217143 
L 291.762993 328.217143 
L 292.7596 327.188571 
L 298.739239 327.188571 
L 299.735846 326.16 
L 303.722272 326.16 
L 304.718878 325.131429 
L 314.684944 325.131429 
L 315.68155 324.102857 
L 317.674763 324.102857 
L 318.67137 323.074286 
L 321.661189 323.074286 
L 322.657796 322.045714 
L 330.630648 322.045714 
L 331.627255 321.017143 
L 332.623861 321.017143 
L 333.620468 319.988571 
L 343.586533 319.988571 
L 344.58314 318.96 
L 351.559386 318.96 
L 352.555992 317.931429 
L 353.552599 317.931429 
L 355.545812 315.874286 
L 377.471156 315.874286 
L 378.467762 314.845714 
L 394.413467 314.845714 
L 395.410073 313.817143 
L 396.40668 313.817143 
L 397.403286 312.788571 
L 406.372745 312.788571 
L 407.369352 311.76 
L 408.365958 311.76 
L 409.362565 310.731429 
L 414.345597 310.731429 
L 415.342204 309.702857 
L 418.332024 309.702857 
L 420.325237 307.645714 
L 421.321843 307.645714 
L 422.31845 306.617143 
L 424.311663 306.617143 
L 425.308269 305.588571 
L 427.301482 305.588571 
L 428.298089 304.56 
L 430.291302 304.56 
L 431.287909 303.531429 
L 455.206465 303.531429 
L 456.203072 302.502857 
L 466.169137 302.502857 
L 467.165744 301.474286 
L 473.145383 301.474286 
L 474.14199 300.445714 
L 475.138596 300.445714 
L 476.135203 299.417143 
L 477.131809 299.417143 
L 481.118235 295.302857 
L 483.111448 295.302857 
L 484.108055 293.245714 
L 492.080907 293.245714 
L 494.07412 291.188571 
L 496.067333 291.188571 
L 497.06394 290.16 
L 501.050366 290.16 
L 502.046973 289.131429 
L 509.023218 289.131429 
L 510.019825 288.102857 
L 512.013038 288.102857 
L 513.009645 287.074286 
L 518.989284 287.074286 
L 520.982497 285.017143 
L 527.958743 285.017143 
L 528.955349 283.988571 
L 531.945169 283.988571 
L 532.941775 282.96 
L 534.934988 282.96 
L 535.931595 280.902857 
L 539.918021 280.902857 
L 540.914628 278.845714 
L 541.911234 277.817143 
L 545.89766 277.817143 
L 546.894267 275.76 
L 553.870513 275.76 
L 554.867119 274.731429 
L 558.853545 274.731429 
L 559.850152 273.702857 
L 562.839971 273.702857 
L 563.836578 272.674286 
L 564.833185 270.617143 
L 566.826398 270.617143 
L 567.823004 269.588571 
L 583.768709 269.588571 
L 585.761922 267.531429 
L 599.714413 267.531429 
L 600.71102 266.502857 
L 606.690659 266.502857 
L 607.687266 265.474286 
L 620.643151 265.474286 
L 621.639757 264.445714 
L 622.636364 264.445714 
L 622.636364 264.445714 
" clip-path="url(#pe2110e96ba)" style="fill: none; stroke: #1f77b4; stroke-width: 1.5; stroke-linecap: square"/>
   </g>
   <g id="line2d_34">
    <path d="M 115.363636 286.045714 
L 116.360243 285.017143 
L 119.350063 285.017143 
L 120.346669 283.988571 
L 121.343276 283.988571 
L 122.339882 282.96 
L 123.336489 282.96 
L 125.329702 280.902857 
L 126.326308 278.845714 
L 127.322915 278.845714 
L 129.316128 276.788571 
L 130.312734 276.788571 
L 131.309341 272.674286 
L 132.305947 270.617143 
L 133.302554 266.502857 
L 134.299161 263.417143 
L 137.28898 263.417143 
L 138.285587 260.331429 
L 139.282193 258.274286 
L 141.275406 256.217143 
L 142.272013 254.16 
L 144.265226 252.102857 
L 145.261832 250.045714 
L 148.251652 250.045714 
L 149.248259 244.902857 
L 150.244865 242.845714 
L 151.241472 241.817143 
L 152.238078 239.76 
L 153.234685 238.731429 
L 154.231291 238.731429 
L 155.227898 235.645714 
L 156.224504 235.645714 
L 157.221111 233.588571 
L 158.217717 232.56 
L 159.214324 232.56 
L 160.210931 231.531429 
L 162.204144 231.531429 
L 163.20075 230.502857 
L 165.193963 230.502857 
L 166.19057 228.445714 
L 167.187176 228.445714 
L 168.183783 227.417143 
L 172.170209 227.417143 
L 173.166816 226.388571 
L 176.156635 226.388571 
L 177.153242 225.36 
L 178.149848 225.36 
L 179.146455 223.302857 
L 180.143061 223.302857 
L 181.139668 221.245714 
L 182.136274 220.217143 
L 185.126094 220.217143 
L 186.1227 218.16 
L 187.119307 217.131429 
L 188.115914 214.045714 
L 190.109127 211.988571 
L 198.081979 211.988571 
L 199.078585 208.902857 
L 200.075192 208.902857 
L 202.068405 206.845714 
L 203.065012 206.845714 
L 206.054831 203.76 
L 208.048044 203.76 
L 209.044651 202.731429 
L 211.037864 202.731429 
L 214.027684 199.645714 
L 216.020897 199.645714 
L 217.017503 198.617143 
L 222.000536 198.617143 
L 222.997142 197.588571 
L 224.990355 197.588571 
L 225.986962 196.56 
L 237.94624 196.56 
L 238.942847 194.502857 
L 240.93606 194.502857 
L 242.929273 192.445714 
L 243.92588 192.445714 
L 244.922486 191.417143 
L 250.902125 191.417143 
L 253.891945 188.331429 
L 254.888552 188.331429 
L 255.885158 187.302857 
L 256.881765 185.245714 
L 257.878371 185.245714 
L 258.874978 184.217143 
L 259.871584 184.217143 
L 263.85801 180.102857 
L 265.851223 180.102857 
L 266.84783 178.045714 
L 269.83765 178.045714 
L 270.834256 177.017143 
L 273.824076 177.017143 
L 274.820682 175.988571 
L 275.817289 175.988571 
L 276.813895 172.902857 
L 279.803715 172.902857 
L 280.800321 171.874286 
L 281.796928 169.817143 
L 283.790141 169.817143 
L 284.786748 168.788571 
L 286.779961 168.788571 
L 287.776567 167.76 
L 288.773174 167.76 
L 293.756206 162.617143 
L 295.74942 162.617143 
L 298.739239 159.531429 
L 301.729059 159.531429 
L 302.725665 157.474286 
L 303.722272 157.474286 
L 304.718878 156.445714 
L 307.708698 156.445714 
L 308.705305 155.417143 
L 317.674763 155.417143 
L 318.67137 154.388571 
L 325.647616 154.388571 
L 326.644222 153.36 
L 328.637435 153.36 
L 330.630648 151.302857 
L 335.613681 151.302857 
L 336.610288 150.274286 
L 341.59332 150.274286 
L 344.58314 147.188571 
L 357.539025 147.188571 
L 358.535631 145.131429 
L 359.532238 144.102857 
L 383.450795 144.102857 
L 384.447401 143.074286 
L 390.427041 143.074286 
L 392.420254 141.017143 
L 394.413467 141.017143 
L 395.410073 139.988571 
L 396.40668 139.988571 
L 398.399893 137.931429 
L 399.396499 137.931429 
L 400.393106 136.902857 
L 401.389712 136.902857 
L 403.382926 132.788571 
L 404.379532 131.76 
L 409.362565 131.76 
L 410.359171 128.674286 
L 411.355778 126.617143 
L 413.348991 126.617143 
L 415.342204 124.56 
L 420.325237 124.56 
L 422.31845 122.502857 
L 424.311663 122.502857 
L 425.308269 121.474286 
L 427.301482 121.474286 
L 428.298089 120.445714 
L 429.294695 120.445714 
L 430.291302 119.417143 
L 431.287909 119.417143 
L 432.284515 118.388571 
L 433.281122 118.388571 
L 434.277728 117.36 
L 436.270941 117.36 
L 437.267548 115.302857 
L 442.25058 115.302857 
L 444.243794 113.245714 
L 454.209859 113.245714 
L 455.206465 112.217143 
L 456.203072 112.217143 
L 457.199679 111.188571 
L 458.196285 111.188571 
L 461.186105 108.102857 
L 463.179318 108.102857 
L 464.175924 107.074286 
L 484.108055 107.074286 
L 486.101268 105.017143 
L 490.087694 105.017143 
L 491.084301 103.988571 
L 492.080907 103.988571 
L 493.077514 102.96 
L 494.07412 102.96 
L 495.070727 101.931429 
L 516.996071 101.931429 
L 517.992677 100.902857 
L 537.924808 100.902857 
L 538.921415 98.845714 
L 545.89766 98.845714 
L 547.890873 96.788571 
L 549.884086 96.788571 
L 550.880693 95.76 
L 552.873906 95.76 
L 554.867119 93.702857 
L 556.860332 93.702857 
L 557.856939 91.645714 
L 565.829791 91.645714 
L 566.826398 90.617143 
L 571.80943 90.617143 
L 572.806037 89.588571 
L 578.785676 89.588571 
L 579.782283 88.56 
L 586.758528 88.56 
L 588.751741 86.502857 
L 589.748348 86.502857 
L 590.744954 85.474286 
L 596.724594 85.474286 
L 597.7212 84.445714 
L 601.707626 84.445714 
L 602.704233 83.417143 
L 603.700839 83.417143 
L 604.697446 82.388571 
L 619.646544 82.388571 
L 622.636364 79.302857 
L 622.636364 79.302857 
" clip-path="url(#pe2110e96ba)" style="fill: none; stroke: #ff7f0e; stroke-width: 1.5; stroke-linecap: square"/>
   </g>
   <g id="line2d_35">
    <path d="M 115.363636 338.502857 
L 119.350063 338.502857 
L 120.346669 336.445714 
L 122.339882 336.445714 
L 123.336489 335.417143 
L 124.333095 333.36 
L 125.329702 332.331429 
L 126.326308 329.245714 
L 127.322915 327.188571 
L 128.319521 326.16 
L 129.316128 326.16 
L 130.312734 324.102857 
L 131.309341 321.017143 
L 135.295767 321.017143 
L 136.292374 319.988571 
L 137.28898 319.988571 
L 138.285587 317.931429 
L 141.275406 317.931429 
L 143.268619 315.874286 
L 147.255046 315.874286 
L 148.251652 314.845714 
L 152.238078 314.845714 
L 155.227898 311.76 
L 160.210931 311.76 
L 161.207537 310.731429 
L 164.197357 310.731429 
L 165.193963 309.702857 
L 167.187176 309.702857 
L 168.183783 307.645714 
L 176.156635 307.645714 
L 177.153242 306.617143 
L 178.149848 304.56 
L 179.146455 303.531429 
L 180.143061 303.531429 
L 181.139668 302.502857 
L 183.132881 302.502857 
L 184.129487 301.474286 
L 186.1227 301.474286 
L 187.119307 300.445714 
L 193.098946 300.445714 
L 194.095553 299.417143 
L 195.092159 299.417143 
L 196.088766 298.388571 
L 197.085372 298.388571 
L 198.081979 297.36 
L 201.071799 297.36 
L 202.068405 296.331429 
L 203.065012 294.274286 
L 208.048044 294.274286 
L 211.037864 291.188571 
L 214.027684 291.188571 
L 215.02429 290.16 
L 219.010716 290.16 
L 220.007323 289.131429 
L 221.003929 289.131429 
L 222.000536 288.102857 
L 223.993749 288.102857 
L 224.990355 287.074286 
L 227.980175 287.074286 
L 229.973388 285.017143 
L 230.969995 285.017143 
L 231.966601 283.988571 
L 239.939453 283.988571 
L 240.93606 281.931429 
L 241.932667 280.902857 
L 249.905519 280.902857 
L 250.902125 279.874286 
L 253.891945 279.874286 
L 254.888552 278.845714 
L 257.878371 278.845714 
L 258.874978 277.817143 
L 268.841043 277.817143 
L 269.83765 276.788571 
L 273.824076 276.788571 
L 274.820682 275.76 
L 280.800321 275.76 
L 281.796928 274.731429 
L 283.790141 274.731429 
L 284.786748 273.702857 
L 288.773174 273.702857 
L 290.766387 271.645714 
L 309.701911 271.645714 
L 310.698518 270.617143 
L 311.695124 270.617143 
L 312.691731 269.588571 
L 315.68155 269.588571 
L 316.678157 268.56 
L 321.661189 268.56 
L 322.657796 267.531429 
L 324.651009 267.531429 
L 325.647616 266.502857 
L 331.627255 266.502857 
L 332.623861 267.531429 
L 333.620468 266.502857 
L 340.596714 266.502857 
L 341.59332 265.474286 
L 349.566173 265.474286 
L 350.562779 264.445714 
L 352.555992 264.445714 
L 353.552599 263.417143 
L 354.549205 263.417143 
L 355.545812 262.388571 
L 362.522058 262.388571 
L 363.518664 261.36 
L 369.498303 261.36 
L 370.49491 260.331429 
L 385.444008 260.331429 
L 386.440614 259.302857 
L 408.365958 259.302857 
L 409.362565 258.274286 
L 419.32863 258.274286 
L 420.325237 257.245714 
L 436.270941 257.245714 
L 438.264154 255.188571 
L 456.203072 255.188571 
L 457.199679 254.16 
L 458.196285 252.102857 
L 478.128416 252.102857 
L 479.125022 251.074286 
L 481.118235 251.074286 
L 482.114842 250.045714 
L 488.094481 250.045714 
L 489.091088 249.017143 
L 492.080907 249.017143 
L 494.07412 246.96 
L 496.067333 246.96 
L 497.06394 245.931429 
L 501.050366 245.931429 
L 502.046973 243.874286 
L 505.036792 243.874286 
L 506.033399 242.845714 
L 507.030005 242.845714 
L 509.023218 240.788571 
L 521.979103 240.788571 
L 522.97571 239.76 
L 534.934988 239.76 
L 535.931595 237.702857 
L 543.904447 237.702857 
L 545.89766 235.645714 
L 555.863726 235.645714 
L 558.853545 232.56 
L 561.843365 232.56 
L 562.839971 231.531429 
L 564.833185 231.531429 
L 565.829791 230.502857 
L 574.79925 230.502857 
L 575.795856 229.474286 
L 584.765315 229.474286 
L 585.761922 228.445714 
L 592.738168 228.445714 
L 594.731381 226.388571 
L 601.707626 226.388571 
L 602.704233 225.36 
L 612.670298 225.36 
L 613.666905 224.331429 
L 614.663511 224.331429 
L 615.660118 223.302857 
L 622.636364 223.302857 
L 622.636364 223.302857 
" clip-path="url(#pe2110e96ba)" style="fill: none; stroke: #2ca02c; stroke-width: 1.5; stroke-linecap: square"/>
   </g>
   <g id="line2d_36">
    <path d="M 115.363636 369.36 
L 361.525451 369.36 
L 362.522058 368.331429 
L 573.802643 368.331429 
L 574.79925 367.302857 
L 622.636364 367.302857 
L 622.636364 367.302857 
" clip-path="url(#pe2110e96ba)" style="fill: none; stroke: #d62728; stroke-width: 1.5; stroke-linecap: square"/>
   </g>
   <g id="line2d_37">
    <path d="M 115.363636 346.731429 
L 118.353456 346.731429 
L 119.350063 345.702857 
L 125.329702 345.702857 
L 126.326308 344.674286 
L 132.305947 344.674286 
L 133.302554 343.645714 
L 155.227898 343.645714 
L 156.224504 342.617143 
L 192.10234 342.617143 
L 194.095553 340.56 
L 202.068405 340.56 
L 203.065012 339.531429 
L 207.051438 339.531429 
L 208.048044 338.502857 
L 210.041257 338.502857 
L 211.037864 337.474286 
L 236.949634 337.474286 
L 237.94624 336.445714 
L 278.807108 336.445714 
L 279.803715 335.417143 
L 409.362565 335.417143 
L 410.359171 334.388571 
L 411.355778 334.388571 
L 412.352384 333.36 
L 475.138596 333.36 
L 476.135203 332.331429 
L 622.636364 332.331429 
L 622.636364 332.331429 
" clip-path="url(#pe2110e96ba)" style="fill: none; stroke: #9467bd; stroke-width: 1.5; stroke-linecap: square"/>
   </g>
   <g id="line2d_38">
    <path d="M 115.363636 354.96 
L 116.360243 354.96 
L 117.356849 353.931429 
L 131.309341 353.931429 
L 132.305947 352.902857 
L 144.265226 352.902857 
L 145.261832 351.874286 
L 160.210931 351.874286 
L 162.204144 349.817143 
L 173.166816 349.817143 
L 174.163422 348.788571 
L 204.061618 348.788571 
L 205.058225 347.76 
L 214.027684 347.76 
L 215.02429 346.731429 
L 231.966601 346.731429 
L 232.963208 345.702857 
L 248.908912 345.702857 
L 249.905519 344.674286 
L 253.891945 344.674286 
L 254.888552 343.645714 
L 263.85801 343.645714 
L 264.854617 342.617143 
L 288.773174 342.617143 
L 289.76978 341.588571 
L 295.74942 341.588571 
L 296.746026 340.56 
L 302.725665 340.56 
L 303.722272 339.531429 
L 307.708698 339.531429 
L 308.705305 338.502857 
L 345.579746 338.502857 
L 346.576353 337.474286 
L 375.477942 337.474286 
L 376.474549 336.445714 
L 434.277728 336.445714 
L 435.274335 335.417143 
L 463.179318 335.417143 
L 464.175924 334.388571 
L 477.131809 334.388571 
L 478.128416 333.36 
L 622.636364 333.36 
L 622.636364 333.36 
" clip-path="url(#pe2110e96ba)" style="fill: none; stroke: #8c564b; stroke-width: 1.5; stroke-linecap: square"/>
   </g>
   <g id="line2d_39">
    <path d="M 115.363636 278.845714 
L 119.350063 278.845714 
L 120.346669 277.817143 
L 124.333095 277.817143 
L 126.326308 275.76 
L 127.322915 275.76 
L 128.319521 274.731429 
L 129.316128 274.731429 
L 130.312734 273.702857 
L 132.305947 273.702857 
L 133.302554 272.674286 
L 136.292374 272.674286 
L 137.28898 271.645714 
L 139.282193 271.645714 
L 140.2788 270.617143 
L 141.275406 270.617143 
L 142.272013 269.588571 
L 144.265226 269.588571 
L 146.258439 267.531429 
L 150.244865 267.531429 
L 151.241472 266.502857 
L 154.231291 266.502857 
L 156.224504 264.445714 
L 158.217717 264.445714 
L 159.214324 263.417143 
L 161.207537 263.417143 
L 162.204144 262.388571 
L 163.20075 260.331429 
L 164.197357 257.245714 
L 166.19057 257.245714 
L 167.187176 256.217143 
L 172.170209 256.217143 
L 174.163422 254.16 
L 175.160029 252.102857 
L 176.156635 251.074286 
L 177.153242 251.074286 
L 178.149848 249.017143 
L 182.136274 249.017143 
L 183.132881 247.988571 
L 184.129487 247.988571 
L 186.1227 245.931429 
L 187.119307 245.931429 
L 188.115914 244.902857 
L 189.11252 244.902857 
L 191.105733 242.845714 
L 193.098946 242.845714 
L 194.095553 240.788571 
L 198.081979 240.788571 
L 200.075192 238.731429 
L 202.068405 238.731429 
L 203.065012 237.702857 
L 204.061618 235.645714 
L 207.051438 235.645714 
L 208.048044 234.617143 
L 209.044651 234.617143 
L 210.041257 232.56 
L 211.037864 232.56 
L 212.03447 231.531429 
L 213.031077 231.531429 
L 214.027684 230.502857 
L 218.01411 230.502857 
L 220.007323 228.445714 
L 221.003929 228.445714 
L 222.000536 226.388571 
L 222.997142 226.388571 
L 223.993749 225.36 
L 224.990355 225.36 
L 225.986962 224.331429 
L 228.976782 224.331429 
L 229.973388 223.302857 
L 230.969995 223.302857 
L 234.956421 219.188571 
L 235.953027 217.131429 
L 237.94624 217.131429 
L 239.939453 213.017143 
L 241.932667 213.017143 
L 243.92588 210.96 
L 244.922486 210.96 
L 245.919093 208.902857 
L 246.915699 208.902857 
L 247.912306 207.874286 
L 248.908912 207.874286 
L 249.905519 206.845714 
L 251.898732 206.845714 
L 252.895338 205.817143 
L 253.891945 205.817143 
L 254.888552 204.788571 
L 258.874978 204.788571 
L 259.871584 199.645714 
L 260.868191 199.645714 
L 261.864797 198.617143 
L 264.854617 198.617143 
L 265.851223 197.588571 
L 274.820682 197.588571 
L 275.817289 195.531429 
L 279.803715 195.531429 
L 280.800321 194.502857 
L 290.766387 194.502857 
L 291.762993 192.445714 
L 292.7596 191.417143 
L 297.742633 191.417143 
L 298.739239 190.388571 
L 305.715485 190.388571 
L 306.712091 189.36 
L 307.708698 189.36 
L 308.705305 188.331429 
L 314.684944 188.331429 
L 316.678157 186.274286 
L 323.654403 186.274286 
L 325.647616 184.217143 
L 326.644222 184.217143 
L 327.640829 183.188571 
L 333.620468 183.188571 
L 334.617074 182.16 
L 337.606894 182.16 
L 338.603501 181.131429 
L 339.600107 179.074286 
L 342.589927 179.074286 
L 343.586533 178.045714 
L 344.58314 178.045714 
L 346.576353 175.988571 
L 350.562779 175.988571 
L 351.559386 174.96 
L 355.545812 174.96 
L 356.542418 173.931429 
L 359.532238 173.931429 
L 360.528844 172.902857 
L 368.501697 172.902857 
L 370.49491 170.845714 
L 375.477942 170.845714 
L 376.474549 169.817143 
L 380.460975 169.817143 
L 385.444008 164.674286 
L 387.437221 164.674286 
L 388.433827 163.645714 
L 389.430434 163.645714 
L 390.427041 161.588571 
L 392.420254 159.531429 
L 394.413467 155.417143 
L 396.40668 155.417143 
L 398.399893 151.302857 
L 400.393106 151.302857 
L 401.389712 149.245714 
L 403.382926 147.188571 
L 406.372745 147.188571 
L 407.369352 146.16 
L 408.365958 146.16 
L 410.359171 144.102857 
L 414.345597 144.102857 
L 415.342204 143.074286 
L 417.335417 143.074286 
L 418.332024 142.045714 
L 423.315056 142.045714 
L 424.311663 139.988571 
L 425.308269 138.96 
L 426.304876 138.96 
L 427.301482 137.931429 
L 429.294695 137.931429 
L 430.291302 136.902857 
L 432.284515 136.902857 
L 433.281122 134.845714 
L 435.274335 134.845714 
L 436.270941 133.817143 
L 437.267548 133.817143 
L 438.264154 132.788571 
L 443.247187 132.788571 
L 444.243794 131.76 
L 449.226826 131.76 
L 450.223433 130.731429 
L 451.220039 130.731429 
L 452.216646 128.674286 
L 454.209859 126.617143 
L 455.206465 123.531429 
L 456.203072 122.502857 
L 457.199679 122.502857 
L 458.196285 121.474286 
L 459.192892 121.474286 
L 460.189498 120.445714 
L 464.175924 120.445714 
L 465.172531 119.417143 
L 467.165744 119.417143 
L 468.16235 118.388571 
L 470.155563 118.388571 
L 472.148777 116.331429 
L 475.138596 116.331429 
L 476.135203 115.302857 
L 481.118235 115.302857 
L 482.114842 113.245714 
L 487.097875 113.245714 
L 488.094481 112.217143 
L 491.084301 112.217143 
L 492.080907 110.16 
L 496.067333 110.16 
L 497.06394 109.131429 
L 506.033399 109.131429 
L 507.030005 108.102857 
L 509.023218 108.102857 
L 510.019825 107.074286 
L 516.996071 107.074286 
L 517.992677 106.045714 
L 518.989284 106.045714 
L 519.98589 105.017143 
L 520.982497 105.017143 
L 521.979103 103.988571 
L 527.958743 103.988571 
L 529.951956 101.931429 
L 543.904447 101.931429 
L 544.901054 100.902857 
L 545.89766 100.902857 
L 547.890873 98.845714 
L 548.88748 98.845714 
L 549.884086 97.817143 
L 561.843365 97.817143 
L 562.839971 96.788571 
L 563.836578 94.731429 
L 565.829791 94.731429 
L 566.826398 93.702857 
L 571.80943 93.702857 
L 572.806037 92.674286 
L 573.802643 92.674286 
L 575.795856 90.617143 
L 580.778889 90.617143 
L 581.775496 89.588571 
L 584.765315 89.588571 
L 585.761922 88.56 
L 587.755135 88.56 
L 588.751741 87.531429 
L 590.744954 87.531429 
L 591.741561 86.502857 
L 592.738168 86.502857 
L 593.734774 84.445714 
L 600.71102 84.445714 
L 601.707626 81.36 
L 602.704233 79.302857 
L 603.700839 79.302857 
L 607.687266 75.188571 
L 608.683872 73.131429 
L 610.677085 73.131429 
L 611.673692 71.074286 
L 619.646544 71.074286 
L 621.639757 69.017143 
L 622.636364 66.96 
L 622.636364 66.96 
" clip-path="url(#pe2110e96ba)" style="fill: none; stroke: #e377c2; stroke-width: 1.5; stroke-linecap: square"/>
   </g>
   <g id="line2d_40">
    <path d="M 115.363636 342.617143 
L 116.360243 342.617143 
L 118.353456 340.56 
L 123.336489 340.56 
L 124.333095 339.531429 
L 125.329702 339.531429 
L 127.322915 337.474286 
L 129.316128 337.474286 
L 130.312734 336.445714 
L 133.302554 336.445714 
L 134.299161 335.417143 
L 135.295767 335.417143 
L 136.292374 334.388571 
L 137.28898 334.388571 
L 139.282193 332.331429 
L 142.272013 332.331429 
L 143.268619 331.302857 
L 145.261832 331.302857 
L 147.255046 329.245714 
L 149.248259 329.245714 
L 151.241472 327.188571 
L 152.238078 327.188571 
L 153.234685 326.16 
L 154.231291 323.074286 
L 158.217717 323.074286 
L 162.204144 318.96 
L 163.20075 318.96 
L 165.193963 316.902857 
L 166.19057 316.902857 
L 167.187176 315.874286 
L 168.183783 315.874286 
L 169.180389 314.845714 
L 178.149848 314.845714 
L 179.146455 313.817143 
L 189.11252 313.817143 
L 191.105733 311.76 
L 194.095553 311.76 
L 195.092159 310.731429 
L 197.085372 310.731429 
L 199.078585 308.674286 
L 201.071799 308.674286 
L 202.068405 306.617143 
L 205.058225 306.617143 
L 206.054831 304.56 
L 207.051438 303.531429 
L 212.03447 303.531429 
L 213.031077 302.502857 
L 214.027684 302.502857 
L 216.020897 300.445714 
L 221.003929 300.445714 
L 222.000536 299.417143 
L 222.997142 299.417143 
L 223.993749 298.388571 
L 229.973388 298.388571 
L 230.969995 297.36 
L 233.959814 297.36 
L 234.956421 296.331429 
L 235.953027 296.331429 
L 236.949634 293.245714 
L 237.94624 293.245714 
L 238.942847 291.188571 
L 239.939453 290.16 
L 240.93606 290.16 
L 242.929273 288.102857 
L 244.922486 288.102857 
L 245.919093 287.074286 
L 247.912306 287.074286 
L 248.908912 286.045714 
L 249.905519 286.045714 
L 250.902125 283.988571 
L 251.898732 283.988571 
L 252.895338 282.96 
L 254.888552 282.96 
L 256.881765 280.902857 
L 257.878371 280.902857 
L 258.874978 278.845714 
L 259.871584 277.817143 
L 266.84783 277.817143 
L 267.844437 275.76 
L 270.834256 275.76 
L 271.830863 274.731429 
L 272.827469 274.731429 
L 273.824076 273.702857 
L 276.813895 273.702857 
L 277.810502 272.674286 
L 282.793535 272.674286 
L 283.790141 271.645714 
L 285.783354 271.645714 
L 286.779961 270.617143 
L 291.762993 270.617143 
L 292.7596 269.588571 
L 301.729059 269.588571 
L 303.722272 267.531429 
L 304.718878 267.531429 
L 305.715485 266.502857 
L 306.712091 266.502857 
L 307.708698 265.474286 
L 308.705305 265.474286 
L 309.701911 264.445714 
L 311.695124 264.445714 
L 312.691731 263.417143 
L 313.688337 263.417143 
L 315.68155 261.36 
L 318.67137 261.36 
L 319.667976 260.331429 
L 322.657796 260.331429 
L 323.654403 259.302857 
L 330.630648 259.302857 
L 331.627255 258.274286 
L 332.623861 258.274286 
L 333.620468 257.245714 
L 337.606894 257.245714 
L 338.603501 255.188571 
L 344.58314 255.188571 
L 345.579746 254.16 
L 346.576353 254.16 
L 347.572959 252.102857 
L 352.555992 252.102857 
L 353.552599 251.074286 
L 359.532238 251.074286 
L 360.528844 250.045714 
L 373.484729 250.045714 
L 374.481336 249.017143 
L 389.430434 249.017143 
L 390.427041 247.988571 
L 395.410073 247.988571 
L 396.40668 246.96 
L 397.403286 246.96 
L 398.399893 245.931429 
L 399.396499 245.931429 
L 400.393106 243.874286 
L 401.389712 243.874286 
L 403.382926 241.817143 
L 410.359171 241.817143 
L 411.355778 240.788571 
L 412.352384 240.788571 
L 413.348991 239.76 
L 414.345597 239.76 
L 415.342204 238.731429 
L 420.325237 238.731429 
L 421.321843 237.702857 
L 430.291302 237.702857 
L 431.287909 236.674286 
L 436.270941 236.674286 
L 437.267548 235.645714 
L 442.25058 235.645714 
L 443.247187 234.617143 
L 445.2404 234.617143 
L 448.23022 231.531429 
L 450.223433 231.531429 
L 451.220039 229.474286 
L 456.203072 229.474286 
L 458.196285 227.417143 
L 460.189498 227.417143 
L 461.186105 226.388571 
L 462.182711 226.388571 
L 464.175924 224.331429 
L 471.15217 224.331429 
L 472.148777 223.302857 
L 474.14199 223.302857 
L 475.138596 222.274286 
L 483.111448 222.274286 
L 485.104662 220.217143 
L 488.094481 220.217143 
L 489.091088 219.188571 
L 490.087694 219.188571 
L 491.084301 216.102857 
L 492.080907 215.074286 
L 496.067333 215.074286 
L 497.06394 213.017143 
L 500.05376 213.017143 
L 501.050366 211.988571 
L 511.016432 211.988571 
L 512.013038 210.96 
L 521.979103 210.96 
L 523.972316 208.902857 
L 530.948562 208.902857 
L 531.945169 207.874286 
L 548.88748 207.874286 
L 552.873906 203.76 
L 556.860332 203.76 
L 557.856939 202.731429 
L 565.829791 202.731429 
L 566.826398 201.702857 
L 569.816217 201.702857 
L 570.812824 200.674286 
L 571.80943 200.674286 
L 572.806037 199.645714 
L 578.785676 199.645714 
L 580.778889 197.588571 
L 582.772102 197.588571 
L 583.768709 196.56 
L 588.751741 196.56 
L 589.748348 195.531429 
L 590.744954 195.531429 
L 591.741561 193.474286 
L 602.704233 193.474286 
L 604.697446 191.417143 
L 607.687266 191.417143 
L 608.683872 190.388571 
L 613.666905 190.388571 
L 614.663511 189.36 
L 621.639757 189.36 
L 622.636364 188.331429 
L 622.636364 188.331429 
" clip-path="url(#pe2110e96ba)" style="fill: none; stroke: #7f7f7f; stroke-width: 1.5; stroke-linecap: square"/>
   </g>
   <g id="line2d_41">
    <path d="M 115.363636 348.788571 
L 119.350063 348.788571 
L 120.346669 347.76 
L 130.312734 347.76 
L 131.309341 346.731429 
L 136.292374 346.731429 
L 137.28898 345.702857 
L 147.255046 345.702857 
L 148.251652 344.674286 
L 158.217717 344.674286 
L 159.214324 343.645714 
L 213.031077 343.645714 
L 214.027684 342.617143 
L 219.010716 342.617143 
L 220.007323 341.588571 
L 226.983568 341.588571 
L 227.980175 340.56 
L 228.976782 340.56 
L 229.973388 337.474286 
L 230.969995 336.445714 
L 232.963208 336.445714 
L 233.959814 335.417143 
L 243.92588 335.417143 
L 244.922486 334.388571 
L 253.891945 334.388571 
L 254.888552 333.36 
L 265.851223 333.36 
L 266.84783 332.331429 
L 278.807108 332.331429 
L 279.803715 331.302857 
L 284.786748 331.302857 
L 285.783354 330.274286 
L 317.674763 330.274286 
L 318.67137 329.245714 
L 320.664583 329.245714 
L 321.661189 328.217143 
L 329.634042 328.217143 
L 330.630648 327.188571 
L 358.535631 327.188571 
L 361.525451 324.102857 
L 390.427041 324.102857 
L 391.423647 323.074286 
L 392.420254 323.074286 
L 394.413467 321.017143 
L 396.40668 321.017143 
L 397.403286 319.988571 
L 448.23022 319.988571 
L 449.226826 318.96 
L 507.030005 318.96 
L 508.026612 317.931429 
L 549.884086 317.931429 
L 550.880693 316.902857 
L 555.863726 316.902857 
L 556.860332 315.874286 
L 570.812824 315.874286 
L 571.80943 314.845714 
L 591.741561 314.845714 
L 592.738168 313.817143 
L 622.636364 313.817143 
L 622.636364 313.817143 
" clip-path="url(#pe2110e96ba)" style="fill: none; stroke: #bcbd22; stroke-width: 1.5; stroke-linecap: square"/>
   </g>
   <g id="line2d_42">
    <path d="M 115.363636 367.302857 
L 165.193963 367.302857 
L 166.19057 366.274286 
L 228.976782 366.274286 
L 229.973388 365.245714 
L 331.627255 365.245714 
L 332.623861 364.217143 
L 333.620468 365.245714 
L 454.209859 365.245714 
L 455.206465 364.217143 
L 462.182711 364.217143 
L 463.179318 363.188571 
L 488.094481 363.188571 
L 489.091088 362.16 
L 622.636364 362.16 
L 622.636364 362.16 
" clip-path="url(#pe2110e96ba)" style="fill: none; stroke: #17becf; stroke-width: 1.5; stroke-linecap: square"/>
   </g>
   <g id="line2d_43">
    <path d="M 115.363636 369.36 
L 116.360243 368.331429 
L 118.353456 368.331429 
L 119.350063 367.302857 
L 126.326308 367.302857 
L 127.322915 366.274286 
L 130.312734 366.274286 
L 131.309341 365.245714 
L 132.305947 365.245714 
L 134.299161 363.188571 
L 139.282193 363.188571 
L 141.275406 361.131429 
L 142.272013 361.131429 
L 143.268619 360.102857 
L 150.244865 360.102857 
L 151.241472 359.074286 
L 152.238078 357.017143 
L 154.231291 357.017143 
L 155.227898 355.988571 
L 156.224504 355.988571 
L 157.221111 354.96 
L 158.217717 354.96 
L 159.214324 353.931429 
L 160.210931 353.931429 
L 162.204144 351.874286 
L 168.183783 351.874286 
L 170.176996 349.817143 
L 173.166816 349.817143 
L 174.163422 348.788571 
L 175.160029 348.788571 
L 176.156635 346.731429 
L 179.146455 346.731429 
L 181.139668 342.617143 
L 187.119307 342.617143 
L 188.115914 340.56 
L 189.11252 339.531429 
L 192.10234 339.531429 
L 193.098946 338.502857 
L 194.095553 336.445714 
L 196.088766 336.445714 
L 197.085372 335.417143 
L 211.037864 335.417143 
L 212.03447 333.36 
L 219.010716 326.16 
L 228.976782 326.16 
L 231.966601 323.074286 
L 233.959814 323.074286 
L 234.956421 321.017143 
L 236.949634 321.017143 
L 237.94624 319.988571 
L 240.93606 319.988571 
L 241.932667 318.96 
L 242.929273 318.96 
L 243.92588 317.931429 
L 244.922486 317.931429 
L 246.915699 315.874286 
L 259.871584 315.874286 
L 261.864797 313.817143 
L 269.83765 313.817143 
L 270.834256 312.788571 
L 273.824076 312.788571 
L 275.817289 310.731429 
L 278.807108 310.731429 
L 279.803715 309.702857 
L 281.796928 309.702857 
L 282.793535 308.674286 
L 287.776567 308.674286 
L 288.773174 307.645714 
L 289.76978 307.645714 
L 290.766387 305.588571 
L 291.762993 305.588571 
L 292.7596 304.56 
L 297.742633 304.56 
L 298.739239 303.531429 
L 300.732452 303.531429 
L 301.729059 302.502857 
L 302.725665 302.502857 
L 304.718878 300.445714 
L 311.695124 300.445714 
L 312.691731 299.417143 
L 313.688337 299.417143 
L 314.684944 298.388571 
L 319.667976 298.388571 
L 320.664583 296.331429 
L 321.661189 295.302857 
L 326.644222 295.302857 
L 327.640829 294.274286 
L 331.627255 294.274286 
L 332.623861 292.217143 
L 336.610288 292.217143 
L 338.603501 290.16 
L 341.59332 290.16 
L 342.589927 289.131429 
L 354.549205 289.131429 
L 355.545812 287.074286 
L 356.542418 286.045714 
L 364.515271 286.045714 
L 365.511877 285.017143 
L 383.450795 285.017143 
L 384.447401 283.988571 
L 386.440614 283.988571 
L 387.437221 282.96 
L 390.427041 282.96 
L 391.423647 281.931429 
L 404.379532 281.931429 
L 405.376139 279.874286 
L 407.369352 279.874286 
L 408.365958 278.845714 
L 409.362565 278.845714 
L 410.359171 277.817143 
L 414.345597 277.817143 
L 415.342204 276.788571 
L 422.31845 276.788571 
L 423.315056 274.731429 
L 424.311663 274.731429 
L 425.308269 273.702857 
L 430.291302 273.702857 
L 431.287909 272.674286 
L 436.270941 272.674286 
L 438.264154 270.617143 
L 440.257367 270.617143 
L 441.253974 269.588571 
L 443.247187 269.588571 
L 444.243794 268.56 
L 445.2404 268.56 
L 446.237007 267.531429 
L 453.213252 267.531429 
L 454.209859 266.502857 
L 477.131809 266.502857 
L 478.128416 265.474286 
L 483.111448 265.474286 
L 484.108055 264.445714 
L 495.070727 264.445714 
L 496.067333 263.417143 
L 539.918021 263.417143 
L 540.914628 262.388571 
L 546.894267 262.388571 
L 547.890873 261.36 
L 548.88748 261.36 
L 549.884086 260.331429 
L 562.839971 260.331429 
L 563.836578 259.302857 
L 582.772102 259.302857 
L 583.768709 258.274286 
L 587.755135 258.274286 
L 588.751741 257.245714 
L 593.734774 257.245714 
L 594.731381 256.217143 
L 600.71102 256.217143 
L 601.707626 255.188571 
L 607.687266 255.188571 
L 608.683872 254.16 
L 614.663511 254.16 
L 615.660118 251.074286 
L 616.656724 250.045714 
L 622.636364 250.045714 
L 622.636364 250.045714 
" clip-path="url(#pe2110e96ba)" style="fill: none; stroke: #1f77b4; stroke-width: 1.5; stroke-linecap: square"/>
   </g>
   <g id="line2d_44">
    <path d="M 115.363636 331.302857 
L 122.339882 331.302857 
L 123.336489 330.274286 
L 126.326308 330.274286 
L 127.322915 329.245714 
L 131.309341 329.245714 
L 132.305947 328.217143 
L 135.295767 328.217143 
L 136.292374 327.188571 
L 137.28898 327.188571 
L 138.285587 326.16 
L 141.275406 326.16 
L 142.272013 325.131429 
L 144.265226 325.131429 
L 145.261832 324.102857 
L 146.258439 324.102857 
L 148.251652 322.045714 
L 154.231291 322.045714 
L 155.227898 321.017143 
L 156.224504 321.017143 
L 157.221111 319.988571 
L 158.217717 319.988571 
L 159.214324 317.931429 
L 160.210931 314.845714 
L 161.207537 313.817143 
L 165.193963 313.817143 
L 168.183783 310.731429 
L 171.173602 310.731429 
L 173.166816 308.674286 
L 184.129487 308.674286 
L 185.126094 305.588571 
L 186.1227 305.588571 
L 188.115914 301.474286 
L 190.109127 299.417143 
L 191.105733 299.417143 
L 192.10234 297.36 
L 200.075192 297.36 
L 201.071799 295.302857 
L 204.061618 295.302857 
L 205.058225 294.274286 
L 212.03447 294.274286 
L 213.031077 293.245714 
L 224.990355 293.245714 
L 225.986962 292.217143 
L 226.983568 292.217143 
L 227.980175 291.188571 
L 230.969995 291.188571 
L 231.966601 290.16 
L 243.92588 290.16 
L 244.922486 289.131429 
L 246.915699 289.131429 
L 248.908912 285.017143 
L 250.902125 285.017143 
L 252.895338 282.96 
L 254.888552 282.96 
L 255.885158 281.931429 
L 258.874978 281.931429 
L 259.871584 280.902857 
L 271.830863 280.902857 
L 272.827469 279.874286 
L 287.776567 279.874286 
L 288.773174 278.845714 
L 297.742633 278.845714 
L 298.739239 277.817143 
L 300.732452 277.817143 
L 301.729059 276.788571 
L 304.718878 276.788571 
L 306.712091 274.731429 
L 307.708698 274.731429 
L 308.705305 273.702857 
L 312.691731 273.702857 
L 314.684944 271.645714 
L 319.667976 271.645714 
L 320.664583 270.617143 
L 323.654403 270.617143 
L 324.651009 269.588571 
L 329.634042 269.588571 
L 330.630648 268.56 
L 335.613681 268.56 
L 336.610288 267.531429 
L 354.549205 267.531429 
L 355.545812 266.502857 
L 356.542418 266.502857 
L 357.539025 265.474286 
L 367.50509 265.474286 
L 368.501697 263.417143 
L 369.498303 263.417143 
L 370.49491 262.388571 
L 380.460975 262.388571 
L 381.457582 261.36 
L 385.444008 261.36 
L 386.440614 260.331429 
L 387.437221 260.331429 
L 388.433827 259.302857 
L 397.403286 259.302857 
L 398.399893 258.274286 
L 418.332024 258.274286 
L 419.32863 255.188571 
L 426.304876 255.188571 
L 427.301482 254.16 
L 429.294695 254.16 
L 430.291302 253.131429 
L 442.25058 253.131429 
L 443.247187 252.102857 
L 457.199679 252.102857 
L 458.196285 251.074286 
L 461.186105 251.074286 
L 462.182711 250.045714 
L 470.155563 250.045714 
L 471.15217 247.988571 
L 487.097875 247.988571 
L 488.094481 246.96 
L 493.077514 246.96 
L 494.07412 245.931429 
L 509.023218 245.931429 
L 510.019825 244.902857 
L 512.013038 244.902857 
L 513.009645 243.874286 
L 522.97571 243.874286 
L 523.972316 242.845714 
L 534.934988 242.845714 
L 535.931595 241.817143 
L 548.88748 241.817143 
L 549.884086 240.788571 
L 561.843365 240.788571 
L 562.839971 239.76 
L 569.816217 239.76 
L 570.812824 238.731429 
L 580.778889 238.731429 
L 583.768709 235.645714 
L 585.761922 235.645714 
L 586.758528 234.617143 
L 587.755135 234.617143 
L 589.748348 232.56 
L 593.734774 232.56 
L 594.731381 231.531429 
L 596.724594 231.531429 
L 597.7212 229.474286 
L 598.717807 228.445714 
L 610.677085 228.445714 
L 611.673692 227.417143 
L 620.643151 227.417143 
L 621.639757 226.388571 
L 622.636364 226.388571 
L 622.636364 226.388571 
" clip-path="url(#pe2110e96ba)" style="fill: none; stroke: #ff7f0e; stroke-width: 1.5; stroke-linecap: square"/>
   </g>
   <g id="patch_3">
    <path d="M 90 384.48 
L 90 51.84 
" style="fill: none; stroke: #000000; stroke-width: 0.8; stroke-linejoin: miter; stroke-linecap: square"/>
   </g>
   <g id="patch_4">
    <path d="M 648 384.48 
L 648 51.84 
" style="fill: none; stroke: #000000; stroke-width: 0.8; stroke-linejoin: miter; stroke-linecap: square"/>
   </g>
   <g id="patch_5">
    <path d="M 90 384.48 
L 648 384.48 
" style="fill: none; stroke: #000000; stroke-width: 0.8; stroke-linejoin: miter; stroke-linecap: square"/>
   </g>
   <g id="patch_6">
    <path d="M 90 51.84 
L 648 51.84 
" style="fill: none; stroke: #000000; stroke-width: 0.8; stroke-linejoin: miter; stroke-linecap: square"/>
   </g>
   <g id="text_19">
    <!-- Time Series of Votes for Each Keyword -->
    <g transform="translate(253.716563 45.84) scale(0.12 -0.12)">
     <defs>
      <path id="DejaVuSans-53" d="M 3425 4513 
L 3425 3897 
Q 3066 4069 2747 4153 
Q 2428 4238 2131 4238 
Q 1616 4238 1336 4038 
Q 1056 3838 1056 3469 
Q 1056 3159 1242 3001 
Q 1428 2844 1947 2747 
L 2328 2669 
Q 3034 2534 3370 2195 
Q 3706 1856 3706 1288 
Q 3706 609 3251 259 
Q 2797 -91 1919 -91 
Q 1588 -91 1214 -16 
Q 841 59 441 206 
L 441 856 
Q 825 641 1194 531 
Q 1563 422 1919 422 
Q 2459 422 2753 634 
Q 3047 847 3047 1241 
Q 3047 1584 2836 1778 
Q 2625 1972 2144 2069 
L 1759 2144 
Q 1053 2284 737 2584 
Q 422 2884 422 3419 
Q 422 4038 858 4394 
Q 1294 4750 2059 4750 
Q 2388 4750 2728 4690 
Q 3069 4631 3425 4513 
z
" transform="scale(0.015625)"/>
      <path id="DejaVuSans-72" d="M 2631 2963 
Q 2534 3019 2420 3045 
Q 2306 3072 2169 3072 
Q 1681 3072 1420 2755 
Q 1159 2438 1159 1844 
L 1159 0 
L 581 0 
L 581 3500 
L 1159 3500 
L 1159 2956 
Q 1341 3275 1631 3429 
Q 1922 3584 2338 3584 
Q 2397 3584 2469 3576 
Q 2541 3569 2628 3553 
L 2631 2963 
z
" transform="scale(0.015625)"/>
      <path id="DejaVuSans-66" d="M 2375 4863 
L 2375 4384 
L 1825 4384 
Q 1516 4384 1395 4259 
Q 1275 4134 1275 3809 
L 1275 3500 
L 2222 3500 
L 2222 3053 
L 1275 3053 
L 1275 0 
L 697 0 
L 697 3053 
L 147 3053 
L 147 3500 
L 697 3500 
L 697 3744 
Q 697 4328 969 4595 
Q 1241 4863 1831 4863 
L 2375 4863 
z
" transform="scale(0.015625)"/>
      <path id="DejaVuSans-45" d="M 628 4666 
L 3578 4666 
L 3578 4134 
L 1259 4134 
L 1259 2753 
L 3481 2753 
L 3481 2222 
L 1259 2222 
L 1259 531 
L 3634 531 
L 3634 0 
L 628 0 
L 628 4666 
z
" transform="scale(0.015625)"/>
      <path id="DejaVuSans-63" d="M 3122 3366 
L 3122 2828 
Q 2878 2963 2633 3030 
Q 2388 3097 2138 3097 
Q 1578 3097 1268 2742 
Q 959 2388 959 1747 
Q 959 1106 1268 751 
Q 1578 397 2138 397 
Q 2388 397 2633 464 
Q 2878 531 3122 666 
L 3122 134 
Q 2881 22 2623 -34 
Q 2366 -91 2075 -91 
Q 1284 -91 818 406 
Q 353 903 353 1747 
Q 353 2603 823 3093 
Q 1294 3584 2113 3584 
Q 2378 3584 2631 3529 
Q 2884 3475 3122 3366 
z
" transform="scale(0.015625)"/>
      <path id="DejaVuSans-68" d="M 3513 2113 
L 3513 0 
L 2938 0 
L 2938 2094 
Q 2938 2591 2744 2837 
Q 2550 3084 2163 3084 
Q 1697 3084 1428 2787 
Q 1159 2491 1159 1978 
L 1159 0 
L 581 0 
L 581 4863 
L 1159 4863 
L 1159 2956 
Q 1366 3272 1645 3428 
Q 1925 3584 2291 3584 
Q 2894 3584 3203 3211 
Q 3513 2838 3513 2113 
z
" transform="scale(0.015625)"/>
      <path id="DejaVuSans-4b" d="M 628 4666 
L 1259 4666 
L 1259 2694 
L 3353 4666 
L 4166 4666 
L 1850 2491 
L 4331 0 
L 3500 0 
L 1259 2247 
L 1259 0 
L 628 0 
L 628 4666 
z
" transform="scale(0.015625)"/>
      <path id="DejaVuSans-79" d="M 2059 -325 
Q 1816 -950 1584 -1140 
Q 1353 -1331 966 -1331 
L 506 -1331 
L 506 -850 
L 844 -850 
Q 1081 -850 1212 -737 
Q 1344 -625 1503 -206 
L 1606 56 
L 191 3500 
L 800 3500 
L 1894 763 
L 2988 3500 
L 3597 3500 
L 2059 -325 
z
" transform="scale(0.015625)"/>
      <path id="DejaVuSans-77" d="M 269 3500 
L 844 3500 
L 1563 769 
L 2278 3500 
L 2956 3500 
L 3675 769 
L 4391 3500 
L 4966 3500 
L 4050 0 
L 3372 0 
L 2619 2869 
L 1863 0 
L 1184 0 
L 269 3500 
z
" transform="scale(0.015625)"/>
     </defs>
     <use xlink:href="#DejaVuSans-54"/>
     <use xlink:href="#DejaVuSans-69" transform="translate(57.958984 0)"/>
     <use xlink:href="#DejaVuSans-6d" transform="translate(85.742188 0)"/>
     <use xlink:href="#DejaVuSans-65" transform="translate(183.154297 0)"/>
     <use xlink:href="#DejaVuSans-20" transform="translate(244.677734 0)"/>
     <use xlink:href="#DejaVuSans-53" transform="translate(276.464844 0)"/>
     <use xlink:href="#DejaVuSans-65" transform="translate(339.941406 0)"/>
     <use xlink:href="#DejaVuSans-72" transform="translate(401.464844 0)"/>
     <use xlink:href="#DejaVuSans-69" transform="translate(442.578125 0)"/>
     <use xlink:href="#DejaVuSans-65" transform="translate(470.361328 0)"/>
     <use xlink:href="#DejaVuSans-73" transform="translate(531.884766 0)"/>
     <use xlink:href="#DejaVuSans-20" transform="translate(583.984375 0)"/>
     <use xlink:href="#DejaVuSans-6f" transform="translate(615.771484 0)"/>
     <use xlink:href="#DejaVuSans-66" transform="translate(676.953125 0)"/>
     <use xlink:href="#DejaVuSans-20" transform="translate(712.158203 0)"/>
     <use xlink:href="#DejaVuSans-56" transform="translate(743.945312 0)"/>
     <use xlink:href="#DejaVuSans-6f" transform="translate(804.603516 0)"/>
     <use xlink:href="#DejaVuSans-74" transform="translate(865.785156 0)"/>
     <use xlink:href="#DejaVuSans-65" transform="translate(904.994141 0)"/>
     <use xlink:href="#DejaVuSans-73" transform="translate(966.517578 0)"/>
     <use xlink:href="#DejaVuSans-20" transform="translate(1018.617188 0)"/>
     <use xlink:href="#DejaVuSans-66" transform="translate(1050.404297 0)"/>
     <use xlink:href="#DejaVuSans-6f" transform="translate(1085.609375 0)"/>
     <use xlink:href="#DejaVuSans-72" transform="translate(1146.791016 0)"/>
     <use xlink:href="#DejaVuSans-20" transform="translate(1187.904297 0)"/>
     <use xlink:href="#DejaVuSans-45" transform="translate(1219.691406 0)"/>
     <use xlink:href="#DejaVuSans-61" transform="translate(1282.875 0)"/>
     <use xlink:href="#DejaVuSans-63" transform="translate(1344.154297 0)"/>
     <use xlink:href="#DejaVuSans-68" transform="translate(1399.134766 0)"/>
     <use xlink:href="#DejaVuSans-20" transform="translate(1462.513672 0)"/>
     <use xlink:href="#DejaVuSans-4b" transform="translate(1494.300781 0)"/>
     <use xlink:href="#DejaVuSans-65" transform="translate(1554.876953 0)"/>
     <use xlink:href="#DejaVuSans-79" transform="translate(1616.400391 0)"/>
     <use xlink:href="#DejaVuSans-77" transform="translate(1675.580078 0)"/>
     <use xlink:href="#DejaVuSans-6f" transform="translate(1757.367188 0)"/>
     <use xlink:href="#DejaVuSans-72" transform="translate(1818.548828 0)"/>
     <use xlink:href="#DejaVuSans-64" transform="translate(1857.912109 0)"/>
    </g>
   </g>
   <g id="legend_1">
    <g id="patch_7">
     <path d="M 97 235.9775 
L 149.245313 235.9775 
Q 151.245313 235.9775 151.245313 233.9775 
L 151.245313 58.84 
Q 151.245313 56.84 149.245313 56.84 
L 97 56.84 
Q 95 56.84 95 58.84 
L 95 233.9775 
Q 95 235.9775 97 235.9775 
z
" style="fill: #ffffff; opacity: 0.8; stroke: #cccccc; stroke-linejoin: miter"/>
    </g>
    <g id="line2d_45">
     <path d="M 99 64.938437 
L 109 64.938437 
L 119 64.938437 
" style="fill: none; stroke: #1f77b4; stroke-width: 1.5; stroke-linecap: square"/>
    </g>
    <g id="text_20">
     <!-- H01 -->
     <g transform="translate(127 68.438437) scale(0.1 -0.1)">
      <defs>
       <path id="DejaVuSans-48" d="M 628 4666 
L 1259 4666 
L 1259 2753 
L 3553 2753 
L 3553 4666 
L 4184 4666 
L 4184 0 
L 3553 0 
L 3553 2222 
L 1259 2222 
L 1259 0 
L 628 0 
L 628 4666 
z
" transform="scale(0.015625)"/>
      </defs>
      <use xlink:href="#DejaVuSans-48"/>
      <use xlink:href="#DejaVuSans-30" transform="translate(75.195312 0)"/>
      <use xlink:href="#DejaVuSans-31" transform="translate(138.818359 0)"/>
     </g>
    </g>
    <g id="line2d_46">
     <path d="M 99 79.616562 
L 109 79.616562 
L 119 79.616562 
" style="fill: none; stroke: #ff7f0e; stroke-width: 1.5; stroke-linecap: square"/>
    </g>
    <g id="text_21">
     <!-- H02 -->
     <g transform="translate(127 83.116562) scale(0.1 -0.1)">
      <use xlink:href="#DejaVuSans-48"/>
      <use xlink:href="#DejaVuSans-30" transform="translate(75.195312 0)"/>
      <use xlink:href="#DejaVuSans-32" transform="translate(138.818359 0)"/>
     </g>
    </g>
    <g id="line2d_47">
     <path d="M 99 94.294688 
L 109 94.294688 
L 119 94.294688 
" style="fill: none; stroke: #2ca02c; stroke-width: 1.5; stroke-linecap: square"/>
    </g>
    <g id="text_22">
     <!-- H03 -->
     <g transform="translate(127 97.794688) scale(0.1 -0.1)">
      <use xlink:href="#DejaVuSans-48"/>
      <use xlink:href="#DejaVuSans-30" transform="translate(75.195312 0)"/>
      <use xlink:href="#DejaVuSans-33" transform="translate(138.818359 0)"/>
     </g>
    </g>
    <g id="line2d_48">
     <path d="M 99 108.972812 
L 109 108.972812 
L 119 108.972812 
" style="fill: none; stroke: #d62728; stroke-width: 1.5; stroke-linecap: square"/>
    </g>
    <g id="text_23">
     <!-- H04 -->
     <g transform="translate(127 112.472812) scale(0.1 -0.1)">
      <use xlink:href="#DejaVuSans-48"/>
      <use xlink:href="#DejaVuSans-30" transform="translate(75.195312 0)"/>
      <use xlink:href="#DejaVuSans-34" transform="translate(138.818359 0)"/>
     </g>
    </g>
    <g id="line2d_49">
     <path d="M 99 123.650937 
L 109 123.650937 
L 119 123.650937 
" style="fill: none; stroke: #9467bd; stroke-width: 1.5; stroke-linecap: square"/>
    </g>
    <g id="text_24">
     <!-- H05 -->
     <g transform="translate(127 127.150937) scale(0.1 -0.1)">
      <use xlink:href="#DejaVuSans-48"/>
      <use xlink:href="#DejaVuSans-30" transform="translate(75.195312 0)"/>
      <use xlink:href="#DejaVuSans-35" transform="translate(138.818359 0)"/>
     </g>
    </g>
    <g id="line2d_50">
     <path d="M 99 138.329062 
L 109 138.329062 
L 119 138.329062 
" style="fill: none; stroke: #8c564b; stroke-width: 1.5; stroke-linecap: square"/>
    </g>
    <g id="text_25">
     <!-- H06 -->
     <g transform="translate(127 141.829062) scale(0.1 -0.1)">
      <use xlink:href="#DejaVuSans-48"/>
      <use xlink:href="#DejaVuSans-30" transform="translate(75.195312 0)"/>
      <use xlink:href="#DejaVuSans-36" transform="translate(138.818359 0)"/>
     </g>
    </g>
    <g id="line2d_51">
     <path d="M 99 153.007187 
L 109 153.007187 
L 119 153.007187 
" style="fill: none; stroke: #e377c2; stroke-width: 1.5; stroke-linecap: square"/>
    </g>
    <g id="text_26">
     <!-- H07 -->
     <g transform="translate(127 156.507187) scale(0.1 -0.1)">
      <use xlink:href="#DejaVuSans-48"/>
      <use xlink:href="#DejaVuSans-30" transform="translate(75.195312 0)"/>
      <use xlink:href="#DejaVuSans-37" transform="translate(138.818359 0)"/>
     </g>
    </g>
    <g id="line2d_52">
     <path d="M 99 167.685312 
L 109 167.685312 
L 119 167.685312 
" style="fill: none; stroke: #7f7f7f; stroke-width: 1.5; stroke-linecap: square"/>
    </g>
    <g id="text_27">
     <!-- H08 -->
     <g transform="translate(127 171.185312) scale(0.1 -0.1)">
      <use xlink:href="#DejaVuSans-48"/>
      <use xlink:href="#DejaVuSans-30" transform="translate(75.195312 0)"/>
      <use xlink:href="#DejaVuSans-38" transform="translate(138.818359 0)"/>
     </g>
    </g>
    <g id="line2d_53">
     <path d="M 99 182.363437 
L 109 182.363437 
L 119 182.363437 
" style="fill: none; stroke: #bcbd22; stroke-width: 1.5; stroke-linecap: square"/>
    </g>
    <g id="text_28">
     <!-- H09 -->
     <g transform="translate(127 185.863437) scale(0.1 -0.1)">
      <use xlink:href="#DejaVuSans-48"/>
      <use xlink:href="#DejaVuSans-30" transform="translate(75.195312 0)"/>
      <use xlink:href="#DejaVuSans-39" transform="translate(138.818359 0)"/>
     </g>
    </g>
    <g id="line2d_54">
     <path d="M 99 197.041562 
L 109 197.041562 
L 119 197.041562 
" style="fill: none; stroke: #17becf; stroke-width: 1.5; stroke-linecap: square"/>
    </g>
    <g id="text_29">
     <!-- H10 -->
     <g transform="translate(127 200.541562) scale(0.1 -0.1)">
      <use xlink:href="#DejaVuSans-48"/>
      <use xlink:href="#DejaVuSans-31" transform="translate(75.195312 0)"/>
      <use xlink:href="#DejaVuSans-30" transform="translate(138.818359 0)"/>
     </g>
    </g>
    <g id="line2d_55">
     <path d="M 99 211.719687 
L 109 211.719687 
L 119 211.719687 
" style="fill: none; stroke: #1f77b4; stroke-width: 1.5; stroke-linecap: square"/>
    </g>
    <g id="text_30">
     <!-- H11 -->
     <g transform="translate(127 215.219687) scale(0.1 -0.1)">
      <use xlink:href="#DejaVuSans-48"/>
      <use xlink:href="#DejaVuSans-31" transform="translate(75.195312 0)"/>
      <use xlink:href="#DejaVuSans-31" transform="translate(138.818359 0)"/>
     </g>
    </g>
    <g id="line2d_56">
     <path d="M 99 226.397812 
L 109 226.397812 
L 119 226.397812 
" style="fill: none; stroke: #ff7f0e; stroke-width: 1.5; stroke-linecap: square"/>
    </g>
    <g id="text_31">
     <!-- H12 -->
     <g transform="translate(127 229.897812) scale(0.1 -0.1)">
      <use xlink:href="#DejaVuSans-48"/>
      <use xlink:href="#DejaVuSans-31" transform="translate(75.195312 0)"/>
      <use xlink:href="#DejaVuSans-32" transform="translate(138.818359 0)"/>
     </g>
    </g>
   </g>
  </g>
 </g>
 <defs>
  <clipPath id="pe2110e96ba">
   <rect x="90" y="51.84" width="558" height="332.64"/>
  </clipPath>
 </defs>
</svg>
