<?xml version="1.0" encoding="utf-8" standalone="no"?>
<!DOCTYPE svg PUBLIC "-//W3C//DTD SVG 1.1//EN"
  "http://www.w3.org/Graphics/SVG/1.1/DTD/svg11.dtd">
<svg xmlns:xlink="http://www.w3.org/1999/xlink" width="720pt" height="432pt" viewBox="0 0 720 432" xmlns="http://www.w3.org/2000/svg" version="1.1">
 <metadata>
  <rdf:RDF xmlns:dc="http://purl.org/dc/elements/1.1/" xmlns:cc="http://creativecommons.org/ns#" xmlns:rdf="http://www.w3.org/1999/02/22-rdf-syntax-ns#">
   <cc:Work>
    <dc:type rdf:resource="http://purl.org/dc/dcmitype/StillImage"/>
    <dc:date>2025-01-14T22:50:43.093137</dc:date>
    <dc:format>image/svg+xml</dc:format>
    <dc:creator>
     <cc:Agent>
      <dc:title>Matplotlib v3.10.0, https://matplotlib.org/</dc:title>
     </cc:Agent>
    </dc:creator>
   </cc:Work>
  </rdf:RDF>
 </metadata>
 <defs>
  <style type="text/css">*{stroke-linejoin: round; stroke-linecap: butt}</style>
 </defs>
 <g id="figure_1">
  <g id="patch_1">
   <path d="M 0 432 
L 720 432 
L 720 0 
L 0 0 
z
" style="fill: #ffffff"/>
  </g>
  <g id="axes_1">
   <g id="patch_2">
    <path d="M 90 384.48 
L 648 384.48 
L 648 51.84 
L 90 51.84 
z
" style="fill: #ffffff"/>
   </g>
   <g id="matplotlib.axis_1">
    <g id="xtick_1">
     <g id="line2d_1">
      <path d="M 139.997384 384.48 
L 139.997384 51.84 
" clip-path="url(#p01e09629fb)" style="fill: none; stroke: #b0b0b0; stroke-width: 0.8; stroke-linecap: square"/>
     </g>
     <g id="line2d_2">
      <defs>
       <path id="m9ad4b3f44b" d="M 0 0 
L 0 3.5 
" style="stroke: #000000; stroke-width: 0.8"/>
      </defs>
      <g>
       <use xlink:href="#m9ad4b3f44b" x="139.997384" y="384.48" style="stroke: #000000; stroke-width: 0.8"/>
      </g>
     </g>
     <g id="text_1">
      <!-- 01-14 14 -->
      <g transform="translate(117.516915 399.078438) scale(0.1 -0.1)">
       <defs>
        <path id="DejaVuSans-30" d="M 2034 4250 
Q 1547 4250 1301 3770 
Q 1056 3291 1056 2328 
Q 1056 1369 1301 889 
Q 1547 409 2034 409 
Q 2525 409 2770 889 
Q 3016 1369 3016 2328 
Q 3016 3291 2770 3770 
Q 2525 4250 2034 4250 
z
M 2034 4750 
Q 2819 4750 3233 4129 
Q 3647 3509 3647 2328 
Q 3647 1150 3233 529 
Q 2819 -91 2034 -91 
Q 1250 -91 836 529 
Q 422 1150 422 2328 
Q 422 3509 836 4129 
Q 1250 4750 2034 4750 
z
" transform="scale(0.015625)"/>
        <path id="DejaVuSans-31" d="M 794 531 
L 1825 531 
L 1825 4091 
L 703 3866 
L 703 4441 
L 1819 4666 
L 2450 4666 
L 2450 531 
L 3481 531 
L 3481 0 
L 794 0 
L 794 531 
z
" transform="scale(0.015625)"/>
        <path id="DejaVuSans-2d" d="M 313 2009 
L 1997 2009 
L 1997 1497 
L 313 1497 
L 313 2009 
z
" transform="scale(0.015625)"/>
        <path id="DejaVuSans-34" d="M 2419 4116 
L 825 1625 
L 2419 1625 
L 2419 4116 
z
M 2253 4666 
L 3047 4666 
L 3047 1625 
L 3713 1625 
L 3713 1100 
L 3047 1100 
L 3047 0 
L 2419 0 
L 2419 1100 
L 313 1100 
L 313 1709 
L 2253 4666 
z
" transform="scale(0.015625)"/>
        <path id="DejaVuSans-20" transform="scale(0.015625)"/>
       </defs>
       <use xlink:href="#DejaVuSans-30"/>
       <use xlink:href="#DejaVuSans-31" transform="translate(63.623047 0)"/>
       <use xlink:href="#DejaVuSans-2d" transform="translate(127.246094 0)"/>
       <use xlink:href="#DejaVuSans-31" transform="translate(163.330078 0)"/>
       <use xlink:href="#DejaVuSans-34" transform="translate(226.953125 0)"/>
       <use xlink:href="#DejaVuSans-20" transform="translate(290.576172 0)"/>
       <use xlink:href="#DejaVuSans-31" transform="translate(322.363281 0)"/>
       <use xlink:href="#DejaVuSans-34" transform="translate(385.986328 0)"/>
      </g>
     </g>
    </g>
    <g id="xtick_2">
     <g id="line2d_3">
      <path d="M 194.739045 384.48 
L 194.739045 51.84 
" clip-path="url(#p01e09629fb)" style="fill: none; stroke: #b0b0b0; stroke-width: 0.8; stroke-linecap: square"/>
     </g>
     <g id="line2d_4">
      <g>
       <use xlink:href="#m9ad4b3f44b" x="194.739045" y="384.48" style="stroke: #000000; stroke-width: 0.8"/>
      </g>
     </g>
     <g id="text_2">
      <!-- 01-14 15 -->
      <g transform="translate(172.258576 399.078438) scale(0.1 -0.1)">
       <defs>
        <path id="DejaVuSans-35" d="M 691 4666 
L 3169 4666 
L 3169 4134 
L 1269 4134 
L 1269 2991 
Q 1406 3038 1543 3061 
Q 1681 3084 1819 3084 
Q 2600 3084 3056 2656 
Q 3513 2228 3513 1497 
Q 3513 744 3044 326 
Q 2575 -91 1722 -91 
Q 1428 -91 1123 -41 
Q 819 9 494 109 
L 494 744 
Q 775 591 1075 516 
Q 1375 441 1709 441 
Q 2250 441 2565 725 
Q 2881 1009 2881 1497 
Q 2881 1984 2565 2268 
Q 2250 2553 1709 2553 
Q 1456 2553 1204 2497 
Q 953 2441 691 2322 
L 691 4666 
z
" transform="scale(0.015625)"/>
       </defs>
       <use xlink:href="#DejaVuSans-30"/>
       <use xlink:href="#DejaVuSans-31" transform="translate(63.623047 0)"/>
       <use xlink:href="#DejaVuSans-2d" transform="translate(127.246094 0)"/>
       <use xlink:href="#DejaVuSans-31" transform="translate(163.330078 0)"/>
       <use xlink:href="#DejaVuSans-34" transform="translate(226.953125 0)"/>
       <use xlink:href="#DejaVuSans-20" transform="translate(290.576172 0)"/>
       <use xlink:href="#DejaVuSans-31" transform="translate(322.363281 0)"/>
       <use xlink:href="#DejaVuSans-35" transform="translate(385.986328 0)"/>
      </g>
     </g>
    </g>
    <g id="xtick_3">
     <g id="line2d_5">
      <path d="M 249.480706 384.48 
L 249.480706 51.84 
" clip-path="url(#p01e09629fb)" style="fill: none; stroke: #b0b0b0; stroke-width: 0.8; stroke-linecap: square"/>
     </g>
     <g id="line2d_6">
      <g>
       <use xlink:href="#m9ad4b3f44b" x="249.480706" y="384.48" style="stroke: #000000; stroke-width: 0.8"/>
      </g>
     </g>
     <g id="text_3">
      <!-- 01-14 16 -->
      <g transform="translate(227.000238 399.078438) scale(0.1 -0.1)">
       <defs>
        <path id="DejaVuSans-36" d="M 2113 2584 
Q 1688 2584 1439 2293 
Q 1191 2003 1191 1497 
Q 1191 994 1439 701 
Q 1688 409 2113 409 
Q 2538 409 2786 701 
Q 3034 994 3034 1497 
Q 3034 2003 2786 2293 
Q 2538 2584 2113 2584 
z
M 3366 4563 
L 3366 3988 
Q 3128 4100 2886 4159 
Q 2644 4219 2406 4219 
Q 1781 4219 1451 3797 
Q 1122 3375 1075 2522 
Q 1259 2794 1537 2939 
Q 1816 3084 2150 3084 
Q 2853 3084 3261 2657 
Q 3669 2231 3669 1497 
Q 3669 778 3244 343 
Q 2819 -91 2113 -91 
Q 1303 -91 875 529 
Q 447 1150 447 2328 
Q 447 3434 972 4092 
Q 1497 4750 2381 4750 
Q 2619 4750 2861 4703 
Q 3103 4656 3366 4563 
z
" transform="scale(0.015625)"/>
       </defs>
       <use xlink:href="#DejaVuSans-30"/>
       <use xlink:href="#DejaVuSans-31" transform="translate(63.623047 0)"/>
       <use xlink:href="#DejaVuSans-2d" transform="translate(127.246094 0)"/>
       <use xlink:href="#DejaVuSans-31" transform="translate(163.330078 0)"/>
       <use xlink:href="#DejaVuSans-34" transform="translate(226.953125 0)"/>
       <use xlink:href="#DejaVuSans-20" transform="translate(290.576172 0)"/>
       <use xlink:href="#DejaVuSans-31" transform="translate(322.363281 0)"/>
       <use xlink:href="#DejaVuSans-36" transform="translate(385.986328 0)"/>
      </g>
     </g>
    </g>
    <g id="xtick_4">
     <g id="line2d_7">
      <path d="M 304.222368 384.48 
L 304.222368 51.84 
" clip-path="url(#p01e09629fb)" style="fill: none; stroke: #b0b0b0; stroke-width: 0.8; stroke-linecap: square"/>
     </g>
     <g id="line2d_8">
      <g>
       <use xlink:href="#m9ad4b3f44b" x="304.222368" y="384.48" style="stroke: #000000; stroke-width: 0.8"/>
      </g>
     </g>
     <g id="text_4">
      <!-- 01-14 17 -->
      <g transform="translate(281.741899 399.078438) scale(0.1 -0.1)">
       <defs>
        <path id="DejaVuSans-37" d="M 525 4666 
L 3525 4666 
L 3525 4397 
L 1831 0 
L 1172 0 
L 2766 4134 
L 525 4134 
L 525 4666 
z
" transform="scale(0.015625)"/>
       </defs>
       <use xlink:href="#DejaVuSans-30"/>
       <use xlink:href="#DejaVuSans-31" transform="translate(63.623047 0)"/>
       <use xlink:href="#DejaVuSans-2d" transform="translate(127.246094 0)"/>
       <use xlink:href="#DejaVuSans-31" transform="translate(163.330078 0)"/>
       <use xlink:href="#DejaVuSans-34" transform="translate(226.953125 0)"/>
       <use xlink:href="#DejaVuSans-20" transform="translate(290.576172 0)"/>
       <use xlink:href="#DejaVuSans-31" transform="translate(322.363281 0)"/>
       <use xlink:href="#DejaVuSans-37" transform="translate(385.986328 0)"/>
      </g>
     </g>
    </g>
    <g id="xtick_5">
     <g id="line2d_9">
      <path d="M 358.964029 384.48 
L 358.964029 51.84 
" clip-path="url(#p01e09629fb)" style="fill: none; stroke: #b0b0b0; stroke-width: 0.8; stroke-linecap: square"/>
     </g>
     <g id="line2d_10">
      <g>
       <use xlink:href="#m9ad4b3f44b" x="358.964029" y="384.48" style="stroke: #000000; stroke-width: 0.8"/>
      </g>
     </g>
     <g id="text_5">
      <!-- 01-14 18 -->
      <g transform="translate(336.48356 399.078438) scale(0.1 -0.1)">
       <defs>
        <path id="DejaVuSans-38" d="M 2034 2216 
Q 1584 2216 1326 1975 
Q 1069 1734 1069 1313 
Q 1069 891 1326 650 
Q 1584 409 2034 409 
Q 2484 409 2743 651 
Q 3003 894 3003 1313 
Q 3003 1734 2745 1975 
Q 2488 2216 2034 2216 
z
M 1403 2484 
Q 997 2584 770 2862 
Q 544 3141 544 3541 
Q 544 4100 942 4425 
Q 1341 4750 2034 4750 
Q 2731 4750 3128 4425 
Q 3525 4100 3525 3541 
Q 3525 3141 3298 2862 
Q 3072 2584 2669 2484 
Q 3125 2378 3379 2068 
Q 3634 1759 3634 1313 
Q 3634 634 3220 271 
Q 2806 -91 2034 -91 
Q 1263 -91 848 271 
Q 434 634 434 1313 
Q 434 1759 690 2068 
Q 947 2378 1403 2484 
z
M 1172 3481 
Q 1172 3119 1398 2916 
Q 1625 2713 2034 2713 
Q 2441 2713 2670 2916 
Q 2900 3119 2900 3481 
Q 2900 3844 2670 4047 
Q 2441 4250 2034 4250 
Q 1625 4250 1398 4047 
Q 1172 3844 1172 3481 
z
" transform="scale(0.015625)"/>
       </defs>
       <use xlink:href="#DejaVuSans-30"/>
       <use xlink:href="#DejaVuSans-31" transform="translate(63.623047 0)"/>
       <use xlink:href="#DejaVuSans-2d" transform="translate(127.246094 0)"/>
       <use xlink:href="#DejaVuSans-31" transform="translate(163.330078 0)"/>
       <use xlink:href="#DejaVuSans-34" transform="translate(226.953125 0)"/>
       <use xlink:href="#DejaVuSans-20" transform="translate(290.576172 0)"/>
       <use xlink:href="#DejaVuSans-31" transform="translate(322.363281 0)"/>
       <use xlink:href="#DejaVuSans-38" transform="translate(385.986328 0)"/>
      </g>
     </g>
    </g>
    <g id="xtick_6">
     <g id="line2d_11">
      <path d="M 413.70569 384.48 
L 413.70569 51.84 
" clip-path="url(#p01e09629fb)" style="fill: none; stroke: #b0b0b0; stroke-width: 0.8; stroke-linecap: square"/>
     </g>
     <g id="line2d_12">
      <g>
       <use xlink:href="#m9ad4b3f44b" x="413.70569" y="384.48" style="stroke: #000000; stroke-width: 0.8"/>
      </g>
     </g>
     <g id="text_6">
      <!-- 01-14 19 -->
      <g transform="translate(391.225221 399.078438) scale(0.1 -0.1)">
       <defs>
        <path id="DejaVuSans-39" d="M 703 97 
L 703 672 
Q 941 559 1184 500 
Q 1428 441 1663 441 
Q 2288 441 2617 861 
Q 2947 1281 2994 2138 
Q 2813 1869 2534 1725 
Q 2256 1581 1919 1581 
Q 1219 1581 811 2004 
Q 403 2428 403 3163 
Q 403 3881 828 4315 
Q 1253 4750 1959 4750 
Q 2769 4750 3195 4129 
Q 3622 3509 3622 2328 
Q 3622 1225 3098 567 
Q 2575 -91 1691 -91 
Q 1453 -91 1209 -44 
Q 966 3 703 97 
z
M 1959 2075 
Q 2384 2075 2632 2365 
Q 2881 2656 2881 3163 
Q 2881 3666 2632 3958 
Q 2384 4250 1959 4250 
Q 1534 4250 1286 3958 
Q 1038 3666 1038 3163 
Q 1038 2656 1286 2365 
Q 1534 2075 1959 2075 
z
" transform="scale(0.015625)"/>
       </defs>
       <use xlink:href="#DejaVuSans-30"/>
       <use xlink:href="#DejaVuSans-31" transform="translate(63.623047 0)"/>
       <use xlink:href="#DejaVuSans-2d" transform="translate(127.246094 0)"/>
       <use xlink:href="#DejaVuSans-31" transform="translate(163.330078 0)"/>
       <use xlink:href="#DejaVuSans-34" transform="translate(226.953125 0)"/>
       <use xlink:href="#DejaVuSans-20" transform="translate(290.576172 0)"/>
       <use xlink:href="#DejaVuSans-31" transform="translate(322.363281 0)"/>
       <use xlink:href="#DejaVuSans-39" transform="translate(385.986328 0)"/>
      </g>
     </g>
    </g>
    <g id="xtick_7">
     <g id="line2d_13">
      <path d="M 468.447351 384.48 
L 468.447351 51.84 
" clip-path="url(#p01e09629fb)" style="fill: none; stroke: #b0b0b0; stroke-width: 0.8; stroke-linecap: square"/>
     </g>
     <g id="line2d_14">
      <g>
       <use xlink:href="#m9ad4b3f44b" x="468.447351" y="384.48" style="stroke: #000000; stroke-width: 0.8"/>
      </g>
     </g>
     <g id="text_7">
      <!-- 01-14 20 -->
      <g transform="translate(445.966882 399.078438) scale(0.1 -0.1)">
       <defs>
        <path id="DejaVuSans-32" d="M 1228 531 
L 3431 531 
L 3431 0 
L 469 0 
L 469 531 
Q 828 903 1448 1529 
Q 2069 2156 2228 2338 
Q 2531 2678 2651 2914 
Q 2772 3150 2772 3378 
Q 2772 3750 2511 3984 
Q 2250 4219 1831 4219 
Q 1534 4219 1204 4116 
Q 875 4013 500 3803 
L 500 4441 
Q 881 4594 1212 4672 
Q 1544 4750 1819 4750 
Q 2544 4750 2975 4387 
Q 3406 4025 3406 3419 
Q 3406 3131 3298 2873 
Q 3191 2616 2906 2266 
Q 2828 2175 2409 1742 
Q 1991 1309 1228 531 
z
" transform="scale(0.015625)"/>
       </defs>
       <use xlink:href="#DejaVuSans-30"/>
       <use xlink:href="#DejaVuSans-31" transform="translate(63.623047 0)"/>
       <use xlink:href="#DejaVuSans-2d" transform="translate(127.246094 0)"/>
       <use xlink:href="#DejaVuSans-31" transform="translate(163.330078 0)"/>
       <use xlink:href="#DejaVuSans-34" transform="translate(226.953125 0)"/>
       <use xlink:href="#DejaVuSans-20" transform="translate(290.576172 0)"/>
       <use xlink:href="#DejaVuSans-32" transform="translate(322.363281 0)"/>
       <use xlink:href="#DejaVuSans-30" transform="translate(385.986328 0)"/>
      </g>
     </g>
    </g>
    <g id="xtick_8">
     <g id="line2d_15">
      <path d="M 523.189012 384.48 
L 523.189012 51.84 
" clip-path="url(#p01e09629fb)" style="fill: none; stroke: #b0b0b0; stroke-width: 0.8; stroke-linecap: square"/>
     </g>
     <g id="line2d_16">
      <g>
       <use xlink:href="#m9ad4b3f44b" x="523.189012" y="384.48" style="stroke: #000000; stroke-width: 0.8"/>
      </g>
     </g>
     <g id="text_8">
      <!-- 01-14 21 -->
      <g transform="translate(500.708544 399.078438) scale(0.1 -0.1)">
       <use xlink:href="#DejaVuSans-30"/>
       <use xlink:href="#DejaVuSans-31" transform="translate(63.623047 0)"/>
       <use xlink:href="#DejaVuSans-2d" transform="translate(127.246094 0)"/>
       <use xlink:href="#DejaVuSans-31" transform="translate(163.330078 0)"/>
       <use xlink:href="#DejaVuSans-34" transform="translate(226.953125 0)"/>
       <use xlink:href="#DejaVuSans-20" transform="translate(290.576172 0)"/>
       <use xlink:href="#DejaVuSans-32" transform="translate(322.363281 0)"/>
       <use xlink:href="#DejaVuSans-31" transform="translate(385.986328 0)"/>
      </g>
     </g>
    </g>
    <g id="xtick_9">
     <g id="line2d_17">
      <path d="M 577.930674 384.48 
L 577.930674 51.84 
" clip-path="url(#p01e09629fb)" style="fill: none; stroke: #b0b0b0; stroke-width: 0.8; stroke-linecap: square"/>
     </g>
     <g id="line2d_18">
      <g>
       <use xlink:href="#m9ad4b3f44b" x="577.930674" y="384.48" style="stroke: #000000; stroke-width: 0.8"/>
      </g>
     </g>
     <g id="text_9">
      <!-- 01-14 22 -->
      <g transform="translate(555.450205 399.078438) scale(0.1 -0.1)">
       <use xlink:href="#DejaVuSans-30"/>
       <use xlink:href="#DejaVuSans-31" transform="translate(63.623047 0)"/>
       <use xlink:href="#DejaVuSans-2d" transform="translate(127.246094 0)"/>
       <use xlink:href="#DejaVuSans-31" transform="translate(163.330078 0)"/>
       <use xlink:href="#DejaVuSans-34" transform="translate(226.953125 0)"/>
       <use xlink:href="#DejaVuSans-20" transform="translate(290.576172 0)"/>
       <use xlink:href="#DejaVuSans-32" transform="translate(322.363281 0)"/>
       <use xlink:href="#DejaVuSans-32" transform="translate(385.986328 0)"/>
      </g>
     </g>
    </g>
    <g id="xtick_10">
     <g id="line2d_19">
      <path d="M 632.672335 384.48 
L 632.672335 51.84 
" clip-path="url(#p01e09629fb)" style="fill: none; stroke: #b0b0b0; stroke-width: 0.8; stroke-linecap: square"/>
     </g>
     <g id="line2d_20">
      <g>
       <use xlink:href="#m9ad4b3f44b" x="632.672335" y="384.48" style="stroke: #000000; stroke-width: 0.8"/>
      </g>
     </g>
     <g id="text_10">
      <!-- 01-14 23 -->
      <g transform="translate(610.191866 399.078438) scale(0.1 -0.1)">
       <defs>
        <path id="DejaVuSans-33" d="M 2597 2516 
Q 3050 2419 3304 2112 
Q 3559 1806 3559 1356 
Q 3559 666 3084 287 
Q 2609 -91 1734 -91 
Q 1441 -91 1130 -33 
Q 819 25 488 141 
L 488 750 
Q 750 597 1062 519 
Q 1375 441 1716 441 
Q 2309 441 2620 675 
Q 2931 909 2931 1356 
Q 2931 1769 2642 2001 
Q 2353 2234 1838 2234 
L 1294 2234 
L 1294 2753 
L 1863 2753 
Q 2328 2753 2575 2939 
Q 2822 3125 2822 3475 
Q 2822 3834 2567 4026 
Q 2313 4219 1838 4219 
Q 1578 4219 1281 4162 
Q 984 4106 628 3988 
L 628 4550 
Q 988 4650 1302 4700 
Q 1616 4750 1894 4750 
Q 2613 4750 3031 4423 
Q 3450 4097 3450 3541 
Q 3450 3153 3228 2886 
Q 3006 2619 2597 2516 
z
" transform="scale(0.015625)"/>
       </defs>
       <use xlink:href="#DejaVuSans-30"/>
       <use xlink:href="#DejaVuSans-31" transform="translate(63.623047 0)"/>
       <use xlink:href="#DejaVuSans-2d" transform="translate(127.246094 0)"/>
       <use xlink:href="#DejaVuSans-31" transform="translate(163.330078 0)"/>
       <use xlink:href="#DejaVuSans-34" transform="translate(226.953125 0)"/>
       <use xlink:href="#DejaVuSans-20" transform="translate(290.576172 0)"/>
       <use xlink:href="#DejaVuSans-32" transform="translate(322.363281 0)"/>
       <use xlink:href="#DejaVuSans-33" transform="translate(385.986328 0)"/>
      </g>
     </g>
    </g>
    <g id="text_11">
     <!-- Date and Time -->
     <g transform="translate(332.230469 412.756563) scale(0.1 -0.1)">
      <defs>
       <path id="DejaVuSans-44" d="M 1259 4147 
L 1259 519 
L 2022 519 
Q 2988 519 3436 956 
Q 3884 1394 3884 2338 
Q 3884 3275 3436 3711 
Q 2988 4147 2022 4147 
L 1259 4147 
z
M 628 4666 
L 1925 4666 
Q 3281 4666 3915 4102 
Q 4550 3538 4550 2338 
Q 4550 1131 3912 565 
Q 3275 0 1925 0 
L 628 0 
L 628 4666 
z
" transform="scale(0.015625)"/>
       <path id="DejaVuSans-61" d="M 2194 1759 
Q 1497 1759 1228 1600 
Q 959 1441 959 1056 
Q 959 750 1161 570 
Q 1363 391 1709 391 
Q 2188 391 2477 730 
Q 2766 1069 2766 1631 
L 2766 1759 
L 2194 1759 
z
M 3341 1997 
L 3341 0 
L 2766 0 
L 2766 531 
Q 2569 213 2275 61 
Q 1981 -91 1556 -91 
Q 1019 -91 701 211 
Q 384 513 384 1019 
Q 384 1609 779 1909 
Q 1175 2209 1959 2209 
L 2766 2209 
L 2766 2266 
Q 2766 2663 2505 2880 
Q 2244 3097 1772 3097 
Q 1472 3097 1187 3025 
Q 903 2953 641 2809 
L 641 3341 
Q 956 3463 1253 3523 
Q 1550 3584 1831 3584 
Q 2591 3584 2966 3190 
Q 3341 2797 3341 1997 
z
" transform="scale(0.015625)"/>
       <path id="DejaVuSans-74" d="M 1172 4494 
L 1172 3500 
L 2356 3500 
L 2356 3053 
L 1172 3053 
L 1172 1153 
Q 1172 725 1289 603 
Q 1406 481 1766 481 
L 2356 481 
L 2356 0 
L 1766 0 
Q 1100 0 847 248 
Q 594 497 594 1153 
L 594 3053 
L 172 3053 
L 172 3500 
L 594 3500 
L 594 4494 
L 1172 4494 
z
" transform="scale(0.015625)"/>
       <path id="DejaVuSans-65" d="M 3597 1894 
L 3597 1613 
L 953 1613 
Q 991 1019 1311 708 
Q 1631 397 2203 397 
Q 2534 397 2845 478 
Q 3156 559 3463 722 
L 3463 178 
Q 3153 47 2828 -22 
Q 2503 -91 2169 -91 
Q 1331 -91 842 396 
Q 353 884 353 1716 
Q 353 2575 817 3079 
Q 1281 3584 2069 3584 
Q 2775 3584 3186 3129 
Q 3597 2675 3597 1894 
z
M 3022 2063 
Q 3016 2534 2758 2815 
Q 2500 3097 2075 3097 
Q 1594 3097 1305 2825 
Q 1016 2553 972 2059 
L 3022 2063 
z
" transform="scale(0.015625)"/>
       <path id="DejaVuSans-6e" d="M 3513 2113 
L 3513 0 
L 2938 0 
L 2938 2094 
Q 2938 2591 2744 2837 
Q 2550 3084 2163 3084 
Q 1697 3084 1428 2787 
Q 1159 2491 1159 1978 
L 1159 0 
L 581 0 
L 581 3500 
L 1159 3500 
L 1159 2956 
Q 1366 3272 1645 3428 
Q 1925 3584 2291 3584 
Q 2894 3584 3203 3211 
Q 3513 2838 3513 2113 
z
" transform="scale(0.015625)"/>
       <path id="DejaVuSans-64" d="M 2906 2969 
L 2906 4863 
L 3481 4863 
L 3481 0 
L 2906 0 
L 2906 525 
Q 2725 213 2448 61 
Q 2172 -91 1784 -91 
Q 1150 -91 751 415 
Q 353 922 353 1747 
Q 353 2572 751 3078 
Q 1150 3584 1784 3584 
Q 2172 3584 2448 3432 
Q 2725 3281 2906 2969 
z
M 947 1747 
Q 947 1113 1208 752 
Q 1469 391 1925 391 
Q 2381 391 2643 752 
Q 2906 1113 2906 1747 
Q 2906 2381 2643 2742 
Q 2381 3103 1925 3103 
Q 1469 3103 1208 2742 
Q 947 2381 947 1747 
z
" transform="scale(0.015625)"/>
       <path id="DejaVuSans-54" d="M -19 4666 
L 3928 4666 
L 3928 4134 
L 2272 4134 
L 2272 0 
L 1638 0 
L 1638 4134 
L -19 4134 
L -19 4666 
z
" transform="scale(0.015625)"/>
       <path id="DejaVuSans-69" d="M 603 3500 
L 1178 3500 
L 1178 0 
L 603 0 
L 603 3500 
z
M 603 4863 
L 1178 4863 
L 1178 4134 
L 603 4134 
L 603 4863 
z
" transform="scale(0.015625)"/>
       <path id="DejaVuSans-6d" d="M 3328 2828 
Q 3544 3216 3844 3400 
Q 4144 3584 4550 3584 
Q 5097 3584 5394 3201 
Q 5691 2819 5691 2113 
L 5691 0 
L 5113 0 
L 5113 2094 
Q 5113 2597 4934 2840 
Q 4756 3084 4391 3084 
Q 3944 3084 3684 2787 
Q 3425 2491 3425 1978 
L 3425 0 
L 2847 0 
L 2847 2094 
Q 2847 2600 2669 2842 
Q 2491 3084 2119 3084 
Q 1678 3084 1418 2786 
Q 1159 2488 1159 1978 
L 1159 0 
L 581 0 
L 581 3500 
L 1159 3500 
L 1159 2956 
Q 1356 3278 1631 3431 
Q 1906 3584 2284 3584 
Q 2666 3584 2933 3390 
Q 3200 3197 3328 2828 
z
" transform="scale(0.015625)"/>
      </defs>
      <use xlink:href="#DejaVuSans-44"/>
      <use xlink:href="#DejaVuSans-61" transform="translate(77.001953 0)"/>
      <use xlink:href="#DejaVuSans-74" transform="translate(138.28125 0)"/>
      <use xlink:href="#DejaVuSans-65" transform="translate(177.490234 0)"/>
      <use xlink:href="#DejaVuSans-20" transform="translate(239.013672 0)"/>
      <use xlink:href="#DejaVuSans-61" transform="translate(270.800781 0)"/>
      <use xlink:href="#DejaVuSans-6e" transform="translate(332.080078 0)"/>
      <use xlink:href="#DejaVuSans-64" transform="translate(395.458984 0)"/>
      <use xlink:href="#DejaVuSans-20" transform="translate(458.935547 0)"/>
      <use xlink:href="#DejaVuSans-54" transform="translate(490.722656 0)"/>
      <use xlink:href="#DejaVuSans-69" transform="translate(548.681641 0)"/>
      <use xlink:href="#DejaVuSans-6d" transform="translate(576.464844 0)"/>
      <use xlink:href="#DejaVuSans-65" transform="translate(673.876953 0)"/>
     </g>
    </g>
   </g>
   <g id="matplotlib.axis_2">
    <g id="ytick_1">
     <g id="line2d_21">
      <path d="M 90 370.313943 
L 648 370.313943 
" clip-path="url(#p01e09629fb)" style="fill: none; stroke: #b0b0b0; stroke-width: 0.8; stroke-linecap: square"/>
     </g>
     <g id="line2d_22">
      <defs>
       <path id="m657abb44ad" d="M 0 0 
L -3.5 0 
" style="stroke: #000000; stroke-width: 0.8"/>
      </defs>
      <g>
       <use xlink:href="#m657abb44ad" x="90" y="370.313943" style="stroke: #000000; stroke-width: 0.8"/>
      </g>
     </g>
     <g id="text_12">
      <!-- 0 -->
      <g transform="translate(76.6375 374.113162) scale(0.1 -0.1)">
       <use xlink:href="#DejaVuSans-30"/>
      </g>
     </g>
    </g>
    <g id="ytick_2">
     <g id="line2d_23">
      <path d="M 90 322.616782 
L 648 322.616782 
" clip-path="url(#p01e09629fb)" style="fill: none; stroke: #b0b0b0; stroke-width: 0.8; stroke-linecap: square"/>
     </g>
     <g id="line2d_24">
      <g>
       <use xlink:href="#m657abb44ad" x="90" y="322.616782" style="stroke: #000000; stroke-width: 0.8"/>
      </g>
     </g>
     <g id="text_13">
      <!-- 50 -->
      <g transform="translate(70.275 326.416001) scale(0.1 -0.1)">
       <use xlink:href="#DejaVuSans-35"/>
       <use xlink:href="#DejaVuSans-30" transform="translate(63.623047 0)"/>
      </g>
     </g>
    </g>
    <g id="ytick_3">
     <g id="line2d_25">
      <path d="M 90 274.919621 
L 648 274.919621 
" clip-path="url(#p01e09629fb)" style="fill: none; stroke: #b0b0b0; stroke-width: 0.8; stroke-linecap: square"/>
     </g>
     <g id="line2d_26">
      <g>
       <use xlink:href="#m657abb44ad" x="90" y="274.919621" style="stroke: #000000; stroke-width: 0.8"/>
      </g>
     </g>
     <g id="text_14">
      <!-- 100 -->
      <g transform="translate(63.9125 278.71884) scale(0.1 -0.1)">
       <use xlink:href="#DejaVuSans-31"/>
       <use xlink:href="#DejaVuSans-30" transform="translate(63.623047 0)"/>
       <use xlink:href="#DejaVuSans-30" transform="translate(127.246094 0)"/>
      </g>
     </g>
    </g>
    <g id="ytick_4">
     <g id="line2d_27">
      <path d="M 90 227.222461 
L 648 227.222461 
" clip-path="url(#p01e09629fb)" style="fill: none; stroke: #b0b0b0; stroke-width: 0.8; stroke-linecap: square"/>
     </g>
     <g id="line2d_28">
      <g>
       <use xlink:href="#m657abb44ad" x="90" y="227.222461" style="stroke: #000000; stroke-width: 0.8"/>
      </g>
     </g>
     <g id="text_15">
      <!-- 150 -->
      <g transform="translate(63.9125 231.021679) scale(0.1 -0.1)">
       <use xlink:href="#DejaVuSans-31"/>
       <use xlink:href="#DejaVuSans-35" transform="translate(63.623047 0)"/>
       <use xlink:href="#DejaVuSans-30" transform="translate(127.246094 0)"/>
      </g>
     </g>
    </g>
    <g id="ytick_5">
     <g id="line2d_29">
      <path d="M 90 179.5253 
L 648 179.5253 
" clip-path="url(#p01e09629fb)" style="fill: none; stroke: #b0b0b0; stroke-width: 0.8; stroke-linecap: square"/>
     </g>
     <g id="line2d_30">
      <g>
       <use xlink:href="#m657abb44ad" x="90" y="179.5253" style="stroke: #000000; stroke-width: 0.8"/>
      </g>
     </g>
     <g id="text_16">
      <!-- 200 -->
      <g transform="translate(63.9125 183.324518) scale(0.1 -0.1)">
       <use xlink:href="#DejaVuSans-32"/>
       <use xlink:href="#DejaVuSans-30" transform="translate(63.623047 0)"/>
       <use xlink:href="#DejaVuSans-30" transform="translate(127.246094 0)"/>
      </g>
     </g>
    </g>
    <g id="ytick_6">
     <g id="line2d_31">
      <path d="M 90 131.828139 
L 648 131.828139 
" clip-path="url(#p01e09629fb)" style="fill: none; stroke: #b0b0b0; stroke-width: 0.8; stroke-linecap: square"/>
     </g>
     <g id="line2d_32">
      <g>
       <use xlink:href="#m657abb44ad" x="90" y="131.828139" style="stroke: #000000; stroke-width: 0.8"/>
      </g>
     </g>
     <g id="text_17">
      <!-- 250 -->
      <g transform="translate(63.9125 135.627358) scale(0.1 -0.1)">
       <use xlink:href="#DejaVuSans-32"/>
       <use xlink:href="#DejaVuSans-35" transform="translate(63.623047 0)"/>
       <use xlink:href="#DejaVuSans-30" transform="translate(127.246094 0)"/>
      </g>
     </g>
    </g>
    <g id="ytick_7">
     <g id="line2d_33">
      <path d="M 90 84.130978 
L 648 84.130978 
" clip-path="url(#p01e09629fb)" style="fill: none; stroke: #b0b0b0; stroke-width: 0.8; stroke-linecap: square"/>
     </g>
     <g id="line2d_34">
      <g>
       <use xlink:href="#m657abb44ad" x="90" y="84.130978" style="stroke: #000000; stroke-width: 0.8"/>
      </g>
     </g>
     <g id="text_18">
      <!-- 300 -->
      <g transform="translate(63.9125 87.930197) scale(0.1 -0.1)">
       <use xlink:href="#DejaVuSans-33"/>
       <use xlink:href="#DejaVuSans-30" transform="translate(63.623047 0)"/>
       <use xlink:href="#DejaVuSans-30" transform="translate(127.246094 0)"/>
      </g>
     </g>
    </g>
    <g id="text_19">
     <!-- Votes -->
     <g transform="translate(57.832812 231.893594) rotate(-90) scale(0.1 -0.1)">
      <defs>
       <path id="DejaVuSans-56" d="M 1831 0 
L 50 4666 
L 709 4666 
L 2188 738 
L 3669 4666 
L 4325 4666 
L 2547 0 
L 1831 0 
z
" transform="scale(0.015625)"/>
       <path id="DejaVuSans-6f" d="M 1959 3097 
Q 1497 3097 1228 2736 
Q 959 2375 959 1747 
Q 959 1119 1226 758 
Q 1494 397 1959 397 
Q 2419 397 2687 759 
Q 2956 1122 2956 1747 
Q 2956 2369 2687 2733 
Q 2419 3097 1959 3097 
z
M 1959 3584 
Q 2709 3584 3137 3096 
Q 3566 2609 3566 1747 
Q 3566 888 3137 398 
Q 2709 -91 1959 -91 
Q 1206 -91 779 398 
Q 353 888 353 1747 
Q 353 2609 779 3096 
Q 1206 3584 1959 3584 
z
" transform="scale(0.015625)"/>
       <path id="DejaVuSans-73" d="M 2834 3397 
L 2834 2853 
Q 2591 2978 2328 3040 
Q 2066 3103 1784 3103 
Q 1356 3103 1142 2972 
Q 928 2841 928 2578 
Q 928 2378 1081 2264 
Q 1234 2150 1697 2047 
L 1894 2003 
Q 2506 1872 2764 1633 
Q 3022 1394 3022 966 
Q 3022 478 2636 193 
Q 2250 -91 1575 -91 
Q 1294 -91 989 -36 
Q 684 19 347 128 
L 347 722 
Q 666 556 975 473 
Q 1284 391 1588 391 
Q 1994 391 2212 530 
Q 2431 669 2431 922 
Q 2431 1156 2273 1281 
Q 2116 1406 1581 1522 
L 1381 1569 
Q 847 1681 609 1914 
Q 372 2147 372 2553 
Q 372 3047 722 3315 
Q 1072 3584 1716 3584 
Q 2034 3584 2315 3537 
Q 2597 3491 2834 3397 
z
" transform="scale(0.015625)"/>
      </defs>
      <use xlink:href="#DejaVuSans-56"/>
      <use xlink:href="#DejaVuSans-6f" transform="translate(60.658203 0)"/>
      <use xlink:href="#DejaVuSans-74" transform="translate(121.839844 0)"/>
      <use xlink:href="#DejaVuSans-65" transform="translate(161.048828 0)"/>
      <use xlink:href="#DejaVuSans-73" transform="translate(222.572266 0)"/>
     </g>
    </g>
   </g>
   <g id="line2d_35">
    <path d="M 115.363636 353.142965 
L 124.487247 353.142965 
L 125.399608 352.189022 
L 134.523218 352.189022 
L 135.435579 350.281136 
L 143.646828 350.281136 
L 144.559189 349.327192 
L 149.120994 349.327192 
L 150.033355 348.373249 
L 153.682799 348.373249 
L 154.59516 347.419306 
L 157.332243 347.419306 
L 158.244604 346.465363 
L 171.017659 346.465363 
L 171.93002 345.51142 
L 181.965991 345.51142 
L 183.790713 343.603533 
L 185.615435 343.603533 
L 186.527796 342.64959 
L 194.739045 342.64959 
L 196.563767 340.741703 
L 207.512099 340.741703 
L 208.42446 339.78776 
L 211.161543 339.78776 
L 212.073905 338.833817 
L 212.986266 338.833817 
L 213.898627 337.879874 
L 238.532374 337.879874 
L 239.444735 336.925931 
L 250.393067 336.925931 
L 251.305428 335.971987 
L 257.691956 335.971987 
L 258.604317 335.018044 
L 259.516678 333.110158 
L 260.429039 333.110158 
L 262.253761 331.202271 
L 276.851537 331.202271 
L 277.763898 330.248328 
L 283.238064 330.248328 
L 284.150425 329.294385 
L 287.799869 329.294385 
L 288.71223 328.340442 
L 297.83584 328.340442 
L 298.748201 327.386498 
L 300.572923 327.386498 
L 301.485285 326.432555 
L 304.222368 326.432555 
L 305.134729 325.478612 
L 312.433617 325.478612 
L 313.345978 324.524669 
L 314.258339 324.524669 
L 315.1707 323.570726 
L 324.29431 323.570726 
L 325.206671 322.616782 
L 331.593198 322.616782 
L 332.505559 321.662839 
L 333.41792 321.662839 
L 335.242642 319.754953 
L 355.314585 319.754953 
L 356.226946 318.801009 
L 370.824722 318.801009 
L 371.737083 317.847066 
L 372.649444 317.847066 
L 373.561805 316.893123 
L 381.773054 316.893123 
L 382.685415 315.93918 
L 383.597776 315.93918 
L 384.510137 314.985237 
L 389.071942 314.985237 
L 389.984303 314.031293 
L 392.721387 314.031293 
L 394.546109 312.123407 
L 395.45847 312.123407 
L 396.370831 311.169464 
L 398.195553 311.169464 
L 399.107914 310.215521 
L 400.932636 310.215521 
L 401.844997 309.261577 
L 403.669719 309.261577 
L 404.58208 308.307634 
L 426.478744 308.307634 
L 427.391105 307.353691 
L 436.514716 307.353691 
L 437.427077 306.399748 
L 442.901243 306.399748 
L 443.813604 305.445804 
L 444.725965 305.445804 
L 445.638326 304.491861 
L 446.550687 304.491861 
L 450.200131 300.676088 
L 452.024853 300.676088 
L 452.937214 298.768202 
L 460.236102 298.768202 
L 462.060824 296.860315 
L 463.885546 296.860315 
L 464.797907 295.906372 
L 468.447351 295.906372 
L 469.359712 294.952429 
L 475.746239 294.952429 
L 476.6586 293.998486 
L 478.483322 293.998486 
L 479.395683 293.044543 
L 484.86985 293.044543 
L 486.694572 291.136656 
L 493.081099 291.136656 
L 493.99346 290.182713 
L 496.730543 290.182713 
L 497.642904 289.22877 
L 499.467626 289.22877 
L 500.379987 287.320883 
L 504.029431 287.320883 
L 504.941792 285.412997 
L 505.854153 284.459054 
L 509.503597 284.459054 
L 510.415958 282.551167 
L 516.802485 282.551167 
L 517.714846 281.597224 
L 521.36429 281.597224 
L 522.276651 280.643281 
L 525.013734 280.643281 
L 525.926095 279.689338 
L 526.838457 277.781451 
L 528.663179 277.781451 
L 529.57554 276.827508 
L 544.173316 276.827508 
L 545.998038 274.919621 
L 558.771092 274.919621 
L 559.683453 273.965678 
L 565.157619 273.965678 
L 566.06998 273.011735 
L 577.930674 273.011735 
L 578.843035 272.057792 
L 587.054284 272.057792 
L 587.966645 271.103849 
L 611.688031 271.103849 
L 612.600392 270.149905 
L 622.636364 270.149905 
L 622.636364 270.149905 
" clip-path="url(#p01e09629fb)" style="fill: none; stroke: #1f77b4; stroke-width: 1.5; stroke-linecap: square"/>
   </g>
   <g id="line2d_36">
    <path d="M 115.363636 292.090599 
L 116.275997 291.136656 
L 119.01308 291.136656 
L 119.925441 290.182713 
L 120.837802 290.182713 
L 121.750164 289.22877 
L 122.662525 289.22877 
L 124.487247 287.320883 
L 125.399608 285.412997 
L 126.311969 285.412997 
L 128.136691 283.50511 
L 129.049052 283.50511 
L 129.961413 279.689338 
L 130.873774 277.781451 
L 131.786135 273.965678 
L 132.698496 271.103849 
L 135.435579 271.103849 
L 136.34794 268.242019 
L 137.260301 266.334132 
L 139.085023 264.426246 
L 139.997384 262.51836 
L 141.822106 260.610473 
L 142.734467 258.702587 
L 145.47155 258.702587 
L 146.383911 253.932871 
L 147.296272 252.024984 
L 148.208633 251.071041 
L 149.120994 249.163155 
L 150.033355 248.209211 
L 150.945716 248.209211 
L 151.858077 245.347382 
L 152.770438 245.347382 
L 153.682799 243.439495 
L 154.59516 242.485552 
L 155.507521 242.485552 
L 156.419882 241.531609 
L 158.244604 241.531609 
L 159.156965 240.577666 
L 160.981687 240.577666 
L 161.894048 238.669779 
L 162.806409 238.669779 
L 163.71877 237.715836 
L 167.368215 237.715836 
L 168.280576 236.761893 
L 171.017659 236.761893 
L 171.93002 235.80795 
L 172.842381 235.80795 
L 173.754742 233.900063 
L 174.667103 233.900063 
L 175.579464 231.992177 
L 176.491825 231.038233 
L 179.228908 231.038233 
L 180.141269 229.130347 
L 181.05363 228.176404 
L 181.965991 225.314574 
L 183.790713 223.406688 
L 191.089601 223.406688 
L 192.001962 220.544858 
L 192.914323 220.544858 
L 194.739045 218.636972 
L 195.651406 218.636972 
L 198.388489 215.775142 
L 200.213211 215.775142 
L 201.125572 214.821199 
L 202.950294 214.821199 
L 205.687377 211.959369 
L 207.512099 211.959369 
L 208.42446 211.005426 
L 212.986266 211.005426 
L 213.898627 210.051483 
L 215.723349 210.051483 
L 216.63571 209.097539 
L 227.584042 209.097539 
L 228.496403 207.189653 
L 230.321125 207.189653 
L 232.145847 205.281767 
L 233.058208 205.281767 
L 233.970569 204.327823 
L 239.444735 204.327823 
L 242.181818 201.465994 
L 243.094179 201.465994 
L 244.00654 200.51205 
L 244.918901 198.604164 
L 245.831262 198.604164 
L 246.743623 197.650221 
L 247.655984 197.650221 
L 251.305428 193.834448 
L 253.13015 193.834448 
L 254.042511 191.926562 
L 256.779595 191.926562 
L 257.691956 190.972618 
L 260.429039 190.972618 
L 261.3414 190.018675 
L 262.253761 190.018675 
L 263.166122 187.156845 
L 265.903205 187.156845 
L 266.815566 186.202902 
L 267.727927 184.295016 
L 269.552649 184.295016 
L 270.46501 183.341073 
L 272.289732 183.341073 
L 273.202093 182.387129 
L 274.114454 182.387129 
L 278.676259 177.617413 
L 280.500981 177.617413 
L 283.238064 174.755584 
L 285.975147 174.755584 
L 286.887508 172.847697 
L 287.799869 172.847697 
L 288.71223 171.893754 
L 291.449313 171.893754 
L 292.361674 170.939811 
L 300.572923 170.939811 
L 301.485285 169.985868 
L 307.871812 169.985868 
L 308.784173 169.031924 
L 310.608895 169.031924 
L 312.433617 167.124038 
L 316.995422 167.124038 
L 317.907783 166.170095 
L 322.469588 166.170095 
L 325.206671 163.308265 
L 337.067364 163.308265 
L 337.979725 161.400379 
L 338.892086 160.446435 
L 360.788751 160.446435 
L 361.701112 159.492492 
L 367.175278 159.492492 
L 369 157.584606 
L 370.824722 157.584606 
L 371.737083 156.630662 
L 372.649444 156.630662 
L 374.474166 154.722776 
L 375.386527 154.722776 
L 376.298888 153.768833 
L 377.211249 153.768833 
L 379.035971 149.95306 
L 379.948332 148.999117 
L 384.510137 148.999117 
L 385.422498 146.137287 
L 386.334859 144.229401 
L 388.159581 144.229401 
L 389.984303 142.321514 
L 394.546109 142.321514 
L 396.370831 140.413628 
L 398.195553 140.413628 
L 399.107914 139.459685 
L 400.932636 139.459685 
L 401.844997 138.505741 
L 402.757358 138.505741 
L 403.669719 137.551798 
L 404.58208 137.551798 
L 405.494441 136.597855 
L 406.406802 136.597855 
L 407.319163 135.643912 
L 409.143885 135.643912 
L 410.056246 133.736025 
L 414.618051 133.736025 
L 416.442773 131.828139 
L 425.566383 131.828139 
L 426.478744 130.874196 
L 427.391105 130.874196 
L 428.303466 129.920252 
L 429.215827 129.920252 
L 431.95291 127.058423 
L 433.777632 127.058423 
L 434.689993 126.104479 
L 452.937214 126.104479 
L 454.761936 124.196593 
L 458.41138 124.196593 
L 459.323741 123.24265 
L 460.236102 123.24265 
L 461.148463 122.288707 
L 462.060824 122.288707 
L 462.973185 121.334763 
L 483.045128 121.334763 
L 483.957489 120.38082 
L 502.204709 120.38082 
L 503.11707 118.472934 
L 509.503597 118.472934 
L 511.328319 116.565047 
L 513.153041 116.565047 
L 514.065402 115.611104 
L 515.890124 115.611104 
L 517.714846 113.703218 
L 519.539568 113.703218 
L 520.451929 111.795331 
L 527.750818 111.795331 
L 528.663179 110.841388 
L 533.224984 110.841388 
L 534.137345 109.887445 
L 539.611511 109.887445 
L 540.523872 108.933502 
L 546.910399 108.933502 
L 548.735121 107.025615 
L 549.647482 107.025615 
L 550.559843 106.071672 
L 556.034009 106.071672 
L 556.94637 105.117729 
L 560.595814 105.117729 
L 561.508175 104.163785 
L 562.420536 104.163785 
L 563.332897 103.209842 
L 577.018313 103.209842 
L 579.755396 100.348013 
L 589.791367 100.348013 
L 590.703728 99.394069 
L 594.353172 99.394069 
L 595.265533 97.486183 
L 605.301504 97.486183 
L 606.213865 95.578297 
L 618.98692 95.578297 
L 619.899281 94.624353 
L 622.636364 94.624353 
L 622.636364 94.624353 
" clip-path="url(#p01e09629fb)" style="fill: none; stroke: #ff7f0e; stroke-width: 1.5; stroke-linecap: square"/>
   </g>
   <g id="line2d_37">
    <path d="M 115.363636 340.741703 
L 119.01308 340.741703 
L 119.925441 338.833817 
L 121.750164 338.833817 
L 122.662525 337.879874 
L 123.574886 335.971987 
L 124.487247 335.018044 
L 125.399608 332.156215 
L 126.311969 330.248328 
L 127.22433 329.294385 
L 128.136691 329.294385 
L 129.049052 327.386498 
L 129.961413 324.524669 
L 133.610857 324.524669 
L 134.523218 323.570726 
L 135.435579 323.570726 
L 136.34794 321.662839 
L 139.085023 321.662839 
L 140.909745 319.754953 
L 144.559189 319.754953 
L 145.47155 318.801009 
L 149.120994 318.801009 
L 151.858077 315.93918 
L 156.419882 315.93918 
L 157.332243 314.985237 
L 160.069326 314.985237 
L 160.981687 314.031293 
L 162.806409 314.031293 
L 163.71877 312.123407 
L 171.017659 312.123407 
L 171.93002 311.169464 
L 172.842381 309.261577 
L 173.754742 308.307634 
L 174.667103 308.307634 
L 175.579464 307.353691 
L 177.404186 307.353691 
L 178.316547 306.399748 
L 180.141269 306.399748 
L 181.05363 305.445804 
L 186.527796 305.445804 
L 187.440157 304.491861 
L 188.352518 304.491861 
L 189.264879 303.537918 
L 190.17724 303.537918 
L 191.089601 302.583975 
L 193.826684 302.583975 
L 194.739045 301.630032 
L 195.651406 299.722145 
L 200.213211 299.722145 
L 202.950294 296.860315 
L 205.687377 296.860315 
L 206.599738 295.906372 
L 210.249182 295.906372 
L 211.161543 294.952429 
L 212.073905 294.952429 
L 212.986266 293.998486 
L 214.810988 293.998486 
L 215.723349 293.044543 
L 218.460432 293.044543 
L 220.285154 291.136656 
L 221.197515 291.136656 
L 222.109876 290.182713 
L 229.408764 290.182713 
L 230.321125 288.274826 
L 231.233486 287.320883 
L 238.532374 287.320883 
L 239.444735 286.36694 
L 242.181818 286.36694 
L 243.094179 285.412997 
L 245.831262 285.412997 
L 246.743623 284.459054 
L 255.867233 284.459054 
L 256.779595 283.50511 
L 260.429039 283.50511 
L 261.3414 282.551167 
L 266.815566 282.551167 
L 267.727927 281.597224 
L 269.552649 281.597224 
L 270.46501 280.643281 
L 274.114454 280.643281 
L 275.939176 278.735394 
L 293.274035 278.735394 
L 294.186396 277.781451 
L 295.098757 277.781451 
L 296.011118 276.827508 
L 298.748201 276.827508 
L 299.660562 275.873565 
L 304.222368 275.873565 
L 305.134729 274.919621 
L 306.959451 274.919621 
L 307.871812 273.965678 
L 313.345978 273.965678 
L 314.258339 274.919621 
L 315.1707 273.965678 
L 321.557227 273.965678 
L 322.469588 273.011735 
L 329.768476 273.011735 
L 330.680837 272.057792 
L 332.505559 272.057792 
L 333.41792 271.103849 
L 334.330281 271.103849 
L 335.242642 270.149905 
L 341.629169 270.149905 
L 342.54153 269.195962 
L 348.015697 269.195962 
L 348.928058 268.242019 
L 362.613473 268.242019 
L 363.525834 267.288076 
L 383.597776 267.288076 
L 384.510137 266.334132 
L 393.633748 266.334132 
L 394.546109 265.380189 
L 409.143885 265.380189 
L 410.968607 263.472303 
L 427.391105 263.472303 
L 428.303466 262.51836 
L 429.215827 260.610473 
L 447.463048 260.610473 
L 448.375409 259.65653 
L 450.200131 259.65653 
L 451.112492 258.702587 
L 456.586658 258.702587 
L 457.499019 257.748644 
L 460.236102 257.748644 
L 462.060824 255.840757 
L 463.885546 255.840757 
L 464.797907 254.886814 
L 468.447351 254.886814 
L 469.359712 252.978927 
L 472.096795 252.978927 
L 473.009156 252.024984 
L 473.921517 252.024984 
L 475.746239 250.117098 
L 487.606933 250.117098 
L 488.519294 249.163155 
L 499.467626 249.163155 
L 500.379987 247.255268 
L 507.678875 247.255268 
L 509.503597 245.347382 
L 518.627207 245.347382 
L 521.36429 242.485552 
L 524.101373 242.485552 
L 525.013734 241.531609 
L 526.838457 241.531609 
L 527.750818 240.577666 
L 535.962067 240.577666 
L 536.874428 239.623722 
L 545.085677 239.623722 
L 545.998038 238.669779 
L 552.384565 238.669779 
L 554.209287 236.761893 
L 560.595814 236.761893 
L 561.508175 235.80795 
L 570.631785 235.80795 
L 571.544147 234.854006 
L 572.456508 234.854006 
L 573.368869 233.900063 
L 584.317201 233.900063 
L 585.229562 232.94612 
L 587.966645 232.94612 
L 588.879006 231.992177 
L 601.65206 231.992177 
L 602.564421 231.038233 
L 617.162198 231.038233 
L 618.074559 229.130347 
L 622.636364 229.130347 
L 622.636364 229.130347 
" clip-path="url(#p01e09629fb)" style="fill: none; stroke: #2ca02c; stroke-width: 1.5; stroke-linecap: square"/>
   </g>
   <g id="line2d_38">
    <path d="M 115.363636 369.36 
L 340.716808 369.36 
L 341.629169 368.406057 
L 535.049706 368.406057 
L 535.962067 367.452114 
L 622.636364 367.452114 
L 622.636364 367.452114 
" clip-path="url(#p01e09629fb)" style="fill: none; stroke: #d62728; stroke-width: 1.5; stroke-linecap: square"/>
   </g>
   <g id="line2d_39">
    <path d="M 115.363636 348.373249 
L 118.100719 348.373249 
L 119.01308 347.419306 
L 124.487247 347.419306 
L 125.399608 346.465363 
L 130.873774 346.465363 
L 131.786135 345.51142 
L 151.858077 345.51142 
L 152.770438 344.557476 
L 185.615435 344.557476 
L 187.440157 342.64959 
L 194.739045 342.64959 
L 195.651406 341.695647 
L 199.30085 341.695647 
L 200.213211 340.741703 
L 202.037933 340.741703 
L 202.950294 339.78776 
L 226.671681 339.78776 
L 227.584042 338.833817 
L 264.990844 338.833817 
L 265.903205 337.879874 
L 384.510137 337.879874 
L 385.422498 336.925931 
L 386.334859 336.925931 
L 387.24722 335.971987 
L 444.725965 335.971987 
L 445.638326 335.018044 
L 591.616089 335.018044 
L 592.52845 334.064101 
L 622.636364 334.064101 
L 622.636364 334.064101 
" clip-path="url(#p01e09629fb)" style="fill: none; stroke: #9467bd; stroke-width: 1.5; stroke-linecap: square"/>
   </g>
   <g id="line2d_40">
    <path d="M 115.363636 356.004795 
L 116.275997 356.004795 
L 117.188358 355.050852 
L 129.961413 355.050852 
L 130.873774 354.096909 
L 141.822106 354.096909 
L 142.734467 353.142965 
L 156.419882 353.142965 
L 158.244604 351.235079 
L 168.280576 351.235079 
L 169.192937 350.281136 
L 196.563767 350.281136 
L 197.476128 349.327192 
L 205.687377 349.327192 
L 206.599738 348.373249 
L 222.109876 348.373249 
L 223.022237 347.419306 
L 237.620013 347.419306 
L 238.532374 346.465363 
L 242.181818 346.465363 
L 243.094179 345.51142 
L 251.305428 345.51142 
L 252.217789 344.557476 
L 274.114454 344.557476 
L 275.026815 343.603533 
L 280.500981 343.603533 
L 281.413342 342.64959 
L 286.887508 342.64959 
L 287.799869 341.695647 
L 291.449313 341.695647 
L 292.361674 340.741703 
L 326.119032 340.741703 
L 327.031393 339.78776 
L 353.489863 339.78776 
L 354.402224 338.833817 
L 407.319163 338.833817 
L 408.231524 337.879874 
L 433.777632 337.879874 
L 434.689993 336.925931 
L 446.550687 336.925931 
L 447.463048 335.971987 
L 622.636364 335.971987 
L 622.636364 335.971987 
" clip-path="url(#p01e09629fb)" style="fill: none; stroke: #8c564b; stroke-width: 1.5; stroke-linecap: square"/>
   </g>
   <g id="line2d_41">
    <path d="M 115.363636 285.412997 
L 119.01308 285.412997 
L 119.925441 284.459054 
L 123.574886 284.459054 
L 125.399608 282.551167 
L 126.311969 282.551167 
L 127.22433 281.597224 
L 128.136691 281.597224 
L 129.049052 280.643281 
L 130.873774 280.643281 
L 131.786135 279.689338 
L 134.523218 279.689338 
L 135.435579 278.735394 
L 137.260301 278.735394 
L 138.172662 277.781451 
L 139.085023 277.781451 
L 139.997384 276.827508 
L 141.822106 276.827508 
L 143.646828 274.919621 
L 147.296272 274.919621 
L 148.208633 273.965678 
L 150.945716 273.965678 
L 152.770438 272.057792 
L 154.59516 272.057792 
L 155.507521 271.103849 
L 157.332243 271.103849 
L 158.244604 270.149905 
L 159.156965 268.242019 
L 160.069326 265.380189 
L 161.894048 265.380189 
L 162.806409 264.426246 
L 167.368215 264.426246 
L 169.192937 262.51836 
L 170.105298 260.610473 
L 171.017659 259.65653 
L 171.93002 259.65653 
L 172.842381 257.748644 
L 176.491825 257.748644 
L 177.404186 256.7947 
L 178.316547 256.7947 
L 180.141269 254.886814 
L 181.05363 254.886814 
L 181.965991 253.932871 
L 182.878352 253.932871 
L 184.703074 252.024984 
L 186.527796 252.024984 
L 187.440157 250.117098 
L 191.089601 250.117098 
L 192.914323 248.209211 
L 194.739045 248.209211 
L 195.651406 247.255268 
L 196.563767 245.347382 
L 199.30085 245.347382 
L 200.213211 244.393438 
L 201.125572 244.393438 
L 202.037933 242.485552 
L 202.950294 242.485552 
L 203.862655 241.531609 
L 204.775016 241.531609 
L 205.687377 240.577666 
L 209.336821 240.577666 
L 211.161543 238.669779 
L 212.073905 238.669779 
L 212.986266 236.761893 
L 213.898627 236.761893 
L 214.810988 235.80795 
L 215.723349 235.80795 
L 216.63571 234.854006 
L 219.372793 234.854006 
L 220.285154 233.900063 
L 221.197515 233.900063 
L 224.846959 230.08429 
L 225.75932 228.176404 
L 227.584042 228.176404 
L 229.408764 224.360631 
L 231.233486 224.360631 
L 233.058208 222.452744 
L 233.970569 222.452744 
L 234.88293 220.544858 
L 235.795291 220.544858 
L 236.707652 219.590915 
L 237.620013 219.590915 
L 238.532374 218.636972 
L 240.357096 218.636972 
L 241.269457 217.683028 
L 242.181818 217.683028 
L 243.094179 216.729085 
L 246.743623 216.729085 
L 247.655984 211.959369 
L 248.568345 211.959369 
L 249.480706 211.005426 
L 252.217789 211.005426 
L 253.13015 210.051483 
L 261.3414 210.051483 
L 262.253761 208.143596 
L 265.903205 208.143596 
L 266.815566 207.189653 
L 275.939176 207.189653 
L 276.851537 205.281767 
L 277.763898 204.327823 
L 282.325703 204.327823 
L 283.238064 203.37388 
L 289.624591 203.37388 
L 290.536952 202.419937 
L 291.449313 202.419937 
L 292.361674 201.465994 
L 297.83584 201.465994 
L 299.660562 199.558107 
L 306.04709 199.558107 
L 307.871812 197.650221 
L 308.784173 197.650221 
L 309.696534 196.696278 
L 315.1707 196.696278 
L 316.083061 195.742334 
L 318.820144 195.742334 
L 319.732505 194.788391 
L 320.644866 192.880505 
L 323.381949 192.880505 
L 324.29431 191.926562 
L 325.206671 191.926562 
L 327.031393 190.018675 
L 330.680837 190.018675 
L 331.593198 189.064732 
L 335.242642 189.064732 
L 336.155003 188.110789 
L 338.892086 188.110789 
L 339.804447 187.156845 
L 347.103336 187.156845 
L 348.928058 185.248959 
L 353.489863 185.248959 
L 354.402224 184.295016 
L 358.051668 184.295016 
L 362.613473 179.5253 
L 364.438195 179.5253 
L 365.350556 178.571356 
L 366.262917 178.571356 
L 367.175278 176.66347 
L 369 174.755584 
L 370.824722 170.939811 
L 372.649444 170.939811 
L 374.474166 167.124038 
L 376.298888 167.124038 
L 377.211249 165.216151 
L 379.035971 163.308265 
L 381.773054 163.308265 
L 382.685415 162.354322 
L 383.597776 162.354322 
L 385.422498 160.446435 
L 389.071942 160.446435 
L 389.984303 159.492492 
L 391.809026 159.492492 
L 392.721387 158.538549 
L 397.283192 158.538549 
L 398.195553 156.630662 
L 399.107914 155.676719 
L 400.020275 155.676719 
L 400.932636 154.722776 
L 402.757358 154.722776 
L 403.669719 153.768833 
L 405.494441 153.768833 
L 406.406802 151.860946 
L 408.231524 151.860946 
L 409.143885 150.907003 
L 410.056246 150.907003 
L 410.968607 149.95306 
L 415.530412 149.95306 
L 416.442773 148.999117 
L 421.004578 148.999117 
L 421.916939 148.045174 
L 422.8293 148.045174 
L 423.741661 146.137287 
L 425.566383 144.229401 
L 426.478744 141.367571 
L 427.391105 140.413628 
L 428.303466 140.413628 
L 429.215827 139.459685 
L 430.128188 139.459685 
L 431.040549 138.505741 
L 434.689993 138.505741 
L 435.602354 137.551798 
L 437.427077 137.551798 
L 438.339438 136.597855 
L 440.16416 136.597855 
L 441.988882 134.689968 
L 444.725965 134.689968 
L 445.638326 133.736025 
L 450.200131 133.736025 
L 451.112492 131.828139 
L 455.674297 131.828139 
L 456.586658 130.874196 
L 459.323741 130.874196 
L 460.236102 128.966309 
L 463.885546 128.966309 
L 464.797907 128.012366 
L 473.009156 128.012366 
L 473.921517 127.058423 
L 475.746239 127.058423 
L 476.6586 126.104479 
L 483.045128 126.104479 
L 483.957489 125.150536 
L 484.86985 125.150536 
L 485.782211 124.196593 
L 486.694572 124.196593 
L 487.606933 123.24265 
L 493.081099 123.24265 
L 494.905821 121.334763 
L 507.678875 121.334763 
L 508.591236 120.38082 
L 509.503597 120.38082 
L 511.328319 118.472934 
L 512.24068 118.472934 
L 513.153041 117.518991 
L 524.101373 117.518991 
L 525.013734 116.565047 
L 525.926095 114.657161 
L 527.750818 114.657161 
L 528.663179 113.703218 
L 533.224984 113.703218 
L 534.137345 112.749274 
L 535.049706 112.749274 
L 536.874428 110.841388 
L 541.436233 110.841388 
L 542.348594 109.887445 
L 545.085677 109.887445 
L 545.998038 108.933502 
L 547.82276 108.933502 
L 548.735121 107.979558 
L 550.559843 107.979558 
L 551.472204 107.025615 
L 552.384565 107.025615 
L 553.296926 105.117729 
L 559.683453 105.117729 
L 560.595814 102.255899 
L 561.508175 100.348013 
L 562.420536 100.348013 
L 566.06998 96.53224 
L 566.982341 94.624353 
L 568.807063 94.624353 
L 569.719424 92.716467 
L 577.018313 92.716467 
L 578.843035 90.80858 
L 579.755396 88.900694 
L 580.667757 87.946751 
L 583.40484 87.946751 
L 584.317201 86.038864 
L 585.229562 85.084921 
L 586.141923 85.084921 
L 587.054284 82.223091 
L 587.966645 81.269148 
L 592.52845 81.269148 
L 593.440811 79.361262 
L 594.353172 79.361262 
L 595.265533 78.407319 
L 598.002616 78.407319 
L 598.914977 76.499432 
L 600.739699 76.499432 
L 601.65206 75.545489 
L 602.564421 75.545489 
L 603.476782 74.591546 
L 604.389143 71.729716 
L 606.213865 71.729716 
L 608.038587 69.82183 
L 618.98692 69.82183 
L 619.899281 68.867886 
L 620.811642 68.867886 
L 622.636364 66.96 
L 622.636364 66.96 
" clip-path="url(#p01e09629fb)" style="fill: none; stroke: #e377c2; stroke-width: 1.5; stroke-linecap: square"/>
   </g>
   <g id="line2d_42">
    <path d="M 115.363636 344.557476 
L 116.275997 344.557476 
L 118.100719 342.64959 
L 122.662525 342.64959 
L 123.574886 341.695647 
L 124.487247 341.695647 
L 126.311969 339.78776 
L 128.136691 339.78776 
L 129.049052 338.833817 
L 131.786135 338.833817 
L 132.698496 337.879874 
L 133.610857 337.879874 
L 134.523218 336.925931 
L 135.435579 336.925931 
L 137.260301 335.018044 
L 139.997384 335.018044 
L 140.909745 334.064101 
L 142.734467 334.064101 
L 144.559189 332.156215 
L 146.383911 332.156215 
L 148.208633 330.248328 
L 149.120994 330.248328 
L 150.033355 329.294385 
L 150.945716 326.432555 
L 154.59516 326.432555 
L 158.244604 322.616782 
L 159.156965 322.616782 
L 160.981687 320.708896 
L 161.894048 320.708896 
L 162.806409 319.754953 
L 163.71877 319.754953 
L 164.631131 318.801009 
L 172.842381 318.801009 
L 173.754742 317.847066 
L 182.878352 317.847066 
L 184.703074 315.93918 
L 187.440157 315.93918 
L 188.352518 314.985237 
L 190.17724 314.985237 
L 192.001962 313.07735 
L 193.826684 313.07735 
L 194.739045 311.169464 
L 197.476128 311.169464 
L 198.388489 309.261577 
L 199.30085 308.307634 
L 203.862655 308.307634 
L 204.775016 307.353691 
L 205.687377 307.353691 
L 207.512099 305.445804 
L 212.073905 305.445804 
L 212.986266 304.491861 
L 213.898627 304.491861 
L 214.810988 303.537918 
L 220.285154 303.537918 
L 221.197515 302.583975 
L 223.934598 302.583975 
L 224.846959 301.630032 
L 225.75932 301.630032 
L 226.671681 298.768202 
L 227.584042 298.768202 
L 228.496403 296.860315 
L 229.408764 295.906372 
L 230.321125 295.906372 
L 232.145847 293.998486 
L 233.970569 293.998486 
L 234.88293 293.044543 
L 236.707652 293.044543 
L 237.620013 292.090599 
L 238.532374 292.090599 
L 239.444735 290.182713 
L 240.357096 290.182713 
L 241.269457 289.22877 
L 243.094179 289.22877 
L 244.918901 287.320883 
L 245.831262 287.320883 
L 246.743623 285.412997 
L 247.655984 284.459054 
L 254.042511 284.459054 
L 254.954872 282.551167 
L 257.691956 282.551167 
L 258.604317 281.597224 
L 259.516678 281.597224 
L 260.429039 280.643281 
L 263.166122 280.643281 
L 264.078483 279.689338 
L 268.640288 279.689338 
L 269.552649 278.735394 
L 271.377371 278.735394 
L 272.289732 277.781451 
L 276.851537 277.781451 
L 277.763898 276.827508 
L 285.975147 276.827508 
L 287.799869 274.919621 
L 288.71223 274.919621 
L 289.624591 273.965678 
L 290.536952 273.965678 
L 291.449313 273.011735 
L 292.361674 273.011735 
L 293.274035 272.057792 
L 295.098757 272.057792 
L 296.011118 271.103849 
L 296.923479 271.103849 
L 298.748201 269.195962 
L 301.485285 269.195962 
L 302.397646 268.242019 
L 305.134729 268.242019 
L 306.04709 267.288076 
L 312.433617 267.288076 
L 313.345978 266.334132 
L 314.258339 266.334132 
L 315.1707 265.380189 
L 318.820144 265.380189 
L 319.732505 263.472303 
L 325.206671 263.472303 
L 326.119032 262.51836 
L 327.031393 262.51836 
L 327.943754 260.610473 
L 332.505559 260.610473 
L 333.41792 259.65653 
L 338.892086 259.65653 
L 339.804447 258.702587 
L 351.665141 258.702587 
L 352.577502 257.748644 
L 366.262917 257.748644 
L 367.175278 256.7947 
L 371.737083 256.7947 
L 372.649444 255.840757 
L 373.561805 255.840757 
L 374.474166 254.886814 
L 375.386527 254.886814 
L 376.298888 252.978927 
L 377.211249 252.978927 
L 379.035971 251.071041 
L 385.422498 251.071041 
L 386.334859 250.117098 
L 387.24722 250.117098 
L 388.159581 249.163155 
L 389.071942 249.163155 
L 389.984303 248.209211 
L 394.546109 248.209211 
L 395.45847 247.255268 
L 403.669719 247.255268 
L 404.58208 246.301325 
L 409.143885 246.301325 
L 410.056246 245.347382 
L 414.618051 245.347382 
L 415.530412 244.393438 
L 417.355134 244.393438 
L 420.092217 241.531609 
L 421.916939 241.531609 
L 422.8293 239.623722 
L 427.391105 239.623722 
L 429.215827 237.715836 
L 431.040549 237.715836 
L 431.95291 236.761893 
L 432.865271 236.761893 
L 434.689993 234.854006 
L 441.076521 234.854006 
L 441.988882 233.900063 
L 443.813604 233.900063 
L 444.725965 232.94612 
L 452.024853 232.94612 
L 453.849575 231.038233 
L 456.586658 231.038233 
L 457.499019 230.08429 
L 458.41138 230.08429 
L 459.323741 227.222461 
L 460.236102 226.268517 
L 463.885546 226.268517 
L 464.797907 224.360631 
L 467.53499 224.360631 
L 468.447351 223.406688 
L 477.570961 223.406688 
L 478.483322 222.452744 
L 487.606933 222.452744 
L 489.431655 220.544858 
L 495.818182 220.544858 
L 496.730543 219.590915 
L 512.24068 219.590915 
L 515.890124 215.775142 
L 519.539568 215.775142 
L 520.451929 214.821199 
L 527.750818 214.821199 
L 528.663179 213.867256 
L 531.400262 213.867256 
L 532.312623 212.913312 
L 533.224984 212.913312 
L 534.137345 211.959369 
L 539.611511 211.959369 
L 541.436233 210.051483 
L 543.260955 210.051483 
L 544.173316 209.097539 
L 548.735121 209.097539 
L 549.647482 208.143596 
L 550.559843 208.143596 
L 551.472204 206.23571 
L 561.508175 206.23571 
L 563.332897 204.327823 
L 566.06998 204.327823 
L 566.982341 203.37388 
L 571.544147 203.37388 
L 572.456508 202.419937 
L 578.843035 202.419937 
L 579.755396 201.465994 
L 594.353172 201.465994 
L 595.265533 200.51205 
L 596.177894 200.51205 
L 597.090255 198.604164 
L 622.636364 198.604164 
L 622.636364 198.604164 
" clip-path="url(#p01e09629fb)" style="fill: none; stroke: #7f7f7f; stroke-width: 1.5; stroke-linecap: square"/>
   </g>
   <g id="line2d_43">
    <path d="M 115.363636 350.281136 
L 119.01308 350.281136 
L 119.925441 349.327192 
L 129.049052 349.327192 
L 129.961413 348.373249 
L 134.523218 348.373249 
L 135.435579 347.419306 
L 144.559189 347.419306 
L 145.47155 346.465363 
L 154.59516 346.465363 
L 155.507521 345.51142 
L 204.775016 345.51142 
L 205.687377 344.557476 
L 210.249182 344.557476 
L 211.161543 343.603533 
L 217.548071 343.603533 
L 218.460432 342.64959 
L 219.372793 342.64959 
L 220.285154 339.78776 
L 221.197515 338.833817 
L 223.022237 338.833817 
L 223.934598 337.879874 
L 233.058208 337.879874 
L 233.970569 336.925931 
L 242.181818 336.925931 
L 243.094179 335.971987 
L 253.13015 335.971987 
L 254.042511 335.018044 
L 264.990844 335.018044 
L 265.903205 334.064101 
L 270.46501 334.064101 
L 271.377371 333.110158 
L 300.572923 333.110158 
L 301.485285 332.156215 
L 303.310007 332.156215 
L 304.222368 331.202271 
L 311.521256 331.202271 
L 312.433617 330.248328 
L 337.979725 330.248328 
L 340.716808 327.386498 
L 367.175278 327.386498 
L 368.087639 326.432555 
L 369 326.432555 
L 370.824722 324.524669 
L 372.649444 324.524669 
L 373.561805 323.570726 
L 420.092217 323.570726 
L 421.004578 322.616782 
L 473.921517 322.616782 
L 474.833878 321.662839 
L 513.153041 321.662839 
L 514.065402 320.708896 
L 518.627207 320.708896 
L 519.539568 319.754953 
L 532.312623 319.754953 
L 533.224984 318.801009 
L 551.472204 318.801009 
L 552.384565 317.847066 
L 622.636364 317.847066 
L 622.636364 317.847066 
" clip-path="url(#p01e09629fb)" style="fill: none; stroke: #bcbd22; stroke-width: 1.5; stroke-linecap: square"/>
   </g>
   <g id="line2d_44">
    <path d="M 115.363636 367.452114 
L 160.981687 367.452114 
L 161.894048 366.49817 
L 219.372793 366.49817 
L 220.285154 365.544227 
L 313.345978 365.544227 
L 314.258339 364.590284 
L 315.1707 365.544227 
L 425.566383 365.544227 
L 426.478744 364.590284 
L 432.865271 364.590284 
L 433.777632 363.636341 
L 456.586658 363.636341 
L 457.499019 362.682397 
L 622.636364 362.682397 
L 622.636364 362.682397 
" clip-path="url(#p01e09629fb)" style="fill: none; stroke: #17becf; stroke-width: 1.5; stroke-linecap: square"/>
   </g>
   <g id="line2d_45">
    <path d="M 115.363636 369.36 
L 116.275997 368.406057 
L 118.100719 368.406057 
L 119.01308 367.452114 
L 125.399608 367.452114 
L 126.311969 366.49817 
L 129.049052 366.49817 
L 129.961413 365.544227 
L 130.873774 365.544227 
L 132.698496 363.636341 
L 137.260301 363.636341 
L 139.085023 361.728454 
L 139.997384 361.728454 
L 140.909745 360.774511 
L 147.296272 360.774511 
L 148.208633 359.820568 
L 149.120994 357.912681 
L 150.945716 357.912681 
L 151.858077 356.958738 
L 152.770438 356.958738 
L 153.682799 356.004795 
L 154.59516 356.004795 
L 155.507521 355.050852 
L 156.419882 355.050852 
L 158.244604 353.142965 
L 163.71877 353.142965 
L 165.543492 351.235079 
L 168.280576 351.235079 
L 169.192937 350.281136 
L 170.105298 350.281136 
L 171.017659 348.373249 
L 173.754742 348.373249 
L 175.579464 344.557476 
L 181.05363 344.557476 
L 181.965991 342.64959 
L 182.878352 341.695647 
L 185.615435 341.695647 
L 186.527796 340.741703 
L 187.440157 338.833817 
L 189.264879 338.833817 
L 190.17724 337.879874 
L 202.950294 337.879874 
L 203.862655 335.971987 
L 210.249182 329.294385 
L 219.372793 329.294385 
L 222.109876 326.432555 
L 223.934598 326.432555 
L 224.846959 324.524669 
L 226.671681 324.524669 
L 227.584042 323.570726 
L 230.321125 323.570726 
L 231.233486 322.616782 
L 232.145847 322.616782 
L 233.058208 321.662839 
L 233.970569 321.662839 
L 235.795291 319.754953 
L 247.655984 319.754953 
L 249.480706 317.847066 
L 256.779595 317.847066 
L 257.691956 316.893123 
L 260.429039 316.893123 
L 262.253761 314.985237 
L 264.990844 314.985237 
L 265.903205 314.031293 
L 267.727927 314.031293 
L 268.640288 313.07735 
L 273.202093 313.07735 
L 274.114454 312.123407 
L 275.026815 312.123407 
L 275.939176 310.215521 
L 276.851537 310.215521 
L 277.763898 309.261577 
L 282.325703 309.261577 
L 283.238064 308.307634 
L 285.062786 308.307634 
L 285.975147 307.353691 
L 286.887508 307.353691 
L 288.71223 305.445804 
L 295.098757 305.445804 
L 296.011118 304.491861 
L 296.923479 304.491861 
L 297.83584 303.537918 
L 302.397646 303.537918 
L 303.310007 301.630032 
L 304.222368 300.676088 
L 308.784173 300.676088 
L 309.696534 299.722145 
L 313.345978 299.722145 
L 314.258339 297.814259 
L 317.907783 297.814259 
L 319.732505 295.906372 
L 322.469588 295.906372 
L 323.381949 294.952429 
L 334.330281 294.952429 
L 335.242642 293.044543 
L 336.155003 292.090599 
L 343.453891 292.090599 
L 344.366252 291.136656 
L 360.788751 291.136656 
L 361.701112 290.182713 
L 363.525834 290.182713 
L 364.438195 289.22877 
L 367.175278 289.22877 
L 368.087639 288.274826 
L 379.948332 288.274826 
L 380.860693 286.36694 
L 382.685415 286.36694 
L 383.597776 285.412997 
L 384.510137 285.412997 
L 385.422498 284.459054 
L 389.071942 284.459054 
L 389.984303 283.50511 
L 396.370831 283.50511 
L 397.283192 281.597224 
L 398.195553 281.597224 
L 399.107914 280.643281 
L 403.669719 280.643281 
L 404.58208 279.689338 
L 409.143885 279.689338 
L 410.968607 277.781451 
L 412.793329 277.781451 
L 413.70569 276.827508 
L 415.530412 276.827508 
L 416.442773 275.873565 
L 417.355134 275.873565 
L 418.267495 274.919621 
L 424.654022 274.919621 
L 425.566383 273.965678 
L 446.550687 273.965678 
L 447.463048 273.011735 
L 452.024853 273.011735 
L 452.937214 272.057792 
L 462.973185 272.057792 
L 463.885546 271.103849 
L 504.029431 271.103849 
L 504.941792 270.149905 
L 510.415958 270.149905 
L 511.328319 269.195962 
L 512.24068 269.195962 
L 513.153041 268.242019 
L 525.013734 268.242019 
L 525.926095 267.288076 
L 543.260955 267.288076 
L 544.173316 266.334132 
L 547.82276 266.334132 
L 548.735121 265.380189 
L 553.296926 265.380189 
L 554.209287 264.426246 
L 559.683453 264.426246 
L 560.595814 263.472303 
L 566.06998 263.472303 
L 566.982341 262.51836 
L 572.456508 262.51836 
L 573.368869 259.65653 
L 574.28123 258.702587 
L 580.667757 258.702587 
L 581.580118 257.748644 
L 586.141923 257.748644 
L 587.054284 256.7947 
L 591.616089 256.7947 
L 592.52845 255.840757 
L 598.002616 255.840757 
L 598.914977 254.886814 
L 613.512753 254.886814 
L 614.425114 252.978927 
L 615.337475 252.978927 
L 616.249837 252.024984 
L 617.162198 252.024984 
L 618.074559 251.071041 
L 618.98692 251.071041 
L 619.899281 250.117098 
L 622.636364 250.117098 
L 622.636364 250.117098 
" clip-path="url(#p01e09629fb)" style="fill: none; stroke: #1f77b4; stroke-width: 1.5; stroke-linecap: square"/>
   </g>
   <g id="line2d_46">
    <path d="M 115.363636 334.064101 
L 121.750164 334.064101 
L 122.662525 333.110158 
L 125.399608 333.110158 
L 126.311969 332.156215 
L 129.961413 332.156215 
L 130.873774 331.202271 
L 133.610857 331.202271 
L 134.523218 330.248328 
L 135.435579 330.248328 
L 136.34794 329.294385 
L 139.085023 329.294385 
L 139.997384 328.340442 
L 141.822106 328.340442 
L 142.734467 327.386498 
L 143.646828 327.386498 
L 145.47155 325.478612 
L 150.945716 325.478612 
L 151.858077 324.524669 
L 152.770438 324.524669 
L 153.682799 323.570726 
L 154.59516 323.570726 
L 155.507521 321.662839 
L 156.419882 318.801009 
L 157.332243 317.847066 
L 160.981687 317.847066 
L 163.71877 314.985237 
L 166.455854 314.985237 
L 168.280576 313.07735 
L 178.316547 313.07735 
L 179.228908 310.215521 
L 180.141269 310.215521 
L 181.965991 306.399748 
L 183.790713 304.491861 
L 184.703074 304.491861 
L 185.615435 302.583975 
L 192.914323 302.583975 
L 193.826684 300.676088 
L 196.563767 300.676088 
L 197.476128 299.722145 
L 203.862655 299.722145 
L 204.775016 298.768202 
L 215.723349 298.768202 
L 216.63571 297.814259 
L 217.548071 297.814259 
L 218.460432 296.860315 
L 221.197515 296.860315 
L 222.109876 295.906372 
L 233.058208 295.906372 
L 233.970569 294.952429 
L 235.795291 294.952429 
L 237.620013 291.136656 
L 239.444735 291.136656 
L 241.269457 289.22877 
L 243.094179 289.22877 
L 244.00654 288.274826 
L 246.743623 288.274826 
L 247.655984 287.320883 
L 258.604317 287.320883 
L 259.516678 286.36694 
L 273.202093 286.36694 
L 274.114454 285.412997 
L 282.325703 285.412997 
L 283.238064 284.459054 
L 285.062786 284.459054 
L 285.975147 283.50511 
L 288.71223 283.50511 
L 290.536952 281.597224 
L 291.449313 281.597224 
L 292.361674 280.643281 
L 296.011118 280.643281 
L 297.83584 278.735394 
L 302.397646 278.735394 
L 303.310007 277.781451 
L 306.04709 277.781451 
L 306.959451 276.827508 
L 311.521256 276.827508 
L 312.433617 275.873565 
L 316.995422 275.873565 
L 317.907783 274.919621 
L 334.330281 274.919621 
L 335.242642 273.965678 
L 336.155003 273.965678 
L 337.067364 273.011735 
L 346.190975 273.011735 
L 347.103336 271.103849 
L 348.015697 271.103849 
L 348.928058 270.149905 
L 358.051668 270.149905 
L 358.964029 269.195962 
L 362.613473 269.195962 
L 363.525834 268.242019 
L 364.438195 268.242019 
L 365.350556 267.288076 
L 373.561805 267.288076 
L 374.474166 266.334132 
L 392.721387 266.334132 
L 393.633748 263.472303 
L 400.020275 263.472303 
L 400.932636 262.51836 
L 402.757358 262.51836 
L 403.669719 261.564416 
L 414.618051 261.564416 
L 415.530412 260.610473 
L 428.303466 260.610473 
L 429.215827 259.65653 
L 431.95291 259.65653 
L 432.865271 258.702587 
L 440.16416 258.702587 
L 441.076521 256.7947 
L 455.674297 256.7947 
L 456.586658 255.840757 
L 461.148463 255.840757 
L 462.060824 254.886814 
L 475.746239 254.886814 
L 476.6586 253.932871 
L 478.483322 253.932871 
L 479.395683 252.978927 
L 488.519294 252.978927 
L 489.431655 252.024984 
L 499.467626 252.024984 
L 500.379987 251.071041 
L 512.24068 251.071041 
L 513.153041 250.117098 
L 524.101373 250.117098 
L 525.013734 249.163155 
L 531.400262 249.163155 
L 532.312623 248.209211 
L 541.436233 248.209211 
L 544.173316 245.347382 
L 545.998038 245.347382 
L 546.910399 244.393438 
L 547.82276 244.393438 
L 549.647482 242.485552 
L 553.296926 242.485552 
L 554.209287 241.531609 
L 556.034009 241.531609 
L 556.94637 239.623722 
L 557.858731 238.669779 
L 568.807063 238.669779 
L 569.719424 237.715836 
L 577.930674 237.715836 
L 578.843035 236.761893 
L 587.966645 236.761893 
L 588.879006 235.80795 
L 593.440811 235.80795 
L 594.353172 233.900063 
L 616.249837 233.900063 
L 617.162198 232.94612 
L 622.636364 232.94612 
L 622.636364 232.94612 
" clip-path="url(#p01e09629fb)" style="fill: none; stroke: #ff7f0e; stroke-width: 1.5; stroke-linecap: square"/>
   </g>
   <g id="patch_3">
    <path d="M 90 384.48 
L 90 51.84 
" style="fill: none; stroke: #000000; stroke-width: 0.8; stroke-linejoin: miter; stroke-linecap: square"/>
   </g>
   <g id="patch_4">
    <path d="M 648 384.48 
L 648 51.84 
" style="fill: none; stroke: #000000; stroke-width: 0.8; stroke-linejoin: miter; stroke-linecap: square"/>
   </g>
   <g id="patch_5">
    <path d="M 90 384.48 
L 648 384.48 
" style="fill: none; stroke: #000000; stroke-width: 0.8; stroke-linejoin: miter; stroke-linecap: square"/>
   </g>
   <g id="patch_6">
    <path d="M 90 51.84 
L 648 51.84 
" style="fill: none; stroke: #000000; stroke-width: 0.8; stroke-linejoin: miter; stroke-linecap: square"/>
   </g>
   <g id="text_20">
    <!-- Time Series of Votes for Each Keyword -->
    <g transform="translate(253.716563 45.84) scale(0.12 -0.12)">
     <defs>
      <path id="DejaVuSans-53" d="M 3425 4513 
L 3425 3897 
Q 3066 4069 2747 4153 
Q 2428 4238 2131 4238 
Q 1616 4238 1336 4038 
Q 1056 3838 1056 3469 
Q 1056 3159 1242 3001 
Q 1428 2844 1947 2747 
L 2328 2669 
Q 3034 2534 3370 2195 
Q 3706 1856 3706 1288 
Q 3706 609 3251 259 
Q 2797 -91 1919 -91 
Q 1588 -91 1214 -16 
Q 841 59 441 206 
L 441 856 
Q 825 641 1194 531 
Q 1563 422 1919 422 
Q 2459 422 2753 634 
Q 3047 847 3047 1241 
Q 3047 1584 2836 1778 
Q 2625 1972 2144 2069 
L 1759 2144 
Q 1053 2284 737 2584 
Q 422 2884 422 3419 
Q 422 4038 858 4394 
Q 1294 4750 2059 4750 
Q 2388 4750 2728 4690 
Q 3069 4631 3425 4513 
z
" transform="scale(0.015625)"/>
      <path id="DejaVuSans-72" d="M 2631 2963 
Q 2534 3019 2420 3045 
Q 2306 3072 2169 3072 
Q 1681 3072 1420 2755 
Q 1159 2438 1159 1844 
L 1159 0 
L 581 0 
L 581 3500 
L 1159 3500 
L 1159 2956 
Q 1341 3275 1631 3429 
Q 1922 3584 2338 3584 
Q 2397 3584 2469 3576 
Q 2541 3569 2628 3553 
L 2631 2963 
z
" transform="scale(0.015625)"/>
      <path id="DejaVuSans-66" d="M 2375 4863 
L 2375 4384 
L 1825 4384 
Q 1516 4384 1395 4259 
Q 1275 4134 1275 3809 
L 1275 3500 
L 2222 3500 
L 2222 3053 
L 1275 3053 
L 1275 0 
L 697 0 
L 697 3053 
L 147 3053 
L 147 3500 
L 697 3500 
L 697 3744 
Q 697 4328 969 4595 
Q 1241 4863 1831 4863 
L 2375 4863 
z
" transform="scale(0.015625)"/>
      <path id="DejaVuSans-45" d="M 628 4666 
L 3578 4666 
L 3578 4134 
L 1259 4134 
L 1259 2753 
L 3481 2753 
L 3481 2222 
L 1259 2222 
L 1259 531 
L 3634 531 
L 3634 0 
L 628 0 
L 628 4666 
z
" transform="scale(0.015625)"/>
      <path id="DejaVuSans-63" d="M 3122 3366 
L 3122 2828 
Q 2878 2963 2633 3030 
Q 2388 3097 2138 3097 
Q 1578 3097 1268 2742 
Q 959 2388 959 1747 
Q 959 1106 1268 751 
Q 1578 397 2138 397 
Q 2388 397 2633 464 
Q 2878 531 3122 666 
L 3122 134 
Q 2881 22 2623 -34 
Q 2366 -91 2075 -91 
Q 1284 -91 818 406 
Q 353 903 353 1747 
Q 353 2603 823 3093 
Q 1294 3584 2113 3584 
Q 2378 3584 2631 3529 
Q 2884 3475 3122 3366 
z
" transform="scale(0.015625)"/>
      <path id="DejaVuSans-68" d="M 3513 2113 
L 3513 0 
L 2938 0 
L 2938 2094 
Q 2938 2591 2744 2837 
Q 2550 3084 2163 3084 
Q 1697 3084 1428 2787 
Q 1159 2491 1159 1978 
L 1159 0 
L 581 0 
L 581 4863 
L 1159 4863 
L 1159 2956 
Q 1366 3272 1645 3428 
Q 1925 3584 2291 3584 
Q 2894 3584 3203 3211 
Q 3513 2838 3513 2113 
z
" transform="scale(0.015625)"/>
      <path id="DejaVuSans-4b" d="M 628 4666 
L 1259 4666 
L 1259 2694 
L 3353 4666 
L 4166 4666 
L 1850 2491 
L 4331 0 
L 3500 0 
L 1259 2247 
L 1259 0 
L 628 0 
L 628 4666 
z
" transform="scale(0.015625)"/>
      <path id="DejaVuSans-79" d="M 2059 -325 
Q 1816 -950 1584 -1140 
Q 1353 -1331 966 -1331 
L 506 -1331 
L 506 -850 
L 844 -850 
Q 1081 -850 1212 -737 
Q 1344 -625 1503 -206 
L 1606 56 
L 191 3500 
L 800 3500 
L 1894 763 
L 2988 3500 
L 3597 3500 
L 2059 -325 
z
" transform="scale(0.015625)"/>
      <path id="DejaVuSans-77" d="M 269 3500 
L 844 3500 
L 1563 769 
L 2278 3500 
L 2956 3500 
L 3675 769 
L 4391 3500 
L 4966 3500 
L 4050 0 
L 3372 0 
L 2619 2869 
L 1863 0 
L 1184 0 
L 269 3500 
z
" transform="scale(0.015625)"/>
     </defs>
     <use xlink:href="#DejaVuSans-54"/>
     <use xlink:href="#DejaVuSans-69" transform="translate(57.958984 0)"/>
     <use xlink:href="#DejaVuSans-6d" transform="translate(85.742188 0)"/>
     <use xlink:href="#DejaVuSans-65" transform="translate(183.154297 0)"/>
     <use xlink:href="#DejaVuSans-20" transform="translate(244.677734 0)"/>
     <use xlink:href="#DejaVuSans-53" transform="translate(276.464844 0)"/>
     <use xlink:href="#DejaVuSans-65" transform="translate(339.941406 0)"/>
     <use xlink:href="#DejaVuSans-72" transform="translate(401.464844 0)"/>
     <use xlink:href="#DejaVuSans-69" transform="translate(442.578125 0)"/>
     <use xlink:href="#DejaVuSans-65" transform="translate(470.361328 0)"/>
     <use xlink:href="#DejaVuSans-73" transform="translate(531.884766 0)"/>
     <use xlink:href="#DejaVuSans-20" transform="translate(583.984375 0)"/>
     <use xlink:href="#DejaVuSans-6f" transform="translate(615.771484 0)"/>
     <use xlink:href="#DejaVuSans-66" transform="translate(676.953125 0)"/>
     <use xlink:href="#DejaVuSans-20" transform="translate(712.158203 0)"/>
     <use xlink:href="#DejaVuSans-56" transform="translate(743.945312 0)"/>
     <use xlink:href="#DejaVuSans-6f" transform="translate(804.603516 0)"/>
     <use xlink:href="#DejaVuSans-74" transform="translate(865.785156 0)"/>
     <use xlink:href="#DejaVuSans-65" transform="translate(904.994141 0)"/>
     <use xlink:href="#DejaVuSans-73" transform="translate(966.517578 0)"/>
     <use xlink:href="#DejaVuSans-20" transform="translate(1018.617188 0)"/>
     <use xlink:href="#DejaVuSans-66" transform="translate(1050.404297 0)"/>
     <use xlink:href="#DejaVuSans-6f" transform="translate(1085.609375 0)"/>
     <use xlink:href="#DejaVuSans-72" transform="translate(1146.791016 0)"/>
     <use xlink:href="#DejaVuSans-20" transform="translate(1187.904297 0)"/>
     <use xlink:href="#DejaVuSans-45" transform="translate(1219.691406 0)"/>
     <use xlink:href="#DejaVuSans-61" transform="translate(1282.875 0)"/>
     <use xlink:href="#DejaVuSans-63" transform="translate(1344.154297 0)"/>
     <use xlink:href="#DejaVuSans-68" transform="translate(1399.134766 0)"/>
     <use xlink:href="#DejaVuSans-20" transform="translate(1462.513672 0)"/>
     <use xlink:href="#DejaVuSans-4b" transform="translate(1494.300781 0)"/>
     <use xlink:href="#DejaVuSans-65" transform="translate(1554.876953 0)"/>
     <use xlink:href="#DejaVuSans-79" transform="translate(1616.400391 0)"/>
     <use xlink:href="#DejaVuSans-77" transform="translate(1675.580078 0)"/>
     <use xlink:href="#DejaVuSans-6f" transform="translate(1757.367188 0)"/>
     <use xlink:href="#DejaVuSans-72" transform="translate(1818.548828 0)"/>
     <use xlink:href="#DejaVuSans-64" transform="translate(1857.912109 0)"/>
    </g>
   </g>
   <g id="legend_1">
    <g id="patch_7">
     <path d="M 97 235.9775 
L 149.245313 235.9775 
Q 151.245313 235.9775 151.245313 233.9775 
L 151.245313 58.84 
Q 151.245313 56.84 149.245313 56.84 
L 97 56.84 
Q 95 56.84 95 58.84 
L 95 233.9775 
Q 95 235.9775 97 235.9775 
z
" style="fill: #ffffff; opacity: 0.8; stroke: #cccccc; stroke-linejoin: miter"/>
    </g>
    <g id="line2d_47">
     <path d="M 99 64.938437 
L 109 64.938437 
L 119 64.938437 
" style="fill: none; stroke: #1f77b4; stroke-width: 1.5; stroke-linecap: square"/>
    </g>
    <g id="text_21">
     <!-- H01 -->
     <g transform="translate(127 68.438437) scale(0.1 -0.1)">
      <defs>
       <path id="DejaVuSans-48" d="M 628 4666 
L 1259 4666 
L 1259 2753 
L 3553 2753 
L 3553 4666 
L 4184 4666 
L 4184 0 
L 3553 0 
L 3553 2222 
L 1259 2222 
L 1259 0 
L 628 0 
L 628 4666 
z
" transform="scale(0.015625)"/>
      </defs>
      <use xlink:href="#DejaVuSans-48"/>
      <use xlink:href="#DejaVuSans-30" transform="translate(75.195312 0)"/>
      <use xlink:href="#DejaVuSans-31" transform="translate(138.818359 0)"/>
     </g>
    </g>
    <g id="line2d_48">
     <path d="M 99 79.616562 
L 109 79.616562 
L 119 79.616562 
" style="fill: none; stroke: #ff7f0e; stroke-width: 1.5; stroke-linecap: square"/>
    </g>
    <g id="text_22">
     <!-- H02 -->
     <g transform="translate(127 83.116562) scale(0.1 -0.1)">
      <use xlink:href="#DejaVuSans-48"/>
      <use xlink:href="#DejaVuSans-30" transform="translate(75.195312 0)"/>
      <use xlink:href="#DejaVuSans-32" transform="translate(138.818359 0)"/>
     </g>
    </g>
    <g id="line2d_49">
     <path d="M 99 94.294688 
L 109 94.294688 
L 119 94.294688 
" style="fill: none; stroke: #2ca02c; stroke-width: 1.5; stroke-linecap: square"/>
    </g>
    <g id="text_23">
     <!-- H03 -->
     <g transform="translate(127 97.794688) scale(0.1 -0.1)">
      <use xlink:href="#DejaVuSans-48"/>
      <use xlink:href="#DejaVuSans-30" transform="translate(75.195312 0)"/>
      <use xlink:href="#DejaVuSans-33" transform="translate(138.818359 0)"/>
     </g>
    </g>
    <g id="line2d_50">
     <path d="M 99 108.972812 
L 109 108.972812 
L 119 108.972812 
" style="fill: none; stroke: #d62728; stroke-width: 1.5; stroke-linecap: square"/>
    </g>
    <g id="text_24">
     <!-- H04 -->
     <g transform="translate(127 112.472812) scale(0.1 -0.1)">
      <use xlink:href="#DejaVuSans-48"/>
      <use xlink:href="#DejaVuSans-30" transform="translate(75.195312 0)"/>
      <use xlink:href="#DejaVuSans-34" transform="translate(138.818359 0)"/>
     </g>
    </g>
    <g id="line2d_51">
     <path d="M 99 123.650937 
L 109 123.650937 
L 119 123.650937 
" style="fill: none; stroke: #9467bd; stroke-width: 1.5; stroke-linecap: square"/>
    </g>
    <g id="text_25">
     <!-- H05 -->
     <g transform="translate(127 127.150937) scale(0.1 -0.1)">
      <use xlink:href="#DejaVuSans-48"/>
      <use xlink:href="#DejaVuSans-30" transform="translate(75.195312 0)"/>
      <use xlink:href="#DejaVuSans-35" transform="translate(138.818359 0)"/>
     </g>
    </g>
    <g id="line2d_52">
     <path d="M 99 138.329062 
L 109 138.329062 
L 119 138.329062 
" style="fill: none; stroke: #8c564b; stroke-width: 1.5; stroke-linecap: square"/>
    </g>
    <g id="text_26">
     <!-- H06 -->
     <g transform="translate(127 141.829062) scale(0.1 -0.1)">
      <use xlink:href="#DejaVuSans-48"/>
      <use xlink:href="#DejaVuSans-30" transform="translate(75.195312 0)"/>
      <use xlink:href="#DejaVuSans-36" transform="translate(138.818359 0)"/>
     </g>
    </g>
    <g id="line2d_53">
     <path d="M 99 153.007187 
L 109 153.007187 
L 119 153.007187 
" style="fill: none; stroke: #e377c2; stroke-width: 1.5; stroke-linecap: square"/>
    </g>
    <g id="text_27">
     <!-- H07 -->
     <g transform="translate(127 156.507187) scale(0.1 -0.1)">
      <use xlink:href="#DejaVuSans-48"/>
      <use xlink:href="#DejaVuSans-30" transform="translate(75.195312 0)"/>
      <use xlink:href="#DejaVuSans-37" transform="translate(138.818359 0)"/>
     </g>
    </g>
    <g id="line2d_54">
     <path d="M 99 167.685312 
L 109 167.685312 
L 119 167.685312 
" style="fill: none; stroke: #7f7f7f; stroke-width: 1.5; stroke-linecap: square"/>
    </g>
    <g id="text_28">
     <!-- H08 -->
     <g transform="translate(127 171.185312) scale(0.1 -0.1)">
      <use xlink:href="#DejaVuSans-48"/>
      <use xlink:href="#DejaVuSans-30" transform="translate(75.195312 0)"/>
      <use xlink:href="#DejaVuSans-38" transform="translate(138.818359 0)"/>
     </g>
    </g>
    <g id="line2d_55">
     <path d="M 99 182.363437 
L 109 182.363437 
L 119 182.363437 
" style="fill: none; stroke: #bcbd22; stroke-width: 1.5; stroke-linecap: square"/>
    </g>
    <g id="text_29">
     <!-- H09 -->
     <g transform="translate(127 185.863437) scale(0.1 -0.1)">
      <use xlink:href="#DejaVuSans-48"/>
      <use xlink:href="#DejaVuSans-30" transform="translate(75.195312 0)"/>
      <use xlink:href="#DejaVuSans-39" transform="translate(138.818359 0)"/>
     </g>
    </g>
    <g id="line2d_56">
     <path d="M 99 197.041562 
L 109 197.041562 
L 119 197.041562 
" style="fill: none; stroke: #17becf; stroke-width: 1.5; stroke-linecap: square"/>
    </g>
    <g id="text_30">
     <!-- H10 -->
     <g transform="translate(127 200.541562) scale(0.1 -0.1)">
      <use xlink:href="#DejaVuSans-48"/>
      <use xlink:href="#DejaVuSans-31" transform="translate(75.195312 0)"/>
      <use xlink:href="#DejaVuSans-30" transform="translate(138.818359 0)"/>
     </g>
    </g>
    <g id="line2d_57">
     <path d="M 99 211.719687 
L 109 211.719687 
L 119 211.719687 
" style="fill: none; stroke: #1f77b4; stroke-width: 1.5; stroke-linecap: square"/>
    </g>
    <g id="text_31">
     <!-- H11 -->
     <g transform="translate(127 215.219687) scale(0.1 -0.1)">
      <use xlink:href="#DejaVuSans-48"/>
      <use xlink:href="#DejaVuSans-31" transform="translate(75.195312 0)"/>
      <use xlink:href="#DejaVuSans-31" transform="translate(138.818359 0)"/>
     </g>
    </g>
    <g id="line2d_58">
     <path d="M 99 226.397812 
L 109 226.397812 
L 119 226.397812 
" style="fill: none; stroke: #ff7f0e; stroke-width: 1.5; stroke-linecap: square"/>
    </g>
    <g id="text_32">
     <!-- H12 -->
     <g transform="translate(127 229.897812) scale(0.1 -0.1)">
      <use xlink:href="#DejaVuSans-48"/>
      <use xlink:href="#DejaVuSans-31" transform="translate(75.195312 0)"/>
      <use xlink:href="#DejaVuSans-32" transform="translate(138.818359 0)"/>
     </g>
    </g>
   </g>
  </g>
 </g>
 <defs>
  <clipPath id="p01e09629fb">
   <rect x="90" y="51.84" width="558" height="332.64"/>
  </clipPath>
 </defs>
</svg>
