<?xml version="1.0" encoding="utf-8" standalone="no"?>
<!DOCTYPE svg PUBLIC "-//W3C//DTD SVG 1.1//EN"
  "http://www.w3.org/Graphics/SVG/1.1/DTD/svg11.dtd">
<svg xmlns:xlink="http://www.w3.org/1999/xlink" width="720pt" height="432pt" viewBox="0 0 720 432" xmlns="http://www.w3.org/2000/svg" version="1.1">
 <metadata>
  <rdf:RDF xmlns:dc="http://purl.org/dc/elements/1.1/" xmlns:cc="http://creativecommons.org/ns#" xmlns:rdf="http://www.w3.org/1999/02/22-rdf-syntax-ns#">
   <cc:Work>
    <dc:type rdf:resource="http://purl.org/dc/dcmitype/StillImage"/>
    <dc:date>2025-01-14T19:12:43.974554</dc:date>
    <dc:format>image/svg+xml</dc:format>
    <dc:creator>
     <cc:Agent>
      <dc:title>Matplotlib v3.10.0, https://matplotlib.org/</dc:title>
     </cc:Agent>
    </dc:creator>
   </cc:Work>
  </rdf:RDF>
 </metadata>
 <defs>
  <style type="text/css">*{stroke-linejoin: round; stroke-linecap: butt}</style>
 </defs>
 <g id="figure_1">
  <g id="patch_1">
   <path d="M 0 432 
L 720 432 
L 720 0 
L 0 0 
z
" style="fill: #ffffff"/>
  </g>
  <g id="axes_1">
   <g id="patch_2">
    <path d="M 90 384.48 
L 648 384.48 
L 648 51.84 
L 90 51.84 
z
" style="fill: #ffffff"/>
   </g>
   <g id="matplotlib.axis_1">
    <g id="xtick_1">
     <g id="line2d_1">
      <path d="M 155.885422 384.48 
L 155.885422 51.84 
" clip-path="url(#pc21724902a)" style="fill: none; stroke: #b0b0b0; stroke-width: 0.8; stroke-linecap: square"/>
     </g>
     <g id="line2d_2">
      <defs>
       <path id="m93d9786f7f" d="M 0 0 
L 0 3.5 
" style="stroke: #000000; stroke-width: 0.8"/>
      </defs>
      <g>
       <use xlink:href="#m93d9786f7f" x="155.885422" y="384.48" style="stroke: #000000; stroke-width: 0.8"/>
      </g>
     </g>
     <g id="text_1">
      <!-- 01-14 14 -->
      <g transform="translate(133.404954 399.078438) scale(0.1 -0.1)">
       <defs>
        <path id="DejaVuSans-30" d="M 2034 4250 
Q 1547 4250 1301 3770 
Q 1056 3291 1056 2328 
Q 1056 1369 1301 889 
Q 1547 409 2034 409 
Q 2525 409 2770 889 
Q 3016 1369 3016 2328 
Q 3016 3291 2770 3770 
Q 2525 4250 2034 4250 
z
M 2034 4750 
Q 2819 4750 3233 4129 
Q 3647 3509 3647 2328 
Q 3647 1150 3233 529 
Q 2819 -91 2034 -91 
Q 1250 -91 836 529 
Q 422 1150 422 2328 
Q 422 3509 836 4129 
Q 1250 4750 2034 4750 
z
" transform="scale(0.015625)"/>
        <path id="DejaVuSans-31" d="M 794 531 
L 1825 531 
L 1825 4091 
L 703 3866 
L 703 4441 
L 1819 4666 
L 2450 4666 
L 2450 531 
L 3481 531 
L 3481 0 
L 794 0 
L 794 531 
z
" transform="scale(0.015625)"/>
        <path id="DejaVuSans-2d" d="M 313 2009 
L 1997 2009 
L 1997 1497 
L 313 1497 
L 313 2009 
z
" transform="scale(0.015625)"/>
        <path id="DejaVuSans-34" d="M 2419 4116 
L 825 1625 
L 2419 1625 
L 2419 4116 
z
M 2253 4666 
L 3047 4666 
L 3047 1625 
L 3713 1625 
L 3713 1100 
L 3047 1100 
L 3047 0 
L 2419 0 
L 2419 1100 
L 313 1100 
L 313 1709 
L 2253 4666 
z
" transform="scale(0.015625)"/>
        <path id="DejaVuSans-20" transform="scale(0.015625)"/>
       </defs>
       <use xlink:href="#DejaVuSans-30"/>
       <use xlink:href="#DejaVuSans-31" transform="translate(63.623047 0)"/>
       <use xlink:href="#DejaVuSans-2d" transform="translate(127.246094 0)"/>
       <use xlink:href="#DejaVuSans-31" transform="translate(163.330078 0)"/>
       <use xlink:href="#DejaVuSans-34" transform="translate(226.953125 0)"/>
       <use xlink:href="#DejaVuSans-20" transform="translate(290.576172 0)"/>
       <use xlink:href="#DejaVuSans-31" transform="translate(322.363281 0)"/>
       <use xlink:href="#DejaVuSans-34" transform="translate(385.986328 0)"/>
      </g>
     </g>
    </g>
    <g id="xtick_2">
     <g id="line2d_3">
      <path d="M 245.933835 384.48 
L 245.933835 51.84 
" clip-path="url(#pc21724902a)" style="fill: none; stroke: #b0b0b0; stroke-width: 0.8; stroke-linecap: square"/>
     </g>
     <g id="line2d_4">
      <g>
       <use xlink:href="#m93d9786f7f" x="245.933835" y="384.48" style="stroke: #000000; stroke-width: 0.8"/>
      </g>
     </g>
     <g id="text_2">
      <!-- 01-14 15 -->
      <g transform="translate(223.453367 399.078438) scale(0.1 -0.1)">
       <defs>
        <path id="DejaVuSans-35" d="M 691 4666 
L 3169 4666 
L 3169 4134 
L 1269 4134 
L 1269 2991 
Q 1406 3038 1543 3061 
Q 1681 3084 1819 3084 
Q 2600 3084 3056 2656 
Q 3513 2228 3513 1497 
Q 3513 744 3044 326 
Q 2575 -91 1722 -91 
Q 1428 -91 1123 -41 
Q 819 9 494 109 
L 494 744 
Q 775 591 1075 516 
Q 1375 441 1709 441 
Q 2250 441 2565 725 
Q 2881 1009 2881 1497 
Q 2881 1984 2565 2268 
Q 2250 2553 1709 2553 
Q 1456 2553 1204 2497 
Q 953 2441 691 2322 
L 691 4666 
z
" transform="scale(0.015625)"/>
       </defs>
       <use xlink:href="#DejaVuSans-30"/>
       <use xlink:href="#DejaVuSans-31" transform="translate(63.623047 0)"/>
       <use xlink:href="#DejaVuSans-2d" transform="translate(127.246094 0)"/>
       <use xlink:href="#DejaVuSans-31" transform="translate(163.330078 0)"/>
       <use xlink:href="#DejaVuSans-34" transform="translate(226.953125 0)"/>
       <use xlink:href="#DejaVuSans-20" transform="translate(290.576172 0)"/>
       <use xlink:href="#DejaVuSans-31" transform="translate(322.363281 0)"/>
       <use xlink:href="#DejaVuSans-35" transform="translate(385.986328 0)"/>
      </g>
     </g>
    </g>
    <g id="xtick_3">
     <g id="line2d_5">
      <path d="M 335.982249 384.48 
L 335.982249 51.84 
" clip-path="url(#pc21724902a)" style="fill: none; stroke: #b0b0b0; stroke-width: 0.8; stroke-linecap: square"/>
     </g>
     <g id="line2d_6">
      <g>
       <use xlink:href="#m93d9786f7f" x="335.982249" y="384.48" style="stroke: #000000; stroke-width: 0.8"/>
      </g>
     </g>
     <g id="text_3">
      <!-- 01-14 16 -->
      <g transform="translate(313.50178 399.078438) scale(0.1 -0.1)">
       <defs>
        <path id="DejaVuSans-36" d="M 2113 2584 
Q 1688 2584 1439 2293 
Q 1191 2003 1191 1497 
Q 1191 994 1439 701 
Q 1688 409 2113 409 
Q 2538 409 2786 701 
Q 3034 994 3034 1497 
Q 3034 2003 2786 2293 
Q 2538 2584 2113 2584 
z
M 3366 4563 
L 3366 3988 
Q 3128 4100 2886 4159 
Q 2644 4219 2406 4219 
Q 1781 4219 1451 3797 
Q 1122 3375 1075 2522 
Q 1259 2794 1537 2939 
Q 1816 3084 2150 3084 
Q 2853 3084 3261 2657 
Q 3669 2231 3669 1497 
Q 3669 778 3244 343 
Q 2819 -91 2113 -91 
Q 1303 -91 875 529 
Q 447 1150 447 2328 
Q 447 3434 972 4092 
Q 1497 4750 2381 4750 
Q 2619 4750 2861 4703 
Q 3103 4656 3366 4563 
z
" transform="scale(0.015625)"/>
       </defs>
       <use xlink:href="#DejaVuSans-30"/>
       <use xlink:href="#DejaVuSans-31" transform="translate(63.623047 0)"/>
       <use xlink:href="#DejaVuSans-2d" transform="translate(127.246094 0)"/>
       <use xlink:href="#DejaVuSans-31" transform="translate(163.330078 0)"/>
       <use xlink:href="#DejaVuSans-34" transform="translate(226.953125 0)"/>
       <use xlink:href="#DejaVuSans-20" transform="translate(290.576172 0)"/>
       <use xlink:href="#DejaVuSans-31" transform="translate(322.363281 0)"/>
       <use xlink:href="#DejaVuSans-36" transform="translate(385.986328 0)"/>
      </g>
     </g>
    </g>
    <g id="xtick_4">
     <g id="line2d_7">
      <path d="M 426.030662 384.48 
L 426.030662 51.84 
" clip-path="url(#pc21724902a)" style="fill: none; stroke: #b0b0b0; stroke-width: 0.8; stroke-linecap: square"/>
     </g>
     <g id="line2d_8">
      <g>
       <use xlink:href="#m93d9786f7f" x="426.030662" y="384.48" style="stroke: #000000; stroke-width: 0.8"/>
      </g>
     </g>
     <g id="text_4">
      <!-- 01-14 17 -->
      <g transform="translate(403.550193 399.078438) scale(0.1 -0.1)">
       <defs>
        <path id="DejaVuSans-37" d="M 525 4666 
L 3525 4666 
L 3525 4397 
L 1831 0 
L 1172 0 
L 2766 4134 
L 525 4134 
L 525 4666 
z
" transform="scale(0.015625)"/>
       </defs>
       <use xlink:href="#DejaVuSans-30"/>
       <use xlink:href="#DejaVuSans-31" transform="translate(63.623047 0)"/>
       <use xlink:href="#DejaVuSans-2d" transform="translate(127.246094 0)"/>
       <use xlink:href="#DejaVuSans-31" transform="translate(163.330078 0)"/>
       <use xlink:href="#DejaVuSans-34" transform="translate(226.953125 0)"/>
       <use xlink:href="#DejaVuSans-20" transform="translate(290.576172 0)"/>
       <use xlink:href="#DejaVuSans-31" transform="translate(322.363281 0)"/>
       <use xlink:href="#DejaVuSans-37" transform="translate(385.986328 0)"/>
      </g>
     </g>
    </g>
    <g id="xtick_5">
     <g id="line2d_9">
      <path d="M 516.079075 384.48 
L 516.079075 51.84 
" clip-path="url(#pc21724902a)" style="fill: none; stroke: #b0b0b0; stroke-width: 0.8; stroke-linecap: square"/>
     </g>
     <g id="line2d_10">
      <g>
       <use xlink:href="#m93d9786f7f" x="516.079075" y="384.48" style="stroke: #000000; stroke-width: 0.8"/>
      </g>
     </g>
     <g id="text_5">
      <!-- 01-14 18 -->
      <g transform="translate(493.598606 399.078438) scale(0.1 -0.1)">
       <defs>
        <path id="DejaVuSans-38" d="M 2034 2216 
Q 1584 2216 1326 1975 
Q 1069 1734 1069 1313 
Q 1069 891 1326 650 
Q 1584 409 2034 409 
Q 2484 409 2743 651 
Q 3003 894 3003 1313 
Q 3003 1734 2745 1975 
Q 2488 2216 2034 2216 
z
M 1403 2484 
Q 997 2584 770 2862 
Q 544 3141 544 3541 
Q 544 4100 942 4425 
Q 1341 4750 2034 4750 
Q 2731 4750 3128 4425 
Q 3525 4100 3525 3541 
Q 3525 3141 3298 2862 
Q 3072 2584 2669 2484 
Q 3125 2378 3379 2068 
Q 3634 1759 3634 1313 
Q 3634 634 3220 271 
Q 2806 -91 2034 -91 
Q 1263 -91 848 271 
Q 434 634 434 1313 
Q 434 1759 690 2068 
Q 947 2378 1403 2484 
z
M 1172 3481 
Q 1172 3119 1398 2916 
Q 1625 2713 2034 2713 
Q 2441 2713 2670 2916 
Q 2900 3119 2900 3481 
Q 2900 3844 2670 4047 
Q 2441 4250 2034 4250 
Q 1625 4250 1398 4047 
Q 1172 3844 1172 3481 
z
" transform="scale(0.015625)"/>
       </defs>
       <use xlink:href="#DejaVuSans-30"/>
       <use xlink:href="#DejaVuSans-31" transform="translate(63.623047 0)"/>
       <use xlink:href="#DejaVuSans-2d" transform="translate(127.246094 0)"/>
       <use xlink:href="#DejaVuSans-31" transform="translate(163.330078 0)"/>
       <use xlink:href="#DejaVuSans-34" transform="translate(226.953125 0)"/>
       <use xlink:href="#DejaVuSans-20" transform="translate(290.576172 0)"/>
       <use xlink:href="#DejaVuSans-31" transform="translate(322.363281 0)"/>
       <use xlink:href="#DejaVuSans-38" transform="translate(385.986328 0)"/>
      </g>
     </g>
    </g>
    <g id="xtick_6">
     <g id="line2d_11">
      <path d="M 606.127488 384.48 
L 606.127488 51.84 
" clip-path="url(#pc21724902a)" style="fill: none; stroke: #b0b0b0; stroke-width: 0.8; stroke-linecap: square"/>
     </g>
     <g id="line2d_12">
      <g>
       <use xlink:href="#m93d9786f7f" x="606.127488" y="384.48" style="stroke: #000000; stroke-width: 0.8"/>
      </g>
     </g>
     <g id="text_6">
      <!-- 01-14 19 -->
      <g transform="translate(583.647019 399.078438) scale(0.1 -0.1)">
       <defs>
        <path id="DejaVuSans-39" d="M 703 97 
L 703 672 
Q 941 559 1184 500 
Q 1428 441 1663 441 
Q 2288 441 2617 861 
Q 2947 1281 2994 2138 
Q 2813 1869 2534 1725 
Q 2256 1581 1919 1581 
Q 1219 1581 811 2004 
Q 403 2428 403 3163 
Q 403 3881 828 4315 
Q 1253 4750 1959 4750 
Q 2769 4750 3195 4129 
Q 3622 3509 3622 2328 
Q 3622 1225 3098 567 
Q 2575 -91 1691 -91 
Q 1453 -91 1209 -44 
Q 966 3 703 97 
z
M 1959 2075 
Q 2384 2075 2632 2365 
Q 2881 2656 2881 3163 
Q 2881 3666 2632 3958 
Q 2384 4250 1959 4250 
Q 1534 4250 1286 3958 
Q 1038 3666 1038 3163 
Q 1038 2656 1286 2365 
Q 1534 2075 1959 2075 
z
" transform="scale(0.015625)"/>
       </defs>
       <use xlink:href="#DejaVuSans-30"/>
       <use xlink:href="#DejaVuSans-31" transform="translate(63.623047 0)"/>
       <use xlink:href="#DejaVuSans-2d" transform="translate(127.246094 0)"/>
       <use xlink:href="#DejaVuSans-31" transform="translate(163.330078 0)"/>
       <use xlink:href="#DejaVuSans-34" transform="translate(226.953125 0)"/>
       <use xlink:href="#DejaVuSans-20" transform="translate(290.576172 0)"/>
       <use xlink:href="#DejaVuSans-31" transform="translate(322.363281 0)"/>
       <use xlink:href="#DejaVuSans-39" transform="translate(385.986328 0)"/>
      </g>
     </g>
    </g>
    <g id="text_7">
     <!-- Date and Time -->
     <g transform="translate(332.230469 412.756563) scale(0.1 -0.1)">
      <defs>
       <path id="DejaVuSans-44" d="M 1259 4147 
L 1259 519 
L 2022 519 
Q 2988 519 3436 956 
Q 3884 1394 3884 2338 
Q 3884 3275 3436 3711 
Q 2988 4147 2022 4147 
L 1259 4147 
z
M 628 4666 
L 1925 4666 
Q 3281 4666 3915 4102 
Q 4550 3538 4550 2338 
Q 4550 1131 3912 565 
Q 3275 0 1925 0 
L 628 0 
L 628 4666 
z
" transform="scale(0.015625)"/>
       <path id="DejaVuSans-61" d="M 2194 1759 
Q 1497 1759 1228 1600 
Q 959 1441 959 1056 
Q 959 750 1161 570 
Q 1363 391 1709 391 
Q 2188 391 2477 730 
Q 2766 1069 2766 1631 
L 2766 1759 
L 2194 1759 
z
M 3341 1997 
L 3341 0 
L 2766 0 
L 2766 531 
Q 2569 213 2275 61 
Q 1981 -91 1556 -91 
Q 1019 -91 701 211 
Q 384 513 384 1019 
Q 384 1609 779 1909 
Q 1175 2209 1959 2209 
L 2766 2209 
L 2766 2266 
Q 2766 2663 2505 2880 
Q 2244 3097 1772 3097 
Q 1472 3097 1187 3025 
Q 903 2953 641 2809 
L 641 3341 
Q 956 3463 1253 3523 
Q 1550 3584 1831 3584 
Q 2591 3584 2966 3190 
Q 3341 2797 3341 1997 
z
" transform="scale(0.015625)"/>
       <path id="DejaVuSans-74" d="M 1172 4494 
L 1172 3500 
L 2356 3500 
L 2356 3053 
L 1172 3053 
L 1172 1153 
Q 1172 725 1289 603 
Q 1406 481 1766 481 
L 2356 481 
L 2356 0 
L 1766 0 
Q 1100 0 847 248 
Q 594 497 594 1153 
L 594 3053 
L 172 3053 
L 172 3500 
L 594 3500 
L 594 4494 
L 1172 4494 
z
" transform="scale(0.015625)"/>
       <path id="DejaVuSans-65" d="M 3597 1894 
L 3597 1613 
L 953 1613 
Q 991 1019 1311 708 
Q 1631 397 2203 397 
Q 2534 397 2845 478 
Q 3156 559 3463 722 
L 3463 178 
Q 3153 47 2828 -22 
Q 2503 -91 2169 -91 
Q 1331 -91 842 396 
Q 353 884 353 1716 
Q 353 2575 817 3079 
Q 1281 3584 2069 3584 
Q 2775 3584 3186 3129 
Q 3597 2675 3597 1894 
z
M 3022 2063 
Q 3016 2534 2758 2815 
Q 2500 3097 2075 3097 
Q 1594 3097 1305 2825 
Q 1016 2553 972 2059 
L 3022 2063 
z
" transform="scale(0.015625)"/>
       <path id="DejaVuSans-6e" d="M 3513 2113 
L 3513 0 
L 2938 0 
L 2938 2094 
Q 2938 2591 2744 2837 
Q 2550 3084 2163 3084 
Q 1697 3084 1428 2787 
Q 1159 2491 1159 1978 
L 1159 0 
L 581 0 
L 581 3500 
L 1159 3500 
L 1159 2956 
Q 1366 3272 1645 3428 
Q 1925 3584 2291 3584 
Q 2894 3584 3203 3211 
Q 3513 2838 3513 2113 
z
" transform="scale(0.015625)"/>
       <path id="DejaVuSans-64" d="M 2906 2969 
L 2906 4863 
L 3481 4863 
L 3481 0 
L 2906 0 
L 2906 525 
Q 2725 213 2448 61 
Q 2172 -91 1784 -91 
Q 1150 -91 751 415 
Q 353 922 353 1747 
Q 353 2572 751 3078 
Q 1150 3584 1784 3584 
Q 2172 3584 2448 3432 
Q 2725 3281 2906 2969 
z
M 947 1747 
Q 947 1113 1208 752 
Q 1469 391 1925 391 
Q 2381 391 2643 752 
Q 2906 1113 2906 1747 
Q 2906 2381 2643 2742 
Q 2381 3103 1925 3103 
Q 1469 3103 1208 2742 
Q 947 2381 947 1747 
z
" transform="scale(0.015625)"/>
       <path id="DejaVuSans-54" d="M -19 4666 
L 3928 4666 
L 3928 4134 
L 2272 4134 
L 2272 0 
L 1638 0 
L 1638 4134 
L -19 4134 
L -19 4666 
z
" transform="scale(0.015625)"/>
       <path id="DejaVuSans-69" d="M 603 3500 
L 1178 3500 
L 1178 0 
L 603 0 
L 603 3500 
z
M 603 4863 
L 1178 4863 
L 1178 4134 
L 603 4134 
L 603 4863 
z
" transform="scale(0.015625)"/>
       <path id="DejaVuSans-6d" d="M 3328 2828 
Q 3544 3216 3844 3400 
Q 4144 3584 4550 3584 
Q 5097 3584 5394 3201 
Q 5691 2819 5691 2113 
L 5691 0 
L 5113 0 
L 5113 2094 
Q 5113 2597 4934 2840 
Q 4756 3084 4391 3084 
Q 3944 3084 3684 2787 
Q 3425 2491 3425 1978 
L 3425 0 
L 2847 0 
L 2847 2094 
Q 2847 2600 2669 2842 
Q 2491 3084 2119 3084 
Q 1678 3084 1418 2786 
Q 1159 2488 1159 1978 
L 1159 0 
L 581 0 
L 581 3500 
L 1159 3500 
L 1159 2956 
Q 1356 3278 1631 3431 
Q 1906 3584 2284 3584 
Q 2666 3584 2933 3390 
Q 3200 3197 3328 2828 
z
" transform="scale(0.015625)"/>
      </defs>
      <use xlink:href="#DejaVuSans-44"/>
      <use xlink:href="#DejaVuSans-61" transform="translate(77.001953 0)"/>
      <use xlink:href="#DejaVuSans-74" transform="translate(138.28125 0)"/>
      <use xlink:href="#DejaVuSans-65" transform="translate(177.490234 0)"/>
      <use xlink:href="#DejaVuSans-20" transform="translate(239.013672 0)"/>
      <use xlink:href="#DejaVuSans-61" transform="translate(270.800781 0)"/>
      <use xlink:href="#DejaVuSans-6e" transform="translate(332.080078 0)"/>
      <use xlink:href="#DejaVuSans-64" transform="translate(395.458984 0)"/>
      <use xlink:href="#DejaVuSans-20" transform="translate(458.935547 0)"/>
      <use xlink:href="#DejaVuSans-54" transform="translate(490.722656 0)"/>
      <use xlink:href="#DejaVuSans-69" transform="translate(548.681641 0)"/>
      <use xlink:href="#DejaVuSans-6d" transform="translate(576.464844 0)"/>
      <use xlink:href="#DejaVuSans-65" transform="translate(673.876953 0)"/>
     </g>
    </g>
   </g>
   <g id="matplotlib.axis_2">
    <g id="ytick_1">
     <g id="line2d_13">
      <path d="M 90 370.574458 
L 648 370.574458 
" clip-path="url(#pc21724902a)" style="fill: none; stroke: #b0b0b0; stroke-width: 0.8; stroke-linecap: square"/>
     </g>
     <g id="line2d_14">
      <defs>
       <path id="mb3c1b45743" d="M 0 0 
L -3.5 0 
" style="stroke: #000000; stroke-width: 0.8"/>
      </defs>
      <g>
       <use xlink:href="#mb3c1b45743" x="90" y="370.574458" style="stroke: #000000; stroke-width: 0.8"/>
      </g>
     </g>
     <g id="text_8">
      <!-- 0 -->
      <g transform="translate(76.6375 374.373677) scale(0.1 -0.1)">
       <use xlink:href="#DejaVuSans-30"/>
      </g>
     </g>
    </g>
    <g id="ytick_2">
     <g id="line2d_15">
      <path d="M 90 309.851566 
L 648 309.851566 
" clip-path="url(#pc21724902a)" style="fill: none; stroke: #b0b0b0; stroke-width: 0.8; stroke-linecap: square"/>
     </g>
     <g id="line2d_16">
      <g>
       <use xlink:href="#mb3c1b45743" x="90" y="309.851566" style="stroke: #000000; stroke-width: 0.8"/>
      </g>
     </g>
     <g id="text_9">
      <!-- 50 -->
      <g transform="translate(70.275 313.650785) scale(0.1 -0.1)">
       <use xlink:href="#DejaVuSans-35"/>
       <use xlink:href="#DejaVuSans-30" transform="translate(63.623047 0)"/>
      </g>
     </g>
    </g>
    <g id="ytick_3">
     <g id="line2d_17">
      <path d="M 90 249.128675 
L 648 249.128675 
" clip-path="url(#pc21724902a)" style="fill: none; stroke: #b0b0b0; stroke-width: 0.8; stroke-linecap: square"/>
     </g>
     <g id="line2d_18">
      <g>
       <use xlink:href="#mb3c1b45743" x="90" y="249.128675" style="stroke: #000000; stroke-width: 0.8"/>
      </g>
     </g>
     <g id="text_10">
      <!-- 100 -->
      <g transform="translate(63.9125 252.927893) scale(0.1 -0.1)">
       <use xlink:href="#DejaVuSans-31"/>
       <use xlink:href="#DejaVuSans-30" transform="translate(63.623047 0)"/>
       <use xlink:href="#DejaVuSans-30" transform="translate(127.246094 0)"/>
      </g>
     </g>
    </g>
    <g id="ytick_4">
     <g id="line2d_19">
      <path d="M 90 188.405783 
L 648 188.405783 
" clip-path="url(#pc21724902a)" style="fill: none; stroke: #b0b0b0; stroke-width: 0.8; stroke-linecap: square"/>
     </g>
     <g id="line2d_20">
      <g>
       <use xlink:href="#mb3c1b45743" x="90" y="188.405783" style="stroke: #000000; stroke-width: 0.8"/>
      </g>
     </g>
     <g id="text_11">
      <!-- 150 -->
      <g transform="translate(63.9125 192.205002) scale(0.1 -0.1)">
       <use xlink:href="#DejaVuSans-31"/>
       <use xlink:href="#DejaVuSans-35" transform="translate(63.623047 0)"/>
       <use xlink:href="#DejaVuSans-30" transform="translate(127.246094 0)"/>
      </g>
     </g>
    </g>
    <g id="ytick_5">
     <g id="line2d_21">
      <path d="M 90 127.682892 
L 648 127.682892 
" clip-path="url(#pc21724902a)" style="fill: none; stroke: #b0b0b0; stroke-width: 0.8; stroke-linecap: square"/>
     </g>
     <g id="line2d_22">
      <g>
       <use xlink:href="#mb3c1b45743" x="90" y="127.682892" style="stroke: #000000; stroke-width: 0.8"/>
      </g>
     </g>
     <g id="text_12">
      <!-- 200 -->
      <g transform="translate(63.9125 131.48211) scale(0.1 -0.1)">
       <defs>
        <path id="DejaVuSans-32" d="M 1228 531 
L 3431 531 
L 3431 0 
L 469 0 
L 469 531 
Q 828 903 1448 1529 
Q 2069 2156 2228 2338 
Q 2531 2678 2651 2914 
Q 2772 3150 2772 3378 
Q 2772 3750 2511 3984 
Q 2250 4219 1831 4219 
Q 1534 4219 1204 4116 
Q 875 4013 500 3803 
L 500 4441 
Q 881 4594 1212 4672 
Q 1544 4750 1819 4750 
Q 2544 4750 2975 4387 
Q 3406 4025 3406 3419 
Q 3406 3131 3298 2873 
Q 3191 2616 2906 2266 
Q 2828 2175 2409 1742 
Q 1991 1309 1228 531 
z
" transform="scale(0.015625)"/>
       </defs>
       <use xlink:href="#DejaVuSans-32"/>
       <use xlink:href="#DejaVuSans-30" transform="translate(63.623047 0)"/>
       <use xlink:href="#DejaVuSans-30" transform="translate(127.246094 0)"/>
      </g>
     </g>
    </g>
    <g id="ytick_6">
     <g id="line2d_23">
      <path d="M 90 66.96 
L 648 66.96 
" clip-path="url(#pc21724902a)" style="fill: none; stroke: #b0b0b0; stroke-width: 0.8; stroke-linecap: square"/>
     </g>
     <g id="line2d_24">
      <g>
       <use xlink:href="#mb3c1b45743" x="90" y="66.96" style="stroke: #000000; stroke-width: 0.8"/>
      </g>
     </g>
     <g id="text_13">
      <!-- 250 -->
      <g transform="translate(63.9125 70.759219) scale(0.1 -0.1)">
       <use xlink:href="#DejaVuSans-32"/>
       <use xlink:href="#DejaVuSans-35" transform="translate(63.623047 0)"/>
       <use xlink:href="#DejaVuSans-30" transform="translate(127.246094 0)"/>
      </g>
     </g>
    </g>
    <g id="text_14">
     <!-- Votes -->
     <g transform="translate(57.832812 231.893594) rotate(-90) scale(0.1 -0.1)">
      <defs>
       <path id="DejaVuSans-56" d="M 1831 0 
L 50 4666 
L 709 4666 
L 2188 738 
L 3669 4666 
L 4325 4666 
L 2547 0 
L 1831 0 
z
" transform="scale(0.015625)"/>
       <path id="DejaVuSans-6f" d="M 1959 3097 
Q 1497 3097 1228 2736 
Q 959 2375 959 1747 
Q 959 1119 1226 758 
Q 1494 397 1959 397 
Q 2419 397 2687 759 
Q 2956 1122 2956 1747 
Q 2956 2369 2687 2733 
Q 2419 3097 1959 3097 
z
M 1959 3584 
Q 2709 3584 3137 3096 
Q 3566 2609 3566 1747 
Q 3566 888 3137 398 
Q 2709 -91 1959 -91 
Q 1206 -91 779 398 
Q 353 888 353 1747 
Q 353 2609 779 3096 
Q 1206 3584 1959 3584 
z
" transform="scale(0.015625)"/>
       <path id="DejaVuSans-73" d="M 2834 3397 
L 2834 2853 
Q 2591 2978 2328 3040 
Q 2066 3103 1784 3103 
Q 1356 3103 1142 2972 
Q 928 2841 928 2578 
Q 928 2378 1081 2264 
Q 1234 2150 1697 2047 
L 1894 2003 
Q 2506 1872 2764 1633 
Q 3022 1394 3022 966 
Q 3022 478 2636 193 
Q 2250 -91 1575 -91 
Q 1294 -91 989 -36 
Q 684 19 347 128 
L 347 722 
Q 666 556 975 473 
Q 1284 391 1588 391 
Q 1994 391 2212 530 
Q 2431 669 2431 922 
Q 2431 1156 2273 1281 
Q 2116 1406 1581 1522 
L 1381 1569 
Q 847 1681 609 1914 
Q 372 2147 372 2553 
Q 372 3047 722 3315 
Q 1072 3584 1716 3584 
Q 2034 3584 2315 3537 
Q 2597 3491 2834 3397 
z
" transform="scale(0.015625)"/>
      </defs>
      <use xlink:href="#DejaVuSans-56"/>
      <use xlink:href="#DejaVuSans-6f" transform="translate(60.658203 0)"/>
      <use xlink:href="#DejaVuSans-74" transform="translate(121.839844 0)"/>
      <use xlink:href="#DejaVuSans-65" transform="translate(161.048828 0)"/>
      <use xlink:href="#DejaVuSans-73" transform="translate(222.572266 0)"/>
     </g>
    </g>
   </g>
   <g id="line2d_25">
    <path d="M 115.363636 348.714217 
L 130.371705 348.714217 
L 131.872512 347.499759 
L 146.880581 347.499759 
L 148.381388 345.070843 
L 161.88865 345.070843 
L 163.389457 343.856386 
L 170.893491 343.856386 
L 172.394298 342.641928 
L 178.397526 342.641928 
L 179.898332 341.42747 
L 184.400753 341.42747 
L 185.90156 340.213012 
L 206.912856 340.213012 
L 208.413663 338.998554 
L 224.922539 338.998554 
L 227.924153 336.569639 
L 230.925767 336.569639 
L 232.426573 335.355181 
L 245.933835 335.355181 
L 248.935449 332.926265 
L 266.945132 332.926265 
L 268.445939 331.711807 
L 272.948359 331.711807 
L 274.449166 330.497349 
L 275.949973 330.497349 
L 277.45078 329.282892 
L 317.972566 329.282892 
L 319.473373 328.068434 
L 337.483055 328.068434 
L 338.983862 326.853976 
L 349.48951 326.853976 
L 350.990317 325.639518 
L 352.491124 323.210602 
L 353.991931 323.210602 
L 356.993545 320.781687 
L 381.006455 320.781687 
L 382.507262 319.567229 
L 391.512103 319.567229 
L 393.01291 318.352771 
L 399.016138 318.352771 
L 400.516945 317.138313 
L 415.525013 317.138313 
L 417.02582 315.923855 
L 420.027434 315.923855 
L 421.528241 314.709398 
L 426.030662 314.709398 
L 427.531469 313.49494 
L 439.537924 313.49494 
L 441.038731 312.280482 
L 442.539537 312.280482 
L 444.040344 311.066024 
L 459.048413 311.066024 
L 460.54922 309.851566 
L 471.054868 309.851566 
L 472.555675 308.637108 
L 474.056482 308.637108 
L 477.058096 306.208193 
L 510.075847 306.208193 
L 511.576654 304.993735 
L 535.589564 304.993735 
L 537.090371 303.779277 
L 538.591178 303.779277 
L 540.091985 302.564819 
L 553.599247 302.564819 
L 555.100054 301.350361 
L 556.600861 301.350361 
L 558.101668 300.135904 
L 565.605702 300.135904 
L 567.106509 298.921446 
L 571.60893 298.921446 
L 574.610543 296.49253 
L 576.11135 296.49253 
L 577.612157 295.278072 
L 580.613771 295.278072 
L 582.114578 294.063614 
L 585.116191 294.063614 
L 586.616998 292.849157 
L 589.618612 292.849157 
L 591.119419 291.634699 
L 622.636364 291.634699 
L 622.636364 291.634699 
" clip-path="url(#pc21724902a)" style="fill: none; stroke: #1f77b4; stroke-width: 1.5; stroke-linecap: square"/>
   </g>
   <g id="line2d_26">
    <path d="M 115.363636 270.988916 
L 116.864443 269.774458 
L 121.366864 269.774458 
L 122.867671 268.56 
L 124.368478 268.56 
L 125.869285 267.345542 
L 127.370091 267.345542 
L 130.371705 264.916627 
L 131.872512 262.487711 
L 133.373319 262.487711 
L 136.374933 260.058795 
L 137.87574 260.058795 
L 139.376547 255.200964 
L 140.877353 252.772048 
L 142.37816 247.914217 
L 143.878967 244.270843 
L 148.381388 244.270843 
L 149.882195 240.62747 
L 151.383002 238.198554 
L 154.384615 235.769639 
L 155.885422 233.340723 
L 158.887036 230.911807 
L 160.387843 228.482892 
L 164.890264 228.482892 
L 166.39107 222.410602 
L 167.891877 219.981687 
L 169.392684 218.767229 
L 170.893491 216.338313 
L 172.394298 215.123855 
L 173.895105 215.123855 
L 175.395912 211.480482 
L 176.896719 211.480482 
L 178.397526 209.051566 
L 179.898332 207.837108 
L 181.399139 207.837108 
L 182.899946 206.622651 
L 185.90156 206.622651 
L 187.402367 205.408193 
L 190.403981 205.408193 
L 191.904788 202.979277 
L 193.405594 202.979277 
L 194.906401 201.764819 
L 200.909629 201.764819 
L 202.410436 200.550361 
L 206.912856 200.550361 
L 208.413663 199.335904 
L 209.91447 199.335904 
L 211.415277 196.906988 
L 212.916084 196.906988 
L 214.416891 194.478072 
L 215.917698 193.263614 
L 220.420118 193.263614 
L 221.920925 190.834699 
L 223.421732 189.620241 
L 224.922539 185.976867 
L 227.924153 183.547952 
L 239.930608 183.547952 
L 241.431415 179.904578 
L 242.932222 179.904578 
L 245.933835 177.475663 
L 247.434642 177.475663 
L 251.937063 173.832289 
L 254.938677 173.832289 
L 256.439484 172.617831 
L 259.441097 172.617831 
L 263.943518 168.974458 
L 266.945132 168.974458 
L 268.445939 167.76 
L 275.949973 167.76 
L 277.45078 166.545542 
L 280.452394 166.545542 
L 281.953201 165.331084 
L 299.962883 165.331084 
L 301.46369 162.902169 
L 304.465304 162.902169 
L 307.466918 160.473253 
L 308.967725 160.473253 
L 310.468531 159.258795 
L 319.473373 159.258795 
L 323.975793 155.615422 
L 325.4766 155.615422 
L 326.977407 154.400964 
L 328.478214 151.972048 
L 329.979021 151.972048 
L 331.479828 150.75759 
L 332.980635 150.75759 
L 338.983862 145.899759 
L 341.985476 145.899759 
L 343.486283 143.470843 
L 347.988704 143.470843 
L 349.48951 142.256386 
L 353.991931 142.256386 
L 355.492738 141.041928 
L 356.993545 141.041928 
L 358.494352 137.398554 
L 362.996772 137.398554 
L 364.497579 136.184096 
L 365.998386 133.755181 
L 369 133.755181 
L 370.500807 132.540723 
L 373.502421 132.540723 
L 375.003228 131.326265 
L 376.504034 131.326265 
L 384.008069 125.253976 
L 387.009683 125.253976 
L 391.512103 121.610602 
L 396.014524 121.610602 
L 397.515331 119.181687 
L 399.016138 119.181687 
L 400.516945 117.967229 
L 405.019365 117.967229 
L 406.520172 116.752771 
L 420.027434 116.752771 
L 421.528241 115.538313 
L 432.033889 115.538313 
L 433.534696 114.323855 
L 436.53631 114.323855 
L 439.537924 111.89494 
L 447.041958 111.89494 
L 448.542765 110.680482 
L 456.046799 110.680482 
L 460.54922 107.037108 
L 480.05971 107.037108 
L 481.560516 104.608193 
L 483.061323 103.393735 
L 519.080689 103.393735 
L 520.581495 102.179277 
L 529.586337 102.179277 
L 532.587951 99.750361 
L 535.589564 99.750361 
L 537.090371 98.535904 
L 538.591178 98.535904 
L 541.592792 96.106988 
L 543.093599 96.106988 
L 544.594406 94.89253 
L 546.095212 94.89253 
L 549.096826 90.034699 
L 550.597633 88.820241 
L 558.101668 88.820241 
L 559.602474 85.176867 
L 561.103281 82.747952 
L 564.104895 82.747952 
L 567.106509 80.319036 
L 574.610543 80.319036 
L 577.612157 77.89012 
L 580.613771 77.89012 
L 582.114578 76.675663 
L 585.116191 76.675663 
L 586.616998 75.461205 
L 588.117805 75.461205 
L 589.618612 74.246747 
L 591.119419 74.246747 
L 592.620226 73.032289 
L 594.121033 73.032289 
L 595.62184 71.817831 
L 598.623453 71.817831 
L 600.12426 69.388916 
L 607.628295 69.388916 
L 610.629909 66.96 
L 622.636364 66.96 
L 622.636364 66.96 
" clip-path="url(#pc21724902a)" style="fill: none; stroke: #ff7f0e; stroke-width: 1.5; stroke-linecap: square"/>
   </g>
   <g id="line2d_27">
    <path d="M 115.363636 332.926265 
L 121.366864 332.926265 
L 122.867671 330.497349 
L 125.869285 330.497349 
L 127.370091 329.282892 
L 128.870898 326.853976 
L 130.371705 325.639518 
L 131.872512 321.996145 
L 133.373319 319.567229 
L 134.874126 318.352771 
L 136.374933 318.352771 
L 137.87574 315.923855 
L 139.376547 312.280482 
L 145.379774 312.280482 
L 146.880581 311.066024 
L 148.381388 311.066024 
L 149.882195 308.637108 
L 154.384615 308.637108 
L 157.386229 306.208193 
L 163.389457 306.208193 
L 164.890264 304.993735 
L 170.893491 304.993735 
L 175.395912 301.350361 
L 182.899946 301.350361 
L 184.400753 300.135904 
L 188.903174 300.135904 
L 190.403981 298.921446 
L 193.405594 298.921446 
L 194.906401 296.49253 
L 206.912856 296.49253 
L 208.413663 295.278072 
L 209.91447 292.849157 
L 211.415277 291.634699 
L 212.916084 291.634699 
L 214.416891 290.420241 
L 217.418505 290.420241 
L 218.919311 289.205783 
L 221.920925 289.205783 
L 223.421732 287.991325 
L 232.426573 287.991325 
L 233.92738 286.776867 
L 235.428187 286.776867 
L 236.928994 285.56241 
L 238.429801 285.56241 
L 239.930608 284.347952 
L 244.433029 284.347952 
L 245.933835 283.133494 
L 247.434642 280.704578 
L 254.938677 280.704578 
L 259.441097 277.061205 
L 263.943518 277.061205 
L 265.444325 275.846747 
L 271.447552 275.846747 
L 272.948359 274.632289 
L 274.449166 274.632289 
L 275.949973 273.417831 
L 278.951587 273.417831 
L 280.452394 272.203373 
L 284.954814 272.203373 
L 287.956428 269.774458 
L 289.457235 269.774458 
L 290.958042 268.56 
L 302.964497 268.56 
L 304.465304 266.131084 
L 305.966111 264.916627 
L 317.972566 264.916627 
L 319.473373 263.702169 
L 323.975793 263.702169 
L 325.4766 262.487711 
L 329.979021 262.487711 
L 331.479828 261.273253 
L 346.487897 261.273253 
L 347.988704 260.058795 
L 353.991931 260.058795 
L 355.492738 258.844337 
L 364.497579 258.844337 
L 365.998386 257.62988 
L 369 257.62988 
L 370.500807 256.415422 
L 376.504034 256.415422 
L 379.505648 253.986506 
L 408.020979 253.986506 
L 409.521786 252.772048 
L 411.022593 252.772048 
L 412.5234 251.55759 
L 417.02582 251.55759 
L 418.526627 250.343133 
L 426.030662 250.343133 
L 427.531469 249.128675 
L 430.533082 249.128675 
L 432.033889 247.914217 
L 441.038731 247.914217 
L 442.539537 249.128675 
L 444.040344 247.914217 
L 454.545992 247.914217 
L 456.046799 246.699759 
L 468.053254 246.699759 
L 469.554061 245.485301 
L 472.555675 245.485301 
L 474.056482 244.270843 
L 475.557289 244.270843 
L 477.058096 243.056386 
L 487.563744 243.056386 
L 489.064551 241.841928 
L 498.069392 241.841928 
L 499.570199 240.62747 
L 522.082302 240.62747 
L 523.583109 239.413012 
L 556.600861 239.413012 
L 558.101668 238.198554 
L 573.109736 238.198554 
L 574.610543 236.984096 
L 598.623453 236.984096 
L 601.625067 234.555181 
L 622.636364 234.555181 
L 622.636364 234.555181 
" clip-path="url(#pc21724902a)" style="fill: none; stroke: #2ca02c; stroke-width: 1.5; stroke-linecap: square"/>
   </g>
   <g id="line2d_28">
    <path d="M 115.363636 369.36 
L 486.062937 369.36 
L 487.563744 368.145542 
L 622.636364 368.145542 
L 622.636364 368.145542 
" clip-path="url(#pc21724902a)" style="fill: none; stroke: #d62728; stroke-width: 1.5; stroke-linecap: square"/>
   </g>
   <g id="line2d_29">
    <path d="M 115.363636 342.641928 
L 119.866057 342.641928 
L 121.366864 341.42747 
L 130.371705 341.42747 
L 131.872512 340.213012 
L 140.877353 340.213012 
L 142.37816 338.998554 
L 175.395912 338.998554 
L 176.896719 337.784096 
L 230.925767 337.784096 
L 233.92738 335.355181 
L 245.933835 335.355181 
L 247.434642 334.140723 
L 253.43787 334.140723 
L 254.938677 332.926265 
L 257.94029 332.926265 
L 259.441097 331.711807 
L 298.462076 331.711807 
L 299.962883 330.497349 
L 361.495966 330.497349 
L 362.996772 329.282892 
L 558.101668 329.282892 
L 559.602474 328.068434 
L 561.103281 328.068434 
L 562.604088 326.853976 
L 622.636364 326.853976 
L 622.636364 326.853976 
" clip-path="url(#pc21724902a)" style="fill: none; stroke: #9467bd; stroke-width: 1.5; stroke-linecap: square"/>
   </g>
   <g id="line2d_30">
    <path d="M 115.363636 352.35759 
L 116.864443 352.35759 
L 118.36525 351.143133 
L 139.376547 351.143133 
L 140.877353 349.928675 
L 158.887036 349.928675 
L 160.387843 348.714217 
L 182.899946 348.714217 
L 185.90156 346.285301 
L 202.410436 346.285301 
L 203.911243 345.070843 
L 248.935449 345.070843 
L 250.436256 343.856386 
L 263.943518 343.856386 
L 265.444325 342.641928 
L 290.958042 342.641928 
L 292.458849 341.42747 
L 316.471759 341.42747 
L 317.972566 340.213012 
L 323.975793 340.213012 
L 325.4766 338.998554 
L 338.983862 338.998554 
L 340.484669 337.784096 
L 376.504034 337.784096 
L 378.004841 336.569639 
L 387.009683 336.569639 
L 388.51049 335.355181 
L 397.515331 335.355181 
L 399.016138 334.140723 
L 405.019365 334.140723 
L 406.520172 332.926265 
L 462.050027 332.926265 
L 463.550834 331.711807 
L 507.074233 331.711807 
L 508.57504 330.497349 
L 595.62184 330.497349 
L 597.122647 329.282892 
L 622.636364 329.282892 
L 622.636364 329.282892 
" clip-path="url(#pc21724902a)" style="fill: none; stroke: #8c564b; stroke-width: 1.5; stroke-linecap: square"/>
   </g>
   <g id="line2d_31">
    <path d="M 115.363636 262.487711 
L 121.366864 262.487711 
L 122.867671 261.273253 
L 128.870898 261.273253 
L 131.872512 258.844337 
L 133.373319 258.844337 
L 134.874126 257.62988 
L 136.374933 257.62988 
L 137.87574 256.415422 
L 140.877353 256.415422 
L 142.37816 255.200964 
L 146.880581 255.200964 
L 148.381388 253.986506 
L 151.383002 253.986506 
L 152.883809 252.772048 
L 154.384615 252.772048 
L 155.885422 251.55759 
L 158.887036 251.55759 
L 161.88865 249.128675 
L 167.891877 249.128675 
L 169.392684 247.914217 
L 173.895105 247.914217 
L 176.896719 245.485301 
L 179.898332 245.485301 
L 181.399139 244.270843 
L 184.400753 244.270843 
L 185.90156 243.056386 
L 187.402367 240.62747 
L 188.903174 236.984096 
L 191.904788 236.984096 
L 193.405594 235.769639 
L 200.909629 235.769639 
L 203.911243 233.340723 
L 205.412049 230.911807 
L 206.912856 229.697349 
L 208.413663 229.697349 
L 209.91447 227.268434 
L 215.917698 227.268434 
L 217.418505 226.053976 
L 218.919311 226.053976 
L 221.920925 223.62506 
L 223.421732 223.62506 
L 224.922539 222.410602 
L 226.423346 222.410602 
L 229.42496 219.981687 
L 232.426573 219.981687 
L 233.92738 217.552771 
L 239.930608 217.552771 
L 242.932222 215.123855 
L 245.933835 215.123855 
L 247.434642 213.909398 
L 248.935449 211.480482 
L 253.43787 211.480482 
L 254.938677 210.266024 
L 256.439484 210.266024 
L 257.94029 207.837108 
L 259.441097 207.837108 
L 260.941904 206.622651 
L 262.442711 206.622651 
L 263.943518 205.408193 
L 269.946746 205.408193 
L 272.948359 202.979277 
L 274.449166 202.979277 
L 275.949973 200.550361 
L 277.45078 200.550361 
L 278.951587 199.335904 
L 280.452394 199.335904 
L 281.953201 198.121446 
L 286.455621 198.121446 
L 287.956428 196.906988 
L 289.457235 196.906988 
L 295.460463 192.049157 
L 296.96127 189.620241 
L 299.962883 189.620241 
L 302.964497 184.76241 
L 305.966111 184.76241 
L 308.967725 182.333494 
L 310.468531 182.333494 
L 311.969338 179.904578 
L 313.470145 179.904578 
L 314.970952 178.69012 
L 316.471759 178.69012 
L 317.972566 177.475663 
L 320.97418 177.475663 
L 322.474987 176.261205 
L 323.975793 176.261205 
L 325.4766 175.046747 
L 331.479828 175.046747 
L 332.980635 168.974458 
L 334.481442 168.974458 
L 335.982249 167.76 
L 340.484669 167.76 
L 341.985476 166.545542 
L 355.492738 166.545542 
L 356.993545 164.116627 
L 362.996772 164.116627 
L 364.497579 162.902169 
L 379.505648 162.902169 
L 381.006455 160.473253 
L 382.507262 159.258795 
L 390.011296 159.258795 
L 391.512103 158.044337 
L 402.017751 158.044337 
L 403.518558 156.82988 
L 405.019365 156.82988 
L 406.520172 155.615422 
L 415.525013 155.615422 
L 418.526627 153.186506 
L 429.032275 153.186506 
L 432.033889 150.75759 
L 433.534696 150.75759 
L 435.035503 149.543133 
L 444.040344 149.543133 
L 445.541151 148.328675 
L 450.043572 148.328675 
L 451.544379 147.114217 
L 453.045186 144.685301 
L 457.547606 144.685301 
L 459.048413 143.470843 
L 460.54922 143.470843 
L 463.550834 141.041928 
L 469.554061 141.041928 
L 471.054868 139.82747 
L 477.058096 139.82747 
L 478.558903 138.613012 
L 483.061323 138.613012 
L 484.56213 137.398554 
L 496.568585 137.398554 
L 499.570199 134.969639 
L 507.074233 134.969639 
L 508.57504 133.755181 
L 514.578268 133.755181 
L 522.082302 127.682892 
L 525.083916 127.682892 
L 526.584723 126.468434 
L 528.08553 126.468434 
L 529.586337 124.039518 
L 532.587951 121.610602 
L 535.589564 116.752771 
L 538.591178 116.752771 
L 541.592792 111.89494 
L 544.594406 111.89494 
L 546.095212 109.466024 
L 549.096826 107.037108 
L 553.599247 107.037108 
L 555.100054 105.822651 
L 556.600861 105.822651 
L 559.602474 103.393735 
L 565.605702 103.393735 
L 567.106509 102.179277 
L 570.108123 102.179277 
L 571.60893 100.964819 
L 579.112964 100.964819 
L 580.613771 98.535904 
L 582.114578 97.321446 
L 583.615385 97.321446 
L 585.116191 96.106988 
L 588.117805 96.106988 
L 589.618612 94.89253 
L 592.620226 94.89253 
L 594.121033 92.463614 
L 597.122647 92.463614 
L 598.623453 91.249157 
L 600.12426 91.249157 
L 601.625067 90.034699 
L 609.129102 90.034699 
L 610.629909 88.820241 
L 618.133943 88.820241 
L 619.63475 87.605783 
L 621.135557 87.605783 
L 622.636364 85.176867 
L 622.636364 85.176867 
" clip-path="url(#pc21724902a)" style="fill: none; stroke: #e377c2; stroke-width: 1.5; stroke-linecap: square"/>
   </g>
   <g id="line2d_32">
    <path d="M 115.363636 337.784096 
L 116.864443 337.784096 
L 119.866057 335.355181 
L 127.370091 335.355181 
L 128.870898 334.140723 
L 130.371705 334.140723 
L 133.373319 331.711807 
L 136.374933 331.711807 
L 137.87574 330.497349 
L 142.37816 330.497349 
L 143.878967 329.282892 
L 145.379774 329.282892 
L 146.880581 328.068434 
L 148.381388 328.068434 
L 151.383002 325.639518 
L 155.885422 325.639518 
L 157.386229 324.42506 
L 160.387843 324.42506 
L 163.389457 321.996145 
L 166.39107 321.996145 
L 169.392684 319.567229 
L 170.893491 319.567229 
L 172.394298 318.352771 
L 173.895105 314.709398 
L 179.898332 314.709398 
L 185.90156 309.851566 
L 187.402367 309.851566 
L 190.403981 307.422651 
L 191.904788 307.422651 
L 193.405594 306.208193 
L 194.906401 306.208193 
L 196.407208 304.993735 
L 209.91447 304.993735 
L 211.415277 303.779277 
L 226.423346 303.779277 
L 229.42496 301.350361 
L 233.92738 301.350361 
L 235.428187 300.135904 
L 238.429801 300.135904 
L 241.431415 297.706988 
L 244.433029 297.706988 
L 245.933835 295.278072 
L 250.436256 295.278072 
L 251.937063 292.849157 
L 253.43787 291.634699 
L 260.941904 291.634699 
L 262.442711 290.420241 
L 263.943518 290.420241 
L 266.945132 287.991325 
L 274.449166 287.991325 
L 275.949973 286.776867 
L 277.45078 286.776867 
L 278.951587 285.56241 
L 287.956428 285.56241 
L 289.457235 284.347952 
L 293.959656 284.347952 
L 295.460463 283.133494 
L 296.96127 283.133494 
L 298.462076 279.49012 
L 299.962883 279.49012 
L 301.46369 277.061205 
L 302.964497 275.846747 
L 304.465304 275.846747 
L 307.466918 273.417831 
L 310.468531 273.417831 
L 311.969338 272.203373 
L 314.970952 272.203373 
L 316.471759 270.988916 
L 317.972566 270.988916 
L 319.473373 268.56 
L 320.97418 268.56 
L 322.474987 267.345542 
L 325.4766 267.345542 
L 328.478214 264.916627 
L 329.979021 264.916627 
L 331.479828 262.487711 
L 332.980635 261.273253 
L 343.486283 261.273253 
L 344.98709 258.844337 
L 349.48951 258.844337 
L 350.990317 257.62988 
L 352.491124 257.62988 
L 353.991931 256.415422 
L 358.494352 256.415422 
L 359.995159 255.200964 
L 367.499193 255.200964 
L 369 253.986506 
L 372.001614 253.986506 
L 373.502421 252.772048 
L 381.006455 252.772048 
L 382.507262 251.55759 
L 396.014524 251.55759 
L 399.016138 249.128675 
L 400.516945 249.128675 
L 402.017751 247.914217 
L 403.518558 247.914217 
L 405.019365 246.699759 
L 406.520172 246.699759 
L 408.020979 245.485301 
L 411.022593 245.485301 
L 412.5234 244.270843 
L 414.024207 244.270843 
L 417.02582 241.841928 
L 421.528241 241.841928 
L 423.029048 240.62747 
L 427.531469 240.62747 
L 429.032275 239.413012 
L 439.537924 239.413012 
L 441.038731 238.198554 
L 442.539537 238.198554 
L 444.040344 236.984096 
L 450.043572 236.984096 
L 451.544379 234.555181 
L 460.54922 234.555181 
L 462.050027 233.340723 
L 463.550834 233.340723 
L 465.051641 230.911807 
L 472.555675 230.911807 
L 474.056482 229.697349 
L 483.061323 229.697349 
L 484.56213 228.482892 
L 504.07262 228.482892 
L 505.573427 227.268434 
L 528.08553 227.268434 
L 529.586337 226.053976 
L 537.090371 226.053976 
L 538.591178 224.839518 
L 540.091985 224.839518 
L 541.592792 223.62506 
L 543.093599 223.62506 
L 544.594406 221.196145 
L 546.095212 221.196145 
L 549.096826 218.767229 
L 559.602474 218.767229 
L 561.103281 217.552771 
L 562.604088 217.552771 
L 564.104895 216.338313 
L 565.605702 216.338313 
L 567.106509 215.123855 
L 574.610543 215.123855 
L 576.11135 213.909398 
L 589.618612 213.909398 
L 591.119419 212.69494 
L 598.623453 212.69494 
L 600.12426 211.480482 
L 607.628295 211.480482 
L 609.129102 210.266024 
L 612.130715 210.266024 
L 616.633136 206.622651 
L 619.63475 206.622651 
L 621.135557 204.193735 
L 622.636364 204.193735 
L 622.636364 204.193735 
" clip-path="url(#pc21724902a)" style="fill: none; stroke: #7f7f7f; stroke-width: 1.5; stroke-linecap: square"/>
   </g>
   <g id="line2d_33">
    <path d="M 115.363636 345.070843 
L 121.366864 345.070843 
L 122.867671 343.856386 
L 137.87574 343.856386 
L 139.376547 342.641928 
L 146.880581 342.641928 
L 148.381388 341.42747 
L 163.389457 341.42747 
L 164.890264 340.213012 
L 179.898332 340.213012 
L 181.399139 338.998554 
L 262.442711 338.998554 
L 263.943518 337.784096 
L 271.447552 337.784096 
L 272.948359 336.569639 
L 283.454008 336.569639 
L 284.954814 335.355181 
L 286.455621 335.355181 
L 287.956428 331.711807 
L 289.457235 330.497349 
L 292.458849 330.497349 
L 293.959656 329.282892 
L 308.967725 329.282892 
L 310.468531 328.068434 
L 323.975793 328.068434 
L 325.4766 326.853976 
L 341.985476 326.853976 
L 343.486283 325.639518 
L 361.495966 325.639518 
L 362.996772 324.42506 
L 370.500807 324.42506 
L 372.001614 323.210602 
L 420.027434 323.210602 
L 421.528241 321.996145 
L 424.529855 321.996145 
L 426.030662 320.781687 
L 438.037117 320.781687 
L 439.537924 319.567229 
L 481.560516 319.567229 
L 486.062937 315.923855 
L 529.586337 315.923855 
L 531.087144 314.709398 
L 532.587951 314.709398 
L 535.589564 312.280482 
L 538.591178 312.280482 
L 540.091985 311.066024 
L 616.633136 311.066024 
L 618.133943 309.851566 
L 622.636364 309.851566 
L 622.636364 309.851566 
" clip-path="url(#pc21724902a)" style="fill: none; stroke: #bcbd22; stroke-width: 1.5; stroke-linecap: square"/>
   </g>
   <g id="line2d_34">
    <path d="M 115.363636 366.931084 
L 190.403981 366.931084 
L 191.904788 365.716627 
L 286.455621 365.716627 
L 287.956428 364.502169 
L 441.038731 364.502169 
L 442.539537 363.287711 
L 444.040344 364.502169 
L 622.636364 364.502169 
L 622.636364 364.502169 
" clip-path="url(#pc21724902a)" style="fill: none; stroke: #17becf; stroke-width: 1.5; stroke-linecap: square"/>
   </g>
   <g id="line2d_35">
    <path d="M 115.363636 369.36 
L 116.864443 368.145542 
L 119.866057 368.145542 
L 121.366864 366.931084 
L 131.872512 366.931084 
L 133.373319 365.716627 
L 137.87574 365.716627 
L 139.376547 364.502169 
L 140.877353 364.502169 
L 143.878967 362.073253 
L 151.383002 362.073253 
L 154.384615 359.644337 
L 155.885422 359.644337 
L 157.386229 358.42988 
L 167.891877 358.42988 
L 169.392684 357.215422 
L 170.893491 354.786506 
L 173.895105 354.786506 
L 175.395912 353.572048 
L 176.896719 353.572048 
L 178.397526 352.35759 
L 179.898332 352.35759 
L 181.399139 351.143133 
L 182.899946 351.143133 
L 185.90156 348.714217 
L 194.906401 348.714217 
L 197.908015 346.285301 
L 202.410436 346.285301 
L 203.911243 345.070843 
L 205.412049 345.070843 
L 206.912856 342.641928 
L 211.415277 342.641928 
L 214.416891 337.784096 
L 223.421732 337.784096 
L 224.922539 335.355181 
L 226.423346 334.140723 
L 230.925767 334.140723 
L 232.426573 332.926265 
L 233.92738 330.497349 
L 236.928994 330.497349 
L 238.429801 329.282892 
L 259.441097 329.282892 
L 260.941904 326.853976 
L 271.447552 318.352771 
L 286.455621 318.352771 
L 290.958042 314.709398 
L 293.959656 314.709398 
L 295.460463 312.280482 
L 298.462076 312.280482 
L 299.962883 311.066024 
L 304.465304 311.066024 
L 305.966111 309.851566 
L 307.466918 309.851566 
L 308.967725 308.637108 
L 310.468531 308.637108 
L 313.470145 306.208193 
L 332.980635 306.208193 
L 335.982249 303.779277 
L 347.988704 303.779277 
L 349.48951 302.564819 
L 353.991931 302.564819 
L 356.993545 300.135904 
L 361.495966 300.135904 
L 362.996772 298.921446 
L 365.998386 298.921446 
L 367.499193 297.706988 
L 375.003228 297.706988 
L 376.504034 296.49253 
L 378.004841 296.49253 
L 379.505648 294.063614 
L 381.006455 294.063614 
L 382.507262 292.849157 
L 390.011296 292.849157 
L 391.512103 291.634699 
L 394.513717 291.634699 
L 396.014524 290.420241 
L 397.515331 290.420241 
L 400.516945 287.991325 
L 411.022593 287.991325 
L 412.5234 286.776867 
L 414.024207 286.776867 
L 415.525013 285.56241 
L 423.029048 285.56241 
L 424.529855 283.133494 
L 426.030662 281.919036 
L 433.534696 281.919036 
L 435.035503 280.704578 
L 441.038731 280.704578 
L 442.539537 278.275663 
L 448.542765 278.275663 
L 451.544379 275.846747 
L 456.046799 275.846747 
L 457.547606 274.632289 
L 475.557289 274.632289 
L 477.058096 272.203373 
L 478.558903 270.988916 
L 490.565358 270.988916 
L 492.066165 269.774458 
L 519.080689 269.774458 
L 520.581495 268.56 
L 523.583109 268.56 
L 525.083916 267.345542 
L 529.586337 267.345542 
L 531.087144 266.131084 
L 550.597633 266.131084 
L 552.09844 263.702169 
L 555.100054 263.702169 
L 556.600861 262.487711 
L 558.101668 262.487711 
L 559.602474 261.273253 
L 565.605702 261.273253 
L 567.106509 260.058795 
L 577.612157 260.058795 
L 579.112964 257.62988 
L 580.613771 257.62988 
L 582.114578 256.415422 
L 589.618612 256.415422 
L 591.119419 255.200964 
L 598.623453 255.200964 
L 601.625067 252.772048 
L 604.626681 252.772048 
L 606.127488 251.55759 
L 609.129102 251.55759 
L 610.629909 250.343133 
L 612.130715 250.343133 
L 613.631522 249.128675 
L 622.636364 249.128675 
L 622.636364 249.128675 
" clip-path="url(#pc21724902a)" style="fill: none; stroke: #1f77b4; stroke-width: 1.5; stroke-linecap: square"/>
   </g>
   <g id="line2d_36">
    <path d="M 115.363636 324.42506 
L 125.869285 324.42506 
L 127.370091 323.210602 
L 131.872512 323.210602 
L 133.373319 321.996145 
L 139.376547 321.996145 
L 140.877353 320.781687 
L 145.379774 320.781687 
L 146.880581 319.567229 
L 148.381388 319.567229 
L 149.882195 318.352771 
L 154.384615 318.352771 
L 155.885422 317.138313 
L 158.887036 317.138313 
L 160.387843 315.923855 
L 161.88865 315.923855 
L 164.890264 313.49494 
L 173.895105 313.49494 
L 175.395912 312.280482 
L 176.896719 312.280482 
L 178.397526 311.066024 
L 179.898332 311.066024 
L 181.399139 308.637108 
L 182.899946 304.993735 
L 184.400753 303.779277 
L 190.403981 303.779277 
L 194.906401 300.135904 
L 199.408822 300.135904 
L 202.410436 297.706988 
L 218.919311 297.706988 
L 220.420118 294.063614 
L 221.920925 294.063614 
L 224.922539 289.205783 
L 227.924153 286.776867 
L 229.42496 286.776867 
L 230.925767 284.347952 
L 242.932222 284.347952 
L 244.433029 281.919036 
L 248.935449 281.919036 
L 250.436256 280.704578 
L 260.941904 280.704578 
L 262.442711 279.49012 
L 280.452394 279.49012 
L 281.953201 278.275663 
L 283.454008 278.275663 
L 284.954814 277.061205 
L 289.457235 277.061205 
L 290.958042 275.846747 
L 308.967725 275.846747 
L 310.468531 274.632289 
L 313.470145 274.632289 
L 316.471759 269.774458 
L 319.473373 269.774458 
L 322.474987 267.345542 
L 325.4766 267.345542 
L 326.977407 266.131084 
L 331.479828 266.131084 
L 332.980635 264.916627 
L 350.990317 264.916627 
L 352.491124 263.702169 
L 375.003228 263.702169 
L 376.504034 262.487711 
L 390.011296 262.487711 
L 391.512103 261.273253 
L 394.513717 261.273253 
L 396.014524 260.058795 
L 400.516945 260.058795 
L 403.518558 257.62988 
L 405.019365 257.62988 
L 406.520172 256.415422 
L 412.5234 256.415422 
L 415.525013 253.986506 
L 423.029048 253.986506 
L 424.529855 252.772048 
L 429.032275 252.772048 
L 430.533082 251.55759 
L 438.037117 251.55759 
L 439.537924 250.343133 
L 447.041958 250.343133 
L 448.542765 249.128675 
L 475.557289 249.128675 
L 477.058096 247.914217 
L 478.558903 247.914217 
L 480.05971 246.699759 
L 495.067778 246.699759 
L 496.568585 244.270843 
L 498.069392 244.270843 
L 499.570199 243.056386 
L 514.578268 243.056386 
L 516.079075 241.841928 
L 522.082302 241.841928 
L 523.583109 240.62747 
L 525.083916 240.62747 
L 526.584723 239.413012 
L 540.091985 239.413012 
L 541.592792 238.198554 
L 571.60893 238.198554 
L 573.109736 234.555181 
L 583.615385 234.555181 
L 585.116191 233.340723 
L 588.117805 233.340723 
L 589.618612 232.126265 
L 607.628295 232.126265 
L 609.129102 230.911807 
L 622.636364 230.911807 
L 622.636364 230.911807 
" clip-path="url(#pc21724902a)" style="fill: none; stroke: #ff7f0e; stroke-width: 1.5; stroke-linecap: square"/>
   </g>
   <g id="patch_3">
    <path d="M 90 384.48 
L 90 51.84 
" style="fill: none; stroke: #000000; stroke-width: 0.8; stroke-linejoin: miter; stroke-linecap: square"/>
   </g>
   <g id="patch_4">
    <path d="M 648 384.48 
L 648 51.84 
" style="fill: none; stroke: #000000; stroke-width: 0.8; stroke-linejoin: miter; stroke-linecap: square"/>
   </g>
   <g id="patch_5">
    <path d="M 90 384.48 
L 648 384.48 
" style="fill: none; stroke: #000000; stroke-width: 0.8; stroke-linejoin: miter; stroke-linecap: square"/>
   </g>
   <g id="patch_6">
    <path d="M 90 51.84 
L 648 51.84 
" style="fill: none; stroke: #000000; stroke-width: 0.8; stroke-linejoin: miter; stroke-linecap: square"/>
   </g>
   <g id="text_15">
    <!-- Time Series of Votes for Each Keyword -->
    <g transform="translate(253.716563 45.84) scale(0.12 -0.12)">
     <defs>
      <path id="DejaVuSans-53" d="M 3425 4513 
L 3425 3897 
Q 3066 4069 2747 4153 
Q 2428 4238 2131 4238 
Q 1616 4238 1336 4038 
Q 1056 3838 1056 3469 
Q 1056 3159 1242 3001 
Q 1428 2844 1947 2747 
L 2328 2669 
Q 3034 2534 3370 2195 
Q 3706 1856 3706 1288 
Q 3706 609 3251 259 
Q 2797 -91 1919 -91 
Q 1588 -91 1214 -16 
Q 841 59 441 206 
L 441 856 
Q 825 641 1194 531 
Q 1563 422 1919 422 
Q 2459 422 2753 634 
Q 3047 847 3047 1241 
Q 3047 1584 2836 1778 
Q 2625 1972 2144 2069 
L 1759 2144 
Q 1053 2284 737 2584 
Q 422 2884 422 3419 
Q 422 4038 858 4394 
Q 1294 4750 2059 4750 
Q 2388 4750 2728 4690 
Q 3069 4631 3425 4513 
z
" transform="scale(0.015625)"/>
      <path id="DejaVuSans-72" d="M 2631 2963 
Q 2534 3019 2420 3045 
Q 2306 3072 2169 3072 
Q 1681 3072 1420 2755 
Q 1159 2438 1159 1844 
L 1159 0 
L 581 0 
L 581 3500 
L 1159 3500 
L 1159 2956 
Q 1341 3275 1631 3429 
Q 1922 3584 2338 3584 
Q 2397 3584 2469 3576 
Q 2541 3569 2628 3553 
L 2631 2963 
z
" transform="scale(0.015625)"/>
      <path id="DejaVuSans-66" d="M 2375 4863 
L 2375 4384 
L 1825 4384 
Q 1516 4384 1395 4259 
Q 1275 4134 1275 3809 
L 1275 3500 
L 2222 3500 
L 2222 3053 
L 1275 3053 
L 1275 0 
L 697 0 
L 697 3053 
L 147 3053 
L 147 3500 
L 697 3500 
L 697 3744 
Q 697 4328 969 4595 
Q 1241 4863 1831 4863 
L 2375 4863 
z
" transform="scale(0.015625)"/>
      <path id="DejaVuSans-45" d="M 628 4666 
L 3578 4666 
L 3578 4134 
L 1259 4134 
L 1259 2753 
L 3481 2753 
L 3481 2222 
L 1259 2222 
L 1259 531 
L 3634 531 
L 3634 0 
L 628 0 
L 628 4666 
z
" transform="scale(0.015625)"/>
      <path id="DejaVuSans-63" d="M 3122 3366 
L 3122 2828 
Q 2878 2963 2633 3030 
Q 2388 3097 2138 3097 
Q 1578 3097 1268 2742 
Q 959 2388 959 1747 
Q 959 1106 1268 751 
Q 1578 397 2138 397 
Q 2388 397 2633 464 
Q 2878 531 3122 666 
L 3122 134 
Q 2881 22 2623 -34 
Q 2366 -91 2075 -91 
Q 1284 -91 818 406 
Q 353 903 353 1747 
Q 353 2603 823 3093 
Q 1294 3584 2113 3584 
Q 2378 3584 2631 3529 
Q 2884 3475 3122 3366 
z
" transform="scale(0.015625)"/>
      <path id="DejaVuSans-68" d="M 3513 2113 
L 3513 0 
L 2938 0 
L 2938 2094 
Q 2938 2591 2744 2837 
Q 2550 3084 2163 3084 
Q 1697 3084 1428 2787 
Q 1159 2491 1159 1978 
L 1159 0 
L 581 0 
L 581 4863 
L 1159 4863 
L 1159 2956 
Q 1366 3272 1645 3428 
Q 1925 3584 2291 3584 
Q 2894 3584 3203 3211 
Q 3513 2838 3513 2113 
z
" transform="scale(0.015625)"/>
      <path id="DejaVuSans-4b" d="M 628 4666 
L 1259 4666 
L 1259 2694 
L 3353 4666 
L 4166 4666 
L 1850 2491 
L 4331 0 
L 3500 0 
L 1259 2247 
L 1259 0 
L 628 0 
L 628 4666 
z
" transform="scale(0.015625)"/>
      <path id="DejaVuSans-79" d="M 2059 -325 
Q 1816 -950 1584 -1140 
Q 1353 -1331 966 -1331 
L 506 -1331 
L 506 -850 
L 844 -850 
Q 1081 -850 1212 -737 
Q 1344 -625 1503 -206 
L 1606 56 
L 191 3500 
L 800 3500 
L 1894 763 
L 2988 3500 
L 3597 3500 
L 2059 -325 
z
" transform="scale(0.015625)"/>
      <path id="DejaVuSans-77" d="M 269 3500 
L 844 3500 
L 1563 769 
L 2278 3500 
L 2956 3500 
L 3675 769 
L 4391 3500 
L 4966 3500 
L 4050 0 
L 3372 0 
L 2619 2869 
L 1863 0 
L 1184 0 
L 269 3500 
z
" transform="scale(0.015625)"/>
     </defs>
     <use xlink:href="#DejaVuSans-54"/>
     <use xlink:href="#DejaVuSans-69" transform="translate(57.958984 0)"/>
     <use xlink:href="#DejaVuSans-6d" transform="translate(85.742188 0)"/>
     <use xlink:href="#DejaVuSans-65" transform="translate(183.154297 0)"/>
     <use xlink:href="#DejaVuSans-20" transform="translate(244.677734 0)"/>
     <use xlink:href="#DejaVuSans-53" transform="translate(276.464844 0)"/>
     <use xlink:href="#DejaVuSans-65" transform="translate(339.941406 0)"/>
     <use xlink:href="#DejaVuSans-72" transform="translate(401.464844 0)"/>
     <use xlink:href="#DejaVuSans-69" transform="translate(442.578125 0)"/>
     <use xlink:href="#DejaVuSans-65" transform="translate(470.361328 0)"/>
     <use xlink:href="#DejaVuSans-73" transform="translate(531.884766 0)"/>
     <use xlink:href="#DejaVuSans-20" transform="translate(583.984375 0)"/>
     <use xlink:href="#DejaVuSans-6f" transform="translate(615.771484 0)"/>
     <use xlink:href="#DejaVuSans-66" transform="translate(676.953125 0)"/>
     <use xlink:href="#DejaVuSans-20" transform="translate(712.158203 0)"/>
     <use xlink:href="#DejaVuSans-56" transform="translate(743.945312 0)"/>
     <use xlink:href="#DejaVuSans-6f" transform="translate(804.603516 0)"/>
     <use xlink:href="#DejaVuSans-74" transform="translate(865.785156 0)"/>
     <use xlink:href="#DejaVuSans-65" transform="translate(904.994141 0)"/>
     <use xlink:href="#DejaVuSans-73" transform="translate(966.517578 0)"/>
     <use xlink:href="#DejaVuSans-20" transform="translate(1018.617188 0)"/>
     <use xlink:href="#DejaVuSans-66" transform="translate(1050.404297 0)"/>
     <use xlink:href="#DejaVuSans-6f" transform="translate(1085.609375 0)"/>
     <use xlink:href="#DejaVuSans-72" transform="translate(1146.791016 0)"/>
     <use xlink:href="#DejaVuSans-20" transform="translate(1187.904297 0)"/>
     <use xlink:href="#DejaVuSans-45" transform="translate(1219.691406 0)"/>
     <use xlink:href="#DejaVuSans-61" transform="translate(1282.875 0)"/>
     <use xlink:href="#DejaVuSans-63" transform="translate(1344.154297 0)"/>
     <use xlink:href="#DejaVuSans-68" transform="translate(1399.134766 0)"/>
     <use xlink:href="#DejaVuSans-20" transform="translate(1462.513672 0)"/>
     <use xlink:href="#DejaVuSans-4b" transform="translate(1494.300781 0)"/>
     <use xlink:href="#DejaVuSans-65" transform="translate(1554.876953 0)"/>
     <use xlink:href="#DejaVuSans-79" transform="translate(1616.400391 0)"/>
     <use xlink:href="#DejaVuSans-77" transform="translate(1675.580078 0)"/>
     <use xlink:href="#DejaVuSans-6f" transform="translate(1757.367188 0)"/>
     <use xlink:href="#DejaVuSans-72" transform="translate(1818.548828 0)"/>
     <use xlink:href="#DejaVuSans-64" transform="translate(1857.912109 0)"/>
    </g>
   </g>
   <g id="legend_1">
    <g id="patch_7">
     <path d="M 97 235.9775 
L 149.245313 235.9775 
Q 151.245313 235.9775 151.245313 233.9775 
L 151.245313 58.84 
Q 151.245313 56.84 149.245313 56.84 
L 97 56.84 
Q 95 56.84 95 58.84 
L 95 233.9775 
Q 95 235.9775 97 235.9775 
z
" style="fill: #ffffff; opacity: 0.8; stroke: #cccccc; stroke-linejoin: miter"/>
    </g>
    <g id="line2d_37">
     <path d="M 99 64.938437 
L 109 64.938437 
L 119 64.938437 
" style="fill: none; stroke: #1f77b4; stroke-width: 1.5; stroke-linecap: square"/>
    </g>
    <g id="text_16">
     <!-- H01 -->
     <g transform="translate(127 68.438437) scale(0.1 -0.1)">
      <defs>
       <path id="DejaVuSans-48" d="M 628 4666 
L 1259 4666 
L 1259 2753 
L 3553 2753 
L 3553 4666 
L 4184 4666 
L 4184 0 
L 3553 0 
L 3553 2222 
L 1259 2222 
L 1259 0 
L 628 0 
L 628 4666 
z
" transform="scale(0.015625)"/>
      </defs>
      <use xlink:href="#DejaVuSans-48"/>
      <use xlink:href="#DejaVuSans-30" transform="translate(75.195312 0)"/>
      <use xlink:href="#DejaVuSans-31" transform="translate(138.818359 0)"/>
     </g>
    </g>
    <g id="line2d_38">
     <path d="M 99 79.616562 
L 109 79.616562 
L 119 79.616562 
" style="fill: none; stroke: #ff7f0e; stroke-width: 1.5; stroke-linecap: square"/>
    </g>
    <g id="text_17">
     <!-- H02 -->
     <g transform="translate(127 83.116562) scale(0.1 -0.1)">
      <use xlink:href="#DejaVuSans-48"/>
      <use xlink:href="#DejaVuSans-30" transform="translate(75.195312 0)"/>
      <use xlink:href="#DejaVuSans-32" transform="translate(138.818359 0)"/>
     </g>
    </g>
    <g id="line2d_39">
     <path d="M 99 94.294688 
L 109 94.294688 
L 119 94.294688 
" style="fill: none; stroke: #2ca02c; stroke-width: 1.5; stroke-linecap: square"/>
    </g>
    <g id="text_18">
     <!-- H03 -->
     <g transform="translate(127 97.794688) scale(0.1 -0.1)">
      <defs>
       <path id="DejaVuSans-33" d="M 2597 2516 
Q 3050 2419 3304 2112 
Q 3559 1806 3559 1356 
Q 3559 666 3084 287 
Q 2609 -91 1734 -91 
Q 1441 -91 1130 -33 
Q 819 25 488 141 
L 488 750 
Q 750 597 1062 519 
Q 1375 441 1716 441 
Q 2309 441 2620 675 
Q 2931 909 2931 1356 
Q 2931 1769 2642 2001 
Q 2353 2234 1838 2234 
L 1294 2234 
L 1294 2753 
L 1863 2753 
Q 2328 2753 2575 2939 
Q 2822 3125 2822 3475 
Q 2822 3834 2567 4026 
Q 2313 4219 1838 4219 
Q 1578 4219 1281 4162 
Q 984 4106 628 3988 
L 628 4550 
Q 988 4650 1302 4700 
Q 1616 4750 1894 4750 
Q 2613 4750 3031 4423 
Q 3450 4097 3450 3541 
Q 3450 3153 3228 2886 
Q 3006 2619 2597 2516 
z
" transform="scale(0.015625)"/>
      </defs>
      <use xlink:href="#DejaVuSans-48"/>
      <use xlink:href="#DejaVuSans-30" transform="translate(75.195312 0)"/>
      <use xlink:href="#DejaVuSans-33" transform="translate(138.818359 0)"/>
     </g>
    </g>
    <g id="line2d_40">
     <path d="M 99 108.972812 
L 109 108.972812 
L 119 108.972812 
" style="fill: none; stroke: #d62728; stroke-width: 1.5; stroke-linecap: square"/>
    </g>
    <g id="text_19">
     <!-- H04 -->
     <g transform="translate(127 112.472812) scale(0.1 -0.1)">
      <use xlink:href="#DejaVuSans-48"/>
      <use xlink:href="#DejaVuSans-30" transform="translate(75.195312 0)"/>
      <use xlink:href="#DejaVuSans-34" transform="translate(138.818359 0)"/>
     </g>
    </g>
    <g id="line2d_41">
     <path d="M 99 123.650937 
L 109 123.650937 
L 119 123.650937 
" style="fill: none; stroke: #9467bd; stroke-width: 1.5; stroke-linecap: square"/>
    </g>
    <g id="text_20">
     <!-- H05 -->
     <g transform="translate(127 127.150937) scale(0.1 -0.1)">
      <use xlink:href="#DejaVuSans-48"/>
      <use xlink:href="#DejaVuSans-30" transform="translate(75.195312 0)"/>
      <use xlink:href="#DejaVuSans-35" transform="translate(138.818359 0)"/>
     </g>
    </g>
    <g id="line2d_42">
     <path d="M 99 138.329062 
L 109 138.329062 
L 119 138.329062 
" style="fill: none; stroke: #8c564b; stroke-width: 1.5; stroke-linecap: square"/>
    </g>
    <g id="text_21">
     <!-- H06 -->
     <g transform="translate(127 141.829062) scale(0.1 -0.1)">
      <use xlink:href="#DejaVuSans-48"/>
      <use xlink:href="#DejaVuSans-30" transform="translate(75.195312 0)"/>
      <use xlink:href="#DejaVuSans-36" transform="translate(138.818359 0)"/>
     </g>
    </g>
    <g id="line2d_43">
     <path d="M 99 153.007187 
L 109 153.007187 
L 119 153.007187 
" style="fill: none; stroke: #e377c2; stroke-width: 1.5; stroke-linecap: square"/>
    </g>
    <g id="text_22">
     <!-- H07 -->
     <g transform="translate(127 156.507187) scale(0.1 -0.1)">
      <use xlink:href="#DejaVuSans-48"/>
      <use xlink:href="#DejaVuSans-30" transform="translate(75.195312 0)"/>
      <use xlink:href="#DejaVuSans-37" transform="translate(138.818359 0)"/>
     </g>
    </g>
    <g id="line2d_44">
     <path d="M 99 167.685312 
L 109 167.685312 
L 119 167.685312 
" style="fill: none; stroke: #7f7f7f; stroke-width: 1.5; stroke-linecap: square"/>
    </g>
    <g id="text_23">
     <!-- H08 -->
     <g transform="translate(127 171.185312) scale(0.1 -0.1)">
      <use xlink:href="#DejaVuSans-48"/>
      <use xlink:href="#DejaVuSans-30" transform="translate(75.195312 0)"/>
      <use xlink:href="#DejaVuSans-38" transform="translate(138.818359 0)"/>
     </g>
    </g>
    <g id="line2d_45">
     <path d="M 99 182.363437 
L 109 182.363437 
L 119 182.363437 
" style="fill: none; stroke: #bcbd22; stroke-width: 1.5; stroke-linecap: square"/>
    </g>
    <g id="text_24">
     <!-- H09 -->
     <g transform="translate(127 185.863437) scale(0.1 -0.1)">
      <use xlink:href="#DejaVuSans-48"/>
      <use xlink:href="#DejaVuSans-30" transform="translate(75.195312 0)"/>
      <use xlink:href="#DejaVuSans-39" transform="translate(138.818359 0)"/>
     </g>
    </g>
    <g id="line2d_46">
     <path d="M 99 197.041562 
L 109 197.041562 
L 119 197.041562 
" style="fill: none; stroke: #17becf; stroke-width: 1.5; stroke-linecap: square"/>
    </g>
    <g id="text_25">
     <!-- H10 -->
     <g transform="translate(127 200.541562) scale(0.1 -0.1)">
      <use xlink:href="#DejaVuSans-48"/>
      <use xlink:href="#DejaVuSans-31" transform="translate(75.195312 0)"/>
      <use xlink:href="#DejaVuSans-30" transform="translate(138.818359 0)"/>
     </g>
    </g>
    <g id="line2d_47">
     <path d="M 99 211.719687 
L 109 211.719687 
L 119 211.719687 
" style="fill: none; stroke: #1f77b4; stroke-width: 1.5; stroke-linecap: square"/>
    </g>
    <g id="text_26">
     <!-- H11 -->
     <g transform="translate(127 215.219687) scale(0.1 -0.1)">
      <use xlink:href="#DejaVuSans-48"/>
      <use xlink:href="#DejaVuSans-31" transform="translate(75.195312 0)"/>
      <use xlink:href="#DejaVuSans-31" transform="translate(138.818359 0)"/>
     </g>
    </g>
    <g id="line2d_48">
     <path d="M 99 226.397812 
L 109 226.397812 
L 119 226.397812 
" style="fill: none; stroke: #ff7f0e; stroke-width: 1.5; stroke-linecap: square"/>
    </g>
    <g id="text_27">
     <!-- H12 -->
     <g transform="translate(127 229.897812) scale(0.1 -0.1)">
      <use xlink:href="#DejaVuSans-48"/>
      <use xlink:href="#DejaVuSans-31" transform="translate(75.195312 0)"/>
      <use xlink:href="#DejaVuSans-32" transform="translate(138.818359 0)"/>
     </g>
    </g>
   </g>
  </g>
 </g>
 <defs>
  <clipPath id="pc21724902a">
   <rect x="90" y="51.84" width="558" height="332.64"/>
  </clipPath>
 </defs>
</svg>
