<?xml version="1.0" encoding="utf-8" standalone="no"?>
<!DOCTYPE svg PUBLIC "-//W3C//DTD SVG 1.1//EN"
  "http://www.w3.org/Graphics/SVG/1.1/DTD/svg11.dtd">
<svg xmlns:xlink="http://www.w3.org/1999/xlink" width="720pt" height="432pt" viewBox="0 0 720 432" xmlns="http://www.w3.org/2000/svg" version="1.1">
 <metadata>
  <rdf:RDF xmlns:dc="http://purl.org/dc/elements/1.1/" xmlns:cc="http://creativecommons.org/ns#" xmlns:rdf="http://www.w3.org/1999/02/22-rdf-syntax-ns#">
   <cc:Work>
    <dc:type rdf:resource="http://purl.org/dc/dcmitype/StillImage"/>
    <dc:date>2025-01-14T18:41:29.471586</dc:date>
    <dc:format>image/svg+xml</dc:format>
    <dc:creator>
     <cc:Agent>
      <dc:title>Matplotlib v3.10.0, https://matplotlib.org/</dc:title>
     </cc:Agent>
    </dc:creator>
   </cc:Work>
  </rdf:RDF>
 </metadata>
 <defs>
  <style type="text/css">*{stroke-linejoin: round; stroke-linecap: butt}</style>
 </defs>
 <g id="figure_1">
  <g id="patch_1">
   <path d="M 0 432 
L 720 432 
L 720 0 
L 0 0 
z
" style="fill: #ffffff"/>
  </g>
  <g id="axes_1">
   <g id="patch_2">
    <path d="M 90 384.48 
L 648 384.48 
L 648 51.84 
L 90 51.84 
z
" style="fill: #ffffff"/>
   </g>
   <g id="matplotlib.axis_1">
    <g id="xtick_1">
     <g id="line2d_1">
      <path d="M 159.832349 384.48 
L 159.832349 51.84 
" clip-path="url(#pf54d7c5e50)" style="fill: none; stroke: #b0b0b0; stroke-width: 0.8; stroke-linecap: square"/>
     </g>
     <g id="line2d_2">
      <defs>
       <path id="m99a33c6e89" d="M 0 0 
L 0 3.5 
" style="stroke: #000000; stroke-width: 0.8"/>
      </defs>
      <g>
       <use xlink:href="#m99a33c6e89" x="159.832349" y="384.48" style="stroke: #000000; stroke-width: 0.8"/>
      </g>
     </g>
     <g id="text_1">
      <!-- 01-14 14 -->
      <g transform="translate(137.351881 399.078438) scale(0.1 -0.1)">
       <defs>
        <path id="DejaVuSans-30" d="M 2034 4250 
Q 1547 4250 1301 3770 
Q 1056 3291 1056 2328 
Q 1056 1369 1301 889 
Q 1547 409 2034 409 
Q 2525 409 2770 889 
Q 3016 1369 3016 2328 
Q 3016 3291 2770 3770 
Q 2525 4250 2034 4250 
z
M 2034 4750 
Q 2819 4750 3233 4129 
Q 3647 3509 3647 2328 
Q 3647 1150 3233 529 
Q 2819 -91 2034 -91 
Q 1250 -91 836 529 
Q 422 1150 422 2328 
Q 422 3509 836 4129 
Q 1250 4750 2034 4750 
z
" transform="scale(0.015625)"/>
        <path id="DejaVuSans-31" d="M 794 531 
L 1825 531 
L 1825 4091 
L 703 3866 
L 703 4441 
L 1819 4666 
L 2450 4666 
L 2450 531 
L 3481 531 
L 3481 0 
L 794 0 
L 794 531 
z
" transform="scale(0.015625)"/>
        <path id="DejaVuSans-2d" d="M 313 2009 
L 1997 2009 
L 1997 1497 
L 313 1497 
L 313 2009 
z
" transform="scale(0.015625)"/>
        <path id="DejaVuSans-34" d="M 2419 4116 
L 825 1625 
L 2419 1625 
L 2419 4116 
z
M 2253 4666 
L 3047 4666 
L 3047 1625 
L 3713 1625 
L 3713 1100 
L 3047 1100 
L 3047 0 
L 2419 0 
L 2419 1100 
L 313 1100 
L 313 1709 
L 2253 4666 
z
" transform="scale(0.015625)"/>
        <path id="DejaVuSans-20" transform="scale(0.015625)"/>
       </defs>
       <use xlink:href="#DejaVuSans-30"/>
       <use xlink:href="#DejaVuSans-31" transform="translate(63.623047 0)"/>
       <use xlink:href="#DejaVuSans-2d" transform="translate(127.246094 0)"/>
       <use xlink:href="#DejaVuSans-31" transform="translate(163.330078 0)"/>
       <use xlink:href="#DejaVuSans-34" transform="translate(226.953125 0)"/>
       <use xlink:href="#DejaVuSans-20" transform="translate(290.576172 0)"/>
       <use xlink:href="#DejaVuSans-31" transform="translate(322.363281 0)"/>
       <use xlink:href="#DejaVuSans-34" transform="translate(385.986328 0)"/>
      </g>
     </g>
    </g>
    <g id="xtick_2">
     <g id="line2d_3">
      <path d="M 258.651712 384.48 
L 258.651712 51.84 
" clip-path="url(#pf54d7c5e50)" style="fill: none; stroke: #b0b0b0; stroke-width: 0.8; stroke-linecap: square"/>
     </g>
     <g id="line2d_4">
      <g>
       <use xlink:href="#m99a33c6e89" x="258.651712" y="384.48" style="stroke: #000000; stroke-width: 0.8"/>
      </g>
     </g>
     <g id="text_2">
      <!-- 01-14 15 -->
      <g transform="translate(236.171243 399.078438) scale(0.1 -0.1)">
       <defs>
        <path id="DejaVuSans-35" d="M 691 4666 
L 3169 4666 
L 3169 4134 
L 1269 4134 
L 1269 2991 
Q 1406 3038 1543 3061 
Q 1681 3084 1819 3084 
Q 2600 3084 3056 2656 
Q 3513 2228 3513 1497 
Q 3513 744 3044 326 
Q 2575 -91 1722 -91 
Q 1428 -91 1123 -41 
Q 819 9 494 109 
L 494 744 
Q 775 591 1075 516 
Q 1375 441 1709 441 
Q 2250 441 2565 725 
Q 2881 1009 2881 1497 
Q 2881 1984 2565 2268 
Q 2250 2553 1709 2553 
Q 1456 2553 1204 2497 
Q 953 2441 691 2322 
L 691 4666 
z
" transform="scale(0.015625)"/>
       </defs>
       <use xlink:href="#DejaVuSans-30"/>
       <use xlink:href="#DejaVuSans-31" transform="translate(63.623047 0)"/>
       <use xlink:href="#DejaVuSans-2d" transform="translate(127.246094 0)"/>
       <use xlink:href="#DejaVuSans-31" transform="translate(163.330078 0)"/>
       <use xlink:href="#DejaVuSans-34" transform="translate(226.953125 0)"/>
       <use xlink:href="#DejaVuSans-20" transform="translate(290.576172 0)"/>
       <use xlink:href="#DejaVuSans-31" transform="translate(322.363281 0)"/>
       <use xlink:href="#DejaVuSans-35" transform="translate(385.986328 0)"/>
      </g>
     </g>
    </g>
    <g id="xtick_3">
     <g id="line2d_5">
      <path d="M 357.471074 384.48 
L 357.471074 51.84 
" clip-path="url(#pf54d7c5e50)" style="fill: none; stroke: #b0b0b0; stroke-width: 0.8; stroke-linecap: square"/>
     </g>
     <g id="line2d_6">
      <g>
       <use xlink:href="#m99a33c6e89" x="357.471074" y="384.48" style="stroke: #000000; stroke-width: 0.8"/>
      </g>
     </g>
     <g id="text_3">
      <!-- 01-14 16 -->
      <g transform="translate(334.990606 399.078438) scale(0.1 -0.1)">
       <defs>
        <path id="DejaVuSans-36" d="M 2113 2584 
Q 1688 2584 1439 2293 
Q 1191 2003 1191 1497 
Q 1191 994 1439 701 
Q 1688 409 2113 409 
Q 2538 409 2786 701 
Q 3034 994 3034 1497 
Q 3034 2003 2786 2293 
Q 2538 2584 2113 2584 
z
M 3366 4563 
L 3366 3988 
Q 3128 4100 2886 4159 
Q 2644 4219 2406 4219 
Q 1781 4219 1451 3797 
Q 1122 3375 1075 2522 
Q 1259 2794 1537 2939 
Q 1816 3084 2150 3084 
Q 2853 3084 3261 2657 
Q 3669 2231 3669 1497 
Q 3669 778 3244 343 
Q 2819 -91 2113 -91 
Q 1303 -91 875 529 
Q 447 1150 447 2328 
Q 447 3434 972 4092 
Q 1497 4750 2381 4750 
Q 2619 4750 2861 4703 
Q 3103 4656 3366 4563 
z
" transform="scale(0.015625)"/>
       </defs>
       <use xlink:href="#DejaVuSans-30"/>
       <use xlink:href="#DejaVuSans-31" transform="translate(63.623047 0)"/>
       <use xlink:href="#DejaVuSans-2d" transform="translate(127.246094 0)"/>
       <use xlink:href="#DejaVuSans-31" transform="translate(163.330078 0)"/>
       <use xlink:href="#DejaVuSans-34" transform="translate(226.953125 0)"/>
       <use xlink:href="#DejaVuSans-20" transform="translate(290.576172 0)"/>
       <use xlink:href="#DejaVuSans-31" transform="translate(322.363281 0)"/>
       <use xlink:href="#DejaVuSans-36" transform="translate(385.986328 0)"/>
      </g>
     </g>
    </g>
    <g id="xtick_4">
     <g id="line2d_7">
      <path d="M 456.290437 384.48 
L 456.290437 51.84 
" clip-path="url(#pf54d7c5e50)" style="fill: none; stroke: #b0b0b0; stroke-width: 0.8; stroke-linecap: square"/>
     </g>
     <g id="line2d_8">
      <g>
       <use xlink:href="#m99a33c6e89" x="456.290437" y="384.48" style="stroke: #000000; stroke-width: 0.8"/>
      </g>
     </g>
     <g id="text_4">
      <!-- 01-14 17 -->
      <g transform="translate(433.809968 399.078438) scale(0.1 -0.1)">
       <defs>
        <path id="DejaVuSans-37" d="M 525 4666 
L 3525 4666 
L 3525 4397 
L 1831 0 
L 1172 0 
L 2766 4134 
L 525 4134 
L 525 4666 
z
" transform="scale(0.015625)"/>
       </defs>
       <use xlink:href="#DejaVuSans-30"/>
       <use xlink:href="#DejaVuSans-31" transform="translate(63.623047 0)"/>
       <use xlink:href="#DejaVuSans-2d" transform="translate(127.246094 0)"/>
       <use xlink:href="#DejaVuSans-31" transform="translate(163.330078 0)"/>
       <use xlink:href="#DejaVuSans-34" transform="translate(226.953125 0)"/>
       <use xlink:href="#DejaVuSans-20" transform="translate(290.576172 0)"/>
       <use xlink:href="#DejaVuSans-31" transform="translate(322.363281 0)"/>
       <use xlink:href="#DejaVuSans-37" transform="translate(385.986328 0)"/>
      </g>
     </g>
    </g>
    <g id="xtick_5">
     <g id="line2d_9">
      <path d="M 555.109799 384.48 
L 555.109799 51.84 
" clip-path="url(#pf54d7c5e50)" style="fill: none; stroke: #b0b0b0; stroke-width: 0.8; stroke-linecap: square"/>
     </g>
     <g id="line2d_10">
      <g>
       <use xlink:href="#m99a33c6e89" x="555.109799" y="384.48" style="stroke: #000000; stroke-width: 0.8"/>
      </g>
     </g>
     <g id="text_5">
      <!-- 01-14 18 -->
      <g transform="translate(532.629331 399.078438) scale(0.1 -0.1)">
       <defs>
        <path id="DejaVuSans-38" d="M 2034 2216 
Q 1584 2216 1326 1975 
Q 1069 1734 1069 1313 
Q 1069 891 1326 650 
Q 1584 409 2034 409 
Q 2484 409 2743 651 
Q 3003 894 3003 1313 
Q 3003 1734 2745 1975 
Q 2488 2216 2034 2216 
z
M 1403 2484 
Q 997 2584 770 2862 
Q 544 3141 544 3541 
Q 544 4100 942 4425 
Q 1341 4750 2034 4750 
Q 2731 4750 3128 4425 
Q 3525 4100 3525 3541 
Q 3525 3141 3298 2862 
Q 3072 2584 2669 2484 
Q 3125 2378 3379 2068 
Q 3634 1759 3634 1313 
Q 3634 634 3220 271 
Q 2806 -91 2034 -91 
Q 1263 -91 848 271 
Q 434 634 434 1313 
Q 434 1759 690 2068 
Q 947 2378 1403 2484 
z
M 1172 3481 
Q 1172 3119 1398 2916 
Q 1625 2713 2034 2713 
Q 2441 2713 2670 2916 
Q 2900 3119 2900 3481 
Q 2900 3844 2670 4047 
Q 2441 4250 2034 4250 
Q 1625 4250 1398 4047 
Q 1172 3844 1172 3481 
z
" transform="scale(0.015625)"/>
       </defs>
       <use xlink:href="#DejaVuSans-30"/>
       <use xlink:href="#DejaVuSans-31" transform="translate(63.623047 0)"/>
       <use xlink:href="#DejaVuSans-2d" transform="translate(127.246094 0)"/>
       <use xlink:href="#DejaVuSans-31" transform="translate(163.330078 0)"/>
       <use xlink:href="#DejaVuSans-34" transform="translate(226.953125 0)"/>
       <use xlink:href="#DejaVuSans-20" transform="translate(290.576172 0)"/>
       <use xlink:href="#DejaVuSans-31" transform="translate(322.363281 0)"/>
       <use xlink:href="#DejaVuSans-38" transform="translate(385.986328 0)"/>
      </g>
     </g>
    </g>
    <g id="text_6">
     <!-- Date and Time -->
     <g transform="translate(332.230469 412.756563) scale(0.1 -0.1)">
      <defs>
       <path id="DejaVuSans-44" d="M 1259 4147 
L 1259 519 
L 2022 519 
Q 2988 519 3436 956 
Q 3884 1394 3884 2338 
Q 3884 3275 3436 3711 
Q 2988 4147 2022 4147 
L 1259 4147 
z
M 628 4666 
L 1925 4666 
Q 3281 4666 3915 4102 
Q 4550 3538 4550 2338 
Q 4550 1131 3912 565 
Q 3275 0 1925 0 
L 628 0 
L 628 4666 
z
" transform="scale(0.015625)"/>
       <path id="DejaVuSans-61" d="M 2194 1759 
Q 1497 1759 1228 1600 
Q 959 1441 959 1056 
Q 959 750 1161 570 
Q 1363 391 1709 391 
Q 2188 391 2477 730 
Q 2766 1069 2766 1631 
L 2766 1759 
L 2194 1759 
z
M 3341 1997 
L 3341 0 
L 2766 0 
L 2766 531 
Q 2569 213 2275 61 
Q 1981 -91 1556 -91 
Q 1019 -91 701 211 
Q 384 513 384 1019 
Q 384 1609 779 1909 
Q 1175 2209 1959 2209 
L 2766 2209 
L 2766 2266 
Q 2766 2663 2505 2880 
Q 2244 3097 1772 3097 
Q 1472 3097 1187 3025 
Q 903 2953 641 2809 
L 641 3341 
Q 956 3463 1253 3523 
Q 1550 3584 1831 3584 
Q 2591 3584 2966 3190 
Q 3341 2797 3341 1997 
z
" transform="scale(0.015625)"/>
       <path id="DejaVuSans-74" d="M 1172 4494 
L 1172 3500 
L 2356 3500 
L 2356 3053 
L 1172 3053 
L 1172 1153 
Q 1172 725 1289 603 
Q 1406 481 1766 481 
L 2356 481 
L 2356 0 
L 1766 0 
Q 1100 0 847 248 
Q 594 497 594 1153 
L 594 3053 
L 172 3053 
L 172 3500 
L 594 3500 
L 594 4494 
L 1172 4494 
z
" transform="scale(0.015625)"/>
       <path id="DejaVuSans-65" d="M 3597 1894 
L 3597 1613 
L 953 1613 
Q 991 1019 1311 708 
Q 1631 397 2203 397 
Q 2534 397 2845 478 
Q 3156 559 3463 722 
L 3463 178 
Q 3153 47 2828 -22 
Q 2503 -91 2169 -91 
Q 1331 -91 842 396 
Q 353 884 353 1716 
Q 353 2575 817 3079 
Q 1281 3584 2069 3584 
Q 2775 3584 3186 3129 
Q 3597 2675 3597 1894 
z
M 3022 2063 
Q 3016 2534 2758 2815 
Q 2500 3097 2075 3097 
Q 1594 3097 1305 2825 
Q 1016 2553 972 2059 
L 3022 2063 
z
" transform="scale(0.015625)"/>
       <path id="DejaVuSans-6e" d="M 3513 2113 
L 3513 0 
L 2938 0 
L 2938 2094 
Q 2938 2591 2744 2837 
Q 2550 3084 2163 3084 
Q 1697 3084 1428 2787 
Q 1159 2491 1159 1978 
L 1159 0 
L 581 0 
L 581 3500 
L 1159 3500 
L 1159 2956 
Q 1366 3272 1645 3428 
Q 1925 3584 2291 3584 
Q 2894 3584 3203 3211 
Q 3513 2838 3513 2113 
z
" transform="scale(0.015625)"/>
       <path id="DejaVuSans-64" d="M 2906 2969 
L 2906 4863 
L 3481 4863 
L 3481 0 
L 2906 0 
L 2906 525 
Q 2725 213 2448 61 
Q 2172 -91 1784 -91 
Q 1150 -91 751 415 
Q 353 922 353 1747 
Q 353 2572 751 3078 
Q 1150 3584 1784 3584 
Q 2172 3584 2448 3432 
Q 2725 3281 2906 2969 
z
M 947 1747 
Q 947 1113 1208 752 
Q 1469 391 1925 391 
Q 2381 391 2643 752 
Q 2906 1113 2906 1747 
Q 2906 2381 2643 2742 
Q 2381 3103 1925 3103 
Q 1469 3103 1208 2742 
Q 947 2381 947 1747 
z
" transform="scale(0.015625)"/>
       <path id="DejaVuSans-54" d="M -19 4666 
L 3928 4666 
L 3928 4134 
L 2272 4134 
L 2272 0 
L 1638 0 
L 1638 4134 
L -19 4134 
L -19 4666 
z
" transform="scale(0.015625)"/>
       <path id="DejaVuSans-69" d="M 603 3500 
L 1178 3500 
L 1178 0 
L 603 0 
L 603 3500 
z
M 603 4863 
L 1178 4863 
L 1178 4134 
L 603 4134 
L 603 4863 
z
" transform="scale(0.015625)"/>
       <path id="DejaVuSans-6d" d="M 3328 2828 
Q 3544 3216 3844 3400 
Q 4144 3584 4550 3584 
Q 5097 3584 5394 3201 
Q 5691 2819 5691 2113 
L 5691 0 
L 5113 0 
L 5113 2094 
Q 5113 2597 4934 2840 
Q 4756 3084 4391 3084 
Q 3944 3084 3684 2787 
Q 3425 2491 3425 1978 
L 3425 0 
L 2847 0 
L 2847 2094 
Q 2847 2600 2669 2842 
Q 2491 3084 2119 3084 
Q 1678 3084 1418 2786 
Q 1159 2488 1159 1978 
L 1159 0 
L 581 0 
L 581 3500 
L 1159 3500 
L 1159 2956 
Q 1356 3278 1631 3431 
Q 1906 3584 2284 3584 
Q 2666 3584 2933 3390 
Q 3200 3197 3328 2828 
z
" transform="scale(0.015625)"/>
      </defs>
      <use xlink:href="#DejaVuSans-44"/>
      <use xlink:href="#DejaVuSans-61" transform="translate(77.001953 0)"/>
      <use xlink:href="#DejaVuSans-74" transform="translate(138.28125 0)"/>
      <use xlink:href="#DejaVuSans-65" transform="translate(177.490234 0)"/>
      <use xlink:href="#DejaVuSans-20" transform="translate(239.013672 0)"/>
      <use xlink:href="#DejaVuSans-61" transform="translate(270.800781 0)"/>
      <use xlink:href="#DejaVuSans-6e" transform="translate(332.080078 0)"/>
      <use xlink:href="#DejaVuSans-64" transform="translate(395.458984 0)"/>
      <use xlink:href="#DejaVuSans-20" transform="translate(458.935547 0)"/>
      <use xlink:href="#DejaVuSans-54" transform="translate(490.722656 0)"/>
      <use xlink:href="#DejaVuSans-69" transform="translate(548.681641 0)"/>
      <use xlink:href="#DejaVuSans-6d" transform="translate(576.464844 0)"/>
      <use xlink:href="#DejaVuSans-65" transform="translate(673.876953 0)"/>
     </g>
    </g>
   </g>
   <g id="matplotlib.axis_2">
    <g id="ytick_1">
     <g id="line2d_11">
      <path d="M 90 370.62 
L 648 370.62 
" clip-path="url(#pf54d7c5e50)" style="fill: none; stroke: #b0b0b0; stroke-width: 0.8; stroke-linecap: square"/>
     </g>
     <g id="line2d_12">
      <defs>
       <path id="m8cbdaab380" d="M 0 0 
L -3.5 0 
" style="stroke: #000000; stroke-width: 0.8"/>
      </defs>
      <g>
       <use xlink:href="#m8cbdaab380" x="90" y="370.62" style="stroke: #000000; stroke-width: 0.8"/>
      </g>
     </g>
     <g id="text_7">
      <!-- 0 -->
      <g transform="translate(76.6375 374.419219) scale(0.1 -0.1)">
       <use xlink:href="#DejaVuSans-30"/>
      </g>
     </g>
    </g>
    <g id="ytick_2">
     <g id="line2d_13">
      <path d="M 90 307.62 
L 648 307.62 
" clip-path="url(#pf54d7c5e50)" style="fill: none; stroke: #b0b0b0; stroke-width: 0.8; stroke-linecap: square"/>
     </g>
     <g id="line2d_14">
      <g>
       <use xlink:href="#m8cbdaab380" x="90" y="307.62" style="stroke: #000000; stroke-width: 0.8"/>
      </g>
     </g>
     <g id="text_8">
      <!-- 50 -->
      <g transform="translate(70.275 311.419219) scale(0.1 -0.1)">
       <use xlink:href="#DejaVuSans-35"/>
       <use xlink:href="#DejaVuSans-30" transform="translate(63.623047 0)"/>
      </g>
     </g>
    </g>
    <g id="ytick_3">
     <g id="line2d_15">
      <path d="M 90 244.62 
L 648 244.62 
" clip-path="url(#pf54d7c5e50)" style="fill: none; stroke: #b0b0b0; stroke-width: 0.8; stroke-linecap: square"/>
     </g>
     <g id="line2d_16">
      <g>
       <use xlink:href="#m8cbdaab380" x="90" y="244.62" style="stroke: #000000; stroke-width: 0.8"/>
      </g>
     </g>
     <g id="text_9">
      <!-- 100 -->
      <g transform="translate(63.9125 248.419219) scale(0.1 -0.1)">
       <use xlink:href="#DejaVuSans-31"/>
       <use xlink:href="#DejaVuSans-30" transform="translate(63.623047 0)"/>
       <use xlink:href="#DejaVuSans-30" transform="translate(127.246094 0)"/>
      </g>
     </g>
    </g>
    <g id="ytick_4">
     <g id="line2d_17">
      <path d="M 90 181.62 
L 648 181.62 
" clip-path="url(#pf54d7c5e50)" style="fill: none; stroke: #b0b0b0; stroke-width: 0.8; stroke-linecap: square"/>
     </g>
     <g id="line2d_18">
      <g>
       <use xlink:href="#m8cbdaab380" x="90" y="181.62" style="stroke: #000000; stroke-width: 0.8"/>
      </g>
     </g>
     <g id="text_10">
      <!-- 150 -->
      <g transform="translate(63.9125 185.419219) scale(0.1 -0.1)">
       <use xlink:href="#DejaVuSans-31"/>
       <use xlink:href="#DejaVuSans-35" transform="translate(63.623047 0)"/>
       <use xlink:href="#DejaVuSans-30" transform="translate(127.246094 0)"/>
      </g>
     </g>
    </g>
    <g id="ytick_5">
     <g id="line2d_19">
      <path d="M 90 118.62 
L 648 118.62 
" clip-path="url(#pf54d7c5e50)" style="fill: none; stroke: #b0b0b0; stroke-width: 0.8; stroke-linecap: square"/>
     </g>
     <g id="line2d_20">
      <g>
       <use xlink:href="#m8cbdaab380" x="90" y="118.62" style="stroke: #000000; stroke-width: 0.8"/>
      </g>
     </g>
     <g id="text_11">
      <!-- 200 -->
      <g transform="translate(63.9125 122.419219) scale(0.1 -0.1)">
       <defs>
        <path id="DejaVuSans-32" d="M 1228 531 
L 3431 531 
L 3431 0 
L 469 0 
L 469 531 
Q 828 903 1448 1529 
Q 2069 2156 2228 2338 
Q 2531 2678 2651 2914 
Q 2772 3150 2772 3378 
Q 2772 3750 2511 3984 
Q 2250 4219 1831 4219 
Q 1534 4219 1204 4116 
Q 875 4013 500 3803 
L 500 4441 
Q 881 4594 1212 4672 
Q 1544 4750 1819 4750 
Q 2544 4750 2975 4387 
Q 3406 4025 3406 3419 
Q 3406 3131 3298 2873 
Q 3191 2616 2906 2266 
Q 2828 2175 2409 1742 
Q 1991 1309 1228 531 
z
" transform="scale(0.015625)"/>
       </defs>
       <use xlink:href="#DejaVuSans-32"/>
       <use xlink:href="#DejaVuSans-30" transform="translate(63.623047 0)"/>
       <use xlink:href="#DejaVuSans-30" transform="translate(127.246094 0)"/>
      </g>
     </g>
    </g>
    <g id="ytick_6">
     <g id="line2d_21">
      <path d="M 90 55.62 
L 648 55.62 
" clip-path="url(#pf54d7c5e50)" style="fill: none; stroke: #b0b0b0; stroke-width: 0.8; stroke-linecap: square"/>
     </g>
     <g id="line2d_22">
      <g>
       <use xlink:href="#m8cbdaab380" x="90" y="55.62" style="stroke: #000000; stroke-width: 0.8"/>
      </g>
     </g>
     <g id="text_12">
      <!-- 250 -->
      <g transform="translate(63.9125 59.419219) scale(0.1 -0.1)">
       <use xlink:href="#DejaVuSans-32"/>
       <use xlink:href="#DejaVuSans-35" transform="translate(63.623047 0)"/>
       <use xlink:href="#DejaVuSans-30" transform="translate(127.246094 0)"/>
      </g>
     </g>
    </g>
    <g id="text_13">
     <!-- Votes -->
     <g transform="translate(57.832812 231.893594) rotate(-90) scale(0.1 -0.1)">
      <defs>
       <path id="DejaVuSans-56" d="M 1831 0 
L 50 4666 
L 709 4666 
L 2188 738 
L 3669 4666 
L 4325 4666 
L 2547 0 
L 1831 0 
z
" transform="scale(0.015625)"/>
       <path id="DejaVuSans-6f" d="M 1959 3097 
Q 1497 3097 1228 2736 
Q 959 2375 959 1747 
Q 959 1119 1226 758 
Q 1494 397 1959 397 
Q 2419 397 2687 759 
Q 2956 1122 2956 1747 
Q 2956 2369 2687 2733 
Q 2419 3097 1959 3097 
z
M 1959 3584 
Q 2709 3584 3137 3096 
Q 3566 2609 3566 1747 
Q 3566 888 3137 398 
Q 2709 -91 1959 -91 
Q 1206 -91 779 398 
Q 353 888 353 1747 
Q 353 2609 779 3096 
Q 1206 3584 1959 3584 
z
" transform="scale(0.015625)"/>
       <path id="DejaVuSans-73" d="M 2834 3397 
L 2834 2853 
Q 2591 2978 2328 3040 
Q 2066 3103 1784 3103 
Q 1356 3103 1142 2972 
Q 928 2841 928 2578 
Q 928 2378 1081 2264 
Q 1234 2150 1697 2047 
L 1894 2003 
Q 2506 1872 2764 1633 
Q 3022 1394 3022 966 
Q 3022 478 2636 193 
Q 2250 -91 1575 -91 
Q 1294 -91 989 -36 
Q 684 19 347 128 
L 347 722 
Q 666 556 975 473 
Q 1284 391 1588 391 
Q 1994 391 2212 530 
Q 2431 669 2431 922 
Q 2431 1156 2273 1281 
Q 2116 1406 1581 1522 
L 1381 1569 
Q 847 1681 609 1914 
Q 372 2147 372 2553 
Q 372 3047 722 3315 
Q 1072 3584 1716 3584 
Q 2034 3584 2315 3537 
Q 2597 3491 2834 3397 
z
" transform="scale(0.015625)"/>
      </defs>
      <use xlink:href="#DejaVuSans-56"/>
      <use xlink:href="#DejaVuSans-6f" transform="translate(60.658203 0)"/>
      <use xlink:href="#DejaVuSans-74" transform="translate(121.839844 0)"/>
      <use xlink:href="#DejaVuSans-65" transform="translate(161.048828 0)"/>
      <use xlink:href="#DejaVuSans-73" transform="translate(222.572266 0)"/>
     </g>
    </g>
   </g>
   <g id="line2d_23">
    <path d="M 115.363636 347.94 
L 131.83353 347.94 
L 133.480519 346.68 
L 149.950413 346.68 
L 151.597403 344.16 
L 166.420307 344.16 
L 168.067296 342.9 
L 176.302243 342.9 
L 177.949233 341.64 
L 184.53719 341.64 
L 186.184179 340.38 
L 191.125148 340.38 
L 192.772137 339.12 
L 215.829988 339.12 
L 217.476978 337.86 
L 235.593861 337.86 
L 238.887839 335.34 
L 242.181818 335.34 
L 243.828808 334.08 
L 258.651712 334.08 
L 261.945691 331.56 
L 281.709563 331.56 
L 283.356553 330.3 
L 288.297521 330.3 
L 289.94451 329.04 
L 291.591499 329.04 
L 293.238489 327.78 
L 337.707202 327.78 
L 339.354191 326.52 
L 359.118064 326.52 
L 360.765053 325.26 
L 372.293979 325.26 
L 373.940968 324 
L 375.587958 321.48 
L 377.234947 321.48 
L 380.528926 318.96 
L 406.880756 318.96 
L 408.527745 317.7 
L 418.409681 317.7 
L 420.056671 316.44 
L 426.644628 316.44 
L 428.291617 315.18 
L 444.761511 315.18 
L 446.408501 313.92 
L 449.702479 313.92 
L 451.349469 312.66 
L 456.290437 312.66 
L 457.937426 311.4 
L 471.113341 311.4 
L 472.760331 310.14 
L 474.40732 310.14 
L 476.054309 308.88 
L 492.524203 308.88 
L 494.171192 307.62 
L 505.700118 307.62 
L 507.347107 306.36 
L 508.994097 306.36 
L 512.288076 303.84 
L 548.521842 303.84 
L 550.168831 302.58 
L 576.520661 302.58 
L 578.167651 301.32 
L 579.81464 301.32 
L 581.461629 300.06 
L 596.284534 300.06 
L 597.931523 298.8 
L 599.578512 298.8 
L 601.225502 297.54 
L 609.460449 297.54 
L 611.107438 296.28 
L 616.048406 296.28 
L 619.342385 293.76 
L 620.989374 293.76 
L 622.636364 292.5 
L 622.636364 292.5 
" clip-path="url(#pf54d7c5e50)" style="fill: none; stroke: #1f77b4; stroke-width: 1.5; stroke-linecap: square"/>
   </g>
   <g id="line2d_24">
    <path d="M 115.363636 267.3 
L 117.010626 266.04 
L 121.951594 266.04 
L 123.598583 264.78 
L 125.245573 264.78 
L 126.892562 263.52 
L 128.539551 263.52 
L 131.83353 261 
L 133.480519 258.48 
L 135.127509 258.48 
L 138.421488 255.96 
L 140.068477 255.96 
L 141.715466 250.92 
L 143.362456 248.4 
L 145.009445 243.36 
L 146.656434 239.58 
L 151.597403 239.58 
L 153.244392 235.8 
L 154.891381 233.28 
L 158.18536 230.76 
L 159.832349 228.24 
L 163.126328 225.72 
L 164.773318 223.2 
L 169.714286 223.2 
L 171.361275 216.9 
L 173.008264 214.38 
L 174.655254 213.12 
L 176.302243 210.6 
L 177.949233 209.34 
L 179.596222 209.34 
L 181.243211 205.56 
L 182.890201 205.56 
L 184.53719 203.04 
L 186.184179 201.78 
L 187.831169 201.78 
L 189.478158 200.52 
L 192.772137 200.52 
L 194.419126 199.26 
L 197.713105 199.26 
L 199.360094 196.74 
L 201.007084 196.74 
L 202.654073 195.48 
L 209.242031 195.48 
L 210.88902 194.22 
L 215.829988 194.22 
L 217.476978 192.96 
L 219.123967 192.96 
L 220.770956 190.44 
L 222.417946 190.44 
L 224.064935 187.92 
L 225.711924 186.66 
L 230.652893 186.66 
L 232.299882 184.14 
L 233.946871 182.88 
L 235.593861 179.1 
L 238.887839 176.58 
L 252.063754 176.58 
L 253.710744 172.8 
L 255.357733 172.8 
L 258.651712 170.28 
L 260.298701 170.28 
L 265.239669 166.5 
L 268.533648 166.5 
L 270.180638 165.24 
L 273.474616 165.24 
L 278.415584 161.46 
L 281.709563 161.46 
L 283.356553 160.2 
L 291.591499 160.2 
L 293.238489 158.94 
L 296.532468 158.94 
L 298.179457 157.68 
L 317.943329 157.68 
L 319.590319 155.16 
L 322.884298 155.16 
L 326.178276 152.64 
L 327.825266 152.64 
L 329.472255 151.38 
L 339.354191 151.38 
L 344.295159 147.6 
L 345.942149 147.6 
L 347.589138 146.34 
L 349.236128 143.82 
L 350.883117 143.82 
L 352.530106 142.56 
L 354.177096 142.56 
L 360.765053 137.52 
L 364.059032 137.52 
L 365.706021 135 
L 370.646989 135 
L 372.293979 133.74 
L 377.234947 133.74 
L 378.881936 132.48 
L 380.528926 132.48 
L 382.175915 128.7 
L 387.116883 128.7 
L 388.763872 127.44 
L 390.410862 124.92 
L 393.704841 124.92 
L 395.35183 123.66 
L 398.645809 123.66 
L 400.292798 122.4 
L 401.939787 122.4 
L 410.174734 116.1 
L 413.468713 116.1 
L 418.409681 112.32 
L 423.350649 112.32 
L 424.997639 109.8 
L 426.644628 109.8 
L 428.291617 108.54 
L 433.232586 108.54 
L 434.879575 107.28 
L 449.702479 107.28 
L 451.349469 106.02 
L 462.878394 106.02 
L 464.525384 104.76 
L 467.819362 104.76 
L 471.113341 102.24 
L 479.348288 102.24 
L 480.995277 100.98 
L 489.230224 100.98 
L 494.171192 97.2 
L 515.582054 97.2 
L 517.229044 94.68 
L 518.876033 93.42 
L 558.403778 93.42 
L 560.050767 92.16 
L 569.932704 92.16 
L 573.226682 89.64 
L 576.520661 89.64 
L 578.167651 88.38 
L 579.81464 88.38 
L 583.108619 85.86 
L 584.755608 85.86 
L 586.402597 84.6 
L 588.049587 84.6 
L 591.343566 79.56 
L 592.990555 78.3 
L 601.225502 78.3 
L 602.872491 74.52 
L 604.519481 72 
L 607.813459 72 
L 611.107438 69.48 
L 619.342385 69.48 
L 622.636364 66.96 
L 622.636364 66.96 
" clip-path="url(#pf54d7c5e50)" style="fill: none; stroke: #ff7f0e; stroke-width: 1.5; stroke-linecap: square"/>
   </g>
   <g id="line2d_25">
    <path d="M 115.363636 331.56 
L 121.951594 331.56 
L 123.598583 329.04 
L 126.892562 329.04 
L 128.539551 327.78 
L 130.186541 325.26 
L 131.83353 324 
L 133.480519 320.22 
L 135.127509 317.7 
L 136.774498 316.44 
L 138.421488 316.44 
L 140.068477 313.92 
L 141.715466 310.14 
L 148.303424 310.14 
L 149.950413 308.88 
L 151.597403 308.88 
L 153.244392 306.36 
L 158.18536 306.36 
L 161.479339 303.84 
L 168.067296 303.84 
L 169.714286 302.58 
L 176.302243 302.58 
L 181.243211 298.8 
L 189.478158 298.8 
L 191.125148 297.54 
L 196.066116 297.54 
L 197.713105 296.28 
L 201.007084 296.28 
L 202.654073 293.76 
L 215.829988 293.76 
L 217.476978 292.5 
L 219.123967 289.98 
L 220.770956 288.72 
L 222.417946 288.72 
L 224.064935 287.46 
L 227.358914 287.46 
L 229.005903 286.2 
L 232.299882 286.2 
L 233.946871 284.94 
L 243.828808 284.94 
L 245.475797 283.68 
L 247.122786 283.68 
L 248.769776 282.42 
L 250.416765 282.42 
L 252.063754 281.16 
L 257.004723 281.16 
L 258.651712 279.9 
L 260.298701 277.38 
L 268.533648 277.38 
L 273.474616 273.6 
L 278.415584 273.6 
L 280.062574 272.34 
L 286.650531 272.34 
L 288.297521 271.08 
L 289.94451 271.08 
L 291.591499 269.82 
L 294.885478 269.82 
L 296.532468 268.56 
L 301.473436 268.56 
L 304.767414 266.04 
L 306.414404 266.04 
L 308.061393 264.78 
L 321.237308 264.78 
L 322.884298 262.26 
L 324.531287 261 
L 337.707202 261 
L 339.354191 259.74 
L 344.295159 259.74 
L 345.942149 258.48 
L 350.883117 258.48 
L 352.530106 257.22 
L 369 257.22 
L 370.646989 255.96 
L 377.234947 255.96 
L 378.881936 254.7 
L 388.763872 254.7 
L 390.410862 253.44 
L 393.704841 253.44 
L 395.35183 252.18 
L 401.939787 252.18 
L 405.233766 249.66 
L 436.526564 249.66 
L 438.173554 248.4 
L 439.820543 248.4 
L 441.467532 247.14 
L 446.408501 247.14 
L 448.05549 245.88 
L 456.290437 245.88 
L 457.937426 244.62 
L 461.231405 244.62 
L 462.878394 243.36 
L 472.760331 243.36 
L 474.40732 244.62 
L 476.054309 243.36 
L 487.583235 243.36 
L 489.230224 242.1 
L 502.406139 242.1 
L 504.053129 240.84 
L 507.347107 240.84 
L 508.994097 239.58 
L 510.641086 239.58 
L 512.288076 238.32 
L 523.817001 238.32 
L 525.463991 237.06 
L 535.345927 237.06 
L 536.992916 235.8 
L 561.697757 235.8 
L 563.344746 234.54 
L 599.578512 234.54 
L 601.225502 233.28 
L 617.695396 233.28 
L 619.342385 232.02 
L 622.636364 232.02 
L 622.636364 232.02 
" clip-path="url(#pf54d7c5e50)" style="fill: none; stroke: #2ca02c; stroke-width: 1.5; stroke-linecap: square"/>
   </g>
   <g id="line2d_26">
    <path d="M 115.363636 369.36 
L 522.170012 369.36 
L 523.817001 368.1 
L 622.636364 368.1 
L 622.636364 368.1 
" clip-path="url(#pf54d7c5e50)" style="fill: none; stroke: #d62728; stroke-width: 1.5; stroke-linecap: square"/>
   </g>
   <g id="line2d_27">
    <path d="M 115.363636 341.64 
L 120.304604 341.64 
L 121.951594 340.38 
L 131.83353 340.38 
L 133.480519 339.12 
L 143.362456 339.12 
L 145.009445 337.86 
L 181.243211 337.86 
L 182.890201 336.6 
L 242.181818 336.6 
L 245.475797 334.08 
L 258.651712 334.08 
L 260.298701 332.82 
L 266.886659 332.82 
L 268.533648 331.56 
L 271.827627 331.56 
L 273.474616 330.3 
L 316.29634 330.3 
L 317.943329 329.04 
L 385.469894 329.04 
L 387.116883 327.78 
L 601.225502 327.78 
L 602.872491 326.52 
L 604.519481 326.52 
L 606.16647 325.26 
L 622.636364 325.26 
L 622.636364 325.26 
" clip-path="url(#pf54d7c5e50)" style="fill: none; stroke: #9467bd; stroke-width: 1.5; stroke-linecap: square"/>
   </g>
   <g id="line2d_28">
    <path d="M 115.363636 351.72 
L 117.010626 351.72 
L 118.657615 350.46 
L 141.715466 350.46 
L 143.362456 349.2 
L 163.126328 349.2 
L 164.773318 347.94 
L 189.478158 347.94 
L 192.772137 345.42 
L 210.88902 345.42 
L 212.536009 344.16 
L 261.945691 344.16 
L 263.59268 342.9 
L 278.415584 342.9 
L 280.062574 341.64 
L 308.061393 341.64 
L 309.708383 340.38 
L 336.060213 340.38 
L 337.707202 339.12 
L 344.295159 339.12 
L 345.942149 337.86 
L 360.765053 337.86 
L 362.412043 336.6 
L 401.939787 336.6 
L 403.586777 335.34 
L 413.468713 335.34 
L 415.115702 334.08 
L 424.997639 334.08 
L 426.644628 332.82 
L 433.232586 332.82 
L 434.879575 331.56 
L 495.818182 331.56 
L 497.465171 330.3 
L 545.227863 330.3 
L 546.874852 329.04 
L 622.636364 329.04 
L 622.636364 329.04 
" clip-path="url(#pf54d7c5e50)" style="fill: none; stroke: #8c564b; stroke-width: 1.5; stroke-linecap: square"/>
   </g>
   <g id="line2d_29">
    <path d="M 115.363636 258.48 
L 121.951594 258.48 
L 123.598583 257.22 
L 130.186541 257.22 
L 133.480519 254.7 
L 135.127509 254.7 
L 136.774498 253.44 
L 138.421488 253.44 
L 140.068477 252.18 
L 143.362456 252.18 
L 145.009445 250.92 
L 149.950413 250.92 
L 151.597403 249.66 
L 154.891381 249.66 
L 156.538371 248.4 
L 158.18536 248.4 
L 159.832349 247.14 
L 163.126328 247.14 
L 166.420307 244.62 
L 173.008264 244.62 
L 174.655254 243.36 
L 179.596222 243.36 
L 182.890201 240.84 
L 186.184179 240.84 
L 187.831169 239.58 
L 191.125148 239.58 
L 192.772137 238.32 
L 194.419126 235.8 
L 196.066116 232.02 
L 199.360094 232.02 
L 201.007084 230.76 
L 209.242031 230.76 
L 212.536009 228.24 
L 214.182999 225.72 
L 215.829988 224.46 
L 217.476978 224.46 
L 219.123967 221.94 
L 225.711924 221.94 
L 227.358914 220.68 
L 229.005903 220.68 
L 232.299882 218.16 
L 233.946871 218.16 
L 235.593861 216.9 
L 237.24085 216.9 
L 240.534829 214.38 
L 243.828808 214.38 
L 245.475797 211.86 
L 252.063754 211.86 
L 255.357733 209.34 
L 258.651712 209.34 
L 260.298701 208.08 
L 261.945691 205.56 
L 266.886659 205.56 
L 268.533648 204.3 
L 270.180638 204.3 
L 271.827627 201.78 
L 273.474616 201.78 
L 275.121606 200.52 
L 276.768595 200.52 
L 278.415584 199.26 
L 285.003542 199.26 
L 288.297521 196.74 
L 289.94451 196.74 
L 291.591499 194.22 
L 293.238489 194.22 
L 294.885478 192.96 
L 296.532468 192.96 
L 298.179457 191.7 
L 303.120425 191.7 
L 304.767414 190.44 
L 306.414404 190.44 
L 313.002361 185.4 
L 314.649351 182.88 
L 317.943329 182.88 
L 321.237308 177.84 
L 324.531287 177.84 
L 327.825266 175.32 
L 329.472255 175.32 
L 331.119244 172.8 
L 332.766234 172.8 
L 334.413223 171.54 
L 336.060213 171.54 
L 337.707202 170.28 
L 341.001181 170.28 
L 342.64817 169.02 
L 344.295159 169.02 
L 345.942149 167.76 
L 352.530106 167.76 
L 354.177096 161.46 
L 355.824085 161.46 
L 357.471074 160.2 
L 362.412043 160.2 
L 364.059032 158.94 
L 378.881936 158.94 
L 380.528926 156.42 
L 387.116883 156.42 
L 388.763872 155.16 
L 405.233766 155.16 
L 406.880756 152.64 
L 408.527745 151.38 
L 416.762692 151.38 
L 418.409681 150.12 
L 429.938607 150.12 
L 431.585596 148.86 
L 433.232586 148.86 
L 434.879575 147.6 
L 444.761511 147.6 
L 448.05549 145.08 
L 459.584416 145.08 
L 462.878394 142.56 
L 464.525384 142.56 
L 466.172373 141.3 
L 476.054309 141.3 
L 477.701299 140.04 
L 482.642267 140.04 
L 484.289256 138.78 
L 485.936246 136.26 
L 490.877214 136.26 
L 492.524203 135 
L 494.171192 135 
L 497.465171 132.48 
L 504.053129 132.48 
L 505.700118 131.22 
L 512.288076 131.22 
L 513.935065 129.96 
L 518.876033 129.96 
L 520.523022 128.7 
L 533.698937 128.7 
L 536.992916 126.18 
L 545.227863 126.18 
L 546.874852 124.92 
L 553.46281 124.92 
L 561.697757 118.62 
L 564.991736 118.62 
L 566.638725 117.36 
L 568.285714 117.36 
L 569.932704 114.84 
L 573.226682 112.32 
L 576.520661 107.28 
L 579.81464 107.28 
L 583.108619 102.24 
L 586.402597 102.24 
L 588.049587 99.72 
L 591.343566 97.2 
L 596.284534 97.2 
L 597.931523 95.94 
L 599.578512 95.94 
L 602.872491 93.42 
L 609.460449 93.42 
L 611.107438 92.16 
L 614.401417 92.16 
L 616.048406 90.9 
L 622.636364 90.9 
L 622.636364 90.9 
" clip-path="url(#pf54d7c5e50)" style="fill: none; stroke: #e377c2; stroke-width: 1.5; stroke-linecap: square"/>
   </g>
   <g id="line2d_30">
    <path d="M 115.363636 336.6 
L 117.010626 336.6 
L 120.304604 334.08 
L 128.539551 334.08 
L 130.186541 332.82 
L 131.83353 332.82 
L 135.127509 330.3 
L 138.421488 330.3 
L 140.068477 329.04 
L 145.009445 329.04 
L 146.656434 327.78 
L 148.303424 327.78 
L 149.950413 326.52 
L 151.597403 326.52 
L 154.891381 324 
L 159.832349 324 
L 161.479339 322.74 
L 164.773318 322.74 
L 168.067296 320.22 
L 171.361275 320.22 
L 174.655254 317.7 
L 176.302243 317.7 
L 177.949233 316.44 
L 179.596222 312.66 
L 186.184179 312.66 
L 192.772137 307.62 
L 194.419126 307.62 
L 197.713105 305.1 
L 199.360094 305.1 
L 201.007084 303.84 
L 202.654073 303.84 
L 204.301063 302.58 
L 219.123967 302.58 
L 220.770956 301.32 
L 237.24085 301.32 
L 240.534829 298.8 
L 245.475797 298.8 
L 247.122786 297.54 
L 250.416765 297.54 
L 253.710744 295.02 
L 257.004723 295.02 
L 258.651712 292.5 
L 263.59268 292.5 
L 265.239669 289.98 
L 266.886659 288.72 
L 275.121606 288.72 
L 276.768595 287.46 
L 278.415584 287.46 
L 281.709563 284.94 
L 289.94451 284.94 
L 291.591499 283.68 
L 293.238489 283.68 
L 294.885478 282.42 
L 304.767414 282.42 
L 306.414404 281.16 
L 311.355372 281.16 
L 313.002361 279.9 
L 314.649351 279.9 
L 316.29634 276.12 
L 317.943329 276.12 
L 319.590319 273.6 
L 321.237308 272.34 
L 322.884298 272.34 
L 326.178276 269.82 
L 329.472255 269.82 
L 331.119244 268.56 
L 334.413223 268.56 
L 336.060213 267.3 
L 337.707202 267.3 
L 339.354191 264.78 
L 341.001181 264.78 
L 342.64817 263.52 
L 345.942149 263.52 
L 349.236128 261 
L 350.883117 261 
L 352.530106 258.48 
L 354.177096 257.22 
L 365.706021 257.22 
L 367.353011 254.7 
L 372.293979 254.7 
L 373.940968 253.44 
L 375.587958 253.44 
L 377.234947 252.18 
L 382.175915 252.18 
L 383.822904 250.92 
L 392.057851 250.92 
L 393.704841 249.66 
L 396.998819 249.66 
L 398.645809 248.4 
L 406.880756 248.4 
L 408.527745 247.14 
L 423.350649 247.14 
L 426.644628 244.62 
L 428.291617 244.62 
L 429.938607 243.36 
L 431.585596 243.36 
L 433.232586 242.1 
L 434.879575 242.1 
L 436.526564 240.84 
L 439.820543 240.84 
L 441.467532 239.58 
L 443.114522 239.58 
L 446.408501 237.06 
L 451.349469 237.06 
L 452.996458 235.8 
L 457.937426 235.8 
L 459.584416 234.54 
L 471.113341 234.54 
L 472.760331 233.28 
L 474.40732 233.28 
L 476.054309 232.02 
L 482.642267 232.02 
L 484.289256 229.5 
L 494.171192 229.5 
L 495.818182 228.24 
L 497.465171 228.24 
L 499.112161 225.72 
L 507.347107 225.72 
L 508.994097 224.46 
L 518.876033 224.46 
L 520.523022 223.2 
L 541.933884 223.2 
L 543.580874 221.94 
L 568.285714 221.94 
L 569.932704 220.68 
L 578.167651 220.68 
L 579.81464 219.42 
L 581.461629 219.42 
L 583.108619 218.16 
L 584.755608 218.16 
L 586.402597 215.64 
L 588.049587 215.64 
L 591.343566 213.12 
L 602.872491 213.12 
L 604.519481 211.86 
L 606.16647 211.86 
L 607.813459 210.6 
L 609.460449 210.6 
L 611.107438 209.34 
L 619.342385 209.34 
L 620.989374 208.08 
L 622.636364 208.08 
L 622.636364 208.08 
" clip-path="url(#pf54d7c5e50)" style="fill: none; stroke: #7f7f7f; stroke-width: 1.5; stroke-linecap: square"/>
   </g>
   <g id="line2d_31">
    <path d="M 115.363636 344.16 
L 121.951594 344.16 
L 123.598583 342.9 
L 140.068477 342.9 
L 141.715466 341.64 
L 149.950413 341.64 
L 151.597403 340.38 
L 168.067296 340.38 
L 169.714286 339.12 
L 186.184179 339.12 
L 187.831169 337.86 
L 276.768595 337.86 
L 278.415584 336.6 
L 286.650531 336.6 
L 288.297521 335.34 
L 299.826446 335.34 
L 301.473436 334.08 
L 303.120425 334.08 
L 304.767414 330.3 
L 306.414404 329.04 
L 309.708383 329.04 
L 311.355372 327.78 
L 327.825266 327.78 
L 329.472255 326.52 
L 344.295159 326.52 
L 345.942149 325.26 
L 364.059032 325.26 
L 365.706021 324 
L 385.469894 324 
L 387.116883 322.74 
L 395.35183 322.74 
L 396.998819 321.48 
L 449.702479 321.48 
L 451.349469 320.22 
L 454.643447 320.22 
L 456.290437 318.96 
L 469.466352 318.96 
L 471.113341 317.7 
L 517.229044 317.7 
L 522.170012 313.92 
L 569.932704 313.92 
L 571.579693 312.66 
L 573.226682 312.66 
L 576.520661 310.14 
L 579.81464 310.14 
L 581.461629 308.88 
L 622.636364 308.88 
L 622.636364 308.88 
" clip-path="url(#pf54d7c5e50)" style="fill: none; stroke: #bcbd22; stroke-width: 1.5; stroke-linecap: square"/>
   </g>
   <g id="line2d_32">
    <path d="M 115.363636 366.84 
L 197.713105 366.84 
L 199.360094 365.58 
L 303.120425 365.58 
L 304.767414 364.32 
L 472.760331 364.32 
L 474.40732 363.06 
L 476.054309 364.32 
L 622.636364 364.32 
L 622.636364 364.32 
" clip-path="url(#pf54d7c5e50)" style="fill: none; stroke: #17becf; stroke-width: 1.5; stroke-linecap: square"/>
   </g>
   <g id="line2d_33">
    <path d="M 115.363636 369.36 
L 117.010626 368.1 
L 120.304604 368.1 
L 121.951594 366.84 
L 133.480519 366.84 
L 135.127509 365.58 
L 140.068477 365.58 
L 141.715466 364.32 
L 143.362456 364.32 
L 146.656434 361.8 
L 154.891381 361.8 
L 158.18536 359.28 
L 159.832349 359.28 
L 161.479339 358.02 
L 173.008264 358.02 
L 174.655254 356.76 
L 176.302243 354.24 
L 179.596222 354.24 
L 181.243211 352.98 
L 182.890201 352.98 
L 184.53719 351.72 
L 186.184179 351.72 
L 187.831169 350.46 
L 189.478158 350.46 
L 192.772137 347.94 
L 202.654073 347.94 
L 205.948052 345.42 
L 210.88902 345.42 
L 212.536009 344.16 
L 214.182999 344.16 
L 215.829988 341.64 
L 220.770956 341.64 
L 224.064935 336.6 
L 233.946871 336.6 
L 235.593861 334.08 
L 237.24085 332.82 
L 242.181818 332.82 
L 243.828808 331.56 
L 245.475797 329.04 
L 248.769776 329.04 
L 250.416765 327.78 
L 273.474616 327.78 
L 275.121606 325.26 
L 286.650531 316.44 
L 303.120425 316.44 
L 308.061393 312.66 
L 311.355372 312.66 
L 313.002361 310.14 
L 316.29634 310.14 
L 317.943329 308.88 
L 322.884298 308.88 
L 324.531287 307.62 
L 326.178276 307.62 
L 327.825266 306.36 
L 329.472255 306.36 
L 332.766234 303.84 
L 354.177096 303.84 
L 357.471074 301.32 
L 370.646989 301.32 
L 372.293979 300.06 
L 377.234947 300.06 
L 380.528926 297.54 
L 385.469894 297.54 
L 387.116883 296.28 
L 390.410862 296.28 
L 392.057851 295.02 
L 400.292798 295.02 
L 401.939787 293.76 
L 403.586777 293.76 
L 405.233766 291.24 
L 406.880756 291.24 
L 408.527745 289.98 
L 416.762692 289.98 
L 418.409681 288.72 
L 421.70366 288.72 
L 423.350649 287.46 
L 424.997639 287.46 
L 428.291617 284.94 
L 439.820543 284.94 
L 441.467532 283.68 
L 443.114522 283.68 
L 444.761511 282.42 
L 452.996458 282.42 
L 454.643447 279.9 
L 456.290437 278.64 
L 464.525384 278.64 
L 466.172373 277.38 
L 472.760331 277.38 
L 474.40732 274.86 
L 480.995277 274.86 
L 484.289256 272.34 
L 489.230224 272.34 
L 490.877214 271.08 
L 510.641086 271.08 
L 512.288076 268.56 
L 513.935065 267.3 
L 527.11098 267.3 
L 528.757969 266.04 
L 558.403778 266.04 
L 560.050767 264.78 
L 563.344746 264.78 
L 564.991736 263.52 
L 569.932704 263.52 
L 571.579693 262.26 
L 592.990555 262.26 
L 594.637544 259.74 
L 597.931523 259.74 
L 599.578512 258.48 
L 601.225502 258.48 
L 602.872491 257.22 
L 609.460449 257.22 
L 611.107438 255.96 
L 622.636364 255.96 
L 622.636364 255.96 
" clip-path="url(#pf54d7c5e50)" style="fill: none; stroke: #1f77b4; stroke-width: 1.5; stroke-linecap: square"/>
   </g>
   <g id="line2d_34">
    <path d="M 115.363636 322.74 
L 126.892562 322.74 
L 128.539551 321.48 
L 133.480519 321.48 
L 135.127509 320.22 
L 141.715466 320.22 
L 143.362456 318.96 
L 148.303424 318.96 
L 149.950413 317.7 
L 151.597403 317.7 
L 153.244392 316.44 
L 158.18536 316.44 
L 159.832349 315.18 
L 163.126328 315.18 
L 164.773318 313.92 
L 166.420307 313.92 
L 169.714286 311.4 
L 179.596222 311.4 
L 181.243211 310.14 
L 182.890201 310.14 
L 184.53719 308.88 
L 186.184179 308.88 
L 187.831169 306.36 
L 189.478158 302.58 
L 191.125148 301.32 
L 197.713105 301.32 
L 202.654073 297.54 
L 207.595041 297.54 
L 210.88902 295.02 
L 229.005903 295.02 
L 230.652893 291.24 
L 232.299882 291.24 
L 235.593861 286.2 
L 238.887839 283.68 
L 240.534829 283.68 
L 242.181818 281.16 
L 255.357733 281.16 
L 257.004723 278.64 
L 261.945691 278.64 
L 263.59268 277.38 
L 275.121606 277.38 
L 276.768595 276.12 
L 296.532468 276.12 
L 298.179457 274.86 
L 299.826446 274.86 
L 301.473436 273.6 
L 306.414404 273.6 
L 308.061393 272.34 
L 327.825266 272.34 
L 329.472255 271.08 
L 332.766234 271.08 
L 336.060213 266.04 
L 339.354191 266.04 
L 342.64817 263.52 
L 345.942149 263.52 
L 347.589138 262.26 
L 352.530106 262.26 
L 354.177096 261 
L 373.940968 261 
L 375.587958 259.74 
L 400.292798 259.74 
L 401.939787 258.48 
L 416.762692 258.48 
L 418.409681 257.22 
L 421.70366 257.22 
L 423.350649 255.96 
L 428.291617 255.96 
L 431.585596 253.44 
L 433.232586 253.44 
L 434.879575 252.18 
L 441.467532 252.18 
L 444.761511 249.66 
L 452.996458 249.66 
L 454.643447 248.4 
L 459.584416 248.4 
L 461.231405 247.14 
L 469.466352 247.14 
L 471.113341 245.88 
L 479.348288 245.88 
L 480.995277 244.62 
L 510.641086 244.62 
L 512.288076 243.36 
L 513.935065 243.36 
L 515.582054 242.1 
L 532.051948 242.1 
L 533.698937 239.58 
L 535.345927 239.58 
L 536.992916 238.32 
L 553.46281 238.32 
L 555.109799 237.06 
L 561.697757 237.06 
L 563.344746 235.8 
L 564.991736 235.8 
L 566.638725 234.54 
L 581.461629 234.54 
L 583.108619 233.28 
L 616.048406 233.28 
L 617.695396 229.5 
L 622.636364 229.5 
L 622.636364 229.5 
" clip-path="url(#pf54d7c5e50)" style="fill: none; stroke: #ff7f0e; stroke-width: 1.5; stroke-linecap: square"/>
   </g>
   <g id="patch_3">
    <path d="M 90 384.48 
L 90 51.84 
" style="fill: none; stroke: #000000; stroke-width: 0.8; stroke-linejoin: miter; stroke-linecap: square"/>
   </g>
   <g id="patch_4">
    <path d="M 648 384.48 
L 648 51.84 
" style="fill: none; stroke: #000000; stroke-width: 0.8; stroke-linejoin: miter; stroke-linecap: square"/>
   </g>
   <g id="patch_5">
    <path d="M 90 384.48 
L 648 384.48 
" style="fill: none; stroke: #000000; stroke-width: 0.8; stroke-linejoin: miter; stroke-linecap: square"/>
   </g>
   <g id="patch_6">
    <path d="M 90 51.84 
L 648 51.84 
" style="fill: none; stroke: #000000; stroke-width: 0.8; stroke-linejoin: miter; stroke-linecap: square"/>
   </g>
   <g id="text_14">
    <!-- Time Series of Votes for Each Keyword -->
    <g transform="translate(253.716563 45.84) scale(0.12 -0.12)">
     <defs>
      <path id="DejaVuSans-53" d="M 3425 4513 
L 3425 3897 
Q 3066 4069 2747 4153 
Q 2428 4238 2131 4238 
Q 1616 4238 1336 4038 
Q 1056 3838 1056 3469 
Q 1056 3159 1242 3001 
Q 1428 2844 1947 2747 
L 2328 2669 
Q 3034 2534 3370 2195 
Q 3706 1856 3706 1288 
Q 3706 609 3251 259 
Q 2797 -91 1919 -91 
Q 1588 -91 1214 -16 
Q 841 59 441 206 
L 441 856 
Q 825 641 1194 531 
Q 1563 422 1919 422 
Q 2459 422 2753 634 
Q 3047 847 3047 1241 
Q 3047 1584 2836 1778 
Q 2625 1972 2144 2069 
L 1759 2144 
Q 1053 2284 737 2584 
Q 422 2884 422 3419 
Q 422 4038 858 4394 
Q 1294 4750 2059 4750 
Q 2388 4750 2728 4690 
Q 3069 4631 3425 4513 
z
" transform="scale(0.015625)"/>
      <path id="DejaVuSans-72" d="M 2631 2963 
Q 2534 3019 2420 3045 
Q 2306 3072 2169 3072 
Q 1681 3072 1420 2755 
Q 1159 2438 1159 1844 
L 1159 0 
L 581 0 
L 581 3500 
L 1159 3500 
L 1159 2956 
Q 1341 3275 1631 3429 
Q 1922 3584 2338 3584 
Q 2397 3584 2469 3576 
Q 2541 3569 2628 3553 
L 2631 2963 
z
" transform="scale(0.015625)"/>
      <path id="DejaVuSans-66" d="M 2375 4863 
L 2375 4384 
L 1825 4384 
Q 1516 4384 1395 4259 
Q 1275 4134 1275 3809 
L 1275 3500 
L 2222 3500 
L 2222 3053 
L 1275 3053 
L 1275 0 
L 697 0 
L 697 3053 
L 147 3053 
L 147 3500 
L 697 3500 
L 697 3744 
Q 697 4328 969 4595 
Q 1241 4863 1831 4863 
L 2375 4863 
z
" transform="scale(0.015625)"/>
      <path id="DejaVuSans-45" d="M 628 4666 
L 3578 4666 
L 3578 4134 
L 1259 4134 
L 1259 2753 
L 3481 2753 
L 3481 2222 
L 1259 2222 
L 1259 531 
L 3634 531 
L 3634 0 
L 628 0 
L 628 4666 
z
" transform="scale(0.015625)"/>
      <path id="DejaVuSans-63" d="M 3122 3366 
L 3122 2828 
Q 2878 2963 2633 3030 
Q 2388 3097 2138 3097 
Q 1578 3097 1268 2742 
Q 959 2388 959 1747 
Q 959 1106 1268 751 
Q 1578 397 2138 397 
Q 2388 397 2633 464 
Q 2878 531 3122 666 
L 3122 134 
Q 2881 22 2623 -34 
Q 2366 -91 2075 -91 
Q 1284 -91 818 406 
Q 353 903 353 1747 
Q 353 2603 823 3093 
Q 1294 3584 2113 3584 
Q 2378 3584 2631 3529 
Q 2884 3475 3122 3366 
z
" transform="scale(0.015625)"/>
      <path id="DejaVuSans-68" d="M 3513 2113 
L 3513 0 
L 2938 0 
L 2938 2094 
Q 2938 2591 2744 2837 
Q 2550 3084 2163 3084 
Q 1697 3084 1428 2787 
Q 1159 2491 1159 1978 
L 1159 0 
L 581 0 
L 581 4863 
L 1159 4863 
L 1159 2956 
Q 1366 3272 1645 3428 
Q 1925 3584 2291 3584 
Q 2894 3584 3203 3211 
Q 3513 2838 3513 2113 
z
" transform="scale(0.015625)"/>
      <path id="DejaVuSans-4b" d="M 628 4666 
L 1259 4666 
L 1259 2694 
L 3353 4666 
L 4166 4666 
L 1850 2491 
L 4331 0 
L 3500 0 
L 1259 2247 
L 1259 0 
L 628 0 
L 628 4666 
z
" transform="scale(0.015625)"/>
      <path id="DejaVuSans-79" d="M 2059 -325 
Q 1816 -950 1584 -1140 
Q 1353 -1331 966 -1331 
L 506 -1331 
L 506 -850 
L 844 -850 
Q 1081 -850 1212 -737 
Q 1344 -625 1503 -206 
L 1606 56 
L 191 3500 
L 800 3500 
L 1894 763 
L 2988 3500 
L 3597 3500 
L 2059 -325 
z
" transform="scale(0.015625)"/>
      <path id="DejaVuSans-77" d="M 269 3500 
L 844 3500 
L 1563 769 
L 2278 3500 
L 2956 3500 
L 3675 769 
L 4391 3500 
L 4966 3500 
L 4050 0 
L 3372 0 
L 2619 2869 
L 1863 0 
L 1184 0 
L 269 3500 
z
" transform="scale(0.015625)"/>
     </defs>
     <use xlink:href="#DejaVuSans-54"/>
     <use xlink:href="#DejaVuSans-69" transform="translate(57.958984 0)"/>
     <use xlink:href="#DejaVuSans-6d" transform="translate(85.742188 0)"/>
     <use xlink:href="#DejaVuSans-65" transform="translate(183.154297 0)"/>
     <use xlink:href="#DejaVuSans-20" transform="translate(244.677734 0)"/>
     <use xlink:href="#DejaVuSans-53" transform="translate(276.464844 0)"/>
     <use xlink:href="#DejaVuSans-65" transform="translate(339.941406 0)"/>
     <use xlink:href="#DejaVuSans-72" transform="translate(401.464844 0)"/>
     <use xlink:href="#DejaVuSans-69" transform="translate(442.578125 0)"/>
     <use xlink:href="#DejaVuSans-65" transform="translate(470.361328 0)"/>
     <use xlink:href="#DejaVuSans-73" transform="translate(531.884766 0)"/>
     <use xlink:href="#DejaVuSans-20" transform="translate(583.984375 0)"/>
     <use xlink:href="#DejaVuSans-6f" transform="translate(615.771484 0)"/>
     <use xlink:href="#DejaVuSans-66" transform="translate(676.953125 0)"/>
     <use xlink:href="#DejaVuSans-20" transform="translate(712.158203 0)"/>
     <use xlink:href="#DejaVuSans-56" transform="translate(743.945312 0)"/>
     <use xlink:href="#DejaVuSans-6f" transform="translate(804.603516 0)"/>
     <use xlink:href="#DejaVuSans-74" transform="translate(865.785156 0)"/>
     <use xlink:href="#DejaVuSans-65" transform="translate(904.994141 0)"/>
     <use xlink:href="#DejaVuSans-73" transform="translate(966.517578 0)"/>
     <use xlink:href="#DejaVuSans-20" transform="translate(1018.617188 0)"/>
     <use xlink:href="#DejaVuSans-66" transform="translate(1050.404297 0)"/>
     <use xlink:href="#DejaVuSans-6f" transform="translate(1085.609375 0)"/>
     <use xlink:href="#DejaVuSans-72" transform="translate(1146.791016 0)"/>
     <use xlink:href="#DejaVuSans-20" transform="translate(1187.904297 0)"/>
     <use xlink:href="#DejaVuSans-45" transform="translate(1219.691406 0)"/>
     <use xlink:href="#DejaVuSans-61" transform="translate(1282.875 0)"/>
     <use xlink:href="#DejaVuSans-63" transform="translate(1344.154297 0)"/>
     <use xlink:href="#DejaVuSans-68" transform="translate(1399.134766 0)"/>
     <use xlink:href="#DejaVuSans-20" transform="translate(1462.513672 0)"/>
     <use xlink:href="#DejaVuSans-4b" transform="translate(1494.300781 0)"/>
     <use xlink:href="#DejaVuSans-65" transform="translate(1554.876953 0)"/>
     <use xlink:href="#DejaVuSans-79" transform="translate(1616.400391 0)"/>
     <use xlink:href="#DejaVuSans-77" transform="translate(1675.580078 0)"/>
     <use xlink:href="#DejaVuSans-6f" transform="translate(1757.367188 0)"/>
     <use xlink:href="#DejaVuSans-72" transform="translate(1818.548828 0)"/>
     <use xlink:href="#DejaVuSans-64" transform="translate(1857.912109 0)"/>
    </g>
   </g>
   <g id="legend_1">
    <g id="patch_7">
     <path d="M 97 235.9775 
L 149.245313 235.9775 
Q 151.245313 235.9775 151.245313 233.9775 
L 151.245313 58.84 
Q 151.245313 56.84 149.245313 56.84 
L 97 56.84 
Q 95 56.84 95 58.84 
L 95 233.9775 
Q 95 235.9775 97 235.9775 
z
" style="fill: #ffffff; opacity: 0.8; stroke: #cccccc; stroke-linejoin: miter"/>
    </g>
    <g id="line2d_35">
     <path d="M 99 64.938437 
L 109 64.938437 
L 119 64.938437 
" style="fill: none; stroke: #1f77b4; stroke-width: 1.5; stroke-linecap: square"/>
    </g>
    <g id="text_15">
     <!-- H01 -->
     <g transform="translate(127 68.438437) scale(0.1 -0.1)">
      <defs>
       <path id="DejaVuSans-48" d="M 628 4666 
L 1259 4666 
L 1259 2753 
L 3553 2753 
L 3553 4666 
L 4184 4666 
L 4184 0 
L 3553 0 
L 3553 2222 
L 1259 2222 
L 1259 0 
L 628 0 
L 628 4666 
z
" transform="scale(0.015625)"/>
      </defs>
      <use xlink:href="#DejaVuSans-48"/>
      <use xlink:href="#DejaVuSans-30" transform="translate(75.195312 0)"/>
      <use xlink:href="#DejaVuSans-31" transform="translate(138.818359 0)"/>
     </g>
    </g>
    <g id="line2d_36">
     <path d="M 99 79.616562 
L 109 79.616562 
L 119 79.616562 
" style="fill: none; stroke: #ff7f0e; stroke-width: 1.5; stroke-linecap: square"/>
    </g>
    <g id="text_16">
     <!-- H02 -->
     <g transform="translate(127 83.116562) scale(0.1 -0.1)">
      <use xlink:href="#DejaVuSans-48"/>
      <use xlink:href="#DejaVuSans-30" transform="translate(75.195312 0)"/>
      <use xlink:href="#DejaVuSans-32" transform="translate(138.818359 0)"/>
     </g>
    </g>
    <g id="line2d_37">
     <path d="M 99 94.294688 
L 109 94.294688 
L 119 94.294688 
" style="fill: none; stroke: #2ca02c; stroke-width: 1.5; stroke-linecap: square"/>
    </g>
    <g id="text_17">
     <!-- H03 -->
     <g transform="translate(127 97.794688) scale(0.1 -0.1)">
      <defs>
       <path id="DejaVuSans-33" d="M 2597 2516 
Q 3050 2419 3304 2112 
Q 3559 1806 3559 1356 
Q 3559 666 3084 287 
Q 2609 -91 1734 -91 
Q 1441 -91 1130 -33 
Q 819 25 488 141 
L 488 750 
Q 750 597 1062 519 
Q 1375 441 1716 441 
Q 2309 441 2620 675 
Q 2931 909 2931 1356 
Q 2931 1769 2642 2001 
Q 2353 2234 1838 2234 
L 1294 2234 
L 1294 2753 
L 1863 2753 
Q 2328 2753 2575 2939 
Q 2822 3125 2822 3475 
Q 2822 3834 2567 4026 
Q 2313 4219 1838 4219 
Q 1578 4219 1281 4162 
Q 984 4106 628 3988 
L 628 4550 
Q 988 4650 1302 4700 
Q 1616 4750 1894 4750 
Q 2613 4750 3031 4423 
Q 3450 4097 3450 3541 
Q 3450 3153 3228 2886 
Q 3006 2619 2597 2516 
z
" transform="scale(0.015625)"/>
      </defs>
      <use xlink:href="#DejaVuSans-48"/>
      <use xlink:href="#DejaVuSans-30" transform="translate(75.195312 0)"/>
      <use xlink:href="#DejaVuSans-33" transform="translate(138.818359 0)"/>
     </g>
    </g>
    <g id="line2d_38">
     <path d="M 99 108.972812 
L 109 108.972812 
L 119 108.972812 
" style="fill: none; stroke: #d62728; stroke-width: 1.5; stroke-linecap: square"/>
    </g>
    <g id="text_18">
     <!-- H04 -->
     <g transform="translate(127 112.472812) scale(0.1 -0.1)">
      <use xlink:href="#DejaVuSans-48"/>
      <use xlink:href="#DejaVuSans-30" transform="translate(75.195312 0)"/>
      <use xlink:href="#DejaVuSans-34" transform="translate(138.818359 0)"/>
     </g>
    </g>
    <g id="line2d_39">
     <path d="M 99 123.650937 
L 109 123.650937 
L 119 123.650937 
" style="fill: none; stroke: #9467bd; stroke-width: 1.5; stroke-linecap: square"/>
    </g>
    <g id="text_19">
     <!-- H05 -->
     <g transform="translate(127 127.150937) scale(0.1 -0.1)">
      <use xlink:href="#DejaVuSans-48"/>
      <use xlink:href="#DejaVuSans-30" transform="translate(75.195312 0)"/>
      <use xlink:href="#DejaVuSans-35" transform="translate(138.818359 0)"/>
     </g>
    </g>
    <g id="line2d_40">
     <path d="M 99 138.329062 
L 109 138.329062 
L 119 138.329062 
" style="fill: none; stroke: #8c564b; stroke-width: 1.5; stroke-linecap: square"/>
    </g>
    <g id="text_20">
     <!-- H06 -->
     <g transform="translate(127 141.829062) scale(0.1 -0.1)">
      <use xlink:href="#DejaVuSans-48"/>
      <use xlink:href="#DejaVuSans-30" transform="translate(75.195312 0)"/>
      <use xlink:href="#DejaVuSans-36" transform="translate(138.818359 0)"/>
     </g>
    </g>
    <g id="line2d_41">
     <path d="M 99 153.007187 
L 109 153.007187 
L 119 153.007187 
" style="fill: none; stroke: #e377c2; stroke-width: 1.5; stroke-linecap: square"/>
    </g>
    <g id="text_21">
     <!-- H07 -->
     <g transform="translate(127 156.507187) scale(0.1 -0.1)">
      <use xlink:href="#DejaVuSans-48"/>
      <use xlink:href="#DejaVuSans-30" transform="translate(75.195312 0)"/>
      <use xlink:href="#DejaVuSans-37" transform="translate(138.818359 0)"/>
     </g>
    </g>
    <g id="line2d_42">
     <path d="M 99 167.685312 
L 109 167.685312 
L 119 167.685312 
" style="fill: none; stroke: #7f7f7f; stroke-width: 1.5; stroke-linecap: square"/>
    </g>
    <g id="text_22">
     <!-- H08 -->
     <g transform="translate(127 171.185312) scale(0.1 -0.1)">
      <use xlink:href="#DejaVuSans-48"/>
      <use xlink:href="#DejaVuSans-30" transform="translate(75.195312 0)"/>
      <use xlink:href="#DejaVuSans-38" transform="translate(138.818359 0)"/>
     </g>
    </g>
    <g id="line2d_43">
     <path d="M 99 182.363437 
L 109 182.363437 
L 119 182.363437 
" style="fill: none; stroke: #bcbd22; stroke-width: 1.5; stroke-linecap: square"/>
    </g>
    <g id="text_23">
     <!-- H09 -->
     <g transform="translate(127 185.863437) scale(0.1 -0.1)">
      <defs>
       <path id="DejaVuSans-39" d="M 703 97 
L 703 672 
Q 941 559 1184 500 
Q 1428 441 1663 441 
Q 2288 441 2617 861 
Q 2947 1281 2994 2138 
Q 2813 1869 2534 1725 
Q 2256 1581 1919 1581 
Q 1219 1581 811 2004 
Q 403 2428 403 3163 
Q 403 3881 828 4315 
Q 1253 4750 1959 4750 
Q 2769 4750 3195 4129 
Q 3622 3509 3622 2328 
Q 3622 1225 3098 567 
Q 2575 -91 1691 -91 
Q 1453 -91 1209 -44 
Q 966 3 703 97 
z
M 1959 2075 
Q 2384 2075 2632 2365 
Q 2881 2656 2881 3163 
Q 2881 3666 2632 3958 
Q 2384 4250 1959 4250 
Q 1534 4250 1286 3958 
Q 1038 3666 1038 3163 
Q 1038 2656 1286 2365 
Q 1534 2075 1959 2075 
z
" transform="scale(0.015625)"/>
      </defs>
      <use xlink:href="#DejaVuSans-48"/>
      <use xlink:href="#DejaVuSans-30" transform="translate(75.195312 0)"/>
      <use xlink:href="#DejaVuSans-39" transform="translate(138.818359 0)"/>
     </g>
    </g>
    <g id="line2d_44">
     <path d="M 99 197.041562 
L 109 197.041562 
L 119 197.041562 
" style="fill: none; stroke: #17becf; stroke-width: 1.5; stroke-linecap: square"/>
    </g>
    <g id="text_24">
     <!-- H10 -->
     <g transform="translate(127 200.541562) scale(0.1 -0.1)">
      <use xlink:href="#DejaVuSans-48"/>
      <use xlink:href="#DejaVuSans-31" transform="translate(75.195312 0)"/>
      <use xlink:href="#DejaVuSans-30" transform="translate(138.818359 0)"/>
     </g>
    </g>
    <g id="line2d_45">
     <path d="M 99 211.719687 
L 109 211.719687 
L 119 211.719687 
" style="fill: none; stroke: #1f77b4; stroke-width: 1.5; stroke-linecap: square"/>
    </g>
    <g id="text_25">
     <!-- H11 -->
     <g transform="translate(127 215.219687) scale(0.1 -0.1)">
      <use xlink:href="#DejaVuSans-48"/>
      <use xlink:href="#DejaVuSans-31" transform="translate(75.195312 0)"/>
      <use xlink:href="#DejaVuSans-31" transform="translate(138.818359 0)"/>
     </g>
    </g>
    <g id="line2d_46">
     <path d="M 99 226.397812 
L 109 226.397812 
L 119 226.397812 
" style="fill: none; stroke: #ff7f0e; stroke-width: 1.5; stroke-linecap: square"/>
    </g>
    <g id="text_26">
     <!-- H12 -->
     <g transform="translate(127 229.897812) scale(0.1 -0.1)">
      <use xlink:href="#DejaVuSans-48"/>
      <use xlink:href="#DejaVuSans-31" transform="translate(75.195312 0)"/>
      <use xlink:href="#DejaVuSans-32" transform="translate(138.818359 0)"/>
     </g>
    </g>
   </g>
  </g>
 </g>
 <defs>
  <clipPath id="pf54d7c5e50">
   <rect x="90" y="51.84" width="558" height="332.64"/>
  </clipPath>
 </defs>
</svg>
