<?xml version="1.0" encoding="utf-8" standalone="no"?>
<!DOCTYPE svg PUBLIC "-//W3C//DTD SVG 1.1//EN"
  "http://www.w3.org/Graphics/SVG/1.1/DTD/svg11.dtd">
<svg xmlns:xlink="http://www.w3.org/1999/xlink" width="720pt" height="432pt" viewBox="0 0 720 432" xmlns="http://www.w3.org/2000/svg" version="1.1">
 <metadata>
  <rdf:RDF xmlns:dc="http://purl.org/dc/elements/1.1/" xmlns:cc="http://creativecommons.org/ns#" xmlns:rdf="http://www.w3.org/1999/02/22-rdf-syntax-ns#">
   <cc:Work>
    <dc:type rdf:resource="http://purl.org/dc/dcmitype/StillImage"/>
    <dc:date>2025-01-14T22:56:46.674348</dc:date>
    <dc:format>image/svg+xml</dc:format>
    <dc:creator>
     <cc:Agent>
      <dc:title>Matplotlib v3.10.0, https://matplotlib.org/</dc:title>
     </cc:Agent>
    </dc:creator>
   </cc:Work>
  </rdf:RDF>
 </metadata>
 <defs>
  <style type="text/css">*{stroke-linejoin: round; stroke-linecap: butt}</style>
 </defs>
 <g id="figure_1">
  <g id="patch_1">
   <path d="M 0 432 
L 720 432 
L 720 0 
L 0 0 
z
" style="fill: #ffffff"/>
  </g>
  <g id="axes_1">
   <g id="patch_2">
    <path d="M 90 384.48 
L 648 384.48 
L 648 51.84 
L 90 51.84 
z
" style="fill: #ffffff"/>
   </g>
   <g id="matplotlib.axis_1">
    <g id="xtick_1">
     <g id="line2d_1">
      <path d="M 139.691103 384.48 
L 139.691103 51.84 
" clip-path="url(#p3736281060)" style="fill: none; stroke: #b0b0b0; stroke-width: 0.8; stroke-linecap: square"/>
     </g>
     <g id="line2d_2">
      <defs>
       <path id="m40f7569aa7" d="M 0 0 
L 0 3.5 
" style="stroke: #000000; stroke-width: 0.8"/>
      </defs>
      <g>
       <use xlink:href="#m40f7569aa7" x="139.691103" y="384.48" style="stroke: #000000; stroke-width: 0.8"/>
      </g>
     </g>
     <g id="text_1">
      <!-- 01-14 14 -->
      <g transform="translate(117.210634 399.078438) scale(0.1 -0.1)">
       <defs>
        <path id="DejaVuSans-30" d="M 2034 4250 
Q 1547 4250 1301 3770 
Q 1056 3291 1056 2328 
Q 1056 1369 1301 889 
Q 1547 409 2034 409 
Q 2525 409 2770 889 
Q 3016 1369 3016 2328 
Q 3016 3291 2770 3770 
Q 2525 4250 2034 4250 
z
M 2034 4750 
Q 2819 4750 3233 4129 
Q 3647 3509 3647 2328 
Q 3647 1150 3233 529 
Q 2819 -91 2034 -91 
Q 1250 -91 836 529 
Q 422 1150 422 2328 
Q 422 3509 836 4129 
Q 1250 4750 2034 4750 
z
" transform="scale(0.015625)"/>
        <path id="DejaVuSans-31" d="M 794 531 
L 1825 531 
L 1825 4091 
L 703 3866 
L 703 4441 
L 1819 4666 
L 2450 4666 
L 2450 531 
L 3481 531 
L 3481 0 
L 794 0 
L 794 531 
z
" transform="scale(0.015625)"/>
        <path id="DejaVuSans-2d" d="M 313 2009 
L 1997 2009 
L 1997 1497 
L 313 1497 
L 313 2009 
z
" transform="scale(0.015625)"/>
        <path id="DejaVuSans-34" d="M 2419 4116 
L 825 1625 
L 2419 1625 
L 2419 4116 
z
M 2253 4666 
L 3047 4666 
L 3047 1625 
L 3713 1625 
L 3713 1100 
L 3047 1100 
L 3047 0 
L 2419 0 
L 2419 1100 
L 313 1100 
L 313 1709 
L 2253 4666 
z
" transform="scale(0.015625)"/>
        <path id="DejaVuSans-20" transform="scale(0.015625)"/>
       </defs>
       <use xlink:href="#DejaVuSans-30"/>
       <use xlink:href="#DejaVuSans-31" transform="translate(63.623047 0)"/>
       <use xlink:href="#DejaVuSans-2d" transform="translate(127.246094 0)"/>
       <use xlink:href="#DejaVuSans-31" transform="translate(163.330078 0)"/>
       <use xlink:href="#DejaVuSans-34" transform="translate(226.953125 0)"/>
       <use xlink:href="#DejaVuSans-20" transform="translate(290.576172 0)"/>
       <use xlink:href="#DejaVuSans-31" transform="translate(322.363281 0)"/>
       <use xlink:href="#DejaVuSans-34" transform="translate(385.986328 0)"/>
      </g>
     </g>
    </g>
    <g id="xtick_2">
     <g id="line2d_3">
      <path d="M 193.75214 384.48 
L 193.75214 51.84 
" clip-path="url(#p3736281060)" style="fill: none; stroke: #b0b0b0; stroke-width: 0.8; stroke-linecap: square"/>
     </g>
     <g id="line2d_4">
      <g>
       <use xlink:href="#m40f7569aa7" x="193.75214" y="384.48" style="stroke: #000000; stroke-width: 0.8"/>
      </g>
     </g>
     <g id="text_2">
      <!-- 01-14 15 -->
      <g transform="translate(171.271671 399.078438) scale(0.1 -0.1)">
       <defs>
        <path id="DejaVuSans-35" d="M 691 4666 
L 3169 4666 
L 3169 4134 
L 1269 4134 
L 1269 2991 
Q 1406 3038 1543 3061 
Q 1681 3084 1819 3084 
Q 2600 3084 3056 2656 
Q 3513 2228 3513 1497 
Q 3513 744 3044 326 
Q 2575 -91 1722 -91 
Q 1428 -91 1123 -41 
Q 819 9 494 109 
L 494 744 
Q 775 591 1075 516 
Q 1375 441 1709 441 
Q 2250 441 2565 725 
Q 2881 1009 2881 1497 
Q 2881 1984 2565 2268 
Q 2250 2553 1709 2553 
Q 1456 2553 1204 2497 
Q 953 2441 691 2322 
L 691 4666 
z
" transform="scale(0.015625)"/>
       </defs>
       <use xlink:href="#DejaVuSans-30"/>
       <use xlink:href="#DejaVuSans-31" transform="translate(63.623047 0)"/>
       <use xlink:href="#DejaVuSans-2d" transform="translate(127.246094 0)"/>
       <use xlink:href="#DejaVuSans-31" transform="translate(163.330078 0)"/>
       <use xlink:href="#DejaVuSans-34" transform="translate(226.953125 0)"/>
       <use xlink:href="#DejaVuSans-20" transform="translate(290.576172 0)"/>
       <use xlink:href="#DejaVuSans-31" transform="translate(322.363281 0)"/>
       <use xlink:href="#DejaVuSans-35" transform="translate(385.986328 0)"/>
      </g>
     </g>
    </g>
    <g id="xtick_3">
     <g id="line2d_5">
      <path d="M 247.813176 384.48 
L 247.813176 51.84 
" clip-path="url(#p3736281060)" style="fill: none; stroke: #b0b0b0; stroke-width: 0.8; stroke-linecap: square"/>
     </g>
     <g id="line2d_6">
      <g>
       <use xlink:href="#m40f7569aa7" x="247.813176" y="384.48" style="stroke: #000000; stroke-width: 0.8"/>
      </g>
     </g>
     <g id="text_3">
      <!-- 01-14 16 -->
      <g transform="translate(225.332707 399.078438) scale(0.1 -0.1)">
       <defs>
        <path id="DejaVuSans-36" d="M 2113 2584 
Q 1688 2584 1439 2293 
Q 1191 2003 1191 1497 
Q 1191 994 1439 701 
Q 1688 409 2113 409 
Q 2538 409 2786 701 
Q 3034 994 3034 1497 
Q 3034 2003 2786 2293 
Q 2538 2584 2113 2584 
z
M 3366 4563 
L 3366 3988 
Q 3128 4100 2886 4159 
Q 2644 4219 2406 4219 
Q 1781 4219 1451 3797 
Q 1122 3375 1075 2522 
Q 1259 2794 1537 2939 
Q 1816 3084 2150 3084 
Q 2853 3084 3261 2657 
Q 3669 2231 3669 1497 
Q 3669 778 3244 343 
Q 2819 -91 2113 -91 
Q 1303 -91 875 529 
Q 447 1150 447 2328 
Q 447 3434 972 4092 
Q 1497 4750 2381 4750 
Q 2619 4750 2861 4703 
Q 3103 4656 3366 4563 
z
" transform="scale(0.015625)"/>
       </defs>
       <use xlink:href="#DejaVuSans-30"/>
       <use xlink:href="#DejaVuSans-31" transform="translate(63.623047 0)"/>
       <use xlink:href="#DejaVuSans-2d" transform="translate(127.246094 0)"/>
       <use xlink:href="#DejaVuSans-31" transform="translate(163.330078 0)"/>
       <use xlink:href="#DejaVuSans-34" transform="translate(226.953125 0)"/>
       <use xlink:href="#DejaVuSans-20" transform="translate(290.576172 0)"/>
       <use xlink:href="#DejaVuSans-31" transform="translate(322.363281 0)"/>
       <use xlink:href="#DejaVuSans-36" transform="translate(385.986328 0)"/>
      </g>
     </g>
    </g>
    <g id="xtick_4">
     <g id="line2d_7">
      <path d="M 301.874213 384.48 
L 301.874213 51.84 
" clip-path="url(#p3736281060)" style="fill: none; stroke: #b0b0b0; stroke-width: 0.8; stroke-linecap: square"/>
     </g>
     <g id="line2d_8">
      <g>
       <use xlink:href="#m40f7569aa7" x="301.874213" y="384.48" style="stroke: #000000; stroke-width: 0.8"/>
      </g>
     </g>
     <g id="text_4">
      <!-- 01-14 17 -->
      <g transform="translate(279.393744 399.078438) scale(0.1 -0.1)">
       <defs>
        <path id="DejaVuSans-37" d="M 525 4666 
L 3525 4666 
L 3525 4397 
L 1831 0 
L 1172 0 
L 2766 4134 
L 525 4134 
L 525 4666 
z
" transform="scale(0.015625)"/>
       </defs>
       <use xlink:href="#DejaVuSans-30"/>
       <use xlink:href="#DejaVuSans-31" transform="translate(63.623047 0)"/>
       <use xlink:href="#DejaVuSans-2d" transform="translate(127.246094 0)"/>
       <use xlink:href="#DejaVuSans-31" transform="translate(163.330078 0)"/>
       <use xlink:href="#DejaVuSans-34" transform="translate(226.953125 0)"/>
       <use xlink:href="#DejaVuSans-20" transform="translate(290.576172 0)"/>
       <use xlink:href="#DejaVuSans-31" transform="translate(322.363281 0)"/>
       <use xlink:href="#DejaVuSans-37" transform="translate(385.986328 0)"/>
      </g>
     </g>
    </g>
    <g id="xtick_5">
     <g id="line2d_9">
      <path d="M 355.935249 384.48 
L 355.935249 51.84 
" clip-path="url(#p3736281060)" style="fill: none; stroke: #b0b0b0; stroke-width: 0.8; stroke-linecap: square"/>
     </g>
     <g id="line2d_10">
      <g>
       <use xlink:href="#m40f7569aa7" x="355.935249" y="384.48" style="stroke: #000000; stroke-width: 0.8"/>
      </g>
     </g>
     <g id="text_5">
      <!-- 01-14 18 -->
      <g transform="translate(333.454781 399.078438) scale(0.1 -0.1)">
       <defs>
        <path id="DejaVuSans-38" d="M 2034 2216 
Q 1584 2216 1326 1975 
Q 1069 1734 1069 1313 
Q 1069 891 1326 650 
Q 1584 409 2034 409 
Q 2484 409 2743 651 
Q 3003 894 3003 1313 
Q 3003 1734 2745 1975 
Q 2488 2216 2034 2216 
z
M 1403 2484 
Q 997 2584 770 2862 
Q 544 3141 544 3541 
Q 544 4100 942 4425 
Q 1341 4750 2034 4750 
Q 2731 4750 3128 4425 
Q 3525 4100 3525 3541 
Q 3525 3141 3298 2862 
Q 3072 2584 2669 2484 
Q 3125 2378 3379 2068 
Q 3634 1759 3634 1313 
Q 3634 634 3220 271 
Q 2806 -91 2034 -91 
Q 1263 -91 848 271 
Q 434 634 434 1313 
Q 434 1759 690 2068 
Q 947 2378 1403 2484 
z
M 1172 3481 
Q 1172 3119 1398 2916 
Q 1625 2713 2034 2713 
Q 2441 2713 2670 2916 
Q 2900 3119 2900 3481 
Q 2900 3844 2670 4047 
Q 2441 4250 2034 4250 
Q 1625 4250 1398 4047 
Q 1172 3844 1172 3481 
z
" transform="scale(0.015625)"/>
       </defs>
       <use xlink:href="#DejaVuSans-30"/>
       <use xlink:href="#DejaVuSans-31" transform="translate(63.623047 0)"/>
       <use xlink:href="#DejaVuSans-2d" transform="translate(127.246094 0)"/>
       <use xlink:href="#DejaVuSans-31" transform="translate(163.330078 0)"/>
       <use xlink:href="#DejaVuSans-34" transform="translate(226.953125 0)"/>
       <use xlink:href="#DejaVuSans-20" transform="translate(290.576172 0)"/>
       <use xlink:href="#DejaVuSans-31" transform="translate(322.363281 0)"/>
       <use xlink:href="#DejaVuSans-38" transform="translate(385.986328 0)"/>
      </g>
     </g>
    </g>
    <g id="xtick_6">
     <g id="line2d_11">
      <path d="M 409.996286 384.48 
L 409.996286 51.84 
" clip-path="url(#p3736281060)" style="fill: none; stroke: #b0b0b0; stroke-width: 0.8; stroke-linecap: square"/>
     </g>
     <g id="line2d_12">
      <g>
       <use xlink:href="#m40f7569aa7" x="409.996286" y="384.48" style="stroke: #000000; stroke-width: 0.8"/>
      </g>
     </g>
     <g id="text_6">
      <!-- 01-14 19 -->
      <g transform="translate(387.515817 399.078438) scale(0.1 -0.1)">
       <defs>
        <path id="DejaVuSans-39" d="M 703 97 
L 703 672 
Q 941 559 1184 500 
Q 1428 441 1663 441 
Q 2288 441 2617 861 
Q 2947 1281 2994 2138 
Q 2813 1869 2534 1725 
Q 2256 1581 1919 1581 
Q 1219 1581 811 2004 
Q 403 2428 403 3163 
Q 403 3881 828 4315 
Q 1253 4750 1959 4750 
Q 2769 4750 3195 4129 
Q 3622 3509 3622 2328 
Q 3622 1225 3098 567 
Q 2575 -91 1691 -91 
Q 1453 -91 1209 -44 
Q 966 3 703 97 
z
M 1959 2075 
Q 2384 2075 2632 2365 
Q 2881 2656 2881 3163 
Q 2881 3666 2632 3958 
Q 2384 4250 1959 4250 
Q 1534 4250 1286 3958 
Q 1038 3666 1038 3163 
Q 1038 2656 1286 2365 
Q 1534 2075 1959 2075 
z
" transform="scale(0.015625)"/>
       </defs>
       <use xlink:href="#DejaVuSans-30"/>
       <use xlink:href="#DejaVuSans-31" transform="translate(63.623047 0)"/>
       <use xlink:href="#DejaVuSans-2d" transform="translate(127.246094 0)"/>
       <use xlink:href="#DejaVuSans-31" transform="translate(163.330078 0)"/>
       <use xlink:href="#DejaVuSans-34" transform="translate(226.953125 0)"/>
       <use xlink:href="#DejaVuSans-20" transform="translate(290.576172 0)"/>
       <use xlink:href="#DejaVuSans-31" transform="translate(322.363281 0)"/>
       <use xlink:href="#DejaVuSans-39" transform="translate(385.986328 0)"/>
      </g>
     </g>
    </g>
    <g id="xtick_7">
     <g id="line2d_13">
      <path d="M 464.057323 384.48 
L 464.057323 51.84 
" clip-path="url(#p3736281060)" style="fill: none; stroke: #b0b0b0; stroke-width: 0.8; stroke-linecap: square"/>
     </g>
     <g id="line2d_14">
      <g>
       <use xlink:href="#m40f7569aa7" x="464.057323" y="384.48" style="stroke: #000000; stroke-width: 0.8"/>
      </g>
     </g>
     <g id="text_7">
      <!-- 01-14 20 -->
      <g transform="translate(441.576854 399.078438) scale(0.1 -0.1)">
       <defs>
        <path id="DejaVuSans-32" d="M 1228 531 
L 3431 531 
L 3431 0 
L 469 0 
L 469 531 
Q 828 903 1448 1529 
Q 2069 2156 2228 2338 
Q 2531 2678 2651 2914 
Q 2772 3150 2772 3378 
Q 2772 3750 2511 3984 
Q 2250 4219 1831 4219 
Q 1534 4219 1204 4116 
Q 875 4013 500 3803 
L 500 4441 
Q 881 4594 1212 4672 
Q 1544 4750 1819 4750 
Q 2544 4750 2975 4387 
Q 3406 4025 3406 3419 
Q 3406 3131 3298 2873 
Q 3191 2616 2906 2266 
Q 2828 2175 2409 1742 
Q 1991 1309 1228 531 
z
" transform="scale(0.015625)"/>
       </defs>
       <use xlink:href="#DejaVuSans-30"/>
       <use xlink:href="#DejaVuSans-31" transform="translate(63.623047 0)"/>
       <use xlink:href="#DejaVuSans-2d" transform="translate(127.246094 0)"/>
       <use xlink:href="#DejaVuSans-31" transform="translate(163.330078 0)"/>
       <use xlink:href="#DejaVuSans-34" transform="translate(226.953125 0)"/>
       <use xlink:href="#DejaVuSans-20" transform="translate(290.576172 0)"/>
       <use xlink:href="#DejaVuSans-32" transform="translate(322.363281 0)"/>
       <use xlink:href="#DejaVuSans-30" transform="translate(385.986328 0)"/>
      </g>
     </g>
    </g>
    <g id="xtick_8">
     <g id="line2d_15">
      <path d="M 518.118359 384.48 
L 518.118359 51.84 
" clip-path="url(#p3736281060)" style="fill: none; stroke: #b0b0b0; stroke-width: 0.8; stroke-linecap: square"/>
     </g>
     <g id="line2d_16">
      <g>
       <use xlink:href="#m40f7569aa7" x="518.118359" y="384.48" style="stroke: #000000; stroke-width: 0.8"/>
      </g>
     </g>
     <g id="text_8">
      <!-- 01-14 21 -->
      <g transform="translate(495.637891 399.078438) scale(0.1 -0.1)">
       <use xlink:href="#DejaVuSans-30"/>
       <use xlink:href="#DejaVuSans-31" transform="translate(63.623047 0)"/>
       <use xlink:href="#DejaVuSans-2d" transform="translate(127.246094 0)"/>
       <use xlink:href="#DejaVuSans-31" transform="translate(163.330078 0)"/>
       <use xlink:href="#DejaVuSans-34" transform="translate(226.953125 0)"/>
       <use xlink:href="#DejaVuSans-20" transform="translate(290.576172 0)"/>
       <use xlink:href="#DejaVuSans-32" transform="translate(322.363281 0)"/>
       <use xlink:href="#DejaVuSans-31" transform="translate(385.986328 0)"/>
      </g>
     </g>
    </g>
    <g id="xtick_9">
     <g id="line2d_17">
      <path d="M 572.179396 384.48 
L 572.179396 51.84 
" clip-path="url(#p3736281060)" style="fill: none; stroke: #b0b0b0; stroke-width: 0.8; stroke-linecap: square"/>
     </g>
     <g id="line2d_18">
      <g>
       <use xlink:href="#m40f7569aa7" x="572.179396" y="384.48" style="stroke: #000000; stroke-width: 0.8"/>
      </g>
     </g>
     <g id="text_9">
      <!-- 01-14 22 -->
      <g transform="translate(549.698927 399.078438) scale(0.1 -0.1)">
       <use xlink:href="#DejaVuSans-30"/>
       <use xlink:href="#DejaVuSans-31" transform="translate(63.623047 0)"/>
       <use xlink:href="#DejaVuSans-2d" transform="translate(127.246094 0)"/>
       <use xlink:href="#DejaVuSans-31" transform="translate(163.330078 0)"/>
       <use xlink:href="#DejaVuSans-34" transform="translate(226.953125 0)"/>
       <use xlink:href="#DejaVuSans-20" transform="translate(290.576172 0)"/>
       <use xlink:href="#DejaVuSans-32" transform="translate(322.363281 0)"/>
       <use xlink:href="#DejaVuSans-32" transform="translate(385.986328 0)"/>
      </g>
     </g>
    </g>
    <g id="xtick_10">
     <g id="line2d_19">
      <path d="M 626.240433 384.48 
L 626.240433 51.84 
" clip-path="url(#p3736281060)" style="fill: none; stroke: #b0b0b0; stroke-width: 0.8; stroke-linecap: square"/>
     </g>
     <g id="line2d_20">
      <g>
       <use xlink:href="#m40f7569aa7" x="626.240433" y="384.48" style="stroke: #000000; stroke-width: 0.8"/>
      </g>
     </g>
     <g id="text_10">
      <!-- 01-14 23 -->
      <g transform="translate(603.759964 399.078438) scale(0.1 -0.1)">
       <defs>
        <path id="DejaVuSans-33" d="M 2597 2516 
Q 3050 2419 3304 2112 
Q 3559 1806 3559 1356 
Q 3559 666 3084 287 
Q 2609 -91 1734 -91 
Q 1441 -91 1130 -33 
Q 819 25 488 141 
L 488 750 
Q 750 597 1062 519 
Q 1375 441 1716 441 
Q 2309 441 2620 675 
Q 2931 909 2931 1356 
Q 2931 1769 2642 2001 
Q 2353 2234 1838 2234 
L 1294 2234 
L 1294 2753 
L 1863 2753 
Q 2328 2753 2575 2939 
Q 2822 3125 2822 3475 
Q 2822 3834 2567 4026 
Q 2313 4219 1838 4219 
Q 1578 4219 1281 4162 
Q 984 4106 628 3988 
L 628 4550 
Q 988 4650 1302 4700 
Q 1616 4750 1894 4750 
Q 2613 4750 3031 4423 
Q 3450 4097 3450 3541 
Q 3450 3153 3228 2886 
Q 3006 2619 2597 2516 
z
" transform="scale(0.015625)"/>
       </defs>
       <use xlink:href="#DejaVuSans-30"/>
       <use xlink:href="#DejaVuSans-31" transform="translate(63.623047 0)"/>
       <use xlink:href="#DejaVuSans-2d" transform="translate(127.246094 0)"/>
       <use xlink:href="#DejaVuSans-31" transform="translate(163.330078 0)"/>
       <use xlink:href="#DejaVuSans-34" transform="translate(226.953125 0)"/>
       <use xlink:href="#DejaVuSans-20" transform="translate(290.576172 0)"/>
       <use xlink:href="#DejaVuSans-32" transform="translate(322.363281 0)"/>
       <use xlink:href="#DejaVuSans-33" transform="translate(385.986328 0)"/>
      </g>
     </g>
    </g>
    <g id="text_11">
     <!-- Date and Time -->
     <g transform="translate(332.230469 412.756563) scale(0.1 -0.1)">
      <defs>
       <path id="DejaVuSans-44" d="M 1259 4147 
L 1259 519 
L 2022 519 
Q 2988 519 3436 956 
Q 3884 1394 3884 2338 
Q 3884 3275 3436 3711 
Q 2988 4147 2022 4147 
L 1259 4147 
z
M 628 4666 
L 1925 4666 
Q 3281 4666 3915 4102 
Q 4550 3538 4550 2338 
Q 4550 1131 3912 565 
Q 3275 0 1925 0 
L 628 0 
L 628 4666 
z
" transform="scale(0.015625)"/>
       <path id="DejaVuSans-61" d="M 2194 1759 
Q 1497 1759 1228 1600 
Q 959 1441 959 1056 
Q 959 750 1161 570 
Q 1363 391 1709 391 
Q 2188 391 2477 730 
Q 2766 1069 2766 1631 
L 2766 1759 
L 2194 1759 
z
M 3341 1997 
L 3341 0 
L 2766 0 
L 2766 531 
Q 2569 213 2275 61 
Q 1981 -91 1556 -91 
Q 1019 -91 701 211 
Q 384 513 384 1019 
Q 384 1609 779 1909 
Q 1175 2209 1959 2209 
L 2766 2209 
L 2766 2266 
Q 2766 2663 2505 2880 
Q 2244 3097 1772 3097 
Q 1472 3097 1187 3025 
Q 903 2953 641 2809 
L 641 3341 
Q 956 3463 1253 3523 
Q 1550 3584 1831 3584 
Q 2591 3584 2966 3190 
Q 3341 2797 3341 1997 
z
" transform="scale(0.015625)"/>
       <path id="DejaVuSans-74" d="M 1172 4494 
L 1172 3500 
L 2356 3500 
L 2356 3053 
L 1172 3053 
L 1172 1153 
Q 1172 725 1289 603 
Q 1406 481 1766 481 
L 2356 481 
L 2356 0 
L 1766 0 
Q 1100 0 847 248 
Q 594 497 594 1153 
L 594 3053 
L 172 3053 
L 172 3500 
L 594 3500 
L 594 4494 
L 1172 4494 
z
" transform="scale(0.015625)"/>
       <path id="DejaVuSans-65" d="M 3597 1894 
L 3597 1613 
L 953 1613 
Q 991 1019 1311 708 
Q 1631 397 2203 397 
Q 2534 397 2845 478 
Q 3156 559 3463 722 
L 3463 178 
Q 3153 47 2828 -22 
Q 2503 -91 2169 -91 
Q 1331 -91 842 396 
Q 353 884 353 1716 
Q 353 2575 817 3079 
Q 1281 3584 2069 3584 
Q 2775 3584 3186 3129 
Q 3597 2675 3597 1894 
z
M 3022 2063 
Q 3016 2534 2758 2815 
Q 2500 3097 2075 3097 
Q 1594 3097 1305 2825 
Q 1016 2553 972 2059 
L 3022 2063 
z
" transform="scale(0.015625)"/>
       <path id="DejaVuSans-6e" d="M 3513 2113 
L 3513 0 
L 2938 0 
L 2938 2094 
Q 2938 2591 2744 2837 
Q 2550 3084 2163 3084 
Q 1697 3084 1428 2787 
Q 1159 2491 1159 1978 
L 1159 0 
L 581 0 
L 581 3500 
L 1159 3500 
L 1159 2956 
Q 1366 3272 1645 3428 
Q 1925 3584 2291 3584 
Q 2894 3584 3203 3211 
Q 3513 2838 3513 2113 
z
" transform="scale(0.015625)"/>
       <path id="DejaVuSans-64" d="M 2906 2969 
L 2906 4863 
L 3481 4863 
L 3481 0 
L 2906 0 
L 2906 525 
Q 2725 213 2448 61 
Q 2172 -91 1784 -91 
Q 1150 -91 751 415 
Q 353 922 353 1747 
Q 353 2572 751 3078 
Q 1150 3584 1784 3584 
Q 2172 3584 2448 3432 
Q 2725 3281 2906 2969 
z
M 947 1747 
Q 947 1113 1208 752 
Q 1469 391 1925 391 
Q 2381 391 2643 752 
Q 2906 1113 2906 1747 
Q 2906 2381 2643 2742 
Q 2381 3103 1925 3103 
Q 1469 3103 1208 2742 
Q 947 2381 947 1747 
z
" transform="scale(0.015625)"/>
       <path id="DejaVuSans-54" d="M -19 4666 
L 3928 4666 
L 3928 4134 
L 2272 4134 
L 2272 0 
L 1638 0 
L 1638 4134 
L -19 4134 
L -19 4666 
z
" transform="scale(0.015625)"/>
       <path id="DejaVuSans-69" d="M 603 3500 
L 1178 3500 
L 1178 0 
L 603 0 
L 603 3500 
z
M 603 4863 
L 1178 4863 
L 1178 4134 
L 603 4134 
L 603 4863 
z
" transform="scale(0.015625)"/>
       <path id="DejaVuSans-6d" d="M 3328 2828 
Q 3544 3216 3844 3400 
Q 4144 3584 4550 3584 
Q 5097 3584 5394 3201 
Q 5691 2819 5691 2113 
L 5691 0 
L 5113 0 
L 5113 2094 
Q 5113 2597 4934 2840 
Q 4756 3084 4391 3084 
Q 3944 3084 3684 2787 
Q 3425 2491 3425 1978 
L 3425 0 
L 2847 0 
L 2847 2094 
Q 2847 2600 2669 2842 
Q 2491 3084 2119 3084 
Q 1678 3084 1418 2786 
Q 1159 2488 1159 1978 
L 1159 0 
L 581 0 
L 581 3500 
L 1159 3500 
L 1159 2956 
Q 1356 3278 1631 3431 
Q 1906 3584 2284 3584 
Q 2666 3584 2933 3390 
Q 3200 3197 3328 2828 
z
" transform="scale(0.015625)"/>
      </defs>
      <use xlink:href="#DejaVuSans-44"/>
      <use xlink:href="#DejaVuSans-61" transform="translate(77.001953 0)"/>
      <use xlink:href="#DejaVuSans-74" transform="translate(138.28125 0)"/>
      <use xlink:href="#DejaVuSans-65" transform="translate(177.490234 0)"/>
      <use xlink:href="#DejaVuSans-20" transform="translate(239.013672 0)"/>
      <use xlink:href="#DejaVuSans-61" transform="translate(270.800781 0)"/>
      <use xlink:href="#DejaVuSans-6e" transform="translate(332.080078 0)"/>
      <use xlink:href="#DejaVuSans-64" transform="translate(395.458984 0)"/>
      <use xlink:href="#DejaVuSans-20" transform="translate(458.935547 0)"/>
      <use xlink:href="#DejaVuSans-54" transform="translate(490.722656 0)"/>
      <use xlink:href="#DejaVuSans-69" transform="translate(548.681641 0)"/>
      <use xlink:href="#DejaVuSans-6d" transform="translate(576.464844 0)"/>
      <use xlink:href="#DejaVuSans-65" transform="translate(673.876953 0)"/>
     </g>
    </g>
   </g>
   <g id="matplotlib.axis_2">
    <g id="ytick_1">
     <g id="line2d_21">
      <path d="M 90 370.313943 
L 648 370.313943 
" clip-path="url(#p3736281060)" style="fill: none; stroke: #b0b0b0; stroke-width: 0.8; stroke-linecap: square"/>
     </g>
     <g id="line2d_22">
      <defs>
       <path id="mcd18b8a702" d="M 0 0 
L -3.5 0 
" style="stroke: #000000; stroke-width: 0.8"/>
      </defs>
      <g>
       <use xlink:href="#mcd18b8a702" x="90" y="370.313943" style="stroke: #000000; stroke-width: 0.8"/>
      </g>
     </g>
     <g id="text_12">
      <!-- 0 -->
      <g transform="translate(76.6375 374.113162) scale(0.1 -0.1)">
       <use xlink:href="#DejaVuSans-30"/>
      </g>
     </g>
    </g>
    <g id="ytick_2">
     <g id="line2d_23">
      <path d="M 90 322.616782 
L 648 322.616782 
" clip-path="url(#p3736281060)" style="fill: none; stroke: #b0b0b0; stroke-width: 0.8; stroke-linecap: square"/>
     </g>
     <g id="line2d_24">
      <g>
       <use xlink:href="#mcd18b8a702" x="90" y="322.616782" style="stroke: #000000; stroke-width: 0.8"/>
      </g>
     </g>
     <g id="text_13">
      <!-- 50 -->
      <g transform="translate(70.275 326.416001) scale(0.1 -0.1)">
       <use xlink:href="#DejaVuSans-35"/>
       <use xlink:href="#DejaVuSans-30" transform="translate(63.623047 0)"/>
      </g>
     </g>
    </g>
    <g id="ytick_3">
     <g id="line2d_25">
      <path d="M 90 274.919621 
L 648 274.919621 
" clip-path="url(#p3736281060)" style="fill: none; stroke: #b0b0b0; stroke-width: 0.8; stroke-linecap: square"/>
     </g>
     <g id="line2d_26">
      <g>
       <use xlink:href="#mcd18b8a702" x="90" y="274.919621" style="stroke: #000000; stroke-width: 0.8"/>
      </g>
     </g>
     <g id="text_14">
      <!-- 100 -->
      <g transform="translate(63.9125 278.71884) scale(0.1 -0.1)">
       <use xlink:href="#DejaVuSans-31"/>
       <use xlink:href="#DejaVuSans-30" transform="translate(63.623047 0)"/>
       <use xlink:href="#DejaVuSans-30" transform="translate(127.246094 0)"/>
      </g>
     </g>
    </g>
    <g id="ytick_4">
     <g id="line2d_27">
      <path d="M 90 227.222461 
L 648 227.222461 
" clip-path="url(#p3736281060)" style="fill: none; stroke: #b0b0b0; stroke-width: 0.8; stroke-linecap: square"/>
     </g>
     <g id="line2d_28">
      <g>
       <use xlink:href="#mcd18b8a702" x="90" y="227.222461" style="stroke: #000000; stroke-width: 0.8"/>
      </g>
     </g>
     <g id="text_15">
      <!-- 150 -->
      <g transform="translate(63.9125 231.021679) scale(0.1 -0.1)">
       <use xlink:href="#DejaVuSans-31"/>
       <use xlink:href="#DejaVuSans-35" transform="translate(63.623047 0)"/>
       <use xlink:href="#DejaVuSans-30" transform="translate(127.246094 0)"/>
      </g>
     </g>
    </g>
    <g id="ytick_5">
     <g id="line2d_29">
      <path d="M 90 179.5253 
L 648 179.5253 
" clip-path="url(#p3736281060)" style="fill: none; stroke: #b0b0b0; stroke-width: 0.8; stroke-linecap: square"/>
     </g>
     <g id="line2d_30">
      <g>
       <use xlink:href="#mcd18b8a702" x="90" y="179.5253" style="stroke: #000000; stroke-width: 0.8"/>
      </g>
     </g>
     <g id="text_16">
      <!-- 200 -->
      <g transform="translate(63.9125 183.324518) scale(0.1 -0.1)">
       <use xlink:href="#DejaVuSans-32"/>
       <use xlink:href="#DejaVuSans-30" transform="translate(63.623047 0)"/>
       <use xlink:href="#DejaVuSans-30" transform="translate(127.246094 0)"/>
      </g>
     </g>
    </g>
    <g id="ytick_6">
     <g id="line2d_31">
      <path d="M 90 131.828139 
L 648 131.828139 
" clip-path="url(#p3736281060)" style="fill: none; stroke: #b0b0b0; stroke-width: 0.8; stroke-linecap: square"/>
     </g>
     <g id="line2d_32">
      <g>
       <use xlink:href="#mcd18b8a702" x="90" y="131.828139" style="stroke: #000000; stroke-width: 0.8"/>
      </g>
     </g>
     <g id="text_17">
      <!-- 250 -->
      <g transform="translate(63.9125 135.627358) scale(0.1 -0.1)">
       <use xlink:href="#DejaVuSans-32"/>
       <use xlink:href="#DejaVuSans-35" transform="translate(63.623047 0)"/>
       <use xlink:href="#DejaVuSans-30" transform="translate(127.246094 0)"/>
      </g>
     </g>
    </g>
    <g id="ytick_7">
     <g id="line2d_33">
      <path d="M 90 84.130978 
L 648 84.130978 
" clip-path="url(#p3736281060)" style="fill: none; stroke: #b0b0b0; stroke-width: 0.8; stroke-linecap: square"/>
     </g>
     <g id="line2d_34">
      <g>
       <use xlink:href="#mcd18b8a702" x="90" y="84.130978" style="stroke: #000000; stroke-width: 0.8"/>
      </g>
     </g>
     <g id="text_18">
      <!-- 300 -->
      <g transform="translate(63.9125 87.930197) scale(0.1 -0.1)">
       <use xlink:href="#DejaVuSans-33"/>
       <use xlink:href="#DejaVuSans-30" transform="translate(63.623047 0)"/>
       <use xlink:href="#DejaVuSans-30" transform="translate(127.246094 0)"/>
      </g>
     </g>
    </g>
    <g id="text_19">
     <!-- Votes -->
     <g transform="translate(57.832812 231.893594) rotate(-90) scale(0.1 -0.1)">
      <defs>
       <path id="DejaVuSans-56" d="M 1831 0 
L 50 4666 
L 709 4666 
L 2188 738 
L 3669 4666 
L 4325 4666 
L 2547 0 
L 1831 0 
z
" transform="scale(0.015625)"/>
       <path id="DejaVuSans-6f" d="M 1959 3097 
Q 1497 3097 1228 2736 
Q 959 2375 959 1747 
Q 959 1119 1226 758 
Q 1494 397 1959 397 
Q 2419 397 2687 759 
Q 2956 1122 2956 1747 
Q 2956 2369 2687 2733 
Q 2419 3097 1959 3097 
z
M 1959 3584 
Q 2709 3584 3137 3096 
Q 3566 2609 3566 1747 
Q 3566 888 3137 398 
Q 2709 -91 1959 -91 
Q 1206 -91 779 398 
Q 353 888 353 1747 
Q 353 2609 779 3096 
Q 1206 3584 1959 3584 
z
" transform="scale(0.015625)"/>
       <path id="DejaVuSans-73" d="M 2834 3397 
L 2834 2853 
Q 2591 2978 2328 3040 
Q 2066 3103 1784 3103 
Q 1356 3103 1142 2972 
Q 928 2841 928 2578 
Q 928 2378 1081 2264 
Q 1234 2150 1697 2047 
L 1894 2003 
Q 2506 1872 2764 1633 
Q 3022 1394 3022 966 
Q 3022 478 2636 193 
Q 2250 -91 1575 -91 
Q 1294 -91 989 -36 
Q 684 19 347 128 
L 347 722 
Q 666 556 975 473 
Q 1284 391 1588 391 
Q 1994 391 2212 530 
Q 2431 669 2431 922 
Q 2431 1156 2273 1281 
Q 2116 1406 1581 1522 
L 1381 1569 
Q 847 1681 609 1914 
Q 372 2147 372 2553 
Q 372 3047 722 3315 
Q 1072 3584 1716 3584 
Q 2034 3584 2315 3537 
Q 2597 3491 2834 3397 
z
" transform="scale(0.015625)"/>
      </defs>
      <use xlink:href="#DejaVuSans-56"/>
      <use xlink:href="#DejaVuSans-6f" transform="translate(60.658203 0)"/>
      <use xlink:href="#DejaVuSans-74" transform="translate(121.839844 0)"/>
      <use xlink:href="#DejaVuSans-65" transform="translate(161.048828 0)"/>
      <use xlink:href="#DejaVuSans-73" transform="translate(222.572266 0)"/>
     </g>
    </g>
   </g>
   <g id="line2d_35">
    <path d="M 115.363636 353.142965 
L 124.373809 353.142965 
L 125.274826 352.189022 
L 134.284999 352.189022 
L 135.186016 350.281136 
L 143.295172 350.281136 
L 144.196189 349.327192 
L 148.701276 349.327192 
L 149.602293 348.373249 
L 153.206362 348.373249 
L 154.107379 347.419306 
L 156.810431 347.419306 
L 157.711448 346.465363 
L 170.32569 346.465363 
L 171.226708 345.51142 
L 181.137898 345.51142 
L 182.939932 343.603533 
L 184.741967 343.603533 
L 185.642984 342.64959 
L 193.75214 342.64959 
L 195.554174 340.741703 
L 206.366381 340.741703 
L 207.267399 339.78776 
L 209.970451 339.78776 
L 210.871468 338.833817 
L 211.772485 338.833817 
L 212.673502 337.879874 
L 237.000969 337.879874 
L 237.901986 336.925931 
L 248.714193 336.925931 
L 249.615211 335.971987 
L 255.922332 335.971987 
L 256.823349 335.018044 
L 257.724366 333.110158 
L 258.625383 333.110158 
L 260.427418 331.202271 
L 274.843694 331.202271 
L 275.744712 330.248328 
L 281.150815 330.248328 
L 282.051833 329.294385 
L 285.655902 329.294385 
L 286.556919 328.340442 
L 295.567092 328.340442 
L 296.468109 327.386498 
L 298.270144 327.386498 
L 299.171161 326.432555 
L 301.874213 326.432555 
L 302.77523 325.478612 
L 309.983368 325.478612 
L 310.884386 324.524669 
L 311.785403 324.524669 
L 312.68642 323.570726 
L 321.696593 323.570726 
L 322.59761 322.616782 
L 328.904731 322.616782 
L 329.805748 321.662839 
L 330.706766 321.662839 
L 332.5088 319.754953 
L 352.33118 319.754953 
L 353.232198 318.801009 
L 367.648474 318.801009 
L 368.549491 317.847066 
L 369.450509 317.847066 
L 370.351526 316.893123 
L 378.460681 316.893123 
L 379.361699 315.93918 
L 380.262716 315.93918 
L 381.163733 314.985237 
L 385.66882 314.985237 
L 386.569837 314.031293 
L 389.272889 314.031293 
L 391.074923 312.123407 
L 391.975941 312.123407 
L 392.876958 311.169464 
L 394.678992 311.169464 
L 395.58001 310.215521 
L 397.382044 310.215521 
L 398.283062 309.261577 
L 400.085096 309.261577 
L 400.986113 308.307634 
L 422.610528 308.307634 
L 423.511545 307.353691 
L 432.521718 307.353691 
L 433.422735 306.399748 
L 438.828839 306.399748 
L 439.729856 305.445804 
L 440.630874 305.445804 
L 441.531891 304.491861 
L 442.432908 304.491861 
L 446.036977 300.676088 
L 447.839012 300.676088 
L 448.740029 298.768202 
L 455.948167 298.768202 
L 457.750202 296.860315 
L 459.552236 296.860315 
L 460.453254 295.906372 
L 464.057323 295.906372 
L 464.95834 294.952429 
L 471.265461 294.952429 
L 472.166478 293.998486 
L 473.968513 293.998486 
L 474.86953 293.044543 
L 480.275634 293.044543 
L 482.077668 291.136656 
L 488.384789 291.136656 
L 489.285807 290.182713 
L 491.988858 290.182713 
L 492.889876 289.22877 
L 494.69191 289.22877 
L 495.592928 287.320883 
L 499.196997 287.320883 
L 500.098014 285.412997 
L 500.999031 284.459054 
L 504.6031 284.459054 
L 505.504118 282.551167 
L 511.811238 282.551167 
L 512.712256 281.597224 
L 516.316325 281.597224 
L 517.217342 280.643281 
L 519.920394 280.643281 
L 520.821411 279.689338 
L 521.722429 277.781451 
L 523.524463 277.781451 
L 524.42548 276.827508 
L 538.841757 276.827508 
L 540.643791 274.919621 
L 553.258033 274.919621 
L 554.159051 273.965678 
L 559.565154 273.965678 
L 560.466171 273.011735 
L 572.179396 273.011735 
L 573.080413 272.057792 
L 581.189569 272.057792 
L 582.090586 271.103849 
L 605.517035 271.103849 
L 606.418053 270.149905 
L 622.636364 270.149905 
L 622.636364 270.149905 
" clip-path="url(#p3736281060)" style="fill: none; stroke: #1f77b4; stroke-width: 1.5; stroke-linecap: square"/>
   </g>
   <g id="line2d_36">
    <path d="M 115.363636 292.090599 
L 116.264654 291.136656 
L 118.967705 291.136656 
L 119.868723 290.182713 
L 120.76974 290.182713 
L 121.670757 289.22877 
L 122.571775 289.22877 
L 124.373809 287.320883 
L 125.274826 285.412997 
L 126.175844 285.412997 
L 127.977878 283.50511 
L 128.878896 283.50511 
L 129.779913 279.689338 
L 130.68093 277.781451 
L 131.581947 273.965678 
L 132.482965 271.103849 
L 135.186016 271.103849 
L 136.087034 268.242019 
L 136.988051 266.334132 
L 138.790086 264.426246 
L 139.691103 262.51836 
L 141.493137 260.610473 
L 142.394155 258.702587 
L 145.097207 258.702587 
L 145.998224 253.932871 
L 146.899241 252.024984 
L 147.800258 251.071041 
L 148.701276 249.163155 
L 149.602293 248.209211 
L 150.50331 248.209211 
L 151.404327 245.347382 
L 152.305345 245.347382 
L 153.206362 243.439495 
L 154.107379 242.485552 
L 155.008397 242.485552 
L 155.909414 241.531609 
L 157.711448 241.531609 
L 158.612466 240.577666 
L 160.4145 240.577666 
L 161.315518 238.669779 
L 162.216535 238.669779 
L 163.117552 237.715836 
L 166.721621 237.715836 
L 167.622638 236.761893 
L 170.32569 236.761893 
L 171.226708 235.80795 
L 172.127725 235.80795 
L 173.028742 233.900063 
L 173.929759 233.900063 
L 174.830777 231.992177 
L 175.731794 231.038233 
L 178.434846 231.038233 
L 179.335863 229.130347 
L 180.23688 228.176404 
L 181.137898 225.314574 
L 182.939932 223.406688 
L 190.14807 223.406688 
L 191.049088 220.544858 
L 191.950105 220.544858 
L 193.75214 218.636972 
L 194.653157 218.636972 
L 197.356209 215.775142 
L 199.158243 215.775142 
L 200.05926 214.821199 
L 201.861295 214.821199 
L 204.564347 211.959369 
L 206.366381 211.959369 
L 207.267399 211.005426 
L 211.772485 211.005426 
L 212.673502 210.051483 
L 214.475537 210.051483 
L 215.376554 209.097539 
L 226.188762 209.097539 
L 227.089779 207.189653 
L 228.891813 207.189653 
L 230.693848 205.281767 
L 231.594865 205.281767 
L 232.495882 204.327823 
L 237.901986 204.327823 
L 240.605038 201.465994 
L 241.506055 201.465994 
L 242.407072 200.51205 
L 243.30809 198.604164 
L 244.209107 198.604164 
L 245.110124 197.650221 
L 246.011142 197.650221 
L 249.615211 193.834448 
L 251.417245 193.834448 
L 252.318263 191.926562 
L 255.021314 191.926562 
L 255.922332 190.972618 
L 258.625383 190.972618 
L 259.526401 190.018675 
L 260.427418 190.018675 
L 261.328435 187.156845 
L 264.031487 187.156845 
L 264.932504 186.202902 
L 265.833522 184.295016 
L 267.635556 184.295016 
L 268.536574 183.341073 
L 270.338608 183.341073 
L 271.239625 182.387129 
L 272.140643 182.387129 
L 276.645729 177.617413 
L 278.447764 177.617413 
L 281.150815 174.755584 
L 283.853867 174.755584 
L 284.754885 172.847697 
L 285.655902 172.847697 
L 286.556919 171.893754 
L 289.259971 171.893754 
L 290.160988 170.939811 
L 298.270144 170.939811 
L 299.171161 169.985868 
L 305.478282 169.985868 
L 306.379299 169.031924 
L 308.181334 169.031924 
L 309.983368 167.124038 
L 314.488455 167.124038 
L 315.389472 166.170095 
L 319.894558 166.170095 
L 322.59761 163.308265 
L 334.310835 163.308265 
L 335.211852 161.400379 
L 336.112869 160.446435 
L 357.737284 160.446435 
L 358.638301 159.492492 
L 364.044405 159.492492 
L 365.84644 157.584606 
L 367.648474 157.584606 
L 368.549491 156.630662 
L 369.450509 156.630662 
L 371.252543 154.722776 
L 372.15356 154.722776 
L 373.054578 153.768833 
L 373.955595 153.768833 
L 375.75763 149.95306 
L 376.658647 148.999117 
L 381.163733 148.999117 
L 382.064751 146.137287 
L 382.965768 144.229401 
L 384.767802 144.229401 
L 386.569837 142.321514 
L 391.074923 142.321514 
L 392.876958 140.413628 
L 394.678992 140.413628 
L 395.58001 139.459685 
L 397.382044 139.459685 
L 398.283062 138.505741 
L 399.184079 138.505741 
L 400.085096 137.551798 
L 400.986113 137.551798 
L 401.887131 136.597855 
L 402.788148 136.597855 
L 403.689165 135.643912 
L 405.4912 135.643912 
L 406.392217 133.736025 
L 410.897303 133.736025 
L 412.699338 131.828139 
L 421.709511 131.828139 
L 422.610528 130.874196 
L 423.511545 130.874196 
L 424.412563 129.920252 
L 425.31358 129.920252 
L 428.016632 127.058423 
L 429.818666 127.058423 
L 430.719684 126.104479 
L 448.740029 126.104479 
L 450.542064 124.196593 
L 454.146133 124.196593 
L 455.04715 123.24265 
L 455.948167 123.24265 
L 456.849185 122.288707 
L 457.750202 122.288707 
L 458.651219 121.334763 
L 478.473599 121.334763 
L 479.374617 120.38082 
L 497.394962 120.38082 
L 498.295979 118.472934 
L 504.6031 118.472934 
L 506.405135 116.565047 
L 508.207169 116.565047 
L 509.108187 115.611104 
L 510.910221 115.611104 
L 512.712256 113.703218 
L 514.51429 113.703218 
L 515.415308 111.795331 
L 522.623446 111.795331 
L 523.524463 110.841388 
L 528.029549 110.841388 
L 528.930567 109.887445 
L 534.33667 109.887445 
L 535.237688 108.933502 
L 541.544809 108.933502 
L 543.346843 107.025615 
L 544.24786 107.025615 
L 545.148878 106.071672 
L 550.554981 106.071672 
L 551.455999 105.117729 
L 555.060068 105.117729 
L 555.961085 104.163785 
L 556.862102 104.163785 
L 557.76312 103.209842 
L 571.278379 103.209842 
L 573.981431 100.348013 
L 583.892621 100.348013 
L 584.793638 99.394069 
L 588.397707 99.394069 
L 589.298724 97.486183 
L 599.209914 97.486183 
L 600.110932 95.578297 
L 612.725174 95.578297 
L 613.626191 94.624353 
L 622.636364 94.624353 
L 622.636364 94.624353 
" clip-path="url(#p3736281060)" style="fill: none; stroke: #ff7f0e; stroke-width: 1.5; stroke-linecap: square"/>
   </g>
   <g id="line2d_37">
    <path d="M 115.363636 340.741703 
L 118.967705 340.741703 
L 119.868723 338.833817 
L 121.670757 338.833817 
L 122.571775 337.879874 
L 123.472792 335.971987 
L 124.373809 335.018044 
L 125.274826 332.156215 
L 126.175844 330.248328 
L 127.076861 329.294385 
L 127.977878 329.294385 
L 128.878896 327.386498 
L 129.779913 324.524669 
L 133.383982 324.524669 
L 134.284999 323.570726 
L 135.186016 323.570726 
L 136.087034 321.662839 
L 138.790086 321.662839 
L 140.59212 319.754953 
L 144.196189 319.754953 
L 145.097207 318.801009 
L 148.701276 318.801009 
L 151.404327 315.93918 
L 155.909414 315.93918 
L 156.810431 314.985237 
L 159.513483 314.985237 
L 160.4145 314.031293 
L 162.216535 314.031293 
L 163.117552 312.123407 
L 170.32569 312.123407 
L 171.226708 311.169464 
L 172.127725 309.261577 
L 173.028742 308.307634 
L 173.929759 308.307634 
L 174.830777 307.353691 
L 176.632811 307.353691 
L 177.533829 306.399748 
L 179.335863 306.399748 
L 180.23688 305.445804 
L 185.642984 305.445804 
L 186.544001 304.491861 
L 187.445019 304.491861 
L 188.346036 303.537918 
L 189.247053 303.537918 
L 190.14807 302.583975 
L 192.851122 302.583975 
L 193.75214 301.630032 
L 194.653157 299.722145 
L 199.158243 299.722145 
L 201.861295 296.860315 
L 204.564347 296.860315 
L 205.465364 295.906372 
L 209.069433 295.906372 
L 209.970451 294.952429 
L 210.871468 294.952429 
L 211.772485 293.998486 
L 213.57452 293.998486 
L 214.475537 293.044543 
L 217.178589 293.044543 
L 218.980623 291.136656 
L 219.881641 291.136656 
L 220.782658 290.182713 
L 227.990796 290.182713 
L 228.891813 288.274826 
L 229.792831 287.320883 
L 237.000969 287.320883 
L 237.901986 286.36694 
L 240.605038 286.36694 
L 241.506055 285.412997 
L 244.209107 285.412997 
L 245.110124 284.459054 
L 254.120297 284.459054 
L 255.021314 283.50511 
L 258.625383 283.50511 
L 259.526401 282.551167 
L 264.932504 282.551167 
L 265.833522 281.597224 
L 267.635556 281.597224 
L 268.536574 280.643281 
L 272.140643 280.643281 
L 273.942677 278.735394 
L 291.062005 278.735394 
L 291.963023 277.781451 
L 292.86404 277.781451 
L 293.765057 276.827508 
L 296.468109 276.827508 
L 297.369126 275.873565 
L 301.874213 275.873565 
L 302.77523 274.919621 
L 304.577265 274.919621 
L 305.478282 273.965678 
L 310.884386 273.965678 
L 311.785403 274.919621 
L 312.68642 273.965678 
L 318.993541 273.965678 
L 319.894558 273.011735 
L 327.102697 273.011735 
L 328.003714 272.057792 
L 329.805748 272.057792 
L 330.706766 271.103849 
L 331.607783 271.103849 
L 332.5088 270.149905 
L 338.815921 270.149905 
L 339.716938 269.195962 
L 345.123042 269.195962 
L 346.024059 268.242019 
L 359.539319 268.242019 
L 360.440336 267.288076 
L 380.262716 267.288076 
L 381.163733 266.334132 
L 390.173906 266.334132 
L 391.074923 265.380189 
L 405.4912 265.380189 
L 407.293234 263.472303 
L 423.511545 263.472303 
L 424.412563 262.51836 
L 425.31358 260.610473 
L 443.333925 260.610473 
L 444.234943 259.65653 
L 446.036977 259.65653 
L 446.937995 258.702587 
L 452.344098 258.702587 
L 453.245115 257.748644 
L 455.948167 257.748644 
L 457.750202 255.840757 
L 459.552236 255.840757 
L 460.453254 254.886814 
L 464.057323 254.886814 
L 464.95834 252.978927 
L 467.661392 252.978927 
L 468.562409 252.024984 
L 469.463426 252.024984 
L 471.265461 250.117098 
L 482.978686 250.117098 
L 483.879703 249.163155 
L 494.69191 249.163155 
L 495.592928 247.255268 
L 502.801066 247.255268 
L 504.6031 245.347382 
L 513.613273 245.347382 
L 516.316325 242.485552 
L 519.019377 242.485552 
L 519.920394 241.531609 
L 521.722429 241.531609 
L 522.623446 240.577666 
L 530.732601 240.577666 
L 531.633619 239.623722 
L 539.742774 239.623722 
L 540.643791 238.669779 
L 546.950912 238.669779 
L 548.752947 236.761893 
L 555.060068 236.761893 
L 555.961085 235.80795 
L 564.971258 235.80795 
L 565.872275 234.854006 
L 566.773292 234.854006 
L 567.67431 233.900063 
L 578.486517 233.900063 
L 579.387534 232.94612 
L 582.090586 232.94612 
L 582.991603 231.992177 
L 595.605845 231.992177 
L 596.506863 231.038233 
L 610.923139 231.038233 
L 611.824156 229.130347 
L 622.636364 229.130347 
L 622.636364 229.130347 
" clip-path="url(#p3736281060)" style="fill: none; stroke: #2ca02c; stroke-width: 1.5; stroke-linecap: square"/>
   </g>
   <g id="line2d_38">
    <path d="M 115.363636 369.36 
L 337.914904 369.36 
L 338.815921 368.406057 
L 529.831584 368.406057 
L 530.732601 367.452114 
L 622.636364 367.452114 
L 622.636364 367.452114 
" clip-path="url(#p3736281060)" style="fill: none; stroke: #d62728; stroke-width: 1.5; stroke-linecap: square"/>
   </g>
   <g id="line2d_39">
    <path d="M 115.363636 348.373249 
L 118.066688 348.373249 
L 118.967705 347.419306 
L 124.373809 347.419306 
L 125.274826 346.465363 
L 130.68093 346.465363 
L 131.581947 345.51142 
L 151.404327 345.51142 
L 152.305345 344.557476 
L 184.741967 344.557476 
L 186.544001 342.64959 
L 193.75214 342.64959 
L 194.653157 341.695647 
L 198.257226 341.695647 
L 199.158243 340.741703 
L 200.960278 340.741703 
L 201.861295 339.78776 
L 225.287744 339.78776 
L 226.188762 338.833817 
L 263.13047 338.833817 
L 264.031487 337.879874 
L 381.163733 337.879874 
L 382.064751 336.925931 
L 382.965768 336.925931 
L 383.866785 335.971987 
L 440.630874 335.971987 
L 441.531891 335.018044 
L 585.694655 335.018044 
L 586.595673 334.064101 
L 622.636364 334.064101 
L 622.636364 334.064101 
" clip-path="url(#p3736281060)" style="fill: none; stroke: #9467bd; stroke-width: 1.5; stroke-linecap: square"/>
   </g>
   <g id="line2d_40">
    <path d="M 115.363636 356.004795 
L 116.264654 356.004795 
L 117.165671 355.050852 
L 129.779913 355.050852 
L 130.68093 354.096909 
L 141.493137 354.096909 
L 142.394155 353.142965 
L 155.909414 353.142965 
L 157.711448 351.235079 
L 167.622638 351.235079 
L 168.523656 350.281136 
L 195.554174 350.281136 
L 196.455191 349.327192 
L 204.564347 349.327192 
L 205.465364 348.373249 
L 220.782658 348.373249 
L 221.683675 347.419306 
L 236.099952 347.419306 
L 237.000969 346.465363 
L 240.605038 346.465363 
L 241.506055 345.51142 
L 249.615211 345.51142 
L 250.516228 344.557476 
L 272.140643 344.557476 
L 273.04166 343.603533 
L 278.447764 343.603533 
L 279.348781 342.64959 
L 284.754885 342.64959 
L 285.655902 341.695647 
L 289.259971 341.695647 
L 290.160988 340.741703 
L 323.498627 340.741703 
L 324.399645 339.78776 
L 350.529146 339.78776 
L 351.430163 338.833817 
L 403.689165 338.833817 
L 404.590182 337.879874 
L 429.818666 337.879874 
L 430.719684 336.925931 
L 442.432908 336.925931 
L 443.333925 335.971987 
L 622.636364 335.971987 
L 622.636364 335.971987 
" clip-path="url(#p3736281060)" style="fill: none; stroke: #8c564b; stroke-width: 1.5; stroke-linecap: square"/>
   </g>
   <g id="line2d_41">
    <path d="M 115.363636 285.412997 
L 118.967705 285.412997 
L 119.868723 284.459054 
L 123.472792 284.459054 
L 125.274826 282.551167 
L 126.175844 282.551167 
L 127.076861 281.597224 
L 127.977878 281.597224 
L 128.878896 280.643281 
L 130.68093 280.643281 
L 131.581947 279.689338 
L 134.284999 279.689338 
L 135.186016 278.735394 
L 136.988051 278.735394 
L 137.889068 277.781451 
L 138.790086 277.781451 
L 139.691103 276.827508 
L 141.493137 276.827508 
L 143.295172 274.919621 
L 146.899241 274.919621 
L 147.800258 273.965678 
L 150.50331 273.965678 
L 152.305345 272.057792 
L 154.107379 272.057792 
L 155.008397 271.103849 
L 156.810431 271.103849 
L 157.711448 270.149905 
L 158.612466 268.242019 
L 159.513483 265.380189 
L 161.315518 265.380189 
L 162.216535 264.426246 
L 166.721621 264.426246 
L 168.523656 262.51836 
L 169.424673 260.610473 
L 170.32569 259.65653 
L 171.226708 259.65653 
L 172.127725 257.748644 
L 175.731794 257.748644 
L 176.632811 256.7947 
L 177.533829 256.7947 
L 179.335863 254.886814 
L 180.23688 254.886814 
L 181.137898 253.932871 
L 182.038915 253.932871 
L 183.840949 252.024984 
L 185.642984 252.024984 
L 186.544001 250.117098 
L 190.14807 250.117098 
L 191.950105 248.209211 
L 193.75214 248.209211 
L 194.653157 247.255268 
L 195.554174 245.347382 
L 198.257226 245.347382 
L 199.158243 244.393438 
L 200.05926 244.393438 
L 200.960278 242.485552 
L 201.861295 242.485552 
L 202.762312 241.531609 
L 203.66333 241.531609 
L 204.564347 240.577666 
L 208.168416 240.577666 
L 209.970451 238.669779 
L 210.871468 238.669779 
L 211.772485 236.761893 
L 212.673502 236.761893 
L 213.57452 235.80795 
L 214.475537 235.80795 
L 215.376554 234.854006 
L 218.079606 234.854006 
L 218.980623 233.900063 
L 219.881641 233.900063 
L 223.48571 230.08429 
L 224.386727 228.176404 
L 226.188762 228.176404 
L 227.990796 224.360631 
L 229.792831 224.360631 
L 231.594865 222.452744 
L 232.495882 222.452744 
L 233.3969 220.544858 
L 234.297917 220.544858 
L 235.198934 219.590915 
L 236.099952 219.590915 
L 237.000969 218.636972 
L 238.803003 218.636972 
L 239.704021 217.683028 
L 240.605038 217.683028 
L 241.506055 216.729085 
L 245.110124 216.729085 
L 246.011142 211.959369 
L 246.912159 211.959369 
L 247.813176 211.005426 
L 250.516228 211.005426 
L 251.417245 210.051483 
L 259.526401 210.051483 
L 260.427418 208.143596 
L 264.031487 208.143596 
L 264.932504 207.189653 
L 273.942677 207.189653 
L 274.843694 205.281767 
L 275.744712 204.327823 
L 280.249798 204.327823 
L 281.150815 203.37388 
L 287.457936 203.37388 
L 288.358954 202.419937 
L 289.259971 202.419937 
L 290.160988 201.465994 
L 295.567092 201.465994 
L 297.369126 199.558107 
L 303.676247 199.558107 
L 305.478282 197.650221 
L 306.379299 197.650221 
L 307.280316 196.696278 
L 312.68642 196.696278 
L 313.587437 195.742334 
L 316.290489 195.742334 
L 317.191507 194.788391 
L 318.092524 192.880505 
L 320.795576 192.880505 
L 321.696593 191.926562 
L 322.59761 191.926562 
L 324.399645 190.018675 
L 328.003714 190.018675 
L 328.904731 189.064732 
L 332.5088 189.064732 
L 333.409818 188.110789 
L 336.112869 188.110789 
L 337.013887 187.156845 
L 344.222025 187.156845 
L 346.024059 185.248959 
L 350.529146 185.248959 
L 351.430163 184.295016 
L 355.034232 184.295016 
L 359.539319 179.5253 
L 361.341353 179.5253 
L 362.24237 178.571356 
L 363.143388 178.571356 
L 364.044405 176.66347 
L 365.84644 174.755584 
L 367.648474 170.939811 
L 369.450509 170.939811 
L 371.252543 167.124038 
L 373.054578 167.124038 
L 373.955595 165.216151 
L 375.75763 163.308265 
L 378.460681 163.308265 
L 379.361699 162.354322 
L 380.262716 162.354322 
L 382.064751 160.446435 
L 385.66882 160.446435 
L 386.569837 159.492492 
L 388.371871 159.492492 
L 389.272889 158.538549 
L 393.777975 158.538549 
L 394.678992 156.630662 
L 395.58001 155.676719 
L 396.481027 155.676719 
L 397.382044 154.722776 
L 399.184079 154.722776 
L 400.085096 153.768833 
L 401.887131 153.768833 
L 402.788148 151.860946 
L 404.590182 151.860946 
L 405.4912 150.907003 
L 406.392217 150.907003 
L 407.293234 149.95306 
L 411.798321 149.95306 
L 412.699338 148.999117 
L 417.204424 148.999117 
L 418.105442 148.045174 
L 419.006459 148.045174 
L 419.907476 146.137287 
L 421.709511 144.229401 
L 422.610528 141.367571 
L 423.511545 140.413628 
L 424.412563 140.413628 
L 425.31358 139.459685 
L 426.214597 139.459685 
L 427.115614 138.505741 
L 430.719684 138.505741 
L 431.620701 137.551798 
L 433.422735 137.551798 
L 434.323753 136.597855 
L 436.125787 136.597855 
L 437.927822 134.689968 
L 440.630874 134.689968 
L 441.531891 133.736025 
L 446.036977 133.736025 
L 446.937995 131.828139 
L 451.443081 131.828139 
L 452.344098 130.874196 
L 455.04715 130.874196 
L 455.948167 128.966309 
L 459.552236 128.966309 
L 460.453254 128.012366 
L 468.562409 128.012366 
L 469.463426 127.058423 
L 471.265461 127.058423 
L 472.166478 126.104479 
L 478.473599 126.104479 
L 479.374617 125.150536 
L 480.275634 125.150536 
L 481.176651 124.196593 
L 482.077668 124.196593 
L 482.978686 123.24265 
L 488.384789 123.24265 
L 490.186824 121.334763 
L 502.801066 121.334763 
L 503.702083 120.38082 
L 504.6031 120.38082 
L 506.405135 118.472934 
L 507.306152 118.472934 
L 508.207169 117.518991 
L 519.019377 117.518991 
L 519.920394 116.565047 
L 520.821411 114.657161 
L 522.623446 114.657161 
L 523.524463 113.703218 
L 528.029549 113.703218 
L 528.930567 112.749274 
L 529.831584 112.749274 
L 531.633619 110.841388 
L 536.138705 110.841388 
L 537.039722 109.887445 
L 539.742774 109.887445 
L 540.643791 108.933502 
L 542.445826 108.933502 
L 543.346843 107.979558 
L 545.148878 107.979558 
L 546.049895 107.025615 
L 546.950912 107.025615 
L 547.85193 105.117729 
L 554.159051 105.117729 
L 555.060068 102.255899 
L 555.961085 100.348013 
L 556.862102 100.348013 
L 560.466171 96.53224 
L 561.367189 94.624353 
L 563.169223 94.624353 
L 564.070241 92.716467 
L 571.278379 92.716467 
L 573.080413 90.80858 
L 573.981431 88.900694 
L 574.882448 87.946751 
L 577.5855 87.946751 
L 578.486517 86.038864 
L 579.387534 85.084921 
L 580.288552 85.084921 
L 581.189569 82.223091 
L 582.090586 81.269148 
L 586.595673 81.269148 
L 587.49669 79.361262 
L 588.397707 79.361262 
L 589.298724 78.407319 
L 592.001776 78.407319 
L 592.902793 76.499432 
L 594.704828 76.499432 
L 595.605845 75.545489 
L 596.506863 75.545489 
L 597.40788 74.591546 
L 598.308897 71.729716 
L 600.110932 71.729716 
L 601.912966 69.82183 
L 612.725174 69.82183 
L 613.626191 68.867886 
L 614.527208 68.867886 
L 616.329243 66.96 
L 622.636364 66.96 
L 622.636364 66.96 
" clip-path="url(#p3736281060)" style="fill: none; stroke: #e377c2; stroke-width: 1.5; stroke-linecap: square"/>
   </g>
   <g id="line2d_42">
    <path d="M 115.363636 344.557476 
L 116.264654 344.557476 
L 118.066688 342.64959 
L 122.571775 342.64959 
L 123.472792 341.695647 
L 124.373809 341.695647 
L 126.175844 339.78776 
L 127.977878 339.78776 
L 128.878896 338.833817 
L 131.581947 338.833817 
L 132.482965 337.879874 
L 133.383982 337.879874 
L 134.284999 336.925931 
L 135.186016 336.925931 
L 136.988051 335.018044 
L 139.691103 335.018044 
L 140.59212 334.064101 
L 142.394155 334.064101 
L 144.196189 332.156215 
L 145.998224 332.156215 
L 147.800258 330.248328 
L 148.701276 330.248328 
L 149.602293 329.294385 
L 150.50331 326.432555 
L 154.107379 326.432555 
L 157.711448 322.616782 
L 158.612466 322.616782 
L 160.4145 320.708896 
L 161.315518 320.708896 
L 162.216535 319.754953 
L 163.117552 319.754953 
L 164.018569 318.801009 
L 172.127725 318.801009 
L 173.028742 317.847066 
L 182.038915 317.847066 
L 183.840949 315.93918 
L 186.544001 315.93918 
L 187.445019 314.985237 
L 189.247053 314.985237 
L 191.049088 313.07735 
L 192.851122 313.07735 
L 193.75214 311.169464 
L 196.455191 311.169464 
L 197.356209 309.261577 
L 198.257226 308.307634 
L 202.762312 308.307634 
L 203.66333 307.353691 
L 204.564347 307.353691 
L 206.366381 305.445804 
L 210.871468 305.445804 
L 211.772485 304.491861 
L 212.673502 304.491861 
L 213.57452 303.537918 
L 218.980623 303.537918 
L 219.881641 302.583975 
L 222.584692 302.583975 
L 223.48571 301.630032 
L 224.386727 301.630032 
L 225.287744 298.768202 
L 226.188762 298.768202 
L 227.089779 296.860315 
L 227.990796 295.906372 
L 228.891813 295.906372 
L 230.693848 293.998486 
L 232.495882 293.998486 
L 233.3969 293.044543 
L 235.198934 293.044543 
L 236.099952 292.090599 
L 237.000969 292.090599 
L 237.901986 290.182713 
L 238.803003 290.182713 
L 239.704021 289.22877 
L 241.506055 289.22877 
L 243.30809 287.320883 
L 244.209107 287.320883 
L 245.110124 285.412997 
L 246.011142 284.459054 
L 252.318263 284.459054 
L 253.21928 282.551167 
L 255.922332 282.551167 
L 256.823349 281.597224 
L 257.724366 281.597224 
L 258.625383 280.643281 
L 261.328435 280.643281 
L 262.229453 279.689338 
L 266.734539 279.689338 
L 267.635556 278.735394 
L 269.437591 278.735394 
L 270.338608 277.781451 
L 274.843694 277.781451 
L 275.744712 276.827508 
L 283.853867 276.827508 
L 285.655902 274.919621 
L 286.556919 274.919621 
L 287.457936 273.965678 
L 288.358954 273.965678 
L 289.259971 273.011735 
L 290.160988 273.011735 
L 291.062005 272.057792 
L 292.86404 272.057792 
L 293.765057 271.103849 
L 294.666075 271.103849 
L 296.468109 269.195962 
L 299.171161 269.195962 
L 300.072178 268.242019 
L 302.77523 268.242019 
L 303.676247 267.288076 
L 309.983368 267.288076 
L 310.884386 266.334132 
L 311.785403 266.334132 
L 312.68642 265.380189 
L 316.290489 265.380189 
L 317.191507 263.472303 
L 322.59761 263.472303 
L 323.498627 262.51836 
L 324.399645 262.51836 
L 325.300662 260.610473 
L 329.805748 260.610473 
L 330.706766 259.65653 
L 336.112869 259.65653 
L 337.013887 258.702587 
L 348.727111 258.702587 
L 349.628129 257.748644 
L 363.143388 257.748644 
L 364.044405 256.7947 
L 368.549491 256.7947 
L 369.450509 255.840757 
L 370.351526 255.840757 
L 371.252543 254.886814 
L 372.15356 254.886814 
L 373.054578 252.978927 
L 373.955595 252.978927 
L 375.75763 251.071041 
L 382.064751 251.071041 
L 382.965768 250.117098 
L 383.866785 250.117098 
L 384.767802 249.163155 
L 385.66882 249.163155 
L 386.569837 248.209211 
L 391.074923 248.209211 
L 391.975941 247.255268 
L 400.085096 247.255268 
L 400.986113 246.301325 
L 405.4912 246.301325 
L 406.392217 245.347382 
L 410.897303 245.347382 
L 411.798321 244.393438 
L 413.600355 244.393438 
L 416.303407 241.531609 
L 418.105442 241.531609 
L 419.006459 239.623722 
L 423.511545 239.623722 
L 425.31358 237.715836 
L 427.115614 237.715836 
L 428.016632 236.761893 
L 428.917649 236.761893 
L 430.719684 234.854006 
L 437.026804 234.854006 
L 437.927822 233.900063 
L 439.729856 233.900063 
L 440.630874 232.94612 
L 447.839012 232.94612 
L 449.641046 231.038233 
L 452.344098 231.038233 
L 453.245115 230.08429 
L 454.146133 230.08429 
L 455.04715 227.222461 
L 455.948167 226.268517 
L 459.552236 226.268517 
L 460.453254 224.360631 
L 463.156306 224.360631 
L 464.057323 223.406688 
L 473.067496 223.406688 
L 473.968513 222.452744 
L 482.978686 222.452744 
L 484.78072 220.544858 
L 491.087841 220.544858 
L 491.988858 219.590915 
L 507.306152 219.590915 
L 510.910221 215.775142 
L 514.51429 215.775142 
L 515.415308 214.821199 
L 522.623446 214.821199 
L 523.524463 213.867256 
L 526.227515 213.867256 
L 527.128532 212.913312 
L 528.029549 212.913312 
L 528.930567 211.959369 
L 534.33667 211.959369 
L 536.138705 210.051483 
L 537.94074 210.051483 
L 538.841757 209.097539 
L 543.346843 209.097539 
L 544.24786 208.143596 
L 545.148878 208.143596 
L 546.049895 206.23571 
L 555.961085 206.23571 
L 557.76312 204.327823 
L 560.466171 204.327823 
L 561.367189 203.37388 
L 565.872275 203.37388 
L 566.773292 202.419937 
L 573.080413 202.419937 
L 573.981431 201.465994 
L 588.397707 201.465994 
L 589.298724 200.51205 
L 590.199742 200.51205 
L 591.100759 198.604164 
L 622.636364 198.604164 
L 622.636364 198.604164 
" clip-path="url(#p3736281060)" style="fill: none; stroke: #7f7f7f; stroke-width: 1.5; stroke-linecap: square"/>
   </g>
   <g id="line2d_43">
    <path d="M 115.363636 350.281136 
L 118.967705 350.281136 
L 119.868723 349.327192 
L 128.878896 349.327192 
L 129.779913 348.373249 
L 134.284999 348.373249 
L 135.186016 347.419306 
L 144.196189 347.419306 
L 145.097207 346.465363 
L 154.107379 346.465363 
L 155.008397 345.51142 
L 203.66333 345.51142 
L 204.564347 344.557476 
L 209.069433 344.557476 
L 209.970451 343.603533 
L 216.277571 343.603533 
L 217.178589 342.64959 
L 218.079606 342.64959 
L 218.980623 339.78776 
L 219.881641 338.833817 
L 221.683675 338.833817 
L 222.584692 337.879874 
L 231.594865 337.879874 
L 232.495882 336.925931 
L 240.605038 336.925931 
L 241.506055 335.971987 
L 251.417245 335.971987 
L 252.318263 335.018044 
L 263.13047 335.018044 
L 264.031487 334.064101 
L 268.536574 334.064101 
L 269.437591 333.110158 
L 298.270144 333.110158 
L 299.171161 332.156215 
L 300.973196 332.156215 
L 301.874213 331.202271 
L 309.082351 331.202271 
L 309.983368 330.248328 
L 335.211852 330.248328 
L 337.914904 327.386498 
L 364.044405 327.386498 
L 364.945422 326.432555 
L 365.84644 326.432555 
L 367.648474 324.524669 
L 369.450509 324.524669 
L 370.351526 323.570726 
L 416.303407 323.570726 
L 417.204424 322.616782 
L 469.463426 322.616782 
L 470.364444 321.662839 
L 508.207169 321.662839 
L 509.108187 320.708896 
L 513.613273 320.708896 
L 514.51429 319.754953 
L 527.128532 319.754953 
L 528.029549 318.801009 
L 546.049895 318.801009 
L 546.950912 317.847066 
L 622.636364 317.847066 
L 622.636364 317.847066 
" clip-path="url(#p3736281060)" style="fill: none; stroke: #bcbd22; stroke-width: 1.5; stroke-linecap: square"/>
   </g>
   <g id="line2d_44">
    <path d="M 115.363636 367.452114 
L 160.4145 367.452114 
L 161.315518 366.49817 
L 218.079606 366.49817 
L 218.980623 365.544227 
L 310.884386 365.544227 
L 311.785403 364.590284 
L 312.68642 365.544227 
L 421.709511 365.544227 
L 422.610528 364.590284 
L 428.917649 364.590284 
L 429.818666 363.636341 
L 452.344098 363.636341 
L 453.245115 362.682397 
L 622.636364 362.682397 
L 622.636364 362.682397 
" clip-path="url(#p3736281060)" style="fill: none; stroke: #17becf; stroke-width: 1.5; stroke-linecap: square"/>
   </g>
   <g id="line2d_45">
    <path d="M 115.363636 369.36 
L 116.264654 368.406057 
L 118.066688 368.406057 
L 118.967705 367.452114 
L 125.274826 367.452114 
L 126.175844 366.49817 
L 128.878896 366.49817 
L 129.779913 365.544227 
L 130.68093 365.544227 
L 132.482965 363.636341 
L 136.988051 363.636341 
L 138.790086 361.728454 
L 139.691103 361.728454 
L 140.59212 360.774511 
L 146.899241 360.774511 
L 147.800258 359.820568 
L 148.701276 357.912681 
L 150.50331 357.912681 
L 151.404327 356.958738 
L 152.305345 356.958738 
L 153.206362 356.004795 
L 154.107379 356.004795 
L 155.008397 355.050852 
L 155.909414 355.050852 
L 157.711448 353.142965 
L 163.117552 353.142965 
L 164.919587 351.235079 
L 167.622638 351.235079 
L 168.523656 350.281136 
L 169.424673 350.281136 
L 170.32569 348.373249 
L 173.028742 348.373249 
L 174.830777 344.557476 
L 180.23688 344.557476 
L 181.137898 342.64959 
L 182.038915 341.695647 
L 184.741967 341.695647 
L 185.642984 340.741703 
L 186.544001 338.833817 
L 188.346036 338.833817 
L 189.247053 337.879874 
L 201.861295 337.879874 
L 202.762312 335.971987 
L 209.069433 329.294385 
L 218.079606 329.294385 
L 220.782658 326.432555 
L 222.584692 326.432555 
L 223.48571 324.524669 
L 225.287744 324.524669 
L 226.188762 323.570726 
L 228.891813 323.570726 
L 229.792831 322.616782 
L 230.693848 322.616782 
L 231.594865 321.662839 
L 232.495882 321.662839 
L 234.297917 319.754953 
L 246.011142 319.754953 
L 247.813176 317.847066 
L 255.021314 317.847066 
L 255.922332 316.893123 
L 258.625383 316.893123 
L 260.427418 314.985237 
L 263.13047 314.985237 
L 264.031487 314.031293 
L 265.833522 314.031293 
L 266.734539 313.07735 
L 271.239625 313.07735 
L 272.140643 312.123407 
L 273.04166 312.123407 
L 273.942677 310.215521 
L 274.843694 310.215521 
L 275.744712 309.261577 
L 280.249798 309.261577 
L 281.150815 308.307634 
L 282.95285 308.307634 
L 283.853867 307.353691 
L 284.754885 307.353691 
L 286.556919 305.445804 
L 292.86404 305.445804 
L 293.765057 304.491861 
L 294.666075 304.491861 
L 295.567092 303.537918 
L 300.072178 303.537918 
L 300.973196 301.630032 
L 301.874213 300.676088 
L 306.379299 300.676088 
L 307.280316 299.722145 
L 310.884386 299.722145 
L 311.785403 297.814259 
L 315.389472 297.814259 
L 317.191507 295.906372 
L 319.894558 295.906372 
L 320.795576 294.952429 
L 331.607783 294.952429 
L 332.5088 293.044543 
L 333.409818 292.090599 
L 340.617956 292.090599 
L 341.518973 291.136656 
L 357.737284 291.136656 
L 358.638301 290.182713 
L 360.440336 290.182713 
L 361.341353 289.22877 
L 364.044405 289.22877 
L 364.945422 288.274826 
L 376.658647 288.274826 
L 377.559664 286.36694 
L 379.361699 286.36694 
L 380.262716 285.412997 
L 381.163733 285.412997 
L 382.064751 284.459054 
L 385.66882 284.459054 
L 386.569837 283.50511 
L 392.876958 283.50511 
L 393.777975 281.597224 
L 394.678992 281.597224 
L 395.58001 280.643281 
L 400.085096 280.643281 
L 400.986113 279.689338 
L 405.4912 279.689338 
L 407.293234 277.781451 
L 409.095269 277.781451 
L 409.996286 276.827508 
L 411.798321 276.827508 
L 412.699338 275.873565 
L 413.600355 275.873565 
L 414.501373 274.919621 
L 420.808493 274.919621 
L 421.709511 273.965678 
L 442.432908 273.965678 
L 443.333925 273.011735 
L 447.839012 273.011735 
L 448.740029 272.057792 
L 458.651219 272.057792 
L 459.552236 271.103849 
L 499.196997 271.103849 
L 500.098014 270.149905 
L 505.504118 270.149905 
L 506.405135 269.195962 
L 507.306152 269.195962 
L 508.207169 268.242019 
L 519.920394 268.242019 
L 520.821411 267.288076 
L 537.94074 267.288076 
L 538.841757 266.334132 
L 542.445826 266.334132 
L 543.346843 265.380189 
L 547.85193 265.380189 
L 548.752947 264.426246 
L 554.159051 264.426246 
L 555.060068 263.472303 
L 560.466171 263.472303 
L 561.367189 262.51836 
L 566.773292 262.51836 
L 567.67431 259.65653 
L 568.575327 258.702587 
L 574.882448 258.702587 
L 575.783465 257.748644 
L 580.288552 257.748644 
L 581.189569 256.7947 
L 585.694655 256.7947 
L 586.595673 255.840757 
L 592.001776 255.840757 
L 592.902793 254.886814 
L 607.31907 254.886814 
L 608.220087 252.978927 
L 609.121104 252.978927 
L 610.022122 252.024984 
L 610.923139 252.024984 
L 611.824156 251.071041 
L 612.725174 251.071041 
L 613.626191 250.117098 
L 622.636364 250.117098 
L 622.636364 250.117098 
" clip-path="url(#p3736281060)" style="fill: none; stroke: #1f77b4; stroke-width: 1.5; stroke-linecap: square"/>
   </g>
   <g id="line2d_46">
    <path d="M 115.363636 334.064101 
L 121.670757 334.064101 
L 122.571775 333.110158 
L 125.274826 333.110158 
L 126.175844 332.156215 
L 129.779913 332.156215 
L 130.68093 331.202271 
L 133.383982 331.202271 
L 134.284999 330.248328 
L 135.186016 330.248328 
L 136.087034 329.294385 
L 138.790086 329.294385 
L 139.691103 328.340442 
L 141.493137 328.340442 
L 142.394155 327.386498 
L 143.295172 327.386498 
L 145.097207 325.478612 
L 150.50331 325.478612 
L 151.404327 324.524669 
L 152.305345 324.524669 
L 153.206362 323.570726 
L 154.107379 323.570726 
L 155.008397 321.662839 
L 155.909414 318.801009 
L 156.810431 317.847066 
L 160.4145 317.847066 
L 163.117552 314.985237 
L 165.820604 314.985237 
L 167.622638 313.07735 
L 177.533829 313.07735 
L 178.434846 310.215521 
L 179.335863 310.215521 
L 181.137898 306.399748 
L 182.939932 304.491861 
L 183.840949 304.491861 
L 184.741967 302.583975 
L 191.950105 302.583975 
L 192.851122 300.676088 
L 195.554174 300.676088 
L 196.455191 299.722145 
L 202.762312 299.722145 
L 203.66333 298.768202 
L 214.475537 298.768202 
L 215.376554 297.814259 
L 216.277571 297.814259 
L 217.178589 296.860315 
L 219.881641 296.860315 
L 220.782658 295.906372 
L 231.594865 295.906372 
L 232.495882 294.952429 
L 234.297917 294.952429 
L 236.099952 291.136656 
L 237.901986 291.136656 
L 239.704021 289.22877 
L 241.506055 289.22877 
L 242.407072 288.274826 
L 245.110124 288.274826 
L 246.011142 287.320883 
L 256.823349 287.320883 
L 257.724366 286.36694 
L 271.239625 286.36694 
L 272.140643 285.412997 
L 280.249798 285.412997 
L 281.150815 284.459054 
L 282.95285 284.459054 
L 283.853867 283.50511 
L 286.556919 283.50511 
L 288.358954 281.597224 
L 289.259971 281.597224 
L 290.160988 280.643281 
L 293.765057 280.643281 
L 295.567092 278.735394 
L 300.072178 278.735394 
L 300.973196 277.781451 
L 303.676247 277.781451 
L 304.577265 276.827508 
L 309.082351 276.827508 
L 309.983368 275.873565 
L 314.488455 275.873565 
L 315.389472 274.919621 
L 331.607783 274.919621 
L 332.5088 273.965678 
L 333.409818 273.965678 
L 334.310835 273.011735 
L 343.321008 273.011735 
L 344.222025 271.103849 
L 345.123042 271.103849 
L 346.024059 270.149905 
L 355.034232 270.149905 
L 355.935249 269.195962 
L 359.539319 269.195962 
L 360.440336 268.242019 
L 361.341353 268.242019 
L 362.24237 267.288076 
L 370.351526 267.288076 
L 371.252543 266.334132 
L 389.272889 266.334132 
L 390.173906 263.472303 
L 396.481027 263.472303 
L 397.382044 262.51836 
L 399.184079 262.51836 
L 400.085096 261.564416 
L 410.897303 261.564416 
L 411.798321 260.610473 
L 424.412563 260.610473 
L 425.31358 259.65653 
L 428.016632 259.65653 
L 428.917649 258.702587 
L 436.125787 258.702587 
L 437.026804 256.7947 
L 451.443081 256.7947 
L 452.344098 255.840757 
L 456.849185 255.840757 
L 457.750202 254.886814 
L 471.265461 254.886814 
L 472.166478 253.932871 
L 473.968513 253.932871 
L 474.86953 252.978927 
L 483.879703 252.978927 
L 484.78072 252.024984 
L 494.69191 252.024984 
L 495.592928 251.071041 
L 507.306152 251.071041 
L 508.207169 250.117098 
L 519.019377 250.117098 
L 519.920394 249.163155 
L 526.227515 249.163155 
L 527.128532 248.209211 
L 536.138705 248.209211 
L 538.841757 245.347382 
L 540.643791 245.347382 
L 541.544809 244.393438 
L 542.445826 244.393438 
L 544.24786 242.485552 
L 547.85193 242.485552 
L 548.752947 241.531609 
L 550.554981 241.531609 
L 551.455999 239.623722 
L 552.357016 238.669779 
L 563.169223 238.669779 
L 564.070241 237.715836 
L 572.179396 237.715836 
L 573.080413 236.761893 
L 582.090586 236.761893 
L 582.991603 235.80795 
L 587.49669 235.80795 
L 588.397707 233.900063 
L 610.022122 233.900063 
L 610.923139 232.94612 
L 622.636364 232.94612 
L 622.636364 232.94612 
" clip-path="url(#p3736281060)" style="fill: none; stroke: #ff7f0e; stroke-width: 1.5; stroke-linecap: square"/>
   </g>
   <g id="patch_3">
    <path d="M 90 384.48 
L 90 51.84 
" style="fill: none; stroke: #000000; stroke-width: 0.8; stroke-linejoin: miter; stroke-linecap: square"/>
   </g>
   <g id="patch_4">
    <path d="M 648 384.48 
L 648 51.84 
" style="fill: none; stroke: #000000; stroke-width: 0.8; stroke-linejoin: miter; stroke-linecap: square"/>
   </g>
   <g id="patch_5">
    <path d="M 90 384.48 
L 648 384.48 
" style="fill: none; stroke: #000000; stroke-width: 0.8; stroke-linejoin: miter; stroke-linecap: square"/>
   </g>
   <g id="patch_6">
    <path d="M 90 51.84 
L 648 51.84 
" style="fill: none; stroke: #000000; stroke-width: 0.8; stroke-linejoin: miter; stroke-linecap: square"/>
   </g>
   <g id="text_20">
    <!-- Time Series of Votes for Each Keyword -->
    <g transform="translate(253.716563 45.84) scale(0.12 -0.12)">
     <defs>
      <path id="DejaVuSans-53" d="M 3425 4513 
L 3425 3897 
Q 3066 4069 2747 4153 
Q 2428 4238 2131 4238 
Q 1616 4238 1336 4038 
Q 1056 3838 1056 3469 
Q 1056 3159 1242 3001 
Q 1428 2844 1947 2747 
L 2328 2669 
Q 3034 2534 3370 2195 
Q 3706 1856 3706 1288 
Q 3706 609 3251 259 
Q 2797 -91 1919 -91 
Q 1588 -91 1214 -16 
Q 841 59 441 206 
L 441 856 
Q 825 641 1194 531 
Q 1563 422 1919 422 
Q 2459 422 2753 634 
Q 3047 847 3047 1241 
Q 3047 1584 2836 1778 
Q 2625 1972 2144 2069 
L 1759 2144 
Q 1053 2284 737 2584 
Q 422 2884 422 3419 
Q 422 4038 858 4394 
Q 1294 4750 2059 4750 
Q 2388 4750 2728 4690 
Q 3069 4631 3425 4513 
z
" transform="scale(0.015625)"/>
      <path id="DejaVuSans-72" d="M 2631 2963 
Q 2534 3019 2420 3045 
Q 2306 3072 2169 3072 
Q 1681 3072 1420 2755 
Q 1159 2438 1159 1844 
L 1159 0 
L 581 0 
L 581 3500 
L 1159 3500 
L 1159 2956 
Q 1341 3275 1631 3429 
Q 1922 3584 2338 3584 
Q 2397 3584 2469 3576 
Q 2541 3569 2628 3553 
L 2631 2963 
z
" transform="scale(0.015625)"/>
      <path id="DejaVuSans-66" d="M 2375 4863 
L 2375 4384 
L 1825 4384 
Q 1516 4384 1395 4259 
Q 1275 4134 1275 3809 
L 1275 3500 
L 2222 3500 
L 2222 3053 
L 1275 3053 
L 1275 0 
L 697 0 
L 697 3053 
L 147 3053 
L 147 3500 
L 697 3500 
L 697 3744 
Q 697 4328 969 4595 
Q 1241 4863 1831 4863 
L 2375 4863 
z
" transform="scale(0.015625)"/>
      <path id="DejaVuSans-45" d="M 628 4666 
L 3578 4666 
L 3578 4134 
L 1259 4134 
L 1259 2753 
L 3481 2753 
L 3481 2222 
L 1259 2222 
L 1259 531 
L 3634 531 
L 3634 0 
L 628 0 
L 628 4666 
z
" transform="scale(0.015625)"/>
      <path id="DejaVuSans-63" d="M 3122 3366 
L 3122 2828 
Q 2878 2963 2633 3030 
Q 2388 3097 2138 3097 
Q 1578 3097 1268 2742 
Q 959 2388 959 1747 
Q 959 1106 1268 751 
Q 1578 397 2138 397 
Q 2388 397 2633 464 
Q 2878 531 3122 666 
L 3122 134 
Q 2881 22 2623 -34 
Q 2366 -91 2075 -91 
Q 1284 -91 818 406 
Q 353 903 353 1747 
Q 353 2603 823 3093 
Q 1294 3584 2113 3584 
Q 2378 3584 2631 3529 
Q 2884 3475 3122 3366 
z
" transform="scale(0.015625)"/>
      <path id="DejaVuSans-68" d="M 3513 2113 
L 3513 0 
L 2938 0 
L 2938 2094 
Q 2938 2591 2744 2837 
Q 2550 3084 2163 3084 
Q 1697 3084 1428 2787 
Q 1159 2491 1159 1978 
L 1159 0 
L 581 0 
L 581 4863 
L 1159 4863 
L 1159 2956 
Q 1366 3272 1645 3428 
Q 1925 3584 2291 3584 
Q 2894 3584 3203 3211 
Q 3513 2838 3513 2113 
z
" transform="scale(0.015625)"/>
      <path id="DejaVuSans-4b" d="M 628 4666 
L 1259 4666 
L 1259 2694 
L 3353 4666 
L 4166 4666 
L 1850 2491 
L 4331 0 
L 3500 0 
L 1259 2247 
L 1259 0 
L 628 0 
L 628 4666 
z
" transform="scale(0.015625)"/>
      <path id="DejaVuSans-79" d="M 2059 -325 
Q 1816 -950 1584 -1140 
Q 1353 -1331 966 -1331 
L 506 -1331 
L 506 -850 
L 844 -850 
Q 1081 -850 1212 -737 
Q 1344 -625 1503 -206 
L 1606 56 
L 191 3500 
L 800 3500 
L 1894 763 
L 2988 3500 
L 3597 3500 
L 2059 -325 
z
" transform="scale(0.015625)"/>
      <path id="DejaVuSans-77" d="M 269 3500 
L 844 3500 
L 1563 769 
L 2278 3500 
L 2956 3500 
L 3675 769 
L 4391 3500 
L 4966 3500 
L 4050 0 
L 3372 0 
L 2619 2869 
L 1863 0 
L 1184 0 
L 269 3500 
z
" transform="scale(0.015625)"/>
     </defs>
     <use xlink:href="#DejaVuSans-54"/>
     <use xlink:href="#DejaVuSans-69" transform="translate(57.958984 0)"/>
     <use xlink:href="#DejaVuSans-6d" transform="translate(85.742188 0)"/>
     <use xlink:href="#DejaVuSans-65" transform="translate(183.154297 0)"/>
     <use xlink:href="#DejaVuSans-20" transform="translate(244.677734 0)"/>
     <use xlink:href="#DejaVuSans-53" transform="translate(276.464844 0)"/>
     <use xlink:href="#DejaVuSans-65" transform="translate(339.941406 0)"/>
     <use xlink:href="#DejaVuSans-72" transform="translate(401.464844 0)"/>
     <use xlink:href="#DejaVuSans-69" transform="translate(442.578125 0)"/>
     <use xlink:href="#DejaVuSans-65" transform="translate(470.361328 0)"/>
     <use xlink:href="#DejaVuSans-73" transform="translate(531.884766 0)"/>
     <use xlink:href="#DejaVuSans-20" transform="translate(583.984375 0)"/>
     <use xlink:href="#DejaVuSans-6f" transform="translate(615.771484 0)"/>
     <use xlink:href="#DejaVuSans-66" transform="translate(676.953125 0)"/>
     <use xlink:href="#DejaVuSans-20" transform="translate(712.158203 0)"/>
     <use xlink:href="#DejaVuSans-56" transform="translate(743.945312 0)"/>
     <use xlink:href="#DejaVuSans-6f" transform="translate(804.603516 0)"/>
     <use xlink:href="#DejaVuSans-74" transform="translate(865.785156 0)"/>
     <use xlink:href="#DejaVuSans-65" transform="translate(904.994141 0)"/>
     <use xlink:href="#DejaVuSans-73" transform="translate(966.517578 0)"/>
     <use xlink:href="#DejaVuSans-20" transform="translate(1018.617188 0)"/>
     <use xlink:href="#DejaVuSans-66" transform="translate(1050.404297 0)"/>
     <use xlink:href="#DejaVuSans-6f" transform="translate(1085.609375 0)"/>
     <use xlink:href="#DejaVuSans-72" transform="translate(1146.791016 0)"/>
     <use xlink:href="#DejaVuSans-20" transform="translate(1187.904297 0)"/>
     <use xlink:href="#DejaVuSans-45" transform="translate(1219.691406 0)"/>
     <use xlink:href="#DejaVuSans-61" transform="translate(1282.875 0)"/>
     <use xlink:href="#DejaVuSans-63" transform="translate(1344.154297 0)"/>
     <use xlink:href="#DejaVuSans-68" transform="translate(1399.134766 0)"/>
     <use xlink:href="#DejaVuSans-20" transform="translate(1462.513672 0)"/>
     <use xlink:href="#DejaVuSans-4b" transform="translate(1494.300781 0)"/>
     <use xlink:href="#DejaVuSans-65" transform="translate(1554.876953 0)"/>
     <use xlink:href="#DejaVuSans-79" transform="translate(1616.400391 0)"/>
     <use xlink:href="#DejaVuSans-77" transform="translate(1675.580078 0)"/>
     <use xlink:href="#DejaVuSans-6f" transform="translate(1757.367188 0)"/>
     <use xlink:href="#DejaVuSans-72" transform="translate(1818.548828 0)"/>
     <use xlink:href="#DejaVuSans-64" transform="translate(1857.912109 0)"/>
    </g>
   </g>
   <g id="legend_1">
    <g id="patch_7">
     <path d="M 97 235.9775 
L 149.245313 235.9775 
Q 151.245313 235.9775 151.245313 233.9775 
L 151.245313 58.84 
Q 151.245313 56.84 149.245313 56.84 
L 97 56.84 
Q 95 56.84 95 58.84 
L 95 233.9775 
Q 95 235.9775 97 235.9775 
z
" style="fill: #ffffff; opacity: 0.8; stroke: #cccccc; stroke-linejoin: miter"/>
    </g>
    <g id="line2d_47">
     <path d="M 99 64.938437 
L 109 64.938437 
L 119 64.938437 
" style="fill: none; stroke: #1f77b4; stroke-width: 1.5; stroke-linecap: square"/>
    </g>
    <g id="text_21">
     <!-- H01 -->
     <g transform="translate(127 68.438437) scale(0.1 -0.1)">
      <defs>
       <path id="DejaVuSans-48" d="M 628 4666 
L 1259 4666 
L 1259 2753 
L 3553 2753 
L 3553 4666 
L 4184 4666 
L 4184 0 
L 3553 0 
L 3553 2222 
L 1259 2222 
L 1259 0 
L 628 0 
L 628 4666 
z
" transform="scale(0.015625)"/>
      </defs>
      <use xlink:href="#DejaVuSans-48"/>
      <use xlink:href="#DejaVuSans-30" transform="translate(75.195312 0)"/>
      <use xlink:href="#DejaVuSans-31" transform="translate(138.818359 0)"/>
     </g>
    </g>
    <g id="line2d_48">
     <path d="M 99 79.616562 
L 109 79.616562 
L 119 79.616562 
" style="fill: none; stroke: #ff7f0e; stroke-width: 1.5; stroke-linecap: square"/>
    </g>
    <g id="text_22">
     <!-- H02 -->
     <g transform="translate(127 83.116562) scale(0.1 -0.1)">
      <use xlink:href="#DejaVuSans-48"/>
      <use xlink:href="#DejaVuSans-30" transform="translate(75.195312 0)"/>
      <use xlink:href="#DejaVuSans-32" transform="translate(138.818359 0)"/>
     </g>
    </g>
    <g id="line2d_49">
     <path d="M 99 94.294688 
L 109 94.294688 
L 119 94.294688 
" style="fill: none; stroke: #2ca02c; stroke-width: 1.5; stroke-linecap: square"/>
    </g>
    <g id="text_23">
     <!-- H03 -->
     <g transform="translate(127 97.794688) scale(0.1 -0.1)">
      <use xlink:href="#DejaVuSans-48"/>
      <use xlink:href="#DejaVuSans-30" transform="translate(75.195312 0)"/>
      <use xlink:href="#DejaVuSans-33" transform="translate(138.818359 0)"/>
     </g>
    </g>
    <g id="line2d_50">
     <path d="M 99 108.972812 
L 109 108.972812 
L 119 108.972812 
" style="fill: none; stroke: #d62728; stroke-width: 1.5; stroke-linecap: square"/>
    </g>
    <g id="text_24">
     <!-- H04 -->
     <g transform="translate(127 112.472812) scale(0.1 -0.1)">
      <use xlink:href="#DejaVuSans-48"/>
      <use xlink:href="#DejaVuSans-30" transform="translate(75.195312 0)"/>
      <use xlink:href="#DejaVuSans-34" transform="translate(138.818359 0)"/>
     </g>
    </g>
    <g id="line2d_51">
     <path d="M 99 123.650937 
L 109 123.650937 
L 119 123.650937 
" style="fill: none; stroke: #9467bd; stroke-width: 1.5; stroke-linecap: square"/>
    </g>
    <g id="text_25">
     <!-- H05 -->
     <g transform="translate(127 127.150937) scale(0.1 -0.1)">
      <use xlink:href="#DejaVuSans-48"/>
      <use xlink:href="#DejaVuSans-30" transform="translate(75.195312 0)"/>
      <use xlink:href="#DejaVuSans-35" transform="translate(138.818359 0)"/>
     </g>
    </g>
    <g id="line2d_52">
     <path d="M 99 138.329062 
L 109 138.329062 
L 119 138.329062 
" style="fill: none; stroke: #8c564b; stroke-width: 1.5; stroke-linecap: square"/>
    </g>
    <g id="text_26">
     <!-- H06 -->
     <g transform="translate(127 141.829062) scale(0.1 -0.1)">
      <use xlink:href="#DejaVuSans-48"/>
      <use xlink:href="#DejaVuSans-30" transform="translate(75.195312 0)"/>
      <use xlink:href="#DejaVuSans-36" transform="translate(138.818359 0)"/>
     </g>
    </g>
    <g id="line2d_53">
     <path d="M 99 153.007187 
L 109 153.007187 
L 119 153.007187 
" style="fill: none; stroke: #e377c2; stroke-width: 1.5; stroke-linecap: square"/>
    </g>
    <g id="text_27">
     <!-- H07 -->
     <g transform="translate(127 156.507187) scale(0.1 -0.1)">
      <use xlink:href="#DejaVuSans-48"/>
      <use xlink:href="#DejaVuSans-30" transform="translate(75.195312 0)"/>
      <use xlink:href="#DejaVuSans-37" transform="translate(138.818359 0)"/>
     </g>
    </g>
    <g id="line2d_54">
     <path d="M 99 167.685312 
L 109 167.685312 
L 119 167.685312 
" style="fill: none; stroke: #7f7f7f; stroke-width: 1.5; stroke-linecap: square"/>
    </g>
    <g id="text_28">
     <!-- H08 -->
     <g transform="translate(127 171.185312) scale(0.1 -0.1)">
      <use xlink:href="#DejaVuSans-48"/>
      <use xlink:href="#DejaVuSans-30" transform="translate(75.195312 0)"/>
      <use xlink:href="#DejaVuSans-38" transform="translate(138.818359 0)"/>
     </g>
    </g>
    <g id="line2d_55">
     <path d="M 99 182.363437 
L 109 182.363437 
L 119 182.363437 
" style="fill: none; stroke: #bcbd22; stroke-width: 1.5; stroke-linecap: square"/>
    </g>
    <g id="text_29">
     <!-- H09 -->
     <g transform="translate(127 185.863437) scale(0.1 -0.1)">
      <use xlink:href="#DejaVuSans-48"/>
      <use xlink:href="#DejaVuSans-30" transform="translate(75.195312 0)"/>
      <use xlink:href="#DejaVuSans-39" transform="translate(138.818359 0)"/>
     </g>
    </g>
    <g id="line2d_56">
     <path d="M 99 197.041562 
L 109 197.041562 
L 119 197.041562 
" style="fill: none; stroke: #17becf; stroke-width: 1.5; stroke-linecap: square"/>
    </g>
    <g id="text_30">
     <!-- H10 -->
     <g transform="translate(127 200.541562) scale(0.1 -0.1)">
      <use xlink:href="#DejaVuSans-48"/>
      <use xlink:href="#DejaVuSans-31" transform="translate(75.195312 0)"/>
      <use xlink:href="#DejaVuSans-30" transform="translate(138.818359 0)"/>
     </g>
    </g>
    <g id="line2d_57">
     <path d="M 99 211.719687 
L 109 211.719687 
L 119 211.719687 
" style="fill: none; stroke: #1f77b4; stroke-width: 1.5; stroke-linecap: square"/>
    </g>
    <g id="text_31">
     <!-- H11 -->
     <g transform="translate(127 215.219687) scale(0.1 -0.1)">
      <use xlink:href="#DejaVuSans-48"/>
      <use xlink:href="#DejaVuSans-31" transform="translate(75.195312 0)"/>
      <use xlink:href="#DejaVuSans-31" transform="translate(138.818359 0)"/>
     </g>
    </g>
    <g id="line2d_58">
     <path d="M 99 226.397812 
L 109 226.397812 
L 119 226.397812 
" style="fill: none; stroke: #ff7f0e; stroke-width: 1.5; stroke-linecap: square"/>
    </g>
    <g id="text_32">
     <!-- H12 -->
     <g transform="translate(127 229.897812) scale(0.1 -0.1)">
      <use xlink:href="#DejaVuSans-48"/>
      <use xlink:href="#DejaVuSans-31" transform="translate(75.195312 0)"/>
      <use xlink:href="#DejaVuSans-32" transform="translate(138.818359 0)"/>
     </g>
    </g>
   </g>
  </g>
 </g>
 <defs>
  <clipPath id="p3736281060">
   <rect x="90" y="51.84" width="558" height="332.64"/>
  </clipPath>
 </defs>
</svg>
