<?xml version="1.0" encoding="utf-8" standalone="no"?>
<!DOCTYPE svg PUBLIC "-//W3C//DTD SVG 1.1//EN"
  "http://www.w3.org/Graphics/SVG/1.1/DTD/svg11.dtd">
<svg xmlns:xlink="http://www.w3.org/1999/xlink" width="720pt" height="432pt" viewBox="0 0 720 432" xmlns="http://www.w3.org/2000/svg" version="1.1">
 <metadata>
  <rdf:RDF xmlns:dc="http://purl.org/dc/elements/1.1/" xmlns:cc="http://creativecommons.org/ns#" xmlns:rdf="http://www.w3.org/1999/02/22-rdf-syntax-ns#">
   <cc:Work>
    <dc:type rdf:resource="http://purl.org/dc/dcmitype/StillImage"/>
    <dc:date>2025-01-14T18:40:28.989173</dc:date>
    <dc:format>image/svg+xml</dc:format>
    <dc:creator>
     <cc:Agent>
      <dc:title>Matplotlib v3.10.0, https://matplotlib.org/</dc:title>
     </cc:Agent>
    </dc:creator>
   </cc:Work>
  </rdf:RDF>
 </metadata>
 <defs>
  <style type="text/css">*{stroke-linejoin: round; stroke-linecap: butt}</style>
 </defs>
 <g id="figure_1">
  <g id="patch_1">
   <path d="M 0 432 
L 720 432 
L 720 0 
L 0 0 
z
" style="fill: #ffffff"/>
  </g>
  <g id="axes_1">
   <g id="patch_2">
    <path d="M 90 384.48 
L 648 384.48 
L 648 51.84 
L 90 51.84 
z
" style="fill: #ffffff"/>
   </g>
   <g id="matplotlib.axis_1">
    <g id="xtick_1">
     <g id="line2d_1">
      <path d="M 160.122995 384.48 
L 160.122995 51.84 
" clip-path="url(#pa6547fb604)" style="fill: none; stroke: #b0b0b0; stroke-width: 0.8; stroke-linecap: square"/>
     </g>
     <g id="line2d_2">
      <defs>
       <path id="m7b49260b10" d="M 0 0 
L 0 3.5 
" style="stroke: #000000; stroke-width: 0.8"/>
      </defs>
      <g>
       <use xlink:href="#m7b49260b10" x="160.122995" y="384.48" style="stroke: #000000; stroke-width: 0.8"/>
      </g>
     </g>
     <g id="text_1">
      <!-- 01-14 14 -->
      <g transform="translate(137.642526 399.078438) scale(0.1 -0.1)">
       <defs>
        <path id="DejaVuSans-30" d="M 2034 4250 
Q 1547 4250 1301 3770 
Q 1056 3291 1056 2328 
Q 1056 1369 1301 889 
Q 1547 409 2034 409 
Q 2525 409 2770 889 
Q 3016 1369 3016 2328 
Q 3016 3291 2770 3770 
Q 2525 4250 2034 4250 
z
M 2034 4750 
Q 2819 4750 3233 4129 
Q 3647 3509 3647 2328 
Q 3647 1150 3233 529 
Q 2819 -91 2034 -91 
Q 1250 -91 836 529 
Q 422 1150 422 2328 
Q 422 3509 836 4129 
Q 1250 4750 2034 4750 
z
" transform="scale(0.015625)"/>
        <path id="DejaVuSans-31" d="M 794 531 
L 1825 531 
L 1825 4091 
L 703 3866 
L 703 4441 
L 1819 4666 
L 2450 4666 
L 2450 531 
L 3481 531 
L 3481 0 
L 794 0 
L 794 531 
z
" transform="scale(0.015625)"/>
        <path id="DejaVuSans-2d" d="M 313 2009 
L 1997 2009 
L 1997 1497 
L 313 1497 
L 313 2009 
z
" transform="scale(0.015625)"/>
        <path id="DejaVuSans-34" d="M 2419 4116 
L 825 1625 
L 2419 1625 
L 2419 4116 
z
M 2253 4666 
L 3047 4666 
L 3047 1625 
L 3713 1625 
L 3713 1100 
L 3047 1100 
L 3047 0 
L 2419 0 
L 2419 1100 
L 313 1100 
L 313 1709 
L 2253 4666 
z
" transform="scale(0.015625)"/>
        <path id="DejaVuSans-20" transform="scale(0.015625)"/>
       </defs>
       <use xlink:href="#DejaVuSans-30"/>
       <use xlink:href="#DejaVuSans-31" transform="translate(63.623047 0)"/>
       <use xlink:href="#DejaVuSans-2d" transform="translate(127.246094 0)"/>
       <use xlink:href="#DejaVuSans-31" transform="translate(163.330078 0)"/>
       <use xlink:href="#DejaVuSans-34" transform="translate(226.953125 0)"/>
       <use xlink:href="#DejaVuSans-20" transform="translate(290.576172 0)"/>
       <use xlink:href="#DejaVuSans-31" transform="translate(322.363281 0)"/>
       <use xlink:href="#DejaVuSans-34" transform="translate(385.986328 0)"/>
      </g>
     </g>
    </g>
    <g id="xtick_2">
     <g id="line2d_3">
      <path d="M 259.588235 384.48 
L 259.588235 51.84 
" clip-path="url(#pa6547fb604)" style="fill: none; stroke: #b0b0b0; stroke-width: 0.8; stroke-linecap: square"/>
     </g>
     <g id="line2d_4">
      <g>
       <use xlink:href="#m7b49260b10" x="259.588235" y="384.48" style="stroke: #000000; stroke-width: 0.8"/>
      </g>
     </g>
     <g id="text_2">
      <!-- 01-14 15 -->
      <g transform="translate(237.107767 399.078438) scale(0.1 -0.1)">
       <defs>
        <path id="DejaVuSans-35" d="M 691 4666 
L 3169 4666 
L 3169 4134 
L 1269 4134 
L 1269 2991 
Q 1406 3038 1543 3061 
Q 1681 3084 1819 3084 
Q 2600 3084 3056 2656 
Q 3513 2228 3513 1497 
Q 3513 744 3044 326 
Q 2575 -91 1722 -91 
Q 1428 -91 1123 -41 
Q 819 9 494 109 
L 494 744 
Q 775 591 1075 516 
Q 1375 441 1709 441 
Q 2250 441 2565 725 
Q 2881 1009 2881 1497 
Q 2881 1984 2565 2268 
Q 2250 2553 1709 2553 
Q 1456 2553 1204 2497 
Q 953 2441 691 2322 
L 691 4666 
z
" transform="scale(0.015625)"/>
       </defs>
       <use xlink:href="#DejaVuSans-30"/>
       <use xlink:href="#DejaVuSans-31" transform="translate(63.623047 0)"/>
       <use xlink:href="#DejaVuSans-2d" transform="translate(127.246094 0)"/>
       <use xlink:href="#DejaVuSans-31" transform="translate(163.330078 0)"/>
       <use xlink:href="#DejaVuSans-34" transform="translate(226.953125 0)"/>
       <use xlink:href="#DejaVuSans-20" transform="translate(290.576172 0)"/>
       <use xlink:href="#DejaVuSans-31" transform="translate(322.363281 0)"/>
       <use xlink:href="#DejaVuSans-35" transform="translate(385.986328 0)"/>
      </g>
     </g>
    </g>
    <g id="xtick_3">
     <g id="line2d_5">
      <path d="M 359.053476 384.48 
L 359.053476 51.84 
" clip-path="url(#pa6547fb604)" style="fill: none; stroke: #b0b0b0; stroke-width: 0.8; stroke-linecap: square"/>
     </g>
     <g id="line2d_6">
      <g>
       <use xlink:href="#m7b49260b10" x="359.053476" y="384.48" style="stroke: #000000; stroke-width: 0.8"/>
      </g>
     </g>
     <g id="text_3">
      <!-- 01-14 16 -->
      <g transform="translate(336.573007 399.078438) scale(0.1 -0.1)">
       <defs>
        <path id="DejaVuSans-36" d="M 2113 2584 
Q 1688 2584 1439 2293 
Q 1191 2003 1191 1497 
Q 1191 994 1439 701 
Q 1688 409 2113 409 
Q 2538 409 2786 701 
Q 3034 994 3034 1497 
Q 3034 2003 2786 2293 
Q 2538 2584 2113 2584 
z
M 3366 4563 
L 3366 3988 
Q 3128 4100 2886 4159 
Q 2644 4219 2406 4219 
Q 1781 4219 1451 3797 
Q 1122 3375 1075 2522 
Q 1259 2794 1537 2939 
Q 1816 3084 2150 3084 
Q 2853 3084 3261 2657 
Q 3669 2231 3669 1497 
Q 3669 778 3244 343 
Q 2819 -91 2113 -91 
Q 1303 -91 875 529 
Q 447 1150 447 2328 
Q 447 3434 972 4092 
Q 1497 4750 2381 4750 
Q 2619 4750 2861 4703 
Q 3103 4656 3366 4563 
z
" transform="scale(0.015625)"/>
       </defs>
       <use xlink:href="#DejaVuSans-30"/>
       <use xlink:href="#DejaVuSans-31" transform="translate(63.623047 0)"/>
       <use xlink:href="#DejaVuSans-2d" transform="translate(127.246094 0)"/>
       <use xlink:href="#DejaVuSans-31" transform="translate(163.330078 0)"/>
       <use xlink:href="#DejaVuSans-34" transform="translate(226.953125 0)"/>
       <use xlink:href="#DejaVuSans-20" transform="translate(290.576172 0)"/>
       <use xlink:href="#DejaVuSans-31" transform="translate(322.363281 0)"/>
       <use xlink:href="#DejaVuSans-36" transform="translate(385.986328 0)"/>
      </g>
     </g>
    </g>
    <g id="xtick_4">
     <g id="line2d_7">
      <path d="M 458.518717 384.48 
L 458.518717 51.84 
" clip-path="url(#pa6547fb604)" style="fill: none; stroke: #b0b0b0; stroke-width: 0.8; stroke-linecap: square"/>
     </g>
     <g id="line2d_8">
      <g>
       <use xlink:href="#m7b49260b10" x="458.518717" y="384.48" style="stroke: #000000; stroke-width: 0.8"/>
      </g>
     </g>
     <g id="text_4">
      <!-- 01-14 17 -->
      <g transform="translate(436.038248 399.078438) scale(0.1 -0.1)">
       <defs>
        <path id="DejaVuSans-37" d="M 525 4666 
L 3525 4666 
L 3525 4397 
L 1831 0 
L 1172 0 
L 2766 4134 
L 525 4134 
L 525 4666 
z
" transform="scale(0.015625)"/>
       </defs>
       <use xlink:href="#DejaVuSans-30"/>
       <use xlink:href="#DejaVuSans-31" transform="translate(63.623047 0)"/>
       <use xlink:href="#DejaVuSans-2d" transform="translate(127.246094 0)"/>
       <use xlink:href="#DejaVuSans-31" transform="translate(163.330078 0)"/>
       <use xlink:href="#DejaVuSans-34" transform="translate(226.953125 0)"/>
       <use xlink:href="#DejaVuSans-20" transform="translate(290.576172 0)"/>
       <use xlink:href="#DejaVuSans-31" transform="translate(322.363281 0)"/>
       <use xlink:href="#DejaVuSans-37" transform="translate(385.986328 0)"/>
      </g>
     </g>
    </g>
    <g id="xtick_5">
     <g id="line2d_9">
      <path d="M 557.983957 384.48 
L 557.983957 51.84 
" clip-path="url(#pa6547fb604)" style="fill: none; stroke: #b0b0b0; stroke-width: 0.8; stroke-linecap: square"/>
     </g>
     <g id="line2d_10">
      <g>
       <use xlink:href="#m7b49260b10" x="557.983957" y="384.48" style="stroke: #000000; stroke-width: 0.8"/>
      </g>
     </g>
     <g id="text_5">
      <!-- 01-14 18 -->
      <g transform="translate(535.503488 399.078438) scale(0.1 -0.1)">
       <defs>
        <path id="DejaVuSans-38" d="M 2034 2216 
Q 1584 2216 1326 1975 
Q 1069 1734 1069 1313 
Q 1069 891 1326 650 
Q 1584 409 2034 409 
Q 2484 409 2743 651 
Q 3003 894 3003 1313 
Q 3003 1734 2745 1975 
Q 2488 2216 2034 2216 
z
M 1403 2484 
Q 997 2584 770 2862 
Q 544 3141 544 3541 
Q 544 4100 942 4425 
Q 1341 4750 2034 4750 
Q 2731 4750 3128 4425 
Q 3525 4100 3525 3541 
Q 3525 3141 3298 2862 
Q 3072 2584 2669 2484 
Q 3125 2378 3379 2068 
Q 3634 1759 3634 1313 
Q 3634 634 3220 271 
Q 2806 -91 2034 -91 
Q 1263 -91 848 271 
Q 434 634 434 1313 
Q 434 1759 690 2068 
Q 947 2378 1403 2484 
z
M 1172 3481 
Q 1172 3119 1398 2916 
Q 1625 2713 2034 2713 
Q 2441 2713 2670 2916 
Q 2900 3119 2900 3481 
Q 2900 3844 2670 4047 
Q 2441 4250 2034 4250 
Q 1625 4250 1398 4047 
Q 1172 3844 1172 3481 
z
" transform="scale(0.015625)"/>
       </defs>
       <use xlink:href="#DejaVuSans-30"/>
       <use xlink:href="#DejaVuSans-31" transform="translate(63.623047 0)"/>
       <use xlink:href="#DejaVuSans-2d" transform="translate(127.246094 0)"/>
       <use xlink:href="#DejaVuSans-31" transform="translate(163.330078 0)"/>
       <use xlink:href="#DejaVuSans-34" transform="translate(226.953125 0)"/>
       <use xlink:href="#DejaVuSans-20" transform="translate(290.576172 0)"/>
       <use xlink:href="#DejaVuSans-31" transform="translate(322.363281 0)"/>
       <use xlink:href="#DejaVuSans-38" transform="translate(385.986328 0)"/>
      </g>
     </g>
    </g>
    <g id="text_6">
     <!-- Date and Time -->
     <g transform="translate(332.230469 412.756563) scale(0.1 -0.1)">
      <defs>
       <path id="DejaVuSans-44" d="M 1259 4147 
L 1259 519 
L 2022 519 
Q 2988 519 3436 956 
Q 3884 1394 3884 2338 
Q 3884 3275 3436 3711 
Q 2988 4147 2022 4147 
L 1259 4147 
z
M 628 4666 
L 1925 4666 
Q 3281 4666 3915 4102 
Q 4550 3538 4550 2338 
Q 4550 1131 3912 565 
Q 3275 0 1925 0 
L 628 0 
L 628 4666 
z
" transform="scale(0.015625)"/>
       <path id="DejaVuSans-61" d="M 2194 1759 
Q 1497 1759 1228 1600 
Q 959 1441 959 1056 
Q 959 750 1161 570 
Q 1363 391 1709 391 
Q 2188 391 2477 730 
Q 2766 1069 2766 1631 
L 2766 1759 
L 2194 1759 
z
M 3341 1997 
L 3341 0 
L 2766 0 
L 2766 531 
Q 2569 213 2275 61 
Q 1981 -91 1556 -91 
Q 1019 -91 701 211 
Q 384 513 384 1019 
Q 384 1609 779 1909 
Q 1175 2209 1959 2209 
L 2766 2209 
L 2766 2266 
Q 2766 2663 2505 2880 
Q 2244 3097 1772 3097 
Q 1472 3097 1187 3025 
Q 903 2953 641 2809 
L 641 3341 
Q 956 3463 1253 3523 
Q 1550 3584 1831 3584 
Q 2591 3584 2966 3190 
Q 3341 2797 3341 1997 
z
" transform="scale(0.015625)"/>
       <path id="DejaVuSans-74" d="M 1172 4494 
L 1172 3500 
L 2356 3500 
L 2356 3053 
L 1172 3053 
L 1172 1153 
Q 1172 725 1289 603 
Q 1406 481 1766 481 
L 2356 481 
L 2356 0 
L 1766 0 
Q 1100 0 847 248 
Q 594 497 594 1153 
L 594 3053 
L 172 3053 
L 172 3500 
L 594 3500 
L 594 4494 
L 1172 4494 
z
" transform="scale(0.015625)"/>
       <path id="DejaVuSans-65" d="M 3597 1894 
L 3597 1613 
L 953 1613 
Q 991 1019 1311 708 
Q 1631 397 2203 397 
Q 2534 397 2845 478 
Q 3156 559 3463 722 
L 3463 178 
Q 3153 47 2828 -22 
Q 2503 -91 2169 -91 
Q 1331 -91 842 396 
Q 353 884 353 1716 
Q 353 2575 817 3079 
Q 1281 3584 2069 3584 
Q 2775 3584 3186 3129 
Q 3597 2675 3597 1894 
z
M 3022 2063 
Q 3016 2534 2758 2815 
Q 2500 3097 2075 3097 
Q 1594 3097 1305 2825 
Q 1016 2553 972 2059 
L 3022 2063 
z
" transform="scale(0.015625)"/>
       <path id="DejaVuSans-6e" d="M 3513 2113 
L 3513 0 
L 2938 0 
L 2938 2094 
Q 2938 2591 2744 2837 
Q 2550 3084 2163 3084 
Q 1697 3084 1428 2787 
Q 1159 2491 1159 1978 
L 1159 0 
L 581 0 
L 581 3500 
L 1159 3500 
L 1159 2956 
Q 1366 3272 1645 3428 
Q 1925 3584 2291 3584 
Q 2894 3584 3203 3211 
Q 3513 2838 3513 2113 
z
" transform="scale(0.015625)"/>
       <path id="DejaVuSans-64" d="M 2906 2969 
L 2906 4863 
L 3481 4863 
L 3481 0 
L 2906 0 
L 2906 525 
Q 2725 213 2448 61 
Q 2172 -91 1784 -91 
Q 1150 -91 751 415 
Q 353 922 353 1747 
Q 353 2572 751 3078 
Q 1150 3584 1784 3584 
Q 2172 3584 2448 3432 
Q 2725 3281 2906 2969 
z
M 947 1747 
Q 947 1113 1208 752 
Q 1469 391 1925 391 
Q 2381 391 2643 752 
Q 2906 1113 2906 1747 
Q 2906 2381 2643 2742 
Q 2381 3103 1925 3103 
Q 1469 3103 1208 2742 
Q 947 2381 947 1747 
z
" transform="scale(0.015625)"/>
       <path id="DejaVuSans-54" d="M -19 4666 
L 3928 4666 
L 3928 4134 
L 2272 4134 
L 2272 0 
L 1638 0 
L 1638 4134 
L -19 4134 
L -19 4666 
z
" transform="scale(0.015625)"/>
       <path id="DejaVuSans-69" d="M 603 3500 
L 1178 3500 
L 1178 0 
L 603 0 
L 603 3500 
z
M 603 4863 
L 1178 4863 
L 1178 4134 
L 603 4134 
L 603 4863 
z
" transform="scale(0.015625)"/>
       <path id="DejaVuSans-6d" d="M 3328 2828 
Q 3544 3216 3844 3400 
Q 4144 3584 4550 3584 
Q 5097 3584 5394 3201 
Q 5691 2819 5691 2113 
L 5691 0 
L 5113 0 
L 5113 2094 
Q 5113 2597 4934 2840 
Q 4756 3084 4391 3084 
Q 3944 3084 3684 2787 
Q 3425 2491 3425 1978 
L 3425 0 
L 2847 0 
L 2847 2094 
Q 2847 2600 2669 2842 
Q 2491 3084 2119 3084 
Q 1678 3084 1418 2786 
Q 1159 2488 1159 1978 
L 1159 0 
L 581 0 
L 581 3500 
L 1159 3500 
L 1159 2956 
Q 1356 3278 1631 3431 
Q 1906 3584 2284 3584 
Q 2666 3584 2933 3390 
Q 3200 3197 3328 2828 
z
" transform="scale(0.015625)"/>
      </defs>
      <use xlink:href="#DejaVuSans-44"/>
      <use xlink:href="#DejaVuSans-61" transform="translate(77.001953 0)"/>
      <use xlink:href="#DejaVuSans-74" transform="translate(138.28125 0)"/>
      <use xlink:href="#DejaVuSans-65" transform="translate(177.490234 0)"/>
      <use xlink:href="#DejaVuSans-20" transform="translate(239.013672 0)"/>
      <use xlink:href="#DejaVuSans-61" transform="translate(270.800781 0)"/>
      <use xlink:href="#DejaVuSans-6e" transform="translate(332.080078 0)"/>
      <use xlink:href="#DejaVuSans-64" transform="translate(395.458984 0)"/>
      <use xlink:href="#DejaVuSans-20" transform="translate(458.935547 0)"/>
      <use xlink:href="#DejaVuSans-54" transform="translate(490.722656 0)"/>
      <use xlink:href="#DejaVuSans-69" transform="translate(548.681641 0)"/>
      <use xlink:href="#DejaVuSans-6d" transform="translate(576.464844 0)"/>
      <use xlink:href="#DejaVuSans-65" transform="translate(673.876953 0)"/>
     </g>
    </g>
   </g>
   <g id="matplotlib.axis_2">
    <g id="ytick_1">
     <g id="line2d_11">
      <path d="M 90 370.630588 
L 648 370.630588 
" clip-path="url(#pa6547fb604)" style="fill: none; stroke: #b0b0b0; stroke-width: 0.8; stroke-linecap: square"/>
     </g>
     <g id="line2d_12">
      <defs>
       <path id="m3a0d689a22" d="M 0 0 
L -3.5 0 
" style="stroke: #000000; stroke-width: 0.8"/>
      </defs>
      <g>
       <use xlink:href="#m3a0d689a22" x="90" y="370.630588" style="stroke: #000000; stroke-width: 0.8"/>
      </g>
     </g>
     <g id="text_7">
      <!-- 0 -->
      <g transform="translate(76.6375 374.429807) scale(0.1 -0.1)">
       <use xlink:href="#DejaVuSans-30"/>
      </g>
     </g>
    </g>
    <g id="ytick_2">
     <g id="line2d_13">
      <path d="M 90 307.101176 
L 648 307.101176 
" clip-path="url(#pa6547fb604)" style="fill: none; stroke: #b0b0b0; stroke-width: 0.8; stroke-linecap: square"/>
     </g>
     <g id="line2d_14">
      <g>
       <use xlink:href="#m3a0d689a22" x="90" y="307.101176" style="stroke: #000000; stroke-width: 0.8"/>
      </g>
     </g>
     <g id="text_8">
      <!-- 50 -->
      <g transform="translate(70.275 310.900395) scale(0.1 -0.1)">
       <use xlink:href="#DejaVuSans-35"/>
       <use xlink:href="#DejaVuSans-30" transform="translate(63.623047 0)"/>
      </g>
     </g>
    </g>
    <g id="ytick_3">
     <g id="line2d_15">
      <path d="M 90 243.571765 
L 648 243.571765 
" clip-path="url(#pa6547fb604)" style="fill: none; stroke: #b0b0b0; stroke-width: 0.8; stroke-linecap: square"/>
     </g>
     <g id="line2d_16">
      <g>
       <use xlink:href="#m3a0d689a22" x="90" y="243.571765" style="stroke: #000000; stroke-width: 0.8"/>
      </g>
     </g>
     <g id="text_9">
      <!-- 100 -->
      <g transform="translate(63.9125 247.370983) scale(0.1 -0.1)">
       <use xlink:href="#DejaVuSans-31"/>
       <use xlink:href="#DejaVuSans-30" transform="translate(63.623047 0)"/>
       <use xlink:href="#DejaVuSans-30" transform="translate(127.246094 0)"/>
      </g>
     </g>
    </g>
    <g id="ytick_4">
     <g id="line2d_17">
      <path d="M 90 180.042353 
L 648 180.042353 
" clip-path="url(#pa6547fb604)" style="fill: none; stroke: #b0b0b0; stroke-width: 0.8; stroke-linecap: square"/>
     </g>
     <g id="line2d_18">
      <g>
       <use xlink:href="#m3a0d689a22" x="90" y="180.042353" style="stroke: #000000; stroke-width: 0.8"/>
      </g>
     </g>
     <g id="text_10">
      <!-- 150 -->
      <g transform="translate(63.9125 183.841572) scale(0.1 -0.1)">
       <use xlink:href="#DejaVuSans-31"/>
       <use xlink:href="#DejaVuSans-35" transform="translate(63.623047 0)"/>
       <use xlink:href="#DejaVuSans-30" transform="translate(127.246094 0)"/>
      </g>
     </g>
    </g>
    <g id="ytick_5">
     <g id="line2d_19">
      <path d="M 90 116.512941 
L 648 116.512941 
" clip-path="url(#pa6547fb604)" style="fill: none; stroke: #b0b0b0; stroke-width: 0.8; stroke-linecap: square"/>
     </g>
     <g id="line2d_20">
      <g>
       <use xlink:href="#m3a0d689a22" x="90" y="116.512941" style="stroke: #000000; stroke-width: 0.8"/>
      </g>
     </g>
     <g id="text_11">
      <!-- 200 -->
      <g transform="translate(63.9125 120.31216) scale(0.1 -0.1)">
       <defs>
        <path id="DejaVuSans-32" d="M 1228 531 
L 3431 531 
L 3431 0 
L 469 0 
L 469 531 
Q 828 903 1448 1529 
Q 2069 2156 2228 2338 
Q 2531 2678 2651 2914 
Q 2772 3150 2772 3378 
Q 2772 3750 2511 3984 
Q 2250 4219 1831 4219 
Q 1534 4219 1204 4116 
Q 875 4013 500 3803 
L 500 4441 
Q 881 4594 1212 4672 
Q 1544 4750 1819 4750 
Q 2544 4750 2975 4387 
Q 3406 4025 3406 3419 
Q 3406 3131 3298 2873 
Q 3191 2616 2906 2266 
Q 2828 2175 2409 1742 
Q 1991 1309 1228 531 
z
" transform="scale(0.015625)"/>
       </defs>
       <use xlink:href="#DejaVuSans-32"/>
       <use xlink:href="#DejaVuSans-30" transform="translate(63.623047 0)"/>
       <use xlink:href="#DejaVuSans-30" transform="translate(127.246094 0)"/>
      </g>
     </g>
    </g>
    <g id="ytick_6">
     <g id="line2d_21">
      <path d="M 90 52.983529 
L 648 52.983529 
" clip-path="url(#pa6547fb604)" style="fill: none; stroke: #b0b0b0; stroke-width: 0.8; stroke-linecap: square"/>
     </g>
     <g id="line2d_22">
      <g>
       <use xlink:href="#m3a0d689a22" x="90" y="52.983529" style="stroke: #000000; stroke-width: 0.8"/>
      </g>
     </g>
     <g id="text_12">
      <!-- 250 -->
      <g transform="translate(63.9125 56.782748) scale(0.1 -0.1)">
       <use xlink:href="#DejaVuSans-32"/>
       <use xlink:href="#DejaVuSans-35" transform="translate(63.623047 0)"/>
       <use xlink:href="#DejaVuSans-30" transform="translate(127.246094 0)"/>
      </g>
     </g>
    </g>
    <g id="text_13">
     <!-- Votes -->
     <g transform="translate(57.832812 231.893594) rotate(-90) scale(0.1 -0.1)">
      <defs>
       <path id="DejaVuSans-56" d="M 1831 0 
L 50 4666 
L 709 4666 
L 2188 738 
L 3669 4666 
L 4325 4666 
L 2547 0 
L 1831 0 
z
" transform="scale(0.015625)"/>
       <path id="DejaVuSans-6f" d="M 1959 3097 
Q 1497 3097 1228 2736 
Q 959 2375 959 1747 
Q 959 1119 1226 758 
Q 1494 397 1959 397 
Q 2419 397 2687 759 
Q 2956 1122 2956 1747 
Q 2956 2369 2687 2733 
Q 2419 3097 1959 3097 
z
M 1959 3584 
Q 2709 3584 3137 3096 
Q 3566 2609 3566 1747 
Q 3566 888 3137 398 
Q 2709 -91 1959 -91 
Q 1206 -91 779 398 
Q 353 888 353 1747 
Q 353 2609 779 3096 
Q 1206 3584 1959 3584 
z
" transform="scale(0.015625)"/>
       <path id="DejaVuSans-73" d="M 2834 3397 
L 2834 2853 
Q 2591 2978 2328 3040 
Q 2066 3103 1784 3103 
Q 1356 3103 1142 2972 
Q 928 2841 928 2578 
Q 928 2378 1081 2264 
Q 1234 2150 1697 2047 
L 1894 2003 
Q 2506 1872 2764 1633 
Q 3022 1394 3022 966 
Q 3022 478 2636 193 
Q 2250 -91 1575 -91 
Q 1294 -91 989 -36 
Q 684 19 347 128 
L 347 722 
Q 666 556 975 473 
Q 1284 391 1588 391 
Q 1994 391 2212 530 
Q 2431 669 2431 922 
Q 2431 1156 2273 1281 
Q 2116 1406 1581 1522 
L 1381 1569 
Q 847 1681 609 1914 
Q 372 2147 372 2553 
Q 372 3047 722 3315 
Q 1072 3584 1716 3584 
Q 2034 3584 2315 3537 
Q 2597 3491 2834 3397 
z
" transform="scale(0.015625)"/>
      </defs>
      <use xlink:href="#DejaVuSans-56"/>
      <use xlink:href="#DejaVuSans-6f" transform="translate(60.658203 0)"/>
      <use xlink:href="#DejaVuSans-74" transform="translate(121.839844 0)"/>
      <use xlink:href="#DejaVuSans-65" transform="translate(161.048828 0)"/>
      <use xlink:href="#DejaVuSans-73" transform="translate(222.572266 0)"/>
     </g>
    </g>
   </g>
   <g id="line2d_23">
    <path d="M 115.363636 347.76 
L 131.941176 347.76 
L 133.59893 346.489412 
L 150.176471 346.489412 
L 151.834225 343.948235 
L 166.754011 343.948235 
L 168.411765 342.677647 
L 176.700535 342.677647 
L 178.358289 341.407059 
L 184.989305 341.407059 
L 186.647059 340.136471 
L 191.620321 340.136471 
L 193.278075 338.865882 
L 216.486631 338.865882 
L 218.144385 337.595294 
L 236.379679 337.595294 
L 239.695187 335.054118 
L 243.010695 335.054118 
L 244.668449 333.783529 
L 259.588235 333.783529 
L 262.903743 331.242353 
L 282.796791 331.242353 
L 284.454545 329.971765 
L 289.427807 329.971765 
L 291.085561 328.701176 
L 292.743316 328.701176 
L 294.40107 327.430588 
L 339.160428 327.430588 
L 340.818182 326.16 
L 360.71123 326.16 
L 362.368984 324.889412 
L 373.973262 324.889412 
L 375.631016 323.618824 
L 377.28877 321.077647 
L 378.946524 321.077647 
L 382.262032 318.536471 
L 408.786096 318.536471 
L 410.44385 317.265882 
L 420.390374 317.265882 
L 422.048128 315.995294 
L 428.679144 315.995294 
L 430.336898 314.724706 
L 446.914439 314.724706 
L 448.572193 313.454118 
L 451.887701 313.454118 
L 453.545455 312.183529 
L 458.518717 312.183529 
L 460.176471 310.912941 
L 473.438503 310.912941 
L 475.096257 309.642353 
L 476.754011 309.642353 
L 478.411765 308.371765 
L 494.989305 308.371765 
L 496.647059 307.101176 
L 508.251337 307.101176 
L 509.909091 305.830588 
L 511.566845 305.830588 
L 514.882353 303.289412 
L 551.352941 303.289412 
L 553.010695 302.018824 
L 579.534759 302.018824 
L 581.192513 300.748235 
L 582.850267 300.748235 
L 584.508021 299.477647 
L 599.427807 299.477647 
L 601.085561 298.207059 
L 602.743316 298.207059 
L 604.40107 296.936471 
L 612.68984 296.936471 
L 614.347594 295.665882 
L 619.320856 295.665882 
L 622.636364 293.124706 
L 622.636364 293.124706 
" clip-path="url(#pa6547fb604)" style="fill: none; stroke: #1f77b4; stroke-width: 1.5; stroke-linecap: square"/>
   </g>
   <g id="line2d_24">
    <path d="M 115.363636 266.442353 
L 117.02139 265.171765 
L 121.994652 265.171765 
L 123.652406 263.901176 
L 125.31016 263.901176 
L 126.967914 262.630588 
L 128.625668 262.630588 
L 131.941176 260.089412 
L 133.59893 257.548235 
L 135.256684 257.548235 
L 138.572193 255.007059 
L 140.229947 255.007059 
L 141.887701 249.924706 
L 143.545455 247.383529 
L 145.203209 242.301176 
L 146.860963 238.489412 
L 151.834225 238.489412 
L 153.491979 234.677647 
L 155.149733 232.136471 
L 158.465241 229.595294 
L 160.122995 227.054118 
L 163.438503 224.512941 
L 165.096257 221.971765 
L 170.069519 221.971765 
L 171.727273 215.618824 
L 173.385027 213.077647 
L 175.042781 211.807059 
L 176.700535 209.265882 
L 178.358289 207.995294 
L 180.016043 207.995294 
L 181.673797 204.183529 
L 183.331551 204.183529 
L 184.989305 201.642353 
L 186.647059 200.371765 
L 188.304813 200.371765 
L 189.962567 199.101176 
L 193.278075 199.101176 
L 194.935829 197.830588 
L 198.251337 197.830588 
L 199.909091 195.289412 
L 201.566845 195.289412 
L 203.224599 194.018824 
L 209.855615 194.018824 
L 211.513369 192.748235 
L 216.486631 192.748235 
L 218.144385 191.477647 
L 219.802139 191.477647 
L 221.459893 188.936471 
L 223.117647 188.936471 
L 224.775401 186.395294 
L 226.433155 185.124706 
L 231.406417 185.124706 
L 233.064171 182.583529 
L 234.721925 181.312941 
L 236.379679 177.501176 
L 239.695187 174.96 
L 252.957219 174.96 
L 254.614973 171.148235 
L 256.272727 171.148235 
L 259.588235 168.607059 
L 261.245989 168.607059 
L 266.219251 164.795294 
L 269.534759 164.795294 
L 271.192513 163.524706 
L 274.508021 163.524706 
L 279.481283 159.712941 
L 282.796791 159.712941 
L 284.454545 158.442353 
L 292.743316 158.442353 
L 294.40107 157.171765 
L 297.716578 157.171765 
L 299.374332 155.901176 
L 319.26738 155.901176 
L 320.925134 153.36 
L 324.240642 153.36 
L 327.55615 150.818824 
L 329.213904 150.818824 
L 330.871658 149.548235 
L 340.818182 149.548235 
L 345.791444 145.736471 
L 347.449198 145.736471 
L 349.106952 144.465882 
L 350.764706 141.924706 
L 352.42246 141.924706 
L 354.080214 140.654118 
L 355.737968 140.654118 
L 362.368984 135.571765 
L 365.684492 135.571765 
L 367.342246 133.030588 
L 372.315508 133.030588 
L 373.973262 131.76 
L 378.946524 131.76 
L 380.604278 130.489412 
L 382.262032 130.489412 
L 383.919786 126.677647 
L 388.893048 126.677647 
L 390.550802 125.407059 
L 392.208556 122.865882 
L 395.524064 122.865882 
L 397.181818 121.595294 
L 400.497326 121.595294 
L 402.15508 120.324706 
L 403.812834 120.324706 
L 412.101604 113.971765 
L 415.417112 113.971765 
L 420.390374 110.16 
L 425.363636 110.16 
L 427.02139 107.618824 
L 428.679144 107.618824 
L 430.336898 106.348235 
L 435.31016 106.348235 
L 436.967914 105.077647 
L 451.887701 105.077647 
L 453.545455 103.807059 
L 465.149733 103.807059 
L 466.807487 102.536471 
L 470.122995 102.536471 
L 473.438503 99.995294 
L 481.727273 99.995294 
L 483.385027 98.724706 
L 491.673797 98.724706 
L 496.647059 94.912941 
L 518.197861 94.912941 
L 519.855615 92.371765 
L 521.513369 91.101176 
L 561.299465 91.101176 
L 562.957219 89.830588 
L 572.903743 89.830588 
L 576.219251 87.289412 
L 579.534759 87.289412 
L 581.192513 86.018824 
L 582.850267 86.018824 
L 586.165775 83.477647 
L 587.823529 83.477647 
L 589.481283 82.207059 
L 591.139037 82.207059 
L 594.454545 77.124706 
L 596.112299 75.854118 
L 604.40107 75.854118 
L 606.058824 72.042353 
L 607.716578 69.501176 
L 611.032086 69.501176 
L 614.347594 66.96 
L 622.636364 66.96 
L 622.636364 66.96 
" clip-path="url(#pa6547fb604)" style="fill: none; stroke: #ff7f0e; stroke-width: 1.5; stroke-linecap: square"/>
   </g>
   <g id="line2d_25">
    <path d="M 115.363636 331.242353 
L 121.994652 331.242353 
L 123.652406 328.701176 
L 126.967914 328.701176 
L 128.625668 327.430588 
L 130.283422 324.889412 
L 131.941176 323.618824 
L 133.59893 319.807059 
L 135.256684 317.265882 
L 136.914439 315.995294 
L 138.572193 315.995294 
L 140.229947 313.454118 
L 141.887701 309.642353 
L 148.518717 309.642353 
L 150.176471 308.371765 
L 151.834225 308.371765 
L 153.491979 305.830588 
L 158.465241 305.830588 
L 161.780749 303.289412 
L 168.411765 303.289412 
L 170.069519 302.018824 
L 176.700535 302.018824 
L 181.673797 298.207059 
L 189.962567 298.207059 
L 191.620321 296.936471 
L 196.593583 296.936471 
L 198.251337 295.665882 
L 201.566845 295.665882 
L 203.224599 293.124706 
L 216.486631 293.124706 
L 218.144385 291.854118 
L 219.802139 289.312941 
L 221.459893 288.042353 
L 223.117647 288.042353 
L 224.775401 286.771765 
L 228.090909 286.771765 
L 229.748663 285.501176 
L 233.064171 285.501176 
L 234.721925 284.230588 
L 244.668449 284.230588 
L 246.326203 282.96 
L 247.983957 282.96 
L 249.641711 281.689412 
L 251.299465 281.689412 
L 252.957219 280.418824 
L 257.930481 280.418824 
L 259.588235 279.148235 
L 261.245989 276.607059 
L 269.534759 276.607059 
L 274.508021 272.795294 
L 279.481283 272.795294 
L 281.139037 271.524706 
L 287.770053 271.524706 
L 289.427807 270.254118 
L 291.085561 270.254118 
L 292.743316 268.983529 
L 296.058824 268.983529 
L 297.716578 267.712941 
L 302.68984 267.712941 
L 306.005348 265.171765 
L 307.663102 265.171765 
L 309.320856 263.901176 
L 322.582888 263.901176 
L 324.240642 261.36 
L 325.898396 260.089412 
L 339.160428 260.089412 
L 340.818182 258.818824 
L 345.791444 258.818824 
L 347.449198 257.548235 
L 352.42246 257.548235 
L 354.080214 256.277647 
L 370.657754 256.277647 
L 372.315508 255.007059 
L 378.946524 255.007059 
L 380.604278 253.736471 
L 390.550802 253.736471 
L 392.208556 252.465882 
L 395.524064 252.465882 
L 397.181818 251.195294 
L 403.812834 251.195294 
L 407.128342 248.654118 
L 438.625668 248.654118 
L 440.283422 247.383529 
L 441.941176 247.383529 
L 443.59893 246.112941 
L 448.572193 246.112941 
L 450.229947 244.842353 
L 458.518717 244.842353 
L 460.176471 243.571765 
L 463.491979 243.571765 
L 465.149733 242.301176 
L 475.096257 242.301176 
L 476.754011 243.571765 
L 478.411765 242.301176 
L 490.016043 242.301176 
L 491.673797 241.030588 
L 504.935829 241.030588 
L 506.593583 239.76 
L 509.909091 239.76 
L 511.566845 238.489412 
L 513.224599 238.489412 
L 514.882353 237.218824 
L 526.486631 237.218824 
L 528.144385 235.948235 
L 538.090909 235.948235 
L 539.748663 234.677647 
L 564.614973 234.677647 
L 566.272727 233.407059 
L 602.743316 233.407059 
L 604.40107 232.136471 
L 620.97861 232.136471 
L 622.636364 230.865882 
L 622.636364 230.865882 
" clip-path="url(#pa6547fb604)" style="fill: none; stroke: #2ca02c; stroke-width: 1.5; stroke-linecap: square"/>
   </g>
   <g id="line2d_26">
    <path d="M 115.363636 369.36 
L 524.828877 369.36 
L 526.486631 368.089412 
L 622.636364 368.089412 
L 622.636364 368.089412 
" clip-path="url(#pa6547fb604)" style="fill: none; stroke: #d62728; stroke-width: 1.5; stroke-linecap: square"/>
   </g>
   <g id="line2d_27">
    <path d="M 115.363636 341.407059 
L 120.336898 341.407059 
L 121.994652 340.136471 
L 131.941176 340.136471 
L 133.59893 338.865882 
L 143.545455 338.865882 
L 145.203209 337.595294 
L 181.673797 337.595294 
L 183.331551 336.324706 
L 243.010695 336.324706 
L 246.326203 333.783529 
L 259.588235 333.783529 
L 261.245989 332.512941 
L 267.877005 332.512941 
L 269.534759 331.242353 
L 272.850267 331.242353 
L 274.508021 329.971765 
L 317.609626 329.971765 
L 319.26738 328.701176 
L 387.235294 328.701176 
L 388.893048 327.430588 
L 604.40107 327.430588 
L 606.058824 326.16 
L 607.716578 326.16 
L 609.374332 324.889412 
L 622.636364 324.889412 
L 622.636364 324.889412 
" clip-path="url(#pa6547fb604)" style="fill: none; stroke: #9467bd; stroke-width: 1.5; stroke-linecap: square"/>
   </g>
   <g id="line2d_28">
    <path d="M 115.363636 351.571765 
L 117.02139 351.571765 
L 118.679144 350.301176 
L 141.887701 350.301176 
L 143.545455 349.030588 
L 163.438503 349.030588 
L 165.096257 347.76 
L 189.962567 347.76 
L 193.278075 345.218824 
L 211.513369 345.218824 
L 213.171123 343.948235 
L 262.903743 343.948235 
L 264.561497 342.677647 
L 279.481283 342.677647 
L 281.139037 341.407059 
L 309.320856 341.407059 
L 310.97861 340.136471 
L 337.502674 340.136471 
L 339.160428 338.865882 
L 345.791444 338.865882 
L 347.449198 337.595294 
L 362.368984 337.595294 
L 364.026738 336.324706 
L 403.812834 336.324706 
L 405.470588 335.054118 
L 415.417112 335.054118 
L 417.074866 333.783529 
L 427.02139 333.783529 
L 428.679144 332.512941 
L 435.31016 332.512941 
L 436.967914 331.242353 
L 498.304813 331.242353 
L 499.962567 329.971765 
L 548.037433 329.971765 
L 549.695187 328.701176 
L 622.636364 328.701176 
L 622.636364 328.701176 
" clip-path="url(#pa6547fb604)" style="fill: none; stroke: #8c564b; stroke-width: 1.5; stroke-linecap: square"/>
   </g>
   <g id="line2d_29">
    <path d="M 115.363636 257.548235 
L 121.994652 257.548235 
L 123.652406 256.277647 
L 130.283422 256.277647 
L 133.59893 253.736471 
L 135.256684 253.736471 
L 136.914439 252.465882 
L 138.572193 252.465882 
L 140.229947 251.195294 
L 143.545455 251.195294 
L 145.203209 249.924706 
L 150.176471 249.924706 
L 151.834225 248.654118 
L 155.149733 248.654118 
L 156.807487 247.383529 
L 158.465241 247.383529 
L 160.122995 246.112941 
L 163.438503 246.112941 
L 166.754011 243.571765 
L 173.385027 243.571765 
L 175.042781 242.301176 
L 180.016043 242.301176 
L 183.331551 239.76 
L 186.647059 239.76 
L 188.304813 238.489412 
L 191.620321 238.489412 
L 193.278075 237.218824 
L 194.935829 234.677647 
L 196.593583 230.865882 
L 199.909091 230.865882 
L 201.566845 229.595294 
L 209.855615 229.595294 
L 213.171123 227.054118 
L 214.828877 224.512941 
L 216.486631 223.242353 
L 218.144385 223.242353 
L 219.802139 220.701176 
L 226.433155 220.701176 
L 228.090909 219.430588 
L 229.748663 219.430588 
L 233.064171 216.889412 
L 234.721925 216.889412 
L 236.379679 215.618824 
L 238.037433 215.618824 
L 241.352941 213.077647 
L 244.668449 213.077647 
L 246.326203 210.536471 
L 252.957219 210.536471 
L 256.272727 207.995294 
L 259.588235 207.995294 
L 261.245989 206.724706 
L 262.903743 204.183529 
L 267.877005 204.183529 
L 269.534759 202.912941 
L 271.192513 202.912941 
L 272.850267 200.371765 
L 274.508021 200.371765 
L 276.165775 199.101176 
L 277.823529 199.101176 
L 279.481283 197.830588 
L 286.112299 197.830588 
L 289.427807 195.289412 
L 291.085561 195.289412 
L 292.743316 192.748235 
L 294.40107 192.748235 
L 296.058824 191.477647 
L 297.716578 191.477647 
L 299.374332 190.207059 
L 304.347594 190.207059 
L 306.005348 188.936471 
L 307.663102 188.936471 
L 314.294118 183.854118 
L 315.951872 181.312941 
L 319.26738 181.312941 
L 322.582888 176.230588 
L 325.898396 176.230588 
L 329.213904 173.689412 
L 330.871658 173.689412 
L 332.529412 171.148235 
L 334.187166 171.148235 
L 335.84492 169.877647 
L 337.502674 169.877647 
L 339.160428 168.607059 
L 342.475936 168.607059 
L 344.13369 167.336471 
L 345.791444 167.336471 
L 347.449198 166.065882 
L 354.080214 166.065882 
L 355.737968 159.712941 
L 357.395722 159.712941 
L 359.053476 158.442353 
L 364.026738 158.442353 
L 365.684492 157.171765 
L 380.604278 157.171765 
L 382.262032 154.630588 
L 388.893048 154.630588 
L 390.550802 153.36 
L 407.128342 153.36 
L 408.786096 150.818824 
L 410.44385 149.548235 
L 418.73262 149.548235 
L 420.390374 148.277647 
L 431.994652 148.277647 
L 433.652406 147.007059 
L 435.31016 147.007059 
L 436.967914 145.736471 
L 446.914439 145.736471 
L 450.229947 143.195294 
L 461.834225 143.195294 
L 465.149733 140.654118 
L 466.807487 140.654118 
L 468.465241 139.383529 
L 478.411765 139.383529 
L 480.069519 138.112941 
L 485.042781 138.112941 
L 486.700535 136.842353 
L 488.358289 134.301176 
L 493.331551 134.301176 
L 494.989305 133.030588 
L 496.647059 133.030588 
L 499.962567 130.489412 
L 506.593583 130.489412 
L 508.251337 129.218824 
L 514.882353 129.218824 
L 516.540107 127.948235 
L 521.513369 127.948235 
L 523.171123 126.677647 
L 536.433155 126.677647 
L 539.748663 124.136471 
L 548.037433 124.136471 
L 549.695187 122.865882 
L 556.326203 122.865882 
L 564.614973 116.512941 
L 567.930481 116.512941 
L 569.588235 115.242353 
L 571.245989 115.242353 
L 572.903743 112.701176 
L 576.219251 110.16 
L 579.534759 105.077647 
L 582.850267 105.077647 
L 586.165775 99.995294 
L 589.481283 99.995294 
L 591.139037 97.454118 
L 594.454545 94.912941 
L 599.427807 94.912941 
L 601.085561 93.642353 
L 602.743316 93.642353 
L 606.058824 91.101176 
L 612.68984 91.101176 
L 614.347594 89.830588 
L 617.663102 89.830588 
L 619.320856 88.56 
L 622.636364 88.56 
L 622.636364 88.56 
" clip-path="url(#pa6547fb604)" style="fill: none; stroke: #e377c2; stroke-width: 1.5; stroke-linecap: square"/>
   </g>
   <g id="line2d_30">
    <path d="M 115.363636 336.324706 
L 117.02139 336.324706 
L 120.336898 333.783529 
L 128.625668 333.783529 
L 130.283422 332.512941 
L 131.941176 332.512941 
L 135.256684 329.971765 
L 138.572193 329.971765 
L 140.229947 328.701176 
L 145.203209 328.701176 
L 146.860963 327.430588 
L 148.518717 327.430588 
L 150.176471 326.16 
L 151.834225 326.16 
L 155.149733 323.618824 
L 160.122995 323.618824 
L 161.780749 322.348235 
L 165.096257 322.348235 
L 168.411765 319.807059 
L 171.727273 319.807059 
L 175.042781 317.265882 
L 176.700535 317.265882 
L 178.358289 315.995294 
L 180.016043 312.183529 
L 186.647059 312.183529 
L 193.278075 307.101176 
L 194.935829 307.101176 
L 198.251337 304.56 
L 199.909091 304.56 
L 201.566845 303.289412 
L 203.224599 303.289412 
L 204.882353 302.018824 
L 219.802139 302.018824 
L 221.459893 300.748235 
L 238.037433 300.748235 
L 241.352941 298.207059 
L 246.326203 298.207059 
L 247.983957 296.936471 
L 251.299465 296.936471 
L 254.614973 294.395294 
L 257.930481 294.395294 
L 259.588235 291.854118 
L 264.561497 291.854118 
L 266.219251 289.312941 
L 267.877005 288.042353 
L 276.165775 288.042353 
L 277.823529 286.771765 
L 279.481283 286.771765 
L 282.796791 284.230588 
L 291.085561 284.230588 
L 292.743316 282.96 
L 294.40107 282.96 
L 296.058824 281.689412 
L 306.005348 281.689412 
L 307.663102 280.418824 
L 312.636364 280.418824 
L 314.294118 279.148235 
L 315.951872 279.148235 
L 317.609626 275.336471 
L 319.26738 275.336471 
L 320.925134 272.795294 
L 322.582888 271.524706 
L 324.240642 271.524706 
L 327.55615 268.983529 
L 330.871658 268.983529 
L 332.529412 267.712941 
L 335.84492 267.712941 
L 337.502674 266.442353 
L 339.160428 266.442353 
L 340.818182 263.901176 
L 342.475936 263.901176 
L 344.13369 262.630588 
L 347.449198 262.630588 
L 350.764706 260.089412 
L 352.42246 260.089412 
L 354.080214 257.548235 
L 355.737968 256.277647 
L 367.342246 256.277647 
L 369 253.736471 
L 373.973262 253.736471 
L 375.631016 252.465882 
L 377.28877 252.465882 
L 378.946524 251.195294 
L 383.919786 251.195294 
L 385.57754 249.924706 
L 393.86631 249.924706 
L 395.524064 248.654118 
L 398.839572 248.654118 
L 400.497326 247.383529 
L 408.786096 247.383529 
L 410.44385 246.112941 
L 425.363636 246.112941 
L 428.679144 243.571765 
L 430.336898 243.571765 
L 431.994652 242.301176 
L 433.652406 242.301176 
L 435.31016 241.030588 
L 436.967914 241.030588 
L 438.625668 239.76 
L 441.941176 239.76 
L 443.59893 238.489412 
L 445.256684 238.489412 
L 448.572193 235.948235 
L 453.545455 235.948235 
L 455.203209 234.677647 
L 460.176471 234.677647 
L 461.834225 233.407059 
L 473.438503 233.407059 
L 475.096257 232.136471 
L 476.754011 232.136471 
L 478.411765 230.865882 
L 485.042781 230.865882 
L 486.700535 228.324706 
L 496.647059 228.324706 
L 498.304813 227.054118 
L 499.962567 227.054118 
L 501.620321 224.512941 
L 509.909091 224.512941 
L 511.566845 223.242353 
L 521.513369 223.242353 
L 523.171123 221.971765 
L 544.721925 221.971765 
L 546.379679 220.701176 
L 571.245989 220.701176 
L 572.903743 219.430588 
L 581.192513 219.430588 
L 582.850267 218.16 
L 584.508021 218.16 
L 586.165775 216.889412 
L 587.823529 216.889412 
L 589.481283 214.348235 
L 591.139037 214.348235 
L 594.454545 211.807059 
L 606.058824 211.807059 
L 607.716578 210.536471 
L 609.374332 210.536471 
L 611.032086 209.265882 
L 612.68984 209.265882 
L 614.347594 207.995294 
L 622.636364 207.995294 
L 622.636364 207.995294 
" clip-path="url(#pa6547fb604)" style="fill: none; stroke: #7f7f7f; stroke-width: 1.5; stroke-linecap: square"/>
   </g>
   <g id="line2d_31">
    <path d="M 115.363636 343.948235 
L 121.994652 343.948235 
L 123.652406 342.677647 
L 140.229947 342.677647 
L 141.887701 341.407059 
L 150.176471 341.407059 
L 151.834225 340.136471 
L 168.411765 340.136471 
L 170.069519 338.865882 
L 186.647059 338.865882 
L 188.304813 337.595294 
L 277.823529 337.595294 
L 279.481283 336.324706 
L 287.770053 336.324706 
L 289.427807 335.054118 
L 301.032086 335.054118 
L 302.68984 333.783529 
L 304.347594 333.783529 
L 306.005348 329.971765 
L 307.663102 328.701176 
L 310.97861 328.701176 
L 312.636364 327.430588 
L 329.213904 327.430588 
L 330.871658 326.16 
L 345.791444 326.16 
L 347.449198 324.889412 
L 365.684492 324.889412 
L 367.342246 323.618824 
L 387.235294 323.618824 
L 388.893048 322.348235 
L 397.181818 322.348235 
L 398.839572 321.077647 
L 451.887701 321.077647 
L 453.545455 319.807059 
L 456.860963 319.807059 
L 458.518717 318.536471 
L 471.780749 318.536471 
L 473.438503 317.265882 
L 519.855615 317.265882 
L 524.828877 313.454118 
L 572.903743 313.454118 
L 574.561497 312.183529 
L 576.219251 312.183529 
L 579.534759 309.642353 
L 582.850267 309.642353 
L 584.508021 308.371765 
L 622.636364 308.371765 
L 622.636364 308.371765 
" clip-path="url(#pa6547fb604)" style="fill: none; stroke: #bcbd22; stroke-width: 1.5; stroke-linecap: square"/>
   </g>
   <g id="line2d_32">
    <path d="M 115.363636 366.818824 
L 198.251337 366.818824 
L 199.909091 365.548235 
L 304.347594 365.548235 
L 306.005348 364.277647 
L 475.096257 364.277647 
L 476.754011 363.007059 
L 478.411765 364.277647 
L 622.636364 364.277647 
L 622.636364 364.277647 
" clip-path="url(#pa6547fb604)" style="fill: none; stroke: #17becf; stroke-width: 1.5; stroke-linecap: square"/>
   </g>
   <g id="line2d_33">
    <path d="M 115.363636 369.36 
L 117.02139 368.089412 
L 120.336898 368.089412 
L 121.994652 366.818824 
L 133.59893 366.818824 
L 135.256684 365.548235 
L 140.229947 365.548235 
L 141.887701 364.277647 
L 143.545455 364.277647 
L 146.860963 361.736471 
L 155.149733 361.736471 
L 158.465241 359.195294 
L 160.122995 359.195294 
L 161.780749 357.924706 
L 173.385027 357.924706 
L 175.042781 356.654118 
L 176.700535 354.112941 
L 180.016043 354.112941 
L 181.673797 352.842353 
L 183.331551 352.842353 
L 184.989305 351.571765 
L 186.647059 351.571765 
L 188.304813 350.301176 
L 189.962567 350.301176 
L 193.278075 347.76 
L 203.224599 347.76 
L 206.540107 345.218824 
L 211.513369 345.218824 
L 213.171123 343.948235 
L 214.828877 343.948235 
L 216.486631 341.407059 
L 221.459893 341.407059 
L 224.775401 336.324706 
L 234.721925 336.324706 
L 236.379679 333.783529 
L 238.037433 332.512941 
L 243.010695 332.512941 
L 244.668449 331.242353 
L 246.326203 328.701176 
L 249.641711 328.701176 
L 251.299465 327.430588 
L 274.508021 327.430588 
L 276.165775 324.889412 
L 287.770053 315.995294 
L 304.347594 315.995294 
L 309.320856 312.183529 
L 312.636364 312.183529 
L 314.294118 309.642353 
L 317.609626 309.642353 
L 319.26738 308.371765 
L 324.240642 308.371765 
L 325.898396 307.101176 
L 327.55615 307.101176 
L 329.213904 305.830588 
L 330.871658 305.830588 
L 334.187166 303.289412 
L 355.737968 303.289412 
L 359.053476 300.748235 
L 372.315508 300.748235 
L 373.973262 299.477647 
L 378.946524 299.477647 
L 382.262032 296.936471 
L 387.235294 296.936471 
L 388.893048 295.665882 
L 392.208556 295.665882 
L 393.86631 294.395294 
L 402.15508 294.395294 
L 403.812834 293.124706 
L 405.470588 293.124706 
L 407.128342 290.583529 
L 408.786096 290.583529 
L 410.44385 289.312941 
L 418.73262 289.312941 
L 420.390374 288.042353 
L 423.705882 288.042353 
L 425.363636 286.771765 
L 427.02139 286.771765 
L 430.336898 284.230588 
L 441.941176 284.230588 
L 443.59893 282.96 
L 445.256684 282.96 
L 446.914439 281.689412 
L 455.203209 281.689412 
L 456.860963 279.148235 
L 458.518717 277.877647 
L 466.807487 277.877647 
L 468.465241 276.607059 
L 475.096257 276.607059 
L 476.754011 274.065882 
L 483.385027 274.065882 
L 486.700535 271.524706 
L 491.673797 271.524706 
L 493.331551 270.254118 
L 513.224599 270.254118 
L 514.882353 267.712941 
L 516.540107 266.442353 
L 529.802139 266.442353 
L 531.459893 265.171765 
L 561.299465 265.171765 
L 562.957219 263.901176 
L 566.272727 263.901176 
L 567.930481 262.630588 
L 572.903743 262.630588 
L 574.561497 261.36 
L 596.112299 261.36 
L 597.770053 258.818824 
L 601.085561 258.818824 
L 602.743316 257.548235 
L 604.40107 257.548235 
L 606.058824 256.277647 
L 612.68984 256.277647 
L 614.347594 255.007059 
L 622.636364 255.007059 
L 622.636364 255.007059 
" clip-path="url(#pa6547fb604)" style="fill: none; stroke: #1f77b4; stroke-width: 1.5; stroke-linecap: square"/>
   </g>
   <g id="line2d_34">
    <path d="M 115.363636 322.348235 
L 126.967914 322.348235 
L 128.625668 321.077647 
L 133.59893 321.077647 
L 135.256684 319.807059 
L 141.887701 319.807059 
L 143.545455 318.536471 
L 148.518717 318.536471 
L 150.176471 317.265882 
L 151.834225 317.265882 
L 153.491979 315.995294 
L 158.465241 315.995294 
L 160.122995 314.724706 
L 163.438503 314.724706 
L 165.096257 313.454118 
L 166.754011 313.454118 
L 170.069519 310.912941 
L 180.016043 310.912941 
L 181.673797 309.642353 
L 183.331551 309.642353 
L 184.989305 308.371765 
L 186.647059 308.371765 
L 188.304813 305.830588 
L 189.962567 302.018824 
L 191.620321 300.748235 
L 198.251337 300.748235 
L 203.224599 296.936471 
L 208.197861 296.936471 
L 211.513369 294.395294 
L 229.748663 294.395294 
L 231.406417 290.583529 
L 233.064171 290.583529 
L 236.379679 285.501176 
L 239.695187 282.96 
L 241.352941 282.96 
L 243.010695 280.418824 
L 256.272727 280.418824 
L 257.930481 277.877647 
L 262.903743 277.877647 
L 264.561497 276.607059 
L 276.165775 276.607059 
L 277.823529 275.336471 
L 297.716578 275.336471 
L 299.374332 274.065882 
L 301.032086 274.065882 
L 302.68984 272.795294 
L 307.663102 272.795294 
L 309.320856 271.524706 
L 329.213904 271.524706 
L 330.871658 270.254118 
L 334.187166 270.254118 
L 337.502674 265.171765 
L 340.818182 265.171765 
L 344.13369 262.630588 
L 347.449198 262.630588 
L 349.106952 261.36 
L 354.080214 261.36 
L 355.737968 260.089412 
L 375.631016 260.089412 
L 377.28877 258.818824 
L 402.15508 258.818824 
L 403.812834 257.548235 
L 418.73262 257.548235 
L 420.390374 256.277647 
L 423.705882 256.277647 
L 425.363636 255.007059 
L 430.336898 255.007059 
L 433.652406 252.465882 
L 435.31016 252.465882 
L 436.967914 251.195294 
L 443.59893 251.195294 
L 446.914439 248.654118 
L 455.203209 248.654118 
L 456.860963 247.383529 
L 461.834225 247.383529 
L 463.491979 246.112941 
L 471.780749 246.112941 
L 473.438503 244.842353 
L 481.727273 244.842353 
L 483.385027 243.571765 
L 513.224599 243.571765 
L 514.882353 242.301176 
L 516.540107 242.301176 
L 518.197861 241.030588 
L 534.775401 241.030588 
L 536.433155 238.489412 
L 538.090909 238.489412 
L 539.748663 237.218824 
L 556.326203 237.218824 
L 557.983957 235.948235 
L 564.614973 235.948235 
L 566.272727 234.677647 
L 567.930481 234.677647 
L 569.588235 233.407059 
L 584.508021 233.407059 
L 586.165775 232.136471 
L 619.320856 232.136471 
L 620.97861 228.324706 
L 622.636364 228.324706 
L 622.636364 228.324706 
" clip-path="url(#pa6547fb604)" style="fill: none; stroke: #ff7f0e; stroke-width: 1.5; stroke-linecap: square"/>
   </g>
   <g id="patch_3">
    <path d="M 90 384.48 
L 90 51.84 
" style="fill: none; stroke: #000000; stroke-width: 0.8; stroke-linejoin: miter; stroke-linecap: square"/>
   </g>
   <g id="patch_4">
    <path d="M 648 384.48 
L 648 51.84 
" style="fill: none; stroke: #000000; stroke-width: 0.8; stroke-linejoin: miter; stroke-linecap: square"/>
   </g>
   <g id="patch_5">
    <path d="M 90 384.48 
L 648 384.48 
" style="fill: none; stroke: #000000; stroke-width: 0.8; stroke-linejoin: miter; stroke-linecap: square"/>
   </g>
   <g id="patch_6">
    <path d="M 90 51.84 
L 648 51.84 
" style="fill: none; stroke: #000000; stroke-width: 0.8; stroke-linejoin: miter; stroke-linecap: square"/>
   </g>
   <g id="text_14">
    <!-- Time Series of Votes for Each Keyword -->
    <g transform="translate(253.716563 45.84) scale(0.12 -0.12)">
     <defs>
      <path id="DejaVuSans-53" d="M 3425 4513 
L 3425 3897 
Q 3066 4069 2747 4153 
Q 2428 4238 2131 4238 
Q 1616 4238 1336 4038 
Q 1056 3838 1056 3469 
Q 1056 3159 1242 3001 
Q 1428 2844 1947 2747 
L 2328 2669 
Q 3034 2534 3370 2195 
Q 3706 1856 3706 1288 
Q 3706 609 3251 259 
Q 2797 -91 1919 -91 
Q 1588 -91 1214 -16 
Q 841 59 441 206 
L 441 856 
Q 825 641 1194 531 
Q 1563 422 1919 422 
Q 2459 422 2753 634 
Q 3047 847 3047 1241 
Q 3047 1584 2836 1778 
Q 2625 1972 2144 2069 
L 1759 2144 
Q 1053 2284 737 2584 
Q 422 2884 422 3419 
Q 422 4038 858 4394 
Q 1294 4750 2059 4750 
Q 2388 4750 2728 4690 
Q 3069 4631 3425 4513 
z
" transform="scale(0.015625)"/>
      <path id="DejaVuSans-72" d="M 2631 2963 
Q 2534 3019 2420 3045 
Q 2306 3072 2169 3072 
Q 1681 3072 1420 2755 
Q 1159 2438 1159 1844 
L 1159 0 
L 581 0 
L 581 3500 
L 1159 3500 
L 1159 2956 
Q 1341 3275 1631 3429 
Q 1922 3584 2338 3584 
Q 2397 3584 2469 3576 
Q 2541 3569 2628 3553 
L 2631 2963 
z
" transform="scale(0.015625)"/>
      <path id="DejaVuSans-66" d="M 2375 4863 
L 2375 4384 
L 1825 4384 
Q 1516 4384 1395 4259 
Q 1275 4134 1275 3809 
L 1275 3500 
L 2222 3500 
L 2222 3053 
L 1275 3053 
L 1275 0 
L 697 0 
L 697 3053 
L 147 3053 
L 147 3500 
L 697 3500 
L 697 3744 
Q 697 4328 969 4595 
Q 1241 4863 1831 4863 
L 2375 4863 
z
" transform="scale(0.015625)"/>
      <path id="DejaVuSans-45" d="M 628 4666 
L 3578 4666 
L 3578 4134 
L 1259 4134 
L 1259 2753 
L 3481 2753 
L 3481 2222 
L 1259 2222 
L 1259 531 
L 3634 531 
L 3634 0 
L 628 0 
L 628 4666 
z
" transform="scale(0.015625)"/>
      <path id="DejaVuSans-63" d="M 3122 3366 
L 3122 2828 
Q 2878 2963 2633 3030 
Q 2388 3097 2138 3097 
Q 1578 3097 1268 2742 
Q 959 2388 959 1747 
Q 959 1106 1268 751 
Q 1578 397 2138 397 
Q 2388 397 2633 464 
Q 2878 531 3122 666 
L 3122 134 
Q 2881 22 2623 -34 
Q 2366 -91 2075 -91 
Q 1284 -91 818 406 
Q 353 903 353 1747 
Q 353 2603 823 3093 
Q 1294 3584 2113 3584 
Q 2378 3584 2631 3529 
Q 2884 3475 3122 3366 
z
" transform="scale(0.015625)"/>
      <path id="DejaVuSans-68" d="M 3513 2113 
L 3513 0 
L 2938 0 
L 2938 2094 
Q 2938 2591 2744 2837 
Q 2550 3084 2163 3084 
Q 1697 3084 1428 2787 
Q 1159 2491 1159 1978 
L 1159 0 
L 581 0 
L 581 4863 
L 1159 4863 
L 1159 2956 
Q 1366 3272 1645 3428 
Q 1925 3584 2291 3584 
Q 2894 3584 3203 3211 
Q 3513 2838 3513 2113 
z
" transform="scale(0.015625)"/>
      <path id="DejaVuSans-4b" d="M 628 4666 
L 1259 4666 
L 1259 2694 
L 3353 4666 
L 4166 4666 
L 1850 2491 
L 4331 0 
L 3500 0 
L 1259 2247 
L 1259 0 
L 628 0 
L 628 4666 
z
" transform="scale(0.015625)"/>
      <path id="DejaVuSans-79" d="M 2059 -325 
Q 1816 -950 1584 -1140 
Q 1353 -1331 966 -1331 
L 506 -1331 
L 506 -850 
L 844 -850 
Q 1081 -850 1212 -737 
Q 1344 -625 1503 -206 
L 1606 56 
L 191 3500 
L 800 3500 
L 1894 763 
L 2988 3500 
L 3597 3500 
L 2059 -325 
z
" transform="scale(0.015625)"/>
      <path id="DejaVuSans-77" d="M 269 3500 
L 844 3500 
L 1563 769 
L 2278 3500 
L 2956 3500 
L 3675 769 
L 4391 3500 
L 4966 3500 
L 4050 0 
L 3372 0 
L 2619 2869 
L 1863 0 
L 1184 0 
L 269 3500 
z
" transform="scale(0.015625)"/>
     </defs>
     <use xlink:href="#DejaVuSans-54"/>
     <use xlink:href="#DejaVuSans-69" transform="translate(57.958984 0)"/>
     <use xlink:href="#DejaVuSans-6d" transform="translate(85.742188 0)"/>
     <use xlink:href="#DejaVuSans-65" transform="translate(183.154297 0)"/>
     <use xlink:href="#DejaVuSans-20" transform="translate(244.677734 0)"/>
     <use xlink:href="#DejaVuSans-53" transform="translate(276.464844 0)"/>
     <use xlink:href="#DejaVuSans-65" transform="translate(339.941406 0)"/>
     <use xlink:href="#DejaVuSans-72" transform="translate(401.464844 0)"/>
     <use xlink:href="#DejaVuSans-69" transform="translate(442.578125 0)"/>
     <use xlink:href="#DejaVuSans-65" transform="translate(470.361328 0)"/>
     <use xlink:href="#DejaVuSans-73" transform="translate(531.884766 0)"/>
     <use xlink:href="#DejaVuSans-20" transform="translate(583.984375 0)"/>
     <use xlink:href="#DejaVuSans-6f" transform="translate(615.771484 0)"/>
     <use xlink:href="#DejaVuSans-66" transform="translate(676.953125 0)"/>
     <use xlink:href="#DejaVuSans-20" transform="translate(712.158203 0)"/>
     <use xlink:href="#DejaVuSans-56" transform="translate(743.945312 0)"/>
     <use xlink:href="#DejaVuSans-6f" transform="translate(804.603516 0)"/>
     <use xlink:href="#DejaVuSans-74" transform="translate(865.785156 0)"/>
     <use xlink:href="#DejaVuSans-65" transform="translate(904.994141 0)"/>
     <use xlink:href="#DejaVuSans-73" transform="translate(966.517578 0)"/>
     <use xlink:href="#DejaVuSans-20" transform="translate(1018.617188 0)"/>
     <use xlink:href="#DejaVuSans-66" transform="translate(1050.404297 0)"/>
     <use xlink:href="#DejaVuSans-6f" transform="translate(1085.609375 0)"/>
     <use xlink:href="#DejaVuSans-72" transform="translate(1146.791016 0)"/>
     <use xlink:href="#DejaVuSans-20" transform="translate(1187.904297 0)"/>
     <use xlink:href="#DejaVuSans-45" transform="translate(1219.691406 0)"/>
     <use xlink:href="#DejaVuSans-61" transform="translate(1282.875 0)"/>
     <use xlink:href="#DejaVuSans-63" transform="translate(1344.154297 0)"/>
     <use xlink:href="#DejaVuSans-68" transform="translate(1399.134766 0)"/>
     <use xlink:href="#DejaVuSans-20" transform="translate(1462.513672 0)"/>
     <use xlink:href="#DejaVuSans-4b" transform="translate(1494.300781 0)"/>
     <use xlink:href="#DejaVuSans-65" transform="translate(1554.876953 0)"/>
     <use xlink:href="#DejaVuSans-79" transform="translate(1616.400391 0)"/>
     <use xlink:href="#DejaVuSans-77" transform="translate(1675.580078 0)"/>
     <use xlink:href="#DejaVuSans-6f" transform="translate(1757.367188 0)"/>
     <use xlink:href="#DejaVuSans-72" transform="translate(1818.548828 0)"/>
     <use xlink:href="#DejaVuSans-64" transform="translate(1857.912109 0)"/>
    </g>
   </g>
   <g id="legend_1">
    <g id="patch_7">
     <path d="M 97 235.9775 
L 149.245313 235.9775 
Q 151.245313 235.9775 151.245313 233.9775 
L 151.245313 58.84 
Q 151.245313 56.84 149.245313 56.84 
L 97 56.84 
Q 95 56.84 95 58.84 
L 95 233.9775 
Q 95 235.9775 97 235.9775 
z
" style="fill: #ffffff; opacity: 0.8; stroke: #cccccc; stroke-linejoin: miter"/>
    </g>
    <g id="line2d_35">
     <path d="M 99 64.938437 
L 109 64.938437 
L 119 64.938437 
" style="fill: none; stroke: #1f77b4; stroke-width: 1.5; stroke-linecap: square"/>
    </g>
    <g id="text_15">
     <!-- H01 -->
     <g transform="translate(127 68.438437) scale(0.1 -0.1)">
      <defs>
       <path id="DejaVuSans-48" d="M 628 4666 
L 1259 4666 
L 1259 2753 
L 3553 2753 
L 3553 4666 
L 4184 4666 
L 4184 0 
L 3553 0 
L 3553 2222 
L 1259 2222 
L 1259 0 
L 628 0 
L 628 4666 
z
" transform="scale(0.015625)"/>
      </defs>
      <use xlink:href="#DejaVuSans-48"/>
      <use xlink:href="#DejaVuSans-30" transform="translate(75.195312 0)"/>
      <use xlink:href="#DejaVuSans-31" transform="translate(138.818359 0)"/>
     </g>
    </g>
    <g id="line2d_36">
     <path d="M 99 79.616562 
L 109 79.616562 
L 119 79.616562 
" style="fill: none; stroke: #ff7f0e; stroke-width: 1.5; stroke-linecap: square"/>
    </g>
    <g id="text_16">
     <!-- H02 -->
     <g transform="translate(127 83.116562) scale(0.1 -0.1)">
      <use xlink:href="#DejaVuSans-48"/>
      <use xlink:href="#DejaVuSans-30" transform="translate(75.195312 0)"/>
      <use xlink:href="#DejaVuSans-32" transform="translate(138.818359 0)"/>
     </g>
    </g>
    <g id="line2d_37">
     <path d="M 99 94.294688 
L 109 94.294688 
L 119 94.294688 
" style="fill: none; stroke: #2ca02c; stroke-width: 1.5; stroke-linecap: square"/>
    </g>
    <g id="text_17">
     <!-- H03 -->
     <g transform="translate(127 97.794688) scale(0.1 -0.1)">
      <defs>
       <path id="DejaVuSans-33" d="M 2597 2516 
Q 3050 2419 3304 2112 
Q 3559 1806 3559 1356 
Q 3559 666 3084 287 
Q 2609 -91 1734 -91 
Q 1441 -91 1130 -33 
Q 819 25 488 141 
L 488 750 
Q 750 597 1062 519 
Q 1375 441 1716 441 
Q 2309 441 2620 675 
Q 2931 909 2931 1356 
Q 2931 1769 2642 2001 
Q 2353 2234 1838 2234 
L 1294 2234 
L 1294 2753 
L 1863 2753 
Q 2328 2753 2575 2939 
Q 2822 3125 2822 3475 
Q 2822 3834 2567 4026 
Q 2313 4219 1838 4219 
Q 1578 4219 1281 4162 
Q 984 4106 628 3988 
L 628 4550 
Q 988 4650 1302 4700 
Q 1616 4750 1894 4750 
Q 2613 4750 3031 4423 
Q 3450 4097 3450 3541 
Q 3450 3153 3228 2886 
Q 3006 2619 2597 2516 
z
" transform="scale(0.015625)"/>
      </defs>
      <use xlink:href="#DejaVuSans-48"/>
      <use xlink:href="#DejaVuSans-30" transform="translate(75.195312 0)"/>
      <use xlink:href="#DejaVuSans-33" transform="translate(138.818359 0)"/>
     </g>
    </g>
    <g id="line2d_38">
     <path d="M 99 108.972812 
L 109 108.972812 
L 119 108.972812 
" style="fill: none; stroke: #d62728; stroke-width: 1.5; stroke-linecap: square"/>
    </g>
    <g id="text_18">
     <!-- H04 -->
     <g transform="translate(127 112.472812) scale(0.1 -0.1)">
      <use xlink:href="#DejaVuSans-48"/>
      <use xlink:href="#DejaVuSans-30" transform="translate(75.195312 0)"/>
      <use xlink:href="#DejaVuSans-34" transform="translate(138.818359 0)"/>
     </g>
    </g>
    <g id="line2d_39">
     <path d="M 99 123.650937 
L 109 123.650937 
L 119 123.650937 
" style="fill: none; stroke: #9467bd; stroke-width: 1.5; stroke-linecap: square"/>
    </g>
    <g id="text_19">
     <!-- H05 -->
     <g transform="translate(127 127.150937) scale(0.1 -0.1)">
      <use xlink:href="#DejaVuSans-48"/>
      <use xlink:href="#DejaVuSans-30" transform="translate(75.195312 0)"/>
      <use xlink:href="#DejaVuSans-35" transform="translate(138.818359 0)"/>
     </g>
    </g>
    <g id="line2d_40">
     <path d="M 99 138.329062 
L 109 138.329062 
L 119 138.329062 
" style="fill: none; stroke: #8c564b; stroke-width: 1.5; stroke-linecap: square"/>
    </g>
    <g id="text_20">
     <!-- H06 -->
     <g transform="translate(127 141.829062) scale(0.1 -0.1)">
      <use xlink:href="#DejaVuSans-48"/>
      <use xlink:href="#DejaVuSans-30" transform="translate(75.195312 0)"/>
      <use xlink:href="#DejaVuSans-36" transform="translate(138.818359 0)"/>
     </g>
    </g>
    <g id="line2d_41">
     <path d="M 99 153.007187 
L 109 153.007187 
L 119 153.007187 
" style="fill: none; stroke: #e377c2; stroke-width: 1.5; stroke-linecap: square"/>
    </g>
    <g id="text_21">
     <!-- H07 -->
     <g transform="translate(127 156.507187) scale(0.1 -0.1)">
      <use xlink:href="#DejaVuSans-48"/>
      <use xlink:href="#DejaVuSans-30" transform="translate(75.195312 0)"/>
      <use xlink:href="#DejaVuSans-37" transform="translate(138.818359 0)"/>
     </g>
    </g>
    <g id="line2d_42">
     <path d="M 99 167.685312 
L 109 167.685312 
L 119 167.685312 
" style="fill: none; stroke: #7f7f7f; stroke-width: 1.5; stroke-linecap: square"/>
    </g>
    <g id="text_22">
     <!-- H08 -->
     <g transform="translate(127 171.185312) scale(0.1 -0.1)">
      <use xlink:href="#DejaVuSans-48"/>
      <use xlink:href="#DejaVuSans-30" transform="translate(75.195312 0)"/>
      <use xlink:href="#DejaVuSans-38" transform="translate(138.818359 0)"/>
     </g>
    </g>
    <g id="line2d_43">
     <path d="M 99 182.363437 
L 109 182.363437 
L 119 182.363437 
" style="fill: none; stroke: #bcbd22; stroke-width: 1.5; stroke-linecap: square"/>
    </g>
    <g id="text_23">
     <!-- H09 -->
     <g transform="translate(127 185.863437) scale(0.1 -0.1)">
      <defs>
       <path id="DejaVuSans-39" d="M 703 97 
L 703 672 
Q 941 559 1184 500 
Q 1428 441 1663 441 
Q 2288 441 2617 861 
Q 2947 1281 2994 2138 
Q 2813 1869 2534 1725 
Q 2256 1581 1919 1581 
Q 1219 1581 811 2004 
Q 403 2428 403 3163 
Q 403 3881 828 4315 
Q 1253 4750 1959 4750 
Q 2769 4750 3195 4129 
Q 3622 3509 3622 2328 
Q 3622 1225 3098 567 
Q 2575 -91 1691 -91 
Q 1453 -91 1209 -44 
Q 966 3 703 97 
z
M 1959 2075 
Q 2384 2075 2632 2365 
Q 2881 2656 2881 3163 
Q 2881 3666 2632 3958 
Q 2384 4250 1959 4250 
Q 1534 4250 1286 3958 
Q 1038 3666 1038 3163 
Q 1038 2656 1286 2365 
Q 1534 2075 1959 2075 
z
" transform="scale(0.015625)"/>
      </defs>
      <use xlink:href="#DejaVuSans-48"/>
      <use xlink:href="#DejaVuSans-30" transform="translate(75.195312 0)"/>
      <use xlink:href="#DejaVuSans-39" transform="translate(138.818359 0)"/>
     </g>
    </g>
    <g id="line2d_44">
     <path d="M 99 197.041562 
L 109 197.041562 
L 119 197.041562 
" style="fill: none; stroke: #17becf; stroke-width: 1.5; stroke-linecap: square"/>
    </g>
    <g id="text_24">
     <!-- H10 -->
     <g transform="translate(127 200.541562) scale(0.1 -0.1)">
      <use xlink:href="#DejaVuSans-48"/>
      <use xlink:href="#DejaVuSans-31" transform="translate(75.195312 0)"/>
      <use xlink:href="#DejaVuSans-30" transform="translate(138.818359 0)"/>
     </g>
    </g>
    <g id="line2d_45">
     <path d="M 99 211.719687 
L 109 211.719687 
L 119 211.719687 
" style="fill: none; stroke: #1f77b4; stroke-width: 1.5; stroke-linecap: square"/>
    </g>
    <g id="text_25">
     <!-- H11 -->
     <g transform="translate(127 215.219687) scale(0.1 -0.1)">
      <use xlink:href="#DejaVuSans-48"/>
      <use xlink:href="#DejaVuSans-31" transform="translate(75.195312 0)"/>
      <use xlink:href="#DejaVuSans-31" transform="translate(138.818359 0)"/>
     </g>
    </g>
    <g id="line2d_46">
     <path d="M 99 226.397812 
L 109 226.397812 
L 119 226.397812 
" style="fill: none; stroke: #ff7f0e; stroke-width: 1.5; stroke-linecap: square"/>
    </g>
    <g id="text_26">
     <!-- H12 -->
     <g transform="translate(127 229.897812) scale(0.1 -0.1)">
      <use xlink:href="#DejaVuSans-48"/>
      <use xlink:href="#DejaVuSans-31" transform="translate(75.195312 0)"/>
      <use xlink:href="#DejaVuSans-32" transform="translate(138.818359 0)"/>
     </g>
    </g>
   </g>
  </g>
 </g>
 <defs>
  <clipPath id="pa6547fb604">
   <rect x="90" y="51.84" width="558" height="332.64"/>
  </clipPath>
 </defs>
</svg>
