<?xml version="1.0" encoding="utf-8" standalone="no"?>
<!DOCTYPE svg PUBLIC "-//W3C//DTD SVG 1.1//EN"
  "http://www.w3.org/Graphics/SVG/1.1/DTD/svg11.dtd">
<svg xmlns:xlink="http://www.w3.org/1999/xlink" width="720pt" height="432pt" viewBox="0 0 720 432" xmlns="http://www.w3.org/2000/svg" version="1.1">
 <metadata>
  <rdf:RDF xmlns:dc="http://purl.org/dc/elements/1.1/" xmlns:cc="http://creativecommons.org/ns#" xmlns:rdf="http://www.w3.org/1999/02/22-rdf-syntax-ns#">
   <cc:Work>
    <dc:type rdf:resource="http://purl.org/dc/dcmitype/StillImage"/>
    <dc:date>2025-01-15T11:48:44.560230</dc:date>
    <dc:format>image/svg+xml</dc:format>
    <dc:creator>
     <cc:Agent>
      <dc:title>Matplotlib v3.10.0, https://matplotlib.org/</dc:title>
     </cc:Agent>
    </dc:creator>
   </cc:Work>
  </rdf:RDF>
 </metadata>
 <defs>
  <style type="text/css">*{stroke-linejoin: round; stroke-linecap: butt}</style>
 </defs>
 <g id="figure_1">
  <g id="patch_1">
   <path d="M 0 432 
L 720 432 
L 720 0 
L 0 0 
z
" style="fill: #ffffff"/>
  </g>
  <g id="axes_1">
   <g id="patch_2">
    <path d="M 90 384.48 
L 648 384.48 
L 648 51.84 
L 90 51.84 
z
" style="fill: #ffffff"/>
   </g>
   <g id="matplotlib.axis_1">
    <g id="xtick_1">
     <g id="line2d_1">
      <path d="M 133.643735 384.48 
L 133.643735 51.84 
" clip-path="url(#p59f98bc579)" style="fill: none; stroke: #b0b0b0; stroke-width: 0.8; stroke-linecap: square"/>
     </g>
     <g id="line2d_2">
      <defs>
       <path id="m03908aa890" d="M 0 0 
L 0 3.5 
" style="stroke: #000000; stroke-width: 0.8"/>
      </defs>
      <g>
       <use xlink:href="#m03908aa890" x="133.643735" y="384.48" style="stroke: #000000; stroke-width: 0.8"/>
      </g>
     </g>
     <g id="text_1">
      <!-- 15 10:00 -->
      <g transform="translate(111.282797 399.078438) scale(0.1 -0.1)">
       <defs>
        <path id="DejaVuSans-31" d="M 794 531 
L 1825 531 
L 1825 4091 
L 703 3866 
L 703 4441 
L 1819 4666 
L 2450 4666 
L 2450 531 
L 3481 531 
L 3481 0 
L 794 0 
L 794 531 
z
" transform="scale(0.015625)"/>
        <path id="DejaVuSans-35" d="M 691 4666 
L 3169 4666 
L 3169 4134 
L 1269 4134 
L 1269 2991 
Q 1406 3038 1543 3061 
Q 1681 3084 1819 3084 
Q 2600 3084 3056 2656 
Q 3513 2228 3513 1497 
Q 3513 744 3044 326 
Q 2575 -91 1722 -91 
Q 1428 -91 1123 -41 
Q 819 9 494 109 
L 494 744 
Q 775 591 1075 516 
Q 1375 441 1709 441 
Q 2250 441 2565 725 
Q 2881 1009 2881 1497 
Q 2881 1984 2565 2268 
Q 2250 2553 1709 2553 
Q 1456 2553 1204 2497 
Q 953 2441 691 2322 
L 691 4666 
z
" transform="scale(0.015625)"/>
        <path id="DejaVuSans-20" transform="scale(0.015625)"/>
        <path id="DejaVuSans-30" d="M 2034 4250 
Q 1547 4250 1301 3770 
Q 1056 3291 1056 2328 
Q 1056 1369 1301 889 
Q 1547 409 2034 409 
Q 2525 409 2770 889 
Q 3016 1369 3016 2328 
Q 3016 3291 2770 3770 
Q 2525 4250 2034 4250 
z
M 2034 4750 
Q 2819 4750 3233 4129 
Q 3647 3509 3647 2328 
Q 3647 1150 3233 529 
Q 2819 -91 2034 -91 
Q 1250 -91 836 529 
Q 422 1150 422 2328 
Q 422 3509 836 4129 
Q 1250 4750 2034 4750 
z
" transform="scale(0.015625)"/>
        <path id="DejaVuSans-3a" d="M 750 794 
L 1409 794 
L 1409 0 
L 750 0 
L 750 794 
z
M 750 3309 
L 1409 3309 
L 1409 2516 
L 750 2516 
L 750 3309 
z
" transform="scale(0.015625)"/>
       </defs>
       <use xlink:href="#DejaVuSans-31"/>
       <use xlink:href="#DejaVuSans-35" transform="translate(63.623047 0)"/>
       <use xlink:href="#DejaVuSans-20" transform="translate(127.246094 0)"/>
       <use xlink:href="#DejaVuSans-31" transform="translate(159.033203 0)"/>
       <use xlink:href="#DejaVuSans-30" transform="translate(222.65625 0)"/>
       <use xlink:href="#DejaVuSans-3a" transform="translate(286.279297 0)"/>
       <use xlink:href="#DejaVuSans-30" transform="translate(319.970703 0)"/>
       <use xlink:href="#DejaVuSans-30" transform="translate(383.59375 0)"/>
      </g>
     </g>
    </g>
    <g id="xtick_2">
     <g id="line2d_3">
      <path d="M 202.194103 384.48 
L 202.194103 51.84 
" clip-path="url(#p59f98bc579)" style="fill: none; stroke: #b0b0b0; stroke-width: 0.8; stroke-linecap: square"/>
     </g>
     <g id="line2d_4">
      <g>
       <use xlink:href="#m03908aa890" x="202.194103" y="384.48" style="stroke: #000000; stroke-width: 0.8"/>
      </g>
     </g>
     <g id="text_2">
      <!-- 15 10:15 -->
      <g transform="translate(179.833166 399.078438) scale(0.1 -0.1)">
       <use xlink:href="#DejaVuSans-31"/>
       <use xlink:href="#DejaVuSans-35" transform="translate(63.623047 0)"/>
       <use xlink:href="#DejaVuSans-20" transform="translate(127.246094 0)"/>
       <use xlink:href="#DejaVuSans-31" transform="translate(159.033203 0)"/>
       <use xlink:href="#DejaVuSans-30" transform="translate(222.65625 0)"/>
       <use xlink:href="#DejaVuSans-3a" transform="translate(286.279297 0)"/>
       <use xlink:href="#DejaVuSans-31" transform="translate(319.970703 0)"/>
       <use xlink:href="#DejaVuSans-35" transform="translate(383.59375 0)"/>
      </g>
     </g>
    </g>
    <g id="xtick_3">
     <g id="line2d_5">
      <path d="M 270.744472 384.48 
L 270.744472 51.84 
" clip-path="url(#p59f98bc579)" style="fill: none; stroke: #b0b0b0; stroke-width: 0.8; stroke-linecap: square"/>
     </g>
     <g id="line2d_6">
      <g>
       <use xlink:href="#m03908aa890" x="270.744472" y="384.48" style="stroke: #000000; stroke-width: 0.8"/>
      </g>
     </g>
     <g id="text_3">
      <!-- 15 10:30 -->
      <g transform="translate(248.383534 399.078438) scale(0.1 -0.1)">
       <defs>
        <path id="DejaVuSans-33" d="M 2597 2516 
Q 3050 2419 3304 2112 
Q 3559 1806 3559 1356 
Q 3559 666 3084 287 
Q 2609 -91 1734 -91 
Q 1441 -91 1130 -33 
Q 819 25 488 141 
L 488 750 
Q 750 597 1062 519 
Q 1375 441 1716 441 
Q 2309 441 2620 675 
Q 2931 909 2931 1356 
Q 2931 1769 2642 2001 
Q 2353 2234 1838 2234 
L 1294 2234 
L 1294 2753 
L 1863 2753 
Q 2328 2753 2575 2939 
Q 2822 3125 2822 3475 
Q 2822 3834 2567 4026 
Q 2313 4219 1838 4219 
Q 1578 4219 1281 4162 
Q 984 4106 628 3988 
L 628 4550 
Q 988 4650 1302 4700 
Q 1616 4750 1894 4750 
Q 2613 4750 3031 4423 
Q 3450 4097 3450 3541 
Q 3450 3153 3228 2886 
Q 3006 2619 2597 2516 
z
" transform="scale(0.015625)"/>
       </defs>
       <use xlink:href="#DejaVuSans-31"/>
       <use xlink:href="#DejaVuSans-35" transform="translate(63.623047 0)"/>
       <use xlink:href="#DejaVuSans-20" transform="translate(127.246094 0)"/>
       <use xlink:href="#DejaVuSans-31" transform="translate(159.033203 0)"/>
       <use xlink:href="#DejaVuSans-30" transform="translate(222.65625 0)"/>
       <use xlink:href="#DejaVuSans-3a" transform="translate(286.279297 0)"/>
       <use xlink:href="#DejaVuSans-33" transform="translate(319.970703 0)"/>
       <use xlink:href="#DejaVuSans-30" transform="translate(383.59375 0)"/>
      </g>
     </g>
    </g>
    <g id="xtick_4">
     <g id="line2d_7">
      <path d="M 339.29484 384.48 
L 339.29484 51.84 
" clip-path="url(#p59f98bc579)" style="fill: none; stroke: #b0b0b0; stroke-width: 0.8; stroke-linecap: square"/>
     </g>
     <g id="line2d_8">
      <g>
       <use xlink:href="#m03908aa890" x="339.29484" y="384.48" style="stroke: #000000; stroke-width: 0.8"/>
      </g>
     </g>
     <g id="text_4">
      <!-- 15 10:45 -->
      <g transform="translate(316.933903 399.078438) scale(0.1 -0.1)">
       <defs>
        <path id="DejaVuSans-34" d="M 2419 4116 
L 825 1625 
L 2419 1625 
L 2419 4116 
z
M 2253 4666 
L 3047 4666 
L 3047 1625 
L 3713 1625 
L 3713 1100 
L 3047 1100 
L 3047 0 
L 2419 0 
L 2419 1100 
L 313 1100 
L 313 1709 
L 2253 4666 
z
" transform="scale(0.015625)"/>
       </defs>
       <use xlink:href="#DejaVuSans-31"/>
       <use xlink:href="#DejaVuSans-35" transform="translate(63.623047 0)"/>
       <use xlink:href="#DejaVuSans-20" transform="translate(127.246094 0)"/>
       <use xlink:href="#DejaVuSans-31" transform="translate(159.033203 0)"/>
       <use xlink:href="#DejaVuSans-30" transform="translate(222.65625 0)"/>
       <use xlink:href="#DejaVuSans-3a" transform="translate(286.279297 0)"/>
       <use xlink:href="#DejaVuSans-34" transform="translate(319.970703 0)"/>
       <use xlink:href="#DejaVuSans-35" transform="translate(383.59375 0)"/>
      </g>
     </g>
    </g>
    <g id="xtick_5">
     <g id="line2d_9">
      <path d="M 407.845209 384.48 
L 407.845209 51.84 
" clip-path="url(#p59f98bc579)" style="fill: none; stroke: #b0b0b0; stroke-width: 0.8; stroke-linecap: square"/>
     </g>
     <g id="line2d_10">
      <g>
       <use xlink:href="#m03908aa890" x="407.845209" y="384.48" style="stroke: #000000; stroke-width: 0.8"/>
      </g>
     </g>
     <g id="text_5">
      <!-- 15 11:00 -->
      <g transform="translate(385.484271 399.078438) scale(0.1 -0.1)">
       <use xlink:href="#DejaVuSans-31"/>
       <use xlink:href="#DejaVuSans-35" transform="translate(63.623047 0)"/>
       <use xlink:href="#DejaVuSans-20" transform="translate(127.246094 0)"/>
       <use xlink:href="#DejaVuSans-31" transform="translate(159.033203 0)"/>
       <use xlink:href="#DejaVuSans-31" transform="translate(222.65625 0)"/>
       <use xlink:href="#DejaVuSans-3a" transform="translate(286.279297 0)"/>
       <use xlink:href="#DejaVuSans-30" transform="translate(319.970703 0)"/>
       <use xlink:href="#DejaVuSans-30" transform="translate(383.59375 0)"/>
      </g>
     </g>
    </g>
    <g id="xtick_6">
     <g id="line2d_11">
      <path d="M 476.395577 384.48 
L 476.395577 51.84 
" clip-path="url(#p59f98bc579)" style="fill: none; stroke: #b0b0b0; stroke-width: 0.8; stroke-linecap: square"/>
     </g>
     <g id="line2d_12">
      <g>
       <use xlink:href="#m03908aa890" x="476.395577" y="384.48" style="stroke: #000000; stroke-width: 0.8"/>
      </g>
     </g>
     <g id="text_6">
      <!-- 15 11:15 -->
      <g transform="translate(454.03464 399.078438) scale(0.1 -0.1)">
       <use xlink:href="#DejaVuSans-31"/>
       <use xlink:href="#DejaVuSans-35" transform="translate(63.623047 0)"/>
       <use xlink:href="#DejaVuSans-20" transform="translate(127.246094 0)"/>
       <use xlink:href="#DejaVuSans-31" transform="translate(159.033203 0)"/>
       <use xlink:href="#DejaVuSans-31" transform="translate(222.65625 0)"/>
       <use xlink:href="#DejaVuSans-3a" transform="translate(286.279297 0)"/>
       <use xlink:href="#DejaVuSans-31" transform="translate(319.970703 0)"/>
       <use xlink:href="#DejaVuSans-35" transform="translate(383.59375 0)"/>
      </g>
     </g>
    </g>
    <g id="xtick_7">
     <g id="line2d_13">
      <path d="M 544.945946 384.48 
L 544.945946 51.84 
" clip-path="url(#p59f98bc579)" style="fill: none; stroke: #b0b0b0; stroke-width: 0.8; stroke-linecap: square"/>
     </g>
     <g id="line2d_14">
      <g>
       <use xlink:href="#m03908aa890" x="544.945946" y="384.48" style="stroke: #000000; stroke-width: 0.8"/>
      </g>
     </g>
     <g id="text_7">
      <!-- 15 11:30 -->
      <g transform="translate(522.585008 399.078438) scale(0.1 -0.1)">
       <use xlink:href="#DejaVuSans-31"/>
       <use xlink:href="#DejaVuSans-35" transform="translate(63.623047 0)"/>
       <use xlink:href="#DejaVuSans-20" transform="translate(127.246094 0)"/>
       <use xlink:href="#DejaVuSans-31" transform="translate(159.033203 0)"/>
       <use xlink:href="#DejaVuSans-31" transform="translate(222.65625 0)"/>
       <use xlink:href="#DejaVuSans-3a" transform="translate(286.279297 0)"/>
       <use xlink:href="#DejaVuSans-33" transform="translate(319.970703 0)"/>
       <use xlink:href="#DejaVuSans-30" transform="translate(383.59375 0)"/>
      </g>
     </g>
    </g>
    <g id="xtick_8">
     <g id="line2d_15">
      <path d="M 613.496314 384.48 
L 613.496314 51.84 
" clip-path="url(#p59f98bc579)" style="fill: none; stroke: #b0b0b0; stroke-width: 0.8; stroke-linecap: square"/>
     </g>
     <g id="line2d_16">
      <g>
       <use xlink:href="#m03908aa890" x="613.496314" y="384.48" style="stroke: #000000; stroke-width: 0.8"/>
      </g>
     </g>
     <g id="text_8">
      <!-- 15 11:45 -->
      <g transform="translate(591.135377 399.078438) scale(0.1 -0.1)">
       <use xlink:href="#DejaVuSans-31"/>
       <use xlink:href="#DejaVuSans-35" transform="translate(63.623047 0)"/>
       <use xlink:href="#DejaVuSans-20" transform="translate(127.246094 0)"/>
       <use xlink:href="#DejaVuSans-31" transform="translate(159.033203 0)"/>
       <use xlink:href="#DejaVuSans-31" transform="translate(222.65625 0)"/>
       <use xlink:href="#DejaVuSans-3a" transform="translate(286.279297 0)"/>
       <use xlink:href="#DejaVuSans-34" transform="translate(319.970703 0)"/>
       <use xlink:href="#DejaVuSans-35" transform="translate(383.59375 0)"/>
      </g>
     </g>
    </g>
    <g id="text_9">
     <!-- Date and Time -->
     <g transform="translate(332.230469 412.756563) scale(0.1 -0.1)">
      <defs>
       <path id="DejaVuSans-44" d="M 1259 4147 
L 1259 519 
L 2022 519 
Q 2988 519 3436 956 
Q 3884 1394 3884 2338 
Q 3884 3275 3436 3711 
Q 2988 4147 2022 4147 
L 1259 4147 
z
M 628 4666 
L 1925 4666 
Q 3281 4666 3915 4102 
Q 4550 3538 4550 2338 
Q 4550 1131 3912 565 
Q 3275 0 1925 0 
L 628 0 
L 628 4666 
z
" transform="scale(0.015625)"/>
       <path id="DejaVuSans-61" d="M 2194 1759 
Q 1497 1759 1228 1600 
Q 959 1441 959 1056 
Q 959 750 1161 570 
Q 1363 391 1709 391 
Q 2188 391 2477 730 
Q 2766 1069 2766 1631 
L 2766 1759 
L 2194 1759 
z
M 3341 1997 
L 3341 0 
L 2766 0 
L 2766 531 
Q 2569 213 2275 61 
Q 1981 -91 1556 -91 
Q 1019 -91 701 211 
Q 384 513 384 1019 
Q 384 1609 779 1909 
Q 1175 2209 1959 2209 
L 2766 2209 
L 2766 2266 
Q 2766 2663 2505 2880 
Q 2244 3097 1772 3097 
Q 1472 3097 1187 3025 
Q 903 2953 641 2809 
L 641 3341 
Q 956 3463 1253 3523 
Q 1550 3584 1831 3584 
Q 2591 3584 2966 3190 
Q 3341 2797 3341 1997 
z
" transform="scale(0.015625)"/>
       <path id="DejaVuSans-74" d="M 1172 4494 
L 1172 3500 
L 2356 3500 
L 2356 3053 
L 1172 3053 
L 1172 1153 
Q 1172 725 1289 603 
Q 1406 481 1766 481 
L 2356 481 
L 2356 0 
L 1766 0 
Q 1100 0 847 248 
Q 594 497 594 1153 
L 594 3053 
L 172 3053 
L 172 3500 
L 594 3500 
L 594 4494 
L 1172 4494 
z
" transform="scale(0.015625)"/>
       <path id="DejaVuSans-65" d="M 3597 1894 
L 3597 1613 
L 953 1613 
Q 991 1019 1311 708 
Q 1631 397 2203 397 
Q 2534 397 2845 478 
Q 3156 559 3463 722 
L 3463 178 
Q 3153 47 2828 -22 
Q 2503 -91 2169 -91 
Q 1331 -91 842 396 
Q 353 884 353 1716 
Q 353 2575 817 3079 
Q 1281 3584 2069 3584 
Q 2775 3584 3186 3129 
Q 3597 2675 3597 1894 
z
M 3022 2063 
Q 3016 2534 2758 2815 
Q 2500 3097 2075 3097 
Q 1594 3097 1305 2825 
Q 1016 2553 972 2059 
L 3022 2063 
z
" transform="scale(0.015625)"/>
       <path id="DejaVuSans-6e" d="M 3513 2113 
L 3513 0 
L 2938 0 
L 2938 2094 
Q 2938 2591 2744 2837 
Q 2550 3084 2163 3084 
Q 1697 3084 1428 2787 
Q 1159 2491 1159 1978 
L 1159 0 
L 581 0 
L 581 3500 
L 1159 3500 
L 1159 2956 
Q 1366 3272 1645 3428 
Q 1925 3584 2291 3584 
Q 2894 3584 3203 3211 
Q 3513 2838 3513 2113 
z
" transform="scale(0.015625)"/>
       <path id="DejaVuSans-64" d="M 2906 2969 
L 2906 4863 
L 3481 4863 
L 3481 0 
L 2906 0 
L 2906 525 
Q 2725 213 2448 61 
Q 2172 -91 1784 -91 
Q 1150 -91 751 415 
Q 353 922 353 1747 
Q 353 2572 751 3078 
Q 1150 3584 1784 3584 
Q 2172 3584 2448 3432 
Q 2725 3281 2906 2969 
z
M 947 1747 
Q 947 1113 1208 752 
Q 1469 391 1925 391 
Q 2381 391 2643 752 
Q 2906 1113 2906 1747 
Q 2906 2381 2643 2742 
Q 2381 3103 1925 3103 
Q 1469 3103 1208 2742 
Q 947 2381 947 1747 
z
" transform="scale(0.015625)"/>
       <path id="DejaVuSans-54" d="M -19 4666 
L 3928 4666 
L 3928 4134 
L 2272 4134 
L 2272 0 
L 1638 0 
L 1638 4134 
L -19 4134 
L -19 4666 
z
" transform="scale(0.015625)"/>
       <path id="DejaVuSans-69" d="M 603 3500 
L 1178 3500 
L 1178 0 
L 603 0 
L 603 3500 
z
M 603 4863 
L 1178 4863 
L 1178 4134 
L 603 4134 
L 603 4863 
z
" transform="scale(0.015625)"/>
       <path id="DejaVuSans-6d" d="M 3328 2828 
Q 3544 3216 3844 3400 
Q 4144 3584 4550 3584 
Q 5097 3584 5394 3201 
Q 5691 2819 5691 2113 
L 5691 0 
L 5113 0 
L 5113 2094 
Q 5113 2597 4934 2840 
Q 4756 3084 4391 3084 
Q 3944 3084 3684 2787 
Q 3425 2491 3425 1978 
L 3425 0 
L 2847 0 
L 2847 2094 
Q 2847 2600 2669 2842 
Q 2491 3084 2119 3084 
Q 1678 3084 1418 2786 
Q 1159 2488 1159 1978 
L 1159 0 
L 581 0 
L 581 3500 
L 1159 3500 
L 1159 2956 
Q 1356 3278 1631 3431 
Q 1906 3584 2284 3584 
Q 2666 3584 2933 3390 
Q 3200 3197 3328 2828 
z
" transform="scale(0.015625)"/>
      </defs>
      <use xlink:href="#DejaVuSans-44"/>
      <use xlink:href="#DejaVuSans-61" transform="translate(77.001953 0)"/>
      <use xlink:href="#DejaVuSans-74" transform="translate(138.28125 0)"/>
      <use xlink:href="#DejaVuSans-65" transform="translate(177.490234 0)"/>
      <use xlink:href="#DejaVuSans-20" transform="translate(239.013672 0)"/>
      <use xlink:href="#DejaVuSans-61" transform="translate(270.800781 0)"/>
      <use xlink:href="#DejaVuSans-6e" transform="translate(332.080078 0)"/>
      <use xlink:href="#DejaVuSans-64" transform="translate(395.458984 0)"/>
      <use xlink:href="#DejaVuSans-20" transform="translate(458.935547 0)"/>
      <use xlink:href="#DejaVuSans-54" transform="translate(490.722656 0)"/>
      <use xlink:href="#DejaVuSans-69" transform="translate(548.681641 0)"/>
      <use xlink:href="#DejaVuSans-6d" transform="translate(576.464844 0)"/>
      <use xlink:href="#DejaVuSans-65" transform="translate(673.876953 0)"/>
     </g>
    </g>
   </g>
   <g id="matplotlib.axis_2">
    <g id="ytick_1">
     <g id="line2d_17">
      <path d="M 90 370.868229 
L 648 370.868229 
" clip-path="url(#p59f98bc579)" style="fill: none; stroke: #b0b0b0; stroke-width: 0.8; stroke-linecap: square"/>
     </g>
     <g id="line2d_18">
      <defs>
       <path id="m5ef82d809d" d="M 0 0 
L -3.5 0 
" style="stroke: #000000; stroke-width: 0.8"/>
      </defs>
      <g>
       <use xlink:href="#m5ef82d809d" x="90" y="370.868229" style="stroke: #000000; stroke-width: 0.8"/>
      </g>
     </g>
     <g id="text_10">
      <!-- 0 -->
      <g transform="translate(76.6375 374.667448) scale(0.1 -0.1)">
       <use xlink:href="#DejaVuSans-30"/>
      </g>
     </g>
    </g>
    <g id="ytick_2">
     <g id="line2d_19">
      <path d="M 90 333.162494 
L 648 333.162494 
" clip-path="url(#p59f98bc579)" style="fill: none; stroke: #b0b0b0; stroke-width: 0.8; stroke-linecap: square"/>
     </g>
     <g id="line2d_20">
      <g>
       <use xlink:href="#m5ef82d809d" x="90" y="333.162494" style="stroke: #000000; stroke-width: 0.8"/>
      </g>
     </g>
     <g id="text_11">
      <!-- 100 -->
      <g transform="translate(63.9125 336.961713) scale(0.1 -0.1)">
       <use xlink:href="#DejaVuSans-31"/>
       <use xlink:href="#DejaVuSans-30" transform="translate(63.623047 0)"/>
       <use xlink:href="#DejaVuSans-30" transform="translate(127.246094 0)"/>
      </g>
     </g>
    </g>
    <g id="ytick_3">
     <g id="line2d_21">
      <path d="M 90 295.456758 
L 648 295.456758 
" clip-path="url(#p59f98bc579)" style="fill: none; stroke: #b0b0b0; stroke-width: 0.8; stroke-linecap: square"/>
     </g>
     <g id="line2d_22">
      <g>
       <use xlink:href="#m5ef82d809d" x="90" y="295.456758" style="stroke: #000000; stroke-width: 0.8"/>
      </g>
     </g>
     <g id="text_12">
      <!-- 200 -->
      <g transform="translate(63.9125 299.255977) scale(0.1 -0.1)">
       <defs>
        <path id="DejaVuSans-32" d="M 1228 531 
L 3431 531 
L 3431 0 
L 469 0 
L 469 531 
Q 828 903 1448 1529 
Q 2069 2156 2228 2338 
Q 2531 2678 2651 2914 
Q 2772 3150 2772 3378 
Q 2772 3750 2511 3984 
Q 2250 4219 1831 4219 
Q 1534 4219 1204 4116 
Q 875 4013 500 3803 
L 500 4441 
Q 881 4594 1212 4672 
Q 1544 4750 1819 4750 
Q 2544 4750 2975 4387 
Q 3406 4025 3406 3419 
Q 3406 3131 3298 2873 
Q 3191 2616 2906 2266 
Q 2828 2175 2409 1742 
Q 1991 1309 1228 531 
z
" transform="scale(0.015625)"/>
       </defs>
       <use xlink:href="#DejaVuSans-32"/>
       <use xlink:href="#DejaVuSans-30" transform="translate(63.623047 0)"/>
       <use xlink:href="#DejaVuSans-30" transform="translate(127.246094 0)"/>
      </g>
     </g>
    </g>
    <g id="ytick_4">
     <g id="line2d_23">
      <path d="M 90 257.751022 
L 648 257.751022 
" clip-path="url(#p59f98bc579)" style="fill: none; stroke: #b0b0b0; stroke-width: 0.8; stroke-linecap: square"/>
     </g>
     <g id="line2d_24">
      <g>
       <use xlink:href="#m5ef82d809d" x="90" y="257.751022" style="stroke: #000000; stroke-width: 0.8"/>
      </g>
     </g>
     <g id="text_13">
      <!-- 300 -->
      <g transform="translate(63.9125 261.550241) scale(0.1 -0.1)">
       <use xlink:href="#DejaVuSans-33"/>
       <use xlink:href="#DejaVuSans-30" transform="translate(63.623047 0)"/>
       <use xlink:href="#DejaVuSans-30" transform="translate(127.246094 0)"/>
      </g>
     </g>
    </g>
    <g id="ytick_5">
     <g id="line2d_25">
      <path d="M 90 220.045287 
L 648 220.045287 
" clip-path="url(#p59f98bc579)" style="fill: none; stroke: #b0b0b0; stroke-width: 0.8; stroke-linecap: square"/>
     </g>
     <g id="line2d_26">
      <g>
       <use xlink:href="#m5ef82d809d" x="90" y="220.045287" style="stroke: #000000; stroke-width: 0.8"/>
      </g>
     </g>
     <g id="text_14">
      <!-- 400 -->
      <g transform="translate(63.9125 223.844506) scale(0.1 -0.1)">
       <use xlink:href="#DejaVuSans-34"/>
       <use xlink:href="#DejaVuSans-30" transform="translate(63.623047 0)"/>
       <use xlink:href="#DejaVuSans-30" transform="translate(127.246094 0)"/>
      </g>
     </g>
    </g>
    <g id="ytick_6">
     <g id="line2d_27">
      <path d="M 90 182.339551 
L 648 182.339551 
" clip-path="url(#p59f98bc579)" style="fill: none; stroke: #b0b0b0; stroke-width: 0.8; stroke-linecap: square"/>
     </g>
     <g id="line2d_28">
      <g>
       <use xlink:href="#m5ef82d809d" x="90" y="182.339551" style="stroke: #000000; stroke-width: 0.8"/>
      </g>
     </g>
     <g id="text_15">
      <!-- 500 -->
      <g transform="translate(63.9125 186.13877) scale(0.1 -0.1)">
       <use xlink:href="#DejaVuSans-35"/>
       <use xlink:href="#DejaVuSans-30" transform="translate(63.623047 0)"/>
       <use xlink:href="#DejaVuSans-30" transform="translate(127.246094 0)"/>
      </g>
     </g>
    </g>
    <g id="ytick_7">
     <g id="line2d_29">
      <path d="M 90 144.633815 
L 648 144.633815 
" clip-path="url(#p59f98bc579)" style="fill: none; stroke: #b0b0b0; stroke-width: 0.8; stroke-linecap: square"/>
     </g>
     <g id="line2d_30">
      <g>
       <use xlink:href="#m5ef82d809d" x="90" y="144.633815" style="stroke: #000000; stroke-width: 0.8"/>
      </g>
     </g>
     <g id="text_16">
      <!-- 600 -->
      <g transform="translate(63.9125 148.433034) scale(0.1 -0.1)">
       <defs>
        <path id="DejaVuSans-36" d="M 2113 2584 
Q 1688 2584 1439 2293 
Q 1191 2003 1191 1497 
Q 1191 994 1439 701 
Q 1688 409 2113 409 
Q 2538 409 2786 701 
Q 3034 994 3034 1497 
Q 3034 2003 2786 2293 
Q 2538 2584 2113 2584 
z
M 3366 4563 
L 3366 3988 
Q 3128 4100 2886 4159 
Q 2644 4219 2406 4219 
Q 1781 4219 1451 3797 
Q 1122 3375 1075 2522 
Q 1259 2794 1537 2939 
Q 1816 3084 2150 3084 
Q 2853 3084 3261 2657 
Q 3669 2231 3669 1497 
Q 3669 778 3244 343 
Q 2819 -91 2113 -91 
Q 1303 -91 875 529 
Q 447 1150 447 2328 
Q 447 3434 972 4092 
Q 1497 4750 2381 4750 
Q 2619 4750 2861 4703 
Q 3103 4656 3366 4563 
z
" transform="scale(0.015625)"/>
       </defs>
       <use xlink:href="#DejaVuSans-36"/>
       <use xlink:href="#DejaVuSans-30" transform="translate(63.623047 0)"/>
       <use xlink:href="#DejaVuSans-30" transform="translate(127.246094 0)"/>
      </g>
     </g>
    </g>
    <g id="ytick_8">
     <g id="line2d_31">
      <path d="M 90 106.92808 
L 648 106.92808 
" clip-path="url(#p59f98bc579)" style="fill: none; stroke: #b0b0b0; stroke-width: 0.8; stroke-linecap: square"/>
     </g>
     <g id="line2d_32">
      <g>
       <use xlink:href="#m5ef82d809d" x="90" y="106.92808" style="stroke: #000000; stroke-width: 0.8"/>
      </g>
     </g>
     <g id="text_17">
      <!-- 700 -->
      <g transform="translate(63.9125 110.727299) scale(0.1 -0.1)">
       <defs>
        <path id="DejaVuSans-37" d="M 525 4666 
L 3525 4666 
L 3525 4397 
L 1831 0 
L 1172 0 
L 2766 4134 
L 525 4134 
L 525 4666 
z
" transform="scale(0.015625)"/>
       </defs>
       <use xlink:href="#DejaVuSans-37"/>
       <use xlink:href="#DejaVuSans-30" transform="translate(63.623047 0)"/>
       <use xlink:href="#DejaVuSans-30" transform="translate(127.246094 0)"/>
      </g>
     </g>
    </g>
    <g id="ytick_9">
     <g id="line2d_33">
      <path d="M 90 69.222344 
L 648 69.222344 
" clip-path="url(#p59f98bc579)" style="fill: none; stroke: #b0b0b0; stroke-width: 0.8; stroke-linecap: square"/>
     </g>
     <g id="line2d_34">
      <g>
       <use xlink:href="#m5ef82d809d" x="90" y="69.222344" style="stroke: #000000; stroke-width: 0.8"/>
      </g>
     </g>
     <g id="text_18">
      <!-- 800 -->
      <g transform="translate(63.9125 73.021563) scale(0.1 -0.1)">
       <defs>
        <path id="DejaVuSans-38" d="M 2034 2216 
Q 1584 2216 1326 1975 
Q 1069 1734 1069 1313 
Q 1069 891 1326 650 
Q 1584 409 2034 409 
Q 2484 409 2743 651 
Q 3003 894 3003 1313 
Q 3003 1734 2745 1975 
Q 2488 2216 2034 2216 
z
M 1403 2484 
Q 997 2584 770 2862 
Q 544 3141 544 3541 
Q 544 4100 942 4425 
Q 1341 4750 2034 4750 
Q 2731 4750 3128 4425 
Q 3525 4100 3525 3541 
Q 3525 3141 3298 2862 
Q 3072 2584 2669 2484 
Q 3125 2378 3379 2068 
Q 3634 1759 3634 1313 
Q 3634 634 3220 271 
Q 2806 -91 2034 -91 
Q 1263 -91 848 271 
Q 434 634 434 1313 
Q 434 1759 690 2068 
Q 947 2378 1403 2484 
z
M 1172 3481 
Q 1172 3119 1398 2916 
Q 1625 2713 2034 2713 
Q 2441 2713 2670 2916 
Q 2900 3119 2900 3481 
Q 2900 3844 2670 4047 
Q 2441 4250 2034 4250 
Q 1625 4250 1398 4047 
Q 1172 3844 1172 3481 
z
" transform="scale(0.015625)"/>
       </defs>
       <use xlink:href="#DejaVuSans-38"/>
       <use xlink:href="#DejaVuSans-30" transform="translate(63.623047 0)"/>
       <use xlink:href="#DejaVuSans-30" transform="translate(127.246094 0)"/>
      </g>
     </g>
    </g>
    <g id="text_19">
     <!-- Votes -->
     <g transform="translate(57.832812 231.893594) rotate(-90) scale(0.1 -0.1)">
      <defs>
       <path id="DejaVuSans-56" d="M 1831 0 
L 50 4666 
L 709 4666 
L 2188 738 
L 3669 4666 
L 4325 4666 
L 2547 0 
L 1831 0 
z
" transform="scale(0.015625)"/>
       <path id="DejaVuSans-6f" d="M 1959 3097 
Q 1497 3097 1228 2736 
Q 959 2375 959 1747 
Q 959 1119 1226 758 
Q 1494 397 1959 397 
Q 2419 397 2687 759 
Q 2956 1122 2956 1747 
Q 2956 2369 2687 2733 
Q 2419 3097 1959 3097 
z
M 1959 3584 
Q 2709 3584 3137 3096 
Q 3566 2609 3566 1747 
Q 3566 888 3137 398 
Q 2709 -91 1959 -91 
Q 1206 -91 779 398 
Q 353 888 353 1747 
Q 353 2609 779 3096 
Q 1206 3584 1959 3584 
z
" transform="scale(0.015625)"/>
       <path id="DejaVuSans-73" d="M 2834 3397 
L 2834 2853 
Q 2591 2978 2328 3040 
Q 2066 3103 1784 3103 
Q 1356 3103 1142 2972 
Q 928 2841 928 2578 
Q 928 2378 1081 2264 
Q 1234 2150 1697 2047 
L 1894 2003 
Q 2506 1872 2764 1633 
Q 3022 1394 3022 966 
Q 3022 478 2636 193 
Q 2250 -91 1575 -91 
Q 1294 -91 989 -36 
Q 684 19 347 128 
L 347 722 
Q 666 556 975 473 
Q 1284 391 1588 391 
Q 1994 391 2212 530 
Q 2431 669 2431 922 
Q 2431 1156 2273 1281 
Q 2116 1406 1581 1522 
L 1381 1569 
Q 847 1681 609 1914 
Q 372 2147 372 2553 
Q 372 3047 722 3315 
Q 1072 3584 1716 3584 
Q 2034 3584 2315 3537 
Q 2597 3491 2834 3397 
z
" transform="scale(0.015625)"/>
      </defs>
      <use xlink:href="#DejaVuSans-56"/>
      <use xlink:href="#DejaVuSans-6f" transform="translate(60.658203 0)"/>
      <use xlink:href="#DejaVuSans-74" transform="translate(121.839844 0)"/>
      <use xlink:href="#DejaVuSans-65" transform="translate(161.048828 0)"/>
      <use xlink:href="#DejaVuSans-73" transform="translate(222.572266 0)"/>
     </g>
    </g>
   </g>
   <g id="line2d_35">
    <path d="M 115.363636 319.211372 
L 119.933661 319.211372 
L 124.503686 319.211372 
L 129.07371 319.211372 
L 133.643735 319.211372 
L 138.213759 319.211372 
L 142.783784 319.211372 
L 147.353808 318.834314 
L 151.923833 318.834314 
L 156.493858 318.834314 
L 161.063882 318.834314 
L 165.633907 318.834314 
L 170.203931 318.834314 
L 174.773956 318.834314 
L 179.34398 318.834314 
L 183.914005 318.834314 
L 188.484029 318.834314 
L 193.054054 318.834314 
L 197.624079 318.834314 
L 202.194103 318.834314 
L 206.764128 318.834314 
L 211.334152 318.834314 
L 215.904177 318.834314 
L 220.474201 318.834314 
L 225.044226 318.834314 
L 229.614251 318.834314 
L 234.184275 318.834314 
L 238.7543 318.834314 
L 243.324324 318.834314 
L 247.894349 318.834314 
L 252.464373 318.834314 
L 257.034398 318.834314 
L 261.604423 318.834314 
L 266.174447 318.457257 
L 270.744472 318.457257 
L 275.314496 318.457257 
L 279.884521 318.457257 
L 284.454545 318.457257 
L 289.02457 318.457257 
L 293.594595 318.457257 
L 298.164619 318.457257 
L 302.734644 318.457257 
L 307.304668 318.457257 
L 311.874693 318.457257 
L 316.444717 318.0802 
L 321.014742 318.0802 
L 325.584767 317.703142 
L 330.154791 317.703142 
L 334.724816 317.703142 
L 339.29484 317.703142 
L 343.864865 317.326085 
L 348.434889 317.326085 
L 353.004914 317.326085 
L 357.574939 317.326085 
L 362.144963 316.949027 
L 366.714988 316.949027 
L 371.285012 316.949027 
L 375.855037 316.949027 
L 380.425061 316.949027 
L 384.995086 316.949027 
L 389.565111 316.949027 
L 394.135135 316.949027 
L 398.70516 316.949027 
L 403.275184 316.949027 
L 407.845209 316.949027 
L 412.415233 316.949027 
L 416.985258 316.57197 
L 421.555283 316.57197 
L 426.125307 316.57197 
L 430.695332 316.57197 
L 435.265356 316.57197 
L 439.835381 316.57197 
L 444.405405 316.57197 
L 448.97543 316.57197 
L 453.545455 316.57197 
L 458.115479 316.57197 
L 462.685504 316.57197 
L 467.255528 316.194913 
L 471.825553 316.194913 
L 476.395577 316.194913 
L 480.965602 316.194913 
L 485.535627 316.194913 
L 490.105651 315.440798 
L 494.675676 315.440798 
L 499.2457 315.440798 
L 503.815725 315.440798 
L 508.385749 315.440798 
L 512.955774 315.440798 
L 517.525799 315.440798 
L 522.095823 315.440798 
L 526.665848 315.440798 
L 531.235872 315.440798 
L 535.805897 315.440798 
L 540.375921 315.440798 
L 544.945946 315.440798 
L 549.515971 315.440798 
L 554.085995 315.440798 
L 558.65602 315.440798 
L 563.226044 315.063741 
L 567.796069 315.063741 
L 572.366093 315.063741 
L 576.936118 315.063741 
L 581.506143 315.063741 
L 586.076167 315.063741 
L 590.646192 315.063741 
L 595.216216 314.686683 
L 599.786241 314.686683 
L 604.356265 314.686683 
L 608.92629 314.686683 
L 613.496314 314.309626 
L 618.066339 314.309626 
L 622.636364 313.932569 
" clip-path="url(#p59f98bc579)" style="fill: none; stroke: #1f77b4; stroke-width: 1.5; stroke-linecap: square"/>
   </g>
   <g id="line2d_36">
    <path d="M 115.363636 203.077706 
L 119.933661 202.700648 
L 124.503686 201.946534 
L 129.07371 201.569476 
L 133.643735 201.192419 
L 138.213759 200.815362 
L 142.783784 201.192419 
L 147.353808 199.68419 
L 151.923833 199.307132 
L 156.493858 197.421845 
L 161.063882 196.290673 
L 165.633907 195.159501 
L 170.203931 193.651272 
L 174.773956 193.651272 
L 179.34398 192.143042 
L 183.914005 191.388928 
L 188.484029 189.503641 
L 193.054054 184.224838 
L 197.624079 180.077207 
L 202.194103 176.683691 
L 206.764128 174.421347 
L 211.334152 172.913117 
L 215.904177 171.02783 
L 220.474201 169.896658 
L 225.044226 168.388429 
L 229.614251 166.126085 
L 234.184275 164.617855 
L 238.7543 163.486683 
L 243.324324 160.470224 
L 247.894349 157.830823 
L 252.464373 156.699651 
L 257.034398 154.437307 
L 261.604423 151.797905 
L 266.174447 150.289676 
L 270.744472 149.912618 
L 275.314496 148.404389 
L 279.884521 146.142045 
L 284.454545 142.748529 
L 289.02457 138.600898 
L 293.594595 135.961496 
L 298.164619 134.076209 
L 302.734644 132.56798 
L 307.304668 131.059751 
L 311.874693 128.420349 
L 316.444717 127.289177 
L 321.014742 124.649776 
L 325.584767 123.518603 
L 330.154791 122.764489 
L 334.724816 121.633317 
L 339.29484 120.879202 
L 343.864865 120.125087 
L 348.434889 119.370973 
L 353.004914 118.993915 
L 357.574939 118.2398 
L 362.144963 117.108628 
L 366.714988 115.600399 
L 371.285012 115.223342 
L 375.855037 114.469227 
L 380.425061 113.715112 
L 384.995086 113.338055 
L 389.565111 112.206883 
L 394.135135 111.075711 
L 398.70516 110.698653 
L 403.275184 110.321596 
L 407.845209 108.813367 
L 412.415233 108.059252 
L 416.985258 105.796908 
L 421.555283 105.042793 
L 426.125307 103.911621 
L 430.695332 102.780449 
L 435.265356 102.403392 
L 439.835381 102.026334 
L 444.405405 100.895162 
L 448.97543 100.141047 
L 453.545455 99.76399 
L 458.115479 97.878703 
L 462.685504 97.124589 
L 467.255528 97.124589 
L 471.825553 97.124589 
L 476.395577 95.993416 
L 480.965602 94.862244 
L 485.535627 93.731072 
L 490.105651 92.222843 
L 494.675676 92.222843 
L 499.2457 91.468728 
L 503.815725 91.468728 
L 508.385749 89.960499 
L 512.955774 89.206384 
L 517.525799 88.829327 
L 522.095823 88.829327 
L 526.665848 88.829327 
L 531.235872 88.452269 
L 535.805897 88.075212 
L 540.375921 88.075212 
L 544.945946 87.321097 
L 549.515971 85.43581 
L 554.085995 83.927581 
L 558.65602 82.419352 
L 563.226044 81.28818 
L 567.796069 80.534065 
L 572.366093 79.025835 
L 576.936118 78.271721 
L 581.506143 77.517606 
L 586.076167 76.009377 
L 590.646192 75.632319 
L 595.216216 74.878204 
L 599.786241 73.747032 
L 604.356265 72.61586 
L 608.92629 72.238803 
L 613.496314 70.730574 
L 618.066339 70.353516 
L 622.636364 68.468229 
" clip-path="url(#p59f98bc579)" style="fill: none; stroke: #ff7f0e; stroke-width: 1.5; stroke-linecap: square"/>
   </g>
   <g id="line2d_37">
    <path d="M 115.363636 309.40788 
L 119.933661 309.40788 
L 124.503686 309.030823 
L 129.07371 309.030823 
L 133.643735 309.030823 
L 138.213759 309.030823 
L 142.783784 309.030823 
L 147.353808 309.030823 
L 151.923833 309.030823 
L 156.493858 309.030823 
L 161.063882 309.030823 
L 165.633907 309.030823 
L 170.203931 309.030823 
L 174.773956 309.030823 
L 179.34398 309.030823 
L 183.914005 309.030823 
L 188.484029 309.030823 
L 193.054054 309.030823 
L 197.624079 309.030823 
L 202.194103 309.030823 
L 206.764128 309.030823 
L 211.334152 309.030823 
L 215.904177 309.030823 
L 220.474201 309.030823 
L 225.044226 309.030823 
L 229.614251 309.030823 
L 234.184275 308.276708 
L 238.7543 307.899651 
L 243.324324 307.145536 
L 247.894349 307.145536 
L 252.464373 306.768479 
L 257.034398 306.768479 
L 261.604423 306.768479 
L 266.174447 306.768479 
L 270.744472 306.768479 
L 275.314496 306.768479 
L 279.884521 306.768479 
L 284.454545 306.768479 
L 289.02457 306.768479 
L 293.594595 306.768479 
L 298.164619 306.768479 
L 302.734644 306.768479 
L 307.304668 306.768479 
L 311.874693 306.768479 
L 316.444717 306.391421 
L 321.014742 306.391421 
L 325.584767 305.637307 
L 330.154791 305.637307 
L 334.724816 305.637307 
L 339.29484 305.637307 
L 343.864865 305.637307 
L 348.434889 305.637307 
L 353.004914 305.637307 
L 357.574939 305.260249 
L 362.144963 305.260249 
L 366.714988 305.260249 
L 371.285012 305.260249 
L 375.855037 305.260249 
L 380.425061 305.260249 
L 384.995086 305.260249 
L 389.565111 305.260249 
L 394.135135 305.260249 
L 398.70516 305.260249 
L 403.275184 305.260249 
L 407.845209 305.260249 
L 412.415233 305.260249 
L 416.985258 305.260249 
L 421.555283 305.260249 
L 426.125307 305.260249 
L 430.695332 305.260249 
L 435.265356 305.260249 
L 439.835381 305.260249 
L 444.405405 305.260249 
L 448.97543 304.883192 
L 453.545455 304.506135 
L 458.115479 304.506135 
L 462.685504 304.506135 
L 467.255528 304.506135 
L 471.825553 304.506135 
L 476.395577 304.506135 
L 480.965602 304.129077 
L 485.535627 304.129077 
L 490.105651 304.129077 
L 494.675676 304.129077 
L 499.2457 304.129077 
L 503.815725 304.129077 
L 508.385749 304.129077 
L 512.955774 304.129077 
L 517.525799 304.129077 
L 522.095823 304.129077 
L 526.665848 304.129077 
L 531.235872 304.129077 
L 535.805897 304.129077 
L 540.375921 304.129077 
L 544.945946 304.129077 
L 549.515971 304.129077 
L 554.085995 304.129077 
L 558.65602 304.129077 
L 563.226044 304.129077 
L 567.796069 304.129077 
L 572.366093 304.129077 
L 576.936118 304.129077 
L 581.506143 304.129077 
L 586.076167 304.129077 
L 590.646192 304.129077 
L 595.216216 303.75202 
L 599.786241 303.75202 
L 604.356265 303.75202 
L 608.92629 303.75202 
L 613.496314 303.75202 
L 618.066339 303.374963 
L 622.636364 303.374963 
" clip-path="url(#p59f98bc579)" style="fill: none; stroke: #2ca02c; stroke-width: 1.5; stroke-linecap: square"/>
   </g>
   <g id="line2d_38">
    <path d="M 115.363636 369.36 
L 119.933661 369.36 
L 124.503686 369.36 
L 129.07371 369.36 
L 133.643735 369.36 
L 138.213759 369.36 
L 142.783784 369.36 
L 147.353808 369.36 
L 151.923833 369.36 
L 156.493858 369.36 
L 161.063882 369.36 
L 165.633907 369.36 
L 170.203931 369.36 
L 174.773956 369.36 
L 179.34398 369.36 
L 183.914005 369.36 
L 188.484029 369.36 
L 193.054054 369.36 
L 197.624079 369.36 
L 202.194103 369.36 
L 206.764128 369.36 
L 211.334152 369.36 
L 215.904177 369.36 
L 220.474201 369.36 
L 225.044226 369.36 
L 229.614251 369.36 
L 234.184275 369.36 
L 238.7543 369.36 
L 243.324324 369.36 
L 247.894349 369.36 
L 252.464373 369.36 
L 257.034398 369.36 
L 261.604423 368.982943 
L 266.174447 368.605885 
L 270.744472 368.605885 
L 275.314496 368.605885 
L 279.884521 368.605885 
L 284.454545 368.605885 
L 289.02457 368.605885 
L 293.594595 368.605885 
L 298.164619 368.605885 
L 302.734644 368.605885 
L 307.304668 368.605885 
L 311.874693 368.605885 
L 316.444717 368.605885 
L 321.014742 368.605885 
L 325.584767 368.605885 
L 330.154791 368.605885 
L 334.724816 368.605885 
L 339.29484 368.605885 
L 343.864865 368.605885 
L 348.434889 368.605885 
L 353.004914 368.605885 
L 357.574939 368.605885 
L 362.144963 368.605885 
L 366.714988 368.605885 
L 371.285012 368.605885 
L 375.855037 368.605885 
L 380.425061 368.228828 
L 384.995086 368.228828 
L 389.565111 368.228828 
L 394.135135 368.228828 
L 398.70516 368.228828 
L 403.275184 368.228828 
L 407.845209 368.228828 
L 412.415233 368.228828 
L 416.985258 368.228828 
L 421.555283 368.228828 
L 426.125307 368.228828 
L 430.695332 368.228828 
L 435.265356 368.228828 
L 439.835381 368.228828 
L 444.405405 368.228828 
L 448.97543 368.228828 
L 453.545455 368.228828 
L 458.115479 368.228828 
L 462.685504 368.228828 
L 467.255528 368.228828 
L 471.825553 368.228828 
L 476.395577 368.228828 
L 480.965602 368.228828 
L 485.535627 368.228828 
L 490.105651 368.228828 
L 494.675676 368.228828 
L 499.2457 368.228828 
L 503.815725 368.228828 
L 508.385749 368.228828 
L 512.955774 368.228828 
L 517.525799 368.228828 
L 522.095823 368.228828 
L 526.665848 368.228828 
L 531.235872 368.228828 
L 535.805897 368.228828 
L 540.375921 368.228828 
L 544.945946 368.228828 
L 549.515971 368.228828 
L 554.085995 368.228828 
L 558.65602 368.228828 
L 563.226044 368.228828 
L 567.796069 368.228828 
L 572.366093 368.228828 
L 576.936118 368.228828 
L 581.506143 368.228828 
L 586.076167 368.228828 
L 590.646192 368.228828 
L 595.216216 368.228828 
L 599.786241 368.228828 
L 604.356265 368.228828 
L 608.92629 368.228828 
L 613.496314 368.228828 
L 618.066339 368.228828 
L 622.636364 368.228828 
" clip-path="url(#p59f98bc579)" style="fill: none; stroke: #d62728; stroke-width: 1.5; stroke-linecap: square"/>
   </g>
   <g id="line2d_39">
    <path d="M 115.363636 354.654763 
L 119.933661 354.654763 
L 124.503686 354.654763 
L 129.07371 354.654763 
L 133.643735 354.654763 
L 138.213759 354.654763 
L 142.783784 354.654763 
L 147.353808 354.654763 
L 151.923833 354.654763 
L 156.493858 354.654763 
L 161.063882 354.654763 
L 165.633907 354.654763 
L 170.203931 354.654763 
L 174.773956 354.654763 
L 179.34398 354.654763 
L 183.914005 354.654763 
L 188.484029 354.654763 
L 193.054054 354.654763 
L 197.624079 354.654763 
L 202.194103 354.654763 
L 206.764128 354.654763 
L 211.334152 354.654763 
L 215.904177 354.654763 
L 220.474201 354.654763 
L 225.044226 354.654763 
L 229.614251 354.654763 
L 234.184275 354.654763 
L 238.7543 354.654763 
L 243.324324 354.654763 
L 247.894349 354.654763 
L 252.464373 354.654763 
L 257.034398 354.654763 
L 261.604423 354.654763 
L 266.174447 354.654763 
L 270.744472 354.654763 
L 275.314496 354.654763 
L 279.884521 354.277706 
L 284.454545 354.277706 
L 289.02457 354.277706 
L 293.594595 354.277706 
L 298.164619 354.277706 
L 302.734644 354.277706 
L 307.304668 354.277706 
L 311.874693 354.277706 
L 316.444717 354.277706 
L 321.014742 354.277706 
L 325.584767 354.277706 
L 330.154791 354.277706 
L 334.724816 354.277706 
L 339.29484 354.277706 
L 343.864865 354.277706 
L 348.434889 354.277706 
L 353.004914 354.277706 
L 357.574939 354.277706 
L 362.144963 354.277706 
L 366.714988 354.277706 
L 371.285012 354.277706 
L 375.855037 354.277706 
L 380.425061 354.277706 
L 384.995086 354.277706 
L 389.565111 354.277706 
L 394.135135 354.277706 
L 398.70516 354.277706 
L 403.275184 354.277706 
L 407.845209 354.277706 
L 412.415233 354.277706 
L 416.985258 354.277706 
L 421.555283 354.277706 
L 426.125307 354.277706 
L 430.695332 354.277706 
L 435.265356 354.277706 
L 439.835381 354.277706 
L 444.405405 354.277706 
L 448.97543 354.277706 
L 453.545455 354.277706 
L 458.115479 354.277706 
L 462.685504 354.277706 
L 467.255528 353.523591 
L 471.825553 353.523591 
L 476.395577 353.523591 
L 480.965602 353.523591 
L 485.535627 353.523591 
L 490.105651 353.523591 
L 494.675676 353.523591 
L 499.2457 353.523591 
L 503.815725 353.523591 
L 508.385749 353.523591 
L 512.955774 353.523591 
L 517.525799 353.523591 
L 522.095823 353.146534 
L 526.665848 353.146534 
L 531.235872 353.146534 
L 535.805897 353.146534 
L 540.375921 353.146534 
L 544.945946 353.146534 
L 549.515971 353.146534 
L 554.085995 353.146534 
L 558.65602 353.146534 
L 563.226044 353.146534 
L 567.796069 353.146534 
L 572.366093 353.146534 
L 576.936118 353.146534 
L 581.506143 353.146534 
L 586.076167 353.146534 
L 590.646192 353.146534 
L 595.216216 353.146534 
L 599.786241 353.146534 
L 604.356265 353.146534 
L 608.92629 353.146534 
L 613.496314 353.146534 
L 618.066339 353.146534 
L 622.636364 353.146534 
" clip-path="url(#p59f98bc579)" style="fill: none; stroke: #9467bd; stroke-width: 1.5; stroke-linecap: square"/>
   </g>
   <g id="line2d_40">
    <path d="M 115.363636 356.54005 
L 119.933661 356.54005 
L 124.503686 356.54005 
L 129.07371 356.54005 
L 133.643735 356.54005 
L 138.213759 356.54005 
L 142.783784 356.54005 
L 147.353808 356.54005 
L 151.923833 356.54005 
L 156.493858 356.54005 
L 161.063882 356.54005 
L 165.633907 356.54005 
L 170.203931 356.54005 
L 174.773956 356.54005 
L 179.34398 356.54005 
L 183.914005 356.54005 
L 188.484029 356.54005 
L 193.054054 356.54005 
L 197.624079 356.54005 
L 202.194103 356.54005 
L 206.764128 356.54005 
L 211.334152 356.54005 
L 215.904177 356.54005 
L 220.474201 356.54005 
L 225.044226 356.54005 
L 229.614251 356.54005 
L 234.184275 356.54005 
L 238.7543 356.54005 
L 243.324324 356.54005 
L 247.894349 356.54005 
L 252.464373 356.54005 
L 257.034398 356.54005 
L 261.604423 356.54005 
L 266.174447 356.54005 
L 270.744472 356.162993 
L 275.314496 356.162993 
L 279.884521 356.162993 
L 284.454545 356.54005 
L 289.02457 356.162993 
L 293.594595 356.162993 
L 298.164619 356.162993 
L 302.734644 356.162993 
L 307.304668 356.162993 
L 311.874693 356.162993 
L 316.444717 356.162993 
L 321.014742 356.162993 
L 325.584767 356.162993 
L 330.154791 356.162993 
L 334.724816 356.162993 
L 339.29484 356.162993 
L 343.864865 356.162993 
L 348.434889 356.162993 
L 353.004914 356.162993 
L 357.574939 356.162993 
L 362.144963 356.162993 
L 366.714988 356.162993 
L 371.285012 356.162993 
L 375.855037 356.162993 
L 380.425061 356.162993 
L 384.995086 356.162993 
L 389.565111 356.162993 
L 394.135135 356.162993 
L 398.70516 356.162993 
L 403.275184 356.162993 
L 407.845209 356.162993 
L 412.415233 356.162993 
L 416.985258 356.162993 
L 421.555283 356.162993 
L 426.125307 356.162993 
L 430.695332 356.162993 
L 435.265356 356.162993 
L 439.835381 356.162993 
L 444.405405 356.162993 
L 448.97543 356.162993 
L 453.545455 355.785935 
L 458.115479 355.785935 
L 462.685504 356.162993 
L 467.255528 356.162993 
L 471.825553 356.162993 
L 476.395577 356.162993 
L 480.965602 356.162993 
L 485.535627 356.162993 
L 490.105651 356.162993 
L 494.675676 356.162993 
L 499.2457 356.162993 
L 503.815725 356.162993 
L 508.385749 356.162993 
L 512.955774 356.162993 
L 517.525799 356.162993 
L 522.095823 356.162993 
L 526.665848 356.162993 
L 531.235872 356.162993 
L 535.805897 356.162993 
L 540.375921 356.162993 
L 544.945946 356.162993 
L 549.515971 356.162993 
L 554.085995 355.785935 
L 558.65602 355.785935 
L 563.226044 355.785935 
L 567.796069 355.785935 
L 572.366093 355.785935 
L 576.936118 355.785935 
L 581.506143 355.785935 
L 586.076167 355.785935 
L 590.646192 355.785935 
L 595.216216 355.785935 
L 599.786241 355.785935 
L 604.356265 355.785935 
L 608.92629 355.785935 
L 613.496314 355.785935 
L 618.066339 355.785935 
L 622.636364 355.785935 
" clip-path="url(#p59f98bc579)" style="fill: none; stroke: #8c564b; stroke-width: 1.5; stroke-linecap: square"/>
   </g>
   <g id="line2d_41">
    <path d="M 115.363636 206.848279 
L 119.933661 206.094165 
L 124.503686 204.962993 
L 129.07371 204.208878 
L 133.643735 202.323591 
L 138.213759 201.192419 
L 142.783784 199.68419 
L 147.353808 198.17596 
L 151.923833 196.667731 
L 156.493858 194.782444 
L 161.063882 194.028329 
L 165.633907 193.274214 
L 170.203931 192.5201 
L 174.773956 191.388928 
L 179.34398 188.749526 
L 183.914005 187.241297 
L 188.484029 186.110125 
L 193.054054 184.224838 
L 197.624079 182.716608 
L 202.194103 180.077207 
L 206.764128 178.946035 
L 211.334152 177.814863 
L 215.904177 175.175461 
L 220.474201 174.044289 
L 225.044226 172.913117 
L 229.614251 172.159002 
L 234.184275 169.519601 
L 238.7543 166.8802 
L 243.324324 164.994913 
L 247.894349 164.994913 
L 252.464373 163.486683 
L 257.034398 161.224339 
L 261.604423 160.093167 
L 266.174447 158.584938 
L 270.744472 158.20788 
L 275.314496 156.322594 
L 279.884521 155.191421 
L 284.454545 153.683192 
L 289.02457 150.289676 
L 293.594595 148.781446 
L 298.164619 147.650274 
L 302.734644 146.142045 
L 307.304668 145.764988 
L 311.874693 144.633815 
L 316.444717 144.256758 
L 321.014742 143.502643 
L 325.584767 141.994414 
L 330.154791 141.240299 
L 334.724816 139.73207 
L 339.29484 138.977955 
L 343.864865 137.092668 
L 348.434889 137.092668 
L 353.004914 134.830324 
L 357.574939 134.076209 
L 362.144963 133.322095 
L 366.714988 131.813865 
L 371.285012 130.305636 
L 375.855037 129.174464 
L 380.425061 128.420349 
L 384.995086 127.666234 
L 389.565111 127.289177 
L 394.135135 126.535062 
L 398.70516 126.535062 
L 403.275184 126.535062 
L 407.845209 125.780948 
L 412.415233 124.649776 
L 416.985258 124.272718 
L 421.555283 122.387431 
L 426.125307 122.010374 
L 430.695332 120.502145 
L 435.265356 119.370973 
L 439.835381 118.616858 
L 444.405405 117.108628 
L 448.97543 115.600399 
L 453.545455 114.09217 
L 458.115479 113.715112 
L 462.685504 113.338055 
L 467.255528 112.960998 
L 471.825553 111.075711 
L 476.395577 109.944539 
L 480.965602 109.190424 
L 485.535627 108.059252 
L 490.105651 106.551022 
L 494.675676 105.41985 
L 499.2457 104.665736 
L 503.815725 104.665736 
L 508.385749 103.911621 
L 512.955774 103.911621 
L 517.525799 103.534564 
L 522.095823 103.534564 
L 526.665848 102.026334 
L 531.235872 99.386933 
L 535.805897 97.878703 
L 540.375921 95.616359 
L 544.945946 93.354015 
L 549.515971 91.468728 
L 554.085995 89.583441 
L 558.65602 88.075212 
L 563.226044 86.94404 
L 567.796069 85.812868 
L 572.366093 85.43581 
L 576.936118 85.058753 
L 581.506143 83.550524 
L 586.076167 82.796409 
L 590.646192 81.28818 
L 595.216216 79.77995 
L 599.786241 77.894663 
L 604.356265 75.632319 
L 608.92629 74.501147 
L 613.496314 71.107631 
L 618.066339 69.222344 
L 622.636364 66.96 
" clip-path="url(#p59f98bc579)" style="fill: none; stroke: #e377c2; stroke-width: 1.5; stroke-linecap: square"/>
   </g>
   <g id="line2d_42">
    <path d="M 115.363636 289.046783 
L 119.933661 289.046783 
L 124.503686 289.046783 
L 129.07371 289.046783 
L 133.643735 289.046783 
L 138.213759 288.292668 
L 142.783784 288.292668 
L 147.353808 288.292668 
L 151.923833 288.292668 
L 156.493858 288.292668 
L 161.063882 288.292668 
L 165.633907 288.292668 
L 170.203931 288.292668 
L 174.773956 288.292668 
L 179.34398 288.292668 
L 183.914005 287.915611 
L 188.484029 287.915611 
L 193.054054 287.915611 
L 197.624079 287.538554 
L 202.194103 287.538554 
L 206.764128 287.538554 
L 211.334152 287.538554 
L 215.904177 287.538554 
L 220.474201 287.538554 
L 225.044226 287.161496 
L 229.614251 284.522095 
L 234.184275 284.522095 
L 238.7543 284.522095 
L 243.324324 284.522095 
L 247.894349 284.522095 
L 252.464373 284.522095 
L 257.034398 284.522095 
L 261.604423 284.522095 
L 266.174447 284.145037 
L 270.744472 284.145037 
L 275.314496 284.145037 
L 279.884521 284.145037 
L 284.454545 284.145037 
L 289.02457 284.145037 
L 293.594595 283.76798 
L 298.164619 283.76798 
L 302.734644 283.390923 
L 307.304668 283.390923 
L 311.874693 283.390923 
L 316.444717 283.013865 
L 321.014742 283.013865 
L 325.584767 283.013865 
L 330.154791 283.013865 
L 334.724816 283.013865 
L 339.29484 283.013865 
L 343.864865 283.013865 
L 348.434889 283.013865 
L 353.004914 282.636808 
L 357.574939 282.636808 
L 362.144963 282.636808 
L 366.714988 282.636808 
L 371.285012 282.259751 
L 375.855037 282.259751 
L 380.425061 282.259751 
L 384.995086 282.259751 
L 389.565111 282.259751 
L 394.135135 282.259751 
L 398.70516 282.259751 
L 403.275184 281.882693 
L 407.845209 281.505636 
L 412.415233 281.505636 
L 416.985258 281.505636 
L 421.555283 281.505636 
L 426.125307 281.128579 
L 430.695332 281.128579 
L 435.265356 281.128579 
L 439.835381 281.128579 
L 444.405405 281.128579 
L 448.97543 281.128579 
L 453.545455 281.128579 
L 458.115479 281.128579 
L 462.685504 281.128579 
L 467.255528 281.128579 
L 471.825553 281.128579 
L 476.395577 280.751521 
L 480.965602 280.751521 
L 485.535627 280.751521 
L 490.105651 280.751521 
L 494.675676 280.751521 
L 499.2457 280.751521 
L 503.815725 280.751521 
L 508.385749 280.751521 
L 512.955774 280.374464 
L 517.525799 280.374464 
L 522.095823 280.374464 
L 526.665848 280.374464 
L 531.235872 279.997406 
L 535.805897 279.620349 
L 540.375921 279.620349 
L 544.945946 279.620349 
L 549.515971 279.620349 
L 554.085995 279.620349 
L 558.65602 279.620349 
L 563.226044 279.620349 
L 567.796069 279.620349 
L 572.366093 279.243292 
L 576.936118 279.243292 
L 581.506143 278.866234 
L 586.076167 278.866234 
L 590.646192 278.866234 
L 595.216216 278.866234 
L 599.786241 278.866234 
L 604.356265 278.866234 
L 608.92629 278.866234 
L 613.496314 278.489177 
L 618.066339 278.489177 
L 622.636364 278.11212 
" clip-path="url(#p59f98bc579)" style="fill: none; stroke: #7f7f7f; stroke-width: 1.5; stroke-linecap: square"/>
   </g>
   <g id="line2d_43">
    <path d="M 115.363636 348.621845 
L 119.933661 348.621845 
L 124.503686 348.621845 
L 129.07371 348.621845 
L 133.643735 348.621845 
L 138.213759 348.621845 
L 142.783784 348.621845 
L 147.353808 348.621845 
L 151.923833 348.621845 
L 156.493858 348.621845 
L 161.063882 348.621845 
L 165.633907 348.621845 
L 170.203931 348.621845 
L 174.773956 348.621845 
L 179.34398 348.621845 
L 183.914005 348.621845 
L 188.484029 348.621845 
L 193.054054 348.621845 
L 197.624079 348.621845 
L 202.194103 348.621845 
L 206.764128 348.621845 
L 211.334152 348.621845 
L 215.904177 348.621845 
L 220.474201 348.621845 
L 225.044226 348.621845 
L 229.614251 348.621845 
L 234.184275 348.621845 
L 238.7543 348.621845 
L 243.324324 348.621845 
L 247.894349 348.621845 
L 252.464373 348.621845 
L 257.034398 348.621845 
L 261.604423 348.621845 
L 266.174447 348.621845 
L 270.744472 348.621845 
L 275.314496 348.621845 
L 279.884521 348.621845 
L 284.454545 348.621845 
L 289.02457 348.621845 
L 293.594595 348.621845 
L 298.164619 348.621845 
L 302.734644 348.621845 
L 307.304668 348.621845 
L 311.874693 348.621845 
L 316.444717 348.621845 
L 321.014742 348.621845 
L 325.584767 348.621845 
L 330.154791 348.621845 
L 334.724816 348.621845 
L 339.29484 348.621845 
L 343.864865 348.621845 
L 348.434889 348.621845 
L 353.004914 348.621845 
L 357.574939 348.621845 
L 362.144963 348.621845 
L 366.714988 348.621845 
L 371.285012 348.621845 
L 375.855037 348.621845 
L 380.425061 348.621845 
L 384.995086 348.621845 
L 389.565111 348.621845 
L 394.135135 348.621845 
L 398.70516 348.621845 
L 403.275184 348.621845 
L 407.845209 348.621845 
L 412.415233 348.621845 
L 416.985258 348.621845 
L 421.555283 348.621845 
L 426.125307 348.621845 
L 430.695332 348.621845 
L 435.265356 348.621845 
L 439.835381 348.621845 
L 444.405405 348.621845 
L 448.97543 348.621845 
L 453.545455 348.621845 
L 458.115479 348.621845 
L 462.685504 348.621845 
L 467.255528 348.621845 
L 471.825553 348.621845 
L 476.395577 348.621845 
L 480.965602 348.621845 
L 485.535627 348.621845 
L 490.105651 348.621845 
L 494.675676 348.621845 
L 499.2457 348.621845 
L 503.815725 348.621845 
L 508.385749 348.621845 
L 512.955774 348.621845 
L 517.525799 348.621845 
L 522.095823 348.621845 
L 526.665848 348.621845 
L 531.235872 348.621845 
L 535.805897 348.621845 
L 540.375921 348.621845 
L 544.945946 348.621845 
L 549.515971 348.621845 
L 554.085995 348.621845 
L 558.65602 348.621845 
L 563.226044 348.621845 
L 567.796069 348.621845 
L 572.366093 348.621845 
L 576.936118 348.621845 
L 581.506143 348.621845 
L 586.076167 348.621845 
L 590.646192 348.621845 
L 595.216216 348.621845 
L 599.786241 348.621845 
L 604.356265 348.621845 
L 608.92629 348.621845 
L 613.496314 348.621845 
L 618.066339 348.621845 
L 622.636364 348.621845 
" clip-path="url(#p59f98bc579)" style="fill: none; stroke: #bcbd22; stroke-width: 1.5; stroke-linecap: square"/>
   </g>
   <g id="line2d_44">
    <path d="M 115.363636 365.966484 
L 119.933661 365.966484 
L 124.503686 365.966484 
L 129.07371 365.966484 
L 133.643735 365.966484 
L 138.213759 365.966484 
L 142.783784 365.966484 
L 147.353808 365.966484 
L 151.923833 365.966484 
L 156.493858 365.966484 
L 161.063882 365.966484 
L 165.633907 365.966484 
L 170.203931 365.966484 
L 174.773956 365.966484 
L 179.34398 365.966484 
L 183.914005 365.966484 
L 188.484029 365.966484 
L 193.054054 365.966484 
L 197.624079 365.966484 
L 202.194103 365.966484 
L 206.764128 365.966484 
L 211.334152 365.966484 
L 215.904177 365.966484 
L 220.474201 365.966484 
L 225.044226 365.966484 
L 229.614251 365.966484 
L 234.184275 365.966484 
L 238.7543 365.966484 
L 243.324324 365.966484 
L 247.894349 365.966484 
L 252.464373 365.966484 
L 257.034398 365.966484 
L 261.604423 365.966484 
L 266.174447 365.966484 
L 270.744472 365.966484 
L 275.314496 365.966484 
L 279.884521 365.966484 
L 284.454545 365.966484 
L 289.02457 365.966484 
L 293.594595 365.966484 
L 298.164619 365.966484 
L 302.734644 365.966484 
L 307.304668 365.966484 
L 311.874693 365.966484 
L 316.444717 365.966484 
L 321.014742 365.966484 
L 325.584767 365.966484 
L 330.154791 365.966484 
L 334.724816 365.966484 
L 339.29484 365.966484 
L 343.864865 365.966484 
L 348.434889 365.966484 
L 353.004914 365.966484 
L 357.574939 365.966484 
L 362.144963 365.966484 
L 366.714988 365.966484 
L 371.285012 365.966484 
L 375.855037 365.966484 
L 380.425061 365.966484 
L 384.995086 365.966484 
L 389.565111 365.966484 
L 394.135135 365.966484 
L 398.70516 365.966484 
L 403.275184 365.966484 
L 407.845209 365.966484 
L 412.415233 365.966484 
L 416.985258 365.966484 
L 421.555283 365.966484 
L 426.125307 365.966484 
L 430.695332 365.966484 
L 435.265356 365.966484 
L 439.835381 365.966484 
L 444.405405 365.966484 
L 448.97543 365.966484 
L 453.545455 365.966484 
L 458.115479 365.966484 
L 462.685504 365.966484 
L 467.255528 365.966484 
L 471.825553 365.966484 
L 476.395577 365.966484 
L 480.965602 365.966484 
L 485.535627 365.966484 
L 490.105651 365.966484 
L 494.675676 365.966484 
L 499.2457 365.966484 
L 503.815725 365.966484 
L 508.385749 365.966484 
L 512.955774 365.966484 
L 517.525799 365.966484 
L 522.095823 365.966484 
L 526.665848 365.966484 
L 531.235872 365.966484 
L 535.805897 365.966484 
L 540.375921 365.966484 
L 544.945946 365.966484 
L 549.515971 365.966484 
L 554.085995 365.966484 
L 558.65602 365.966484 
L 563.226044 365.966484 
L 567.796069 365.966484 
L 572.366093 365.966484 
L 576.936118 365.966484 
L 581.506143 365.966484 
L 586.076167 365.966484 
L 590.646192 365.966484 
L 595.216216 365.966484 
L 599.786241 365.966484 
L 604.356265 365.966484 
L 608.92629 365.966484 
L 613.496314 365.966484 
L 618.066339 365.966484 
L 622.636364 365.966484 
" clip-path="url(#p59f98bc579)" style="fill: none; stroke: #17becf; stroke-width: 1.5; stroke-linecap: square"/>
   </g>
   <g id="line2d_45">
    <path d="M 115.363636 310.161995 
L 119.933661 310.161995 
L 124.503686 310.161995 
L 129.07371 310.161995 
L 133.643735 309.784938 
L 138.213759 309.40788 
L 142.783784 309.40788 
L 147.353808 309.40788 
L 151.923833 309.40788 
L 156.493858 309.40788 
L 161.063882 309.40788 
L 165.633907 309.40788 
L 170.203931 309.40788 
L 174.773956 309.40788 
L 179.34398 309.40788 
L 183.914005 309.40788 
L 188.484029 309.40788 
L 193.054054 309.40788 
L 197.624079 309.030823 
L 202.194103 309.030823 
L 206.764128 308.653766 
L 211.334152 308.276708 
L 215.904177 308.276708 
L 220.474201 307.899651 
L 225.044226 307.899651 
L 229.614251 307.899651 
L 234.184275 307.522594 
L 238.7543 307.522594 
L 243.324324 307.522594 
L 247.894349 307.522594 
L 252.464373 307.522594 
L 257.034398 307.522594 
L 261.604423 307.522594 
L 266.174447 307.522594 
L 270.744472 307.522594 
L 275.314496 307.522594 
L 279.884521 307.522594 
L 284.454545 307.522594 
L 289.02457 307.522594 
L 293.594595 307.522594 
L 298.164619 307.522594 
L 302.734644 307.522594 
L 307.304668 307.522594 
L 311.874693 307.522594 
L 316.444717 307.522594 
L 321.014742 307.522594 
L 325.584767 307.145536 
L 330.154791 307.145536 
L 334.724816 307.145536 
L 339.29484 306.768479 
L 343.864865 306.768479 
L 348.434889 306.768479 
L 353.004914 306.014364 
L 357.574939 306.014364 
L 362.144963 306.014364 
L 366.714988 306.014364 
L 371.285012 306.014364 
L 375.855037 306.014364 
L 380.425061 306.014364 
L 384.995086 305.637307 
L 389.565111 305.637307 
L 394.135135 305.637307 
L 398.70516 305.637307 
L 403.275184 305.637307 
L 407.845209 305.637307 
L 412.415233 305.637307 
L 416.985258 305.637307 
L 421.555283 305.637307 
L 426.125307 305.637307 
L 430.695332 305.637307 
L 435.265356 305.637307 
L 439.835381 305.637307 
L 444.405405 305.637307 
L 448.97543 305.637307 
L 453.545455 305.637307 
L 458.115479 305.637307 
L 462.685504 305.637307 
L 467.255528 305.637307 
L 471.825553 305.260249 
L 476.395577 305.260249 
L 480.965602 305.260249 
L 485.535627 305.260249 
L 490.105651 305.260249 
L 494.675676 305.260249 
L 499.2457 305.260249 
L 503.815725 305.260249 
L 508.385749 305.260249 
L 512.955774 305.260249 
L 517.525799 305.260249 
L 522.095823 305.260249 
L 526.665848 305.260249 
L 531.235872 305.260249 
L 535.805897 305.260249 
L 540.375921 305.260249 
L 544.945946 305.260249 
L 549.515971 304.883192 
L 554.085995 304.883192 
L 558.65602 304.883192 
L 563.226044 304.883192 
L 567.796069 304.883192 
L 572.366093 304.883192 
L 576.936118 304.883192 
L 581.506143 304.883192 
L 586.076167 304.883192 
L 590.646192 304.883192 
L 595.216216 304.883192 
L 599.786241 304.129077 
L 604.356265 304.129077 
L 608.92629 304.129077 
L 613.496314 304.129077 
L 618.066339 304.129077 
L 622.636364 304.129077 
" clip-path="url(#p59f98bc579)" style="fill: none; stroke: #1f77b4; stroke-width: 1.5; stroke-linecap: square"/>
   </g>
   <g id="line2d_46">
    <path d="M 115.363636 308.653766 
L 119.933661 308.653766 
L 124.503686 308.653766 
L 129.07371 308.653766 
L 133.643735 308.653766 
L 138.213759 308.653766 
L 142.783784 308.653766 
L 147.353808 308.653766 
L 151.923833 308.653766 
L 156.493858 308.653766 
L 161.063882 308.653766 
L 165.633907 308.653766 
L 170.203931 308.653766 
L 174.773956 308.653766 
L 179.34398 308.653766 
L 183.914005 308.653766 
L 188.484029 308.653766 
L 193.054054 308.276708 
L 197.624079 308.276708 
L 202.194103 308.276708 
L 206.764128 308.276708 
L 211.334152 308.276708 
L 215.904177 308.276708 
L 220.474201 308.276708 
L 225.044226 308.276708 
L 229.614251 308.276708 
L 234.184275 308.276708 
L 238.7543 308.276708 
L 243.324324 307.899651 
L 247.894349 307.899651 
L 252.464373 307.899651 
L 257.034398 307.899651 
L 261.604423 307.899651 
L 266.174447 307.899651 
L 270.744472 307.899651 
L 275.314496 307.522594 
L 279.884521 307.522594 
L 284.454545 307.522594 
L 289.02457 307.522594 
L 293.594595 307.522594 
L 298.164619 307.522594 
L 302.734644 307.522594 
L 307.304668 307.522594 
L 311.874693 307.522594 
L 316.444717 307.522594 
L 321.014742 307.522594 
L 325.584767 307.522594 
L 330.154791 307.522594 
L 334.724816 307.522594 
L 339.29484 307.522594 
L 343.864865 307.522594 
L 348.434889 307.522594 
L 353.004914 307.145536 
L 357.574939 307.145536 
L 362.144963 307.145536 
L 366.714988 307.145536 
L 371.285012 307.145536 
L 375.855037 306.768479 
L 380.425061 306.768479 
L 384.995086 306.768479 
L 389.565111 306.768479 
L 394.135135 306.768479 
L 398.70516 306.768479 
L 403.275184 306.768479 
L 407.845209 306.768479 
L 412.415233 306.768479 
L 416.985258 306.768479 
L 421.555283 306.391421 
L 426.125307 306.391421 
L 430.695332 306.014364 
L 435.265356 306.014364 
L 439.835381 306.014364 
L 444.405405 306.014364 
L 448.97543 306.014364 
L 453.545455 306.014364 
L 458.115479 305.637307 
L 462.685504 305.637307 
L 467.255528 305.260249 
L 471.825553 305.260249 
L 476.395577 305.260249 
L 480.965602 305.260249 
L 485.535627 305.260249 
L 490.105651 305.260249 
L 494.675676 305.260249 
L 499.2457 305.260249 
L 503.815725 305.260249 
L 508.385749 305.260249 
L 512.955774 305.260249 
L 517.525799 305.260249 
L 522.095823 305.260249 
L 526.665848 305.260249 
L 531.235872 305.260249 
L 535.805897 305.260249 
L 540.375921 305.260249 
L 544.945946 304.883192 
L 549.515971 304.883192 
L 554.085995 304.883192 
L 558.65602 304.883192 
L 563.226044 304.883192 
L 567.796069 304.883192 
L 572.366093 304.883192 
L 576.936118 304.883192 
L 581.506143 304.883192 
L 586.076167 304.883192 
L 590.646192 304.883192 
L 595.216216 304.883192 
L 599.786241 304.883192 
L 604.356265 304.883192 
L 608.92629 304.883192 
L 613.496314 304.883192 
L 618.066339 304.883192 
L 622.636364 304.883192 
" clip-path="url(#p59f98bc579)" style="fill: none; stroke: #ff7f0e; stroke-width: 1.5; stroke-linecap: square"/>
   </g>
   <g id="patch_3">
    <path d="M 90 384.48 
L 90 51.84 
" style="fill: none; stroke: #000000; stroke-width: 0.8; stroke-linejoin: miter; stroke-linecap: square"/>
   </g>
   <g id="patch_4">
    <path d="M 648 384.48 
L 648 51.84 
" style="fill: none; stroke: #000000; stroke-width: 0.8; stroke-linejoin: miter; stroke-linecap: square"/>
   </g>
   <g id="patch_5">
    <path d="M 90 384.48 
L 648 384.48 
" style="fill: none; stroke: #000000; stroke-width: 0.8; stroke-linejoin: miter; stroke-linecap: square"/>
   </g>
   <g id="patch_6">
    <path d="M 90 51.84 
L 648 51.84 
" style="fill: none; stroke: #000000; stroke-width: 0.8; stroke-linejoin: miter; stroke-linecap: square"/>
   </g>
   <g id="text_20">
    <!-- Time Series of Votes for Each Keyword -->
    <g transform="translate(253.716563 45.84) scale(0.12 -0.12)">
     <defs>
      <path id="DejaVuSans-53" d="M 3425 4513 
L 3425 3897 
Q 3066 4069 2747 4153 
Q 2428 4238 2131 4238 
Q 1616 4238 1336 4038 
Q 1056 3838 1056 3469 
Q 1056 3159 1242 3001 
Q 1428 2844 1947 2747 
L 2328 2669 
Q 3034 2534 3370 2195 
Q 3706 1856 3706 1288 
Q 3706 609 3251 259 
Q 2797 -91 1919 -91 
Q 1588 -91 1214 -16 
Q 841 59 441 206 
L 441 856 
Q 825 641 1194 531 
Q 1563 422 1919 422 
Q 2459 422 2753 634 
Q 3047 847 3047 1241 
Q 3047 1584 2836 1778 
Q 2625 1972 2144 2069 
L 1759 2144 
Q 1053 2284 737 2584 
Q 422 2884 422 3419 
Q 422 4038 858 4394 
Q 1294 4750 2059 4750 
Q 2388 4750 2728 4690 
Q 3069 4631 3425 4513 
z
" transform="scale(0.015625)"/>
      <path id="DejaVuSans-72" d="M 2631 2963 
Q 2534 3019 2420 3045 
Q 2306 3072 2169 3072 
Q 1681 3072 1420 2755 
Q 1159 2438 1159 1844 
L 1159 0 
L 581 0 
L 581 3500 
L 1159 3500 
L 1159 2956 
Q 1341 3275 1631 3429 
Q 1922 3584 2338 3584 
Q 2397 3584 2469 3576 
Q 2541 3569 2628 3553 
L 2631 2963 
z
" transform="scale(0.015625)"/>
      <path id="DejaVuSans-66" d="M 2375 4863 
L 2375 4384 
L 1825 4384 
Q 1516 4384 1395 4259 
Q 1275 4134 1275 3809 
L 1275 3500 
L 2222 3500 
L 2222 3053 
L 1275 3053 
L 1275 0 
L 697 0 
L 697 3053 
L 147 3053 
L 147 3500 
L 697 3500 
L 697 3744 
Q 697 4328 969 4595 
Q 1241 4863 1831 4863 
L 2375 4863 
z
" transform="scale(0.015625)"/>
      <path id="DejaVuSans-45" d="M 628 4666 
L 3578 4666 
L 3578 4134 
L 1259 4134 
L 1259 2753 
L 3481 2753 
L 3481 2222 
L 1259 2222 
L 1259 531 
L 3634 531 
L 3634 0 
L 628 0 
L 628 4666 
z
" transform="scale(0.015625)"/>
      <path id="DejaVuSans-63" d="M 3122 3366 
L 3122 2828 
Q 2878 2963 2633 3030 
Q 2388 3097 2138 3097 
Q 1578 3097 1268 2742 
Q 959 2388 959 1747 
Q 959 1106 1268 751 
Q 1578 397 2138 397 
Q 2388 397 2633 464 
Q 2878 531 3122 666 
L 3122 134 
Q 2881 22 2623 -34 
Q 2366 -91 2075 -91 
Q 1284 -91 818 406 
Q 353 903 353 1747 
Q 353 2603 823 3093 
Q 1294 3584 2113 3584 
Q 2378 3584 2631 3529 
Q 2884 3475 3122 3366 
z
" transform="scale(0.015625)"/>
      <path id="DejaVuSans-68" d="M 3513 2113 
L 3513 0 
L 2938 0 
L 2938 2094 
Q 2938 2591 2744 2837 
Q 2550 3084 2163 3084 
Q 1697 3084 1428 2787 
Q 1159 2491 1159 1978 
L 1159 0 
L 581 0 
L 581 4863 
L 1159 4863 
L 1159 2956 
Q 1366 3272 1645 3428 
Q 1925 3584 2291 3584 
Q 2894 3584 3203 3211 
Q 3513 2838 3513 2113 
z
" transform="scale(0.015625)"/>
      <path id="DejaVuSans-4b" d="M 628 4666 
L 1259 4666 
L 1259 2694 
L 3353 4666 
L 4166 4666 
L 1850 2491 
L 4331 0 
L 3500 0 
L 1259 2247 
L 1259 0 
L 628 0 
L 628 4666 
z
" transform="scale(0.015625)"/>
      <path id="DejaVuSans-79" d="M 2059 -325 
Q 1816 -950 1584 -1140 
Q 1353 -1331 966 -1331 
L 506 -1331 
L 506 -850 
L 844 -850 
Q 1081 -850 1212 -737 
Q 1344 -625 1503 -206 
L 1606 56 
L 191 3500 
L 800 3500 
L 1894 763 
L 2988 3500 
L 3597 3500 
L 2059 -325 
z
" transform="scale(0.015625)"/>
      <path id="DejaVuSans-77" d="M 269 3500 
L 844 3500 
L 1563 769 
L 2278 3500 
L 2956 3500 
L 3675 769 
L 4391 3500 
L 4966 3500 
L 4050 0 
L 3372 0 
L 2619 2869 
L 1863 0 
L 1184 0 
L 269 3500 
z
" transform="scale(0.015625)"/>
     </defs>
     <use xlink:href="#DejaVuSans-54"/>
     <use xlink:href="#DejaVuSans-69" transform="translate(57.958984 0)"/>
     <use xlink:href="#DejaVuSans-6d" transform="translate(85.742188 0)"/>
     <use xlink:href="#DejaVuSans-65" transform="translate(183.154297 0)"/>
     <use xlink:href="#DejaVuSans-20" transform="translate(244.677734 0)"/>
     <use xlink:href="#DejaVuSans-53" transform="translate(276.464844 0)"/>
     <use xlink:href="#DejaVuSans-65" transform="translate(339.941406 0)"/>
     <use xlink:href="#DejaVuSans-72" transform="translate(401.464844 0)"/>
     <use xlink:href="#DejaVuSans-69" transform="translate(442.578125 0)"/>
     <use xlink:href="#DejaVuSans-65" transform="translate(470.361328 0)"/>
     <use xlink:href="#DejaVuSans-73" transform="translate(531.884766 0)"/>
     <use xlink:href="#DejaVuSans-20" transform="translate(583.984375 0)"/>
     <use xlink:href="#DejaVuSans-6f" transform="translate(615.771484 0)"/>
     <use xlink:href="#DejaVuSans-66" transform="translate(676.953125 0)"/>
     <use xlink:href="#DejaVuSans-20" transform="translate(712.158203 0)"/>
     <use xlink:href="#DejaVuSans-56" transform="translate(743.945312 0)"/>
     <use xlink:href="#DejaVuSans-6f" transform="translate(804.603516 0)"/>
     <use xlink:href="#DejaVuSans-74" transform="translate(865.785156 0)"/>
     <use xlink:href="#DejaVuSans-65" transform="translate(904.994141 0)"/>
     <use xlink:href="#DejaVuSans-73" transform="translate(966.517578 0)"/>
     <use xlink:href="#DejaVuSans-20" transform="translate(1018.617188 0)"/>
     <use xlink:href="#DejaVuSans-66" transform="translate(1050.404297 0)"/>
     <use xlink:href="#DejaVuSans-6f" transform="translate(1085.609375 0)"/>
     <use xlink:href="#DejaVuSans-72" transform="translate(1146.791016 0)"/>
     <use xlink:href="#DejaVuSans-20" transform="translate(1187.904297 0)"/>
     <use xlink:href="#DejaVuSans-45" transform="translate(1219.691406 0)"/>
     <use xlink:href="#DejaVuSans-61" transform="translate(1282.875 0)"/>
     <use xlink:href="#DejaVuSans-63" transform="translate(1344.154297 0)"/>
     <use xlink:href="#DejaVuSans-68" transform="translate(1399.134766 0)"/>
     <use xlink:href="#DejaVuSans-20" transform="translate(1462.513672 0)"/>
     <use xlink:href="#DejaVuSans-4b" transform="translate(1494.300781 0)"/>
     <use xlink:href="#DejaVuSans-65" transform="translate(1554.876953 0)"/>
     <use xlink:href="#DejaVuSans-79" transform="translate(1616.400391 0)"/>
     <use xlink:href="#DejaVuSans-77" transform="translate(1675.580078 0)"/>
     <use xlink:href="#DejaVuSans-6f" transform="translate(1757.367188 0)"/>
     <use xlink:href="#DejaVuSans-72" transform="translate(1818.548828 0)"/>
     <use xlink:href="#DejaVuSans-64" transform="translate(1857.912109 0)"/>
    </g>
   </g>
   <g id="legend_1">
    <g id="patch_7">
     <path d="M 97 379.48 
L 149.245313 379.48 
Q 151.245313 379.48 151.245313 377.48 
L 151.245313 202.3425 
Q 151.245313 200.3425 149.245313 200.3425 
L 97 200.3425 
Q 95 200.3425 95 202.3425 
L 95 377.48 
Q 95 379.48 97 379.48 
z
" style="fill: #ffffff; opacity: 0.8; stroke: #cccccc; stroke-linejoin: miter"/>
    </g>
    <g id="line2d_47">
     <path d="M 99 208.440938 
L 109 208.440938 
L 119 208.440938 
" style="fill: none; stroke: #1f77b4; stroke-width: 1.5; stroke-linecap: square"/>
    </g>
    <g id="text_21">
     <!-- H01 -->
     <g transform="translate(127 211.940938) scale(0.1 -0.1)">
      <defs>
       <path id="DejaVuSans-48" d="M 628 4666 
L 1259 4666 
L 1259 2753 
L 3553 2753 
L 3553 4666 
L 4184 4666 
L 4184 0 
L 3553 0 
L 3553 2222 
L 1259 2222 
L 1259 0 
L 628 0 
L 628 4666 
z
" transform="scale(0.015625)"/>
      </defs>
      <use xlink:href="#DejaVuSans-48"/>
      <use xlink:href="#DejaVuSans-30" transform="translate(75.195312 0)"/>
      <use xlink:href="#DejaVuSans-31" transform="translate(138.818359 0)"/>
     </g>
    </g>
    <g id="line2d_48">
     <path d="M 99 223.119063 
L 109 223.119063 
L 119 223.119063 
" style="fill: none; stroke: #ff7f0e; stroke-width: 1.5; stroke-linecap: square"/>
    </g>
    <g id="text_22">
     <!-- H02 -->
     <g transform="translate(127 226.619063) scale(0.1 -0.1)">
      <use xlink:href="#DejaVuSans-48"/>
      <use xlink:href="#DejaVuSans-30" transform="translate(75.195312 0)"/>
      <use xlink:href="#DejaVuSans-32" transform="translate(138.818359 0)"/>
     </g>
    </g>
    <g id="line2d_49">
     <path d="M 99 237.797188 
L 109 237.797188 
L 119 237.797188 
" style="fill: none; stroke: #2ca02c; stroke-width: 1.5; stroke-linecap: square"/>
    </g>
    <g id="text_23">
     <!-- H03 -->
     <g transform="translate(127 241.297188) scale(0.1 -0.1)">
      <use xlink:href="#DejaVuSans-48"/>
      <use xlink:href="#DejaVuSans-30" transform="translate(75.195312 0)"/>
      <use xlink:href="#DejaVuSans-33" transform="translate(138.818359 0)"/>
     </g>
    </g>
    <g id="line2d_50">
     <path d="M 99 252.475313 
L 109 252.475313 
L 119 252.475313 
" style="fill: none; stroke: #d62728; stroke-width: 1.5; stroke-linecap: square"/>
    </g>
    <g id="text_24">
     <!-- H04 -->
     <g transform="translate(127 255.975313) scale(0.1 -0.1)">
      <use xlink:href="#DejaVuSans-48"/>
      <use xlink:href="#DejaVuSans-30" transform="translate(75.195312 0)"/>
      <use xlink:href="#DejaVuSans-34" transform="translate(138.818359 0)"/>
     </g>
    </g>
    <g id="line2d_51">
     <path d="M 99 267.153438 
L 109 267.153438 
L 119 267.153438 
" style="fill: none; stroke: #9467bd; stroke-width: 1.5; stroke-linecap: square"/>
    </g>
    <g id="text_25">
     <!-- H05 -->
     <g transform="translate(127 270.653438) scale(0.1 -0.1)">
      <use xlink:href="#DejaVuSans-48"/>
      <use xlink:href="#DejaVuSans-30" transform="translate(75.195312 0)"/>
      <use xlink:href="#DejaVuSans-35" transform="translate(138.818359 0)"/>
     </g>
    </g>
    <g id="line2d_52">
     <path d="M 99 281.831563 
L 109 281.831563 
L 119 281.831563 
" style="fill: none; stroke: #8c564b; stroke-width: 1.5; stroke-linecap: square"/>
    </g>
    <g id="text_26">
     <!-- H06 -->
     <g transform="translate(127 285.331563) scale(0.1 -0.1)">
      <use xlink:href="#DejaVuSans-48"/>
      <use xlink:href="#DejaVuSans-30" transform="translate(75.195312 0)"/>
      <use xlink:href="#DejaVuSans-36" transform="translate(138.818359 0)"/>
     </g>
    </g>
    <g id="line2d_53">
     <path d="M 99 296.509688 
L 109 296.509688 
L 119 296.509688 
" style="fill: none; stroke: #e377c2; stroke-width: 1.5; stroke-linecap: square"/>
    </g>
    <g id="text_27">
     <!-- H07 -->
     <g transform="translate(127 300.009688) scale(0.1 -0.1)">
      <use xlink:href="#DejaVuSans-48"/>
      <use xlink:href="#DejaVuSans-30" transform="translate(75.195312 0)"/>
      <use xlink:href="#DejaVuSans-37" transform="translate(138.818359 0)"/>
     </g>
    </g>
    <g id="line2d_54">
     <path d="M 99 311.187813 
L 109 311.187813 
L 119 311.187813 
" style="fill: none; stroke: #7f7f7f; stroke-width: 1.5; stroke-linecap: square"/>
    </g>
    <g id="text_28">
     <!-- H08 -->
     <g transform="translate(127 314.687813) scale(0.1 -0.1)">
      <use xlink:href="#DejaVuSans-48"/>
      <use xlink:href="#DejaVuSans-30" transform="translate(75.195312 0)"/>
      <use xlink:href="#DejaVuSans-38" transform="translate(138.818359 0)"/>
     </g>
    </g>
    <g id="line2d_55">
     <path d="M 99 325.865938 
L 109 325.865938 
L 119 325.865938 
" style="fill: none; stroke: #bcbd22; stroke-width: 1.5; stroke-linecap: square"/>
    </g>
    <g id="text_29">
     <!-- H09 -->
     <g transform="translate(127 329.365938) scale(0.1 -0.1)">
      <defs>
       <path id="DejaVuSans-39" d="M 703 97 
L 703 672 
Q 941 559 1184 500 
Q 1428 441 1663 441 
Q 2288 441 2617 861 
Q 2947 1281 2994 2138 
Q 2813 1869 2534 1725 
Q 2256 1581 1919 1581 
Q 1219 1581 811 2004 
Q 403 2428 403 3163 
Q 403 3881 828 4315 
Q 1253 4750 1959 4750 
Q 2769 4750 3195 4129 
Q 3622 3509 3622 2328 
Q 3622 1225 3098 567 
Q 2575 -91 1691 -91 
Q 1453 -91 1209 -44 
Q 966 3 703 97 
z
M 1959 2075 
Q 2384 2075 2632 2365 
Q 2881 2656 2881 3163 
Q 2881 3666 2632 3958 
Q 2384 4250 1959 4250 
Q 1534 4250 1286 3958 
Q 1038 3666 1038 3163 
Q 1038 2656 1286 2365 
Q 1534 2075 1959 2075 
z
" transform="scale(0.015625)"/>
      </defs>
      <use xlink:href="#DejaVuSans-48"/>
      <use xlink:href="#DejaVuSans-30" transform="translate(75.195312 0)"/>
      <use xlink:href="#DejaVuSans-39" transform="translate(138.818359 0)"/>
     </g>
    </g>
    <g id="line2d_56">
     <path d="M 99 340.544062 
L 109 340.544062 
L 119 340.544062 
" style="fill: none; stroke: #17becf; stroke-width: 1.5; stroke-linecap: square"/>
    </g>
    <g id="text_30">
     <!-- H10 -->
     <g transform="translate(127 344.044062) scale(0.1 -0.1)">
      <use xlink:href="#DejaVuSans-48"/>
      <use xlink:href="#DejaVuSans-31" transform="translate(75.195312 0)"/>
      <use xlink:href="#DejaVuSans-30" transform="translate(138.818359 0)"/>
     </g>
    </g>
    <g id="line2d_57">
     <path d="M 99 355.222188 
L 109 355.222188 
L 119 355.222188 
" style="fill: none; stroke: #1f77b4; stroke-width: 1.5; stroke-linecap: square"/>
    </g>
    <g id="text_31">
     <!-- H11 -->
     <g transform="translate(127 358.722188) scale(0.1 -0.1)">
      <use xlink:href="#DejaVuSans-48"/>
      <use xlink:href="#DejaVuSans-31" transform="translate(75.195312 0)"/>
      <use xlink:href="#DejaVuSans-31" transform="translate(138.818359 0)"/>
     </g>
    </g>
    <g id="line2d_58">
     <path d="M 99 369.900312 
L 109 369.900312 
L 119 369.900312 
" style="fill: none; stroke: #ff7f0e; stroke-width: 1.5; stroke-linecap: square"/>
    </g>
    <g id="text_32">
     <!-- H12 -->
     <g transform="translate(127 373.400312) scale(0.1 -0.1)">
      <use xlink:href="#DejaVuSans-48"/>
      <use xlink:href="#DejaVuSans-31" transform="translate(75.195312 0)"/>
      <use xlink:href="#DejaVuSans-32" transform="translate(138.818359 0)"/>
     </g>
    </g>
   </g>
  </g>
 </g>
 <defs>
  <clipPath id="p59f98bc579">
   <rect x="90" y="51.84" width="558" height="332.64"/>
  </clipPath>
 </defs>
</svg>
