<?xml version="1.0" encoding="utf-8" standalone="no"?>
<!DOCTYPE svg PUBLIC "-//W3C//DTD SVG 1.1//EN"
  "http://www.w3.org/Graphics/SVG/1.1/DTD/svg11.dtd">
<svg xmlns:xlink="http://www.w3.org/1999/xlink" width="720pt" height="432pt" viewBox="0 0 720 432" xmlns="http://www.w3.org/2000/svg" version="1.1">
 <metadata>
  <rdf:RDF xmlns:dc="http://purl.org/dc/elements/1.1/" xmlns:cc="http://creativecommons.org/ns#" xmlns:rdf="http://www.w3.org/1999/02/22-rdf-syntax-ns#">
   <cc:Work>
    <dc:type rdf:resource="http://purl.org/dc/dcmitype/StillImage"/>
    <dc:date>2025-01-15T11:50:45.199438</dc:date>
    <dc:format>image/svg+xml</dc:format>
    <dc:creator>
     <cc:Agent>
      <dc:title>Matplotlib v3.10.0, https://matplotlib.org/</dc:title>
     </cc:Agent>
    </dc:creator>
   </cc:Work>
  </rdf:RDF>
 </metadata>
 <defs>
  <style type="text/css">*{stroke-linejoin: round; stroke-linecap: butt}</style>
 </defs>
 <g id="figure_1">
  <g id="patch_1">
   <path d="M 0 432 
L 720 432 
L 720 0 
L 0 0 
z
" style="fill: #ffffff"/>
  </g>
  <g id="axes_1">
   <g id="patch_2">
    <path d="M 90 384.48 
L 648 384.48 
L 648 51.84 
L 90 51.84 
z
" style="fill: #ffffff"/>
   </g>
   <g id="matplotlib.axis_1">
    <g id="xtick_1">
     <g id="line2d_1">
      <path d="M 133.162679 384.48 
L 133.162679 51.84 
" clip-path="url(#pb5e7489c93)" style="fill: none; stroke: #b0b0b0; stroke-width: 0.8; stroke-linecap: square"/>
     </g>
     <g id="line2d_2">
      <defs>
       <path id="m1daac2a78a" d="M 0 0 
L 0 3.5 
" style="stroke: #000000; stroke-width: 0.8"/>
      </defs>
      <g>
       <use xlink:href="#m1daac2a78a" x="133.162679" y="384.48" style="stroke: #000000; stroke-width: 0.8"/>
      </g>
     </g>
     <g id="text_1">
      <!-- 15 10:00 -->
      <g transform="translate(110.801742 399.078438) scale(0.1 -0.1)">
       <defs>
        <path id="DejaVuSans-31" d="M 794 531 
L 1825 531 
L 1825 4091 
L 703 3866 
L 703 4441 
L 1819 4666 
L 2450 4666 
L 2450 531 
L 3481 531 
L 3481 0 
L 794 0 
L 794 531 
z
" transform="scale(0.015625)"/>
        <path id="DejaVuSans-35" d="M 691 4666 
L 3169 4666 
L 3169 4134 
L 1269 4134 
L 1269 2991 
Q 1406 3038 1543 3061 
Q 1681 3084 1819 3084 
Q 2600 3084 3056 2656 
Q 3513 2228 3513 1497 
Q 3513 744 3044 326 
Q 2575 -91 1722 -91 
Q 1428 -91 1123 -41 
Q 819 9 494 109 
L 494 744 
Q 775 591 1075 516 
Q 1375 441 1709 441 
Q 2250 441 2565 725 
Q 2881 1009 2881 1497 
Q 2881 1984 2565 2268 
Q 2250 2553 1709 2553 
Q 1456 2553 1204 2497 
Q 953 2441 691 2322 
L 691 4666 
z
" transform="scale(0.015625)"/>
        <path id="DejaVuSans-20" transform="scale(0.015625)"/>
        <path id="DejaVuSans-30" d="M 2034 4250 
Q 1547 4250 1301 3770 
Q 1056 3291 1056 2328 
Q 1056 1369 1301 889 
Q 1547 409 2034 409 
Q 2525 409 2770 889 
Q 3016 1369 3016 2328 
Q 3016 3291 2770 3770 
Q 2525 4250 2034 4250 
z
M 2034 4750 
Q 2819 4750 3233 4129 
Q 3647 3509 3647 2328 
Q 3647 1150 3233 529 
Q 2819 -91 2034 -91 
Q 1250 -91 836 529 
Q 422 1150 422 2328 
Q 422 3509 836 4129 
Q 1250 4750 2034 4750 
z
" transform="scale(0.015625)"/>
        <path id="DejaVuSans-3a" d="M 750 794 
L 1409 794 
L 1409 0 
L 750 0 
L 750 794 
z
M 750 3309 
L 1409 3309 
L 1409 2516 
L 750 2516 
L 750 3309 
z
" transform="scale(0.015625)"/>
       </defs>
       <use xlink:href="#DejaVuSans-31"/>
       <use xlink:href="#DejaVuSans-35" transform="translate(63.623047 0)"/>
       <use xlink:href="#DejaVuSans-20" transform="translate(127.246094 0)"/>
       <use xlink:href="#DejaVuSans-31" transform="translate(159.033203 0)"/>
       <use xlink:href="#DejaVuSans-30" transform="translate(222.65625 0)"/>
       <use xlink:href="#DejaVuSans-3a" transform="translate(286.279297 0)"/>
       <use xlink:href="#DejaVuSans-30" transform="translate(319.970703 0)"/>
       <use xlink:href="#DejaVuSans-30" transform="translate(383.59375 0)"/>
      </g>
     </g>
    </g>
    <g id="xtick_2">
     <g id="line2d_3">
      <path d="M 199.909091 384.48 
L 199.909091 51.84 
" clip-path="url(#pb5e7489c93)" style="fill: none; stroke: #b0b0b0; stroke-width: 0.8; stroke-linecap: square"/>
     </g>
     <g id="line2d_4">
      <g>
       <use xlink:href="#m1daac2a78a" x="199.909091" y="384.48" style="stroke: #000000; stroke-width: 0.8"/>
      </g>
     </g>
     <g id="text_2">
      <!-- 15 10:15 -->
      <g transform="translate(177.548153 399.078438) scale(0.1 -0.1)">
       <use xlink:href="#DejaVuSans-31"/>
       <use xlink:href="#DejaVuSans-35" transform="translate(63.623047 0)"/>
       <use xlink:href="#DejaVuSans-20" transform="translate(127.246094 0)"/>
       <use xlink:href="#DejaVuSans-31" transform="translate(159.033203 0)"/>
       <use xlink:href="#DejaVuSans-30" transform="translate(222.65625 0)"/>
       <use xlink:href="#DejaVuSans-3a" transform="translate(286.279297 0)"/>
       <use xlink:href="#DejaVuSans-31" transform="translate(319.970703 0)"/>
       <use xlink:href="#DejaVuSans-35" transform="translate(383.59375 0)"/>
      </g>
     </g>
    </g>
    <g id="xtick_3">
     <g id="line2d_5">
      <path d="M 266.655502 384.48 
L 266.655502 51.84 
" clip-path="url(#pb5e7489c93)" style="fill: none; stroke: #b0b0b0; stroke-width: 0.8; stroke-linecap: square"/>
     </g>
     <g id="line2d_6">
      <g>
       <use xlink:href="#m1daac2a78a" x="266.655502" y="384.48" style="stroke: #000000; stroke-width: 0.8"/>
      </g>
     </g>
     <g id="text_3">
      <!-- 15 10:30 -->
      <g transform="translate(244.294565 399.078438) scale(0.1 -0.1)">
       <defs>
        <path id="DejaVuSans-33" d="M 2597 2516 
Q 3050 2419 3304 2112 
Q 3559 1806 3559 1356 
Q 3559 666 3084 287 
Q 2609 -91 1734 -91 
Q 1441 -91 1130 -33 
Q 819 25 488 141 
L 488 750 
Q 750 597 1062 519 
Q 1375 441 1716 441 
Q 2309 441 2620 675 
Q 2931 909 2931 1356 
Q 2931 1769 2642 2001 
Q 2353 2234 1838 2234 
L 1294 2234 
L 1294 2753 
L 1863 2753 
Q 2328 2753 2575 2939 
Q 2822 3125 2822 3475 
Q 2822 3834 2567 4026 
Q 2313 4219 1838 4219 
Q 1578 4219 1281 4162 
Q 984 4106 628 3988 
L 628 4550 
Q 988 4650 1302 4700 
Q 1616 4750 1894 4750 
Q 2613 4750 3031 4423 
Q 3450 4097 3450 3541 
Q 3450 3153 3228 2886 
Q 3006 2619 2597 2516 
z
" transform="scale(0.015625)"/>
       </defs>
       <use xlink:href="#DejaVuSans-31"/>
       <use xlink:href="#DejaVuSans-35" transform="translate(63.623047 0)"/>
       <use xlink:href="#DejaVuSans-20" transform="translate(127.246094 0)"/>
       <use xlink:href="#DejaVuSans-31" transform="translate(159.033203 0)"/>
       <use xlink:href="#DejaVuSans-30" transform="translate(222.65625 0)"/>
       <use xlink:href="#DejaVuSans-3a" transform="translate(286.279297 0)"/>
       <use xlink:href="#DejaVuSans-33" transform="translate(319.970703 0)"/>
       <use xlink:href="#DejaVuSans-30" transform="translate(383.59375 0)"/>
      </g>
     </g>
    </g>
    <g id="xtick_4">
     <g id="line2d_7">
      <path d="M 333.401914 384.48 
L 333.401914 51.84 
" clip-path="url(#pb5e7489c93)" style="fill: none; stroke: #b0b0b0; stroke-width: 0.8; stroke-linecap: square"/>
     </g>
     <g id="line2d_8">
      <g>
       <use xlink:href="#m1daac2a78a" x="333.401914" y="384.48" style="stroke: #000000; stroke-width: 0.8"/>
      </g>
     </g>
     <g id="text_4">
      <!-- 15 10:45 -->
      <g transform="translate(311.040976 399.078438) scale(0.1 -0.1)">
       <defs>
        <path id="DejaVuSans-34" d="M 2419 4116 
L 825 1625 
L 2419 1625 
L 2419 4116 
z
M 2253 4666 
L 3047 4666 
L 3047 1625 
L 3713 1625 
L 3713 1100 
L 3047 1100 
L 3047 0 
L 2419 0 
L 2419 1100 
L 313 1100 
L 313 1709 
L 2253 4666 
z
" transform="scale(0.015625)"/>
       </defs>
       <use xlink:href="#DejaVuSans-31"/>
       <use xlink:href="#DejaVuSans-35" transform="translate(63.623047 0)"/>
       <use xlink:href="#DejaVuSans-20" transform="translate(127.246094 0)"/>
       <use xlink:href="#DejaVuSans-31" transform="translate(159.033203 0)"/>
       <use xlink:href="#DejaVuSans-30" transform="translate(222.65625 0)"/>
       <use xlink:href="#DejaVuSans-3a" transform="translate(286.279297 0)"/>
       <use xlink:href="#DejaVuSans-34" transform="translate(319.970703 0)"/>
       <use xlink:href="#DejaVuSans-35" transform="translate(383.59375 0)"/>
      </g>
     </g>
    </g>
    <g id="xtick_5">
     <g id="line2d_9">
      <path d="M 400.148325 384.48 
L 400.148325 51.84 
" clip-path="url(#pb5e7489c93)" style="fill: none; stroke: #b0b0b0; stroke-width: 0.8; stroke-linecap: square"/>
     </g>
     <g id="line2d_10">
      <g>
       <use xlink:href="#m1daac2a78a" x="400.148325" y="384.48" style="stroke: #000000; stroke-width: 0.8"/>
      </g>
     </g>
     <g id="text_5">
      <!-- 15 11:00 -->
      <g transform="translate(377.787388 399.078438) scale(0.1 -0.1)">
       <use xlink:href="#DejaVuSans-31"/>
       <use xlink:href="#DejaVuSans-35" transform="translate(63.623047 0)"/>
       <use xlink:href="#DejaVuSans-20" transform="translate(127.246094 0)"/>
       <use xlink:href="#DejaVuSans-31" transform="translate(159.033203 0)"/>
       <use xlink:href="#DejaVuSans-31" transform="translate(222.65625 0)"/>
       <use xlink:href="#DejaVuSans-3a" transform="translate(286.279297 0)"/>
       <use xlink:href="#DejaVuSans-30" transform="translate(319.970703 0)"/>
       <use xlink:href="#DejaVuSans-30" transform="translate(383.59375 0)"/>
      </g>
     </g>
    </g>
    <g id="xtick_6">
     <g id="line2d_11">
      <path d="M 466.894737 384.48 
L 466.894737 51.84 
" clip-path="url(#pb5e7489c93)" style="fill: none; stroke: #b0b0b0; stroke-width: 0.8; stroke-linecap: square"/>
     </g>
     <g id="line2d_12">
      <g>
       <use xlink:href="#m1daac2a78a" x="466.894737" y="384.48" style="stroke: #000000; stroke-width: 0.8"/>
      </g>
     </g>
     <g id="text_6">
      <!-- 15 11:15 -->
      <g transform="translate(444.533799 399.078438) scale(0.1 -0.1)">
       <use xlink:href="#DejaVuSans-31"/>
       <use xlink:href="#DejaVuSans-35" transform="translate(63.623047 0)"/>
       <use xlink:href="#DejaVuSans-20" transform="translate(127.246094 0)"/>
       <use xlink:href="#DejaVuSans-31" transform="translate(159.033203 0)"/>
       <use xlink:href="#DejaVuSans-31" transform="translate(222.65625 0)"/>
       <use xlink:href="#DejaVuSans-3a" transform="translate(286.279297 0)"/>
       <use xlink:href="#DejaVuSans-31" transform="translate(319.970703 0)"/>
       <use xlink:href="#DejaVuSans-35" transform="translate(383.59375 0)"/>
      </g>
     </g>
    </g>
    <g id="xtick_7">
     <g id="line2d_13">
      <path d="M 533.641148 384.48 
L 533.641148 51.84 
" clip-path="url(#pb5e7489c93)" style="fill: none; stroke: #b0b0b0; stroke-width: 0.8; stroke-linecap: square"/>
     </g>
     <g id="line2d_14">
      <g>
       <use xlink:href="#m1daac2a78a" x="533.641148" y="384.48" style="stroke: #000000; stroke-width: 0.8"/>
      </g>
     </g>
     <g id="text_7">
      <!-- 15 11:30 -->
      <g transform="translate(511.280211 399.078438) scale(0.1 -0.1)">
       <use xlink:href="#DejaVuSans-31"/>
       <use xlink:href="#DejaVuSans-35" transform="translate(63.623047 0)"/>
       <use xlink:href="#DejaVuSans-20" transform="translate(127.246094 0)"/>
       <use xlink:href="#DejaVuSans-31" transform="translate(159.033203 0)"/>
       <use xlink:href="#DejaVuSans-31" transform="translate(222.65625 0)"/>
       <use xlink:href="#DejaVuSans-3a" transform="translate(286.279297 0)"/>
       <use xlink:href="#DejaVuSans-33" transform="translate(319.970703 0)"/>
       <use xlink:href="#DejaVuSans-30" transform="translate(383.59375 0)"/>
      </g>
     </g>
    </g>
    <g id="xtick_8">
     <g id="line2d_15">
      <path d="M 600.38756 384.48 
L 600.38756 51.84 
" clip-path="url(#pb5e7489c93)" style="fill: none; stroke: #b0b0b0; stroke-width: 0.8; stroke-linecap: square"/>
     </g>
     <g id="line2d_16">
      <g>
       <use xlink:href="#m1daac2a78a" x="600.38756" y="384.48" style="stroke: #000000; stroke-width: 0.8"/>
      </g>
     </g>
     <g id="text_8">
      <!-- 15 11:45 -->
      <g transform="translate(578.026622 399.078438) scale(0.1 -0.1)">
       <use xlink:href="#DejaVuSans-31"/>
       <use xlink:href="#DejaVuSans-35" transform="translate(63.623047 0)"/>
       <use xlink:href="#DejaVuSans-20" transform="translate(127.246094 0)"/>
       <use xlink:href="#DejaVuSans-31" transform="translate(159.033203 0)"/>
       <use xlink:href="#DejaVuSans-31" transform="translate(222.65625 0)"/>
       <use xlink:href="#DejaVuSans-3a" transform="translate(286.279297 0)"/>
       <use xlink:href="#DejaVuSans-34" transform="translate(319.970703 0)"/>
       <use xlink:href="#DejaVuSans-35" transform="translate(383.59375 0)"/>
      </g>
     </g>
    </g>
    <g id="text_9">
     <!-- Date and Time -->
     <g transform="translate(332.230469 412.756563) scale(0.1 -0.1)">
      <defs>
       <path id="DejaVuSans-44" d="M 1259 4147 
L 1259 519 
L 2022 519 
Q 2988 519 3436 956 
Q 3884 1394 3884 2338 
Q 3884 3275 3436 3711 
Q 2988 4147 2022 4147 
L 1259 4147 
z
M 628 4666 
L 1925 4666 
Q 3281 4666 3915 4102 
Q 4550 3538 4550 2338 
Q 4550 1131 3912 565 
Q 3275 0 1925 0 
L 628 0 
L 628 4666 
z
" transform="scale(0.015625)"/>
       <path id="DejaVuSans-61" d="M 2194 1759 
Q 1497 1759 1228 1600 
Q 959 1441 959 1056 
Q 959 750 1161 570 
Q 1363 391 1709 391 
Q 2188 391 2477 730 
Q 2766 1069 2766 1631 
L 2766 1759 
L 2194 1759 
z
M 3341 1997 
L 3341 0 
L 2766 0 
L 2766 531 
Q 2569 213 2275 61 
Q 1981 -91 1556 -91 
Q 1019 -91 701 211 
Q 384 513 384 1019 
Q 384 1609 779 1909 
Q 1175 2209 1959 2209 
L 2766 2209 
L 2766 2266 
Q 2766 2663 2505 2880 
Q 2244 3097 1772 3097 
Q 1472 3097 1187 3025 
Q 903 2953 641 2809 
L 641 3341 
Q 956 3463 1253 3523 
Q 1550 3584 1831 3584 
Q 2591 3584 2966 3190 
Q 3341 2797 3341 1997 
z
" transform="scale(0.015625)"/>
       <path id="DejaVuSans-74" d="M 1172 4494 
L 1172 3500 
L 2356 3500 
L 2356 3053 
L 1172 3053 
L 1172 1153 
Q 1172 725 1289 603 
Q 1406 481 1766 481 
L 2356 481 
L 2356 0 
L 1766 0 
Q 1100 0 847 248 
Q 594 497 594 1153 
L 594 3053 
L 172 3053 
L 172 3500 
L 594 3500 
L 594 4494 
L 1172 4494 
z
" transform="scale(0.015625)"/>
       <path id="DejaVuSans-65" d="M 3597 1894 
L 3597 1613 
L 953 1613 
Q 991 1019 1311 708 
Q 1631 397 2203 397 
Q 2534 397 2845 478 
Q 3156 559 3463 722 
L 3463 178 
Q 3153 47 2828 -22 
Q 2503 -91 2169 -91 
Q 1331 -91 842 396 
Q 353 884 353 1716 
Q 353 2575 817 3079 
Q 1281 3584 2069 3584 
Q 2775 3584 3186 3129 
Q 3597 2675 3597 1894 
z
M 3022 2063 
Q 3016 2534 2758 2815 
Q 2500 3097 2075 3097 
Q 1594 3097 1305 2825 
Q 1016 2553 972 2059 
L 3022 2063 
z
" transform="scale(0.015625)"/>
       <path id="DejaVuSans-6e" d="M 3513 2113 
L 3513 0 
L 2938 0 
L 2938 2094 
Q 2938 2591 2744 2837 
Q 2550 3084 2163 3084 
Q 1697 3084 1428 2787 
Q 1159 2491 1159 1978 
L 1159 0 
L 581 0 
L 581 3500 
L 1159 3500 
L 1159 2956 
Q 1366 3272 1645 3428 
Q 1925 3584 2291 3584 
Q 2894 3584 3203 3211 
Q 3513 2838 3513 2113 
z
" transform="scale(0.015625)"/>
       <path id="DejaVuSans-64" d="M 2906 2969 
L 2906 4863 
L 3481 4863 
L 3481 0 
L 2906 0 
L 2906 525 
Q 2725 213 2448 61 
Q 2172 -91 1784 -91 
Q 1150 -91 751 415 
Q 353 922 353 1747 
Q 353 2572 751 3078 
Q 1150 3584 1784 3584 
Q 2172 3584 2448 3432 
Q 2725 3281 2906 2969 
z
M 947 1747 
Q 947 1113 1208 752 
Q 1469 391 1925 391 
Q 2381 391 2643 752 
Q 2906 1113 2906 1747 
Q 2906 2381 2643 2742 
Q 2381 3103 1925 3103 
Q 1469 3103 1208 2742 
Q 947 2381 947 1747 
z
" transform="scale(0.015625)"/>
       <path id="DejaVuSans-54" d="M -19 4666 
L 3928 4666 
L 3928 4134 
L 2272 4134 
L 2272 0 
L 1638 0 
L 1638 4134 
L -19 4134 
L -19 4666 
z
" transform="scale(0.015625)"/>
       <path id="DejaVuSans-69" d="M 603 3500 
L 1178 3500 
L 1178 0 
L 603 0 
L 603 3500 
z
M 603 4863 
L 1178 4863 
L 1178 4134 
L 603 4134 
L 603 4863 
z
" transform="scale(0.015625)"/>
       <path id="DejaVuSans-6d" d="M 3328 2828 
Q 3544 3216 3844 3400 
Q 4144 3584 4550 3584 
Q 5097 3584 5394 3201 
Q 5691 2819 5691 2113 
L 5691 0 
L 5113 0 
L 5113 2094 
Q 5113 2597 4934 2840 
Q 4756 3084 4391 3084 
Q 3944 3084 3684 2787 
Q 3425 2491 3425 1978 
L 3425 0 
L 2847 0 
L 2847 2094 
Q 2847 2600 2669 2842 
Q 2491 3084 2119 3084 
Q 1678 3084 1418 2786 
Q 1159 2488 1159 1978 
L 1159 0 
L 581 0 
L 581 3500 
L 1159 3500 
L 1159 2956 
Q 1356 3278 1631 3431 
Q 1906 3584 2284 3584 
Q 2666 3584 2933 3390 
Q 3200 3197 3328 2828 
z
" transform="scale(0.015625)"/>
      </defs>
      <use xlink:href="#DejaVuSans-44"/>
      <use xlink:href="#DejaVuSans-61" transform="translate(77.001953 0)"/>
      <use xlink:href="#DejaVuSans-74" transform="translate(138.28125 0)"/>
      <use xlink:href="#DejaVuSans-65" transform="translate(177.490234 0)"/>
      <use xlink:href="#DejaVuSans-20" transform="translate(239.013672 0)"/>
      <use xlink:href="#DejaVuSans-61" transform="translate(270.800781 0)"/>
      <use xlink:href="#DejaVuSans-6e" transform="translate(332.080078 0)"/>
      <use xlink:href="#DejaVuSans-64" transform="translate(395.458984 0)"/>
      <use xlink:href="#DejaVuSans-20" transform="translate(458.935547 0)"/>
      <use xlink:href="#DejaVuSans-54" transform="translate(490.722656 0)"/>
      <use xlink:href="#DejaVuSans-69" transform="translate(548.681641 0)"/>
      <use xlink:href="#DejaVuSans-6d" transform="translate(576.464844 0)"/>
      <use xlink:href="#DejaVuSans-65" transform="translate(673.876953 0)"/>
     </g>
    </g>
   </g>
   <g id="matplotlib.axis_2">
    <g id="ytick_1">
     <g id="line2d_17">
      <path d="M 90 370.822636 
L 648 370.822636 
" clip-path="url(#pb5e7489c93)" style="fill: none; stroke: #b0b0b0; stroke-width: 0.8; stroke-linecap: square"/>
     </g>
     <g id="line2d_18">
      <defs>
       <path id="mbe1aef7b0a" d="M 0 0 
L -3.5 0 
" style="stroke: #000000; stroke-width: 0.8"/>
      </defs>
      <g>
       <use xlink:href="#mbe1aef7b0a" x="90" y="370.822636" style="stroke: #000000; stroke-width: 0.8"/>
      </g>
     </g>
     <g id="text_10">
      <!-- 0 -->
      <g transform="translate(76.6375 374.621855) scale(0.1 -0.1)">
       <use xlink:href="#DejaVuSans-30"/>
      </g>
     </g>
    </g>
    <g id="ytick_2">
     <g id="line2d_19">
      <path d="M 90 297.690834 
L 648 297.690834 
" clip-path="url(#pb5e7489c93)" style="fill: none; stroke: #b0b0b0; stroke-width: 0.8; stroke-linecap: square"/>
     </g>
     <g id="line2d_20">
      <g>
       <use xlink:href="#mbe1aef7b0a" x="90" y="297.690834" style="stroke: #000000; stroke-width: 0.8"/>
      </g>
     </g>
     <g id="text_11">
      <!-- 200 -->
      <g transform="translate(63.9125 301.490053) scale(0.1 -0.1)">
       <defs>
        <path id="DejaVuSans-32" d="M 1228 531 
L 3431 531 
L 3431 0 
L 469 0 
L 469 531 
Q 828 903 1448 1529 
Q 2069 2156 2228 2338 
Q 2531 2678 2651 2914 
Q 2772 3150 2772 3378 
Q 2772 3750 2511 3984 
Q 2250 4219 1831 4219 
Q 1534 4219 1204 4116 
Q 875 4013 500 3803 
L 500 4441 
Q 881 4594 1212 4672 
Q 1544 4750 1819 4750 
Q 2544 4750 2975 4387 
Q 3406 4025 3406 3419 
Q 3406 3131 3298 2873 
Q 3191 2616 2906 2266 
Q 2828 2175 2409 1742 
Q 1991 1309 1228 531 
z
" transform="scale(0.015625)"/>
       </defs>
       <use xlink:href="#DejaVuSans-32"/>
       <use xlink:href="#DejaVuSans-30" transform="translate(63.623047 0)"/>
       <use xlink:href="#DejaVuSans-30" transform="translate(127.246094 0)"/>
      </g>
     </g>
    </g>
    <g id="ytick_3">
     <g id="line2d_21">
      <path d="M 90 224.559033 
L 648 224.559033 
" clip-path="url(#pb5e7489c93)" style="fill: none; stroke: #b0b0b0; stroke-width: 0.8; stroke-linecap: square"/>
     </g>
     <g id="line2d_22">
      <g>
       <use xlink:href="#mbe1aef7b0a" x="90" y="224.559033" style="stroke: #000000; stroke-width: 0.8"/>
      </g>
     </g>
     <g id="text_12">
      <!-- 400 -->
      <g transform="translate(63.9125 228.358251) scale(0.1 -0.1)">
       <use xlink:href="#DejaVuSans-34"/>
       <use xlink:href="#DejaVuSans-30" transform="translate(63.623047 0)"/>
       <use xlink:href="#DejaVuSans-30" transform="translate(127.246094 0)"/>
      </g>
     </g>
    </g>
    <g id="ytick_4">
     <g id="line2d_23">
      <path d="M 90 151.427231 
L 648 151.427231 
" clip-path="url(#pb5e7489c93)" style="fill: none; stroke: #b0b0b0; stroke-width: 0.8; stroke-linecap: square"/>
     </g>
     <g id="line2d_24">
      <g>
       <use xlink:href="#mbe1aef7b0a" x="90" y="151.427231" style="stroke: #000000; stroke-width: 0.8"/>
      </g>
     </g>
     <g id="text_13">
      <!-- 600 -->
      <g transform="translate(63.9125 155.22645) scale(0.1 -0.1)">
       <defs>
        <path id="DejaVuSans-36" d="M 2113 2584 
Q 1688 2584 1439 2293 
Q 1191 2003 1191 1497 
Q 1191 994 1439 701 
Q 1688 409 2113 409 
Q 2538 409 2786 701 
Q 3034 994 3034 1497 
Q 3034 2003 2786 2293 
Q 2538 2584 2113 2584 
z
M 3366 4563 
L 3366 3988 
Q 3128 4100 2886 4159 
Q 2644 4219 2406 4219 
Q 1781 4219 1451 3797 
Q 1122 3375 1075 2522 
Q 1259 2794 1537 2939 
Q 1816 3084 2150 3084 
Q 2853 3084 3261 2657 
Q 3669 2231 3669 1497 
Q 3669 778 3244 343 
Q 2819 -91 2113 -91 
Q 1303 -91 875 529 
Q 447 1150 447 2328 
Q 447 3434 972 4092 
Q 1497 4750 2381 4750 
Q 2619 4750 2861 4703 
Q 3103 4656 3366 4563 
z
" transform="scale(0.015625)"/>
       </defs>
       <use xlink:href="#DejaVuSans-36"/>
       <use xlink:href="#DejaVuSans-30" transform="translate(63.623047 0)"/>
       <use xlink:href="#DejaVuSans-30" transform="translate(127.246094 0)"/>
      </g>
     </g>
    </g>
    <g id="ytick_5">
     <g id="line2d_25">
      <path d="M 90 78.295429 
L 648 78.295429 
" clip-path="url(#pb5e7489c93)" style="fill: none; stroke: #b0b0b0; stroke-width: 0.8; stroke-linecap: square"/>
     </g>
     <g id="line2d_26">
      <g>
       <use xlink:href="#mbe1aef7b0a" x="90" y="78.295429" style="stroke: #000000; stroke-width: 0.8"/>
      </g>
     </g>
     <g id="text_14">
      <!-- 800 -->
      <g transform="translate(63.9125 82.094648) scale(0.1 -0.1)">
       <defs>
        <path id="DejaVuSans-38" d="M 2034 2216 
Q 1584 2216 1326 1975 
Q 1069 1734 1069 1313 
Q 1069 891 1326 650 
Q 1584 409 2034 409 
Q 2484 409 2743 651 
Q 3003 894 3003 1313 
Q 3003 1734 2745 1975 
Q 2488 2216 2034 2216 
z
M 1403 2484 
Q 997 2584 770 2862 
Q 544 3141 544 3541 
Q 544 4100 942 4425 
Q 1341 4750 2034 4750 
Q 2731 4750 3128 4425 
Q 3525 4100 3525 3541 
Q 3525 3141 3298 2862 
Q 3072 2584 2669 2484 
Q 3125 2378 3379 2068 
Q 3634 1759 3634 1313 
Q 3634 634 3220 271 
Q 2806 -91 2034 -91 
Q 1263 -91 848 271 
Q 434 634 434 1313 
Q 434 1759 690 2068 
Q 947 2378 1403 2484 
z
M 1172 3481 
Q 1172 3119 1398 2916 
Q 1625 2713 2034 2713 
Q 2441 2713 2670 2916 
Q 2900 3119 2900 3481 
Q 2900 3844 2670 4047 
Q 2441 4250 2034 4250 
Q 1625 4250 1398 4047 
Q 1172 3844 1172 3481 
z
" transform="scale(0.015625)"/>
       </defs>
       <use xlink:href="#DejaVuSans-38"/>
       <use xlink:href="#DejaVuSans-30" transform="translate(63.623047 0)"/>
       <use xlink:href="#DejaVuSans-30" transform="translate(127.246094 0)"/>
      </g>
     </g>
    </g>
    <g id="text_15">
     <!-- Votes -->
     <g transform="translate(57.832812 231.893594) rotate(-90) scale(0.1 -0.1)">
      <defs>
       <path id="DejaVuSans-56" d="M 1831 0 
L 50 4666 
L 709 4666 
L 2188 738 
L 3669 4666 
L 4325 4666 
L 2547 0 
L 1831 0 
z
" transform="scale(0.015625)"/>
       <path id="DejaVuSans-6f" d="M 1959 3097 
Q 1497 3097 1228 2736 
Q 959 2375 959 1747 
Q 959 1119 1226 758 
Q 1494 397 1959 397 
Q 2419 397 2687 759 
Q 2956 1122 2956 1747 
Q 2956 2369 2687 2733 
Q 2419 3097 1959 3097 
z
M 1959 3584 
Q 2709 3584 3137 3096 
Q 3566 2609 3566 1747 
Q 3566 888 3137 398 
Q 2709 -91 1959 -91 
Q 1206 -91 779 398 
Q 353 888 353 1747 
Q 353 2609 779 3096 
Q 1206 3584 1959 3584 
z
" transform="scale(0.015625)"/>
       <path id="DejaVuSans-73" d="M 2834 3397 
L 2834 2853 
Q 2591 2978 2328 3040 
Q 2066 3103 1784 3103 
Q 1356 3103 1142 2972 
Q 928 2841 928 2578 
Q 928 2378 1081 2264 
Q 1234 2150 1697 2047 
L 1894 2003 
Q 2506 1872 2764 1633 
Q 3022 1394 3022 966 
Q 3022 478 2636 193 
Q 2250 -91 1575 -91 
Q 1294 -91 989 -36 
Q 684 19 347 128 
L 347 722 
Q 666 556 975 473 
Q 1284 391 1588 391 
Q 1994 391 2212 530 
Q 2431 669 2431 922 
Q 2431 1156 2273 1281 
Q 2116 1406 1581 1522 
L 1381 1569 
Q 847 1681 609 1914 
Q 372 2147 372 2553 
Q 372 3047 722 3315 
Q 1072 3584 1716 3584 
Q 2034 3584 2315 3537 
Q 2597 3491 2834 3397 
z
" transform="scale(0.015625)"/>
      </defs>
      <use xlink:href="#DejaVuSans-56"/>
      <use xlink:href="#DejaVuSans-6f" transform="translate(60.658203 0)"/>
      <use xlink:href="#DejaVuSans-74" transform="translate(121.839844 0)"/>
      <use xlink:href="#DejaVuSans-65" transform="translate(161.048828 0)"/>
      <use xlink:href="#DejaVuSans-73" transform="translate(222.572266 0)"/>
     </g>
    </g>
   </g>
   <g id="line2d_27">
    <path d="M 115.363636 320.727352 
L 119.813397 320.727352 
L 124.263158 320.727352 
L 128.712919 320.727352 
L 133.162679 320.727352 
L 137.61244 320.727352 
L 142.062201 320.727352 
L 146.511962 320.361693 
L 150.961723 320.361693 
L 155.411483 320.361693 
L 159.861244 320.361693 
L 164.311005 320.361693 
L 168.760766 320.361693 
L 173.210526 320.361693 
L 177.660287 320.361693 
L 182.110048 320.361693 
L 186.559809 320.361693 
L 191.009569 320.361693 
L 195.45933 320.361693 
L 199.909091 320.361693 
L 204.358852 320.361693 
L 208.808612 320.361693 
L 213.258373 320.361693 
L 217.708134 320.361693 
L 222.157895 320.361693 
L 226.607656 320.361693 
L 231.057416 320.361693 
L 235.507177 320.361693 
L 239.956938 320.361693 
L 244.406699 320.361693 
L 248.856459 320.361693 
L 253.30622 320.361693 
L 257.755981 320.361693 
L 262.205742 319.996034 
L 266.655502 319.996034 
L 271.105263 319.996034 
L 275.555024 319.996034 
L 280.004785 319.996034 
L 284.454545 319.996034 
L 288.904306 319.996034 
L 293.354067 319.996034 
L 297.803828 319.996034 
L 302.253589 319.996034 
L 306.703349 319.996034 
L 311.15311 319.630375 
L 315.602871 319.630375 
L 320.052632 319.264716 
L 324.502392 319.264716 
L 328.952153 319.264716 
L 333.401914 319.264716 
L 337.851675 318.899057 
L 342.301435 318.899057 
L 346.751196 318.899057 
L 351.200957 318.899057 
L 355.650718 318.533398 
L 360.100478 318.533398 
L 364.550239 318.533398 
L 369 318.533398 
L 373.449761 318.533398 
L 377.899522 318.533398 
L 382.349282 318.533398 
L 386.799043 318.533398 
L 391.248804 318.533398 
L 395.698565 318.533398 
L 400.148325 318.533398 
L 404.598086 318.533398 
L 409.047847 318.167739 
L 413.497608 318.167739 
L 417.947368 318.167739 
L 422.397129 318.167739 
L 426.84689 318.167739 
L 431.296651 318.167739 
L 435.746411 318.167739 
L 440.196172 318.167739 
L 444.645933 318.167739 
L 449.095694 318.167739 
L 453.545455 318.167739 
L 457.995215 317.80208 
L 462.444976 317.80208 
L 466.894737 317.80208 
L 471.344498 317.80208 
L 475.794258 317.80208 
L 480.244019 317.070762 
L 484.69378 317.070762 
L 489.143541 317.070762 
L 493.593301 317.070762 
L 498.043062 317.070762 
L 502.492823 317.070762 
L 506.942584 317.070762 
L 511.392345 317.070762 
L 515.842105 317.070762 
L 520.291866 317.070762 
L 524.741627 317.070762 
L 529.191388 317.070762 
L 533.641148 317.070762 
L 538.090909 317.070762 
L 542.54067 317.070762 
L 546.990431 317.070762 
L 551.440191 316.705103 
L 555.889952 316.705103 
L 560.339713 316.705103 
L 564.789474 316.705103 
L 569.239234 316.705103 
L 573.688995 316.705103 
L 578.138756 316.705103 
L 582.588517 316.339444 
L 587.038278 316.339444 
L 591.488038 316.339444 
L 595.937799 316.339444 
L 600.38756 315.973785 
L 604.837321 315.973785 
L 609.287081 315.608126 
L 613.736842 315.608126 
L 618.186603 315.608126 
L 622.636364 315.608126 
" clip-path="url(#pb5e7489c93)" style="fill: none; stroke: #1f77b4; stroke-width: 1.5; stroke-linecap: square"/>
   </g>
   <g id="line2d_28">
    <path d="M 115.363636 208.104377 
L 119.813397 207.738718 
L 124.263158 207.0074 
L 128.712919 206.641741 
L 133.162679 206.276082 
L 137.61244 205.910423 
L 142.062201 206.276082 
L 146.511962 204.813446 
L 150.961723 204.447787 
L 155.411483 202.619492 
L 159.861244 201.522515 
L 164.311005 200.425538 
L 168.760766 198.962902 
L 173.210526 198.962902 
L 177.660287 197.500266 
L 182.110048 196.768948 
L 186.559809 194.940653 
L 191.009569 189.821427 
L 195.45933 185.799178 
L 199.909091 182.508247 
L 204.358852 180.314293 
L 208.808612 178.851657 
L 213.258373 177.023362 
L 217.708134 175.926385 
L 222.157895 174.463748 
L 226.607656 172.269794 
L 231.057416 170.807158 
L 235.507177 169.710181 
L 239.956938 166.784909 
L 244.406699 164.225296 
L 248.856459 163.128319 
L 253.30622 160.934365 
L 257.755981 158.374752 
L 262.205742 156.912116 
L 266.655502 156.546457 
L 271.105263 155.083821 
L 275.555024 152.889867 
L 280.004785 149.598936 
L 284.454545 145.576687 
L 288.904306 143.017074 
L 293.354067 141.188779 
L 297.803828 139.726143 
L 302.253589 138.263507 
L 306.703349 135.703894 
L 311.15311 134.606917 
L 315.602871 132.047304 
L 320.052632 130.950326 
L 324.502392 130.219008 
L 328.952153 129.122031 
L 333.401914 128.390713 
L 337.851675 127.659395 
L 342.301435 126.928077 
L 346.751196 126.562418 
L 351.200957 125.8311 
L 355.650718 124.734123 
L 360.100478 123.271487 
L 364.550239 122.905828 
L 369 122.17451 
L 373.449761 121.443192 
L 377.899522 121.077533 
L 382.349282 119.980556 
L 386.799043 118.883579 
L 391.248804 118.51792 
L 395.698565 118.152261 
L 400.148325 116.689625 
L 404.598086 115.958307 
L 409.047847 113.764353 
L 413.497608 113.033035 
L 417.947368 111.936058 
L 422.397129 110.839081 
L 426.84689 110.473422 
L 431.296651 110.107763 
L 435.746411 109.010786 
L 440.196172 108.279468 
L 444.645933 107.913809 
L 449.095694 106.085514 
L 453.545455 105.354196 
L 457.995215 105.354196 
L 462.444976 105.354196 
L 466.894737 104.257219 
L 471.344498 103.160242 
L 475.794258 102.063265 
L 480.244019 100.600629 
L 484.69378 100.600629 
L 489.143541 99.869311 
L 493.593301 99.869311 
L 498.043062 98.406675 
L 502.492823 97.675357 
L 506.942584 97.309698 
L 511.392345 97.309698 
L 515.842105 97.309698 
L 520.291866 96.944039 
L 524.741627 96.57838 
L 529.191388 96.57838 
L 533.641148 95.847062 
L 538.090909 94.018767 
L 542.54067 92.556131 
L 546.990431 91.093495 
L 551.440191 89.996518 
L 555.889952 89.2652 
L 560.339713 87.802563 
L 564.789474 87.071245 
L 569.239234 86.339927 
L 573.688995 84.877291 
L 578.138756 84.511632 
L 582.588517 83.780314 
L 587.038278 82.683337 
L 591.488038 81.58636 
L 595.937799 81.220701 
L 600.38756 79.758065 
L 604.837321 79.392406 
L 609.287081 77.564111 
L 613.736842 76.467134 
L 618.186603 75.004498 
L 622.636364 72.810544 
" clip-path="url(#pb5e7489c93)" style="fill: none; stroke: #ff7f0e; stroke-width: 1.5; stroke-linecap: square"/>
   </g>
   <g id="line2d_29">
    <path d="M 115.363636 311.220218 
L 119.813397 311.220218 
L 124.263158 310.854559 
L 128.712919 310.854559 
L 133.162679 310.854559 
L 137.61244 310.854559 
L 142.062201 310.854559 
L 146.511962 310.854559 
L 150.961723 310.854559 
L 155.411483 310.854559 
L 159.861244 310.854559 
L 164.311005 310.854559 
L 168.760766 310.854559 
L 173.210526 310.854559 
L 177.660287 310.854559 
L 182.110048 310.854559 
L 186.559809 310.854559 
L 191.009569 310.854559 
L 195.45933 310.854559 
L 199.909091 310.854559 
L 204.358852 310.854559 
L 208.808612 310.854559 
L 213.258373 310.854559 
L 217.708134 310.854559 
L 222.157895 310.854559 
L 226.607656 310.854559 
L 231.057416 310.123241 
L 235.507177 309.757582 
L 239.956938 309.026264 
L 244.406699 309.026264 
L 248.856459 308.660605 
L 253.30622 308.660605 
L 257.755981 308.660605 
L 262.205742 308.660605 
L 266.655502 308.660605 
L 271.105263 308.660605 
L 275.555024 308.660605 
L 280.004785 308.660605 
L 284.454545 308.660605 
L 288.904306 308.660605 
L 293.354067 308.660605 
L 297.803828 308.660605 
L 302.253589 308.660605 
L 306.703349 308.660605 
L 311.15311 308.294946 
L 315.602871 308.294946 
L 320.052632 307.563628 
L 324.502392 307.563628 
L 328.952153 307.563628 
L 333.401914 307.563628 
L 337.851675 307.563628 
L 342.301435 307.563628 
L 346.751196 307.563628 
L 351.200957 307.197969 
L 355.650718 307.197969 
L 360.100478 307.197969 
L 364.550239 307.197969 
L 369 307.197969 
L 373.449761 307.197969 
L 377.899522 307.197969 
L 382.349282 307.197969 
L 386.799043 307.197969 
L 391.248804 307.197969 
L 395.698565 307.197969 
L 400.148325 307.197969 
L 404.598086 307.197969 
L 409.047847 307.197969 
L 413.497608 307.197969 
L 417.947368 307.197969 
L 422.397129 307.197969 
L 426.84689 307.197969 
L 431.296651 307.197969 
L 435.746411 307.197969 
L 440.196172 306.83231 
L 444.645933 306.466651 
L 449.095694 306.466651 
L 453.545455 306.466651 
L 457.995215 306.466651 
L 462.444976 306.466651 
L 466.894737 306.466651 
L 471.344498 306.100992 
L 475.794258 306.100992 
L 480.244019 306.100992 
L 484.69378 306.100992 
L 489.143541 306.100992 
L 493.593301 306.100992 
L 498.043062 306.100992 
L 502.492823 306.100992 
L 506.942584 306.100992 
L 511.392345 306.100992 
L 515.842105 306.100992 
L 520.291866 306.100992 
L 524.741627 306.100992 
L 529.191388 306.100992 
L 533.641148 306.100992 
L 538.090909 306.100992 
L 542.54067 306.100992 
L 546.990431 306.100992 
L 551.440191 306.100992 
L 555.889952 306.100992 
L 560.339713 306.100992 
L 564.789474 306.100992 
L 569.239234 306.100992 
L 573.688995 306.100992 
L 578.138756 306.100992 
L 582.588517 305.735333 
L 587.038278 305.735333 
L 591.488038 305.735333 
L 595.937799 305.735333 
L 600.38756 305.735333 
L 604.837321 305.369674 
L 609.287081 305.369674 
L 613.736842 305.369674 
L 618.186603 305.369674 
L 622.636364 305.369674 
" clip-path="url(#pb5e7489c93)" style="fill: none; stroke: #2ca02c; stroke-width: 1.5; stroke-linecap: square"/>
   </g>
   <g id="line2d_30">
    <path d="M 115.363636 369.36 
L 119.813397 369.36 
L 124.263158 369.36 
L 128.712919 369.36 
L 133.162679 369.36 
L 137.61244 369.36 
L 142.062201 369.36 
L 146.511962 369.36 
L 150.961723 369.36 
L 155.411483 369.36 
L 159.861244 369.36 
L 164.311005 369.36 
L 168.760766 369.36 
L 173.210526 369.36 
L 177.660287 369.36 
L 182.110048 369.36 
L 186.559809 369.36 
L 191.009569 369.36 
L 195.45933 369.36 
L 199.909091 369.36 
L 204.358852 369.36 
L 208.808612 369.36 
L 213.258373 369.36 
L 217.708134 369.36 
L 222.157895 369.36 
L 226.607656 369.36 
L 231.057416 369.36 
L 235.507177 369.36 
L 239.956938 369.36 
L 244.406699 369.36 
L 248.856459 369.36 
L 253.30622 369.36 
L 257.755981 368.994341 
L 262.205742 368.628682 
L 266.655502 368.628682 
L 271.105263 368.628682 
L 275.555024 368.628682 
L 280.004785 368.628682 
L 284.454545 368.628682 
L 288.904306 368.628682 
L 293.354067 368.628682 
L 297.803828 368.628682 
L 302.253589 368.628682 
L 306.703349 368.628682 
L 311.15311 368.628682 
L 315.602871 368.628682 
L 320.052632 368.628682 
L 324.502392 368.628682 
L 328.952153 368.628682 
L 333.401914 368.628682 
L 337.851675 368.628682 
L 342.301435 368.628682 
L 346.751196 368.628682 
L 351.200957 368.628682 
L 355.650718 368.628682 
L 360.100478 368.628682 
L 364.550239 368.628682 
L 369 368.628682 
L 373.449761 368.263023 
L 377.899522 368.263023 
L 382.349282 368.263023 
L 386.799043 368.263023 
L 391.248804 368.263023 
L 395.698565 368.263023 
L 400.148325 368.263023 
L 404.598086 368.263023 
L 409.047847 368.263023 
L 413.497608 368.263023 
L 417.947368 368.263023 
L 422.397129 368.263023 
L 426.84689 368.263023 
L 431.296651 368.263023 
L 435.746411 368.263023 
L 440.196172 368.263023 
L 444.645933 368.263023 
L 449.095694 368.263023 
L 453.545455 368.263023 
L 457.995215 368.263023 
L 462.444976 368.263023 
L 466.894737 368.263023 
L 471.344498 368.263023 
L 475.794258 368.263023 
L 480.244019 368.263023 
L 484.69378 368.263023 
L 489.143541 368.263023 
L 493.593301 368.263023 
L 498.043062 368.263023 
L 502.492823 368.263023 
L 506.942584 368.263023 
L 511.392345 368.263023 
L 515.842105 368.263023 
L 520.291866 368.263023 
L 524.741627 368.263023 
L 529.191388 368.263023 
L 533.641148 368.263023 
L 538.090909 368.263023 
L 542.54067 368.263023 
L 546.990431 368.263023 
L 551.440191 368.263023 
L 555.889952 368.263023 
L 560.339713 368.263023 
L 564.789474 368.263023 
L 569.239234 368.263023 
L 573.688995 368.263023 
L 578.138756 368.263023 
L 582.588517 368.263023 
L 587.038278 368.263023 
L 591.488038 368.263023 
L 595.937799 368.263023 
L 600.38756 368.263023 
L 604.837321 368.263023 
L 609.287081 368.263023 
L 613.736842 368.263023 
L 618.186603 368.263023 
L 622.636364 368.263023 
" clip-path="url(#pb5e7489c93)" style="fill: none; stroke: #d62728; stroke-width: 1.5; stroke-linecap: square"/>
   </g>
   <g id="line2d_31">
    <path d="M 115.363636 355.099299 
L 119.813397 355.099299 
L 124.263158 355.099299 
L 128.712919 355.099299 
L 133.162679 355.099299 
L 137.61244 355.099299 
L 142.062201 355.099299 
L 146.511962 355.099299 
L 150.961723 355.099299 
L 155.411483 355.099299 
L 159.861244 355.099299 
L 164.311005 355.099299 
L 168.760766 355.099299 
L 173.210526 355.099299 
L 177.660287 355.099299 
L 182.110048 355.099299 
L 186.559809 355.099299 
L 191.009569 355.099299 
L 195.45933 355.099299 
L 199.909091 355.099299 
L 204.358852 355.099299 
L 208.808612 355.099299 
L 213.258373 355.099299 
L 217.708134 355.099299 
L 222.157895 355.099299 
L 226.607656 355.099299 
L 231.057416 355.099299 
L 235.507177 355.099299 
L 239.956938 355.099299 
L 244.406699 355.099299 
L 248.856459 355.099299 
L 253.30622 355.099299 
L 257.755981 355.099299 
L 262.205742 355.099299 
L 266.655502 355.099299 
L 271.105263 355.099299 
L 275.555024 354.73364 
L 280.004785 354.73364 
L 284.454545 354.73364 
L 288.904306 354.73364 
L 293.354067 354.73364 
L 297.803828 354.73364 
L 302.253589 354.73364 
L 306.703349 354.73364 
L 311.15311 354.73364 
L 315.602871 354.73364 
L 320.052632 354.73364 
L 324.502392 354.73364 
L 328.952153 354.73364 
L 333.401914 354.73364 
L 337.851675 354.73364 
L 342.301435 354.73364 
L 346.751196 354.73364 
L 351.200957 354.73364 
L 355.650718 354.73364 
L 360.100478 354.73364 
L 364.550239 354.73364 
L 369 354.73364 
L 373.449761 354.73364 
L 377.899522 354.73364 
L 382.349282 354.73364 
L 386.799043 354.73364 
L 391.248804 354.73364 
L 395.698565 354.73364 
L 400.148325 354.73364 
L 404.598086 354.73364 
L 409.047847 354.73364 
L 413.497608 354.73364 
L 417.947368 354.73364 
L 422.397129 354.73364 
L 426.84689 354.73364 
L 431.296651 354.73364 
L 435.746411 354.73364 
L 440.196172 354.73364 
L 444.645933 354.73364 
L 449.095694 354.73364 
L 453.545455 354.73364 
L 457.995215 354.002322 
L 462.444976 354.002322 
L 466.894737 354.002322 
L 471.344498 354.002322 
L 475.794258 354.002322 
L 480.244019 354.002322 
L 484.69378 354.002322 
L 489.143541 354.002322 
L 493.593301 354.002322 
L 498.043062 354.002322 
L 502.492823 354.002322 
L 506.942584 354.002322 
L 511.392345 353.636663 
L 515.842105 353.636663 
L 520.291866 353.636663 
L 524.741627 353.636663 
L 529.191388 353.636663 
L 533.641148 353.636663 
L 538.090909 353.636663 
L 542.54067 353.636663 
L 546.990431 353.636663 
L 551.440191 353.636663 
L 555.889952 353.636663 
L 560.339713 353.636663 
L 564.789474 353.636663 
L 569.239234 353.636663 
L 573.688995 353.636663 
L 578.138756 353.636663 
L 582.588517 353.636663 
L 587.038278 353.636663 
L 591.488038 353.636663 
L 595.937799 353.636663 
L 600.38756 353.636663 
L 604.837321 353.636663 
L 609.287081 353.636663 
L 613.736842 353.636663 
L 618.186603 353.636663 
L 622.636364 353.636663 
" clip-path="url(#pb5e7489c93)" style="fill: none; stroke: #9467bd; stroke-width: 1.5; stroke-linecap: square"/>
   </g>
   <g id="line2d_32">
    <path d="M 115.363636 356.927594 
L 119.813397 356.927594 
L 124.263158 356.927594 
L 128.712919 356.927594 
L 133.162679 356.927594 
L 137.61244 356.927594 
L 142.062201 356.927594 
L 146.511962 356.927594 
L 150.961723 356.927594 
L 155.411483 356.927594 
L 159.861244 356.927594 
L 164.311005 356.927594 
L 168.760766 356.927594 
L 173.210526 356.927594 
L 177.660287 356.927594 
L 182.110048 356.927594 
L 186.559809 356.927594 
L 191.009569 356.927594 
L 195.45933 356.927594 
L 199.909091 356.927594 
L 204.358852 356.927594 
L 208.808612 356.927594 
L 213.258373 356.927594 
L 217.708134 356.927594 
L 222.157895 356.927594 
L 226.607656 356.927594 
L 231.057416 356.927594 
L 235.507177 356.927594 
L 239.956938 356.927594 
L 244.406699 356.927594 
L 248.856459 356.927594 
L 253.30622 356.927594 
L 257.755981 356.927594 
L 262.205742 356.927594 
L 266.655502 356.561935 
L 271.105263 356.561935 
L 275.555024 356.561935 
L 280.004785 356.927594 
L 284.454545 356.561935 
L 288.904306 356.561935 
L 293.354067 356.561935 
L 297.803828 356.561935 
L 302.253589 356.561935 
L 306.703349 356.561935 
L 311.15311 356.561935 
L 315.602871 356.561935 
L 320.052632 356.561935 
L 324.502392 356.561935 
L 328.952153 356.561935 
L 333.401914 356.561935 
L 337.851675 356.561935 
L 342.301435 356.561935 
L 346.751196 356.561935 
L 351.200957 356.561935 
L 355.650718 356.561935 
L 360.100478 356.561935 
L 364.550239 356.561935 
L 369 356.561935 
L 373.449761 356.561935 
L 377.899522 356.561935 
L 382.349282 356.561935 
L 386.799043 356.561935 
L 391.248804 356.561935 
L 395.698565 356.561935 
L 400.148325 356.561935 
L 404.598086 356.561935 
L 409.047847 356.561935 
L 413.497608 356.561935 
L 417.947368 356.561935 
L 422.397129 356.561935 
L 426.84689 356.561935 
L 431.296651 356.561935 
L 435.746411 356.561935 
L 440.196172 356.561935 
L 444.645933 356.196276 
L 449.095694 356.196276 
L 453.545455 356.561935 
L 457.995215 356.561935 
L 462.444976 356.561935 
L 466.894737 356.561935 
L 471.344498 356.561935 
L 475.794258 356.561935 
L 480.244019 356.561935 
L 484.69378 356.561935 
L 489.143541 356.561935 
L 493.593301 356.561935 
L 498.043062 356.561935 
L 502.492823 356.561935 
L 506.942584 356.561935 
L 511.392345 356.561935 
L 515.842105 356.561935 
L 520.291866 356.561935 
L 524.741627 356.561935 
L 529.191388 356.561935 
L 533.641148 356.561935 
L 538.090909 356.561935 
L 542.54067 356.196276 
L 546.990431 356.196276 
L 551.440191 356.196276 
L 555.889952 356.196276 
L 560.339713 356.196276 
L 564.789474 356.196276 
L 569.239234 356.196276 
L 573.688995 356.196276 
L 578.138756 356.196276 
L 582.588517 356.196276 
L 587.038278 356.196276 
L 591.488038 356.196276 
L 595.937799 356.196276 
L 600.38756 356.196276 
L 604.837321 356.196276 
L 609.287081 356.196276 
L 613.736842 356.196276 
L 618.186603 356.196276 
L 622.636364 356.196276 
" clip-path="url(#pb5e7489c93)" style="fill: none; stroke: #8c564b; stroke-width: 1.5; stroke-linecap: square"/>
   </g>
   <g id="line2d_33">
    <path d="M 115.363636 211.760967 
L 119.813397 211.029649 
L 124.263158 209.932672 
L 128.712919 209.201354 
L 133.162679 207.373059 
L 137.61244 206.276082 
L 142.062201 204.813446 
L 146.511962 203.35081 
L 150.961723 201.888174 
L 155.411483 200.059879 
L 159.861244 199.328561 
L 164.311005 198.597243 
L 168.760766 197.865925 
L 173.210526 196.768948 
L 177.660287 194.209335 
L 182.110048 192.746699 
L 186.559809 191.649722 
L 191.009569 189.821427 
L 195.45933 188.358791 
L 199.909091 185.799178 
L 204.358852 184.702201 
L 208.808612 183.605224 
L 213.258373 181.045611 
L 217.708134 179.948634 
L 222.157895 178.851657 
L 226.607656 178.120339 
L 231.057416 175.560726 
L 235.507177 173.001112 
L 239.956938 171.172817 
L 244.406699 171.172817 
L 248.856459 169.710181 
L 253.30622 167.516227 
L 257.755981 166.41925 
L 262.205742 164.956614 
L 266.655502 164.590955 
L 271.105263 162.76266 
L 275.555024 161.665683 
L 280.004785 160.203047 
L 284.454545 156.912116 
L 288.904306 155.44948 
L 293.354067 154.352503 
L 297.803828 152.889867 
L 302.253589 152.524208 
L 306.703349 151.427231 
L 311.15311 151.061572 
L 315.602871 150.330254 
L 320.052632 148.867618 
L 324.502392 148.1363 
L 328.952153 146.673664 
L 333.401914 145.942346 
L 337.851675 144.114051 
L 342.301435 144.114051 
L 346.751196 141.920097 
L 351.200957 141.188779 
L 355.650718 140.457461 
L 360.100478 138.994825 
L 364.550239 137.532189 
L 369 136.435212 
L 373.449761 135.703894 
L 377.899522 134.972576 
L 382.349282 134.606917 
L 386.799043 133.875599 
L 391.248804 133.875599 
L 395.698565 133.875599 
L 400.148325 133.144281 
L 404.598086 132.047304 
L 409.047847 131.681644 
L 413.497608 129.853349 
L 417.947368 129.48769 
L 422.397129 128.025054 
L 426.84689 126.928077 
L 431.296651 126.196759 
L 435.746411 124.734123 
L 440.196172 123.271487 
L 444.645933 121.808851 
L 449.095694 121.443192 
L 453.545455 121.077533 
L 457.995215 120.711874 
L 462.444976 118.883579 
L 466.894737 117.786602 
L 471.344498 117.055284 
L 475.794258 115.958307 
L 480.244019 114.495671 
L 484.69378 113.398694 
L 489.143541 112.667376 
L 493.593301 112.667376 
L 498.043062 111.936058 
L 502.492823 111.936058 
L 506.942584 111.570399 
L 511.392345 111.570399 
L 515.842105 110.107763 
L 520.291866 107.54815 
L 524.741627 106.085514 
L 529.191388 103.89156 
L 533.641148 101.697606 
L 538.090909 99.869311 
L 542.54067 98.041016 
L 546.990431 96.57838 
L 551.440191 95.481403 
L 555.889952 94.384426 
L 560.339713 94.018767 
L 564.789474 93.653108 
L 569.239234 92.190472 
L 573.688995 91.459154 
L 578.138756 89.996518 
L 582.588517 88.533881 
L 587.038278 86.705586 
L 591.488038 84.511632 
L 595.937799 83.414655 
L 600.38756 80.123724 
L 604.837321 78.295429 
L 609.287081 76.101475 
L 613.736842 72.444885 
L 618.186603 69.519613 
L 622.636364 66.96 
" clip-path="url(#pb5e7489c93)" style="fill: none; stroke: #e377c2; stroke-width: 1.5; stroke-linecap: square"/>
   </g>
   <g id="line2d_34">
    <path d="M 115.363636 291.474631 
L 119.813397 291.474631 
L 124.263158 291.474631 
L 128.712919 291.474631 
L 133.162679 291.474631 
L 137.61244 290.743313 
L 142.062201 290.743313 
L 146.511962 290.743313 
L 150.961723 290.743313 
L 155.411483 290.743313 
L 159.861244 290.743313 
L 164.311005 290.743313 
L 168.760766 290.743313 
L 173.210526 290.743313 
L 177.660287 290.743313 
L 182.110048 290.377654 
L 186.559809 290.377654 
L 191.009569 290.377654 
L 195.45933 290.011995 
L 199.909091 290.011995 
L 204.358852 290.011995 
L 208.808612 290.011995 
L 213.258373 290.011995 
L 217.708134 290.011995 
L 222.157895 289.646336 
L 226.607656 287.086723 
L 231.057416 287.086723 
L 235.507177 287.086723 
L 239.956938 287.086723 
L 244.406699 287.086723 
L 248.856459 287.086723 
L 253.30622 287.086723 
L 257.755981 287.086723 
L 262.205742 286.721064 
L 266.655502 286.721064 
L 271.105263 286.721064 
L 275.555024 286.721064 
L 280.004785 286.721064 
L 284.454545 286.721064 
L 288.904306 286.355405 
L 293.354067 286.355405 
L 297.803828 285.989746 
L 302.253589 285.989746 
L 306.703349 285.989746 
L 311.15311 285.624087 
L 315.602871 285.624087 
L 320.052632 285.624087 
L 324.502392 285.624087 
L 328.952153 285.624087 
L 333.401914 285.624087 
L 337.851675 285.624087 
L 342.301435 285.624087 
L 346.751196 285.258428 
L 351.200957 285.258428 
L 355.650718 285.258428 
L 360.100478 285.258428 
L 364.550239 284.892769 
L 369 284.892769 
L 373.449761 284.892769 
L 377.899522 284.892769 
L 382.349282 284.892769 
L 386.799043 284.892769 
L 391.248804 284.892769 
L 395.698565 284.52711 
L 400.148325 284.161451 
L 404.598086 284.161451 
L 409.047847 284.161451 
L 413.497608 284.161451 
L 417.947368 283.795792 
L 422.397129 283.795792 
L 426.84689 283.795792 
L 431.296651 283.795792 
L 435.746411 283.795792 
L 440.196172 283.795792 
L 444.645933 283.795792 
L 449.095694 283.795792 
L 453.545455 283.795792 
L 457.995215 283.795792 
L 462.444976 283.795792 
L 466.894737 283.430133 
L 471.344498 283.430133 
L 475.794258 283.430133 
L 480.244019 283.430133 
L 484.69378 283.430133 
L 489.143541 283.430133 
L 493.593301 283.430133 
L 498.043062 283.430133 
L 502.492823 283.064474 
L 506.942584 283.064474 
L 511.392345 283.064474 
L 515.842105 283.064474 
L 520.291866 282.698815 
L 524.741627 282.333156 
L 529.191388 282.333156 
L 533.641148 282.333156 
L 538.090909 282.333156 
L 542.54067 282.333156 
L 546.990431 282.333156 
L 551.440191 282.333156 
L 555.889952 282.333156 
L 560.339713 281.967497 
L 564.789474 281.967497 
L 569.239234 281.601838 
L 573.688995 281.601838 
L 578.138756 281.601838 
L 582.588517 281.601838 
L 587.038278 281.601838 
L 591.488038 281.601838 
L 595.937799 281.601838 
L 600.38756 281.236179 
L 604.837321 281.236179 
L 609.287081 280.87052 
L 613.736842 280.87052 
L 618.186603 280.504861 
L 622.636364 280.504861 
" clip-path="url(#pb5e7489c93)" style="fill: none; stroke: #7f7f7f; stroke-width: 1.5; stroke-linecap: square"/>
   </g>
   <g id="line2d_35">
    <path d="M 115.363636 349.248755 
L 119.813397 349.248755 
L 124.263158 349.248755 
L 128.712919 349.248755 
L 133.162679 349.248755 
L 137.61244 349.248755 
L 142.062201 349.248755 
L 146.511962 349.248755 
L 150.961723 349.248755 
L 155.411483 349.248755 
L 159.861244 349.248755 
L 164.311005 349.248755 
L 168.760766 349.248755 
L 173.210526 349.248755 
L 177.660287 349.248755 
L 182.110048 349.248755 
L 186.559809 349.248755 
L 191.009569 349.248755 
L 195.45933 349.248755 
L 199.909091 349.248755 
L 204.358852 349.248755 
L 208.808612 349.248755 
L 213.258373 349.248755 
L 217.708134 349.248755 
L 222.157895 349.248755 
L 226.607656 349.248755 
L 231.057416 349.248755 
L 235.507177 349.248755 
L 239.956938 349.248755 
L 244.406699 349.248755 
L 248.856459 349.248755 
L 253.30622 349.248755 
L 257.755981 349.248755 
L 262.205742 349.248755 
L 266.655502 349.248755 
L 271.105263 349.248755 
L 275.555024 349.248755 
L 280.004785 349.248755 
L 284.454545 349.248755 
L 288.904306 349.248755 
L 293.354067 349.248755 
L 297.803828 349.248755 
L 302.253589 349.248755 
L 306.703349 349.248755 
L 311.15311 349.248755 
L 315.602871 349.248755 
L 320.052632 349.248755 
L 324.502392 349.248755 
L 328.952153 349.248755 
L 333.401914 349.248755 
L 337.851675 349.248755 
L 342.301435 349.248755 
L 346.751196 349.248755 
L 351.200957 349.248755 
L 355.650718 349.248755 
L 360.100478 349.248755 
L 364.550239 349.248755 
L 369 349.248755 
L 373.449761 349.248755 
L 377.899522 349.248755 
L 382.349282 349.248755 
L 386.799043 349.248755 
L 391.248804 349.248755 
L 395.698565 349.248755 
L 400.148325 349.248755 
L 404.598086 349.248755 
L 409.047847 349.248755 
L 413.497608 349.248755 
L 417.947368 349.248755 
L 422.397129 349.248755 
L 426.84689 349.248755 
L 431.296651 349.248755 
L 435.746411 349.248755 
L 440.196172 349.248755 
L 444.645933 349.248755 
L 449.095694 349.248755 
L 453.545455 349.248755 
L 457.995215 349.248755 
L 462.444976 349.248755 
L 466.894737 349.248755 
L 471.344498 349.248755 
L 475.794258 349.248755 
L 480.244019 349.248755 
L 484.69378 349.248755 
L 489.143541 349.248755 
L 493.593301 349.248755 
L 498.043062 349.248755 
L 502.492823 349.248755 
L 506.942584 349.248755 
L 511.392345 349.248755 
L 515.842105 349.248755 
L 520.291866 349.248755 
L 524.741627 349.248755 
L 529.191388 349.248755 
L 533.641148 349.248755 
L 538.090909 349.248755 
L 542.54067 349.248755 
L 546.990431 349.248755 
L 551.440191 349.248755 
L 555.889952 349.248755 
L 560.339713 349.248755 
L 564.789474 349.248755 
L 569.239234 349.248755 
L 573.688995 349.248755 
L 578.138756 349.248755 
L 582.588517 349.248755 
L 587.038278 349.248755 
L 591.488038 349.248755 
L 595.937799 349.248755 
L 600.38756 349.248755 
L 604.837321 349.248755 
L 609.287081 349.248755 
L 613.736842 349.248755 
L 618.186603 349.248755 
L 622.636364 349.248755 
" clip-path="url(#pb5e7489c93)" style="fill: none; stroke: #bcbd22; stroke-width: 1.5; stroke-linecap: square"/>
   </g>
   <g id="line2d_36">
    <path d="M 115.363636 366.069069 
L 119.813397 366.069069 
L 124.263158 366.069069 
L 128.712919 366.069069 
L 133.162679 366.069069 
L 137.61244 366.069069 
L 142.062201 366.069069 
L 146.511962 366.069069 
L 150.961723 366.069069 
L 155.411483 366.069069 
L 159.861244 366.069069 
L 164.311005 366.069069 
L 168.760766 366.069069 
L 173.210526 366.069069 
L 177.660287 366.069069 
L 182.110048 366.069069 
L 186.559809 366.069069 
L 191.009569 366.069069 
L 195.45933 366.069069 
L 199.909091 366.069069 
L 204.358852 366.069069 
L 208.808612 366.069069 
L 213.258373 366.069069 
L 217.708134 366.069069 
L 222.157895 366.069069 
L 226.607656 366.069069 
L 231.057416 366.069069 
L 235.507177 366.069069 
L 239.956938 366.069069 
L 244.406699 366.069069 
L 248.856459 366.069069 
L 253.30622 366.069069 
L 257.755981 366.069069 
L 262.205742 366.069069 
L 266.655502 366.069069 
L 271.105263 366.069069 
L 275.555024 366.069069 
L 280.004785 366.069069 
L 284.454545 366.069069 
L 288.904306 366.069069 
L 293.354067 366.069069 
L 297.803828 366.069069 
L 302.253589 366.069069 
L 306.703349 366.069069 
L 311.15311 366.069069 
L 315.602871 366.069069 
L 320.052632 366.069069 
L 324.502392 366.069069 
L 328.952153 366.069069 
L 333.401914 366.069069 
L 337.851675 366.069069 
L 342.301435 366.069069 
L 346.751196 366.069069 
L 351.200957 366.069069 
L 355.650718 366.069069 
L 360.100478 366.069069 
L 364.550239 366.069069 
L 369 366.069069 
L 373.449761 366.069069 
L 377.899522 366.069069 
L 382.349282 366.069069 
L 386.799043 366.069069 
L 391.248804 366.069069 
L 395.698565 366.069069 
L 400.148325 366.069069 
L 404.598086 366.069069 
L 409.047847 366.069069 
L 413.497608 366.069069 
L 417.947368 366.069069 
L 422.397129 366.069069 
L 426.84689 366.069069 
L 431.296651 366.069069 
L 435.746411 366.069069 
L 440.196172 366.069069 
L 444.645933 366.069069 
L 449.095694 366.069069 
L 453.545455 366.069069 
L 457.995215 366.069069 
L 462.444976 366.069069 
L 466.894737 366.069069 
L 471.344498 366.069069 
L 475.794258 366.069069 
L 480.244019 366.069069 
L 484.69378 366.069069 
L 489.143541 366.069069 
L 493.593301 366.069069 
L 498.043062 366.069069 
L 502.492823 366.069069 
L 506.942584 366.069069 
L 511.392345 366.069069 
L 515.842105 366.069069 
L 520.291866 366.069069 
L 524.741627 366.069069 
L 529.191388 366.069069 
L 533.641148 366.069069 
L 538.090909 366.069069 
L 542.54067 366.069069 
L 546.990431 366.069069 
L 551.440191 366.069069 
L 555.889952 366.069069 
L 560.339713 366.069069 
L 564.789474 366.069069 
L 569.239234 366.069069 
L 573.688995 366.069069 
L 578.138756 366.069069 
L 582.588517 366.069069 
L 587.038278 366.069069 
L 591.488038 366.069069 
L 595.937799 366.069069 
L 600.38756 366.069069 
L 604.837321 366.069069 
L 609.287081 366.069069 
L 613.736842 366.069069 
L 618.186603 366.069069 
L 622.636364 366.069069 
" clip-path="url(#pb5e7489c93)" style="fill: none; stroke: #17becf; stroke-width: 1.5; stroke-linecap: square"/>
   </g>
   <g id="line2d_37">
    <path d="M 115.363636 311.951536 
L 119.813397 311.951536 
L 124.263158 311.951536 
L 128.712919 311.951536 
L 133.162679 311.585877 
L 137.61244 311.220218 
L 142.062201 311.220218 
L 146.511962 311.220218 
L 150.961723 311.220218 
L 155.411483 311.220218 
L 159.861244 311.220218 
L 164.311005 311.220218 
L 168.760766 311.220218 
L 173.210526 311.220218 
L 177.660287 311.220218 
L 182.110048 311.220218 
L 186.559809 311.220218 
L 191.009569 311.220218 
L 195.45933 310.854559 
L 199.909091 310.854559 
L 204.358852 310.4889 
L 208.808612 310.123241 
L 213.258373 310.123241 
L 217.708134 309.757582 
L 222.157895 309.757582 
L 226.607656 309.757582 
L 231.057416 309.391923 
L 235.507177 309.391923 
L 239.956938 309.391923 
L 244.406699 309.391923 
L 248.856459 309.391923 
L 253.30622 309.391923 
L 257.755981 309.391923 
L 262.205742 309.391923 
L 266.655502 309.391923 
L 271.105263 309.391923 
L 275.555024 309.391923 
L 280.004785 309.391923 
L 284.454545 309.391923 
L 288.904306 309.391923 
L 293.354067 309.391923 
L 297.803828 309.391923 
L 302.253589 309.391923 
L 306.703349 309.391923 
L 311.15311 309.391923 
L 315.602871 309.391923 
L 320.052632 309.026264 
L 324.502392 309.026264 
L 328.952153 309.026264 
L 333.401914 308.660605 
L 337.851675 308.660605 
L 342.301435 308.660605 
L 346.751196 307.929287 
L 351.200957 307.929287 
L 355.650718 307.929287 
L 360.100478 307.929287 
L 364.550239 307.929287 
L 369 307.929287 
L 373.449761 307.929287 
L 377.899522 307.563628 
L 382.349282 307.563628 
L 386.799043 307.563628 
L 391.248804 307.563628 
L 395.698565 307.563628 
L 400.148325 307.563628 
L 404.598086 307.563628 
L 409.047847 307.563628 
L 413.497608 307.563628 
L 417.947368 307.563628 
L 422.397129 307.563628 
L 426.84689 307.563628 
L 431.296651 307.563628 
L 435.746411 307.563628 
L 440.196172 307.563628 
L 444.645933 307.563628 
L 449.095694 307.563628 
L 453.545455 307.563628 
L 457.995215 307.563628 
L 462.444976 307.197969 
L 466.894737 307.197969 
L 471.344498 307.197969 
L 475.794258 307.197969 
L 480.244019 307.197969 
L 484.69378 307.197969 
L 489.143541 307.197969 
L 493.593301 307.197969 
L 498.043062 307.197969 
L 502.492823 307.197969 
L 506.942584 307.197969 
L 511.392345 307.197969 
L 515.842105 307.197969 
L 520.291866 307.197969 
L 524.741627 307.197969 
L 529.191388 307.197969 
L 533.641148 307.197969 
L 538.090909 306.83231 
L 542.54067 306.83231 
L 546.990431 306.83231 
L 551.440191 306.83231 
L 555.889952 306.83231 
L 560.339713 306.83231 
L 564.789474 306.83231 
L 569.239234 306.83231 
L 573.688995 306.83231 
L 578.138756 306.83231 
L 582.588517 306.83231 
L 587.038278 306.100992 
L 591.488038 306.100992 
L 595.937799 306.100992 
L 600.38756 306.100992 
L 604.837321 306.100992 
L 609.287081 306.100992 
L 613.736842 306.100992 
L 618.186603 305.735333 
L 622.636364 305.735333 
" clip-path="url(#pb5e7489c93)" style="fill: none; stroke: #1f77b4; stroke-width: 1.5; stroke-linecap: square"/>
   </g>
   <g id="line2d_38">
    <path d="M 115.363636 310.4889 
L 119.813397 310.4889 
L 124.263158 310.4889 
L 128.712919 310.4889 
L 133.162679 310.4889 
L 137.61244 310.4889 
L 142.062201 310.4889 
L 146.511962 310.4889 
L 150.961723 310.4889 
L 155.411483 310.4889 
L 159.861244 310.4889 
L 164.311005 310.4889 
L 168.760766 310.4889 
L 173.210526 310.4889 
L 177.660287 310.4889 
L 182.110048 310.4889 
L 186.559809 310.4889 
L 191.009569 310.123241 
L 195.45933 310.123241 
L 199.909091 310.123241 
L 204.358852 310.123241 
L 208.808612 310.123241 
L 213.258373 310.123241 
L 217.708134 310.123241 
L 222.157895 310.123241 
L 226.607656 310.123241 
L 231.057416 310.123241 
L 235.507177 310.123241 
L 239.956938 309.757582 
L 244.406699 309.757582 
L 248.856459 309.757582 
L 253.30622 309.757582 
L 257.755981 309.757582 
L 262.205742 309.757582 
L 266.655502 309.757582 
L 271.105263 309.391923 
L 275.555024 309.391923 
L 280.004785 309.391923 
L 284.454545 309.391923 
L 288.904306 309.391923 
L 293.354067 309.391923 
L 297.803828 309.391923 
L 302.253589 309.391923 
L 306.703349 309.391923 
L 311.15311 309.391923 
L 315.602871 309.391923 
L 320.052632 309.391923 
L 324.502392 309.391923 
L 328.952153 309.391923 
L 333.401914 309.391923 
L 337.851675 309.391923 
L 342.301435 309.391923 
L 346.751196 309.026264 
L 351.200957 309.026264 
L 355.650718 309.026264 
L 360.100478 309.026264 
L 364.550239 309.026264 
L 369 308.660605 
L 373.449761 308.660605 
L 377.899522 308.660605 
L 382.349282 308.660605 
L 386.799043 308.660605 
L 391.248804 308.660605 
L 395.698565 308.660605 
L 400.148325 308.660605 
L 404.598086 308.660605 
L 409.047847 308.660605 
L 413.497608 308.294946 
L 417.947368 308.294946 
L 422.397129 307.929287 
L 426.84689 307.929287 
L 431.296651 307.929287 
L 435.746411 307.929287 
L 440.196172 307.929287 
L 444.645933 307.929287 
L 449.095694 307.563628 
L 453.545455 307.563628 
L 457.995215 307.197969 
L 462.444976 307.197969 
L 466.894737 307.197969 
L 471.344498 307.197969 
L 475.794258 307.197969 
L 480.244019 307.197969 
L 484.69378 307.197969 
L 489.143541 307.197969 
L 493.593301 307.197969 
L 498.043062 307.197969 
L 502.492823 307.197969 
L 506.942584 307.197969 
L 511.392345 307.197969 
L 515.842105 307.197969 
L 520.291866 307.197969 
L 524.741627 307.197969 
L 529.191388 307.197969 
L 533.641148 306.83231 
L 538.090909 306.83231 
L 542.54067 306.83231 
L 546.990431 306.83231 
L 551.440191 306.83231 
L 555.889952 306.83231 
L 560.339713 306.83231 
L 564.789474 306.83231 
L 569.239234 306.83231 
L 573.688995 306.83231 
L 578.138756 306.83231 
L 582.588517 306.83231 
L 587.038278 306.83231 
L 591.488038 306.83231 
L 595.937799 306.83231 
L 600.38756 306.83231 
L 604.837321 306.83231 
L 609.287081 306.83231 
L 613.736842 306.83231 
L 618.186603 306.466651 
L 622.636364 306.466651 
" clip-path="url(#pb5e7489c93)" style="fill: none; stroke: #ff7f0e; stroke-width: 1.5; stroke-linecap: square"/>
   </g>
   <g id="patch_3">
    <path d="M 90 384.48 
L 90 51.84 
" style="fill: none; stroke: #000000; stroke-width: 0.8; stroke-linejoin: miter; stroke-linecap: square"/>
   </g>
   <g id="patch_4">
    <path d="M 648 384.48 
L 648 51.84 
" style="fill: none; stroke: #000000; stroke-width: 0.8; stroke-linejoin: miter; stroke-linecap: square"/>
   </g>
   <g id="patch_5">
    <path d="M 90 384.48 
L 648 384.48 
" style="fill: none; stroke: #000000; stroke-width: 0.8; stroke-linejoin: miter; stroke-linecap: square"/>
   </g>
   <g id="patch_6">
    <path d="M 90 51.84 
L 648 51.84 
" style="fill: none; stroke: #000000; stroke-width: 0.8; stroke-linejoin: miter; stroke-linecap: square"/>
   </g>
   <g id="text_16">
    <!-- Time Series of Votes for Each Keyword -->
    <g transform="translate(253.716563 45.84) scale(0.12 -0.12)">
     <defs>
      <path id="DejaVuSans-53" d="M 3425 4513 
L 3425 3897 
Q 3066 4069 2747 4153 
Q 2428 4238 2131 4238 
Q 1616 4238 1336 4038 
Q 1056 3838 1056 3469 
Q 1056 3159 1242 3001 
Q 1428 2844 1947 2747 
L 2328 2669 
Q 3034 2534 3370 2195 
Q 3706 1856 3706 1288 
Q 3706 609 3251 259 
Q 2797 -91 1919 -91 
Q 1588 -91 1214 -16 
Q 841 59 441 206 
L 441 856 
Q 825 641 1194 531 
Q 1563 422 1919 422 
Q 2459 422 2753 634 
Q 3047 847 3047 1241 
Q 3047 1584 2836 1778 
Q 2625 1972 2144 2069 
L 1759 2144 
Q 1053 2284 737 2584 
Q 422 2884 422 3419 
Q 422 4038 858 4394 
Q 1294 4750 2059 4750 
Q 2388 4750 2728 4690 
Q 3069 4631 3425 4513 
z
" transform="scale(0.015625)"/>
      <path id="DejaVuSans-72" d="M 2631 2963 
Q 2534 3019 2420 3045 
Q 2306 3072 2169 3072 
Q 1681 3072 1420 2755 
Q 1159 2438 1159 1844 
L 1159 0 
L 581 0 
L 581 3500 
L 1159 3500 
L 1159 2956 
Q 1341 3275 1631 3429 
Q 1922 3584 2338 3584 
Q 2397 3584 2469 3576 
Q 2541 3569 2628 3553 
L 2631 2963 
z
" transform="scale(0.015625)"/>
      <path id="DejaVuSans-66" d="M 2375 4863 
L 2375 4384 
L 1825 4384 
Q 1516 4384 1395 4259 
Q 1275 4134 1275 3809 
L 1275 3500 
L 2222 3500 
L 2222 3053 
L 1275 3053 
L 1275 0 
L 697 0 
L 697 3053 
L 147 3053 
L 147 3500 
L 697 3500 
L 697 3744 
Q 697 4328 969 4595 
Q 1241 4863 1831 4863 
L 2375 4863 
z
" transform="scale(0.015625)"/>
      <path id="DejaVuSans-45" d="M 628 4666 
L 3578 4666 
L 3578 4134 
L 1259 4134 
L 1259 2753 
L 3481 2753 
L 3481 2222 
L 1259 2222 
L 1259 531 
L 3634 531 
L 3634 0 
L 628 0 
L 628 4666 
z
" transform="scale(0.015625)"/>
      <path id="DejaVuSans-63" d="M 3122 3366 
L 3122 2828 
Q 2878 2963 2633 3030 
Q 2388 3097 2138 3097 
Q 1578 3097 1268 2742 
Q 959 2388 959 1747 
Q 959 1106 1268 751 
Q 1578 397 2138 397 
Q 2388 397 2633 464 
Q 2878 531 3122 666 
L 3122 134 
Q 2881 22 2623 -34 
Q 2366 -91 2075 -91 
Q 1284 -91 818 406 
Q 353 903 353 1747 
Q 353 2603 823 3093 
Q 1294 3584 2113 3584 
Q 2378 3584 2631 3529 
Q 2884 3475 3122 3366 
z
" transform="scale(0.015625)"/>
      <path id="DejaVuSans-68" d="M 3513 2113 
L 3513 0 
L 2938 0 
L 2938 2094 
Q 2938 2591 2744 2837 
Q 2550 3084 2163 3084 
Q 1697 3084 1428 2787 
Q 1159 2491 1159 1978 
L 1159 0 
L 581 0 
L 581 4863 
L 1159 4863 
L 1159 2956 
Q 1366 3272 1645 3428 
Q 1925 3584 2291 3584 
Q 2894 3584 3203 3211 
Q 3513 2838 3513 2113 
z
" transform="scale(0.015625)"/>
      <path id="DejaVuSans-4b" d="M 628 4666 
L 1259 4666 
L 1259 2694 
L 3353 4666 
L 4166 4666 
L 1850 2491 
L 4331 0 
L 3500 0 
L 1259 2247 
L 1259 0 
L 628 0 
L 628 4666 
z
" transform="scale(0.015625)"/>
      <path id="DejaVuSans-79" d="M 2059 -325 
Q 1816 -950 1584 -1140 
Q 1353 -1331 966 -1331 
L 506 -1331 
L 506 -850 
L 844 -850 
Q 1081 -850 1212 -737 
Q 1344 -625 1503 -206 
L 1606 56 
L 191 3500 
L 800 3500 
L 1894 763 
L 2988 3500 
L 3597 3500 
L 2059 -325 
z
" transform="scale(0.015625)"/>
      <path id="DejaVuSans-77" d="M 269 3500 
L 844 3500 
L 1563 769 
L 2278 3500 
L 2956 3500 
L 3675 769 
L 4391 3500 
L 4966 3500 
L 4050 0 
L 3372 0 
L 2619 2869 
L 1863 0 
L 1184 0 
L 269 3500 
z
" transform="scale(0.015625)"/>
     </defs>
     <use xlink:href="#DejaVuSans-54"/>
     <use xlink:href="#DejaVuSans-69" transform="translate(57.958984 0)"/>
     <use xlink:href="#DejaVuSans-6d" transform="translate(85.742188 0)"/>
     <use xlink:href="#DejaVuSans-65" transform="translate(183.154297 0)"/>
     <use xlink:href="#DejaVuSans-20" transform="translate(244.677734 0)"/>
     <use xlink:href="#DejaVuSans-53" transform="translate(276.464844 0)"/>
     <use xlink:href="#DejaVuSans-65" transform="translate(339.941406 0)"/>
     <use xlink:href="#DejaVuSans-72" transform="translate(401.464844 0)"/>
     <use xlink:href="#DejaVuSans-69" transform="translate(442.578125 0)"/>
     <use xlink:href="#DejaVuSans-65" transform="translate(470.361328 0)"/>
     <use xlink:href="#DejaVuSans-73" transform="translate(531.884766 0)"/>
     <use xlink:href="#DejaVuSans-20" transform="translate(583.984375 0)"/>
     <use xlink:href="#DejaVuSans-6f" transform="translate(615.771484 0)"/>
     <use xlink:href="#DejaVuSans-66" transform="translate(676.953125 0)"/>
     <use xlink:href="#DejaVuSans-20" transform="translate(712.158203 0)"/>
     <use xlink:href="#DejaVuSans-56" transform="translate(743.945312 0)"/>
     <use xlink:href="#DejaVuSans-6f" transform="translate(804.603516 0)"/>
     <use xlink:href="#DejaVuSans-74" transform="translate(865.785156 0)"/>
     <use xlink:href="#DejaVuSans-65" transform="translate(904.994141 0)"/>
     <use xlink:href="#DejaVuSans-73" transform="translate(966.517578 0)"/>
     <use xlink:href="#DejaVuSans-20" transform="translate(1018.617188 0)"/>
     <use xlink:href="#DejaVuSans-66" transform="translate(1050.404297 0)"/>
     <use xlink:href="#DejaVuSans-6f" transform="translate(1085.609375 0)"/>
     <use xlink:href="#DejaVuSans-72" transform="translate(1146.791016 0)"/>
     <use xlink:href="#DejaVuSans-20" transform="translate(1187.904297 0)"/>
     <use xlink:href="#DejaVuSans-45" transform="translate(1219.691406 0)"/>
     <use xlink:href="#DejaVuSans-61" transform="translate(1282.875 0)"/>
     <use xlink:href="#DejaVuSans-63" transform="translate(1344.154297 0)"/>
     <use xlink:href="#DejaVuSans-68" transform="translate(1399.134766 0)"/>
     <use xlink:href="#DejaVuSans-20" transform="translate(1462.513672 0)"/>
     <use xlink:href="#DejaVuSans-4b" transform="translate(1494.300781 0)"/>
     <use xlink:href="#DejaVuSans-65" transform="translate(1554.876953 0)"/>
     <use xlink:href="#DejaVuSans-79" transform="translate(1616.400391 0)"/>
     <use xlink:href="#DejaVuSans-77" transform="translate(1675.580078 0)"/>
     <use xlink:href="#DejaVuSans-6f" transform="translate(1757.367188 0)"/>
     <use xlink:href="#DejaVuSans-72" transform="translate(1818.548828 0)"/>
     <use xlink:href="#DejaVuSans-64" transform="translate(1857.912109 0)"/>
    </g>
   </g>
   <g id="legend_1">
    <g id="patch_7">
     <path d="M 97 379.48 
L 149.245313 379.48 
Q 151.245313 379.48 151.245313 377.48 
L 151.245313 202.3425 
Q 151.245313 200.3425 149.245313 200.3425 
L 97 200.3425 
Q 95 200.3425 95 202.3425 
L 95 377.48 
Q 95 379.48 97 379.48 
z
" style="fill: #ffffff; opacity: 0.8; stroke: #cccccc; stroke-linejoin: miter"/>
    </g>
    <g id="line2d_39">
     <path d="M 99 208.440938 
L 109 208.440938 
L 119 208.440938 
" style="fill: none; stroke: #1f77b4; stroke-width: 1.5; stroke-linecap: square"/>
    </g>
    <g id="text_17">
     <!-- H01 -->
     <g transform="translate(127 211.940938) scale(0.1 -0.1)">
      <defs>
       <path id="DejaVuSans-48" d="M 628 4666 
L 1259 4666 
L 1259 2753 
L 3553 2753 
L 3553 4666 
L 4184 4666 
L 4184 0 
L 3553 0 
L 3553 2222 
L 1259 2222 
L 1259 0 
L 628 0 
L 628 4666 
z
" transform="scale(0.015625)"/>
      </defs>
      <use xlink:href="#DejaVuSans-48"/>
      <use xlink:href="#DejaVuSans-30" transform="translate(75.195312 0)"/>
      <use xlink:href="#DejaVuSans-31" transform="translate(138.818359 0)"/>
     </g>
    </g>
    <g id="line2d_40">
     <path d="M 99 223.119063 
L 109 223.119063 
L 119 223.119063 
" style="fill: none; stroke: #ff7f0e; stroke-width: 1.5; stroke-linecap: square"/>
    </g>
    <g id="text_18">
     <!-- H02 -->
     <g transform="translate(127 226.619063) scale(0.1 -0.1)">
      <use xlink:href="#DejaVuSans-48"/>
      <use xlink:href="#DejaVuSans-30" transform="translate(75.195312 0)"/>
      <use xlink:href="#DejaVuSans-32" transform="translate(138.818359 0)"/>
     </g>
    </g>
    <g id="line2d_41">
     <path d="M 99 237.797188 
L 109 237.797188 
L 119 237.797188 
" style="fill: none; stroke: #2ca02c; stroke-width: 1.5; stroke-linecap: square"/>
    </g>
    <g id="text_19">
     <!-- H03 -->
     <g transform="translate(127 241.297188) scale(0.1 -0.1)">
      <use xlink:href="#DejaVuSans-48"/>
      <use xlink:href="#DejaVuSans-30" transform="translate(75.195312 0)"/>
      <use xlink:href="#DejaVuSans-33" transform="translate(138.818359 0)"/>
     </g>
    </g>
    <g id="line2d_42">
     <path d="M 99 252.475313 
L 109 252.475313 
L 119 252.475313 
" style="fill: none; stroke: #d62728; stroke-width: 1.5; stroke-linecap: square"/>
    </g>
    <g id="text_20">
     <!-- H04 -->
     <g transform="translate(127 255.975313) scale(0.1 -0.1)">
      <use xlink:href="#DejaVuSans-48"/>
      <use xlink:href="#DejaVuSans-30" transform="translate(75.195312 0)"/>
      <use xlink:href="#DejaVuSans-34" transform="translate(138.818359 0)"/>
     </g>
    </g>
    <g id="line2d_43">
     <path d="M 99 267.153438 
L 109 267.153438 
L 119 267.153438 
" style="fill: none; stroke: #9467bd; stroke-width: 1.5; stroke-linecap: square"/>
    </g>
    <g id="text_21">
     <!-- H05 -->
     <g transform="translate(127 270.653438) scale(0.1 -0.1)">
      <use xlink:href="#DejaVuSans-48"/>
      <use xlink:href="#DejaVuSans-30" transform="translate(75.195312 0)"/>
      <use xlink:href="#DejaVuSans-35" transform="translate(138.818359 0)"/>
     </g>
    </g>
    <g id="line2d_44">
     <path d="M 99 281.831563 
L 109 281.831563 
L 119 281.831563 
" style="fill: none; stroke: #8c564b; stroke-width: 1.5; stroke-linecap: square"/>
    </g>
    <g id="text_22">
     <!-- H06 -->
     <g transform="translate(127 285.331563) scale(0.1 -0.1)">
      <use xlink:href="#DejaVuSans-48"/>
      <use xlink:href="#DejaVuSans-30" transform="translate(75.195312 0)"/>
      <use xlink:href="#DejaVuSans-36" transform="translate(138.818359 0)"/>
     </g>
    </g>
    <g id="line2d_45">
     <path d="M 99 296.509688 
L 109 296.509688 
L 119 296.509688 
" style="fill: none; stroke: #e377c2; stroke-width: 1.5; stroke-linecap: square"/>
    </g>
    <g id="text_23">
     <!-- H07 -->
     <g transform="translate(127 300.009688) scale(0.1 -0.1)">
      <defs>
       <path id="DejaVuSans-37" d="M 525 4666 
L 3525 4666 
L 3525 4397 
L 1831 0 
L 1172 0 
L 2766 4134 
L 525 4134 
L 525 4666 
z
" transform="scale(0.015625)"/>
      </defs>
      <use xlink:href="#DejaVuSans-48"/>
      <use xlink:href="#DejaVuSans-30" transform="translate(75.195312 0)"/>
      <use xlink:href="#DejaVuSans-37" transform="translate(138.818359 0)"/>
     </g>
    </g>
    <g id="line2d_46">
     <path d="M 99 311.187813 
L 109 311.187813 
L 119 311.187813 
" style="fill: none; stroke: #7f7f7f; stroke-width: 1.5; stroke-linecap: square"/>
    </g>
    <g id="text_24">
     <!-- H08 -->
     <g transform="translate(127 314.687813) scale(0.1 -0.1)">
      <use xlink:href="#DejaVuSans-48"/>
      <use xlink:href="#DejaVuSans-30" transform="translate(75.195312 0)"/>
      <use xlink:href="#DejaVuSans-38" transform="translate(138.818359 0)"/>
     </g>
    </g>
    <g id="line2d_47">
     <path d="M 99 325.865938 
L 109 325.865938 
L 119 325.865938 
" style="fill: none; stroke: #bcbd22; stroke-width: 1.5; stroke-linecap: square"/>
    </g>
    <g id="text_25">
     <!-- H09 -->
     <g transform="translate(127 329.365938) scale(0.1 -0.1)">
      <defs>
       <path id="DejaVuSans-39" d="M 703 97 
L 703 672 
Q 941 559 1184 500 
Q 1428 441 1663 441 
Q 2288 441 2617 861 
Q 2947 1281 2994 2138 
Q 2813 1869 2534 1725 
Q 2256 1581 1919 1581 
Q 1219 1581 811 2004 
Q 403 2428 403 3163 
Q 403 3881 828 4315 
Q 1253 4750 1959 4750 
Q 2769 4750 3195 4129 
Q 3622 3509 3622 2328 
Q 3622 1225 3098 567 
Q 2575 -91 1691 -91 
Q 1453 -91 1209 -44 
Q 966 3 703 97 
z
M 1959 2075 
Q 2384 2075 2632 2365 
Q 2881 2656 2881 3163 
Q 2881 3666 2632 3958 
Q 2384 4250 1959 4250 
Q 1534 4250 1286 3958 
Q 1038 3666 1038 3163 
Q 1038 2656 1286 2365 
Q 1534 2075 1959 2075 
z
" transform="scale(0.015625)"/>
      </defs>
      <use xlink:href="#DejaVuSans-48"/>
      <use xlink:href="#DejaVuSans-30" transform="translate(75.195312 0)"/>
      <use xlink:href="#DejaVuSans-39" transform="translate(138.818359 0)"/>
     </g>
    </g>
    <g id="line2d_48">
     <path d="M 99 340.544062 
L 109 340.544062 
L 119 340.544062 
" style="fill: none; stroke: #17becf; stroke-width: 1.5; stroke-linecap: square"/>
    </g>
    <g id="text_26">
     <!-- H10 -->
     <g transform="translate(127 344.044062) scale(0.1 -0.1)">
      <use xlink:href="#DejaVuSans-48"/>
      <use xlink:href="#DejaVuSans-31" transform="translate(75.195312 0)"/>
      <use xlink:href="#DejaVuSans-30" transform="translate(138.818359 0)"/>
     </g>
    </g>
    <g id="line2d_49">
     <path d="M 99 355.222188 
L 109 355.222188 
L 119 355.222188 
" style="fill: none; stroke: #1f77b4; stroke-width: 1.5; stroke-linecap: square"/>
    </g>
    <g id="text_27">
     <!-- H11 -->
     <g transform="translate(127 358.722188) scale(0.1 -0.1)">
      <use xlink:href="#DejaVuSans-48"/>
      <use xlink:href="#DejaVuSans-31" transform="translate(75.195312 0)"/>
      <use xlink:href="#DejaVuSans-31" transform="translate(138.818359 0)"/>
     </g>
    </g>
    <g id="line2d_50">
     <path d="M 99 369.900312 
L 109 369.900312 
L 119 369.900312 
" style="fill: none; stroke: #ff7f0e; stroke-width: 1.5; stroke-linecap: square"/>
    </g>
    <g id="text_28">
     <!-- H12 -->
     <g transform="translate(127 373.400312) scale(0.1 -0.1)">
      <use xlink:href="#DejaVuSans-48"/>
      <use xlink:href="#DejaVuSans-31" transform="translate(75.195312 0)"/>
      <use xlink:href="#DejaVuSans-32" transform="translate(138.818359 0)"/>
     </g>
    </g>
   </g>
  </g>
 </g>
 <defs>
  <clipPath id="pb5e7489c93">
   <rect x="90" y="51.84" width="558" height="332.64"/>
  </clipPath>
 </defs>
</svg>
