<?xml version="1.0" encoding="utf-8" standalone="no"?>
<!DOCTYPE svg PUBLIC "-//W3C//DTD SVG 1.1//EN"
  "http://www.w3.org/Graphics/SVG/1.1/DTD/svg11.dtd">
<svg xmlns:xlink="http://www.w3.org/1999/xlink" width="720pt" height="432pt" viewBox="0 0 720 432" xmlns="http://www.w3.org/2000/svg" version="1.1">
 <metadata>
  <rdf:RDF xmlns:dc="http://purl.org/dc/elements/1.1/" xmlns:cc="http://creativecommons.org/ns#" xmlns:rdf="http://www.w3.org/1999/02/22-rdf-syntax-ns#">
   <cc:Work>
    <dc:type rdf:resource="http://purl.org/dc/dcmitype/StillImage"/>
    <dc:date>2025-01-14T20:38:17.937339</dc:date>
    <dc:format>image/svg+xml</dc:format>
    <dc:creator>
     <cc:Agent>
      <dc:title>Matplotlib v3.10.0, https://matplotlib.org/</dc:title>
     </cc:Agent>
    </dc:creator>
   </cc:Work>
  </rdf:RDF>
 </metadata>
 <defs>
  <style type="text/css">*{stroke-linejoin: round; stroke-linecap: butt}</style>
 </defs>
 <g id="figure_1">
  <g id="patch_1">
   <path d="M 0 432 
L 720 432 
L 720 0 
L 0 0 
z
" style="fill: #ffffff"/>
  </g>
  <g id="axes_1">
   <g id="patch_2">
    <path d="M 90 384.48 
L 648 384.48 
L 648 51.84 
L 90 51.84 
z
" style="fill: #ffffff"/>
   </g>
   <g id="matplotlib.axis_1">
    <g id="xtick_1">
     <g id="line2d_1">
      <path d="M 147.666381 384.48 
L 147.666381 51.84 
" clip-path="url(#p29006df005)" style="fill: none; stroke: #b0b0b0; stroke-width: 0.8; stroke-linecap: square"/>
     </g>
     <g id="line2d_2">
      <defs>
       <path id="m8fc7a41087" d="M 0 0 
L 0 3.5 
" style="stroke: #000000; stroke-width: 0.8"/>
      </defs>
      <g>
       <use xlink:href="#m8fc7a41087" x="147.666381" y="384.48" style="stroke: #000000; stroke-width: 0.8"/>
      </g>
     </g>
     <g id="text_1">
      <!-- 01-14 14 -->
      <g transform="translate(125.185912 399.078438) scale(0.1 -0.1)">
       <defs>
        <path id="DejaVuSans-30" d="M 2034 4250 
Q 1547 4250 1301 3770 
Q 1056 3291 1056 2328 
Q 1056 1369 1301 889 
Q 1547 409 2034 409 
Q 2525 409 2770 889 
Q 3016 1369 3016 2328 
Q 3016 3291 2770 3770 
Q 2525 4250 2034 4250 
z
M 2034 4750 
Q 2819 4750 3233 4129 
Q 3647 3509 3647 2328 
Q 3647 1150 3233 529 
Q 2819 -91 2034 -91 
Q 1250 -91 836 529 
Q 422 1150 422 2328 
Q 422 3509 836 4129 
Q 1250 4750 2034 4750 
z
" transform="scale(0.015625)"/>
        <path id="DejaVuSans-31" d="M 794 531 
L 1825 531 
L 1825 4091 
L 703 3866 
L 703 4441 
L 1819 4666 
L 2450 4666 
L 2450 531 
L 3481 531 
L 3481 0 
L 794 0 
L 794 531 
z
" transform="scale(0.015625)"/>
        <path id="DejaVuSans-2d" d="M 313 2009 
L 1997 2009 
L 1997 1497 
L 313 1497 
L 313 2009 
z
" transform="scale(0.015625)"/>
        <path id="DejaVuSans-34" d="M 2419 4116 
L 825 1625 
L 2419 1625 
L 2419 4116 
z
M 2253 4666 
L 3047 4666 
L 3047 1625 
L 3713 1625 
L 3713 1100 
L 3047 1100 
L 3047 0 
L 2419 0 
L 2419 1100 
L 313 1100 
L 313 1709 
L 2253 4666 
z
" transform="scale(0.015625)"/>
        <path id="DejaVuSans-20" transform="scale(0.015625)"/>
       </defs>
       <use xlink:href="#DejaVuSans-30"/>
       <use xlink:href="#DejaVuSans-31" transform="translate(63.623047 0)"/>
       <use xlink:href="#DejaVuSans-2d" transform="translate(127.246094 0)"/>
       <use xlink:href="#DejaVuSans-31" transform="translate(163.330078 0)"/>
       <use xlink:href="#DejaVuSans-34" transform="translate(226.953125 0)"/>
       <use xlink:href="#DejaVuSans-20" transform="translate(290.576172 0)"/>
       <use xlink:href="#DejaVuSans-31" transform="translate(322.363281 0)"/>
       <use xlink:href="#DejaVuSans-34" transform="translate(385.986328 0)"/>
      </g>
     </g>
    </g>
    <g id="xtick_2">
     <g id="line2d_3">
      <path d="M 219.450257 384.48 
L 219.450257 51.84 
" clip-path="url(#p29006df005)" style="fill: none; stroke: #b0b0b0; stroke-width: 0.8; stroke-linecap: square"/>
     </g>
     <g id="line2d_4">
      <g>
       <use xlink:href="#m8fc7a41087" x="219.450257" y="384.48" style="stroke: #000000; stroke-width: 0.8"/>
      </g>
     </g>
     <g id="text_2">
      <!-- 01-14 15 -->
      <g transform="translate(196.969789 399.078438) scale(0.1 -0.1)">
       <defs>
        <path id="DejaVuSans-35" d="M 691 4666 
L 3169 4666 
L 3169 4134 
L 1269 4134 
L 1269 2991 
Q 1406 3038 1543 3061 
Q 1681 3084 1819 3084 
Q 2600 3084 3056 2656 
Q 3513 2228 3513 1497 
Q 3513 744 3044 326 
Q 2575 -91 1722 -91 
Q 1428 -91 1123 -41 
Q 819 9 494 109 
L 494 744 
Q 775 591 1075 516 
Q 1375 441 1709 441 
Q 2250 441 2565 725 
Q 2881 1009 2881 1497 
Q 2881 1984 2565 2268 
Q 2250 2553 1709 2553 
Q 1456 2553 1204 2497 
Q 953 2441 691 2322 
L 691 4666 
z
" transform="scale(0.015625)"/>
       </defs>
       <use xlink:href="#DejaVuSans-30"/>
       <use xlink:href="#DejaVuSans-31" transform="translate(63.623047 0)"/>
       <use xlink:href="#DejaVuSans-2d" transform="translate(127.246094 0)"/>
       <use xlink:href="#DejaVuSans-31" transform="translate(163.330078 0)"/>
       <use xlink:href="#DejaVuSans-34" transform="translate(226.953125 0)"/>
       <use xlink:href="#DejaVuSans-20" transform="translate(290.576172 0)"/>
       <use xlink:href="#DejaVuSans-31" transform="translate(322.363281 0)"/>
       <use xlink:href="#DejaVuSans-35" transform="translate(385.986328 0)"/>
      </g>
     </g>
    </g>
    <g id="xtick_3">
     <g id="line2d_5">
      <path d="M 291.234134 384.48 
L 291.234134 51.84 
" clip-path="url(#p29006df005)" style="fill: none; stroke: #b0b0b0; stroke-width: 0.8; stroke-linecap: square"/>
     </g>
     <g id="line2d_6">
      <g>
       <use xlink:href="#m8fc7a41087" x="291.234134" y="384.48" style="stroke: #000000; stroke-width: 0.8"/>
      </g>
     </g>
     <g id="text_3">
      <!-- 01-14 16 -->
      <g transform="translate(268.753665 399.078438) scale(0.1 -0.1)">
       <defs>
        <path id="DejaVuSans-36" d="M 2113 2584 
Q 1688 2584 1439 2293 
Q 1191 2003 1191 1497 
Q 1191 994 1439 701 
Q 1688 409 2113 409 
Q 2538 409 2786 701 
Q 3034 994 3034 1497 
Q 3034 2003 2786 2293 
Q 2538 2584 2113 2584 
z
M 3366 4563 
L 3366 3988 
Q 3128 4100 2886 4159 
Q 2644 4219 2406 4219 
Q 1781 4219 1451 3797 
Q 1122 3375 1075 2522 
Q 1259 2794 1537 2939 
Q 1816 3084 2150 3084 
Q 2853 3084 3261 2657 
Q 3669 2231 3669 1497 
Q 3669 778 3244 343 
Q 2819 -91 2113 -91 
Q 1303 -91 875 529 
Q 447 1150 447 2328 
Q 447 3434 972 4092 
Q 1497 4750 2381 4750 
Q 2619 4750 2861 4703 
Q 3103 4656 3366 4563 
z
" transform="scale(0.015625)"/>
       </defs>
       <use xlink:href="#DejaVuSans-30"/>
       <use xlink:href="#DejaVuSans-31" transform="translate(63.623047 0)"/>
       <use xlink:href="#DejaVuSans-2d" transform="translate(127.246094 0)"/>
       <use xlink:href="#DejaVuSans-31" transform="translate(163.330078 0)"/>
       <use xlink:href="#DejaVuSans-34" transform="translate(226.953125 0)"/>
       <use xlink:href="#DejaVuSans-20" transform="translate(290.576172 0)"/>
       <use xlink:href="#DejaVuSans-31" transform="translate(322.363281 0)"/>
       <use xlink:href="#DejaVuSans-36" transform="translate(385.986328 0)"/>
      </g>
     </g>
    </g>
    <g id="xtick_4">
     <g id="line2d_7">
      <path d="M 363.01801 384.48 
L 363.01801 51.84 
" clip-path="url(#p29006df005)" style="fill: none; stroke: #b0b0b0; stroke-width: 0.8; stroke-linecap: square"/>
     </g>
     <g id="line2d_8">
      <g>
       <use xlink:href="#m8fc7a41087" x="363.01801" y="384.48" style="stroke: #000000; stroke-width: 0.8"/>
      </g>
     </g>
     <g id="text_4">
      <!-- 01-14 17 -->
      <g transform="translate(340.537542 399.078438) scale(0.1 -0.1)">
       <defs>
        <path id="DejaVuSans-37" d="M 525 4666 
L 3525 4666 
L 3525 4397 
L 1831 0 
L 1172 0 
L 2766 4134 
L 525 4134 
L 525 4666 
z
" transform="scale(0.015625)"/>
       </defs>
       <use xlink:href="#DejaVuSans-30"/>
       <use xlink:href="#DejaVuSans-31" transform="translate(63.623047 0)"/>
       <use xlink:href="#DejaVuSans-2d" transform="translate(127.246094 0)"/>
       <use xlink:href="#DejaVuSans-31" transform="translate(163.330078 0)"/>
       <use xlink:href="#DejaVuSans-34" transform="translate(226.953125 0)"/>
       <use xlink:href="#DejaVuSans-20" transform="translate(290.576172 0)"/>
       <use xlink:href="#DejaVuSans-31" transform="translate(322.363281 0)"/>
       <use xlink:href="#DejaVuSans-37" transform="translate(385.986328 0)"/>
      </g>
     </g>
    </g>
    <g id="xtick_5">
     <g id="line2d_9">
      <path d="M 434.801887 384.48 
L 434.801887 51.84 
" clip-path="url(#p29006df005)" style="fill: none; stroke: #b0b0b0; stroke-width: 0.8; stroke-linecap: square"/>
     </g>
     <g id="line2d_10">
      <g>
       <use xlink:href="#m8fc7a41087" x="434.801887" y="384.48" style="stroke: #000000; stroke-width: 0.8"/>
      </g>
     </g>
     <g id="text_5">
      <!-- 01-14 18 -->
      <g transform="translate(412.321418 399.078438) scale(0.1 -0.1)">
       <defs>
        <path id="DejaVuSans-38" d="M 2034 2216 
Q 1584 2216 1326 1975 
Q 1069 1734 1069 1313 
Q 1069 891 1326 650 
Q 1584 409 2034 409 
Q 2484 409 2743 651 
Q 3003 894 3003 1313 
Q 3003 1734 2745 1975 
Q 2488 2216 2034 2216 
z
M 1403 2484 
Q 997 2584 770 2862 
Q 544 3141 544 3541 
Q 544 4100 942 4425 
Q 1341 4750 2034 4750 
Q 2731 4750 3128 4425 
Q 3525 4100 3525 3541 
Q 3525 3141 3298 2862 
Q 3072 2584 2669 2484 
Q 3125 2378 3379 2068 
Q 3634 1759 3634 1313 
Q 3634 634 3220 271 
Q 2806 -91 2034 -91 
Q 1263 -91 848 271 
Q 434 634 434 1313 
Q 434 1759 690 2068 
Q 947 2378 1403 2484 
z
M 1172 3481 
Q 1172 3119 1398 2916 
Q 1625 2713 2034 2713 
Q 2441 2713 2670 2916 
Q 2900 3119 2900 3481 
Q 2900 3844 2670 4047 
Q 2441 4250 2034 4250 
Q 1625 4250 1398 4047 
Q 1172 3844 1172 3481 
z
" transform="scale(0.015625)"/>
       </defs>
       <use xlink:href="#DejaVuSans-30"/>
       <use xlink:href="#DejaVuSans-31" transform="translate(63.623047 0)"/>
       <use xlink:href="#DejaVuSans-2d" transform="translate(127.246094 0)"/>
       <use xlink:href="#DejaVuSans-31" transform="translate(163.330078 0)"/>
       <use xlink:href="#DejaVuSans-34" transform="translate(226.953125 0)"/>
       <use xlink:href="#DejaVuSans-20" transform="translate(290.576172 0)"/>
       <use xlink:href="#DejaVuSans-31" transform="translate(322.363281 0)"/>
       <use xlink:href="#DejaVuSans-38" transform="translate(385.986328 0)"/>
      </g>
     </g>
    </g>
    <g id="xtick_6">
     <g id="line2d_11">
      <path d="M 506.585763 384.48 
L 506.585763 51.84 
" clip-path="url(#p29006df005)" style="fill: none; stroke: #b0b0b0; stroke-width: 0.8; stroke-linecap: square"/>
     </g>
     <g id="line2d_12">
      <g>
       <use xlink:href="#m8fc7a41087" x="506.585763" y="384.48" style="stroke: #000000; stroke-width: 0.8"/>
      </g>
     </g>
     <g id="text_6">
      <!-- 01-14 19 -->
      <g transform="translate(484.105295 399.078438) scale(0.1 -0.1)">
       <defs>
        <path id="DejaVuSans-39" d="M 703 97 
L 703 672 
Q 941 559 1184 500 
Q 1428 441 1663 441 
Q 2288 441 2617 861 
Q 2947 1281 2994 2138 
Q 2813 1869 2534 1725 
Q 2256 1581 1919 1581 
Q 1219 1581 811 2004 
Q 403 2428 403 3163 
Q 403 3881 828 4315 
Q 1253 4750 1959 4750 
Q 2769 4750 3195 4129 
Q 3622 3509 3622 2328 
Q 3622 1225 3098 567 
Q 2575 -91 1691 -91 
Q 1453 -91 1209 -44 
Q 966 3 703 97 
z
M 1959 2075 
Q 2384 2075 2632 2365 
Q 2881 2656 2881 3163 
Q 2881 3666 2632 3958 
Q 2384 4250 1959 4250 
Q 1534 4250 1286 3958 
Q 1038 3666 1038 3163 
Q 1038 2656 1286 2365 
Q 1534 2075 1959 2075 
z
" transform="scale(0.015625)"/>
       </defs>
       <use xlink:href="#DejaVuSans-30"/>
       <use xlink:href="#DejaVuSans-31" transform="translate(63.623047 0)"/>
       <use xlink:href="#DejaVuSans-2d" transform="translate(127.246094 0)"/>
       <use xlink:href="#DejaVuSans-31" transform="translate(163.330078 0)"/>
       <use xlink:href="#DejaVuSans-34" transform="translate(226.953125 0)"/>
       <use xlink:href="#DejaVuSans-20" transform="translate(290.576172 0)"/>
       <use xlink:href="#DejaVuSans-31" transform="translate(322.363281 0)"/>
       <use xlink:href="#DejaVuSans-39" transform="translate(385.986328 0)"/>
      </g>
     </g>
    </g>
    <g id="xtick_7">
     <g id="line2d_13">
      <path d="M 578.36964 384.48 
L 578.36964 51.84 
" clip-path="url(#p29006df005)" style="fill: none; stroke: #b0b0b0; stroke-width: 0.8; stroke-linecap: square"/>
     </g>
     <g id="line2d_14">
      <g>
       <use xlink:href="#m8fc7a41087" x="578.36964" y="384.48" style="stroke: #000000; stroke-width: 0.8"/>
      </g>
     </g>
     <g id="text_7">
      <!-- 01-14 20 -->
      <g transform="translate(555.889171 399.078438) scale(0.1 -0.1)">
       <defs>
        <path id="DejaVuSans-32" d="M 1228 531 
L 3431 531 
L 3431 0 
L 469 0 
L 469 531 
Q 828 903 1448 1529 
Q 2069 2156 2228 2338 
Q 2531 2678 2651 2914 
Q 2772 3150 2772 3378 
Q 2772 3750 2511 3984 
Q 2250 4219 1831 4219 
Q 1534 4219 1204 4116 
Q 875 4013 500 3803 
L 500 4441 
Q 881 4594 1212 4672 
Q 1544 4750 1819 4750 
Q 2544 4750 2975 4387 
Q 3406 4025 3406 3419 
Q 3406 3131 3298 2873 
Q 3191 2616 2906 2266 
Q 2828 2175 2409 1742 
Q 1991 1309 1228 531 
z
" transform="scale(0.015625)"/>
       </defs>
       <use xlink:href="#DejaVuSans-30"/>
       <use xlink:href="#DejaVuSans-31" transform="translate(63.623047 0)"/>
       <use xlink:href="#DejaVuSans-2d" transform="translate(127.246094 0)"/>
       <use xlink:href="#DejaVuSans-31" transform="translate(163.330078 0)"/>
       <use xlink:href="#DejaVuSans-34" transform="translate(226.953125 0)"/>
       <use xlink:href="#DejaVuSans-20" transform="translate(290.576172 0)"/>
       <use xlink:href="#DejaVuSans-32" transform="translate(322.363281 0)"/>
       <use xlink:href="#DejaVuSans-30" transform="translate(385.986328 0)"/>
      </g>
     </g>
    </g>
    <g id="text_8">
     <!-- Date and Time -->
     <g transform="translate(332.230469 412.756563) scale(0.1 -0.1)">
      <defs>
       <path id="DejaVuSans-44" d="M 1259 4147 
L 1259 519 
L 2022 519 
Q 2988 519 3436 956 
Q 3884 1394 3884 2338 
Q 3884 3275 3436 3711 
Q 2988 4147 2022 4147 
L 1259 4147 
z
M 628 4666 
L 1925 4666 
Q 3281 4666 3915 4102 
Q 4550 3538 4550 2338 
Q 4550 1131 3912 565 
Q 3275 0 1925 0 
L 628 0 
L 628 4666 
z
" transform="scale(0.015625)"/>
       <path id="DejaVuSans-61" d="M 2194 1759 
Q 1497 1759 1228 1600 
Q 959 1441 959 1056 
Q 959 750 1161 570 
Q 1363 391 1709 391 
Q 2188 391 2477 730 
Q 2766 1069 2766 1631 
L 2766 1759 
L 2194 1759 
z
M 3341 1997 
L 3341 0 
L 2766 0 
L 2766 531 
Q 2569 213 2275 61 
Q 1981 -91 1556 -91 
Q 1019 -91 701 211 
Q 384 513 384 1019 
Q 384 1609 779 1909 
Q 1175 2209 1959 2209 
L 2766 2209 
L 2766 2266 
Q 2766 2663 2505 2880 
Q 2244 3097 1772 3097 
Q 1472 3097 1187 3025 
Q 903 2953 641 2809 
L 641 3341 
Q 956 3463 1253 3523 
Q 1550 3584 1831 3584 
Q 2591 3584 2966 3190 
Q 3341 2797 3341 1997 
z
" transform="scale(0.015625)"/>
       <path id="DejaVuSans-74" d="M 1172 4494 
L 1172 3500 
L 2356 3500 
L 2356 3053 
L 1172 3053 
L 1172 1153 
Q 1172 725 1289 603 
Q 1406 481 1766 481 
L 2356 481 
L 2356 0 
L 1766 0 
Q 1100 0 847 248 
Q 594 497 594 1153 
L 594 3053 
L 172 3053 
L 172 3500 
L 594 3500 
L 594 4494 
L 1172 4494 
z
" transform="scale(0.015625)"/>
       <path id="DejaVuSans-65" d="M 3597 1894 
L 3597 1613 
L 953 1613 
Q 991 1019 1311 708 
Q 1631 397 2203 397 
Q 2534 397 2845 478 
Q 3156 559 3463 722 
L 3463 178 
Q 3153 47 2828 -22 
Q 2503 -91 2169 -91 
Q 1331 -91 842 396 
Q 353 884 353 1716 
Q 353 2575 817 3079 
Q 1281 3584 2069 3584 
Q 2775 3584 3186 3129 
Q 3597 2675 3597 1894 
z
M 3022 2063 
Q 3016 2534 2758 2815 
Q 2500 3097 2075 3097 
Q 1594 3097 1305 2825 
Q 1016 2553 972 2059 
L 3022 2063 
z
" transform="scale(0.015625)"/>
       <path id="DejaVuSans-6e" d="M 3513 2113 
L 3513 0 
L 2938 0 
L 2938 2094 
Q 2938 2591 2744 2837 
Q 2550 3084 2163 3084 
Q 1697 3084 1428 2787 
Q 1159 2491 1159 1978 
L 1159 0 
L 581 0 
L 581 3500 
L 1159 3500 
L 1159 2956 
Q 1366 3272 1645 3428 
Q 1925 3584 2291 3584 
Q 2894 3584 3203 3211 
Q 3513 2838 3513 2113 
z
" transform="scale(0.015625)"/>
       <path id="DejaVuSans-64" d="M 2906 2969 
L 2906 4863 
L 3481 4863 
L 3481 0 
L 2906 0 
L 2906 525 
Q 2725 213 2448 61 
Q 2172 -91 1784 -91 
Q 1150 -91 751 415 
Q 353 922 353 1747 
Q 353 2572 751 3078 
Q 1150 3584 1784 3584 
Q 2172 3584 2448 3432 
Q 2725 3281 2906 2969 
z
M 947 1747 
Q 947 1113 1208 752 
Q 1469 391 1925 391 
Q 2381 391 2643 752 
Q 2906 1113 2906 1747 
Q 2906 2381 2643 2742 
Q 2381 3103 1925 3103 
Q 1469 3103 1208 2742 
Q 947 2381 947 1747 
z
" transform="scale(0.015625)"/>
       <path id="DejaVuSans-54" d="M -19 4666 
L 3928 4666 
L 3928 4134 
L 2272 4134 
L 2272 0 
L 1638 0 
L 1638 4134 
L -19 4134 
L -19 4666 
z
" transform="scale(0.015625)"/>
       <path id="DejaVuSans-69" d="M 603 3500 
L 1178 3500 
L 1178 0 
L 603 0 
L 603 3500 
z
M 603 4863 
L 1178 4863 
L 1178 4134 
L 603 4134 
L 603 4863 
z
" transform="scale(0.015625)"/>
       <path id="DejaVuSans-6d" d="M 3328 2828 
Q 3544 3216 3844 3400 
Q 4144 3584 4550 3584 
Q 5097 3584 5394 3201 
Q 5691 2819 5691 2113 
L 5691 0 
L 5113 0 
L 5113 2094 
Q 5113 2597 4934 2840 
Q 4756 3084 4391 3084 
Q 3944 3084 3684 2787 
Q 3425 2491 3425 1978 
L 3425 0 
L 2847 0 
L 2847 2094 
Q 2847 2600 2669 2842 
Q 2491 3084 2119 3084 
Q 1678 3084 1418 2786 
Q 1159 2488 1159 1978 
L 1159 0 
L 581 0 
L 581 3500 
L 1159 3500 
L 1159 2956 
Q 1356 3278 1631 3431 
Q 1906 3584 2284 3584 
Q 2666 3584 2933 3390 
Q 3200 3197 3328 2828 
z
" transform="scale(0.015625)"/>
      </defs>
      <use xlink:href="#DejaVuSans-44"/>
      <use xlink:href="#DejaVuSans-61" transform="translate(77.001953 0)"/>
      <use xlink:href="#DejaVuSans-74" transform="translate(138.28125 0)"/>
      <use xlink:href="#DejaVuSans-65" transform="translate(177.490234 0)"/>
      <use xlink:href="#DejaVuSans-20" transform="translate(239.013672 0)"/>
      <use xlink:href="#DejaVuSans-61" transform="translate(270.800781 0)"/>
      <use xlink:href="#DejaVuSans-6e" transform="translate(332.080078 0)"/>
      <use xlink:href="#DejaVuSans-64" transform="translate(395.458984 0)"/>
      <use xlink:href="#DejaVuSans-20" transform="translate(458.935547 0)"/>
      <use xlink:href="#DejaVuSans-54" transform="translate(490.722656 0)"/>
      <use xlink:href="#DejaVuSans-69" transform="translate(548.681641 0)"/>
      <use xlink:href="#DejaVuSans-6d" transform="translate(576.464844 0)"/>
      <use xlink:href="#DejaVuSans-65" transform="translate(673.876953 0)"/>
     </g>
    </g>
   </g>
   <g id="matplotlib.axis_2">
    <g id="ytick_1">
     <g id="line2d_15">
      <path d="M 90 370.518621 
L 648 370.518621 
" clip-path="url(#p29006df005)" style="fill: none; stroke: #b0b0b0; stroke-width: 0.8; stroke-linecap: square"/>
     </g>
     <g id="line2d_16">
      <defs>
       <path id="m9de0ca4d85" d="M 0 0 
L -3.5 0 
" style="stroke: #000000; stroke-width: 0.8"/>
      </defs>
      <g>
       <use xlink:href="#m9de0ca4d85" x="90" y="370.518621" style="stroke: #000000; stroke-width: 0.8"/>
      </g>
     </g>
     <g id="text_9">
      <!-- 0 -->
      <g transform="translate(76.6375 374.317839) scale(0.1 -0.1)">
       <use xlink:href="#DejaVuSans-30"/>
      </g>
     </g>
    </g>
    <g id="ytick_2">
     <g id="line2d_17">
      <path d="M 90 312.587586 
L 648 312.587586 
" clip-path="url(#p29006df005)" style="fill: none; stroke: #b0b0b0; stroke-width: 0.8; stroke-linecap: square"/>
     </g>
     <g id="line2d_18">
      <g>
       <use xlink:href="#m9de0ca4d85" x="90" y="312.587586" style="stroke: #000000; stroke-width: 0.8"/>
      </g>
     </g>
     <g id="text_10">
      <!-- 50 -->
      <g transform="translate(70.275 316.386805) scale(0.1 -0.1)">
       <use xlink:href="#DejaVuSans-35"/>
       <use xlink:href="#DejaVuSans-30" transform="translate(63.623047 0)"/>
      </g>
     </g>
    </g>
    <g id="ytick_3">
     <g id="line2d_19">
      <path d="M 90 254.656552 
L 648 254.656552 
" clip-path="url(#p29006df005)" style="fill: none; stroke: #b0b0b0; stroke-width: 0.8; stroke-linecap: square"/>
     </g>
     <g id="line2d_20">
      <g>
       <use xlink:href="#m9de0ca4d85" x="90" y="254.656552" style="stroke: #000000; stroke-width: 0.8"/>
      </g>
     </g>
     <g id="text_11">
      <!-- 100 -->
      <g transform="translate(63.9125 258.45577) scale(0.1 -0.1)">
       <use xlink:href="#DejaVuSans-31"/>
       <use xlink:href="#DejaVuSans-30" transform="translate(63.623047 0)"/>
       <use xlink:href="#DejaVuSans-30" transform="translate(127.246094 0)"/>
      </g>
     </g>
    </g>
    <g id="ytick_4">
     <g id="line2d_21">
      <path d="M 90 196.725517 
L 648 196.725517 
" clip-path="url(#p29006df005)" style="fill: none; stroke: #b0b0b0; stroke-width: 0.8; stroke-linecap: square"/>
     </g>
     <g id="line2d_22">
      <g>
       <use xlink:href="#m9de0ca4d85" x="90" y="196.725517" style="stroke: #000000; stroke-width: 0.8"/>
      </g>
     </g>
     <g id="text_12">
      <!-- 150 -->
      <g transform="translate(63.9125 200.524736) scale(0.1 -0.1)">
       <use xlink:href="#DejaVuSans-31"/>
       <use xlink:href="#DejaVuSans-35" transform="translate(63.623047 0)"/>
       <use xlink:href="#DejaVuSans-30" transform="translate(127.246094 0)"/>
      </g>
     </g>
    </g>
    <g id="ytick_5">
     <g id="line2d_23">
      <path d="M 90 138.794483 
L 648 138.794483 
" clip-path="url(#p29006df005)" style="fill: none; stroke: #b0b0b0; stroke-width: 0.8; stroke-linecap: square"/>
     </g>
     <g id="line2d_24">
      <g>
       <use xlink:href="#m9de0ca4d85" x="90" y="138.794483" style="stroke: #000000; stroke-width: 0.8"/>
      </g>
     </g>
     <g id="text_13">
      <!-- 200 -->
      <g transform="translate(63.9125 142.593702) scale(0.1 -0.1)">
       <use xlink:href="#DejaVuSans-32"/>
       <use xlink:href="#DejaVuSans-30" transform="translate(63.623047 0)"/>
       <use xlink:href="#DejaVuSans-30" transform="translate(127.246094 0)"/>
      </g>
     </g>
    </g>
    <g id="ytick_6">
     <g id="line2d_25">
      <path d="M 90 80.863448 
L 648 80.863448 
" clip-path="url(#p29006df005)" style="fill: none; stroke: #b0b0b0; stroke-width: 0.8; stroke-linecap: square"/>
     </g>
     <g id="line2d_26">
      <g>
       <use xlink:href="#m9de0ca4d85" x="90" y="80.863448" style="stroke: #000000; stroke-width: 0.8"/>
      </g>
     </g>
     <g id="text_14">
      <!-- 250 -->
      <g transform="translate(63.9125 84.662667) scale(0.1 -0.1)">
       <use xlink:href="#DejaVuSans-32"/>
       <use xlink:href="#DejaVuSans-35" transform="translate(63.623047 0)"/>
       <use xlink:href="#DejaVuSans-30" transform="translate(127.246094 0)"/>
      </g>
     </g>
    </g>
    <g id="text_15">
     <!-- Votes -->
     <g transform="translate(57.832812 231.893594) rotate(-90) scale(0.1 -0.1)">
      <defs>
       <path id="DejaVuSans-56" d="M 1831 0 
L 50 4666 
L 709 4666 
L 2188 738 
L 3669 4666 
L 4325 4666 
L 2547 0 
L 1831 0 
z
" transform="scale(0.015625)"/>
       <path id="DejaVuSans-6f" d="M 1959 3097 
Q 1497 3097 1228 2736 
Q 959 2375 959 1747 
Q 959 1119 1226 758 
Q 1494 397 1959 397 
Q 2419 397 2687 759 
Q 2956 1122 2956 1747 
Q 2956 2369 2687 2733 
Q 2419 3097 1959 3097 
z
M 1959 3584 
Q 2709 3584 3137 3096 
Q 3566 2609 3566 1747 
Q 3566 888 3137 398 
Q 2709 -91 1959 -91 
Q 1206 -91 779 398 
Q 353 888 353 1747 
Q 353 2609 779 3096 
Q 1206 3584 1959 3584 
z
" transform="scale(0.015625)"/>
       <path id="DejaVuSans-73" d="M 2834 3397 
L 2834 2853 
Q 2591 2978 2328 3040 
Q 2066 3103 1784 3103 
Q 1356 3103 1142 2972 
Q 928 2841 928 2578 
Q 928 2378 1081 2264 
Q 1234 2150 1697 2047 
L 1894 2003 
Q 2506 1872 2764 1633 
Q 3022 1394 3022 966 
Q 3022 478 2636 193 
Q 2250 -91 1575 -91 
Q 1294 -91 989 -36 
Q 684 19 347 128 
L 347 722 
Q 666 556 975 473 
Q 1284 391 1588 391 
Q 1994 391 2212 530 
Q 2431 669 2431 922 
Q 2431 1156 2273 1281 
Q 2116 1406 1581 1522 
L 1381 1569 
Q 847 1681 609 1914 
Q 372 2147 372 2553 
Q 372 3047 722 3315 
Q 1072 3584 1716 3584 
Q 2034 3584 2315 3537 
Q 2597 3491 2834 3397 
z
" transform="scale(0.015625)"/>
      </defs>
      <use xlink:href="#DejaVuSans-56"/>
      <use xlink:href="#DejaVuSans-6f" transform="translate(60.658203 0)"/>
      <use xlink:href="#DejaVuSans-74" transform="translate(121.839844 0)"/>
      <use xlink:href="#DejaVuSans-65" transform="translate(161.048828 0)"/>
      <use xlink:href="#DejaVuSans-73" transform="translate(222.572266 0)"/>
     </g>
    </g>
   </g>
   <g id="line2d_27">
    <path d="M 115.363636 349.663448 
L 127.327616 349.663448 
L 128.524014 348.504828 
L 140.487993 348.504828 
L 141.684391 346.187586 
L 152.451973 346.187586 
L 153.648371 345.028966 
L 159.63036 345.028966 
L 160.826758 343.870345 
L 165.61235 343.870345 
L 166.808748 342.711724 
L 170.397942 342.711724 
L 171.59434 341.553103 
L 188.343911 341.553103 
L 189.540309 340.394483 
L 202.700686 340.394483 
L 205.093482 338.077241 
L 207.486278 338.077241 
L 208.682676 336.918621 
L 219.450257 336.918621 
L 221.843053 334.601379 
L 236.199828 334.601379 
L 237.396226 333.442759 
L 240.98542 333.442759 
L 242.181818 332.284138 
L 243.378216 332.284138 
L 244.574614 331.125517 
L 276.877358 331.125517 
L 278.073756 329.966897 
L 292.430532 329.966897 
L 293.62693 328.808276 
L 302.001715 328.808276 
L 303.198113 327.649655 
L 304.394511 325.332414 
L 305.590909 325.332414 
L 307.983705 323.015172 
L 327.126072 323.015172 
L 328.32247 321.856552 
L 335.500858 321.856552 
L 336.697256 320.697931 
L 341.482847 320.697931 
L 342.679245 319.53931 
L 354.643225 319.53931 
L 355.839623 318.38069 
L 358.232419 318.38069 
L 359.428816 317.222069 
L 363.01801 317.222069 
L 364.214408 316.063448 
L 373.785592 316.063448 
L 374.98199 314.904828 
L 376.178388 314.904828 
L 377.374786 313.746207 
L 389.338765 313.746207 
L 390.535163 312.587586 
L 398.909949 312.587586 
L 400.106346 311.428966 
L 401.302744 311.428966 
L 403.69554 309.111724 
L 430.016295 309.111724 
L 431.212693 307.953103 
L 450.35506 307.953103 
L 451.551458 306.794483 
L 452.747856 306.794483 
L 453.944254 305.635862 
L 464.711835 305.635862 
L 465.908233 304.477241 
L 467.104631 304.477241 
L 468.301029 303.318621 
L 474.283019 303.318621 
L 475.479417 302.16 
L 479.068611 302.16 
L 481.461407 299.842759 
L 482.657804 299.842759 
L 483.854202 298.684138 
L 486.246998 298.684138 
L 487.443396 297.525517 
L 489.836192 297.525517 
L 491.03259 296.366897 
L 493.425386 296.366897 
L 494.621784 295.208276 
L 523.335334 295.208276 
L 524.531732 294.049655 
L 536.495712 294.049655 
L 537.69211 292.891034 
L 544.870497 292.891034 
L 546.066895 291.732414 
L 547.263293 291.732414 
L 548.459691 290.573793 
L 549.656089 290.573793 
L 554.441681 285.93931 
L 556.834477 285.93931 
L 558.030875 283.622069 
L 567.602058 283.622069 
L 569.994854 281.304828 
L 572.38765 281.304828 
L 573.584048 280.146207 
L 578.36964 280.146207 
L 579.566038 278.987586 
L 587.940823 278.987586 
L 589.137221 277.828966 
L 591.530017 277.828966 
L 592.726415 276.670345 
L 599.904803 276.670345 
L 602.297599 274.353103 
L 610.672384 274.353103 
L 611.868782 273.194483 
L 615.457976 273.194483 
L 616.654374 272.035862 
L 619.04717 272.035862 
L 620.243568 269.718621 
L 622.636364 269.718621 
L 622.636364 269.718621 
" clip-path="url(#p29006df005)" style="fill: none; stroke: #1f77b4; stroke-width: 1.5; stroke-linecap: square"/>
   </g>
   <g id="line2d_28">
    <path d="M 115.363636 275.511724 
L 116.560034 274.353103 
L 120.149228 274.353103 
L 121.345626 273.194483 
L 122.542024 273.194483 
L 123.738422 272.035862 
L 124.93482 272.035862 
L 127.327616 269.718621 
L 128.524014 267.401379 
L 129.720412 267.401379 
L 132.113208 265.084138 
L 133.309605 265.084138 
L 134.506003 260.449655 
L 135.702401 258.132414 
L 136.898799 253.497931 
L 138.095197 250.022069 
L 141.684391 250.022069 
L 142.880789 246.546207 
L 144.077187 244.228966 
L 146.469983 241.911724 
L 147.666381 239.594483 
L 150.059177 237.277241 
L 151.255575 234.96 
L 154.844768 234.96 
L 156.041166 229.166897 
L 157.237564 226.849655 
L 158.433962 225.691034 
L 159.63036 223.373793 
L 160.826758 222.215172 
L 162.023156 222.215172 
L 163.219554 218.73931 
L 164.415952 218.73931 
L 165.61235 216.422069 
L 166.808748 215.263448 
L 168.005146 215.263448 
L 169.201544 214.104828 
L 171.59434 214.104828 
L 172.790738 212.946207 
L 175.183533 212.946207 
L 176.379931 210.628966 
L 177.576329 210.628966 
L 178.772727 209.470345 
L 183.558319 209.470345 
L 184.754717 208.311724 
L 188.343911 208.311724 
L 189.540309 207.153103 
L 190.736707 207.153103 
L 191.933105 204.835862 
L 193.129503 204.835862 
L 194.325901 202.518621 
L 195.522298 201.36 
L 199.111492 201.36 
L 200.30789 199.042759 
L 201.504288 197.884138 
L 202.700686 194.408276 
L 205.093482 192.091034 
L 214.664666 192.091034 
L 215.861063 188.615172 
L 217.057461 188.615172 
L 219.450257 186.297931 
L 220.646655 186.297931 
L 224.235849 182.822069 
L 226.628645 182.822069 
L 227.825043 181.663448 
L 230.217839 181.663448 
L 233.807033 178.187586 
L 236.199828 178.187586 
L 237.396226 177.028966 
L 243.378216 177.028966 
L 244.574614 175.870345 
L 246.96741 175.870345 
L 248.163808 174.711724 
L 262.520583 174.711724 
L 263.716981 172.394483 
L 266.109777 172.394483 
L 268.502573 170.077241 
L 269.698971 170.077241 
L 270.895369 168.918621 
L 278.073756 168.918621 
L 281.66295 165.442759 
L 282.859348 165.442759 
L 284.055746 164.284138 
L 285.252144 161.966897 
L 286.448542 161.966897 
L 287.64494 160.808276 
L 288.841338 160.808276 
L 293.62693 156.173793 
L 296.019726 156.173793 
L 297.216124 153.856552 
L 300.805317 153.856552 
L 302.001715 152.697931 
L 305.590909 152.697931 
L 306.787307 151.53931 
L 307.983705 151.53931 
L 309.180103 148.063448 
L 312.769297 148.063448 
L 313.965695 146.904828 
L 315.162093 144.587586 
L 317.554889 144.587586 
L 318.751286 143.428966 
L 321.144082 143.428966 
L 322.34048 142.270345 
L 323.536878 142.270345 
L 329.518868 136.477241 
L 331.911664 136.477241 
L 335.500858 133.001379 
L 339.090051 133.001379 
L 340.286449 130.684138 
L 341.482847 130.684138 
L 342.679245 129.525517 
L 346.268439 129.525517 
L 347.464837 128.366897 
L 358.232419 128.366897 
L 359.428816 127.208276 
L 367.803602 127.208276 
L 369 126.049655 
L 371.392796 126.049655 
L 373.785592 123.732414 
L 379.767581 123.732414 
L 380.963979 122.573793 
L 386.945969 122.573793 
L 390.535163 119.097931 
L 406.088336 119.097931 
L 407.284734 116.78069 
L 408.481132 115.622069 
L 437.194683 115.622069 
L 438.391081 114.463448 
L 445.569468 114.463448 
L 447.962264 112.146207 
L 450.35506 112.146207 
L 451.551458 110.987586 
L 452.747856 110.987586 
L 455.140652 108.670345 
L 456.33705 108.670345 
L 457.533448 107.511724 
L 458.729846 107.511724 
L 461.122642 102.877241 
L 462.319039 101.718621 
L 468.301029 101.718621 
L 469.497427 98.242759 
L 470.693825 95.925517 
L 473.086621 95.925517 
L 475.479417 93.608276 
L 481.461407 93.608276 
L 483.854202 91.291034 
L 486.246998 91.291034 
L 487.443396 90.132414 
L 489.836192 90.132414 
L 491.03259 88.973793 
L 492.228988 88.973793 
L 493.425386 87.815172 
L 494.621784 87.815172 
L 495.818182 86.656552 
L 497.01458 86.656552 
L 498.210978 85.497931 
L 500.603774 85.497931 
L 501.800172 83.18069 
L 507.782161 83.18069 
L 510.174957 80.863448 
L 522.138937 80.863448 
L 523.335334 79.704828 
L 524.531732 79.704828 
L 525.72813 78.546207 
L 526.924528 78.546207 
L 530.513722 75.070345 
L 532.906518 75.070345 
L 534.102916 73.911724 
L 558.030875 73.911724 
L 560.423671 71.594483 
L 565.209262 71.594483 
L 566.40566 70.435862 
L 567.602058 70.435862 
L 568.798456 69.277241 
L 569.994854 69.277241 
L 571.191252 68.118621 
L 597.512007 68.118621 
L 598.708405 66.96 
L 622.636364 66.96 
L 622.636364 66.96 
" clip-path="url(#p29006df005)" style="fill: none; stroke: #ff7f0e; stroke-width: 1.5; stroke-linecap: square"/>
   </g>
   <g id="line2d_29">
    <path d="M 115.363636 334.601379 
L 120.149228 334.601379 
L 121.345626 332.284138 
L 123.738422 332.284138 
L 124.93482 331.125517 
L 126.131218 328.808276 
L 127.327616 327.649655 
L 128.524014 324.173793 
L 129.720412 321.856552 
L 130.91681 320.697931 
L 132.113208 320.697931 
L 133.309605 318.38069 
L 134.506003 314.904828 
L 139.291595 314.904828 
L 140.487993 313.746207 
L 141.684391 313.746207 
L 142.880789 311.428966 
L 146.469983 311.428966 
L 148.862779 309.111724 
L 153.648371 309.111724 
L 154.844768 307.953103 
L 159.63036 307.953103 
L 163.219554 304.477241 
L 169.201544 304.477241 
L 170.397942 303.318621 
L 173.987136 303.318621 
L 175.183533 302.16 
L 177.576329 302.16 
L 178.772727 299.842759 
L 188.343911 299.842759 
L 189.540309 298.684138 
L 190.736707 296.366897 
L 191.933105 295.208276 
L 193.129503 295.208276 
L 194.325901 294.049655 
L 196.718696 294.049655 
L 197.915094 292.891034 
L 200.30789 292.891034 
L 201.504288 291.732414 
L 208.682676 291.732414 
L 209.879074 290.573793 
L 211.075472 290.573793 
L 212.27187 289.415172 
L 213.468268 289.415172 
L 214.664666 288.256552 
L 218.253859 288.256552 
L 219.450257 287.097931 
L 220.646655 284.78069 
L 226.628645 284.78069 
L 230.217839 281.304828 
L 233.807033 281.304828 
L 235.003431 280.146207 
L 239.789022 280.146207 
L 240.98542 278.987586 
L 242.181818 278.987586 
L 243.378216 277.828966 
L 245.771012 277.828966 
L 246.96741 276.670345 
L 250.556604 276.670345 
L 252.9494 274.353103 
L 254.145798 274.353103 
L 255.342196 273.194483 
L 264.913379 273.194483 
L 266.109777 270.877241 
L 267.306175 269.718621 
L 276.877358 269.718621 
L 278.073756 268.56 
L 281.66295 268.56 
L 282.859348 267.401379 
L 286.448542 267.401379 
L 287.64494 266.242759 
L 299.608919 266.242759 
L 300.805317 265.084138 
L 305.590909 265.084138 
L 306.787307 263.925517 
L 313.965695 263.925517 
L 315.162093 262.766897 
L 317.554889 262.766897 
L 318.751286 261.608276 
L 323.536878 261.608276 
L 325.929674 259.291034 
L 348.661235 259.291034 
L 349.857633 258.132414 
L 351.054031 258.132414 
L 352.250429 256.973793 
L 355.839623 256.973793 
L 357.036021 255.815172 
L 363.01801 255.815172 
L 364.214408 254.656552 
L 366.607204 254.656552 
L 367.803602 253.497931 
L 374.98199 253.497931 
L 376.178388 254.656552 
L 377.374786 253.497931 
L 385.749571 253.497931 
L 386.945969 252.33931 
L 396.517153 252.33931 
L 397.713551 251.18069 
L 400.106346 251.18069 
L 401.302744 250.022069 
L 402.499142 250.022069 
L 403.69554 248.863448 
L 412.070326 248.863448 
L 413.266724 247.704828 
L 420.445111 247.704828 
L 421.641509 246.546207 
L 439.587479 246.546207 
L 440.783877 245.387586 
L 467.104631 245.387586 
L 468.301029 244.228966 
L 480.265009 244.228966 
L 481.461407 243.070345 
L 500.603774 243.070345 
L 502.996569 240.753103 
L 524.531732 240.753103 
L 525.72813 239.594483 
L 526.924528 237.277241 
L 550.852487 237.277241 
L 552.048885 236.118621 
L 554.441681 236.118621 
L 555.638079 234.96 
L 562.816467 234.96 
L 564.012865 233.801379 
L 567.602058 233.801379 
L 569.994854 231.484138 
L 572.38765 231.484138 
L 573.584048 230.325517 
L 578.36964 230.325517 
L 579.566038 228.008276 
L 583.155232 228.008276 
L 584.35163 226.849655 
L 585.548027 226.849655 
L 587.940823 224.532414 
L 603.493997 224.532414 
L 604.690395 223.373793 
L 619.04717 223.373793 
L 620.243568 221.056552 
L 622.636364 221.056552 
L 622.636364 221.056552 
" clip-path="url(#p29006df005)" style="fill: none; stroke: #2ca02c; stroke-width: 1.5; stroke-linecap: square"/>
   </g>
   <g id="line2d_30">
    <path d="M 115.363636 369.36 
L 410.873928 369.36 
L 412.070326 368.201379 
L 622.636364 368.201379 
L 622.636364 368.201379 
" clip-path="url(#p29006df005)" style="fill: none; stroke: #d62728; stroke-width: 1.5; stroke-linecap: square"/>
   </g>
   <g id="line2d_31">
    <path d="M 115.363636 343.870345 
L 118.95283 343.870345 
L 120.149228 342.711724 
L 127.327616 342.711724 
L 128.524014 341.553103 
L 135.702401 341.553103 
L 136.898799 340.394483 
L 163.219554 340.394483 
L 164.415952 339.235862 
L 207.486278 339.235862 
L 209.879074 336.918621 
L 219.450257 336.918621 
L 220.646655 335.76 
L 225.432247 335.76 
L 226.628645 334.601379 
L 229.021441 334.601379 
L 230.217839 333.442759 
L 261.324185 333.442759 
L 262.520583 332.284138 
L 311.572899 332.284138 
L 312.769297 331.125517 
L 468.301029 331.125517 
L 469.497427 329.966897 
L 470.693825 329.966897 
L 471.890223 328.808276 
L 547.263293 328.808276 
L 548.459691 327.649655 
L 622.636364 327.649655 
L 622.636364 327.649655 
" clip-path="url(#p29006df005)" style="fill: none; stroke: #9467bd; stroke-width: 1.5; stroke-linecap: square"/>
   </g>
   <g id="line2d_32">
    <path d="M 115.363636 353.13931 
L 116.560034 353.13931 
L 117.756432 351.98069 
L 134.506003 351.98069 
L 135.702401 350.822069 
L 150.059177 350.822069 
L 151.255575 349.663448 
L 169.201544 349.663448 
L 171.59434 347.346207 
L 184.754717 347.346207 
L 185.951115 346.187586 
L 221.843053 346.187586 
L 223.039451 345.028966 
L 233.807033 345.028966 
L 235.003431 343.870345 
L 255.342196 343.870345 
L 256.538593 342.711724 
L 275.680961 342.711724 
L 276.877358 341.553103 
L 281.66295 341.553103 
L 282.859348 340.394483 
L 293.62693 340.394483 
L 294.823328 339.235862 
L 323.536878 339.235862 
L 324.733276 338.077241 
L 331.911664 338.077241 
L 333.108062 336.918621 
L 340.286449 336.918621 
L 341.482847 335.76 
L 346.268439 335.76 
L 347.464837 334.601379 
L 391.731561 334.601379 
L 392.927959 333.442759 
L 427.623499 333.442759 
L 428.819897 332.284138 
L 498.210978 332.284138 
L 499.407376 331.125517 
L 532.906518 331.125517 
L 534.102916 329.966897 
L 549.656089 329.966897 
L 550.852487 328.808276 
L 622.636364 328.808276 
L 622.636364 328.808276 
" clip-path="url(#p29006df005)" style="fill: none; stroke: #8c564b; stroke-width: 1.5; stroke-linecap: square"/>
   </g>
   <g id="line2d_33">
    <path d="M 115.363636 267.401379 
L 120.149228 267.401379 
L 121.345626 266.242759 
L 126.131218 266.242759 
L 128.524014 263.925517 
L 129.720412 263.925517 
L 130.91681 262.766897 
L 132.113208 262.766897 
L 133.309605 261.608276 
L 135.702401 261.608276 
L 136.898799 260.449655 
L 140.487993 260.449655 
L 141.684391 259.291034 
L 144.077187 259.291034 
L 145.273585 258.132414 
L 146.469983 258.132414 
L 147.666381 256.973793 
L 150.059177 256.973793 
L 152.451973 254.656552 
L 157.237564 254.656552 
L 158.433962 253.497931 
L 162.023156 253.497931 
L 164.415952 251.18069 
L 166.808748 251.18069 
L 168.005146 250.022069 
L 170.397942 250.022069 
L 171.59434 248.863448 
L 172.790738 246.546207 
L 173.987136 243.070345 
L 176.379931 243.070345 
L 177.576329 241.911724 
L 183.558319 241.911724 
L 185.951115 239.594483 
L 187.147513 237.277241 
L 188.343911 236.118621 
L 189.540309 236.118621 
L 190.736707 233.801379 
L 195.522298 233.801379 
L 196.718696 232.642759 
L 197.915094 232.642759 
L 200.30789 230.325517 
L 201.504288 230.325517 
L 202.700686 229.166897 
L 203.897084 229.166897 
L 206.28988 226.849655 
L 208.682676 226.849655 
L 209.879074 224.532414 
L 214.664666 224.532414 
L 217.057461 222.215172 
L 219.450257 222.215172 
L 220.646655 221.056552 
L 221.843053 218.73931 
L 225.432247 218.73931 
L 226.628645 217.58069 
L 227.825043 217.58069 
L 229.021441 215.263448 
L 230.217839 215.263448 
L 231.414237 214.104828 
L 232.610635 214.104828 
L 233.807033 212.946207 
L 238.592624 212.946207 
L 240.98542 210.628966 
L 242.181818 210.628966 
L 243.378216 208.311724 
L 244.574614 208.311724 
L 245.771012 207.153103 
L 246.96741 207.153103 
L 248.163808 205.994483 
L 251.753002 205.994483 
L 252.9494 204.835862 
L 254.145798 204.835862 
L 258.931389 200.201379 
L 260.127787 197.884138 
L 262.520583 197.884138 
L 264.913379 193.249655 
L 267.306175 193.249655 
L 269.698971 190.932414 
L 270.895369 190.932414 
L 272.091767 188.615172 
L 273.288165 188.615172 
L 274.484563 187.456552 
L 275.680961 187.456552 
L 276.877358 186.297931 
L 279.270154 186.297931 
L 280.466552 185.13931 
L 281.66295 185.13931 
L 282.859348 183.98069 
L 287.64494 183.98069 
L 288.841338 178.187586 
L 290.037736 178.187586 
L 291.234134 177.028966 
L 294.823328 177.028966 
L 296.019726 175.870345 
L 306.787307 175.870345 
L 307.983705 173.553103 
L 312.769297 173.553103 
L 313.965695 172.394483 
L 325.929674 172.394483 
L 327.126072 170.077241 
L 328.32247 168.918621 
L 334.30446 168.918621 
L 335.500858 167.76 
L 343.875643 167.76 
L 345.072041 166.601379 
L 346.268439 166.601379 
L 347.464837 165.442759 
L 354.643225 165.442759 
L 357.036021 163.125517 
L 365.410806 163.125517 
L 367.803602 160.808276 
L 369 160.808276 
L 370.196398 159.649655 
L 377.374786 159.649655 
L 378.571184 158.491034 
L 382.160377 158.491034 
L 383.356775 157.332414 
L 384.553173 155.015172 
L 388.142367 155.015172 
L 389.338765 153.856552 
L 390.535163 153.856552 
L 392.927959 151.53931 
L 397.713551 151.53931 
L 398.909949 150.38069 
L 403.69554 150.38069 
L 404.891938 149.222069 
L 408.481132 149.222069 
L 409.67753 148.063448 
L 419.248714 148.063448 
L 421.641509 145.746207 
L 427.623499 145.746207 
L 428.819897 144.587586 
L 433.605489 144.587586 
L 439.587479 138.794483 
L 441.980274 138.794483 
L 443.176672 137.635862 
L 444.37307 137.635862 
L 445.569468 135.318621 
L 447.962264 133.001379 
L 450.35506 128.366897 
L 452.747856 128.366897 
L 455.140652 123.732414 
L 457.533448 123.732414 
L 458.729846 121.415172 
L 461.122642 119.097931 
L 464.711835 119.097931 
L 465.908233 117.93931 
L 467.104631 117.93931 
L 469.497427 115.622069 
L 474.283019 115.622069 
L 475.479417 114.463448 
L 477.872213 114.463448 
L 479.068611 113.304828 
L 485.0506 113.304828 
L 486.246998 110.987586 
L 487.443396 109.828966 
L 488.639794 109.828966 
L 489.836192 108.670345 
L 492.228988 108.670345 
L 493.425386 107.511724 
L 495.818182 107.511724 
L 497.01458 105.194483 
L 499.407376 105.194483 
L 500.603774 104.035862 
L 501.800172 104.035862 
L 502.996569 102.877241 
L 508.978559 102.877241 
L 510.174957 101.718621 
L 516.156947 101.718621 
L 517.353345 100.56 
L 518.549743 100.56 
L 519.746141 98.242759 
L 522.138937 95.925517 
L 523.335334 92.449655 
L 524.531732 91.291034 
L 525.72813 91.291034 
L 526.924528 90.132414 
L 528.120926 90.132414 
L 529.317324 88.973793 
L 534.102916 88.973793 
L 535.299314 87.815172 
L 537.69211 87.815172 
L 538.888508 86.656552 
L 541.281304 86.656552 
L 543.674099 84.33931 
L 547.263293 84.33931 
L 548.459691 83.18069 
L 554.441681 83.18069 
L 555.638079 80.863448 
L 561.620069 80.863448 
L 562.816467 79.704828 
L 566.40566 79.704828 
L 567.602058 77.387586 
L 572.38765 77.387586 
L 573.584048 76.228966 
L 584.35163 76.228966 
L 585.548027 75.070345 
L 587.940823 75.070345 
L 589.137221 73.911724 
L 597.512007 73.911724 
L 598.708405 72.753103 
L 599.904803 72.753103 
L 601.101201 71.594483 
L 602.297599 71.594483 
L 603.493997 70.435862 
L 610.672384 70.435862 
L 613.06518 68.118621 
L 622.636364 68.118621 
L 622.636364 68.118621 
" clip-path="url(#p29006df005)" style="fill: none; stroke: #e377c2; stroke-width: 1.5; stroke-linecap: square"/>
   </g>
   <g id="line2d_34">
    <path d="M 115.363636 339.235862 
L 116.560034 339.235862 
L 118.95283 336.918621 
L 124.93482 336.918621 
L 126.131218 335.76 
L 127.327616 335.76 
L 129.720412 333.442759 
L 132.113208 333.442759 
L 133.309605 332.284138 
L 136.898799 332.284138 
L 138.095197 331.125517 
L 139.291595 331.125517 
L 140.487993 329.966897 
L 141.684391 329.966897 
L 144.077187 327.649655 
L 147.666381 327.649655 
L 148.862779 326.491034 
L 151.255575 326.491034 
L 153.648371 324.173793 
L 156.041166 324.173793 
L 158.433962 321.856552 
L 159.63036 321.856552 
L 160.826758 320.697931 
L 162.023156 317.222069 
L 166.808748 317.222069 
L 171.59434 312.587586 
L 172.790738 312.587586 
L 175.183533 310.270345 
L 176.379931 310.270345 
L 177.576329 309.111724 
L 178.772727 309.111724 
L 179.969125 307.953103 
L 190.736707 307.953103 
L 191.933105 306.794483 
L 203.897084 306.794483 
L 206.28988 304.477241 
L 209.879074 304.477241 
L 211.075472 303.318621 
L 213.468268 303.318621 
L 215.861063 301.001379 
L 218.253859 301.001379 
L 219.450257 298.684138 
L 223.039451 298.684138 
L 224.235849 296.366897 
L 225.432247 295.208276 
L 231.414237 295.208276 
L 232.610635 294.049655 
L 233.807033 294.049655 
L 236.199828 291.732414 
L 242.181818 291.732414 
L 243.378216 290.573793 
L 244.574614 290.573793 
L 245.771012 289.415172 
L 252.9494 289.415172 
L 254.145798 288.256552 
L 257.734991 288.256552 
L 258.931389 287.097931 
L 260.127787 287.097931 
L 261.324185 283.622069 
L 262.520583 283.622069 
L 263.716981 281.304828 
L 264.913379 280.146207 
L 266.109777 280.146207 
L 268.502573 277.828966 
L 270.895369 277.828966 
L 272.091767 276.670345 
L 274.484563 276.670345 
L 275.680961 275.511724 
L 276.877358 275.511724 
L 278.073756 273.194483 
L 279.270154 273.194483 
L 280.466552 272.035862 
L 282.859348 272.035862 
L 285.252144 269.718621 
L 286.448542 269.718621 
L 287.64494 267.401379 
L 288.841338 266.242759 
L 297.216124 266.242759 
L 298.412521 263.925517 
L 302.001715 263.925517 
L 303.198113 262.766897 
L 304.394511 262.766897 
L 305.590909 261.608276 
L 309.180103 261.608276 
L 310.376501 260.449655 
L 316.358491 260.449655 
L 317.554889 259.291034 
L 319.947684 259.291034 
L 321.144082 258.132414 
L 327.126072 258.132414 
L 328.32247 256.973793 
L 339.090051 256.973793 
L 341.482847 254.656552 
L 342.679245 254.656552 
L 343.875643 253.497931 
L 345.072041 253.497931 
L 346.268439 252.33931 
L 347.464837 252.33931 
L 348.661235 251.18069 
L 351.054031 251.18069 
L 352.250429 250.022069 
L 353.446827 250.022069 
L 355.839623 247.704828 
L 359.428816 247.704828 
L 360.625214 246.546207 
L 364.214408 246.546207 
L 365.410806 245.387586 
L 373.785592 245.387586 
L 374.98199 244.228966 
L 376.178388 244.228966 
L 377.374786 243.070345 
L 382.160377 243.070345 
L 383.356775 240.753103 
L 390.535163 240.753103 
L 391.731561 239.594483 
L 392.927959 239.594483 
L 394.124357 237.277241 
L 400.106346 237.277241 
L 401.302744 236.118621 
L 408.481132 236.118621 
L 409.67753 234.96 
L 425.230703 234.96 
L 426.427101 233.801379 
L 444.37307 233.801379 
L 445.569468 232.642759 
L 451.551458 232.642759 
L 452.747856 231.484138 
L 453.944254 231.484138 
L 455.140652 230.325517 
L 456.33705 230.325517 
L 457.533448 228.008276 
L 458.729846 228.008276 
L 461.122642 225.691034 
L 469.497427 225.691034 
L 470.693825 224.532414 
L 471.890223 224.532414 
L 473.086621 223.373793 
L 474.283019 223.373793 
L 475.479417 222.215172 
L 481.461407 222.215172 
L 482.657804 221.056552 
L 493.425386 221.056552 
L 494.621784 219.897931 
L 500.603774 219.897931 
L 501.800172 218.73931 
L 507.782161 218.73931 
L 508.978559 217.58069 
L 511.371355 217.58069 
L 514.960549 214.104828 
L 517.353345 214.104828 
L 518.549743 211.787586 
L 524.531732 211.787586 
L 526.924528 209.470345 
L 529.317324 209.470345 
L 530.513722 208.311724 
L 531.71012 208.311724 
L 534.102916 205.994483 
L 542.477702 205.994483 
L 543.674099 204.835862 
L 546.066895 204.835862 
L 547.263293 203.677241 
L 556.834477 203.677241 
L 559.227273 201.36 
L 562.816467 201.36 
L 564.012865 200.201379 
L 565.209262 200.201379 
L 566.40566 196.725517 
L 567.602058 195.566897 
L 572.38765 195.566897 
L 573.584048 193.249655 
L 577.173242 193.249655 
L 578.36964 192.091034 
L 590.333619 192.091034 
L 591.530017 190.932414 
L 603.493997 190.932414 
L 605.886792 188.615172 
L 614.261578 188.615172 
L 615.457976 187.456552 
L 622.636364 187.456552 
L 622.636364 187.456552 
" clip-path="url(#p29006df005)" style="fill: none; stroke: #7f7f7f; stroke-width: 1.5; stroke-linecap: square"/>
   </g>
   <g id="line2d_35">
    <path d="M 115.363636 346.187586 
L 120.149228 346.187586 
L 121.345626 345.028966 
L 133.309605 345.028966 
L 134.506003 343.870345 
L 140.487993 343.870345 
L 141.684391 342.711724 
L 153.648371 342.711724 
L 154.844768 341.553103 
L 166.808748 341.553103 
L 168.005146 340.394483 
L 232.610635 340.394483 
L 233.807033 339.235862 
L 239.789022 339.235862 
L 240.98542 338.077241 
L 249.360206 338.077241 
L 250.556604 336.918621 
L 251.753002 336.918621 
L 252.9494 333.442759 
L 254.145798 332.284138 
L 256.538593 332.284138 
L 257.734991 331.125517 
L 269.698971 331.125517 
L 270.895369 329.966897 
L 281.66295 329.966897 
L 282.859348 328.808276 
L 296.019726 328.808276 
L 297.216124 327.649655 
L 311.572899 327.649655 
L 312.769297 326.491034 
L 318.751286 326.491034 
L 319.947684 325.332414 
L 358.232419 325.332414 
L 359.428816 324.173793 
L 361.821612 324.173793 
L 363.01801 323.015172 
L 372.589194 323.015172 
L 373.785592 321.856552 
L 407.284734 321.856552 
L 410.873928 318.38069 
L 445.569468 318.38069 
L 446.765866 317.222069 
L 447.962264 317.222069 
L 450.35506 314.904828 
L 452.747856 314.904828 
L 453.944254 313.746207 
L 514.960549 313.746207 
L 516.156947 312.587586 
L 585.548027 312.587586 
L 586.744425 311.428966 
L 622.636364 311.428966 
L 622.636364 311.428966 
" clip-path="url(#p29006df005)" style="fill: none; stroke: #bcbd22; stroke-width: 1.5; stroke-linecap: square"/>
   </g>
   <g id="line2d_36">
    <path d="M 115.363636 367.042759 
L 175.183533 367.042759 
L 176.379931 365.884138 
L 251.753002 365.884138 
L 252.9494 364.725517 
L 374.98199 364.725517 
L 376.178388 363.566897 
L 377.374786 364.725517 
L 522.138937 364.725517 
L 523.335334 363.566897 
L 531.71012 363.566897 
L 532.906518 362.408276 
L 562.816467 362.408276 
L 564.012865 361.249655 
L 622.636364 361.249655 
L 622.636364 361.249655 
" clip-path="url(#p29006df005)" style="fill: none; stroke: #17becf; stroke-width: 1.5; stroke-linecap: square"/>
   </g>
   <g id="line2d_37">
    <path d="M 115.363636 369.36 
L 116.560034 368.201379 
L 118.95283 368.201379 
L 120.149228 367.042759 
L 128.524014 367.042759 
L 129.720412 365.884138 
L 133.309605 365.884138 
L 134.506003 364.725517 
L 135.702401 364.725517 
L 138.095197 362.408276 
L 144.077187 362.408276 
L 146.469983 360.091034 
L 147.666381 360.091034 
L 148.862779 358.932414 
L 157.237564 358.932414 
L 158.433962 357.773793 
L 159.63036 355.456552 
L 162.023156 355.456552 
L 163.219554 354.297931 
L 164.415952 354.297931 
L 165.61235 353.13931 
L 166.808748 353.13931 
L 168.005146 351.98069 
L 169.201544 351.98069 
L 171.59434 349.663448 
L 178.772727 349.663448 
L 181.165523 347.346207 
L 184.754717 347.346207 
L 185.951115 346.187586 
L 187.147513 346.187586 
L 188.343911 343.870345 
L 191.933105 343.870345 
L 194.325901 339.235862 
L 201.504288 339.235862 
L 202.700686 336.918621 
L 203.897084 335.76 
L 207.486278 335.76 
L 208.682676 334.601379 
L 209.879074 332.284138 
L 212.27187 332.284138 
L 213.468268 331.125517 
L 230.217839 331.125517 
L 231.414237 328.808276 
L 239.789022 320.697931 
L 251.753002 320.697931 
L 255.342196 317.222069 
L 257.734991 317.222069 
L 258.931389 314.904828 
L 261.324185 314.904828 
L 262.520583 313.746207 
L 266.109777 313.746207 
L 267.306175 312.587586 
L 268.502573 312.587586 
L 269.698971 311.428966 
L 270.895369 311.428966 
L 273.288165 309.111724 
L 288.841338 309.111724 
L 291.234134 306.794483 
L 300.805317 306.794483 
L 302.001715 305.635862 
L 305.590909 305.635862 
L 307.983705 303.318621 
L 311.572899 303.318621 
L 312.769297 302.16 
L 315.162093 302.16 
L 316.358491 301.001379 
L 322.34048 301.001379 
L 323.536878 299.842759 
L 324.733276 299.842759 
L 325.929674 297.525517 
L 327.126072 297.525517 
L 328.32247 296.366897 
L 334.30446 296.366897 
L 335.500858 295.208276 
L 337.893654 295.208276 
L 339.090051 294.049655 
L 340.286449 294.049655 
L 342.679245 291.732414 
L 351.054031 291.732414 
L 352.250429 290.573793 
L 353.446827 290.573793 
L 354.643225 289.415172 
L 360.625214 289.415172 
L 361.821612 287.097931 
L 363.01801 285.93931 
L 369 285.93931 
L 370.196398 284.78069 
L 374.98199 284.78069 
L 376.178388 282.463448 
L 380.963979 282.463448 
L 383.356775 280.146207 
L 386.945969 280.146207 
L 388.142367 278.987586 
L 402.499142 278.987586 
L 403.69554 276.670345 
L 404.891938 275.511724 
L 414.463122 275.511724 
L 415.65952 274.353103 
L 437.194683 274.353103 
L 438.391081 273.194483 
L 440.783877 273.194483 
L 441.980274 272.035862 
L 445.569468 272.035862 
L 446.765866 270.877241 
L 462.319039 270.877241 
L 463.515437 268.56 
L 465.908233 268.56 
L 467.104631 267.401379 
L 468.301029 267.401379 
L 469.497427 266.242759 
L 474.283019 266.242759 
L 475.479417 265.084138 
L 483.854202 265.084138 
L 485.0506 262.766897 
L 486.246998 262.766897 
L 487.443396 261.608276 
L 493.425386 261.608276 
L 494.621784 260.449655 
L 500.603774 260.449655 
L 502.996569 258.132414 
L 505.389365 258.132414 
L 506.585763 256.973793 
L 508.978559 256.973793 
L 510.174957 255.815172 
L 511.371355 255.815172 
L 512.567753 254.656552 
L 520.942539 254.656552 
L 522.138937 253.497931 
L 549.656089 253.497931 
L 550.852487 252.33931 
L 556.834477 252.33931 
L 558.030875 251.18069 
L 571.191252 251.18069 
L 572.38765 250.022069 
L 622.636364 250.022069 
L 622.636364 250.022069 
" clip-path="url(#p29006df005)" style="fill: none; stroke: #1f77b4; stroke-width: 1.5; stroke-linecap: square"/>
   </g>
   <g id="line2d_38">
    <path d="M 115.363636 326.491034 
L 123.738422 326.491034 
L 124.93482 325.332414 
L 128.524014 325.332414 
L 129.720412 324.173793 
L 134.506003 324.173793 
L 135.702401 323.015172 
L 139.291595 323.015172 
L 140.487993 321.856552 
L 141.684391 321.856552 
L 142.880789 320.697931 
L 146.469983 320.697931 
L 147.666381 319.53931 
L 150.059177 319.53931 
L 151.255575 318.38069 
L 152.451973 318.38069 
L 154.844768 316.063448 
L 162.023156 316.063448 
L 163.219554 314.904828 
L 164.415952 314.904828 
L 165.61235 313.746207 
L 166.808748 313.746207 
L 168.005146 311.428966 
L 169.201544 307.953103 
L 170.397942 306.794483 
L 175.183533 306.794483 
L 178.772727 303.318621 
L 182.361921 303.318621 
L 184.754717 301.001379 
L 197.915094 301.001379 
L 199.111492 297.525517 
L 200.30789 297.525517 
L 202.700686 292.891034 
L 205.093482 290.573793 
L 206.28988 290.573793 
L 207.486278 288.256552 
L 217.057461 288.256552 
L 218.253859 285.93931 
L 221.843053 285.93931 
L 223.039451 284.78069 
L 231.414237 284.78069 
L 232.610635 283.622069 
L 246.96741 283.622069 
L 248.163808 282.463448 
L 249.360206 282.463448 
L 250.556604 281.304828 
L 254.145798 281.304828 
L 255.342196 280.146207 
L 269.698971 280.146207 
L 270.895369 278.987586 
L 273.288165 278.987586 
L 275.680961 274.353103 
L 278.073756 274.353103 
L 280.466552 272.035862 
L 282.859348 272.035862 
L 284.055746 270.877241 
L 287.64494 270.877241 
L 288.841338 269.718621 
L 303.198113 269.718621 
L 304.394511 268.56 
L 322.34048 268.56 
L 323.536878 267.401379 
L 334.30446 267.401379 
L 335.500858 266.242759 
L 337.893654 266.242759 
L 339.090051 265.084138 
L 342.679245 265.084138 
L 345.072041 262.766897 
L 346.268439 262.766897 
L 347.464837 261.608276 
L 352.250429 261.608276 
L 354.643225 259.291034 
L 360.625214 259.291034 
L 361.821612 258.132414 
L 365.410806 258.132414 
L 366.607204 256.973793 
L 372.589194 256.973793 
L 373.785592 255.815172 
L 379.767581 255.815172 
L 380.963979 254.656552 
L 402.499142 254.656552 
L 403.69554 253.497931 
L 404.891938 253.497931 
L 406.088336 252.33931 
L 418.052316 252.33931 
L 419.248714 250.022069 
L 420.445111 250.022069 
L 421.641509 248.863448 
L 433.605489 248.863448 
L 434.801887 247.704828 
L 439.587479 247.704828 
L 440.783877 246.546207 
L 441.980274 246.546207 
L 443.176672 245.387586 
L 453.944254 245.387586 
L 455.140652 244.228966 
L 479.068611 244.228966 
L 480.265009 240.753103 
L 488.639794 240.753103 
L 489.836192 239.594483 
L 492.228988 239.594483 
L 493.425386 238.435862 
L 507.782161 238.435862 
L 508.978559 237.277241 
L 525.72813 237.277241 
L 526.924528 236.118621 
L 530.513722 236.118621 
L 531.71012 234.96 
L 541.281304 234.96 
L 542.477702 232.642759 
L 561.620069 232.642759 
L 562.816467 231.484138 
L 568.798456 231.484138 
L 569.994854 230.325517 
L 587.940823 230.325517 
L 589.137221 229.166897 
L 591.530017 229.166897 
L 592.726415 228.008276 
L 604.690395 228.008276 
L 605.886792 226.849655 
L 619.04717 226.849655 
L 620.243568 225.691034 
L 622.636364 225.691034 
L 622.636364 225.691034 
" clip-path="url(#p29006df005)" style="fill: none; stroke: #ff7f0e; stroke-width: 1.5; stroke-linecap: square"/>
   </g>
   <g id="patch_3">
    <path d="M 90 384.48 
L 90 51.84 
" style="fill: none; stroke: #000000; stroke-width: 0.8; stroke-linejoin: miter; stroke-linecap: square"/>
   </g>
   <g id="patch_4">
    <path d="M 648 384.48 
L 648 51.84 
" style="fill: none; stroke: #000000; stroke-width: 0.8; stroke-linejoin: miter; stroke-linecap: square"/>
   </g>
   <g id="patch_5">
    <path d="M 90 384.48 
L 648 384.48 
" style="fill: none; stroke: #000000; stroke-width: 0.8; stroke-linejoin: miter; stroke-linecap: square"/>
   </g>
   <g id="patch_6">
    <path d="M 90 51.84 
L 648 51.84 
" style="fill: none; stroke: #000000; stroke-width: 0.8; stroke-linejoin: miter; stroke-linecap: square"/>
   </g>
   <g id="text_16">
    <!-- Time Series of Votes for Each Keyword -->
    <g transform="translate(253.716563 45.84) scale(0.12 -0.12)">
     <defs>
      <path id="DejaVuSans-53" d="M 3425 4513 
L 3425 3897 
Q 3066 4069 2747 4153 
Q 2428 4238 2131 4238 
Q 1616 4238 1336 4038 
Q 1056 3838 1056 3469 
Q 1056 3159 1242 3001 
Q 1428 2844 1947 2747 
L 2328 2669 
Q 3034 2534 3370 2195 
Q 3706 1856 3706 1288 
Q 3706 609 3251 259 
Q 2797 -91 1919 -91 
Q 1588 -91 1214 -16 
Q 841 59 441 206 
L 441 856 
Q 825 641 1194 531 
Q 1563 422 1919 422 
Q 2459 422 2753 634 
Q 3047 847 3047 1241 
Q 3047 1584 2836 1778 
Q 2625 1972 2144 2069 
L 1759 2144 
Q 1053 2284 737 2584 
Q 422 2884 422 3419 
Q 422 4038 858 4394 
Q 1294 4750 2059 4750 
Q 2388 4750 2728 4690 
Q 3069 4631 3425 4513 
z
" transform="scale(0.015625)"/>
      <path id="DejaVuSans-72" d="M 2631 2963 
Q 2534 3019 2420 3045 
Q 2306 3072 2169 3072 
Q 1681 3072 1420 2755 
Q 1159 2438 1159 1844 
L 1159 0 
L 581 0 
L 581 3500 
L 1159 3500 
L 1159 2956 
Q 1341 3275 1631 3429 
Q 1922 3584 2338 3584 
Q 2397 3584 2469 3576 
Q 2541 3569 2628 3553 
L 2631 2963 
z
" transform="scale(0.015625)"/>
      <path id="DejaVuSans-66" d="M 2375 4863 
L 2375 4384 
L 1825 4384 
Q 1516 4384 1395 4259 
Q 1275 4134 1275 3809 
L 1275 3500 
L 2222 3500 
L 2222 3053 
L 1275 3053 
L 1275 0 
L 697 0 
L 697 3053 
L 147 3053 
L 147 3500 
L 697 3500 
L 697 3744 
Q 697 4328 969 4595 
Q 1241 4863 1831 4863 
L 2375 4863 
z
" transform="scale(0.015625)"/>
      <path id="DejaVuSans-45" d="M 628 4666 
L 3578 4666 
L 3578 4134 
L 1259 4134 
L 1259 2753 
L 3481 2753 
L 3481 2222 
L 1259 2222 
L 1259 531 
L 3634 531 
L 3634 0 
L 628 0 
L 628 4666 
z
" transform="scale(0.015625)"/>
      <path id="DejaVuSans-63" d="M 3122 3366 
L 3122 2828 
Q 2878 2963 2633 3030 
Q 2388 3097 2138 3097 
Q 1578 3097 1268 2742 
Q 959 2388 959 1747 
Q 959 1106 1268 751 
Q 1578 397 2138 397 
Q 2388 397 2633 464 
Q 2878 531 3122 666 
L 3122 134 
Q 2881 22 2623 -34 
Q 2366 -91 2075 -91 
Q 1284 -91 818 406 
Q 353 903 353 1747 
Q 353 2603 823 3093 
Q 1294 3584 2113 3584 
Q 2378 3584 2631 3529 
Q 2884 3475 3122 3366 
z
" transform="scale(0.015625)"/>
      <path id="DejaVuSans-68" d="M 3513 2113 
L 3513 0 
L 2938 0 
L 2938 2094 
Q 2938 2591 2744 2837 
Q 2550 3084 2163 3084 
Q 1697 3084 1428 2787 
Q 1159 2491 1159 1978 
L 1159 0 
L 581 0 
L 581 4863 
L 1159 4863 
L 1159 2956 
Q 1366 3272 1645 3428 
Q 1925 3584 2291 3584 
Q 2894 3584 3203 3211 
Q 3513 2838 3513 2113 
z
" transform="scale(0.015625)"/>
      <path id="DejaVuSans-4b" d="M 628 4666 
L 1259 4666 
L 1259 2694 
L 3353 4666 
L 4166 4666 
L 1850 2491 
L 4331 0 
L 3500 0 
L 1259 2247 
L 1259 0 
L 628 0 
L 628 4666 
z
" transform="scale(0.015625)"/>
      <path id="DejaVuSans-79" d="M 2059 -325 
Q 1816 -950 1584 -1140 
Q 1353 -1331 966 -1331 
L 506 -1331 
L 506 -850 
L 844 -850 
Q 1081 -850 1212 -737 
Q 1344 -625 1503 -206 
L 1606 56 
L 191 3500 
L 800 3500 
L 1894 763 
L 2988 3500 
L 3597 3500 
L 2059 -325 
z
" transform="scale(0.015625)"/>
      <path id="DejaVuSans-77" d="M 269 3500 
L 844 3500 
L 1563 769 
L 2278 3500 
L 2956 3500 
L 3675 769 
L 4391 3500 
L 4966 3500 
L 4050 0 
L 3372 0 
L 2619 2869 
L 1863 0 
L 1184 0 
L 269 3500 
z
" transform="scale(0.015625)"/>
     </defs>
     <use xlink:href="#DejaVuSans-54"/>
     <use xlink:href="#DejaVuSans-69" transform="translate(57.958984 0)"/>
     <use xlink:href="#DejaVuSans-6d" transform="translate(85.742188 0)"/>
     <use xlink:href="#DejaVuSans-65" transform="translate(183.154297 0)"/>
     <use xlink:href="#DejaVuSans-20" transform="translate(244.677734 0)"/>
     <use xlink:href="#DejaVuSans-53" transform="translate(276.464844 0)"/>
     <use xlink:href="#DejaVuSans-65" transform="translate(339.941406 0)"/>
     <use xlink:href="#DejaVuSans-72" transform="translate(401.464844 0)"/>
     <use xlink:href="#DejaVuSans-69" transform="translate(442.578125 0)"/>
     <use xlink:href="#DejaVuSans-65" transform="translate(470.361328 0)"/>
     <use xlink:href="#DejaVuSans-73" transform="translate(531.884766 0)"/>
     <use xlink:href="#DejaVuSans-20" transform="translate(583.984375 0)"/>
     <use xlink:href="#DejaVuSans-6f" transform="translate(615.771484 0)"/>
     <use xlink:href="#DejaVuSans-66" transform="translate(676.953125 0)"/>
     <use xlink:href="#DejaVuSans-20" transform="translate(712.158203 0)"/>
     <use xlink:href="#DejaVuSans-56" transform="translate(743.945312 0)"/>
     <use xlink:href="#DejaVuSans-6f" transform="translate(804.603516 0)"/>
     <use xlink:href="#DejaVuSans-74" transform="translate(865.785156 0)"/>
     <use xlink:href="#DejaVuSans-65" transform="translate(904.994141 0)"/>
     <use xlink:href="#DejaVuSans-73" transform="translate(966.517578 0)"/>
     <use xlink:href="#DejaVuSans-20" transform="translate(1018.617188 0)"/>
     <use xlink:href="#DejaVuSans-66" transform="translate(1050.404297 0)"/>
     <use xlink:href="#DejaVuSans-6f" transform="translate(1085.609375 0)"/>
     <use xlink:href="#DejaVuSans-72" transform="translate(1146.791016 0)"/>
     <use xlink:href="#DejaVuSans-20" transform="translate(1187.904297 0)"/>
     <use xlink:href="#DejaVuSans-45" transform="translate(1219.691406 0)"/>
     <use xlink:href="#DejaVuSans-61" transform="translate(1282.875 0)"/>
     <use xlink:href="#DejaVuSans-63" transform="translate(1344.154297 0)"/>
     <use xlink:href="#DejaVuSans-68" transform="translate(1399.134766 0)"/>
     <use xlink:href="#DejaVuSans-20" transform="translate(1462.513672 0)"/>
     <use xlink:href="#DejaVuSans-4b" transform="translate(1494.300781 0)"/>
     <use xlink:href="#DejaVuSans-65" transform="translate(1554.876953 0)"/>
     <use xlink:href="#DejaVuSans-79" transform="translate(1616.400391 0)"/>
     <use xlink:href="#DejaVuSans-77" transform="translate(1675.580078 0)"/>
     <use xlink:href="#DejaVuSans-6f" transform="translate(1757.367188 0)"/>
     <use xlink:href="#DejaVuSans-72" transform="translate(1818.548828 0)"/>
     <use xlink:href="#DejaVuSans-64" transform="translate(1857.912109 0)"/>
    </g>
   </g>
   <g id="legend_1">
    <g id="patch_7">
     <path d="M 97 235.9775 
L 149.245313 235.9775 
Q 151.245313 235.9775 151.245313 233.9775 
L 151.245313 58.84 
Q 151.245313 56.84 149.245313 56.84 
L 97 56.84 
Q 95 56.84 95 58.84 
L 95 233.9775 
Q 95 235.9775 97 235.9775 
z
" style="fill: #ffffff; opacity: 0.8; stroke: #cccccc; stroke-linejoin: miter"/>
    </g>
    <g id="line2d_39">
     <path d="M 99 64.938437 
L 109 64.938437 
L 119 64.938437 
" style="fill: none; stroke: #1f77b4; stroke-width: 1.5; stroke-linecap: square"/>
    </g>
    <g id="text_17">
     <!-- H01 -->
     <g transform="translate(127 68.438437) scale(0.1 -0.1)">
      <defs>
       <path id="DejaVuSans-48" d="M 628 4666 
L 1259 4666 
L 1259 2753 
L 3553 2753 
L 3553 4666 
L 4184 4666 
L 4184 0 
L 3553 0 
L 3553 2222 
L 1259 2222 
L 1259 0 
L 628 0 
L 628 4666 
z
" transform="scale(0.015625)"/>
      </defs>
      <use xlink:href="#DejaVuSans-48"/>
      <use xlink:href="#DejaVuSans-30" transform="translate(75.195312 0)"/>
      <use xlink:href="#DejaVuSans-31" transform="translate(138.818359 0)"/>
     </g>
    </g>
    <g id="line2d_40">
     <path d="M 99 79.616562 
L 109 79.616562 
L 119 79.616562 
" style="fill: none; stroke: #ff7f0e; stroke-width: 1.5; stroke-linecap: square"/>
    </g>
    <g id="text_18">
     <!-- H02 -->
     <g transform="translate(127 83.116562) scale(0.1 -0.1)">
      <use xlink:href="#DejaVuSans-48"/>
      <use xlink:href="#DejaVuSans-30" transform="translate(75.195312 0)"/>
      <use xlink:href="#DejaVuSans-32" transform="translate(138.818359 0)"/>
     </g>
    </g>
    <g id="line2d_41">
     <path d="M 99 94.294688 
L 109 94.294688 
L 119 94.294688 
" style="fill: none; stroke: #2ca02c; stroke-width: 1.5; stroke-linecap: square"/>
    </g>
    <g id="text_19">
     <!-- H03 -->
     <g transform="translate(127 97.794688) scale(0.1 -0.1)">
      <defs>
       <path id="DejaVuSans-33" d="M 2597 2516 
Q 3050 2419 3304 2112 
Q 3559 1806 3559 1356 
Q 3559 666 3084 287 
Q 2609 -91 1734 -91 
Q 1441 -91 1130 -33 
Q 819 25 488 141 
L 488 750 
Q 750 597 1062 519 
Q 1375 441 1716 441 
Q 2309 441 2620 675 
Q 2931 909 2931 1356 
Q 2931 1769 2642 2001 
Q 2353 2234 1838 2234 
L 1294 2234 
L 1294 2753 
L 1863 2753 
Q 2328 2753 2575 2939 
Q 2822 3125 2822 3475 
Q 2822 3834 2567 4026 
Q 2313 4219 1838 4219 
Q 1578 4219 1281 4162 
Q 984 4106 628 3988 
L 628 4550 
Q 988 4650 1302 4700 
Q 1616 4750 1894 4750 
Q 2613 4750 3031 4423 
Q 3450 4097 3450 3541 
Q 3450 3153 3228 2886 
Q 3006 2619 2597 2516 
z
" transform="scale(0.015625)"/>
      </defs>
      <use xlink:href="#DejaVuSans-48"/>
      <use xlink:href="#DejaVuSans-30" transform="translate(75.195312 0)"/>
      <use xlink:href="#DejaVuSans-33" transform="translate(138.818359 0)"/>
     </g>
    </g>
    <g id="line2d_42">
     <path d="M 99 108.972812 
L 109 108.972812 
L 119 108.972812 
" style="fill: none; stroke: #d62728; stroke-width: 1.5; stroke-linecap: square"/>
    </g>
    <g id="text_20">
     <!-- H04 -->
     <g transform="translate(127 112.472812) scale(0.1 -0.1)">
      <use xlink:href="#DejaVuSans-48"/>
      <use xlink:href="#DejaVuSans-30" transform="translate(75.195312 0)"/>
      <use xlink:href="#DejaVuSans-34" transform="translate(138.818359 0)"/>
     </g>
    </g>
    <g id="line2d_43">
     <path d="M 99 123.650937 
L 109 123.650937 
L 119 123.650937 
" style="fill: none; stroke: #9467bd; stroke-width: 1.5; stroke-linecap: square"/>
    </g>
    <g id="text_21">
     <!-- H05 -->
     <g transform="translate(127 127.150937) scale(0.1 -0.1)">
      <use xlink:href="#DejaVuSans-48"/>
      <use xlink:href="#DejaVuSans-30" transform="translate(75.195312 0)"/>
      <use xlink:href="#DejaVuSans-35" transform="translate(138.818359 0)"/>
     </g>
    </g>
    <g id="line2d_44">
     <path d="M 99 138.329062 
L 109 138.329062 
L 119 138.329062 
" style="fill: none; stroke: #8c564b; stroke-width: 1.5; stroke-linecap: square"/>
    </g>
    <g id="text_22">
     <!-- H06 -->
     <g transform="translate(127 141.829062) scale(0.1 -0.1)">
      <use xlink:href="#DejaVuSans-48"/>
      <use xlink:href="#DejaVuSans-30" transform="translate(75.195312 0)"/>
      <use xlink:href="#DejaVuSans-36" transform="translate(138.818359 0)"/>
     </g>
    </g>
    <g id="line2d_45">
     <path d="M 99 153.007187 
L 109 153.007187 
L 119 153.007187 
" style="fill: none; stroke: #e377c2; stroke-width: 1.5; stroke-linecap: square"/>
    </g>
    <g id="text_23">
     <!-- H07 -->
     <g transform="translate(127 156.507187) scale(0.1 -0.1)">
      <use xlink:href="#DejaVuSans-48"/>
      <use xlink:href="#DejaVuSans-30" transform="translate(75.195312 0)"/>
      <use xlink:href="#DejaVuSans-37" transform="translate(138.818359 0)"/>
     </g>
    </g>
    <g id="line2d_46">
     <path d="M 99 167.685312 
L 109 167.685312 
L 119 167.685312 
" style="fill: none; stroke: #7f7f7f; stroke-width: 1.5; stroke-linecap: square"/>
    </g>
    <g id="text_24">
     <!-- H08 -->
     <g transform="translate(127 171.185312) scale(0.1 -0.1)">
      <use xlink:href="#DejaVuSans-48"/>
      <use xlink:href="#DejaVuSans-30" transform="translate(75.195312 0)"/>
      <use xlink:href="#DejaVuSans-38" transform="translate(138.818359 0)"/>
     </g>
    </g>
    <g id="line2d_47">
     <path d="M 99 182.363437 
L 109 182.363437 
L 119 182.363437 
" style="fill: none; stroke: #bcbd22; stroke-width: 1.5; stroke-linecap: square"/>
    </g>
    <g id="text_25">
     <!-- H09 -->
     <g transform="translate(127 185.863437) scale(0.1 -0.1)">
      <use xlink:href="#DejaVuSans-48"/>
      <use xlink:href="#DejaVuSans-30" transform="translate(75.195312 0)"/>
      <use xlink:href="#DejaVuSans-39" transform="translate(138.818359 0)"/>
     </g>
    </g>
    <g id="line2d_48">
     <path d="M 99 197.041562 
L 109 197.041562 
L 119 197.041562 
" style="fill: none; stroke: #17becf; stroke-width: 1.5; stroke-linecap: square"/>
    </g>
    <g id="text_26">
     <!-- H10 -->
     <g transform="translate(127 200.541562) scale(0.1 -0.1)">
      <use xlink:href="#DejaVuSans-48"/>
      <use xlink:href="#DejaVuSans-31" transform="translate(75.195312 0)"/>
      <use xlink:href="#DejaVuSans-30" transform="translate(138.818359 0)"/>
     </g>
    </g>
    <g id="line2d_49">
     <path d="M 99 211.719687 
L 109 211.719687 
L 119 211.719687 
" style="fill: none; stroke: #1f77b4; stroke-width: 1.5; stroke-linecap: square"/>
    </g>
    <g id="text_27">
     <!-- H11 -->
     <g transform="translate(127 215.219687) scale(0.1 -0.1)">
      <use xlink:href="#DejaVuSans-48"/>
      <use xlink:href="#DejaVuSans-31" transform="translate(75.195312 0)"/>
      <use xlink:href="#DejaVuSans-31" transform="translate(138.818359 0)"/>
     </g>
    </g>
    <g id="line2d_50">
     <path d="M 99 226.397812 
L 109 226.397812 
L 119 226.397812 
" style="fill: none; stroke: #ff7f0e; stroke-width: 1.5; stroke-linecap: square"/>
    </g>
    <g id="text_28">
     <!-- H12 -->
     <g transform="translate(127 229.897812) scale(0.1 -0.1)">
      <use xlink:href="#DejaVuSans-48"/>
      <use xlink:href="#DejaVuSans-31" transform="translate(75.195312 0)"/>
      <use xlink:href="#DejaVuSans-32" transform="translate(138.818359 0)"/>
     </g>
    </g>
   </g>
  </g>
 </g>
 <defs>
  <clipPath id="p29006df005">
   <rect x="90" y="51.84" width="558" height="332.64"/>
  </clipPath>
 </defs>
</svg>
