<?xml version="1.0" encoding="utf-8" standalone="no"?>
<!DOCTYPE svg PUBLIC "-//W3C//DTD SVG 1.1//EN"
  "http://www.w3.org/Graphics/SVG/1.1/DTD/svg11.dtd">
<svg xmlns:xlink="http://www.w3.org/1999/xlink" width="720pt" height="432pt" viewBox="0 0 720 432" xmlns="http://www.w3.org/2000/svg" version="1.1">
 <metadata>
  <rdf:RDF xmlns:dc="http://purl.org/dc/elements/1.1/" xmlns:cc="http://creativecommons.org/ns#" xmlns:rdf="http://www.w3.org/1999/02/22-rdf-syntax-ns#">
   <cc:Work>
    <dc:type rdf:resource="http://purl.org/dc/dcmitype/StillImage"/>
    <dc:date>2025-01-14T19:35:56.195217</dc:date>
    <dc:format>image/svg+xml</dc:format>
    <dc:creator>
     <cc:Agent>
      <dc:title>Matplotlib v3.10.0, https://matplotlib.org/</dc:title>
     </cc:Agent>
    </dc:creator>
   </cc:Work>
  </rdf:RDF>
 </metadata>
 <defs>
  <style type="text/css">*{stroke-linejoin: round; stroke-linecap: butt}</style>
 </defs>
 <g id="figure_1">
  <g id="patch_1">
   <path d="M 0 432 
L 720 432 
L 720 0 
L 0 0 
z
" style="fill: #ffffff"/>
  </g>
  <g id="axes_1">
   <g id="patch_2">
    <path d="M 90 384.48 
L 648 384.48 
L 648 51.84 
L 90 51.84 
z
" style="fill: #ffffff"/>
   </g>
   <g id="matplotlib.axis_1">
    <g id="xtick_1">
     <g id="line2d_1">
      <path d="M 153.198895 384.48 
L 153.198895 51.84 
" clip-path="url(#pdcb5c70e56)" style="fill: none; stroke: #b0b0b0; stroke-width: 0.8; stroke-linecap: square"/>
     </g>
     <g id="line2d_2">
      <defs>
       <path id="m6f3922049c" d="M 0 0 
L 0 3.5 
" style="stroke: #000000; stroke-width: 0.8"/>
      </defs>
      <g>
       <use xlink:href="#m6f3922049c" x="153.198895" y="384.48" style="stroke: #000000; stroke-width: 0.8"/>
      </g>
     </g>
     <g id="text_1">
      <!-- 01-14 14 -->
      <g transform="translate(130.718426 399.078438) scale(0.1 -0.1)">
       <defs>
        <path id="DejaVuSans-30" d="M 2034 4250 
Q 1547 4250 1301 3770 
Q 1056 3291 1056 2328 
Q 1056 1369 1301 889 
Q 1547 409 2034 409 
Q 2525 409 2770 889 
Q 3016 1369 3016 2328 
Q 3016 3291 2770 3770 
Q 2525 4250 2034 4250 
z
M 2034 4750 
Q 2819 4750 3233 4129 
Q 3647 3509 3647 2328 
Q 3647 1150 3233 529 
Q 2819 -91 2034 -91 
Q 1250 -91 836 529 
Q 422 1150 422 2328 
Q 422 3509 836 4129 
Q 1250 4750 2034 4750 
z
" transform="scale(0.015625)"/>
        <path id="DejaVuSans-31" d="M 794 531 
L 1825 531 
L 1825 4091 
L 703 3866 
L 703 4441 
L 1819 4666 
L 2450 4666 
L 2450 531 
L 3481 531 
L 3481 0 
L 794 0 
L 794 531 
z
" transform="scale(0.015625)"/>
        <path id="DejaVuSans-2d" d="M 313 2009 
L 1997 2009 
L 1997 1497 
L 313 1497 
L 313 2009 
z
" transform="scale(0.015625)"/>
        <path id="DejaVuSans-34" d="M 2419 4116 
L 825 1625 
L 2419 1625 
L 2419 4116 
z
M 2253 4666 
L 3047 4666 
L 3047 1625 
L 3713 1625 
L 3713 1100 
L 3047 1100 
L 3047 0 
L 2419 0 
L 2419 1100 
L 313 1100 
L 313 1709 
L 2253 4666 
z
" transform="scale(0.015625)"/>
        <path id="DejaVuSans-20" transform="scale(0.015625)"/>
       </defs>
       <use xlink:href="#DejaVuSans-30"/>
       <use xlink:href="#DejaVuSans-31" transform="translate(63.623047 0)"/>
       <use xlink:href="#DejaVuSans-2d" transform="translate(127.246094 0)"/>
       <use xlink:href="#DejaVuSans-31" transform="translate(163.330078 0)"/>
       <use xlink:href="#DejaVuSans-34" transform="translate(226.953125 0)"/>
       <use xlink:href="#DejaVuSans-20" transform="translate(290.576172 0)"/>
       <use xlink:href="#DejaVuSans-31" transform="translate(322.363281 0)"/>
       <use xlink:href="#DejaVuSans-34" transform="translate(385.986328 0)"/>
      </g>
     </g>
    </g>
    <g id="xtick_2">
     <g id="line2d_3">
      <path d="M 237.277248 384.48 
L 237.277248 51.84 
" clip-path="url(#pdcb5c70e56)" style="fill: none; stroke: #b0b0b0; stroke-width: 0.8; stroke-linecap: square"/>
     </g>
     <g id="line2d_4">
      <g>
       <use xlink:href="#m6f3922049c" x="237.277248" y="384.48" style="stroke: #000000; stroke-width: 0.8"/>
      </g>
     </g>
     <g id="text_2">
      <!-- 01-14 15 -->
      <g transform="translate(214.796779 399.078438) scale(0.1 -0.1)">
       <defs>
        <path id="DejaVuSans-35" d="M 691 4666 
L 3169 4666 
L 3169 4134 
L 1269 4134 
L 1269 2991 
Q 1406 3038 1543 3061 
Q 1681 3084 1819 3084 
Q 2600 3084 3056 2656 
Q 3513 2228 3513 1497 
Q 3513 744 3044 326 
Q 2575 -91 1722 -91 
Q 1428 -91 1123 -41 
Q 819 9 494 109 
L 494 744 
Q 775 591 1075 516 
Q 1375 441 1709 441 
Q 2250 441 2565 725 
Q 2881 1009 2881 1497 
Q 2881 1984 2565 2268 
Q 2250 2553 1709 2553 
Q 1456 2553 1204 2497 
Q 953 2441 691 2322 
L 691 4666 
z
" transform="scale(0.015625)"/>
       </defs>
       <use xlink:href="#DejaVuSans-30"/>
       <use xlink:href="#DejaVuSans-31" transform="translate(63.623047 0)"/>
       <use xlink:href="#DejaVuSans-2d" transform="translate(127.246094 0)"/>
       <use xlink:href="#DejaVuSans-31" transform="translate(163.330078 0)"/>
       <use xlink:href="#DejaVuSans-34" transform="translate(226.953125 0)"/>
       <use xlink:href="#DejaVuSans-20" transform="translate(290.576172 0)"/>
       <use xlink:href="#DejaVuSans-31" transform="translate(322.363281 0)"/>
       <use xlink:href="#DejaVuSans-35" transform="translate(385.986328 0)"/>
      </g>
     </g>
    </g>
    <g id="xtick_3">
     <g id="line2d_5">
      <path d="M 321.3556 384.48 
L 321.3556 51.84 
" clip-path="url(#pdcb5c70e56)" style="fill: none; stroke: #b0b0b0; stroke-width: 0.8; stroke-linecap: square"/>
     </g>
     <g id="line2d_6">
      <g>
       <use xlink:href="#m6f3922049c" x="321.3556" y="384.48" style="stroke: #000000; stroke-width: 0.8"/>
      </g>
     </g>
     <g id="text_3">
      <!-- 01-14 16 -->
      <g transform="translate(298.875131 399.078438) scale(0.1 -0.1)">
       <defs>
        <path id="DejaVuSans-36" d="M 2113 2584 
Q 1688 2584 1439 2293 
Q 1191 2003 1191 1497 
Q 1191 994 1439 701 
Q 1688 409 2113 409 
Q 2538 409 2786 701 
Q 3034 994 3034 1497 
Q 3034 2003 2786 2293 
Q 2538 2584 2113 2584 
z
M 3366 4563 
L 3366 3988 
Q 3128 4100 2886 4159 
Q 2644 4219 2406 4219 
Q 1781 4219 1451 3797 
Q 1122 3375 1075 2522 
Q 1259 2794 1537 2939 
Q 1816 3084 2150 3084 
Q 2853 3084 3261 2657 
Q 3669 2231 3669 1497 
Q 3669 778 3244 343 
Q 2819 -91 2113 -91 
Q 1303 -91 875 529 
Q 447 1150 447 2328 
Q 447 3434 972 4092 
Q 1497 4750 2381 4750 
Q 2619 4750 2861 4703 
Q 3103 4656 3366 4563 
z
" transform="scale(0.015625)"/>
       </defs>
       <use xlink:href="#DejaVuSans-30"/>
       <use xlink:href="#DejaVuSans-31" transform="translate(63.623047 0)"/>
       <use xlink:href="#DejaVuSans-2d" transform="translate(127.246094 0)"/>
       <use xlink:href="#DejaVuSans-31" transform="translate(163.330078 0)"/>
       <use xlink:href="#DejaVuSans-34" transform="translate(226.953125 0)"/>
       <use xlink:href="#DejaVuSans-20" transform="translate(290.576172 0)"/>
       <use xlink:href="#DejaVuSans-31" transform="translate(322.363281 0)"/>
       <use xlink:href="#DejaVuSans-36" transform="translate(385.986328 0)"/>
      </g>
     </g>
    </g>
    <g id="xtick_4">
     <g id="line2d_7">
      <path d="M 405.433953 384.48 
L 405.433953 51.84 
" clip-path="url(#pdcb5c70e56)" style="fill: none; stroke: #b0b0b0; stroke-width: 0.8; stroke-linecap: square"/>
     </g>
     <g id="line2d_8">
      <g>
       <use xlink:href="#m6f3922049c" x="405.433953" y="384.48" style="stroke: #000000; stroke-width: 0.8"/>
      </g>
     </g>
     <g id="text_4">
      <!-- 01-14 17 -->
      <g transform="translate(382.953484 399.078438) scale(0.1 -0.1)">
       <defs>
        <path id="DejaVuSans-37" d="M 525 4666 
L 3525 4666 
L 3525 4397 
L 1831 0 
L 1172 0 
L 2766 4134 
L 525 4134 
L 525 4666 
z
" transform="scale(0.015625)"/>
       </defs>
       <use xlink:href="#DejaVuSans-30"/>
       <use xlink:href="#DejaVuSans-31" transform="translate(63.623047 0)"/>
       <use xlink:href="#DejaVuSans-2d" transform="translate(127.246094 0)"/>
       <use xlink:href="#DejaVuSans-31" transform="translate(163.330078 0)"/>
       <use xlink:href="#DejaVuSans-34" transform="translate(226.953125 0)"/>
       <use xlink:href="#DejaVuSans-20" transform="translate(290.576172 0)"/>
       <use xlink:href="#DejaVuSans-31" transform="translate(322.363281 0)"/>
       <use xlink:href="#DejaVuSans-37" transform="translate(385.986328 0)"/>
      </g>
     </g>
    </g>
    <g id="xtick_5">
     <g id="line2d_9">
      <path d="M 489.512305 384.48 
L 489.512305 51.84 
" clip-path="url(#pdcb5c70e56)" style="fill: none; stroke: #b0b0b0; stroke-width: 0.8; stroke-linecap: square"/>
     </g>
     <g id="line2d_10">
      <g>
       <use xlink:href="#m6f3922049c" x="489.512305" y="384.48" style="stroke: #000000; stroke-width: 0.8"/>
      </g>
     </g>
     <g id="text_5">
      <!-- 01-14 18 -->
      <g transform="translate(467.031837 399.078438) scale(0.1 -0.1)">
       <defs>
        <path id="DejaVuSans-38" d="M 2034 2216 
Q 1584 2216 1326 1975 
Q 1069 1734 1069 1313 
Q 1069 891 1326 650 
Q 1584 409 2034 409 
Q 2484 409 2743 651 
Q 3003 894 3003 1313 
Q 3003 1734 2745 1975 
Q 2488 2216 2034 2216 
z
M 1403 2484 
Q 997 2584 770 2862 
Q 544 3141 544 3541 
Q 544 4100 942 4425 
Q 1341 4750 2034 4750 
Q 2731 4750 3128 4425 
Q 3525 4100 3525 3541 
Q 3525 3141 3298 2862 
Q 3072 2584 2669 2484 
Q 3125 2378 3379 2068 
Q 3634 1759 3634 1313 
Q 3634 634 3220 271 
Q 2806 -91 2034 -91 
Q 1263 -91 848 271 
Q 434 634 434 1313 
Q 434 1759 690 2068 
Q 947 2378 1403 2484 
z
M 1172 3481 
Q 1172 3119 1398 2916 
Q 1625 2713 2034 2713 
Q 2441 2713 2670 2916 
Q 2900 3119 2900 3481 
Q 2900 3844 2670 4047 
Q 2441 4250 2034 4250 
Q 1625 4250 1398 4047 
Q 1172 3844 1172 3481 
z
" transform="scale(0.015625)"/>
       </defs>
       <use xlink:href="#DejaVuSans-30"/>
       <use xlink:href="#DejaVuSans-31" transform="translate(63.623047 0)"/>
       <use xlink:href="#DejaVuSans-2d" transform="translate(127.246094 0)"/>
       <use xlink:href="#DejaVuSans-31" transform="translate(163.330078 0)"/>
       <use xlink:href="#DejaVuSans-34" transform="translate(226.953125 0)"/>
       <use xlink:href="#DejaVuSans-20" transform="translate(290.576172 0)"/>
       <use xlink:href="#DejaVuSans-31" transform="translate(322.363281 0)"/>
       <use xlink:href="#DejaVuSans-38" transform="translate(385.986328 0)"/>
      </g>
     </g>
    </g>
    <g id="xtick_6">
     <g id="line2d_11">
      <path d="M 573.590658 384.48 
L 573.590658 51.84 
" clip-path="url(#pdcb5c70e56)" style="fill: none; stroke: #b0b0b0; stroke-width: 0.8; stroke-linecap: square"/>
     </g>
     <g id="line2d_12">
      <g>
       <use xlink:href="#m6f3922049c" x="573.590658" y="384.48" style="stroke: #000000; stroke-width: 0.8"/>
      </g>
     </g>
     <g id="text_6">
      <!-- 01-14 19 -->
      <g transform="translate(551.110189 399.078438) scale(0.1 -0.1)">
       <defs>
        <path id="DejaVuSans-39" d="M 703 97 
L 703 672 
Q 941 559 1184 500 
Q 1428 441 1663 441 
Q 2288 441 2617 861 
Q 2947 1281 2994 2138 
Q 2813 1869 2534 1725 
Q 2256 1581 1919 1581 
Q 1219 1581 811 2004 
Q 403 2428 403 3163 
Q 403 3881 828 4315 
Q 1253 4750 1959 4750 
Q 2769 4750 3195 4129 
Q 3622 3509 3622 2328 
Q 3622 1225 3098 567 
Q 2575 -91 1691 -91 
Q 1453 -91 1209 -44 
Q 966 3 703 97 
z
M 1959 2075 
Q 2384 2075 2632 2365 
Q 2881 2656 2881 3163 
Q 2881 3666 2632 3958 
Q 2384 4250 1959 4250 
Q 1534 4250 1286 3958 
Q 1038 3666 1038 3163 
Q 1038 2656 1286 2365 
Q 1534 2075 1959 2075 
z
" transform="scale(0.015625)"/>
       </defs>
       <use xlink:href="#DejaVuSans-30"/>
       <use xlink:href="#DejaVuSans-31" transform="translate(63.623047 0)"/>
       <use xlink:href="#DejaVuSans-2d" transform="translate(127.246094 0)"/>
       <use xlink:href="#DejaVuSans-31" transform="translate(163.330078 0)"/>
       <use xlink:href="#DejaVuSans-34" transform="translate(226.953125 0)"/>
       <use xlink:href="#DejaVuSans-20" transform="translate(290.576172 0)"/>
       <use xlink:href="#DejaVuSans-31" transform="translate(322.363281 0)"/>
       <use xlink:href="#DejaVuSans-39" transform="translate(385.986328 0)"/>
      </g>
     </g>
    </g>
    <g id="text_7">
     <!-- Date and Time -->
     <g transform="translate(332.230469 412.756563) scale(0.1 -0.1)">
      <defs>
       <path id="DejaVuSans-44" d="M 1259 4147 
L 1259 519 
L 2022 519 
Q 2988 519 3436 956 
Q 3884 1394 3884 2338 
Q 3884 3275 3436 3711 
Q 2988 4147 2022 4147 
L 1259 4147 
z
M 628 4666 
L 1925 4666 
Q 3281 4666 3915 4102 
Q 4550 3538 4550 2338 
Q 4550 1131 3912 565 
Q 3275 0 1925 0 
L 628 0 
L 628 4666 
z
" transform="scale(0.015625)"/>
       <path id="DejaVuSans-61" d="M 2194 1759 
Q 1497 1759 1228 1600 
Q 959 1441 959 1056 
Q 959 750 1161 570 
Q 1363 391 1709 391 
Q 2188 391 2477 730 
Q 2766 1069 2766 1631 
L 2766 1759 
L 2194 1759 
z
M 3341 1997 
L 3341 0 
L 2766 0 
L 2766 531 
Q 2569 213 2275 61 
Q 1981 -91 1556 -91 
Q 1019 -91 701 211 
Q 384 513 384 1019 
Q 384 1609 779 1909 
Q 1175 2209 1959 2209 
L 2766 2209 
L 2766 2266 
Q 2766 2663 2505 2880 
Q 2244 3097 1772 3097 
Q 1472 3097 1187 3025 
Q 903 2953 641 2809 
L 641 3341 
Q 956 3463 1253 3523 
Q 1550 3584 1831 3584 
Q 2591 3584 2966 3190 
Q 3341 2797 3341 1997 
z
" transform="scale(0.015625)"/>
       <path id="DejaVuSans-74" d="M 1172 4494 
L 1172 3500 
L 2356 3500 
L 2356 3053 
L 1172 3053 
L 1172 1153 
Q 1172 725 1289 603 
Q 1406 481 1766 481 
L 2356 481 
L 2356 0 
L 1766 0 
Q 1100 0 847 248 
Q 594 497 594 1153 
L 594 3053 
L 172 3053 
L 172 3500 
L 594 3500 
L 594 4494 
L 1172 4494 
z
" transform="scale(0.015625)"/>
       <path id="DejaVuSans-65" d="M 3597 1894 
L 3597 1613 
L 953 1613 
Q 991 1019 1311 708 
Q 1631 397 2203 397 
Q 2534 397 2845 478 
Q 3156 559 3463 722 
L 3463 178 
Q 3153 47 2828 -22 
Q 2503 -91 2169 -91 
Q 1331 -91 842 396 
Q 353 884 353 1716 
Q 353 2575 817 3079 
Q 1281 3584 2069 3584 
Q 2775 3584 3186 3129 
Q 3597 2675 3597 1894 
z
M 3022 2063 
Q 3016 2534 2758 2815 
Q 2500 3097 2075 3097 
Q 1594 3097 1305 2825 
Q 1016 2553 972 2059 
L 3022 2063 
z
" transform="scale(0.015625)"/>
       <path id="DejaVuSans-6e" d="M 3513 2113 
L 3513 0 
L 2938 0 
L 2938 2094 
Q 2938 2591 2744 2837 
Q 2550 3084 2163 3084 
Q 1697 3084 1428 2787 
Q 1159 2491 1159 1978 
L 1159 0 
L 581 0 
L 581 3500 
L 1159 3500 
L 1159 2956 
Q 1366 3272 1645 3428 
Q 1925 3584 2291 3584 
Q 2894 3584 3203 3211 
Q 3513 2838 3513 2113 
z
" transform="scale(0.015625)"/>
       <path id="DejaVuSans-64" d="M 2906 2969 
L 2906 4863 
L 3481 4863 
L 3481 0 
L 2906 0 
L 2906 525 
Q 2725 213 2448 61 
Q 2172 -91 1784 -91 
Q 1150 -91 751 415 
Q 353 922 353 1747 
Q 353 2572 751 3078 
Q 1150 3584 1784 3584 
Q 2172 3584 2448 3432 
Q 2725 3281 2906 2969 
z
M 947 1747 
Q 947 1113 1208 752 
Q 1469 391 1925 391 
Q 2381 391 2643 752 
Q 2906 1113 2906 1747 
Q 2906 2381 2643 2742 
Q 2381 3103 1925 3103 
Q 1469 3103 1208 2742 
Q 947 2381 947 1747 
z
" transform="scale(0.015625)"/>
       <path id="DejaVuSans-54" d="M -19 4666 
L 3928 4666 
L 3928 4134 
L 2272 4134 
L 2272 0 
L 1638 0 
L 1638 4134 
L -19 4134 
L -19 4666 
z
" transform="scale(0.015625)"/>
       <path id="DejaVuSans-69" d="M 603 3500 
L 1178 3500 
L 1178 0 
L 603 0 
L 603 3500 
z
M 603 4863 
L 1178 4863 
L 1178 4134 
L 603 4134 
L 603 4863 
z
" transform="scale(0.015625)"/>
       <path id="DejaVuSans-6d" d="M 3328 2828 
Q 3544 3216 3844 3400 
Q 4144 3584 4550 3584 
Q 5097 3584 5394 3201 
Q 5691 2819 5691 2113 
L 5691 0 
L 5113 0 
L 5113 2094 
Q 5113 2597 4934 2840 
Q 4756 3084 4391 3084 
Q 3944 3084 3684 2787 
Q 3425 2491 3425 1978 
L 3425 0 
L 2847 0 
L 2847 2094 
Q 2847 2600 2669 2842 
Q 2491 3084 2119 3084 
Q 1678 3084 1418 2786 
Q 1159 2488 1159 1978 
L 1159 0 
L 581 0 
L 581 3500 
L 1159 3500 
L 1159 2956 
Q 1356 3278 1631 3431 
Q 1906 3584 2284 3584 
Q 2666 3584 2933 3390 
Q 3200 3197 3328 2828 
z
" transform="scale(0.015625)"/>
      </defs>
      <use xlink:href="#DejaVuSans-44"/>
      <use xlink:href="#DejaVuSans-61" transform="translate(77.001953 0)"/>
      <use xlink:href="#DejaVuSans-74" transform="translate(138.28125 0)"/>
      <use xlink:href="#DejaVuSans-65" transform="translate(177.490234 0)"/>
      <use xlink:href="#DejaVuSans-20" transform="translate(239.013672 0)"/>
      <use xlink:href="#DejaVuSans-61" transform="translate(270.800781 0)"/>
      <use xlink:href="#DejaVuSans-6e" transform="translate(332.080078 0)"/>
      <use xlink:href="#DejaVuSans-64" transform="translate(395.458984 0)"/>
      <use xlink:href="#DejaVuSans-20" transform="translate(458.935547 0)"/>
      <use xlink:href="#DejaVuSans-54" transform="translate(490.722656 0)"/>
      <use xlink:href="#DejaVuSans-69" transform="translate(548.681641 0)"/>
      <use xlink:href="#DejaVuSans-6d" transform="translate(576.464844 0)"/>
      <use xlink:href="#DejaVuSans-65" transform="translate(673.876953 0)"/>
     </g>
    </g>
   </g>
   <g id="matplotlib.axis_2">
    <g id="ytick_1">
     <g id="line2d_13">
      <path d="M 90 370.545882 
L 648 370.545882 
" clip-path="url(#pdcb5c70e56)" style="fill: none; stroke: #b0b0b0; stroke-width: 0.8; stroke-linecap: square"/>
     </g>
     <g id="line2d_14">
      <defs>
       <path id="m974464a266" d="M 0 0 
L -3.5 0 
" style="stroke: #000000; stroke-width: 0.8"/>
      </defs>
      <g>
       <use xlink:href="#m974464a266" x="90" y="370.545882" style="stroke: #000000; stroke-width: 0.8"/>
      </g>
     </g>
     <g id="text_8">
      <!-- 0 -->
      <g transform="translate(76.6375 374.345101) scale(0.1 -0.1)">
       <use xlink:href="#DejaVuSans-30"/>
      </g>
     </g>
    </g>
    <g id="ytick_2">
     <g id="line2d_15">
      <path d="M 90 311.251765 
L 648 311.251765 
" clip-path="url(#pdcb5c70e56)" style="fill: none; stroke: #b0b0b0; stroke-width: 0.8; stroke-linecap: square"/>
     </g>
     <g id="line2d_16">
      <g>
       <use xlink:href="#m974464a266" x="90" y="311.251765" style="stroke: #000000; stroke-width: 0.8"/>
      </g>
     </g>
     <g id="text_9">
      <!-- 50 -->
      <g transform="translate(70.275 315.050983) scale(0.1 -0.1)">
       <use xlink:href="#DejaVuSans-35"/>
       <use xlink:href="#DejaVuSans-30" transform="translate(63.623047 0)"/>
      </g>
     </g>
    </g>
    <g id="ytick_3">
     <g id="line2d_17">
      <path d="M 90 251.957647 
L 648 251.957647 
" clip-path="url(#pdcb5c70e56)" style="fill: none; stroke: #b0b0b0; stroke-width: 0.8; stroke-linecap: square"/>
     </g>
     <g id="line2d_18">
      <g>
       <use xlink:href="#m974464a266" x="90" y="251.957647" style="stroke: #000000; stroke-width: 0.8"/>
      </g>
     </g>
     <g id="text_10">
      <!-- 100 -->
      <g transform="translate(63.9125 255.756866) scale(0.1 -0.1)">
       <use xlink:href="#DejaVuSans-31"/>
       <use xlink:href="#DejaVuSans-30" transform="translate(63.623047 0)"/>
       <use xlink:href="#DejaVuSans-30" transform="translate(127.246094 0)"/>
      </g>
     </g>
    </g>
    <g id="ytick_4">
     <g id="line2d_19">
      <path d="M 90 192.663529 
L 648 192.663529 
" clip-path="url(#pdcb5c70e56)" style="fill: none; stroke: #b0b0b0; stroke-width: 0.8; stroke-linecap: square"/>
     </g>
     <g id="line2d_20">
      <g>
       <use xlink:href="#m974464a266" x="90" y="192.663529" style="stroke: #000000; stroke-width: 0.8"/>
      </g>
     </g>
     <g id="text_11">
      <!-- 150 -->
      <g transform="translate(63.9125 196.462748) scale(0.1 -0.1)">
       <use xlink:href="#DejaVuSans-31"/>
       <use xlink:href="#DejaVuSans-35" transform="translate(63.623047 0)"/>
       <use xlink:href="#DejaVuSans-30" transform="translate(127.246094 0)"/>
      </g>
     </g>
    </g>
    <g id="ytick_5">
     <g id="line2d_21">
      <path d="M 90 133.369412 
L 648 133.369412 
" clip-path="url(#pdcb5c70e56)" style="fill: none; stroke: #b0b0b0; stroke-width: 0.8; stroke-linecap: square"/>
     </g>
     <g id="line2d_22">
      <g>
       <use xlink:href="#m974464a266" x="90" y="133.369412" style="stroke: #000000; stroke-width: 0.8"/>
      </g>
     </g>
     <g id="text_12">
      <!-- 200 -->
      <g transform="translate(63.9125 137.168631) scale(0.1 -0.1)">
       <defs>
        <path id="DejaVuSans-32" d="M 1228 531 
L 3431 531 
L 3431 0 
L 469 0 
L 469 531 
Q 828 903 1448 1529 
Q 2069 2156 2228 2338 
Q 2531 2678 2651 2914 
Q 2772 3150 2772 3378 
Q 2772 3750 2511 3984 
Q 2250 4219 1831 4219 
Q 1534 4219 1204 4116 
Q 875 4013 500 3803 
L 500 4441 
Q 881 4594 1212 4672 
Q 1544 4750 1819 4750 
Q 2544 4750 2975 4387 
Q 3406 4025 3406 3419 
Q 3406 3131 3298 2873 
Q 3191 2616 2906 2266 
Q 2828 2175 2409 1742 
Q 1991 1309 1228 531 
z
" transform="scale(0.015625)"/>
       </defs>
       <use xlink:href="#DejaVuSans-32"/>
       <use xlink:href="#DejaVuSans-30" transform="translate(63.623047 0)"/>
       <use xlink:href="#DejaVuSans-30" transform="translate(127.246094 0)"/>
      </g>
     </g>
    </g>
    <g id="ytick_6">
     <g id="line2d_23">
      <path d="M 90 74.075294 
L 648 74.075294 
" clip-path="url(#pdcb5c70e56)" style="fill: none; stroke: #b0b0b0; stroke-width: 0.8; stroke-linecap: square"/>
     </g>
     <g id="line2d_24">
      <g>
       <use xlink:href="#m974464a266" x="90" y="74.075294" style="stroke: #000000; stroke-width: 0.8"/>
      </g>
     </g>
     <g id="text_13">
      <!-- 250 -->
      <g transform="translate(63.9125 77.874513) scale(0.1 -0.1)">
       <use xlink:href="#DejaVuSans-32"/>
       <use xlink:href="#DejaVuSans-35" transform="translate(63.623047 0)"/>
       <use xlink:href="#DejaVuSans-30" transform="translate(127.246094 0)"/>
      </g>
     </g>
    </g>
    <g id="text_14">
     <!-- Votes -->
     <g transform="translate(57.832812 231.893594) rotate(-90) scale(0.1 -0.1)">
      <defs>
       <path id="DejaVuSans-56" d="M 1831 0 
L 50 4666 
L 709 4666 
L 2188 738 
L 3669 4666 
L 4325 4666 
L 2547 0 
L 1831 0 
z
" transform="scale(0.015625)"/>
       <path id="DejaVuSans-6f" d="M 1959 3097 
Q 1497 3097 1228 2736 
Q 959 2375 959 1747 
Q 959 1119 1226 758 
Q 1494 397 1959 397 
Q 2419 397 2687 759 
Q 2956 1122 2956 1747 
Q 2956 2369 2687 2733 
Q 2419 3097 1959 3097 
z
M 1959 3584 
Q 2709 3584 3137 3096 
Q 3566 2609 3566 1747 
Q 3566 888 3137 398 
Q 2709 -91 1959 -91 
Q 1206 -91 779 398 
Q 353 888 353 1747 
Q 353 2609 779 3096 
Q 1206 3584 1959 3584 
z
" transform="scale(0.015625)"/>
       <path id="DejaVuSans-73" d="M 2834 3397 
L 2834 2853 
Q 2591 2978 2328 3040 
Q 2066 3103 1784 3103 
Q 1356 3103 1142 2972 
Q 928 2841 928 2578 
Q 928 2378 1081 2264 
Q 1234 2150 1697 2047 
L 1894 2003 
Q 2506 1872 2764 1633 
Q 3022 1394 3022 966 
Q 3022 478 2636 193 
Q 2250 -91 1575 -91 
Q 1294 -91 989 -36 
Q 684 19 347 128 
L 347 722 
Q 666 556 975 473 
Q 1284 391 1588 391 
Q 1994 391 2212 530 
Q 2431 669 2431 922 
Q 2431 1156 2273 1281 
Q 2116 1406 1581 1522 
L 1381 1569 
Q 847 1681 609 1914 
Q 372 2147 372 2553 
Q 372 3047 722 3315 
Q 1072 3584 1716 3584 
Q 2034 3584 2315 3537 
Q 2597 3491 2834 3397 
z
" transform="scale(0.015625)"/>
      </defs>
      <use xlink:href="#DejaVuSans-56"/>
      <use xlink:href="#DejaVuSans-6f" transform="translate(60.658203 0)"/>
      <use xlink:href="#DejaVuSans-74" transform="translate(121.839844 0)"/>
      <use xlink:href="#DejaVuSans-65" transform="translate(161.048828 0)"/>
      <use xlink:href="#DejaVuSans-73" transform="translate(222.572266 0)"/>
     </g>
    </g>
   </g>
   <g id="line2d_25">
    <path d="M 115.363636 349.2 
L 129.376695 349.2 
L 130.778001 348.014118 
L 144.79106 348.014118 
L 146.192366 345.642353 
L 158.804119 345.642353 
L 160.205424 344.456471 
L 167.211954 344.456471 
L 168.61326 343.270588 
L 174.218483 343.270588 
L 175.619789 342.084706 
L 179.823707 342.084706 
L 181.225013 340.898824 
L 200.843295 340.898824 
L 202.244601 339.712941 
L 217.658965 339.712941 
L 220.461577 337.341176 
L 223.264189 337.341176 
L 224.665495 336.155294 
L 237.277248 336.155294 
L 240.079859 333.783529 
L 256.89553 333.783529 
L 258.296836 332.597647 
L 262.500753 332.597647 
L 263.902059 331.411765 
L 265.303365 331.411765 
L 266.704671 330.225882 
L 304.53993 330.225882 
L 305.941236 329.04 
L 322.756906 329.04 
L 324.158212 327.854118 
L 333.967353 327.854118 
L 335.368659 326.668235 
L 336.769965 324.296471 
L 338.171271 324.296471 
L 340.973882 321.924706 
L 363.394776 321.924706 
L 364.796082 320.738824 
L 373.203918 320.738824 
L 374.605224 319.552941 
L 380.210447 319.552941 
L 381.611753 318.367059 
L 395.624812 318.367059 
L 397.026118 317.181176 
L 399.828729 317.181176 
L 401.230035 315.995294 
L 405.433953 315.995294 
L 406.835259 314.809412 
L 418.045706 314.809412 
L 419.447012 313.623529 
L 420.848317 313.623529 
L 422.249623 312.437647 
L 436.262682 312.437647 
L 437.663988 311.251765 
L 447.473129 311.251765 
L 448.874435 310.065882 
L 450.275741 310.065882 
L 453.078353 307.694118 
L 483.907082 307.694118 
L 485.308388 306.508235 
L 507.729282 306.508235 
L 509.130588 305.322353 
L 510.531894 305.322353 
L 511.933199 304.136471 
L 524.544952 304.136471 
L 525.946258 302.950588 
L 527.347564 302.950588 
L 528.74887 301.764706 
L 535.755399 301.764706 
L 537.156705 300.578824 
L 541.360623 300.578824 
L 544.163235 298.207059 
L 545.56454 298.207059 
L 546.965846 297.021176 
L 549.768458 297.021176 
L 551.169764 295.835294 
L 553.972376 295.835294 
L 555.373682 294.649412 
L 558.176293 294.649412 
L 559.577599 293.463529 
L 593.20894 293.463529 
L 594.610246 292.277647 
L 608.623305 292.277647 
L 610.024611 291.091765 
L 618.432446 291.091765 
L 619.833752 289.905882 
L 621.235058 289.905882 
L 622.636364 288.72 
L 622.636364 288.72 
" clip-path="url(#pdcb5c70e56)" style="fill: none; stroke: #1f77b4; stroke-width: 1.5; stroke-linecap: square"/>
   </g>
   <g id="line2d_26">
    <path d="M 115.363636 273.303529 
L 116.764942 272.117647 
L 120.96886 272.117647 
L 122.370166 270.931765 
L 123.771472 270.931765 
L 125.172777 269.745882 
L 126.574083 269.745882 
L 129.376695 267.374118 
L 130.778001 265.002353 
L 132.179307 265.002353 
L 134.981919 262.630588 
L 136.383225 262.630588 
L 137.78453 257.887059 
L 139.185836 255.515294 
L 140.587142 250.771765 
L 141.988448 247.214118 
L 146.192366 247.214118 
L 147.593672 243.656471 
L 148.994977 241.284706 
L 151.797589 238.912941 
L 153.198895 236.541176 
L 156.001507 234.169412 
L 157.402813 231.797647 
L 161.60673 231.797647 
L 163.008036 225.868235 
L 164.409342 223.496471 
L 165.810648 222.310588 
L 167.211954 219.938824 
L 168.61326 218.752941 
L 170.014566 218.752941 
L 171.415871 215.195294 
L 172.817177 215.195294 
L 174.218483 212.823529 
L 175.619789 211.637647 
L 177.021095 211.637647 
L 178.422401 210.451765 
L 181.225013 210.451765 
L 182.626318 209.265882 
L 185.42893 209.265882 
L 186.830236 206.894118 
L 188.231542 206.894118 
L 189.632848 205.708235 
L 195.238071 205.708235 
L 196.639377 204.522353 
L 200.843295 204.522353 
L 202.244601 203.336471 
L 203.645907 203.336471 
L 205.047212 200.964706 
L 206.448518 200.964706 
L 207.849824 198.592941 
L 209.25113 197.407059 
L 213.455048 197.407059 
L 214.856354 195.035294 
L 216.257659 193.849412 
L 217.658965 190.291765 
L 220.461577 187.92 
L 231.672024 187.92 
L 233.07333 184.362353 
L 234.474636 184.362353 
L 237.277248 181.990588 
L 238.678553 181.990588 
L 242.882471 178.432941 
L 245.685083 178.432941 
L 247.086389 177.247059 
L 249.889 177.247059 
L 254.092918 173.689412 
L 256.89553 173.689412 
L 258.296836 172.503529 
L 265.303365 172.503529 
L 266.704671 171.317647 
L 269.507283 171.317647 
L 270.908589 170.131765 
L 287.724259 170.131765 
L 289.125565 167.76 
L 291.928177 167.76 
L 294.730789 165.388235 
L 296.132094 165.388235 
L 297.5334 164.202353 
L 305.941236 164.202353 
L 310.145153 160.644706 
L 311.546459 160.644706 
L 312.947765 159.458824 
L 314.349071 157.087059 
L 315.750377 157.087059 
L 317.151683 155.901176 
L 318.552988 155.901176 
L 324.158212 151.157647 
L 326.960824 151.157647 
L 328.36213 148.785882 
L 332.566047 148.785882 
L 333.967353 147.6 
L 338.171271 147.6 
L 339.572577 146.414118 
L 340.973882 146.414118 
L 342.375188 142.856471 
L 346.579106 142.856471 
L 347.980412 141.670588 
L 349.381718 139.298824 
L 352.184329 139.298824 
L 353.585635 138.112941 
L 356.388247 138.112941 
L 357.789553 136.927059 
L 359.190859 136.927059 
L 366.197388 130.997647 
L 369 130.997647 
L 373.203918 127.44 
L 377.407835 127.44 
L 378.809141 125.068235 
L 380.210447 125.068235 
L 381.611753 123.882353 
L 385.815671 123.882353 
L 387.216976 122.696471 
L 399.828729 122.696471 
L 401.230035 121.510588 
L 411.039176 121.510588 
L 412.440482 120.324706 
L 415.243094 120.324706 
L 418.045706 117.952941 
L 425.052235 117.952941 
L 426.453541 116.767059 
L 433.46007 116.767059 
L 437.663988 113.209412 
L 455.880964 113.209412 
L 457.28227 110.837647 
L 458.683576 109.651765 
L 492.314917 109.651765 
L 493.716223 108.465882 
L 502.124058 108.465882 
L 504.92667 106.094118 
L 507.729282 106.094118 
L 509.130588 104.908235 
L 510.531894 104.908235 
L 513.334505 102.536471 
L 514.735811 102.536471 
L 516.137117 101.350588 
L 517.538423 101.350588 
L 520.341035 96.607059 
L 521.742341 95.421176 
L 528.74887 95.421176 
L 530.150176 91.863529 
L 531.551482 89.491765 
L 534.354093 89.491765 
L 537.156705 87.12 
L 544.163235 87.12 
L 546.965846 84.748235 
L 549.768458 84.748235 
L 551.169764 83.562353 
L 553.972376 83.562353 
L 555.373682 82.376471 
L 556.774987 82.376471 
L 558.176293 81.190588 
L 559.577599 81.190588 
L 560.978905 80.004706 
L 562.380211 80.004706 
L 563.781517 78.818824 
L 566.584129 78.818824 
L 567.985434 76.447059 
L 574.991964 76.447059 
L 577.794576 74.075294 
L 591.807634 74.075294 
L 593.20894 72.889412 
L 594.610246 72.889412 
L 596.011552 71.703529 
L 597.412858 71.703529 
L 601.616775 68.145882 
L 604.419387 68.145882 
L 605.820693 66.96 
L 622.636364 66.96 
L 622.636364 66.96 
" clip-path="url(#pdcb5c70e56)" style="fill: none; stroke: #ff7f0e; stroke-width: 1.5; stroke-linecap: square"/>
   </g>
   <g id="line2d_27">
    <path d="M 115.363636 333.783529 
L 120.96886 333.783529 
L 122.370166 331.411765 
L 125.172777 331.411765 
L 126.574083 330.225882 
L 127.975389 327.854118 
L 129.376695 326.668235 
L 130.778001 323.110588 
L 132.179307 320.738824 
L 133.580613 319.552941 
L 134.981919 319.552941 
L 136.383225 317.181176 
L 137.78453 313.623529 
L 143.389754 313.623529 
L 144.79106 312.437647 
L 146.192366 312.437647 
L 147.593672 310.065882 
L 151.797589 310.065882 
L 154.600201 307.694118 
L 160.205424 307.694118 
L 161.60673 306.508235 
L 167.211954 306.508235 
L 171.415871 302.950588 
L 178.422401 302.950588 
L 179.823707 301.764706 
L 184.027624 301.764706 
L 185.42893 300.578824 
L 188.231542 300.578824 
L 189.632848 298.207059 
L 200.843295 298.207059 
L 202.244601 297.021176 
L 203.645907 294.649412 
L 205.047212 293.463529 
L 206.448518 293.463529 
L 207.849824 292.277647 
L 210.652436 292.277647 
L 212.053742 291.091765 
L 214.856354 291.091765 
L 216.257659 289.905882 
L 224.665495 289.905882 
L 226.066801 288.72 
L 227.468106 288.72 
L 228.869412 287.534118 
L 230.270718 287.534118 
L 231.672024 286.348235 
L 235.875942 286.348235 
L 237.277248 285.162353 
L 238.678553 282.790588 
L 245.685083 282.790588 
L 249.889 279.232941 
L 254.092918 279.232941 
L 255.494224 278.047059 
L 261.099448 278.047059 
L 262.500753 276.861176 
L 263.902059 276.861176 
L 265.303365 275.675294 
L 268.105977 275.675294 
L 269.507283 274.489412 
L 273.7112 274.489412 
L 276.513812 272.117647 
L 277.915118 272.117647 
L 279.316424 270.931765 
L 290.526871 270.931765 
L 291.928177 268.56 
L 293.329483 267.374118 
L 304.53993 267.374118 
L 305.941236 266.188235 
L 310.145153 266.188235 
L 311.546459 265.002353 
L 315.750377 265.002353 
L 317.151683 263.816471 
L 331.164741 263.816471 
L 332.566047 262.630588 
L 338.171271 262.630588 
L 339.572577 261.444706 
L 347.980412 261.444706 
L 349.381718 260.258824 
L 352.184329 260.258824 
L 353.585635 259.072941 
L 359.190859 259.072941 
L 361.993471 256.701176 
L 388.618282 256.701176 
L 390.019588 255.515294 
L 391.420894 255.515294 
L 392.8222 254.329412 
L 397.026118 254.329412 
L 398.427423 253.143529 
L 405.433953 253.143529 
L 406.835259 251.957647 
L 409.63787 251.957647 
L 411.039176 250.771765 
L 419.447012 250.771765 
L 420.848317 251.957647 
L 422.249623 250.771765 
L 432.058764 250.771765 
L 433.46007 249.585882 
L 444.670517 249.585882 
L 446.071823 248.4 
L 448.874435 248.4 
L 450.275741 247.214118 
L 451.677047 247.214118 
L 453.078353 246.028235 
L 462.887494 246.028235 
L 464.2888 244.842353 
L 472.696635 244.842353 
L 474.097941 243.656471 
L 495.117529 243.656471 
L 496.518835 242.470588 
L 527.347564 242.470588 
L 528.74887 241.284706 
L 542.761929 241.284706 
L 544.163235 240.098824 
L 566.584129 240.098824 
L 569.38674 237.727059 
L 594.610246 237.727059 
L 596.011552 236.541176 
L 597.412858 234.169412 
L 622.636364 234.169412 
L 622.636364 234.169412 
" clip-path="url(#pdcb5c70e56)" style="fill: none; stroke: #2ca02c; stroke-width: 1.5; stroke-linecap: square"/>
   </g>
   <g id="line2d_28">
    <path d="M 115.363636 369.36 
L 461.486188 369.36 
L 462.887494 368.174118 
L 622.636364 368.174118 
L 622.636364 368.174118 
" clip-path="url(#pdcb5c70e56)" style="fill: none; stroke: #d62728; stroke-width: 1.5; stroke-linecap: square"/>
   </g>
   <g id="line2d_29">
    <path d="M 115.363636 343.270588 
L 119.567554 343.270588 
L 120.96886 342.084706 
L 129.376695 342.084706 
L 130.778001 340.898824 
L 139.185836 340.898824 
L 140.587142 339.712941 
L 171.415871 339.712941 
L 172.817177 338.527059 
L 223.264189 338.527059 
L 226.066801 336.155294 
L 237.277248 336.155294 
L 238.678553 334.969412 
L 244.283777 334.969412 
L 245.685083 333.783529 
L 248.487695 333.783529 
L 249.889 332.597647 
L 286.322953 332.597647 
L 287.724259 331.411765 
L 345.1778 331.411765 
L 346.579106 330.225882 
L 528.74887 330.225882 
L 530.150176 329.04 
L 531.551482 329.04 
L 532.952788 327.854118 
L 621.235058 327.854118 
L 622.636364 326.668235 
L 622.636364 326.668235 
" clip-path="url(#pdcb5c70e56)" style="fill: none; stroke: #9467bd; stroke-width: 1.5; stroke-linecap: square"/>
   </g>
   <g id="line2d_30">
    <path d="M 115.363636 352.757647 
L 116.764942 352.757647 
L 118.166248 351.571765 
L 137.78453 351.571765 
L 139.185836 350.385882 
L 156.001507 350.385882 
L 157.402813 349.2 
L 178.422401 349.2 
L 181.225013 346.828235 
L 196.639377 346.828235 
L 198.040683 345.642353 
L 240.079859 345.642353 
L 241.481165 344.456471 
L 254.092918 344.456471 
L 255.494224 343.270588 
L 279.316424 343.270588 
L 280.71773 342.084706 
L 303.138624 342.084706 
L 304.53993 340.898824 
L 310.145153 340.898824 
L 311.546459 339.712941 
L 324.158212 339.712941 
L 325.559518 338.527059 
L 359.190859 338.527059 
L 360.592165 337.341176 
L 369 337.341176 
L 370.401306 336.155294 
L 378.809141 336.155294 
L 380.210447 334.969412 
L 385.815671 334.969412 
L 387.216976 333.783529 
L 439.065294 333.783529 
L 440.4666 332.597647 
L 481.10447 332.597647 
L 482.505776 331.411765 
L 563.781517 331.411765 
L 565.182823 330.225882 
L 604.419387 330.225882 
L 605.820693 329.04 
L 622.636364 329.04 
L 622.636364 329.04 
" clip-path="url(#pdcb5c70e56)" style="fill: none; stroke: #8c564b; stroke-width: 1.5; stroke-linecap: square"/>
   </g>
   <g id="line2d_31">
    <path d="M 115.363636 265.002353 
L 120.96886 265.002353 
L 122.370166 263.816471 
L 127.975389 263.816471 
L 130.778001 261.444706 
L 132.179307 261.444706 
L 133.580613 260.258824 
L 134.981919 260.258824 
L 136.383225 259.072941 
L 139.185836 259.072941 
L 140.587142 257.887059 
L 144.79106 257.887059 
L 146.192366 256.701176 
L 148.994977 256.701176 
L 150.396283 255.515294 
L 151.797589 255.515294 
L 153.198895 254.329412 
L 156.001507 254.329412 
L 158.804119 251.957647 
L 164.409342 251.957647 
L 165.810648 250.771765 
L 170.014566 250.771765 
L 172.817177 248.4 
L 175.619789 248.4 
L 177.021095 247.214118 
L 179.823707 247.214118 
L 181.225013 246.028235 
L 182.626318 243.656471 
L 184.027624 240.098824 
L 186.830236 240.098824 
L 188.231542 238.912941 
L 195.238071 238.912941 
L 198.040683 236.541176 
L 199.441989 234.169412 
L 200.843295 232.983529 
L 202.244601 232.983529 
L 203.645907 230.611765 
L 209.25113 230.611765 
L 210.652436 229.425882 
L 212.053742 229.425882 
L 214.856354 227.054118 
L 216.257659 227.054118 
L 217.658965 225.868235 
L 219.060271 225.868235 
L 221.862883 223.496471 
L 224.665495 223.496471 
L 226.066801 221.124706 
L 231.672024 221.124706 
L 234.474636 218.752941 
L 237.277248 218.752941 
L 238.678553 217.567059 
L 240.079859 215.195294 
L 244.283777 215.195294 
L 245.685083 214.009412 
L 247.086389 214.009412 
L 248.487695 211.637647 
L 249.889 211.637647 
L 251.290306 210.451765 
L 252.691612 210.451765 
L 254.092918 209.265882 
L 259.698142 209.265882 
L 262.500753 206.894118 
L 263.902059 206.894118 
L 265.303365 204.522353 
L 266.704671 204.522353 
L 268.105977 203.336471 
L 269.507283 203.336471 
L 270.908589 202.150588 
L 275.112506 202.150588 
L 276.513812 200.964706 
L 277.915118 200.964706 
L 283.520342 196.221176 
L 284.921647 193.849412 
L 287.724259 193.849412 
L 290.526871 189.105882 
L 293.329483 189.105882 
L 296.132094 186.734118 
L 297.5334 186.734118 
L 298.934706 184.362353 
L 300.336012 184.362353 
L 301.737318 183.176471 
L 303.138624 183.176471 
L 304.53993 181.990588 
L 307.342541 181.990588 
L 308.743847 180.804706 
L 310.145153 180.804706 
L 311.546459 179.618824 
L 317.151683 179.618824 
L 318.552988 173.689412 
L 319.954294 173.689412 
L 321.3556 172.503529 
L 325.559518 172.503529 
L 326.960824 171.317647 
L 339.572577 171.317647 
L 340.973882 168.945882 
L 346.579106 168.945882 
L 347.980412 167.76 
L 361.993471 167.76 
L 363.394776 165.388235 
L 364.796082 164.202353 
L 371.802612 164.202353 
L 373.203918 163.016471 
L 383.013059 163.016471 
L 384.414365 161.830588 
L 385.815671 161.830588 
L 387.216976 160.644706 
L 395.624812 160.644706 
L 398.427423 158.272941 
L 408.236565 158.272941 
L 411.039176 155.901176 
L 412.440482 155.901176 
L 413.841788 154.715294 
L 422.249623 154.715294 
L 423.650929 153.529412 
L 427.854847 153.529412 
L 429.256153 152.343529 
L 430.657459 149.971765 
L 434.861376 149.971765 
L 436.262682 148.785882 
L 437.663988 148.785882 
L 440.4666 146.414118 
L 446.071823 146.414118 
L 447.473129 145.228235 
L 453.078353 145.228235 
L 454.479658 144.042353 
L 458.683576 144.042353 
L 460.084882 142.856471 
L 471.295329 142.856471 
L 474.097941 140.484706 
L 481.10447 140.484706 
L 482.505776 139.298824 
L 488.111 139.298824 
L 495.117529 133.369412 
L 497.920141 133.369412 
L 499.321447 132.183529 
L 500.722752 132.183529 
L 502.124058 129.811765 
L 504.92667 127.44 
L 507.729282 122.696471 
L 510.531894 122.696471 
L 513.334505 117.952941 
L 516.137117 117.952941 
L 517.538423 115.581176 
L 520.341035 113.209412 
L 524.544952 113.209412 
L 525.946258 112.023529 
L 527.347564 112.023529 
L 530.150176 109.651765 
L 535.755399 109.651765 
L 537.156705 108.465882 
L 539.959317 108.465882 
L 541.360623 107.28 
L 548.367152 107.28 
L 549.768458 104.908235 
L 551.169764 103.722353 
L 552.57107 103.722353 
L 553.972376 102.536471 
L 556.774987 102.536471 
L 558.176293 101.350588 
L 560.978905 101.350588 
L 562.380211 98.978824 
L 565.182823 98.978824 
L 566.584129 97.792941 
L 567.985434 97.792941 
L 569.38674 96.607059 
L 576.39327 96.607059 
L 577.794576 95.421176 
L 584.801105 95.421176 
L 586.202411 94.235294 
L 587.603717 94.235294 
L 589.005023 91.863529 
L 591.807634 89.491765 
L 593.20894 85.934118 
L 594.610246 84.748235 
L 596.011552 84.748235 
L 597.412858 83.562353 
L 598.814164 83.562353 
L 600.21547 82.376471 
L 605.820693 82.376471 
L 607.221999 81.190588 
L 610.024611 81.190588 
L 611.425917 80.004706 
L 614.228528 80.004706 
L 617.03114 77.632941 
L 621.235058 77.632941 
L 622.636364 76.447059 
L 622.636364 76.447059 
" clip-path="url(#pdcb5c70e56)" style="fill: none; stroke: #e377c2; stroke-width: 1.5; stroke-linecap: square"/>
   </g>
   <g id="line2d_32">
    <path d="M 115.363636 338.527059 
L 116.764942 338.527059 
L 119.567554 336.155294 
L 126.574083 336.155294 
L 127.975389 334.969412 
L 129.376695 334.969412 
L 132.179307 332.597647 
L 134.981919 332.597647 
L 136.383225 331.411765 
L 140.587142 331.411765 
L 141.988448 330.225882 
L 143.389754 330.225882 
L 144.79106 329.04 
L 146.192366 329.04 
L 148.994977 326.668235 
L 153.198895 326.668235 
L 154.600201 325.482353 
L 157.402813 325.482353 
L 160.205424 323.110588 
L 163.008036 323.110588 
L 165.810648 320.738824 
L 167.211954 320.738824 
L 168.61326 319.552941 
L 170.014566 315.995294 
L 175.619789 315.995294 
L 181.225013 311.251765 
L 182.626318 311.251765 
L 185.42893 308.88 
L 186.830236 308.88 
L 188.231542 307.694118 
L 189.632848 307.694118 
L 191.034154 306.508235 
L 203.645907 306.508235 
L 205.047212 305.322353 
L 219.060271 305.322353 
L 221.862883 302.950588 
L 226.066801 302.950588 
L 227.468106 301.764706 
L 230.270718 301.764706 
L 233.07333 299.392941 
L 235.875942 299.392941 
L 237.277248 297.021176 
L 241.481165 297.021176 
L 242.882471 294.649412 
L 244.283777 293.463529 
L 251.290306 293.463529 
L 252.691612 292.277647 
L 254.092918 292.277647 
L 256.89553 289.905882 
L 263.902059 289.905882 
L 265.303365 288.72 
L 266.704671 288.72 
L 268.105977 287.534118 
L 276.513812 287.534118 
L 277.915118 286.348235 
L 282.119036 286.348235 
L 283.520342 285.162353 
L 284.921647 285.162353 
L 286.322953 281.604706 
L 287.724259 281.604706 
L 289.125565 279.232941 
L 290.526871 278.047059 
L 291.928177 278.047059 
L 294.730789 275.675294 
L 297.5334 275.675294 
L 298.934706 274.489412 
L 301.737318 274.489412 
L 303.138624 273.303529 
L 304.53993 273.303529 
L 305.941236 270.931765 
L 307.342541 270.931765 
L 308.743847 269.745882 
L 311.546459 269.745882 
L 314.349071 267.374118 
L 315.750377 267.374118 
L 317.151683 265.002353 
L 318.552988 263.816471 
L 328.36213 263.816471 
L 329.763435 261.444706 
L 333.967353 261.444706 
L 335.368659 260.258824 
L 336.769965 260.258824 
L 338.171271 259.072941 
L 342.375188 259.072941 
L 343.776494 257.887059 
L 350.783024 257.887059 
L 352.184329 256.701176 
L 354.986941 256.701176 
L 356.388247 255.515294 
L 363.394776 255.515294 
L 364.796082 254.329412 
L 377.407835 254.329412 
L 380.210447 251.957647 
L 381.611753 251.957647 
L 383.013059 250.771765 
L 384.414365 250.771765 
L 385.815671 249.585882 
L 387.216976 249.585882 
L 388.618282 248.4 
L 391.420894 248.4 
L 392.8222 247.214118 
L 394.223506 247.214118 
L 397.026118 244.842353 
L 401.230035 244.842353 
L 402.631341 243.656471 
L 406.835259 243.656471 
L 408.236565 242.470588 
L 418.045706 242.470588 
L 419.447012 241.284706 
L 420.848317 241.284706 
L 422.249623 240.098824 
L 427.854847 240.098824 
L 429.256153 237.727059 
L 437.663988 237.727059 
L 439.065294 236.541176 
L 440.4666 236.541176 
L 441.867906 234.169412 
L 448.874435 234.169412 
L 450.275741 232.983529 
L 458.683576 232.983529 
L 460.084882 231.797647 
L 478.301858 231.797647 
L 479.703164 230.611765 
L 500.722752 230.611765 
L 502.124058 229.425882 
L 509.130588 229.425882 
L 510.531894 228.24 
L 511.933199 228.24 
L 513.334505 227.054118 
L 514.735811 227.054118 
L 516.137117 224.682353 
L 517.538423 224.682353 
L 520.341035 222.310588 
L 530.150176 222.310588 
L 531.551482 221.124706 
L 532.952788 221.124706 
L 534.354093 219.938824 
L 535.755399 219.938824 
L 537.156705 218.752941 
L 544.163235 218.752941 
L 545.56454 217.567059 
L 558.176293 217.567059 
L 559.577599 216.381176 
L 566.584129 216.381176 
L 567.985434 215.195294 
L 574.991964 215.195294 
L 576.39327 214.009412 
L 579.195881 214.009412 
L 583.399799 210.451765 
L 586.202411 210.451765 
L 587.603717 208.08 
L 594.610246 208.08 
L 597.412858 205.708235 
L 600.21547 205.708235 
L 601.616775 204.522353 
L 603.018081 204.522353 
L 605.820693 202.150588 
L 615.629834 202.150588 
L 617.03114 200.964706 
L 619.833752 200.964706 
L 621.235058 199.778824 
L 622.636364 199.778824 
L 622.636364 199.778824 
" clip-path="url(#pdcb5c70e56)" style="fill: none; stroke: #7f7f7f; stroke-width: 1.5; stroke-linecap: square"/>
   </g>
   <g id="line2d_33">
    <path d="M 115.363636 345.642353 
L 120.96886 345.642353 
L 122.370166 344.456471 
L 136.383225 344.456471 
L 137.78453 343.270588 
L 144.79106 343.270588 
L 146.192366 342.084706 
L 160.205424 342.084706 
L 161.60673 340.898824 
L 175.619789 340.898824 
L 177.021095 339.712941 
L 252.691612 339.712941 
L 254.092918 338.527059 
L 261.099448 338.527059 
L 262.500753 337.341176 
L 272.309895 337.341176 
L 273.7112 336.155294 
L 275.112506 336.155294 
L 276.513812 332.597647 
L 277.915118 331.411765 
L 280.71773 331.411765 
L 282.119036 330.225882 
L 296.132094 330.225882 
L 297.5334 329.04 
L 310.145153 329.04 
L 311.546459 327.854118 
L 326.960824 327.854118 
L 328.36213 326.668235 
L 345.1778 326.668235 
L 346.579106 325.482353 
L 353.585635 325.482353 
L 354.986941 324.296471 
L 399.828729 324.296471 
L 401.230035 323.110588 
L 404.032647 323.110588 
L 405.433953 321.924706 
L 416.6444 321.924706 
L 418.045706 320.738824 
L 457.28227 320.738824 
L 461.486188 317.181176 
L 502.124058 317.181176 
L 503.525364 315.995294 
L 504.92667 315.995294 
L 507.729282 313.623529 
L 510.531894 313.623529 
L 511.933199 312.437647 
L 583.399799 312.437647 
L 584.801105 311.251765 
L 622.636364 311.251765 
L 622.636364 311.251765 
" clip-path="url(#pdcb5c70e56)" style="fill: none; stroke: #bcbd22; stroke-width: 1.5; stroke-linecap: square"/>
   </g>
   <g id="line2d_34">
    <path d="M 115.363636 366.988235 
L 185.42893 366.988235 
L 186.830236 365.802353 
L 275.112506 365.802353 
L 276.513812 364.616471 
L 419.447012 364.616471 
L 420.848317 363.430588 
L 422.249623 364.616471 
L 591.807634 364.616471 
L 593.20894 363.430588 
L 603.018081 363.430588 
L 604.419387 362.244706 
L 622.636364 362.244706 
L 622.636364 362.244706 
" clip-path="url(#pdcb5c70e56)" style="fill: none; stroke: #17becf; stroke-width: 1.5; stroke-linecap: square"/>
   </g>
   <g id="line2d_35">
    <path d="M 115.363636 369.36 
L 116.764942 368.174118 
L 119.567554 368.174118 
L 120.96886 366.988235 
L 130.778001 366.988235 
L 132.179307 365.802353 
L 136.383225 365.802353 
L 137.78453 364.616471 
L 139.185836 364.616471 
L 141.988448 362.244706 
L 148.994977 362.244706 
L 151.797589 359.872941 
L 153.198895 359.872941 
L 154.600201 358.687059 
L 164.409342 358.687059 
L 165.810648 357.501176 
L 167.211954 355.129412 
L 170.014566 355.129412 
L 171.415871 353.943529 
L 172.817177 353.943529 
L 174.218483 352.757647 
L 175.619789 352.757647 
L 177.021095 351.571765 
L 178.422401 351.571765 
L 181.225013 349.2 
L 189.632848 349.2 
L 192.43546 346.828235 
L 196.639377 346.828235 
L 198.040683 345.642353 
L 199.441989 345.642353 
L 200.843295 343.270588 
L 205.047212 343.270588 
L 207.849824 338.527059 
L 216.257659 338.527059 
L 217.658965 336.155294 
L 219.060271 334.969412 
L 223.264189 334.969412 
L 224.665495 333.783529 
L 226.066801 331.411765 
L 228.869412 331.411765 
L 230.270718 330.225882 
L 249.889 330.225882 
L 251.290306 327.854118 
L 261.099448 319.552941 
L 275.112506 319.552941 
L 279.316424 315.995294 
L 282.119036 315.995294 
L 283.520342 313.623529 
L 286.322953 313.623529 
L 287.724259 312.437647 
L 291.928177 312.437647 
L 293.329483 311.251765 
L 294.730789 311.251765 
L 296.132094 310.065882 
L 297.5334 310.065882 
L 300.336012 307.694118 
L 318.552988 307.694118 
L 321.3556 305.322353 
L 332.566047 305.322353 
L 333.967353 304.136471 
L 338.171271 304.136471 
L 340.973882 301.764706 
L 345.1778 301.764706 
L 346.579106 300.578824 
L 349.381718 300.578824 
L 350.783024 299.392941 
L 357.789553 299.392941 
L 359.190859 298.207059 
L 360.592165 298.207059 
L 361.993471 295.835294 
L 363.394776 295.835294 
L 364.796082 294.649412 
L 371.802612 294.649412 
L 373.203918 293.463529 
L 376.006529 293.463529 
L 377.407835 292.277647 
L 378.809141 292.277647 
L 381.611753 289.905882 
L 391.420894 289.905882 
L 392.8222 288.72 
L 394.223506 288.72 
L 395.624812 287.534118 
L 402.631341 287.534118 
L 404.032647 285.162353 
L 405.433953 283.976471 
L 412.440482 283.976471 
L 413.841788 282.790588 
L 419.447012 282.790588 
L 420.848317 280.418824 
L 426.453541 280.418824 
L 429.256153 278.047059 
L 433.46007 278.047059 
L 434.861376 276.861176 
L 451.677047 276.861176 
L 453.078353 274.489412 
L 454.479658 273.303529 
L 465.690105 273.303529 
L 467.091411 272.117647 
L 492.314917 272.117647 
L 493.716223 270.931765 
L 496.518835 270.931765 
L 497.920141 269.745882 
L 502.124058 269.745882 
L 503.525364 268.56 
L 521.742341 268.56 
L 523.143646 266.188235 
L 525.946258 266.188235 
L 527.347564 265.002353 
L 528.74887 265.002353 
L 530.150176 263.816471 
L 535.755399 263.816471 
L 537.156705 262.630588 
L 546.965846 262.630588 
L 548.367152 260.258824 
L 549.768458 260.258824 
L 551.169764 259.072941 
L 558.176293 259.072941 
L 559.577599 257.887059 
L 566.584129 257.887059 
L 569.38674 255.515294 
L 572.189352 255.515294 
L 573.590658 254.329412 
L 576.39327 254.329412 
L 577.794576 253.143529 
L 579.195881 253.143529 
L 580.597187 251.957647 
L 590.406328 251.957647 
L 591.807634 250.771765 
L 622.636364 250.771765 
L 622.636364 250.771765 
" clip-path="url(#pdcb5c70e56)" style="fill: none; stroke: #1f77b4; stroke-width: 1.5; stroke-linecap: square"/>
   </g>
   <g id="line2d_36">
    <path d="M 115.363636 325.482353 
L 125.172777 325.482353 
L 126.574083 324.296471 
L 130.778001 324.296471 
L 132.179307 323.110588 
L 137.78453 323.110588 
L 139.185836 321.924706 
L 143.389754 321.924706 
L 144.79106 320.738824 
L 146.192366 320.738824 
L 147.593672 319.552941 
L 151.797589 319.552941 
L 153.198895 318.367059 
L 156.001507 318.367059 
L 157.402813 317.181176 
L 158.804119 317.181176 
L 161.60673 314.809412 
L 170.014566 314.809412 
L 171.415871 313.623529 
L 172.817177 313.623529 
L 174.218483 312.437647 
L 175.619789 312.437647 
L 177.021095 310.065882 
L 178.422401 306.508235 
L 179.823707 305.322353 
L 185.42893 305.322353 
L 189.632848 301.764706 
L 193.836765 301.764706 
L 196.639377 299.392941 
L 212.053742 299.392941 
L 213.455048 295.835294 
L 214.856354 295.835294 
L 217.658965 291.091765 
L 220.461577 288.72 
L 221.862883 288.72 
L 223.264189 286.348235 
L 234.474636 286.348235 
L 235.875942 283.976471 
L 240.079859 283.976471 
L 241.481165 282.790588 
L 251.290306 282.790588 
L 252.691612 281.604706 
L 269.507283 281.604706 
L 270.908589 280.418824 
L 272.309895 280.418824 
L 273.7112 279.232941 
L 277.915118 279.232941 
L 279.316424 278.047059 
L 296.132094 278.047059 
L 297.5334 276.861176 
L 300.336012 276.861176 
L 303.138624 272.117647 
L 305.941236 272.117647 
L 308.743847 269.745882 
L 311.546459 269.745882 
L 312.947765 268.56 
L 317.151683 268.56 
L 318.552988 267.374118 
L 335.368659 267.374118 
L 336.769965 266.188235 
L 357.789553 266.188235 
L 359.190859 265.002353 
L 371.802612 265.002353 
L 373.203918 263.816471 
L 376.006529 263.816471 
L 377.407835 262.630588 
L 381.611753 262.630588 
L 384.414365 260.258824 
L 385.815671 260.258824 
L 387.216976 259.072941 
L 392.8222 259.072941 
L 395.624812 256.701176 
L 402.631341 256.701176 
L 404.032647 255.515294 
L 408.236565 255.515294 
L 409.63787 254.329412 
L 416.6444 254.329412 
L 418.045706 253.143529 
L 425.052235 253.143529 
L 426.453541 251.957647 
L 451.677047 251.957647 
L 453.078353 250.771765 
L 454.479658 250.771765 
L 455.880964 249.585882 
L 469.894023 249.585882 
L 471.295329 247.214118 
L 472.696635 247.214118 
L 474.097941 246.028235 
L 488.111 246.028235 
L 489.512305 244.842353 
L 495.117529 244.842353 
L 496.518835 243.656471 
L 497.920141 243.656471 
L 499.321447 242.470588 
L 511.933199 242.470588 
L 513.334505 241.284706 
L 541.360623 241.284706 
L 542.761929 237.727059 
L 552.57107 237.727059 
L 553.972376 236.541176 
L 556.774987 236.541176 
L 558.176293 235.355294 
L 574.991964 235.355294 
L 576.39327 234.169412 
L 596.011552 234.169412 
L 597.412858 232.983529 
L 601.616775 232.983529 
L 603.018081 231.797647 
L 614.228528 231.797647 
L 615.629834 229.425882 
L 622.636364 229.425882 
L 622.636364 229.425882 
" clip-path="url(#pdcb5c70e56)" style="fill: none; stroke: #ff7f0e; stroke-width: 1.5; stroke-linecap: square"/>
   </g>
   <g id="patch_3">
    <path d="M 90 384.48 
L 90 51.84 
" style="fill: none; stroke: #000000; stroke-width: 0.8; stroke-linejoin: miter; stroke-linecap: square"/>
   </g>
   <g id="patch_4">
    <path d="M 648 384.48 
L 648 51.84 
" style="fill: none; stroke: #000000; stroke-width: 0.8; stroke-linejoin: miter; stroke-linecap: square"/>
   </g>
   <g id="patch_5">
    <path d="M 90 384.48 
L 648 384.48 
" style="fill: none; stroke: #000000; stroke-width: 0.8; stroke-linejoin: miter; stroke-linecap: square"/>
   </g>
   <g id="patch_6">
    <path d="M 90 51.84 
L 648 51.84 
" style="fill: none; stroke: #000000; stroke-width: 0.8; stroke-linejoin: miter; stroke-linecap: square"/>
   </g>
   <g id="text_15">
    <!-- Time Series of Votes for Each Keyword -->
    <g transform="translate(253.716563 45.84) scale(0.12 -0.12)">
     <defs>
      <path id="DejaVuSans-53" d="M 3425 4513 
L 3425 3897 
Q 3066 4069 2747 4153 
Q 2428 4238 2131 4238 
Q 1616 4238 1336 4038 
Q 1056 3838 1056 3469 
Q 1056 3159 1242 3001 
Q 1428 2844 1947 2747 
L 2328 2669 
Q 3034 2534 3370 2195 
Q 3706 1856 3706 1288 
Q 3706 609 3251 259 
Q 2797 -91 1919 -91 
Q 1588 -91 1214 -16 
Q 841 59 441 206 
L 441 856 
Q 825 641 1194 531 
Q 1563 422 1919 422 
Q 2459 422 2753 634 
Q 3047 847 3047 1241 
Q 3047 1584 2836 1778 
Q 2625 1972 2144 2069 
L 1759 2144 
Q 1053 2284 737 2584 
Q 422 2884 422 3419 
Q 422 4038 858 4394 
Q 1294 4750 2059 4750 
Q 2388 4750 2728 4690 
Q 3069 4631 3425 4513 
z
" transform="scale(0.015625)"/>
      <path id="DejaVuSans-72" d="M 2631 2963 
Q 2534 3019 2420 3045 
Q 2306 3072 2169 3072 
Q 1681 3072 1420 2755 
Q 1159 2438 1159 1844 
L 1159 0 
L 581 0 
L 581 3500 
L 1159 3500 
L 1159 2956 
Q 1341 3275 1631 3429 
Q 1922 3584 2338 3584 
Q 2397 3584 2469 3576 
Q 2541 3569 2628 3553 
L 2631 2963 
z
" transform="scale(0.015625)"/>
      <path id="DejaVuSans-66" d="M 2375 4863 
L 2375 4384 
L 1825 4384 
Q 1516 4384 1395 4259 
Q 1275 4134 1275 3809 
L 1275 3500 
L 2222 3500 
L 2222 3053 
L 1275 3053 
L 1275 0 
L 697 0 
L 697 3053 
L 147 3053 
L 147 3500 
L 697 3500 
L 697 3744 
Q 697 4328 969 4595 
Q 1241 4863 1831 4863 
L 2375 4863 
z
" transform="scale(0.015625)"/>
      <path id="DejaVuSans-45" d="M 628 4666 
L 3578 4666 
L 3578 4134 
L 1259 4134 
L 1259 2753 
L 3481 2753 
L 3481 2222 
L 1259 2222 
L 1259 531 
L 3634 531 
L 3634 0 
L 628 0 
L 628 4666 
z
" transform="scale(0.015625)"/>
      <path id="DejaVuSans-63" d="M 3122 3366 
L 3122 2828 
Q 2878 2963 2633 3030 
Q 2388 3097 2138 3097 
Q 1578 3097 1268 2742 
Q 959 2388 959 1747 
Q 959 1106 1268 751 
Q 1578 397 2138 397 
Q 2388 397 2633 464 
Q 2878 531 3122 666 
L 3122 134 
Q 2881 22 2623 -34 
Q 2366 -91 2075 -91 
Q 1284 -91 818 406 
Q 353 903 353 1747 
Q 353 2603 823 3093 
Q 1294 3584 2113 3584 
Q 2378 3584 2631 3529 
Q 2884 3475 3122 3366 
z
" transform="scale(0.015625)"/>
      <path id="DejaVuSans-68" d="M 3513 2113 
L 3513 0 
L 2938 0 
L 2938 2094 
Q 2938 2591 2744 2837 
Q 2550 3084 2163 3084 
Q 1697 3084 1428 2787 
Q 1159 2491 1159 1978 
L 1159 0 
L 581 0 
L 581 4863 
L 1159 4863 
L 1159 2956 
Q 1366 3272 1645 3428 
Q 1925 3584 2291 3584 
Q 2894 3584 3203 3211 
Q 3513 2838 3513 2113 
z
" transform="scale(0.015625)"/>
      <path id="DejaVuSans-4b" d="M 628 4666 
L 1259 4666 
L 1259 2694 
L 3353 4666 
L 4166 4666 
L 1850 2491 
L 4331 0 
L 3500 0 
L 1259 2247 
L 1259 0 
L 628 0 
L 628 4666 
z
" transform="scale(0.015625)"/>
      <path id="DejaVuSans-79" d="M 2059 -325 
Q 1816 -950 1584 -1140 
Q 1353 -1331 966 -1331 
L 506 -1331 
L 506 -850 
L 844 -850 
Q 1081 -850 1212 -737 
Q 1344 -625 1503 -206 
L 1606 56 
L 191 3500 
L 800 3500 
L 1894 763 
L 2988 3500 
L 3597 3500 
L 2059 -325 
z
" transform="scale(0.015625)"/>
      <path id="DejaVuSans-77" d="M 269 3500 
L 844 3500 
L 1563 769 
L 2278 3500 
L 2956 3500 
L 3675 769 
L 4391 3500 
L 4966 3500 
L 4050 0 
L 3372 0 
L 2619 2869 
L 1863 0 
L 1184 0 
L 269 3500 
z
" transform="scale(0.015625)"/>
     </defs>
     <use xlink:href="#DejaVuSans-54"/>
     <use xlink:href="#DejaVuSans-69" transform="translate(57.958984 0)"/>
     <use xlink:href="#DejaVuSans-6d" transform="translate(85.742188 0)"/>
     <use xlink:href="#DejaVuSans-65" transform="translate(183.154297 0)"/>
     <use xlink:href="#DejaVuSans-20" transform="translate(244.677734 0)"/>
     <use xlink:href="#DejaVuSans-53" transform="translate(276.464844 0)"/>
     <use xlink:href="#DejaVuSans-65" transform="translate(339.941406 0)"/>
     <use xlink:href="#DejaVuSans-72" transform="translate(401.464844 0)"/>
     <use xlink:href="#DejaVuSans-69" transform="translate(442.578125 0)"/>
     <use xlink:href="#DejaVuSans-65" transform="translate(470.361328 0)"/>
     <use xlink:href="#DejaVuSans-73" transform="translate(531.884766 0)"/>
     <use xlink:href="#DejaVuSans-20" transform="translate(583.984375 0)"/>
     <use xlink:href="#DejaVuSans-6f" transform="translate(615.771484 0)"/>
     <use xlink:href="#DejaVuSans-66" transform="translate(676.953125 0)"/>
     <use xlink:href="#DejaVuSans-20" transform="translate(712.158203 0)"/>
     <use xlink:href="#DejaVuSans-56" transform="translate(743.945312 0)"/>
     <use xlink:href="#DejaVuSans-6f" transform="translate(804.603516 0)"/>
     <use xlink:href="#DejaVuSans-74" transform="translate(865.785156 0)"/>
     <use xlink:href="#DejaVuSans-65" transform="translate(904.994141 0)"/>
     <use xlink:href="#DejaVuSans-73" transform="translate(966.517578 0)"/>
     <use xlink:href="#DejaVuSans-20" transform="translate(1018.617188 0)"/>
     <use xlink:href="#DejaVuSans-66" transform="translate(1050.404297 0)"/>
     <use xlink:href="#DejaVuSans-6f" transform="translate(1085.609375 0)"/>
     <use xlink:href="#DejaVuSans-72" transform="translate(1146.791016 0)"/>
     <use xlink:href="#DejaVuSans-20" transform="translate(1187.904297 0)"/>
     <use xlink:href="#DejaVuSans-45" transform="translate(1219.691406 0)"/>
     <use xlink:href="#DejaVuSans-61" transform="translate(1282.875 0)"/>
     <use xlink:href="#DejaVuSans-63" transform="translate(1344.154297 0)"/>
     <use xlink:href="#DejaVuSans-68" transform="translate(1399.134766 0)"/>
     <use xlink:href="#DejaVuSans-20" transform="translate(1462.513672 0)"/>
     <use xlink:href="#DejaVuSans-4b" transform="translate(1494.300781 0)"/>
     <use xlink:href="#DejaVuSans-65" transform="translate(1554.876953 0)"/>
     <use xlink:href="#DejaVuSans-79" transform="translate(1616.400391 0)"/>
     <use xlink:href="#DejaVuSans-77" transform="translate(1675.580078 0)"/>
     <use xlink:href="#DejaVuSans-6f" transform="translate(1757.367188 0)"/>
     <use xlink:href="#DejaVuSans-72" transform="translate(1818.548828 0)"/>
     <use xlink:href="#DejaVuSans-64" transform="translate(1857.912109 0)"/>
    </g>
   </g>
   <g id="legend_1">
    <g id="patch_7">
     <path d="M 97 235.9775 
L 149.245313 235.9775 
Q 151.245313 235.9775 151.245313 233.9775 
L 151.245313 58.84 
Q 151.245313 56.84 149.245313 56.84 
L 97 56.84 
Q 95 56.84 95 58.84 
L 95 233.9775 
Q 95 235.9775 97 235.9775 
z
" style="fill: #ffffff; opacity: 0.8; stroke: #cccccc; stroke-linejoin: miter"/>
    </g>
    <g id="line2d_37">
     <path d="M 99 64.938437 
L 109 64.938437 
L 119 64.938437 
" style="fill: none; stroke: #1f77b4; stroke-width: 1.5; stroke-linecap: square"/>
    </g>
    <g id="text_16">
     <!-- H01 -->
     <g transform="translate(127 68.438437) scale(0.1 -0.1)">
      <defs>
       <path id="DejaVuSans-48" d="M 628 4666 
L 1259 4666 
L 1259 2753 
L 3553 2753 
L 3553 4666 
L 4184 4666 
L 4184 0 
L 3553 0 
L 3553 2222 
L 1259 2222 
L 1259 0 
L 628 0 
L 628 4666 
z
" transform="scale(0.015625)"/>
      </defs>
      <use xlink:href="#DejaVuSans-48"/>
      <use xlink:href="#DejaVuSans-30" transform="translate(75.195312 0)"/>
      <use xlink:href="#DejaVuSans-31" transform="translate(138.818359 0)"/>
     </g>
    </g>
    <g id="line2d_38">
     <path d="M 99 79.616562 
L 109 79.616562 
L 119 79.616562 
" style="fill: none; stroke: #ff7f0e; stroke-width: 1.5; stroke-linecap: square"/>
    </g>
    <g id="text_17">
     <!-- H02 -->
     <g transform="translate(127 83.116562) scale(0.1 -0.1)">
      <use xlink:href="#DejaVuSans-48"/>
      <use xlink:href="#DejaVuSans-30" transform="translate(75.195312 0)"/>
      <use xlink:href="#DejaVuSans-32" transform="translate(138.818359 0)"/>
     </g>
    </g>
    <g id="line2d_39">
     <path d="M 99 94.294688 
L 109 94.294688 
L 119 94.294688 
" style="fill: none; stroke: #2ca02c; stroke-width: 1.5; stroke-linecap: square"/>
    </g>
    <g id="text_18">
     <!-- H03 -->
     <g transform="translate(127 97.794688) scale(0.1 -0.1)">
      <defs>
       <path id="DejaVuSans-33" d="M 2597 2516 
Q 3050 2419 3304 2112 
Q 3559 1806 3559 1356 
Q 3559 666 3084 287 
Q 2609 -91 1734 -91 
Q 1441 -91 1130 -33 
Q 819 25 488 141 
L 488 750 
Q 750 597 1062 519 
Q 1375 441 1716 441 
Q 2309 441 2620 675 
Q 2931 909 2931 1356 
Q 2931 1769 2642 2001 
Q 2353 2234 1838 2234 
L 1294 2234 
L 1294 2753 
L 1863 2753 
Q 2328 2753 2575 2939 
Q 2822 3125 2822 3475 
Q 2822 3834 2567 4026 
Q 2313 4219 1838 4219 
Q 1578 4219 1281 4162 
Q 984 4106 628 3988 
L 628 4550 
Q 988 4650 1302 4700 
Q 1616 4750 1894 4750 
Q 2613 4750 3031 4423 
Q 3450 4097 3450 3541 
Q 3450 3153 3228 2886 
Q 3006 2619 2597 2516 
z
" transform="scale(0.015625)"/>
      </defs>
      <use xlink:href="#DejaVuSans-48"/>
      <use xlink:href="#DejaVuSans-30" transform="translate(75.195312 0)"/>
      <use xlink:href="#DejaVuSans-33" transform="translate(138.818359 0)"/>
     </g>
    </g>
    <g id="line2d_40">
     <path d="M 99 108.972812 
L 109 108.972812 
L 119 108.972812 
" style="fill: none; stroke: #d62728; stroke-width: 1.5; stroke-linecap: square"/>
    </g>
    <g id="text_19">
     <!-- H04 -->
     <g transform="translate(127 112.472812) scale(0.1 -0.1)">
      <use xlink:href="#DejaVuSans-48"/>
      <use xlink:href="#DejaVuSans-30" transform="translate(75.195312 0)"/>
      <use xlink:href="#DejaVuSans-34" transform="translate(138.818359 0)"/>
     </g>
    </g>
    <g id="line2d_41">
     <path d="M 99 123.650937 
L 109 123.650937 
L 119 123.650937 
" style="fill: none; stroke: #9467bd; stroke-width: 1.5; stroke-linecap: square"/>
    </g>
    <g id="text_20">
     <!-- H05 -->
     <g transform="translate(127 127.150937) scale(0.1 -0.1)">
      <use xlink:href="#DejaVuSans-48"/>
      <use xlink:href="#DejaVuSans-30" transform="translate(75.195312 0)"/>
      <use xlink:href="#DejaVuSans-35" transform="translate(138.818359 0)"/>
     </g>
    </g>
    <g id="line2d_42">
     <path d="M 99 138.329062 
L 109 138.329062 
L 119 138.329062 
" style="fill: none; stroke: #8c564b; stroke-width: 1.5; stroke-linecap: square"/>
    </g>
    <g id="text_21">
     <!-- H06 -->
     <g transform="translate(127 141.829062) scale(0.1 -0.1)">
      <use xlink:href="#DejaVuSans-48"/>
      <use xlink:href="#DejaVuSans-30" transform="translate(75.195312 0)"/>
      <use xlink:href="#DejaVuSans-36" transform="translate(138.818359 0)"/>
     </g>
    </g>
    <g id="line2d_43">
     <path d="M 99 153.007187 
L 109 153.007187 
L 119 153.007187 
" style="fill: none; stroke: #e377c2; stroke-width: 1.5; stroke-linecap: square"/>
    </g>
    <g id="text_22">
     <!-- H07 -->
     <g transform="translate(127 156.507187) scale(0.1 -0.1)">
      <use xlink:href="#DejaVuSans-48"/>
      <use xlink:href="#DejaVuSans-30" transform="translate(75.195312 0)"/>
      <use xlink:href="#DejaVuSans-37" transform="translate(138.818359 0)"/>
     </g>
    </g>
    <g id="line2d_44">
     <path d="M 99 167.685312 
L 109 167.685312 
L 119 167.685312 
" style="fill: none; stroke: #7f7f7f; stroke-width: 1.5; stroke-linecap: square"/>
    </g>
    <g id="text_23">
     <!-- H08 -->
     <g transform="translate(127 171.185312) scale(0.1 -0.1)">
      <use xlink:href="#DejaVuSans-48"/>
      <use xlink:href="#DejaVuSans-30" transform="translate(75.195312 0)"/>
      <use xlink:href="#DejaVuSans-38" transform="translate(138.818359 0)"/>
     </g>
    </g>
    <g id="line2d_45">
     <path d="M 99 182.363437 
L 109 182.363437 
L 119 182.363437 
" style="fill: none; stroke: #bcbd22; stroke-width: 1.5; stroke-linecap: square"/>
    </g>
    <g id="text_24">
     <!-- H09 -->
     <g transform="translate(127 185.863437) scale(0.1 -0.1)">
      <use xlink:href="#DejaVuSans-48"/>
      <use xlink:href="#DejaVuSans-30" transform="translate(75.195312 0)"/>
      <use xlink:href="#DejaVuSans-39" transform="translate(138.818359 0)"/>
     </g>
    </g>
    <g id="line2d_46">
     <path d="M 99 197.041562 
L 109 197.041562 
L 119 197.041562 
" style="fill: none; stroke: #17becf; stroke-width: 1.5; stroke-linecap: square"/>
    </g>
    <g id="text_25">
     <!-- H10 -->
     <g transform="translate(127 200.541562) scale(0.1 -0.1)">
      <use xlink:href="#DejaVuSans-48"/>
      <use xlink:href="#DejaVuSans-31" transform="translate(75.195312 0)"/>
      <use xlink:href="#DejaVuSans-30" transform="translate(138.818359 0)"/>
     </g>
    </g>
    <g id="line2d_47">
     <path d="M 99 211.719687 
L 109 211.719687 
L 119 211.719687 
" style="fill: none; stroke: #1f77b4; stroke-width: 1.5; stroke-linecap: square"/>
    </g>
    <g id="text_26">
     <!-- H11 -->
     <g transform="translate(127 215.219687) scale(0.1 -0.1)">
      <use xlink:href="#DejaVuSans-48"/>
      <use xlink:href="#DejaVuSans-31" transform="translate(75.195312 0)"/>
      <use xlink:href="#DejaVuSans-31" transform="translate(138.818359 0)"/>
     </g>
    </g>
    <g id="line2d_48">
     <path d="M 99 226.397812 
L 109 226.397812 
L 119 226.397812 
" style="fill: none; stroke: #ff7f0e; stroke-width: 1.5; stroke-linecap: square"/>
    </g>
    <g id="text_27">
     <!-- H12 -->
     <g transform="translate(127 229.897812) scale(0.1 -0.1)">
      <use xlink:href="#DejaVuSans-48"/>
      <use xlink:href="#DejaVuSans-31" transform="translate(75.195312 0)"/>
      <use xlink:href="#DejaVuSans-32" transform="translate(138.818359 0)"/>
     </g>
    </g>
   </g>
  </g>
 </g>
 <defs>
  <clipPath id="pdcb5c70e56">
   <rect x="90" y="51.84" width="558" height="332.64"/>
  </clipPath>
 </defs>
</svg>
