<?xml version="1.0" encoding="utf-8" standalone="no"?>
<!DOCTYPE svg PUBLIC "-//W3C//DTD SVG 1.1//EN"
  "http://www.w3.org/Graphics/SVG/1.1/DTD/svg11.dtd">
<svg xmlns:xlink="http://www.w3.org/1999/xlink" width="720pt" height="432pt" viewBox="0 0 720 432" xmlns="http://www.w3.org/2000/svg" version="1.1">
 <metadata>
  <rdf:RDF xmlns:dc="http://purl.org/dc/elements/1.1/" xmlns:cc="http://creativecommons.org/ns#" xmlns:rdf="http://www.w3.org/1999/02/22-rdf-syntax-ns#">
   <cc:Work>
    <dc:type rdf:resource="http://purl.org/dc/dcmitype/StillImage"/>
    <dc:date>2025-01-14T21:32:48.464142</dc:date>
    <dc:format>image/svg+xml</dc:format>
    <dc:creator>
     <cc:Agent>
      <dc:title>Matplotlib v3.10.0, https://matplotlib.org/</dc:title>
     </cc:Agent>
    </dc:creator>
   </cc:Work>
  </rdf:RDF>
 </metadata>
 <defs>
  <style type="text/css">*{stroke-linejoin: round; stroke-linecap: butt}</style>
 </defs>
 <g id="figure_1">
  <g id="patch_1">
   <path d="M 0 432 
L 720 432 
L 720 0 
L 0 0 
z
" style="fill: #ffffff"/>
  </g>
  <g id="axes_1">
   <g id="patch_2">
    <path d="M 90 384.48 
L 648 384.48 
L 648 51.84 
L 90 51.84 
z
" style="fill: #ffffff"/>
   </g>
   <g id="matplotlib.axis_1">
    <g id="xtick_1">
     <g id="line2d_1">
      <path d="M 143.957297 384.48 
L 143.957297 51.84 
" clip-path="url(#paa67b1fd6b)" style="fill: none; stroke: #b0b0b0; stroke-width: 0.8; stroke-linecap: square"/>
     </g>
     <g id="line2d_2">
      <defs>
       <path id="mc39ae4e755" d="M 0 0 
L 0 3.5 
" style="stroke: #000000; stroke-width: 0.8"/>
      </defs>
      <g>
       <use xlink:href="#mc39ae4e755" x="143.957297" y="384.48" style="stroke: #000000; stroke-width: 0.8"/>
      </g>
     </g>
     <g id="text_1">
      <!-- 01-14 14 -->
      <g transform="translate(121.476829 399.078438) scale(0.1 -0.1)">
       <defs>
        <path id="DejaVuSans-30" d="M 2034 4250 
Q 1547 4250 1301 3770 
Q 1056 3291 1056 2328 
Q 1056 1369 1301 889 
Q 1547 409 2034 409 
Q 2525 409 2770 889 
Q 3016 1369 3016 2328 
Q 3016 3291 2770 3770 
Q 2525 4250 2034 4250 
z
M 2034 4750 
Q 2819 4750 3233 4129 
Q 3647 3509 3647 2328 
Q 3647 1150 3233 529 
Q 2819 -91 2034 -91 
Q 1250 -91 836 529 
Q 422 1150 422 2328 
Q 422 3509 836 4129 
Q 1250 4750 2034 4750 
z
" transform="scale(0.015625)"/>
        <path id="DejaVuSans-31" d="M 794 531 
L 1825 531 
L 1825 4091 
L 703 3866 
L 703 4441 
L 1819 4666 
L 2450 4666 
L 2450 531 
L 3481 531 
L 3481 0 
L 794 0 
L 794 531 
z
" transform="scale(0.015625)"/>
        <path id="DejaVuSans-2d" d="M 313 2009 
L 1997 2009 
L 1997 1497 
L 313 1497 
L 313 2009 
z
" transform="scale(0.015625)"/>
        <path id="DejaVuSans-34" d="M 2419 4116 
L 825 1625 
L 2419 1625 
L 2419 4116 
z
M 2253 4666 
L 3047 4666 
L 3047 1625 
L 3713 1625 
L 3713 1100 
L 3047 1100 
L 3047 0 
L 2419 0 
L 2419 1100 
L 313 1100 
L 313 1709 
L 2253 4666 
z
" transform="scale(0.015625)"/>
        <path id="DejaVuSans-20" transform="scale(0.015625)"/>
       </defs>
       <use xlink:href="#DejaVuSans-30"/>
       <use xlink:href="#DejaVuSans-31" transform="translate(63.623047 0)"/>
       <use xlink:href="#DejaVuSans-2d" transform="translate(127.246094 0)"/>
       <use xlink:href="#DejaVuSans-31" transform="translate(163.330078 0)"/>
       <use xlink:href="#DejaVuSans-34" transform="translate(226.953125 0)"/>
       <use xlink:href="#DejaVuSans-20" transform="translate(290.576172 0)"/>
       <use xlink:href="#DejaVuSans-31" transform="translate(322.363281 0)"/>
       <use xlink:href="#DejaVuSans-34" transform="translate(385.986328 0)"/>
      </g>
     </g>
    </g>
    <g id="xtick_2">
     <g id="line2d_3">
      <path d="M 207.498766 384.48 
L 207.498766 51.84 
" clip-path="url(#paa67b1fd6b)" style="fill: none; stroke: #b0b0b0; stroke-width: 0.8; stroke-linecap: square"/>
     </g>
     <g id="line2d_4">
      <g>
       <use xlink:href="#mc39ae4e755" x="207.498766" y="384.48" style="stroke: #000000; stroke-width: 0.8"/>
      </g>
     </g>
     <g id="text_2">
      <!-- 01-14 15 -->
      <g transform="translate(185.018298 399.078438) scale(0.1 -0.1)">
       <defs>
        <path id="DejaVuSans-35" d="M 691 4666 
L 3169 4666 
L 3169 4134 
L 1269 4134 
L 1269 2991 
Q 1406 3038 1543 3061 
Q 1681 3084 1819 3084 
Q 2600 3084 3056 2656 
Q 3513 2228 3513 1497 
Q 3513 744 3044 326 
Q 2575 -91 1722 -91 
Q 1428 -91 1123 -41 
Q 819 9 494 109 
L 494 744 
Q 775 591 1075 516 
Q 1375 441 1709 441 
Q 2250 441 2565 725 
Q 2881 1009 2881 1497 
Q 2881 1984 2565 2268 
Q 2250 2553 1709 2553 
Q 1456 2553 1204 2497 
Q 953 2441 691 2322 
L 691 4666 
z
" transform="scale(0.015625)"/>
       </defs>
       <use xlink:href="#DejaVuSans-30"/>
       <use xlink:href="#DejaVuSans-31" transform="translate(63.623047 0)"/>
       <use xlink:href="#DejaVuSans-2d" transform="translate(127.246094 0)"/>
       <use xlink:href="#DejaVuSans-31" transform="translate(163.330078 0)"/>
       <use xlink:href="#DejaVuSans-34" transform="translate(226.953125 0)"/>
       <use xlink:href="#DejaVuSans-20" transform="translate(290.576172 0)"/>
       <use xlink:href="#DejaVuSans-31" transform="translate(322.363281 0)"/>
       <use xlink:href="#DejaVuSans-35" transform="translate(385.986328 0)"/>
      </g>
     </g>
    </g>
    <g id="xtick_3">
     <g id="line2d_5">
      <path d="M 271.040235 384.48 
L 271.040235 51.84 
" clip-path="url(#paa67b1fd6b)" style="fill: none; stroke: #b0b0b0; stroke-width: 0.8; stroke-linecap: square"/>
     </g>
     <g id="line2d_6">
      <g>
       <use xlink:href="#mc39ae4e755" x="271.040235" y="384.48" style="stroke: #000000; stroke-width: 0.8"/>
      </g>
     </g>
     <g id="text_3">
      <!-- 01-14 16 -->
      <g transform="translate(248.559767 399.078438) scale(0.1 -0.1)">
       <defs>
        <path id="DejaVuSans-36" d="M 2113 2584 
Q 1688 2584 1439 2293 
Q 1191 2003 1191 1497 
Q 1191 994 1439 701 
Q 1688 409 2113 409 
Q 2538 409 2786 701 
Q 3034 994 3034 1497 
Q 3034 2003 2786 2293 
Q 2538 2584 2113 2584 
z
M 3366 4563 
L 3366 3988 
Q 3128 4100 2886 4159 
Q 2644 4219 2406 4219 
Q 1781 4219 1451 3797 
Q 1122 3375 1075 2522 
Q 1259 2794 1537 2939 
Q 1816 3084 2150 3084 
Q 2853 3084 3261 2657 
Q 3669 2231 3669 1497 
Q 3669 778 3244 343 
Q 2819 -91 2113 -91 
Q 1303 -91 875 529 
Q 447 1150 447 2328 
Q 447 3434 972 4092 
Q 1497 4750 2381 4750 
Q 2619 4750 2861 4703 
Q 3103 4656 3366 4563 
z
" transform="scale(0.015625)"/>
       </defs>
       <use xlink:href="#DejaVuSans-30"/>
       <use xlink:href="#DejaVuSans-31" transform="translate(63.623047 0)"/>
       <use xlink:href="#DejaVuSans-2d" transform="translate(127.246094 0)"/>
       <use xlink:href="#DejaVuSans-31" transform="translate(163.330078 0)"/>
       <use xlink:href="#DejaVuSans-34" transform="translate(226.953125 0)"/>
       <use xlink:href="#DejaVuSans-20" transform="translate(290.576172 0)"/>
       <use xlink:href="#DejaVuSans-31" transform="translate(322.363281 0)"/>
       <use xlink:href="#DejaVuSans-36" transform="translate(385.986328 0)"/>
      </g>
     </g>
    </g>
    <g id="xtick_4">
     <g id="line2d_7">
      <path d="M 334.581704 384.48 
L 334.581704 51.84 
" clip-path="url(#paa67b1fd6b)" style="fill: none; stroke: #b0b0b0; stroke-width: 0.8; stroke-linecap: square"/>
     </g>
     <g id="line2d_8">
      <g>
       <use xlink:href="#mc39ae4e755" x="334.581704" y="384.48" style="stroke: #000000; stroke-width: 0.8"/>
      </g>
     </g>
     <g id="text_4">
      <!-- 01-14 17 -->
      <g transform="translate(312.101236 399.078438) scale(0.1 -0.1)">
       <defs>
        <path id="DejaVuSans-37" d="M 525 4666 
L 3525 4666 
L 3525 4397 
L 1831 0 
L 1172 0 
L 2766 4134 
L 525 4134 
L 525 4666 
z
" transform="scale(0.015625)"/>
       </defs>
       <use xlink:href="#DejaVuSans-30"/>
       <use xlink:href="#DejaVuSans-31" transform="translate(63.623047 0)"/>
       <use xlink:href="#DejaVuSans-2d" transform="translate(127.246094 0)"/>
       <use xlink:href="#DejaVuSans-31" transform="translate(163.330078 0)"/>
       <use xlink:href="#DejaVuSans-34" transform="translate(226.953125 0)"/>
       <use xlink:href="#DejaVuSans-20" transform="translate(290.576172 0)"/>
       <use xlink:href="#DejaVuSans-31" transform="translate(322.363281 0)"/>
       <use xlink:href="#DejaVuSans-37" transform="translate(385.986328 0)"/>
      </g>
     </g>
    </g>
    <g id="xtick_5">
     <g id="line2d_9">
      <path d="M 398.123173 384.48 
L 398.123173 51.84 
" clip-path="url(#paa67b1fd6b)" style="fill: none; stroke: #b0b0b0; stroke-width: 0.8; stroke-linecap: square"/>
     </g>
     <g id="line2d_10">
      <g>
       <use xlink:href="#mc39ae4e755" x="398.123173" y="384.48" style="stroke: #000000; stroke-width: 0.8"/>
      </g>
     </g>
     <g id="text_5">
      <!-- 01-14 18 -->
      <g transform="translate(375.642705 399.078438) scale(0.1 -0.1)">
       <defs>
        <path id="DejaVuSans-38" d="M 2034 2216 
Q 1584 2216 1326 1975 
Q 1069 1734 1069 1313 
Q 1069 891 1326 650 
Q 1584 409 2034 409 
Q 2484 409 2743 651 
Q 3003 894 3003 1313 
Q 3003 1734 2745 1975 
Q 2488 2216 2034 2216 
z
M 1403 2484 
Q 997 2584 770 2862 
Q 544 3141 544 3541 
Q 544 4100 942 4425 
Q 1341 4750 2034 4750 
Q 2731 4750 3128 4425 
Q 3525 4100 3525 3541 
Q 3525 3141 3298 2862 
Q 3072 2584 2669 2484 
Q 3125 2378 3379 2068 
Q 3634 1759 3634 1313 
Q 3634 634 3220 271 
Q 2806 -91 2034 -91 
Q 1263 -91 848 271 
Q 434 634 434 1313 
Q 434 1759 690 2068 
Q 947 2378 1403 2484 
z
M 1172 3481 
Q 1172 3119 1398 2916 
Q 1625 2713 2034 2713 
Q 2441 2713 2670 2916 
Q 2900 3119 2900 3481 
Q 2900 3844 2670 4047 
Q 2441 4250 2034 4250 
Q 1625 4250 1398 4047 
Q 1172 3844 1172 3481 
z
" transform="scale(0.015625)"/>
       </defs>
       <use xlink:href="#DejaVuSans-30"/>
       <use xlink:href="#DejaVuSans-31" transform="translate(63.623047 0)"/>
       <use xlink:href="#DejaVuSans-2d" transform="translate(127.246094 0)"/>
       <use xlink:href="#DejaVuSans-31" transform="translate(163.330078 0)"/>
       <use xlink:href="#DejaVuSans-34" transform="translate(226.953125 0)"/>
       <use xlink:href="#DejaVuSans-20" transform="translate(290.576172 0)"/>
       <use xlink:href="#DejaVuSans-31" transform="translate(322.363281 0)"/>
       <use xlink:href="#DejaVuSans-38" transform="translate(385.986328 0)"/>
      </g>
     </g>
    </g>
    <g id="xtick_6">
     <g id="line2d_11">
      <path d="M 461.664642 384.48 
L 461.664642 51.84 
" clip-path="url(#paa67b1fd6b)" style="fill: none; stroke: #b0b0b0; stroke-width: 0.8; stroke-linecap: square"/>
     </g>
     <g id="line2d_12">
      <g>
       <use xlink:href="#mc39ae4e755" x="461.664642" y="384.48" style="stroke: #000000; stroke-width: 0.8"/>
      </g>
     </g>
     <g id="text_6">
      <!-- 01-14 19 -->
      <g transform="translate(439.184173 399.078438) scale(0.1 -0.1)">
       <defs>
        <path id="DejaVuSans-39" d="M 703 97 
L 703 672 
Q 941 559 1184 500 
Q 1428 441 1663 441 
Q 2288 441 2617 861 
Q 2947 1281 2994 2138 
Q 2813 1869 2534 1725 
Q 2256 1581 1919 1581 
Q 1219 1581 811 2004 
Q 403 2428 403 3163 
Q 403 3881 828 4315 
Q 1253 4750 1959 4750 
Q 2769 4750 3195 4129 
Q 3622 3509 3622 2328 
Q 3622 1225 3098 567 
Q 2575 -91 1691 -91 
Q 1453 -91 1209 -44 
Q 966 3 703 97 
z
M 1959 2075 
Q 2384 2075 2632 2365 
Q 2881 2656 2881 3163 
Q 2881 3666 2632 3958 
Q 2384 4250 1959 4250 
Q 1534 4250 1286 3958 
Q 1038 3666 1038 3163 
Q 1038 2656 1286 2365 
Q 1534 2075 1959 2075 
z
" transform="scale(0.015625)"/>
       </defs>
       <use xlink:href="#DejaVuSans-30"/>
       <use xlink:href="#DejaVuSans-31" transform="translate(63.623047 0)"/>
       <use xlink:href="#DejaVuSans-2d" transform="translate(127.246094 0)"/>
       <use xlink:href="#DejaVuSans-31" transform="translate(163.330078 0)"/>
       <use xlink:href="#DejaVuSans-34" transform="translate(226.953125 0)"/>
       <use xlink:href="#DejaVuSans-20" transform="translate(290.576172 0)"/>
       <use xlink:href="#DejaVuSans-31" transform="translate(322.363281 0)"/>
       <use xlink:href="#DejaVuSans-39" transform="translate(385.986328 0)"/>
      </g>
     </g>
    </g>
    <g id="xtick_7">
     <g id="line2d_13">
      <path d="M 525.206111 384.48 
L 525.206111 51.84 
" clip-path="url(#paa67b1fd6b)" style="fill: none; stroke: #b0b0b0; stroke-width: 0.8; stroke-linecap: square"/>
     </g>
     <g id="line2d_14">
      <g>
       <use xlink:href="#mc39ae4e755" x="525.206111" y="384.48" style="stroke: #000000; stroke-width: 0.8"/>
      </g>
     </g>
     <g id="text_7">
      <!-- 01-14 20 -->
      <g transform="translate(502.725642 399.078438) scale(0.1 -0.1)">
       <defs>
        <path id="DejaVuSans-32" d="M 1228 531 
L 3431 531 
L 3431 0 
L 469 0 
L 469 531 
Q 828 903 1448 1529 
Q 2069 2156 2228 2338 
Q 2531 2678 2651 2914 
Q 2772 3150 2772 3378 
Q 2772 3750 2511 3984 
Q 2250 4219 1831 4219 
Q 1534 4219 1204 4116 
Q 875 4013 500 3803 
L 500 4441 
Q 881 4594 1212 4672 
Q 1544 4750 1819 4750 
Q 2544 4750 2975 4387 
Q 3406 4025 3406 3419 
Q 3406 3131 3298 2873 
Q 3191 2616 2906 2266 
Q 2828 2175 2409 1742 
Q 1991 1309 1228 531 
z
" transform="scale(0.015625)"/>
       </defs>
       <use xlink:href="#DejaVuSans-30"/>
       <use xlink:href="#DejaVuSans-31" transform="translate(63.623047 0)"/>
       <use xlink:href="#DejaVuSans-2d" transform="translate(127.246094 0)"/>
       <use xlink:href="#DejaVuSans-31" transform="translate(163.330078 0)"/>
       <use xlink:href="#DejaVuSans-34" transform="translate(226.953125 0)"/>
       <use xlink:href="#DejaVuSans-20" transform="translate(290.576172 0)"/>
       <use xlink:href="#DejaVuSans-32" transform="translate(322.363281 0)"/>
       <use xlink:href="#DejaVuSans-30" transform="translate(385.986328 0)"/>
      </g>
     </g>
    </g>
    <g id="xtick_8">
     <g id="line2d_15">
      <path d="M 588.74758 384.48 
L 588.74758 51.84 
" clip-path="url(#paa67b1fd6b)" style="fill: none; stroke: #b0b0b0; stroke-width: 0.8; stroke-linecap: square"/>
     </g>
     <g id="line2d_16">
      <g>
       <use xlink:href="#mc39ae4e755" x="588.74758" y="384.48" style="stroke: #000000; stroke-width: 0.8"/>
      </g>
     </g>
     <g id="text_8">
      <!-- 01-14 21 -->
      <g transform="translate(566.267111 399.078438) scale(0.1 -0.1)">
       <use xlink:href="#DejaVuSans-30"/>
       <use xlink:href="#DejaVuSans-31" transform="translate(63.623047 0)"/>
       <use xlink:href="#DejaVuSans-2d" transform="translate(127.246094 0)"/>
       <use xlink:href="#DejaVuSans-31" transform="translate(163.330078 0)"/>
       <use xlink:href="#DejaVuSans-34" transform="translate(226.953125 0)"/>
       <use xlink:href="#DejaVuSans-20" transform="translate(290.576172 0)"/>
       <use xlink:href="#DejaVuSans-32" transform="translate(322.363281 0)"/>
       <use xlink:href="#DejaVuSans-31" transform="translate(385.986328 0)"/>
      </g>
     </g>
    </g>
    <g id="text_9">
     <!-- Date and Time -->
     <g transform="translate(332.230469 412.756563) scale(0.1 -0.1)">
      <defs>
       <path id="DejaVuSans-44" d="M 1259 4147 
L 1259 519 
L 2022 519 
Q 2988 519 3436 956 
Q 3884 1394 3884 2338 
Q 3884 3275 3436 3711 
Q 2988 4147 2022 4147 
L 1259 4147 
z
M 628 4666 
L 1925 4666 
Q 3281 4666 3915 4102 
Q 4550 3538 4550 2338 
Q 4550 1131 3912 565 
Q 3275 0 1925 0 
L 628 0 
L 628 4666 
z
" transform="scale(0.015625)"/>
       <path id="DejaVuSans-61" d="M 2194 1759 
Q 1497 1759 1228 1600 
Q 959 1441 959 1056 
Q 959 750 1161 570 
Q 1363 391 1709 391 
Q 2188 391 2477 730 
Q 2766 1069 2766 1631 
L 2766 1759 
L 2194 1759 
z
M 3341 1997 
L 3341 0 
L 2766 0 
L 2766 531 
Q 2569 213 2275 61 
Q 1981 -91 1556 -91 
Q 1019 -91 701 211 
Q 384 513 384 1019 
Q 384 1609 779 1909 
Q 1175 2209 1959 2209 
L 2766 2209 
L 2766 2266 
Q 2766 2663 2505 2880 
Q 2244 3097 1772 3097 
Q 1472 3097 1187 3025 
Q 903 2953 641 2809 
L 641 3341 
Q 956 3463 1253 3523 
Q 1550 3584 1831 3584 
Q 2591 3584 2966 3190 
Q 3341 2797 3341 1997 
z
" transform="scale(0.015625)"/>
       <path id="DejaVuSans-74" d="M 1172 4494 
L 1172 3500 
L 2356 3500 
L 2356 3053 
L 1172 3053 
L 1172 1153 
Q 1172 725 1289 603 
Q 1406 481 1766 481 
L 2356 481 
L 2356 0 
L 1766 0 
Q 1100 0 847 248 
Q 594 497 594 1153 
L 594 3053 
L 172 3053 
L 172 3500 
L 594 3500 
L 594 4494 
L 1172 4494 
z
" transform="scale(0.015625)"/>
       <path id="DejaVuSans-65" d="M 3597 1894 
L 3597 1613 
L 953 1613 
Q 991 1019 1311 708 
Q 1631 397 2203 397 
Q 2534 397 2845 478 
Q 3156 559 3463 722 
L 3463 178 
Q 3153 47 2828 -22 
Q 2503 -91 2169 -91 
Q 1331 -91 842 396 
Q 353 884 353 1716 
Q 353 2575 817 3079 
Q 1281 3584 2069 3584 
Q 2775 3584 3186 3129 
Q 3597 2675 3597 1894 
z
M 3022 2063 
Q 3016 2534 2758 2815 
Q 2500 3097 2075 3097 
Q 1594 3097 1305 2825 
Q 1016 2553 972 2059 
L 3022 2063 
z
" transform="scale(0.015625)"/>
       <path id="DejaVuSans-6e" d="M 3513 2113 
L 3513 0 
L 2938 0 
L 2938 2094 
Q 2938 2591 2744 2837 
Q 2550 3084 2163 3084 
Q 1697 3084 1428 2787 
Q 1159 2491 1159 1978 
L 1159 0 
L 581 0 
L 581 3500 
L 1159 3500 
L 1159 2956 
Q 1366 3272 1645 3428 
Q 1925 3584 2291 3584 
Q 2894 3584 3203 3211 
Q 3513 2838 3513 2113 
z
" transform="scale(0.015625)"/>
       <path id="DejaVuSans-64" d="M 2906 2969 
L 2906 4863 
L 3481 4863 
L 3481 0 
L 2906 0 
L 2906 525 
Q 2725 213 2448 61 
Q 2172 -91 1784 -91 
Q 1150 -91 751 415 
Q 353 922 353 1747 
Q 353 2572 751 3078 
Q 1150 3584 1784 3584 
Q 2172 3584 2448 3432 
Q 2725 3281 2906 2969 
z
M 947 1747 
Q 947 1113 1208 752 
Q 1469 391 1925 391 
Q 2381 391 2643 752 
Q 2906 1113 2906 1747 
Q 2906 2381 2643 2742 
Q 2381 3103 1925 3103 
Q 1469 3103 1208 2742 
Q 947 2381 947 1747 
z
" transform="scale(0.015625)"/>
       <path id="DejaVuSans-54" d="M -19 4666 
L 3928 4666 
L 3928 4134 
L 2272 4134 
L 2272 0 
L 1638 0 
L 1638 4134 
L -19 4134 
L -19 4666 
z
" transform="scale(0.015625)"/>
       <path id="DejaVuSans-69" d="M 603 3500 
L 1178 3500 
L 1178 0 
L 603 0 
L 603 3500 
z
M 603 4863 
L 1178 4863 
L 1178 4134 
L 603 4134 
L 603 4863 
z
" transform="scale(0.015625)"/>
       <path id="DejaVuSans-6d" d="M 3328 2828 
Q 3544 3216 3844 3400 
Q 4144 3584 4550 3584 
Q 5097 3584 5394 3201 
Q 5691 2819 5691 2113 
L 5691 0 
L 5113 0 
L 5113 2094 
Q 5113 2597 4934 2840 
Q 4756 3084 4391 3084 
Q 3944 3084 3684 2787 
Q 3425 2491 3425 1978 
L 3425 0 
L 2847 0 
L 2847 2094 
Q 2847 2600 2669 2842 
Q 2491 3084 2119 3084 
Q 1678 3084 1418 2786 
Q 1159 2488 1159 1978 
L 1159 0 
L 581 0 
L 581 3500 
L 1159 3500 
L 1159 2956 
Q 1356 3278 1631 3431 
Q 1906 3584 2284 3584 
Q 2666 3584 2933 3390 
Q 3200 3197 3328 2828 
z
" transform="scale(0.015625)"/>
      </defs>
      <use xlink:href="#DejaVuSans-44"/>
      <use xlink:href="#DejaVuSans-61" transform="translate(77.001953 0)"/>
      <use xlink:href="#DejaVuSans-74" transform="translate(138.28125 0)"/>
      <use xlink:href="#DejaVuSans-65" transform="translate(177.490234 0)"/>
      <use xlink:href="#DejaVuSans-20" transform="translate(239.013672 0)"/>
      <use xlink:href="#DejaVuSans-61" transform="translate(270.800781 0)"/>
      <use xlink:href="#DejaVuSans-6e" transform="translate(332.080078 0)"/>
      <use xlink:href="#DejaVuSans-64" transform="translate(395.458984 0)"/>
      <use xlink:href="#DejaVuSans-20" transform="translate(458.935547 0)"/>
      <use xlink:href="#DejaVuSans-54" transform="translate(490.722656 0)"/>
      <use xlink:href="#DejaVuSans-69" transform="translate(548.681641 0)"/>
      <use xlink:href="#DejaVuSans-6d" transform="translate(576.464844 0)"/>
      <use xlink:href="#DejaVuSans-65" transform="translate(673.876953 0)"/>
     </g>
    </g>
   </g>
   <g id="matplotlib.axis_2">
    <g id="ytick_1">
     <g id="line2d_17">
      <path d="M 90 370.455652 
L 648 370.455652 
" clip-path="url(#paa67b1fd6b)" style="fill: none; stroke: #b0b0b0; stroke-width: 0.8; stroke-linecap: square"/>
     </g>
     <g id="line2d_18">
      <defs>
       <path id="ma65c198e4c" d="M 0 0 
L -3.5 0 
" style="stroke: #000000; stroke-width: 0.8"/>
      </defs>
      <g>
       <use xlink:href="#ma65c198e4c" x="90" y="370.455652" style="stroke: #000000; stroke-width: 0.8"/>
      </g>
     </g>
     <g id="text_10">
      <!-- 0 -->
      <g transform="translate(76.6375 374.254871) scale(0.1 -0.1)">
       <use xlink:href="#DejaVuSans-30"/>
      </g>
     </g>
    </g>
    <g id="ytick_2">
     <g id="line2d_19">
      <path d="M 90 315.673043 
L 648 315.673043 
" clip-path="url(#paa67b1fd6b)" style="fill: none; stroke: #b0b0b0; stroke-width: 0.8; stroke-linecap: square"/>
     </g>
     <g id="line2d_20">
      <g>
       <use xlink:href="#ma65c198e4c" x="90" y="315.673043" style="stroke: #000000; stroke-width: 0.8"/>
      </g>
     </g>
     <g id="text_11">
      <!-- 50 -->
      <g transform="translate(70.275 319.472262) scale(0.1 -0.1)">
       <use xlink:href="#DejaVuSans-35"/>
       <use xlink:href="#DejaVuSans-30" transform="translate(63.623047 0)"/>
      </g>
     </g>
    </g>
    <g id="ytick_3">
     <g id="line2d_21">
      <path d="M 90 260.890435 
L 648 260.890435 
" clip-path="url(#paa67b1fd6b)" style="fill: none; stroke: #b0b0b0; stroke-width: 0.8; stroke-linecap: square"/>
     </g>
     <g id="line2d_22">
      <g>
       <use xlink:href="#ma65c198e4c" x="90" y="260.890435" style="stroke: #000000; stroke-width: 0.8"/>
      </g>
     </g>
     <g id="text_12">
      <!-- 100 -->
      <g transform="translate(63.9125 264.689654) scale(0.1 -0.1)">
       <use xlink:href="#DejaVuSans-31"/>
       <use xlink:href="#DejaVuSans-30" transform="translate(63.623047 0)"/>
       <use xlink:href="#DejaVuSans-30" transform="translate(127.246094 0)"/>
      </g>
     </g>
    </g>
    <g id="ytick_4">
     <g id="line2d_23">
      <path d="M 90 206.107826 
L 648 206.107826 
" clip-path="url(#paa67b1fd6b)" style="fill: none; stroke: #b0b0b0; stroke-width: 0.8; stroke-linecap: square"/>
     </g>
     <g id="line2d_24">
      <g>
       <use xlink:href="#ma65c198e4c" x="90" y="206.107826" style="stroke: #000000; stroke-width: 0.8"/>
      </g>
     </g>
     <g id="text_13">
      <!-- 150 -->
      <g transform="translate(63.9125 209.907045) scale(0.1 -0.1)">
       <use xlink:href="#DejaVuSans-31"/>
       <use xlink:href="#DejaVuSans-35" transform="translate(63.623047 0)"/>
       <use xlink:href="#DejaVuSans-30" transform="translate(127.246094 0)"/>
      </g>
     </g>
    </g>
    <g id="ytick_5">
     <g id="line2d_25">
      <path d="M 90 151.325217 
L 648 151.325217 
" clip-path="url(#paa67b1fd6b)" style="fill: none; stroke: #b0b0b0; stroke-width: 0.8; stroke-linecap: square"/>
     </g>
     <g id="line2d_26">
      <g>
       <use xlink:href="#ma65c198e4c" x="90" y="151.325217" style="stroke: #000000; stroke-width: 0.8"/>
      </g>
     </g>
     <g id="text_14">
      <!-- 200 -->
      <g transform="translate(63.9125 155.124436) scale(0.1 -0.1)">
       <use xlink:href="#DejaVuSans-32"/>
       <use xlink:href="#DejaVuSans-30" transform="translate(63.623047 0)"/>
       <use xlink:href="#DejaVuSans-30" transform="translate(127.246094 0)"/>
      </g>
     </g>
    </g>
    <g id="ytick_6">
     <g id="line2d_27">
      <path d="M 90 96.542609 
L 648 96.542609 
" clip-path="url(#paa67b1fd6b)" style="fill: none; stroke: #b0b0b0; stroke-width: 0.8; stroke-linecap: square"/>
     </g>
     <g id="line2d_28">
      <g>
       <use xlink:href="#ma65c198e4c" x="90" y="96.542609" style="stroke: #000000; stroke-width: 0.8"/>
      </g>
     </g>
     <g id="text_15">
      <!-- 250 -->
      <g transform="translate(63.9125 100.341827) scale(0.1 -0.1)">
       <use xlink:href="#DejaVuSans-32"/>
       <use xlink:href="#DejaVuSans-35" transform="translate(63.623047 0)"/>
       <use xlink:href="#DejaVuSans-30" transform="translate(127.246094 0)"/>
      </g>
     </g>
    </g>
    <g id="text_16">
     <!-- Votes -->
     <g transform="translate(57.832812 231.893594) rotate(-90) scale(0.1 -0.1)">
      <defs>
       <path id="DejaVuSans-56" d="M 1831 0 
L 50 4666 
L 709 4666 
L 2188 738 
L 3669 4666 
L 4325 4666 
L 2547 0 
L 1831 0 
z
" transform="scale(0.015625)"/>
       <path id="DejaVuSans-6f" d="M 1959 3097 
Q 1497 3097 1228 2736 
Q 959 2375 959 1747 
Q 959 1119 1226 758 
Q 1494 397 1959 397 
Q 2419 397 2687 759 
Q 2956 1122 2956 1747 
Q 2956 2369 2687 2733 
Q 2419 3097 1959 3097 
z
M 1959 3584 
Q 2709 3584 3137 3096 
Q 3566 2609 3566 1747 
Q 3566 888 3137 398 
Q 2709 -91 1959 -91 
Q 1206 -91 779 398 
Q 353 888 353 1747 
Q 353 2609 779 3096 
Q 1206 3584 1959 3584 
z
" transform="scale(0.015625)"/>
       <path id="DejaVuSans-73" d="M 2834 3397 
L 2834 2853 
Q 2591 2978 2328 3040 
Q 2066 3103 1784 3103 
Q 1356 3103 1142 2972 
Q 928 2841 928 2578 
Q 928 2378 1081 2264 
Q 1234 2150 1697 2047 
L 1894 2003 
Q 2506 1872 2764 1633 
Q 3022 1394 3022 966 
Q 3022 478 2636 193 
Q 2250 -91 1575 -91 
Q 1294 -91 989 -36 
Q 684 19 347 128 
L 347 722 
Q 666 556 975 473 
Q 1284 391 1588 391 
Q 1994 391 2212 530 
Q 2431 669 2431 922 
Q 2431 1156 2273 1281 
Q 2116 1406 1581 1522 
L 1381 1569 
Q 847 1681 609 1914 
Q 372 2147 372 2553 
Q 372 3047 722 3315 
Q 1072 3584 1716 3584 
Q 2034 3584 2315 3537 
Q 2597 3491 2834 3397 
z
" transform="scale(0.015625)"/>
      </defs>
      <use xlink:href="#DejaVuSans-56"/>
      <use xlink:href="#DejaVuSans-6f" transform="translate(60.658203 0)"/>
      <use xlink:href="#DejaVuSans-74" transform="translate(121.839844 0)"/>
      <use xlink:href="#DejaVuSans-65" transform="translate(161.048828 0)"/>
      <use xlink:href="#DejaVuSans-73" transform="translate(222.572266 0)"/>
     </g>
    </g>
   </g>
   <g id="line2d_29">
    <path d="M 115.363636 350.733913 
L 125.953881 350.733913 
L 127.012906 349.638261 
L 137.603151 349.638261 
L 138.662175 347.446957 
L 148.193395 347.446957 
L 149.25242 346.351304 
L 154.547542 346.351304 
L 155.606567 345.255652 
L 159.842665 345.255652 
L 160.901689 344.16 
L 164.078763 344.16 
L 165.137787 343.064348 
L 179.96413 343.064348 
L 181.023154 341.968696 
L 192.672424 341.968696 
L 194.790473 339.777391 
L 196.908522 339.777391 
L 197.967546 338.681739 
L 207.498766 338.681739 
L 209.616815 336.490435 
L 222.325109 336.490435 
L 223.384134 335.394783 
L 226.561207 335.394783 
L 227.620232 334.29913 
L 228.679256 334.29913 
L 229.738281 333.203478 
L 258.331942 333.203478 
L 259.390966 332.107826 
L 272.09926 332.107826 
L 273.158284 331.012174 
L 280.571456 331.012174 
L 281.63048 329.916522 
L 282.689505 327.725217 
L 283.748529 327.725217 
L 285.866578 325.533913 
L 302.81097 325.533913 
L 303.869994 324.438261 
L 310.224141 324.438261 
L 311.283166 323.342609 
L 315.519264 323.342609 
L 316.578288 322.246957 
L 327.168533 322.246957 
L 328.227557 321.151304 
L 330.345606 321.151304 
L 331.404631 320.055652 
L 334.581704 320.055652 
L 335.640729 318.96 
L 344.112925 318.96 
L 345.171949 317.864348 
L 346.230974 317.864348 
L 347.289998 316.768696 
L 357.880243 316.768696 
L 358.939267 315.673043 
L 366.352439 315.673043 
L 367.411463 314.577391 
L 368.470488 314.577391 
L 370.588537 312.386087 
L 393.887075 312.386087 
L 394.9461 311.290435 
L 411.890492 311.290435 
L 412.949516 310.194783 
L 414.008541 310.194783 
L 415.067565 309.09913 
L 424.598785 309.09913 
L 425.65781 308.003478 
L 426.716834 308.003478 
L 427.775859 306.907826 
L 433.070981 306.907826 
L 434.130006 305.812174 
L 437.307079 305.812174 
L 439.425128 303.62087 
L 440.484153 303.62087 
L 441.543177 302.525217 
L 443.661226 302.525217 
L 444.720251 301.429565 
L 446.838299 301.429565 
L 447.897324 300.333913 
L 450.015373 300.333913 
L 451.074397 299.238261 
L 476.490985 299.238261 
L 477.550009 298.142609 
L 488.140254 298.142609 
L 489.199279 297.046957 
L 495.553426 297.046957 
L 496.61245 295.951304 
L 497.671475 295.951304 
L 498.730499 294.855652 
L 499.789524 294.855652 
L 504.025622 290.473043 
L 506.143671 290.473043 
L 507.202695 288.281739 
L 515.674891 288.281739 
L 517.79294 286.090435 
L 519.910989 286.090435 
L 520.970013 284.994783 
L 525.206111 284.994783 
L 526.265136 283.89913 
L 533.678307 283.89913 
L 534.737332 282.803478 
L 536.855381 282.803478 
L 537.914405 281.707826 
L 544.268552 281.707826 
L 546.386601 279.516522 
L 553.799772 279.516522 
L 554.858797 278.42087 
L 558.03587 278.42087 
L 559.094895 277.325217 
L 561.212944 277.325217 
L 562.271968 275.133913 
L 566.508066 275.133913 
L 567.567091 272.942609 
L 568.626115 271.846957 
L 572.862213 271.846957 
L 573.921237 269.655652 
L 581.334409 269.655652 
L 582.393433 268.56 
L 586.629531 268.56 
L 587.688556 267.464348 
L 590.865629 267.464348 
L 591.924654 266.368696 
L 592.983678 264.177391 
L 595.101727 264.177391 
L 596.160752 263.081739 
L 613.105143 263.081739 
L 615.223192 260.890435 
L 622.636364 260.890435 
L 622.636364 260.890435 
" clip-path="url(#paa67b1fd6b)" style="fill: none; stroke: #1f77b4; stroke-width: 1.5; stroke-linecap: square"/>
   </g>
   <g id="line2d_30">
    <path d="M 115.363636 280.612174 
L 116.422661 279.516522 
L 119.599734 279.516522 
L 120.658759 278.42087 
L 121.717783 278.42087 
L 122.776808 277.325217 
L 123.835832 277.325217 
L 125.953881 275.133913 
L 127.012906 272.942609 
L 128.07193 272.942609 
L 130.189979 270.751304 
L 131.249004 270.751304 
L 132.308028 266.368696 
L 133.367053 264.177391 
L 134.426077 259.794783 
L 135.485102 256.507826 
L 138.662175 256.507826 
L 139.721199 253.22087 
L 140.780224 251.029565 
L 142.898273 248.838261 
L 143.957297 246.646957 
L 146.075346 244.455652 
L 147.134371 242.264348 
L 150.311444 242.264348 
L 151.370469 236.786087 
L 152.429493 234.594783 
L 153.488518 233.49913 
L 154.547542 231.307826 
L 155.606567 230.212174 
L 156.665591 230.212174 
L 157.724616 226.925217 
L 158.78364 226.925217 
L 159.842665 224.733913 
L 160.901689 223.638261 
L 161.960714 223.638261 
L 163.019738 222.542609 
L 165.137787 222.542609 
L 166.196812 221.446957 
L 168.314861 221.446957 
L 169.373885 219.255652 
L 170.432909 219.255652 
L 171.491934 218.16 
L 175.728032 218.16 
L 176.787056 217.064348 
L 179.96413 217.064348 
L 181.023154 215.968696 
L 182.082179 215.968696 
L 183.141203 213.777391 
L 184.200228 213.777391 
L 185.259252 211.586087 
L 186.318277 210.490435 
L 189.49535 210.490435 
L 190.554375 208.29913 
L 191.613399 207.203478 
L 192.672424 203.916522 
L 194.790473 201.725217 
L 203.262668 201.725217 
L 204.321693 198.438261 
L 205.380717 198.438261 
L 207.498766 196.246957 
L 208.557791 196.246957 
L 211.734864 192.96 
L 213.852913 192.96 
L 214.911938 191.864348 
L 217.029987 191.864348 
L 220.20706 188.577391 
L 222.325109 188.577391 
L 223.384134 187.481739 
L 228.679256 187.481739 
L 229.738281 186.386087 
L 231.856329 186.386087 
L 232.915354 185.290435 
L 245.623648 185.290435 
L 246.682672 183.09913 
L 248.800721 183.09913 
L 250.91877 180.907826 
L 251.977795 180.907826 
L 253.036819 179.812174 
L 259.390966 179.812174 
L 262.568039 176.525217 
L 263.627064 176.525217 
L 264.686088 175.429565 
L 265.745113 173.238261 
L 266.804137 173.238261 
L 267.863162 172.142609 
L 268.922186 172.142609 
L 273.158284 167.76 
L 275.276333 167.76 
L 276.335358 165.568696 
L 279.512431 165.568696 
L 280.571456 164.473043 
L 283.748529 164.473043 
L 284.807554 163.377391 
L 285.866578 163.377391 
L 286.925603 160.090435 
L 290.102676 160.090435 
L 291.161701 158.994783 
L 292.220725 156.803478 
L 294.338774 156.803478 
L 295.397798 155.707826 
L 297.515847 155.707826 
L 298.574872 154.612174 
L 299.633896 154.612174 
L 304.929019 149.133913 
L 307.047068 149.133913 
L 310.224141 145.846957 
L 313.401215 145.846957 
L 314.460239 143.655652 
L 315.519264 143.655652 
L 316.578288 142.56 
L 319.755362 142.56 
L 320.814386 141.464348 
L 330.345606 141.464348 
L 331.404631 140.368696 
L 338.817802 140.368696 
L 339.876827 139.273043 
L 341.994876 139.273043 
L 344.112925 137.081739 
L 349.408047 137.081739 
L 350.467072 135.986087 
L 355.762194 135.986087 
L 358.939267 132.69913 
L 372.706586 132.69913 
L 373.76561 130.507826 
L 374.824635 129.412174 
L 400.241222 129.412174 
L 401.300247 128.316522 
L 407.654394 128.316522 
L 409.772443 126.125217 
L 411.890492 126.125217 
L 412.949516 125.029565 
L 414.008541 125.029565 
L 416.126589 122.838261 
L 417.185614 122.838261 
L 418.244638 121.742609 
L 419.303663 121.742609 
L 421.421712 117.36 
L 422.480736 116.264348 
L 427.775859 116.264348 
L 428.834883 112.977391 
L 429.893908 110.786087 
L 432.011957 110.786087 
L 434.130006 108.594783 
L 439.425128 108.594783 
L 441.543177 106.403478 
L 443.661226 106.403478 
L 444.720251 105.307826 
L 446.838299 105.307826 
L 447.897324 104.212174 
L 448.956348 104.212174 
L 450.015373 103.116522 
L 451.074397 103.116522 
L 452.133422 102.02087 
L 453.192446 102.02087 
L 454.251471 100.925217 
L 456.36952 100.925217 
L 457.428544 98.733913 
L 462.723667 98.733913 
L 464.841716 96.542609 
L 475.431961 96.542609 
L 476.490985 95.446957 
L 477.550009 95.446957 
L 478.609034 94.351304 
L 479.668058 94.351304 
L 482.845132 91.064348 
L 484.963181 91.064348 
L 486.022205 89.968696 
L 507.202695 89.968696 
L 509.320744 87.777391 
L 513.556842 87.777391 
L 514.615866 86.681739 
L 515.674891 86.681739 
L 516.733915 85.586087 
L 517.79294 85.586087 
L 518.851964 84.490435 
L 542.150503 84.490435 
L 543.209527 83.394783 
L 564.390017 83.394783 
L 565.449042 81.203478 
L 572.862213 81.203478 
L 574.980262 79.012174 
L 577.098311 79.012174 
L 578.157335 77.916522 
L 580.275384 77.916522 
L 582.393433 75.725217 
L 584.511482 75.725217 
L 585.570507 73.533913 
L 594.042703 73.533913 
L 595.101727 72.438261 
L 600.396849 72.438261 
L 601.455874 71.342609 
L 607.810021 71.342609 
L 608.869045 70.246957 
L 616.282217 70.246957 
L 618.400266 68.055652 
L 619.45929 68.055652 
L 620.518315 66.96 
L 622.636364 66.96 
L 622.636364 66.96 
" clip-path="url(#paa67b1fd6b)" style="fill: none; stroke: #ff7f0e; stroke-width: 1.5; stroke-linecap: square"/>
   </g>
   <g id="line2d_31">
    <path d="M 115.363636 336.490435 
L 119.599734 336.490435 
L 120.658759 334.29913 
L 122.776808 334.29913 
L 123.835832 333.203478 
L 124.894857 331.012174 
L 125.953881 329.916522 
L 127.012906 326.629565 
L 128.07193 324.438261 
L 129.130955 323.342609 
L 130.189979 323.342609 
L 131.249004 321.151304 
L 132.308028 317.864348 
L 136.544126 317.864348 
L 137.603151 316.768696 
L 138.662175 316.768696 
L 139.721199 314.577391 
L 142.898273 314.577391 
L 145.016322 312.386087 
L 149.25242 312.386087 
L 150.311444 311.290435 
L 154.547542 311.290435 
L 157.724616 308.003478 
L 163.019738 308.003478 
L 164.078763 306.907826 
L 167.255836 306.907826 
L 168.314861 305.812174 
L 170.432909 305.812174 
L 171.491934 303.62087 
L 179.96413 303.62087 
L 181.023154 302.525217 
L 182.082179 300.333913 
L 183.141203 299.238261 
L 184.200228 299.238261 
L 185.259252 298.142609 
L 187.377301 298.142609 
L 188.436326 297.046957 
L 190.554375 297.046957 
L 191.613399 295.951304 
L 197.967546 295.951304 
L 199.026571 294.855652 
L 200.085595 294.855652 
L 201.144619 293.76 
L 202.203644 293.76 
L 203.262668 292.664348 
L 206.439742 292.664348 
L 207.498766 291.568696 
L 208.557791 289.377391 
L 213.852913 289.377391 
L 217.029987 286.090435 
L 220.20706 286.090435 
L 221.266085 284.994783 
L 225.502183 284.994783 
L 226.561207 283.89913 
L 227.620232 283.89913 
L 228.679256 282.803478 
L 230.797305 282.803478 
L 231.856329 281.707826 
L 235.033403 281.707826 
L 237.151452 279.516522 
L 238.210476 279.516522 
L 239.269501 278.42087 
L 247.741697 278.42087 
L 248.800721 276.229565 
L 249.859746 275.133913 
L 258.331942 275.133913 
L 259.390966 274.038261 
L 262.568039 274.038261 
L 263.627064 272.942609 
L 266.804137 272.942609 
L 267.863162 271.846957 
L 278.453407 271.846957 
L 279.512431 270.751304 
L 283.748529 270.751304 
L 284.807554 269.655652 
L 291.161701 269.655652 
L 292.220725 268.56 
L 294.338774 268.56 
L 295.397798 267.464348 
L 299.633896 267.464348 
L 301.751945 265.273043 
L 321.873411 265.273043 
L 322.932435 264.177391 
L 323.991459 264.177391 
L 325.050484 263.081739 
L 328.227557 263.081739 
L 329.286582 261.986087 
L 334.581704 261.986087 
L 335.640729 260.890435 
L 337.758778 260.890435 
L 338.817802 259.794783 
L 345.171949 259.794783 
L 346.230974 260.890435 
L 347.289998 259.794783 
L 354.703169 259.794783 
L 355.762194 258.69913 
L 364.23439 258.69913 
L 365.293414 257.603478 
L 367.411463 257.603478 
L 368.470488 256.507826 
L 369.529512 256.507826 
L 370.588537 255.412174 
L 378.001708 255.412174 
L 379.060733 254.316522 
L 385.414879 254.316522 
L 386.473904 253.22087 
L 402.359271 253.22087 
L 403.418296 252.125217 
L 426.716834 252.125217 
L 427.775859 251.029565 
L 438.366104 251.029565 
L 439.425128 249.933913 
L 456.36952 249.933913 
L 458.487569 247.742609 
L 477.550009 247.742609 
L 478.609034 246.646957 
L 479.668058 244.455652 
L 500.848548 244.455652 
L 501.907573 243.36 
L 504.025622 243.36 
L 505.084646 242.264348 
L 511.438793 242.264348 
L 512.497817 241.168696 
L 515.674891 241.168696 
L 517.79294 238.977391 
L 519.910989 238.977391 
L 520.970013 237.881739 
L 525.206111 237.881739 
L 526.265136 235.690435 
L 529.442209 235.690435 
L 530.501234 234.594783 
L 531.560258 234.594783 
L 533.678307 232.403478 
L 547.445625 232.403478 
L 548.50465 231.307826 
L 561.212944 231.307826 
L 562.271968 229.116522 
L 570.744164 229.116522 
L 572.862213 226.925217 
L 583.452458 226.925217 
L 586.629531 223.638261 
L 589.806605 223.638261 
L 590.865629 222.542609 
L 592.983678 222.542609 
L 594.042703 221.446957 
L 603.573923 221.446957 
L 604.632947 220.351304 
L 614.164168 220.351304 
L 615.223192 219.255652 
L 622.636364 219.255652 
L 622.636364 219.255652 
" clip-path="url(#paa67b1fd6b)" style="fill: none; stroke: #2ca02c; stroke-width: 1.5; stroke-linecap: square"/>
   </g>
   <g id="line2d_32">
    <path d="M 115.363636 369.36 
L 376.942684 369.36 
L 378.001708 368.264348 
L 602.514898 368.264348 
L 603.573923 367.168696 
L 622.636364 367.168696 
L 622.636364 367.168696 
" clip-path="url(#paa67b1fd6b)" style="fill: none; stroke: #d62728; stroke-width: 1.5; stroke-linecap: square"/>
   </g>
   <g id="line2d_33">
    <path d="M 115.363636 345.255652 
L 118.54071 345.255652 
L 119.599734 344.16 
L 125.953881 344.16 
L 127.012906 343.064348 
L 133.367053 343.064348 
L 134.426077 341.968696 
L 157.724616 341.968696 
L 158.78364 340.873043 
L 196.908522 340.873043 
L 199.026571 338.681739 
L 207.498766 338.681739 
L 208.557791 337.586087 
L 212.793889 337.586087 
L 213.852913 336.490435 
L 215.970962 336.490435 
L 217.029987 335.394783 
L 244.564623 335.394783 
L 245.623648 334.29913 
L 289.043652 334.29913 
L 290.102676 333.203478 
L 427.775859 333.203478 
L 428.834883 332.107826 
L 429.893908 332.107826 
L 430.952932 331.012174 
L 497.671475 331.012174 
L 498.730499 329.916522 
L 622.636364 329.916522 
L 622.636364 329.916522 
" clip-path="url(#paa67b1fd6b)" style="fill: none; stroke: #9467bd; stroke-width: 1.5; stroke-linecap: square"/>
   </g>
   <g id="line2d_34">
    <path d="M 115.363636 354.02087 
L 116.422661 354.02087 
L 117.481685 352.925217 
L 132.308028 352.925217 
L 133.367053 351.829565 
L 146.075346 351.829565 
L 147.134371 350.733913 
L 163.019738 350.733913 
L 165.137787 348.542609 
L 176.787056 348.542609 
L 177.846081 347.446957 
L 209.616815 347.446957 
L 210.67584 346.351304 
L 220.20706 346.351304 
L 221.266085 345.255652 
L 239.269501 345.255652 
L 240.328525 344.16 
L 257.272917 344.16 
L 258.331942 343.064348 
L 262.568039 343.064348 
L 263.627064 341.968696 
L 273.158284 341.968696 
L 274.217309 340.873043 
L 299.633896 340.873043 
L 300.692921 339.777391 
L 307.047068 339.777391 
L 308.106092 338.681739 
L 314.460239 338.681739 
L 315.519264 337.586087 
L 319.755362 337.586087 
L 320.814386 336.490435 
L 359.998292 336.490435 
L 361.057316 335.394783 
L 391.769026 335.394783 
L 392.828051 334.29913 
L 454.251471 334.29913 
L 455.310495 333.203478 
L 484.963181 333.203478 
L 486.022205 332.107826 
L 499.789524 332.107826 
L 500.848548 331.012174 
L 622.636364 331.012174 
L 622.636364 331.012174 
" clip-path="url(#paa67b1fd6b)" style="fill: none; stroke: #8c564b; stroke-width: 1.5; stroke-linecap: square"/>
   </g>
   <g id="line2d_35">
    <path d="M 115.363636 272.942609 
L 119.599734 272.942609 
L 120.658759 271.846957 
L 124.894857 271.846957 
L 127.012906 269.655652 
L 128.07193 269.655652 
L 129.130955 268.56 
L 130.189979 268.56 
L 131.249004 267.464348 
L 133.367053 267.464348 
L 134.426077 266.368696 
L 137.603151 266.368696 
L 138.662175 265.273043 
L 140.780224 265.273043 
L 141.839248 264.177391 
L 142.898273 264.177391 
L 143.957297 263.081739 
L 146.075346 263.081739 
L 148.193395 260.890435 
L 152.429493 260.890435 
L 153.488518 259.794783 
L 156.665591 259.794783 
L 158.78364 257.603478 
L 160.901689 257.603478 
L 161.960714 256.507826 
L 164.078763 256.507826 
L 165.137787 255.412174 
L 166.196812 253.22087 
L 167.255836 249.933913 
L 169.373885 249.933913 
L 170.432909 248.838261 
L 175.728032 248.838261 
L 177.846081 246.646957 
L 178.905105 244.455652 
L 179.96413 243.36 
L 181.023154 243.36 
L 182.082179 241.168696 
L 186.318277 241.168696 
L 187.377301 240.073043 
L 188.436326 240.073043 
L 190.554375 237.881739 
L 191.613399 237.881739 
L 192.672424 236.786087 
L 193.731448 236.786087 
L 195.849497 234.594783 
L 197.967546 234.594783 
L 199.026571 232.403478 
L 203.262668 232.403478 
L 205.380717 230.212174 
L 207.498766 230.212174 
L 208.557791 229.116522 
L 209.616815 226.925217 
L 212.793889 226.925217 
L 213.852913 225.829565 
L 214.911938 225.829565 
L 215.970962 223.638261 
L 217.029987 223.638261 
L 218.089011 222.542609 
L 219.148036 222.542609 
L 220.20706 221.446957 
L 224.443158 221.446957 
L 226.561207 219.255652 
L 227.620232 219.255652 
L 228.679256 217.064348 
L 229.738281 217.064348 
L 230.797305 215.968696 
L 231.856329 215.968696 
L 232.915354 214.873043 
L 236.092427 214.873043 
L 237.151452 213.777391 
L 238.210476 213.777391 
L 242.446574 209.394783 
L 243.505599 207.203478 
L 245.623648 207.203478 
L 247.741697 202.82087 
L 249.859746 202.82087 
L 251.977795 200.629565 
L 253.036819 200.629565 
L 254.095844 198.438261 
L 255.154868 198.438261 
L 256.213893 197.342609 
L 257.272917 197.342609 
L 258.331942 196.246957 
L 260.449991 196.246957 
L 261.509015 195.151304 
L 262.568039 195.151304 
L 263.627064 194.055652 
L 267.863162 194.055652 
L 268.922186 188.577391 
L 269.981211 188.577391 
L 271.040235 187.481739 
L 274.217309 187.481739 
L 275.276333 186.386087 
L 284.807554 186.386087 
L 285.866578 184.194783 
L 290.102676 184.194783 
L 291.161701 183.09913 
L 301.751945 183.09913 
L 302.81097 180.907826 
L 303.869994 179.812174 
L 309.165117 179.812174 
L 310.224141 178.716522 
L 317.637313 178.716522 
L 318.696337 177.62087 
L 319.755362 177.62087 
L 320.814386 176.525217 
L 327.168533 176.525217 
L 329.286582 174.333913 
L 336.699753 174.333913 
L 338.817802 172.142609 
L 339.876827 172.142609 
L 340.935851 171.046957 
L 347.289998 171.046957 
L 348.349023 169.951304 
L 351.526096 169.951304 
L 352.585121 168.855652 
L 353.644145 166.664348 
L 356.821218 166.664348 
L 357.880243 165.568696 
L 358.939267 165.568696 
L 361.057316 163.377391 
L 365.293414 163.377391 
L 366.352439 162.281739 
L 370.588537 162.281739 
L 371.647561 161.186087 
L 374.824635 161.186087 
L 375.883659 160.090435 
L 384.355855 160.090435 
L 386.473904 157.89913 
L 391.769026 157.89913 
L 392.828051 156.803478 
L 397.064149 156.803478 
L 402.359271 151.325217 
L 404.47732 151.325217 
L 405.536345 150.229565 
L 406.595369 150.229565 
L 407.654394 148.038261 
L 409.772443 145.846957 
L 411.890492 141.464348 
L 414.008541 141.464348 
L 416.126589 137.081739 
L 418.244638 137.081739 
L 419.303663 134.890435 
L 421.421712 132.69913 
L 424.598785 132.69913 
L 425.65781 131.603478 
L 426.716834 131.603478 
L 428.834883 129.412174 
L 433.070981 129.412174 
L 434.130006 128.316522 
L 436.248055 128.316522 
L 437.307079 127.22087 
L 442.602202 127.22087 
L 443.661226 125.029565 
L 444.720251 123.933913 
L 445.779275 123.933913 
L 446.838299 122.838261 
L 448.956348 122.838261 
L 450.015373 121.742609 
L 452.133422 121.742609 
L 453.192446 119.551304 
L 455.310495 119.551304 
L 456.36952 118.455652 
L 457.428544 118.455652 
L 458.487569 117.36 
L 463.782691 117.36 
L 464.841716 116.264348 
L 470.136838 116.264348 
L 471.195863 115.168696 
L 472.254887 115.168696 
L 473.313912 112.977391 
L 475.431961 110.786087 
L 476.490985 107.49913 
L 477.550009 106.403478 
L 478.609034 106.403478 
L 479.668058 105.307826 
L 480.727083 105.307826 
L 481.786107 104.212174 
L 486.022205 104.212174 
L 487.08123 103.116522 
L 489.199279 103.116522 
L 490.258303 102.02087 
L 492.376352 102.02087 
L 494.494401 99.829565 
L 497.671475 99.829565 
L 498.730499 98.733913 
L 504.025622 98.733913 
L 505.084646 96.542609 
L 510.379768 96.542609 
L 511.438793 95.446957 
L 514.615866 95.446957 
L 515.674891 93.255652 
L 519.910989 93.255652 
L 520.970013 92.16 
L 530.501234 92.16 
L 531.560258 91.064348 
L 533.678307 91.064348 
L 534.737332 89.968696 
L 542.150503 89.968696 
L 543.209527 88.873043 
L 544.268552 88.873043 
L 545.327576 87.777391 
L 546.386601 87.777391 
L 547.445625 86.681739 
L 553.799772 86.681739 
L 555.917821 84.490435 
L 570.744164 84.490435 
L 571.803188 83.394783 
L 572.862213 83.394783 
L 574.980262 81.203478 
L 576.039286 81.203478 
L 577.098311 80.107826 
L 589.806605 80.107826 
L 590.865629 79.012174 
L 591.924654 76.82087 
L 594.042703 76.82087 
L 595.101727 75.725217 
L 600.396849 75.725217 
L 601.455874 74.629565 
L 602.514898 74.629565 
L 604.632947 72.438261 
L 609.92807 72.438261 
L 610.987094 71.342609 
L 614.164168 71.342609 
L 615.223192 70.246957 
L 617.341241 70.246957 
L 618.400266 69.151304 
L 620.518315 69.151304 
L 621.577339 68.055652 
L 622.636364 68.055652 
L 622.636364 68.055652 
" clip-path="url(#paa67b1fd6b)" style="fill: none; stroke: #e377c2; stroke-width: 1.5; stroke-linecap: square"/>
   </g>
   <g id="line2d_36">
    <path d="M 115.363636 340.873043 
L 116.422661 340.873043 
L 118.54071 338.681739 
L 123.835832 338.681739 
L 124.894857 337.586087 
L 125.953881 337.586087 
L 128.07193 335.394783 
L 130.189979 335.394783 
L 131.249004 334.29913 
L 134.426077 334.29913 
L 135.485102 333.203478 
L 136.544126 333.203478 
L 137.603151 332.107826 
L 138.662175 332.107826 
L 140.780224 329.916522 
L 143.957297 329.916522 
L 145.016322 328.82087 
L 147.134371 328.82087 
L 149.25242 326.629565 
L 151.370469 326.629565 
L 153.488518 324.438261 
L 154.547542 324.438261 
L 155.606567 323.342609 
L 156.665591 320.055652 
L 160.901689 320.055652 
L 165.137787 315.673043 
L 166.196812 315.673043 
L 168.314861 313.481739 
L 169.373885 313.481739 
L 170.432909 312.386087 
L 171.491934 312.386087 
L 172.550958 311.290435 
L 182.082179 311.290435 
L 183.141203 310.194783 
L 193.731448 310.194783 
L 195.849497 308.003478 
L 199.026571 308.003478 
L 200.085595 306.907826 
L 202.203644 306.907826 
L 204.321693 304.716522 
L 206.439742 304.716522 
L 207.498766 302.525217 
L 210.67584 302.525217 
L 211.734864 300.333913 
L 212.793889 299.238261 
L 218.089011 299.238261 
L 219.148036 298.142609 
L 220.20706 298.142609 
L 222.325109 295.951304 
L 227.620232 295.951304 
L 228.679256 294.855652 
L 229.738281 294.855652 
L 230.797305 293.76 
L 237.151452 293.76 
L 238.210476 292.664348 
L 241.38755 292.664348 
L 242.446574 291.568696 
L 243.505599 291.568696 
L 244.564623 288.281739 
L 245.623648 288.281739 
L 246.682672 286.090435 
L 247.741697 284.994783 
L 248.800721 284.994783 
L 250.91877 282.803478 
L 253.036819 282.803478 
L 254.095844 281.707826 
L 256.213893 281.707826 
L 257.272917 280.612174 
L 258.331942 280.612174 
L 259.390966 278.42087 
L 260.449991 278.42087 
L 261.509015 277.325217 
L 263.627064 277.325217 
L 265.745113 275.133913 
L 266.804137 275.133913 
L 267.863162 272.942609 
L 268.922186 271.846957 
L 276.335358 271.846957 
L 277.394382 269.655652 
L 280.571456 269.655652 
L 281.63048 268.56 
L 282.689505 268.56 
L 283.748529 267.464348 
L 286.925603 267.464348 
L 287.984627 266.368696 
L 293.279749 266.368696 
L 294.338774 265.273043 
L 296.456823 265.273043 
L 297.515847 264.177391 
L 302.81097 264.177391 
L 303.869994 263.081739 
L 313.401215 263.081739 
L 315.519264 260.890435 
L 316.578288 260.890435 
L 317.637313 259.794783 
L 318.696337 259.794783 
L 319.755362 258.69913 
L 320.814386 258.69913 
L 321.873411 257.603478 
L 323.991459 257.603478 
L 325.050484 256.507826 
L 326.109508 256.507826 
L 328.227557 254.316522 
L 331.404631 254.316522 
L 332.463655 253.22087 
L 335.640729 253.22087 
L 336.699753 252.125217 
L 344.112925 252.125217 
L 345.171949 251.029565 
L 346.230974 251.029565 
L 347.289998 249.933913 
L 351.526096 249.933913 
L 352.585121 247.742609 
L 358.939267 247.742609 
L 359.998292 246.646957 
L 361.057316 246.646957 
L 362.116341 244.455652 
L 367.411463 244.455652 
L 368.470488 243.36 
L 374.824635 243.36 
L 375.883659 242.264348 
L 389.650977 242.264348 
L 390.710002 241.168696 
L 406.595369 241.168696 
L 407.654394 240.073043 
L 412.949516 240.073043 
L 414.008541 238.977391 
L 415.067565 238.977391 
L 416.126589 237.881739 
L 417.185614 237.881739 
L 418.244638 235.690435 
L 419.303663 235.690435 
L 421.421712 233.49913 
L 428.834883 233.49913 
L 429.893908 232.403478 
L 430.952932 232.403478 
L 432.011957 231.307826 
L 433.070981 231.307826 
L 434.130006 230.212174 
L 439.425128 230.212174 
L 440.484153 229.116522 
L 450.015373 229.116522 
L 451.074397 228.02087 
L 456.36952 228.02087 
L 457.428544 226.925217 
L 462.723667 226.925217 
L 463.782691 225.829565 
L 465.90074 225.829565 
L 469.077814 222.542609 
L 471.195863 222.542609 
L 472.254887 220.351304 
L 477.550009 220.351304 
L 479.668058 218.16 
L 481.786107 218.16 
L 482.845132 217.064348 
L 483.904156 217.064348 
L 486.022205 214.873043 
L 493.435377 214.873043 
L 494.494401 213.777391 
L 496.61245 213.777391 
L 497.671475 212.681739 
L 506.143671 212.681739 
L 508.261719 210.490435 
L 511.438793 210.490435 
L 512.497817 209.394783 
L 513.556842 209.394783 
L 514.615866 206.107826 
L 515.674891 205.012174 
L 519.910989 205.012174 
L 520.970013 202.82087 
L 524.147087 202.82087 
L 525.206111 201.725217 
L 535.796356 201.725217 
L 536.855381 200.629565 
L 547.445625 200.629565 
L 549.563674 198.438261 
L 556.976846 198.438261 
L 558.03587 197.342609 
L 576.039286 197.342609 
L 580.275384 192.96 
L 584.511482 192.96 
L 585.570507 191.864348 
L 594.042703 191.864348 
L 595.101727 190.768696 
L 598.278801 190.768696 
L 599.337825 189.673043 
L 600.396849 189.673043 
L 601.455874 188.577391 
L 607.810021 188.577391 
L 609.92807 186.386087 
L 612.046119 186.386087 
L 613.105143 185.290435 
L 618.400266 185.290435 
L 619.45929 184.194783 
L 620.518315 184.194783 
L 621.577339 182.003478 
L 622.636364 182.003478 
L 622.636364 182.003478 
" clip-path="url(#paa67b1fd6b)" style="fill: none; stroke: #7f7f7f; stroke-width: 1.5; stroke-linecap: square"/>
   </g>
   <g id="line2d_37">
    <path d="M 115.363636 347.446957 
L 119.599734 347.446957 
L 120.658759 346.351304 
L 131.249004 346.351304 
L 132.308028 345.255652 
L 137.603151 345.255652 
L 138.662175 344.16 
L 149.25242 344.16 
L 150.311444 343.064348 
L 160.901689 343.064348 
L 161.960714 341.968696 
L 219.148036 341.968696 
L 220.20706 340.873043 
L 225.502183 340.873043 
L 226.561207 339.777391 
L 233.974378 339.777391 
L 235.033403 338.681739 
L 236.092427 338.681739 
L 237.151452 335.394783 
L 238.210476 334.29913 
L 240.328525 334.29913 
L 241.38755 333.203478 
L 251.977795 333.203478 
L 253.036819 332.107826 
L 262.568039 332.107826 
L 263.627064 331.012174 
L 275.276333 331.012174 
L 276.335358 329.916522 
L 289.043652 329.916522 
L 290.102676 328.82087 
L 295.397798 328.82087 
L 296.456823 327.725217 
L 330.345606 327.725217 
L 331.404631 326.629565 
L 333.52268 326.629565 
L 334.581704 325.533913 
L 343.0539 325.533913 
L 344.112925 324.438261 
L 373.76561 324.438261 
L 376.942684 321.151304 
L 407.654394 321.151304 
L 408.713418 320.055652 
L 409.772443 320.055652 
L 411.890492 317.864348 
L 414.008541 317.864348 
L 415.067565 316.768696 
L 469.077814 316.768696 
L 470.136838 315.673043 
L 531.560258 315.673043 
L 532.619283 314.577391 
L 577.098311 314.577391 
L 578.157335 313.481739 
L 583.452458 313.481739 
L 584.511482 312.386087 
L 599.337825 312.386087 
L 600.396849 311.290435 
L 621.577339 311.290435 
L 622.636364 310.194783 
L 622.636364 310.194783 
" clip-path="url(#paa67b1fd6b)" style="fill: none; stroke: #bcbd22; stroke-width: 1.5; stroke-linecap: square"/>
   </g>
   <g id="line2d_38">
    <path d="M 115.363636 367.168696 
L 168.314861 367.168696 
L 169.373885 366.073043 
L 236.092427 366.073043 
L 237.151452 364.977391 
L 345.171949 364.977391 
L 346.230974 363.881739 
L 347.289998 364.977391 
L 475.431961 364.977391 
L 476.490985 363.881739 
L 483.904156 363.881739 
L 484.963181 362.786087 
L 511.438793 362.786087 
L 512.497817 361.690435 
L 622.636364 361.690435 
L 622.636364 361.690435 
" clip-path="url(#paa67b1fd6b)" style="fill: none; stroke: #17becf; stroke-width: 1.5; stroke-linecap: square"/>
   </g>
   <g id="line2d_39">
    <path d="M 115.363636 369.36 
L 116.422661 368.264348 
L 118.54071 368.264348 
L 119.599734 367.168696 
L 127.012906 367.168696 
L 128.07193 366.073043 
L 131.249004 366.073043 
L 132.308028 364.977391 
L 133.367053 364.977391 
L 135.485102 362.786087 
L 140.780224 362.786087 
L 142.898273 360.594783 
L 143.957297 360.594783 
L 145.016322 359.49913 
L 152.429493 359.49913 
L 153.488518 358.403478 
L 154.547542 356.212174 
L 156.665591 356.212174 
L 157.724616 355.116522 
L 158.78364 355.116522 
L 159.842665 354.02087 
L 160.901689 354.02087 
L 161.960714 352.925217 
L 163.019738 352.925217 
L 165.137787 350.733913 
L 171.491934 350.733913 
L 173.609983 348.542609 
L 176.787056 348.542609 
L 177.846081 347.446957 
L 178.905105 347.446957 
L 179.96413 345.255652 
L 183.141203 345.255652 
L 185.259252 340.873043 
L 191.613399 340.873043 
L 192.672424 338.681739 
L 193.731448 337.586087 
L 196.908522 337.586087 
L 197.967546 336.490435 
L 199.026571 334.29913 
L 201.144619 334.29913 
L 202.203644 333.203478 
L 217.029987 333.203478 
L 218.089011 331.012174 
L 225.502183 323.342609 
L 236.092427 323.342609 
L 239.269501 320.055652 
L 241.38755 320.055652 
L 242.446574 317.864348 
L 244.564623 317.864348 
L 245.623648 316.768696 
L 248.800721 316.768696 
L 249.859746 315.673043 
L 250.91877 315.673043 
L 251.977795 314.577391 
L 253.036819 314.577391 
L 255.154868 312.386087 
L 268.922186 312.386087 
L 271.040235 310.194783 
L 279.512431 310.194783 
L 280.571456 309.09913 
L 283.748529 309.09913 
L 285.866578 306.907826 
L 289.043652 306.907826 
L 290.102676 305.812174 
L 292.220725 305.812174 
L 293.279749 304.716522 
L 298.574872 304.716522 
L 299.633896 303.62087 
L 300.692921 303.62087 
L 301.751945 301.429565 
L 302.81097 301.429565 
L 303.869994 300.333913 
L 309.165117 300.333913 
L 310.224141 299.238261 
L 312.34219 299.238261 
L 313.401215 298.142609 
L 314.460239 298.142609 
L 316.578288 295.951304 
L 323.991459 295.951304 
L 325.050484 294.855652 
L 326.109508 294.855652 
L 327.168533 293.76 
L 332.463655 293.76 
L 333.52268 291.568696 
L 334.581704 290.473043 
L 339.876827 290.473043 
L 340.935851 289.377391 
L 345.171949 289.377391 
L 346.230974 287.186087 
L 350.467072 287.186087 
L 352.585121 284.994783 
L 355.762194 284.994783 
L 356.821218 283.89913 
L 369.529512 283.89913 
L 370.588537 281.707826 
L 371.647561 280.612174 
L 380.119757 280.612174 
L 381.178782 279.516522 
L 400.241222 279.516522 
L 401.300247 278.42087 
L 403.418296 278.42087 
L 404.47732 277.325217 
L 407.654394 277.325217 
L 408.713418 276.229565 
L 422.480736 276.229565 
L 423.539761 274.038261 
L 425.65781 274.038261 
L 426.716834 272.942609 
L 427.775859 272.942609 
L 428.834883 271.846957 
L 433.070981 271.846957 
L 434.130006 270.751304 
L 441.543177 270.751304 
L 442.602202 268.56 
L 443.661226 268.56 
L 444.720251 267.464348 
L 450.015373 267.464348 
L 451.074397 266.368696 
L 456.36952 266.368696 
L 458.487569 264.177391 
L 460.605618 264.177391 
L 461.664642 263.081739 
L 463.782691 263.081739 
L 464.841716 261.986087 
L 465.90074 261.986087 
L 466.959765 260.890435 
L 474.372936 260.890435 
L 475.431961 259.794783 
L 499.789524 259.794783 
L 500.848548 258.69913 
L 506.143671 258.69913 
L 507.202695 257.603478 
L 518.851964 257.603478 
L 519.910989 256.507826 
L 566.508066 256.507826 
L 567.567091 255.412174 
L 573.921237 255.412174 
L 574.980262 254.316522 
L 576.039286 254.316522 
L 577.098311 253.22087 
L 590.865629 253.22087 
L 591.924654 252.125217 
L 612.046119 252.125217 
L 613.105143 251.029565 
L 617.341241 251.029565 
L 618.400266 249.933913 
L 622.636364 249.933913 
L 622.636364 249.933913 
" clip-path="url(#paa67b1fd6b)" style="fill: none; stroke: #1f77b4; stroke-width: 1.5; stroke-linecap: square"/>
   </g>
   <g id="line2d_40">
    <path d="M 115.363636 328.82087 
L 122.776808 328.82087 
L 123.835832 327.725217 
L 127.012906 327.725217 
L 128.07193 326.629565 
L 132.308028 326.629565 
L 133.367053 325.533913 
L 136.544126 325.533913 
L 137.603151 324.438261 
L 138.662175 324.438261 
L 139.721199 323.342609 
L 142.898273 323.342609 
L 143.957297 322.246957 
L 146.075346 322.246957 
L 147.134371 321.151304 
L 148.193395 321.151304 
L 150.311444 318.96 
L 156.665591 318.96 
L 157.724616 317.864348 
L 158.78364 317.864348 
L 159.842665 316.768696 
L 160.901689 316.768696 
L 161.960714 314.577391 
L 163.019738 311.290435 
L 164.078763 310.194783 
L 168.314861 310.194783 
L 171.491934 306.907826 
L 174.669007 306.907826 
L 176.787056 304.716522 
L 188.436326 304.716522 
L 189.49535 301.429565 
L 190.554375 301.429565 
L 192.672424 297.046957 
L 194.790473 294.855652 
L 195.849497 294.855652 
L 196.908522 292.664348 
L 205.380717 292.664348 
L 206.439742 290.473043 
L 209.616815 290.473043 
L 210.67584 289.377391 
L 218.089011 289.377391 
L 219.148036 288.281739 
L 231.856329 288.281739 
L 232.915354 287.186087 
L 233.974378 287.186087 
L 235.033403 286.090435 
L 238.210476 286.090435 
L 239.269501 284.994783 
L 251.977795 284.994783 
L 253.036819 283.89913 
L 255.154868 283.89913 
L 257.272917 279.516522 
L 259.390966 279.516522 
L 261.509015 277.325217 
L 263.627064 277.325217 
L 264.686088 276.229565 
L 267.863162 276.229565 
L 268.922186 275.133913 
L 281.63048 275.133913 
L 282.689505 274.038261 
L 298.574872 274.038261 
L 299.633896 272.942609 
L 309.165117 272.942609 
L 310.224141 271.846957 
L 312.34219 271.846957 
L 313.401215 270.751304 
L 316.578288 270.751304 
L 318.696337 268.56 
L 319.755362 268.56 
L 320.814386 267.464348 
L 325.050484 267.464348 
L 327.168533 265.273043 
L 332.463655 265.273043 
L 333.52268 264.177391 
L 336.699753 264.177391 
L 337.758778 263.081739 
L 343.0539 263.081739 
L 344.112925 261.986087 
L 349.408047 261.986087 
L 350.467072 260.890435 
L 369.529512 260.890435 
L 370.588537 259.794783 
L 371.647561 259.794783 
L 372.706586 258.69913 
L 383.296831 258.69913 
L 384.355855 256.507826 
L 385.414879 256.507826 
L 386.473904 255.412174 
L 397.064149 255.412174 
L 398.123173 254.316522 
L 402.359271 254.316522 
L 403.418296 253.22087 
L 404.47732 253.22087 
L 405.536345 252.125217 
L 415.067565 252.125217 
L 416.126589 251.029565 
L 437.307079 251.029565 
L 438.366104 247.742609 
L 445.779275 247.742609 
L 446.838299 246.646957 
L 448.956348 246.646957 
L 450.015373 245.551304 
L 462.723667 245.551304 
L 463.782691 244.455652 
L 478.609034 244.455652 
L 479.668058 243.36 
L 482.845132 243.36 
L 483.904156 242.264348 
L 492.376352 242.264348 
L 493.435377 240.073043 
L 510.379768 240.073043 
L 511.438793 238.977391 
L 516.733915 238.977391 
L 517.79294 237.881739 
L 533.678307 237.881739 
L 534.737332 236.786087 
L 536.855381 236.786087 
L 537.914405 235.690435 
L 548.50465 235.690435 
L 549.563674 234.594783 
L 561.212944 234.594783 
L 562.271968 233.49913 
L 576.039286 233.49913 
L 577.098311 232.403478 
L 589.806605 232.403478 
L 590.865629 231.307826 
L 598.278801 231.307826 
L 599.337825 230.212174 
L 609.92807 230.212174 
L 613.105143 226.925217 
L 615.223192 226.925217 
L 616.282217 225.829565 
L 617.341241 225.829565 
L 619.45929 223.638261 
L 622.636364 223.638261 
L 622.636364 223.638261 
" clip-path="url(#paa67b1fd6b)" style="fill: none; stroke: #ff7f0e; stroke-width: 1.5; stroke-linecap: square"/>
   </g>
   <g id="patch_3">
    <path d="M 90 384.48 
L 90 51.84 
" style="fill: none; stroke: #000000; stroke-width: 0.8; stroke-linejoin: miter; stroke-linecap: square"/>
   </g>
   <g id="patch_4">
    <path d="M 648 384.48 
L 648 51.84 
" style="fill: none; stroke: #000000; stroke-width: 0.8; stroke-linejoin: miter; stroke-linecap: square"/>
   </g>
   <g id="patch_5">
    <path d="M 90 384.48 
L 648 384.48 
" style="fill: none; stroke: #000000; stroke-width: 0.8; stroke-linejoin: miter; stroke-linecap: square"/>
   </g>
   <g id="patch_6">
    <path d="M 90 51.84 
L 648 51.84 
" style="fill: none; stroke: #000000; stroke-width: 0.8; stroke-linejoin: miter; stroke-linecap: square"/>
   </g>
   <g id="text_17">
    <!-- Time Series of Votes for Each Keyword -->
    <g transform="translate(253.716563 45.84) scale(0.12 -0.12)">
     <defs>
      <path id="DejaVuSans-53" d="M 3425 4513 
L 3425 3897 
Q 3066 4069 2747 4153 
Q 2428 4238 2131 4238 
Q 1616 4238 1336 4038 
Q 1056 3838 1056 3469 
Q 1056 3159 1242 3001 
Q 1428 2844 1947 2747 
L 2328 2669 
Q 3034 2534 3370 2195 
Q 3706 1856 3706 1288 
Q 3706 609 3251 259 
Q 2797 -91 1919 -91 
Q 1588 -91 1214 -16 
Q 841 59 441 206 
L 441 856 
Q 825 641 1194 531 
Q 1563 422 1919 422 
Q 2459 422 2753 634 
Q 3047 847 3047 1241 
Q 3047 1584 2836 1778 
Q 2625 1972 2144 2069 
L 1759 2144 
Q 1053 2284 737 2584 
Q 422 2884 422 3419 
Q 422 4038 858 4394 
Q 1294 4750 2059 4750 
Q 2388 4750 2728 4690 
Q 3069 4631 3425 4513 
z
" transform="scale(0.015625)"/>
      <path id="DejaVuSans-72" d="M 2631 2963 
Q 2534 3019 2420 3045 
Q 2306 3072 2169 3072 
Q 1681 3072 1420 2755 
Q 1159 2438 1159 1844 
L 1159 0 
L 581 0 
L 581 3500 
L 1159 3500 
L 1159 2956 
Q 1341 3275 1631 3429 
Q 1922 3584 2338 3584 
Q 2397 3584 2469 3576 
Q 2541 3569 2628 3553 
L 2631 2963 
z
" transform="scale(0.015625)"/>
      <path id="DejaVuSans-66" d="M 2375 4863 
L 2375 4384 
L 1825 4384 
Q 1516 4384 1395 4259 
Q 1275 4134 1275 3809 
L 1275 3500 
L 2222 3500 
L 2222 3053 
L 1275 3053 
L 1275 0 
L 697 0 
L 697 3053 
L 147 3053 
L 147 3500 
L 697 3500 
L 697 3744 
Q 697 4328 969 4595 
Q 1241 4863 1831 4863 
L 2375 4863 
z
" transform="scale(0.015625)"/>
      <path id="DejaVuSans-45" d="M 628 4666 
L 3578 4666 
L 3578 4134 
L 1259 4134 
L 1259 2753 
L 3481 2753 
L 3481 2222 
L 1259 2222 
L 1259 531 
L 3634 531 
L 3634 0 
L 628 0 
L 628 4666 
z
" transform="scale(0.015625)"/>
      <path id="DejaVuSans-63" d="M 3122 3366 
L 3122 2828 
Q 2878 2963 2633 3030 
Q 2388 3097 2138 3097 
Q 1578 3097 1268 2742 
Q 959 2388 959 1747 
Q 959 1106 1268 751 
Q 1578 397 2138 397 
Q 2388 397 2633 464 
Q 2878 531 3122 666 
L 3122 134 
Q 2881 22 2623 -34 
Q 2366 -91 2075 -91 
Q 1284 -91 818 406 
Q 353 903 353 1747 
Q 353 2603 823 3093 
Q 1294 3584 2113 3584 
Q 2378 3584 2631 3529 
Q 2884 3475 3122 3366 
z
" transform="scale(0.015625)"/>
      <path id="DejaVuSans-68" d="M 3513 2113 
L 3513 0 
L 2938 0 
L 2938 2094 
Q 2938 2591 2744 2837 
Q 2550 3084 2163 3084 
Q 1697 3084 1428 2787 
Q 1159 2491 1159 1978 
L 1159 0 
L 581 0 
L 581 4863 
L 1159 4863 
L 1159 2956 
Q 1366 3272 1645 3428 
Q 1925 3584 2291 3584 
Q 2894 3584 3203 3211 
Q 3513 2838 3513 2113 
z
" transform="scale(0.015625)"/>
      <path id="DejaVuSans-4b" d="M 628 4666 
L 1259 4666 
L 1259 2694 
L 3353 4666 
L 4166 4666 
L 1850 2491 
L 4331 0 
L 3500 0 
L 1259 2247 
L 1259 0 
L 628 0 
L 628 4666 
z
" transform="scale(0.015625)"/>
      <path id="DejaVuSans-79" d="M 2059 -325 
Q 1816 -950 1584 -1140 
Q 1353 -1331 966 -1331 
L 506 -1331 
L 506 -850 
L 844 -850 
Q 1081 -850 1212 -737 
Q 1344 -625 1503 -206 
L 1606 56 
L 191 3500 
L 800 3500 
L 1894 763 
L 2988 3500 
L 3597 3500 
L 2059 -325 
z
" transform="scale(0.015625)"/>
      <path id="DejaVuSans-77" d="M 269 3500 
L 844 3500 
L 1563 769 
L 2278 3500 
L 2956 3500 
L 3675 769 
L 4391 3500 
L 4966 3500 
L 4050 0 
L 3372 0 
L 2619 2869 
L 1863 0 
L 1184 0 
L 269 3500 
z
" transform="scale(0.015625)"/>
     </defs>
     <use xlink:href="#DejaVuSans-54"/>
     <use xlink:href="#DejaVuSans-69" transform="translate(57.958984 0)"/>
     <use xlink:href="#DejaVuSans-6d" transform="translate(85.742188 0)"/>
     <use xlink:href="#DejaVuSans-65" transform="translate(183.154297 0)"/>
     <use xlink:href="#DejaVuSans-20" transform="translate(244.677734 0)"/>
     <use xlink:href="#DejaVuSans-53" transform="translate(276.464844 0)"/>
     <use xlink:href="#DejaVuSans-65" transform="translate(339.941406 0)"/>
     <use xlink:href="#DejaVuSans-72" transform="translate(401.464844 0)"/>
     <use xlink:href="#DejaVuSans-69" transform="translate(442.578125 0)"/>
     <use xlink:href="#DejaVuSans-65" transform="translate(470.361328 0)"/>
     <use xlink:href="#DejaVuSans-73" transform="translate(531.884766 0)"/>
     <use xlink:href="#DejaVuSans-20" transform="translate(583.984375 0)"/>
     <use xlink:href="#DejaVuSans-6f" transform="translate(615.771484 0)"/>
     <use xlink:href="#DejaVuSans-66" transform="translate(676.953125 0)"/>
     <use xlink:href="#DejaVuSans-20" transform="translate(712.158203 0)"/>
     <use xlink:href="#DejaVuSans-56" transform="translate(743.945312 0)"/>
     <use xlink:href="#DejaVuSans-6f" transform="translate(804.603516 0)"/>
     <use xlink:href="#DejaVuSans-74" transform="translate(865.785156 0)"/>
     <use xlink:href="#DejaVuSans-65" transform="translate(904.994141 0)"/>
     <use xlink:href="#DejaVuSans-73" transform="translate(966.517578 0)"/>
     <use xlink:href="#DejaVuSans-20" transform="translate(1018.617188 0)"/>
     <use xlink:href="#DejaVuSans-66" transform="translate(1050.404297 0)"/>
     <use xlink:href="#DejaVuSans-6f" transform="translate(1085.609375 0)"/>
     <use xlink:href="#DejaVuSans-72" transform="translate(1146.791016 0)"/>
     <use xlink:href="#DejaVuSans-20" transform="translate(1187.904297 0)"/>
     <use xlink:href="#DejaVuSans-45" transform="translate(1219.691406 0)"/>
     <use xlink:href="#DejaVuSans-61" transform="translate(1282.875 0)"/>
     <use xlink:href="#DejaVuSans-63" transform="translate(1344.154297 0)"/>
     <use xlink:href="#DejaVuSans-68" transform="translate(1399.134766 0)"/>
     <use xlink:href="#DejaVuSans-20" transform="translate(1462.513672 0)"/>
     <use xlink:href="#DejaVuSans-4b" transform="translate(1494.300781 0)"/>
     <use xlink:href="#DejaVuSans-65" transform="translate(1554.876953 0)"/>
     <use xlink:href="#DejaVuSans-79" transform="translate(1616.400391 0)"/>
     <use xlink:href="#DejaVuSans-77" transform="translate(1675.580078 0)"/>
     <use xlink:href="#DejaVuSans-6f" transform="translate(1757.367188 0)"/>
     <use xlink:href="#DejaVuSans-72" transform="translate(1818.548828 0)"/>
     <use xlink:href="#DejaVuSans-64" transform="translate(1857.912109 0)"/>
    </g>
   </g>
   <g id="legend_1">
    <g id="patch_7">
     <path d="M 97 235.9775 
L 149.245313 235.9775 
Q 151.245313 235.9775 151.245313 233.9775 
L 151.245313 58.84 
Q 151.245313 56.84 149.245313 56.84 
L 97 56.84 
Q 95 56.84 95 58.84 
L 95 233.9775 
Q 95 235.9775 97 235.9775 
z
" style="fill: #ffffff; opacity: 0.8; stroke: #cccccc; stroke-linejoin: miter"/>
    </g>
    <g id="line2d_41">
     <path d="M 99 64.938437 
L 109 64.938437 
L 119 64.938437 
" style="fill: none; stroke: #1f77b4; stroke-width: 1.5; stroke-linecap: square"/>
    </g>
    <g id="text_18">
     <!-- H01 -->
     <g transform="translate(127 68.438437) scale(0.1 -0.1)">
      <defs>
       <path id="DejaVuSans-48" d="M 628 4666 
L 1259 4666 
L 1259 2753 
L 3553 2753 
L 3553 4666 
L 4184 4666 
L 4184 0 
L 3553 0 
L 3553 2222 
L 1259 2222 
L 1259 0 
L 628 0 
L 628 4666 
z
" transform="scale(0.015625)"/>
      </defs>
      <use xlink:href="#DejaVuSans-48"/>
      <use xlink:href="#DejaVuSans-30" transform="translate(75.195312 0)"/>
      <use xlink:href="#DejaVuSans-31" transform="translate(138.818359 0)"/>
     </g>
    </g>
    <g id="line2d_42">
     <path d="M 99 79.616562 
L 109 79.616562 
L 119 79.616562 
" style="fill: none; stroke: #ff7f0e; stroke-width: 1.5; stroke-linecap: square"/>
    </g>
    <g id="text_19">
     <!-- H02 -->
     <g transform="translate(127 83.116562) scale(0.1 -0.1)">
      <use xlink:href="#DejaVuSans-48"/>
      <use xlink:href="#DejaVuSans-30" transform="translate(75.195312 0)"/>
      <use xlink:href="#DejaVuSans-32" transform="translate(138.818359 0)"/>
     </g>
    </g>
    <g id="line2d_43">
     <path d="M 99 94.294688 
L 109 94.294688 
L 119 94.294688 
" style="fill: none; stroke: #2ca02c; stroke-width: 1.5; stroke-linecap: square"/>
    </g>
    <g id="text_20">
     <!-- H03 -->
     <g transform="translate(127 97.794688) scale(0.1 -0.1)">
      <defs>
       <path id="DejaVuSans-33" d="M 2597 2516 
Q 3050 2419 3304 2112 
Q 3559 1806 3559 1356 
Q 3559 666 3084 287 
Q 2609 -91 1734 -91 
Q 1441 -91 1130 -33 
Q 819 25 488 141 
L 488 750 
Q 750 597 1062 519 
Q 1375 441 1716 441 
Q 2309 441 2620 675 
Q 2931 909 2931 1356 
Q 2931 1769 2642 2001 
Q 2353 2234 1838 2234 
L 1294 2234 
L 1294 2753 
L 1863 2753 
Q 2328 2753 2575 2939 
Q 2822 3125 2822 3475 
Q 2822 3834 2567 4026 
Q 2313 4219 1838 4219 
Q 1578 4219 1281 4162 
Q 984 4106 628 3988 
L 628 4550 
Q 988 4650 1302 4700 
Q 1616 4750 1894 4750 
Q 2613 4750 3031 4423 
Q 3450 4097 3450 3541 
Q 3450 3153 3228 2886 
Q 3006 2619 2597 2516 
z
" transform="scale(0.015625)"/>
      </defs>
      <use xlink:href="#DejaVuSans-48"/>
      <use xlink:href="#DejaVuSans-30" transform="translate(75.195312 0)"/>
      <use xlink:href="#DejaVuSans-33" transform="translate(138.818359 0)"/>
     </g>
    </g>
    <g id="line2d_44">
     <path d="M 99 108.972812 
L 109 108.972812 
L 119 108.972812 
" style="fill: none; stroke: #d62728; stroke-width: 1.5; stroke-linecap: square"/>
    </g>
    <g id="text_21">
     <!-- H04 -->
     <g transform="translate(127 112.472812) scale(0.1 -0.1)">
      <use xlink:href="#DejaVuSans-48"/>
      <use xlink:href="#DejaVuSans-30" transform="translate(75.195312 0)"/>
      <use xlink:href="#DejaVuSans-34" transform="translate(138.818359 0)"/>
     </g>
    </g>
    <g id="line2d_45">
     <path d="M 99 123.650937 
L 109 123.650937 
L 119 123.650937 
" style="fill: none; stroke: #9467bd; stroke-width: 1.5; stroke-linecap: square"/>
    </g>
    <g id="text_22">
     <!-- H05 -->
     <g transform="translate(127 127.150937) scale(0.1 -0.1)">
      <use xlink:href="#DejaVuSans-48"/>
      <use xlink:href="#DejaVuSans-30" transform="translate(75.195312 0)"/>
      <use xlink:href="#DejaVuSans-35" transform="translate(138.818359 0)"/>
     </g>
    </g>
    <g id="line2d_46">
     <path d="M 99 138.329062 
L 109 138.329062 
L 119 138.329062 
" style="fill: none; stroke: #8c564b; stroke-width: 1.5; stroke-linecap: square"/>
    </g>
    <g id="text_23">
     <!-- H06 -->
     <g transform="translate(127 141.829062) scale(0.1 -0.1)">
      <use xlink:href="#DejaVuSans-48"/>
      <use xlink:href="#DejaVuSans-30" transform="translate(75.195312 0)"/>
      <use xlink:href="#DejaVuSans-36" transform="translate(138.818359 0)"/>
     </g>
    </g>
    <g id="line2d_47">
     <path d="M 99 153.007187 
L 109 153.007187 
L 119 153.007187 
" style="fill: none; stroke: #e377c2; stroke-width: 1.5; stroke-linecap: square"/>
    </g>
    <g id="text_24">
     <!-- H07 -->
     <g transform="translate(127 156.507187) scale(0.1 -0.1)">
      <use xlink:href="#DejaVuSans-48"/>
      <use xlink:href="#DejaVuSans-30" transform="translate(75.195312 0)"/>
      <use xlink:href="#DejaVuSans-37" transform="translate(138.818359 0)"/>
     </g>
    </g>
    <g id="line2d_48">
     <path d="M 99 167.685312 
L 109 167.685312 
L 119 167.685312 
" style="fill: none; stroke: #7f7f7f; stroke-width: 1.5; stroke-linecap: square"/>
    </g>
    <g id="text_25">
     <!-- H08 -->
     <g transform="translate(127 171.185312) scale(0.1 -0.1)">
      <use xlink:href="#DejaVuSans-48"/>
      <use xlink:href="#DejaVuSans-30" transform="translate(75.195312 0)"/>
      <use xlink:href="#DejaVuSans-38" transform="translate(138.818359 0)"/>
     </g>
    </g>
    <g id="line2d_49">
     <path d="M 99 182.363437 
L 109 182.363437 
L 119 182.363437 
" style="fill: none; stroke: #bcbd22; stroke-width: 1.5; stroke-linecap: square"/>
    </g>
    <g id="text_26">
     <!-- H09 -->
     <g transform="translate(127 185.863437) scale(0.1 -0.1)">
      <use xlink:href="#DejaVuSans-48"/>
      <use xlink:href="#DejaVuSans-30" transform="translate(75.195312 0)"/>
      <use xlink:href="#DejaVuSans-39" transform="translate(138.818359 0)"/>
     </g>
    </g>
    <g id="line2d_50">
     <path d="M 99 197.041562 
L 109 197.041562 
L 119 197.041562 
" style="fill: none; stroke: #17becf; stroke-width: 1.5; stroke-linecap: square"/>
    </g>
    <g id="text_27">
     <!-- H10 -->
     <g transform="translate(127 200.541562) scale(0.1 -0.1)">
      <use xlink:href="#DejaVuSans-48"/>
      <use xlink:href="#DejaVuSans-31" transform="translate(75.195312 0)"/>
      <use xlink:href="#DejaVuSans-30" transform="translate(138.818359 0)"/>
     </g>
    </g>
    <g id="line2d_51">
     <path d="M 99 211.719687 
L 109 211.719687 
L 119 211.719687 
" style="fill: none; stroke: #1f77b4; stroke-width: 1.5; stroke-linecap: square"/>
    </g>
    <g id="text_28">
     <!-- H11 -->
     <g transform="translate(127 215.219687) scale(0.1 -0.1)">
      <use xlink:href="#DejaVuSans-48"/>
      <use xlink:href="#DejaVuSans-31" transform="translate(75.195312 0)"/>
      <use xlink:href="#DejaVuSans-31" transform="translate(138.818359 0)"/>
     </g>
    </g>
    <g id="line2d_52">
     <path d="M 99 226.397812 
L 109 226.397812 
L 119 226.397812 
" style="fill: none; stroke: #ff7f0e; stroke-width: 1.5; stroke-linecap: square"/>
    </g>
    <g id="text_29">
     <!-- H12 -->
     <g transform="translate(127 229.897812) scale(0.1 -0.1)">
      <use xlink:href="#DejaVuSans-48"/>
      <use xlink:href="#DejaVuSans-31" transform="translate(75.195312 0)"/>
      <use xlink:href="#DejaVuSans-32" transform="translate(138.818359 0)"/>
     </g>
    </g>
   </g>
  </g>
 </g>
 <defs>
  <clipPath id="paa67b1fd6b">
   <rect x="90" y="51.84" width="558" height="332.64"/>
  </clipPath>
 </defs>
</svg>
