<?xml version="1.0" encoding="utf-8" standalone="no"?>
<!DOCTYPE svg PUBLIC "-//W3C//DTD SVG 1.1//EN"
  "http://www.w3.org/Graphics/SVG/1.1/DTD/svg11.dtd">
<svg xmlns:xlink="http://www.w3.org/1999/xlink" width="720pt" height="432pt" viewBox="0 0 720 432" xmlns="http://www.w3.org/2000/svg" version="1.1">
 <metadata>
  <rdf:RDF xmlns:dc="http://purl.org/dc/elements/1.1/" xmlns:cc="http://creativecommons.org/ns#" xmlns:rdf="http://www.w3.org/1999/02/22-rdf-syntax-ns#">
   <cc:Work>
    <dc:type rdf:resource="http://purl.org/dc/dcmitype/StillImage"/>
    <dc:date>2025-01-14T23:31:09.383282</dc:date>
    <dc:format>image/svg+xml</dc:format>
    <dc:creator>
     <cc:Agent>
      <dc:title>Matplotlib v3.10.0, https://matplotlib.org/</dc:title>
     </cc:Agent>
    </dc:creator>
   </cc:Work>
  </rdf:RDF>
 </metadata>
 <defs>
  <style type="text/css">*{stroke-linejoin: round; stroke-linecap: butt}</style>
 </defs>
 <g id="figure_1">
  <g id="patch_1">
   <path d="M 0 432 
L 720 432 
L 720 0 
L 0 0 
z
" style="fill: #ffffff"/>
  </g>
  <g id="axes_1">
   <g id="patch_2">
    <path d="M 90 384.48 
L 648 384.48 
L 648 51.84 
L 90 51.84 
z
" style="fill: #ffffff"/>
   </g>
   <g id="matplotlib.axis_1">
    <g id="xtick_1">
     <g id="line2d_1">
      <path d="M 138.267254 384.48 
L 138.267254 51.84 
" clip-path="url(#pd4fe4ccf68)" style="fill: none; stroke: #b0b0b0; stroke-width: 0.8; stroke-linecap: square"/>
     </g>
     <g id="line2d_2">
      <defs>
       <path id="mea57aab2cb" d="M 0 0 
L 0 3.5 
" style="stroke: #000000; stroke-width: 0.8"/>
      </defs>
      <g>
       <use xlink:href="#mea57aab2cb" x="138.267254" y="384.48" style="stroke: #000000; stroke-width: 0.8"/>
      </g>
     </g>
     <g id="text_1">
      <!-- 01-14 14 -->
      <g transform="translate(115.786786 399.078438) scale(0.1 -0.1)">
       <defs>
        <path id="DejaVuSans-30" d="M 2034 4250 
Q 1547 4250 1301 3770 
Q 1056 3291 1056 2328 
Q 1056 1369 1301 889 
Q 1547 409 2034 409 
Q 2525 409 2770 889 
Q 3016 1369 3016 2328 
Q 3016 3291 2770 3770 
Q 2525 4250 2034 4250 
z
M 2034 4750 
Q 2819 4750 3233 4129 
Q 3647 3509 3647 2328 
Q 3647 1150 3233 529 
Q 2819 -91 2034 -91 
Q 1250 -91 836 529 
Q 422 1150 422 2328 
Q 422 3509 836 4129 
Q 1250 4750 2034 4750 
z
" transform="scale(0.015625)"/>
        <path id="DejaVuSans-31" d="M 794 531 
L 1825 531 
L 1825 4091 
L 703 3866 
L 703 4441 
L 1819 4666 
L 2450 4666 
L 2450 531 
L 3481 531 
L 3481 0 
L 794 0 
L 794 531 
z
" transform="scale(0.015625)"/>
        <path id="DejaVuSans-2d" d="M 313 2009 
L 1997 2009 
L 1997 1497 
L 313 1497 
L 313 2009 
z
" transform="scale(0.015625)"/>
        <path id="DejaVuSans-34" d="M 2419 4116 
L 825 1625 
L 2419 1625 
L 2419 4116 
z
M 2253 4666 
L 3047 4666 
L 3047 1625 
L 3713 1625 
L 3713 1100 
L 3047 1100 
L 3047 0 
L 2419 0 
L 2419 1100 
L 313 1100 
L 313 1709 
L 2253 4666 
z
" transform="scale(0.015625)"/>
        <path id="DejaVuSans-20" transform="scale(0.015625)"/>
       </defs>
       <use xlink:href="#DejaVuSans-30"/>
       <use xlink:href="#DejaVuSans-31" transform="translate(63.623047 0)"/>
       <use xlink:href="#DejaVuSans-2d" transform="translate(127.246094 0)"/>
       <use xlink:href="#DejaVuSans-31" transform="translate(163.330078 0)"/>
       <use xlink:href="#DejaVuSans-34" transform="translate(226.953125 0)"/>
       <use xlink:href="#DejaVuSans-20" transform="translate(290.576172 0)"/>
       <use xlink:href="#DejaVuSans-31" transform="translate(322.363281 0)"/>
       <use xlink:href="#DejaVuSans-34" transform="translate(385.986328 0)"/>
      </g>
     </g>
    </g>
    <g id="xtick_2">
     <g id="line2d_3">
      <path d="M 189.164184 384.48 
L 189.164184 51.84 
" clip-path="url(#pd4fe4ccf68)" style="fill: none; stroke: #b0b0b0; stroke-width: 0.8; stroke-linecap: square"/>
     </g>
     <g id="line2d_4">
      <g>
       <use xlink:href="#mea57aab2cb" x="189.164184" y="384.48" style="stroke: #000000; stroke-width: 0.8"/>
      </g>
     </g>
     <g id="text_2">
      <!-- 01-14 15 -->
      <g transform="translate(166.683715 399.078438) scale(0.1 -0.1)">
       <defs>
        <path id="DejaVuSans-35" d="M 691 4666 
L 3169 4666 
L 3169 4134 
L 1269 4134 
L 1269 2991 
Q 1406 3038 1543 3061 
Q 1681 3084 1819 3084 
Q 2600 3084 3056 2656 
Q 3513 2228 3513 1497 
Q 3513 744 3044 326 
Q 2575 -91 1722 -91 
Q 1428 -91 1123 -41 
Q 819 9 494 109 
L 494 744 
Q 775 591 1075 516 
Q 1375 441 1709 441 
Q 2250 441 2565 725 
Q 2881 1009 2881 1497 
Q 2881 1984 2565 2268 
Q 2250 2553 1709 2553 
Q 1456 2553 1204 2497 
Q 953 2441 691 2322 
L 691 4666 
z
" transform="scale(0.015625)"/>
       </defs>
       <use xlink:href="#DejaVuSans-30"/>
       <use xlink:href="#DejaVuSans-31" transform="translate(63.623047 0)"/>
       <use xlink:href="#DejaVuSans-2d" transform="translate(127.246094 0)"/>
       <use xlink:href="#DejaVuSans-31" transform="translate(163.330078 0)"/>
       <use xlink:href="#DejaVuSans-34" transform="translate(226.953125 0)"/>
       <use xlink:href="#DejaVuSans-20" transform="translate(290.576172 0)"/>
       <use xlink:href="#DejaVuSans-31" transform="translate(322.363281 0)"/>
       <use xlink:href="#DejaVuSans-35" transform="translate(385.986328 0)"/>
      </g>
     </g>
    </g>
    <g id="xtick_3">
     <g id="line2d_5">
      <path d="M 240.061113 384.48 
L 240.061113 51.84 
" clip-path="url(#pd4fe4ccf68)" style="fill: none; stroke: #b0b0b0; stroke-width: 0.8; stroke-linecap: square"/>
     </g>
     <g id="line2d_6">
      <g>
       <use xlink:href="#mea57aab2cb" x="240.061113" y="384.48" style="stroke: #000000; stroke-width: 0.8"/>
      </g>
     </g>
     <g id="text_3">
      <!-- 01-14 16 -->
      <g transform="translate(217.580644 399.078438) scale(0.1 -0.1)">
       <defs>
        <path id="DejaVuSans-36" d="M 2113 2584 
Q 1688 2584 1439 2293 
Q 1191 2003 1191 1497 
Q 1191 994 1439 701 
Q 1688 409 2113 409 
Q 2538 409 2786 701 
Q 3034 994 3034 1497 
Q 3034 2003 2786 2293 
Q 2538 2584 2113 2584 
z
M 3366 4563 
L 3366 3988 
Q 3128 4100 2886 4159 
Q 2644 4219 2406 4219 
Q 1781 4219 1451 3797 
Q 1122 3375 1075 2522 
Q 1259 2794 1537 2939 
Q 1816 3084 2150 3084 
Q 2853 3084 3261 2657 
Q 3669 2231 3669 1497 
Q 3669 778 3244 343 
Q 2819 -91 2113 -91 
Q 1303 -91 875 529 
Q 447 1150 447 2328 
Q 447 3434 972 4092 
Q 1497 4750 2381 4750 
Q 2619 4750 2861 4703 
Q 3103 4656 3366 4563 
z
" transform="scale(0.015625)"/>
       </defs>
       <use xlink:href="#DejaVuSans-30"/>
       <use xlink:href="#DejaVuSans-31" transform="translate(63.623047 0)"/>
       <use xlink:href="#DejaVuSans-2d" transform="translate(127.246094 0)"/>
       <use xlink:href="#DejaVuSans-31" transform="translate(163.330078 0)"/>
       <use xlink:href="#DejaVuSans-34" transform="translate(226.953125 0)"/>
       <use xlink:href="#DejaVuSans-20" transform="translate(290.576172 0)"/>
       <use xlink:href="#DejaVuSans-31" transform="translate(322.363281 0)"/>
       <use xlink:href="#DejaVuSans-36" transform="translate(385.986328 0)"/>
      </g>
     </g>
    </g>
    <g id="xtick_4">
     <g id="line2d_7">
      <path d="M 290.958042 384.48 
L 290.958042 51.84 
" clip-path="url(#pd4fe4ccf68)" style="fill: none; stroke: #b0b0b0; stroke-width: 0.8; stroke-linecap: square"/>
     </g>
     <g id="line2d_8">
      <g>
       <use xlink:href="#mea57aab2cb" x="290.958042" y="384.48" style="stroke: #000000; stroke-width: 0.8"/>
      </g>
     </g>
     <g id="text_4">
      <!-- 01-14 17 -->
      <g transform="translate(268.477573 399.078438) scale(0.1 -0.1)">
       <defs>
        <path id="DejaVuSans-37" d="M 525 4666 
L 3525 4666 
L 3525 4397 
L 1831 0 
L 1172 0 
L 2766 4134 
L 525 4134 
L 525 4666 
z
" transform="scale(0.015625)"/>
       </defs>
       <use xlink:href="#DejaVuSans-30"/>
       <use xlink:href="#DejaVuSans-31" transform="translate(63.623047 0)"/>
       <use xlink:href="#DejaVuSans-2d" transform="translate(127.246094 0)"/>
       <use xlink:href="#DejaVuSans-31" transform="translate(163.330078 0)"/>
       <use xlink:href="#DejaVuSans-34" transform="translate(226.953125 0)"/>
       <use xlink:href="#DejaVuSans-20" transform="translate(290.576172 0)"/>
       <use xlink:href="#DejaVuSans-31" transform="translate(322.363281 0)"/>
       <use xlink:href="#DejaVuSans-37" transform="translate(385.986328 0)"/>
      </g>
     </g>
    </g>
    <g id="xtick_5">
     <g id="line2d_9">
      <path d="M 341.854971 384.48 
L 341.854971 51.84 
" clip-path="url(#pd4fe4ccf68)" style="fill: none; stroke: #b0b0b0; stroke-width: 0.8; stroke-linecap: square"/>
     </g>
     <g id="line2d_10">
      <g>
       <use xlink:href="#mea57aab2cb" x="341.854971" y="384.48" style="stroke: #000000; stroke-width: 0.8"/>
      </g>
     </g>
     <g id="text_5">
      <!-- 01-14 18 -->
      <g transform="translate(319.374502 399.078438) scale(0.1 -0.1)">
       <defs>
        <path id="DejaVuSans-38" d="M 2034 2216 
Q 1584 2216 1326 1975 
Q 1069 1734 1069 1313 
Q 1069 891 1326 650 
Q 1584 409 2034 409 
Q 2484 409 2743 651 
Q 3003 894 3003 1313 
Q 3003 1734 2745 1975 
Q 2488 2216 2034 2216 
z
M 1403 2484 
Q 997 2584 770 2862 
Q 544 3141 544 3541 
Q 544 4100 942 4425 
Q 1341 4750 2034 4750 
Q 2731 4750 3128 4425 
Q 3525 4100 3525 3541 
Q 3525 3141 3298 2862 
Q 3072 2584 2669 2484 
Q 3125 2378 3379 2068 
Q 3634 1759 3634 1313 
Q 3634 634 3220 271 
Q 2806 -91 2034 -91 
Q 1263 -91 848 271 
Q 434 634 434 1313 
Q 434 1759 690 2068 
Q 947 2378 1403 2484 
z
M 1172 3481 
Q 1172 3119 1398 2916 
Q 1625 2713 2034 2713 
Q 2441 2713 2670 2916 
Q 2900 3119 2900 3481 
Q 2900 3844 2670 4047 
Q 2441 4250 2034 4250 
Q 1625 4250 1398 4047 
Q 1172 3844 1172 3481 
z
" transform="scale(0.015625)"/>
       </defs>
       <use xlink:href="#DejaVuSans-30"/>
       <use xlink:href="#DejaVuSans-31" transform="translate(63.623047 0)"/>
       <use xlink:href="#DejaVuSans-2d" transform="translate(127.246094 0)"/>
       <use xlink:href="#DejaVuSans-31" transform="translate(163.330078 0)"/>
       <use xlink:href="#DejaVuSans-34" transform="translate(226.953125 0)"/>
       <use xlink:href="#DejaVuSans-20" transform="translate(290.576172 0)"/>
       <use xlink:href="#DejaVuSans-31" transform="translate(322.363281 0)"/>
       <use xlink:href="#DejaVuSans-38" transform="translate(385.986328 0)"/>
      </g>
     </g>
    </g>
    <g id="xtick_6">
     <g id="line2d_11">
      <path d="M 392.7519 384.48 
L 392.7519 51.84 
" clip-path="url(#pd4fe4ccf68)" style="fill: none; stroke: #b0b0b0; stroke-width: 0.8; stroke-linecap: square"/>
     </g>
     <g id="line2d_12">
      <g>
       <use xlink:href="#mea57aab2cb" x="392.7519" y="384.48" style="stroke: #000000; stroke-width: 0.8"/>
      </g>
     </g>
     <g id="text_6">
      <!-- 01-14 19 -->
      <g transform="translate(370.271432 399.078438) scale(0.1 -0.1)">
       <defs>
        <path id="DejaVuSans-39" d="M 703 97 
L 703 672 
Q 941 559 1184 500 
Q 1428 441 1663 441 
Q 2288 441 2617 861 
Q 2947 1281 2994 2138 
Q 2813 1869 2534 1725 
Q 2256 1581 1919 1581 
Q 1219 1581 811 2004 
Q 403 2428 403 3163 
Q 403 3881 828 4315 
Q 1253 4750 1959 4750 
Q 2769 4750 3195 4129 
Q 3622 3509 3622 2328 
Q 3622 1225 3098 567 
Q 2575 -91 1691 -91 
Q 1453 -91 1209 -44 
Q 966 3 703 97 
z
M 1959 2075 
Q 2384 2075 2632 2365 
Q 2881 2656 2881 3163 
Q 2881 3666 2632 3958 
Q 2384 4250 1959 4250 
Q 1534 4250 1286 3958 
Q 1038 3666 1038 3163 
Q 1038 2656 1286 2365 
Q 1534 2075 1959 2075 
z
" transform="scale(0.015625)"/>
       </defs>
       <use xlink:href="#DejaVuSans-30"/>
       <use xlink:href="#DejaVuSans-31" transform="translate(63.623047 0)"/>
       <use xlink:href="#DejaVuSans-2d" transform="translate(127.246094 0)"/>
       <use xlink:href="#DejaVuSans-31" transform="translate(163.330078 0)"/>
       <use xlink:href="#DejaVuSans-34" transform="translate(226.953125 0)"/>
       <use xlink:href="#DejaVuSans-20" transform="translate(290.576172 0)"/>
       <use xlink:href="#DejaVuSans-31" transform="translate(322.363281 0)"/>
       <use xlink:href="#DejaVuSans-39" transform="translate(385.986328 0)"/>
      </g>
     </g>
    </g>
    <g id="xtick_7">
     <g id="line2d_13">
      <path d="M 443.648829 384.48 
L 443.648829 51.84 
" clip-path="url(#pd4fe4ccf68)" style="fill: none; stroke: #b0b0b0; stroke-width: 0.8; stroke-linecap: square"/>
     </g>
     <g id="line2d_14">
      <g>
       <use xlink:href="#mea57aab2cb" x="443.648829" y="384.48" style="stroke: #000000; stroke-width: 0.8"/>
      </g>
     </g>
     <g id="text_7">
      <!-- 01-14 20 -->
      <g transform="translate(421.168361 399.078438) scale(0.1 -0.1)">
       <defs>
        <path id="DejaVuSans-32" d="M 1228 531 
L 3431 531 
L 3431 0 
L 469 0 
L 469 531 
Q 828 903 1448 1529 
Q 2069 2156 2228 2338 
Q 2531 2678 2651 2914 
Q 2772 3150 2772 3378 
Q 2772 3750 2511 3984 
Q 2250 4219 1831 4219 
Q 1534 4219 1204 4116 
Q 875 4013 500 3803 
L 500 4441 
Q 881 4594 1212 4672 
Q 1544 4750 1819 4750 
Q 2544 4750 2975 4387 
Q 3406 4025 3406 3419 
Q 3406 3131 3298 2873 
Q 3191 2616 2906 2266 
Q 2828 2175 2409 1742 
Q 1991 1309 1228 531 
z
" transform="scale(0.015625)"/>
       </defs>
       <use xlink:href="#DejaVuSans-30"/>
       <use xlink:href="#DejaVuSans-31" transform="translate(63.623047 0)"/>
       <use xlink:href="#DejaVuSans-2d" transform="translate(127.246094 0)"/>
       <use xlink:href="#DejaVuSans-31" transform="translate(163.330078 0)"/>
       <use xlink:href="#DejaVuSans-34" transform="translate(226.953125 0)"/>
       <use xlink:href="#DejaVuSans-20" transform="translate(290.576172 0)"/>
       <use xlink:href="#DejaVuSans-32" transform="translate(322.363281 0)"/>
       <use xlink:href="#DejaVuSans-30" transform="translate(385.986328 0)"/>
      </g>
     </g>
    </g>
    <g id="xtick_8">
     <g id="line2d_15">
      <path d="M 494.545759 384.48 
L 494.545759 51.84 
" clip-path="url(#pd4fe4ccf68)" style="fill: none; stroke: #b0b0b0; stroke-width: 0.8; stroke-linecap: square"/>
     </g>
     <g id="line2d_16">
      <g>
       <use xlink:href="#mea57aab2cb" x="494.545759" y="384.48" style="stroke: #000000; stroke-width: 0.8"/>
      </g>
     </g>
     <g id="text_8">
      <!-- 01-14 21 -->
      <g transform="translate(472.06529 399.078438) scale(0.1 -0.1)">
       <use xlink:href="#DejaVuSans-30"/>
       <use xlink:href="#DejaVuSans-31" transform="translate(63.623047 0)"/>
       <use xlink:href="#DejaVuSans-2d" transform="translate(127.246094 0)"/>
       <use xlink:href="#DejaVuSans-31" transform="translate(163.330078 0)"/>
       <use xlink:href="#DejaVuSans-34" transform="translate(226.953125 0)"/>
       <use xlink:href="#DejaVuSans-20" transform="translate(290.576172 0)"/>
       <use xlink:href="#DejaVuSans-32" transform="translate(322.363281 0)"/>
       <use xlink:href="#DejaVuSans-31" transform="translate(385.986328 0)"/>
      </g>
     </g>
    </g>
    <g id="xtick_9">
     <g id="line2d_17">
      <path d="M 545.442688 384.48 
L 545.442688 51.84 
" clip-path="url(#pd4fe4ccf68)" style="fill: none; stroke: #b0b0b0; stroke-width: 0.8; stroke-linecap: square"/>
     </g>
     <g id="line2d_18">
      <g>
       <use xlink:href="#mea57aab2cb" x="545.442688" y="384.48" style="stroke: #000000; stroke-width: 0.8"/>
      </g>
     </g>
     <g id="text_9">
      <!-- 01-14 22 -->
      <g transform="translate(522.962219 399.078438) scale(0.1 -0.1)">
       <use xlink:href="#DejaVuSans-30"/>
       <use xlink:href="#DejaVuSans-31" transform="translate(63.623047 0)"/>
       <use xlink:href="#DejaVuSans-2d" transform="translate(127.246094 0)"/>
       <use xlink:href="#DejaVuSans-31" transform="translate(163.330078 0)"/>
       <use xlink:href="#DejaVuSans-34" transform="translate(226.953125 0)"/>
       <use xlink:href="#DejaVuSans-20" transform="translate(290.576172 0)"/>
       <use xlink:href="#DejaVuSans-32" transform="translate(322.363281 0)"/>
       <use xlink:href="#DejaVuSans-32" transform="translate(385.986328 0)"/>
      </g>
     </g>
    </g>
    <g id="xtick_10">
     <g id="line2d_19">
      <path d="M 596.339617 384.48 
L 596.339617 51.84 
" clip-path="url(#pd4fe4ccf68)" style="fill: none; stroke: #b0b0b0; stroke-width: 0.8; stroke-linecap: square"/>
     </g>
     <g id="line2d_20">
      <g>
       <use xlink:href="#mea57aab2cb" x="596.339617" y="384.48" style="stroke: #000000; stroke-width: 0.8"/>
      </g>
     </g>
     <g id="text_10">
      <!-- 01-14 23 -->
      <g transform="translate(573.859148 399.078438) scale(0.1 -0.1)">
       <defs>
        <path id="DejaVuSans-33" d="M 2597 2516 
Q 3050 2419 3304 2112 
Q 3559 1806 3559 1356 
Q 3559 666 3084 287 
Q 2609 -91 1734 -91 
Q 1441 -91 1130 -33 
Q 819 25 488 141 
L 488 750 
Q 750 597 1062 519 
Q 1375 441 1716 441 
Q 2309 441 2620 675 
Q 2931 909 2931 1356 
Q 2931 1769 2642 2001 
Q 2353 2234 1838 2234 
L 1294 2234 
L 1294 2753 
L 1863 2753 
Q 2328 2753 2575 2939 
Q 2822 3125 2822 3475 
Q 2822 3834 2567 4026 
Q 2313 4219 1838 4219 
Q 1578 4219 1281 4162 
Q 984 4106 628 3988 
L 628 4550 
Q 988 4650 1302 4700 
Q 1616 4750 1894 4750 
Q 2613 4750 3031 4423 
Q 3450 4097 3450 3541 
Q 3450 3153 3228 2886 
Q 3006 2619 2597 2516 
z
" transform="scale(0.015625)"/>
       </defs>
       <use xlink:href="#DejaVuSans-30"/>
       <use xlink:href="#DejaVuSans-31" transform="translate(63.623047 0)"/>
       <use xlink:href="#DejaVuSans-2d" transform="translate(127.246094 0)"/>
       <use xlink:href="#DejaVuSans-31" transform="translate(163.330078 0)"/>
       <use xlink:href="#DejaVuSans-34" transform="translate(226.953125 0)"/>
       <use xlink:href="#DejaVuSans-20" transform="translate(290.576172 0)"/>
       <use xlink:href="#DejaVuSans-32" transform="translate(322.363281 0)"/>
       <use xlink:href="#DejaVuSans-33" transform="translate(385.986328 0)"/>
      </g>
     </g>
    </g>
    <g id="xtick_11">
     <g id="line2d_21">
      <path d="M 647.236546 384.48 
L 647.236546 51.84 
" clip-path="url(#pd4fe4ccf68)" style="fill: none; stroke: #b0b0b0; stroke-width: 0.8; stroke-linecap: square"/>
     </g>
     <g id="line2d_22">
      <g>
       <use xlink:href="#mea57aab2cb" x="647.236546" y="384.48" style="stroke: #000000; stroke-width: 0.8"/>
      </g>
     </g>
     <g id="text_11">
      <!-- 01-15 00 -->
      <g transform="translate(624.756077 399.078438) scale(0.1 -0.1)">
       <use xlink:href="#DejaVuSans-30"/>
       <use xlink:href="#DejaVuSans-31" transform="translate(63.623047 0)"/>
       <use xlink:href="#DejaVuSans-2d" transform="translate(127.246094 0)"/>
       <use xlink:href="#DejaVuSans-31" transform="translate(163.330078 0)"/>
       <use xlink:href="#DejaVuSans-35" transform="translate(226.953125 0)"/>
       <use xlink:href="#DejaVuSans-20" transform="translate(290.576172 0)"/>
       <use xlink:href="#DejaVuSans-30" transform="translate(322.363281 0)"/>
       <use xlink:href="#DejaVuSans-30" transform="translate(385.986328 0)"/>
      </g>
     </g>
    </g>
    <g id="text_12">
     <!-- Date and Time -->
     <g transform="translate(332.230469 412.756563) scale(0.1 -0.1)">
      <defs>
       <path id="DejaVuSans-44" d="M 1259 4147 
L 1259 519 
L 2022 519 
Q 2988 519 3436 956 
Q 3884 1394 3884 2338 
Q 3884 3275 3436 3711 
Q 2988 4147 2022 4147 
L 1259 4147 
z
M 628 4666 
L 1925 4666 
Q 3281 4666 3915 4102 
Q 4550 3538 4550 2338 
Q 4550 1131 3912 565 
Q 3275 0 1925 0 
L 628 0 
L 628 4666 
z
" transform="scale(0.015625)"/>
       <path id="DejaVuSans-61" d="M 2194 1759 
Q 1497 1759 1228 1600 
Q 959 1441 959 1056 
Q 959 750 1161 570 
Q 1363 391 1709 391 
Q 2188 391 2477 730 
Q 2766 1069 2766 1631 
L 2766 1759 
L 2194 1759 
z
M 3341 1997 
L 3341 0 
L 2766 0 
L 2766 531 
Q 2569 213 2275 61 
Q 1981 -91 1556 -91 
Q 1019 -91 701 211 
Q 384 513 384 1019 
Q 384 1609 779 1909 
Q 1175 2209 1959 2209 
L 2766 2209 
L 2766 2266 
Q 2766 2663 2505 2880 
Q 2244 3097 1772 3097 
Q 1472 3097 1187 3025 
Q 903 2953 641 2809 
L 641 3341 
Q 956 3463 1253 3523 
Q 1550 3584 1831 3584 
Q 2591 3584 2966 3190 
Q 3341 2797 3341 1997 
z
" transform="scale(0.015625)"/>
       <path id="DejaVuSans-74" d="M 1172 4494 
L 1172 3500 
L 2356 3500 
L 2356 3053 
L 1172 3053 
L 1172 1153 
Q 1172 725 1289 603 
Q 1406 481 1766 481 
L 2356 481 
L 2356 0 
L 1766 0 
Q 1100 0 847 248 
Q 594 497 594 1153 
L 594 3053 
L 172 3053 
L 172 3500 
L 594 3500 
L 594 4494 
L 1172 4494 
z
" transform="scale(0.015625)"/>
       <path id="DejaVuSans-65" d="M 3597 1894 
L 3597 1613 
L 953 1613 
Q 991 1019 1311 708 
Q 1631 397 2203 397 
Q 2534 397 2845 478 
Q 3156 559 3463 722 
L 3463 178 
Q 3153 47 2828 -22 
Q 2503 -91 2169 -91 
Q 1331 -91 842 396 
Q 353 884 353 1716 
Q 353 2575 817 3079 
Q 1281 3584 2069 3584 
Q 2775 3584 3186 3129 
Q 3597 2675 3597 1894 
z
M 3022 2063 
Q 3016 2534 2758 2815 
Q 2500 3097 2075 3097 
Q 1594 3097 1305 2825 
Q 1016 2553 972 2059 
L 3022 2063 
z
" transform="scale(0.015625)"/>
       <path id="DejaVuSans-6e" d="M 3513 2113 
L 3513 0 
L 2938 0 
L 2938 2094 
Q 2938 2591 2744 2837 
Q 2550 3084 2163 3084 
Q 1697 3084 1428 2787 
Q 1159 2491 1159 1978 
L 1159 0 
L 581 0 
L 581 3500 
L 1159 3500 
L 1159 2956 
Q 1366 3272 1645 3428 
Q 1925 3584 2291 3584 
Q 2894 3584 3203 3211 
Q 3513 2838 3513 2113 
z
" transform="scale(0.015625)"/>
       <path id="DejaVuSans-64" d="M 2906 2969 
L 2906 4863 
L 3481 4863 
L 3481 0 
L 2906 0 
L 2906 525 
Q 2725 213 2448 61 
Q 2172 -91 1784 -91 
Q 1150 -91 751 415 
Q 353 922 353 1747 
Q 353 2572 751 3078 
Q 1150 3584 1784 3584 
Q 2172 3584 2448 3432 
Q 2725 3281 2906 2969 
z
M 947 1747 
Q 947 1113 1208 752 
Q 1469 391 1925 391 
Q 2381 391 2643 752 
Q 2906 1113 2906 1747 
Q 2906 2381 2643 2742 
Q 2381 3103 1925 3103 
Q 1469 3103 1208 2742 
Q 947 2381 947 1747 
z
" transform="scale(0.015625)"/>
       <path id="DejaVuSans-54" d="M -19 4666 
L 3928 4666 
L 3928 4134 
L 2272 4134 
L 2272 0 
L 1638 0 
L 1638 4134 
L -19 4134 
L -19 4666 
z
" transform="scale(0.015625)"/>
       <path id="DejaVuSans-69" d="M 603 3500 
L 1178 3500 
L 1178 0 
L 603 0 
L 603 3500 
z
M 603 4863 
L 1178 4863 
L 1178 4134 
L 603 4134 
L 603 4863 
z
" transform="scale(0.015625)"/>
       <path id="DejaVuSans-6d" d="M 3328 2828 
Q 3544 3216 3844 3400 
Q 4144 3584 4550 3584 
Q 5097 3584 5394 3201 
Q 5691 2819 5691 2113 
L 5691 0 
L 5113 0 
L 5113 2094 
Q 5113 2597 4934 2840 
Q 4756 3084 4391 3084 
Q 3944 3084 3684 2787 
Q 3425 2491 3425 1978 
L 3425 0 
L 2847 0 
L 2847 2094 
Q 2847 2600 2669 2842 
Q 2491 3084 2119 3084 
Q 1678 3084 1418 2786 
Q 1159 2488 1159 1978 
L 1159 0 
L 581 0 
L 581 3500 
L 1159 3500 
L 1159 2956 
Q 1356 3278 1631 3431 
Q 1906 3584 2284 3584 
Q 2666 3584 2933 3390 
Q 3200 3197 3328 2828 
z
" transform="scale(0.015625)"/>
      </defs>
      <use xlink:href="#DejaVuSans-44"/>
      <use xlink:href="#DejaVuSans-61" transform="translate(77.001953 0)"/>
      <use xlink:href="#DejaVuSans-74" transform="translate(138.28125 0)"/>
      <use xlink:href="#DejaVuSans-65" transform="translate(177.490234 0)"/>
      <use xlink:href="#DejaVuSans-20" transform="translate(239.013672 0)"/>
      <use xlink:href="#DejaVuSans-61" transform="translate(270.800781 0)"/>
      <use xlink:href="#DejaVuSans-6e" transform="translate(332.080078 0)"/>
      <use xlink:href="#DejaVuSans-64" transform="translate(395.458984 0)"/>
      <use xlink:href="#DejaVuSans-20" transform="translate(458.935547 0)"/>
      <use xlink:href="#DejaVuSans-54" transform="translate(490.722656 0)"/>
      <use xlink:href="#DejaVuSans-69" transform="translate(548.681641 0)"/>
      <use xlink:href="#DejaVuSans-6d" transform="translate(576.464844 0)"/>
      <use xlink:href="#DejaVuSans-65" transform="translate(673.876953 0)"/>
     </g>
    </g>
   </g>
   <g id="matplotlib.axis_2">
    <g id="ytick_1">
     <g id="line2d_23">
      <path d="M 90 370.305 
L 648 370.305 
" clip-path="url(#pd4fe4ccf68)" style="fill: none; stroke: #b0b0b0; stroke-width: 0.8; stroke-linecap: square"/>
     </g>
     <g id="line2d_24">
      <defs>
       <path id="mbd7cadce17" d="M 0 0 
L -3.5 0 
" style="stroke: #000000; stroke-width: 0.8"/>
      </defs>
      <g>
       <use xlink:href="#mbd7cadce17" x="90" y="370.305" style="stroke: #000000; stroke-width: 0.8"/>
      </g>
     </g>
     <g id="text_13">
      <!-- 0 -->
      <g transform="translate(76.6375 374.104219) scale(0.1 -0.1)">
       <use xlink:href="#DejaVuSans-30"/>
      </g>
     </g>
    </g>
    <g id="ytick_2">
     <g id="line2d_25">
      <path d="M 90 323.055 
L 648 323.055 
" clip-path="url(#pd4fe4ccf68)" style="fill: none; stroke: #b0b0b0; stroke-width: 0.8; stroke-linecap: square"/>
     </g>
     <g id="line2d_26">
      <g>
       <use xlink:href="#mbd7cadce17" x="90" y="323.055" style="stroke: #000000; stroke-width: 0.8"/>
      </g>
     </g>
     <g id="text_14">
      <!-- 50 -->
      <g transform="translate(70.275 326.854219) scale(0.1 -0.1)">
       <use xlink:href="#DejaVuSans-35"/>
       <use xlink:href="#DejaVuSans-30" transform="translate(63.623047 0)"/>
      </g>
     </g>
    </g>
    <g id="ytick_3">
     <g id="line2d_27">
      <path d="M 90 275.805 
L 648 275.805 
" clip-path="url(#pd4fe4ccf68)" style="fill: none; stroke: #b0b0b0; stroke-width: 0.8; stroke-linecap: square"/>
     </g>
     <g id="line2d_28">
      <g>
       <use xlink:href="#mbd7cadce17" x="90" y="275.805" style="stroke: #000000; stroke-width: 0.8"/>
      </g>
     </g>
     <g id="text_15">
      <!-- 100 -->
      <g transform="translate(63.9125 279.604219) scale(0.1 -0.1)">
       <use xlink:href="#DejaVuSans-31"/>
       <use xlink:href="#DejaVuSans-30" transform="translate(63.623047 0)"/>
       <use xlink:href="#DejaVuSans-30" transform="translate(127.246094 0)"/>
      </g>
     </g>
    </g>
    <g id="ytick_4">
     <g id="line2d_29">
      <path d="M 90 228.555 
L 648 228.555 
" clip-path="url(#pd4fe4ccf68)" style="fill: none; stroke: #b0b0b0; stroke-width: 0.8; stroke-linecap: square"/>
     </g>
     <g id="line2d_30">
      <g>
       <use xlink:href="#mbd7cadce17" x="90" y="228.555" style="stroke: #000000; stroke-width: 0.8"/>
      </g>
     </g>
     <g id="text_16">
      <!-- 150 -->
      <g transform="translate(63.9125 232.354219) scale(0.1 -0.1)">
       <use xlink:href="#DejaVuSans-31"/>
       <use xlink:href="#DejaVuSans-35" transform="translate(63.623047 0)"/>
       <use xlink:href="#DejaVuSans-30" transform="translate(127.246094 0)"/>
      </g>
     </g>
    </g>
    <g id="ytick_5">
     <g id="line2d_31">
      <path d="M 90 181.305 
L 648 181.305 
" clip-path="url(#pd4fe4ccf68)" style="fill: none; stroke: #b0b0b0; stroke-width: 0.8; stroke-linecap: square"/>
     </g>
     <g id="line2d_32">
      <g>
       <use xlink:href="#mbd7cadce17" x="90" y="181.305" style="stroke: #000000; stroke-width: 0.8"/>
      </g>
     </g>
     <g id="text_17">
      <!-- 200 -->
      <g transform="translate(63.9125 185.104219) scale(0.1 -0.1)">
       <use xlink:href="#DejaVuSans-32"/>
       <use xlink:href="#DejaVuSans-30" transform="translate(63.623047 0)"/>
       <use xlink:href="#DejaVuSans-30" transform="translate(127.246094 0)"/>
      </g>
     </g>
    </g>
    <g id="ytick_6">
     <g id="line2d_33">
      <path d="M 90 134.055 
L 648 134.055 
" clip-path="url(#pd4fe4ccf68)" style="fill: none; stroke: #b0b0b0; stroke-width: 0.8; stroke-linecap: square"/>
     </g>
     <g id="line2d_34">
      <g>
       <use xlink:href="#mbd7cadce17" x="90" y="134.055" style="stroke: #000000; stroke-width: 0.8"/>
      </g>
     </g>
     <g id="text_18">
      <!-- 250 -->
      <g transform="translate(63.9125 137.854219) scale(0.1 -0.1)">
       <use xlink:href="#DejaVuSans-32"/>
       <use xlink:href="#DejaVuSans-35" transform="translate(63.623047 0)"/>
       <use xlink:href="#DejaVuSans-30" transform="translate(127.246094 0)"/>
      </g>
     </g>
    </g>
    <g id="ytick_7">
     <g id="line2d_35">
      <path d="M 90 86.805 
L 648 86.805 
" clip-path="url(#pd4fe4ccf68)" style="fill: none; stroke: #b0b0b0; stroke-width: 0.8; stroke-linecap: square"/>
     </g>
     <g id="line2d_36">
      <g>
       <use xlink:href="#mbd7cadce17" x="90" y="86.805" style="stroke: #000000; stroke-width: 0.8"/>
      </g>
     </g>
     <g id="text_19">
      <!-- 300 -->
      <g transform="translate(63.9125 90.604219) scale(0.1 -0.1)">
       <use xlink:href="#DejaVuSans-33"/>
       <use xlink:href="#DejaVuSans-30" transform="translate(63.623047 0)"/>
       <use xlink:href="#DejaVuSans-30" transform="translate(127.246094 0)"/>
      </g>
     </g>
    </g>
    <g id="text_20">
     <!-- Votes -->
     <g transform="translate(57.832812 231.893594) rotate(-90) scale(0.1 -0.1)">
      <defs>
       <path id="DejaVuSans-56" d="M 1831 0 
L 50 4666 
L 709 4666 
L 2188 738 
L 3669 4666 
L 4325 4666 
L 2547 0 
L 1831 0 
z
" transform="scale(0.015625)"/>
       <path id="DejaVuSans-6f" d="M 1959 3097 
Q 1497 3097 1228 2736 
Q 959 2375 959 1747 
Q 959 1119 1226 758 
Q 1494 397 1959 397 
Q 2419 397 2687 759 
Q 2956 1122 2956 1747 
Q 2956 2369 2687 2733 
Q 2419 3097 1959 3097 
z
M 1959 3584 
Q 2709 3584 3137 3096 
Q 3566 2609 3566 1747 
Q 3566 888 3137 398 
Q 2709 -91 1959 -91 
Q 1206 -91 779 398 
Q 353 888 353 1747 
Q 353 2609 779 3096 
Q 1206 3584 1959 3584 
z
" transform="scale(0.015625)"/>
       <path id="DejaVuSans-73" d="M 2834 3397 
L 2834 2853 
Q 2591 2978 2328 3040 
Q 2066 3103 1784 3103 
Q 1356 3103 1142 2972 
Q 928 2841 928 2578 
Q 928 2378 1081 2264 
Q 1234 2150 1697 2047 
L 1894 2003 
Q 2506 1872 2764 1633 
Q 3022 1394 3022 966 
Q 3022 478 2636 193 
Q 2250 -91 1575 -91 
Q 1294 -91 989 -36 
Q 684 19 347 128 
L 347 722 
Q 666 556 975 473 
Q 1284 391 1588 391 
Q 1994 391 2212 530 
Q 2431 669 2431 922 
Q 2431 1156 2273 1281 
Q 2116 1406 1581 1522 
L 1381 1569 
Q 847 1681 609 1914 
Q 372 2147 372 2553 
Q 372 3047 722 3315 
Q 1072 3584 1716 3584 
Q 2034 3584 2315 3537 
Q 2597 3491 2834 3397 
z
" transform="scale(0.015625)"/>
      </defs>
      <use xlink:href="#DejaVuSans-56"/>
      <use xlink:href="#DejaVuSans-6f" transform="translate(60.658203 0)"/>
      <use xlink:href="#DejaVuSans-74" transform="translate(121.839844 0)"/>
      <use xlink:href="#DejaVuSans-65" transform="translate(161.048828 0)"/>
      <use xlink:href="#DejaVuSans-73" transform="translate(222.572266 0)"/>
     </g>
    </g>
   </g>
   <g id="line2d_37">
    <path d="M 115.363636 353.295 
L 123.846458 353.295 
L 124.69474 352.35 
L 133.177562 352.35 
L 134.025844 350.46 
L 141.660383 350.46 
L 142.508665 349.515 
L 146.750076 349.515 
L 147.598358 348.57 
L 150.991487 348.57 
L 151.839769 347.625 
L 154.384615 347.625 
L 155.232898 346.68 
L 167.108848 346.68 
L 167.95713 345.735 
L 177.288234 345.735 
L 178.984798 343.845 
L 180.681362 343.845 
L 181.529644 342.9 
L 189.164184 342.9 
L 190.860748 341.01 
L 201.040134 341.01 
L 201.888416 340.065 
L 204.433262 340.065 
L 205.281545 339.12 
L 206.129827 339.12 
L 206.978109 338.175 
L 229.881727 338.175 
L 230.730009 337.23 
L 240.909395 337.23 
L 241.757677 336.285 
L 247.695652 336.285 
L 248.543934 335.34 
L 249.392216 333.45 
L 250.240499 333.45 
L 251.937063 331.56 
L 265.509577 331.56 
L 266.35786 330.615 
L 271.447552 330.615 
L 272.295835 329.67 
L 275.688963 329.67 
L 276.537245 328.725 
L 285.020067 328.725 
L 285.868349 327.78 
L 287.564913 327.78 
L 288.413195 326.835 
L 290.958042 326.835 
L 291.806324 325.89 
L 298.592581 325.89 
L 299.440863 324.945 
L 300.289146 324.945 
L 301.137428 324 
L 309.620249 324 
L 310.468531 323.055 
L 316.406507 323.055 
L 317.254789 322.11 
L 318.103071 322.11 
L 319.799635 320.22 
L 338.461843 320.22 
L 339.310125 319.275 
L 352.882639 319.275 
L 353.730921 318.33 
L 354.579203 318.33 
L 355.427486 317.385 
L 363.062025 317.385 
L 363.910307 316.44 
L 364.758589 316.44 
L 365.606871 315.495 
L 369.848282 315.495 
L 370.696564 314.55 
L 373.241411 314.55 
L 374.937975 312.66 
L 375.786257 312.66 
L 376.634539 311.715 
L 378.331104 311.715 
L 379.179386 310.77 
L 380.87595 310.77 
L 381.724232 309.825 
L 383.420797 309.825 
L 384.269079 308.88 
L 404.62785 308.88 
L 405.476133 307.935 
L 413.958954 307.935 
L 414.807236 306.99 
L 419.896929 306.99 
L 420.745211 306.045 
L 421.593493 306.045 
L 422.441776 305.1 
L 423.290058 305.1 
L 426.683186 301.32 
L 428.379751 301.32 
L 429.228033 299.43 
L 436.01429 299.43 
L 437.710854 297.54 
L 439.407419 297.54 
L 440.255701 296.595 
L 443.648829 296.595 
L 444.497112 295.65 
L 450.435087 295.65 
L 451.283369 294.705 
L 452.979933 294.705 
L 453.828215 293.76 
L 458.917908 293.76 
L 460.614472 291.87 
L 466.552448 291.87 
L 467.40073 290.925 
L 469.945576 290.925 
L 470.793858 289.98 
L 472.490423 289.98 
L 473.338705 288.09 
L 476.731833 288.09 
L 477.580116 286.2 
L 478.428398 285.255 
L 481.821526 285.255 
L 482.669808 283.365 
L 488.607784 283.365 
L 489.456066 282.42 
L 492.849194 282.42 
L 493.697476 281.475 
L 496.242323 281.475 
L 497.090605 280.53 
L 497.938887 278.64 
L 499.635452 278.64 
L 500.483734 277.695 
L 514.056248 277.695 
L 515.752812 275.805 
L 527.628763 275.805 
L 528.477045 274.86 
L 533.566738 274.86 
L 534.41502 273.915 
L 545.442688 273.915 
L 546.29097 272.97 
L 553.925509 272.97 
L 554.773791 272.025 
L 576.829127 272.025 
L 577.67741 271.08 
L 618.394953 271.08 
L 619.243235 270.135 
L 622.636364 270.135 
L 622.636364 270.135 
" clip-path="url(#pd4fe4ccf68)" style="fill: none; stroke: #1f77b4; stroke-width: 1.5; stroke-linecap: square"/>
   </g>
   <g id="line2d_38">
    <path d="M 115.363636 292.815 
L 116.211919 291.87 
L 118.756765 291.87 
L 119.605047 290.925 
L 120.453329 290.925 
L 121.301611 289.98 
L 122.149894 289.98 
L 123.846458 288.09 
L 124.69474 286.2 
L 125.543022 286.2 
L 127.239586 284.31 
L 128.087869 284.31 
L 128.936151 280.53 
L 129.784433 278.64 
L 130.632715 274.86 
L 131.480997 272.025 
L 134.025844 272.025 
L 134.874126 269.19 
L 135.722408 267.3 
L 137.418972 265.41 
L 138.267254 263.52 
L 139.963819 261.63 
L 140.812101 259.74 
L 143.356947 259.74 
L 144.20523 255.015 
L 145.053512 253.125 
L 145.901794 252.18 
L 146.750076 250.29 
L 147.598358 249.345 
L 148.44664 249.345 
L 149.294922 246.51 
L 150.143205 246.51 
L 150.991487 244.62 
L 151.839769 243.675 
L 152.688051 243.675 
L 153.536333 242.73 
L 155.232898 242.73 
L 156.08118 241.785 
L 157.777744 241.785 
L 158.626026 239.895 
L 159.474308 239.895 
L 160.32259 238.95 
L 163.715719 238.95 
L 164.564001 238.005 
L 167.108848 238.005 
L 167.95713 237.06 
L 168.805412 237.06 
L 169.653694 235.17 
L 170.501976 235.17 
L 171.350258 233.28 
L 172.198541 232.335 
L 174.743387 232.335 
L 175.591669 230.445 
L 176.439951 229.5 
L 177.288234 226.665 
L 178.984798 224.775 
L 185.771055 224.775 
L 186.619337 221.94 
L 187.467619 221.94 
L 189.164184 220.05 
L 190.012466 220.05 
L 192.557312 217.215 
L 194.253877 217.215 
L 195.102159 216.27 
L 196.798723 216.27 
L 199.343569 213.435 
L 201.040134 213.435 
L 201.888416 212.49 
L 206.129827 212.49 
L 206.978109 211.545 
L 208.674673 211.545 
L 209.522955 210.6 
L 219.702341 210.6 
L 220.550623 208.71 
L 222.247188 208.71 
L 223.943752 206.82 
L 224.792034 206.82 
L 225.640316 205.875 
L 230.730009 205.875 
L 233.274856 203.04 
L 234.123138 203.04 
L 234.97142 202.095 
L 235.819702 200.205 
L 236.667984 200.205 
L 237.516266 199.26 
L 238.364548 199.26 
L 241.757677 195.48 
L 243.454241 195.48 
L 244.302524 193.59 
L 246.84737 193.59 
L 247.695652 192.645 
L 250.240499 192.645 
L 251.088781 191.7 
L 251.937063 191.7 
L 252.785345 188.865 
L 255.330192 188.865 
L 256.178474 187.92 
L 257.026756 186.03 
L 258.72332 186.03 
L 259.571602 185.085 
L 261.268167 185.085 
L 262.116449 184.14 
L 262.964731 184.14 
L 267.206142 179.415 
L 268.902706 179.415 
L 271.447552 176.58 
L 273.992399 176.58 
L 274.840681 174.69 
L 275.688963 174.69 
L 276.537245 173.745 
L 279.082092 173.745 
L 279.930374 172.8 
L 287.564913 172.8 
L 288.413195 171.855 
L 294.351171 171.855 
L 295.199453 170.91 
L 296.896017 170.91 
L 298.592581 169.02 
L 302.833992 169.02 
L 303.682274 168.075 
L 307.923685 168.075 
L 310.468531 165.24 
L 321.496199 165.24 
L 322.344482 163.35 
L 323.192764 162.405 
L 343.551535 162.405 
L 344.399818 161.46 
L 349.48951 161.46 
L 351.186075 159.57 
L 352.882639 159.57 
L 353.730921 158.625 
L 354.579203 158.625 
L 356.275768 156.735 
L 357.12405 156.735 
L 357.972332 155.79 
L 358.820614 155.79 
L 360.517178 152.01 
L 361.365461 151.065 
L 365.606871 151.065 
L 366.455154 148.23 
L 367.303436 146.34 
L 369 146.34 
L 370.696564 144.45 
L 374.937975 144.45 
L 376.634539 142.56 
L 378.331104 142.56 
L 379.179386 141.615 
L 380.87595 141.615 
L 381.724232 140.67 
L 382.572514 140.67 
L 383.420797 139.725 
L 384.269079 139.725 
L 385.117361 138.78 
L 385.965643 138.78 
L 386.813925 137.835 
L 388.51049 137.835 
L 389.358772 135.945 
L 393.600182 135.945 
L 395.296747 134.055 
L 403.779568 134.055 
L 404.62785 133.11 
L 405.476133 133.11 
L 406.324415 132.165 
L 407.172697 132.165 
L 409.717543 129.33 
L 411.414108 129.33 
L 412.26239 128.385 
L 429.228033 128.385 
L 430.924597 126.495 
L 434.317726 126.495 
L 435.166008 125.55 
L 436.01429 125.55 
L 436.862572 124.605 
L 437.710854 124.605 
L 438.559137 123.66 
L 457.221344 123.66 
L 458.069626 122.715 
L 475.035269 122.715 
L 475.883551 120.825 
L 481.821526 120.825 
L 483.518091 118.935 
L 485.214655 118.935 
L 486.062937 117.99 
L 487.759501 117.99 
L 489.456066 116.1 
L 491.15263 116.1 
L 492.000912 114.21 
L 498.787169 114.21 
L 499.635452 113.265 
L 503.876862 113.265 
L 504.725144 112.32 
L 509.814837 112.32 
L 510.663119 111.375 
L 516.601095 111.375 
L 518.297659 109.485 
L 519.145941 109.485 
L 519.994223 108.54 
L 525.083916 108.54 
L 525.932198 107.595 
L 529.325327 107.595 
L 530.173609 106.65 
L 531.021891 106.65 
L 531.870173 105.705 
L 544.594406 105.705 
L 547.139252 102.87 
L 556.470356 102.87 
L 557.318638 101.925 
L 560.711766 101.925 
L 561.560049 100.035 
L 570.891152 100.035 
L 571.739434 98.145 
L 583.615385 98.145 
L 584.463667 97.2 
L 597.187899 97.2 
L 598.036181 95.31 
L 607.367285 95.31 
L 608.215567 94.365 
L 615.001824 94.365 
L 615.850106 93.42 
L 622.636364 93.42 
L 622.636364 93.42 
" clip-path="url(#pd4fe4ccf68)" style="fill: none; stroke: #ff7f0e; stroke-width: 1.5; stroke-linecap: square"/>
   </g>
   <g id="line2d_39">
    <path d="M 115.363636 341.01 
L 118.756765 341.01 
L 119.605047 339.12 
L 121.301611 339.12 
L 122.149894 338.175 
L 122.998176 336.285 
L 123.846458 335.34 
L 124.69474 332.505 
L 125.543022 330.615 
L 126.391304 329.67 
L 127.239586 329.67 
L 128.087869 327.78 
L 128.936151 324.945 
L 132.329279 324.945 
L 133.177562 324 
L 134.025844 324 
L 134.874126 322.11 
L 137.418972 322.11 
L 139.115537 320.22 
L 142.508665 320.22 
L 143.356947 319.275 
L 146.750076 319.275 
L 149.294922 316.44 
L 153.536333 316.44 
L 154.384615 315.495 
L 156.929462 315.495 
L 157.777744 314.55 
L 159.474308 314.55 
L 160.32259 312.66 
L 167.108848 312.66 
L 167.95713 311.715 
L 168.805412 309.825 
L 169.653694 308.88 
L 170.501976 308.88 
L 171.350258 307.935 
L 173.046823 307.935 
L 173.895105 306.99 
L 175.591669 306.99 
L 176.439951 306.045 
L 181.529644 306.045 
L 182.377926 305.1 
L 183.226209 305.1 
L 184.074491 304.155 
L 184.922773 304.155 
L 185.771055 303.21 
L 188.315901 303.21 
L 189.164184 302.265 
L 190.012466 300.375 
L 194.253877 300.375 
L 196.798723 297.54 
L 199.343569 297.54 
L 200.191852 296.595 
L 203.58498 296.595 
L 204.433262 295.65 
L 205.281545 295.65 
L 206.129827 294.705 
L 207.826391 294.705 
L 208.674673 293.76 
L 211.21952 293.76 
L 212.916084 291.87 
L 213.764366 291.87 
L 214.612648 290.925 
L 221.398905 290.925 
L 222.247188 289.035 
L 223.09547 288.09 
L 229.881727 288.09 
L 230.730009 287.145 
L 233.274856 287.145 
L 234.123138 286.2 
L 236.667984 286.2 
L 237.516266 285.255 
L 245.999088 285.255 
L 246.84737 284.31 
L 250.240499 284.31 
L 251.088781 283.365 
L 256.178474 283.365 
L 257.026756 282.42 
L 258.72332 282.42 
L 259.571602 281.475 
L 262.964731 281.475 
L 264.661295 279.585 
L 280.778656 279.585 
L 281.626938 278.64 
L 282.47522 278.64 
L 283.323503 277.695 
L 285.868349 277.695 
L 286.716631 276.75 
L 290.958042 276.75 
L 291.806324 275.805 
L 293.502888 275.805 
L 294.351171 274.86 
L 299.440863 274.86 
L 300.289146 275.805 
L 301.137428 274.86 
L 307.075403 274.86 
L 307.923685 273.915 
L 314.709942 273.915 
L 315.558224 272.97 
L 317.254789 272.97 
L 318.103071 272.025 
L 318.951353 272.025 
L 319.799635 271.08 
L 325.73761 271.08 
L 326.585892 270.135 
L 331.675585 270.135 
L 332.523867 269.19 
L 345.2481 269.19 
L 346.096382 268.245 
L 364.758589 268.245 
L 365.606871 267.3 
L 374.089693 267.3 
L 374.937975 266.355 
L 388.51049 266.355 
L 390.207054 264.465 
L 405.476133 264.465 
L 406.324415 263.52 
L 407.172697 261.63 
L 424.13834 261.63 
L 424.986622 260.685 
L 426.683186 260.685 
L 427.531469 259.74 
L 432.621161 259.74 
L 433.469444 258.795 
L 436.01429 258.795 
L 437.710854 256.905 
L 439.407419 256.905 
L 440.255701 255.96 
L 443.648829 255.96 
L 444.497112 254.07 
L 447.041958 254.07 
L 447.89024 253.125 
L 448.738522 253.125 
L 450.435087 251.235 
L 461.462755 251.235 
L 462.311037 250.29 
L 472.490423 250.29 
L 473.338705 248.4 
L 480.124962 248.4 
L 481.821526 246.51 
L 490.304348 246.51 
L 492.849194 243.675 
L 495.394041 243.675 
L 496.242323 242.73 
L 497.938887 242.73 
L 498.787169 241.785 
L 506.421709 241.785 
L 507.269991 240.84 
L 514.90453 240.84 
L 515.752812 239.895 
L 521.690787 239.895 
L 523.387352 238.005 
L 529.325327 238.005 
L 530.173609 237.06 
L 538.656431 237.06 
L 539.504713 236.115 
L 540.352995 236.115 
L 541.201277 235.17 
L 551.380663 235.17 
L 552.228945 234.225 
L 554.773791 234.225 
L 555.622074 233.28 
L 567.498024 233.28 
L 568.346306 232.335 
L 581.91882 232.335 
L 582.767102 230.445 
L 595.491335 230.445 
L 596.339617 228.555 
L 622.636364 228.555 
L 622.636364 228.555 
" clip-path="url(#pd4fe4ccf68)" style="fill: none; stroke: #2ca02c; stroke-width: 1.5; stroke-linecap: square"/>
   </g>
   <g id="line2d_40">
    <path d="M 115.363636 369.36 
L 324.889328 369.36 
L 325.73761 368.415 
L 505.573427 368.415 
L 506.421709 367.47 
L 622.636364 367.47 
L 622.636364 367.47 
" clip-path="url(#pd4fe4ccf68)" style="fill: none; stroke: #d62728; stroke-width: 1.5; stroke-linecap: square"/>
   </g>
   <g id="line2d_41">
    <path d="M 115.363636 348.57 
L 117.908483 348.57 
L 118.756765 347.625 
L 123.846458 347.625 
L 124.69474 346.68 
L 129.784433 346.68 
L 130.632715 345.735 
L 149.294922 345.735 
L 150.143205 344.79 
L 180.681362 344.79 
L 182.377926 342.9 
L 189.164184 342.9 
L 190.012466 341.955 
L 193.405594 341.955 
L 194.253877 341.01 
L 195.950441 341.01 
L 196.798723 340.065 
L 218.854059 340.065 
L 219.702341 339.12 
L 254.481909 339.12 
L 255.330192 338.175 
L 365.606871 338.175 
L 366.455154 337.23 
L 367.303436 337.23 
L 368.151718 336.285 
L 421.593493 336.285 
L 422.441776 335.34 
L 558.16692 335.34 
L 559.015202 334.395 
L 598.036181 334.395 
L 598.884463 333.45 
L 622.636364 333.45 
L 622.636364 333.45 
" clip-path="url(#pd4fe4ccf68)" style="fill: none; stroke: #9467bd; stroke-width: 1.5; stroke-linecap: square"/>
   </g>
   <g id="line2d_42">
    <path d="M 115.363636 356.13 
L 116.211919 356.13 
L 117.060201 355.185 
L 128.936151 355.185 
L 129.784433 354.24 
L 139.963819 354.24 
L 140.812101 353.295 
L 153.536333 353.295 
L 155.232898 351.405 
L 164.564001 351.405 
L 165.412283 350.46 
L 190.860748 350.46 
L 191.70903 349.515 
L 199.343569 349.515 
L 200.191852 348.57 
L 214.612648 348.57 
L 215.46093 347.625 
L 229.033445 347.625 
L 229.881727 346.68 
L 233.274856 346.68 
L 234.123138 345.735 
L 241.757677 345.735 
L 242.605959 344.79 
L 262.964731 344.79 
L 263.813013 343.845 
L 268.902706 343.845 
L 269.750988 342.9 
L 274.840681 342.9 
L 275.688963 341.955 
L 279.082092 341.955 
L 279.930374 341.01 
L 311.316814 341.01 
L 312.165096 340.065 
L 336.765278 340.065 
L 337.61356 339.12 
L 386.813925 339.12 
L 387.662207 338.175 
L 411.414108 338.175 
L 412.26239 337.23 
L 423.290058 337.23 
L 424.13834 336.285 
L 622.636364 336.285 
L 622.636364 336.285 
" clip-path="url(#pd4fe4ccf68)" style="fill: none; stroke: #8c564b; stroke-width: 1.5; stroke-linecap: square"/>
   </g>
   <g id="line2d_43">
    <path d="M 115.363636 286.2 
L 118.756765 286.2 
L 119.605047 285.255 
L 122.998176 285.255 
L 124.69474 283.365 
L 125.543022 283.365 
L 126.391304 282.42 
L 127.239586 282.42 
L 128.087869 281.475 
L 129.784433 281.475 
L 130.632715 280.53 
L 133.177562 280.53 
L 134.025844 279.585 
L 135.722408 279.585 
L 136.57069 278.64 
L 137.418972 278.64 
L 138.267254 277.695 
L 139.963819 277.695 
L 141.660383 275.805 
L 145.053512 275.805 
L 145.901794 274.86 
L 148.44664 274.86 
L 150.143205 272.97 
L 151.839769 272.97 
L 152.688051 272.025 
L 154.384615 272.025 
L 155.232898 271.08 
L 156.08118 269.19 
L 156.929462 266.355 
L 158.626026 266.355 
L 159.474308 265.41 
L 163.715719 265.41 
L 165.412283 263.52 
L 166.260566 261.63 
L 167.108848 260.685 
L 167.95713 260.685 
L 168.805412 258.795 
L 172.198541 258.795 
L 173.046823 257.85 
L 173.895105 257.85 
L 175.591669 255.96 
L 176.439951 255.96 
L 177.288234 255.015 
L 178.136516 255.015 
L 179.83308 253.125 
L 181.529644 253.125 
L 182.377926 251.235 
L 185.771055 251.235 
L 187.467619 249.345 
L 189.164184 249.345 
L 190.012466 248.4 
L 190.860748 246.51 
L 193.405594 246.51 
L 194.253877 245.565 
L 195.102159 245.565 
L 195.950441 243.675 
L 196.798723 243.675 
L 197.647005 242.73 
L 198.495287 242.73 
L 199.343569 241.785 
L 202.736698 241.785 
L 204.433262 239.895 
L 205.281545 239.895 
L 206.129827 238.005 
L 206.978109 238.005 
L 207.826391 237.06 
L 208.674673 237.06 
L 209.522955 236.115 
L 212.067802 236.115 
L 212.916084 235.17 
L 213.764366 235.17 
L 217.157495 231.39 
L 218.005777 229.5 
L 219.702341 229.5 
L 221.398905 225.72 
L 223.09547 225.72 
L 224.792034 223.83 
L 225.640316 223.83 
L 226.488598 221.94 
L 227.336881 221.94 
L 228.185163 220.995 
L 229.033445 220.995 
L 229.881727 220.05 
L 231.578291 220.05 
L 232.426573 219.105 
L 233.274856 219.105 
L 234.123138 218.16 
L 237.516266 218.16 
L 238.364548 213.435 
L 239.212831 213.435 
L 240.061113 212.49 
L 242.605959 212.49 
L 243.454241 211.545 
L 251.088781 211.545 
L 251.937063 209.655 
L 255.330192 209.655 
L 256.178474 208.71 
L 264.661295 208.71 
L 265.509577 206.82 
L 266.35786 205.875 
L 270.59927 205.875 
L 271.447552 204.93 
L 277.385528 204.93 
L 278.23381 203.985 
L 279.082092 203.985 
L 279.930374 203.04 
L 285.020067 203.04 
L 286.716631 201.15 
L 292.654606 201.15 
L 294.351171 199.26 
L 295.199453 199.26 
L 296.047735 198.315 
L 301.137428 198.315 
L 301.98571 197.37 
L 304.530556 197.37 
L 305.378839 196.425 
L 306.227121 194.535 
L 308.771967 194.535 
L 309.620249 193.59 
L 310.468531 193.59 
L 312.165096 191.7 
L 315.558224 191.7 
L 316.406507 190.755 
L 319.799635 190.755 
L 320.647917 189.81 
L 323.192764 189.81 
L 324.041046 188.865 
L 330.827303 188.865 
L 332.523867 186.975 
L 336.765278 186.975 
L 337.61356 186.03 
L 341.006689 186.03 
L 345.2481 181.305 
L 346.944664 181.305 
L 347.792946 180.36 
L 348.641228 180.36 
L 349.48951 178.47 
L 351.186075 176.58 
L 352.882639 172.8 
L 354.579203 172.8 
L 356.275768 169.02 
L 357.972332 169.02 
L 358.820614 167.13 
L 360.517178 165.24 
L 363.062025 165.24 
L 363.910307 164.295 
L 364.758589 164.295 
L 366.455154 162.405 
L 369.848282 162.405 
L 370.696564 161.46 
L 372.393129 161.46 
L 373.241411 160.515 
L 377.482822 160.515 
L 378.331104 158.625 
L 379.179386 157.68 
L 380.027668 157.68 
L 380.87595 156.735 
L 382.572514 156.735 
L 383.420797 155.79 
L 385.117361 155.79 
L 385.965643 153.9 
L 387.662207 153.9 
L 388.51049 152.955 
L 389.358772 152.955 
L 390.207054 152.01 
L 394.448465 152.01 
L 395.296747 151.065 
L 399.538157 151.065 
L 400.38644 150.12 
L 401.234722 150.12 
L 402.083004 148.23 
L 403.779568 146.34 
L 404.62785 143.505 
L 405.476133 142.56 
L 406.324415 142.56 
L 407.172697 141.615 
L 408.020979 141.615 
L 408.869261 140.67 
L 412.26239 140.67 
L 413.110672 139.725 
L 414.807236 139.725 
L 415.655518 138.78 
L 417.352083 138.78 
L 419.048647 136.89 
L 421.593493 136.89 
L 422.441776 135.945 
L 426.683186 135.945 
L 427.531469 134.055 
L 431.772879 134.055 
L 432.621161 133.11 
L 435.166008 133.11 
L 436.01429 131.22 
L 439.407419 131.22 
L 440.255701 130.275 
L 447.89024 130.275 
L 448.738522 129.33 
L 450.435087 129.33 
L 451.283369 128.385 
L 457.221344 128.385 
L 458.069626 127.44 
L 458.917908 127.44 
L 459.76619 126.495 
L 460.614472 126.495 
L 461.462755 125.55 
L 466.552448 125.55 
L 468.249012 123.66 
L 480.124962 123.66 
L 480.973244 122.715 
L 481.821526 122.715 
L 483.518091 120.825 
L 484.366373 120.825 
L 485.214655 119.88 
L 495.394041 119.88 
L 496.242323 118.935 
L 497.090605 117.045 
L 498.787169 117.045 
L 499.635452 116.1 
L 503.876862 116.1 
L 504.725144 115.155 
L 505.573427 115.155 
L 507.269991 113.265 
L 511.511402 113.265 
L 512.359684 112.32 
L 514.90453 112.32 
L 515.752812 111.375 
L 517.449377 111.375 
L 518.297659 110.43 
L 519.994223 110.43 
L 520.842505 109.485 
L 521.690787 109.485 
L 522.53907 107.595 
L 528.477045 107.595 
L 529.325327 104.76 
L 530.173609 102.87 
L 531.021891 102.87 
L 534.41502 99.09 
L 535.263302 97.2 
L 536.959866 97.2 
L 537.808148 95.31 
L 544.594406 95.31 
L 546.29097 93.42 
L 547.139252 91.53 
L 547.987534 90.585 
L 550.532381 90.585 
L 551.380663 88.695 
L 552.228945 87.75 
L 553.077227 87.75 
L 553.925509 84.915 
L 554.773791 83.97 
L 559.015202 83.97 
L 559.863484 82.08 
L 560.711766 82.08 
L 561.560049 81.135 
L 564.104895 81.135 
L 564.953177 79.245 
L 566.649742 79.245 
L 567.498024 78.3 
L 568.346306 78.3 
L 569.194588 77.355 
L 570.04287 74.52 
L 571.739434 74.52 
L 573.435999 72.63 
L 583.615385 72.63 
L 584.463667 71.685 
L 585.311949 71.685 
L 587.008513 69.795 
L 592.946488 69.795 
L 593.79477 68.85 
L 609.063849 68.85 
L 609.912131 67.905 
L 619.243235 67.905 
L 620.091517 66.96 
L 622.636364 66.96 
L 622.636364 66.96 
" clip-path="url(#pd4fe4ccf68)" style="fill: none; stroke: #e377c2; stroke-width: 1.5; stroke-linecap: square"/>
   </g>
   <g id="line2d_44">
    <path d="M 115.363636 344.79 
L 116.211919 344.79 
L 117.908483 342.9 
L 122.149894 342.9 
L 122.998176 341.955 
L 123.846458 341.955 
L 125.543022 340.065 
L 127.239586 340.065 
L 128.087869 339.12 
L 130.632715 339.12 
L 131.480997 338.175 
L 132.329279 338.175 
L 133.177562 337.23 
L 134.025844 337.23 
L 135.722408 335.34 
L 138.267254 335.34 
L 139.115537 334.395 
L 140.812101 334.395 
L 142.508665 332.505 
L 144.20523 332.505 
L 145.901794 330.615 
L 146.750076 330.615 
L 147.598358 329.67 
L 148.44664 326.835 
L 151.839769 326.835 
L 155.232898 323.055 
L 156.08118 323.055 
L 157.777744 321.165 
L 158.626026 321.165 
L 159.474308 320.22 
L 160.32259 320.22 
L 161.170873 319.275 
L 168.805412 319.275 
L 169.653694 318.33 
L 178.136516 318.33 
L 179.83308 316.44 
L 182.377926 316.44 
L 183.226209 315.495 
L 184.922773 315.495 
L 186.619337 313.605 
L 188.315901 313.605 
L 189.164184 311.715 
L 191.70903 311.715 
L 192.557312 309.825 
L 193.405594 308.88 
L 197.647005 308.88 
L 198.495287 307.935 
L 199.343569 307.935 
L 201.040134 306.045 
L 205.281545 306.045 
L 206.129827 305.1 
L 206.978109 305.1 
L 207.826391 304.155 
L 212.916084 304.155 
L 213.764366 303.21 
L 216.309213 303.21 
L 217.157495 302.265 
L 218.005777 302.265 
L 218.854059 299.43 
L 219.702341 299.43 
L 220.550623 297.54 
L 221.398905 296.595 
L 222.247188 296.595 
L 223.943752 294.705 
L 225.640316 294.705 
L 226.488598 293.76 
L 228.185163 293.76 
L 229.033445 292.815 
L 229.881727 292.815 
L 230.730009 290.925 
L 231.578291 290.925 
L 232.426573 289.98 
L 234.123138 289.98 
L 235.819702 288.09 
L 236.667984 288.09 
L 237.516266 286.2 
L 238.364548 285.255 
L 244.302524 285.255 
L 245.150806 283.365 
L 247.695652 283.365 
L 248.543934 282.42 
L 249.392216 282.42 
L 250.240499 281.475 
L 252.785345 281.475 
L 253.633627 280.53 
L 257.875038 280.53 
L 258.72332 279.585 
L 260.419884 279.585 
L 261.268167 278.64 
L 265.509577 278.64 
L 266.35786 277.695 
L 273.992399 277.695 
L 275.688963 275.805 
L 276.537245 275.805 
L 277.385528 274.86 
L 278.23381 274.86 
L 279.082092 273.915 
L 279.930374 273.915 
L 280.778656 272.97 
L 282.47522 272.97 
L 283.323503 272.025 
L 284.171785 272.025 
L 285.868349 270.135 
L 288.413195 270.135 
L 289.261478 269.19 
L 291.806324 269.19 
L 292.654606 268.245 
L 298.592581 268.245 
L 299.440863 267.3 
L 300.289146 267.3 
L 301.137428 266.355 
L 304.530556 266.355 
L 305.378839 264.465 
L 310.468531 264.465 
L 311.316814 263.52 
L 312.165096 263.52 
L 313.013378 261.63 
L 317.254789 261.63 
L 318.103071 260.685 
L 323.192764 260.685 
L 324.041046 259.74 
L 335.068714 259.74 
L 335.916996 258.795 
L 348.641228 258.795 
L 349.48951 257.85 
L 353.730921 257.85 
L 354.579203 256.905 
L 355.427486 256.905 
L 356.275768 255.96 
L 357.12405 255.96 
L 357.972332 254.07 
L 358.820614 254.07 
L 360.517178 252.18 
L 366.455154 252.18 
L 367.303436 251.235 
L 368.151718 251.235 
L 369 250.29 
L 369.848282 250.29 
L 370.696564 249.345 
L 374.937975 249.345 
L 375.786257 248.4 
L 383.420797 248.4 
L 384.269079 247.455 
L 388.51049 247.455 
L 389.358772 246.51 
L 393.600182 246.51 
L 394.448465 245.565 
L 396.145029 245.565 
L 398.689875 242.73 
L 400.38644 242.73 
L 401.234722 240.84 
L 405.476133 240.84 
L 407.172697 238.95 
L 408.869261 238.95 
L 409.717543 238.005 
L 410.565825 238.005 
L 412.26239 236.115 
L 418.200365 236.115 
L 419.048647 235.17 
L 420.745211 235.17 
L 421.593493 234.225 
L 428.379751 234.225 
L 430.076315 232.335 
L 432.621161 232.335 
L 433.469444 231.39 
L 434.317726 231.39 
L 435.166008 228.555 
L 436.01429 227.61 
L 439.407419 227.61 
L 440.255701 225.72 
L 442.800547 225.72 
L 443.648829 224.775 
L 452.131651 224.775 
L 452.979933 223.83 
L 461.462755 223.83 
L 463.159319 221.94 
L 469.097294 221.94 
L 469.945576 220.995 
L 484.366373 220.995 
L 487.759501 217.215 
L 491.15263 217.215 
L 492.000912 216.27 
L 498.787169 216.27 
L 499.635452 215.325 
L 502.180298 215.325 
L 503.02858 214.38 
L 503.876862 214.38 
L 504.725144 213.435 
L 509.814837 213.435 
L 511.511402 211.545 
L 513.207966 211.545 
L 514.056248 210.6 
L 518.297659 210.6 
L 519.145941 209.655 
L 519.994223 209.655 
L 520.842505 207.765 
L 530.173609 207.765 
L 531.870173 205.875 
L 534.41502 205.875 
L 535.263302 204.93 
L 539.504713 204.93 
L 540.352995 203.985 
L 546.29097 203.985 
L 547.139252 203.04 
L 560.711766 203.04 
L 561.560049 202.095 
L 562.408331 202.095 
L 563.256613 200.205 
L 592.946488 200.205 
L 593.79477 198.315 
L 597.187899 198.315 
L 598.036181 197.37 
L 600.581028 197.37 
L 601.42931 196.425 
L 622.636364 196.425 
L 622.636364 196.425 
" clip-path="url(#pd4fe4ccf68)" style="fill: none; stroke: #7f7f7f; stroke-width: 1.5; stroke-linecap: square"/>
   </g>
   <g id="line2d_45">
    <path d="M 115.363636 350.46 
L 118.756765 350.46 
L 119.605047 349.515 
L 128.087869 349.515 
L 128.936151 348.57 
L 133.177562 348.57 
L 134.025844 347.625 
L 142.508665 347.625 
L 143.356947 346.68 
L 151.839769 346.68 
L 152.688051 345.735 
L 198.495287 345.735 
L 199.343569 344.79 
L 203.58498 344.79 
L 204.433262 343.845 
L 210.371237 343.845 
L 211.21952 342.9 
L 212.067802 342.9 
L 212.916084 340.065 
L 213.764366 339.12 
L 215.46093 339.12 
L 216.309213 338.175 
L 224.792034 338.175 
L 225.640316 337.23 
L 233.274856 337.23 
L 234.123138 336.285 
L 243.454241 336.285 
L 244.302524 335.34 
L 254.481909 335.34 
L 255.330192 334.395 
L 259.571602 334.395 
L 260.419884 333.45 
L 287.564913 333.45 
L 288.413195 332.505 
L 290.10976 332.505 
L 290.958042 331.56 
L 297.744299 331.56 
L 298.592581 330.615 
L 322.344482 330.615 
L 324.889328 327.78 
L 349.48951 327.78 
L 350.337793 326.835 
L 351.186075 326.835 
L 352.882639 324.945 
L 354.579203 324.945 
L 355.427486 324 
L 398.689875 324 
L 399.538157 323.055 
L 448.738522 323.055 
L 449.586805 322.11 
L 485.214655 322.11 
L 486.062937 321.165 
L 490.304348 321.165 
L 491.15263 320.22 
L 503.02858 320.22 
L 503.876862 319.275 
L 520.842505 319.275 
L 521.690787 318.33 
L 603.974156 318.33 
L 604.822438 317.385 
L 622.636364 317.385 
L 622.636364 317.385 
" clip-path="url(#pd4fe4ccf68)" style="fill: none; stroke: #bcbd22; stroke-width: 1.5; stroke-linecap: square"/>
   </g>
   <g id="line2d_46">
    <path d="M 115.363636 367.47 
L 157.777744 367.47 
L 158.626026 366.525 
L 212.067802 366.525 
L 212.916084 365.58 
L 299.440863 365.58 
L 300.289146 364.635 
L 301.137428 365.58 
L 403.779568 365.58 
L 404.62785 364.635 
L 410.565825 364.635 
L 411.414108 363.69 
L 432.621161 363.69 
L 433.469444 362.745 
L 622.636364 362.745 
L 622.636364 362.745 
" clip-path="url(#pd4fe4ccf68)" style="fill: none; stroke: #17becf; stroke-width: 1.5; stroke-linecap: square"/>
   </g>
   <g id="line2d_47">
    <path d="M 115.363636 369.36 
L 116.211919 368.415 
L 117.908483 368.415 
L 118.756765 367.47 
L 124.69474 367.47 
L 125.543022 366.525 
L 128.087869 366.525 
L 128.936151 365.58 
L 129.784433 365.58 
L 131.480997 363.69 
L 135.722408 363.69 
L 137.418972 361.8 
L 138.267254 361.8 
L 139.115537 360.855 
L 145.053512 360.855 
L 145.901794 359.91 
L 146.750076 358.02 
L 148.44664 358.02 
L 149.294922 357.075 
L 150.143205 357.075 
L 150.991487 356.13 
L 151.839769 356.13 
L 152.688051 355.185 
L 153.536333 355.185 
L 155.232898 353.295 
L 160.32259 353.295 
L 162.019155 351.405 
L 164.564001 351.405 
L 165.412283 350.46 
L 166.260566 350.46 
L 167.108848 348.57 
L 169.653694 348.57 
L 171.350258 344.79 
L 176.439951 344.79 
L 177.288234 342.9 
L 178.136516 341.955 
L 180.681362 341.955 
L 181.529644 341.01 
L 182.377926 339.12 
L 184.074491 339.12 
L 184.922773 338.175 
L 196.798723 338.175 
L 197.647005 336.285 
L 203.58498 329.67 
L 212.067802 329.67 
L 214.612648 326.835 
L 216.309213 326.835 
L 217.157495 324.945 
L 218.854059 324.945 
L 219.702341 324 
L 222.247188 324 
L 223.09547 323.055 
L 223.943752 323.055 
L 224.792034 322.11 
L 225.640316 322.11 
L 227.336881 320.22 
L 238.364548 320.22 
L 240.061113 318.33 
L 246.84737 318.33 
L 247.695652 317.385 
L 250.240499 317.385 
L 251.937063 315.495 
L 254.481909 315.495 
L 255.330192 314.55 
L 257.026756 314.55 
L 257.875038 313.605 
L 262.116449 313.605 
L 262.964731 312.66 
L 263.813013 312.66 
L 264.661295 310.77 
L 265.509577 310.77 
L 266.35786 309.825 
L 270.59927 309.825 
L 271.447552 308.88 
L 273.144117 308.88 
L 273.992399 307.935 
L 274.840681 307.935 
L 276.537245 306.045 
L 282.47522 306.045 
L 283.323503 305.1 
L 284.171785 305.1 
L 285.020067 304.155 
L 289.261478 304.155 
L 290.10976 302.265 
L 290.958042 301.32 
L 295.199453 301.32 
L 296.047735 300.375 
L 299.440863 300.375 
L 300.289146 298.485 
L 303.682274 298.485 
L 305.378839 296.595 
L 307.923685 296.595 
L 308.771967 295.65 
L 318.951353 295.65 
L 319.799635 293.76 
L 320.647917 292.815 
L 327.434175 292.815 
L 328.282457 291.87 
L 343.551535 291.87 
L 344.399818 290.925 
L 346.096382 290.925 
L 346.944664 289.98 
L 349.48951 289.98 
L 350.337793 289.035 
L 361.365461 289.035 
L 362.213743 287.145 
L 363.910307 287.145 
L 364.758589 286.2 
L 365.606871 286.2 
L 366.455154 285.255 
L 369.848282 285.255 
L 370.696564 284.31 
L 376.634539 284.31 
L 377.482822 282.42 
L 378.331104 282.42 
L 379.179386 281.475 
L 383.420797 281.475 
L 384.269079 280.53 
L 388.51049 280.53 
L 390.207054 278.64 
L 391.903618 278.64 
L 392.7519 277.695 
L 394.448465 277.695 
L 395.296747 276.75 
L 396.145029 276.75 
L 396.993311 275.805 
L 402.931286 275.805 
L 403.779568 274.86 
L 423.290058 274.86 
L 424.13834 273.915 
L 428.379751 273.915 
L 429.228033 272.97 
L 438.559137 272.97 
L 439.407419 272.025 
L 476.731833 272.025 
L 477.580116 271.08 
L 482.669808 271.08 
L 483.518091 270.135 
L 484.366373 270.135 
L 485.214655 269.19 
L 496.242323 269.19 
L 497.090605 268.245 
L 513.207966 268.245 
L 514.056248 267.3 
L 517.449377 267.3 
L 518.297659 266.355 
L 522.53907 266.355 
L 523.387352 265.41 
L 528.477045 265.41 
L 529.325327 264.465 
L 534.41502 264.465 
L 535.263302 263.52 
L 540.352995 263.52 
L 541.201277 260.685 
L 542.049559 259.74 
L 547.987534 259.74 
L 548.835816 258.795 
L 553.077227 258.795 
L 553.925509 257.85 
L 558.16692 257.85 
L 559.015202 256.905 
L 564.104895 256.905 
L 564.953177 255.96 
L 578.525692 255.96 
L 579.373974 254.07 
L 580.222256 254.07 
L 581.070538 253.125 
L 581.91882 253.125 
L 582.767102 252.18 
L 583.615385 252.18 
L 584.463667 251.235 
L 597.187899 251.235 
L 598.036181 250.29 
L 602.277592 250.29 
L 603.125874 249.345 
L 618.394953 249.345 
L 619.243235 248.4 
L 622.636364 248.4 
L 622.636364 248.4 
" clip-path="url(#pd4fe4ccf68)" style="fill: none; stroke: #1f77b4; stroke-width: 1.5; stroke-linecap: square"/>
   </g>
   <g id="line2d_48">
    <path d="M 115.363636 334.395 
L 121.301611 334.395 
L 122.149894 333.45 
L 124.69474 333.45 
L 125.543022 332.505 
L 128.936151 332.505 
L 129.784433 331.56 
L 132.329279 331.56 
L 133.177562 330.615 
L 134.025844 330.615 
L 134.874126 329.67 
L 137.418972 329.67 
L 138.267254 328.725 
L 139.963819 328.725 
L 140.812101 327.78 
L 141.660383 327.78 
L 143.356947 325.89 
L 148.44664 325.89 
L 149.294922 324.945 
L 150.143205 324.945 
L 150.991487 324 
L 151.839769 324 
L 152.688051 322.11 
L 153.536333 319.275 
L 154.384615 318.33 
L 157.777744 318.33 
L 160.32259 315.495 
L 162.867437 315.495 
L 164.564001 313.605 
L 173.895105 313.605 
L 174.743387 310.77 
L 175.591669 310.77 
L 177.288234 306.99 
L 178.984798 305.1 
L 179.83308 305.1 
L 180.681362 303.21 
L 187.467619 303.21 
L 188.315901 301.32 
L 190.860748 301.32 
L 191.70903 300.375 
L 197.647005 300.375 
L 198.495287 299.43 
L 208.674673 299.43 
L 209.522955 298.485 
L 210.371237 298.485 
L 211.21952 297.54 
L 213.764366 297.54 
L 214.612648 296.595 
L 224.792034 296.595 
L 225.640316 295.65 
L 227.336881 295.65 
L 229.033445 291.87 
L 230.730009 291.87 
L 232.426573 289.98 
L 234.123138 289.98 
L 234.97142 289.035 
L 237.516266 289.035 
L 238.364548 288.09 
L 248.543934 288.09 
L 249.392216 287.145 
L 262.116449 287.145 
L 262.964731 286.2 
L 270.59927 286.2 
L 271.447552 285.255 
L 273.144117 285.255 
L 273.992399 284.31 
L 276.537245 284.31 
L 278.23381 282.42 
L 279.082092 282.42 
L 279.930374 281.475 
L 283.323503 281.475 
L 285.020067 279.585 
L 289.261478 279.585 
L 290.10976 278.64 
L 292.654606 278.64 
L 293.502888 277.695 
L 297.744299 277.695 
L 298.592581 276.75 
L 302.833992 276.75 
L 303.682274 275.805 
L 318.951353 275.805 
L 319.799635 274.86 
L 320.647917 274.86 
L 321.496199 273.915 
L 329.979021 273.915 
L 330.827303 272.025 
L 331.675585 272.025 
L 332.523867 271.08 
L 341.006689 271.08 
L 341.854971 270.135 
L 345.2481 270.135 
L 346.096382 269.19 
L 346.944664 269.19 
L 347.792946 268.245 
L 355.427486 268.245 
L 356.275768 267.3 
L 373.241411 267.3 
L 374.089693 264.465 
L 380.027668 264.465 
L 380.87595 263.52 
L 382.572514 263.52 
L 383.420797 262.575 
L 393.600182 262.575 
L 394.448465 261.63 
L 406.324415 261.63 
L 407.172697 260.685 
L 409.717543 260.685 
L 410.565825 259.74 
L 417.352083 259.74 
L 418.200365 257.85 
L 431.772879 257.85 
L 432.621161 256.905 
L 436.862572 256.905 
L 437.710854 255.96 
L 450.435087 255.96 
L 451.283369 255.015 
L 452.979933 255.015 
L 453.828215 254.07 
L 462.311037 254.07 
L 463.159319 253.125 
L 472.490423 253.125 
L 473.338705 252.18 
L 484.366373 252.18 
L 485.214655 251.235 
L 495.394041 251.235 
L 496.242323 250.29 
L 502.180298 250.29 
L 503.02858 249.345 
L 511.511402 249.345 
L 514.056248 246.51 
L 515.752812 246.51 
L 516.601095 245.565 
L 517.449377 245.565 
L 519.145941 243.675 
L 522.53907 243.675 
L 523.387352 242.73 
L 525.083916 242.73 
L 525.932198 240.84 
L 526.78048 239.895 
L 536.959866 239.895 
L 537.808148 238.95 
L 545.442688 238.95 
L 546.29097 238.005 
L 554.773791 238.005 
L 555.622074 237.06 
L 559.863484 237.06 
L 560.711766 235.17 
L 581.070538 235.17 
L 581.91882 234.225 
L 611.608696 234.225 
L 612.456978 233.28 
L 622.636364 233.28 
L 622.636364 233.28 
" clip-path="url(#pd4fe4ccf68)" style="fill: none; stroke: #ff7f0e; stroke-width: 1.5; stroke-linecap: square"/>
   </g>
   <g id="patch_3">
    <path d="M 90 384.48 
L 90 51.84 
" style="fill: none; stroke: #000000; stroke-width: 0.8; stroke-linejoin: miter; stroke-linecap: square"/>
   </g>
   <g id="patch_4">
    <path d="M 648 384.48 
L 648 51.84 
" style="fill: none; stroke: #000000; stroke-width: 0.8; stroke-linejoin: miter; stroke-linecap: square"/>
   </g>
   <g id="patch_5">
    <path d="M 90 384.48 
L 648 384.48 
" style="fill: none; stroke: #000000; stroke-width: 0.8; stroke-linejoin: miter; stroke-linecap: square"/>
   </g>
   <g id="patch_6">
    <path d="M 90 51.84 
L 648 51.84 
" style="fill: none; stroke: #000000; stroke-width: 0.8; stroke-linejoin: miter; stroke-linecap: square"/>
   </g>
   <g id="text_21">
    <!-- Time Series of Votes for Each Keyword -->
    <g transform="translate(253.716563 45.84) scale(0.12 -0.12)">
     <defs>
      <path id="DejaVuSans-53" d="M 3425 4513 
L 3425 3897 
Q 3066 4069 2747 4153 
Q 2428 4238 2131 4238 
Q 1616 4238 1336 4038 
Q 1056 3838 1056 3469 
Q 1056 3159 1242 3001 
Q 1428 2844 1947 2747 
L 2328 2669 
Q 3034 2534 3370 2195 
Q 3706 1856 3706 1288 
Q 3706 609 3251 259 
Q 2797 -91 1919 -91 
Q 1588 -91 1214 -16 
Q 841 59 441 206 
L 441 856 
Q 825 641 1194 531 
Q 1563 422 1919 422 
Q 2459 422 2753 634 
Q 3047 847 3047 1241 
Q 3047 1584 2836 1778 
Q 2625 1972 2144 2069 
L 1759 2144 
Q 1053 2284 737 2584 
Q 422 2884 422 3419 
Q 422 4038 858 4394 
Q 1294 4750 2059 4750 
Q 2388 4750 2728 4690 
Q 3069 4631 3425 4513 
z
" transform="scale(0.015625)"/>
      <path id="DejaVuSans-72" d="M 2631 2963 
Q 2534 3019 2420 3045 
Q 2306 3072 2169 3072 
Q 1681 3072 1420 2755 
Q 1159 2438 1159 1844 
L 1159 0 
L 581 0 
L 581 3500 
L 1159 3500 
L 1159 2956 
Q 1341 3275 1631 3429 
Q 1922 3584 2338 3584 
Q 2397 3584 2469 3576 
Q 2541 3569 2628 3553 
L 2631 2963 
z
" transform="scale(0.015625)"/>
      <path id="DejaVuSans-66" d="M 2375 4863 
L 2375 4384 
L 1825 4384 
Q 1516 4384 1395 4259 
Q 1275 4134 1275 3809 
L 1275 3500 
L 2222 3500 
L 2222 3053 
L 1275 3053 
L 1275 0 
L 697 0 
L 697 3053 
L 147 3053 
L 147 3500 
L 697 3500 
L 697 3744 
Q 697 4328 969 4595 
Q 1241 4863 1831 4863 
L 2375 4863 
z
" transform="scale(0.015625)"/>
      <path id="DejaVuSans-45" d="M 628 4666 
L 3578 4666 
L 3578 4134 
L 1259 4134 
L 1259 2753 
L 3481 2753 
L 3481 2222 
L 1259 2222 
L 1259 531 
L 3634 531 
L 3634 0 
L 628 0 
L 628 4666 
z
" transform="scale(0.015625)"/>
      <path id="DejaVuSans-63" d="M 3122 3366 
L 3122 2828 
Q 2878 2963 2633 3030 
Q 2388 3097 2138 3097 
Q 1578 3097 1268 2742 
Q 959 2388 959 1747 
Q 959 1106 1268 751 
Q 1578 397 2138 397 
Q 2388 397 2633 464 
Q 2878 531 3122 666 
L 3122 134 
Q 2881 22 2623 -34 
Q 2366 -91 2075 -91 
Q 1284 -91 818 406 
Q 353 903 353 1747 
Q 353 2603 823 3093 
Q 1294 3584 2113 3584 
Q 2378 3584 2631 3529 
Q 2884 3475 3122 3366 
z
" transform="scale(0.015625)"/>
      <path id="DejaVuSans-68" d="M 3513 2113 
L 3513 0 
L 2938 0 
L 2938 2094 
Q 2938 2591 2744 2837 
Q 2550 3084 2163 3084 
Q 1697 3084 1428 2787 
Q 1159 2491 1159 1978 
L 1159 0 
L 581 0 
L 581 4863 
L 1159 4863 
L 1159 2956 
Q 1366 3272 1645 3428 
Q 1925 3584 2291 3584 
Q 2894 3584 3203 3211 
Q 3513 2838 3513 2113 
z
" transform="scale(0.015625)"/>
      <path id="DejaVuSans-4b" d="M 628 4666 
L 1259 4666 
L 1259 2694 
L 3353 4666 
L 4166 4666 
L 1850 2491 
L 4331 0 
L 3500 0 
L 1259 2247 
L 1259 0 
L 628 0 
L 628 4666 
z
" transform="scale(0.015625)"/>
      <path id="DejaVuSans-79" d="M 2059 -325 
Q 1816 -950 1584 -1140 
Q 1353 -1331 966 -1331 
L 506 -1331 
L 506 -850 
L 844 -850 
Q 1081 -850 1212 -737 
Q 1344 -625 1503 -206 
L 1606 56 
L 191 3500 
L 800 3500 
L 1894 763 
L 2988 3500 
L 3597 3500 
L 2059 -325 
z
" transform="scale(0.015625)"/>
      <path id="DejaVuSans-77" d="M 269 3500 
L 844 3500 
L 1563 769 
L 2278 3500 
L 2956 3500 
L 3675 769 
L 4391 3500 
L 4966 3500 
L 4050 0 
L 3372 0 
L 2619 2869 
L 1863 0 
L 1184 0 
L 269 3500 
z
" transform="scale(0.015625)"/>
     </defs>
     <use xlink:href="#DejaVuSans-54"/>
     <use xlink:href="#DejaVuSans-69" transform="translate(57.958984 0)"/>
     <use xlink:href="#DejaVuSans-6d" transform="translate(85.742188 0)"/>
     <use xlink:href="#DejaVuSans-65" transform="translate(183.154297 0)"/>
     <use xlink:href="#DejaVuSans-20" transform="translate(244.677734 0)"/>
     <use xlink:href="#DejaVuSans-53" transform="translate(276.464844 0)"/>
     <use xlink:href="#DejaVuSans-65" transform="translate(339.941406 0)"/>
     <use xlink:href="#DejaVuSans-72" transform="translate(401.464844 0)"/>
     <use xlink:href="#DejaVuSans-69" transform="translate(442.578125 0)"/>
     <use xlink:href="#DejaVuSans-65" transform="translate(470.361328 0)"/>
     <use xlink:href="#DejaVuSans-73" transform="translate(531.884766 0)"/>
     <use xlink:href="#DejaVuSans-20" transform="translate(583.984375 0)"/>
     <use xlink:href="#DejaVuSans-6f" transform="translate(615.771484 0)"/>
     <use xlink:href="#DejaVuSans-66" transform="translate(676.953125 0)"/>
     <use xlink:href="#DejaVuSans-20" transform="translate(712.158203 0)"/>
     <use xlink:href="#DejaVuSans-56" transform="translate(743.945312 0)"/>
     <use xlink:href="#DejaVuSans-6f" transform="translate(804.603516 0)"/>
     <use xlink:href="#DejaVuSans-74" transform="translate(865.785156 0)"/>
     <use xlink:href="#DejaVuSans-65" transform="translate(904.994141 0)"/>
     <use xlink:href="#DejaVuSans-73" transform="translate(966.517578 0)"/>
     <use xlink:href="#DejaVuSans-20" transform="translate(1018.617188 0)"/>
     <use xlink:href="#DejaVuSans-66" transform="translate(1050.404297 0)"/>
     <use xlink:href="#DejaVuSans-6f" transform="translate(1085.609375 0)"/>
     <use xlink:href="#DejaVuSans-72" transform="translate(1146.791016 0)"/>
     <use xlink:href="#DejaVuSans-20" transform="translate(1187.904297 0)"/>
     <use xlink:href="#DejaVuSans-45" transform="translate(1219.691406 0)"/>
     <use xlink:href="#DejaVuSans-61" transform="translate(1282.875 0)"/>
     <use xlink:href="#DejaVuSans-63" transform="translate(1344.154297 0)"/>
     <use xlink:href="#DejaVuSans-68" transform="translate(1399.134766 0)"/>
     <use xlink:href="#DejaVuSans-20" transform="translate(1462.513672 0)"/>
     <use xlink:href="#DejaVuSans-4b" transform="translate(1494.300781 0)"/>
     <use xlink:href="#DejaVuSans-65" transform="translate(1554.876953 0)"/>
     <use xlink:href="#DejaVuSans-79" transform="translate(1616.400391 0)"/>
     <use xlink:href="#DejaVuSans-77" transform="translate(1675.580078 0)"/>
     <use xlink:href="#DejaVuSans-6f" transform="translate(1757.367188 0)"/>
     <use xlink:href="#DejaVuSans-72" transform="translate(1818.548828 0)"/>
     <use xlink:href="#DejaVuSans-64" transform="translate(1857.912109 0)"/>
    </g>
   </g>
   <g id="legend_1">
    <g id="patch_7">
     <path d="M 97 235.9775 
L 149.245313 235.9775 
Q 151.245313 235.9775 151.245313 233.9775 
L 151.245313 58.84 
Q 151.245313 56.84 149.245313 56.84 
L 97 56.84 
Q 95 56.84 95 58.84 
L 95 233.9775 
Q 95 235.9775 97 235.9775 
z
" style="fill: #ffffff; opacity: 0.8; stroke: #cccccc; stroke-linejoin: miter"/>
    </g>
    <g id="line2d_49">
     <path d="M 99 64.938437 
L 109 64.938437 
L 119 64.938437 
" style="fill: none; stroke: #1f77b4; stroke-width: 1.5; stroke-linecap: square"/>
    </g>
    <g id="text_22">
     <!-- H01 -->
     <g transform="translate(127 68.438437) scale(0.1 -0.1)">
      <defs>
       <path id="DejaVuSans-48" d="M 628 4666 
L 1259 4666 
L 1259 2753 
L 3553 2753 
L 3553 4666 
L 4184 4666 
L 4184 0 
L 3553 0 
L 3553 2222 
L 1259 2222 
L 1259 0 
L 628 0 
L 628 4666 
z
" transform="scale(0.015625)"/>
      </defs>
      <use xlink:href="#DejaVuSans-48"/>
      <use xlink:href="#DejaVuSans-30" transform="translate(75.195312 0)"/>
      <use xlink:href="#DejaVuSans-31" transform="translate(138.818359 0)"/>
     </g>
    </g>
    <g id="line2d_50">
     <path d="M 99 79.616562 
L 109 79.616562 
L 119 79.616562 
" style="fill: none; stroke: #ff7f0e; stroke-width: 1.5; stroke-linecap: square"/>
    </g>
    <g id="text_23">
     <!-- H02 -->
     <g transform="translate(127 83.116562) scale(0.1 -0.1)">
      <use xlink:href="#DejaVuSans-48"/>
      <use xlink:href="#DejaVuSans-30" transform="translate(75.195312 0)"/>
      <use xlink:href="#DejaVuSans-32" transform="translate(138.818359 0)"/>
     </g>
    </g>
    <g id="line2d_51">
     <path d="M 99 94.294688 
L 109 94.294688 
L 119 94.294688 
" style="fill: none; stroke: #2ca02c; stroke-width: 1.5; stroke-linecap: square"/>
    </g>
    <g id="text_24">
     <!-- H03 -->
     <g transform="translate(127 97.794688) scale(0.1 -0.1)">
      <use xlink:href="#DejaVuSans-48"/>
      <use xlink:href="#DejaVuSans-30" transform="translate(75.195312 0)"/>
      <use xlink:href="#DejaVuSans-33" transform="translate(138.818359 0)"/>
     </g>
    </g>
    <g id="line2d_52">
     <path d="M 99 108.972812 
L 109 108.972812 
L 119 108.972812 
" style="fill: none; stroke: #d62728; stroke-width: 1.5; stroke-linecap: square"/>
    </g>
    <g id="text_25">
     <!-- H04 -->
     <g transform="translate(127 112.472812) scale(0.1 -0.1)">
      <use xlink:href="#DejaVuSans-48"/>
      <use xlink:href="#DejaVuSans-30" transform="translate(75.195312 0)"/>
      <use xlink:href="#DejaVuSans-34" transform="translate(138.818359 0)"/>
     </g>
    </g>
    <g id="line2d_53">
     <path d="M 99 123.650937 
L 109 123.650937 
L 119 123.650937 
" style="fill: none; stroke: #9467bd; stroke-width: 1.5; stroke-linecap: square"/>
    </g>
    <g id="text_26">
     <!-- H05 -->
     <g transform="translate(127 127.150937) scale(0.1 -0.1)">
      <use xlink:href="#DejaVuSans-48"/>
      <use xlink:href="#DejaVuSans-30" transform="translate(75.195312 0)"/>
      <use xlink:href="#DejaVuSans-35" transform="translate(138.818359 0)"/>
     </g>
    </g>
    <g id="line2d_54">
     <path d="M 99 138.329062 
L 109 138.329062 
L 119 138.329062 
" style="fill: none; stroke: #8c564b; stroke-width: 1.5; stroke-linecap: square"/>
    </g>
    <g id="text_27">
     <!-- H06 -->
     <g transform="translate(127 141.829062) scale(0.1 -0.1)">
      <use xlink:href="#DejaVuSans-48"/>
      <use xlink:href="#DejaVuSans-30" transform="translate(75.195312 0)"/>
      <use xlink:href="#DejaVuSans-36" transform="translate(138.818359 0)"/>
     </g>
    </g>
    <g id="line2d_55">
     <path d="M 99 153.007187 
L 109 153.007187 
L 119 153.007187 
" style="fill: none; stroke: #e377c2; stroke-width: 1.5; stroke-linecap: square"/>
    </g>
    <g id="text_28">
     <!-- H07 -->
     <g transform="translate(127 156.507187) scale(0.1 -0.1)">
      <use xlink:href="#DejaVuSans-48"/>
      <use xlink:href="#DejaVuSans-30" transform="translate(75.195312 0)"/>
      <use xlink:href="#DejaVuSans-37" transform="translate(138.818359 0)"/>
     </g>
    </g>
    <g id="line2d_56">
     <path d="M 99 167.685312 
L 109 167.685312 
L 119 167.685312 
" style="fill: none; stroke: #7f7f7f; stroke-width: 1.5; stroke-linecap: square"/>
    </g>
    <g id="text_29">
     <!-- H08 -->
     <g transform="translate(127 171.185312) scale(0.1 -0.1)">
      <use xlink:href="#DejaVuSans-48"/>
      <use xlink:href="#DejaVuSans-30" transform="translate(75.195312 0)"/>
      <use xlink:href="#DejaVuSans-38" transform="translate(138.818359 0)"/>
     </g>
    </g>
    <g id="line2d_57">
     <path d="M 99 182.363437 
L 109 182.363437 
L 119 182.363437 
" style="fill: none; stroke: #bcbd22; stroke-width: 1.5; stroke-linecap: square"/>
    </g>
    <g id="text_30">
     <!-- H09 -->
     <g transform="translate(127 185.863437) scale(0.1 -0.1)">
      <use xlink:href="#DejaVuSans-48"/>
      <use xlink:href="#DejaVuSans-30" transform="translate(75.195312 0)"/>
      <use xlink:href="#DejaVuSans-39" transform="translate(138.818359 0)"/>
     </g>
    </g>
    <g id="line2d_58">
     <path d="M 99 197.041562 
L 109 197.041562 
L 119 197.041562 
" style="fill: none; stroke: #17becf; stroke-width: 1.5; stroke-linecap: square"/>
    </g>
    <g id="text_31">
     <!-- H10 -->
     <g transform="translate(127 200.541562) scale(0.1 -0.1)">
      <use xlink:href="#DejaVuSans-48"/>
      <use xlink:href="#DejaVuSans-31" transform="translate(75.195312 0)"/>
      <use xlink:href="#DejaVuSans-30" transform="translate(138.818359 0)"/>
     </g>
    </g>
    <g id="line2d_59">
     <path d="M 99 211.719687 
L 109 211.719687 
L 119 211.719687 
" style="fill: none; stroke: #1f77b4; stroke-width: 1.5; stroke-linecap: square"/>
    </g>
    <g id="text_32">
     <!-- H11 -->
     <g transform="translate(127 215.219687) scale(0.1 -0.1)">
      <use xlink:href="#DejaVuSans-48"/>
      <use xlink:href="#DejaVuSans-31" transform="translate(75.195312 0)"/>
      <use xlink:href="#DejaVuSans-31" transform="translate(138.818359 0)"/>
     </g>
    </g>
    <g id="line2d_60">
     <path d="M 99 226.397812 
L 109 226.397812 
L 119 226.397812 
" style="fill: none; stroke: #ff7f0e; stroke-width: 1.5; stroke-linecap: square"/>
    </g>
    <g id="text_33">
     <!-- H12 -->
     <g transform="translate(127 229.897812) scale(0.1 -0.1)">
      <use xlink:href="#DejaVuSans-48"/>
      <use xlink:href="#DejaVuSans-31" transform="translate(75.195312 0)"/>
      <use xlink:href="#DejaVuSans-32" transform="translate(138.818359 0)"/>
     </g>
    </g>
   </g>
  </g>
 </g>
 <defs>
  <clipPath id="pd4fe4ccf68">
   <rect x="90" y="51.84" width="558" height="332.64"/>
  </clipPath>
 </defs>
</svg>
